<svg width="76" height="76" viewBox="0 0 76 76" fill="none" xmlns="http://www.w3.org/2000/svg">
<rect y="0.593262" width="75.3827" height="75.3827" fill="#ED863C"/>
<g clip-path="url(#clip0_9_662)">
<path d="M43.0673 48.4187C42.7571 50.0023 43.903 51.5858 45.4748 51.6604C47.1772 51.7408 48.8871 51.6926 50.5925 51.7086C50.8998 51.7116 51.2189 51.7101 51.5128 51.7847C52.6942 52.0844 53.3948 52.8477 53.6234 54.0262C53.7629 54.7441 53.5432 54.9971 52.8026 54.9971C48.4493 54.9971 44.0959 54.9971 39.7441 54.9971C34.2776 54.9971 28.8125 54.9971 23.346 54.9971C23.2228 54.9971 23.0981 55.0015 22.9749 54.9942C22.5267 54.9664 22.3337 54.7558 22.3456 54.3142C22.3783 53.0056 23.4811 51.8125 24.8184 51.7364C25.9405 51.6736 27.0685 51.713 28.1936 51.7043C28.9847 51.6969 29.7788 51.7262 30.5654 51.6619C32.1135 51.5332 33.2475 49.9789 32.9343 48.4187H32.4742C29.0114 48.4187 25.5486 48.4187 22.0859 48.4187C21.4847 48.4187 20.9014 48.35 20.3775 48.0298C19.4988 47.4946 19.009 46.7182 19.0075 45.7049C18.9971 38.3707 18.9971 31.0378 19.006 23.7036C19.009 22.2604 20.143 21.1111 21.6035 21.0102C21.7267 21.0015 21.8499 21 21.9745 21C32.6582 21 43.3434 21 54.0286 21C55.4475 21 56.5058 21.7209 56.8709 22.9505C56.9526 23.2269 56.9941 23.5252 56.9941 23.8132C57.0001 31.0744 57.0016 38.3341 56.9971 45.5953C56.9971 47.1569 55.9091 48.2974 54.3225 48.3983C53.7688 48.4334 53.2108 48.4158 52.6542 48.4158C49.6114 48.4158 46.5702 48.4158 43.5275 48.4158H43.0673V48.4187ZM55.8854 42.9107C55.8854 42.7601 55.8854 42.6285 55.8854 42.4984C55.8854 36.3222 55.8854 30.1459 55.8854 23.9697C55.8854 22.7415 55.2368 22.0996 53.9915 22.0996C43.333 22.0996 32.6731 22.0996 22.0146 22.0996C20.7663 22.0996 20.1162 22.74 20.1162 23.9653C20.1162 30.1415 20.1162 36.3178 20.1162 42.494V42.9122H55.8854V42.9107ZM20.1207 44.0483C20.1207 44.6639 20.0984 45.237 20.1266 45.8058C20.1608 46.4887 20.6773 47.0955 21.3482 47.2505C21.6094 47.3119 21.8884 47.3163 22.1586 47.3163C32.7191 47.3192 43.2811 47.3192 53.8416 47.3177C54.0137 47.3177 54.1889 47.3148 54.3596 47.2987C55.121 47.2256 55.7429 46.727 55.8349 45.9828C55.9136 45.3511 55.8513 44.7034 55.8513 44.0468H20.1207V44.0483ZM52.4375 53.8771C52.3618 53.7338 52.3172 53.6256 52.2534 53.5305C51.8779 52.9837 51.3361 52.8009 50.686 52.8024C46.9635 52.8097 43.241 52.8053 39.517 52.8053C39.3686 52.8053 39.2187 52.8097 39.0732 52.7892C38.7422 52.7453 38.5433 52.526 38.5671 52.2248C38.5908 51.9119 38.7734 51.7393 39.0895 51.713C39.1994 51.7028 39.3122 51.7072 39.4235 51.7072C40.4877 51.7072 41.5504 51.7072 42.6146 51.7072C42.7334 51.7072 42.8521 51.6955 43.0451 51.6852C42.1337 50.7524 41.8324 49.666 41.8933 48.4524H34.098C34.1766 49.6835 33.8501 50.7582 32.9373 51.7072C34.2167 51.7072 35.3878 51.7072 36.5603 51.7072C36.7088 51.7072 36.8587 51.7028 37.0041 51.7291C37.2683 51.7774 37.4123 51.9528 37.4286 52.2116C37.4464 52.4865 37.3203 52.6927 37.0457 52.7629C36.8809 52.8053 36.7028 52.8038 36.5307 52.8038C32.8319 52.8053 29.1346 52.8038 25.4358 52.8067C25.2265 52.8067 25.0143 52.8067 24.8065 52.8389C24.2158 52.9266 23.6814 53.4062 23.6369 53.8771H52.4389H52.4375Z" fill="white"/>
</g>
<defs>
<clipPath id="clip0_9_662">
<rect width="38" height="34" fill="white" transform="translate(19 21)"/>
</clipPath>
</defs>
</svg>
