<svg width="271" height="36" fill="none" xmlns="http://www.w3.org/2000/svg"><path d="M65.068 25.067v8.253H60.6V29H45.881v4.32h-4.468l.03-8.253h.834c1.25-.04 2.135-.953 2.651-2.74.517-1.788.834-4.34.953-7.658l.239-6.524h16.029v16.922h2.92zm-14.926-9.95c-.1 2.482-.308 4.568-.626 6.256-.318 1.668-.804 2.9-1.46 3.694h9.326v-12.99h-7.15l-.09 3.04zM83.21 24.53h-9.683L71.68 29h-4.946L76.03 8.145h4.766L90.122 29h-5.065l-1.847-4.469zm-1.52-3.665l-3.307-7.984-3.307 7.984h6.614zm26.685-8.788h-6.674V29h-4.766V12.078H90.29V8.145h18.084v3.933zm16.701 12.453h-9.683L113.546 29H108.6l9.296-20.855h4.767L131.988 29h-5.065l-1.847-4.469zm-1.52-3.665l-3.307-7.984-3.307 7.984h6.614zm31.626-12.72V29h-2.175V10.052h-10.07l-.238 6.971c-.099 2.88-.338 5.204-.715 6.972-.358 1.748-.914 3.058-1.668 3.932-.755.855-1.758 1.282-3.01 1.282-.536 0-1.092-.07-1.668-.209l.179-1.966c.337.08.665.119.983.119.874 0 1.579-.348 2.115-1.043.556-.695.974-1.768 1.252-3.218.278-1.47.466-3.406.566-5.81l.298-8.937h14.151zm7.632 0h2.175v17.28l13.347-17.28h1.996V29h-2.175V11.75L164.81 29h-1.996V8.145zm38.797 1.907h-7.329V29h-2.175V10.052h-7.329V8.145h16.833v1.907zm4.466-1.907h2.175v17.28l13.347-17.28h1.996V29h-2.175V11.75L208.073 29h-1.996V8.145zm32.064 11.291h-4.767V29h-2.145V8.145h2.145V17.5h4.767l7.061-9.355h2.383l-7.746 10.13L248.032 29H245.5l-7.359-9.564zm22.963 9.743c-2.066 0-3.933-.457-5.601-1.37a10.2 10.2 0 01-3.903-3.784c-.934-1.63-1.4-3.447-1.4-5.453 0-2.006.466-3.813 1.4-5.422a10.077 10.077 0 013.933-3.813c1.668-.914 3.535-1.37 5.601-1.37 1.549 0 2.979.257 4.29.774a8.895 8.895 0 013.337 2.264l-1.4 1.4c-1.629-1.648-3.685-2.473-6.168-2.473-1.648 0-3.148.378-4.498 1.133a8.374 8.374 0 00-3.188 3.098c-.755 1.31-1.132 2.78-1.132 4.41 0 1.628.377 3.098 1.132 4.409a8.375 8.375 0 003.188 3.098c1.35.755 2.85 1.132 4.498 1.132 2.503 0 4.559-.834 6.168-2.502l1.4 1.4c-.914.993-2.036 1.758-3.367 2.294-1.311.517-2.741.775-4.29.775z" fill="#fff"/><rect y="12.91" width="3.724" height="15.641" rx="1.241" fill="#fff" fill-opacity=".5"/><rect x="6.207" y="9.559" width="3.724" height="18.993" rx="1.241" fill="#fff" fill-opacity=".5"/><path d="M6.207 24.083H9.93v3.227c0 .686-.556 1.242-1.241 1.242H7.448a1.241 1.241 0 01-1.241-1.242v-3.227z" fill="#fff"/><rect x="12.414" y="14.028" width="3.724" height="14.524" rx="1.241" fill="#fff" fill-opacity=".5"/><path d="M12.414 19.614h3.724v7.696c0 .686-.556 1.242-1.241 1.242h-1.242a1.241 1.241 0 01-1.241-1.242v-7.696z" fill="#fff"/><rect x="18.621" y="6.207" width="3.724" height="22.345" rx="1.241" fill="#fff"/><rect x="24.828" y="12.91" width="3.724" height="15.641" rx="1.241" fill="#fff"/></svg>