<svg width="25" height="25" fill="none" xmlns="http://www.w3.org/2000/svg"><g clip-path="url(#clip0_1485_841)"><path d="M24.5 12.48c0-6.627-5.373-12-12-12s-12 5.373-12 12c0 5.99 4.388 10.954 10.125 11.855v-8.386H7.578V12.48h3.047V9.837c0-3.008 1.792-4.669 4.533-4.669 1.312 0 2.686.234 2.686.234v2.953H16.33c-1.491 0-1.956.926-1.956 1.875v2.25h3.328l-.532 3.47h-2.796v8.385c5.737-.9 10.125-5.865 10.125-11.855z" fill="#1D1D1D"/><path d="M17.171 15.95l.532-3.47h-3.328v-2.25c0-.949.465-1.875 1.956-1.875h1.513V5.402s-1.373-.234-2.686-.234c-2.741 0-4.533 1.661-4.533 4.669v2.643H7.578v3.47h3.047v8.385a12.13 12.13 0 003.75 0v-8.386h2.796z" fill="#fff"/></g><defs><clipPath id="clip0_1485_841"><path fill="#fff" transform="translate(.5 .48)" d="M0 0h24v24H0z"/></clipPath></defs></svg>