<svg width="25" height="25" fill="none" xmlns="http://www.w3.org/2000/svg"><g clip-path="url(#clip0_1485_844)"><path d="M12.5 24.48c6.627 0 12-5.372 12-12 0-6.627-5.373-12-12-12s-12 5.373-12 12c0 6.628 5.373 12 12 12z" fill="#fff"/><path d="M12.5.48c-6.627 0-12 5.373-12 12 0 5.087 3.16 9.433 7.625 11.18-.109-.947-.198-2.41.04-3.446.216-.938 1.402-5.966 1.402-5.966s-.356-.72-.356-1.777c0-1.67.968-2.914 2.173-2.914 1.027 0 1.52.77 1.52 1.689 0 1.027-.65 2.568-.997 4-.286 1.195.603 2.173 1.778 2.173 2.133 0 3.773-2.252 3.773-5.492 0-2.874-2.064-4.879-5.017-4.879-3.418 0-5.422 2.558-5.422 5.205 0 1.027.395 2.134.888 2.736a.357.357 0 01.08.346c-.09.375-.297 1.195-.336 1.363-.05.217-.178.266-.405.158-1.502-.702-2.44-2.884-2.44-4.652 0-3.783 2.746-7.26 7.931-7.26 4.158 0 7.398 2.964 7.398 6.934 0 4.138-2.608 7.467-6.223 7.467-1.215 0-2.36-.632-2.745-1.383l-.751 2.854c-.267 1.047-.997 2.35-1.491 3.15 1.126.347 2.31.534 3.555.534 6.627 0 12-5.373 12-12C24.5 5.853 19.127.48 12.5.48z" fill="#1D1D1D"/></g><defs><clipPath id="clip0_1485_844"><path fill="#fff" transform="translate(.5 .48)" d="M0 0h24v24H0z"/></clipPath></defs></svg>