<svg width="25" height="25" fill="none" xmlns="http://www.w3.org/2000/svg"><g clip-path="url(#clip0_1485_843)"><path d="M24.022 6.705A3.016 3.016 0 0021.9 4.569c-1.876-.504-9.376-.504-9.376-.504s-7.5 0-9.376.504a3.016 3.016 0 00-2.122 2.136C.524 8.589.524 12.52.524 12.52s0 3.93.502 5.814a3.017 3.017 0 002.122 2.136c1.876.504 9.376.504 9.376.504s7.5 0 9.376-.505a3.017 3.017 0 002.122-2.135c.502-1.884.502-5.814.502-5.814s0-3.93-.502-5.815z" fill="#1D1D1D"/><path d="M10.07 16.088V8.951l6.272 3.568-6.273 3.569z" fill="#FEFEFE"/></g><defs><clipPath id="clip0_1485_843"><path fill="#fff" transform="translate(.5 .52)" d="M0 0h24v24H0z"/></clipPath></defs></svg>