<svg width="12" height="16" viewBox="0 0 12 16" fill="none" xmlns="http://www.w3.org/2000/svg">
<path fill-rule="evenodd" clip-rule="evenodd" d="M2.4001 0.799805C1.92271 0.799805 1.46487 0.989447 1.12731 1.32701C0.78974 1.66458 0.600098 2.12242 0.600098 2.5998V13.3998C0.600098 13.8772 0.78974 14.335 1.12731 14.6726C1.46487 15.0102 1.92271 15.1998 2.4001 15.1998H9.6001C10.0775 15.1998 10.5353 15.0102 10.8729 14.6726C11.2105 14.335 11.4001 13.8772 11.4001 13.3998V2.5998C11.4001 2.12242 11.2105 1.66458 10.8729 1.32701C10.5353 0.989447 10.0775 0.799805 9.6001 0.799805H2.4001ZM3.3001 2.5998C3.0614 2.5998 2.83248 2.69463 2.6637 2.86341C2.49492 3.03219 2.4001 3.26111 2.4001 3.4998C2.4001 3.7385 2.49492 3.96742 2.6637 4.1362C2.83248 4.30498 3.0614 4.3998 3.3001 4.3998H8.7001C8.93879 4.3998 9.16771 4.30498 9.33649 4.1362C9.50528 3.96742 9.6001 3.7385 9.6001 3.4998C9.6001 3.26111 9.50528 3.03219 9.33649 2.86341C9.16771 2.69463 8.93879 2.5998 8.7001 2.5998H3.3001ZM8.7001 8.89981C8.93879 8.89981 9.16771 8.99463 9.33649 9.16341C9.50528 9.33219 9.6001 9.56111 9.6001 9.7998V12.4998C9.6001 12.7385 9.50528 12.9674 9.33649 13.1362C9.16771 13.305 8.93879 13.3998 8.7001 13.3998C8.4614 13.3998 8.23248 13.305 8.0637 13.1362C7.89492 12.9674 7.8001 12.7385 7.8001 12.4998V9.7998C7.8001 9.56111 7.89492 9.33219 8.0637 9.16341C8.23248 8.99463 8.4614 8.89981 8.7001 8.89981ZM6.0001 11.5998C5.7614 11.5998 5.53248 11.6946 5.3637 11.8634C5.19492 12.0322 5.1001 12.2611 5.1001 12.4998C5.1001 12.7385 5.19492 12.9674 5.3637 13.1362C5.53248 13.305 5.7614 13.3998 6.0001 13.3998H6.0091C6.24779 13.3998 6.47671 13.305 6.64549 13.1362C6.81428 12.9674 6.9091 12.7385 6.9091 12.4998C6.9091 12.2611 6.81428 12.0322 6.64549 11.8634C6.47671 11.6946 6.24779 11.5998 6.0091 11.5998H6.0001ZM2.4001 12.4998C2.4001 12.2611 2.49492 12.0322 2.6637 11.8634C2.83248 11.6946 3.0614 11.5998 3.3001 11.5998H3.3091C3.54779 11.5998 3.77671 11.6946 3.94549 11.8634C4.11428 12.0322 4.2091 12.2611 4.2091 12.4998C4.2091 12.7385 4.11428 12.9674 3.94549 13.1362C3.77671 13.305 3.54779 13.3998 3.3091 13.3998H3.3001C3.0614 13.3998 2.83248 13.305 2.6637 13.1362C2.49492 12.9674 2.4001 12.7385 2.4001 12.4998ZM3.3001 8.89981C3.0614 8.89981 2.83248 8.99463 2.6637 9.16341C2.49492 9.33219 2.4001 9.56111 2.4001 9.7998C2.4001 10.0385 2.49492 10.2674 2.6637 10.4362C2.83248 10.605 3.0614 10.6998 3.3001 10.6998H3.3091C3.54779 10.6998 3.77671 10.605 3.94549 10.4362C4.11428 10.2674 4.2091 10.0385 4.2091 9.7998C4.2091 9.56111 4.11428 9.33219 3.94549 9.16341C3.77671 8.99463 3.54779 8.89981 3.3091 8.89981H3.3001ZM5.1001 9.7998C5.1001 9.56111 5.19492 9.33219 5.3637 9.16341C5.53248 8.99463 5.7614 8.89981 6.0001 8.89981H6.0091C6.24779 8.89981 6.47671 8.99463 6.64549 9.16341C6.81428 9.33219 6.9091 9.56111 6.9091 9.7998C6.9091 10.0385 6.81428 10.2674 6.64549 10.4362C6.47671 10.605 6.24779 10.6998 6.0091 10.6998H6.0001C5.7614 10.6998 5.53248 10.605 5.3637 10.4362C5.19492 10.2674 5.1001 10.0385 5.1001 9.7998ZM8.7001 6.1998C8.4614 6.1998 8.23248 6.29463 8.0637 6.46341C7.89492 6.63219 7.8001 6.86111 7.8001 7.0998C7.8001 7.3385 7.89492 7.56742 8.0637 7.7362C8.23248 7.90498 8.4614 7.9998 8.7001 7.9998H8.7091C8.94779 7.9998 9.17671 7.90498 9.34549 7.7362C9.51428 7.56742 9.6091 7.3385 9.6091 7.0998C9.6091 6.86111 9.51428 6.63219 9.34549 6.46341C9.17671 6.29463 8.94779 6.1998 8.7091 6.1998H8.7001ZM5.1001 7.0998C5.1001 6.86111 5.19492 6.63219 5.3637 6.46341C5.53248 6.29463 5.7614 6.1998 6.0001 6.1998H6.0091C6.24779 6.1998 6.47671 6.29463 6.64549 6.46341C6.81428 6.63219 6.9091 6.86111 6.9091 7.0998C6.9091 7.3385 6.81428 7.56742 6.64549 7.7362C6.47671 7.90498 6.24779 7.9998 6.0091 7.9998H6.0001C5.7614 7.9998 5.53248 7.90498 5.3637 7.7362C5.19492 7.56742 5.1001 7.3385 5.1001 7.0998ZM3.3001 6.1998C3.0614 6.1998 2.83248 6.29463 2.6637 6.46341C2.49492 6.63219 2.4001 6.86111 2.4001 7.0998C2.4001 7.3385 2.49492 7.56742 2.6637 7.7362C2.83248 7.90498 3.0614 7.9998 3.3001 7.9998H3.3091C3.54779 7.9998 3.77671 7.90498 3.94549 7.7362C4.11428 7.56742 4.2091 7.3385 4.2091 7.0998C4.2091 6.86111 4.11428 6.63219 3.94549 6.46341C3.77671 6.29463 3.54779 6.1998 3.3091 6.1998H3.3001Z" fill="white"/>
</svg>
