<svg width="157" height="32" fill="none" xmlns="http://www.w3.org/2000/svg"><path d="M0 0h27.323v1.835H1.822v28.49h25.343V32H0V0z" fill="#BBAE91"/><path d="M24.235 10.693H13.94v1.995h8.553v7.103H13.94v1.915h10.295V10.693z" fill="#BBAE91"/><path d="M45.253 29.969v-14.44h2.66c2.422 0 6.67.32 7.82.52v-1.6c-1.15.24-5.398.6-7.82.6h-2.66V2.009h4.407c4.208 0 7.662.08 10.361 1.68l-.12-2.16H41.88v28.92h18.579l.436-2.36c-3.652 1.72-9.25 1.88-13.1 1.88h-2.54zm38.127-6.76c0-4.72-4.327-7.28-8.416-9.48-3.89-2-7.304-3.96-7.304-7.84 0-2.24 1.31-4.52 5.835-4.52 3.652 0 6.034 1.64 7.503 3.72l.238-2.24c-2.024-1.12-4.565-1.96-7.74-1.96-6.194 0-8.695 3.28-8.695 6.84 0 4.36 3.89 6.68 8.178 9 3.97 2.04 7.503 4.68 7.503 8.24 0 2.84-1.945 5.56-6.748 5.56-4.407 0-7.265-2.12-8.853-4.12l-.238 2.24c3.93 2.2 7.94 2.36 9.13 2.36 6.114 0 9.607-3.68 9.607-7.8zm16.799 7.24V2.009h2.7c5.161 0 6.987 1 8.178 1.68l-.119-2.16H86.047l-.12 2.16c1.192-.68 3.057-1.68 8.218-1.68h2.66v28.44h3.374zm18.462-.48v-14.44h2.66c2.421 0 6.669.32 7.82.52v-1.6c-1.151.24-5.399.6-7.82.6h-2.66V2.009h4.406c4.208 0 7.662.08 10.362 1.68l-.119-2.16h-18.023v28.92h18.578l.437-2.36c-3.652 1.72-9.25 1.88-13.1 1.88h-2.541zm38.126-6.76c0-4.72-4.327-7.28-8.416-9.48-3.891-2-7.305-3.96-7.305-7.84 0-2.24 1.31-4.52 5.836-4.52 3.652 0 6.034 1.64 7.503 3.72l.238-2.24c-2.024-1.12-4.565-1.96-7.741-1.96-6.193 0-8.694 3.28-8.694 6.84 0 4.36 3.891 6.68 8.178 9 3.97 2.04 7.503 4.68 7.503 8.24 0 2.84-1.945 5.56-6.749 5.56-4.406 0-7.265-2.12-8.853-4.12l-.238 2.24c3.93 2.2 7.94 2.36 9.131 2.36 6.113 0 9.607-3.68 9.607-7.8z" fill="#000"/></svg>