<svg width="33" height="21" fill="none" xmlns="http://www.w3.org/2000/svg"><path d="M13.79 9.667c.664-.334 1.166-.706 1.51-1.108.612-.724.914-1.685.914-2.875 0-1.158-.302-2.148-.906-2.978C14.3 1.354 12.594.662 10.182.626H.625v19.508h8.91c1.005 0 1.935-.086 2.795-.262.86-.178 1.604-.505 2.234-.98a5.41 5.41 0 001.4-1.535c.588-.916.882-1.954.882-3.11 0-1.12-.258-2.074-.77-2.858-.518-.784-1.278-1.358-2.286-1.722zM4.567 4.014h4.305c.946 0 1.726.102 2.338.304.708.294 1.062.892 1.062 1.804 0 .818-.27 1.39-.804 1.713-.538.322-1.236.484-2.092.484H4.567V4.014zm6.807 12.391c-.476.23-1.146.344-2.004.344H4.567v-5.202h4.869c.848.006 1.508.118 1.98.328.84.38 1.258 1.076 1.258 2.094 0 1.2-.432 2.008-1.3 2.436zM29.549 1.536h-8.475v2.428h8.475V1.536zm2.943 9.583c-.176-1.13-.564-2.125-1.168-2.983-.662-.972-1.502-1.684-2.524-2.134-1.018-.452-2.164-.678-3.44-.676-2.142 0-3.883.67-5.229 2-1.342 1.334-2.014 3.253-2.014 5.753 0 2.666.742 4.592 2.234 5.774 1.486 1.184 3.203 1.774 5.15 1.774 2.359 0 4.193-.702 5.503-2.102.838-.884 1.312-1.754 1.416-2.608h-3.904c-.226.422-.488.752-.788.992-.544.44-1.252.66-2.12.66-.826 0-1.526-.182-2.11-.544-.965-.58-1.469-1.596-1.533-3.042H32.62c.016-1.246-.024-2.204-.128-2.864zm-10.43.374c.14-.938.48-1.682 1.02-2.232.54-.549 1.304-.825 2.282-.827.902 0 1.656.258 2.27.777.606.522.948 1.28 1.018 2.282h-6.59z" fill="#1A1919"/></svg>