<svg width="23" height="23" fill="none" xmlns="http://www.w3.org/2000/svg"><path d="M19.402.626H3.848A3.227 3.227 0 00.625 3.849v15.554a3.227 3.227 0 003.223 3.223h15.554a3.227 3.227 0 003.223-3.223V3.85A3.226 3.226 0 0019.402.626zm-11 17.445H5.824V9.048h2.578v9.023zm0-10.312H5.824V5.18h2.578v2.578zm9.024 10.312h-2.578v-5.156a1.29 1.29 0 00-1.29-1.289 1.29 1.29 0 00-1.288 1.289v5.156H9.69V9.048h2.579v.486c.675-.21 1.114-.486 1.933-.486 1.749.002 3.223 1.57 3.223 3.424v5.6z" fill="#1A1919"/></svg>