<svg width="76" height="76" fill="none" xmlns="http://www.w3.org/2000/svg"><path fill="#ED863C" d="M0 .609h75.383v75.383H0z"/><g clip-path="url(#clip0_9_640)" fill="#fff"><path d="M58.19 37.911c.081 9.02-5.446 16.895-13.904 19.79-11.69 4.002-24.345-3.32-26.708-15.456-2.15-11.032 4.878-21.65 15.906-24 3.334-.71 6.651-.558 9.93.38.756.216 1.159.89.968 1.591-.192.71-.903 1.088-1.677.869-3.746-1.058-7.472-.984-11.118.37-4.97 1.847-8.541 5.238-10.518 10.159-3.54 8.809.284 18.604 8.819 22.816 6.307 3.112 14.167 2.082 19.468-2.547 3.356-2.93 5.392-6.59 6.068-10.99.388-2.523.204-5.022-.48-7.484-.065-.239-.123-.502-.094-.742a1.238 1.238 0 011.143-1.1c.629-.045 1.195.287 1.334.912.292 1.31.532 2.632.76 3.956.083.482.072.983.103 1.475v.001z"/><path d="M38.394 52.413c-7.717.004-13.722-5.197-14.699-12.121-1.037-7.36 3.838-14.322 11.09-15.819a14.26 14.26 0 016.46.15c.545.139.954.426 1.082.996.22.973-.62 1.77-1.613 1.515a11.943 11.943 0 00-4.52-.293c-4.547.58-8.377 3.867-9.626 8.264-1.9 6.692 2.42 13.468 9.316 14.614 6.126 1.018 12.132-3.26 13.178-9.376a11.923 11.923 0 00-.21-5.072c-.164-.63.091-1.22.618-1.503.504-.27 1.164-.176 1.535.264.163.196.29.454.35.704 1.048 4.363.326 8.409-2.375 12.004-2.806 3.732-6.63 5.568-10.586 5.675v-.002z"/><path d="M37.591 39.574c-.426-.026-.816-.249-1.043-.707-.236-.473-.181-.932.131-1.355.087-.117.199-.216.301-.319 2.33-2.329 4.662-4.654 6.982-6.993.15-.152.261-.399.285-.612.209-1.92.398-3.844.58-5.767.047-.503.246-.9.608-1.257 1.417-1.392 2.82-2.8 4.218-4.212.441-.445.925-.687 1.54-.444.594.236.794.725.834 1.335.089 1.37.214 2.738.313 4.107.016.224.112.287.32.303 1.397.1 2.792.218 4.188.319.585.041 1.028.282 1.242.843.209.546.05 1.017-.354 1.42-1.481 1.48-2.966 2.957-4.439 4.443-.313.316-.688.436-1.11.477-1.936.191-3.874.379-5.809.585a1.04 1.04 0 00-.579.271 1834.686 1834.686 0 00-7.078 7.066c-.294.294-.618.503-1.13.497zm9.292-10.47c1.617-.165 3.177-.32 4.734-.489.103-.011.21-.103.292-.183a241.07 241.07 0 001.893-1.891c.056-.056.093-.133.156-.223-.459-.037-.87-.072-1.281-.102-.412-.033-.823-.063-1.235-.092-1.091-.075-1.494-.471-1.574-1.554-.008-.12-.01-.24-.02-.36l-.185-2.234c-.778.776-1.493 1.486-2.203 2.204a.431.431 0 00-.096.248c-.16 1.534-.316 3.07-.48 4.674l-.001.002z"/><path d="M37.883 33.204c-2.732-.093-4.955 1.837-5.295 4.568-.311 2.513 1.454 4.943 4.014 5.526 3.05.696 6.094-1.649 6.204-4.78.007-.174.002-.35.042-.517a1.28 1.28 0 011.409-.978c.64.085 1.105.63 1.116 1.308.053 3.272-2.269 6.376-5.475 7.322-5.135 1.516-10.191-2.49-9.885-7.833.242-4.223 4.027-7.53 8.23-7.19.422.033.822.115 1.11.465.335.405.426.857.212 1.341-.206.463-.57.73-1.082.766-.2.015-.4.002-.6.002z"/></g><defs><clipPath id="clip0_9_640"><path fill="#fff" transform="translate(17.191 17.8)" d="M0 0h41v41H0z"/></clipPath></defs></svg>