<svg width="38" height="27" fill="none" xmlns="http://www.w3.org/2000/svg"><g clip-path="url(#clip0_227_678)"><path d="M18.77 26.583c-4.824-.352-9.629-.676-14.427-1.066-2.14-.174-3.609-1.636-3.848-3.742A73.221 73.221 0 01.4 5.673c.07-.649.076-1.328.293-1.933C1.275 2.055 2.496 1.025 4.3.873 7.927.573 11.56.252 15.198.09c6.018-.27 12.027.093 18.014.764 2.186.246 3.661 1.697 3.902 3.866a76.61 76.61 0 010 16.977c-.24 2.143-1.695 3.637-3.856 3.819-4.827.393-9.656.715-14.489 1.067zM15.734 7.04v12.306l9.317-6.156-9.317-6.15z" fill="#D9D9D9"/></g><defs><clipPath id="clip0_227_678"><path fill="#fff" d="M0 0h37.583v26.583H0z"/></clipPath></defs></svg>