<svg width="35" height="35" fill="none" xmlns="http://www.w3.org/2000/svg"><path d="M17.46 34.868c-2.583 0-5.17.1-7.746-.023-3.763-.18-6.793-1.712-8.557-5.207-.806-1.59-1.106-3.333-1.119-5.1-.032-4.651-.078-9.303.028-13.945.03-1.547.31-3.078.833-4.535C2.174 2.59 4.89.774 8.483.275A31.714 31.714 0 0112.927 0c4.091 0 8.185.008 12.273.137 3.157.096 5.892 1.21 7.838 3.83 1.358 1.829 1.908 3.952 1.922 6.167.035 5.171.107 10.35-.11 15.514-.227 5.394-4.057 8.993-9.507 9.204-2.623.097-5.255.014-7.883.015zm.015-3.147c2.56 0 5.12.071 7.677-.016 3.783-.137 6.404-2.38 6.518-5.958.174-5.482.137-10.977.008-16.462-.071-2.94-1.896-4.962-4.617-5.675a8.26 8.26 0 00-2.025-.314c-5.006-.026-10.012-.11-15.015.015-3.993.1-6.546 2.349-6.663 6.02-.173 5.436-.137 10.886-.01 16.327.068 2.93 1.836 4.967 4.495 5.703a8.769 8.769 0 002.158.341c2.488.046 4.985.02 7.474.02z" fill="#D9D9D9"/><path d="M27 17.996a8.631 8.631 0 01-1.625 4.977 9.411 9.411 0 01-4.278 3.287 10.017 10.017 0 01-5.489.488 9.678 9.678 0 01-4.851-2.474 8.83 8.83 0 01-2.581-4.603 8.518 8.518 0 01.56-5.182 9.111 9.111 0 013.51-4.016 9.902 9.902 0 015.281-1.497c2.522.01 4.936.966 6.713 2.657 1.776 1.692 2.769 3.98 2.76 6.363zm-15.66-.033a5.593 5.593 0 001.043 3.23 6.097 6.097 0 002.767 2.139 6.493 6.493 0 003.559.325 6.275 6.275 0 003.15-1.597 5.724 5.724 0 001.68-2.982 5.52 5.52 0 00-.358-3.36 5.904 5.904 0 00-2.273-2.608 6.417 6.417 0 00-3.423-.974c-1.63.007-3.193.624-4.344 1.716-1.152 1.092-1.8 2.57-1.801 4.11zM29 8.023a1.992 1.992 0 01-.6 1.38A2.003 2.003 0 0125 8.035a1.99 1.99 0 011.217-1.893 2.004 2.004 0 012.643 1.101c.098.248.145.512.14.779z" fill="#D9D9D9"/></svg>