<svg width="33" height="33" fill="none" xmlns="http://www.w3.org/2000/svg"><g clip-path="url(#clip0_227_670)"><path d="M17.091 25.171c-1.237 1.414-2.446 2.832-3.694 4.198-.33.36-.78.56-1.174.833l-.155-.177c.039-.814.072-1.626.125-2.438.11-1.9.241-3.8.33-5.7.003-.234.047-.464.131-.675.084-.21.205-.397.355-.546 4.283-4.593 8.56-9.195 12.833-13.805.239-.259.456-.544.717-.859-.541-.48-.918-.16-1.274.104a1530.4 1530.4 0 00-6.748 5.058c-3.205 2.406-6.41 4.812-9.612 7.219-.344.258-.636.34-1.039.185-2.204-.852-4.42-1.662-6.631-2.498C.699 15.86.02 15.683 0 14.829c-.022-.823.613-1.161 1.15-1.414 2.817-1.328 5.648-2.62 8.47-3.918C16.284 6.435 22.95 3.377 29.616.32c.213-.104.431-.19.654-.255.978-.272 1.718.332 1.8 1.538a6.542 6.542 0 01-.112 1.563A14491.69 14491.69 0 0127.18 30.04a5.35 5.35 0 01-.251.927c-.364.976-1.004 1.335-1.839.983a3.94 3.94 0 01-1.031-.689c-2.149-1.867-4.286-3.76-6.428-5.632-.168-.147-.339-.289-.54-.459z" fill="#D9D9D9"/></g><defs><clipPath id="clip0_227_670"><path fill="#fff" d="M0 0h32.083v32.083H0z"/></clipPath></defs></svg>