<svg width="30" height="34" fill="none" xmlns="http://www.w3.org/2000/svg"><g clip-path="url(#clip0_227_681)"><path d="M12.062 18.238c-.833 0-1.625-.107-2.38.02a4.905 4.905 0 00-3.134 1.856 4.924 4.924 0 00-.994 3.51 4.979 4.979 0 001.689 3.231 4.96 4.96 0 003.434 1.209c2.667-.105 4.736-2.21 4.77-4.943.04-3.15.015-6.298.017-9.447V0h5.44c.1 2.277.883 4.266 2.504 5.88 1.621 1.614 3.593 2.42 5.925 2.493v5.433c-3.05 0-5.784-.96-8.355-2.816-.016.309-.038.525-.038.75.008 3.718.025 7.434.025 11.154 0 5.248-3.448 9.435-8.606 10.451C6.83 34.434 1.192 30.62.18 25.106-.876 19.36 2.91 13.87 8.62 12.94c.96-.156 1.953-.114 2.931-.113.172 0 .487.255.491.394.03 1.696.019 3.4.019 5.018z" fill="#D9D9D9"/></g><defs><clipPath id="clip0_227_681"><path fill="#fff" d="M0 0h29.333v33.525H0z"/></clipPath></defs></svg>