<svg width="75" height="75" viewBox="0 0 75 75" fill="none" xmlns="http://www.w3.org/2000/svg">
<g clip-path="url(#clip0_6130_19645)">
<path d="M52.8213 70.0551C50.7928 69.3048 49.2049 70.5157 47.6053 72.1989C44.6728 75.2783 44.5308 75.3363 40.7231 73.488C38.5788 72.448 36.8054 72.4422 34.6552 73.488C30.8389 75.345 30.6708 75.3044 27.7817 72.2047C26.1619 70.4665 24.5247 69.8002 22.1311 70.0059C17.8801 70.368 17.7294 70.2608 16.1588 66.3296C15.2576 64.0787 13.9276 62.8533 11.5833 62.1551C7.50324 60.9557 7.40761 60.8022 7.4192 56.5118C7.4192 54.1682 6.6484 52.6096 4.81122 51.1872C0.974592 48.2236 1.35131 48.3395 2.86973 44.2084C3.684 41.9922 3.429 40.2743 2.25541 38.2986C0.0849878 34.6571 0.0820878 34.492 2.88712 31.3198C4.50406 29.4918 5.20532 27.6928 4.48957 25.3492C3.56229 22.3103 4.57651 20.2216 7.59597 19.1236C9.8765 18.2951 11.1515 16.6873 11.3283 14.2277C11.4129 13.6078 11.5506 12.9962 11.7398 12.3998C12.2092 10.5689 12.838 9.7925 14.6868 9.7925C18.4191 9.7925 21.0387 8.25421 22.6614 4.86767C23.4351 3.25985 24.8405 2.68046 26.5328 3.36414C30.0101 4.76917 33.0064 4.10866 35.7245 1.5912C36.956 0.449799 38.3933 0.432418 39.6336 1.57382C42.398 4.12025 45.4291 4.79524 48.9614 3.34386C50.6219 2.66018 51.9722 3.32069 52.6966 4.85029C54.3078 8.25422 56.9563 9.72587 60.6655 9.77512C62.5432 9.80119 63.3894 10.5225 63.5806 12.3824C63.9776 16.1861 65.7974 18.6659 69.3761 20.0999C71.138 20.8068 71.5552 21.783 71.0742 23.5994C70.1498 27.099 70.6946 30.0539 73.5141 32.5134C74.963 33.7736 75.0963 35.364 73.914 36.8965C71.7436 39.7152 71.5495 42.5948 73.0447 45.8394C74.0473 48.0353 73.8039 48.7537 71.8102 50.1472C69.0893 52.0505 67.4636 54.3014 67.9186 57.7952C68.2083 60.0606 67.0116 61.3324 64.7919 61.8915C62.323 62.5143 60.2047 63.3776 59.1963 66.3006C57.7706 70.3042 57.5011 70.2058 52.8213 70.0551ZM52.3866 67.8766C53.1835 67.8766 53.6848 67.7868 54.1426 67.8911C55.7161 68.2532 56.3942 67.4942 57.0114 66.121C59.5527 60.472 57.9764 62.0363 64.1283 59.823C65.3338 59.3885 65.7279 58.841 65.7568 57.5895C65.8843 52.3576 65.8872 52.3112 69.9992 48.9218C71.1235 47.9976 71.2771 47.2039 70.8482 45.8713C68.9125 39.8717 68.7444 41.998 71.6856 36.543C72.3898 35.2336 72.3376 34.4399 71.3959 33.2753C67.4578 28.4229 68.0692 30.4334 68.8603 24.2512C69.0371 22.8781 68.7328 22.1307 67.4636 21.4064C61.926 18.2372 63.3024 19.9579 61.7927 13.9468C61.4102 12.4143 60.7466 11.9362 59.2572 11.7045C53.395 10.7919 54.9656 11.8957 51.7085 7.10991C50.7001 5.62667 49.7931 5.28482 48.0805 5.69619C42.5342 7.0288 44.2787 7.17655 39.6278 4.18399C37.2516 2.65439 37.9703 2.49216 35.7216 4.25351C33.1658 6.25531 30.6795 6.89264 27.4746 5.86422C24.6029 4.94299 25.1564 4.66778 23.6408 7.33298C21.9515 10.2821 19.6361 11.7335 16.3327 11.7132C14.5245 11.7132 13.8493 12.5475 13.4523 14.2712C12.157 19.8623 13.1452 18.327 8.23637 21.2587C6.24851 22.4406 6.08914 22.4493 6.62522 24.7148C7.37284 27.8695 6.98164 30.5898 4.41423 32.7915C3.99793 33.1226 3.66456 33.5461 3.44059 34.0285C3.22601 34.5472 3.17053 35.1179 3.28121 35.6682C3.47034 36.3157 3.78437 36.9199 4.20559 37.4469C5.99351 39.7847 6.03698 42.1632 4.92424 44.8573C3.78542 47.6123 3.95349 47.6819 6.28908 49.6692C6.94687 50.2283 7.70898 50.7121 8.23347 51.3813C8.75786 52.0354 9.12916 52.7986 9.32013 53.6149C9.5677 54.7452 9.64873 55.9056 9.56065 57.0593C9.39548 58.8323 10.1895 59.4986 11.8006 60.0461C17.2745 61.9089 15.9183 60.6921 18.2249 65.9067C18.9523 67.555 19.7752 67.9867 21.5342 67.9345C27.2804 67.7231 25.4693 67.1524 29.561 71.0227C31.5894 72.926 30.7635 72.7985 33.4555 71.6977C38.5469 69.6119 36.7358 69.5771 41.9257 71.6977C44.4815 72.7464 43.7252 73.0274 45.8 70.9705C47.7328 69.073 49.457 66.8018 52.3866 67.8766Z" fill="#4F4F4F"/>
<path d="M38.2251 18.7441C38.2251 20.3722 38.2889 21.9047 38.2251 23.4285C37.9557 28.785 35.4694 32.6988 30.5142 35.1351C30.5142 39.3212 30.4881 43.6058 30.5577 47.8818C30.5577 48.2729 31.117 48.9392 31.4908 48.9971C33.9481 49.3737 36.417 49.6373 38.8974 49.8951C39.6184 49.9372 40.3411 49.9372 41.0621 49.8951C41.8589 49.8951 42.6906 50.0921 42.5109 51.0018C42.4269 51.4479 41.5431 52.0447 41.0099 52.0592C37.5007 52.1548 33.9713 52.2967 30.4273 50.9757C29.6797 53.0268 27.9932 53.1861 26.1676 53.0876C25.2548 53.0384 24.3362 53.105 23.4234 53.0702C21.6848 53.0065 20.459 51.9259 20.4155 50.2022C20.3344 46.9287 20.3412 43.6551 20.4358 40.3815C20.4503 39.9238 21.1719 39.4864 21.5689 39.0402C21.9108 39.5385 22.5396 40.0252 22.5541 40.5322C22.6497 43.4639 22.6439 46.4043 22.5831 49.3418C22.557 50.5209 22.9511 50.9844 24.1536 50.9612C29.1697 50.8598 28.3206 51.5841 28.367 46.778C28.4105 42.3949 28.3409 38.0118 28.3989 33.6316C28.4192 32.3425 28.0598 31.7399 26.6863 31.8674C25.7215 31.929 24.7539 31.9339 23.7885 31.8818C22.9337 31.8558 22.5483 32.2179 22.5889 33.087C22.661 33.7562 22.6366 34.4323 22.5164 35.0946C22.4446 35.3057 22.3228 35.4964 22.1613 35.6502C21.9999 35.8041 21.8036 35.9166 21.5891 35.9781C21.2414 36.0158 20.5141 35.5465 20.5199 35.3205C20.572 33.872 20.404 32.2295 21.0183 31.007C22.0789 28.8951 28.7205 29.0399 30.0013 31.033C30.2699 31.5364 30.5023 32.0582 30.6968 32.5945C33.7278 30.6448 35.5621 27.9883 35.9127 24.4019C36.0808 22.7274 36.1156 21.0385 36.2025 19.3554C36.3039 17.1653 37.5992 16.1513 39.7581 16.5917C42.1284 17.0726 43.6729 19.0077 43.6584 21.6063C43.6584 23.724 43.6063 25.8475 43.4643 27.9593C43.3803 29.2398 43.699 29.7584 45.1102 29.6975C47.9471 29.5845 50.7927 29.6801 53.6354 29.657C55.2118 29.657 56.4897 30.1929 57.2344 31.6095C57.9444 32.9595 57.7734 34.2834 56.8983 35.5552C56.8093 35.7239 56.7575 35.9097 56.7465 36.1001C56.7355 36.2906 56.7655 36.4811 56.8345 36.6589C57.5851 38.316 57.2663 39.721 56.0637 41.0362C55.9345 41.206 55.842 41.4009 55.7921 41.6083C55.7422 41.8158 55.736 42.0314 55.774 42.2414C55.9577 42.8932 55.9721 43.5811 55.816 44.24C55.6598 44.899 55.3382 45.5073 54.8815 46.0074C54.7516 46.2005 54.6622 46.4178 54.6189 46.6464C54.5756 46.875 54.5791 47.11 54.6293 47.3371C55.2089 49.7851 53.8498 51.8622 51.3375 52.065C49.8496 52.1881 48.3541 52.1881 46.8663 52.065C46.3968 52.0244 45.9795 51.4045 45.5391 51.0481C45.9998 50.6686 46.4229 50.0371 46.93 49.9618C48.0601 49.7967 49.2337 49.8865 50.3899 49.9154C51.4853 49.9444 52.5748 49.8314 52.5748 48.4669C52.5748 47.2184 51.5722 47.0185 50.5058 47.0185C50.0878 47.0229 49.68 46.8884 49.3467 46.6361C49.2331 46.4968 49.156 46.3314 49.1226 46.1548C49.0892 45.9783 49.1005 45.7961 49.1555 45.625C49.2639 45.4525 49.4061 45.3035 49.5733 45.1871C49.7406 45.0706 49.9296 44.989 50.1291 44.9471C50.8854 44.8313 51.7316 45.063 52.4126 44.8081C52.966 44.5995 53.6789 43.8897 53.6789 43.406C53.6789 42.9222 52.9081 42.2732 52.3488 42.0878C51.4969 41.7981 50.1204 42.2414 50.2421 40.8016C50.3609 39.4284 51.691 39.889 52.5835 39.8137C52.9197 39.7847 53.3427 39.9325 53.5775 39.7761C54.1135 39.4168 54.8322 38.9968 54.9771 38.4666C55.2147 37.5975 54.5395 37.0703 53.6586 36.9428C52.7777 36.8154 51.5461 37.2615 51.5606 35.8652C51.5751 34.3472 52.9197 34.8831 53.7861 34.7991C54.7742 34.7006 55.5248 34.3211 55.4813 33.2492C55.4349 32.2613 54.7134 31.9021 53.7629 31.9079C50.7763 31.9195 47.7897 31.9195 44.8031 31.9079C42.2356 31.9079 41.3258 30.9722 41.3634 28.4113C41.3924 26.0937 41.459 23.7761 41.4504 21.4789C41.4475 19.703 40.4738 18.7963 38.2251 18.7441Z" fill="#4F4F4F"/>
<path d="M9.50854 37.5714C9.89395 27.8231 13.9653 20.0882 21.9457 14.4507C22.3624 14.1329 22.8428 13.9086 23.354 13.7931C23.5351 13.7901 23.7139 13.8329 23.874 13.9175C24.0341 14.0021 24.1702 14.1257 24.2697 14.2769C24.3371 14.4704 24.364 14.6758 24.3485 14.8801C24.3331 15.0845 24.2756 15.2835 24.1799 15.4647C23.9741 15.8036 23.5192 16.0006 23.1628 16.2411C14.3043 22.2175 9.90843 33.3331 12.3744 43.5275C14.9215 54.0638 24.006 62.2767 34.6611 63.3833C42.543 64.2032 49.5063 61.9117 55.351 56.4654C55.6408 56.2046 55.8697 55.7904 56.1972 55.7006C56.6782 55.5673 57.2259 55.66 57.7446 55.6571C57.7214 56.1757 57.9127 56.8999 57.6432 57.1809C56.5806 58.2961 55.4282 59.3221 54.1977 60.2488C37.1589 72.81 12.867 62.5664 9.86207 41.5924C9.66792 40.2598 9.62446 38.9127 9.50854 37.5714Z" fill="#4F4F4F"/>
<path d="M37.5558 9.34927C59.0861 9.66794 72.6187 33.0493 61.9173 51.6449C61.868 51.726 61.8187 51.81 61.7637 51.8882C61.2682 52.6009 60.932 53.8089 59.7352 53.0731C58.6689 52.4097 59.4455 51.5609 59.8627 50.8309C65.9277 40.4452 64.2702 27.4118 55.5422 19.1642C48.1471 12.1767 39.3988 10.2299 29.6044 13.1066C28.7148 13.3645 27.489 14.2393 27.063 12.7271C26.6863 11.3887 28.1062 11.2526 28.9495 11.0614C31.8096 10.4096 34.6899 9.90549 37.5558 9.34927Z" fill="#4F4F4F"/>
</g>
<defs>
<clipPath id="clip0_6130_19645">
<rect width="74" height="74" fill="white" transform="translate(0.687744 0.739502)"/>
</clipPath>
</defs>
</svg>
