<svg width="59" height="43" viewBox="0 0 59 43" fill="none" xmlns="http://www.w3.org/2000/svg">
<g clip-path="url(#clip0_524_5520)">
<path d="M37.5833 0.5C41.1414 0.5 44.6987 0.5 48.2569 0.5C48.2587 0.924992 48.2614 1.35087 48.2633 1.77586C44.7678 1.77586 41.2723 1.77763 37.7769 1.77763C37.7105 1.77763 37.6387 1.7953 37.5833 1.74052C37.5833 1.32701 37.5833 0.913506 37.5833 0.5Z" fill="#B9B9B9"/>
<path d="M48.2632 1.77586C48.2614 1.35087 48.2587 0.924992 48.2568 0.5C48.2868 0.5 48.3177 0.5 48.3477 0.5C48.3459 0.85254 48.3487 1.20596 48.3387 1.5585C48.3341 1.70694 48.3968 1.7467 48.5405 1.74494C49.085 1.73963 49.6305 1.74935 50.175 1.73875C50.3714 1.73522 50.4396 1.79265 50.4368 1.98791C50.4277 2.87766 50.4387 3.76652 50.4287 4.65626C50.4268 4.8586 50.4896 4.92221 50.6996 4.92133C52.3414 4.91426 53.9832 4.91691 55.625 4.9178C55.9277 4.9178 55.9287 4.9178 55.9287 5.21114C55.9287 7.64446 55.9287 10.0769 55.9287 12.5102C55.9287 12.6127 55.9377 12.7152 55.9423 12.8177C55.9305 12.8336 55.9187 12.8504 55.9077 12.8663C55.8868 12.8557 55.865 12.8451 55.8441 12.8345C55.8459 12.7461 55.8505 12.6587 55.8505 12.5703C55.8505 10.1458 55.8505 7.72045 55.8505 5.29596C55.8505 5.09451 55.7496 4.99378 55.5477 4.99378C53.8305 4.99202 52.1141 4.99025 50.3968 4.98848C50.3405 4.93635 50.2696 4.95049 50.2032 4.95049C49.615 4.95049 49.0268 4.95226 48.4387 4.95314C48.4232 4.95314 48.4068 4.95226 48.3914 4.95137C48.3632 4.94607 48.335 4.94077 48.3068 4.93547C48.305 4.10846 48.3041 3.28056 48.3014 2.45355C48.3014 2.22736 48.3196 1.9994 48.2623 1.77586H48.2632Z" fill="#B9B9B9"/>
<path d="M4.31778 42.4965C3.21233 42.4965 2.10778 42.4929 1.00233 42.5C0.82778 42.5009 0.758689 42.4585 0.773235 42.2791C0.790508 42.0741 0.782326 41.8674 0.775053 41.6615C0.770508 41.536 0.818689 41.4795 0.946871 41.4512C1.3596 41.3602 1.76869 41.2515 2.18051 41.1596C2.35323 41.1208 2.42233 41.0501 2.42233 40.8619C2.41596 37.0308 2.41596 33.1996 2.42233 29.3685C2.42233 29.1768 2.37233 29.1114 2.1696 29.1176C1.73142 29.1317 1.29142 29.1123 0.853235 29.1264C0.665053 29.1326 0.615962 29.0655 0.625053 28.8985C0.635962 28.7006 0.636871 28.5009 0.625053 28.303C0.615962 28.1589 0.674144 28.0944 0.812326 28.0538C1.7396 27.7843 2.66505 27.5095 3.59051 27.2356C3.9596 27.1269 4.32869 27.0209 4.69687 26.9087C5.11233 26.7815 5.53778 26.8689 5.95869 26.8504C6.08596 26.8451 6.06233 26.9529 6.06323 27.0298C6.06505 27.3602 6.06323 27.6915 6.06505 28.0229C6.06596 28.2446 6.08505 28.2552 6.28869 28.1386C6.87414 27.802 7.46142 27.4698 8.09141 27.2118C10.0987 26.3918 12.2196 27.119 13.2432 28.9913C13.9914 30.359 14.1451 31.8116 13.8551 33.3172C13.5741 34.7795 12.8169 35.9537 11.5378 36.7869C10.5078 37.4575 9.3496 37.7297 8.12414 37.7676C7.51778 37.7862 6.91414 37.7376 6.3096 37.7005C6.12778 37.689 6.05778 37.727 6.0596 37.9223C6.0696 38.9004 6.07142 39.8785 6.05778 40.8557C6.05505 41.0598 6.13778 41.1225 6.31687 41.1596C6.76778 41.2515 7.21505 41.362 7.66687 41.4503C7.81687 41.4795 7.87051 41.5422 7.86414 41.6871C7.85505 41.893 7.8496 42.0997 7.86596 42.3047C7.88051 42.492 7.77869 42.5009 7.63232 42.5009C6.52687 42.4973 5.42233 42.4991 4.31687 42.4991L4.31778 42.4965ZM6.06323 32.8453C6.06323 33.9622 6.06596 35.079 6.0596 36.1949C6.05869 36.3584 6.10687 36.4185 6.27778 36.4087C6.57233 36.3928 6.86869 36.4114 7.16142 36.3831C8.11051 36.2921 8.90687 35.9237 9.44232 35.124C9.77414 34.6292 9.94596 34.0761 10.0214 33.4939C10.1396 32.582 10.1487 31.6755 9.83142 30.7955C9.52051 29.9349 8.92142 29.3747 7.98505 29.1839C7.38687 29.0619 6.79687 29.1379 6.20687 29.2448C6.04505 29.274 6.06323 29.3844 6.06323 29.4949C6.06323 30.6117 6.06323 31.7285 6.06323 32.8445V32.8453Z" fill="#B9B9B9"/>
<path d="M23.3395 31.239C23.0922 31.6322 22.8431 32.0236 22.5977 32.4177C21.5231 34.1379 20.4467 35.8582 19.3767 37.5812C19.2922 37.7172 19.1995 37.7747 19.0331 37.7729C18.284 37.765 17.534 37.7623 16.7849 37.7738C16.5677 37.7773 16.5013 37.7164 16.5013 37.5008C16.5086 34.8165 16.5058 32.1331 16.5058 29.4489C16.5058 29.1511 16.5058 29.1538 16.1958 29.1282C15.6531 29.0831 15.1113 29.0292 14.5686 28.9894C14.4058 28.9771 14.334 28.9214 14.3531 28.7588C14.3622 28.6793 14.3549 28.5971 14.3549 28.5167C14.3549 28.1433 14.5386 27.9153 14.9058 27.8329C16.0104 27.5863 17.1122 27.323 18.2231 27.1048C18.6958 27.012 19.1886 27.0845 19.6731 27.0801C19.7567 27.0801 19.7931 27.1304 19.794 27.2091C19.794 27.2753 19.7949 27.3416 19.7949 27.4079C19.7949 29.4745 19.7949 31.5403 19.7967 33.6069C19.7967 33.6909 19.7704 33.7819 19.8286 33.8623C19.9077 33.864 19.9267 33.7987 19.9549 33.7536C21.0204 32.0448 22.084 30.3351 23.1486 28.6263C23.4386 28.1615 23.734 27.6994 24.0177 27.2312C24.0895 27.1119 24.1767 27.0748 24.3113 27.0757C25.0377 27.0801 25.7649 27.0845 26.4913 27.073C26.7004 27.0695 26.7422 27.1446 26.7413 27.3301C26.7358 29.7935 26.7377 32.2568 26.7386 34.7202C26.7386 34.828 26.7167 34.9393 26.7649 35.0533C26.8649 35.0427 26.8949 34.9614 26.9404 34.9013C27.7395 33.8587 28.5349 32.8135 29.3367 31.7735C29.4286 31.6543 29.4677 31.5367 29.4667 31.3892C29.4622 30.1761 29.4731 28.962 29.4577 27.7489C29.454 27.4865 29.5531 27.3292 29.7558 27.1817C30.7713 26.4466 32.2049 26.724 32.764 27.7772C33.0822 28.3763 33.0367 28.9868 32.7758 29.5894C32.4549 30.3289 31.9395 30.9492 31.4395 31.5765C29.8322 33.591 28.2186 35.6011 26.6122 37.6165C26.5167 37.7358 26.414 37.7747 26.2658 37.7738C25.4031 37.7685 24.5404 37.7641 23.6777 37.7764C23.4586 37.78 23.414 37.7066 23.414 37.5105C23.4204 35.5181 23.4177 33.5248 23.4177 31.5323C23.4177 31.4404 23.4177 31.3494 23.4177 31.2575C23.3922 31.2522 23.3658 31.2469 23.3404 31.2416L23.3395 31.239Z" fill="#B9B9B9"/>
<path d="M39.874 29.4037C39.874 28.9991 39.8676 28.5944 39.8767 28.1906C39.8813 27.9997 39.8122 27.9697 39.6322 28.0139C38.4885 28.294 37.7104 28.9743 37.3613 30.0593C36.9294 31.4032 36.9231 32.7559 37.4922 34.0733C38.1231 35.533 39.5904 36.2151 41.1731 35.8299C41.9958 35.6293 42.7404 35.2547 43.5004 34.9109C43.7604 34.7934 43.7631 34.7926 43.764 35.0585C43.764 35.5436 43.7549 36.0295 43.7685 36.5146C43.774 36.694 43.6976 36.7753 43.5422 36.8433C42.4976 37.301 41.4331 37.7074 40.2885 37.8408C38.8722 38.0052 37.4594 38.0246 36.1167 37.4476C35.0594 36.9935 34.3076 36.2062 33.7394 35.2529C33.0694 34.129 32.9085 32.9035 33.0776 31.6303C33.4176 29.0724 35.3685 27.3883 37.8067 26.92C38.7449 26.7398 39.6894 26.7027 40.6276 26.8608C41.6949 27.0402 42.6704 27.4192 43.3131 28.339C43.8776 29.1475 43.8049 30.2192 43.134 30.8536C42.6776 31.2866 42.1022 31.4138 41.4813 31.3732C40.9476 31.3378 40.4785 31.1134 40.0076 30.8934C39.8922 30.8395 39.8731 30.7503 39.874 30.6389C39.8767 30.2272 39.8749 29.8155 39.8749 29.4037H39.874Z" fill="#B9B9B9"/>
<path d="M37.5368 5.08916C37.5168 5.04498 37.5168 5.0008 37.5423 4.95751C41.0223 4.95751 44.5014 4.95928 47.9814 4.95044C48.2259 4.95044 48.2623 5.02731 48.2623 5.23848C48.255 7.66385 48.2578 10.0892 48.2578 12.5137C48.2578 12.6162 48.245 12.7205 48.3032 12.8141C48.3032 12.8283 48.3032 12.8433 48.3032 12.8574C46.9568 12.8548 45.6114 12.8521 44.265 12.8495C44.2641 12.8362 44.2632 12.823 44.2614 12.8097C44.2614 12.0233 44.255 11.2361 44.2659 10.4497C44.2687 10.2553 44.2132 10.2023 44.0123 10.2032C41.8705 10.2103 39.7287 10.2076 37.5868 10.2085C37.5868 8.5854 37.5868 6.9623 37.5832 5.33832C37.5832 5.25438 37.6196 5.16073 37.5378 5.08916H37.5368Z" fill="#B9B9B9"/>
<path d="M44.2604 12.8097C44.2622 12.823 44.2631 12.8362 44.2641 12.8495C44.2777 12.9431 44.3031 13.0368 44.3031 13.1305C44.305 14.7589 44.3031 16.3873 44.3031 18.0157C44.2422 18.0245 44.175 18.0006 44.1241 18.0528C42.225 18.0545 40.3268 18.0563 38.4277 18.0572C38.1477 18.0572 37.8686 18.051 37.5886 18.0475C37.5868 16.4314 37.5859 14.8145 37.5822 13.1985C37.5822 13.1128 37.6113 13.0218 37.5486 12.9431C37.5377 12.9122 37.5268 12.8804 37.5159 12.8495C37.5222 12.8362 37.5295 12.8221 37.5359 12.8088C37.5522 12.8088 37.5686 12.8097 37.585 12.8106C39.8104 12.8106 42.035 12.8106 44.2604 12.8097Z" fill="#B9B9B9"/>
<path d="M48.3023 12.8142C48.245 12.7196 48.2568 12.6154 48.2568 12.5137C48.2568 10.0884 48.2541 7.663 48.2614 5.23851C48.2614 5.02734 48.225 4.95047 47.9805 4.95047C44.5005 4.95931 41.0214 4.95754 37.5414 4.95754C37.5368 4.28604 37.5305 3.61365 37.5287 2.94214C37.5277 2.54012 37.5341 2.1381 37.5377 1.73608C37.5532 1.73785 37.5677 1.73873 37.5832 1.7405C37.6387 1.79528 37.7105 1.77761 37.7768 1.77761C41.2723 1.77761 44.7677 1.77673 48.2632 1.77584C48.3205 1.99938 48.3023 2.22646 48.3023 2.45353C48.305 3.28055 48.3059 4.10844 48.3077 4.93545C48.3459 5.04148 48.3477 5.15016 48.3477 5.2606C48.3468 7.6683 48.3477 10.0769 48.3477 12.4846C48.3477 12.6725 48.4471 12.7664 48.6459 12.7664C49.1296 12.7664 49.6132 12.7647 50.0968 12.7682C50.1723 12.7682 50.2714 12.7311 50.305 12.846C49.9068 12.8486 49.5077 12.8574 49.1096 12.8521C48.8405 12.8486 48.5687 12.8884 48.3032 12.8142H48.3023Z" fill="#B9B9B9"/>
<path d="M26.7678 20.6832C26.7224 20.6266 26.7306 20.5586 26.7306 20.4941C26.7306 19.7563 26.7306 19.0186 26.7306 18.2808C26.7306 18.2145 26.7278 18.1491 26.7696 18.0908C26.8596 18.0952 26.9506 18.1023 27.0406 18.1023C30.4215 18.1023 33.8015 18.1023 37.1824 18.1023C37.3957 18.1023 37.5024 18.2086 37.5024 18.4213C37.5042 19.1705 37.506 19.9198 37.5078 20.669L37.4969 20.6779C37.4669 20.6752 37.4369 20.6708 37.4069 20.6708C33.9287 20.6708 30.4506 20.6708 26.9724 20.6708C26.9051 20.6708 26.8369 20.6779 26.7696 20.6814L26.7678 20.6832Z" fill="#B9B9B9"/>
<path d="M55.9087 12.8661C55.9205 12.8494 55.9323 12.8335 55.9432 12.8176C56.7587 12.8176 57.575 12.822 58.3905 12.814C58.565 12.8122 58.626 12.8555 58.625 13.034C58.6187 14.6483 58.6205 16.2634 58.6223 17.8777C58.6223 18.0058 58.6223 18.103 58.4378 18.1004C57.5996 18.0906 56.7614 18.0915 55.9223 18.0889C55.9141 18.065 55.9069 18.0403 55.8987 18.0164C55.9032 17.9943 55.9114 17.9731 55.9114 17.9519C55.9105 16.2564 55.9087 14.5617 55.9069 12.8661H55.9087Z" fill="#B9B9B9"/>
<path d="M4.41217 10.2756C4.58944 9.78785 4.75854 9.32663 4.92581 8.86453C5.04581 8.53231 5.17217 8.20186 5.28126 7.86699C5.3249 7.73357 5.38672 7.68321 5.5349 7.68409C6.03763 7.68674 6.03672 7.68144 6.20763 8.1515C6.4449 8.80091 6.68035 9.45121 6.9249 10.098C6.98126 10.2473 6.97035 10.2994 6.78672 10.2959C6.38217 10.2888 6.36854 10.3012 6.26308 9.92038C6.20763 9.7207 6.11308 9.63499 5.90308 9.67299C5.85944 9.68094 5.81217 9.67299 5.76672 9.67475C5.58581 9.67917 5.36399 9.62527 5.23672 9.70744C5.12399 9.78078 5.10854 10.0052 5.06217 10.166C5.03126 10.272 4.96944 10.2968 4.8649 10.295C4.55581 10.2888 4.24763 10.2879 3.93854 10.295C3.82308 10.2977 3.75944 10.2544 3.70308 10.1642C3.54763 9.91243 3.37672 9.66945 3.23035 9.41322C3.15763 9.28687 3.05581 9.28422 2.94308 9.30101C2.79944 9.32221 2.86581 9.44149 2.86308 9.51571C2.85399 9.72865 2.85581 9.94159 2.86126 10.1554C2.86399 10.2597 2.82581 10.2915 2.71763 10.2959C2.28763 10.3162 2.28763 10.3206 2.28763 9.90713C2.28763 9.23121 2.29217 8.5544 2.28399 7.87848C2.28217 7.73269 2.32581 7.68586 2.4749 7.6947C2.80672 7.71237 3.14126 7.66996 3.47126 7.73446C3.78126 7.79542 4.02399 7.93679 4.1049 8.25664C4.19126 8.59769 4.08581 8.89015 3.78035 9.081C3.65308 9.16052 3.66035 9.20735 3.7349 9.31161C3.96035 9.62262 4.17672 9.94071 4.41126 10.2773L4.41217 10.2756ZM2.8449 8.48725C2.93126 8.603 2.70581 8.85658 3.0449 8.84686C3.38854 8.83714 3.56308 8.71786 3.5549 8.48283C3.54763 8.25841 3.3649 8.14443 3.01672 8.14885C2.71308 8.15238 2.93581 8.38564 2.8449 8.48813V8.48725ZM5.69672 8.13913C5.62035 8.37769 5.56035 8.56147 5.50308 8.74702C5.40429 9.06451 5.52702 9.21736 5.87126 9.20558C5.88672 9.20558 5.90126 9.20382 5.91672 9.20558C6.0149 9.21442 6.03581 9.16759 6.00854 9.0863C5.91035 8.78943 5.81308 8.49255 5.69672 8.13913Z" fill="#B9B9B9"/>
<path d="M21.4768 13.3964C21.4768 14.014 21.4659 14.5786 21.4822 15.1423C21.4886 15.3694 21.3495 15.3208 21.2231 15.3216C21.095 15.3216 20.9586 15.3685 20.9622 15.1423C20.9759 14.401 20.9722 13.6588 20.964 12.9166C20.9622 12.7576 21.0204 12.739 21.1695 12.7187C21.5495 12.6665 21.7713 12.7955 21.9431 13.1375C22.194 13.6349 22.5086 14.1023 22.794 14.5803C22.8777 14.5636 22.8486 14.5097 22.8459 14.4743C22.8031 13.953 22.8395 13.4317 22.8186 12.9104C22.8104 12.7151 22.9159 12.7107 23.054 12.7266C23.175 12.7408 23.3477 12.6462 23.3431 12.9007C23.3304 13.65 23.3359 14.3992 23.3413 15.1485C23.3422 15.2775 23.3104 15.3128 23.1686 15.3287C22.7868 15.3711 22.5359 15.2801 22.3568 14.9046C22.115 14.3966 21.7904 13.9247 21.4777 13.3973L21.4768 13.3964Z" fill="#B9B9B9"/>
<path d="M3.85228 18.9806C4.21955 19.1988 4.31046 19.3773 4.25228 19.7466C4.20955 20.0223 3.97319 20.245 3.6341 20.3121C3.22319 20.3943 2.80591 20.3369 2.39137 20.3528C2.29046 20.3563 2.28955 20.2927 2.28955 20.222C2.28955 19.4445 2.28955 18.6669 2.28955 17.8885C2.28955 17.8187 2.28955 17.7525 2.39137 17.756C2.82773 17.7719 3.26864 17.7083 3.69864 17.8231C4.11864 17.9362 4.29228 18.2525 4.16137 18.6519C4.11046 18.8057 3.99319 18.8984 3.85319 18.9797L3.85228 18.9806ZM2.85955 19.5593C2.89773 19.6857 2.74137 19.9154 3.08501 19.8969C3.53046 19.8721 3.6741 19.8076 3.67137 19.547C3.66864 19.3075 3.51591 19.2413 3.08501 19.2192C2.77319 19.2033 2.87773 19.4029 2.85955 19.5602V19.5593ZM2.86137 18.5017C2.86591 18.6448 2.80228 18.8083 3.07955 18.7898C3.48955 18.7632 3.61137 18.7182 3.61137 18.4964C3.61137 18.2914 3.4541 18.2252 3.07046 18.2031C2.78682 18.1863 2.87319 18.3656 2.86137 18.5017Z" fill="#B9B9B9"/>
<path d="M6.09124 14.0644C6.08851 13.5096 6.21397 13.0589 6.73579 12.8098C7.64124 12.3777 8.57488 12.914 8.61306 13.8877C8.61579 13.946 8.61579 14.0052 8.61488 14.0636C8.60397 15.0204 7.93306 15.532 6.97033 15.3164C6.4867 15.2078 6.15851 14.8269 6.10397 14.3083C6.09397 14.2138 6.09306 14.1175 6.09033 14.0644H6.09124ZM8.02033 14.0362C8.0176 13.8966 8.01397 13.7587 7.97397 13.6218C7.88215 13.3072 7.69942 13.1606 7.3767 13.1535C7.04215 13.1464 6.83579 13.2887 6.73942 13.6032C6.65397 13.8842 6.65488 14.1687 6.74215 14.4497C6.8367 14.7536 7.03306 14.8879 7.36488 14.8853C7.6867 14.8826 7.87942 14.7351 7.97215 14.4276C8.01124 14.2986 8.01851 14.1678 8.02033 14.0353V14.0362Z" fill="#B9B9B9"/>
<path d="M11.5605 8.98736C11.5605 8.61273 11.5668 8.2381 11.5568 7.86347C11.5532 7.72387 11.5996 7.68588 11.7368 7.69294C12.0832 7.71062 12.4323 7.66732 12.7777 7.73094C13.3232 7.83078 13.675 8.18597 13.7568 8.71876C13.8977 9.64561 13.3887 10.2482 12.4259 10.288C12.1923 10.2977 11.9568 10.2844 11.7232 10.2941C11.5932 10.2994 11.555 10.2579 11.5577 10.1333C11.565 9.75164 11.5605 9.36994 11.5605 8.98736ZM12.1396 8.98206C12.1396 9.21708 12.1377 9.45123 12.1414 9.68625C12.1414 9.7375 12.1132 9.79935 12.2023 9.82762C12.4841 9.91686 12.9305 9.7481 13.0714 9.48834C13.1887 9.27275 13.215 9.04037 13.1787 8.80446C13.1032 8.31674 12.7432 8.07111 12.2414 8.14356C12.1414 8.1577 12.1405 8.20806 12.1405 8.27698C12.1405 8.512 12.1405 8.74615 12.1405 8.98117L12.1396 8.98206Z" fill="#B9B9B9"/>
<path d="M30.6159 14.0245C30.6159 13.6499 30.6205 13.2744 30.6132 12.8998C30.6105 12.7699 30.6423 12.7213 30.7877 12.7222C31.185 12.7222 31.1832 12.7151 31.1859 13.0986C31.1868 13.3027 31.1159 13.5748 31.2223 13.6941C31.3459 13.8337 31.6341 13.733 31.8496 13.7383C32.2268 13.7462 32.2268 13.7409 32.2268 13.376C32.2268 13.2364 32.2432 13.0941 32.2232 12.9572C32.1932 12.7487 32.2868 12.7133 32.4759 12.7222C32.8586 12.7398 32.8032 12.6789 32.805 13.0358C32.8077 13.7338 32.8014 14.4327 32.8096 15.1307C32.8114 15.2871 32.7641 15.3287 32.6059 15.326C32.2268 15.3189 32.2268 15.3269 32.2268 14.9558C32.2268 14.757 32.2232 14.5591 32.2287 14.3603C32.2314 14.2578 32.2196 14.1986 32.0859 14.2048C31.8368 14.2154 31.5868 14.2127 31.3368 14.2057C31.2186 14.2021 31.1796 14.2401 31.1823 14.3559C31.1905 14.6201 31.1777 14.8851 31.1877 15.1493C31.1923 15.281 31.1577 15.326 31.0132 15.326C30.6159 15.3251 30.6159 15.3322 30.6159 14.9505C30.6159 14.6421 30.6159 14.3329 30.6159 14.0245Z" fill="#B9B9B9"/>
<path d="M16.2676 14.0468C16.2422 14.364 16.2449 14.6821 16.0731 14.9683C15.9013 15.2564 15.6331 15.3589 15.3104 15.3536C14.9922 15.3483 14.7258 15.2272 14.594 14.9357C14.3222 14.3348 14.3267 13.719 14.5786 13.1173C14.7176 12.7851 15.0258 12.679 15.3795 12.6905C15.7667 12.7038 16.0085 12.9114 16.1458 13.2472C16.2513 13.5043 16.254 13.7782 16.2686 14.0468H16.2676ZM15.7004 14.0362C15.694 13.81 15.7058 13.582 15.6195 13.3647C15.5667 13.233 15.4849 13.1323 15.3249 13.1376C15.1658 13.1429 15.0776 13.2428 15.0431 13.3806C14.9367 13.8073 14.9385 14.2359 15.0395 14.6626C15.0722 14.8022 15.1604 14.9003 15.3195 14.9056C15.4904 14.9118 15.5758 14.8084 15.6276 14.6653C15.7022 14.4603 15.694 14.2474 15.7004 14.0362Z" fill="#B9B9B9"/>
<path d="M9.17127 14.0245C9.17127 13.6507 9.17491 13.2761 9.16855 12.9024C9.16673 12.776 9.19127 12.7142 9.34127 12.723C9.67218 12.7433 10.0058 12.6965 10.3358 12.7557C10.7713 12.8343 11.0031 13.095 11.0131 13.5094C11.0231 13.9485 10.794 14.2577 10.3776 14.354C10.2613 14.3814 10.1358 14.4106 10.0204 14.3956C9.76673 14.3629 9.71491 14.4724 9.73764 14.688C9.754 14.848 9.73491 15.0105 9.74309 15.1713C9.74855 15.2836 9.71127 15.3215 9.59037 15.326C9.17218 15.3392 9.17218 15.3445 9.17218 14.9496C9.17218 14.6412 9.17218 14.3337 9.17218 14.0254L9.17127 14.0245ZM9.91764 13.1771C9.77127 13.1312 9.72673 13.2169 9.73855 13.3768C9.74855 13.5226 9.73946 13.6693 9.74127 13.8151C9.74127 13.8628 9.72855 13.9149 9.79491 13.9432C10.0631 14.0607 10.434 13.8283 10.4295 13.5438C10.4249 13.2894 10.2904 13.1851 9.91764 13.1771Z" fill="#B9B9B9"/>
<path d="M26.146 14.0079C26.146 13.6403 26.1505 13.2727 26.1433 12.9052C26.1414 12.7797 26.1651 12.7196 26.3151 12.7232C26.716 12.7329 27.1169 12.7355 27.5178 12.7232C27.766 12.7152 27.6687 12.8822 27.6878 12.9935C27.7114 13.1305 27.6669 13.1923 27.5087 13.1826C27.2978 13.1694 27.0851 13.1853 26.8733 13.1773C26.7524 13.172 26.7251 13.2144 26.7224 13.3266C26.7124 13.7455 26.7078 13.7455 27.1378 13.7455C27.2133 13.7455 27.2905 13.7552 27.3642 13.7437C27.5914 13.7066 27.646 13.802 27.6342 14.0096C27.6251 14.1598 27.5914 14.227 27.4296 14.2058C27.3624 14.197 27.2933 14.204 27.226 14.204C26.706 14.204 26.7096 14.204 26.7224 14.713C26.7251 14.8252 26.7496 14.8676 26.8724 14.8623C27.0914 14.8526 27.3114 14.8667 27.5305 14.8579C27.7633 14.8481 27.676 15.0116 27.686 15.1167C27.6969 15.2254 27.7151 15.3341 27.526 15.327C27.126 15.3129 26.7242 15.3173 26.3233 15.3261C26.186 15.3288 26.1396 15.2934 26.1433 15.1547C26.1533 14.773 26.1469 14.3905 26.1469 14.0079H26.146Z" fill="#B9B9B9"/>
<path d="M9.47137 8.98841C9.47137 8.61378 9.47773 8.23915 9.46773 7.8654C9.46409 7.72668 9.50955 7.69046 9.64773 7.69311C10.0477 7.70106 10.4486 7.7046 10.8495 7.69311C11.0795 7.68604 11.0041 7.83801 11.0132 7.94669C11.0223 8.05802 11.0368 8.16581 10.8514 8.15256C10.6332 8.13666 10.4132 8.15256 10.1941 8.14726C10.0886 8.14372 10.0541 8.17376 10.0486 8.28156C10.0268 8.71539 10.0223 8.7145 10.4723 8.7145C10.5332 8.7145 10.5932 8.7145 10.6541 8.7145C10.9768 8.7145 10.9723 8.7145 10.955 9.03258C10.9495 9.13508 10.9177 9.17749 10.8095 9.17484C10.6059 9.16954 10.4014 9.17749 10.1977 9.17219C10.0977 9.16954 10.055 9.18898 10.0495 9.30207C10.0223 9.83044 10.0177 9.83044 10.5568 9.83044C10.6323 9.83044 10.7095 9.83927 10.7832 9.82867C10.9741 9.80128 11.0177 9.87903 11.0232 10.0584C11.0286 10.2563 10.9686 10.3076 10.7695 10.2987C10.3923 10.2819 10.0141 10.289 9.63591 10.297C9.50682 10.2996 9.46682 10.2607 9.46955 10.1353C9.47682 9.75357 9.47227 9.37187 9.47227 8.99017L9.47137 8.98841Z" fill="#B9B9B9"/>
<path d="M28.1241 14.0395C28.1295 13.5712 28.2468 13.1489 28.6813 12.8794C29.1232 12.6064 29.5859 12.6559 30.0504 12.8299C30.1313 12.86 30.1522 12.9033 30.115 12.981C30.0832 13.0473 30.0586 13.1171 30.035 13.1869C30.0004 13.2885 29.9532 13.3265 29.8368 13.2717C29.1195 12.9368 28.6886 13.3503 28.7168 14.0501C28.7195 14.1084 28.7213 14.1676 28.725 14.226C28.7577 14.6978 29.0059 14.9125 29.4895 14.8833C29.5795 14.878 29.6686 14.8586 29.7568 14.8409C30.065 14.7773 30.0568 14.7764 30.0604 15.0759C30.0622 15.1961 30.0132 15.2465 29.9077 15.2739C28.885 15.5416 28.1177 15.1572 28.1241 14.0404V14.0395Z" fill="#B9B9B9"/>
<path d="M17.6887 14.0246C17.6887 13.65 17.6932 13.2754 17.6859 12.9007C17.6832 12.7691 17.7205 12.7196 17.8632 12.7232C18.2559 12.732 18.6496 12.7373 19.0423 12.7214C19.2568 12.7125 19.2223 12.8389 19.2232 12.9608C19.2241 13.0766 19.2541 13.1985 19.0523 13.1817C18.8496 13.1649 18.6441 13.1844 18.4405 13.1764C18.3032 13.1711 18.2414 13.1994 18.2405 13.3549C18.2387 13.8417 18.2314 13.8409 18.7287 13.8409C18.7668 13.8409 18.8041 13.8409 18.8423 13.8409C19.1596 13.8409 19.1541 13.8409 19.1496 14.1475C19.1477 14.2597 19.1196 14.3038 18.9977 14.2994C18.7941 14.2906 18.5896 14.3012 18.3859 14.2959C18.2768 14.2932 18.2414 14.3321 18.2432 14.4373C18.2496 14.6794 18.2396 14.9223 18.2477 15.1644C18.2514 15.2846 18.2214 15.327 18.0877 15.3279C17.6887 15.3297 17.6887 15.3358 17.6887 14.9515C17.6887 14.6431 17.6887 14.3348 17.6887 14.0264V14.0246Z" fill="#B9B9B9"/>
<path d="M4.47144 17.7728C4.52598 17.7622 4.54144 17.7595 4.55598 17.7569C4.93325 17.6844 5.18053 17.8046 5.30325 18.181C5.37234 18.393 5.50871 18.5856 5.62871 18.8136C5.78507 18.5158 5.93598 18.2534 6.06053 17.9804C6.1378 17.8107 6.23416 17.7215 6.43416 17.7533C6.53689 17.7692 6.64416 17.756 6.79234 17.756C6.61871 18.0696 6.48144 18.37 6.29598 18.6404C5.98053 19.099 5.8378 19.5876 5.91234 20.1345C5.93507 20.3024 5.87962 20.3837 5.69325 20.3545C5.62689 20.3439 5.55689 20.3483 5.48962 20.3545C5.38416 20.3634 5.32416 20.3254 5.34507 20.2193C5.5078 19.4056 5.02416 18.7906 4.66871 18.1368C4.60598 18.0219 4.54416 17.9062 4.47234 17.7745L4.47144 17.7728Z" fill="#B9B9B9"/>
<path d="M24.4615 14.2437C24.4615 13.9424 24.4569 13.642 24.4633 13.3416C24.466 13.2294 24.4324 13.179 24.3106 13.1887C24.2206 13.1967 24.1296 13.1905 24.0387 13.1905C23.7469 13.1905 23.6642 13.0809 23.7387 12.807C23.7606 12.7284 23.8124 12.7266 23.8742 12.7266C24.456 12.7266 25.0378 12.7284 25.6187 12.7249C25.7196 12.7249 25.7424 12.7628 25.7487 12.8539C25.7733 13.1905 25.7769 13.1905 25.4251 13.1905C25.1615 13.1905 25.0296 13.3157 25.0296 13.566C25.0296 14.0873 25.0242 14.6077 25.0333 15.129C25.036 15.2801 24.9951 15.3305 24.8333 15.3269C24.4596 15.319 24.4596 15.3269 24.4596 14.9709C24.4596 14.7288 24.4596 14.4867 24.4596 14.2446L24.4615 14.2437Z" fill="#B9B9B9"/>
<path d="M4.515 14.2596C4.515 13.9804 4.49864 13.6994 4.52045 13.422C4.53682 13.2143 4.455 13.1622 4.265 13.1878C4.19045 13.1975 4.11227 13.1807 4.03864 13.1913C3.84045 13.2205 3.78045 13.1507 3.78409 12.9528C3.78773 12.7699 3.83773 12.7169 4.02682 12.7222C4.55591 12.7345 5.08682 12.739 5.61591 12.7213C5.84682 12.7133 5.80045 12.8432 5.80954 12.9722C5.81863 13.1154 5.80591 13.1984 5.61227 13.1958C5.07773 13.1896 5.07773 13.1993 5.07773 13.7188C5.07773 14.1889 5.07136 14.6598 5.08136 15.1299C5.08409 15.2801 5.04864 15.3313 4.885 15.3269C4.51682 15.3172 4.51682 15.3269 4.51682 14.9655C4.51682 14.7305 4.51682 14.4955 4.51682 14.2596H4.515Z" fill="#B9B9B9"/>
<path d="M8.08127 7.69552C8.36127 7.69552 8.64127 7.70348 8.92036 7.69287C9.16218 7.68404 9.05309 7.85456 9.06763 7.95264C9.08218 8.05602 9.10763 8.17353 8.91309 8.16381C8.73581 8.15497 8.50036 8.07987 8.39218 8.19738C8.27763 8.32108 8.35945 8.54816 8.35672 8.73017C8.35127 9.18609 8.34854 9.64112 8.35854 10.097C8.36127 10.2472 8.32309 10.2994 8.15945 10.295C7.78581 10.2861 7.78491 10.295 7.78491 9.93711C7.78491 9.40786 7.77854 8.87861 7.78854 8.35024C7.79127 8.1912 7.73581 8.14084 7.58218 8.15674C7.49218 8.16646 7.39945 8.14879 7.31036 8.16027C7.12036 8.18413 7.05127 8.13289 7.05127 7.92613C7.05127 7.72026 7.11854 7.67874 7.30945 7.69022C7.56581 7.70613 7.82309 7.69376 8.08036 7.69376L8.08127 7.69552Z" fill="#B9B9B9"/>
<path d="M13.1086 13.3512C12.9895 13.4458 12.8923 13.5129 12.8068 13.5915C12.6895 13.7011 12.6095 13.7144 12.4895 13.573C12.3668 13.4272 12.3786 13.3565 12.5323 13.254C12.7368 13.1171 12.925 12.9563 13.1186 12.8043C13.1723 12.7619 13.2232 12.7301 13.2968 12.7239C13.6859 12.6921 13.6859 12.6903 13.6859 13.0658C13.6859 13.7488 13.6814 14.4318 13.6895 15.1148C13.6914 15.2721 13.6604 15.333 13.4814 15.3277C13.1068 15.3163 13.1068 15.3269 13.1068 14.9734C13.1068 14.446 13.1068 13.9176 13.1068 13.353L13.1086 13.3512Z" fill="#B9B9B9"/>
<path d="M19.7387 14.0467C19.7387 13.6721 19.7451 13.2975 19.7351 12.9237C19.7315 12.7735 19.7705 12.7196 19.9351 12.7223C20.3115 12.7293 20.3115 12.7205 20.3115 13.0783C20.3115 13.7543 20.306 14.4293 20.3151 15.1052C20.3178 15.2749 20.2778 15.3535 20.0924 15.3243C20.0333 15.3146 19.9705 15.3164 19.9115 15.3243C19.766 15.3438 19.7333 15.2802 19.736 15.1485C19.7442 14.7818 19.7387 14.4143 19.7387 14.0467Z" fill="#B9B9B9"/>
<path d="M3.22141 12.7345C3.45231 12.6798 3.49231 12.777 3.46141 12.9669C3.4305 13.1542 3.42231 13.3451 3.41777 13.535C3.41322 13.7091 3.28686 13.6543 3.19322 13.6623C3.09504 13.6711 3.0205 13.6623 3.01959 13.5306C3.01868 13.3486 3.00413 13.1648 2.97777 12.9837C2.94777 12.7796 2.98959 12.663 3.22141 12.7345Z" fill="#B9B9B9"/>
<path d="M2.45674 12.7336C2.67128 12.6833 2.73219 12.7654 2.69765 12.9616C2.66855 13.1259 2.66037 13.2956 2.65401 13.4626C2.64855 13.5951 2.62583 13.6729 2.45219 13.6702C2.28674 13.6676 2.25037 13.6075 2.24946 13.4661C2.24946 13.3062 2.23946 13.1445 2.2131 12.9863C2.17855 12.7822 2.21946 12.6674 2.45674 12.7336Z" fill="#B9B9B9"/>
<path d="M33.8705 12.9042C33.8505 13.1118 33.8305 13.2788 33.8187 13.4476C33.8105 13.5642 33.8341 13.6685 33.6405 13.6711C33.4578 13.6738 33.4296 13.5996 33.4232 13.4564C33.4141 13.2665 33.3978 13.0756 33.3705 12.8874C33.3523 12.7593 33.3941 12.7089 33.525 12.7257C33.5623 12.7302 33.6005 12.7302 33.6378 12.7257C33.8096 12.7063 33.9305 12.7319 33.8696 12.9051L33.8705 12.9042Z" fill="#B9B9B9"/>
<path d="M34.3877 12.7346C34.6123 12.6781 34.6613 12.7744 34.6323 12.9617C34.6077 13.1198 34.6032 13.2815 34.5904 13.4414C34.5813 13.5519 34.6159 13.6676 34.415 13.6694C34.2268 13.6712 34.1868 13.5987 34.1841 13.4441C34.1813 13.2912 34.1741 13.1366 34.1495 12.9855C34.1168 12.7841 34.1477 12.6604 34.3877 12.7337V12.7346Z" fill="#B9B9B9"/>
<path d="M50.3977 4.98843C52.115 4.9902 53.8314 4.99197 55.5487 4.99373C55.7505 4.99373 55.8514 5.09446 55.8514 5.29591C55.8514 7.7204 55.8514 10.1458 55.8514 12.5703C55.8514 12.6586 55.8477 12.7461 55.845 12.8344C55.755 12.8389 55.6641 12.8468 55.5741 12.8468C54.205 12.8468 52.8359 12.8477 51.4659 12.8468C51.1405 12.8468 50.8159 12.8397 50.4905 12.8353C50.4768 12.7717 50.4977 12.6878 50.395 12.6736C50.395 10.1113 50.3968 7.54987 50.3977 4.98755V4.98843Z" fill="#B9B9B9"/>
<path d="M50.4905 12.8361C50.8159 12.8396 51.1404 12.8467 51.4659 12.8476C52.835 12.8485 54.2041 12.8476 55.5741 12.8476C55.6641 12.8476 55.755 12.8396 55.845 12.8352C55.8659 12.8458 55.8877 12.8564 55.9086 12.8661C55.9104 14.5617 55.9114 16.2563 55.9132 17.9519C55.9132 17.9731 55.905 17.9952 55.9005 18.0164C55.795 18.0226 55.6895 18.0332 55.5841 18.0332C54.1477 18.0341 52.7114 18.0332 51.275 18.0341C50.9805 18.0341 50.6868 18.0394 50.3923 18.0429C50.4314 17.9457 50.4386 17.845 50.4386 17.7416C50.4368 16.2281 50.4368 14.7145 50.4386 13.201C50.4386 13.0826 50.4259 12.9677 50.3914 12.8546V12.8361C50.425 12.8361 50.4577 12.8361 50.4914 12.8361H50.4905Z" fill="#B9B9B9"/>
<path d="M50.3976 4.98841C50.3976 7.55073 50.3958 10.1122 50.3949 12.6745C50.394 12.7284 50.3922 12.7823 50.3913 12.8362V12.8547C50.3622 12.8521 50.3331 12.8494 50.3049 12.8468C50.2713 12.7319 50.1722 12.7699 50.0967 12.769C49.6131 12.7664 49.1294 12.7673 48.6458 12.7673C48.447 12.7673 48.3476 12.6733 48.3476 12.4854C48.3476 10.0777 48.3476 7.66913 48.3476 5.26143C48.3476 5.15098 48.3467 5.04142 48.3076 4.93628C48.3358 4.94158 48.364 4.94688 48.3922 4.95218C48.4067 4.98576 48.4222 4.98753 48.4394 4.95395C49.0276 4.95307 49.6158 4.9513 50.204 4.9513C50.2703 4.9513 50.3413 4.93805 50.3976 4.98929V4.98841Z" fill="#B9B9B9"/>
<path d="M48.4416 4.95328C48.4245 4.98969 48.4075 4.98782 48.3923 4.95142C48.4084 4.95142 48.4245 4.95235 48.4416 4.95328Z" fill="#B9B9B9"/>
<path d="M44.3023 18.0165C44.3023 16.3881 44.3041 14.7597 44.3023 13.1313C44.3023 13.0377 44.2768 12.944 44.2632 12.8503C45.6095 12.853 46.955 12.8556 48.3014 12.8583C48.3014 14.5777 48.3014 16.2962 48.3014 18.0156C46.985 18.0174 45.6677 18.0183 44.3514 18.02C44.335 18.0192 44.3186 18.0174 44.3032 18.0165H44.3023Z" fill="#B9B9B9"/>
<path d="M37.585 12.8114C37.585 11.9437 37.585 11.0761 37.5859 10.2084C39.7277 10.2084 41.8695 10.2111 44.0113 10.2031C44.2122 10.2031 44.2677 10.2553 44.265 10.4496C44.2541 11.236 44.2604 12.0233 44.2604 12.8096C42.035 12.8096 39.8104 12.8096 37.585 12.8105V12.8114Z" fill="#B9B9B9"/>
<path d="M48.3015 18.0156C48.3015 16.2962 48.3015 14.5776 48.3015 12.8582C48.3015 12.8441 48.3015 12.8291 48.3015 12.8149C48.567 12.89 48.8388 12.8503 49.1079 12.8538C49.5061 12.8582 49.9042 12.8503 50.3033 12.8476C50.3324 12.8503 50.3615 12.8529 50.3906 12.8556C50.4251 12.9687 50.4379 13.0827 50.4379 13.2019C50.4352 14.7155 50.4361 16.229 50.4379 17.7426C50.4379 17.8468 50.4306 17.9467 50.3915 18.0438C49.6951 18.0456 48.9988 18.0465 48.3024 18.0483C48.3024 18.0377 48.3024 18.0271 48.3024 18.0165L48.3015 18.0156Z" fill="#B9B9B9"/>
<path d="M44.3023 18.0166C44.3186 18.0175 44.335 18.0193 44.3505 18.0201C44.3505 18.0316 44.3514 18.044 44.3541 18.0555C44.2768 18.0555 44.1995 18.0546 44.123 18.0537C44.174 18.0007 44.2422 18.0254 44.3023 18.0166Z" fill="#B9B9B9"/>
<path d="M44.355 18.0544C44.3531 18.0429 44.3513 18.0306 44.3513 18.0191C45.6677 18.0173 46.985 18.0164 48.3013 18.0146C48.3022 18.0253 48.3031 18.0359 48.3013 18.0465C47.7268 18.0509 47.1522 18.0579 46.5777 18.0588C45.8368 18.0597 45.095 18.0553 44.354 18.0535L44.355 18.0544Z" fill="#B9B9B9"/>
<path d="M50.3914 12.8364C50.3923 12.7824 50.3941 12.7285 50.395 12.6746C50.4978 12.6887 50.4769 12.7718 50.4905 12.8364C50.4578 12.8364 50.4241 12.8364 50.3914 12.8364Z" fill="#B9B9B9"/>
</g>
<defs>
<clipPath id="clip0_524_5520">
<rect width="58" height="42" fill="white" transform="translate(0.625 0.5)"/>
</clipPath>
</defs>
</svg>
