<svg width="128" height="31" viewBox="0 0 128 31" fill="none" xmlns="http://www.w3.org/2000/svg">
<g clip-path="url(#clip0_524_5563)">
<path d="M49.6358 4.53925C49.4355 4.86992 49.5141 5.15029 49.5141 5.41238C49.5082 9.99747 49.4993 14.5826 49.523 19.1661C49.526 19.7528 49.3925 19.9265 48.8036 19.9143C47.0472 19.8762 47.0472 19.9052 47.0472 18.1056C47.0472 13.6988 47.0472 9.29043 47.0472 4.88363V4.15373C47.0086 4.14611 46.9715 4.13697 46.933 4.12935C46.2803 6.09809 45.6275 8.06683 44.9763 10.0371C43.9602 13.1106 42.9321 16.181 41.9412 19.2636C41.7825 19.7558 41.5778 19.9219 41.063 19.9158C39.1968 19.8884 39.2043 19.9097 38.5946 18.0736C37.1052 13.5921 35.6099 9.11367 34.1131 4.63525C34.0226 4.36402 33.9024 4.10192 33.7289 3.66307C33.9321 8.94453 33.8164 14.037 33.8683 19.1265C33.8743 19.7574 33.7244 19.9326 33.1029 19.9174C31.3628 19.8747 31.3613 19.9052 31.3613 18.0934C31.3613 12.4706 31.3717 6.84627 31.3465 1.22348C31.3435 0.61092 31.5141 0.452446 32.0823 0.487493C32.87 0.536254 33.6636 0.530159 34.4513 0.487493C34.9319 0.461588 35.1129 0.639872 35.2657 1.10615C36.8619 5.97771 38.4892 10.8386 40.1091 15.7025C40.2115 16.0119 40.3257 16.3182 40.4578 16.69C40.8138 16.1338 40.928 15.5425 41.112 14.9864C42.6488 10.3632 44.1797 5.73695 45.6898 1.10463C45.8367 0.65511 46.0043 0.463112 46.4924 0.485969C47.4537 0.531683 48.4194 0.53473 49.3792 0.485969C49.9176 0.458541 50.2025 0.647491 50.4828 1.11682C53.3236 5.88324 56.1896 10.6329 59.0512 15.3856C59.1506 15.5502 59.2618 15.7056 59.4651 16.0103V13.6089C59.4651 9.455 59.4754 5.30115 59.4517 1.14577C59.4487 0.604825 59.5941 0.479874 60.1059 0.485969C61.8994 0.505778 61.8994 0.484445 61.8994 2.31757C61.8994 7.91597 61.8905 13.5129 61.9127 19.1113C61.9157 19.704 61.7466 19.7863 61.1933 19.8747C59.5452 20.1413 58.6714 19.4145 57.8407 17.9806C55.3366 13.6576 52.6561 9.44129 50.0452 5.18382C49.9221 4.98268 49.7916 4.78458 49.6358 4.5423V4.53925Z" fill="#B9B9B9"/>
<path d="M85.9267 20.4416C83.4627 20.4629 81.4334 19.9144 79.8966 18.127C78.913 16.9826 78.4725 15.6112 78.4369 14.0859C78.4265 13.6714 78.5555 13.5617 78.9353 13.5815C79.502 13.6105 80.1339 13.4322 80.6205 13.6364C81.153 13.8604 80.8905 14.6116 81.0507 15.116C81.5269 16.6093 82.4525 17.615 83.9523 17.9578C85.5663 18.3266 87.1832 18.3357 88.7379 17.6439C90.3355 16.9323 90.9764 15.4512 90.4542 13.7872C90.2421 13.1137 89.8163 12.6672 89.2051 12.3731C87.7632 11.6829 86.2101 11.3781 84.6807 10.9941C83.531 10.7046 82.3798 10.4181 81.3103 9.8787C79.8387 9.13661 79.0955 7.8932 79.0703 6.23531C79.0213 2.88145 80.8267 0.659762 84.0591 0.147768C86.2575 -0.20118 88.3952 0.0121509 90.3162 1.3089C91.8753 2.36184 92.4746 3.93286 92.5518 5.77817C92.5651 6.08903 92.4479 6.18655 92.172 6.15912C92.0741 6.14998 91.9747 6.15912 91.8753 6.15912C91.3576 6.1576 90.7702 6.30998 90.3385 6.11036C89.8697 5.89398 90.0121 5.18085 89.8326 4.70086C89.3742 3.47877 88.4931 2.77478 87.2989 2.48983C86.1344 2.2125 84.9447 2.19727 83.7817 2.50355C82.2448 2.90735 81.2643 4.53324 81.5817 6.13017C81.7345 6.89664 82.2003 7.41777 82.9228 7.71644C84.783 8.48748 86.7575 8.81357 88.6859 9.31794C89.7911 9.60594 90.8829 9.95336 91.7151 10.8036C94.412 13.5647 93.1793 18.4714 89.4647 19.7925C88.2439 20.2268 86.9963 20.4965 85.9252 20.4401L85.9267 20.4416Z" fill="#B9B9B9"/>
<path d="M0.0846378 10.1621C0.0846378 7.14958 0.0935384 4.13857 0.0757372 1.12604C0.0727703 0.661282 0.149909 0.478427 0.664662 0.484522C3.3037 0.514998 5.94274 0.498236 8.58177 0.498236C9.8427 0.498236 11.0191 0.818232 12.0797 1.52679C14.5793 3.19382 14.5571 7.19987 13.2516 9.31641C12.0515 11.2623 10.2343 11.6798 8.20646 11.689C6.55391 11.6966 4.90136 11.7088 3.24881 11.6798C2.7667 11.6707 2.6228 11.8063 2.62874 12.3107C2.65544 14.5887 2.62428 16.8668 2.65099 19.1449C2.6584 19.7056 2.56198 19.9845 1.94042 19.9113C1.35743 19.8428 0.578623 20.0927 0.225564 19.7879C-0.189798 19.4283 0.0965053 18.6039 0.092055 17.9837C0.0742537 15.3765 0.0846378 12.7693 0.0846378 10.1621ZM2.6406 6.12255C2.6406 7.08558 2.65247 8.04862 2.63467 9.01013C2.62874 9.33622 2.71774 9.45355 3.04855 9.44289C4.97109 9.37889 6.89956 9.56022 8.81913 9.32708C10.6334 9.10613 11.5398 7.97395 11.5056 5.9915C11.4715 4.04867 10.4761 2.8723 8.65298 2.79916C6.80462 2.72449 4.95032 2.78545 3.09899 2.75802C2.66285 2.75192 2.62874 2.95763 2.63467 3.30963C2.65099 4.24676 2.6406 5.18389 2.6406 6.12255Z" fill="#B9B9B9"/>
<path d="M13.3257 0.498315C14.1905 0.498315 14.9322 0.531838 15.668 0.486125C16.1472 0.457173 16.4142 0.620218 16.659 1.0484C18.3011 3.92837 19.9715 6.79005 21.6315 9.65325C21.94 9.63039 21.9682 9.35763 22.0706 9.18087C23.6489 6.49748 25.2288 3.81561 26.776 1.1124C27.049 0.635456 27.3442 0.443459 27.8827 0.483077C28.5947 0.53641 29.3112 0.496791 30.0381 0.496791C30.093 0.83812 29.8467 1.02098 29.7132 1.23735C27.6112 4.66284 25.5032 8.08527 23.3819 11.497C23.1312 11.8993 23.0259 12.2986 23.0303 12.7724C23.0481 14.9515 23.0259 17.129 23.0481 19.308C23.0526 19.7636 22.9517 19.9541 22.48 19.9053C21.8243 19.8367 20.9728 20.1781 20.5574 19.7697C20.1747 19.3933 20.4566 18.5232 20.4506 17.8695C20.4373 16.2238 20.4284 14.5766 20.4551 12.9309C20.4655 12.3488 20.3245 11.8658 20.0175 11.3736C17.8635 7.92222 15.7333 4.45408 13.5972 0.990499C13.52 0.865549 13.4547 0.732979 13.3257 0.496791V0.498315Z" fill="#B9B9B9"/>
<path d="M72.2241 11.2897C72.2241 13.9229 72.2093 16.5544 72.236 19.1875C72.2419 19.73 72.1485 19.9875 71.561 19.9068C70.935 19.8214 70.0909 20.1841 69.729 19.7544C69.4204 19.3872 69.6326 18.5491 69.6311 17.9198C69.6281 13.1869 69.6147 8.45244 69.6459 3.71955C69.6503 3.0186 69.5317 2.76261 68.7811 2.79308C67.1315 2.86013 65.476 2.79613 63.8234 2.82508C63.3591 2.8327 63.2508 2.68337 63.2463 2.22471C63.233 0.495207 63.2152 0.495207 64.9271 0.495207C69.2439 0.495207 73.5607 0.507397 77.8775 0.481493C78.4531 0.478445 78.6222 0.621681 78.6074 1.2251C78.5688 2.81289 78.5985 2.81442 77.0839 2.81442C75.6776 2.81442 74.2713 2.8388 72.8664 2.80223C72.3517 2.78851 72.2033 2.93022 72.2093 3.46812C72.2375 6.07533 72.2211 8.68253 72.2211 11.2897H72.2241Z" fill="#B9B9B9"/>
<path d="M117.125 11.6861C118.181 10.5798 119.298 9.96418 120.758 10.3726C121.256 10.5127 121.685 10.7596 121.961 11.1939C122.225 11.6068 122.388 11.6038 122.719 11.2472C123.639 10.2552 124.794 10.0373 126.049 10.3726C127.218 10.6849 127.872 11.5626 127.915 13.0529C127.976 15.1771 127.927 17.3043 127.947 19.4315C127.952 20.1553 127.447 19.8917 127.111 19.9191C126.721 19.9511 126.31 20.006 126.318 19.3523C126.34 17.4795 126.327 15.6068 126.325 13.7325C126.325 12.2849 125.948 11.7684 124.879 11.7394C123.616 11.7044 122.646 12.547 122.612 13.8118C122.565 15.5565 122.594 17.3043 122.576 19.0505C122.574 19.3324 122.729 19.7271 122.375 19.8627C121.983 20.0121 121.537 19.9877 121.136 19.8719C120.876 19.7972 120.983 19.4772 120.982 19.2639C120.974 17.3911 120.982 15.5184 120.974 13.6441C120.97 12.4922 120.693 11.9405 120.065 11.7653C119.102 11.4986 118.005 11.9741 117.537 12.8807C117.232 13.4735 117.138 14.1241 117.137 14.7885C117.132 16.2818 117.103 17.7767 117.15 19.2684C117.171 19.9206 116.858 19.9359 116.385 19.9359C115.913 19.9359 115.609 19.9191 115.618 19.2684C115.652 16.5607 115.655 13.8514 115.616 11.1436C115.607 10.4914 115.857 10.4122 116.392 10.4C116.966 10.3863 117.227 10.5478 117.132 11.1604C117.11 11.2975 117.129 11.4423 117.129 11.6845L117.125 11.6861Z" fill="#A7A9AC"/>
<path d="M106.314 15.2639C106.263 13.6152 106.677 12.134 107.98 11.0735C109.275 10.019 110.752 9.92912 112.243 10.5447C113.857 11.2106 114.584 12.5866 114.726 14.2872C114.863 15.9146 114.63 17.4947 113.584 18.8022C112.52 20.1324 110.688 20.5713 108.997 19.9968C107.509 19.4909 106.438 18.0006 106.317 16.2528C106.294 15.9252 106.314 15.5946 106.314 15.2654V15.2639ZM113.118 14.8967C113.198 14.467 113.057 13.9733 112.949 13.4841C112.707 12.3961 111.976 11.718 110.985 11.6068C109.644 11.4544 108.923 11.8278 108.376 12.9493C107.763 14.2049 107.699 15.5153 108.057 16.8426C108.426 18.217 109.215 18.8783 110.377 18.8799C111.663 18.8799 112.46 18.2338 112.867 16.8441C113.046 16.2376 113.154 15.619 113.118 14.8967Z" fill="#A7A9AC"/>
<path d="M97.8432 15.5045C97.8225 13.7781 98.1473 12.367 99.2955 11.2531C100.657 9.932 103.179 9.81772 104.612 11.0489C105.274 11.6188 105.504 12.4204 105.637 13.26C105.658 13.3895 105.664 13.4946 105.522 13.5723C105.074 13.8146 104.225 13.4962 104.037 12.9842C103.725 12.1369 103.139 11.6783 102.262 11.6112C101.322 11.5396 100.512 11.8413 100.083 12.7282C99.2822 14.383 99.2214 16.0896 100.052 17.7597C100.491 18.642 101.295 18.8492 102.197 18.7471C103.175 18.6359 103.761 18.0142 104.028 17.1045C104.158 16.6626 104.315 16.4813 104.778 16.4904C105.649 16.5072 105.722 16.5788 105.467 17.4519C104.94 19.2515 103.688 20.149 101.736 20.1277C99.9067 20.1079 98.536 18.997 98.0198 17.1319C97.8551 16.5376 97.8329 15.9357 97.8418 15.506L97.8432 15.5045Z" fill="#A7A9AC"/>
<path d="M59.0943 24.9216C60.0377 24.0393 60.597 24.0652 61.3491 24.9978C61.6146 24.6046 61.9603 24.3578 62.4409 24.3105C63.0936 24.245 63.6069 24.5711 63.6366 25.2339C63.6929 26.4972 63.6677 27.765 63.6766 29.0312C63.6781 29.2263 63.6499 29.3771 63.4022 29.3741C63.1055 29.3695 63.1129 29.1623 63.1129 28.9566C63.1129 27.9189 63.1218 26.8796 63.107 25.8419C63.1011 25.3665 63.1441 24.824 62.4572 24.7783C61.8935 24.7402 61.4604 25.1456 61.4352 25.8252C61.3966 26.837 61.4218 27.8503 61.4159 28.8636C61.4159 29.1059 61.4841 29.4 61.0776 29.3741C60.7008 29.3497 60.8299 29.0556 60.8284 28.8636C60.8166 27.8259 60.8255 26.7867 60.8225 25.749C60.821 25.2979 60.7765 24.8454 60.2158 24.7875C59.6743 24.7311 59.3123 25.0084 59.1922 25.5539C58.989 26.4789 59.1418 27.4206 59.1002 28.3547C59.0883 28.6076 59.0958 28.8606 59.0943 29.115C59.0943 29.3055 58.9979 29.3787 58.8184 29.3771C58.6329 29.3771 58.5484 29.2888 58.5484 29.1059C58.5484 27.637 58.5454 26.168 58.5454 24.6991C58.5454 24.5376 58.5751 24.402 58.7783 24.3898C59.1581 24.3669 59.0023 24.7341 59.0958 24.9261L59.0943 24.9216Z" fill="#B9B9B9"/>
<path d="M109.163 24.911C110.107 24.0379 110.648 24.0653 111.423 24.9979C111.679 24.5956 112.029 24.3579 112.504 24.3076C113.146 24.239 113.676 24.5788 113.704 25.231C113.759 26.4957 113.734 27.7635 113.741 29.0298C113.741 29.2172 113.722 29.3787 113.468 29.3727C113.173 29.3666 113.176 29.1624 113.175 28.9551C113.173 27.9159 113.182 26.8782 113.169 25.839C113.163 25.362 113.207 24.8211 112.519 24.7769C111.952 24.7403 111.532 25.1472 111.503 25.8298C111.467 26.6649 111.527 27.5045 111.472 28.3365C111.449 28.6778 111.782 29.3269 111.209 29.3254C110.599 29.3239 110.942 28.6595 110.917 28.3045C110.862 27.4984 110.902 26.6847 110.898 25.874C110.895 25.3879 110.933 24.8379 110.275 24.7845C109.604 24.7297 109.267 25.17 109.229 25.7994C109.177 26.6314 109.198 27.4694 109.189 28.3045C109.186 28.5071 109.192 28.7098 109.187 28.9125C109.181 29.1349 109.227 29.397 108.871 29.3727C108.551 29.3498 108.637 29.0984 108.637 28.9186C108.629 27.602 108.626 26.2839 108.64 24.9674C108.641 24.7708 108.5 24.466 108.825 24.4005C109.198 24.3243 109.077 24.7144 109.162 24.914L109.163 24.911Z" fill="#B9B9B9"/>
<path d="M105.195 24.9901C105.578 24.3928 106.128 24.1612 106.779 24.3623C107.496 24.5833 107.509 25.2248 107.505 25.8526C107.499 26.8659 107.508 27.8792 107.499 28.8925C107.497 29.0906 107.601 29.3802 107.221 29.371C106.868 29.3619 106.926 29.1013 106.925 28.8849C106.92 27.8457 106.922 26.808 106.923 25.7688C106.923 25.2934 106.911 24.8027 106.285 24.7798C105.658 24.757 105.309 25.1364 105.278 25.7474C105.234 26.6312 105.254 27.5196 105.248 28.4065C105.247 28.6091 105.243 28.8118 105.248 29.0145C105.256 29.2689 105.148 29.3832 104.895 29.3725C104.618 29.3604 104.674 29.1455 104.674 28.9855C104.668 27.8716 104.677 26.7562 104.665 25.6423C104.661 25.2446 104.572 24.8606 104.105 24.789C103.639 24.7174 103.278 24.9109 103.087 25.3589C102.958 25.6621 102.931 25.9913 102.936 26.3265C102.945 27.1874 102.942 28.0499 102.936 28.9108C102.936 29.1226 103.01 29.3984 102.638 29.3741C102.331 29.3543 102.377 29.1242 102.375 28.9322C102.371 27.5638 102.371 26.1954 102.375 24.8286C102.375 24.6625 102.323 24.4461 102.565 24.4019C102.647 24.3867 102.814 24.4416 102.822 24.4842C102.902 24.9825 103.059 24.757 103.293 24.5802C103.977 24.0637 104.498 24.1871 105.195 24.9932V24.9901Z" fill="#B9B9B9"/>
<path d="M1.63925 28.661C1.92407 27.2835 2.15697 26.1316 2.40173 24.9811C2.45811 24.7129 2.3869 24.3533 2.86753 24.3731C3.3452 24.3929 3.25174 24.786 3.30218 25.0299C3.54102 26.1605 3.73831 27.3018 4.07357 28.4386C4.2768 27.3536 4.47707 26.2672 4.68326 25.1822C4.7248 24.9598 4.76634 24.7342 4.83457 24.5194C4.8954 24.3274 5.07638 24.3868 5.21433 24.3899C5.43982 24.396 5.41905 24.5636 5.38493 24.7129C5.06154 26.1636 4.72777 27.6127 4.41328 29.0649C4.35691 29.33 4.21746 29.3727 3.99791 29.3742C3.74425 29.3772 3.67453 29.2416 3.63002 29.0085C3.38822 27.7452 3.12862 26.4866 2.82748 24.9902C2.53376 26.418 2.28158 27.6233 2.04274 28.8317C1.98786 29.109 2.00714 29.3772 1.59919 29.3818C1.2135 29.3848 1.23575 29.0908 1.18531 28.8744C0.875276 27.5228 0.584522 26.1681 0.289318 24.8135C0.255199 24.6535 0.13949 24.4508 0.409476 24.3929C0.667595 24.3381 0.804071 24.4341 0.855991 24.7342C1.02659 25.7278 1.2313 26.7167 1.42563 27.7072C1.4731 27.951 1.53392 28.1917 1.64073 28.661H1.63925Z" fill="#B9B9B9"/>
<path d="M91.0313 24.8851C91.0313 24.2314 91.0209 23.7088 91.0372 23.1861C91.0431 22.9926 90.9141 22.7031 91.2953 22.6924C91.6469 22.6832 91.6068 22.9301 91.6068 23.1556C91.6068 25.0497 91.6098 26.9453 91.6024 28.8394C91.6024 29.042 91.7003 29.3361 91.3517 29.3635C90.9511 29.3955 91.1381 28.9994 90.9778 28.7921C90.5877 29.4199 90.0136 29.5814 89.3698 29.3803C88.7186 29.1761 88.5064 28.5712 88.41 27.9677C88.278 27.1449 88.2439 26.3053 88.4872 25.4916C88.8773 24.1887 89.9068 23.8947 91.0298 24.8851H91.0313ZM88.9085 26.9072C88.9485 27.3537 88.9337 27.8321 89.085 28.2969C89.2289 28.7357 89.5033 28.9552 89.9483 28.9795C90.4171 29.0054 90.699 28.7418 90.8251 28.3258C91.1173 27.3628 91.0995 26.3876 90.8325 25.4215C90.7108 24.9796 90.38 24.7785 89.9439 24.7724C89.5241 24.7663 89.2674 24.9979 89.1132 25.388C88.9218 25.8695 88.9618 26.3784 88.9099 26.9057L88.9085 26.9072Z" fill="#B9B9B9"/>
<path d="M47.6554 28.8255C47.6554 29.4792 47.6554 30.0339 47.6554 30.5901C47.6554 30.7958 47.6732 31.0091 47.3676 30.9924C47.0873 30.9771 47.0784 30.7867 47.0784 30.5703C47.0799 28.6503 47.0813 26.7288 47.0784 24.8088C47.0784 24.5574 47.2668 24.2206 47.4018 24.4157C47.8156 25.0145 48.0574 24.4523 48.3423 24.3502C49.1404 24.0652 49.888 24.405 50.1535 25.269C50.4473 26.2275 50.4576 27.2195 50.2158 28.184C49.8687 29.5737 48.7636 29.8709 47.6569 28.8255H47.6554ZM49.7664 26.8751C49.7219 26.4591 49.7664 26.005 49.6254 25.5616C49.4845 25.1136 49.2694 24.7844 48.765 24.7844C48.2458 24.7844 47.9432 25.0999 47.8112 25.5722C47.5546 26.4926 47.5961 27.4221 47.8587 28.3303C47.9684 28.7113 48.2266 28.9566 48.676 28.9505C49.0988 28.9444 49.3792 28.7707 49.5483 28.3913C49.7589 27.9189 49.7337 27.4084 49.7649 26.8736L49.7664 26.8751Z" fill="#B9B9B9"/>
<path d="M124.717 27.0564C124.77 26.3768 124.772 25.8145 124.996 25.2949C125.282 24.632 125.763 24.2511 126.496 24.2998C127.226 24.3471 127.677 24.7387 127.828 25.4823C127.847 25.5813 127.892 25.6743 127.911 25.7733C128.107 26.8248 128.052 26.8918 127.03 26.8918C126.684 26.8918 126.335 26.9284 125.996 26.8842C125.331 26.7988 125.257 27.1219 125.371 27.6826C125.469 28.1642 125.545 28.6533 126.021 28.8864C126.539 29.1394 127.043 28.8179 127.282 28.0895C127.366 27.832 127.412 27.5806 127.749 27.6918C128.113 27.8106 127.868 28.0636 127.82 28.2404C127.607 29.048 127.083 29.4853 126.347 29.4609C125.589 29.4365 125.1 29.0312 124.928 28.2708C124.827 27.8305 124.773 27.3794 124.72 27.0548L124.717 27.0564ZM126.334 26.4682C126.628 26.1573 127.297 26.8583 127.343 26.008C127.383 25.2751 126.95 24.7539 126.37 24.7707C125.747 24.789 125.379 25.24 125.398 26.0065C125.42 26.8232 126.058 26.1787 126.334 26.4682Z" fill="#B9B9B9"/>
<path d="M52.6546 24.2908C53.5551 24.303 53.9704 24.6946 54.0016 25.6241C54.0283 26.4577 54.0016 27.2927 54.0149 28.1262C54.0194 28.431 53.8874 28.7967 54.3265 28.9552C54.5089 29.0207 54.4615 29.2371 54.3547 29.3254C54.1677 29.4793 53.8399 29.4885 53.7375 29.3315C53.4216 28.8485 53.1991 29.1075 52.8668 29.3056C52.2304 29.6866 51.3418 29.4108 51.0703 28.815C50.7084 28.0211 51.0006 27.0641 51.7245 26.7548C52.0627 26.61 52.4217 26.511 52.7792 26.4272C53.2391 26.3205 53.4498 26.06 53.4112 25.5723C53.3785 25.1487 53.2302 24.8409 52.7778 24.783C52.3253 24.7251 51.9381 24.8059 51.7557 25.3057C51.7216 25.4002 51.6711 25.4946 51.6652 25.5906C51.6503 25.8161 51.5465 25.9137 51.3329 25.868C51.0763 25.8131 51.1564 25.612 51.1727 25.4443C51.2424 24.7251 51.8195 24.2771 52.6546 24.2878V24.2908ZM53.4097 26.6558C52.9884 26.8188 52.6531 26.9712 52.3031 27.0763C51.6874 27.2622 51.505 27.6889 51.6014 28.2938C51.6711 28.7235 51.9025 28.9765 52.3461 28.9765C52.9765 28.9765 53.2984 28.5712 53.3949 28.0058C53.4661 27.5898 53.4082 27.1495 53.4082 26.6542L53.4097 26.6558Z" fill="#B9B9B9"/>
<path d="M29.341 26.8919C29.1926 26.8919 29.0458 26.8903 28.8974 26.8919C28.4568 26.8995 27.9391 26.7243 28.0548 27.5623C28.1839 28.504 28.5414 29.0054 29.1882 28.9277C29.694 28.8682 29.9151 28.4979 29.9848 28.0652C30.0397 27.7193 30.1939 27.6096 30.4669 27.6964C30.7443 27.7848 30.596 28.0332 30.5529 28.2084C30.3631 28.9825 29.8127 29.4473 29.0917 29.4625C28.3827 29.4777 27.8501 29.0876 27.6365 28.3166C27.3754 27.378 27.3606 26.421 27.6439 25.4839C27.908 24.6123 28.4791 24.2313 29.3009 24.3121C30.0115 24.3822 30.4624 24.8698 30.6063 25.7246C30.7379 26.5038 30.3166 26.8929 29.3424 26.8919H29.341ZM28.9998 26.4622C29.3143 26.1803 30.0189 26.8568 30.0293 25.9578C30.0382 25.2203 29.6569 24.7692 29.0903 24.7753C28.4643 24.7814 28.0949 25.2279 28.0889 25.9822C28.0815 26.8294 28.7298 26.194 28.9998 26.4622Z" fill="#B9B9B9"/>
<path d="M66.4758 26.8918C66.3779 26.8918 66.2725 26.869 66.1806 26.8964C65.8379 26.9955 65.2846 26.613 65.1703 27.1387C65.0502 27.6934 65.1792 28.312 65.6332 28.7432C66.1212 29.208 66.7947 28.9368 67.0573 28.1855C67.1448 27.9341 67.1552 27.5471 67.5409 27.7055C67.8984 27.8518 67.6625 28.1947 67.5883 28.4095C67.3643 29.0602 66.9045 29.4564 66.2073 29.4625C65.5219 29.4686 65.0205 29.1455 64.7935 28.4644C64.4479 27.4297 64.4331 26.3875 64.798 25.3498C65.0546 24.6199 65.5605 24.2572 66.32 24.3029C67.0602 24.3456 67.4741 24.7433 67.6625 25.5707C67.8643 26.4525 67.4682 26.8934 66.4743 26.8934L66.4758 26.8918ZM66.185 26.4545C66.4847 26.2 67.0929 26.7821 67.1671 26.0538C67.2397 25.3452 66.7665 24.7692 66.2117 24.7722C65.5857 24.7753 65.1066 25.3056 65.1867 26.0598C65.2608 26.7593 65.869 26.2168 66.185 26.456V26.4545Z" fill="#B9B9B9"/>
<path d="M116.276 24.2937C117.285 24.2846 118.275 25.8297 117.842 26.7303C117.736 26.9497 117.552 26.8857 117.395 26.8888C116.805 26.8979 116.213 26.907 115.622 26.8888C115.305 26.8781 115.179 26.9787 115.202 27.3169C115.229 27.6994 115.283 28.0697 115.45 28.4141C115.616 28.7539 115.866 28.9581 116.269 28.9413C116.665 28.9245 116.908 28.7112 117.066 28.3714C117.128 28.2373 117.159 28.0849 117.189 27.9371C117.233 27.7116 117.377 27.6644 117.57 27.6842C117.853 27.7131 117.772 27.9173 117.739 28.0804C117.606 28.7402 117.306 29.2567 116.607 29.4106C115.867 29.5722 115.202 29.3146 114.935 28.6457C114.468 27.4785 114.458 26.2792 114.967 25.1151C115.21 24.5589 115.679 24.2983 116.278 24.2968L116.276 24.2937ZM116.183 26.4606C116.506 26.1832 117.159 26.8217 117.233 26.0385C117.302 25.3086 116.828 24.7676 116.26 24.7768C115.637 24.7859 115.244 25.2217 115.247 26.0004C115.251 26.8065 115.901 26.197 116.183 26.4621V26.4606Z" fill="#B9B9B9"/>
<path d="M6.61162 24.8912C7.18571 24.271 7.76129 24.1476 8.38581 24.3959C9.03853 24.655 9.06671 25.266 9.07413 25.8588C9.08451 26.8203 9.086 27.7833 9.06968 28.7448C9.06523 28.9826 9.22396 29.3848 8.76409 29.3589C8.31609 29.333 8.52377 28.9353 8.51784 28.7083C8.49262 27.7727 8.51487 26.8355 8.50449 25.8984C8.49707 25.3331 8.39471 24.8074 7.69156 24.7754C7.08335 24.7479 6.65612 25.1594 6.62645 25.8816C6.5864 26.8934 6.61904 27.9068 6.60717 28.9186C6.60569 29.0907 6.70953 29.3513 6.37872 29.3711C6.0583 29.3909 6.02566 29.1913 6.02715 28.9353C6.03011 26.9864 6.03011 25.0359 6.02715 23.087C6.02715 22.8706 6.02863 22.6939 6.32532 22.6862C6.63832 22.6786 6.6131 22.8767 6.61162 23.0809C6.61162 23.634 6.61162 24.1887 6.61162 24.8881V24.8912Z" fill="#B9B9B9"/>
<path d="M12.8466 26.8828C12.8466 27.3627 12.8436 27.8427 12.8481 28.3227C12.8496 28.4949 12.8125 28.6915 12.9727 28.8134C13.1596 28.9551 13.4815 29.0922 13.1863 29.3467C12.989 29.5174 12.6137 29.4839 12.4579 29.2233C12.2681 28.9033 12.1746 28.9841 11.9417 29.173C11.4507 29.5738 10.887 29.5631 10.35 29.2721C9.80407 28.9749 9.79813 28.4248 9.82038 27.8839C9.8456 27.2485 10.1883 26.8614 10.7624 26.677C11.0427 26.5871 11.3261 26.4942 11.6153 26.4409C12.1301 26.3479 12.2903 26.0462 12.2532 25.5296C12.2206 25.0725 12.0248 24.8241 11.5931 24.7769C11.1377 24.7281 10.7668 24.847 10.6022 25.3498C10.5235 25.5875 10.531 26.0218 10.1423 25.842C9.83819 25.7003 10.034 25.3559 10.1319 25.1106C10.3974 24.4371 10.9982 24.1948 11.9328 24.3456C12.6404 24.4599 12.8332 24.9567 12.8451 25.5936C12.8525 26.0233 12.8451 26.4515 12.8451 26.8812H12.8481L12.8466 26.8828ZM12.2606 26.6572C11.8186 26.8279 11.4551 26.9803 11.0843 27.1083C10.4939 27.3109 10.3871 27.7711 10.4672 28.3182C10.525 28.7113 10.7535 28.9642 11.1584 28.9764C11.7281 28.9932 12.0989 28.6961 12.228 28.1353C12.3348 27.6706 12.3511 27.1936 12.2606 26.6572Z" fill="#B9B9B9"/>
<path d="M83.3559 26.8964C83.3559 27.3764 83.353 27.8579 83.3574 28.3379C83.3589 28.5116 83.3203 28.7128 83.4894 28.8255C83.6734 28.9474 83.9567 29.0846 83.7401 29.3086C83.5221 29.5326 83.123 29.4945 82.9599 29.2202C82.764 28.8911 82.7017 28.9657 82.4614 29.1684C81.9778 29.5707 81.4052 29.5676 80.8638 29.2827C80.3149 28.9932 80.2971 28.4324 80.3178 27.896C80.3431 27.2698 80.6857 26.869 81.2598 26.68C81.5639 26.581 81.8695 26.4789 82.1825 26.418C82.6839 26.322 82.7922 25.9928 82.7626 25.5342C82.7359 25.1319 82.5831 24.8606 82.1707 24.7936C81.7494 24.725 81.3785 24.789 81.159 25.2157C81.0907 25.3483 81.0477 25.4991 81.0195 25.6454C80.9839 25.8343 80.8801 25.8922 80.708 25.8755C80.487 25.8542 80.5151 25.6835 80.5226 25.5402C80.5448 25.17 80.6828 24.8363 80.9661 24.6153C81.5061 24.1947 82.1425 24.213 82.7284 24.4294C83.2521 24.6229 83.3722 25.1425 83.3559 25.6865C83.3441 26.0903 83.353 26.4957 83.3545 26.901L83.3559 26.8964ZM82.8115 26.6557C82.362 26.8248 81.9793 26.9741 81.5936 27.1128C81.018 27.3216 80.9097 27.7817 80.9899 28.3212C81.0477 28.7082 81.2747 28.9612 81.6752 28.9764C82.2374 28.9977 82.6068 28.7082 82.7507 28.1596C82.8723 27.6964 82.8634 27.2179 82.8115 26.6557Z" fill="#B9B9B9"/>
<path d="M69.2292 24.9307C69.5141 24.5528 69.8701 24.3089 70.3448 24.2861C71.0227 24.2526 71.5671 24.6625 71.5998 25.3802C71.6547 26.5901 71.6235 27.8045 71.6294 29.0175C71.6294 29.211 71.5953 29.3557 71.3565 29.3725C71.0598 29.3938 71.0465 29.211 71.0465 28.99C71.0479 27.9798 71.0465 26.968 71.0465 25.9577C71.0465 25.4 71.0094 24.856 70.3092 24.7783C69.6802 24.7082 69.2189 25.1242 69.1788 25.8891C69.1254 26.872 69.1669 27.8594 69.1491 28.8437C69.1462 29.0327 69.2871 29.342 68.9133 29.3649C68.4994 29.3908 68.5973 29.0632 68.5958 28.8346C68.5884 27.5455 68.5854 26.2563 68.5988 24.9687C68.6003 24.7524 68.4579 24.4232 68.8628 24.3851C69.2663 24.347 69.0275 24.7676 69.2278 24.9291L69.2292 24.9307Z" fill="#B9B9B9"/>
<path d="M43.9484 27.2255C43.9484 27.806 43.9499 28.3881 43.9484 28.9687C43.9484 29.1652 43.984 29.3831 43.668 29.3725C43.3787 29.3633 43.3698 29.1759 43.3698 28.9626C43.3698 27.9264 43.3669 26.8902 43.3698 25.854C43.3698 25.3055 43.2838 24.8057 42.6163 24.7798C41.9695 24.7554 41.5808 25.1226 41.5511 25.7748C41.5066 26.7836 41.5274 27.7954 41.5066 28.8056C41.5022 29.0266 41.6283 29.3679 41.2203 29.3649C40.799 29.3618 40.9563 29.0098 40.9533 28.7995C40.94 27.5104 40.9429 26.2213 40.9504 24.9321C40.9504 24.7478 40.8465 24.4918 41.0928 24.3988C41.3272 24.3104 41.4132 24.4537 41.4755 24.6975C41.5467 24.9733 41.6861 24.7539 41.7781 24.6716C42.2528 24.2434 42.7898 24.155 43.352 24.4293C43.941 24.7158 43.9617 25.2857 43.9528 25.8586C43.9454 26.3127 43.9514 26.7683 43.9514 27.2239L43.9484 27.2255Z" fill="#B9B9B9"/>
<path d="M24.1592 24.9352C24.4871 24.6518 24.7289 24.3745 25.1324 24.3135C25.9646 24.1886 26.5713 24.6183 26.598 25.4792C26.6351 26.6434 26.6084 27.8091 26.6099 28.9748C26.6099 29.1836 26.6188 29.3847 26.3132 29.3725C26.0209 29.3603 26.0209 29.1653 26.0209 28.9565C26.0209 27.9173 26.015 26.8796 26.0224 25.8404C26.0269 25.3131 25.9305 24.8377 25.3252 24.7829C24.6903 24.7234 24.2527 25.0602 24.2126 25.7215C24.1503 26.7562 24.1696 27.7954 24.1399 28.8331C24.134 29.0525 24.2646 29.3984 23.8358 29.3664C23.4724 29.339 23.6029 29.0327 23.6015 28.8392C23.5896 27.5226 23.5911 26.2061 23.6 24.888C23.6 24.6884 23.4947 24.3882 23.8655 24.3882C24.2468 24.3882 24.0302 24.7326 24.1607 24.9368L24.1592 24.9352Z" fill="#B9B9B9"/>
<path d="M85.0529 24.9583C85.5484 24.3411 86.121 24.1156 86.7974 24.4006C87.465 24.6825 87.4947 25.3103 87.4917 25.9381C87.4872 26.9255 87.4917 27.9129 87.4887 28.9003C87.4887 29.1228 87.5332 29.3773 87.1802 29.3727C86.8078 29.3681 86.9057 29.0862 86.9043 28.8836C86.8954 27.8703 86.8954 26.8585 86.9013 25.8451C86.9043 25.3179 86.7915 24.844 86.1981 24.7831C85.5647 24.7175 85.1182 25.0695 85.0722 25.7141C84.9995 26.7213 85.0381 27.7362 85.0025 28.7464C84.9951 28.9704 85.2013 29.391 84.7177 29.359C84.3275 29.3331 84.4966 28.9689 84.4937 28.7571C84.4774 27.4908 84.4788 26.2261 84.4937 24.9598C84.4966 24.7511 84.3349 24.393 84.7592 24.3945C85.133 24.3945 84.8986 24.7526 85.0529 24.9613V24.9583Z" fill="#B9B9B9"/>
<path d="M101.561 26.8858C101.528 27.4161 101.482 27.9403 101.297 28.4447C101.052 29.1136 100.574 29.455 99.8918 29.4626C99.205 29.4702 98.7095 29.1273 98.4707 28.466C98.0998 27.4375 98.0895 26.3937 98.447 25.3544C98.6754 24.6916 99.1293 24.3106 99.8221 24.2939C100.543 24.2756 101.027 24.6382 101.292 25.3285C101.487 25.8314 101.528 26.3556 101.561 26.8858ZM100.966 26.8371C100.938 26.3388 100.905 25.8131 100.675 25.324C100.509 24.972 100.245 24.7784 99.8622 24.783C99.4824 24.7876 99.1917 24.972 99.0596 25.3377C98.6873 26.3678 98.671 27.4039 99.0759 28.4294C99.2184 28.7906 99.5002 28.9795 99.8844 28.9689C100.295 28.9582 100.573 28.7433 100.72 28.3487C100.898 27.8717 100.952 27.3735 100.966 26.8371Z" fill="#B9B9B9"/>
<path d="M56.3974 28.4142C56.6704 27.2424 56.9463 26.0691 57.2163 24.8973C57.2786 24.6306 57.289 24.2741 57.6835 24.399C58.0692 24.5225 57.7918 24.8105 57.7399 25.0116C57.3157 26.668 56.8706 28.3182 56.4464 29.9731C56.2743 30.645 55.9049 31.0306 55.1943 30.997C55.0401 30.9894 54.8873 30.9955 54.8739 30.7837C54.862 30.6009 54.9644 30.5521 55.1335 30.5003C55.9331 30.2519 56.163 29.8176 55.939 28.9994C55.5741 27.666 55.1929 26.3388 54.8339 25.004C54.7805 24.8044 54.5194 24.5087 54.9125 24.3945C55.2433 24.2985 55.2967 24.5834 55.362 24.844C55.6587 26.0386 55.9687 27.2287 56.2743 28.4218C56.3158 28.4188 56.3559 28.4173 56.3974 28.4142Z" fill="#B9B9B9"/>
<path d="M77.5765 28.0165C77.5676 28.8988 77.0114 29.4504 76.1168 29.4641C75.2119 29.4778 74.6557 29.045 74.6141 28.2694C74.6052 28.0957 74.491 27.8367 74.7995 27.7849C75.0977 27.7361 75.1749 27.9144 75.1941 28.1841C75.2357 28.7982 75.6436 28.9932 76.1643 28.9749C76.5901 28.9597 76.9298 28.7647 77.0025 28.2786C77.0855 27.7193 76.8408 27.3689 76.3334 27.1693C75.9685 27.026 75.611 26.8553 75.2609 26.674C74.6156 26.3388 74.6468 25.7384 74.7773 25.1594C74.9182 24.5407 75.5027 24.242 76.2415 24.2954C76.8823 24.3411 77.3303 24.6032 77.4178 25.3026C77.4386 25.4702 77.5617 25.7308 77.2294 25.7689C76.9861 25.7963 76.8734 25.6866 76.8497 25.4321C76.8022 24.9293 76.4862 24.7449 76.0308 24.7693C75.6169 24.7921 75.3202 24.9902 75.2535 25.4321C75.1838 25.9015 75.4181 26.2001 75.8291 26.3708C76.1465 26.5034 76.4699 26.6253 76.7814 26.7731C77.2932 27.0153 77.6047 27.4039 77.5765 28.015V28.0165Z" fill="#B9B9B9"/>
<path d="M19.0592 29.4625C18.1647 29.4503 17.7093 29.083 17.6114 28.2815C17.5891 28.0956 17.4972 27.8594 17.7894 27.7893C18.092 27.7177 18.1528 27.8853 18.1855 28.1611C18.2626 28.8301 18.7076 29.0328 19.2951 28.9657C19.7075 28.9185 19.9804 28.6457 20.0383 28.2312C20.0991 27.7909 19.9092 27.4419 19.5013 27.2484C19.0785 27.0473 18.629 26.8934 18.2315 26.6495C17.6485 26.293 17.5965 25.717 17.8042 25.1181C18.0549 24.3959 18.6201 24.2557 19.2966 24.309C19.9137 24.3578 20.3379 24.6046 20.4121 25.2812C20.4314 25.4534 20.5901 25.7002 20.2638 25.7657C20.0235 25.8145 19.9196 25.7139 19.881 25.4518C19.8084 24.9399 19.4835 24.7143 18.988 24.7707C18.6127 24.8134 18.3412 24.9871 18.2819 25.4153C18.2107 25.9303 18.4466 26.232 18.8916 26.4027C19.1453 26.5002 19.4034 26.584 19.6526 26.6922C20.4314 27.032 20.7014 27.5532 20.5427 28.3806C20.4106 29.0663 19.8543 29.4701 19.0577 29.4594L19.0592 29.4625Z" fill="#B9B9B9"/>
<path d="M31.0558 24.3015C32.2633 24.524 32.0883 25.6592 32.6861 26.1377C33.3136 25.7247 33.0733 24.4539 34.2808 24.3533C34.0894 24.7434 33.999 25.0436 33.8209 25.2722C33.0065 26.3175 33.008 27.3323 33.8224 28.3792C34.0168 28.6291 34.1147 28.9567 34.26 29.2554C33.8852 29.3397 33.5777 29.1243 33.3373 28.6093C33.1475 28.2024 32.9531 27.8001 32.7543 27.3811C32.0304 27.8885 32.2722 29.2005 31.0054 29.4534C31.4163 28.6397 31.7278 27.9708 32.0853 27.3308C32.2915 26.9605 32.3004 26.6542 32.0868 26.284C31.7515 25.7034 31.4638 25.0924 31.0558 24.3046V24.3015Z" fill="#B9B9B9"/>
<path d="M95.044 26.9315C95.1092 27.3505 95.1523 27.8305 95.268 28.2922C95.3644 28.6793 95.6106 28.9536 96.0527 28.9673C96.5081 28.981 96.7959 28.7555 96.9561 28.338C97.0095 28.1978 97.0422 28.0484 97.0763 27.9006C97.1356 27.6431 97.3299 27.698 97.4887 27.7254C97.726 27.7665 97.6192 27.954 97.594 28.082C97.462 28.7418 97.1653 29.2629 96.4636 29.4092C95.7204 29.5646 95.0603 29.2995 94.8036 28.6244C94.3571 27.4557 94.3245 26.2549 94.863 25.0984C95.1804 24.4172 95.756 24.2252 96.4681 24.3304C97.1252 24.4279 97.459 24.8348 97.5881 25.458C97.6177 25.5997 97.7587 25.8191 97.4738 25.8831C97.2513 25.9334 97.103 25.8694 97.0496 25.6088C96.9309 25.039 96.6134 24.7113 96.0067 24.8012C95.3926 24.8927 95.262 25.3803 95.179 25.8953C95.127 26.2184 95.0944 26.5445 95.0469 26.9315H95.044Z" fill="#B9B9B9"/>
<path d="M121.587 26.7685C121.559 27.3307 121.611 27.7559 121.722 28.1734C121.841 28.6183 122.057 28.9581 122.571 28.9673C123.065 28.9749 123.339 28.6961 123.48 28.2435C123.517 28.1231 123.53 27.9951 123.566 27.8747C123.625 27.6797 123.789 27.7102 123.932 27.7132C124.171 27.7178 124.127 27.8945 124.099 28.0363C123.97 28.6884 123.7 29.237 123.002 29.4031C122.256 29.5814 121.596 29.3315 121.32 28.6625C120.831 27.474 120.807 26.2519 121.368 25.0725C121.692 24.3898 122.281 24.2237 122.988 24.3395C123.643 24.4462 123.965 24.8683 124.091 25.4869C124.119 25.6271 124.237 25.8618 123.94 25.8908C123.796 25.9045 123.614 25.9288 123.575 25.7308C123.444 25.0618 123.112 24.6382 122.403 24.8302C121.642 25.0359 121.7 25.7673 121.592 26.3692C121.56 26.5399 121.587 26.7227 121.587 26.7685Z" fill="#B9B9B9"/>
<path d="M35.0789 26.9362C35.0789 26.4805 35.0878 26.0234 35.0759 25.5678C35.067 25.2463 35.2213 24.8364 34.6279 24.8333C34.3653 24.8333 34.3965 24.4356 34.5597 24.4356C35.2851 24.4341 35.0359 23.9145 35.0804 23.5411C35.1071 23.3202 34.9587 22.9911 35.383 22.9972C35.8251 23.0032 35.6307 23.3492 35.6485 23.5533C35.6871 23.9709 35.4957 24.5301 36.2612 24.3914C36.4288 24.3609 36.5356 24.4722 36.5208 24.6657C36.5074 24.8333 36.3873 24.876 36.2627 24.8531C35.5936 24.7297 35.6456 25.1777 35.6515 25.6257C35.6634 26.4363 35.6634 27.247 35.6515 28.0577C35.6456 28.5255 35.6693 28.9476 36.2864 28.9262C36.4229 28.9217 36.5282 28.9597 36.5252 29.1289C36.5223 29.2676 36.4703 29.3437 36.3265 29.3956C35.7286 29.615 35.1353 29.266 35.0908 28.6078C35.0537 28.0531 35.0833 27.4939 35.0833 26.9362C35.0818 26.9362 35.0789 26.9362 35.0774 26.9362H35.0789Z" fill="#B9B9B9"/>
<path d="M95.3168 17.2509C95.9591 17.2265 96.597 17.865 96.6163 18.5522C96.6356 19.2029 96.0719 19.7835 95.388 19.8185C94.6745 19.8536 94.1671 19.372 94.1404 18.636C94.1137 17.8711 94.6166 17.2783 95.3168 17.2524V17.2509Z" fill="#A7A9AC"/>
<path d="M72.8427 26.8842C72.8427 26.4042 72.8442 25.9257 72.8427 25.4457C72.8427 25.1532 72.9228 24.8301 72.4333 24.8423C72.1396 24.8499 72.1633 24.4644 72.3087 24.4568C73.0311 24.4202 72.8219 23.9052 72.8427 23.5014C72.8546 23.2621 72.7685 22.9711 73.178 22.9939C73.5651 23.0168 73.4049 23.3094 73.4227 23.4983C73.4613 23.9265 73.2314 24.5269 74.0428 24.3897C74.1719 24.3684 74.2757 24.4461 74.2905 24.6015C74.3128 24.8164 74.1659 24.8758 74.0161 24.8499C73.4213 24.7478 73.4064 25.1029 73.4198 25.557C73.445 26.3889 73.4331 27.2225 73.4242 28.0545C73.4198 28.5101 73.4123 28.9474 74.0413 28.9245C74.1704 28.92 74.2816 28.9443 74.2935 29.1181C74.3054 29.3177 74.1897 29.3603 74.0309 29.4015C73.3738 29.5706 72.9124 29.243 72.8486 28.5482C72.8442 28.4979 72.8442 28.4476 72.8442 28.3973C72.8442 27.8929 72.8442 27.3886 72.8442 26.8842H72.8427Z" fill="#B9B9B9"/>
<path d="M14.1684 26.8691C14.1684 26.4135 14.1743 25.9579 14.1669 25.5023C14.1624 25.196 14.2856 24.8318 13.7411 24.8364C13.4341 24.8394 13.5112 24.4432 13.6536 24.4417C14.3597 24.431 14.1313 23.9267 14.1728 23.5503C14.1966 23.337 14.0245 23.0109 14.4547 22.9956C14.8953 22.9804 14.744 23.3126 14.7529 23.5259C14.7707 23.983 14.6268 24.5377 15.4056 24.3975C15.545 24.3716 15.6177 24.4966 15.6177 24.6428C15.6177 24.8135 15.4901 24.8699 15.3714 24.8486C14.7084 24.7267 14.7454 25.1594 14.7543 25.6135C14.7692 26.4485 14.7692 27.2851 14.7543 28.1201C14.7469 28.5712 14.7944 28.946 15.364 28.9247C15.4901 28.9201 15.6103 28.943 15.6192 29.1182C15.6296 29.3163 15.5094 29.362 15.3507 29.4032C14.6995 29.5693 14.2144 29.2325 14.1817 28.5392C14.155 27.983 14.1758 27.4253 14.1758 26.8676C14.1743 26.8676 14.1713 26.8676 14.1699 26.8676L14.1684 26.8691Z" fill="#B9B9B9"/>
<path d="M118.718 26.8782C118.718 26.1956 118.714 25.5114 118.721 24.8287C118.723 24.6703 118.642 24.4478 118.89 24.3944C119.068 24.3564 119.242 24.3762 119.276 24.6215C119.329 25.0131 119.463 24.7632 119.581 24.6626C119.676 24.5834 119.768 24.492 119.877 24.4371C120.098 24.3259 120.334 24.2131 120.58 24.2649C120.706 24.2924 120.697 24.4691 120.69 24.5941C120.661 25.0207 120.311 24.7937 120.118 24.8729C119.567 25.1 119.31 25.5205 119.297 26.1011C119.276 27.0093 119.285 27.9175 119.268 28.8272C119.264 29.0527 119.374 29.3849 118.961 29.3681C118.589 29.3529 118.725 29.0451 118.721 28.8515C118.705 28.1948 118.715 27.5365 118.715 26.8782H118.718Z" fill="#B9B9B9"/>
<path d="M39.8912 26.8782C39.8912 27.5578 39.8912 28.239 39.8912 28.9186C39.8912 29.1548 39.8956 29.3894 39.5604 29.3696C39.2355 29.3513 39.3319 29.0923 39.3304 28.9186C39.3215 27.5578 39.3215 26.1971 39.3304 24.8363C39.3304 24.6626 39.234 24.4036 39.5604 24.3853C39.8941 24.367 39.8912 24.6001 39.8912 24.8363C39.8912 25.5159 39.8912 26.1971 39.8912 26.8767V26.8782Z" fill="#B9B9B9"/>
<path d="M16.4082 24.8348C16.7242 24.2908 16.7079 23.7788 16.4853 23.2256C16.4171 23.0565 16.3385 22.706 16.7672 22.6862C17.1677 22.6679 17.1173 22.9285 17.1143 23.1784C17.1054 23.8214 17.2033 24.5071 16.4097 24.8348H16.4082Z" fill="#B9B9B9"/>
<path d="M39.8674 23.2835C39.8599 23.3293 39.9964 23.6081 39.6359 23.6416C39.2725 23.6752 39.3096 23.4176 39.3348 23.2013C39.3571 23.0154 39.1894 22.7197 39.5662 22.6923C39.9 22.6695 39.9104 22.8858 39.8674 23.2835Z" fill="#B9B9B9"/>
</g>
<defs>
<clipPath id="clip0_524_5563">
<rect width="128" height="31" fill="white"/>
</clipPath>
</defs>
</svg>
