<svg width="124" height="27" viewBox="0 0 124 27" fill="none" xmlns="http://www.w3.org/2000/svg">
<g clip-path="url(#clip0_524_5404)">
<path d="M23.5226 16.3987C23.5226 13.4521 23.5226 10.4994 23.5226 7.55275C23.5226 7.25988 23.4415 6.96701 23.8701 6.82356C28.1556 5.43091 32.4932 5.00057 36.8772 6.20793C38.5972 6.68011 40.0218 7.68425 40.711 9.50724C40.9368 10.1049 41.0642 10.7325 41.0642 11.378C41.0642 16.0401 41.0526 20.7022 41.0758 25.3642C41.0758 25.8783 40.931 25.9978 40.4561 25.9799C39.3442 25.944 38.2323 25.938 37.1262 25.9799C36.5934 26.0038 36.4776 25.8305 36.4776 25.3045C36.5007 20.9532 36.4312 16.596 36.5123 12.2447C36.5587 9.72241 35.0877 8.80793 33.3677 8.4493C31.8272 8.12655 30.2925 8.28793 28.7694 8.64057C28.2309 8.76609 28.0397 8.9693 28.0397 9.58494C28.0687 14.767 28.0397 19.9551 28.0745 25.1371C28.0745 25.8424 27.8892 26.0217 27.229 25.9799C26.2387 25.9201 25.2368 25.9261 24.2465 25.9799C23.6789 26.0098 23.5052 25.8484 23.511 25.2447C23.54 22.298 23.5226 19.3454 23.5226 16.3987Z" fill="#ACA9A9"/>
<path d="M62.4744 6.04067C64.1307 6.04067 65.6074 6.05262 67.0842 6.03469C67.4317 6.03469 67.5649 6.24389 67.7212 6.48894C68.9837 8.41952 70.2578 10.3441 71.5029 12.2866C71.7925 12.7409 71.9315 12.7529 72.2384 12.2926C73.5125 10.368 74.8271 8.47331 76.1011 6.54871C76.3502 6.17216 76.6166 6.01676 77.0625 6.02871C78.2844 6.06458 79.5122 6.04067 80.7689 6.04067C80.7978 6.35147 80.572 6.51285 80.433 6.69814C78.4466 9.38182 76.4602 12.0715 74.4506 14.7372C74.1205 15.1795 74.0626 15.4545 74.4217 15.9446C76.6745 19.0168 78.8925 22.1188 81.1106 25.2209C81.2553 25.4181 81.4696 25.5855 81.4928 25.9381C79.8654 25.9381 78.2613 25.9381 76.6513 25.9381C76.3386 25.9381 76.2401 25.6692 76.1011 25.46C74.6823 23.2903 73.2519 21.1326 71.862 18.945C71.5145 18.4011 71.3639 18.4788 71.057 18.963C69.6671 21.1207 68.2424 23.2604 66.8525 25.4181C66.6093 25.7947 66.3603 25.968 65.9028 25.962C64.5476 25.9322 63.1867 25.9501 61.6868 25.9501C62.2369 25.1791 62.706 24.5156 63.1809 23.8641C65.0746 21.2581 66.9684 18.6462 68.8853 16.0522C69.1632 15.6816 69.1459 15.4545 68.8853 15.0839C66.9105 12.3345 64.953 9.56113 62.9956 6.79975C62.8508 6.59653 62.706 6.38734 62.4686 6.04067H62.4744Z" fill="#B9B9B9"/>
<path d="M0.386582 13.231C0.386582 9.23833 0.398165 5.24568 0.375 1.25304C0.375 0.744993 0.450286 0.577637 1.00045 0.577637C5.32071 0.607522 9.64676 0.601545 13.9728 0.577637C14.4824 0.577637 14.5925 0.733039 14.5577 1.2112C14.5056 1.9404 14.7952 2.93258 14.4361 3.34499C14.0249 3.8112 13.052 3.47649 12.3223 3.48246C10.1274 3.5004 7.92677 3.51235 5.73189 3.47649C5.18751 3.46453 5.08906 3.63787 5.10065 4.15787C5.1296 6.36936 5.13539 8.58086 5.10065 10.7923C5.08906 11.39 5.29176 11.4678 5.79559 11.4618C8.17579 11.4379 10.556 11.4678 12.942 11.4379C13.4574 11.4319 13.6369 11.5574 13.5906 12.1013C13.5385 12.6452 13.5443 13.1951 13.5906 13.739C13.6369 14.265 13.4284 14.3546 12.9651 14.3546C10.5386 14.3307 8.11209 14.3546 5.68556 14.3307C5.22805 14.3307 5.11223 14.4503 5.11223 14.9225C5.13539 18.3473 5.11223 21.7661 5.13539 25.191C5.13539 25.7827 5.05432 26.0218 4.39991 25.9859C3.27062 25.9202 2.13553 25.9441 1.00045 25.9799C0.502407 25.9979 0.375 25.8604 0.375 25.3583C0.398165 21.3179 0.386582 17.2774 0.386582 13.2369V13.231Z" fill="#ACA9A9"/>
<path d="M84.4174 15.2214C84.4174 13.2729 84.3943 11.3244 84.429 9.37587C84.4406 8.80208 84.2553 8.62874 83.7225 8.66461C83.1491 8.70644 82.5642 8.66461 81.9909 8.67656C81.6087 8.68851 81.4465 8.55702 81.4697 8.14461C81.4986 7.6007 81.4929 7.05081 81.4697 6.5069C81.4523 6.1184 81.6203 6.01679 81.962 6.02874C82.5874 6.04667 83.2129 6.01081 83.8325 6.0407C84.2727 6.06461 84.4406 5.92713 84.429 5.443C84.4001 4.3492 84.4348 3.25541 84.4116 2.16162C84.4001 1.76116 84.5101 1.55196 84.8981 1.45633C86.0853 1.16943 87.2783 0.87656 88.4539 0.53587C88.8941 0.410353 88.9578 0.53587 88.9578 0.942307C88.9404 2.43656 88.9693 3.93679 88.9404 5.43104C88.9346 5.88529 89.0504 6.05265 89.5137 6.03472C90.4809 5.99886 91.4538 6.04667 92.4267 6.01679C92.8958 5.99886 93.0348 6.17219 93 6.62644C92.9653 7.09863 92.9595 7.57679 93 8.04897C93.0464 8.57495 92.8205 8.68254 92.3572 8.67058C91.3901 8.6407 90.4172 8.67656 89.4442 8.65265C89.0446 8.6407 88.9346 8.79012 88.9346 9.1846C88.9462 13.1055 88.923 17.0264 88.952 20.9474C88.9635 22.5552 90.2492 23.5653 92.0213 23.4577C92.6661 23.4179 92.9885 23.7386 92.9885 24.42C92.9885 26.0936 92.9885 26.1055 91.3495 26.3028C90.1913 26.4402 89.0388 26.3327 87.9269 25.9681C85.7089 25.2329 84.429 23.4039 84.4174 20.9772C84.4058 19.0527 84.4174 17.1281 84.4174 15.2035V15.2214Z" fill="#B9B9B9"/>
<path d="M95.5191 16.4229C95.5191 13.5001 95.5307 10.5714 95.5076 7.64861C95.5076 7.12861 95.6755 6.90746 96.1388 6.73413C99.3877 5.55665 102.747 5.47895 106.129 5.59849C106.494 5.61045 106.633 5.70608 106.482 6.11252C106.221 6.82378 105.984 7.54102 105.787 8.27022C105.683 8.65275 105.509 8.65872 105.185 8.59895C103.696 8.31803 102.208 8.27619 100.714 8.63481C100.204 8.75435 100.025 8.99941 100.031 9.56125C100.054 14.7672 100.031 19.9732 100.059 25.1792C100.059 25.8247 99.8857 25.9861 99.2834 25.9562C98.2468 25.9024 97.2044 25.9144 96.162 25.9562C95.635 25.9741 95.496 25.7948 95.5018 25.2629C95.5249 22.3162 95.5133 19.3695 95.5133 16.4169L95.5191 16.4229Z" fill="#B9B9B9"/>
<path d="M21.0381 16.0462C21.0381 19.1124 21.0207 22.1786 21.0497 25.2448C21.0555 25.8544 20.876 26.0039 20.3142 25.98C19.2544 25.9321 18.1888 25.9381 17.1232 25.98C16.5847 26.0039 16.4283 25.8485 16.4283 25.2806C16.4515 21.0728 16.4399 16.865 16.4399 12.6572C16.4399 10.6609 16.463 8.66455 16.4283 6.66823C16.4167 6.11237 16.5847 5.99283 17.0885 6.01674C18.1251 6.05858 19.1733 6.07053 20.21 6.01674C20.8586 5.98087 21.0671 6.13628 21.0555 6.85352C21.0092 9.91972 21.0381 12.9859 21.0381 16.0521V16.0462Z" fill="#ACA9A9"/>
<path d="M18.7622 0.595523C19.3413 0.595523 19.9205 0.619432 20.4938 0.589546C20.8934 0.565638 21.0961 0.655294 21.044 1.12748C20.9629 1.89851 21.3625 2.9146 20.8818 3.38081C20.4996 3.75736 19.5209 3.49437 18.8085 3.50035C18.1599 3.50633 17.5171 3.4884 16.8685 3.50633C16.5384 3.51828 16.4226 3.4107 16.4341 3.06403C16.4573 2.40058 16.4573 1.73116 16.4341 1.06771C16.4168 0.70311 16.5152 0.565638 16.8916 0.583569C17.5113 0.613455 18.1368 0.589546 18.7622 0.589546V0.595523Z" fill="#ACA9A9"/>
<path d="M123.369 18.1382C123.369 16.2375 123.369 14.3308 123.369 12.4302C123.369 8.8559 121.638 6.59659 118.221 5.87935C114.81 5.16211 111.468 5.64624 108.185 6.72211C107.605 6.91337 107.524 7.14647 107.814 7.6605C108.034 8.049 108.214 8.46739 108.341 8.89774C108.486 9.38785 108.706 9.41176 109.146 9.25636C111.376 8.45544 113.657 8.09084 116.026 8.43153C118.018 8.71843 119.026 9.77038 119.113 11.7129C119.151 12.5059 118.788 12.9442 118.024 13.0279C117.682 13.0637 117.335 13.1115 116.993 13.1534C114.717 13.4283 112.464 13.7989 110.333 14.7014C108.937 15.2931 107.692 16.106 106.905 17.4688C105.069 20.6485 106.546 24.5336 110.165 25.6752C114.433 27.02 118.696 26.6196 122.906 25.2269C123.277 25.1014 123.381 24.8862 123.381 24.4918C123.363 22.3759 123.369 20.26 123.369 18.1382ZM118.586 23.5713C116.744 24.1152 114.897 24.2049 113.049 23.661C111.711 23.2665 110.767 22.4177 110.547 20.9235C110.322 19.4173 110.64 18.0784 111.816 17.0683C113.148 15.9207 114.798 15.6159 116.431 15.3111C117.132 15.1796 117.85 15.1198 118.557 15.0122C118.974 14.9465 119.13 15.0839 119.118 15.5382C119.089 16.7754 119.107 18.0127 119.107 19.2499C119.107 20.4393 119.089 21.6288 119.118 22.8182C119.13 23.2605 118.968 23.4577 118.58 23.5713H118.586Z" fill="#B9B9B9"/>
<path d="M61.4493 12.6751C60.8181 9.31 59.0981 6.89529 55.7566 5.93896C54.3782 5.54448 52.971 5.47873 51.5637 5.60425C47.8457 5.93896 45.0775 7.72609 43.7282 11.4079C42.7147 14.1813 42.7031 17.0323 43.5313 19.8654C44.3189 22.561 46.0157 24.4378 48.5233 25.5137C50.1391 26.207 51.8475 26.4879 53.2895 26.4341C55.9303 26.4341 58.1947 26.0934 60.3895 25.2567C60.8355 25.0893 60.9339 24.8801 60.7254 24.4378C60.4648 23.882 60.2332 23.3082 60.0421 22.7284C59.9089 22.3339 59.7351 22.316 59.3877 22.4534C57.465 23.2185 55.4612 23.4934 53.4111 23.4217C50.0754 23.3022 47.8457 21.276 47.4172 18.0484C47.3651 17.642 47.4345 17.4985 47.8341 17.4567C49.919 17.2176 52.0038 16.9606 54.0945 16.7036C56.4341 16.4167 58.768 16.1118 61.1077 15.8369C61.5825 15.7831 61.8084 15.6038 61.7389 15.0718C61.6289 14.2709 61.6115 13.458 61.4667 12.6691L61.4493 12.6751ZM56.7063 14.0916C54.7605 14.3606 52.8146 14.6116 50.8688 14.8626C49.7684 15.0061 48.6739 15.1495 47.5735 15.293C47.2724 15.3348 47.0234 15.3408 47.0407 14.8925C47.1045 13.0277 47.423 11.2466 48.6797 9.80011C49.6758 8.64655 50.973 8.16839 51.9459 8.15046C56.133 8.15046 57.2681 10.8999 57.326 13.6194C57.3376 14.1215 56.9669 14.0498 56.7121 14.0856L56.7063 14.0916Z" fill="#B9B9B9"/>
</g>
<defs>
<clipPath id="clip0_524_5404">
<rect width="123" height="26" fill="white" transform="translate(0.375 0.5)"/>
</clipPath>
</defs>
</svg>
