<svg width="132" height="41" viewBox="0 0 132 41" fill="none" xmlns="http://www.w3.org/2000/svg">
<g clip-path="url(#clip0_524_5414)">
<path d="M32.8587 37.6818C22.9876 43.9657 9.23481 41.2015 3.13292 30.4231C-2.77176 19.9935 1.58393 6.76894 12.8918 1.81133C23.6746 -2.91539 35.3324 2.14868 39.7939 10.7992C39.2702 10.7992 38.783 10.7876 38.2959 10.803C37.9511 10.8145 37.8818 10.5375 37.7421 10.34C34.8452 6.25458 30.9127 3.69817 25.9275 2.7772C18.6567 1.43293 11.1077 4.76922 7.27442 10.9544C0.788546 21.416 6.54042 34.8304 18.7233 37.5972C22.7642 38.5143 26.6863 38.0448 30.4386 36.3235C30.85 36.1349 31.0812 36.1657 31.3894 36.4505C31.8439 36.8725 32.3389 37.2508 32.8601 37.6831L32.8587 37.6818Z" fill="#ACA9A9"/>
<path d="M8.77778 11.0607C9.35766 11.7431 9.4739 12.3152 9.04421 13.1566C4.82565 21.3992 9.94278 31.3631 19.2132 33.0486C27.0952 34.4814 34.7173 29.3262 35.9215 21.6083C36.7626 16.2133 34.9394 11.7174 30.5954 8.2657C30.0665 7.84497 30.2206 7.45247 30.3277 6.97915C30.568 5.92222 30.5772 5.89784 31.5149 6.52636C35.77 9.37523 38.292 13.2823 38.8771 18.3207C39.8449 26.6608 34.0735 34.348 25.6585 35.9744C16.9145 37.665 8.27494 32.1328 6.35896 23.5913C5.37419 19.2019 6.19309 15.1063 8.59232 11.2954C8.63672 11.2249 8.6968 11.1633 8.77908 11.0607H8.77778Z" fill="#B9B9B9"/>
<path d="M73.7671 12.5126C73.7671 9.74327 73.7828 7.16634 73.754 4.59069C73.7488 4.05837 73.8363 3.83262 74.4449 3.88906C75.1345 3.95319 75.8359 3.91599 76.5307 3.89804C76.8324 3.89034 76.9421 3.96345 76.9408 4.28284C76.9303 8.56447 76.9303 12.8461 76.9408 17.1277C76.9408 17.4689 76.8272 17.5985 76.4915 17.5536C76.4484 17.5485 76.404 17.5536 76.3609 17.5536C75.5159 17.5408 74.5533 17.7691 73.8611 17.4446C73.195 17.1316 72.8019 16.2517 72.303 15.6116C70.66 13.5028 69.0235 11.389 67.3765 9.26482C67.1715 9.43927 67.2655 9.64193 67.2642 9.81253C67.2564 12.1765 67.2407 14.5418 67.2734 16.9058C67.2812 17.4535 67.1101 17.5998 66.5785 17.5638C65.9072 17.5202 65.2307 17.5305 64.5581 17.5613C64.1454 17.5805 64.0474 17.4317 64.0487 17.0495C64.0605 12.8102 64.0605 8.57089 64.0487 4.33159C64.0487 4.00065 64.1336 3.88521 64.4836 3.89675C65.2216 3.92112 65.9634 3.93267 66.7 3.8929C67.0957 3.8711 67.229 4.1302 67.4053 4.35596C69.4192 6.94315 71.4292 9.53291 73.4393 12.1227C73.5006 12.2022 73.5673 12.2766 73.7684 12.5139L73.7671 12.5126Z" fill="#ACA9A9"/>
<path d="M100.157 28.8875C103.584 29.9457 103.368 33.6296 101.41 35.0945C100.537 35.7473 99.5069 35.9346 98.4673 35.9603C96.3828 36.0129 94.2957 35.9731 92.2113 35.9949C91.7933 35.9988 91.7045 35.8423 91.7058 35.4703C91.7163 31.2759 91.7163 27.0828 91.7058 22.8883C91.7058 22.4753 91.843 22.3214 92.27 22.3317C94.3101 22.3778 96.3554 22.2175 98.3876 22.4509C100.34 22.6741 101.768 23.5028 102.029 25.6256C102.208 27.0802 101.644 28.2013 100.157 28.8862V28.8875ZM96.5683 33.3372C97.3206 33.3077 98.0441 33.409 98.7324 33.1499C99.324 32.928 99.6767 32.3905 99.6114 31.7364C99.55 31.1245 99.2809 30.6563 98.6031 30.4857C97.7685 30.2767 96.9235 30.3446 96.0811 30.3369C94.8273 30.3254 94.8116 30.3344 94.8351 31.5812C94.8456 32.1455 94.5713 32.8677 94.9683 33.232C95.3301 33.5642 96.0485 33.2897 96.567 33.3372H96.5683ZM96.3515 27.8357C96.7576 27.8075 97.2566 27.8626 97.7476 27.7318C98.5169 27.5278 98.8408 27.1597 98.8395 26.4478C98.8382 25.6782 98.513 25.3049 97.7346 25.101C97.2631 24.9779 96.789 24.9907 96.3149 24.9843C94.8299 24.965 94.8299 24.9702 94.8299 26.4427C94.8299 27.3705 95.3375 27.8344 96.3528 27.8344L96.3515 27.8357Z" fill="#B9B9B9"/>
<path d="M88.0306 29.1133C88.0267 33.1115 84.9065 36.1168 80.7585 36.1156C76.6 36.1156 73.408 33.0563 73.4341 29.0672C73.4615 24.9189 76.8847 21.9726 80.9361 22.0508C84.9157 22.1278 88.0345 25.1678 88.0306 29.1133ZM84.7824 29.0736C84.7824 28.8607 84.7955 28.6477 84.7798 28.4361C84.5983 25.8861 81.9431 24.148 79.4759 24.9613C77.6579 25.5603 76.5334 27.4228 76.6823 29.5918C76.8573 32.1508 79.3375 33.9491 81.8138 33.2988C83.4359 32.8729 84.9496 31.1426 84.7811 29.0736H84.7824Z" fill="#B9B9B9"/>
<path d="M21.4831 31.6042C21.7783 31.1398 21.8475 30.6563 22.5632 30.6255C27.3878 30.4177 31.6651 26.6902 32.595 22.0353C33.7966 16.0233 29.7596 10.223 23.625 9.19297C17.7504 8.20658 12.1278 11.9469 10.9263 17.7498C10.8701 18.0205 10.7904 18.2962 10.8022 18.5669C10.8205 19.0094 10.6285 19.1877 10.204 19.3147C9.20227 19.6174 9.19574 19.6431 9.2532 18.6259C9.59278 12.5998 14.0281 7.78585 19.9616 6.81614C26.706 5.7143 33.4596 10.1383 34.6442 17.2534C35.7335 23.7887 31.1362 30.1637 24.4439 31.4041C23.4866 31.5811 22.5345 31.7029 21.4805 31.6042H21.4831Z" fill="#B9B9B9"/>
<path d="M131.488 10.6783C131.488 12.7653 131.471 14.8522 131.501 16.9391C131.509 17.4548 131.347 17.6074 130.838 17.5753C130.21 17.5356 129.576 17.5394 128.948 17.5741C128.449 17.601 128.317 17.4073 128.326 16.9417C128.352 15.5577 128.32 14.1736 128.345 12.7896C128.352 12.3574 128.248 12.197 127.774 12.206C126.318 12.2355 124.861 12.2291 123.405 12.2086C123.005 12.2034 122.883 12.324 122.889 12.7152C122.91 14.1416 122.881 15.5692 122.907 16.9956C122.915 17.4458 122.768 17.5946 122.313 17.5741C121.641 17.542 120.965 17.551 120.293 17.5715C119.881 17.5843 119.718 17.4535 119.719 17.0251C119.732 12.8089 119.732 8.59137 119.719 4.37516C119.719 3.96726 119.871 3.86849 120.252 3.88132C120.969 3.90441 121.688 3.90954 122.403 3.88004C122.823 3.86336 122.91 4.03268 122.906 4.40338C122.89 5.91567 122.921 7.42797 122.888 8.93898C122.877 9.43281 123.038 9.54569 123.516 9.53543C124.907 9.50464 126.298 9.50593 127.689 9.53543C128.181 9.54569 128.367 9.43923 128.352 8.91076C128.313 7.44207 128.355 5.97211 128.329 4.50343C128.321 4.05192 128.411 3.84284 128.93 3.87747C129.601 3.92237 130.278 3.91082 130.95 3.88004C131.379 3.85951 131.503 4.00061 131.5 4.41877C131.48 6.50571 131.491 8.59265 131.491 10.6796L131.488 10.6783Z" fill="#B9B9B9"/>
<path d="M92.317 10.6591C92.317 8.61575 92.3301 6.57114 92.3066 4.52781C92.3014 4.05322 92.3954 3.86851 92.9387 3.87364C95.8721 3.90186 98.8055 3.89801 101.739 3.8762C102.248 3.87236 102.436 4.00063 102.393 4.5137C102.348 5.06398 102.358 5.62195 102.391 6.17351C102.417 6.60834 102.235 6.71224 101.824 6.70839C99.934 6.69172 98.0428 6.71993 96.1529 6.68915C95.624 6.68017 95.4033 6.80074 95.4594 7.35102C95.5077 7.83588 95.4973 8.331 95.4607 8.81842C95.4268 9.26095 95.5691 9.40076 96.0341 9.39307C97.7071 9.36613 99.3802 9.39691 101.053 9.37254C101.504 9.36613 101.675 9.4867 101.642 9.94206C101.604 10.4718 101.608 11.008 101.642 11.5377C101.67 11.9726 101.488 12.079 101.074 12.0752C99.4233 12.0572 97.7711 12.0854 96.1203 12.0572C95.624 12.0495 95.4085 12.1624 95.4594 12.687C95.5064 13.1719 95.509 13.6696 95.4594 14.1544C95.4033 14.6932 95.6423 14.7791 96.1255 14.7727C98.0585 14.7496 99.9927 14.7765 101.927 14.7534C102.402 14.747 102.594 14.8625 102.558 15.355C102.516 15.9271 102.533 16.5043 102.554 17.079C102.566 17.4304 102.449 17.5702 102.073 17.569C98.9884 17.5587 95.9022 17.5548 92.8173 17.5728C92.3288 17.5754 92.3131 17.3394 92.3144 16.9802C92.3236 14.8727 92.3197 12.7653 92.3197 10.6565L92.317 10.6591Z" fill="#B9B9B9"/>
<path d="M104.53 35.9871C105.325 34.1849 106.066 32.5097 106.805 30.8358C107.967 28.1999 109.139 25.5691 110.28 22.9255C110.47 22.4881 110.705 22.2854 111.199 22.3341C111.972 22.4098 112.912 22.0404 113.482 22.4868C114.011 22.9011 114.178 23.772 114.478 24.4531C116.081 28.0832 117.675 31.717 119.274 35.3483C119.555 35.9871 119.56 35.9871 118.836 35.9884C118.163 35.9897 117.486 35.9576 116.816 36C116.342 36.0295 116.12 35.855 115.963 35.4304C115.72 34.7711 115.398 34.1413 115.131 33.4897C115.002 33.1729 114.822 33.0356 114.453 33.0408C112.846 33.06 111.236 33.06 109.627 33.0408C109.257 33.0356 109.08 33.1767 108.952 33.4923C108.671 34.1837 108.366 34.8648 108.069 35.5497C107.966 35.7896 107.869 36.0012 107.525 35.9948C106.571 35.9756 105.617 35.9884 104.533 35.9884L104.53 35.9871ZM113.727 30.3292C113.175 29.0721 112.647 27.8677 112.049 26.5067C111.443 27.8792 110.914 29.076 110.36 30.3292H113.727Z" fill="#B9B9B9"/>
<path d="M58.4171 31.499C58.4171 32.0313 58.3792 32.5675 58.4275 33.096C58.4824 33.6847 58.2708 34.0888 57.8163 34.471C54.721 37.0736 48.0326 37.0338 45.9639 31.7633C45.0209 29.3595 45.2599 26.9621 46.9003 24.8688C48.6478 22.6407 51.0092 21.7813 53.8537 22.1495C55.2042 22.3239 56.3875 22.8473 57.4715 23.6335C57.8059 23.876 57.9182 24.0825 57.6113 24.4481C57.2403 24.8906 56.9008 25.3665 56.6082 25.8616C56.3614 26.2785 56.1759 26.2413 55.8194 25.9693C53.7453 24.3929 51.2913 24.552 49.6796 26.3208C48.2599 27.8793 48.1619 31.6927 50.9556 32.9792C52.2734 33.586 53.6147 33.4231 54.9365 32.919C55.2421 32.8022 55.2747 32.5829 55.2708 32.3084C55.2604 31.372 55.2826 30.4344 55.2604 29.498C55.2512 29.1106 55.3792 28.9683 55.7802 28.9824C56.4972 29.0067 57.2155 29.0029 57.9312 28.9824C58.2956 28.9721 58.4341 29.0888 58.421 29.457C58.3975 30.1381 58.4145 30.8192 58.4145 31.5016L58.4171 31.499Z" fill="#B9B9B9"/>
<path d="M104.429 10.7053C104.312 6.47501 107.922 3.689 111.208 3.59152C113.51 3.52353 115.464 4.16744 117.114 5.74387C117.443 6.05942 117.439 6.26465 117.123 6.56993C116.738 6.94319 116.356 7.33185 116.047 7.7654C115.684 8.27463 115.446 8.29002 114.986 7.82184C113.719 6.53145 111.72 6.17101 110.115 6.8906C108.624 7.55888 107.791 8.67996 107.713 10.318C107.629 12.0573 108.191 13.4901 109.817 14.3212C111.335 15.0973 112.846 14.8805 114.264 13.9967C114.536 13.8274 114.798 13.617 115.002 13.3746C115.274 13.0501 115.468 13.018 115.761 13.3528C116.17 13.821 116.61 14.2648 117.06 14.6958C117.341 14.9639 117.325 15.1499 117.059 15.4321C115.025 17.5793 111.771 18.2809 108.843 17.1804C106.126 16.1593 104.44 13.6863 104.428 10.7053H104.429Z" fill="#B9B9B9"/>
<path d="M45.5001 10.7375C45.5001 8.63004 45.5132 6.52129 45.4897 4.41383C45.4844 3.9931 45.6033 3.89177 46.0251 3.89434C48.8501 3.91358 51.6751 3.91358 54.4988 3.89434C54.9181 3.89177 55.0735 3.98797 55.0317 4.41383C54.9612 5.12572 55.3386 6.08646 54.8867 6.48666C54.4884 6.8394 53.5258 6.58543 52.8114 6.58799C51.5733 6.59312 50.3338 6.60082 49.0957 6.58158C48.747 6.57645 48.5968 6.64187 48.6164 7.02539C48.649 7.68341 48.6503 8.34656 48.6164 9.00458C48.5955 9.40992 48.7378 9.50099 49.1309 9.49586C50.7818 9.47405 52.434 9.50355 54.0848 9.47662C54.5694 9.46892 54.7992 9.55614 54.747 10.0949C54.6947 10.6439 54.7143 11.2018 54.7431 11.7547C54.7627 12.1292 54.6151 12.2164 54.2559 12.2139C52.5606 12.1985 50.8654 12.2254 49.1714 12.1946C48.6973 12.1857 48.6059 12.3306 48.6151 12.7629C48.6438 14.1456 48.5981 15.5309 48.6399 16.9137C48.6568 17.4614 48.4753 17.6025 47.9477 17.5653C47.2986 17.5204 46.6429 17.5281 45.9938 17.5653C45.5772 17.5884 45.491 17.4447 45.4936 17.0625C45.5119 14.955 45.5027 12.8475 45.5027 10.7388L45.5001 10.7375Z" fill="#ACA9A9"/>
<path d="M83.0545 12.0035C83.0545 10.3655 83.0428 8.72621 83.0637 7.08821C83.0689 6.69571 82.954 6.57257 82.5517 6.58411C81.597 6.61105 80.6409 6.5777 79.6862 6.59951C79.28 6.60849 79.088 6.51357 79.1142 6.07232C79.1481 5.50024 79.1403 4.92303 79.1155 4.34966C79.0998 3.98153 79.2448 3.8802 79.6052 3.88148C82.9487 3.89174 86.2936 3.89431 89.6371 3.87892C90.0498 3.87763 90.1712 4.01616 90.1373 4.39456C90.0746 5.10645 90.439 6.01973 89.9792 6.47893C89.5783 6.87785 88.6575 6.55974 87.9679 6.59309C87.4089 6.62131 86.6919 6.36606 86.3314 6.69571C85.9644 7.03177 86.2152 7.74239 86.2126 8.28625C86.1995 11.1159 86.1838 13.9455 86.2243 16.7751C86.2335 17.446 86.0167 17.6371 85.3741 17.5755C84.8791 17.5281 84.3723 17.5281 83.8774 17.5755C83.2452 17.6371 83.0088 17.4742 83.0349 16.7892C83.095 15.1961 83.0545 13.5979 83.0545 12.0022V12.0035Z" fill="#B9B9B9"/>
<path d="M62.2294 29.1568C62.2294 27.0916 62.2411 25.0252 62.2202 22.9601C62.215 22.4932 62.3535 22.3046 62.8484 22.3316C63.4767 22.3662 64.1101 22.3701 64.7383 22.3303C65.2372 22.2995 65.36 22.4765 65.3561 22.9473C65.3365 26.1206 65.36 29.294 65.3326 32.4661C65.3273 33.0421 65.4684 33.2357 66.0835 33.2178C67.626 33.1742 69.1698 33.2178 70.7122 33.1947C71.1732 33.1883 71.3287 33.3473 71.3078 33.7886C71.279 34.3838 71.2908 34.9815 71.3039 35.5767C71.3104 35.8742 71.202 35.991 70.8885 35.9897C68.1497 35.982 65.4109 35.9769 62.6734 35.9935C62.1915 35.9961 62.2281 35.7242 62.2281 35.415C62.2307 33.3281 62.2294 31.2412 62.2294 29.1542V29.1568Z" fill="#B9B9B9"/>
<path d="M122.22 29.1889C122.22 27.125 122.234 25.0611 122.211 22.9973C122.206 22.5086 122.33 22.2969 122.864 22.3316C123.491 22.3713 124.126 22.3713 124.753 22.3316C125.258 22.2982 125.368 22.4893 125.365 22.9537C125.347 26.1245 125.369 29.2953 125.343 32.4649C125.338 33.0318 125.466 33.2396 126.089 33.2204C127.608 33.1742 129.129 33.2204 130.648 33.196C131.108 33.1883 131.26 33.3358 131.234 33.7783C131.201 34.3299 131.196 34.8866 131.234 35.4368C131.266 35.905 131.073 36 130.635 35.9974C128.03 35.9794 125.423 35.9756 122.817 36C122.312 36.0051 122.205 35.8422 122.21 35.3804C122.234 33.3166 122.22 31.2527 122.22 29.1889Z" fill="#B9B9B9"/>
<path d="M57.5903 10.6129C57.5903 8.55037 57.6007 6.48652 57.5811 4.42395C57.5772 4.0199 57.666 3.86982 58.1074 3.89291C58.8219 3.93139 59.5402 3.9237 60.2559 3.89548C60.6425 3.88008 60.7692 3.96602 60.7679 4.37777C60.7509 8.58885 60.7496 12.7999 60.7679 17.011C60.7705 17.4792 60.6138 17.5844 60.1749 17.5626C59.5036 17.5292 58.8284 17.5254 58.1571 17.5626C57.6947 17.5882 57.5759 17.4343 57.5798 16.9931C57.602 14.8663 57.5903 12.7396 57.5903 10.6129Z" fill="#ACA9A9"/>
</g>
<defs>
<clipPath id="clip0_524_5414">
<rect width="131" height="41" fill="white" transform="translate(0.5)"/>
</clipPath>
</defs>
</svg>
