<svg width="39" height="53" viewBox="0 0 39 53" fill="none" xmlns="http://www.w3.org/2000/svg">
<path d="M19.1246 38.0865C12.9607 38.0865 6.79526 38.0832 0.631402 38.0946C0.248383 38.0946 0.135254 38.0037 0.135254 37.608C0.146567 25.2277 0.146567 12.8458 0.135254 0.465437C0.135254 0.0827077 0.248382 0 0.610392 0C12.9527 0.00810868 25.2949 0.00810868 37.6388 0C37.9992 0 38.114 0.0827077 38.114 0.465437C38.1043 12.8458 38.1026 25.2277 38.114 37.608C38.114 38.0037 38.0008 38.0962 37.6178 38.0962C31.4539 38.0848 25.2885 38.0881 19.1246 38.0881V38.0865ZM10.7289 5.23334C10.7289 5.24307 10.7289 5.2528 10.7289 5.26253C8.76369 5.26253 6.7985 5.26253 4.8333 5.26578C4.71371 5.26578 4.55695 5.18955 4.47937 5.3647C4.32261 5.71986 4.51816 6.04259 4.90118 6.05556C4.96905 6.05718 5.03532 6.06205 5.10319 6.06529C6.49952 6.1334 6.73224 6.37342 6.73224 7.75838C6.73224 11.863 6.73224 15.9676 6.73224 20.0722C6.73224 20.3155 6.71931 20.5587 6.70153 20.8004C6.66597 21.2674 6.43649 21.5237 5.99205 21.6648C5.58641 21.7945 5.17107 21.8172 4.75573 21.7848C4.41473 21.7588 4.46806 21.981 4.47614 22.1756C4.4826 22.3702 4.38402 22.6102 4.75896 22.6086C7.27687 22.5973 9.79316 22.5956 12.3111 22.6086C12.644 22.6102 12.6149 22.4254 12.6003 22.2226C12.5874 22.0361 12.7151 21.7572 12.3288 21.788C11.8844 21.8221 11.4481 21.7523 11.0085 21.6729C10.3119 21.5448 9.99679 21.2528 9.99194 20.5522C9.97578 18.5137 9.98548 16.4752 9.98063 14.4351C9.98063 14.2356 10.0275 14.1399 10.2505 14.1448C11.259 14.1675 12.269 14.1496 13.2759 14.2064C13.7526 14.234 14.1567 14.4561 14.3409 14.9816C14.4492 15.2946 14.4961 15.6124 14.5171 15.9271C14.5397 16.2514 14.6803 16.2822 14.9486 16.2871C15.2766 16.292 15.2411 16.0892 15.2411 15.8881C15.2411 14.4026 15.2411 12.9171 15.2411 11.4316C15.2411 11.2419 15.3138 11.0148 14.9696 11.0229C14.6997 11.0294 14.4977 11.031 14.5203 11.3943C14.5332 11.5922 14.4718 11.7949 14.4395 11.9944C14.3264 12.682 13.8835 13.1036 13.1886 13.1263C12.2206 13.1588 11.2509 13.1523 10.2828 13.175C10.055 13.1798 9.98063 13.1052 9.98224 12.875C9.98871 10.7278 9.98871 8.5806 9.98224 6.43342C9.98224 6.22909 10.0372 6.13989 10.2554 6.15124C11.7018 6.21935 13.1563 6.01826 14.5995 6.30855C15.435 6.47721 16.0491 6.89886 16.3918 7.68865C16.6051 8.18165 16.7602 8.69088 16.8087 9.23092C16.8378 9.55202 16.8927 9.8715 16.9332 10.1926C16.9736 10.5088 17.1933 10.5024 17.4374 10.5056C17.7299 10.5105 17.7186 10.3207 17.7202 10.1277C17.7202 9.60067 17.7202 9.07523 17.7202 8.54817C17.7202 7.5362 17.7089 6.52262 17.7267 5.51066C17.7331 5.17658 17.6249 5.08252 17.3081 5.14415C17.0592 5.1928 16.8022 5.22685 16.5501 5.22685C14.6124 5.23334 12.6747 5.2301 10.7354 5.2301L10.7289 5.23334ZM28.8278 13.5042C28.8278 11.1819 28.8278 8.85954 28.8261 6.53722C28.8261 6.32153 28.8084 6.13989 29.1235 6.14962C30.0479 6.17719 30.9788 6.09448 31.8919 6.32639C32.7808 6.55181 33.3723 7.09996 33.6583 7.96596C33.891 8.6698 34.051 9.39147 34.0785 10.1358C34.0898 10.4764 34.2983 10.5072 34.5714 10.5088C34.8817 10.5105 34.8736 10.3207 34.8736 10.1067C34.872 8.55465 34.8672 7.00103 34.8785 5.44903C34.8801 5.16523 34.7815 5.09063 34.5229 5.14415C33.9395 5.2674 33.3464 5.26091 32.7549 5.26091C29.054 5.26415 25.3515 5.26578 21.6506 5.26091C21.0866 5.26091 20.5209 5.2674 19.9634 5.14577C19.666 5.0809 19.5593 5.19118 19.561 5.50417C19.5739 7.03022 19.569 8.55628 19.5642 10.0807C19.5642 10.3256 19.5981 10.4975 19.9036 10.5105C20.1929 10.5218 20.3351 10.4553 20.3722 10.1294C20.4563 9.38174 20.5516 8.6325 20.8134 7.91894C21.1399 7.0286 21.7605 6.51127 22.6946 6.30369C23.4833 6.13016 24.2719 6.1707 25.0622 6.15773C25.6165 6.148 25.6165 6.15773 25.6165 6.69452C25.6165 11.19 25.6165 15.687 25.6165 20.1825C25.6165 20.3171 25.6198 20.4533 25.6036 20.5863C25.5212 21.261 25.2303 21.5269 24.5628 21.6794C24.0958 21.7864 23.632 21.7977 23.1633 21.7896C22.7964 21.7831 22.9419 22.054 22.9322 22.2194C22.9225 22.3848 22.8368 22.6216 23.1681 22.607C23.5172 22.5924 23.8679 22.6038 24.2186 22.6038C26.5199 22.6038 28.8229 22.5956 31.1243 22.6119C31.4701 22.6135 31.475 22.4513 31.4798 22.1935C31.4847 21.9242 31.4572 21.7572 31.1178 21.7848C30.717 21.8188 30.3178 21.7491 29.917 21.6907C29.193 21.5869 28.8278 21.1393 28.8294 20.3479C28.8326 18.0661 28.8294 15.7844 28.8294 13.5026L28.8278 13.5042Z" fill="#B9B9B9"/>
<path d="M10.4348 51.252C10.7693 50.2547 11.0925 49.3222 11.3947 48.3815C11.4707 48.1464 11.5887 48.0621 11.8295 48.0718C12.206 48.088 12.5826 48.0767 12.9591 48.0767C13.0577 48.0767 13.1628 48.0815 13.166 48.2113C13.1692 48.3264 13.0658 48.3183 12.9898 48.3248C12.6456 48.3588 12.5583 48.5567 12.5971 48.8778C12.7345 50.026 12.8606 51.1742 12.9882 52.324C13.0157 52.5737 13.1628 52.6629 13.3939 52.6678C13.486 52.6694 13.6007 52.6775 13.5781 52.817C13.5619 52.9192 13.4617 52.9192 13.3858 52.9192C12.8201 52.9224 12.2561 52.9208 11.6905 52.9192C11.6064 52.9192 11.5289 52.9078 11.5305 52.7927C11.5321 52.6808 11.6032 52.6646 11.6921 52.6662C11.9798 52.671 12.067 52.4959 12.0412 52.2478C11.9313 51.1774 11.8149 50.1071 11.6986 49.0367C11.6921 48.9751 11.7002 48.8989 11.5854 48.8681C11.1232 50.2222 10.6626 51.578 10.2004 52.9338C10.1681 52.9402 10.1342 52.9451 10.1018 52.9516C9.57499 51.6429 9.23076 50.2692 8.74269 48.9427C8.57946 49.0205 8.59239 49.1697 8.57946 49.2978C8.48573 50.2611 8.39523 51.2261 8.30472 52.191C8.27563 52.5105 8.41624 52.6743 8.74431 52.6662C8.83481 52.6646 8.94471 52.6516 8.94632 52.7943C8.94794 52.9435 8.83158 52.9175 8.74431 52.9192C8.34028 52.9224 7.93787 52.9224 7.53384 52.9192C7.44495 52.9192 7.33344 52.9354 7.33829 52.7878C7.34152 52.6743 7.42232 52.6646 7.50636 52.6662C7.82474 52.6727 7.91362 52.4667 7.9411 52.2024C8.05423 51.1044 8.16251 50.0065 8.28372 48.9102C8.31927 48.5859 8.27402 48.3459 7.88777 48.3215C7.81989 48.3167 7.74716 48.3118 7.74716 48.2194C7.74716 48.1204 7.80373 48.0767 7.90069 48.0767C8.35806 48.0767 8.81542 48.0831 9.27278 48.0734C9.47964 48.0686 9.46994 48.2453 9.50388 48.3475C9.75923 49.1227 10.0049 49.9011 10.2327 50.6844C10.2812 50.8531 10.3491 51.0088 10.4396 51.2504L10.4348 51.252Z" fill="#B9B9B9"/>
<path d="M7.74556 41.6772C7.74556 42.7378 7.74071 43.7968 7.75041 44.8574C7.75202 45.0553 7.90071 45.1607 8.08979 45.198C8.22716 45.2239 8.38554 45.2093 8.50029 45.4623C7.90879 45.4623 7.36577 45.4623 6.82276 45.4623C6.76781 45.4623 6.71286 45.451 6.70478 45.3845C6.69347 45.2969 6.7565 45.2612 6.82599 45.2596C7.41749 45.2418 7.40294 44.8217 7.40133 44.4017C7.39809 43.4303 7.39001 42.4572 7.40456 41.4858C7.40941 41.1372 7.2882 40.9458 6.93427 40.9263C6.82599 40.9198 6.6967 40.9263 6.70155 40.7723C6.7064 40.6101 6.84538 40.6425 6.94558 40.6425C7.30921 40.6393 7.67283 40.6539 8.03484 40.636C8.28211 40.6247 8.39524 40.795 8.51321 40.9474C9.17582 41.8004 9.83035 42.66 10.4849 43.5179C10.5414 43.5925 10.6028 43.6492 10.7386 43.6849C10.7386 42.874 10.7467 42.0842 10.7338 41.2945C10.7289 41.0253 10.5156 40.9507 10.2845 40.9247C10.1794 40.9134 10.0404 40.9117 10.0582 40.7625C10.076 40.6214 10.215 40.6409 10.32 40.6393C10.737 40.6377 11.1539 40.6393 11.5709 40.6393C11.6646 40.6393 11.7745 40.6279 11.7842 40.7625C11.7923 40.8858 11.7018 40.9215 11.5984 40.9215C11.1523 40.9215 11.0828 41.2053 11.0845 41.5702C11.0909 42.7848 11.0877 43.9995 11.0845 45.2142C11.0845 45.3131 11.1459 45.4526 11.015 45.5012C10.8663 45.5564 10.855 45.3812 10.7984 45.3115C9.84812 44.1455 8.90755 42.973 7.96212 41.8004C7.92172 41.7502 7.87647 41.7015 7.83445 41.6529C7.80536 41.661 7.77465 41.6691 7.74556 41.6756V41.6772Z" fill="#B9B9B9"/>
<path d="M21.1575 45.5842C20.4642 44.7214 19.7999 43.8911 19.1309 43.064C18.8044 42.6602 18.4715 42.2597 18.137 41.8623C18.0933 41.8104 18.0772 41.6937 17.9689 41.7326C17.8978 41.7585 17.8816 41.8348 17.8816 41.9012C17.8897 42.8581 17.8396 43.8149 17.9059 44.7701C17.9269 45.0653 18.103 45.1869 18.3713 45.2307C18.4537 45.2436 18.5927 45.2307 18.5895 45.3588C18.5862 45.4934 18.4553 45.4593 18.3681 45.461C17.9511 45.4642 17.5341 45.4626 17.1172 45.461C17.0412 45.461 16.9378 45.4853 16.9233 45.3734C16.9103 45.268 17.0073 45.242 17.0865 45.2339C17.518 45.1885 17.5681 44.8998 17.5648 44.5414C17.5552 43.5441 17.5422 42.5451 17.5697 41.5477C17.581 41.1325 17.4226 40.9477 17.0315 40.9217C16.9152 40.9136 16.76 40.9363 16.7843 40.7482C16.8053 40.5909 16.9491 40.6541 17.0461 40.6379C17.0719 40.6347 17.0994 40.6379 17.1269 40.6379C18.0287 40.626 18.8233 41.092 19.5107 42.0359C19.8727 42.5305 20.2492 43.0121 20.6242 43.497C20.6613 43.5457 20.7292 43.6041 20.7777 43.6008C20.886 43.5943 20.8698 43.4873 20.8714 43.4127C20.873 42.7121 20.8747 42.0099 20.8698 41.3093C20.8666 41.0061 20.6516 40.9412 20.4044 40.9233C20.2929 40.9152 20.1749 40.9071 20.191 40.7531C20.2056 40.6185 20.3219 40.6412 20.4124 40.6395C20.8423 40.6379 21.2722 40.6395 21.7037 40.6379C21.8039 40.6379 21.9138 40.6493 21.9284 40.7579C21.9429 40.8731 21.8314 40.9136 21.7377 40.9169C21.2738 40.9379 21.227 41.2331 21.2318 41.6142C21.2464 42.7867 21.2383 43.9609 21.235 45.135C21.235 45.2631 21.2738 45.3993 21.1591 45.5826L21.1575 45.5842Z" fill="#B9B9B9"/>
<path d="M15.7938 52.9223C15.2557 52.9223 14.7175 52.9255 14.1793 52.919C14.0759 52.919 13.9111 52.9887 13.8949 52.8006C13.8804 52.6287 14.0307 52.6725 14.1276 52.666C14.3652 52.6482 14.446 52.5087 14.446 52.2865C14.4444 51.0978 14.4411 49.9107 14.4492 48.722C14.4508 48.4609 14.3119 48.3668 14.0905 48.3295C14.0048 48.3149 13.8852 48.3376 13.9046 48.1868C13.9191 48.0749 14.0064 48.0781 14.0872 48.0781C15.1636 48.0781 16.2415 48.0781 17.3178 48.0781C17.4003 48.0781 17.5069 48.0879 17.5134 48.1803C17.5344 48.529 17.5409 48.8777 17.5425 49.2263C17.5425 49.2863 17.4746 49.3042 17.418 49.2896C17.3469 49.2701 17.3081 49.2182 17.2984 49.1436C17.2629 48.8712 17.1982 48.5695 16.9251 48.4803C16.4775 48.336 16.0007 48.3052 15.5288 48.3684C15.4124 48.3846 15.3494 48.4738 15.351 48.602C15.3526 49.0885 15.351 49.5734 15.351 50.0599C15.351 50.1604 15.3656 50.2675 15.4835 50.2723C15.8552 50.2902 16.2334 50.3761 16.589 50.1815C16.6601 50.1426 16.7231 50.1069 16.7603 50.0242C16.8039 49.9269 16.7102 49.7193 16.8928 49.7437C17.1077 49.7728 16.9995 49.9853 17.0075 50.115C17.0237 50.3842 17.014 50.6551 17.0108 50.9243C17.0108 51.0183 17.0124 51.1319 16.8879 51.1432C16.77 51.1529 16.7877 51.0394 16.7781 50.9664C16.7344 50.6372 16.5065 50.5772 16.2286 50.5643C15.3494 50.5237 15.3494 50.5205 15.3494 51.3978C15.3494 51.4659 15.3429 51.5341 15.3494 51.6005C15.3947 51.9752 15.1781 52.4876 15.7146 52.6336C16.5017 52.8477 17.1934 52.5168 17.4778 51.9314C17.5522 51.7789 17.5231 51.4416 17.7364 51.4951C17.9465 51.5486 17.814 51.8471 17.7994 52.0287C17.7299 52.9206 17.7219 52.919 16.8411 52.919C16.4904 52.919 16.1413 52.919 15.7906 52.919L15.7938 52.9223Z" fill="#B9B9B9"/>
<path d="M2.33958 45.3715C2.21837 45.5126 2.07453 45.4607 1.94847 45.4623C1.50404 45.4688 1.06123 45.4721 0.616797 45.4623C0.464882 45.4591 0.217616 45.5467 0.178829 45.3975C0.120649 45.1721 0.405085 45.2531 0.524677 45.1737C0.668512 45.0764 0.699218 44.9466 0.699218 44.7909C0.699218 43.6444 0.695985 42.4978 0.700833 41.3512C0.700833 41.0918 0.605483 40.9393 0.335592 40.9247C0.237009 40.9182 0.138426 40.8923 0.148122 40.7658C0.157819 40.6312 0.270947 40.6442 0.363066 40.6425C1.45233 40.6393 2.54159 40.6425 3.63085 40.6328C3.77145 40.6328 3.8361 40.6766 3.83771 40.8063C3.84095 41.1923 3.83771 41.5799 3.83771 42.0259C3.60661 41.8945 3.59206 41.721 3.56621 41.5604C3.50156 41.1664 3.26884 40.9896 2.87774 40.9604C1.60586 40.8647 1.60747 40.8599 1.60747 42.1605C1.60747 42.6038 1.82781 42.8238 2.26847 42.8205C2.58038 42.8189 2.91976 42.8611 2.91491 42.381C2.91491 42.2935 3.00865 42.2935 3.07006 42.2935C3.13309 42.2935 3.15248 42.3502 3.15248 42.407C3.15248 42.7978 3.15248 43.1887 3.15248 43.5811C3.15248 43.6476 3.14278 43.7222 3.04743 43.7157C2.97471 43.7109 2.92299 43.6719 2.9133 43.5925C2.89067 43.419 2.89552 43.2276 2.6628 43.1887C2.34281 43.1368 2.01959 43.1173 1.70283 43.1887C1.56384 43.2195 1.61071 43.3671 1.61071 43.4676C1.60586 43.886 1.62202 44.3044 1.60424 44.7212C1.59131 45.0212 1.71575 45.1672 2.00019 45.2207C2.11009 45.2418 2.24907 45.2207 2.33958 45.3715Z" fill="#B9B9B9"/>
<path d="M21.1948 48.0506C21.1512 48.5468 21.4066 49.0155 21.1868 49.5507C21.0138 49.2636 20.9799 48.9879 20.8102 48.7755C20.5274 48.4203 20.1605 48.2728 19.7226 48.3311C19.4462 48.3684 19.2151 48.5209 19.1391 48.8047C19.0632 49.0917 19.1133 49.3496 19.3767 49.5556C19.708 49.815 20.0991 49.9577 20.4514 50.1702C20.9169 50.4507 21.4211 50.6956 21.4938 51.3395C21.6344 52.5736 20.5048 53.1071 19.6078 52.9823C19.3864 52.9515 19.1699 52.8639 18.963 52.7731C18.8127 52.7066 18.719 52.6709 18.5864 52.8266C18.4442 52.9936 18.3553 52.8882 18.344 52.7082C18.3214 52.3595 18.3004 52.0092 18.2794 51.6606C18.2745 51.5762 18.2826 51.4919 18.386 51.4757C18.483 51.4611 18.4765 51.5503 18.4992 51.607C18.5396 51.706 18.58 51.8049 18.6204 51.9038C18.8676 52.5152 19.6385 52.8704 20.2559 52.645C20.5371 52.5412 20.7068 52.3206 20.7456 52.0206C20.7892 51.6833 20.6518 51.4011 20.3706 51.2308C19.9618 50.9827 19.5238 50.7864 19.1149 50.5383C18.6656 50.2642 18.3085 49.9042 18.3392 49.322C18.3683 48.7625 18.6592 48.3652 19.1666 48.143C19.59 47.9565 20.0442 47.9662 20.4611 48.1203C20.7294 48.2192 20.9427 48.3279 21.19 48.0522L21.1948 48.0506Z" fill="#B9B9B9"/>
<path d="M11.6144 45.4593C12.4241 45.1771 12.5259 44.4619 12.757 43.8424C13.1222 42.8661 13.494 41.8931 13.8495 40.9136C13.9158 40.7303 13.9739 40.6071 14.1986 40.6022C14.4103 40.5973 14.4765 40.7238 14.5396 40.8795C15.068 42.1915 15.6014 43.5019 16.1218 44.8171C16.2026 45.0198 16.2995 45.1739 16.5161 45.2322C16.5807 45.2501 16.6502 45.2922 16.6405 45.3701C16.6292 45.4836 16.5306 45.4658 16.4531 45.4658C15.9278 45.4658 15.4042 45.4658 14.879 45.4658C14.8046 45.4658 14.6996 45.4885 14.6883 45.3766C14.6769 45.2647 14.7788 45.2598 14.8563 45.2517C15.2297 45.2193 15.2604 45.0263 15.1068 44.7344C15.0697 44.6646 15.0745 44.5722 15.0357 44.5057C14.8676 44.2187 14.887 43.7386 14.6107 43.6365C14.2422 43.5002 13.7897 43.591 13.3727 43.5878C13.321 43.5878 13.2612 43.5943 13.2192 43.6202C13.1125 43.6835 12.6988 44.9355 12.7473 45.0425C12.8378 45.242 13.0495 45.1836 13.2014 45.2501C13.2596 45.276 13.3404 45.2631 13.355 45.3506C13.3663 45.4155 13.3275 45.4577 13.2693 45.4593C12.7166 45.4625 12.1655 45.4609 11.6128 45.4609L11.6144 45.4593ZM13.9303 43.2732C14.0111 43.2732 14.0919 43.2635 14.1711 43.2732C14.5283 43.3202 14.5024 43.1256 14.4103 42.8953C14.2858 42.5856 14.1533 42.2807 14.0321 41.9709C14.0063 41.9061 13.9901 41.8379 13.9141 41.8282C13.8333 41.8185 13.8042 41.8817 13.78 41.9498C13.6523 42.3001 13.5182 42.6472 13.397 42.9975C13.334 43.1824 13.4083 43.2813 13.6103 43.2732C13.717 43.2683 13.8253 43.2732 13.9319 43.2732H13.9303Z" fill="#B9B9B9"/>
<path d="M32.0018 45.4625C32.0438 45.349 32.0438 45.3312 32.0535 45.3231C32.2071 45.1755 32.5481 45.3117 32.582 45.0652C32.6079 44.8803 32.4559 44.6695 32.3832 44.47C32.0632 43.5846 32.0632 43.6073 31.1146 43.5749C30.7041 43.5603 30.4568 43.6527 30.3922 44.0857C30.3712 44.2284 30.3017 44.363 30.258 44.5041C30.1514 44.8587 30.2672 45.1101 30.6055 45.2582C30.6653 45.2842 30.7429 45.2923 30.7235 45.3847C30.7089 45.4496 30.6491 45.4577 30.5958 45.4577C30.1045 45.4593 29.6132 45.4577 29.1219 45.4577C29.1219 45.3701 29.1171 45.3231 29.1219 45.3231C29.8249 45.1658 29.8718 44.5187 30.0738 44.0079C30.4649 43.0137 30.8107 42.0018 31.197 41.006C31.2616 40.8374 31.2778 40.5698 31.5962 40.6006C31.8822 40.6282 31.8968 40.8438 31.9743 41.0368C32.485 42.3131 33.0038 43.5846 33.5145 44.8609C33.5969 45.0652 33.7214 45.1933 33.9379 45.2371C34.0026 45.2501 34.0591 45.3004 34.043 45.3831C34.03 45.4496 33.9751 45.4593 33.9202 45.4593C33.2947 45.4593 32.6709 45.4593 32.0002 45.4593L32.0018 45.4625ZM31.2536 41.7309C31.0806 42.1883 30.932 42.571 30.793 42.9586C30.7639 43.0413 30.6976 43.1759 30.7994 43.2148C31.1065 43.33 31.4297 43.2813 31.7465 43.2456C31.8402 43.2359 31.8515 43.1354 31.8241 43.051C31.6786 42.6132 31.5445 42.1688 31.2536 41.7309Z" fill="#B9B9B9"/>
<path d="M4.48907 49.5735C4.24181 49.4032 4.24666 49.2215 4.21434 49.0577C4.11252 48.5534 3.36103 48.1609 2.89235 48.362C2.75983 48.4188 2.77115 48.5274 2.77115 48.6312C2.77115 49.8329 2.76791 51.0346 2.77115 52.2363C2.77115 52.5623 2.96831 52.6791 3.27376 52.6693C3.36911 52.6661 3.51617 52.6272 3.51779 52.7942C3.51779 52.9694 3.36588 52.9158 3.27537 52.9175C2.64347 52.924 2.00995 52.9223 1.37805 52.9191C1.29078 52.9191 1.16958 52.9499 1.15988 52.8088C1.14695 52.6369 1.28594 52.6629 1.38613 52.6661C1.7336 52.6775 1.85804 52.5088 1.85481 52.1699C1.84511 51.0087 1.84511 49.8475 1.85481 48.6864C1.85804 48.4253 1.78208 48.3215 1.51219 48.3458C0.605551 48.4269 0.537675 48.4999 0.364751 49.2734C0.343742 49.3642 0.379294 49.528 0.20637 49.4907C0.0851613 49.4648 0.135261 49.3351 0.135261 49.2507C0.135261 48.9264 0.149806 48.602 0.143342 48.2793C0.138493 48.0944 0.217684 48.0571 0.384144 48.0571C1.67542 48.062 2.96831 48.0604 4.25959 48.0604C4.34847 48.0604 4.47938 48.0328 4.48261 48.1658C4.49392 48.6118 4.48746 49.0577 4.48746 49.5735H4.48907Z" fill="#B9B9B9"/>
<path d="M26.1838 41.6547C26.179 41.7309 26.3099 42.0472 26.1224 42.0877C25.8574 42.1445 25.9333 41.7942 25.8655 41.6304C25.4937 40.7238 24.2413 40.586 23.577 41.3823C22.7738 42.3472 23.0259 44.4279 24.3641 44.9614C24.9394 45.1917 25.484 45.1528 25.9883 44.7798C26.0836 44.7101 26.1774 44.5657 26.2808 44.676C26.4052 44.809 26.2436 44.9339 26.158 45.0068C25.6069 45.4772 24.9604 45.6523 24.251 45.5404C23.2926 45.388 22.4716 44.6193 22.2615 43.8376C21.9141 42.5386 22.5443 41.4196 23.3152 40.9558C24.0102 40.5373 24.7455 40.4579 25.5083 40.7498C25.5939 40.7822 25.6812 40.8779 25.7669 40.8357C26.3503 40.5406 26.1208 41.0466 26.179 41.2574C26.2032 41.345 26.1822 41.4455 26.1822 41.658L26.1838 41.6547Z" fill="#B9B9B9"/>
<path d="M34.3402 45.3635C34.7485 45.131 34.9527 44.7515 34.9527 44.225C34.9527 43.3071 34.9463 42.3908 34.956 41.4729C34.9592 41.1664 34.9042 40.9394 34.5422 40.9086C34.4663 40.9021 34.3273 40.8907 34.3515 40.7561C34.3725 40.6393 34.4905 40.6442 34.5826 40.6442C35.1208 40.641 35.659 40.6426 36.1971 40.6442C36.2876 40.6442 36.3991 40.6264 36.4105 40.7642C36.4202 40.8923 36.328 40.9215 36.2278 40.9248C35.9224 40.9361 35.861 41.1194 35.8626 41.387C35.8707 42.493 35.8739 43.599 35.861 44.705C35.8561 45.0699 35.9919 45.2045 36.3571 45.2061C37.3898 45.211 37.5143 45.1397 37.9231 44.1634C37.949 44.1017 37.9781 44.0385 38.1155 44.0109C38.1445 44.452 38.1025 44.8818 38.0476 45.3083C38.033 45.4202 37.9506 45.4656 37.8456 45.464C36.69 45.4445 35.5345 45.5143 34.3806 45.4267C34.3725 45.4267 34.3661 45.4056 34.3418 45.3635H34.3402Z" fill="#B9B9B9"/>
<path d="M28.7857 45.3621C28.7647 45.4756 28.6677 45.4594 28.5966 45.461C28.0455 45.4659 27.4928 45.4659 26.9417 45.4642C26.869 45.4642 26.7655 45.4967 26.7413 45.388C26.7154 45.2696 26.8189 45.2648 26.8948 45.2534C27.2633 45.2048 27.3247 44.9534 27.3215 44.6388C27.315 43.6122 27.315 42.5873 27.3215 41.5607C27.3231 41.2283 27.3005 40.9299 26.8722 40.8926C26.7882 40.8861 26.7106 40.8537 26.7332 40.7418C26.751 40.659 26.8156 40.6428 26.8868 40.6428C27.4653 40.6428 28.0439 40.6428 28.6225 40.6477C28.7049 40.6477 28.7922 40.6785 28.7889 40.7823C28.7857 40.8682 28.7017 40.8747 28.6386 40.8828C28.2782 40.9331 28.2039 41.1618 28.2087 41.4894C28.2233 42.4202 28.2136 43.3527 28.2136 44.2836C28.2136 44.7799 28.4038 45.1388 28.7841 45.3605L28.7857 45.3621Z" fill="#B9B9B9"/>
<path d="M6.33783 45.4641C5.71077 45.4641 5.08534 45.4641 4.45828 45.4641C4.40657 45.4641 4.34677 45.4641 4.329 45.3959C4.30637 45.3084 4.36293 45.2646 4.43081 45.2565C4.85747 45.2078 4.8704 44.9127 4.86716 44.577C4.85747 43.565 4.85747 42.5514 4.86716 41.5395C4.8704 41.2167 4.84939 40.9362 4.44536 40.8891C4.37586 40.881 4.30637 40.8518 4.32092 40.7675C4.329 40.7237 4.38071 40.6524 4.41142 40.6524C5.04009 40.6589 5.67037 40.581 6.29581 40.6945C6.32328 40.6994 6.34106 40.7529 6.40732 40.8454C5.68977 40.8389 5.77542 41.3238 5.78027 41.7746C5.78835 42.5985 5.7835 43.4207 5.7835 44.2445C5.7835 44.7581 5.96774 45.1646 6.33621 45.4641H6.33783Z" fill="#B9B9B9"/>
<path d="M5.95156 52.9227C5.68329 52.9227 5.41339 52.9227 5.14512 52.9227C5.05138 52.9227 4.94634 52.9275 4.95442 52.7832C4.96088 52.6697 5.04977 52.668 5.12896 52.668C5.46673 52.6729 5.52168 52.4361 5.52329 52.1815C5.52976 51.0755 5.52652 49.9711 5.52652 48.8651C5.52652 48.578 5.44087 48.3591 5.1128 48.3267C5.02876 48.3185 4.94634 48.3023 4.9722 48.1856C4.99482 48.085 5.07563 48.0769 5.15967 48.0769C5.69783 48.0769 6.23438 48.0769 6.77255 48.0769C6.8582 48.0769 6.93739 48.085 6.95194 48.1904C6.9681 48.3056 6.88729 48.3218 6.80325 48.3299C6.49781 48.3591 6.4267 48.5391 6.42993 48.8278C6.44448 49.9468 6.43963 51.0658 6.43316 52.1848C6.43316 52.4588 6.47841 52.6713 6.81295 52.668C6.90507 52.668 6.97295 52.6989 6.9681 52.8043C6.96325 52.9162 6.87921 52.9227 6.79679 52.9227C6.51397 52.9227 6.23277 52.9227 5.94995 52.9227H5.95156Z" fill="#B9B9B9"/>
<path d="M10.7288 5.78943C12.6665 5.78943 14.6042 5.79268 16.5435 5.78619C16.7973 5.78619 17.0526 5.75213 17.3015 5.70348C17.6183 5.64185 17.7265 5.73592 17.7201 6.06999C17.7023 7.08196 17.7136 8.09554 17.7136 9.1075C17.7136 9.63457 17.7136 10.16 17.7136 10.6871C17.7136 10.8801 17.7249 11.0698 17.4308 11.0649C17.1868 11.0617 16.967 11.0682 16.9266 10.7519C16.8862 10.4308 16.8296 10.1114 16.8021 9.79026C16.7536 9.25022 16.5985 8.74099 16.3852 8.24798C16.0426 7.4582 15.4284 7.03655 14.5929 6.86789C13.1513 6.5776 11.6968 6.77869 10.2488 6.71058C10.0306 6.70085 9.97566 6.79004 9.97566 6.99276C9.9805 9.13994 9.98212 11.2871 9.97566 13.4343C9.97566 13.6646 10.05 13.7392 10.2763 13.7343C11.2443 13.7116 12.214 13.7181 13.182 13.6857C13.877 13.663 14.3198 13.2413 14.4329 12.5537C14.4652 12.3542 14.5266 12.1515 14.5137 11.9537C14.4895 11.5904 14.6915 11.5888 14.963 11.5823C15.3072 11.5742 15.2345 11.8012 15.2345 11.9909C15.2377 13.4765 15.2345 14.962 15.2345 16.4475C15.2345 16.6502 15.27 16.8529 14.942 16.8464C14.6721 16.8416 14.5315 16.8107 14.5105 16.4864C14.4895 16.1718 14.4426 15.8523 14.3343 15.5409C14.1517 15.0155 13.7477 14.7933 13.2693 14.7657C12.2625 14.709 11.2524 14.7268 10.2439 14.7041C10.0225 14.6992 9.97404 14.7949 9.97404 14.9944C9.9805 17.0329 9.96919 19.0714 9.98535 21.1116C9.99182 21.8122 10.3053 22.1041 11.0019 22.2322C11.4415 22.3133 11.8778 22.383 12.3223 22.3474C12.7085 22.3182 12.5808 22.5955 12.5938 22.782C12.6083 22.9847 12.6374 23.1712 12.3045 23.168C9.78657 23.155 7.27028 23.155 4.75237 23.168C4.37743 23.1696 4.47602 22.9296 4.46955 22.735C4.46309 22.5403 4.40814 22.3182 4.74914 22.3441C5.16448 22.3765 5.57821 22.3538 5.98547 22.2241C6.4299 22.0814 6.65939 21.8252 6.69494 21.3597C6.71434 21.1181 6.72565 20.8748 6.72565 20.6316C6.72727 16.5269 6.72565 12.4223 6.72565 8.31772C6.72565 6.93276 6.49454 6.69274 5.0966 6.62463C5.02873 6.62138 4.96247 6.61652 4.89459 6.6149C4.51319 6.60192 4.31602 6.28082 4.47278 5.92404C4.55036 5.74727 4.70712 5.82511 4.82671 5.82511C6.79191 5.82024 8.7571 5.82187 10.7223 5.82187C10.7223 5.81214 10.7223 5.80241 10.7223 5.79268L10.7288 5.78943Z" fill="#F7F7F7"/>
<path d="M28.8278 14.0602C28.8278 16.342 28.8294 18.6238 28.8278 20.9055C28.8278 21.6969 29.1914 22.1446 29.9155 22.2483C30.3163 22.3051 30.7138 22.3765 31.1162 22.3424C31.4556 22.3132 31.4831 22.4802 31.4782 22.7511C31.4734 23.0089 31.4686 23.1711 31.1227 23.1695C28.8214 23.1533 26.52 23.1614 24.217 23.1614C23.8663 23.1614 23.5173 23.15 23.1666 23.1646C22.8353 23.1792 22.9209 22.9424 22.9306 22.777C22.9403 22.6116 22.7949 22.3408 23.1617 22.3473C23.6304 22.3554 24.0942 22.344 24.5613 22.237C25.2287 22.0845 25.5196 21.8186 25.6021 21.1439C25.6182 21.011 25.615 20.8747 25.615 20.7401C25.615 16.2447 25.615 11.7476 25.615 7.25215C25.615 6.71373 25.615 6.70562 25.0607 6.71535C24.2704 6.72833 23.4817 6.68778 22.693 6.86131C21.7573 7.06727 21.1383 7.58461 20.8119 8.47656C20.5501 9.19012 20.4547 9.93937 20.3707 10.687C20.3335 11.013 20.1913 11.0811 19.902 11.0681C19.5966 11.0551 19.561 10.8832 19.5626 10.6383C19.5675 9.11228 19.5723 7.58623 19.5594 6.0618C19.5562 5.7488 19.6628 5.63852 19.9618 5.70339C20.5178 5.82502 21.085 5.81854 21.649 5.81854C25.3499 5.8234 29.0525 5.8234 32.7534 5.81854C33.3449 5.81854 33.938 5.82502 34.5214 5.70177C34.7784 5.64663 34.8786 5.72285 34.8769 6.00666C34.8656 7.55866 34.8705 9.11228 34.8721 10.6643C34.8721 10.8784 34.8818 11.0697 34.5699 11.0665C34.2968 11.0649 34.0883 11.034 34.077 10.6935C34.0511 9.9491 33.8895 9.22742 33.6568 8.52359C33.3707 7.65758 32.7792 7.10944 31.8904 6.88401C30.9773 6.65211 30.048 6.73644 29.122 6.70725C28.8068 6.69752 28.8246 6.87915 28.8246 7.09484C28.8278 9.41717 28.8262 11.7395 28.8262 14.0618L28.8278 14.0602Z" fill="#F7F7F7"/>
</svg>
