<svg width="131" height="33" viewBox="0 0 131 33" fill="none" xmlns="http://www.w3.org/2000/svg">
<g clip-path="url(#clip0_524_5431)">
<path d="M11.8072 12.7776C11.8072 15.7458 11.7848 18.5781 11.8162 21.4081C11.8296 22.6961 12.5327 23.5406 13.7845 23.9016C14.0846 23.9885 14.3869 24.0197 14.3421 24.4298C14.2906 24.8977 13.9144 24.7484 13.6546 24.7484C9.59701 24.7573 5.54165 24.7551 1.48405 24.7484C1.2646 24.7484 0.933183 24.8933 0.87944 24.4721C0.830175 24.0821 1.06082 24.0041 1.38328 23.9061C2.82539 23.4693 3.45463 22.4109 3.45911 20.9892C3.47478 15.2444 3.4703 9.50188 3.45911 3.75713C3.45687 2.31315 2.82091 1.27472 1.34073 0.909271C0.971251 0.817907 0.857047 0.661921 0.87944 0.316523C0.906311 -0.11801 1.24221 0.0223775 1.46166 0.0201491C7.78766 0.0112357 14.1159 0.0201491 20.4419 0.00455053C20.9861 0.00455053 21.1383 0.176135 21.1339 0.699803C21.1115 3.38722 21.1204 6.07464 21.1271 8.76429C21.1271 9.18991 21.163 9.55314 20.5203 9.53977C19.9851 9.52862 19.7589 9.41052 19.6514 8.8356C19.123 5.97882 17.7257 3.69697 15.0273 2.33766C14.9288 2.28863 14.8302 2.23292 14.7295 2.18836C12.2416 1.07863 11.787 1.35272 11.7848 3.951C11.7848 6.1972 11.8251 8.44341 11.7647 10.6896C11.7423 11.5297 12.0782 11.601 12.7432 11.4495C14.4384 11.064 15.7036 9.51525 16.0484 7.41167C16.1089 7.03953 15.8603 6.43564 16.6262 6.46238C17.4838 6.49358 17.13 7.15095 17.1322 7.53423C17.1591 10.9949 17.1569 14.4556 17.1367 17.9185C17.1367 18.246 17.4189 18.7675 16.6956 18.8254C15.9477 18.8833 16.1134 18.3552 16.0417 17.9541C15.6028 15.5319 14.5279 13.6065 11.805 12.7821L11.8072 12.7776Z" fill="#B9B9B9"/>
<path d="M83.5385 10.6271C85.2113 8.43885 87.2132 7.87507 89.6138 8.40097C91.3335 8.77756 92.3076 9.85387 92.742 11.4784C93.1653 13.065 93.0847 14.6917 93.0847 16.3095C93.0847 18.1145 93.0779 19.9194 93.0914 21.7222C93.0981 22.696 93.3489 23.5584 94.3857 23.9417C94.6858 24.0531 94.8246 24.2157 94.7597 24.5099C94.679 24.8887 94.3499 24.7506 94.1215 24.7506C91.4791 24.7595 88.8367 24.7506 86.1921 24.7617C85.592 24.7639 85.2538 24.5634 85.6838 24.0196C86.0757 23.5227 86.069 22.9924 86.0734 22.4553C86.0936 19.5094 86.0869 16.5635 86.0891 13.6176C86.0891 13.5797 86.0891 13.5441 86.0891 13.5062C86.0309 12.675 85.9592 11.8148 84.8911 11.6744C84.1678 11.5809 83.5139 12.4098 83.505 13.4906C83.4781 16.5457 83.5005 19.603 83.5117 22.6603C83.5117 23.1506 83.5923 23.6208 84.0782 23.9038C84.3357 24.0531 84.441 24.2781 84.3313 24.5567C84.226 24.8263 83.964 24.755 83.7535 24.755C80.9253 24.7595 78.0948 24.7617 75.2666 24.7506C75.0404 24.7506 74.7135 24.8798 74.6508 24.4809C74.5836 24.0531 74.9038 24.0174 75.1972 23.9573C76.0817 23.7723 76.4154 23.1105 76.4377 22.3372C76.543 18.6203 76.5609 14.9011 76.4266 11.1842C76.3997 10.4087 76.0347 9.76473 75.1524 9.59092C74.9105 9.5419 74.6105 9.55972 74.6441 9.16307C74.6866 8.6706 75.0673 8.8355 75.3181 8.8355C77.7007 8.82213 80.0833 8.86893 82.4637 8.8043C83.3281 8.77979 83.6147 9.04274 83.4803 9.85387C83.4535 10.021 83.5027 10.2037 83.5385 10.6271Z" fill="#B9B9B9"/>
<path d="M43.7462 10.7719C45.3137 8.53681 47.2395 7.91732 49.5079 8.32066C51.7316 8.71731 52.9229 10.0543 53.1849 12.2939C53.5275 15.2331 53.2924 18.1834 53.3506 21.1294C53.3752 22.3349 53.3506 23.5382 54.824 24.0129C55.0189 24.0753 55.1084 24.2357 55.0838 24.4452C55.048 24.7482 54.824 24.7572 54.5934 24.7572C51.8368 24.7572 49.0825 24.7505 46.3259 24.7638C45.7527 24.7661 45.6093 24.3895 45.896 24.0931C46.3864 23.5873 46.3281 23.0146 46.3326 22.4486C46.3573 19.5004 46.3505 16.5545 46.355 13.6064C46.355 13.5328 46.355 13.4593 46.3505 13.3858C46.3013 12.5724 46.1468 11.7011 45.148 11.7033C44.1583 11.7033 43.7888 12.5367 43.7821 13.408C43.7552 16.5033 43.7776 19.5962 43.7821 22.6914C43.7821 23.1951 43.9187 23.6452 44.38 23.926C44.6509 24.0909 44.7203 24.3204 44.6106 24.5833C44.5009 24.8485 44.2299 24.7527 44.0262 24.7527C41.1957 24.7594 38.3652 24.7594 35.5348 24.7572C35.2862 24.7572 34.9794 24.8218 34.9436 24.434C34.91 24.0775 35.1832 24.0218 35.4407 23.9639C36.3163 23.77 36.6499 23.155 36.6746 22.3483C36.791 18.6291 36.8044 14.91 36.6656 11.1908C36.6365 10.3864 36.2894 9.7691 35.4161 9.59083C35.1406 9.53512 34.8943 9.47273 34.9436 9.12065C34.9973 8.73291 35.3175 8.83319 35.5549 8.83319C38.0495 8.8265 40.5463 8.84879 43.0409 8.81536C43.6701 8.80645 43.8134 9.05602 43.753 9.59529C43.7216 9.87607 43.7485 10.1635 43.7485 10.7741L43.7462 10.7719Z" fill="#B9B9B9"/>
<path d="M103.202 16.0933C103.202 17.7133 103.202 19.3356 103.202 20.9556C103.202 22.2748 103.67 22.7717 105.06 22.8386C107.324 22.9455 109.02 21.8314 110.549 20.3294C110.851 20.0331 110.981 19.1529 111.646 19.6386C112.338 20.1423 111.59 20.6169 111.346 21.0291C109.317 24.4519 106.176 25.6553 102.344 25.194C99.039 24.7951 96.5825 23.1305 95.3486 19.964C93.1653 14.3663 97.2431 8.47226 103.464 8.23159C105.728 8.14469 107.924 8.38089 109.864 9.70232C110.759 10.3129 111.364 11.1196 111.622 12.1647C112.018 13.7669 111.012 15.3713 109.42 15.6989C107.64 16.0643 106.185 15.2086 105.846 13.5752C105.663 12.6817 105.905 11.8638 106.559 11.2533C107.183 10.6717 106.823 10.3842 106.335 10.1034C105.701 9.73797 104.996 9.69786 104.279 9.73129C103.513 9.76694 103.159 10.0789 103.184 10.9012C103.235 12.6304 103.2 14.3641 103.2 16.0955L103.202 16.0933Z" fill="#B9B9B9"/>
<path d="M31.607 15.7569C31.607 17.7068 31.5914 19.6588 31.6137 21.6086C31.6272 22.7072 31.7011 23.8036 33.1544 24.0242C33.4276 24.0665 33.5261 24.2493 33.4634 24.5011C33.3716 24.8665 33.0536 24.7484 32.8207 24.7484C30.9979 24.7596 29.1752 24.7551 27.3524 24.7551C25.9752 24.7551 24.6003 24.7596 23.2231 24.7507C22.988 24.7507 22.67 24.8487 22.6163 24.4565C22.5648 24.0911 22.8335 24.0331 23.0932 23.9841C24.2151 23.7724 24.4794 22.8944 24.4883 21.9964C24.5309 18.3909 24.5129 14.7831 24.4883 11.1754C24.4838 10.3554 24.0763 9.78266 23.2007 9.61776C22.9141 9.56428 22.5715 9.52417 22.6543 9.09186C22.7282 8.71081 23.0507 8.82892 23.2836 8.82892C25.814 8.82 28.3444 8.84451 30.8725 8.80886C31.4906 8.79995 31.6182 9.01387 31.6115 9.57096C31.5846 11.6322 31.6003 13.6935 31.6003 15.7547H31.6048L31.607 15.7569Z" fill="#B9B9B9"/>
<path d="M27.8876 0.151545C29.7887 0.173829 31.0763 1.03398 31.5578 2.5983C32.0191 4.09577 31.3629 5.61329 29.95 6.30186C28.7564 6.88346 27.5091 6.9414 26.273 6.52915C24.6473 5.98989 23.8255 4.48128 24.1345 2.75874C24.4189 1.17214 25.9237 0.127033 27.8876 0.151545Z" fill="#B9B9B9"/>
<path d="M124.509 30.2146C124.583 29.1427 125.915 28.1667 124.67 26.9523H127.684C127.03 28.2291 128.02 29.1784 128.356 30.277C128.607 29.1784 129.926 28.2469 128.779 26.9322H130.871C129.708 28.4965 129.352 30.3282 128.732 32.0441C128.421 32.9042 127.85 32.7215 127.247 32.7884C126.578 32.8641 126.323 32.5722 126.195 31.9706C126.09 31.4736 125.866 31.0012 125.664 30.433C125.098 30.9099 125.107 31.5717 124.927 32.1199C124.737 32.697 124.392 32.8419 123.848 32.7817C123.297 32.7215 122.661 32.9889 122.397 32.1555C122.021 30.9656 121.524 29.8157 121.123 28.6325C120.921 28.0397 120.709 27.4737 119.923 26.8921C121.244 26.8921 122.263 26.8921 123.279 26.8921C123.564 26.8921 123.584 27.0258 123.595 27.3043C123.633 28.3294 124.088 29.2519 124.509 30.2124V30.2146Z" fill="#B9B9B9"/>
<path d="M94.2939 32.7528H90.5991C91.3582 31.467 91.3179 27.8927 90.3595 26.7807C91.6337 27.1573 92.8877 26.3462 93.9222 27.4403C94.9478 26.5735 95.8973 26.4576 96.4481 27.2643C96.905 27.935 96.8423 28.6147 96.1996 29.1317C95.5412 29.662 94.8582 29.3545 94.2044 28.3049C93.4385 29.223 93.443 31.6319 94.2962 32.7528H94.2939Z" fill="#B9B9B9"/>
<path d="M107.732 26.9121H109.918C108.771 28.3717 108.54 30.1366 107.904 31.7365C107.676 32.3159 107.577 32.8574 106.677 32.8151C105.838 32.7772 105.334 32.6569 105.087 31.7521C104.792 30.6602 104.313 29.6151 103.905 28.5522C103.699 28.0152 103.547 27.4447 102.743 26.9634H106.729C105.918 28.287 107.179 29.2296 107.385 30.3839C107.654 29.2764 108.814 28.287 107.732 26.9121Z" fill="#B9B9B9"/>
<path d="M110.527 26.9878C110.56 26.97 110.592 26.9433 110.625 26.9388C112.675 26.7175 113.701 27.6162 113.704 29.6351C113.704 30.1856 113.7 30.7382 113.704 31.2886C113.713 32.1042 113.715 32.1042 114.324 32.7393H110.515C111.279 31.7164 111.277 27.9104 110.524 26.9878H110.527Z" fill="#B9B9B9"/>
<path d="M91.394 3.75708C91.394 3.07519 91.3985 2.39108 91.394 1.7092C91.3895 1.28804 91.3559 0.906984 91.9964 0.918126C92.6704 0.929268 92.545 1.37271 92.5472 1.75599C92.5562 2.89692 92.5629 4.03562 92.5405 5.17655C92.536 5.46178 92.7241 5.90077 92.1845 5.94534C91.7814 5.97876 91.385 6.01888 91.1342 5.54646C90.7088 4.75093 90.2296 3.9866 89.56 3.25123C89.56 3.92643 89.5488 4.60386 89.5645 5.27906C89.5757 5.70467 89.4973 5.96985 88.9644 5.96762C88.4583 5.96762 88.3284 5.74479 88.3329 5.29911C88.3463 4.12253 88.3284 2.94595 88.3486 1.76937C88.353 1.47299 88.1806 1.04291 88.6643 0.949323C89.1077 0.864645 89.5399 0.878015 89.8108 1.37271C90.2564 2.19498 90.7424 2.9972 91.2104 3.80833C91.2731 3.7905 91.3335 3.77267 91.3962 3.75485L91.394 3.75708Z" fill="#B9B9B9"/>
<path d="M78.4442 3.61227C78.4442 2.92147 78.4532 2.23291 78.442 1.54211C78.4352 1.1566 78.5293 0.915938 78.9951 0.920395C79.4317 0.922623 79.7049 1.00507 79.6982 1.51983C79.6803 2.69864 79.7094 3.87745 79.687 5.05626C79.6803 5.37937 79.8863 5.85179 79.313 5.94092C78.8092 6.02114 78.3994 5.95652 78.1307 5.3972C77.7523 4.61058 77.2663 3.87299 76.6371 3.12871C76.6371 3.79945 76.6416 4.46797 76.6371 5.13871C76.6326 5.52422 76.758 5.95206 76.0817 5.96989C75.3495 5.98772 75.4503 5.52422 75.448 5.09191C75.4435 3.98664 75.4346 2.88136 75.457 1.77832C75.4637 1.48417 75.2778 1.04741 75.7615 0.956049C76.196 0.875827 76.6326 0.853543 76.9036 1.37498C77.3089 2.15491 77.7769 2.90365 78.2158 3.66575C78.2919 3.64793 78.3681 3.6301 78.4442 3.61227Z" fill="#B9B9B9"/>
<path d="M35.0355 3.42278C34.8205 1.45513 36.1394 0.657371 37.6308 0.906949C38.1436 0.993856 38.54 1.23898 38.7975 1.67351C38.9385 1.90972 39.2297 2.23506 38.9363 2.45121C38.6564 2.65845 38.1682 2.72976 37.9398 2.35539C37.6442 1.86961 37.2949 1.61557 36.762 1.85624C36.2514 2.08799 36.1887 2.58714 36.2021 3.0863C36.2111 3.49186 36.182 3.90189 36.2469 4.29854C36.3253 4.77541 36.6097 5.10521 37.1538 5.09852C37.4472 5.09407 37.7808 5.14309 37.8861 4.76204C37.9801 4.4211 37.8861 4.18489 37.4763 4.16483C37.1113 4.14701 37.0665 3.89743 37.118 3.61888C37.174 3.32251 37.4494 3.30691 37.6442 3.36262C38.1324 3.50301 38.9027 2.91249 39.0863 3.82835C39.3237 5.0183 38.9901 5.6623 38.0406 5.90965C36.4664 6.31967 34.7802 5.6779 35.0377 3.42724L35.0355 3.42278Z" fill="#B9B9B9"/>
<path d="M85.0142 5.82279C83.7288 6.29966 83.3728 5.51305 82.9809 4.73089C82.8287 4.42783 82.7391 3.91307 82.2778 4.00667C81.756 4.1114 82.083 4.61501 82.0091 4.9359C81.9755 5.07629 81.9934 5.23004 82.0046 5.37489C82.0382 5.79159 81.8702 5.96095 81.4313 5.96318C80.9879 5.96541 80.8536 5.78937 80.8558 5.37712C80.8693 4.09134 80.867 2.80334 80.8558 1.51534C80.8514 1.11424 80.9678 0.913682 81.4224 0.918139C81.8478 0.922596 82.0337 1.05853 82.0091 1.49083C81.9867 1.92536 82.0046 2.3599 82.0046 2.91253C83.1937 2.51811 82.9317 0.309793 84.7679 1.0251C84.6761 1.94765 83.3594 2.4624 83.6079 3.40501C83.8296 4.24733 84.4992 4.97378 85.0164 5.82279H85.0142Z" fill="#B9B9B9"/>
<path d="M94.8089 3.55864C94.8604 4.15807 94.7171 4.99594 95.8009 5.09399C96.0875 5.12073 96.4324 5.13187 96.5108 4.73968C96.5735 4.42548 96.5332 4.15807 96.0875 4.16476C95.8143 4.16922 95.7136 3.96421 95.7315 3.71463C95.7561 3.35363 96.0428 3.28455 96.2891 3.36032C96.7526 3.50516 97.4625 2.92578 97.6842 3.76142C97.9887 4.91572 97.6707 5.63549 96.7302 5.88284C95.7561 6.1391 94.7977 6.13019 94.0789 5.27226C93.5079 4.59038 93.4564 2.62495 93.949 1.79377C94.4887 0.88682 95.3441 0.804371 96.2779 0.909104C96.7996 0.967042 97.1803 1.2545 97.4446 1.66898C97.5923 1.90073 97.814 2.23722 97.5386 2.46451C97.2788 2.67621 96.7974 2.67843 96.6205 2.42217C96.2913 1.94307 95.9711 1.56647 95.3754 1.87622C94.744 2.20602 94.8179 2.85225 94.8089 3.55864Z" fill="#B9B9B9"/>
<path d="M41.2673 3.04173C41.2673 3.30022 41.3032 3.56317 41.2629 3.81497C41.0994 4.82443 41.498 5.20993 42.5281 5.074C42.855 5.02944 43.4417 4.82888 43.3969 5.54419C43.3611 6.13471 42.8752 5.9453 42.5437 5.95644C40.8911 6.01141 40.0656 5.2233 40.0671 3.59213C40.0671 2.89242 40.0783 2.19271 40.0671 1.493C40.0604 1.07407 40.2395 0.909171 40.6694 0.911399C41.0949 0.913628 41.283 1.07407 41.2718 1.49746C41.2584 2.01222 41.2696 2.5292 41.2696 3.04395L41.2673 3.04173Z" fill="#B9B9B9"/>
<path d="M58.6846 3.43838C58.6846 2.81443 58.7003 2.18826 58.6801 1.56654C58.6644 1.10304 58.8324 0.906946 59.325 0.920316C59.7998 0.933686 59.8647 1.18104 59.8602 1.55763C59.849 2.43784 59.896 3.3225 59.8445 4.20048C59.8065 4.85785 59.9901 5.17651 60.7022 5.06955C60.9552 5.03167 61.2217 5.06509 61.4815 5.06509C61.7614 5.06509 62.001 5.09629 62.001 5.4662C62.001 5.85839 61.7883 5.9609 61.4344 5.95421C60.7291 5.94307 60.0237 5.93193 59.3183 5.95867C58.8301 5.9765 58.6622 5.77149 58.6779 5.31021C58.7003 4.68627 58.6824 4.06232 58.6846 3.43838Z" fill="#B9B9B9"/>
<path d="M87.1125 3.47398C87.1125 4.10015 87.1013 4.72632 87.1169 5.3525C87.1259 5.74915 87.0117 5.96084 86.5571 5.97198C86.0846 5.9809 85.8764 5.82714 85.8831 5.34581C85.8988 4.05558 85.8943 2.76758 85.8876 1.47735C85.8876 1.04505 86.1003 0.913574 86.5123 0.913574C86.9266 0.913574 87.1326 1.04505 87.1192 1.48404C87.099 2.14587 87.1147 2.80992 87.1147 3.47398H87.1125Z" fill="#B9B9B9"/>
<path d="M112.266 26.5289C111.483 26.4219 110.885 26.0921 110.921 25.223C110.954 24.4364 111.46 24.062 112.246 24.0487C113.133 24.0331 113.762 24.559 113.722 25.3189C113.673 26.2236 112.987 26.4041 112.266 26.5289Z" fill="#B9B9B9"/>
<path d="M74.3552 21.2742C74.1111 21.1985 73.9163 21.2787 73.8267 21.5327C73.6566 22.0096 73.3453 22.3216 72.8213 22.1455C72.257 21.9561 72.2615 21.4169 72.257 20.94C72.2436 19.6498 72.2525 18.3618 72.2525 17.0715C72.2525 16.0041 72.2077 14.9323 72.2592 13.8671C72.3981 10.9948 70.6268 9.63099 68.7368 8.97139C66.1863 8.08227 63.5663 7.97976 60.9351 8.61708C59.7326 8.909 58.5816 9.33684 57.762 10.3262C56.47 11.8861 57.0544 14.09 58.9086 14.6404C60.1178 14.9991 61.2016 14.7451 62.0593 13.8226C62.7915 13.0359 62.8206 11.7546 62.2294 10.6204C62.1175 10.4042 61.6853 10.1079 62.1421 9.92291C62.9124 9.61093 63.741 9.64882 64.5404 9.88502C65.2122 10.0833 65.4518 10.6026 65.4787 11.2376C65.51 12.0109 65.5212 12.7841 65.5257 13.5552C65.5346 15.2108 65.5302 15.2153 63.9112 15.3379C61.8622 15.4938 59.8334 15.7301 58.0621 16.8955C56.3132 18.0453 55.6123 19.8459 56.0557 22.0029C56.3737 23.5539 57.8113 24.9488 59.5333 25.1784C61.739 25.4703 63.8507 25.1984 65.5951 23.6452C65.9534 23.3266 66.1706 23.1372 66.4931 23.6987C67.709 25.8157 72.0532 25.653 73.4752 24.0753C74.0663 23.4179 74.4224 22.6804 74.55 21.8247C74.5814 21.6174 74.6553 21.3656 74.3575 21.2742H74.3552ZM65.5279 18.0253C65.5257 19.0124 65.5212 20.0018 65.5033 20.989C65.4899 21.6687 65.1786 22.1767 64.5449 22.4664C63.6671 22.8675 62.9953 22.4731 62.9572 21.5171C62.9326 20.8954 62.9527 20.2737 62.9527 19.652C62.9527 19.1038 62.9684 18.5534 62.9505 18.0052C62.9236 17.1896 63.3133 16.813 64.1328 16.7551C65.5324 16.6571 65.5324 16.6348 65.5279 18.0253Z" fill="#B9B9B9"/>
<path d="M130.349 19.6185C130.002 19.3845 129.816 19.5361 129.608 19.7901C128.922 20.628 128.085 21.2965 127.173 21.8758C125.839 22.7249 124.381 23.0769 122.809 22.7717C121.837 22.5845 121.199 22.1187 121.293 20.9711C121.374 19.984 121.342 18.9812 121.297 17.9896C121.273 17.4169 121.436 17.2252 122.036 17.2453C123.337 17.2899 124.641 17.2587 125.944 17.2587C127.247 17.2587 128.553 17.2052 129.852 17.2787C130.651 17.3233 130.743 17.0046 130.716 16.3339C130.49 10.7719 125.868 7.26663 120.232 8.47886C117.007 9.17189 114.714 11.0705 113.762 14.2236C112.779 17.4793 113.305 20.5321 115.867 22.97C120.102 27.0011 127.821 25.6262 130.463 20.4341C130.633 20.0976 130.723 19.8748 130.346 19.6207L130.349 19.6185ZM121.291 14.5088C121.383 13.2988 121.345 12.0777 121.302 10.8632C121.271 9.92508 121.848 9.74903 122.585 9.74235C123.322 9.73566 123.922 9.90279 123.879 10.8432C123.846 11.5785 123.873 12.3161 123.873 13.0537C123.873 13.4949 123.819 13.9451 123.884 14.3796C124.041 15.4425 123.723 15.8303 122.54 15.7857C121.528 15.7478 121.212 15.5094 121.289 14.5088H121.291Z" fill="#B9B9B9"/>
<path d="M100.806 30.0384C101.352 30.1164 101.923 30.0117 102.476 30.0607C103.184 30.1209 103.296 29.7933 103.179 29.2073C102.77 27.1505 100.644 26.092 98.7008 26.9878C97.3572 27.6073 96.6339 28.8686 96.8086 30.2947C96.9788 31.6874 97.9708 32.6813 99.4218 32.9108C101.189 33.1916 102.328 32.6144 103.065 30.961C102.358 31.2797 101.874 31.9794 101.057 32.0462C100.421 32.0997 99.7689 32.1977 99.695 31.2262C99.6278 30.3705 99.798 29.8958 100.808 30.0407L100.806 30.0384ZM99.6749 28.3805C99.7488 27.9081 99.498 27.2129 100.262 27.2886C101.048 27.3666 100.683 28.0908 100.723 28.541C100.759 28.9354 100.906 29.5126 100.156 29.4479C99.3166 29.3744 99.854 28.7037 99.6749 28.3828V28.3805Z" fill="#B9B9B9"/>
<path d="M118.357 32.064C117.643 32.1041 117.141 32.0016 117.117 31.088C117.094 30.2858 117.283 29.9337 118.156 30.0384C118.778 30.112 119.421 30.0273 120.053 30.0563C120.559 30.0786 120.693 29.8802 120.641 29.4034C120.516 28.2379 119.607 27.0948 118.519 26.7939C116.767 26.3104 114.969 27.2396 114.401 28.9198C113.865 30.4997 114.636 32.1754 116.152 32.7281C118.075 33.43 119.77 32.7615 120.682 30.6802C119.779 31.3532 119.24 32.0106 118.36 32.0618L118.357 32.064ZM117.63 27.2842C118.465 27.2775 118.071 28.0329 118.192 28.4697C118.08 28.8307 118.451 29.4368 117.674 29.4457C116.819 29.4546 117.153 28.7995 117.141 28.405C117.13 27.9839 116.893 27.2886 117.63 27.2842Z" fill="#B9B9B9"/>
<path d="M69.6997 4.66168C69.5452 3.77256 69.2989 2.93692 69.534 2.01437C69.6169 1.68903 69.2564 1.34809 68.8936 1.18764C67.971 0.777622 66.9365 0.733054 66.0743 1.05617C65.5414 1.25672 65.9377 2.19487 65.8571 2.79653C65.8325 2.97703 65.8526 3.16421 65.8526 3.34694C65.8526 3.97311 65.884 4.59928 65.8437 5.22323C65.8056 5.81821 66.0564 6.00316 66.6252 5.95859C67.2544 5.90957 67.8949 5.96751 68.5152 5.87614C69.1869 5.77587 69.8274 5.38144 69.702 4.66168H69.6997ZM67.5052 1.80267C67.9486 1.80936 68.3069 1.91409 68.4054 2.40211C68.3875 2.91909 67.9979 2.94583 67.6306 3.00154C67.2141 3.06616 67.0014 2.92355 67.0305 2.47787C67.0529 2.14807 66.9924 1.79599 67.5052 1.8049V1.80267ZM67.756 5.08061C67.2925 5.10067 66.9073 5.05387 67.0462 4.49232C66.9924 4.01545 67.0708 3.71908 67.6082 3.75473C68.0763 3.78593 68.5375 3.82158 68.5667 4.40987C68.5913 4.93354 68.2084 5.06279 67.756 5.08061Z" fill="#B9B9B9"/>
<path d="M52.7348 2.16145C52.9296 1.85616 52.5444 1.47065 52.2197 1.27232C51.3307 0.733057 50.2895 0.77094 49.4027 1.00715C48.7041 1.19433 49.2325 2.10574 49.1026 2.68066C49.0556 2.89012 49.0959 3.12188 49.0959 3.34248H49.0914C49.0914 4.00431 49.0892 4.66837 49.0914 5.33019C49.0914 5.54635 49.0668 5.77364 49.3042 5.91403C49.7341 6.16583 52.1794 5.86946 52.5467 5.49955C53.5835 4.4589 52.0316 3.26672 52.737 2.16145H52.7348ZM50.865 1.80268C51.2837 1.83833 51.5636 2.00992 51.5995 2.43999C51.5524 2.96143 51.1538 2.96812 50.7888 3.0216C50.1842 3.11296 50.2693 2.69403 50.2492 2.32857C50.2223 1.8673 50.4664 1.76925 50.865 1.80268ZM51.7584 4.51684C51.7025 5.00262 51.2837 5.05833 50.8471 5.0873C50.2133 5.12741 50.2335 4.74636 50.2604 4.32074C50.1842 3.79262 50.5112 3.74582 50.9277 3.75919C51.4405 3.77479 51.8211 3.96866 51.7584 4.51684Z" fill="#B9B9B9"/>
<path d="M105.168 4.22496C105.242 3.99989 105.363 3.68569 105.063 3.53862C104.839 3.4272 104.53 3.40492 104.398 3.71466C104.281 3.99098 104.236 4.3698 103.847 3.95978C103.618 3.71912 103.233 3.49851 103.706 3.08626C104.328 2.54254 104.377 1.86288 103.853 1.24339C103.41 0.719726 102.77 0.762066 102.221 1.04953C101.52 1.41721 101.408 2.08349 101.67 2.76092C101.816 3.13974 101.921 3.38932 101.531 3.68792C101.016 4.08457 101.041 4.66395 101.247 5.19876C101.469 5.78259 101.997 6.03217 102.586 5.99206C103.486 5.92967 104.382 5.80933 105.448 5.86504C104.554 5.32578 104.991 4.77314 105.168 4.22496ZM102.998 1.80272C103.271 1.85174 103.338 2.06789 103.269 2.27959C103.22 2.42889 103.05 2.63836 102.929 2.64059C102.698 2.64727 102.55 2.44672 102.566 2.2016C102.581 1.95425 102.729 1.81386 102.998 1.80272ZM102.445 4.1024C102.902 4.19153 102.994 4.62161 103.338 4.8801C102.342 5.14082 102.295 5.09403 102.445 4.1024Z" fill="#B9B9B9"/>
<path d="M46.12 0.880167C44.7047 0.873482 43.9815 1.70467 43.9725 3.35589C43.9635 5.09179 44.6712 5.99874 46.055 6.0188C47.4904 6.03885 48.263 5.14973 48.2675 3.47845C48.2719 1.74478 47.5643 0.88908 46.12 0.882395V0.880167ZM47.0762 4.09348C46.9552 4.60155 46.794 5.10517 46.1133 5.09625C45.4527 5.08734 45.2265 4.63052 45.1593 4.09348C45.1056 3.66341 45.1101 3.2155 45.1593 2.7832C45.222 2.2417 45.4594 1.7782 46.1088 1.77597C46.7649 1.77375 46.9642 2.25953 47.0739 2.7832C47.1187 2.99267 47.0806 3.21996 47.0806 3.43834C47.0806 3.65672 47.1232 3.88624 47.0739 4.09348H47.0762Z" fill="#B9B9B9"/>
<path d="M74.55 5.43057C74.0999 4.10468 73.6498 2.62281 73.081 1.18774C72.8683 0.648475 71.8673 0.851257 71.6478 1.47075C71.2179 2.68521 70.8148 3.90859 70.4543 5.14311C70.3894 5.36594 69.9169 5.77151 70.5237 5.92304C70.8507 6.00326 71.2089 6.0456 71.4821 5.61107C72.042 4.72417 72.7653 4.75314 73.4169 5.67123C73.6722 6.03223 73.9879 5.94086 74.3059 5.94086C74.5455 5.94086 74.6149 5.78934 74.55 5.42834V5.43057ZM72.6981 3.99549C72.6175 4.09354 72.1159 4.03783 72.0979 3.97321C71.9546 3.4696 72.1472 3.02392 72.5995 2.31753C72.4853 3.10414 73.1079 3.49411 72.6981 3.99549Z" fill="#B9B9B9"/>
<path d="M56.4386 1.45724C56.3043 1.01602 56.0512 0.917969 55.628 0.917969C55.2115 0.917969 54.9428 0.99819 54.8062 1.44609C54.4345 2.66947 54 3.87502 53.6462 5.10509C53.579 5.33906 53.1961 5.76691 53.7268 5.91399C54.0807 6.01203 54.4837 6.06551 54.7323 5.5307C55.0637 4.8154 56.1789 4.75523 56.508 5.43711C56.8305 6.10785 57.2672 5.98084 57.8494 5.85605C57.3724 4.37195 56.8865 2.91905 56.4409 1.45501L56.4386 1.45724ZM55.89 4.03101C55.8183 4.11791 55.4668 4.12237 55.3772 4.03101C54.8801 3.54077 55.5541 3.16194 55.5743 2.69621C55.8004 3.14634 56.2953 3.52962 55.89 4.02878V4.03101Z" fill="#B9B9B9"/>
</g>
<defs>
<clipPath id="clip0_524_5431">
<rect width="130" height="33" fill="white" transform="translate(0.875)"/>
</clipPath>
</defs>
</svg>
