<svg width="172" height="37" viewBox="0 0 172 37" fill="none" xmlns="http://www.w3.org/2000/svg">
<g clip-path="url(#clip0_524_5461)">
<path d="M87.9219 28.0493C86.4358 28.0493 85.8113 27.318 86.0486 25.8553C86.344 24.0611 86.6629 22.2669 86.9516 20.4692C87.1262 19.3722 87.1598 18.2327 85.9008 17.8541C84.6923 17.4931 83.8597 18.2327 83.3326 19.3121C82.6276 20.7523 82.6276 22.3837 82.3053 23.9302C82.124 24.7901 81.9965 25.6642 81.9125 26.5382C81.8051 27.6565 81.3653 28.1095 80.2038 28.0812C77.4475 28.0139 77.4442 28.0847 77.9007 25.3103C78.1861 23.5727 78.5084 21.8423 78.7669 20.0977C78.9012 19.1847 78.8105 18.2433 77.847 17.8789C76.8902 17.5179 76.1282 17.9815 75.5205 18.806C74.9062 19.6376 74.782 20.6356 74.5973 21.6087C74.369 22.819 74.2079 24.0399 73.9897 25.2537C73.4693 28.1484 72.9187 28.5164 70.1692 28.0635C69.5314 27.9573 69.4441 27.6671 69.5314 27.1328C70.1927 23.1375 70.8608 19.1422 71.5154 15.1434C71.6094 14.5666 72.0224 14.4675 72.3715 14.5984C73.4156 14.9947 74.9431 13.5332 75.591 15.5716C75.7119 15.9502 76.1147 15.4088 76.3531 15.2495C78.7635 13.6252 80.4555 13.7243 82.4933 15.7733C82.9499 16.2333 83.1715 16.2262 83.5441 15.7945C84.0779 15.1717 84.7292 14.74 85.4879 14.4639C88.7846 13.2678 91.6516 15.4265 91.3159 19.0502C91.0641 21.7892 90.4766 24.4999 89.9932 27.2142C89.7246 28.7323 88.5161 27.7273 87.9252 28.0458L87.9219 28.0493Z" fill="#B9B9B9"/>
<path d="M137.168 28.0706C135.493 28.0706 133.814 28.0282 132.139 28.0848C131.122 28.1202 130.85 27.6495 131.014 26.6976C131.954 21.1488 132.898 15.6 133.818 10.0476C133.982 9.06031 134.452 8.67812 135.412 8.69227C138.43 8.73474 141.448 8.73474 144.463 8.69227C145.547 8.67812 145.799 9.078 145.594 10.1821C145.111 12.7902 145.155 12.8008 142.576 12.8008C141.348 12.8008 140.116 12.8468 138.89 12.7902C136.805 12.6946 137.383 14.4782 137.212 15.5575C136.993 16.9376 138.168 16.329 138.736 16.3714C140.015 16.467 141.304 16.3714 142.59 16.4139C143.177 16.4351 144.198 16.106 143.976 17.2809C143.778 18.3354 144.342 20.027 142.57 20.1615C140.901 20.2889 139.219 20.2039 137.544 20.1898C135.607 20.1756 136.228 21.853 135.986 22.8828C135.684 24.178 136.631 24.1037 137.433 24.1037C139.223 24.1037 141.009 24.132 142.798 24.0895C143.688 24.0683 143.916 24.3266 143.785 25.321C143.429 28.0565 143.486 28.0635 140.861 28.0635C139.632 28.0635 138.403 28.0635 137.171 28.0635L137.168 28.0706Z" fill="#B9B9B9"/>
<path d="M34.7546 9.02847C36.0371 9.02847 37.3363 8.89753 38.6019 9.05678C41.2642 9.39296 42.9629 11.1588 43.208 13.6218C43.4967 16.5413 42.1572 18.9547 39.7031 19.9881C38.001 20.7029 36.2116 20.8091 34.4256 20.7524C33.2607 20.7171 32.6766 21.0355 32.5859 22.3661C32.4986 23.6507 32.1058 24.9105 31.985 26.1951C31.8507 27.6035 31.3773 28.191 29.8935 28.0989C27.3521 27.9397 27.3689 28.0636 27.8154 25.459C28.6379 20.6569 29.4906 15.8583 30.2124 11.0385C30.4474 9.46374 30.8603 8.54012 32.5826 8.88338C33.2842 9.02493 34.0329 8.90815 34.758 8.90815V9.03201L34.7546 9.02847ZM35.1273 17.157C37.7056 17.1217 39.0014 16.237 38.9444 14.6233C38.8907 13.1865 37.8566 12.5425 35.6476 12.5708C34.2981 12.5885 33.5696 13.9828 33.6266 16.3679C33.6602 17.8046 34.7177 16.8456 35.1306 17.157H35.1273Z" fill="#B9B9B9"/>
<path d="M151.302 22.7482C152.329 20.6002 153.38 18.6645 154.192 16.6261C154.823 15.0407 155.703 14.2728 157.355 14.563C158.053 14.6869 158.791 14.4215 159.674 14.8036C158.412 17.1286 157.2 19.4253 155.935 21.6901C153.981 25.19 152.315 28.8668 150.106 32.2074C148.801 34.182 146.42 35.0171 144.342 34.4828C143.533 34.274 143.204 33.814 143.59 33.1381C144.03 32.3701 143.009 30.7883 144.779 30.7706C146.897 30.7494 148.327 28.8243 147.854 26.6692C147.102 23.2295 146.39 19.7827 145.578 16.3607C145.276 15.0903 145.41 14.5418 146.827 14.5524C149.818 14.5701 149.824 14.5028 150.325 17.5391C150.57 19.0431 150.778 20.5542 151.013 22.0617C151.036 22.2174 151.137 22.3625 151.312 22.7553L151.302 22.7482Z" fill="#B9B9B9"/>
<path d="M62.3067 22.7659C63.3307 20.6533 64.462 18.5902 65.3349 16.4103C65.9325 14.924 66.7449 14.3259 68.2422 14.563C68.9438 14.6763 69.6723 14.5807 70.6694 14.5807C69.575 16.6155 68.5981 18.438 67.6144 20.2569C65.6203 23.9373 63.6127 27.607 61.6252 31.2908C60.2421 33.8565 58.1405 34.7836 55.4212 34.4545C54.6189 34.359 54.3134 34.0369 54.5383 33.2053C54.8505 32.0446 54.4678 30.4698 56.6231 30.7565C57.9559 30.9334 59.2719 28.4598 58.9362 26.8992C58.1741 23.3427 57.3952 19.7898 56.5727 16.251C56.3075 15.1045 56.2102 14.471 57.7444 14.5347C60.7524 14.6621 60.749 14.5559 61.209 17.7302C61.4507 19.3864 61.7192 21.039 61.9744 22.6951C62.0852 22.7164 62.196 22.7411 62.3067 22.7624V22.7659Z" fill="#B9B9B9"/>
<path d="M117.354 28.0495C115.875 28.0495 115.252 27.2946 115.487 25.7847C115.773 23.987 116.085 22.1928 116.364 20.3951C116.515 19.422 116.511 18.4382 115.497 17.9746C114.403 17.4756 113.554 18.0418 112.852 18.9053C112.406 19.4573 112.221 20.1332 112.1 20.8375C111.788 22.6918 111.348 24.5284 111.177 26.3933C111.049 27.7912 110.489 28.2371 109.257 28.0601C108.874 28.0035 108.471 28.0141 108.085 28.0601C107.084 28.1734 106.692 27.9044 106.913 26.7048C107.588 23.0704 108.196 19.4184 108.726 15.7593C108.87 14.7543 109.273 14.365 110.109 14.6128C111.049 14.8888 112.503 13.6502 112.916 15.6602C112.963 15.8938 113.47 15.4656 113.718 15.2639C115.058 14.1739 116.565 13.9333 118.153 14.4075C119.936 14.9419 120.997 16.5378 120.748 18.6116C120.406 21.4674 119.868 24.2949 119.405 27.1365C119.16 28.6511 117.999 27.8266 117.347 28.0601L117.354 28.0495Z" fill="#B9B9B9"/>
<path d="M166.778 22.4297C165.603 22.4297 164.431 22.4226 163.256 22.4332C162.867 22.4332 162.42 22.4297 162.266 22.9039C162.122 23.3462 162.394 23.7214 162.662 24.008C163.867 25.2926 165.439 25.3527 166.661 24.4716C168.306 23.2896 169.054 24.5671 170.065 25.3209C170.421 25.5863 170.578 25.9225 170.175 26.34C167.308 29.3126 160.574 29.5391 158.721 25.0661C157.563 22.274 158.409 18.1478 160.749 16.0387C163.313 13.7243 167.248 13.3987 169.779 15.2884C171.32 16.4385 172.267 20.264 171.444 21.9237C171.179 22.4615 170.733 22.4155 170.296 22.4191C169.121 22.4297 167.95 22.4226 166.775 22.4226V22.4297H166.778ZM165.042 19.8393C165.321 19.8393 165.623 19.9066 165.878 19.8252C166.56 19.6058 167.805 20.4657 167.819 18.9794C167.832 17.6488 166.714 17.3445 165.68 17.1888C165.042 17.0932 164.478 17.4259 163.951 17.7585C163.317 18.1584 162.548 18.7175 162.729 19.4819C162.901 20.2038 163.804 19.719 164.374 19.8287C164.589 19.8712 164.821 19.8358 165.046 19.8358L165.042 19.8393Z" fill="#B9B9B9"/>
<path d="M101.082 22.4156C99.9102 22.4156 98.7352 22.4085 97.5636 22.4191C97.1876 22.4191 96.7109 22.3094 96.5564 22.8084C96.4255 23.2224 96.6638 23.6082 96.8988 23.9443C97.7281 25.1334 99.6685 25.3776 101.199 24.5707C101.656 24.3301 101.978 23.5197 102.619 23.9408C103.324 24.4044 103.976 24.9812 104.583 25.5828C104.929 25.9261 104.53 26.1915 104.315 26.4392C102.022 29.0862 96.4389 29.1074 94.0721 26.4746C91.4401 23.548 92.4506 17.8541 96.0495 15.4088C97.8825 14.1632 99.927 13.8234 102.002 14.3366C105.765 15.2708 106.369 18.6468 105.789 21.7928C105.664 22.4581 105.218 22.4085 104.775 22.4121C103.546 22.4191 102.317 22.4121 101.089 22.4121L101.082 22.4156ZM99.4369 19.8252C99.9941 19.8252 100.551 19.8394 101.109 19.8217C101.535 19.8075 102.119 19.9986 102.267 19.4183C102.395 18.9157 102.196 18.3389 101.82 17.9709C100.719 16.888 99.4973 16.9836 98.2854 17.7409C97.6542 18.1337 96.8653 18.7423 97.0264 19.4501C97.2077 20.2428 98.1679 19.6837 98.7688 19.8181C98.9803 19.8677 99.2119 19.8252 99.4369 19.8252Z" fill="#B9B9B9"/>
<path d="M49.8719 14.1702C54.0381 14.1879 55.6361 16.1024 55.0721 20.2604C54.7632 22.5288 54.4074 24.7865 54.0582 27.0478C53.9038 28.0457 51.2986 28.6721 50.4728 27.7308C49.9558 27.1398 49.7443 27.2849 49.3045 27.5751C48.2705 28.2652 47.1324 28.4562 45.9305 28.3359C44.5071 28.1908 43.2415 27.6565 42.7681 26.149C42.2545 24.5034 42.429 22.8933 43.7283 21.6016C45.4538 19.8853 47.6729 19.8464 49.8282 19.5633C50.362 19.4925 51.2281 19.9172 51.2584 18.8803C51.2852 17.9638 50.6373 17.5603 49.8282 17.4754C48.7405 17.3586 47.7132 17.6028 46.7698 18.1761C45.202 19.1316 45.249 17.3409 44.6884 16.7429C43.9062 15.9148 44.957 15.66 45.3766 15.4123C46.8068 14.563 48.3544 14.0888 49.8719 14.1773V14.1702ZM49.6939 22.1749C48.8613 22.2952 47.9616 22.3023 47.1626 22.7694C46.5886 23.1056 46.2293 23.594 46.3435 24.3336C46.4643 25.1263 47.0586 25.3386 47.6763 25.4058C49.0561 25.558 50.0196 24.8325 50.6339 23.601C51.1106 22.642 51.2013 21.8281 49.6939 22.1714V22.1749Z" fill="#B9B9B9"/>
<path d="M126.969 28.3713C123.723 28.3536 122.514 26.9487 122.907 23.824C123.112 22.1926 123.427 20.5754 123.759 18.9653C123.924 18.1655 123.86 17.7125 122.944 17.7692C122.477 17.7975 121.732 17.9142 121.96 17.0756C122.195 16.2192 121.695 14.7329 122.984 14.655C124.266 14.5772 124.585 14.0605 124.679 12.8821C124.73 12.2487 124.599 11.2366 125.378 11.1021C126.462 10.911 127.654 10.8508 128.694 11.1516C129.386 11.3498 128.802 12.2982 128.694 12.8644C128.466 14.0428 128.486 14.8213 129.97 14.609C130.373 14.5524 131.316 14.2162 130.994 15.3345C130.742 16.2121 131.347 17.847 129.779 17.7196C128.053 17.5781 127.714 18.4804 127.577 19.9137C127.486 20.8479 127.325 21.7786 127.12 22.6951C126.804 24.1106 126.999 25.0838 128.664 24.9281C129.191 24.8786 129.44 25.0909 129.319 25.6111C129.111 26.5099 129.621 27.745 128.365 28.1696C127.845 28.3466 127.264 28.3324 126.976 28.3713H126.969Z" fill="#B9B9B9"/>
<path d="M18.3785 11.9797C19.5467 12.0257 20.7184 12.0859 21.8867 12.1177C24.4784 12.1921 25.6064 13.6323 25.1398 16.4032C24.3609 21.0319 23.525 25.65 22.7193 30.2717C22.5279 31.3687 22.3634 32.4728 22.1586 33.5663C21.8095 35.4348 20.7217 36.4433 18.8955 36.4681C15.7666 36.507 12.6344 36.5106 9.50549 36.4681C7.09842 36.4362 5.83948 34.7589 6.2457 32.2746C6.65191 29.7904 7.03127 27.2991 7.4207 24.8149C7.53485 24.461 7.64899 24.1036 7.76313 23.7497L7.75306 23.7709C8.11228 23.7285 8.47149 23.686 8.83071 23.6436C10.6066 23.6825 12.3826 23.7037 14.1585 23.7639C14.8904 23.7886 15.3503 23.4772 15.4443 22.7129C15.8304 19.528 16.7234 16.428 16.9147 13.2077C17.331 13.1865 17.7473 13.1652 18.1602 13.144C17.5828 16.6085 16.9852 20.0694 16.438 23.5409C16.2769 24.5636 15.7767 24.8857 14.8333 24.8503C13.1614 24.7901 11.4829 24.8432 9.80764 24.829C9.13285 24.822 8.59571 24.9458 8.46813 25.7916C8.12235 28.0529 7.66913 30.2965 7.41735 32.5684C7.1857 34.6456 7.7262 35.187 9.77071 35.2047C12.5605 35.2295 15.3537 35.2189 18.1468 35.2083C20.4599 35.2012 20.7889 34.911 21.2085 32.4693C22.1519 26.9842 23.0852 21.4955 24.0218 16.0069C24.334 14.1809 23.6391 13.2502 21.8363 13.1758C20.611 13.1263 19.3789 13.1546 18.1535 13.1511C18.0965 12.73 18.1737 12.3372 18.3852 11.9727L18.3785 11.9797Z" fill="#B9B9B9"/>
<path d="M18.1601 13.1476C17.7438 13.1688 17.3275 13.19 16.9112 13.2113C15.2427 13.1936 13.5708 13.2219 11.9057 13.1369C10.9221 13.0839 10.5561 13.4661 10.4017 14.4852C9.93505 17.5498 9.36097 20.5932 8.83054 23.6436C8.47133 23.6861 8.11211 23.7285 7.7529 23.771C8.35047 20.4233 8.98162 17.0827 9.52883 13.7244C9.72019 12.5637 10.0861 12.001 11.3451 12.1107C12.9531 12.2558 14.5813 12.1107 16.2029 12.1602C17.0254 12.185 17.3946 11.8913 17.5289 11.0031C17.8512 8.85503 18.2709 6.72468 18.6435 4.58726C18.9859 2.63032 18.2876 1.61469 16.4244 1.5793C13.3526 1.52268 10.2808 1.55099 7.20904 1.56868C5.84939 1.57576 5.04032 2.28351 4.79189 3.73795C3.8116 9.4637 2.80445 15.1859 1.82081 20.9152C1.5153 22.6881 2.19345 23.64 3.90896 23.7462C5.18803 23.8241 6.47718 23.7533 7.75961 23.7497C7.64547 24.1036 7.53133 24.461 7.41718 24.8149C6.18846 24.8008 4.95303 24.8503 3.72767 24.7548C1.5858 24.592 0.444373 23.1411 0.81366 20.9435C1.81073 15.0302 2.85481 9.13105 3.9056 3.22837C4.20103 1.56514 5.25182 0.606134 6.81625 0.567207C10.113 0.485815 13.4164 0.47166 16.7098 0.563668C18.9087 0.623828 19.9897 2.15258 19.6339 4.50587C19.2545 7.00425 18.7979 9.48847 18.3783 11.9798C18.1668 12.3407 18.0896 12.7335 18.1466 13.1582L18.1567 13.1476H18.1601Z" fill="#B9B9B9"/>
</g>
<defs>
<clipPath id="clip0_524_5461">
<rect width="171" height="36" fill="white" transform="translate(0.75 0.5)"/>
</clipPath>
</defs>
</svg>
