<svg width="165" height="35" viewBox="0 0 165 35" fill="none" xmlns="http://www.w3.org/2000/svg">
<g clip-path="url(#clip0_524_5353)">
<path d="M31.317 9.52916C31.6992 9.23217 32.0569 8.95271 32.4402 8.65352C32.1629 8.23597 31.892 7.82719 31.59 7.37348C31.9145 7.36033 32.1918 7.34498 32.4691 7.33841C33.5902 7.31211 34.7103 7.28909 35.8314 7.26498C35.9491 7.26279 36.068 7.26498 36.2308 7.26498C35.7243 8.73352 35.2317 10.1626 34.721 11.6443C34.3462 11.1741 34.0025 10.7434 33.6406 10.2897C33.1491 10.6799 32.6651 11.0646 32.1864 11.4437C33.8761 16.4664 33.6041 21.3224 31.0321 25.9483C28.9891 29.6241 25.9706 32.1776 22.0601 33.5551C14.0357 36.3837 5.37531 32.6653 1.69291 24.9488C-1.97128 17.2708 0.464733 8.01569 7.52971 3.26814C10.1606 1.50041 13.0613 0.584216 16.2094 0.50531C19.3468 0.426403 22.2796 1.18807 24.9919 2.80675C27.7106 4.42982 29.8008 6.68195 31.317 9.52916ZM28.9441 11.3758C28.9109 11.3024 28.8906 11.2542 28.867 11.207C28.1978 9.86232 27.3519 8.64913 26.3015 7.58718C24.071 5.33177 21.4027 3.99255 18.2889 3.59034C16.7898 3.39636 15.2982 3.45554 13.8227 3.77994C10.6831 4.47037 8.07152 6.077 6.03919 8.62064C3.74345 11.4942 2.75084 14.8093 2.96392 18.5081C2.96928 18.5947 2.99176 18.6801 3.00247 18.747C4.55188 17.3902 6.08416 16.0477 7.63036 14.6943C8.46556 15.4691 9.28364 16.2286 10.1017 16.9869C10.1178 16.9782 10.1338 16.9694 10.151 16.9595V9.72753C10.484 9.66835 13.4457 9.68259 13.6213 9.74068C13.6235 9.74835 13.6278 9.75712 13.6278 9.76479C13.631 11.2629 13.6331 12.76 13.6353 14.2581C13.6353 14.2756 13.6385 14.2932 13.6428 14.3096C13.6438 14.3173 13.6492 14.3249 13.6545 14.3293C13.661 14.3348 13.6706 14.3359 13.6931 14.3458C15.1365 13.2279 16.5874 12.1046 18.0704 10.9572C18.1422 11.0481 18.1968 11.127 18.261 11.1972C18.9891 11.9983 19.7216 12.7961 20.4443 13.6027C20.5471 13.7178 20.6499 13.7638 20.7977 13.7627C21.5943 13.7572 22.3899 13.7605 23.1866 13.7605C23.2776 13.7605 23.3686 13.7605 23.4907 13.7605C23.4907 14.0816 23.4864 14.3688 23.4907 14.6548C23.496 14.9463 23.4693 15.2389 23.5142 15.5721C25.3421 14.1594 27.1345 12.7731 28.9431 11.3758H28.9441ZM23.4918 29.6164C25.2971 28.5314 26.7533 27.1538 27.9023 25.442C29.5823 22.94 30.3693 20.1618 30.3222 17.1294C30.304 15.9524 29.9442 13.8077 29.6862 13.4372C29.6316 13.4789 29.577 13.5194 29.5234 13.5622C27.5843 15.1041 25.6462 16.6494 23.7016 18.1848C23.5399 18.313 23.4875 18.4434 23.4875 18.6451C23.4928 22.1838 23.4907 25.7226 23.4907 29.2613V29.6164H23.4918ZM20.0042 31.086C20.0042 30.9677 20.0042 30.8734 20.0042 30.7792C20.0042 29.509 20.0042 28.2399 20.0042 26.9697C20.0042 23.5011 20.0032 20.0336 20.0075 16.565C20.0075 16.3787 19.9668 16.2395 19.8329 16.1003C19.4239 15.6773 19.033 15.2356 18.6336 14.8028C18.3477 14.4926 18.0586 14.1858 17.7674 13.8745C17.701 13.9194 17.6496 13.9501 17.6014 13.9863C16.3283 14.9485 15.0573 15.914 13.7798 16.8719C13.6567 16.9639 13.6321 17.0637 13.6321 17.2028C13.6353 18.1662 13.6342 19.1295 13.6342 20.0928C13.6342 23.683 13.6342 27.2744 13.6342 30.8646C13.6342 30.9666 13.6342 31.0674 13.6342 31.1869C14.1375 31.2712 14.6075 31.349 15.1119 31.4334V23.9636C15.1119 23.1318 15.1119 22.3 15.1119 21.4671C15.1119 20.6473 15.1129 19.8287 15.114 19.0144C15.5627 18.9552 18.3991 18.9771 18.5865 19.0396V27.2569C18.5865 27.9396 18.5844 28.6235 18.5865 29.3062C18.5897 29.9835 18.5737 30.6619 18.5972 31.3743C19.0823 31.2745 19.532 31.1825 20.0032 31.086H20.0042ZM3.34405 20.8709C4.24671 24.9028 7.18492 28.3155 10.136 29.7972V19.6698C10.0685 19.695 10.0096 19.7158 9.94859 19.7388C9.11445 18.9465 8.28782 18.1618 7.45368 17.3705C6.07988 18.541 4.71999 19.7005 3.34512 20.872L3.34405 20.8709Z" fill="#B9B9B9"/>
<path d="M89.0499 1.51709C90.0853 4.19882 91.1197 6.88055 92.1787 9.62365C93.182 6.93535 94.1629 4.30622 95.1512 1.65956H97.1953C97.1621 1.75381 97.1364 1.83381 97.1064 1.91162C95.9917 4.80815 94.8771 7.70578 93.7624 10.6023C93.318 11.7574 92.8715 12.9125 92.425 14.0676C92.3297 14.3142 92.3275 14.3142 92.0791 14.3142C91.7547 14.3142 91.4292 14.3142 91.0747 14.3142C90.2288 12.2144 89.3797 10.107 88.5145 7.96004C87.6954 10.107 86.9041 12.2298 86.0271 14.3175H84.6961C83.045 10.1245 81.3403 5.94025 79.7823 1.66175H82.6402C83.7314 4.29855 84.8193 6.93096 85.9222 9.59844C86.4511 8.24388 86.9512 6.89589 87.4641 5.55338C87.977 4.21197 88.4835 2.86727 88.9932 1.52367C89.0124 1.52147 89.0317 1.52038 89.051 1.51819L89.0499 1.51709Z" fill="#B9B9B9"/>
<path d="M98.7404 13.9864C98.7361 13.8822 98.7286 13.7968 98.7286 13.7113C98.7286 9.74293 98.7286 5.77458 98.7286 1.80623C98.7286 1.77993 98.7286 1.75363 98.7286 1.72733C98.734 1.50595 98.7404 1.49828 98.9685 1.4939C99.2597 1.48951 99.551 1.48732 99.8412 1.48294C100.842 1.46869 101.844 1.44129 102.845 1.44348C104.097 1.44677 105.339 1.56623 106.55 1.92131C107.559 2.21721 108.48 2.68407 109.251 3.42601C110.269 4.40577 110.868 5.60691 111.01 7.03271C111.184 8.76865 110.704 10.3051 109.615 11.64C108.913 12.5003 108.02 13.0866 106.999 13.4778C106.044 13.8428 105.058 14.0269 104.036 14.0269C103.498 14.0269 102.958 14.051 102.42 14.0477C101.307 14.0401 100.195 14.0203 99.082 14.005C98.9728 14.0039 98.8636 13.9929 98.7393 13.9853L98.7404 13.9864ZM101.825 12.646C101.899 12.6614 101.948 12.6778 101.999 12.6811C102.632 12.7118 103.263 12.7392 103.895 12.6548C105.426 12.4488 106.495 11.6049 107.131 10.1835C107.634 9.06017 107.735 7.87766 107.535 6.66557C107.386 5.75924 107.047 4.93949 106.451 4.23919C105.809 3.48519 105.026 3.00079 104.048 2.85175C103.434 2.75859 102.821 2.78051 102.208 2.84079C102.082 2.85284 101.958 2.87367 101.825 2.8923V12.646Z" fill="#B9B9B9"/>
<path d="M152.679 13.9699V13.6839C152.679 9.72651 152.679 5.76802 152.679 1.81064C152.679 1.45994 152.679 1.46104 153.02 1.45884C154.321 1.45008 155.621 1.43035 156.922 1.43254C158.158 1.43473 159.381 1.56624 160.571 1.92571C161.779 2.28956 162.836 2.90547 163.659 3.89837C164.411 4.80471 164.839 5.85131 164.967 7.03491C165.226 9.4591 163.972 12.0521 161.503 13.2214C160.399 13.7431 159.238 14.0028 158.025 14.0138C156.972 14.0236 155.92 14.0247 154.867 14.0258C154.269 14.0258 153.669 14.0214 153.07 14.0138C152.945 14.0127 152.821 13.9864 152.679 13.971V13.9699ZM155.774 12.6362C156.443 12.7129 157.09 12.725 157.74 12.6493C159.215 12.4784 160.317 11.7375 160.974 10.3764C161.768 8.72922 161.799 7.03053 161.096 5.34828C160.63 4.23373 159.832 3.42165 158.695 3.00629C158.073 2.77834 157.424 2.74108 156.771 2.77286C156.441 2.7893 156.111 2.83094 155.774 2.86163V12.6362Z" fill="#B9B9B9"/>
<path d="M77.0369 32.5294V32.1952C77.0369 28.2542 77.0369 24.3122 77.0369 20.3712C77.0369 20.0063 77.0369 20.0085 77.3838 20.0052C78.1023 19.9997 78.8218 19.9931 79.5403 19.9855C79.9933 19.98 80.4473 19.9614 80.9002 19.9636C81.8853 19.9701 82.8662 20.0282 83.8363 20.2134C84.9049 20.4184 85.9254 20.7592 86.8334 21.3883C88.25 22.3713 89.1045 23.7127 89.2855 25.475C89.46 27.1704 89.0713 28.7079 88.0284 30.0505C87.3109 30.9732 86.373 31.5793 85.3 31.9859C84.3256 32.3541 83.3223 32.5262 82.2847 32.5207C81.0437 32.5141 79.8027 32.5262 78.5606 32.5294C78.0659 32.5305 77.5701 32.5294 77.0369 32.5294ZM80.1004 31.1815C80.8381 31.3075 81.5523 31.3239 82.2665 31.1957C83.5418 30.9677 84.543 30.3179 85.2005 29.1595C85.6063 28.4449 85.8236 27.669 85.8975 26.8471C86.0003 25.7128 85.8408 24.6245 85.3086 23.6196C84.7636 22.5894 83.9744 21.8277 82.8469 21.4946C82.138 21.2852 81.4121 21.2798 80.6839 21.3455C80.4912 21.3631 80.2984 21.3872 80.1014 21.4091V31.1815H80.1004Z" fill="#B9B9B9"/>
<path d="M71.8243 14.3405C69.6913 14.3317 67.886 13.5361 66.4512 11.9218C65.5539 10.9124 65.0849 9.69487 64.9542 8.3403C64.8107 6.8608 65.1116 5.48541 65.9051 4.23606C66.706 2.97575 67.8464 2.16147 69.2159 1.66611C70.1775 1.31761 71.1722 1.1587 72.1895 1.20035C73.1853 1.24089 74.165 1.4009 75.0902 1.79982C77.1868 2.70396 78.4985 4.30949 78.9128 6.58572C79.3005 8.7173 78.6891 10.6067 77.2403 12.1914C76.2488 13.2764 75.0067 13.9021 73.5847 14.1662C73.0032 14.2736 72.4175 14.3449 71.8254 14.3405H71.8243ZM75.5613 7.68494C75.5752 7.11177 75.5506 6.53641 75.4521 5.96433C75.3236 5.21582 75.0923 4.50675 74.6886 3.86454C73.8973 2.60642 72.5053 2.02558 71.1337 2.39929C70.1967 2.65464 69.5264 3.26397 69.0607 4.12099C68.6805 4.81909 68.4835 5.57418 68.3925 6.36435C68.2683 7.43945 68.2501 8.51236 68.4653 9.5776C68.6398 10.4434 68.9439 11.2577 69.4825 11.9612C70.6497 13.4857 72.6542 13.6621 74.0526 12.3613C74.6522 11.8034 75.0056 11.0889 75.2454 10.3097C75.5089 9.45705 75.5838 8.58031 75.5613 7.68494Z" fill="#B9B9B9"/>
<path d="M53.376 1.5028C53.482 1.5028 53.5752 1.5028 53.6683 1.5028C54.6267 1.50609 55.5861 1.49623 56.5444 1.51486C57.4246 1.53239 58.3069 1.55541 59.185 1.62007C60.169 1.6913 61.0481 2.08693 61.7977 2.73134C62.8899 3.67055 63.0408 5.34074 62.1799 6.52762C61.9422 6.85531 61.6477 7.12162 61.3126 7.33751C60.9732 7.5567 60.6241 7.76164 60.2793 7.97315C60.1926 8.02685 60.1069 8.08274 59.9998 8.15179C61.4261 10.1179 62.8406 12.0675 64.2808 14.0523C64.1084 14.0632 63.9831 14.0775 63.8589 14.0764C62.9862 14.072 62.1125 14.0621 61.2398 14.061C61.0813 14.061 60.956 14.0084 60.8543 13.8911C60.7526 13.7728 60.6498 13.6555 60.5577 13.5295C59.4248 11.9689 58.2866 10.4127 57.1676 8.84222C56.9449 8.52988 56.6868 8.50029 56.3474 8.56166V14.0413H53.3846C53.3278 13.8605 53.3128 1.82939 53.3749 1.50171L53.376 1.5028ZM56.3603 7.22025C56.4256 7.23778 56.4748 7.26299 56.523 7.2608C56.8807 7.24436 57.2415 7.24107 57.597 7.19724C58.02 7.14463 58.4119 6.98791 58.7352 6.6953C59.5994 5.9161 59.9035 4.60866 58.9772 3.43273C58.7203 3.10614 58.3872 2.9023 57.9889 2.81792C57.4728 2.70942 56.9503 2.75216 56.4309 2.7949C56.4084 2.79709 56.3892 2.8212 56.3603 2.83983V7.22025Z" fill="#B9B9B9"/>
<path d="M110.095 26.6586C111.524 28.629 112.939 30.5787 114.393 32.582C114.24 32.582 114.15 32.582 114.06 32.582C113.196 32.5788 112.331 32.5667 111.467 32.5755C111.181 32.5788 110.976 32.4779 110.81 32.2478C110.231 31.4445 109.646 30.6455 109.065 29.8444C108.463 29.0148 107.849 28.194 107.267 27.3512C107.049 27.0345 106.787 27.0071 106.446 27.0684V32.5459H103.482C103.423 32.3574 103.412 20.3022 103.473 20.0282C103.501 20.0227 103.533 20.0096 103.565 20.0096C104.686 20.0118 105.809 20.003 106.93 20.0205C107.647 20.0315 108.365 20.0808 109.082 20.1115C110.118 20.1575 111.038 20.5411 111.838 21.1932C113.14 22.2562 113.154 24.3199 111.893 25.4673C111.5 25.8246 111.043 26.0843 110.593 26.3539C110.432 26.4503 110.274 26.549 110.094 26.6586H110.095ZM106.462 25.7687C106.714 25.7687 106.936 25.7774 107.157 25.7665C107.612 25.7435 108.06 25.6766 108.471 25.4552C109.483 24.9062 110.226 23.3061 109.022 21.8825C108.804 21.6239 108.532 21.4496 108.208 21.3609C107.643 21.2063 107.073 21.248 106.502 21.3181C106.49 21.3192 106.478 21.3389 106.462 21.3532V25.7687Z" fill="#B9B9B9"/>
<path d="M147.658 9.32556V1.57079H149.548C149.6 1.7571 149.622 13.7213 149.569 14.2112C149.535 14.2189 149.496 14.2342 149.457 14.2342C149.064 14.2441 148.67 14.2441 148.277 14.2638C148.104 14.2726 147.993 14.209 147.884 14.0775C146.831 12.8084 145.779 11.5404 144.716 10.2801C143.504 8.84007 142.284 7.40769 141.066 5.97312C140.983 5.87449 140.89 5.78243 140.791 5.67503C140.714 5.77695 140.746 5.88435 140.746 5.9808C140.744 8.56499 140.744 11.1492 140.744 13.7334V14.0611C140.105 14.0611 139.493 14.0611 138.881 14.0611C138.828 13.8747 138.815 1.82943 138.869 1.5412C138.89 1.53353 138.914 1.51709 138.937 1.51709C139.433 1.52147 139.93 1.53682 140.426 1.53024C140.665 1.52695 140.831 1.63764 140.979 1.80751C141.551 2.45959 142.124 3.10947 142.696 3.76045C144.279 5.56544 145.862 7.37153 147.444 9.17761C147.494 9.2346 147.54 9.29707 147.587 9.35625C147.611 9.34638 147.635 9.33652 147.659 9.32556H147.658Z" fill="#B9B9B9"/>
<path d="M45.5025 20.0503C46.085 19.9911 46.6483 20.0086 47.2115 20.0481C47.4021 20.0612 47.5199 20.1894 47.6344 20.3188C48.0553 20.7922 48.4729 21.2667 48.8894 21.7435C50.6037 23.6986 52.318 25.6548 54.0323 27.6111C54.1051 27.6943 54.1833 27.7744 54.3054 27.9059C54.3097 27.7568 54.3139 27.667 54.3139 27.5782C54.3139 25.1869 54.3139 22.7945 54.3139 20.4032C54.3139 20.3012 54.3139 20.1993 54.3139 20.0842H56.2296V32.6994C56.2146 32.7115 56.2017 32.7301 56.1878 32.7301C55.7263 32.7455 55.2648 32.7553 54.8033 32.774C54.6876 32.7783 54.6373 32.7005 54.5774 32.6293C54.027 31.9696 53.4798 31.3076 52.9262 30.6512C51.2055 28.6073 49.4815 26.5655 47.7587 24.5249C47.6612 24.4088 47.5531 24.3025 47.4492 24.1907C47.4331 24.1983 47.416 24.206 47.4 24.2137V32.569H45.5015V20.0547L45.5025 20.0503Z" fill="#B9B9B9"/>
<path d="M51.0064 4.52983C50.5534 4.85641 50.1208 5.16766 49.669 5.49315C49.5276 5.33533 49.3884 5.18409 49.2535 5.02847C48.8156 4.52435 48.3776 4.02022 47.8454 3.61473C47.0563 3.01416 46.1814 2.65031 45.1888 2.77744C43.6223 2.9769 42.4284 3.76597 41.8287 5.30026C41.182 6.95511 41.1477 8.63955 41.8983 10.2725C42.5183 11.6205 43.5837 12.4468 45.0293 12.678C46.2189 12.8676 47.2726 12.4819 48.1367 11.6402C48.6057 11.1832 49.0008 10.6484 49.4291 10.1486C49.4901 10.0774 49.549 10.0029 49.6219 9.91521C50.0512 10.2407 50.4678 10.5574 50.8929 10.8807C50.6359 11.3092 50.3489 11.6895 50.0373 12.0501C49.1346 13.0956 48.05 13.8562 46.7029 14.1367C44.2776 14.6419 42.0397 14.2321 40.0984 12.575C38.958 11.6018 38.2095 10.3799 38.0264 8.85654C37.7962 6.94306 38.1453 5.1567 39.3328 3.61035C40.0395 2.69086 40.9764 2.0903 42.0472 1.70234C43.2379 1.27164 44.4618 1.04588 45.7253 1.14451C47.4118 1.27712 48.8316 1.99714 49.9752 3.2717C50.3318 3.66953 50.6551 4.09913 51.0064 4.52983Z" fill="#B9B9B9"/>
<path d="M124.791 1.51267H127.794C127.797 1.62227 127.802 1.72309 127.802 1.82501C127.802 4.28646 127.802 6.74791 127.802 9.20936C127.802 9.7639 127.843 10.3119 128.021 10.8401C128.355 11.8341 128.96 12.5706 129.972 12.8698C131.968 13.4616 133.748 12.187 133.98 10.1891C134.003 9.98966 134.015 9.78801 134.016 9.58746C134.021 7.96658 134.025 6.3468 134.026 4.72593C134.026 3.76261 134.02 2.79929 134.018 1.83597C134.018 1.73953 134.018 1.64419 134.018 1.55322C134.209 1.49295 135.411 1.47322 135.94 1.52035C135.948 1.58172 135.963 1.64747 135.963 1.71323C135.964 4.23605 135.97 6.75887 135.958 9.2806C135.956 9.80335 135.935 10.3349 135.84 10.8467C135.608 12.0927 134.881 12.975 133.78 13.5317C132.651 14.1027 131.457 14.4139 130.19 14.3734C128.936 14.3328 127.754 14.0062 126.68 13.3355C125.583 12.6495 124.938 11.6423 124.821 10.3228C124.765 9.68828 124.774 9.04607 124.759 8.40824C124.747 7.90083 124.735 7.39341 124.737 6.886C124.744 5.13471 124.758 3.38342 124.771 1.63213C124.771 1.59925 124.782 1.56528 124.79 1.51267H124.791Z" fill="#B9B9B9"/>
<path d="M58.7469 29.2057C58.8347 29.2057 58.9022 29.2057 58.9697 29.2057C59.4922 29.2057 60.0147 29.2166 60.5362 29.2002C60.7257 29.1947 60.8135 29.2703 60.8842 29.4314C60.9891 29.6703 61.0973 29.9103 61.2258 30.1361C61.5706 30.7432 62.0503 31.1871 62.7356 31.3493C63.2795 31.4775 63.8246 31.449 64.361 31.3C64.6533 31.2189 64.9157 31.072 65.1298 30.8452C65.5314 30.42 65.6352 29.9257 65.4478 29.369C65.3301 29.0205 65.1116 28.7421 64.8525 28.4933C64.3235 27.9848 63.7025 27.6122 63.0739 27.256C62.3629 26.8538 61.6337 26.4856 60.9249 26.079C60.5983 25.8916 60.2867 25.668 59.9944 25.428C58.521 24.2159 58.7159 21.8421 60.1357 20.79C60.8275 20.2772 61.6027 19.9648 62.4347 19.8015C63.4112 19.6108 64.376 19.6985 65.3279 19.9769C66.6139 20.3539 67.4984 21.1955 68.0434 22.4285C68.1312 22.6279 68.2008 22.835 68.2768 23.0389C68.2886 23.0696 68.2865 23.1057 68.2918 23.1507H66.4126C66.327 22.9742 66.2381 22.7967 66.1546 22.617C65.98 22.2432 65.7659 21.8958 65.4714 21.6076C64.8975 21.0454 64.2004 20.8788 63.4327 20.9654C63.0311 21.0103 62.6414 21.1068 62.2805 21.3051C61.4635 21.7534 61.2675 22.789 61.894 23.4849C62.1531 23.7721 62.4582 24.0219 62.7656 24.2554C63.4198 24.7529 64.134 25.1496 64.8568 25.5321C65.4564 25.8499 66.055 26.1732 66.6268 26.5382C66.9566 26.7486 67.266 27.0171 67.5262 27.313C68.6687 28.6084 68.5413 30.4024 67.2468 31.563C66.5775 32.1625 65.7905 32.5099 64.9221 32.6567C63.9177 32.8266 62.909 32.8244 61.9111 32.6107C60.9816 32.4112 60.1754 31.9707 59.5543 31.22C59.1056 30.6775 58.8733 30.0331 58.7448 29.3438C58.7384 29.3109 58.7448 29.2747 58.7448 29.2035L58.7469 29.2057Z" fill="#B9B9B9"/>
<path d="M91.7858 32.5448V20.06C91.9764 20.0052 100.384 19.9811 100.872 20.0326C100.933 20.2046 100.947 20.711 100.897 21.0923C100.238 21.1175 99.5746 21.1 98.9107 21.1033C98.2425 21.1066 97.5754 21.1033 96.9073 21.1033H94.8878V25.1538H99.838V26.2881C99.5103 26.3111 99.1795 26.2947 98.8497 26.298C98.5242 26.3013 98.1986 26.298 97.8742 26.298H95.8965C95.5645 26.298 95.2326 26.298 94.8846 26.298V31.2275H100.875C100.933 31.4434 100.943 32.2368 100.895 32.5448H91.7868H91.7858Z" fill="#B9B9B9"/>
<path d="M116.542 13.9909C115.513 13.9909 114.515 13.9909 113.517 13.9909C113.466 13.8079 113.45 1.87654 113.503 1.5105H122.253C122.256 1.68146 122.261 1.85243 122.263 2.02339C122.265 2.18888 122.263 2.35327 122.263 2.54944H116.589V6.64162H121.561V7.76385H116.561C116.525 8.12989 116.549 8.46853 116.544 8.80608C116.54 9.15677 116.544 9.50747 116.544 9.85707V13.9909H116.542Z" fill="#B9B9B9"/>
<path d="M42.333 32.5405H39.4205C39.4066 32.5306 39.398 32.5263 39.3927 32.5197C39.3873 32.5131 39.3809 32.5054 39.3809 32.4978C39.3745 28.4341 39.3691 24.3693 39.3638 20.3056C39.3638 20.219 39.3638 20.1324 39.3638 20.0261H42.333V32.5416V32.5405Z" fill="#B9B9B9"/>
<path d="M73.8568 32.5525H70.9571C70.9025 32.3552 70.8811 20.5105 70.9325 20.0798C71.1199 20.0283 73.5527 20.0173 73.8568 20.0699V32.5525Z" fill="#B9B9B9"/>
</g>
<defs>
<clipPath id="clip0_524_5353">
<rect width="165" height="34" fill="white" transform="translate(0 0.5)"/>
</clipPath>
</defs>
</svg>
