<svg width="423" height="572" fill="none" xmlns="http://www.w3.org/2000/svg"><path d="M304.46 313.741c-.013-.149-.101-.277-.132-.421-.026-.158.005-.308-.039-.465l-8.599-28.498c-.039-.114-.127-.189-.157-.294-.044-.106-.031-.207-.075-.316l-13.021-28.252c-.061-.127-.162-.202-.232-.316-.062-.119-.075-.246-.145-.36l-17.438-25.8c-.075-.105-.176-.158-.259-.25-.075-.106-.105-.228-.193-.329l-20.146-21.624c-.105-.114-.245-.158-.359-.259-.114-.101-.172-.232-.294-.32l-21.633-15.947c-.14-.105-.316-.131-.465-.219-.145-.083-.246-.206-.395-.285l-21.869-9.823c-.237-.114-.496-.105-.751-.171-.263-.07-.495-.201-.78-.228l-19.553-1.693c-.027-.004-.044 0-.062-.004l-.285-.027c-.338-.044-.649.057-.969.097-.193.026-.382-.027-.579.03l-.158.04c-.075.026-.149.031-.233.061l-4.523 1.137c-.039 0-.057.026-.088.039-.039.004-.07 0-.1.004l-12.529 3.685c-.057.018-.088.057-.141.075-.302.101-.57.29-.855.447-.272.158-.553.29-.781.492-.044.039-.101.048-.141.088l-13.262 12.529c-.246.236-.382.539-.57.811-.149.228-.364.404-.478.663l-.027.048s0 .004-.004.013l-8.568 18.855c-.105.22-.096.452-.158.685-.07.245-.202.465-.232.728l-2.703 23.584c-.017.176.044.338.044.509 0 .171-.07.334-.048.505l2.702 26.532c.013.158.101.294.132.452.026.145 0 .285.039.426l8.599 28.498c.044.131.131.245.184.377.04.088.026.176.07.263l13.263 28.252c.07.145.175.259.263.391.044.083.048.171.101.245l17.438 25.801c.061.088.158.118.219.193.088.114.119.245.215.36l19.9 21.623c.101.114.237.145.346.246.119.114.185.25.316.351l21.87 16.215c.188.14.403.202.605.316.114.057.184.158.303.206l21.624 9.577c.215.1.434.074.653.131.246.075.465.206.737.237l20.146 2.216c.171.026.346.03.518.03h.004c.004 0 .018-.004.026-.004.448 0 .913-.07 1.373-.202l17.438-5.4c.049-.018.088-.062.141-.084.316-.105.583-.302.882-.478.236-.145.504-.263.71-.452.031-.03.075-.039.114-.07l8.845-8.353c.013-.013.017-.039.039-.057.013-.017.04-.017.057-.039l4.177-4.177c.026-.026.03-.057.057-.083.351-.373.662-.772.886-1.259l8.598-18.425c.088-.189.084-.391.141-.584.096-.289.232-.561.272-.882l2.702-23.83c.017-.176-.044-.333-.044-.509 0-.162.07-.32.048-.496l-2.724-26.778zm-9.296 49.783l-7.923 16.982-2.746 2.747-2.896.868-18.696-1.803-20.435-9.05-20.838-15.636-19.641-21.075-17.012-25.164-12.964-27.357-8.124-27.722-2.611-25.844 2.567-22.83 7.633-16.85 3.049-2.738 3.018-.754 18.32 1.583 20.65 9.283 20.873 15.42 19.615 21.049 17 25.151 12.717 27.589 8.384 27.778 2.606 25.809-2.546 22.564z" fill="#181816"/><path d="M458.838 379.047c-.049-.228-.075-.451-.158-.671-.048-.131-.127-.259-.184-.39-.04-.084-.04-.163-.084-.246-.096-.149-.237-.25-.338-.39-.105-.141-.144-.316-.272-.448l-48.66-53.986-16.416-55.364 19.014-45.866c.03-.088.017-.171.048-.25.03-.101.101-.176.127-.277.07-.232.039-.474.07-.71.04-.286.097-.553.075-.825-.005-.097.017-.171.004-.263-.017-.207-.131-.404-.184-.615-.083-.307-.145-.609-.29-.895-.039-.087-.03-.171-.083-.25 0 0-.013-.017-.018-.026.005-.009-.008-.013-.008-.026l-31.446-55.277c-.057-.096-.145-.14-.193-.228-.176-.263-.391-.478-.615-.706-.14-.141-.245-.334-.403-.452-.084-.062-.176-.097-.272-.145-.233-.158-.492-.259-.75-.377a.795.795 0 01-.128-.07c-.158-.062-.294-.171-.451-.22-.119-.03-.246-.026-.365-.048-.1-.018-.171-.075-.272-.096l-48.941-6.888-39.163-42.207-21.549-69.245c-.048-.158-.171-.272-.233-.416-.061-.15-.061-.316-.144-.461-.049-.096-.141-.145-.193-.237-.088-.132-.158-.272-.259-.39-.132-.171-.303-.294-.452-.439a4.215 4.215 0 00-.605-.509c-.088-.057-.132-.145-.229-.202L220.11 12.65c-.149-.097-.333-.101-.496-.171-.333-.145-.653-.286-1.018-.351-.245-.049-.491-.049-.741-.057a4.464 4.464 0 00-1.026.061c-.294.061-.562.171-.838.285-.193.088-.408.097-.606.202l-21.124 12.038c-.096.057-.14.14-.228.193-.118.083-.237.14-.351.228-.184.145-.333.334-.491.518-.176.184-.347.36-.478.566-.057.083-.132.127-.185.206-.039.048-.03.114-.061.162-.026.057-.088.097-.114.15L178.57 54.91l-21.291-2.189L107.873 1.39c-.088-.097-.206-.127-.303-.202a4.456 4.456 0 00-.794-.553c-.258-.14-.491-.276-.763-.373a4.971 4.971 0 00-.912-.188c-.294-.044-.566-.084-.86-.07-.294.013-.579.087-.869.149-.316.083-.623.162-.917.307-.105.057-.219.048-.329.114l-21.124 12.03v.004L49.556 30.544c-.114.062-.17.163-.272.233a4.324 4.324 0 00-.724.636 4.686 4.686 0 00-.566.654 4.21 4.21 0 00-.39.798c-.118.285-.228.553-.29.855-.056.286-.056.567-.07.86 0 .33.005.64.075.957.017.127-.013.232.026.36l18.957 68.862-9.226 20.245-30.854-2.448c-.132-.004-.246.049-.382.049-.382 0-.75.061-1.132.158-.22.061-.421.127-.636.206-.184.083-.382.088-.562.188l-21.123 12.04c-.115.07-.176.175-.286.245-.201.141-.408.259-.592.426-.118.114-.206.232-.307.36a3.82 3.82 0 00-.417.583c-.114.162-.232.316-.32.496-.061.145-.105.303-.158.452-.088.25-.132.509-.175.781-.027.144-.106.272-.119.421 0 .057.026.105.026.158-.004.057-.039.105-.039.162v51.837c0 .236.1.438.132.671.048.346.083.68.206 1.013.127.329.333.592.517.882.132.193.194.417.365.605l48.893 53.974L66.3 303.864l-18.786 45.892c-.04.097-.018.185-.057.277-.105.307-.14.627-.176.956-.04.285-.087.566-.07.856.018.289.105.561.171.842.088.32.158.627.307.926.044.096.04.175.088.263l31.446 55.276c.048.075.132.101.171.171.404.636.913 1.189 1.57 1.571.062.039.141.039.207.074.465.237.956.448 1.51.523l48.69 6.655 39.149 42.193 21.55 69.482c.158.517.403.973.706 1.395.031.039.083.07.114.114a4.77 4.77 0 001.149 1.031c.057.039.088.101.141.131l44.467 26.287c.013.004.03.004.044.018.026.013.048.013.07.026.031.026.07.031.105.048.044.026.07.061.114.088.075.031.141.017.206.048.606.259 1.233.426 1.869.426h.013c.755 0 1.483-.22 2.15-.566.048-.027.105-.013.145-.044h.004l21.369-12.038c.017-.014.031-.031.057-.044.465-.277.886-.65 1.246-1.084.101-.127.162-.246.25-.382.132-.184.276-.346.377-.548l13.753-28.388 21.523 2.786 49.204 51.139c.219.228.505.338.755.509.131.096.201.246.333.329.07.039.149.026.228.061.663.334 1.364.549 2.088.549h.014c.715 0 1.417-.22 2.075-.553.087-.048.175-.026.259-.075l.03-.013.005-.004.245-.14 21.093-12.126h.004l31.428-17.93c.114-.062.171-.163.272-.233.272-.175.483-.39.706-.609.132-.132.303-.22.409-.373.074-.101.114-.22.171-.321.158-.245.272-.495.39-.767.083-.176.202-.338.25-.522.04-.128.018-.246.044-.365.057-.276.061-.548.07-.837 0-.202.062-.395.04-.61-.014-.127-.088-.246-.114-.377-.027-.119.013-.237-.027-.365l-19.202-68.871 9.006-20.215 30.832 2.439c.127.004.246.013.373.013h.004c.637 0 1.229-.131 1.782-.364.118-.044.201-.132.32-.189.07-.039.14-.017.206-.057l21.369-12.038c.184-.105.294-.276.46-.395.259-.193.518-.381.729-.627.201-.233.351-.483.495-.75.149-.259.303-.505.395-.786.114-.307.149-.627.189-.956.031-.202.127-.382.127-.592v-52.083c0-.087-.048-.162-.048-.25 0-.228-.062-.465-.119-.724h.005zm-30.622 60.019l-29.064-2.295c-.013 0-.026.005-.044.005-.004 0-.013-.005-.017-.005l-15.232-.983c-.039 0-.061.014-.087.014-1.606-.075-3.08.71-4.019 2.048-.145.207-.333.382-.438.615-.014.026-.044.043-.057.074l-17.194 37.838c-.048.114-.039.232-.083.346a3.703 3.703 0 00-.193.684c-.039.185-.083.373-.097.566-.017.185-.004.373 0 .553.005.237.044.465.097.698.026.127-.004.245.026.377l18.68 66.753-25.098 14.71-47.783-49.652c-.15-.149-.351-.228-.518-.351a4.463 4.463 0 00-.785-.548c-.294-.149-.606-.228-.917-.316-.193-.057-.373-.171-.579-.193l-26.533-3.44c-.039-.004-.075.014-.114.014-.039-.005-.061-.027-.101-.031l-14.74-1.229c-.027 0-.04.005-.062.005-.522-.04-1.031.048-1.535.184-.088.026-.176.013-.259.04a4.53 4.53 0 00-1.57.873c-.246.206-.417.504-.623.772-.185.228-.395.425-.536.693-.013.026-.039.039-.048.061l-19.614 40.124-38.509-22.76-21.325-68.77c-.013-.04-.044-.057-.057-.097-.097-.289-.286-.539-.435-.811-.158-.285-.294-.579-.504-.816-.027-.031-.031-.07-.057-.097l-41.023-44.221c-.14-.149-.333-.219-.491-.36-.263-.214-.518-.425-.825-.592-.285-.145-.57-.219-.873-.302-.215-.071-.395-.189-.636-.22l-48.055-6.567-29.165-51.249 18.54-45.287c.083-.193.06-.395.118-.597.083-.316.158-.614.175-.943.018-.329-.03-.649-.083-.97-.04-.193.005-.39-.048-.596L58.874 244.59c-.013-.044-.048-.07-.061-.114-.097-.289-.285-.548-.426-.825-.158-.276-.285-.57-.478-.807-.03-.039-.04-.083-.07-.114L9.437 189.297v-44.963l44.585 3.089c.105.004.215.013.32.013h.008c.004 0 .017-.004.03-.004a4.748 4.748 0 001.536-.294c.149-.057.294-.132.438-.202.347-.158.654-.364.948-.606.127-.105.246-.193.364-.315a4.58 4.58 0 00.75-1.014c.057-.101.132-.184.184-.289.014-.031.04-.057.049-.088l5.646-12.775s0-.004.004-.004l11.275-24.77c.096-.202.083-.417.14-.623.101-.32.193-.627.228-.96.027-.334-.026-.654-.07-.974-.03-.215.013-.426-.048-.65L57.39 36.901l25.067-14.297 47.818 49.678c.158.158.364.228.526.364.132.1.233.22.373.307.075.044.119.114.184.15.101.056.202.07.294.118.294.14.597.201.913.285.219.048.403.171.64.193l41.023 4.176c.158.018.32.027.474.027h.008c.794 0 1.505-.26 2.172-.61a3.43 3.43 0 00.465-.29c.641-.438 1.202-.987 1.562-1.697.004-.014.013-.014.017-.018l6.598-13.196c.005-.004.005-.018.014-.03l.026-.045c.004-.004 0-.013.004-.017 0 0 .013-.013.013-.018l12.994-26.62 38.5 22.54 21.321 68.763c.013.043.048.07.061.114.049.158.145.302.22.447.057.127.048.246.118.364.031.057.097.075.132.132.127.202.258.39.403.57.049.062.07.141.127.202l41.269 44.221c.132.145.32.202.474.333.206.171.381.391.623.527.061.039.131.039.206.07a.374.374 0 01.048.018c.285.14.566.219.86.302.206.057.382.176.605.206l48.056 6.568 29.156 51.245-18.772 45.528c-.04.096-.027.175-.049.272a3.2 3.2 0 00-.158.636 4.121 4.121 0 00-.101.662c-.004.171-.013.347 0 .518.014.219.062.421.114.649.027.141-.004.277.04.408l17.193 57.979c.013.039.04.07.048.105.049.149.145.29.206.434.014.027.027.044.031.062.057.127.057.259.127.377.031.057.088.07.119.119.118.188.232.364.377.526.048.061.062.132.119.193l48.165 53.438.002 45.177z" fill="#181816"/></svg>