<svg width="301" height="245" viewBox="0 0 301 245" fill="none" xmlns="http://www.w3.org/2000/svg">
<g opacity="0.4">
<path d="M203.79 79.3933C229.313 88.8898 249.77 107.365 261.392 131.414C273.011 155.463 274.395 182.189 265.287 206.669C256.18 231.144 237.664 250.466 213.15 261.073L174.938 277.601C163.237 282.661 149.252 277.458 143.704 265.98C138.156 254.499 143.146 241.087 154.849 236.025L193.061 219.496C206.254 213.786 216.219 203.396 221.116 190.234C226.014 177.069 225.265 162.691 219.012 149.748C212.757 136.803 201.755 126.862 188.028 121.755C174.304 116.649 159.48 116.981 146.285 122.689L69.4141 155.944C57.7116 161.006 43.7267 155.803 38.1794 144.322C32.6321 132.841 37.6222 119.429 49.3248 114.367L126.196 81.1116C150.711 70.5087 178.266 69.8968 203.79 79.3933Z" fill="#F4F6FE"/>
<path d="M73.0111 27.4448C78.6912 29.5581 83.5963 33.7382 86.3907 39.4867C91.9761 50.9848 86.9843 64.401 75.2416 69.4519L36.8989 85.9413C9.60092 97.6835 -2.04493 128.984 10.9419 155.713C23.9252 182.444 56.6985 194.635 83.9985 182.895L161.13 149.718C172.873 144.667 186.921 149.894 192.507 161.392C198.092 172.89 193.1 186.306 181.358 191.357L104.224 224.531C53.4777 246.355 -7.44659 223.69 -31.5824 174.002C-55.7218 124.314 -34.0738 66.1313 16.6713 44.3029L55.017 27.8135C60.8866 25.2887 67.3337 25.3324 73.0111 27.4448Z" fill="#F4F6FE"/>
</g>
</svg>
