<svg width="92" height="76" viewBox="0 0 92 76" fill="none" xmlns="http://www.w3.org/2000/svg">
<path d="M89.75 0.5H2.25C2.04479 0.499947 1.84159 0.540325 1.65199 0.618829C1.4624 0.697333 1.29013 0.812425 1.14503 0.957527C0.999925 1.10263 0.884834 1.2749 0.80633 1.46449C0.727826 1.65409 0.687447 1.85729 0.6875 2.0625V73.9375C0.687447 74.1427 0.727826 74.3459 0.80633 74.5355C0.884834 74.7251 0.999925 74.8974 1.14503 75.0425C1.29013 75.1876 1.4624 75.3027 1.65199 75.3812C1.84159 75.4597 2.04479 75.5001 2.25 75.5H89.75C89.9552 75.5001 90.1584 75.4597 90.348 75.3812C90.5376 75.3027 90.7099 75.1876 90.855 75.0425C91.0001 74.8974 91.1152 74.7251 91.1937 74.5355C91.2722 74.3459 91.3126 74.1427 91.3125 73.9375V2.0625C91.3126 1.85729 91.2722 1.65409 91.1937 1.46449C91.1152 1.2749 91.0001 1.10263 90.855 0.957527C90.7099 0.812425 90.5376 0.697333 90.348 0.618829C90.1584 0.540325 89.9552 0.499947 89.75 0.5ZM22.5625 8.3125C22.5625 8.62153 22.4709 8.92363 22.2992 9.18058C22.1275 9.43753 21.8835 9.6378 21.5979 9.75606C21.3124 9.87432 20.9983 9.90527 20.6952 9.84498C20.3921 9.78469 20.1137 9.63587 19.8951 9.41735C19.6766 9.19883 19.5278 8.92042 19.4675 8.61733C19.4072 8.31423 19.4382 8.00007 19.5564 7.71456C19.6747 7.42905 19.875 7.18502 20.1319 7.01333C20.3889 6.84164 20.691 6.75 21 6.75C21.4144 6.75 21.8118 6.91462 22.1049 7.20765C22.3979 7.50067 22.5625 7.8981 22.5625 8.3125ZM16.3125 8.3125C16.3125 8.62153 16.2209 8.92363 16.0492 9.18058C15.8775 9.43753 15.6335 9.6378 15.3479 9.75606C15.0624 9.87432 14.7483 9.90527 14.4452 9.84498C14.1421 9.78469 13.8637 9.63587 13.6451 9.41735C13.4266 9.19883 13.2778 8.92042 13.2175 8.61733C13.1572 8.31423 13.1882 8.00007 13.3064 7.71456C13.4247 7.42905 13.625 7.18502 13.8819 7.01333C14.1389 6.84164 14.441 6.75 14.75 6.75C15.1644 6.75 15.5618 6.91462 15.8549 7.20765C16.1479 7.50067 16.3125 7.8981 16.3125 8.3125ZM8.5 6.75C8.80903 6.75 9.11113 6.84164 9.36808 7.01333C9.62503 7.18502 9.8253 7.42905 9.94356 7.71456C10.0618 8.00007 10.0928 8.31423 10.0325 8.61733C9.97219 8.92042 9.82337 9.19883 9.60485 9.41735C9.38633 9.63587 9.10792 9.78469 8.80483 9.84498C8.50173 9.90527 8.18757 9.87432 7.90206 9.75606C7.61655 9.6378 7.37252 9.43753 7.20083 9.18058C7.02914 8.92363 6.9375 8.62153 6.9375 8.3125C6.9375 7.8981 7.10212 7.50067 7.39515 7.20765C7.68817 6.91462 8.0856 6.75 8.5 6.75ZM3.8125 72.375V16.125H88.1875V72.375H3.8125ZM77.25 39.5625H49.125C48.9198 39.5624 48.7166 39.6028 48.527 39.6813C48.3374 39.7598 48.1651 39.8749 48.02 40.02C47.8749 40.1651 47.7598 40.3374 47.6813 40.527C47.6028 40.7166 47.5624 40.9198 47.5625 41.125V66.125C47.5624 66.3302 47.6028 66.5334 47.6813 66.723C47.7598 66.9126 47.8749 67.0849 48.02 67.23C48.1651 67.3751 48.3374 67.4902 48.527 67.5687C48.7166 67.6472 48.9198 67.6876 49.125 67.6875H77.25C77.4552 67.6876 77.6584 67.6472 77.848 67.5687C78.0376 67.4902 78.2099 67.3751 78.355 67.23C78.5001 67.0849 78.6152 66.9126 78.6937 66.723C78.7722 66.5334 78.8126 66.3302 78.8125 66.125V41.125C78.8126 40.9198 78.7722 40.7166 78.6937 40.527C78.6152 40.3374 78.5001 40.1651 78.355 40.02C78.2099 39.8749 78.0376 39.7598 77.848 39.6813C77.6584 39.6028 77.4552 39.5624 77.25 39.5625ZM72.0162 50.1239L61.0787 59.4989C60.78 59.755 60.3955 59.8889 60.0023 59.8738C59.609 59.8587 59.236 59.6956 58.9578 59.4172L54.2703 54.7297C53.9817 54.4358 53.8208 54.0398 53.8227 53.6279C53.8246 53.216 53.989 52.8215 54.2803 52.5303C54.5715 52.239 54.966 52.0746 55.3779 52.0727C55.7898 52.0708 56.1858 52.2317 56.4797 52.5203L60.1448 56.1847L69.9837 47.7512C70.1395 47.6177 70.3201 47.5163 70.5151 47.4526C70.7101 47.3889 70.9157 47.3643 71.1203 47.3801C71.3248 47.3959 71.5242 47.4518 71.7071 47.5447C71.89 47.6375 72.0529 47.7655 72.1863 47.9213C72.3198 48.0771 72.4212 48.2577 72.4849 48.4527C72.5486 48.6477 72.5732 48.8533 72.5574 49.0578C72.5416 49.2624 72.4857 49.4618 72.3928 49.6447C72.3 49.8276 72.172 49.9904 72.0162 50.1239ZM27.25 23.9375C27.2499 23.7323 27.2903 23.5291 27.3688 23.3395C27.4473 23.1499 27.5624 22.9776 27.7075 22.8325C27.8526 22.6874 28.0249 22.5723 28.2145 22.4938C28.4041 22.4153 28.6073 22.3749 28.8125 22.375H50.6875C51.1019 22.375 51.4993 22.5396 51.7924 22.8326C52.0854 23.1257 52.25 23.5231 52.25 23.9375C52.25 24.3519 52.0854 24.7493 51.7924 25.0424C51.4993 25.3354 51.1019 25.5 50.6875 25.5H28.8125C28.6073 25.5001 28.4041 25.4597 28.2145 25.3812C28.0249 25.3027 27.8526 25.1876 27.7075 25.0425C27.5624 24.8974 27.4473 24.7251 27.3688 24.5355C27.2903 24.3459 27.2499 24.1427 27.25 23.9375ZM78.8125 30.1875C78.8126 30.3927 78.7722 30.5959 78.6937 30.7855C78.6152 30.9751 78.5001 31.1474 78.355 31.2925C78.2099 31.4376 78.0376 31.5527 77.848 31.6312C77.6584 31.7097 77.4552 31.7501 77.25 31.75H28.8125C28.3981 31.75 28.0007 31.5854 27.7076 31.2924C27.4146 30.9993 27.25 30.6019 27.25 30.1875C27.25 29.7731 27.4146 29.3757 27.7076 29.0826C28.0007 28.7896 28.3981 28.625 28.8125 28.625H77.25C77.4552 28.6249 77.6584 28.6653 77.848 28.7438C78.0376 28.8223 78.2099 28.9374 78.355 29.0825C78.5001 29.2276 78.6152 29.3999 78.6937 29.5895C78.7722 29.7791 78.8126 29.9823 78.8125 30.1875ZM27.25 41.125C27.2499 40.9198 27.2903 40.7166 27.3688 40.527C27.4473 40.3374 27.5624 40.1651 27.7075 40.02C27.8526 39.8749 28.0249 39.7598 28.2145 39.6813C28.4041 39.6028 28.6073 39.5624 28.8125 39.5625H33.5C33.9144 39.5625 34.3118 39.7271 34.6049 40.0201C34.8979 40.3132 35.0625 40.7106 35.0625 41.125C35.0625 41.5394 34.8979 41.9368 34.6049 42.2299C34.3118 42.5229 33.9144 42.6875 33.5 42.6875H28.8125C28.6073 42.6876 28.4041 42.6472 28.2145 42.5687C28.0249 42.4902 27.8526 42.3751 27.7075 42.23C27.5624 42.0849 27.4473 41.9126 27.3688 41.723C27.2903 41.5334 27.2499 41.3302 27.25 41.125ZM42.875 47.375C42.8751 47.5802 42.8347 47.7834 42.7562 47.973C42.6777 48.1626 42.5626 48.3349 42.4175 48.48C42.2724 48.6251 42.1001 48.7402 41.9105 48.8187C41.7209 48.8972 41.5177 48.9376 41.3125 48.9375H28.8125C28.3981 48.9375 28.0007 48.7729 27.7076 48.4799C27.4146 48.1868 27.25 47.7894 27.25 47.375C27.25 46.9606 27.4146 46.5632 27.7076 46.2701C28.0007 45.9771 28.3981 45.8125 28.8125 45.8125H41.3125C41.5177 45.8124 41.7209 45.8528 41.9105 45.9313C42.1001 46.0098 42.2724 46.1249 42.4175 46.27C42.5626 46.4151 42.6777 46.5874 42.7562 46.777C42.8347 46.9666 42.8751 47.1698 42.875 47.375ZM27.25 58.3125C27.2499 58.1073 27.2903 57.9041 27.3688 57.7145C27.4473 57.5249 27.5624 57.3526 27.7075 57.2075C27.8526 57.0624 28.0249 56.9473 28.2145 56.8688C28.4041 56.7903 28.6073 56.7499 28.8125 56.75H38.1875C38.6019 56.75 38.9993 56.9146 39.2924 57.2076C39.5854 57.5007 39.75 57.8981 39.75 58.3125C39.75 58.7269 39.5854 59.1243 39.2924 59.4174C38.9993 59.7104 38.6019 59.875 38.1875 59.875H28.8125C28.6073 59.8751 28.4041 59.8347 28.2145 59.7562C28.0249 59.6777 27.8526 59.5626 27.7075 59.4175C27.5624 59.2724 27.4473 59.1001 27.3688 58.9105C27.2903 58.7209 27.2499 58.5177 27.25 58.3125ZM42.875 64.5625C42.8751 64.7677 42.8347 64.9709 42.7562 65.1605C42.6777 65.3501 42.5626 65.5224 42.4175 65.6675C42.2724 65.8126 42.1001 65.9277 41.9105 66.0062C41.7209 66.0847 41.5177 66.1251 41.3125 66.125H28.8125C28.3981 66.125 28.0007 65.9604 27.7076 65.6674C27.4146 65.3743 27.25 64.9769 27.25 64.5625C27.25 64.1481 27.4146 63.7507 27.7076 63.4576C28.0007 63.1646 28.3981 63 28.8125 63H41.3125C41.5177 62.9999 41.7209 63.0403 41.9105 63.1188C42.1001 63.1973 42.2724 63.3124 42.4175 63.4575C42.5626 63.6026 42.6777 63.7749 42.7562 63.9645C42.8347 64.1541 42.8751 64.3573 42.875 64.5625ZM22.5625 23.9375V30.1875C22.5626 30.3927 22.5222 30.5959 22.4437 30.7855C22.3652 30.9751 22.2501 31.1474 22.105 31.2925C21.9599 31.4376 21.7876 31.5527 21.598 31.6312C21.4084 31.7097 21.2052 31.7501 21 31.75H14.75C14.5448 31.7501 14.3416 31.7097 14.152 31.6312C13.9624 31.5527 13.7901 31.4376 13.645 31.2925C13.4999 31.1474 13.3848 30.9751 13.3063 30.7855C13.2278 30.5959 13.1874 30.3927 13.1875 30.1875V23.9375C13.1874 23.7323 13.2278 23.5291 13.3063 23.3395C13.3848 23.1499 13.4999 22.9776 13.645 22.8325C13.7901 22.6874 13.9624 22.5723 14.152 22.4938C14.3416 22.4153 14.5448 22.3749 14.75 22.375H21C21.2052 22.3749 21.4084 22.4153 21.598 22.4938C21.7876 22.5723 21.9599 22.6874 22.105 22.8325C22.2501 22.9776 22.3652 23.1499 22.4437 23.3395C22.5222 23.5291 22.5626 23.7323 22.5625 23.9375ZM22.5625 41.125V47.375C22.5626 47.5802 22.5222 47.7834 22.4437 47.973C22.3652 48.1626 22.2501 48.3349 22.105 48.48C21.9599 48.6251 21.7876 48.7402 21.598 48.8187C21.4084 48.8972 21.2052 48.9376 21 48.9375H14.75C14.5448 48.9376 14.3416 48.8972 14.152 48.8187C13.9624 48.7402 13.7901 48.6251 13.645 48.48C13.4999 48.3349 13.3848 48.1626 13.3063 47.973C13.2278 47.7834 13.1874 47.5802 13.1875 47.375V41.125C13.1874 40.9198 13.2278 40.7166 13.3063 40.527C13.3848 40.3374 13.4999 40.1651 13.645 40.02C13.7901 39.8749 13.9624 39.7598 14.152 39.6813C14.3416 39.6028 14.5448 39.5624 14.75 39.5625H21C21.2052 39.5624 21.4084 39.6028 21.598 39.6813C21.7876 39.7598 21.9599 39.8749 22.105 40.02C22.2501 40.1651 22.3652 40.3374 22.4437 40.527C22.5222 40.7166 22.5626 40.9198 22.5625 41.125ZM22.5625 58.3125V64.5625C22.5626 64.7677 22.5222 64.9709 22.4437 65.1605C22.3652 65.3501 22.2501 65.5224 22.105 65.6675C21.9599 65.8126 21.7876 65.9277 21.598 66.0062C21.4084 66.0847 21.2052 66.1251 21 66.125H14.75C14.5448 66.1251 14.3416 66.0847 14.152 66.0062C13.9624 65.9277 13.7901 65.8126 13.645 65.6675C13.4999 65.5224 13.3848 65.3501 13.3063 65.1605C13.2278 64.9709 13.1874 64.7677 13.1875 64.5625V58.3125C13.1874 58.1073 13.2278 57.9041 13.3063 57.7145C13.3848 57.5249 13.4999 57.3526 13.645 57.2075C13.7901 57.0624 13.9624 56.9473 14.152 56.8688C14.3416 56.7903 14.5448 56.7499 14.75 56.75H21C21.2052 56.7499 21.4084 56.7903 21.598 56.8688C21.7876 56.9473 21.9599 57.0624 22.105 57.2075C22.2501 57.3526 22.3652 57.5249 22.4437 57.7145C22.5222 57.9041 22.5626 58.1073 22.5625 58.3125Z" fill="#DADDE5"/>
</svg>
