<svg width="33" height="21" fill="none" xmlns="http://www.w3.org/2000/svg"><g clip-path="url(#clip0_311_8078)" fill="#D3D3D3"><path d="M16.956 3.182l-2.63 2.516c-.676-.378-1.274-.815-1.942-1.069-3.525-1.344-7.506.921-8.199 4.628-.608 3.25 1.16 6.316 4.212 7.305 2.329.755 4.93.078 6.42-1.672.564-.663 1.005-1.594 1.095-2.342h-5.64V9.129h9.455c.045.434.12.866.13 1.299.06 2.225-.4 4.32-1.67 6.184-1.49 2.191-3.612 3.392-6.204 3.795-2.247.35-4.413.063-6.419-1.04C2.467 17.663.648 15.043.307 11.52-.189 6.37 3.116 1.91 8.177.77c3.085-.695 6.616.267 8.779 2.411v.002zm15.299 9.182h-2.877v2.656c0 .132.004.252-.185.25-.886-.005-1.771-.007-2.658-.01-.017 0-.036-.02-.078-.043v-2.852H23.54v-1.339c0-.405.02-.812-.006-1.216-.02-.312.095-.38.388-.373.831.019 1.663.006 2.526.006V6.57h2.925v2.863h2.883v2.931z"/></g><defs><clipPath id="clip0_311_8078"><path transform="translate(.258 .546)" d="M0 0h32v20H0z"/></clipPath></defs></svg>