<svg width="24" height="23" fill="none" xmlns="http://www.w3.org/2000/svg"><g clip-path="url(#clip0_311_8074)" fill="#D3D3D3"><path d="M8.75 7.876h4.553v1.961c.329-.367.604-.74.947-1.044.944-.836 2.085-1.229 3.363-1.272.855-.029 1.7.036 2.521.277 1.595.467 2.541 1.529 3.014 3.024.31.984.422 2 .43 3.018.023 2.847.012 5.693.015 8.539 0 .034-.008.069-.014.122h-4.758v-.32c0-2.246.012-4.492-.008-6.74-.006-.695-.038-1.398-.163-2.08-.275-1.5-1.322-2-2.748-1.834-1.356.157-2.092.913-2.287 2.285-.07.495-.108.998-.111 1.497-.011 2.3-.006 4.6-.006 6.9v.335H8.75V7.876zM1 7.875h4.732v14.672H1V7.875zm5.115-4.722c.042 1.401-1.175 2.659-2.617 2.704C1.935 5.907.645 4.753.595 3.263.548 1.823 1.768.593 3.287.547 4.81.502 6.07 1.663 6.115 3.153z"/></g><defs><clipPath id="clip0_311_8074"><path transform="translate(.594 .547)" d="M0 0h23v22H0z"/></clipPath></defs></svg>