<svg width="28" height="23" fill="none" xmlns="http://www.w3.org/2000/svg"><g clip-path="url(#clip0_311_8072)"><path d="M.922 20.054c3.047.258 5.724-.448 8.158-2.28-2.549-.23-4.229-1.518-5.176-3.884h2.399l.007-.089c-2.688-.84-4.127-2.65-4.343-5.52.814.392 1.584.651 2.502.675-1.176-.922-1.962-2.022-2.3-3.403-.341-1.392-.07-2.697.633-3.986 3.001 3.5 6.754 5.473 11.4 5.773-.031-.286-.058-.52-.08-.756-.317-3.272 2.352-6.12 5.651-6.037 1.467.037 2.724.567 3.776 1.578.135.13.248.16.434.114a14.11 14.11 0 003.186-1.197c-.358 1.257-1.145 2.19-2.22 2.912l.048.104 2.925-.81c-.077.116-.151.239-.236.354-.63.873-1.38 1.63-2.237 2.277-.189.143-.256.278-.25.515.194 6.115-3.413 12.077-8.88 14.663-2.524 1.193-5.193 1.63-7.974 1.448a15.53 15.53 0 01-7.137-2.256c-.071-.044-.139-.096-.286-.196v.001z" fill="#D3D3D3"/></g><defs><clipPath id="clip0_311_8072"><path transform="translate(.922 .546)" d="M0 0h27v22H0z"/></clipPath></defs></svg>