<svg width="55" height="54" fill="none" xmlns="http://www.w3.org/2000/svg"><circle cx="27.5" cy="27" r="27" fill="#031C77"/><path d="M36.074 35.67v3.603H19.06V36.25a15.365 15.365 0 011.81-3.076 24.033 24.033 0 012.514-2.777 47.998 47.998 0 013.076-2.672 35.952 35.952 0 001.916-1.653 13.45 13.45 0 001.354-1.406c.48-.539.855-1.09 1.125-1.652a4.183 4.183 0 00.404-1.793c0-1.172-.317-2.063-.95-2.672-.62-.61-1.529-.914-2.724-.914-1.148 0-2.057.31-2.725.931-.656.622-1.066 1.53-1.23 2.725l-4.395-.281c.27-2.192 1.125-3.885 2.567-5.08 1.441-1.196 3.363-1.793 5.765-1.793 2.614 0 4.618.603 6.012 1.81 1.406 1.207 2.11 2.907 2.11 5.098a6.952 6.952 0 01-.739 3.182 11.723 11.723 0 01-1.968 2.76 19.569 19.569 0 01-2.11 1.968c-.832.668-1.705 1.371-2.619 2.11a29.167 29.167 0 00-2.566 2.32c-.715.738-1.243 1.5-1.582 2.285h11.97z" fill="#fff"/></svg>