<svg width="54" height="52" viewBox="0 0 54 52" fill="none" xmlns="http://www.w3.org/2000/svg">
<g clip-path="url(#clip0_2265_29210)">
<path d="M5.67 27.8673C6.58205 24.8164 11.5396 24.1993 12.814 27.3133C13.5517 29.1143 13.0573 31.2618 11.2373 32.2497C9.7604 33.0515 7.5839 32.8078 6.51738 31.4401C6.24693 31.0892 6.05423 30.7122 5.91146 30.3239C5.55293 29.575 5.41595 28.7258 5.67 27.8673Z" fill="#DEDEDE"/>
<path d="M18.8251 36.882C20.5092 36.1229 22.3767 36.1363 23.957 37.1535C25.7458 38.3043 26.6309 40.2442 27.2755 42.1834C27.5619 43.0351 27.3357 43.9302 26.837 44.6548C26.5968 45.7526 26.0321 46.7757 25.142 47.45C21.8564 49.9383 16.073 48.4519 15.2327 44.1627C14.694 41.4017 16.1817 38.0701 18.8234 36.8789L18.8251 36.882Z" fill="#DEDEDE"/>
<path d="M31.5925 4.46929C39.9434 4.06031 44.3716 11.2228 43.3953 18.0388C43.2615 19.7158 42.7703 21.4196 42.0497 22.8777C39.217 28.5955 32.6217 30.6391 26.9558 28.1017C21.752 25.7672 18.6965 20.2123 19.3988 14.5642C20.1895 8.18728 25.5247 4.76554 31.5925 4.46929Z" fill="#DEDEDE"/>
</g>
<defs>
<clipPath id="clip0_2265_29210">
<rect width="41.4298" height="36.3308" fill="white" transform="matrix(-0.878854 0.477091 0.477091 0.878854 36.5312 0)"/>
</clipPath>
</defs>
</svg>
