<svg width="239" height="193" fill="none" xmlns="http://www.w3.org/2000/svg"><path d="M34.982 63.374H1V34.47L43.885 1h40.062v178.827H34.982V63.374z" stroke="url(#paint0_radial_1256_8181)" stroke-opacity=".6"/><path d="M179.047 85.182c18.384 0 32.824 4.165 43.319 12.496C232.789 106.082 238 118.904 238 136.146c0 18.328-5.899 32.237-17.697 41.727C208.578 187.291 191.207 192 168.19 192c-22.8 0-40.135-4.419-52.005-13.257-11.87-8.838-17.805-21.48-17.805-37.925h48.856c-.072.145-.072.544 0 1.196.145.652.579 1.594 1.303 2.825.724 1.159 1.737 2.246 3.04 3.26 3.691 2.608 9.228 3.912 16.611 3.912 7.021 0 12.268-1.304 15.742-3.912 3.475-2.68 5.176-6.665 5.103-11.953 0-5.361-1.846-9.418-5.537-12.171-3.691-2.825-8.794-4.238-15.308-4.238-7.021 0-12.16.87-15.417 2.608-2.823 1.522-4.488 2.934-4.994 4.238l-.543.978H98.38V34h128.98v37.924h-81.427V91.92h1.086c.651-.58 1.628-1.195 2.931-1.847 1.231-.725 4.632-1.74 10.206-3.043 5.718-1.232 12.015-1.847 18.891-1.847z" stroke="url(#paint1_radial_1256_8181)" stroke-opacity=".6"/><defs><radialGradient id="paint0_radial_1256_8181" cx="0" cy="0" r="1" gradientUnits="userSpaceOnUse" gradientTransform="matrix(186.5001 129.5003 -194.25044 279.75014 1 24)"><stop offset=".247" stop-color="#1A1A1A"/><stop offset="1" stop-color="#A0A747"/></radialGradient><radialGradient id="paint1_radial_1256_8181" cx="0" cy="0" r="1" gradientUnits="userSpaceOnUse" gradientTransform="matrix(186.5001 129.5003 -194.25044 279.75014 1 24)"><stop offset=".247" stop-color="#1A1A1A"/><stop offset="1" stop-color="#A0A747"/></radialGradient></defs></svg>