<svg width="74" height="74" viewBox="0 0 74 74" fill="none" xmlns="http://www.w3.org/2000/svg">
<path d="M23.6953 58.7807C24.042 58.2951 24.6181 58.0419 25.1044 57.7294C25.3918 57.5397 25.6766 57.3594 25.958 57.1731C26.1297 57.0581 26.3074 56.9397 26.4885 56.8272C26.3209 56.9081 26.1499 56.9831 25.9882 57.0605C25.6615 57.2095 25.3254 57.3561 24.9919 57.4932C24.5919 57.6528 24.1669 57.7554 23.7455 57.864C23.2848 57.9873 22.7728 57.8153 22.4824 57.4361C22.192 57.0568 22.1345 56.5035 22.3869 56.0883C22.5216 55.8679 22.6444 55.6544 22.8047 55.4508C22.959 55.2508 23.1562 55.0973 23.3405 54.9354C23.7321 54.5825 24.2024 54.311 24.6411 54.026C24.6912 53.9892 24.7414 53.9523 24.7949 53.9213C24.8868 53.6543 25.0725 53.4123 25.3379 53.267C26.0948 52.8458 26.8484 52.4188 27.6078 51.9882C28.8974 51.101 30.181 50.2172 31.4646 49.3335C32.6529 48.5047 33.8448 47.682 35.0306 46.8626C35.9708 46.2088 36.9255 45.5941 37.8863 44.976C38.8207 44.3811 39.7457 43.7836 40.6767 43.1827C41.5576 42.6187 42.4915 42.1191 43.4101 41.6205C44.6297 40.9559 45.8828 40.3355 47.148 39.7635C47.9546 39.4009 48.7647 39.0442 49.5902 38.7419C49.6234 38.7306 49.6626 38.716 49.6958 38.7047C50.696 37.9212 51.6927 37.1317 52.686 36.3363C51.9916 35.9447 51.3006 35.559 50.5986 35.1955C49.0536 34.3755 47.5052 33.5495 45.9568 32.7236C44.9969 32.2158 44.0234 31.7394 43.0525 31.2538C41.7135 30.5844 40.3651 29.9124 39.0296 29.249C37.7496 28.6405 36.4562 28.0637 35.1772 27.4707C34.1893 27.0107 33.2065 26.5319 32.2051 26.1035C30.6223 25.4242 29.0395 24.7449 27.4533 24.0597C26.3853 23.5984 25.3131 23.1712 24.2341 22.7321C23.4488 22.4167 22.666 22.0919 21.8806 21.7765C20.7265 21.3173 19.5675 20.877 18.4438 20.3606C17.8393 20.0835 17.5188 19.4046 17.7832 18.7764C18.0501 18.1388 18.7497 17.8934 19.3694 18.1142C20.1929 18.3996 21.0174 18.7004 21.8334 19.0139C21.7163 18.9072 21.5956 18.7945 21.4904 18.6809C21.1489 18.3232 21.0294 17.8137 21.2177 17.3562C21.4195 16.8672 21.9713 16.5169 22.5035 16.6138C22.9112 16.6876 23.2976 16.7656 23.6961 16.8922C24.0759 17.0138 24.454 17.1601 24.8296 17.3157C25.1608 17.4494 25.492 17.5832 25.8232 17.7169C26.6717 18.0592 27.5143 18.405 28.3594 18.7414C29.6022 19.2444 30.8197 19.7859 32.0457 20.3145C33.2272 20.8212 34.3978 21.3501 35.5777 21.8816C36.7354 22.402 37.8762 22.9481 39.0169 23.4942C40.0723 24.0024 41.1371 24.5131 42.1909 25.046C43.6453 25.7915 45.1021 26.5276 46.5564 27.2731C47.7409 27.8812 48.9009 28.543 50.0778 29.1792C51.0643 29.7193 52.0474 30.2534 53.0229 30.8157C53.9633 31.3586 54.8978 31.9048 55.8383 32.4477C56.2082 32.6621 56.5746 32.8706 56.953 33.0723C57.3697 33.2992 57.796 33.5288 58.1908 33.8002C58.4027 33.9473 58.6334 34.0994 58.8139 34.2884C58.9783 34.463 59.1247 34.6479 59.2652 34.8363C59.5959 35.2715 59.6042 35.877 59.276 36.3122C59.0708 36.5892 58.7662 36.7492 58.4416 36.7781C58.4766 36.7975 58.5023 36.8144 58.5373 36.8338C58.608 36.8326 58.6847 36.828 58.7623 36.8386C59.4248 36.9 60.065 37.1564 60.7082 37.3082C60.8328 37.3314 60.9479 37.3522 61.069 37.3694C61.1125 37.376 61.1585 37.3732 61.202 37.3798C61.7519 37.4111 62.227 37.7391 62.3706 38.2903C62.4269 38.5114 62.4167 38.7551 62.3409 38.9811C62.3605 39.0015 62.3768 39.0159 62.3965 39.0362C62.6395 39.2922 62.8084 39.5435 62.8575 39.9035C62.9762 40.8653 61.8966 41.6074 61.0484 41.1144C60.752 40.9447 60.4581 40.7656 60.1617 40.5959C60.1319 40.6131 60.0996 40.6397 60.0699 40.6569C58.4156 41.7784 56.8787 43.0621 55.3152 44.3135C54.2479 45.1595 53.1541 45.9733 52.0766 46.8015C49.7174 48.5995 47.1913 50.1769 44.5697 51.5478C43.6085 52.0552 42.6311 52.5481 41.639 53.002C40.8086 53.3784 39.9841 53.7513 39.1537 54.1277C36.9952 55.1045 34.8185 56.0363 32.6806 57.0487C30.1529 58.2386 27.6389 59.4522 25.1216 60.6599C24.6366 60.8923 24.0179 60.6868 23.695 60.2788C23.6616 60.2347 23.6282 60.1906 23.6008 60.143C23.3715 59.7047 23.4079 59.1765 23.6953 58.7807ZM48.1103 46.0083C47.1881 46.4456 46.2693 46.889 45.3514 47.3476C44.5122 47.8875 43.6696 48.4215 42.8245 48.9649C42.8126 48.9718 42.7947 48.9821 42.7828 48.989C41.5306 49.8309 40.269 50.6703 39.0133 51.5062C39.0822 51.4743 39.1511 51.4424 39.2235 51.4165C39.8922 51.1176 40.5517 50.8161 41.217 50.5113C42.4224 49.9183 43.6176 49.3076 44.7981 48.6577C45.999 47.9881 47.1656 47.2591 48.3116 46.4944C48.9126 46.092 49.5171 45.6954 50.0882 45.2547C50.2794 45.1047 50.474 44.9606 50.6652 44.8106C49.8084 45.2101 48.9577 45.6063 48.1103 46.0083ZM32.6926 23.2223C30.2696 22.1325 27.8111 21.1187 25.3441 20.1177C25.1767 20.0479 25.0094 19.978 24.8455 19.9141C24.8311 19.9304 24.8226 19.9432 24.8023 19.9629C24.7555 20.0057 24.7088 20.0485 24.6587 20.0854C25.6864 20.4907 26.7141 20.896 27.7478 21.2979C29.0649 21.8056 30.3684 22.3449 31.677 22.8654C32.2856 23.1085 32.8942 23.3515 33.5029 23.5946C33.2399 23.469 32.9616 23.3444 32.6926 23.2223ZM56.0828 38.2192C56.1317 38.5238 56.098 38.8366 55.9457 39.1227C55.8898 39.2183 55.8304 39.308 55.7677 39.3918C55.8709 39.4194 55.981 39.4589 56.0767 39.5146C56.3253 39.6564 56.5205 39.8846 56.6195 40.1524C57.0257 39.8386 57.4354 39.5307 57.8519 39.2348C57.2591 38.8954 56.6662 38.556 56.0828 38.2192Z" fill="black"/>
</svg>
