<svg width="74" height="74" viewBox="0 0 74 74" fill="none" xmlns="http://www.w3.org/2000/svg">
<path d="M50.3047 58.7807C49.958 58.2951 49.3819 58.0419 48.8956 57.7294C48.6082 57.5397 48.3234 57.3594 48.042 57.1731C47.8703 57.0581 47.6926 56.9397 47.5115 56.8272C47.6791 56.9081 47.8501 56.9831 48.0118 57.0605C48.3385 57.2095 48.6746 57.3561 49.0081 57.4932C49.4081 57.6528 49.8331 57.7554 50.2545 57.864C50.7152 57.9873 51.2272 57.8153 51.5176 57.4361C51.808 57.0568 51.8655 56.5035 51.6131 56.0883C51.4784 55.8679 51.3556 55.6544 51.1953 55.4508C51.041 55.2508 50.8438 55.0973 50.6595 54.9354C50.2679 54.5825 49.7976 54.311 49.3589 54.026C49.3088 53.9892 49.2586 53.9523 49.2051 53.9213C49.1132 53.6543 48.9275 53.4123 48.6621 53.267C47.9052 52.8458 47.1516 52.4188 46.3922 51.9882C45.1026 51.101 43.819 50.2172 42.5354 49.3335C41.3471 48.5047 40.1552 47.682 38.9694 46.8626C38.0292 46.2088 37.0745 45.5941 36.1137 44.976C35.1793 44.3811 34.2543 43.7836 33.3233 43.1827C32.4424 42.6187 31.5085 42.1191 30.5899 41.6205C29.3703 40.9559 28.1172 40.3355 26.852 39.7635C26.0454 39.4009 25.2353 39.0442 24.4098 38.7419C24.3766 38.7306 24.3374 38.716 24.3042 38.7047C23.304 37.9212 22.3073 37.1317 21.314 36.3363C22.0084 35.9447 22.6994 35.559 23.4014 35.1955C24.9464 34.3755 26.4948 33.5495 28.0432 32.7236C29.0031 32.2158 29.9766 31.7394 30.9475 31.2538C32.2865 30.5844 33.6349 29.9124 34.9704 29.249C36.2504 28.6405 37.5438 28.0637 38.8228 27.4707C39.8107 27.0107 40.7935 26.5319 41.7949 26.1035C43.3777 25.4242 44.9605 24.7449 46.5467 24.0597C47.6147 23.5984 48.6869 23.1712 49.7659 22.7321C50.5512 22.4167 51.334 22.0919 52.1194 21.7765C53.2735 21.3173 54.4325 20.877 55.5562 20.3606C56.1607 20.0835 56.4812 19.4046 56.2168 18.7764C55.9499 18.1388 55.2503 17.8934 54.6306 18.1142C53.8071 18.3996 52.9826 18.7004 52.1666 19.0139C52.2837 18.9072 52.4044 18.7945 52.5096 18.6809C52.8511 18.3232 52.9706 17.8137 52.7823 17.3562C52.5805 16.8672 52.0287 16.5169 51.4965 16.6138C51.0888 16.6876 50.7024 16.7656 50.3039 16.8922C49.9241 17.0138 49.546 17.1601 49.1704 17.3157C48.8392 17.4494 48.508 17.5832 48.1768 17.7169C47.3283 18.0592 46.4857 18.405 45.6406 18.7414C44.3978 19.2444 43.1803 19.7859 41.9543 20.3145C40.7728 20.8212 39.6022 21.3501 38.4223 21.8816C37.2646 22.402 36.1238 22.9481 34.9831 23.4942C33.9277 24.0024 32.8629 24.5131 31.8091 25.046C30.3547 25.7915 28.8979 26.5276 27.4436 27.2731C26.2591 27.8812 25.0991 28.543 23.9222 29.1792C22.9357 29.7193 21.9526 30.2534 20.9771 30.8157C20.0367 31.3586 19.1022 31.9048 18.1617 32.4477C17.7918 32.6621 17.4254 32.8706 17.047 33.0723C16.6303 33.2992 16.204 33.5288 15.8092 33.8002C15.5973 33.9473 15.3666 34.0994 15.1861 34.2884C15.0217 34.463 14.8753 34.6479 14.7348 34.8363C14.4041 35.2715 14.3958 35.877 14.724 36.3122C14.9292 36.5892 15.2338 36.7492 15.5584 36.7781C15.5234 36.7975 15.4977 36.8144 15.4627 36.8338C15.392 36.8326 15.3153 36.828 15.2377 36.8386C14.5752 36.9 13.935 37.1564 13.2918 37.3082C13.1672 37.3314 13.0521 37.3522 12.931 37.3694C12.8875 37.376 12.8415 37.3732 12.798 37.3798C12.2481 37.4111 11.773 37.7391 11.6294 38.2903C11.5731 38.5114 11.5833 38.7551 11.6591 38.9811C11.6395 39.0015 11.6232 39.0159 11.6035 39.0362C11.3605 39.2922 11.1916 39.5435 11.1425 39.9035C11.0238 40.8653 12.1034 41.6074 12.9516 41.1144C13.248 40.9447 13.5419 40.7656 13.8383 40.5959C13.8681 40.6131 13.9004 40.6397 13.9301 40.6569C15.5844 41.7784 17.1213 43.0621 18.6848 44.3135C19.7521 45.1595 20.8459 45.9733 21.9234 46.8015C24.2826 48.5995 26.8087 50.1769 29.4303 51.5478C30.3915 52.0552 31.3689 52.5481 32.361 53.002C33.1914 53.3784 34.0159 53.7513 34.8463 54.1277C37.0048 55.1045 39.1815 56.0363 41.3194 57.0487C43.8471 58.2386 46.3611 59.4522 48.8784 60.6599C49.3634 60.8923 49.9821 60.6868 50.305 60.2788C50.3384 60.2347 50.3718 60.1906 50.3992 60.143C50.6285 59.7047 50.5921 59.1765 50.3047 58.7807ZM25.8897 46.0083C26.8119 46.4456 27.7307 46.889 28.6486 47.3476C29.4878 47.8875 30.3304 48.4215 31.1755 48.9649C31.1874 48.9718 31.2053 48.9821 31.2172 48.989C32.4694 49.8309 33.731 50.6703 34.9867 51.5062C34.9178 51.4743 34.8489 51.4424 34.7765 51.4165C34.1078 51.1176 33.4483 50.8161 32.783 50.5113C31.5776 49.9183 30.3824 49.3076 29.2019 48.6577C28.001 47.9881 26.8344 47.2591 25.6884 46.4944C25.0874 46.092 24.4829 45.6954 23.9118 45.2547C23.7206 45.1047 23.526 44.9606 23.3348 44.8106C24.1916 45.2101 25.0423 45.6063 25.8897 46.0083ZM41.3074 23.2223C43.7304 22.1325 46.1889 21.1187 48.6559 20.1177C48.8233 20.0479 48.9906 19.978 49.1545 19.9141C49.1689 19.9304 49.1774 19.9432 49.1977 19.9629C49.2445 20.0057 49.2912 20.0485 49.3413 20.0854C48.3136 20.4907 47.2859 20.896 46.2522 21.2979C44.9351 21.8056 43.6316 22.3449 42.323 22.8654C41.7144 23.1085 41.1058 23.3515 40.4971 23.5946C40.7601 23.469 41.0384 23.3444 41.3074 23.2223ZM17.9172 38.2192C17.8683 38.5238 17.902 38.8366 18.0543 39.1227C18.1102 39.2183 18.1696 39.308 18.2323 39.3918C18.1291 39.4194 18.019 39.4589 17.9233 39.5146C17.6747 39.6564 17.4795 39.8846 17.3805 40.1524C16.9743 39.8386 16.5646 39.5307 16.1481 39.2348C16.7409 38.8954 17.3338 38.556 17.9172 38.2192Z" fill="black"/>
</svg>
