<svg width="342" height="265" viewBox="0 0 342 265" fill="none" xmlns="http://www.w3.org/2000/svg">
<g clip-path="url(#clip0_2669_25370)">
<path d="M-10.0874 200.754C1.61163 225.549 19.501 248.082 34.6454 270.961C37.2169 274.853 50.4592 269.243 49.9541 264.907C46.2579 232.455 42.4172 200.063 38.489 167.665C33.35 169.698 28.2471 171.716 23.1081 173.749C44.4408 201.337 59.02 232.276 73.2548 263.911C75.3526 268.598 88.6601 261.728 88.9247 257.706C92.4081 204.211 95.9486 150.65 98.1356 97.1058C98.3132 92.2702 84.2672 97.2825 83.9017 101.772C79.4602 155.414 76.2941 209.158 73.128 262.902C78.3392 260.838 83.5866 258.76 88.7979 256.697C74.3616 225.188 59.4782 194.336 38.3622 166.656C35.5986 163.014 22.4725 168.192 22.9813 172.739C26.7136 205.177 30.5543 237.569 34.5186 269.951C39.6215 267.934 44.7244 265.916 49.8273 263.898C34.3693 240.981 20.1974 215.865 1.72344 195.279C-0.763185 192.498 -11.8113 197.058 -10.0874 200.754Z" fill="#DF4A1F"/>
<path d="M121.993 137.576C118.698 159.365 118.359 209.114 145.421 217.674C166.703 224.412 176.76 204.754 178.757 187.463C181.213 166.409 182.19 122.726 152.523 121.723C135.701 121.143 113.66 137.168 122.595 155.388C124.497 159.307 135.795 153.622 135.938 150.119C136.479 137.352 149.813 126.602 158.547 141.209C161.553 146.237 162.485 152.901 163.449 158.532C165.397 170.041 168.043 189.885 163.125 200.836C153.337 222.55 139.955 189.706 137.12 180.738C132.316 165.67 131.138 149.926 132.327 134.251C132.593 130.739 122.477 134.481 121.987 137.663L121.993 137.576Z" fill="#DF4A1F"/>
<path d="M161.545 75.3389C176.925 109.596 196.506 141.917 211.988 176.216C214.056 180.831 227.779 174.041 226.969 169.281C221.469 135.673 215.491 102.14 209.955 68.5475C205.01 70.8391 200.065 73.1306 195.119 75.4221C213.588 109.444 232.056 143.465 250.54 177.523C252.856 181.82 266.684 175.581 266.246 171.302C260.496 112.933 268.301 61.0222 278.015 3.84549C278.826 -1.00113 265.122 4.41999 263.968 7.54049C244.184 60.2789 244.616 121.267 250.413 176.513C255.66 174.435 260.908 172.356 266.119 170.293C247.398 136.378 228.676 102.463 209.955 68.5475C207.475 64.064 194.324 70.6982 195.119 75.4221C200.902 108.996 206.206 142.643 211.988 176.216C216.97 173.91 221.987 171.588 226.969 169.281C211.334 135.428 194.052 100.993 173.79 69.6813C171.59 66.27 159.873 71.6637 161.545 75.3389Z" fill="#DF4A1F"/>
</g>
<defs>
<clipPath id="clip0_2669_25370">
<rect width="342.213" height="167.443" fill="white" transform="translate(-38.5625 133.023) rotate(-22.8019)"/>
</clipPath>
</defs>
</svg>
