<svg width="54" height="54" fill="none" xmlns="http://www.w3.org/2000/svg"><mask id="mask0_1247_20803" style="mask-type:luminance" maskUnits="userSpaceOnUse" x="0" y="0" width="54" height="54"><path d="M54 0H0v54h54V0z" fill="#fff"/></mask><g mask="url(#mask0_1247_20803)" stroke="#031C77" stroke-width="1.5" stroke-miterlimit="10" stroke-linecap="round" stroke-linejoin="round"><path d="M43.176 8.594C38.702 4.65 33.017 2.496 27 2.496V1.314a.523.523 0 00-.885-.375l-2.9 2.803a.638.638 0 000 .919l2.9 2.803A.522.522 0 0027 7.089V5.906c10.834 0 19.785 8.21 20.963 18.735l3.4-.284a24.27 24.27 0 00-5.606-13.128M8.38 36.906a20.915 20.915 0 01-2.343-7.544l-3.4.284c.591 5.546 3.036 10.684 7.035 14.683 4.63 4.628 10.782 7.178 17.328 7.178v1.182a.523.523 0 00.885.375l2.9-2.803a.638.638 0 000-.919l-2.9-2.803a.522.522 0 00-.885.375v1.183c-6.734 0-12.742-3.173-16.605-8.101"/><path d="M2.283 10.806h3.41V7.397H9.1v3.41h3.41v3.409H9.1v3.409H5.692v-3.41h-3.41v-3.409z" fill="#031C77"/><path d="M42.132 45v4.262m-2.131-2.129h4.262M15.751 6.121V1.86m2.131 2.128H13.62"/></g><mask id="mask1_1247_20803" style="mask-type:luminance" maskUnits="userSpaceOnUse" x="15" y="12" width="32" height="34"><path d="M15 12h32v34H15V12z" fill="#fff"/></mask><g mask="url(#mask1_1247_20803)" stroke="#031C77" stroke-width="1.5" stroke-miterlimit="10" stroke-linecap="round" stroke-linejoin="round"><path d="M44.807 34.313L35.85 43.27a3.248 3.248 0 01-1.386.82l-1.331.39a1.152 1.152 0 01-1.43-1.43l.39-1.33c.153-.524.435-1 .82-1.386l8.958-8.957a1.609 1.609 0 012.275 0l.66.66a1.609 1.609 0 010 2.276zM20.71 41.367h11.51m6.343-25.981a2.568 2.568 0 00-2.484-1.919H19.285a2.567 2.567 0 00-2.566 2.567v22.77c0 1.15.757 2.124 1.8 2.45m20.128-6.652V17.599M36.635 39.55l1.465-1.465"/><path d="M23.522 35.34a1.585 1.585 0 11-3.17 0 1.585 1.585 0 013.17 0z" fill="#031C77"/><path d="M26.96 35.34h7.617"/><path d="M23.522 29.419a1.585 1.585 0 11-3.17 0 1.585 1.585 0 013.17 0z" fill="#031C77"/><path d="M26.96 29.418h7.617m-7.617-5.926h7.617m-14.571-.128l1.101 1.1 2.759-2.758"/><path d="M32.443 19.215h-9.521a1.244 1.244 0 01-1.244-1.244v-1.083c0-.688.557-1.245 1.244-1.245h9.521c.687 0 1.244.557 1.244 1.245v1.082c0 .688-.557 1.245-1.244 1.245z" fill="#031C77"/><path d="M35.092 43.832l-2.74-2.74m8.048-8.239l2.936 2.936M40 34l2 2m-.453 1.574l-2.936-2.936"/></g></svg>