<svg width="250" height="278" fill="none" xmlns="http://www.w3.org/2000/svg"><g opacity=".05" fill="#fff" clip-path="url(#clip0_1498_24185)"><path d="M-86.308 272.918c-42.094 0-81.688-15.739-111.487-44.313C-227.59 200.028-244 162.056-244 121.684c0-40.365 16.41-78.337 46.205-106.916l46.448-44.54c14.224-13.639 37.288-13.639 51.513 0 14.224 13.64 14.224 35.76 0 49.402l-46.448 44.541c-16.035 15.383-24.87 35.806-24.87 57.513 0 21.713 8.835 42.137 24.87 57.517 16.039 15.382 37.336 23.853 59.974 23.853 22.634 0 43.93-8.471 59.97-23.853l93.436-89.61c14.224-13.64 37.288-13.64 51.513 0 14.224 13.643 14.224 35.762 0 49.404l-93.437 89.61c-29.8 28.574-69.388 44.313-111.482 44.313z"/><path d="M131.158 277.684c-9.367 0-18.726-3.412-25.873-10.234-14.289-13.646-14.289-35.772 0-49.419l46.659-44.555c33.216-31.724 33.216-83.346-.005-115.068-33.216-31.727-87.265-31.723-120.487 0l-93.856 89.638c-14.289 13.647-37.458 13.647-51.746 0-14.289-13.647-14.289-35.773 0-49.42l93.86-89.633c61.752-58.97 162.228-58.974 223.976 0 61.752 58.97 61.752 154.927.004 213.901l-46.662 44.556c-7.143 6.822-16.506 10.234-25.87 10.234z"/></g><defs><clipPath id="clip0_1498_24185"><path fill="#fff" d="M0 0h250v278H0z"/></clipPath></defs></svg>