<svg width="215" height="224" fill="none" xmlns="http://www.w3.org/2000/svg"><g opacity=".8" fill="#fff"><path d="M61.681 93.688c-15.983-15.983-25.04-36.992-25.505-59.156C35.713 12.368 43.9-8.28 59.229-23.61c15.327-15.327 35.975-23.514 58.139-23.052l34.548.724c10.579.223 19.337 8.98 19.559 19.56.222 10.58-8.177 18.979-18.758 18.758l-34.548-.724C106.24-8.591 95.131-4.191 86.889 4.05c-8.244 8.244-12.645 19.354-12.396 31.282.25 11.93 5.12 23.233 13.715 31.828 8.594 8.594 19.896 13.464 31.827 13.713l69.501 1.454c10.581.22 19.338 8.978 19.559 19.559.222 10.58-8.177 18.979-18.758 18.758l-69.501-1.453c-22.164-.466-43.172-9.521-59.155-25.504z"/><path d="M142.444 178.065c-3.557-3.557-5.815-8.406-5.939-13.71-.244-10.607 8.158-19.008 18.764-18.764l34.634.799c24.657.567 44.258-19.034 43.689-43.692-.566-24.659-21.09-45.18-45.748-45.748l-69.672-1.602c-10.607-.244-19.404-9.04-19.648-19.648-.244-10.607 8.157-19.008 18.764-18.764l69.672 1.605c45.837 1.056 83.989 39.205 85.042 85.042 1.056 45.837-35.378 82.271-81.215 81.218l-34.636-.799c-5.301-.122-10.152-2.382-13.707-5.937z"/></g></svg>