<svg width="65" height="64" fill="none" xmlns="http://www.w3.org/2000/svg"><circle opacity=".7" cx="32.5" cy="32" r="31.5" stroke="#031C77" stroke-dasharray="5 5"/><circle cx="32.5" cy="32" r="27" fill="#EAEEFC"/><path d="M41.629 37.418c0 2.309-.75 4.096-2.25 5.361-1.5 1.254-3.639 1.881-6.416 1.881-2.613 0-4.694-.597-6.24-1.793-1.535-1.195-2.444-2.93-2.725-5.203l4.447-.387c.352 2.555 1.852 3.832 4.5 3.832 1.325 0 2.356-.322 3.094-.966.738-.657 1.108-1.647 1.108-2.971 0-1.184-.44-2.092-1.319-2.725-.867-.644-2.15-.967-3.85-.967h-1.757v-3.585h1.652c1.524 0 2.684-.317 3.48-.95.797-.644 1.196-1.547 1.196-2.707 0-1.125-.322-2.004-.967-2.636-.633-.645-1.57-.967-2.813-.967-1.136 0-2.062.304-2.777.914-.703.61-1.107 1.476-1.213 2.601l-4.36-.316c.259-2.098 1.132-3.738 2.62-4.922 1.488-1.183 3.422-1.775 5.8-1.775 2.556 0 4.548.58 5.977 1.74 1.442 1.16 2.162 2.771 2.162 4.834 0 1.559-.45 2.836-1.353 3.832-.902.996-2.203 1.664-3.902 2.004v.07c1.875.211 3.328.832 4.359 1.863 1.031 1.032 1.547 2.344 1.547 3.938z" fill="#031C77"/></svg>