<svg width="375" height="66" viewBox="0 0 375 66" fill="none" xmlns="http://www.w3.org/2000/svg">
<path d="M-6 171C-5.41962 164.625 8.19046 160.457 13.3866 158.778C25.2262 154.953 36.4008 150.832 48.6562 148.329C61.0066 145.806 73.6747 144.101 86.1214 142.078C99.345 139.928 112.101 136.923 125.175 134.054C159.98 126.415 194.486 115.08 220.94 90.2971C228.833 82.9029 240.335 66.9398 234.767 55.4503C226.556 38.5034 203.096 33.5048 186.371 32.1257C171.543 30.9031 156.818 32.2865 142.553 36.6507C136.808 38.4083 130.493 40.7847 126.203 45.2341C120.539 51.1071 137.538 50.9253 139.516 50.9253C157.039 50.9253 173.839 46.5737 190.949 43.1816C212.347 38.9393 234.876 34.9413 255.509 27.7874C291.181 15.4185 328.816 5.28847 366.503 1.80386C379.961 0.559481 394.288 0.758471 407.705 2.4103C411.629 2.89338 422 1.65804 422 7.2618" stroke="white" stroke-opacity="0.11"/>
</svg>
