<svg width="158" height="251" viewBox="0 0 158 251" fill="none" xmlns="http://www.w3.org/2000/svg">
<path d="M682 129.5C530.5 83 302.88 -25.4215 186.889 3.63972C44.1226 39.4095 142.121 216.816 233 249.5C348.829 291.156 481.5 331.802 466 369C466 397.494 247.937 347.892 186.889 316.506C125.841 285.12 62.7585 260.709 15.9552 279.308C-30.8481 297.907 25.1739 416.795 284.565 407.177C530.805 398.046 560.322 444.502 623.404 479.376C686.487 514.249 1161.62 596.656 1139.23 431.589C1116.85 266.521 1095.92 144.482 935.158 121.233C803.26 75.5968 913.409 21.8777 921.126 -19.2016C926.739 -65.8986 705.039 -70.1118 705.039 -114" stroke="white" stroke-opacity="0.15"/>
</svg>
