<svg width="344" height="480" viewBox="0 0 344 480" fill="none" xmlns="http://www.w3.org/2000/svg">
<path d="M15.1661 -11C-12.3906 -11 7.00936 43.0881 16.9969 53.0753C29.5113 65.5893 66.1999 70.2292 82.9052 71.5656C111.087 73.8201 137.082 75.8958 165.29 71.3825C182.516 68.6265 211.748 59.3803 222.777 44.2878C228.488 36.4735 238.713 19.1194 226.073 12.7994C189.85 -5.3112 153.573 34.6617 153.573 68.8195C153.573 92.3889 163.836 113.698 183.415 127.403C211.479 147.046 239.729 163.584 265.434 186.718C319.005 234.93 248.745 279.311 208.131 302.054C142.744 338.669 252.163 358.275 275.504 367.227C301.825 377.323 333.34 397.918 340.68 427.275C345.432 446.284 341.412 461.23 341.412 480" stroke="white" stroke-opacity="0.11"/>
</svg>
