<svg width="1333" height="655" viewBox="0 0 1333 655" fill="none" xmlns="http://www.w3.org/2000/svg">
<path d="M-6.60982 85.6626C-7.79229 93.095 -22.6942 91.9449 -14.6058 91.9449C3.44343 91.9449 17.5971 94.2658 35.1472 96.8312C110.08 107.784 196.64 104.51 272.807 104.51C363.174 104.51 455.11 105.434 544.672 95.0861C605.336 88.0768 697.212 89.833 745.016 54.251C806.493 8.49224 660.987 -21.9119 621.522 23.1884C589.747 59.5016 612.284 125.593 634.849 161.05C671 217.856 742.526 250.695 804.987 287.046C846.64 311.287 922.279 362.21 928.481 406.061C938.995 480.408 1068.5 629 1332.5 654.5" stroke="white" stroke-opacity="0.11"/>
</svg>
