<svg width="668" height="257" viewBox="0 0 668 257" fill="none" xmlns="http://www.w3.org/2000/svg">
<path d="M1 256C1.90311 246.062 23.0814 239.565 31.167 236.948C49.5903 230.985 66.9788 224.561 86.0491 220.659C105.267 216.727 124.98 214.069 144.348 210.915C164.925 207.564 184.773 202.881 205.118 198.408C259.278 186.5 312.971 168.831 354.136 130.198C366.417 118.672 384.315 93.7885 375.652 75.8784C362.874 49.4612 326.369 41.6692 300.344 39.5196C277.27 37.6137 254.357 39.7702 232.159 46.5732C223.219 49.3129 213.394 53.0173 206.717 59.9532C197.904 69.1081 224.356 68.8248 227.434 68.8248C254.7 68.8248 280.842 62.0414 307.468 56.7536C340.765 50.1407 375.822 43.9086 407.927 32.7568C463.436 13.4759 521.999 -2.31503 580.642 -7.74692C601.584 -9.68669 623.879 -9.3765 644.756 -6.80159C650.862 -6.04856 667 -7.97422 667 0.761042" stroke="white" stroke-opacity="0.11"/>
</svg>
