<svg width="236" height="127" viewBox="0 0 236 127" fill="none" xmlns="http://www.w3.org/2000/svg">
<path d="M-228.849 54.4825C-229.435 59.1776 -236.823 58.4511 -232.813 58.4511C-223.865 58.4511 -216.848 59.9173 -208.147 61.5378C-170.998 68.4571 -128.083 66.3884 -90.322 66.3884C-45.5206 66.3884 0.058617 66.9725 44.4609 60.4354C74.5368 56.0076 120.086 57.117 143.786 34.6394C174.265 5.73295 102.127 -13.4738 82.5613 15.0167C66.8079 37.9563 77.9814 79.7073 89.1683 102.106C107.091 137.991 142.552 158.736 173.518 181.699C194.168 197.013 231.668 229.181 234.743 256.882C239.955 303.849 164.634 318.036 132.774 324.349C107.742 329.309 82.0509 333.405 57.4547 340.224C45.4771 343.544 33.2124 350.759 20.8959 352.129C14.6777 352.821 16.7249 358.861 20.8959 360.949C31.016 366.014 43.5729 364.035 54.5916 364.035C83.2182 364.035 111.211 356.098 139.602 356.098C181.564 356.098 121.883 390.804 112.073 395.784C58.541 422.957 1.25059 447.073 -55.9656 465.235C-74.8491 471.229 -92.2992 481.837 -111.464 486.842C-115.229 487.825 -133.597 495 -129.744 495" stroke="white" stroke-opacity="0.11"/>
</svg>
