<svg width="273" height="436" viewBox="0 0 273 436" fill="none" xmlns="http://www.w3.org/2000/svg">
<path d="M-110 435.463C-108.093 375.377 -118.924 268.966 -44.2427 243.025C-23.0047 235.647 1.37998 232.011 23.6503 228.974C36.4422 227.229 62.3855 226.803 73.1088 218.633C108.044 192.015 115.512 147.032 116.722 105.89C118.101 59.0016 152.514 35.646 197.205 33.1632C214.752 32.1883 241.307 40.2573 253.52 23.8335C263.067 10.9938 263.265 0.739621 259.14 -14.3844C254.764 -30.4302 248.997 -32.6881 236.209 -42.7106C224.936 -51.5467 223.185 -70.4083 220.248 -83.6263C218.204 -92.8225 264.548 -89.6944 272.404 -88.5721" stroke="black" stroke-opacity="0.11" stroke-linecap="round"/>
</svg>
