<svg width="48" height="80" viewBox="0 0 48 80" fill="none" xmlns="http://www.w3.org/2000/svg">
<path d="M24.3621 45.0618C27.2181 46.8158 30.1278 47.1353 33.1571 45.4716C34.358 44.8146 35.6307 44.2782 36.8734 43.6874C34.364 47.0991 31.2571 49.5645 26.8118 49.4499C25.2285 49.4078 24.2845 49.6428 24.0634 51.3788C23.9499 52.2589 23.5257 53.0907 23.3763 53.9707C23.1194 55.4415 23.2807 56.7977 24.8043 57.6115C25.1926 57.8164 25.5153 58.154 25.8558 58.4433C30.0143 62.0117 30.1577 62.729 27.8992 67.6959C26.9433 69.7996 25.9933 71.9032 25.1568 74.0551C24.147 76.641 24.3801 77.063 26.9134 77.9792C27.3316 78.1299 27.7558 78.2625 28.2996 78.4493C27.8275 79.4198 26.9851 79.7634 26.1665 79.3957C24.6788 78.7266 22.6175 79.5946 21.7272 78.582C20.6757 77.3824 22.492 75.8092 22.5518 74.2721C22.6115 72.8556 22.8027 71.4451 22.8804 70.0286C22.9461 68.9014 23.1313 67.8285 23.5376 66.7556C23.8662 65.8815 25.4376 65.1401 24.7087 64.3927C23.442 63.0967 21.7571 62.1504 20.12 61.3125C19.4269 60.9569 19.3194 62.0479 19.176 62.5361C18.6203 64.3927 18.0945 66.2673 17.7062 68.166C17.4194 69.5765 16.6725 70.2999 15.3461 70.8182C11.9584 72.1383 8.54078 73.4282 5.60714 75.6826C4.20903 76.7556 3.4084 78.0334 4.17915 79.9985C2.27318 80.0467 1.41878 79.3716 1.70557 77.4668C1.93261 75.9358 3.59959 73.6211 5.1411 72.8556C6.09707 72.3794 6.79613 71.6079 7.49518 70.8243C8.59455 69.5826 9.81939 68.2926 11.4386 68.0153C13.5895 67.6477 13.8225 66.5205 13.709 64.6579C13.4999 61.2161 13.6373 57.8104 15.3162 54.6097C16.2184 52.8918 14.9578 51.1076 14.91 49.3414C14.8562 47.2197 13.9779 46.1046 11.8508 45.2245C6.83795 43.1449 3.61154 39.2571 2.39268 33.8381C3.31878 34.0913 4.04771 35.11 5.17097 36.8219C6.53921 38.9074 8.46908 40.3722 10.9666 40.9388C12.8367 40.4325 14.432 41.3547 16.081 41.9575C18.3694 42.7893 18.4411 42.7531 18.7279 40.3601C18.8892 39.0039 19.4269 37.8888 20.8131 37.4849C21.9364 37.1594 23.0357 37.28 23.8722 38.2444C24.7744 39.2812 25.0134 40.3842 24.4996 41.7525C24.1112 42.7893 22.7848 43.9225 24.3741 45.0798L24.3621 45.0618Z" fill="white"/>
<path d="M39.3949 5.81526C26.7283 -5.72784 5.40407 0.818273 1.12609 17.4608C-0.331774 23.1389 0.486779 28.4916 2.3808 33.8321C2.79306 33.9406 2.89464 34.3204 3.06791 34.6399C4.41822 37.0811 6.23457 39.0883 8.51696 40.6796C9.33551 41.2523 10.1063 41.7526 11.0324 40.9569L10.9547 40.9328C9.99274 39.7092 8.98897 38.5157 8.07482 37.2559C7.11884 35.9418 7.17859 35.0738 9.12041 35.104C10.7695 35.1281 12.3229 34.5675 13.9003 34.1757C14.3962 34.0552 15.2267 34.0491 15.0116 33.2053C14.7965 32.3674 14.0975 32.3493 13.3805 32.5904C11.8987 33.0907 10.3692 33.3499 8.80972 33.4765C7.90155 33.5488 6.71853 34.3385 6.27042 33.0847C5.82231 31.837 5.0157 30.4626 5.97168 29.0341C7.16067 27.2619 8.91129 26.0865 10.4887 24.7363C11.4745 23.8924 11.5701 25.11 11.7971 25.55C13.6673 29.2209 15.878 32.6628 18.4471 35.8755C18.6801 36.1649 18.8893 36.4723 19.1103 36.7737C19.8393 37.7682 20.7056 37.057 21.2732 36.7254C22.1575 36.201 21.2135 35.7369 20.9028 35.3632C18.1962 32.066 15.9795 28.4554 13.9182 24.7242C13.1833 23.3981 13.2072 22.5965 14.671 21.7104C21.2493 17.7441 28.0009 14.2119 35.5471 12.4819C36.6285 12.2348 37.7518 12.2046 38.8452 11.9877C39.8012 11.8008 40.7691 11.7887 41.0977 12.8255C41.4502 13.9467 42.4899 15.1221 41.3965 16.3698C38.9289 19.2028 35.9713 21.4572 32.8823 23.5549C31.8248 24.2722 31.6276 23.3801 31.2631 22.7833C30.1339 20.9388 29.0465 19.0702 27.8814 17.2559C27.6065 16.8339 27.2839 16.0564 26.5072 16.635C25.7424 17.2077 26.4116 17.72 26.6745 18.1721C27.7081 19.9804 28.7358 21.8068 29.8949 23.5368C30.594 24.5856 30.5223 25.0859 29.3691 25.7188C26.6984 27.1896 23.9858 28.5639 21.2195 29.8297C20.5025 30.1552 18.8295 30.107 19.3434 31.3969C19.8811 32.723 21.0044 31.5597 21.811 31.2523C24.7327 30.1311 27.4572 28.6061 30.1578 27.0449C30.9047 26.6109 31.4245 26.4301 31.8427 27.4729C33.193 30.7881 34.5135 34.0853 34.7644 37.7321C34.9616 40.6495 32.3446 40.981 30.827 42.3192C29.626 43.3801 28.7716 42.1323 27.8575 41.6983C27.0688 41.3246 26.3996 40.6977 25.6767 40.1914C24.2009 42.0298 25.2465 43.0124 26.7999 43.7598C26.2921 44.9292 24.9059 44.1757 24.3622 45.0678L24.2367 45.0377C24.2188 45.104 24.2009 45.1643 24.1889 45.2426C25.9993 47.1233 28.2996 47.5271 30.6657 46.9967C32.9779 46.4783 35.1468 45.4476 36.8735 43.6935C37.5606 43.1209 38.2477 42.5543 38.9289 41.9696C50.3348 32.1203 50.538 15.978 39.3949 5.82129V5.81526ZM13.2132 5.71882C12.3169 7.21369 10.9248 7.57536 10.3034 8.72062C10.2795 7.03889 11.1698 6.17692 13.2132 5.71882ZM3.64149 28.2927C1.25753 24.4108 3.1874 15.1582 7.28016 10.6495C7.50721 11.6622 7.54306 12.5362 7.0591 13.4464C4.73489 17.7924 3.48017 22.4036 3.78489 27.3825C3.80281 27.6417 3.70721 27.9069 3.64149 28.2927ZM9.63425 22.5241C8.21224 23.6754 6.81413 24.8508 5.1352 26.2493C5.52954 22.3855 5.9896 18.9798 7.87765 15.6224C8.63048 17.7019 9.28173 19.5283 9.95092 21.3608C10.1242 21.837 10.0525 22.1926 9.63425 22.5301V22.5241ZM12.0122 20.6857C11.349 18.5097 10.6559 16.5506 10.166 14.5434C9.56255 12.06 12.3169 7.5633 14.7248 6.83997C15.5135 6.60489 16.0154 7.10519 16.5471 7.44275C18.5846 8.72062 20.2157 10.4807 21.8946 12.1745C22.3905 12.6748 22.9342 13.6031 23.705 12.9159C24.5594 12.1564 23.5317 11.62 23.0956 11.1317C21.5003 9.34751 19.7676 7.68386 17.754 6.39995C16.4097 5.54401 16.9654 5.18838 17.9273 4.65794C25.2704 0.595248 33.7188 2.66276 39.5024 9.40779C29.2795 10.7158 20.604 15.3511 12.0122 20.6917V20.6857ZM33.1452 26.5687C32.8405 25.9418 32.7927 25.4295 33.432 25.0256C36.5569 23.0304 39.4128 20.6857 42.4779 17.7863C43.2785 25.3511 41.0798 31.4934 36.6166 37.5754C35.7383 33.4886 34.7704 29.9141 33.1452 26.5687ZM36.3836 40.5832C41.6474 34.5494 44.4138 27.6055 44.4018 18.9617C46.8395 26.6591 43.2606 36.1166 36.3836 40.5832Z" fill="#DEDEDE"/>
</svg>
