<svg width="148" height="39" viewBox="0 0 148 39" fill="none" xmlns="http://www.w3.org/2000/svg">
<path d="M122.96 32.6223C123.025 31.5916 122.279 29.9942 123.199 29.1684C124.25 28.2221 125.409 29.7531 126.586 29.9942C129.197 30.5307 131.773 31.3083 134.473 30.9768C136.284 30.7537 138.13 30.3197 138.554 28.1859C138.978 26.0642 137.335 25.1359 135.8 24.3523C133.625 23.2372 131.39 22.2366 129.162 21.2239C123.946 18.849 122.249 14.4849 122.685 10.5789C123.509 3.16483 128.612 1.00088 133.045 0.488519C136.959 0.0304117 140.866 0.24741 144.666 1.68201C146.22 2.2667 146.381 2.91166 145.784 4.33421C143.746 9.15036 143.77 9.21667 138.68 7.98701C136.821 7.53493 135.005 7.37218 133.236 8.11359C130.763 9.15036 130.464 11.8749 132.693 13.3818C134.856 14.8405 137.395 15.5398 139.725 16.6669C142.748 18.1317 145.682 19.7772 146.668 23.412C148.699 30.9165 144.35 37.0467 136.337 38.21C132.758 38.7284 129.281 38.5657 125.768 37.7881C123.707 37.336 122.53 36.4861 122.954 34.1895C123.031 33.7555 122.966 33.2914 122.966 32.6223H122.96Z" fill="#808080"/>
<path d="M39.2165 22.7549C39.2165 18.415 39.1747 14.075 39.2404 9.74108C39.2643 8.38484 38.8461 7.87851 37.4659 7.93879C35.3866 8.03523 33.3014 7.92673 31.2162 7.97496C29.9914 8.00509 29.4895 7.55302 29.5194 6.26911C29.6687 -0.0901412 28.6231 1.09732 34.3709 1.03101C41.1404 0.958682 47.9159 1.06115 54.6853 0.976765C56.436 0.952654 57.2306 1.31432 57.153 3.29744C56.9438 8.80678 57.8938 7.8966 52.5822 7.94482C47.3721 7.99907 47.3721 7.95687 47.3721 13.2251C47.3721 20.6332 47.3124 28.0352 47.414 35.4433C47.4379 37.2697 46.8404 37.7218 45.1077 37.7158C39.2165 37.6856 39.2165 37.7459 39.2165 31.7302C39.2165 28.7405 39.2165 25.7447 39.2165 22.7549Z" fill="#808080"/>
<path d="M61.168 19.0961C61.168 13.7013 61.2158 8.30649 61.1382 2.9177C61.1143 1.36254 61.5863 0.856215 63.1696 0.844159C69.7539 0.777854 69.7539 0.729633 69.7539 7.32397C69.7539 14.4427 69.7897 21.5554 69.724 28.6742C69.712 30.0967 70.0407 30.6392 71.5583 30.591C75.0595 30.4825 78.5608 30.6211 82.062 30.5247C83.6573 30.4825 84.0875 31.0672 84.0994 32.6103C84.1353 37.8363 84.1891 37.8363 78.985 37.8363C73.8407 37.8363 68.7023 37.77 63.558 37.8725C61.7476 37.9087 61.0784 37.4325 61.1262 35.5036C61.2457 30.0364 61.168 24.5693 61.168 19.0961Z" fill="#808080"/>
<path d="M119.841 34.5994C116.125 23.9605 112.372 13.3276 108.692 2.67658C108.232 1.33843 107.563 0.723601 106.129 0.771823C103.9 0.850183 101.659 0.850183 99.4309 0.771823C98.1642 0.729629 97.6026 1.27815 97.2023 2.43548C93.4441 13.2974 89.6202 24.1413 85.8561 35.0033C84.918 37.7037 85.0614 37.8363 87.9891 37.8424C88.2102 37.8424 88.4372 37.8424 88.6583 37.8424C94.0296 37.8424 93.952 37.8122 95.7623 32.6464C97.1843 28.5958 96.067 29.4035 100.243 29.3071C101.809 29.2709 103.368 29.3071 104.934 29.3071C107.63 29.3071 109.353 30.6452 110.102 33.3216C110.946 36.3354 112.928 37.8424 116.047 37.8424C116.567 37.8424 117.086 37.8424 117.612 37.8424C120.952 37.8424 120.97 37.8363 119.841 34.6055V34.5994ZM100.273 22.0135C99.3114 22.0316 99.0903 21.5554 99.3233 20.7779C100.441 17.0648 101.594 13.3577 102.896 9.10817C104.324 13.6953 105.579 17.7278 106.911 22.0015C104.545 22.0015 102.412 21.9713 100.273 22.0135Z" fill="#808080"/>
<path d="M33.7436 34.6055C30.5112 25.3228 27.2907 16.0401 24.0404 6.76941C22.003 0.958681 21.9791 1.09732 15.8609 0.904432C13.3335 0.826072 12.1625 1.47707 11.314 4.05693C7.87252 14.5331 4.10241 24.8948 0.493608 35.3167C0.272539 35.9557 -0.378722 36.6549 0.302409 37.3963C0.732597 37.8604 7.8068 37.7881 8.18322 37.2818C8.44014 36.9442 8.52976 36.4741 8.66121 36.0521C9.22882 34.2016 9.79642 32.3511 10.3342 30.4885C10.615 29.506 11.1169 29.0238 12.2342 29.066C14.4687 29.1504 16.7033 29.0901 18.9379 29.0901C22.1803 29.0901 24.2296 30.6472 25.086 33.7616C25.799 36.3575 27.5238 37.6555 30.2602 37.6555C30.7083 37.6555 31.1565 37.6555 31.5986 37.6555C33.7336 37.6555 34.4486 36.6408 33.7436 34.6115V34.6055ZM20.2404 22.1522C18.2389 22.122 16.2313 22.11 14.2298 22.1522C12.9392 22.1823 13.0109 21.6398 13.3275 20.6452C14.648 16.4138 15.8848 12.1582 17.2291 7.66151C18.6153 12.1461 19.9118 16.3957 21.2621 20.6272C21.6027 21.688 21.4235 22.1703 20.2404 22.1522Z" fill="#808080"/>
</svg>
