<svg width="66" height="66" viewBox="0 0 66 66" fill="none" xmlns="http://www.w3.org/2000/svg">
<path d="M33.0448 59.3041C30.8301 59.3041 28.6022 59.0226 26.4022 58.4516C19.6035 56.6892 13.8989 52.3853 10.3381 46.3309C6.77738 40.2766 5.78614 33.199 7.54851 26.4015C9.31087 19.6027 13.6147 13.8979 19.6689 10.3371C25.7218 6.77629 32.7993 5.78502 39.5979 7.54742C46.3966 9.30982 52.1013 13.6138 55.662 19.6681C59.2228 25.7211 60.214 32.8001 58.4517 39.5975C56.6893 46.3963 52.3854 52.1011 46.3312 55.6619C42.2368 58.07 37.6728 59.3028 33.0448 59.3028V59.3041ZM33.0034 12.1742C23.7433 12.1742 15.2717 18.4047 12.8436 27.7744C9.96191 38.8891 16.6605 50.276 27.775 53.1564C33.1582 54.5519 38.7641 53.7674 43.5589 50.9471C48.3524 48.1267 51.7624 43.6079 53.1579 38.2247C54.5534 32.8401 53.7689 27.2354 50.9486 22.4404C48.1283 17.6469 43.6096 14.2368 38.2265 12.8413C36.4815 12.389 34.7284 12.1729 33.0048 12.1729L33.0034 12.1742Z" fill="#FFCE00"/>
<path d="M64.3204 56.8963C63.3038 56.979 62.3659 57.1644 61.5828 57.3352H61.5761C57.5524 58.2544 53.7142 57.7007 51.0473 55.8169C49.9333 55.0031 40.1022 41.1747 34.5909 31.8344C29.6747 23.5013 24.4837 13.0363 22.7787 9.59692C22.3718 8.77509 22.2957 8.62433 22.257 8.55896C20.0291 4.81269 17.0073 2.52864 13.5159 1.95362C10.0446 1.38128 6.41442 2.53798 3.29259 5.21026C2.49479 5.89334 1.7677 6.63646 1.06996 7.48498L0 8.78443L1.67833 8.64835C2.69492 8.56563 3.63278 8.38019 4.42258 8.20675C8.44627 7.28886 12.2845 7.84253 14.9514 9.72634C16.0107 10.4828 26.9384 23.9016 32.3856 33.1339C35.7663 38.864 39.7179 47.1423 43.5121 56.448C43.6576 56.8055 43.6883 56.8802 43.7096 56.9243C45.5454 60.8346 48.2189 63.2735 51.4435 63.9739C52.0999 64.1166 52.7763 64.1873 53.466 64.1873C56.4824 64.1873 59.751 62.8425 62.7047 60.3357L62.7208 60.3223C63.648 59.4885 64.3283 58.7907 64.93 58.0596L66 56.7602L64.3217 56.8963H64.3204Z" fill="#FFCE00"/>
<path d="M60.5556 3.29533L60.5423 3.27932C59.7085 2.35342 59.0107 1.67168 58.2796 1.06998L56.9802 0L57.1163 1.67835C57.199 2.69496 57.3844 3.63287 57.5552 4.41601V4.42268C58.4744 8.44645 57.9207 12.2848 56.037 14.9517C55.2232 16.0657 41.3951 25.897 32.0549 31.4084C23.7234 36.3247 13.2572 41.5158 9.81789 43.2209C8.99608 43.6278 8.84532 43.7038 8.77995 43.7425C5.03375 45.9705 2.74975 48.9924 2.17474 52.4838C1.60374 55.9552 2.76041 59.5854 5.43131 62.7073C6.11437 63.5052 6.85748 64.2323 7.70464 64.93L9.00407 66L8.86799 64.3217C8.78527 63.305 8.59982 62.3671 8.42772 61.5773C7.50985 57.5536 8.06353 53.7152 9.9473 51.0483C10.7037 49.989 24.1223 39.061 33.3543 33.6137C39.0817 30.2343 47.3612 26.2826 56.6653 22.4883C57.0255 22.3415 57.1003 22.3109 57.1429 22.2908C61.0532 20.4551 63.492 17.7814 64.1924 14.5568C64.9595 11.0293 63.6334 6.92553 60.5543 3.29666L60.5556 3.29533Z" fill="#FFCE00"/>
<path d="M48.5485 38.5657C48.1336 38.467 47.7214 38.3616 47.3052 38.2735C47.1024 38.2308 47.053 38.1335 47.1037 37.94C47.1918 37.6091 47.2571 37.2729 47.3425 36.9407C47.3852 36.7766 47.3572 36.6832 47.1731 36.6405C45.4601 36.243 43.7484 35.8414 42.0367 35.4358C41.8553 35.3931 41.7846 35.4585 41.7485 35.6266C41.6805 35.9521 41.6071 36.279 41.5191 36.5992C41.4657 36.7953 41.5137 36.8887 41.7192 36.9301C42.0554 36.9968 42.3849 37.0902 42.7198 37.1595C42.9052 37.1982 42.9653 37.2836 42.9159 37.4717C42.8145 37.8666 42.7251 38.2642 42.6344 38.6618C42.5931 38.8446 42.489 38.9046 42.3102 38.8619C41.391 38.6458 40.4718 38.431 39.5526 38.2175C39.3712 38.1761 39.3085 38.0814 39.3552 37.8973C39.4525 37.5117 39.5313 37.1208 39.6313 36.7353C39.6793 36.5485 39.6273 36.4658 39.4392 36.4244C38.8242 36.2883 38.2145 36.1322 37.5995 36.0002C37.3753 35.9521 37.3126 35.8547 37.374 35.6346C37.4647 35.3051 37.5287 34.9675 37.6128 34.6353C37.6541 34.4726 37.6021 34.3952 37.4407 34.3605C37.0965 34.2871 36.7536 34.2084 36.4134 34.119C36.2346 34.0723 36.16 34.135 36.1239 34.3071C36.0532 34.642 35.9625 34.9729 35.8931 35.3091C35.8531 35.4999 35.7757 35.5692 35.5689 35.5252C34.9873 35.4011 34.9793 35.4078 34.8192 36.0002C34.7685 36.1909 34.6764 36.231 34.499 36.1856C34.1668 36.1002 33.8306 36.0348 33.4997 35.9468C33.3196 35.8988 33.2236 35.9361 33.1849 36.1322C33.1168 36.4684 33.0368 36.802 32.9514 37.1328C32.9074 37.305 32.9514 37.3903 33.1302 37.4277C33.465 37.4971 33.7959 37.5905 34.1308 37.6572C34.3416 37.6985 34.4029 37.7919 34.3495 38.004C34.1961 38.6151 34.0654 39.2301 33.912 39.8412C33.8626 40.0399 33.912 40.1293 34.1147 40.1694C34.487 40.2441 34.8525 40.3468 35.2247 40.4228C35.4048 40.4602 35.4689 40.5336 35.4408 40.7244C35.3648 41.2487 35.2087 41.753 35.0967 42.2693C35.0059 42.6855 34.8992 43.0978 34.8058 43.5141C34.7658 43.6955 34.6764 43.7609 34.4896 43.7142C34.0854 43.6128 33.6798 43.5181 33.2729 43.4273C33.1101 43.3913 33.0635 43.3059 33.1035 43.1472C33.1889 42.8056 33.2556 42.4601 33.3476 42.1199C33.4023 41.9184 33.3383 41.833 33.1408 41.7943C32.814 41.7303 32.4898 41.6503 32.167 41.5675C32.0002 41.5248 31.9108 41.5582 31.8681 41.741C31.4705 43.4554 31.069 45.167 30.6634 46.8788C30.6194 47.0629 30.6914 47.1296 30.8568 47.1643C31.1917 47.2363 31.5226 47.3257 31.8574 47.3951C32.0535 47.4351 32.1176 47.5231 32.0669 47.7233C31.9602 48.1355 31.8721 48.5518 31.776 48.9667C31.7587 48.9774 31.74 48.988 31.7227 49C31.3104 48.9027 30.8982 48.7986 30.4846 48.7092C30.2885 48.6678 30.2325 48.5825 30.2752 48.381C30.4046 47.774 30.3979 47.7726 29.8002 47.6325C29.5307 47.5698 29.2599 47.5138 28.9931 47.4404C28.805 47.3884 28.7103 47.4244 28.6582 47.6325C28.5075 48.2436 28.4995 48.2409 27.8751 48.0942C27.5883 48.0275 27.3001 47.9607 27.0133 47.8954C27.0026 47.8767 26.9919 47.8594 26.9799 47.8407C27.076 47.4351 27.1827 47.0322 27.2641 46.6239C27.3108 46.3958 27.4162 46.3424 27.6323 46.4025C27.9525 46.4919 28.282 46.5519 28.6035 46.6359C28.7689 46.6786 28.861 46.6493 28.9037 46.4652C29.3012 44.7521 29.7028 43.0391 30.1071 41.3274C30.1444 41.1726 30.1151 41.0819 29.9456 41.0459C29.5934 40.9698 29.2412 40.8885 28.8917 40.7991C28.7223 40.7564 28.6569 40.8271 28.6235 40.9819C28.5488 41.3261 28.4581 41.6663 28.3861 42.0105C28.3474 42.1932 28.2646 42.2586 28.0752 42.2093C27.6803 42.1079 27.2841 42.0158 26.8865 41.9304C26.6984 41.8904 26.6464 41.7903 26.6891 41.6116C26.9092 40.6843 27.1293 39.7558 27.3428 38.8272C27.3841 38.6498 27.4749 38.6057 27.643 38.6484C28.0112 38.7405 28.3847 38.8112 28.7503 38.9139C28.9797 38.978 29.0838 38.9299 29.1345 38.6845C29.2586 38.0868 29.416 37.4957 29.5441 36.898C29.5908 36.6792 29.6801 36.6032 29.9069 36.6659C30.2365 36.758 30.574 36.8207 30.9062 36.9047C31.0649 36.9447 31.149 36.9047 31.185 36.7379C31.2584 36.3937 31.3385 36.0509 31.4265 35.7107C31.4719 35.5372 31.4225 35.4545 31.2451 35.4171C30.9009 35.3451 30.5607 35.2517 30.2178 35.1797C30.031 35.141 29.9843 35.0529 30.0217 34.8661C30.1418 34.2751 30.1378 34.2671 29.5534 34.1123C29.368 34.063 29.3133 33.9816 29.3613 33.7975C29.4494 33.4573 29.5174 33.1117 29.6054 32.7715C29.6508 32.5968 29.5961 32.5154 29.4213 32.4794C29.0865 32.41 28.7516 32.3326 28.4221 32.2445C28.2313 32.1938 28.1526 32.2592 28.1152 32.4433C28.0485 32.7702 27.9551 33.0904 27.8924 33.4173C27.8484 33.6481 27.7404 33.6934 27.5229 33.6374C26.9399 33.4893 26.3489 33.3719 25.7685 33.2158C25.503 33.1451 25.4043 33.2211 25.359 33.48C25.2949 33.8348 25.1935 34.1831 25.1175 34.5353C25.0748 34.7287 24.9734 34.7981 24.7799 34.7514C23.8701 34.5366 22.9602 34.3231 22.049 34.115C21.8596 34.071 21.7835 33.9829 21.8342 33.7815C21.9356 33.3866 22.029 32.9903 22.1131 32.5914C22.1544 32.3993 22.2505 32.3566 22.4306 32.4033C22.7614 32.4887 23.099 32.5554 23.4298 32.6421C23.6073 32.6888 23.7073 32.6568 23.746 32.4594C23.8127 32.1231 23.8941 31.7909 23.9795 31.4587C24.0235 31.2893 23.9835 31.2039 23.8034 31.1626C22.0904 30.765 20.3787 30.3634 18.6684 29.9578C18.4829 29.9138 18.4189 29.9872 18.3842 30.1526C18.3122 30.4875 18.2228 30.8184 18.1534 31.1532C18.1134 31.3507 18.024 31.4134 17.8252 31.3614C17.413 31.256 16.9967 31.1666 16.5818 31.0705C16.5711 31.0518 16.5605 31.0345 16.5485 31.0158C16.6459 30.6036 16.7512 30.1913 16.8393 29.7777C16.8806 29.5816 16.9687 29.5269 17.1675 29.5696C17.7732 29.6977 17.7745 29.691 17.9146 29.0933C17.9773 28.8238 18.0333 28.553 18.1067 28.2861C18.1587 28.0967 18.1214 28.0033 17.9146 27.9526C17.3049 27.8019 17.3076 27.7939 17.453 27.1681C17.5197 26.8813 17.5864 26.5931 17.6531 26.3063C17.6705 26.2956 17.6891 26.2849 17.7065 26.2729C18.12 26.3717 18.5336 26.4757 18.9499 26.5651C19.1527 26.6078 19.2034 26.7039 19.1513 26.8986C19.0633 27.2295 18.9979 27.5657 18.9125 27.8979C18.8712 28.062 18.8965 28.1554 19.0819 28.1994C20.7949 28.597 22.5066 28.9986 24.217 29.4028C24.3717 29.4388 24.4624 29.4122 24.4985 29.2414C24.5745 28.8878 24.6572 28.537 24.7453 28.1874C24.7879 28.018 24.7186 27.9526 24.5638 27.9179C24.221 27.8432 23.8807 27.7525 23.5365 27.6805C23.3551 27.6418 23.2871 27.5604 23.3364 27.3709C23.4378 26.976 23.5312 26.5798 23.6153 26.1809C23.6593 25.9741 23.7714 25.9354 23.9568 25.9808C24.8653 26.1982 25.7752 26.4144 26.6851 26.6251C26.8785 26.6705 26.9426 26.7692 26.8919 26.9654C26.7998 27.3242 26.7331 27.6898 26.6317 28.0447C26.5663 28.2741 26.6157 28.3782 26.8612 28.4289C27.4589 28.553 28.0499 28.7104 28.6462 28.8385C28.865 28.8852 28.941 28.9746 28.8783 29.2C28.7863 29.5296 28.7236 29.8671 28.6395 30.1993C28.5995 30.3567 28.6395 30.4421 28.8063 30.4781C29.1505 30.5515 29.4934 30.6316 29.8336 30.7196C30.007 30.765 30.0897 30.7156 30.1271 30.5382C30.1991 30.194 30.2925 29.8538 30.3646 29.5096C30.4033 29.3228 30.4913 29.2761 30.6781 29.3134C31.2677 29.4335 31.2758 29.4295 31.4319 28.8452C31.4812 28.6597 31.5653 28.6063 31.748 28.653C32.0882 28.7411 32.4338 28.8091 32.774 28.8972C32.9501 28.9425 33.0288 28.8865 33.0648 28.7117C33.1355 28.3769 33.2116 28.042 33.2996 27.7111C33.3516 27.519 33.2836 27.4416 33.1008 27.4043C32.7927 27.3416 32.4911 27.2455 32.1803 27.1962C31.8921 27.1508 31.8481 27.0201 31.9175 26.7572C32.0655 26.2036 32.1856 25.6405 32.315 25.0829C32.3693 24.849 32.2759 24.7035 32.0349 24.6466C31.692 24.5652 31.3518 24.4785 31.0076 24.4078C30.8061 24.3664 30.7528 24.2637 30.7982 24.0716C31.0183 23.1537 31.2357 22.2345 31.4465 21.3139C31.4905 21.1245 31.5826 21.0764 31.764 21.1218C32.1589 21.2219 32.5552 21.3153 32.9527 21.4006C33.1448 21.442 33.1875 21.5381 33.1408 21.7182C33.0555 22.049 32.9888 22.3866 32.9021 22.7174C32.8554 22.8949 32.8874 22.9949 33.0848 23.0336C33.4197 23.1003 33.7532 23.1817 34.0854 23.2671C34.2548 23.3111 34.3402 23.2711 34.3829 23.091C34.7805 21.378 35.182 19.6649 35.5876 17.9546C35.6316 17.7691 35.5569 17.7051 35.3928 17.6704C35.058 17.5983 34.7271 17.509 34.3923 17.4396C34.1948 17.3996 34.1321 17.3102 34.1841 17.1114C34.2895 16.6991 34.3789 16.2829 34.4749 15.868C34.4923 15.8573 34.511 15.8466 34.5283 15.8359C34.9406 15.9333 35.3515 16.0374 35.7664 16.1268C35.9612 16.1681 36.0185 16.2535 35.9758 16.455C35.8464 17.062 35.8544 17.0633 36.4508 17.2034C36.7203 17.2661 36.9911 17.3222 37.2579 17.3955C37.446 17.4476 37.5408 17.4129 37.5928 17.2048C37.7435 16.5937 37.7515 16.5964 38.3759 16.7418C38.6627 16.8085 38.9509 16.8739 39.2378 16.9406C39.2484 16.958 39.2604 16.9766 39.2711 16.994C39.1724 17.4089 39.067 17.8211 38.9789 18.2374C38.9362 18.4402 38.8388 18.4895 38.6454 18.4388C38.3145 18.3508 37.9783 18.2854 37.6461 18.2C37.482 18.1573 37.3887 18.1854 37.346 18.3695C36.9484 20.0825 36.5468 21.7956 36.1413 23.5073C36.0986 23.6887 36.1626 23.7594 36.3321 23.7954C36.6576 23.8635 36.9831 23.9368 37.3046 24.0249C37.4994 24.0783 37.5941 24.0316 37.6355 23.8248C37.7009 23.4886 37.7956 23.159 37.865 22.8228C37.9036 22.6387 37.989 22.5774 38.1771 22.6254C38.572 22.7268 38.9683 22.8188 39.3672 22.9042C39.5313 22.9389 39.5806 23.0203 39.5459 23.1777C39.5166 23.3125 39.5072 23.4526 39.4765 23.5873C39.2978 24.3544 39.1164 25.1189 38.9349 25.8847C38.8549 26.2262 38.8389 26.2369 38.508 26.1609C38.1558 26.0795 37.8022 26.0048 37.454 25.9114C37.2553 25.858 37.1699 25.9154 37.1259 26.1155C36.9911 26.7305 36.835 27.3402 36.7016 27.9553C36.6549 28.1687 36.5602 28.2261 36.3521 28.1701C36.0212 28.0807 35.685 28.0167 35.3528 27.9313C35.1767 27.8859 35.098 27.9419 35.0606 28.1154C34.9899 28.4502 34.9139 28.7851 34.8258 29.116C34.7738 29.3081 34.8418 29.3855 35.0246 29.4228C35.3328 29.4855 35.6356 29.5816 35.9451 29.631C36.2333 29.6763 36.2747 29.8071 36.208 30.0699C36.0585 30.6516 36.0199 30.5715 36.6095 30.6996C36.863 30.7543 36.9551 30.849 36.875 31.1132C36.7843 31.4134 36.7349 31.7269 36.6522 32.0311C36.6002 32.2245 36.6416 32.3233 36.8497 32.3633C37.1765 32.426 37.5007 32.5047 37.8223 32.5914C38.0064 32.6408 38.0958 32.5914 38.1344 32.4006C38.2025 32.0644 38.2959 31.7349 38.3639 31.3987C38.4039 31.1999 38.496 31.1439 38.6948 31.1919C39.3058 31.344 39.9208 31.4747 40.5318 31.6295C40.744 31.6829 40.8347 31.6295 40.8774 31.4147C40.9507 31.0425 41.0535 30.6756 41.1322 30.3047C41.1722 30.1139 41.2563 30.0325 41.4591 30.0806C42.3769 30.3007 43.2961 30.5168 44.2153 30.733C44.3928 30.7743 44.4635 30.865 44.4168 31.0518C44.3154 31.4561 44.2207 31.8617 44.1313 32.2686C44.0953 32.4313 44.0099 32.478 43.8524 32.4393C43.5109 32.354 43.1654 32.2872 42.8265 32.1952C42.6251 32.1405 42.5397 32.2019 42.501 32.402C42.437 32.7288 42.3569 33.053 42.2742 33.3759C42.2315 33.5427 42.2635 33.6334 42.4463 33.6748C44.1593 34.0723 45.871 34.4739 47.5826 34.8795C47.7654 34.9235 47.8335 34.8541 47.8695 34.686C47.9389 34.3605 48.0296 34.039 48.0923 33.7121C48.135 33.4906 48.2297 33.4199 48.4551 33.48C48.8567 33.588 49.2663 33.6721 49.6719 33.7655C49.6825 33.7842 49.6946 33.8015 49.7052 33.8188C49.6078 34.2311 49.5024 34.6433 49.4144 35.0583C49.373 35.2544 49.2863 35.3104 49.0862 35.2677C48.4805 35.1383 48.4778 35.1463 48.3378 35.7427C48.2751 36.0122 48.219 36.283 48.1457 36.5498C48.0936 36.7379 48.1296 36.8327 48.3378 36.8847C48.9474 37.0355 48.9461 37.0435 48.7994 37.6692C48.7327 37.956 48.6659 38.2442 48.6006 38.5324C48.5832 38.543 48.5646 38.5537 48.5472 38.5657H48.5485ZM34.6324 32.7502C34.7298 32.3366 34.8218 31.9204 34.9259 31.5081C34.9699 31.3347 34.9192 31.2546 34.7444 31.2146C33.8973 31.0211 33.0514 30.8224 32.2056 30.6196C32.0442 30.5809 31.9668 30.6276 31.9295 30.7903C31.7347 31.6375 31.5373 32.4847 31.3331 33.3292C31.2918 33.504 31.3398 33.5827 31.5146 33.6227C32.3524 33.8135 33.1902 34.0096 34.0254 34.2124C34.2121 34.2578 34.2962 34.2084 34.3362 34.0203C34.4256 33.5947 34.5323 33.1731 34.6311 32.7502H34.6324Z" fill="#2B94FC"/>
<path d="M15.7787 34.3061C15.3198 34.198 14.8622 34.0833 14.4005 33.9832C14.2031 33.9405 14.1391 33.8458 14.1871 33.651C14.4072 32.7331 14.6247 31.8139 14.8355 30.8933C14.8782 30.7079 14.9649 30.6518 15.149 30.6959C15.6159 30.8093 16.0869 30.912 16.5552 31.0187C16.5658 31.0361 16.5765 31.0548 16.5885 31.0734C16.3364 32.1407 16.0842 33.2081 15.8321 34.274C15.8147 34.2847 15.796 34.2954 15.7787 34.3074V34.3061Z" fill="#2B94FC"/>
<path d="M31.2478 15.0609C31.3545 14.6112 31.4719 14.163 31.564 13.7094C31.6134 13.4666 31.7281 13.4159 31.9549 13.4719C32.8354 13.688 33.7173 13.8962 34.6018 14.0976C34.8299 14.1496 34.9086 14.2497 34.8472 14.4858C34.7312 14.9328 34.6378 15.3864 34.5351 15.8373C34.5177 15.848 34.499 15.8587 34.4817 15.8693C33.4144 15.6172 32.3484 15.365 31.2812 15.1142C31.2705 15.0955 31.2585 15.0782 31.2478 15.0595V15.0609Z" fill="#2B94FC"/>
<path d="M39.243 16.9431C39.3538 16.4841 39.4712 16.0265 39.5713 15.5663C39.6166 15.3555 39.7153 15.2928 39.9235 15.3421C40.832 15.5622 41.7405 15.7757 42.6517 15.9878C42.8478 16.0332 42.9039 16.1359 42.8545 16.3294C42.7398 16.787 42.6384 17.2486 42.5317 17.7075L42.4783 17.7409C41.411 17.4928 40.3437 17.2446 39.2764 16.9964C39.2657 16.9791 39.2537 16.9604 39.243 16.9431Z" fill="#2B94FC"/>
<path d="M17.6599 26.3077C17.2103 26.1997 16.762 26.0836 16.3098 25.9862C16.095 25.9395 16.0109 25.8515 16.0669 25.6233C16.2884 24.7148 16.5019 23.8049 16.7087 22.8937C16.7553 22.6869 16.8567 22.6482 17.0462 22.6962C17.5038 22.811 17.9654 22.9124 18.4243 23.0178C18.435 23.0351 18.447 23.0538 18.4577 23.0711C18.2095 24.1384 17.9614 25.2071 17.7119 26.2744C17.6946 26.2851 17.6759 26.2957 17.6586 26.3077H17.6599Z" fill="#2B94FC"/>
<path d="M35.0127 49.7786C34.9086 50.2202 34.7952 50.6591 34.7032 51.1034C34.6525 51.3435 34.5484 51.4276 34.2976 51.3675C33.4264 51.1541 32.5526 50.9499 31.676 50.7565C31.4132 50.6991 31.3532 50.5804 31.4212 50.3269C31.5386 49.8893 31.6267 49.4437 31.7281 49.0021C31.7454 48.9914 31.7641 48.9808 31.7814 48.9688C32.8474 49.2209 33.9147 49.4717 34.9806 49.7239C34.9913 49.7412 35.0033 49.7599 35.014 49.7772L35.0127 49.7786Z" fill="#2B94FC"/>
<path d="M23.7821 47.0996C24.8493 47.3478 25.9166 47.5959 26.9839 47.8441C26.9946 47.8614 27.0053 47.8801 27.0173 47.8988C26.9092 48.3484 26.7932 48.7966 26.6958 49.2489C26.6451 49.4837 26.5317 49.5478 26.3009 49.4917C25.4204 49.2783 24.5372 49.0728 23.6527 48.874C23.4205 48.822 23.3498 48.7193 23.4112 48.4844C23.5286 48.0375 23.6246 47.5839 23.7287 47.133C23.746 47.1223 23.7647 47.1116 23.7821 47.0996Z" fill="#2B94FC"/>
<path d="M47.8029 41.7679C48.051 40.7006 48.3005 39.6333 48.5486 38.5646C48.5659 38.5539 48.5846 38.5433 48.602 38.5312C49.0422 38.6366 49.4785 38.7581 49.9228 38.8434C50.1616 38.8888 50.231 38.9969 50.1803 39.2197C50.0308 39.8667 49.8841 40.5151 49.7347 41.1635C49.6786 41.4063 49.6106 41.6465 49.5666 41.892C49.5252 42.1241 49.4238 42.2015 49.185 42.1388C48.7394 42.0214 48.2871 41.9266 47.8375 41.8212C47.8269 41.8026 47.8149 41.7852 47.8042 41.7665L47.8029 41.7679Z" fill="#2B94FC"/>
<path d="M50.483 30.5352C50.9326 30.6419 51.3795 30.7553 51.8305 30.85C52.0212 30.89 52.0933 30.9647 52.0599 31.1675C51.9599 31.7786 51.7838 32.3723 51.653 32.9766C51.5823 33.3008 51.4969 33.6224 51.4262 33.9479C51.3862 34.1307 51.2928 34.1894 51.1087 34.144C50.6418 34.0306 50.1735 33.9279 49.7052 33.8225C49.6946 33.8051 49.6825 33.7865 49.6719 33.7691C49.924 32.7018 50.1762 31.6358 50.4283 30.5685C50.4457 30.5578 50.4643 30.5472 50.4817 30.5365L50.483 30.5352Z" fill="#2B94FC"/>
<path d="M35.3261 48.2475C34.8765 48.1407 34.4296 48.0273 33.9773 47.9313C33.7612 47.8859 33.6772 47.7952 33.7359 47.5684C33.8412 47.1668 33.9346 46.7612 34.0227 46.3557C34.0614 46.1769 34.1387 46.1008 34.3295 46.1489C34.7324 46.2516 35.1366 46.345 35.5422 46.4344C35.717 46.4731 35.765 46.5598 35.7237 46.7306C35.6036 47.2242 35.4929 47.7192 35.3781 48.2141C35.3608 48.2248 35.3421 48.2355 35.3248 48.2475H35.3261Z" fill="#2B94FC"/>
<path d="M46.274 41.4572C45.7897 41.3425 45.3054 41.2224 44.8197 41.1157C44.625 41.073 44.5596 40.9876 44.6117 40.7875C44.7117 40.4032 44.8011 40.0163 44.8838 39.6281C44.9251 39.4347 45.0172 39.3599 45.2133 39.4093C45.6255 39.512 46.0378 39.6108 46.4514 39.7042C46.6502 39.7495 46.6955 39.8589 46.6488 40.0484C46.5354 40.5046 46.434 40.9649 46.3273 41.4225C46.31 41.4332 46.2913 41.4439 46.274 41.4559V41.4572Z" fill="#2B94FC"/>
<path d="M17.3076 34.6194C17.4157 34.1618 17.5317 33.7055 17.6305 33.2452C17.6758 33.0317 17.7812 32.9744 17.984 33.0251C18.3869 33.1265 18.7898 33.2225 19.1954 33.3146C19.3902 33.3586 19.4489 33.4613 19.3995 33.6548C19.2994 34.0484 19.2074 34.4433 19.1207 34.8408C19.082 35.0169 18.9926 35.061 18.8232 35.0196C18.3309 34.8995 17.8359 34.7888 17.341 34.6741C17.3303 34.6554 17.3183 34.6381 17.3076 34.6194Z" fill="#2B94FC"/>
<path d="M42.1661 19.272C42.0513 19.7576 41.9299 20.2406 41.8245 20.7289C41.7818 20.9263 41.6938 20.9863 41.495 20.9357C41.1028 20.8329 40.7052 20.7435 40.309 20.6555C40.1356 20.6168 40.0808 20.5234 40.1209 20.3566C40.2236 19.9257 40.329 19.4948 40.4237 19.0625C40.4637 18.8797 40.5678 18.8531 40.7292 18.8931C41.1962 19.0051 41.6644 19.1105 42.1314 19.2199C42.1421 19.2386 42.1541 19.256 42.1647 19.2746L42.1661 19.272Z" fill="#2B94FC"/>
<path d="M48.9541 30.2228C48.8474 30.6724 48.734 31.1193 48.638 31.5702C48.5873 31.8064 48.4712 31.8704 48.2431 31.8104C47.8508 31.709 47.4533 31.6209 47.057 31.5329C46.8796 31.4929 46.8089 31.4035 46.8556 31.2167C46.957 30.8138 47.0517 30.4095 47.1397 30.004C47.1784 29.8292 47.2652 29.7812 47.4359 29.8225C47.9282 29.9426 48.4245 30.0533 48.9181 30.1681C48.9288 30.1854 48.9408 30.2041 48.9515 30.2214L48.9541 30.2228Z" fill="#2B94FC"/>
<path d="M19.9878 23.3828C20.4721 23.4975 20.9564 23.6176 21.4433 23.7244C21.6394 23.767 21.7022 23.8538 21.6501 24.0526C21.5514 24.4274 21.4633 24.805 21.3846 25.1839C21.3393 25.4014 21.2325 25.4774 21.0124 25.4227C20.6188 25.3227 20.2226 25.2319 19.8264 25.1479C19.6169 25.1025 19.5609 24.9971 19.6129 24.7903C19.729 24.3341 19.829 23.8738 19.9358 23.4162C19.9531 23.4055 19.9718 23.3948 19.9892 23.3841L19.9878 23.3828Z" fill="#2B94FC"/>
<path d="M30.9356 16.5918C31.3945 16.6999 31.8521 16.8133 32.3124 16.9147C32.4778 16.9507 32.5405 17.0174 32.5165 17.1988C32.4564 17.6591 32.3137 18.1007 32.2136 18.5503C32.1843 18.6837 32.0922 18.7251 31.9615 18.6931C31.5386 18.593 31.117 18.4903 30.6928 18.3969C30.4966 18.3542 30.5073 18.2315 30.5433 18.082C30.6581 17.5964 30.7701 17.1094 30.8835 16.6238C30.9009 16.6131 30.9196 16.6025 30.9369 16.5918H30.9356Z" fill="#2B94FC"/>
<path d="M24.0956 45.5701C24.2103 45.0845 24.3317 44.6002 24.4384 44.1119C24.4825 43.9118 24.5745 43.8571 24.7706 43.9091C25.1548 44.0092 25.5431 44.0972 25.9313 44.1826C26.0821 44.216 26.1474 44.2747 26.1261 44.4468C26.0701 44.9177 25.9246 45.3673 25.8192 45.8263C25.7779 46.0037 25.6405 45.977 25.5071 45.9464C25.0481 45.8396 24.5892 45.7329 24.1303 45.6262C24.1196 45.6075 24.1089 45.5901 24.0969 45.5715L24.0956 45.5701Z" fill="#2B94FC"/>
<path d="M51.5249 36.7561C51.4769 36.9629 51.4222 37.1684 51.3808 37.3765C51.3475 37.5473 51.2634 37.6073 51.0886 37.5633C50.7311 37.4726 50.3723 37.3885 50.0107 37.3112C49.8346 37.2738 49.7906 37.1817 49.8319 37.0136C49.9387 36.5841 50.0387 36.1518 50.1361 35.7195C50.1708 35.5621 50.2482 35.5034 50.4109 35.5434C50.7778 35.6341 51.146 35.7209 51.5156 35.8022C51.6797 35.8383 51.7224 35.9263 51.6824 36.0824C51.625 36.3052 51.5756 36.5307 51.5236 36.7561H51.5249Z" fill="#2B94FC"/>
<path d="M16.2736 28.4763C16.2229 28.6924 16.1682 28.9072 16.1228 29.1233C16.0895 29.2821 16.0094 29.3394 15.848 29.2994C15.4811 29.2087 15.1129 29.122 14.7433 29.0406C14.5793 29.0046 14.5379 28.9165 14.5766 28.7604C14.682 28.3295 14.7834 27.8986 14.8794 27.4663C14.9168 27.2955 14.9982 27.2355 15.1729 27.2795C15.5305 27.3703 15.8894 27.4543 16.2509 27.5317C16.4283 27.5704 16.4737 27.6624 16.4284 27.8305C16.371 28.044 16.3256 28.2615 16.2749 28.4776L16.2736 28.4763Z" fill="#2B94FC"/>
<path d="M28.805 50.8217C28.5809 50.7697 28.3568 50.715 28.1313 50.6643C27.9965 50.6336 27.9498 50.5575 27.9819 50.4228C28.0739 50.0372 28.1646 49.6503 28.254 49.2634C28.286 49.1233 28.3728 49.0913 28.5008 49.122C28.9491 49.2287 29.3987 49.3341 29.8483 49.4369C29.9964 49.4702 30.0444 49.5503 30.0084 49.697C29.9163 50.0732 29.8283 50.4508 29.7429 50.8284C29.7082 50.9818 29.6188 51.0151 29.4774 50.9805C29.2533 50.9244 29.0291 50.8737 28.8037 50.8217H28.805Z" fill="#2B94FC"/>
<path d="M37.4527 14.0171C37.6688 14.0678 37.8836 14.1225 38.0997 14.1679C38.2572 14.2013 38.3159 14.28 38.2758 14.4427C38.1851 14.8096 38.0984 15.1778 38.017 15.5474C37.981 15.7115 37.893 15.7529 37.7369 15.7155C37.3073 15.6101 36.8763 15.5087 36.4428 15.4127C36.2733 15.3753 36.2106 15.2952 36.256 15.1205C36.3467 14.7629 36.4307 14.4027 36.5095 14.0425C36.5468 13.8664 36.6389 13.8184 36.807 13.8637C37.0205 13.9211 37.2379 13.9664 37.4527 14.0171Z" fill="#2B94FC"/>
<path d="M47.8361 41.8208C47.7361 42.2344 47.6294 42.6466 47.54 43.0615C47.4973 43.255 47.4146 43.3257 47.2131 43.2723C46.8743 43.1816 46.5314 43.1016 46.1872 43.0322C45.983 42.9908 45.9404 42.8908 45.9884 42.6986C46.0924 42.2864 46.1792 41.8701 46.2739 41.4552C46.2912 41.4446 46.3099 41.4339 46.3273 41.4219C46.8195 41.5366 47.3118 41.6527 47.8028 41.7674C47.8135 41.7848 47.8241 41.8034 47.8361 41.8221V41.8208Z" fill="#2B94FC"/>
<path d="M17.3409 34.6723C17.2408 35.0859 17.1341 35.4982 17.0447 35.9131C17.002 36.1065 16.9193 36.1773 16.7179 36.1239C16.379 36.0332 16.0361 35.9531 15.6919 35.8837C15.4878 35.8424 15.4451 35.7423 15.4931 35.5502C15.5972 35.138 15.6839 34.7217 15.7786 34.3068C15.796 34.2961 15.8146 34.2854 15.832 34.2734C16.3243 34.3882 16.8166 34.5042 17.3075 34.619C17.3182 34.6377 17.3302 34.655 17.3409 34.6737V34.6723Z" fill="#2B94FC"/>
<path d="M23.7288 47.1325C23.3152 47.0324 22.9043 46.927 22.4894 46.8363C22.2959 46.7936 22.2252 46.7109 22.2786 46.5094C22.3693 46.1706 22.4494 45.8277 22.5187 45.4835C22.5601 45.2794 22.6601 45.2353 22.8523 45.2834C23.2645 45.3861 23.6807 45.4741 24.0943 45.5689C24.105 45.5862 24.1157 45.6049 24.1277 45.6236C24.0129 46.1159 23.8969 46.6082 23.7821 47.1005C23.7648 47.1111 23.7461 47.1218 23.7288 47.1338V47.1325Z" fill="#2B94FC"/>
<path d="M34.9792 49.7251C35.0953 49.2328 35.2101 48.7405 35.3261 48.2482C35.3435 48.2375 35.3621 48.2269 35.3795 48.2148C35.7931 48.3149 36.204 48.4203 36.6202 48.511C36.8137 48.5537 36.8844 48.6364 36.831 48.8379C36.7403 49.1768 36.6602 49.5196 36.5909 49.8638C36.5495 50.068 36.4495 50.1107 36.2573 50.0626C35.8451 49.9586 35.4288 49.8719 35.0153 49.7771C35.0046 49.7598 34.9926 49.7411 34.9819 49.7238L34.9792 49.7251Z" fill="#2B94FC"/>
<path d="M48.9208 30.1681C49.0208 29.7546 49.1276 29.3436 49.2183 28.9274C49.261 28.7326 49.345 28.6632 49.5452 28.7166C49.884 28.8073 50.2269 28.8874 50.5711 28.9567C50.7765 28.9981 50.8179 29.0995 50.7699 29.2916C50.6658 29.7039 50.5791 30.1201 50.4844 30.535C50.467 30.5457 50.4483 30.5564 50.431 30.567C49.9387 30.4523 49.4464 30.3362 48.9541 30.2215C48.9435 30.2042 48.9314 30.1855 48.9208 30.1681Z" fill="#2B94FC"/>
<path d="M18.4242 23.0158C18.5243 22.6022 18.631 22.1913 18.7217 21.775C18.7644 21.5803 18.8484 21.5109 19.0486 21.5642C19.3874 21.655 19.7303 21.735 20.0745 21.8044C20.2799 21.8458 20.3213 21.9472 20.2733 22.1393C20.1692 22.5515 20.0825 22.9678 19.9878 23.3827C19.9704 23.3934 19.9517 23.404 19.9344 23.4147C19.4421 23.3 18.9498 23.1839 18.4575 23.0692C18.4469 23.0518 18.4349 23.0331 18.4242 23.0158Z" fill="#2B94FC"/>
<path d="M42.5331 17.7084C42.9466 17.8084 43.3576 17.9152 43.7738 18.0045C43.9672 18.0472 44.0379 18.13 43.9846 18.3314C43.8938 18.6703 43.8138 19.0132 43.7444 19.3574C43.7031 19.5615 43.603 19.6042 43.4109 19.5562C42.9987 19.4521 42.5824 19.3654 42.1689 19.2706C42.1582 19.2533 42.1462 19.2346 42.1355 19.2173C42.2516 18.725 42.3663 18.2327 42.4823 17.7404C42.4997 17.7297 42.5184 17.719 42.5357 17.707L42.5331 17.7084Z" fill="#2B94FC"/>
<path d="M31.2811 15.1158C31.1664 15.608 31.0503 16.1003 30.9356 16.5926C30.9182 16.6033 30.8995 16.614 30.8822 16.6247C30.4686 16.5246 30.0577 16.4192 29.6428 16.3285C29.4493 16.2858 29.3787 16.2031 29.432 16.0016C29.5227 15.6628 29.6028 15.3199 29.6721 14.9757C29.7135 14.7715 29.8136 14.7275 30.0057 14.7755C30.4179 14.8783 30.8342 14.9663 31.2477 15.061C31.2584 15.0797 31.2704 15.0971 31.2811 15.1158Z" fill="#2B94FC"/>
</svg>
