<svg width="41" height="41" fill="none" xmlns="http://www.w3.org/2000/svg"><rect width="41" height="41" rx="20.5" fill="#2D2D2D"/><path d="M30.576 15.048a8.075 8.075 0 01-2.256.624 3.84 3.84 0 001.728-2.184 8.29 8.29 0 01-2.496.96 3.938 3.938 0 00-6.816 2.688c0 .312.024.6.096.888-3.264-.144-6.144-1.728-8.088-4.104-1.392 2.496.168 4.56 1.2 5.256-.624 0-1.248-.192-1.776-.48 0 1.944 1.368 3.552 3.144 3.912-.384.12-1.248.192-1.776.072.504 1.56 1.968 2.712 3.672 2.736-1.344 1.056-3.312 1.896-5.832 1.632a11.103 11.103 0 006.048 1.776c7.248 0 11.184-6 11.184-11.184 0-.168 0-.336-.024-.504.816-.6 1.488-1.296 1.992-2.088z" fill="#fff"/></svg>