<svg width="78" height="79" viewBox="0 0 78 79" fill="none" xmlns="http://www.w3.org/2000/svg">
<g clip-path="url(#clip0_2255_44435)">
<path d="M29.3131 10.4607C29.156 10.5439 29.038 10.6532 28.9456 10.7746C22.1376 14.727 13.1117 21.7289 10.9132 29.6031C8.86868 36.9238 12.201 44.3796 14.8837 51.1665C17.3409 57.3861 20.2208 62.9565 26.9507 64.9786C33.1234 66.8338 42.1852 70.2497 48.648 68.2234C57.3071 65.5092 62.0289 56.3023 65.7766 48.6577C66.9128 46.3372 68.5046 43.2809 68.0566 40.5944C67.547 37.536 66.2535 34.508 65.2054 31.6109C63.0503 25.6484 60.665 16.128 54.4461 12.9868C47.6325 9.54809 36.4531 6.704 29.3131 10.4607ZM29.9195 12.4319C29.9736 12.4152 30.0241 12.4175 30.081 12.3917C36.5021 9.33972 45.9459 12.4423 52.1543 14.8173C52.3144 14.8783 52.4599 14.9627 52.6139 15.0325C54.7607 18.4614 48.7139 24.0869 46.7894 26.4874C43.9103 30.0812 40.5912 33.4568 36.4485 35.5612C33.3366 37.1423 30.1344 36.8922 26.8559 36.1529C22.7806 35.2348 14.2786 33.7128 14.2727 28.4959C15.9834 24.983 19.2246 21.9822 21.8963 19.4188C24.4476 16.9704 27.0117 14.4578 29.9195 12.4319ZM17.089 49.1546C15.0544 44.0298 12.4405 38.1315 13.0974 32.5152C14.5127 34.3215 17.0806 35.4568 19.6756 36.4232C24.4977 38.2224 29.5843 39.7421 34.6275 38.664C36.1104 40.122 37.201 42.0446 38.0861 44.0937C38.2909 44.7172 38.5126 45.3149 38.7332 45.8698C38.7705 45.9636 38.8272 46.0338 38.8853 46.1034C39.4819 47.7125 39.9983 49.3247 40.52 50.7814C42.3211 55.8055 43.8189 61.0798 46.194 65.871C40.7312 66.766 33.6363 63.9667 28.5067 62.5519C21.8346 60.7114 19.4771 55.1683 17.089 49.1546ZM62.3061 31.608C63.281 34.2448 64.2054 36.9033 65.0012 39.6001C65.7535 42.1512 64.7479 44.2375 63.7043 46.5899C60.6234 53.5314 55.7942 62.8945 48.1015 65.4098C46.3991 59.44 43.9724 53.5664 41.8171 47.7399C41.3502 46.4772 40.8481 45.0176 40.2459 43.5594C39.7388 41.1746 39.2749 39.0108 39.9352 36.4543C44.2352 33.7486 47.7268 29.299 50.6482 25.4902C52.5701 22.9867 55.3069 20.0442 55.575 17.2168C59.0777 20.9522 60.7594 27.429 62.3036 31.6058L62.3061 31.608Z" fill="#DEDEDE"/>
<path d="M49.4433 43.5773C50.377 42.8863 50.8456 41.7009 50.7787 40.5638C50.7047 39.26 49.5521 37.9615 48.248 37.8215C46.9168 37.6778 45.6633 38.6462 45.2906 39.9038C45.102 40.5431 45.1297 41.2802 45.3579 41.9344C45.5381 42.5885 45.8918 43.2087 46.2941 43.5731C47.207 44.3978 48.501 44.2749 49.4419 43.5779L49.4433 43.5773Z" fill="#DEDEDE"/>
<path d="M55.7354 36.2832C56.6705 35.5917 57.1377 34.4068 57.0722 33.2691C56.9981 31.9654 55.847 30.6663 54.5414 30.5268C53.2089 30.3837 51.9568 31.3515 51.5841 32.6092C51.3933 33.2509 51.4226 33.9921 51.6533 34.6486C51.8337 35.2993 52.1872 35.9149 52.5889 36.2779C53.5019 37.1026 54.7958 36.9797 55.7354 36.2832Z" fill="#DEDEDE"/>
<path d="M53.3577 47.9837C52.0271 47.8414 50.7731 48.8084 50.4004 50.066C50.211 50.7072 50.2379 51.4462 50.4685 52.1026C50.6489 52.7534 51.0016 53.3709 51.4052 53.7348C52.3182 54.5594 53.6121 54.4366 54.5531 53.7395C55.4862 53.0471 55.9554 51.8631 55.8885 50.726C55.8144 49.4222 54.6633 48.1232 53.3577 47.9837Z" fill="#DEDEDE"/>
<path d="M59.4938 40.5567C58.1632 40.4144 56.9092 41.3814 56.537 42.6404C56.347 43.2802 56.3767 44.0181 56.6054 44.6737C56.785 45.3264 57.1382 45.9453 57.5413 46.3077C58.4542 47.1324 59.7468 47.0101 60.6891 46.3125C61.6223 45.6201 62.0914 44.4361 62.0259 43.2984C61.9505 41.9952 60.8007 40.6956 59.4952 40.5561L59.4938 40.5567Z" fill="#DEDEDE"/>
<path d="M28.0876 45.7182C26.1837 45.7543 25.1581 47.5449 25.0007 49.2476C24.4849 51.3837 26.2416 53.4939 28.446 54.0688C29.6714 54.3888 31.0083 54.1449 31.8938 53.1998C33.0139 52.0047 32.7712 50.2405 32.3913 48.8026C31.8879 46.8975 29.9841 45.6835 28.0876 45.7182ZM29.4444 50.4731C29.4444 50.4731 29.4309 50.4673 29.4251 50.4648L29.424 50.462C29.4488 50.4682 29.4521 50.4684 29.4463 50.4739L29.4444 50.4731Z" fill="#DEDEDE"/>
<path d="M22.7161 29.7188C23.6175 29.7184 24.5405 29.1612 25.0446 28.3949C25.0571 28.3819 25.0698 28.3737 25.0822 28.3607C25.5666 27.834 25.9248 26.9179 25.771 26.2054C25.2772 23.9224 22.3196 24.2512 21.0935 25.7026C20.5914 26.2971 20.2974 27.2181 20.4489 27.9891C20.6744 29.1511 21.5799 29.7198 22.7161 29.7188Z" fill="#DEDEDE"/>
<path d="M32.7337 25.7354C33.6351 25.735 34.5567 25.1784 35.0622 24.4115C35.0747 24.3985 35.0874 24.3903 35.0998 24.3773C35.5855 23.8501 35.9424 22.9345 35.7886 22.222C35.2948 19.939 32.3371 20.2678 31.1111 21.7192C30.609 22.3137 30.3164 23.2341 30.4665 24.0057C30.692 25.1677 31.5975 25.7364 32.735 25.7349L32.7337 25.7354Z" fill="#DEDEDE"/>
<path d="M42.7512 21.752C43.6527 21.7516 44.5743 21.195 45.0798 20.4281C45.0922 20.4151 45.1049 20.4069 45.1174 20.3939C45.6031 19.8667 45.96 18.9511 45.8061 18.2386C45.3124 15.9556 42.3547 16.2844 41.1287 17.7358C40.6266 18.3303 40.3339 19.2507 40.4841 20.0223C40.7096 21.1843 41.6151 21.753 42.7526 21.7515L42.7512 21.752Z" fill="#DEDEDE"/>
<path d="M52.8837 9.84721C52.8063 9.82526 52.7859 9.93087 52.8302 9.97399C55.1757 12.2624 58.2034 13.159 60.2552 15.9191C62.0732 18.3645 63.0293 21.4484 64.1118 24.263C64.1581 24.3837 64.3474 24.3372 64.3312 24.2078C63.5113 17.4746 59.5573 11.7478 52.8837 9.84721Z" fill="#DEDEDE"/>
<path d="M64.4252 25.3365C64.5161 26.0596 64.7414 26.7629 64.8596 27.4864C64.8899 27.671 65.1254 27.6604 65.1724 27.4931C65.3822 26.7303 65.0703 25.8776 64.6184 25.2596C64.5557 25.1742 64.4135 25.2308 64.4265 25.3359L64.4252 25.3365Z" fill="#DEDEDE"/>
<path d="M19.8826 62.4455C17.4862 60.2461 16.2998 57.3912 14.4863 54.7922C14.4376 54.722 14.3227 54.7709 14.3317 54.8536C15.023 60.4998 21.8272 67.5933 27.7395 67.4548C27.9466 67.4491 27.9536 67.165 27.7943 67.0861C24.9392 65.6669 22.2908 64.6547 19.8826 62.4455Z" fill="#DEDEDE"/>
<path d="M14.0935 53.7975C14.2097 53.2494 13.9218 52.6701 13.7405 52.1619C13.5457 51.6159 13.2398 51.1157 12.7735 50.7672C12.7057 50.7174 12.5801 50.7674 12.6006 50.8631C12.7192 51.3946 12.9005 51.9108 13.1207 52.4083C13.3384 52.9036 13.4715 53.5317 13.9334 53.8612C13.9962 53.9065 14.0785 53.8722 14.0949 53.7969L14.0935 53.7975Z" fill="#DEDEDE"/>
</g>
<defs>
<clipPath id="clip0_2255_44435">
<rect width="58.7663" height="60.9395" fill="white" transform="translate(0.816406 21.7139) rotate(-21.6844)"/>
</clipPath>
</defs>
</svg>
