<svg width="22" height="23" viewBox="0 0 22 23" fill="none" xmlns="http://www.w3.org/2000/svg">
<path d="M19.6429 0.939453H2.35714C1.0558 0.939453 0 1.99526 0 3.2966V20.5823C0 21.8836 1.0558 22.9395 2.35714 22.9395H19.6429C20.9442 22.9395 22 21.8836 22 20.5823V3.2966C22 1.99526 20.9442 0.939453 19.6429 0.939453ZM17.2415 8.73767C17.2513 8.87517 17.2513 9.01758 17.2513 9.15508C17.2513 13.4127 14.0103 18.3185 8.08795 18.3185C6.26116 18.3185 4.56696 17.7881 3.14286 16.8747C3.40313 16.9042 3.65357 16.914 3.91875 16.914C5.42634 16.914 6.81116 16.4033 7.91607 15.539C6.50179 15.5095 5.31339 14.5814 4.9058 13.3046C5.40179 13.3783 5.84866 13.3783 6.35938 13.2457C4.88616 12.9461 3.78125 11.6497 3.78125 10.0832V10.0439C4.20848 10.2845 4.70937 10.4319 5.23482 10.4515C4.79307 10.1577 4.43093 9.75903 4.18072 9.29118C3.93052 8.82333 3.80002 8.30081 3.80089 7.77026C3.80089 7.17115 3.95804 6.62115 4.23795 6.14481C5.82411 8.09927 8.2058 9.37606 10.8772 9.51356C10.4205 7.32829 12.0558 5.55552 14.0201 5.55552C14.9482 5.55552 15.783 5.94347 16.3723 6.57204C17.0991 6.43454 17.7964 6.16445 18.4152 5.79615C18.1746 6.54258 17.6688 7.17115 17.0009 7.56892C17.6491 7.50017 18.2777 7.31847 18.8571 7.06802C18.4201 7.71133 17.8701 8.28097 17.2415 8.73767Z" />
</svg>
