<svg width="33" height="23" viewBox="0 0 33 23" fill="none" xmlns="http://www.w3.org/2000/svg">
<path d="M32.2933 4.39125C32.1066 3.72511 31.7428 3.12202 31.2407 2.64609C30.7244 2.15552 30.0916 1.80461 29.4021 1.62647C26.8215 0.946267 16.4824 0.946267 16.4824 0.946267C12.1721 0.897228 7.86293 1.11292 3.57913 1.59212C2.88957 1.78342 2.25797 2.14217 1.74052 2.63647C1.23208 3.12566 0.863813 3.72892 0.671432 4.38988C0.209297 6.87948 -0.0152404 9.40736 0.000848101 11.9394C-0.0156417 14.4692 0.208344 16.9963 0.671432 19.489C0.85969 20.1472 1.22659 20.7477 1.7364 21.2328C2.2462 21.7179 2.88106 22.0683 3.57913 22.2538C6.19413 22.9326 16.4824 22.9326 16.4824 22.9326C20.7981 22.9817 25.1128 22.766 29.4021 22.2868C30.0916 22.1086 30.7244 21.7577 31.2407 21.2672C31.7426 20.7913 32.106 20.1881 32.2919 19.522C32.7661 17.0333 32.9967 14.5044 32.9804 11.9711C33.016 9.42696 32.7858 6.88611 32.2933 4.38988V4.39125ZM13.1954 16.6445V7.23574L21.7976 11.9408L13.1954 16.6445Z"/>
</svg>
