<svg width="75" height="92" viewBox="0 0 75 92" fill="none" xmlns="http://www.w3.org/2000/svg">
<g clip-path="url(#clip0_2255_44451)">
<path d="M58.7111 47.4272C57.1292 46.8329 55.5473 46.2385 53.9655 45.6442C54.9354 45.1777 55.8974 44.6959 56.8697 44.2324C57.7602 43.8086 58.1456 42.3117 57.0022 41.8807C55.7721 41.4198 54.5434 40.9558 53.3133 40.4949C58.9196 35.0906 64.6011 29.7643 70.0502 24.1984C70.542 23.6956 70.3552 22.6784 69.6874 22.4246C68.451 21.9569 67.2235 21.4666 65.9946 20.9832C66.7742 20.2049 67.5672 19.4386 68.3383 18.6504C68.6753 18.308 68.7189 17.9254 68.5932 17.5983C68.5371 17.3006 68.3568 17.0319 67.9763 16.8828C59.9823 13.7536 51.9913 10.6219 43.9988 7.49337C43.5284 7.30902 42.9971 7.37216 42.6518 7.77975C34.9366 16.8722 27.4495 26.1697 19.5869 35.136C19.0747 35.7213 19.1959 36.8839 20.0012 37.1649C21.1155 37.5532 22.2305 37.936 23.3463 38.3249C22.6654 39.112 21.9868 39.9022 21.2988 40.684C20.7836 41.2678 20.9086 42.4304 21.7124 42.7106C23.1774 43.2222 24.6463 43.7299 26.1129 44.2384C18.7517 52.255 11.1233 60.021 3.84014 68.1095C2.77449 69.2949 4.3161 70.6597 5.5379 70.033C7.66878 68.9395 9.80116 67.8429 11.9305 66.7487C9.78484 69.034 7.64855 71.3275 5.54898 73.656C4.48178 74.8407 6.02494 76.2062 7.24674 75.5795C24.2777 66.8336 41.2982 58.0137 58.5809 49.782C59.4714 49.3582 59.8553 47.8605 58.7134 47.4302L58.7111 47.4272ZM21.9165 65.1657C21.8911 64.5926 21.8526 64.019 21.8442 63.4462C21.8372 62.8704 21.8301 62.2868 21.7439 61.7173C22.2837 61.441 22.8251 61.1656 23.3657 60.8916C23.2841 61.4732 23.2815 62.0772 23.2703 62.5713C23.2602 62.9834 23.1801 63.8213 23.3372 64.4419C22.8631 64.6842 22.3898 64.925 21.9158 65.1673L21.9165 65.1657ZM17.2731 67.5373C17.2294 67.0342 17.2074 66.5299 17.2061 66.0298C17.2046 65.714 17.2575 65.2839 17.2431 64.8793C17.6512 64.448 18.0562 64.0151 18.4658 63.5845C18.4456 64.0936 18.4639 64.6057 18.4878 65.1262C18.513 65.632 18.4101 66.3341 18.5667 66.8719C18.1347 67.094 17.7027 67.3161 17.2715 67.5366L17.2731 67.5373ZM16.2527 66.2583C16.217 66.8637 16.215 67.4583 16.276 68.0485C14.9786 68.714 13.6803 69.381 12.3821 70.048C13.6713 68.6658 14.9668 67.2905 16.2647 65.9182C16.2626 66.0421 16.2582 66.1591 16.2527 66.2583ZM19.4449 65.0417C19.374 64.3642 19.275 63.7098 19.0899 63.068C19.6603 62.7757 20.233 62.4863 20.8042 62.1924C20.7577 62.7005 20.7337 63.2097 20.7041 63.7143C20.6634 64.398 20.6289 65.0885 20.7443 65.7604C20.3651 65.9558 19.9835 66.1482 19.6028 66.3428C19.5907 65.8894 19.4819 65.4071 19.4449 65.0417ZM24.3793 63.1223C24.3335 62.3165 24.4608 61.288 24.3436 60.3886C25.044 60.0315 25.7467 59.6736 26.447 59.3166C26.3471 59.9566 26.3004 60.6049 26.2771 61.2681C26.2583 61.774 26.1997 62.3954 26.3589 62.8999C25.7243 63.223 25.0897 63.5462 24.455 63.8693C24.4307 63.5253 24.3838 63.2205 24.3777 63.1215L24.3793 63.1223ZM27.2057 61.1872C27.1876 60.4312 27.2183 59.6927 27.1528 58.9563C27.8654 58.5936 28.578 58.227 29.2922 57.865C29.2537 58.3884 29.2693 58.9261 29.2571 59.4064C29.2432 59.978 29.1385 60.7638 29.2797 61.4095C28.6206 61.744 27.9646 62.08 27.307 62.4153C27.2932 61.9975 27.2152 61.5664 27.2049 61.1849L27.2057 61.1872ZM30.204 59.6704C30.1807 58.985 30.2519 58.1698 30.121 57.4425C30.7725 57.112 31.4225 56.7847 32.0755 56.455C32.0482 56.8512 32.0541 57.2497 32.0479 57.6099C32.0358 58.3054 31.9605 59.205 32.1862 59.9373C31.5637 60.2509 30.9413 60.5683 30.3181 60.8835C30.2897 60.4684 30.218 60.0479 30.2055 59.6712L30.204 59.6704ZM33.0509 57.8758C33.0122 57.2867 33.0579 56.6207 33.0176 55.9828C33.7005 55.6386 34.3858 55.3012 35.0678 54.9546C35.0471 55.5364 35.0511 56.1186 35.0374 56.7018C35.0261 57.244 34.9375 57.9202 35.0478 58.5032C34.4299 58.8151 33.8096 59.1201 33.1925 59.4305C33.1817 58.9027 33.0811 58.3552 33.0501 57.8735L33.0509 57.8758ZM36.0007 56.6202C35.9551 55.9376 35.9028 55.2613 35.7875 54.5971C36.377 54.3005 36.9682 54.0046 37.5593 53.7087C37.5613 54.0516 37.5764 54.395 37.5759 54.7272C37.5741 55.4449 37.3906 56.4754 37.6441 57.2094C37.1332 57.4648 36.6216 57.718 36.1123 57.9743C36.1061 57.5044 36.0281 57.0214 36.0014 56.6187L36.0007 56.6202ZM38.4496 55.3636C38.4396 54.7383 38.4426 54.002 38.3454 53.3158C38.9641 53.0061 39.5835 52.6949 40.2037 52.386C40.2017 52.8211 40.2212 53.2589 40.2477 53.6981C40.2793 54.2742 40.2879 55.114 40.4996 55.7839C39.819 56.1235 39.1384 56.4631 38.4577 56.8027C38.5263 56.3321 38.4577 55.8094 38.4504 55.3621L38.4496 55.3636ZM41.0856 53.6238C41.0061 53.0921 40.9743 52.5562 40.924 52.0231C41.6796 51.6463 42.432 51.2641 43.1891 50.8881C43.1476 51.4177 43.1316 51.95 43.1102 52.4815C43.0885 53.0456 43.0448 53.7913 43.173 54.4443C42.5864 54.7347 42.003 55.0304 41.4157 55.3224C41.3422 54.7301 41.1582 54.11 41.084 53.6231L41.0856 53.6238ZM44.0081 52.4052C43.9741 51.7703 43.9771 51.1416 43.9302 50.5178C44.5359 50.2193 45.1464 49.9307 45.7514 49.6337C45.7373 50.1976 45.7526 50.764 45.7742 51.3411C45.7953 51.8834 45.7464 52.5363 45.7941 53.1546C45.2587 53.4176 44.7201 53.6752 44.1856 53.9405C44.1338 53.4066 44.0334 52.8668 44.0081 52.4052ZM46.6183 51.2698C46.5653 50.6067 46.5087 49.9552 46.4229 49.309C47.0891 48.9798 47.76 48.6605 48.4285 48.3343C48.385 48.9879 48.4536 49.6701 48.4961 50.2552C48.5243 50.6549 48.5445 51.239 48.6572 51.7731C48.0361 52.0759 47.4111 52.3709 46.7892 52.6752C46.7396 52.1846 46.6515 51.6949 46.6175 51.2714L46.6183 51.2698ZM49.3539 50.179C49.2581 49.478 49.2429 48.7119 49.1513 47.9822C49.7111 47.7079 50.2726 47.4382 50.834 47.1646C50.9634 47.2129 51.0951 47.2643 51.226 47.3134C51.161 47.8165 51.1463 48.3301 51.1513 48.8301C51.1569 49.3092 51.0885 49.999 51.277 50.5059C50.7186 50.7771 50.1602 51.0445 49.6041 51.3148C49.5157 50.9095 49.4012 50.5109 49.3555 50.1797L49.3539 50.179ZM52.0677 48.7511C52.0475 48.3745 52.031 47.9901 52.0023 47.6074C52.9869 47.9798 53.9715 48.3522 54.9554 48.7262C54.0351 49.1646 53.1204 49.6152 52.2002 50.0574C52.1951 49.6054 52.0846 49.1185 52.0661 48.7503L52.0677 48.7511ZM63.868 23.1009C63.9544 23.7896 64.1203 24.4837 64.2128 25.1158C64.2403 25.3056 64.2071 26.0372 64.292 26.6214C63.7443 27.1456 63.1958 27.6674 62.645 28.1901C62.5992 27.9549 62.5512 27.7322 62.5168 27.5409C62.3617 26.6848 62.1634 25.8312 61.9376 24.9875C62.5832 24.3622 63.2263 23.73 63.868 23.1009ZM64.6446 22.8955C65.4768 23.22 66.3074 23.5477 67.1388 23.8738C66.5297 24.4666 65.9167 25.0556 65.3045 25.6431C65.2031 24.7742 64.9228 23.7373 64.6446 22.8955ZM61.3679 25.5377C61.4209 26.1009 61.5147 26.6626 61.5948 27.233C61.6791 27.8343 61.728 28.434 61.7516 29.039C61.2312 29.5339 60.7108 30.0288 60.1896 30.5214C60.145 30.1081 60.0897 29.7013 60.0502 29.3213C59.9748 28.5974 59.9063 27.8193 59.7926 27.056C60.3197 26.5509 60.8454 26.045 61.3695 25.5384L61.3679 25.5377ZM59.0656 27.7558C59.0985 28.1577 59.1337 28.5588 59.1571 28.9446C59.205 29.7379 59.1793 30.6055 59.2133 31.4479C58.7932 31.8447 58.3723 32.2431 57.9514 32.6414C57.9088 32.3156 57.8541 31.9993 57.8131 31.7261C57.6996 30.9265 57.5799 30.1239 57.4394 29.3248C57.9833 28.8046 58.5225 28.2783 59.0664 27.7581L59.0656 27.7558ZM56.8644 29.8743C56.8634 30.2792 56.8926 30.6889 56.9326 31.1038C56.9873 31.6794 57.0389 32.2535 57.0675 32.832C57.0776 33.0463 57.07 33.2617 57.0638 33.4739C56.6345 33.8779 56.2061 34.2841 55.7768 34.6881C55.7559 34.4764 55.7322 34.2787 55.7183 34.1203C55.6422 33.1905 55.5426 32.2342 55.3701 31.3026C55.8685 30.826 56.3629 30.3494 56.8628 29.8735L56.8644 29.8743ZM54.7389 31.9098C54.756 32.5482 54.8364 33.1898 54.8727 33.8239C54.9073 34.3976 54.8997 34.9761 54.8658 35.5497C54.3613 36.0273 53.8576 36.5071 53.3532 36.9846C53.3111 36.6418 53.2453 36.3049 53.2148 36.0136C53.1325 35.2404 53.0416 34.4534 52.8823 33.6857C53.4999 33.0912 54.1175 32.5005 54.7374 31.9091L54.7389 31.9098ZM52.2876 34.2565C52.3025 34.7478 52.3452 35.2409 52.3856 35.7308C52.4313 36.3214 52.3342 37.1549 52.4658 37.8288C51.9819 38.2873 51.4972 38.7474 51.014 39.2082C50.9202 38.8579 50.7934 38.513 50.7316 38.2395C50.5768 37.5584 50.4777 36.8521 50.335 36.1614C50.9882 35.5282 51.6336 34.8874 52.2899 34.2557L52.2876 34.2565ZM49.6865 36.793C49.7354 37.241 49.8183 37.686 49.9046 38.1076C49.9661 38.4137 50.0089 38.8587 50.0962 39.2904C49.3819 39.0222 48.6693 38.7547 47.955 38.4865C48.5306 37.92 49.1078 37.3581 49.6857 36.7946L49.6865 36.793ZM43.0665 9.57251C44.0095 9.94038 44.9517 10.3098 45.8939 10.6792C52.4064 13.2276 58.9197 15.7743 65.433 18.3249C58.5724 24.9745 51.5177 31.4199 44.7275 38.1454C44.1733 38.6953 44.3988 39.8309 45.1286 40.1065C47.8346 41.1322 50.5398 42.1556 53.2466 43.1797C38.9178 50.0272 24.7651 57.2642 10.6335 64.521C18.009 56.5861 25.5938 48.8435 32.7803 40.73C33.2978 40.1453 33.1704 38.9759 32.3659 38.6972C29.1726 37.5905 25.9792 36.4838 22.7852 35.3825C27.278 30.1589 31.625 24.8176 35.9648 19.4672C36.7071 18.5519 43.9064 9.90076 43.0665 9.57251ZM27.4829 41.9611C27.4002 41.4163 27.3113 40.8762 27.2577 40.3261C27.236 40.1044 27.2212 39.884 27.2148 39.662C27.9868 39.929 28.758 40.1975 29.5285 40.4637C29.026 41.0249 28.5243 41.5883 28.018 42.1456C27.8399 42.0836 27.6595 42.0224 27.4814 41.9603L27.4829 41.9611ZM26.49 39.4118C26.4708 39.6754 26.4732 39.9378 26.4653 40.1378C26.4449 40.6352 26.4762 41.1362 26.5313 41.6313C25.8538 41.398 25.1762 41.1646 24.4979 40.9289C24.9872 40.3634 25.4766 39.798 25.962 39.2287C26.137 39.2892 26.3135 39.3505 26.49 39.4118Z" fill="#EB5B31"/>
<path d="M53.8405 53.6197C46.5414 56.7111 39.5286 60.7711 32.4081 64.2706C25.8673 67.486 19.2529 70.5644 12.8138 73.9859C12.7267 74.0326 12.8028 74.1804 12.8908 74.1399C19.5253 71.171 26.0346 67.9137 32.5617 64.7109C39.6509 61.2292 47.2442 58.0324 53.9104 53.7607C53.9844 53.7134 53.9232 53.5862 53.8397 53.6213L53.8405 53.6197Z" fill="#2D2D2D"/>
<path d="M20.9757 30.8347C24.0693 27.3231 27.0091 23.6746 29.9506 20.0347C33.026 16.2262 36.6997 12.2943 38.9439 7.9197C38.9709 7.86725 38.8978 7.82467 38.863 7.86567C35.5057 11.5183 32.7349 15.87 29.6143 19.7414C26.6744 23.386 23.5835 26.9238 20.8758 30.7485C20.8276 30.8177 20.9189 30.9017 20.9773 30.8354L20.9757 30.8347Z" fill="#2D2D2D"/>
<path d="M20.1127 31.7099C19.774 32.0918 19.3466 32.5716 19.1851 33.0612C19.1667 33.1197 19.2183 33.1712 19.2756 33.139C19.7454 32.8736 20.1213 32.2942 20.2422 31.7699C20.2588 31.6952 20.162 31.6547 20.1134 31.7083L20.1127 31.7099Z" fill="#2D2D2D"/>
<path d="M22.3494 45.2012C16.3588 50.935 10.7907 57.2568 5.26515 63.4414C5.2136 63.4974 5.2994 63.5692 5.35256 63.5177C11.3063 57.7452 16.9238 51.4758 22.4157 45.2617C22.4567 45.2159 22.3896 45.1608 22.3486 45.2028L22.3494 45.2012Z" fill="#2D2D2D"/>
<path d="M57.3419 39.2189C61.8386 35.7263 66.7206 31.7703 70.3908 27.391C70.4241 27.3531 70.3731 27.2884 70.3312 27.3241C65.874 31.0373 61.2737 34.9261 57.2338 39.098C57.1686 39.1668 57.2681 39.2777 57.3427 39.2212L57.3419 39.2189Z" fill="#2D2D2D"/>
</g>
<defs>
<clipPath id="clip0_2255_44451">
<rect width="43.7753" height="79.7102" fill="white" transform="translate(34.5332 0.902344) rotate(25.5353)"/>
</clipPath>
</defs>
</svg>
