<svg width="80" height="80" fill="none" xmlns="http://www.w3.org/2000/svg"><rect width="80" height="80" rx="40" fill="#0CC689"/><path d="M48.55 45.663c0 .839-.55 1.419-1.412 1.511-1.688.186-3.378.378-5.067.564-.62.07-1.243.125-1.855.185h-.264v.016c-.337-.028-.656-.044-.976-.08-1.185-.13-2.37-.267-3.554-.402-.927-.104-1.855-.204-2.768-.318a1.43 1.43 0 01-1.2-1.39v-6.394h4.198a2.167 2.167 0 002.007-1.205c.737-1.366 1.453-2.743 2.18-4.118.025-.048.055-.097.103-.18v.025l.1.167c.737 1.375 1.465 2.754 2.212 4.122a2.21 2.21 0 002.035 1.203h4.259v.213c.003 2.028.003 4.055.002 6.081z" fill="#fff"/><path d="M47.813 38.504h-3.245a1.252 1.252 0 01-1.18-.737c-.86-1.7-1.717-3.393-2.574-5.08l-.02-.04a.422.422 0 01-.028-.434.387.387 0 01.415-.135l3.245.415 3.324.431c.509.05.963.341 1.222.782.837 1.372 1.665 2.751 2.495 4.128.033.053.062.11.086.167a.337.337 0 01-.27.492 1.249 1.249 0 01-.231.011h-3.239zm-15.627.001H28.88a.433.433 0 01-.431-.187.443.443 0 01.074-.464c.837-1.39 1.667-2.782 2.513-4.154.256-.43.7-.714 1.199-.765l3.598-.464c.994-.127 1.99-.257 2.988-.382a.72.72 0 01.271.028.264.264 0 01.176.324c-.02.087-.05.17-.09.248-.865 1.706-1.73 3.42-2.599 5.128a1.195 1.195 0 01-1.101.696c-1.099 0-2.202-.008-3.292-.008z" fill="#fff"/></svg>