<svg width="80" height="80" fill="none" xmlns="http://www.w3.org/2000/svg"><rect width="80" height="80" rx="40" fill="#0CC689"/><g clip-path="url(#clip0_71_2632)"><path d="M37.33 39.5h2.17A4.5 4.5 0 0144 44h-7.001L37 45h8v-1a5.579 5.579 0 00-.886-3H47a5 5 0 014.516 2.851C49.151 46.972 45.322 49 41 49c-2.761 0-5.1-.59-7-1.625v-9.304a6.967 6.967 0 013.33 1.429zM33 47a1 1 0 01-1 1h-2a1 1 0 01-1-1v-9a1 1 0 011-1h2a1 1 0 011 1v9zm13-14a3 3 0 110 6 3 3 0 010-6zm-7-3a3 3 0 110 6 3 3 0 010-6z" fill="#fff"/></g><defs><clipPath id="clip0_71_2632"><path fill="#fff" transform="translate(28 28)" d="M0 0h24v24H0z"/></clipPath></defs></svg>