<svg width="36" height="36" viewBox="0 0 36 36" fill="none" xmlns="http://www.w3.org/2000/svg">
<rect width="36" height="36" rx="18" fill="#EB5B31"/>
<g clip-path="url(#clip0_2680_28511)">
<path d="M24.1085 12.1765C23.5043 11.8512 22.8304 12.4786 22.4354 12.8504C21.5292 13.7334 20.7624 14.7558 19.9026 15.6853C18.9499 16.7077 18.0669 17.7301 17.091 18.7293C16.5333 19.287 15.9291 19.8911 15.5574 20.5882C14.7208 19.7749 14.0005 18.8919 13.071 18.1716C12.3972 17.6604 11.2818 17.2886 11.305 18.5202C11.3515 20.1235 12.769 21.8431 13.8146 22.9351C14.2561 23.3999 14.837 23.8879 15.5109 23.9111C16.3242 23.9576 17.1607 22.9816 17.6487 22.4472C18.5085 21.5177 19.2056 20.472 19.9956 19.5194C21.018 18.2646 22.0636 17.033 23.0628 15.755C23.6902 14.9649 25.6653 13.013 24.1085 12.1765ZM12.3274 18.4272C12.3042 18.4272 12.2809 18.4272 12.2345 18.4504C12.1415 18.4272 12.0718 18.404 11.9789 18.3575C12.0486 18.311 12.1648 18.3342 12.3274 18.4272Z" fill="white"/>
</g>
<defs>
<clipPath id="clip0_2680_28511">
<rect width="13.3884" height="13.3884" fill="white" transform="translate(11.3047 11.3047)"/>
</clipPath>
</defs>
</svg>
