<svg width="35" height="36" fill="none" xmlns="http://www.w3.org/2000/svg"><g id="film 1"><path id="Vector" d="M33.975 3.371H1.025C.46 3.371 0 3.831 0 4.396v27.17c0 .566.459 1.025 1.025 1.025h32.95c.566 0 1.025-.459 1.025-1.025V4.396c0-.566-.459-1.025-1.025-1.025zM13.162 21.423V14.54c0-.493.281-.941.733-1.172a1.453 1.453 0 011.443.076l5.868 3.425a1.298 1.298 0 01.633 1.113 1.298 1.298 0 01-.633 1.113l-5.868 3.425a1.446 1.446 0 01-1.443.076 1.315 1.315 0 01-.733-1.172zM24.078 7.207V5.422h3.44v1.785h-3.44zm-2.05 0h-3.441V5.422h3.44v1.785zm-5.492 0h-3.44V5.422h3.44v1.785zm-5.492 0h-3.44V5.422h3.44v1.785zm0 21.548v1.785h-3.44v-1.785h3.44zm2.051 0h3.44v1.785h-3.44v-1.785zm5.492 0h3.44v1.785h-3.44v-1.785zm5.491 0h3.44v1.785h-3.44v-1.785zM32.95 7.207h-3.38V5.422h3.38v1.785zM5.553 5.422v1.785H2.05V5.422h3.502zM2.05 28.755h3.502v1.785H2.05v-1.785zm27.52 1.785v-1.785h3.38v1.785h-3.38z" fill="#1C1C1C"/></g></svg>