<svg width="34" height="34" fill="none" xmlns="http://www.w3.org/2000/svg"><g id="video-camera-2 2" clip-path="url(#clip0_179_1146)"><g id="Group"><g id="Group_2"><g id="Group_3" fill="#1C1C1C"><path id="Vector" d="M33.796 17.47c-.368-.654-1.226-.9-1.921-.49l-4.659 2.697-1.185.694v6.457l1.104.654c.04 0 .04.04.081.04l4.577 2.657c.205.163.49.245.777.245.776 0 1.39-.613 1.39-1.39V23.56l.04-5.394c0-.245-.04-.49-.204-.695z"/><path id="Vector_2" d="M6.58 15.386a6.575 6.575 0 006.579-6.58 6.575 6.575 0 00-6.58-6.579A6.575 6.575 0 000 8.807c-.04 3.636 2.943 6.579 6.58 6.579zm0-9.277a2.694 2.694 0 012.697 2.698 2.694 2.694 0 01-2.697 2.697c-1.471 0-2.697-1.226-2.697-2.697-.041-1.512 1.185-2.698 2.697-2.698z"/><path id="Vector_3" d="M23.252 15.754c-1.063.53-2.248.858-3.515.858a7.64 7.64 0 01-4.25-1.267H10.83a7.641 7.641 0 01-4.25 1.267c-1.267 0-2.452-.286-3.515-.858a3.195 3.195 0 00-1.593 2.738v9.97c0 1.84 1.512 3.31 3.31 3.31h16.795c1.84 0 3.31-1.511 3.31-3.31v-9.97c-.04-1.145-.694-2.207-1.634-2.738z"/><path id="Vector_4" d="M19.738 15.386a6.575 6.575 0 006.579-6.58 6.575 6.575 0 00-6.58-6.579 6.575 6.575 0 00-6.579 6.58 6.575 6.575 0 006.58 6.579zm0-9.277a2.694 2.694 0 012.697 2.698 2.694 2.694 0 01-2.697 2.697c-1.472 0-2.698-1.226-2.698-2.697a2.669 2.669 0 012.698-2.698z"/></g></g></g></g><defs><clipPath id="clip0_179_1146"><path fill="#fff" d="M0 0h34v34H0z"/></clipPath></defs></svg>