<svg width="72" height="59" fill="none" xmlns="http://www.w3.org/2000/svg"><path d="M58.1 9.61c-1.963-2.419-1.54-4.043 1.26-4.868 1.362-2.055 2.59-2.174 3.668-.368 1.65.969 2.411 3.02 3.112 4.692 1.417 3.44 1.998 7.266 1.94 10.977-.157 9.354-4.826 17.91-11.839 23.928-4.594 3.947-11.097 7.983-17.313 6.118-3.442-1.03-6.508-4.168-8.658-6.941-4.19-5.394-6.341-12.222-6.172-19.042.065-2.815.149-7.43 2.004-9.752 4.093-5.102 10.477 1.812 12.164 4.989 3.79 7.145 1.91 15.256-.749 22.43-2.284 6.146-6.265 12.41-13.318 13.644-3.74.656-7.783.133-11.146-1.645-3.01-1.59-5.376-4.198-6.785-7.283-.541-1.177-2.351-5.028-1.466-6.444 2.746-4.364 5.362 3.236 5.907 5.107.495 1.688 4.89-1.059 4.468-2.471-1.155-3.842-2.795-8.106-7.572-7.89-2.424.108-4.98 1.718-6.136 3.829-5.017 9.135 6.08 19.066 14.293 20.051 8.127.983 16.665-2.951 21.33-9.632 5.394-7.717 9.308-20.416 6.06-29.601-2.61-7.376-11.9-14.055-18.617-7.14-6.087 6.256-4.897 18.798-2.014 26.113 3.216 8.162 11.39 17.465 21.092 14.834 9.606-2.614 18.776-10.95 23.57-19.481 4.588-8.226 7.482-24.76-.998-31.868-5.89-4.937-15.197 2.65-10.065 9.123.448.567 2.32-.771 1.98-1.41z" fill="#CACACA"/></svg>