<svg width="34" height="34" viewBox="0 0 34 34" fill="none" xmlns="http://www.w3.org/2000/svg">
<g clip-path="url(#clip0_2114_21407)">
<path d="M17.1167 27.3162C15.8812 27.3162 14.6456 27.3175 13.4101 27.3162C12.6638 27.3162 12.2946 26.9551 12.2894 26.2186C12.2804 24.8153 11.8052 23.6248 10.8214 22.5929C6.39175 17.9522 8.2806 9.91789 14.9193 8.22436C18.076 7.41951 20.9332 8.17148 23.2584 10.4699C25.3254 12.5143 26.1194 15.0539 25.7102 17.9444C25.4649 19.6715 24.7586 21.1999 23.5554 22.4588C22.498 23.5655 21.9338 24.8282 21.9518 26.3618C21.9583 26.9435 21.5348 27.3124 20.9203 27.315C19.6524 27.3201 18.3846 27.3162 17.1167 27.3162ZM18.0876 12.7555C18.0851 12.2163 17.6551 11.8036 17.0871 11.7946C14.9645 11.761 12.9866 13.2753 12.4572 15.3403C12.332 15.8304 12.6083 16.336 13.0873 16.4908C13.5986 16.6572 14.1085 16.4095 14.2944 15.8756C14.4623 15.3945 14.665 14.9404 15.0342 14.5767C15.6062 14.0131 16.3034 13.7615 17.0948 13.7241C17.69 13.6958 18.0902 13.2933 18.0876 12.7555Z" fill="white"/>
<path d="M13.2743 29.2529H20.9408C21.2829 31.2199 20.272 32.9134 18.3005 33.0863C17.5233 33.1546 16.7305 33.1508 15.952 33.0863C14.4492 32.9612 13.4357 31.9306 13.2808 30.4318C13.242 30.0526 13.2743 29.6657 13.2743 29.2542V29.2529Z" fill="white"/>
<path d="M16.1588 3.04564C16.1588 2.42395 16.1549 1.80355 16.1588 1.18186C16.1652 0.562743 16.5732 0.129364 17.1361 0.135813C17.6861 0.142262 18.0889 0.569192 18.0915 1.17154C18.0967 2.43556 18.0967 3.69958 18.0915 4.9636C18.0889 5.56337 17.6822 5.9903 17.131 5.99417C16.5797 5.99675 16.1665 5.57111 16.1601 4.97392C16.1523 4.33159 16.1588 3.68797 16.1588 3.04564Z" fill="white"/>
<path d="M3.55189 17.5895C2.92959 17.5895 2.30858 17.5934 1.68628 17.5895C1.06011 17.5844 0.627594 17.1884 0.625011 16.6273C0.622429 16.065 1.05623 15.66 1.67982 15.6587C2.93346 15.6548 4.18839 15.6535 5.44203 15.6587C6.06175 15.6613 6.49426 16.074 6.4878 16.6364C6.48006 17.1858 6.05271 17.5831 5.44978 17.5895C4.81715 17.5947 4.18452 17.5895 3.55189 17.5908V17.5895Z" fill="white"/>
<path d="M30.6919 15.6564C31.3142 15.6564 31.9352 15.6538 32.5575 15.6564C33.1862 15.6603 33.62 16.0511 33.6252 16.6122C33.6317 17.1861 33.1927 17.5873 32.5459 17.5886C31.3129 17.5911 30.0799 17.5911 28.8482 17.5886C28.1988 17.5873 27.7598 17.19 27.7637 16.6173C27.7676 16.0447 28.204 15.6603 28.8598 15.6564C29.4705 15.6538 30.0812 15.6564 30.6932 15.6564H30.6919Z" fill="white"/>
<path d="M9.89932 8.31228C9.86059 8.8282 9.685 9.1326 9.31704 9.29899C8.95037 9.46409 8.59274 9.41894 8.29709 9.15066C7.93946 8.82562 7.60507 8.47608 7.26293 8.13557C6.68453 7.56031 6.10612 6.98505 5.53159 6.40464C5.24368 6.11314 5.1404 5.76231 5.28113 5.3702C5.41152 5.00647 5.68523 4.7498 6.06739 4.75496C6.33465 4.75883 6.66904 4.84267 6.85366 5.01808C7.79744 5.91064 8.71023 6.83673 9.61399 7.76926C9.77408 7.93436 9.83864 8.19103 9.90061 8.31357L9.89932 8.31228Z" fill="white"/>
<path d="M29.0438 5.81089C28.9702 5.94632 28.8888 6.21718 28.7145 6.39775C27.834 7.30837 26.9341 8.20092 26.0291 9.08703C25.6095 9.49848 25.0298 9.48816 24.645 9.09863C24.2706 8.71814 24.259 8.14675 24.6567 7.74045C25.5578 6.81952 26.4706 5.9102 27.3899 5.00733C27.692 4.71067 28.0664 4.64231 28.4615 4.81902C28.8307 4.98411 29.0024 5.2898 29.0438 5.81089Z" fill="white"/>
</g>
<defs>
<clipPath id="clip0_2114_21407">
<rect width="33" height="33" fill="white" transform="translate(0.625 0.135742)"/>
</clipPath>
</defs>
</svg>
