<svg width="40" height="32" viewBox="0 0 40 32" fill="none" xmlns="http://www.w3.org/2000/svg">
<g clip-path="url(#clip0_2114_21418)">
<path d="M33.3307 13.9613C32.6521 13.2628 31.9908 12.5826 31.3326 11.9053C30.9043 12.1795 30.5075 12.4356 30.032 12.7401C30.073 11.9992 30.0005 11.3705 29.503 10.8569C29.6195 10.7675 29.7077 10.6978 29.799 10.6296C31.5845 9.31605 32.2521 7.01313 31.4176 5.03747C30.5831 3.06181 28.4795 1.82399 26.3208 2.03913C24.0582 2.26336 22.1955 3.90268 21.8916 6.05409C21.7956 6.73436 21.9373 7.45099 22.0254 8.14489C22.0522 8.36306 22.0365 8.4873 21.868 8.62517C21.4318 8.98273 21.0067 9.35544 20.5721 9.72663C19.1125 7.14797 19.9218 3.58148 22.3781 1.66036C25.0218 -0.406204 28.711 -0.371358 31.3027 1.74521C33.781 3.77086 34.6565 7.48583 32.5387 10.5675C33.2299 11.2644 33.9149 11.9553 34.5935 12.6401C35.2217 12.3007 35.3383 12.3159 35.8421 12.7856C36.9789 13.8476 38.1173 14.9082 39.2542 15.9718C39.7438 16.4308 39.7501 16.6839 39.2841 17.1475C38.9015 17.5278 38.5236 17.9126 38.1346 18.2868C37.7914 18.6171 37.4544 18.6262 37.1049 18.3005C35.8783 17.1641 34.658 16.0218 33.4393 14.8764C33.0977 14.5552 33.0945 14.3658 33.3323 13.9567L33.3307 13.9613Z" fill="white"/>
<path d="M28.7518 27.9311H24.8154C24.8075 27.7918 24.7949 27.6569 24.7949 27.5221C24.7949 22.4935 24.7949 17.465 24.7949 12.4349C24.7949 11.6728 25.0626 11.4198 25.8577 11.4183C26.5395 11.4183 27.2197 11.4092 27.9015 11.4213C28.4762 11.4304 28.7754 11.7213 28.7754 12.2698C28.7785 17.3998 28.777 22.5299 28.7754 27.6584C28.7754 27.7433 28.7596 27.8281 28.7502 27.9296L28.7518 27.9311Z" fill="white"/>
<path d="M15.6771 31.1355C10.8968 31.1355 6.11648 31.1355 1.33615 31.1355C0.690583 31.1355 0.624452 31.0704 0.624452 30.4386C0.624452 30.1492 0.619729 29.8583 0.627601 29.5689C0.6339 29.3144 0.774034 29.175 1.04328 29.1644C1.1472 29.1599 1.2527 29.1614 1.35819 29.1614C10.9047 29.1614 20.4527 29.1614 29.9992 29.1614C30.7188 29.1614 30.7456 29.1886 30.7456 29.8916C30.7456 30.1568 30.744 30.4204 30.7456 30.6855C30.7471 30.9795 30.5976 31.1295 30.2937 31.1355C30.1882 31.137 30.0843 31.1355 29.9788 31.1355C25.211 31.1355 20.4449 31.1355 15.6771 31.1355Z" fill="white"/>
<path d="M9.99023 27.9203V27.4992C9.99023 24.1614 9.99023 20.8237 9.99023 17.4875C9.99023 16.6921 10.2359 16.4603 11.0735 16.4603C11.7537 16.4603 12.4355 16.4542 13.1157 16.4618C13.6652 16.4679 13.9817 16.7557 13.9817 17.2754C13.9864 20.7889 13.9817 24.3023 13.9817 27.8158C13.9817 27.84 13.9707 27.8643 13.9581 27.9203H9.99023Z" fill="white"/>
<path d="M21.3608 27.9326H17.4118C17.4039 27.7978 17.3913 27.666 17.3913 27.5327C17.3913 25.0495 17.3898 22.5678 17.3913 20.0845C17.3913 19.327 17.6637 19.0679 18.4557 19.0649C19.1107 19.0634 19.7657 19.0604 20.4208 19.0649C21.0994 19.071 21.3828 19.3422 21.3828 19.9861C21.3844 22.5193 21.3828 25.0525 21.3828 27.5857C21.3828 27.6948 21.3702 27.8054 21.3623 27.9326H21.3608Z" fill="white"/>
<path d="M6.58316 27.9361H2.61687C2.609 27.8073 2.5964 27.6861 2.5964 27.5664C2.5964 26.3331 2.59483 25.0999 2.5964 23.8666C2.5964 23.2015 2.8814 22.9212 3.56947 22.9166C4.27487 22.9106 4.98184 22.9075 5.68882 22.9182C6.21944 22.9257 6.56899 23.1803 6.57686 23.6363C6.60048 25.0559 6.58473 26.4756 6.58473 27.9361H6.58316Z" fill="white"/>
<path d="M2.88869 17.2194C2.89184 16.3149 3.64448 15.5877 4.57976 15.5801C5.52449 15.5741 6.29602 16.321 6.29287 17.2391C6.28814 18.1391 5.53236 18.8724 4.59865 18.8784C3.65078 18.8845 2.88397 18.1421 2.88869 17.2194Z" fill="white"/>
<path d="M26.7692 8.45544C25.8355 8.44635 25.0781 7.71306 25.0781 6.81462C25.0781 5.90102 25.8512 5.16924 26.8086 5.17682C27.7486 5.18439 28.4996 5.91163 28.4996 6.81462C28.4996 7.72669 27.7218 8.46453 26.7692 8.45544Z" fill="white"/>
<path d="M13.6913 11.6944C13.6881 12.5989 12.9402 13.3216 12.0002 13.3292C11.0492 13.3368 10.284 12.5989 10.2871 11.6778C10.2903 10.7733 11.0429 10.0475 11.9782 10.043C12.9324 10.0384 13.6929 10.7733 13.6897 11.6959L13.6913 11.6944Z" fill="white"/>
<path d="M19.3605 14.8181C18.4221 14.8075 17.6805 14.0788 17.6836 13.1727C17.6868 12.2546 18.4536 11.5349 19.4172 11.544C20.3556 11.5531 21.0972 12.2819 21.0925 13.1894C21.0878 14.1121 20.3257 14.8287 19.3605 14.8181Z" fill="white"/>
<path d="M24.1757 8.25391C24.4607 8.55995 24.7205 8.83873 25.0134 9.15235C24.0136 10.0129 23.0043 10.8811 22.0013 11.7446C21.7226 11.4431 21.4628 11.1629 21.1699 10.8462C22.1572 9.99473 23.157 9.13417 24.1742 8.25542L24.1757 8.25391Z" fill="white"/>
<path d="M7.30045 15.9636C7.03592 15.6394 6.79659 15.3439 6.52734 15.0151C7.43586 14.3349 8.35854 13.644 9.27808 12.9531C9.54103 13.2758 9.78666 13.5773 10.0512 13.9031C9.1348 14.5894 8.21369 15.2803 7.29887 15.9636H7.30045Z" fill="white"/>
<path d="M14.9992 11.6836C15.5409 11.7912 16.0841 11.8987 16.6367 12.0078C16.5501 12.4017 16.4683 12.7744 16.3769 13.1866C15.8369 13.0775 15.2858 12.9669 14.7441 12.8578C14.8323 12.4517 14.911 12.0881 14.9992 11.6836Z" fill="white"/>
</g>
<defs>
<clipPath id="clip0_2114_21418">
<rect width="39" height="31" fill="white" transform="translate(0.625 0.135742)"/>
</clipPath>
</defs>
</svg>
