<svg width="13" height="24" viewBox="0 0 13 24" fill="none" xmlns="http://www.w3.org/2000/svg">
<g clip-path="url(#clip0_311_8070)">
<path d="M3.80304 23.0468V12.5686H0.257812V8.47322H3.80666C3.80666 8.35803 3.80666 8.27074 3.80666 8.18256C3.81119 7.1117 3.7795 6.03905 3.82839 4.96999C3.89448 3.52388 4.358 2.22716 5.49327 1.24539C6.2981 0.549785 7.25774 0.204232 8.3061 0.100746C9.45766 -0.0135385 10.6074 0.0764494 11.7563 0.170037C11.9201 0.183535 12.0831 0.196133 12.2578 0.210531V3.87124C12.1818 3.87124 12.103 3.87034 12.0242 3.87124C11.2185 3.88384 10.4128 3.87574 9.60794 3.91443C8.65464 3.96033 8.10693 4.50475 8.07524 5.45772C8.04265 6.43049 8.06347 7.40506 8.06075 8.37783C8.06075 8.39853 8.07071 8.41922 8.08248 8.46512H12.1247C11.9455 9.84733 11.7698 11.1989 11.5933 12.565H8.06619V23.0468H3.80304Z" fill="#D3D3D3"/>
</g>
<defs>
<clipPath id="clip0_311_8070">
<rect width="12" height="23"  transform="translate(0.257812 0.0463867)"/>
</clipPath>
</defs>
</svg>
