<svg width="33" height="21" viewBox="0 0 33 21" fill="none" xmlns="http://www.w3.org/2000/svg">
<g clip-path="url(#clip0_311_8078)">
<path d="M16.9557 3.18153C16.0469 4.0512 15.1544 4.90586 14.3259 5.69795C13.6503 5.32005 13.0524 4.88334 12.3842 4.62931C8.85947 3.28539 4.87843 5.55029 4.18526 9.25673C3.57732 12.5064 5.34473 15.5734 8.39694 16.562C10.7259 17.3165 13.3269 16.6396 14.8172 14.8902C15.3813 14.227 15.8225 13.296 15.9115 12.5477H10.2721V9.1291H19.7271C19.7722 9.56331 19.8462 9.99502 19.8575 10.428C19.9164 12.6528 19.4576 14.7476 18.1878 16.612C16.6962 18.8031 14.5753 20.0044 11.9831 20.4073C9.73565 20.7564 7.56965 20.4699 5.56408 19.3675C2.46674 17.6632 0.64795 15.0429 0.307004 11.5191C-0.189373 6.36866 3.11604 1.90892 8.17633 0.768963C11.2624 0.0744754 14.7934 1.0355 16.9557 3.18027V3.18153Z" fill="#D3D3D3"/>
<path d="M32.2551 12.364H29.3784C29.3784 12.6067 29.3784 12.8307 29.3784 13.0547C29.3784 13.7104 29.3784 14.3648 29.3784 15.0205C29.3784 15.1519 29.3822 15.2721 29.1929 15.2708C28.3067 15.2645 27.4217 15.2633 26.5355 15.2595C26.518 15.2595 26.4992 15.2408 26.4566 15.217V12.3652H23.5397C23.5397 11.8947 23.5397 11.4605 23.5397 11.0263C23.5397 10.6209 23.5598 10.2142 23.5335 9.81C23.5134 9.49842 23.6287 9.4296 23.922 9.43711C24.7531 9.45588 25.5854 9.44336 26.4478 9.44336V6.57031H29.3734V9.43335H32.2564V12.3627L32.2551 12.364Z" fill="#D3D3D3"/>
</g>
<defs>
<clipPath id="clip0_311_8078">
<rect width="32" height="20"  transform="translate(0.257812 0.546387)"/>
</clipPath>
</defs>
</svg>
