<svg width="24" height="23" viewBox="0 0 24 23" fill="none" xmlns="http://www.w3.org/2000/svg">
<g clip-path="url(#clip0_311_8074)">
<path d="M8.75 7.87626H13.3026V9.83703C13.632 9.47006 13.9075 9.09663 14.2504 8.79315C15.1937 7.95698 16.335 7.56418 17.6134 7.52113C18.4679 7.49207 19.3123 7.55664 20.1342 7.7977C21.7285 8.26476 22.6753 9.32693 23.1475 10.8217C23.4578 11.8064 23.5702 12.8212 23.5781 13.8404C23.6006 16.6868 23.5905 19.5333 23.5927 22.3786C23.5927 22.4131 23.5849 22.4475 23.5792 22.5013H18.8209C18.8209 22.3905 18.8209 22.2861 18.8209 22.1817C18.8209 19.9347 18.8333 17.6887 18.8131 15.4417C18.8074 14.7465 18.7748 14.0427 18.65 13.3604C18.3746 11.8602 17.3278 11.3609 15.9021 11.5266C14.5461 11.6837 13.8096 12.4403 13.6151 13.8124C13.5454 14.3074 13.5072 14.81 13.5038 15.3093C13.4926 17.6091 13.4982 19.9099 13.4982 22.2097C13.4982 22.3151 13.4982 22.4217 13.4982 22.5444H8.75V7.87626Z" fill="#D3D3D3"/>
<path d="M1 7.87524H5.73245V22.5466H1V7.87524Z" fill="#D3D3D3"/>
<path d="M6.11458 3.15281C6.15731 4.55397 4.93962 5.81201 3.49819 5.85721C1.93532 5.90671 0.644548 4.75306 0.595076 3.26258C0.547853 1.82375 1.76779 0.592617 3.2868 0.547418C4.81032 0.50222 6.06961 1.6634 6.11458 3.15281Z" fill="#D3D3D3"/>
</g>
<defs>
<clipPath id="clip0_311_8074">
<rect width="23" height="22"  transform="translate(0.59375 0.546631)"/>
</clipPath>
</defs>
</svg>
