<svg width="28" height="23" viewBox="0 0 28 23" fill="none" xmlns="http://www.w3.org/2000/svg">
<g clip-path="url(#clip0_311_8072)">
<path d="M0.921875 20.0541C3.96917 20.312 6.6465 19.6056 9.07982 17.7736C6.53113 17.5435 4.851 16.2564 3.90419 13.89H6.30304C6.3057 13.8609 6.30702 13.8318 6.30968 13.8014C3.62174 12.9615 2.18296 11.1519 1.96681 8.28024C2.78102 8.6731 3.55146 8.93236 4.4691 8.95617C3.29288 8.03421 2.50652 6.93368 2.16838 5.55273C1.82758 4.16119 2.09942 2.85564 2.80223 1.56728C5.80312 5.06728 9.55588 7.0395 14.2011 7.33977C14.1706 7.05405 14.1441 6.81992 14.1215 6.58448C13.8046 3.31199 16.474 0.464105 19.7732 0.547438C21.2398 0.584475 22.4969 1.11358 23.5485 2.12548C23.6838 2.25511 23.7965 2.28421 23.9835 2.23924C25.0921 1.97601 26.1436 1.56728 27.1687 1.04215C26.8106 2.29876 26.0243 3.23262 24.9488 3.95352L24.9966 4.05802C25.9606 3.79082 26.9247 3.52495 27.9219 3.2485C27.845 3.36358 27.7707 3.48659 27.6858 3.60167C27.056 4.47469 26.3067 5.23262 25.4488 5.87945C25.2605 6.02231 25.1928 6.15723 25.1995 6.394C25.3931 12.5091 21.7862 18.4707 16.3188 21.0567C13.7953 22.2498 11.1259 22.6863 8.34518 22.5051C5.77925 22.3384 3.40294 21.5779 1.2083 20.2485C1.1367 20.2048 1.06907 20.1533 0.921875 20.0527L0.921875 20.0541Z" fill="#D3D3D3"/>
</g>
<defs>
<clipPath id="clip0_311_8072">
<rect width="27" height="22" transform="translate(0.921875 0.546387)"/>
</clipPath>
</defs>
</svg>
