<svg width="160" height="159" fill="none" xmlns="http://www.w3.org/2000/svg"><g clip-path="url(#clip0_803_4028)" fill="#FDB604"><path d="M70.166 92.01c-2.694-2.124-4.522-4.62-5.605-7.652-.149-.426-.584-.846-.995-1.069A34081.365 34081.365 0 0022.19 61.164c-.137-.074-.293-.11-.828-.308-.765 3.81-1.567 7.547-2.245 11.303-.261 1.458-.274 2.965-.367 4.453-.205 3.169-2.264 5.257-5.468 5.362-2.531.08-5.075.074-7.607.006-3.545-.1-5.685-2.316-5.523-5.843.84-18.462 7.259-34.775 19.487-48.704C32.385 12.906 48.445 3.882 67.66 1.207c25.92-3.613 48.692 3.533 67.613 21.65 12.982 12.427 20.564 27.751 23.164 45.466.392 2.687.585 5.417.691 8.135.124 3.088-1.941 5.337-5.063 5.485a86.153 86.153 0 01-8.379 0c-3.073-.148-4.964-2.298-5.157-5.491-1.069-17.697-8.372-32.366-22.056-43.737-29.055-24.151-73.84-15.733-92.071 17.214-.274.488-.529.988-.846 1.581 5.38 1.52 10.642 3.002 15.905 4.49 10.139 2.867 20.271 5.757 30.423 8.586.684.192 1.549.186 2.214-.05 7.396-2.575 15.345.223 19.245 6.832 3.907 6.622 2.488 14.83-3.452 19.982-.23.198-.442.414-.753.704.423.624.809 1.217 1.207 1.797 12.639 18.487 25.279 36.974 37.912 55.461.435.636.908 1.266 1.238 1.952 1.511 3.132-.616 6.733-4.105 7.01-.255.019-.517.019-.778.019h-89.92c-3.477 0-5.909-2.52-5.312-5.658.2-1.062.828-2.094 1.45-3.014 12.67-18.586 25.372-37.159 38.06-55.732.399-.587.79-1.18 1.263-1.884l.013.006zm54.184 60.977c-14.985-21.927-29.801-43.595-44.71-65.411-14.973 21.915-29.783 43.583-44.699 65.411h89.409zM34.842 30.942c11.955-10.68 26.019-16.405 41.992-17.32V5.735c-18.375.89-34.224 7.362-47.777 19.537l5.785 5.67zm118.991 45.676c-.883-18.301-7.414-34.033-19.5-47.27l-5.648 5.627c10.624 11.724 16.366 25.67 17.224 41.643h7.924zm-29.527-45.985c1.935-1.927 3.77-3.755 5.648-5.62C116.556 13.06 100.726 6.55 82.432 5.746v7.857c16.129.852 30.118 6.578 41.874 17.029zM13.382 76.779c.317-6.133 1.331-11.816 3.104-17.369.267-.834.205-1.89-.038-2.748-.61-2.162.1-4.67 2.159-5.54 1.418-.6 2.021-1.594 2.637-2.78.523-1.001 1.045-2.014 1.698-2.934 2.544-3.601 5.144-7.172 7.589-10.575l-5.58-5.503C12.81 42.665 6.273 58.44 5.415 76.618c.417.062.715.149 1.014.149 2.27.012 4.54 0 6.96 0l-.006.012zm72.714 10.717c3.651-2.588 5.057-7.499 3.464-11.798-1.63-4.41-6.027-7.171-10.854-6.813-4.609.34-8.453 3.799-9.41 8.468-.81 3.941 1.007 8.562 3.967 10.062 1.854-2.112 2.694-5.41 6.389-5.404 3.682.012 4.516 3.31 6.438 5.485h.006zm-18.86-18.697c-13.205-3.743-26.678-7.567-40.151-11.384-.044.099-.08.198-.124.297 12.228 6.535 24.451 13.07 36.45 19.487 1.312-2.884 2.55-5.608 3.825-8.4z"/><path d="M82.301 117.601v13.237c0 .562 0 1.136-.118 1.68-.292 1.315-1.163 2.038-2.525 2.05-1.362.007-2.246-.697-2.557-2.013-.124-.544-.124-1.118-.124-1.68-.006-8.876-.006-17.752 0-26.622 0-2.588.933-3.897 2.718-3.854 1.736.043 2.606 1.303 2.606 3.817v13.391-.006zm0 26.27c0 2.619-.89 3.909-2.674 3.903-1.785 0-2.656-1.291-2.656-3.922 0-2.662.827-3.928 2.593-3.984 1.823-.055 2.737 1.279 2.737 3.996v.007z"/></g><defs><clipPath id="clip0_803_4028"><path fill="#fff" transform="translate(.133 .3)" d="M0 0h159v158H0z"/></clipPath></defs></svg>