<svg width="72" height="32" fill="none" xmlns="http://www.w3.org/2000/svg"><path fill-rule="evenodd" clip-rule="evenodd" d="M52.84 5.279c-3.028 3.846-13.885 4.024-17.556.302-3.438 3.83-15.323 4.266-19.2-3.06l2.31-2.473c3.45 5.166 12.513 5.721 16.562 0 .256-.029.514-.045.772-.048 3.21 5.23 13.568 5.387 16.5 0h.961c3.888 5.01 12.507 4.977 16.59.22L72 2.166C68.323 9.653 57.232 9.427 52.84 5.28zm-33.218 7.665c3.21 5.23 13.568 5.387 16.5-.032h.961c3.888 5.01 12.507 4.977 16.59.22l2.22 1.945c-3.654 7.542-14.745 7.294-19.138 3.146-3.027 3.846-13.884 4.024-17.555.302-3.433 3.83-15.323 4.26-19.2-3.06l2.288-2.488c3.45 5.165 12.513 5.72 16.562 0 .256-.024.514-.035.772-.033zm9.78 10.806c.256-.03.514-.045.772-.048 3.21 5.23 13.568 5.386 16.5-.027h.961c3.888 5.01 12.508 4.977 16.59.22l2.221 1.945c-3.654 7.542-14.745 7.294-19.138 3.146-3.027 3.846-13.885 4.024-17.556.302-3.432 3.83-15.323 4.266-19.2-3.06l2.289-2.478c3.448 5.182 12.512 5.737 16.561 0z" fill="#fff"/></svg>