<svg width="103" height="218" fill="none" xmlns="http://www.w3.org/2000/svg"><path d="M23.315 74.71h37.052v9.263H23.315V74.71zm0-23.158h55.578v9.263H23.315v-9.263zm0 46.315h23.157v9.263H23.315v-9.263z" fill="#FDB604"/><path d="M92.787 14.5H78.892V9.87A9.263 9.263 0 0069.63.606H32.578a9.263 9.263 0 00-9.263 9.263v4.632H9.42a9.263 9.263 0 00-9.263 9.262v97.262a9.262 9.262 0 009.263 9.263h83.367a9.262 9.262 0 009.263-9.263V23.763a9.263 9.263 0 00-9.263-9.263zm-60.21-4.63H69.63v18.526H32.578V9.869zm60.21 111.156H9.42V23.763h13.895v13.895h55.577V23.763h13.895v97.262zM51.415 200.4l17.472-21.84H55.783v-30.575h-8.736v30.575H33.943l17.472 21.84z" fill="#FDB604"/><path d="M86.358 209.136H16.472V178.56H7.736v30.576c0 4.817 3.918 8.735 8.736 8.735h69.886c4.818 0 8.736-3.918 8.736-8.735V178.56h-8.736v30.576z" fill="#FDB604"/></svg>