<svg width="12" height="12" viewBox="0 0 8 8" fill="none" xmlns="http://www.w3.org/2000/svg">
<path d="M7.47692 1.14517H6.47736C6.46399 1.14054 6.45009 1.13753 6.436 1.13614H5.37174V0.253477C5.3718 0.187144 5.3458 0.12346 5.29945 0.0760839C5.25304 0.0287123 5.18995 0.00138376 5.12369 0H2.60672C2.53948 0 2.47501 0.026666 2.42752 0.0742178C2.37997 0.12177 2.35324 0.186236 2.35324 0.253475V1.13614H1.29439C1.2803 1.13753 1.2664 1.14054 1.25303 1.14517H0.253471C0.162881 1.14517 0.0792062 1.19345 0.0339488 1.27188C-0.0113163 1.35031 -0.0113163 1.44691 0.0339488 1.52535C0.0792139 1.60378 0.162882 1.65211 0.253471 1.65211H1.06783L1.72585 7.7735C1.7329 7.8358 1.76263 7.89328 1.8094 7.93511C1.85611 7.97689 1.91661 7.99994 1.97932 8H5.75462C5.81668 7.9991 5.87627 7.97556 5.92233 7.93391C5.96831 7.89219 5.99751 7.83519 6.00449 7.7735L6.66245 1.66105H7.47687C7.56746 1.66105 7.65114 1.61277 7.69639 1.53434C7.74165 1.45591 7.74166 1.35924 7.69639 1.28087C7.65113 1.20244 7.56746 1.1541 7.47687 1.1541L7.47692 1.14517ZM2.86566 0.506945H4.86472V1.13614H2.86566V0.506945ZM5.52455 7.48941H2.20582L1.57663 1.66111H6.15368L5.52455 7.48941Z" fill="#E41D1D"/>
<path d="M3.86529 6.89619C3.93252 6.89619 3.99699 6.86946 4.04454 6.82197C4.09209 6.77442 4.11876 6.70995 4.11876 6.64271V2.50791C4.11876 2.41732 4.07049 2.33365 3.99205 2.28839C3.91362 2.24306 3.81696 2.24306 3.73852 2.28839C3.66009 2.33365 3.61182 2.41732 3.61182 2.50791V6.64271C3.61182 6.70995 3.63848 6.77442 3.68603 6.82197C3.73359 6.86946 3.79805 6.89619 3.86529 6.89619H3.86529Z" fill="#E41D1D"/>
<path d="M2.8674 6.89444H2.87817C2.94511 6.89167 3.00819 6.86248 3.0537 6.8133C3.09915 6.76412 3.12334 6.69893 3.12088 6.63199L2.96805 2.49719L2.96811 2.49713C2.96672 2.42941 2.93777 2.36512 2.88787 2.31926C2.83791 2.27345 2.77146 2.25004 2.7038 2.25443C2.63687 2.25726 2.57379 2.28645 2.52834 2.33563C2.48283 2.38481 2.45869 2.45 2.4611 2.51694L2.61393 6.65174C2.61712 6.71693 2.64517 6.77845 2.69236 6.82359C2.73949 6.86867 2.80215 6.89407 2.8674 6.89443L2.8674 6.89444Z" fill="#E41D1D"/>
<path d="M4.85372 6.89433H4.86269C4.9295 6.89583 4.99421 6.87103 5.04296 6.82535C5.09166 6.7796 5.12055 6.71658 5.12338 6.64982L5.27621 2.51501H5.27615C5.27862 2.44808 5.25442 2.38289 5.20898 2.33371C5.16347 2.28453 5.10039 2.25534 5.03345 2.25251C4.96501 2.24546 4.89675 2.26756 4.84541 2.31342C4.79406 2.35923 4.76445 2.4246 4.76378 2.49347L4.60915 6.62827H4.60921C4.60578 6.69611 4.62974 6.7625 4.67572 6.81252C4.72165 6.86254 4.78582 6.89204 4.85372 6.89432L4.85372 6.89433Z" fill="#E41D1D"/>
</svg>
