<svg width="24" height="24" viewBox="0 0 24 24" fill="none" xmlns="http://www.w3.org/2000/svg">
<path fill-rule="evenodd" clip-rule="evenodd" d="M5.6435 7.70913V8.88447L4.242 8.9976C3.25109 9.07759 2.44278 9.82368 2.28385 10.805C2.24932 11.0183 2.2179 11.232 2.18962 11.4459C2.17559 11.5521 2.23221 11.6549 2.32901 11.7007L2.39276 11.7309C6.88427 13.8576 12.2627 13.8576 16.7542 11.7309L16.8179 11.7007C16.9147 11.6549 16.9713 11.5521 16.9573 11.4459C16.9291 11.232 16.8976 11.0183 16.8631 10.805C16.7042 9.82368 15.8959 9.07759 14.9049 8.9976L13.5034 8.88447V7.70913C13.5034 6.99242 12.9791 6.38358 12.2703 6.27726L11.261 6.12586C10.1423 5.95805 9.00466 5.95805 7.88592 6.12586L6.8766 6.27726C6.16783 6.38358 5.6435 6.99242 5.6435 7.70913ZM11.077 7.35318C10.0802 7.20367 9.06671 7.20367 8.06999 7.35318L7.0607 7.50457C6.95944 7.51976 6.88454 7.60674 6.88454 7.70913V8.79712C8.6757 8.69451 10.4712 8.69451 12.2624 8.79712V7.70913C12.2624 7.60674 12.1875 7.51976 12.0863 7.50457L11.077 7.35318Z" fill="#031C77"/>
<path d="M17.1198 13.1777C17.1136 13.0617 16.9923 12.9893 16.8861 13.0363C12.2769 15.0771 6.87431 15.0771 2.26514 13.0363C2.15899 12.9893 2.03763 13.0617 2.03146 13.1777C1.94725 14.7591 2.0321 16.3473 2.286 17.9151C2.44492 18.8965 3.25323 19.6426 4.24415 19.7226L5.79291 19.8476C8.31058 20.0508 10.8406 20.0508 13.3583 19.8476L14.9071 19.7226C15.898 19.6426 16.7063 18.8965 16.8653 17.9151C17.1191 16.3473 17.204 14.7591 17.1198 13.1777Z" fill="#031C77"/>
<path d="M16.3003 6.51436C16.2166 6.51436 16.1456 6.48842 16.0874 6.43652C16.0291 6.38091 16 6.31603 16 6.24189V5.71362C16 5.63948 16.0291 5.57646 16.0874 5.52456C16.1456 5.47266 16.2166 5.44671 16.3003 5.44671H18.4513V3.30584C18.4513 3.22057 18.4768 3.14829 18.5278 3.08897C18.5823 3.02966 18.646 3 18.7188 3H19.2866C19.3594 3 19.4213 3.02966 19.4722 3.08897C19.5232 3.14829 19.5487 3.22057 19.5487 3.30584V5.44671H21.6943C21.778 5.44671 21.849 5.47451 21.9072 5.53012C21.9691 5.58573 22 5.65616 22 5.74143V6.20853C22 6.3012 21.9691 6.37535 21.9072 6.43095C21.849 6.48656 21.778 6.51436 21.6943 6.51436H19.5487V8.6886C19.5487 8.77386 19.5214 8.84801 19.4668 8.91103C19.4122 8.97034 19.343 9 19.2593 9H18.7516C18.6606 9 18.5878 8.97034 18.5332 8.91103C18.4786 8.84801 18.4513 8.77386 18.4513 8.6886V6.51436H16.3003Z" fill="#031C77"/>
</svg>
