<svg width="61" height="67" fill="none" xmlns="http://www.w3.org/2000/svg"><g id="Group" fill="#EB5B31"><path id="Vector" d="M31.44 17.818c0 2.091-1.778 3.869-3.869 3.869-2.09 0-3.868-1.778-3.868-3.869a3.86 3.86 0 013.868-3.868c2.196 0 3.868 1.673 3.868 3.868z"/><path id="Vector_2" d="M54.755 35.382c-3.555-3.241-8.155-5.018-13.068-4.81-4.81.21-9.305 2.3-12.65 5.855-3.346 3.66-5.018 8.573-4.705 13.487l-5.959 2.404c-.313.105-.627.418-.627.837-.105.313.105.731.418.94 3.346 2.719 6.691 4.705 10.141 5.96.523.731 1.255 1.463 1.882 2.09 3.345 3.137 7.736 4.81 12.232 4.81h.836c4.81-.21 9.305-2.3 12.65-5.855 6.795-7.423 6.273-18.923-1.15-25.718zm-7.736 23.104c-.419.628-.941 1.255-1.464 1.882-.105.105-.21.105-.21.21h-.104c-.104 0-.209.104-.313.104-.105 0-.21 0-.314-.105-.104-.104-.104 0-.104-.104-.105 0-.105-.105-.21-.105-.104 0-.104-.104-.104-.209l-.105-.104v-.837c1.987-4.809.419-10.35-3.659-13.59l-1.359 2.09c-.209.314-.523.523-.836.523h-.21a1.134 1.134 0 01-.836-.836l-1.777-7.946c-.104-.523.21-1.15.837-1.254l7.84-1.778c.419-.104.837.105 1.046.419.209.313.209.836 0 1.15l-1.255 1.986c5.541 4.495 7.005 12.545 3.137 18.504z"/><path id="Vector_3" d="M33.111 7.364C30.184 3.495 26.002.882 21.193.254 16.384-.372 11.575.778 7.707 3.6c-8.05 5.96-9.723 17.355-3.764 25.405.523.731 1.15 1.463 1.882 2.09.836 3.66 2.51 7.11 4.81 10.769.208.313.522.522.835.522h.105c.418 0 .732-.209.836-.522l3.032-5.75c1.046.209 2.091.313 3.032.313 3.868 0 7.632-1.254 10.873-3.554 7.945-5.96 9.723-17.46 3.763-25.51zM28.093 31.2c-3.763 2.718-8.468 3.764-12.963 2.823h-.419c-.104 0-.104 0-.209.104-.104 0-.104.105-.209.105l-.104.104c-.105 0-.105.105-.21.21l-2.508 4.809c-1.778-2.928-3.032-5.855-3.66-8.887v-.104s0-.105-.104-.105c0-.105-.105-.105-.105-.209l-.104-.105c-.627-.627-1.255-1.359-1.882-2.09-5.332-7.11-3.764-17.25 3.345-22.582 3.45-2.614 7.632-3.66 11.919-3.032 4.286.627 7.945 2.927 10.559 6.377 5.227 7.11 3.763 17.25-3.346 22.582z"/><path id="Vector_4" d="M10.009 21.687a3.868 3.868 0 100-7.737 3.868 3.868 0 000 7.737z"/><path id="Vector_5" d="M22.866 17.818a3.86 3.86 0 01-3.868 3.869c-2.195 0-3.764-1.778-3.764-3.869 0-2.09 1.778-3.868 3.869-3.868 2.09 0 3.763 1.673 3.763 3.868z"/></g></svg>