<svg width="69" height="69" fill="none" xmlns="http://www.w3.org/2000/svg"><g id="Property 1=problem-solved 2" clip-path="url(#clip0_3467_54793)" fill="#EB5B31"><path id="Vector" d="M37.16 50.837l-.806-2.072a18.4 18.4 0 01-1.384.345 18.402 18.402 0 01-3.766.387c-10.12 0-18.355-8.234-18.355-18.355 0-10.12 8.234-18.355 18.355-18.355 10.12 0 18.355 8.234 18.355 18.355 0 1.048-.09 2.09-.265 3.1-.003.036-.01.07-.016.106a17.38 17.38 0 01-.49 2.065l2.028.799a7.35 7.35 0 014.222 4.351 25.42 25.42 0 001.167-3.222 1.9 1.9 0 011.333-1.311l3.401-.902a1.894 1.894 0 001.407-1.828v-6.316c0-.857-.579-1.608-1.407-1.829l-3.4-.901a1.898 1.898 0 01-1.334-1.314 25.643 25.643 0 00-2.135-5.195 1.906 1.906 0 01.019-1.863l1.803-3.1a1.895 1.895 0 00-.297-2.29l-4.466-4.465a1.897 1.897 0 00-2.289-.3L45.82 8.48a1.89 1.89 0 01-1.88.01 25.86 25.86 0 00-5.457-2.28 1.902 1.902 0 01-1.307-1.333l-.92-3.468A1.895 1.895 0 0034.425 0H28.11c-.857 0-1.608.579-1.828 1.41l-.921 3.468a1.888 1.888 0 01-1.31 1.333 25.752 25.752 0 00-5.157 2.117 1.893 1.893 0 01-1.86-.02l-3.19-1.853a1.896 1.896 0 00-2.29.3L7.09 11.22a1.895 1.895 0 00-.301 2.29l1.806 3.107c.336.578.34 1.29.01 1.879a25.956 25.956 0 00-2.263 5.412 1.891 1.891 0 01-1.33 1.307l-3.54.94c-.83.22-1.409.972-1.409 1.829V34.3c0 .857.58 1.608 1.41 1.828l3.54.94a1.9 1.9 0 011.332 1.311 25.684 25.684 0 002.065 5.054c.313.582.31 1.282-.023 1.854l-1.87 3.22a1.897 1.897 0 00.3 2.288l4.467 4.465c.607.605 1.543.73 2.288.298l3.085-1.79a1.896 1.896 0 011.883-.01 25.808 25.808 0 005.515 2.318 1.887 1.887 0 011.307 1.33l.92 3.471c.22.828.972 1.406 1.829 1.406h6.316c.857 0 1.608-.578 1.829-1.406l.92-3.471a1.905 1.905 0 011.314-1.333 24.21 24.21 0 002.679-.943c.074-.03.144-.058.217-.09a7.412 7.412 0 01-4.226-4.203z"/><path id="Vector_2" d="M60.227 46.12a.401.401 0 000 .749c1.358.516 1.97 1.128 2.486 2.485.13.345.62.345.75 0 .515-1.357 1.127-1.97 2.486-2.485a.402.402 0 000-.75c-1.358-.516-1.97-1.127-2.486-2.486a.401.401 0 00-.75 0c-.516 1.359-1.128 1.97-2.486 2.486z"/><path id="Vector_3" d="M67.99 63.387l-14.03-14.03a2.018 2.018 0 01-.589-1.528l.186-3.526a5.459 5.459 0 00-3.446-5.306l-1.97-.781-.892-.351-.891-.352-2.618-1.035a1.356 1.356 0 00-.489-.093c-.355 0-.69.137-.94.39l-.048.044a1.332 1.332 0 000 1.88l3.097 2.551 1.813 1.493a.256.256 0 01.073.179c0 .041-.01.115-.073.182l-4.028 4.031a.253.253 0 01-.182.073.251.251 0 01-.179-.073l-1.537-1.787-2.577-2.995a1.41 1.41 0 00-.988-.413c-.255 0-.505.074-.713.215a1.322 1.322 0 00-.51 1.592l1.012 2.605.342.882.352.901.78 2.005a5.49 5.49 0 005.082 3.481c.077 0 .154-.003.23-.007l.35-.019 3.17-.172.109-.003c.537 0 1.042.21 1.422.59l14.027 14.028a3.28 3.28 0 002.328.962c.879 0 1.703-.342 2.327-.962a3.293 3.293 0 000-4.651z"/><path id="Vector_4" d="M28.813 21.753l.867 11.797h3.06l.867-11.797h-4.794z"/><path id="Vector_5" d="M29.61 36.215h3.196v3.716h-3.197v-3.716z"/></g><defs><clipPath id="clip0_3467_54793"><path fill="#fff" d="M0 0h69v69H0z"/></clipPath></defs></svg>