<svg width="423" height="572" viewBox="0 0 423 572" fill="none" xmlns="http://www.w3.org/2000/svg">
<path d="M304.46 313.741C304.447 313.592 304.359 313.464 304.328 313.32C304.302 313.162 304.333 313.012 304.289 312.855L295.69 284.357C295.651 284.243 295.563 284.168 295.533 284.063C295.489 283.957 295.502 283.856 295.458 283.747L282.437 255.495C282.376 255.368 282.275 255.293 282.205 255.179C282.143 255.06 282.13 254.933 282.06 254.819L264.622 229.019C264.547 228.914 264.446 228.861 264.363 228.769C264.288 228.663 264.258 228.541 264.17 228.44L244.024 206.816C243.919 206.702 243.779 206.658 243.665 206.557C243.551 206.456 243.493 206.325 243.371 206.237L221.738 190.29C221.598 190.185 221.422 190.159 221.273 190.071C221.128 189.988 221.027 189.865 220.878 189.786L199.009 179.963C198.772 179.849 198.513 179.858 198.258 179.792C197.995 179.722 197.763 179.591 197.478 179.564L177.925 177.871C177.898 177.867 177.881 177.871 177.863 177.867L177.578 177.84C177.24 177.796 176.929 177.897 176.609 177.937C176.416 177.963 176.227 177.91 176.03 177.967L175.872 178.007C175.797 178.033 175.723 178.038 175.639 178.068L171.116 179.205C171.077 179.205 171.059 179.231 171.028 179.244C170.989 179.248 170.958 179.244 170.928 179.248L158.399 182.933C158.342 182.951 158.311 182.99 158.258 183.008C157.956 183.109 157.688 183.298 157.403 183.455C157.131 183.613 156.85 183.745 156.622 183.947C156.578 183.986 156.521 183.995 156.481 184.035L143.219 196.564C142.973 196.8 142.837 197.103 142.649 197.375C142.5 197.603 142.285 197.779 142.171 198.038L142.144 198.086C142.144 198.086 142.144 198.09 142.14 198.099L133.572 216.954C133.467 217.174 133.476 217.406 133.414 217.639C133.344 217.884 133.212 218.104 133.182 218.367L130.479 241.951C130.462 242.127 130.523 242.289 130.523 242.46C130.523 242.631 130.453 242.794 130.475 242.965L133.177 269.497C133.19 269.655 133.278 269.791 133.309 269.949C133.335 270.094 133.309 270.234 133.348 270.375L141.947 298.873C141.991 299.004 142.078 299.118 142.131 299.25C142.171 299.338 142.157 299.426 142.201 299.513L155.464 327.765C155.534 327.91 155.639 328.024 155.727 328.156C155.771 328.239 155.775 328.327 155.828 328.401L173.266 354.202C173.327 354.29 173.424 354.32 173.485 354.395C173.573 354.509 173.604 354.64 173.7 354.755L193.6 376.378C193.701 376.492 193.837 376.523 193.946 376.624C194.065 376.738 194.131 376.874 194.262 376.975L216.132 393.19C216.32 393.33 216.535 393.392 216.737 393.506C216.851 393.563 216.921 393.664 217.04 393.712L238.664 403.289C238.879 403.389 239.098 403.363 239.317 403.42C239.563 403.495 239.782 403.626 240.054 403.657L260.2 405.873C260.371 405.899 260.546 405.903 260.718 405.903H260.722C260.726 405.903 260.74 405.899 260.748 405.899C261.196 405.899 261.661 405.829 262.121 405.697L279.559 400.297C279.608 400.279 279.647 400.235 279.7 400.213C280.016 400.108 280.283 399.911 280.582 399.735C280.818 399.59 281.086 399.472 281.292 399.283C281.323 399.253 281.367 399.244 281.406 399.213L290.251 390.86C290.264 390.847 290.268 390.821 290.29 390.803C290.303 390.786 290.33 390.786 290.347 390.764L294.524 386.587C294.55 386.561 294.554 386.53 294.581 386.504C294.932 386.131 295.243 385.732 295.467 385.245L304.065 366.82C304.153 366.631 304.149 366.429 304.206 366.236C304.302 365.947 304.438 365.675 304.478 365.354L307.18 341.524C307.197 341.348 307.136 341.191 307.136 341.015C307.136 340.853 307.206 340.695 307.184 340.519L304.46 313.741ZM295.164 363.524L287.241 380.506L284.495 383.253L281.599 384.121L262.903 382.318L242.468 373.268L221.63 357.632L201.989 336.557L184.977 311.393L172.013 284.036L163.889 256.314L161.278 230.47L163.845 207.64L171.478 190.79L174.527 188.052L177.545 187.298L195.865 188.881L216.515 198.164L237.388 213.584L257.003 234.633L274.003 259.784L286.72 287.373L295.104 315.151L297.71 340.96L295.164 363.524Z" fill="#181816"/>
<path d="M458.838 379.047C458.789 378.819 458.763 378.596 458.68 378.376C458.632 378.245 458.553 378.117 458.496 377.986C458.456 377.902 458.456 377.823 458.412 377.74C458.316 377.591 458.175 377.49 458.074 377.35C457.969 377.209 457.93 377.034 457.802 376.902L409.142 322.916L392.726 267.552L411.74 221.686C411.77 221.598 411.757 221.515 411.788 221.436C411.818 221.335 411.889 221.26 411.915 221.159C411.985 220.927 411.954 220.685 411.985 220.449C412.025 220.163 412.082 219.896 412.06 219.624C412.055 219.527 412.077 219.453 412.064 219.361C412.047 219.154 411.933 218.957 411.88 218.746C411.797 218.439 411.735 218.137 411.59 217.851C411.551 217.764 411.56 217.68 411.507 217.601C411.507 217.601 411.494 217.584 411.489 217.575C411.494 217.566 411.481 217.562 411.481 217.549L380.035 162.272C379.978 162.176 379.89 162.132 379.842 162.044C379.666 161.781 379.451 161.566 379.227 161.338C379.087 161.197 378.982 161.004 378.824 160.886C378.74 160.824 378.648 160.789 378.552 160.741C378.319 160.583 378.06 160.482 377.802 160.364C377.758 160.346 377.714 160.32 377.674 160.294C377.516 160.232 377.38 160.123 377.223 160.074C377.104 160.044 376.977 160.048 376.858 160.026C376.758 160.008 376.687 159.951 376.586 159.93L327.645 153.042L288.482 110.835L266.933 41.5904C266.885 41.4325 266.762 41.3184 266.7 41.1737C266.639 41.0245 266.639 40.8578 266.556 40.713C266.507 40.6165 266.415 40.5682 266.363 40.4761C266.275 40.3445 266.205 40.2041 266.104 40.0857C265.972 39.9146 265.801 39.7917 265.652 39.647C265.459 39.4627 265.27 39.2829 265.047 39.1381C264.959 39.0811 264.915 38.9933 264.818 38.9363L220.11 12.6496C219.961 12.5531 219.777 12.5487 219.614 12.4786C219.281 12.3338 218.961 12.1934 218.596 12.1276C218.351 12.0793 218.105 12.0793 217.855 12.0706C217.504 12.0574 217.175 12.0662 216.829 12.132C216.535 12.1934 216.267 12.3031 215.991 12.4171C215.798 12.5049 215.583 12.5137 215.385 12.6189L194.261 24.6572C194.165 24.7142 194.121 24.7975 194.033 24.8502C193.915 24.9335 193.796 24.9906 193.682 25.0783C193.498 25.2231 193.349 25.4117 193.191 25.596C193.015 25.7802 192.844 25.9557 192.713 26.1619C192.656 26.2453 192.581 26.2891 192.528 26.3681C192.489 26.4164 192.498 26.4822 192.467 26.5304C192.441 26.5874 192.379 26.6269 192.353 26.6796L178.57 54.9103L157.279 52.7212L107.873 1.38887C107.785 1.29235 107.667 1.26165 107.57 1.18706C107.325 0.967717 107.062 0.796617 106.776 0.6343C106.518 0.493916 106.285 0.357921 106.013 0.261404C105.71 0.160503 105.416 0.116631 105.101 0.0727633C104.807 0.0288927 104.535 -0.0105901 104.241 0.00257122C103.947 0.0157325 103.662 0.0903098 103.372 0.151725C103.056 0.235078 102.749 0.314044 102.455 0.45882C102.35 0.51585 102.236 0.507075 102.126 0.572877L81.0023 12.6021V12.6065L49.5563 30.5453C49.4422 30.6068 49.3852 30.7077 49.2843 30.7779C49.0123 30.9621 48.7886 31.1727 48.5604 31.414C48.3542 31.6202 48.1568 31.8307 47.9945 32.0676C47.8322 32.3177 47.7094 32.5897 47.6041 32.8661C47.4856 33.1512 47.3759 33.4188 47.3145 33.7215C47.2575 34.0067 47.2575 34.2875 47.2443 34.5814C47.2443 34.9104 47.2487 35.2219 47.3189 35.5377C47.3365 35.665 47.3057 35.7703 47.3452 35.8975L66.3016 104.76L57.0758 125.005L26.2216 122.557C26.09 122.553 25.9759 122.606 25.8399 122.606C25.4583 122.606 25.0897 122.667 24.7081 122.764C24.4887 122.825 24.2869 122.891 24.072 122.97C23.8877 123.053 23.6903 123.058 23.5104 123.158L2.38655 135.197C2.27249 135.267 2.21105 135.372 2.10137 135.442C1.89957 135.583 1.6934 135.701 1.50915 135.868C1.3907 135.982 1.30296 136.1 1.20206 136.228C1.03974 136.412 0.908121 136.605 0.785291 136.811C0.671232 136.973 0.552785 137.127 0.46504 137.307C0.403621 137.452 0.35974 137.61 0.30709 137.759C0.219351 138.009 0.175477 138.268 0.13161 138.54C0.105289 138.684 0.0263234 138.812 0.013161 138.961C0.013161 139.018 0.039483 139.066 0.039483 139.119C0.0350963 139.176 0 139.224 0 139.281V191.118C0 191.354 0.100899 191.556 0.13161 191.789C0.179867 192.135 0.214968 192.469 0.337799 192.802C0.465021 193.131 0.671214 193.394 0.855466 193.684C0.987079 193.877 1.0485 194.101 1.21959 194.289L50.1126 248.263L66.3006 303.864L47.5149 349.756C47.4754 349.853 47.4974 349.941 47.4579 350.033C47.3526 350.34 47.3175 350.66 47.2824 350.989C47.2429 351.274 47.1946 351.555 47.2122 351.845C47.2297 352.134 47.3175 352.406 47.3833 352.687C47.471 353.007 47.5412 353.314 47.6904 353.613C47.7343 353.709 47.7299 353.788 47.7781 353.876L79.2242 409.152C79.2724 409.227 79.3558 409.253 79.3953 409.323C79.7989 409.959 80.3078 410.512 80.9658 410.894C81.0272 410.933 81.1061 410.933 81.1719 410.968C81.637 411.205 82.1283 411.416 82.6811 411.491L131.372 418.146L170.521 460.339L192.071 529.821C192.229 530.338 192.474 530.794 192.777 531.216C192.808 531.255 192.86 531.286 192.891 531.33C193.22 531.738 193.606 532.084 194.04 532.361C194.097 532.4 194.128 532.462 194.181 532.492L238.648 558.779C238.661 558.783 238.678 558.783 238.692 558.797C238.718 558.81 238.74 558.81 238.762 558.823C238.793 558.849 238.832 558.854 238.867 558.871C238.911 558.897 238.937 558.932 238.981 558.959C239.056 558.99 239.122 558.976 239.187 559.007C239.793 559.266 240.42 559.433 241.056 559.433H241.069C241.824 559.433 242.552 559.213 243.219 558.867C243.267 558.84 243.324 558.854 243.364 558.823H243.368L264.737 546.785C264.754 546.771 264.768 546.754 264.794 546.741C265.259 546.464 265.68 546.091 266.04 545.657C266.141 545.53 266.202 545.411 266.29 545.275C266.422 545.091 266.566 544.929 266.667 544.727L280.42 516.339L301.943 519.125L351.147 570.264C351.366 570.492 351.652 570.602 351.902 570.773C352.033 570.869 352.103 571.019 352.235 571.102C352.305 571.141 352.384 571.128 352.463 571.163C353.126 571.497 353.827 571.712 354.551 571.712H354.565C355.28 571.712 355.982 571.492 356.64 571.159C356.727 571.111 356.815 571.133 356.899 571.084L356.929 571.071L356.934 571.067L357.179 570.927L378.272 558.801H378.276L409.704 540.871C409.818 540.809 409.875 540.708 409.976 540.638C410.248 540.463 410.459 540.248 410.682 540.029C410.814 539.897 410.985 539.809 411.091 539.656C411.165 539.555 411.205 539.436 411.262 539.335C411.42 539.09 411.534 538.84 411.652 538.568C411.735 538.392 411.854 538.23 411.902 538.046C411.942 537.918 411.92 537.8 411.946 537.681C412.003 537.405 412.007 537.133 412.016 536.844C412.016 536.642 412.078 536.449 412.056 536.234C412.042 536.107 411.968 535.988 411.942 535.857C411.915 535.738 411.955 535.62 411.915 535.492L392.713 466.621L401.719 446.406L432.551 448.845C432.678 448.849 432.797 448.858 432.924 448.858H432.928C433.565 448.858 434.157 448.727 434.71 448.494C434.828 448.45 434.911 448.362 435.03 448.305C435.1 448.266 435.17 448.288 435.236 448.248L456.605 436.21C456.789 436.105 456.899 435.934 457.065 435.815C457.324 435.622 457.583 435.434 457.794 435.188C457.995 434.955 458.145 434.705 458.289 434.438C458.438 434.179 458.592 433.933 458.684 433.652C458.798 433.345 458.833 433.025 458.873 432.696C458.904 432.494 459 432.314 459 432.104V380.021C459 379.934 458.952 379.859 458.952 379.771C458.952 379.543 458.89 379.306 458.833 379.047H458.838ZM428.216 439.066L399.152 436.771C399.139 436.771 399.126 436.776 399.108 436.776C399.104 436.776 399.095 436.771 399.091 436.771L383.859 435.788C383.82 435.788 383.798 435.802 383.772 435.802C382.166 435.727 380.692 436.512 379.753 437.85C379.608 438.057 379.42 438.232 379.315 438.465C379.301 438.491 379.271 438.508 379.258 438.539L362.064 476.377C362.016 476.491 362.025 476.609 361.981 476.723C361.893 476.942 361.836 477.162 361.788 477.407C361.749 477.592 361.705 477.78 361.691 477.973C361.674 478.158 361.687 478.346 361.691 478.526C361.696 478.763 361.735 478.991 361.788 479.224C361.814 479.351 361.784 479.469 361.814 479.601L380.494 546.354L355.396 561.064L307.613 511.412C307.463 511.263 307.262 511.184 307.095 511.061C306.845 510.855 306.604 510.666 306.31 510.513C306.016 510.364 305.704 510.285 305.393 510.197C305.2 510.14 305.02 510.026 304.814 510.004L278.281 506.564C278.242 506.56 278.206 506.578 278.167 506.578C278.128 506.573 278.106 506.551 278.066 506.547L263.326 505.318C263.299 505.318 263.286 505.323 263.264 505.323C262.742 505.283 262.233 505.371 261.729 505.507C261.641 505.533 261.553 505.52 261.47 505.547C260.891 505.731 260.365 506.025 259.9 506.42C259.654 506.626 259.483 506.924 259.277 507.192C259.092 507.42 258.882 507.617 258.741 507.885C258.728 507.911 258.702 507.924 258.693 507.946L239.079 548.07L200.57 525.31L179.245 456.54C179.232 456.5 179.201 456.483 179.188 456.443C179.091 456.154 178.902 455.904 178.753 455.632C178.595 455.347 178.459 455.053 178.249 454.816C178.222 454.785 178.218 454.746 178.192 454.719L137.169 410.498C137.029 410.349 136.836 410.279 136.678 410.138C136.415 409.924 136.16 409.713 135.853 409.546C135.568 409.401 135.283 409.327 134.98 409.244C134.765 409.173 134.585 409.055 134.344 409.024L86.2889 402.457L57.1238 351.208L75.6635 305.921C75.7468 305.728 75.7249 305.526 75.7819 305.324C75.8653 305.008 75.9399 304.71 75.9574 304.381C75.975 304.052 75.9267 303.732 75.8741 303.411C75.8346 303.218 75.8785 303.021 75.8258 302.815L58.8742 244.59C58.861 244.546 58.8259 244.52 58.8127 244.476C58.7162 244.187 58.5276 243.928 58.3872 243.651C58.2293 243.375 58.102 243.081 57.909 242.844C57.8783 242.805 57.8695 242.761 57.8388 242.73L9.43662 189.297V144.334L54.0215 147.423C54.1268 147.427 54.2365 147.436 54.3417 147.436H54.3461H54.3505C54.3549 147.436 54.3681 147.432 54.3812 147.432C54.9077 147.427 55.421 147.313 55.9167 147.138C56.0659 147.081 56.2106 147.006 56.3554 146.936C56.702 146.778 57.009 146.572 57.303 146.33C57.4302 146.225 57.5486 146.137 57.6671 146.015C57.961 145.721 58.2067 145.378 58.4173 145.001C58.4743 144.9 58.5489 144.817 58.6015 144.712C58.6147 144.681 58.641 144.655 58.6498 144.624L64.2958 131.849C64.2958 131.849 64.2958 131.845 64.3002 131.845L75.5747 107.075C75.6712 106.873 75.6581 106.658 75.7151 106.452C75.816 106.132 75.9081 105.825 75.9432 105.492C75.9696 105.158 75.9169 104.838 75.873 104.518C75.8423 104.303 75.8862 104.092 75.8248 103.868L57.3907 36.9006L82.4577 22.6039L130.276 72.2819C130.434 72.4398 130.64 72.51 130.802 72.646C130.934 72.7469 131.035 72.8654 131.175 72.9531C131.25 72.997 131.294 73.0672 131.359 73.1023C131.46 73.1593 131.561 73.1725 131.653 73.2207C131.947 73.3611 132.25 73.4225 132.566 73.5059C132.785 73.5541 132.969 73.677 133.206 73.6989L174.229 77.8754C174.387 77.8929 174.549 77.9017 174.703 77.9017H174.707H174.711C175.505 77.9017 176.216 77.6429 176.883 77.2919C177.054 77.2042 177.19 77.1164 177.348 77.0024C177.989 76.5637 178.55 76.0153 178.91 75.3046C178.914 75.2915 178.923 75.2915 178.927 75.2871L185.525 62.091C185.53 62.0866 185.53 62.0734 185.539 62.0603L185.565 62.0164C185.569 62.012 185.565 62.0032 185.569 61.9988C185.569 61.9988 185.582 61.9857 185.582 61.9813L198.576 35.3611L237.076 57.9012L258.397 126.664C258.41 126.707 258.445 126.734 258.458 126.778C258.507 126.936 258.603 127.08 258.678 127.225C258.735 127.352 258.726 127.471 258.796 127.589C258.827 127.646 258.893 127.664 258.928 127.721C259.055 127.923 259.186 128.111 259.331 128.291C259.38 128.353 259.401 128.432 259.458 128.493L300.727 172.714C300.859 172.859 301.047 172.916 301.201 173.047C301.407 173.218 301.582 173.438 301.824 173.574C301.885 173.613 301.955 173.613 302.03 173.644C302.043 173.648 302.069 173.657 302.078 173.662C302.363 173.802 302.644 173.881 302.938 173.964C303.144 174.021 303.32 174.14 303.543 174.17L351.599 180.738L380.755 231.983L361.983 277.511C361.943 277.607 361.956 277.686 361.934 277.783C361.86 277.989 361.807 278.2 361.776 278.419C361.728 278.638 361.689 278.844 361.675 279.081C361.671 279.252 361.662 279.428 361.675 279.599C361.689 279.818 361.737 280.02 361.789 280.248C361.816 280.389 361.785 280.525 361.829 280.656L379.022 338.635C379.035 338.674 379.062 338.705 379.07 338.74C379.119 338.889 379.215 339.03 379.276 339.174C379.29 339.201 379.303 339.218 379.307 339.236C379.364 339.363 379.364 339.495 379.434 339.613C379.465 339.67 379.522 339.683 379.553 339.732C379.671 339.92 379.785 340.096 379.93 340.258C379.978 340.319 379.992 340.39 380.049 340.451L428.214 393.889L428.216 439.066Z" fill="#181816"/>
</svg>
