<svg width="37" height="44" viewBox="0 0 37 44" fill="none" xmlns="http://www.w3.org/2000/svg">
<path d="M16.0001 25.8334V41.1667H0.666748C0.666748 37.1001 2.28222 33.2 5.15778 30.3244C8.03334 27.4489 11.9334 25.8334 16.0001 25.8334ZM27.5001 40.2084L21.867 43.1697L22.9422 36.8983L18.3863 32.4555L24.6845 31.5393L27.5001 25.8334L30.3176 31.5393L36.6138 32.4555L32.0579 36.8983L33.1312 43.1697L27.5001 40.2084ZM16.0001 23.9167C9.64633 23.9167 4.50008 18.7705 4.50008 12.4167C4.50008 6.063 9.64633 0.916748 16.0001 0.916748C22.3538 0.916748 27.5001 6.063 27.5001 12.4167C27.5001 18.7705 22.3538 23.9167 16.0001 23.9167Z" fill="#EB4545"/>
</svg>
