<svg width="40" height="40" viewBox="0 0 40 40" fill="none" xmlns="http://www.w3.org/2000/svg">
<path d="M21.9166 35.25V39.0833H18.0833V35.25H2.74992C2.24159 35.25 1.75408 35.0481 1.39463 34.6886C1.03519 34.3292 0.833252 33.8417 0.833252 33.3333V6.5H39.1666V33.3333C39.1666 33.8417 38.9647 34.3292 38.6052 34.6886C38.2458 35.0481 37.7583 35.25 37.2499 35.25H21.9166ZM12.3333 14.1667C11.196 14.1667 10.0843 14.5039 9.13872 15.1357C8.19314 15.7675 7.45615 16.6656 7.02095 17.7162C6.58574 18.7669 6.47187 19.923 6.69374 21.0384C6.9156 22.1538 7.46324 23.1784 8.26739 23.9825C9.07154 24.7867 10.0961 25.3343 11.2115 25.5562C12.3269 25.778 13.483 25.6642 14.5337 25.229C15.5844 24.7938 16.4824 24.0568 17.1142 23.1112C17.746 22.1656 18.0833 21.0539 18.0833 19.9167H12.3333V14.1667ZM21.9166 14.1667V18H33.4166V14.1667H21.9166ZM21.9166 21.8333V25.6667H33.4166V21.8333H21.9166ZM0.833252 0.75H39.1666V4.58333H0.833252V0.75Z" fill="#EB4545"/>
</svg>
