<svg width="74" height="73" fill="none" xmlns="http://www.w3.org/2000/svg"><path d="M43.133 14.792c-2.862-.613-5.009-2.248-6.645-4.702-.817-1.226-1.84-2.351-2.964-3.169-2.044-1.431-4.191-2.657-6.44-3.782C20.235-.132 13.182-.949 5.924 1.401c-.102 0-.306.103-.409.205-.817.715-.408 1.942.716 2.044h.307c3.066-.306 6.03-.102 8.893 1.329 5.214 2.76 6.44 7.36 3.169 12.266-.614.92-1.227 1.738-1.84 2.658-.409.614-.409 1.227-.205 1.84.205.409.205.818-.102 1.124-5.01 7.36-10.018 14.62-15.027 21.877 0 .102-.103.102-.103.204-.817 1.022-.715 2.351.103 3.271 1.226 1.329 2.555 2.454 4.293 3.067 1.227.409 1.942.306 2.862-.92 5.112-7.462 10.325-14.924 15.436-22.386.205-.307.512-.512.92-.512.41 0 .818-.204 1.125-.511.92-.92 1.84-1.84 2.862-2.351 1.431-.818 3.169-1.432 4.702-1.227 1.022.102 1.942.92 2.862 1.738.614.511 1.432.409 1.942-.306l5.623-7.974c.409-.715 0-1.84-.92-2.044zm3.68 1.328c.409-.613 1.227-.715 1.84-.306l.92.614c1.125.92 1.432 2.044.614 3.271-2.249 3.272-4.396 6.44-6.747 9.609-1.124 1.533-2.248 1.431-4.191-.102-.512-.409-.614-1.227-.205-1.738l7.77-11.347zm23.92 37.415H53.15a2.53 2.53 0 01-2.555-2.556V43.21a2.53 2.53 0 012.555-2.555h17.583a2.53 2.53 0 012.555 2.555v7.769a2.531 2.531 0 01-2.555 2.556zm-28.214 0H24.937a2.53 2.53 0 01-2.556-2.556V43.21a2.53 2.53 0 012.555-2.555H42.52a2.53 2.53 0 012.556 2.555v7.769a2.53 2.53 0 01-2.556 2.556zM54.99 72.037H37.409a2.53 2.53 0 01-2.556-2.555v-7.769a2.53 2.53 0 012.556-2.556h17.583a2.53 2.53 0 012.555 2.556v7.769a2.53 2.53 0 01-2.555 2.555zm-27.088 0H10.319a2.53 2.53 0 01-2.555-2.555v-7.769a2.53 2.53 0 012.555-2.556h17.583a2.53 2.53 0 012.555 2.556v7.769a2.53 2.53 0 01-2.555 2.555z" fill="#3F4D34"/></svg>