<svg width="86" height="105" fill="none" xmlns="http://www.w3.org/2000/svg"><path fill-rule="evenodd" clip-rule="evenodd" d="M85.664 62.068v2.23c0 .37-.3.677-.677.677H75.75v10.8h8.147c.371 0 .671.301.671.678v2.23c0 .37-.3.677-.67.677H75.75v10.194h9.239c.37 0 .676.3.676.678v2.229c0 .371-.3.672-.677.672H72.852a.676.676 0 01-.677-.672V62.068c0-.371.3-.677.677-.677h12.135c.377 0 .677.306.677.677zM53.715 92.444V64.97H48.93a.677.677 0 01-.677-.677v-2.224c0-.371.3-.677.677-.677h13.145c.371 0 .677.3.677.677v2.23c0 .37-.3.677-.677.677h-4.786v27.47c0 .37-.3.671-.676.671h-2.221a.676.676 0 01-.677-.672zM30.088 83.02h5.855l-2.925-13.483-2.93 13.483zm-5.768 9.222l6.865-30.321a.675.675 0 01.655-.525h2.346c.338 0 .617.251.666.58l6.864 30.326a.674.674 0 01-.655.82h-2.308a.68.68 0 01-.666-.568l-1.364-5.955h-7.426l-1.375 5.998a.675.675 0 01-.655.525h-2.303a.676.676 0 01-.644-.88zM3.574 89.543H7.35c.644 0 1.217-.103 1.714-.311a3.675 3.675 0 001.31-.923 4.13 4.13 0 00.861-1.443c.197-.562.295-1.196.295-1.917v-15.39c0-1.405-.387-2.53-1.157-3.366a3.613 3.613 0 00-1.31-.918c-.502-.208-1.074-.306-1.718-.306H3.569v24.574h.005zM0 92.444V62.068c0-.371.3-.677.677-.677H7.35c1.146 0 2.188.185 3.132.562a6.89 6.89 0 012.5 1.705l.032.038a7.414 7.414 0 011.566 2.584c.35.978.524 2.076.524 3.278v15.39c0 1.197-.175 2.29-.524 3.268a7.477 7.477 0 01-1.599 2.622 6.885 6.885 0 01-2.493 1.71c-.939.377-1.981.568-3.132.568H.682A.674.674 0 010 92.444zm2.254 6.284H0v-.82h5.435v.82H3.18v5.763h-.927v-5.763zm4.403-.18a.592.592 0 01-.611-.585.596.596 0 01.611-.596.61.61 0 01.437.164c.114.11.174.246.174.41 0 .17-.06.311-.174.426a.56.56 0 01-.437.18zm-.453.96h.9v4.983h-.9v-4.982zm8.845-.048c.628 0 1.125.18 1.49.546.366.361.551.901.551 1.617v2.868h-.9v-2.764c0-.481-.11-.847-.333-1.093-.224-.246-.54-.366-.955-.366-.458 0-.818.142-1.091.426-.268.284-.404.694-.404 1.23v2.567h-.9v-2.764c0-.481-.11-.847-.333-1.093-.224-.246-.54-.366-.955-.366-.458 0-.819.142-1.091.426-.268.284-.404.694-.404 1.23v2.567h-.9v-4.982h.862v.743c.18-.257.42-.454.714-.59a2.355 2.355 0 011.004-.202c.388 0 .732.076 1.032.235.3.158.534.387.693.688a1.86 1.86 0 01.786-.677 2.564 2.564 0 011.135-.246zm5.763.759c-.431 0-.792.131-1.086.393a1.59 1.59 0 00-.513 1.033h3.192c-.05-.421-.218-.765-.513-1.027-.284-.262-.644-.399-1.08-.399zm2.46 1.808a3 3 0 01-.016.274h-4.038c.055.437.251.792.579 1.06.327.267.736.398 1.222.398.595 0 1.075-.202 1.435-.601l.497.585a2.184 2.184 0 01-.84.601c-.334.136-.71.208-1.125.208-.524 0-.993-.11-1.397-.323a2.356 2.356 0 01-.944-.907 2.58 2.58 0 01-.332-1.316c0-.481.109-.918.322-1.306.212-.388.512-.689.889-.907a2.514 2.514 0 011.282-.322c.475 0 .9.109 1.272.322.37.218.665.519.873.907.218.382.322.825.322 1.327zm4.415.733a.85.85 0 01-.857-.869.83.83 0 01.251-.607.846.846 0 01.6-.251.8.8 0 01.595.251.825.825 0 01.246.607.846.846 0 01-.246.623.794.794 0 01-.589.246zm32.167 0a.85.85 0 01-.857-.869.81.81 0 01.251-.607.846.846 0 01.6-.251.8.8 0 01.595.251.83.83 0 01.252.607.85.85 0 01-.252.623.786.786 0 01-.589.246zM33.63 98.728v2.294h3.296v.809H33.63v2.66h-.938v-6.583h4.638v.82h-3.7zm6.865 5.026c.322 0 .606-.077.857-.219.25-.147.453-.355.594-.622.142-.268.219-.574.219-.918 0-.345-.077-.65-.219-.918a1.552 1.552 0 00-.594-.618 1.722 1.722 0 00-.857-.218c-.317 0-.606.071-.857.218-.25.143-.453.35-.6.618a1.87 1.87 0 00-.218.918c0 .344.076.65.218.918.147.267.35.475.6.622.251.148.54.219.857.219zm0 .792c-.497 0-.939-.109-1.331-.328a2.335 2.335 0 01-.923-.907 2.575 2.575 0 01-.333-1.311c0-.486.11-.923.333-1.311a2.33 2.33 0 01.922-.901c.393-.22.84-.323 1.332-.323.496 0 .938.11 1.326.322.387.214.698.519.922.902.224.388.333.825.333 1.311 0 .492-.11.923-.333 1.311a2.37 2.37 0 01-.922.907 2.65 2.65 0 01-1.326.328zm5.964-.792c.322 0 .606-.077.857-.219.25-.147.453-.355.595-.622.141-.268.218-.574.218-.918 0-.345-.077-.65-.218-.918a1.552 1.552 0 00-.595-.618 1.722 1.722 0 00-.857-.218c-.316 0-.606.071-.857.218-.25.143-.453.35-.6.618a1.87 1.87 0 00-.218.918c0 .344.076.65.218.918.147.267.35.475.6.622.251.148.535.219.857.219zm0 .792c-.496 0-.938-.109-1.331-.328a2.368 2.368 0 01-.923-.907 2.615 2.615 0 01-.332-1.311c0-.486.114-.929.332-1.311.219-.383.53-.688.923-.901.392-.22.84-.323 1.331-.323.497 0 .939.11 1.326.322.387.214.698.519.922.902.218.382.333.825.333 1.311 0 .492-.115.929-.333 1.311-.218.383-.53.689-.922.907a2.662 2.662 0 01-1.326.328zm5.959-.792c.31 0 .6-.077.856-.219.257-.147.459-.355.6-.622.143-.268.219-.574.219-.918 0-.345-.076-.65-.218-.918a1.529 1.529 0 00-.6-.618 1.737 1.737 0 00-.857-.218c-.317 0-.606.071-.857.218a1.56 1.56 0 00-.6.618 1.87 1.87 0 00-.218.918c0 .344.07.65.218.918.147.267.349.475.6.622.251.148.54.219.857.219zm2.564-6.24v6.977h-.862v-.792a1.978 1.978 0 01-.758.629 2.381 2.381 0 01-1.015.218c-.48 0-.911-.104-1.299-.317a2.274 2.274 0 01-.895-.896c-.213-.382-.322-.83-.322-1.333s.11-.945.322-1.327c.213-.383.519-.683.895-.891a2.616 2.616 0 011.299-.322c.354 0 .687.065.987.202.3.136.552.333.753.595v-2.742h.895zm9.877.394h.938v5.764h3.558v.819h-4.496v-6.583zm7.514 5.846c.322 0 .605-.071.856-.219.251-.147.453-.355.595-.622a1.92 1.92 0 00.219-.918c0-.345-.072-.65-.219-.918a1.546 1.546 0 00-.595-.618 1.722 1.722 0 00-.856-.218c-.317 0-.606.076-.857.218-.251.143-.458.35-.6.618a1.853 1.853 0 00-.219.918c0 .344.071.65.219.918.147.267.349.475.6.622.251.142.535.219.857.219zm0 .792c-.497 0-.939-.115-1.332-.328a2.42 2.42 0 01-.927-.907A2.615 2.615 0 0169.78 102c0-.486.114-.929.333-1.311a2.33 2.33 0 01.927-.901c.393-.214.84-.323 1.332-.323.496 0 .938.11 1.326.322.387.214.698.519.922.902.218.382.333.825.333 1.311 0 .492-.115.929-.333 1.311-.218.383-.53.689-.922.907a2.71 2.71 0 01-1.326.328zm8.092-5.037l-2.177 4.982h-.922l-2.178-4.982h.939l1.708 3.994 1.746-3.994h.884zm2.74.71c-.432 0-.792.131-1.087.393a1.596 1.596 0 00-.513 1.033h3.192c-.049-.421-.218-.765-.512-1.027-.284-.262-.644-.399-1.08-.399zm2.46 1.808c0 .071-.005.159-.016.274H81.61c.054.437.25.792.578 1.06.328.267.737.398 1.228.398.595 0 1.075-.202 1.435-.601l.497.585a2.185 2.185 0 01-.84.601c-.334.136-.71.208-1.125.208-.524 0-.993-.11-1.397-.323a2.29 2.29 0 01-.944-.907 2.637 2.637 0 01-.332-1.316c0-.481.109-.918.321-1.306.213-.388.513-.689.89-.907a2.513 2.513 0 011.282-.322c.475 0 .9.109 1.272.322.37.213.665.519.873.907.213.382.316.825.316 1.327zM43.75 38.428v-1.596a.962.962 0 00-.96-.961c-.53 0-.96.431-.96.961v1.596c-9.986-3.88-15.672-10.747-18.22-17.084h1.653a.962.962 0 000-1.924h-2.33a21.73 21.73 0 01-.846-3.955c-.573-5.108 1.015-9.397 4.25-11.479 2.134-1.37 4.268-2.065 6.353-2.065 4.518 0 7.775 3.202 9.145 4.84v1.815a.961.961 0 001.92 0V6.762c1.37-1.64 4.628-4.84 9.146-4.84 2.084 0 4.218.693 6.351 2.064 3.236 2.082 4.824 6.376 4.251 11.479a21.283 21.283 0 01-.846 3.956h-2.335a.962.962 0 000 1.923h1.653c-2.553 6.337-8.24 13.2-18.225 17.084zM23.68 3.653c-1.123 1.104-2.008 2.491-2.624 4.081-.044.11-.082.224-.126.334l-.005.016-.006.016c-.349 1.022-1.21 4.076-.676 8.108.19 1.388.54 2.868 1.053 4.382a.89.89 0 00.07.202c1.687 4.873 5.092 10.15 10.68 14.39a251.592 251.592 0 00-2.854 5.12c-.939 1.731-1.66 3.13-2.145 4.157-.682 1.442-1.271 2.694-.305 3.273.147.087.289.175.49.175.814 0 2.647-1.383 10.123-9.392a40.42 40.42 0 004.682 2.043l.327.115.437.153.758-.268a40.415 40.415 0 004.682-2.043c7.476 8.01 9.309 9.392 10.122 9.392.202 0 .344-.082.486-.175.966-.58.376-1.83-.306-3.273-.486-1.027-1.206-2.426-2.144-4.158a282.42 282.42 0 00-2.854-5.119c5.587-4.24 8.992-9.517 10.678-14.39a.89.89 0 00.072-.202 23.958 23.958 0 001.047-4.382c.53-4.005-.322-7.048-.671-8.086-.6-1.715-1.512-3.207-2.701-4.398-1.135-1.136-2.712-2.076-4.163-2.682-5.44-2.257-10.723-.798-15.017 3.895-1.577-1.72-4.486-4.234-8.425-4.819-2.194-.322-4.371.033-6.428.864-1.468.584-3.11 1.54-4.257 2.671zm32.408 40.178c-1.048-2.054-2.581-4.84-4.115-7.518a34.98 34.98 0 01-1.997 1.251c2.172 2.311 4.431 4.633 6.112 6.267zm-26.59 0c1.68-1.628 3.939-3.956 6.105-6.267a35.523 35.523 0 01-1.997-1.25c-1.528 2.676-3.061 5.463-4.109 7.517z" fill="#fff"/><path fill-rule="evenodd" clip-rule="evenodd" d="M43.068 20.72c-.273 0-.535.049-.775.142-1.96-1.055-2.281-1.202-2.281-1.202s-1.19-.765-1.708-1.781c-.017-.033-.044-.082-.06-.115v-.005c-.011-.039-.017-.082-.027-.12l-.05-.23a.433.433 0 00-.136-.23l-.218-.19a.186.186 0 00-.175-.039c-.458-.453-3.836-3.775-11.077-9.801a.286.286 0 00-.218-.06.25.25 0 00-.18.109c-.224.322-.235 1.043 1.004 2.66 1.56 2.038 4.654 4.918 9.189 8.55-.011.06.01.127.06.17l.218.191a.4.4 0 00.24.104c.12.011.235.022.35.038.829.23 1.478.853 2.117 1.503 0 0 .229.317 1.56 2.196-.01.099-.022.191-.022.29a2.19 2.19 0 104.377 0c0-.044 0-.082-.006-.126 1.78-2.316 3.842-4.31 3.842-4.31s3.257-2.967 4.31-3.24c0 0 .944.704 1.785-.011l4.638-3.956c.338-.284.616-.633.824-1.021-.415.142-.802.36-1.14.65l-4.535 3.862a.271.271 0 01-.387-.032.272.272 0 01.032-.388l4.535-3.863c.338-.284.616-.634.824-1.022a3.593 3.593 0 00-1.14.65l-4.535 3.863a.277.277 0 01-.393-.033.278.278 0 01.033-.393l4.534-3.863c.339-.284.617-.633.824-1.021a3.592 3.592 0 00-1.14.65l-4.535 3.863a.271.271 0 01-.387-.033.272.272 0 01.033-.388l4.534-3.863c.338-.284.617-.634.824-1.021-.415.142-.802.36-1.14.65l-4.639 3.955c-.84.716-.294 1.765-.294 1.765-.442 1-3.886 3.742-3.886 3.742s-1.997 1.53-4.583 2.994a2.376 2.376 0 00-1.02-.24z" fill="#fff"/></svg>