<svg width="80" height="80" fill="none" xmlns="http://www.w3.org/2000/svg"><g clip-path="url(#clip0_449_923963)" fill="#2D2D2D"><path d="M77.713 10.937a3.014 3.014 0 00-4.264-.005L37.28 47.007 24.23 32.833a3.015 3.015 0 00-4.436 4.084L34.967 53.4a3.012 3.012 0 002.154.972h.064c.797 0 1.564-.316 2.129-.879l38.392-38.291a3.015 3.015 0 00.006-4.264z"/><path d="M76.985 36.985A3.015 3.015 0 0073.97 40c0 18.732-15.238 33.97-33.97 33.97C21.27 73.97 6.03 58.732 6.03 40 6.03 21.27 21.27 6.03 40 6.03A3.015 3.015 0 1040 0C17.944 0 0 17.944 0 40c0 22.055 17.944 40 40 40 22.055 0 40-17.945 40-40a3.015 3.015 0 00-3.015-3.015z"/></g><defs><clipPath id="clip0_449_923963"><path fill="#fff" d="M0 0h80v80H0z"/></clipPath></defs></svg>