<svg width="26" height="26" viewBox="0 0 26 26" fill="none" xmlns="http://www.w3.org/2000/svg">
<g id="email-2 1">
<path id="Vector" d="M14.7655 15.3804C14.2399 15.7308 13.6294 15.916 13 15.916C12.3706 15.916 11.7601 15.7308 11.2346 15.3804L2.57815 9.60929C2.53013 9.57727 2.48334 9.54389 2.4375 9.50956V18.9662C2.4375 20.0504 3.31736 20.9109 4.3822 20.9109H21.6178C22.702 20.9109 23.5625 20.031 23.5625 18.9662V9.50952C23.5165 9.54393 23.4697 9.57739 23.4215 9.60945L14.7655 15.3804Z" fill="#828282"/>
<path id="Vector_2" d="M3.26476 8.57936L11.9212 14.3505C12.2489 14.569 12.6244 14.6782 13 14.6782C13.3755 14.6782 13.7511 14.569 14.0788 14.3505L22.7352 8.57936C23.2533 8.23422 23.5625 7.65658 23.5625 7.03315C23.5625 5.96118 22.6904 5.08911 21.6185 5.08911H4.38154C3.30961 5.08915 2.4375 5.96122 2.4375 7.03418C2.4375 7.65658 2.74678 8.23422 3.26476 8.57936Z" fill="#828282"/>
</g>
</svg>
