<svg width="110" height="106" viewBox="0 0 110 106" fill="none" xmlns="http://www.w3.org/2000/svg">
<path d="M3.97272 105.239C2.81666 105.239 1.90833 104.578 1.24773 103.257C0.587122 101.936 0.25682 100.367 0.25682 98.55C0.25682 95.9076 0.587122 93.0174 1.24773 89.8796C2.07348 86.5765 2.89924 83.6038 3.725 80.9614C4.55075 78.1538 5.12878 76.2546 5.45908 75.2637C7.7712 69.1531 10.7439 62.2167 14.3772 54.4546C18.0106 46.5274 22.3045 38.8478 27.259 31.416C32.3787 23.8191 37.9939 17.2956 44.1045 11.8456C50.2151 6.23048 56.8211 2.59715 63.9226 0.94564C64.7484 0.780486 65.4916 0.697909 66.1522 0.697909C66.9779 0.53276 67.7211 0.450185 68.3817 0.450185C71.0241 0.450185 73.1711 1.02821 74.8226 2.18427C76.4741 3.17518 77.5476 4.49639 78.043 6.1479C78.043 6.31305 78.043 6.4782 78.043 6.64336C78.2082 6.80851 78.2908 7.05623 78.2908 7.38654C78.2908 8.21229 78.043 8.62517 77.5476 8.62517C76.7218 8.62517 76.2264 8.04714 76.0612 6.89108C75.8961 6.06533 75.1529 5.4873 73.8317 5.15699C72.5105 4.66154 71.0241 4.41382 69.3726 4.41382C63.9226 4.41382 58.3901 6.80851 52.7749 11.5979C47.3249 16.2221 41.9575 22.1676 36.6727 29.4342C31.553 36.5357 26.8462 43.885 22.5522 51.4819C18.4235 59.0789 15.0379 65.8501 12.3954 71.7955C12.2303 72.1258 11.7348 73.3644 10.9091 75.5114C10.2485 77.6584 9.50529 80.2182 8.67953 83.1909C7.85378 86.1637 7.19317 89.0538 6.69772 91.8614L13.3863 81.9523C17.1848 76.3372 21.8091 70.722 27.259 65.1069C32.709 59.3266 38.6545 54.6198 45.0954 50.9865C45.756 50.6562 46.4166 50.4084 47.0772 50.2433C47.9029 50.0781 48.6461 49.9956 49.3067 49.9956C50.7931 49.9956 51.5363 50.491 51.5363 51.4819C51.5363 51.8122 51.1234 52.638 50.2976 53.9592C46.8295 58.5834 44.1045 63.4554 42.1227 68.5751C40.1408 73.5296 38.9022 78.9796 38.4068 84.925C38.2416 88.5584 38.5719 91.944 39.3977 95.0818C40.3886 98.2197 42.453 99.7886 45.5908 99.7886C49.059 99.7886 52.4446 98.3023 55.7476 95.3296C59.2158 92.1917 62.3537 88.6409 65.1612 84.6773C68.134 80.5485 70.6938 76.9152 72.8408 73.7773C73.1711 73.2819 73.4188 73.0341 73.584 73.0341C74.0794 73.0341 74.3271 73.5296 74.3271 74.5205C74.3271 75.5114 73.9143 76.6675 73.0885 77.9887C70.4461 81.9523 67.5559 85.9159 64.4181 89.8796C61.4453 93.8432 58.2249 97.1462 54.7567 99.7886C51.2885 102.431 47.4901 103.752 43.3613 103.752C39.2325 103.752 36.2598 102.183 34.4431 99.0455C32.6265 95.9076 31.7181 92.1091 31.7181 87.65C31.7181 82.8606 32.4613 77.741 33.9477 72.291C35.5992 66.841 37.4984 62.2993 39.6454 58.666C35.3515 61.8039 30.8924 65.7675 26.2681 70.5569C21.6439 75.1811 17.6803 80.1356 14.3772 85.4205C13.2212 87.5675 11.5697 90.2924 9.42271 93.5955C7.27575 96.7333 6.03711 99.3758 5.70681 101.523C5.21136 104 4.63333 105.239 3.97272 105.239ZM99.485 32.6547C97.1728 32.6547 95.7691 31.2509 95.2736 28.4433C95.1085 27.1221 95.9342 25.8009 97.7509 24.4797C99.5675 23.1585 101.054 22.2501 102.21 21.7547C103.036 21.4244 103.696 21.1767 104.192 21.0115C104.687 20.8464 105.1 20.7638 105.43 20.7638C106.586 20.7638 107.164 21.3418 107.164 22.4979C107.164 23.8191 106.669 25.388 105.678 27.2047C104.852 29.0213 104.439 29.9297 104.439 29.9297C104.274 30.5903 103.696 31.2509 102.705 31.9115C101.715 32.4069 100.641 32.6547 99.485 32.6547ZM74.7123 105.734C71.7396 105.734 69.5926 104.743 68.2714 102.761C66.9502 100.78 66.2896 98.3023 66.2896 95.3296C66.2896 93.0174 66.5373 90.7879 67.0327 88.6409C67.363 87.65 68.1888 85.1728 69.51 81.2091C70.9964 77.2455 72.8956 72.869 75.2077 68.0796C77.685 63.2902 80.3274 59.1614 83.135 55.6933C85.9426 52.0599 88.8327 50.2433 91.8054 50.2433C93.1266 50.2433 93.7872 50.5736 93.7872 51.2342C93.7872 51.8948 93.4569 52.5554 92.7963 53.216C89.4933 57.1796 86.3554 61.8864 83.3827 67.3364C80.5751 72.6213 78.1805 77.6584 76.1986 82.4478C74.382 87.2372 73.3085 90.8705 72.9782 93.3477C72.4827 98.6326 74.0517 101.275 77.685 101.275C78.1805 101.275 78.6759 101.275 79.1714 101.275C79.6668 101.11 80.2448 100.945 80.9054 100.78C84.3736 99.6235 87.7592 97.4765 91.0622 94.3387C94.3653 91.2008 97.4206 87.7326 100.228 83.9341C103.036 80.1356 105.348 76.8326 107.164 74.0251C107.825 73.3644 108.238 73.0341 108.403 73.0341C108.899 73.0341 109.146 73.447 109.146 74.2728C109.146 75.0985 108.899 75.9243 108.403 76.75C104.77 82.3652 100.476 87.8978 95.5213 93.3477C90.7319 98.7977 85.9426 102.431 81.1532 104.248C78.6759 105.239 76.5289 105.734 74.7123 105.734Z" fill="#FD9800"/>
</svg>
