<svg width="26" height="26" viewBox="0 0 26 26" fill="none" xmlns="http://www.w3.org/2000/svg">
<g id="map 1">
<path id="Vector" d="M13 0.8125C10.6296 0.8125 8.35634 1.75413 6.68023 3.43023C5.00413 5.10634 4.0625 7.37963 4.0625 9.75C4.0625 14.4706 12.025 24.4562 12.3663 24.8869C12.4424 24.9818 12.5389 25.0584 12.6485 25.111C12.7582 25.1636 12.8783 25.1909 13 25.1909C13.1217 25.1909 13.2418 25.1636 13.3515 25.111C13.4611 25.0584 13.5576 24.9818 13.6338 24.8869C13.975 24.4562 21.9375 14.4706 21.9375 9.75C21.9375 7.37963 20.9959 5.10634 19.3198 3.43023C17.6437 1.75413 15.3704 0.8125 13 0.8125ZM13 12.1875C12.3572 12.1875 11.7289 11.9969 11.1944 11.6398C10.6599 11.2827 10.2434 10.7751 9.99739 10.1812C9.75141 9.58736 9.68705 8.9339 9.81245 8.30346C9.93785 7.67302 10.2474 7.09392 10.7019 6.6394C11.1564 6.18488 11.7355 5.87535 12.366 5.74995C12.9964 5.62455 13.6499 5.68891 14.2437 5.93489C14.8376 6.18088 15.3452 6.59744 15.7023 7.1319C16.0594 7.66636 16.25 8.29471 16.25 8.9375C16.25 9.79945 15.9076 10.6261 15.2981 11.2356C14.6886 11.8451 13.862 12.1875 13 12.1875Z" fill="#828282"/>
</g>
</svg>
