<svg width="127" height="51" viewBox="0 0 127 51" fill="none" xmlns="http://www.w3.org/2000/svg">
<path d="M55.2373 50.0314C53.0705 50.0314 51.1746 49.1511 49.5495 47.3906C47.9244 45.6301 47.1119 42.8539 47.1119 39.062C47.1119 36.2181 47.6536 33.0356 48.737 29.5146C49.9558 25.8582 51.5132 22.2017 53.4091 18.5453C55.305 14.8888 57.2687 11.6387 59.3 8.79475C56.5916 10.2844 53.3414 12.6543 49.5495 15.9045C45.8931 19.1547 42.372 22.7434 38.9864 26.6707C35.6008 30.4626 32.9601 34.0513 31.0641 37.4369C30.387 38.6557 29.2359 39.536 27.6108 40.0777C26.1212 40.484 25.5117 40.4163 25.7826 39.8746C25.918 39.7391 26.4597 38.588 27.4077 36.4212C28.4911 34.119 29.5745 31.7491 30.6579 29.3115C31.7412 26.8739 32.4184 25.2488 32.6892 24.4362C33.7726 21.7277 34.5174 19.4932 34.9237 17.7327C35.4654 15.8368 35.7363 14.4148 35.7363 13.4669C35.7363 11.9772 35.1946 11.2324 34.1112 11.2324C32.8924 11.2324 31.1318 12.1804 28.8296 14.0763C26.6628 15.8368 24.4961 17.8682 22.3293 20.1704C20.2979 22.3372 18.8083 24.03 17.8603 25.2488C16.506 26.8739 14.881 28.9729 12.985 31.546C11.2245 33.9836 9.53171 36.489 7.90662 39.062C6.41696 41.6351 5.40128 43.9373 4.85958 45.9686C4.72416 46.5103 4.58874 46.9843 4.45331 47.3906C4.31789 47.6614 4.18246 47.9323 4.04704 48.2031C3.50534 49.1511 2.76051 49.0834 1.81254 48C0.729152 46.7812 0.187456 44.8175 0.187456 42.1091C0.187456 39.2652 0.66144 36.0827 1.60941 32.5617C2.6928 28.9052 3.91162 25.5873 5.26586 22.608C6.6201 19.7641 7.83891 17.2588 8.9223 15.092C10.1411 12.9252 10.9537 11.5709 11.3599 11.0292C12.8496 9.13331 14.407 7.57594 16.0321 6.35712C17.6572 5.1383 19.2822 4.5289 20.9073 4.5289C21.7199 4.5289 22.3293 4.73203 22.7356 5.1383C23.2772 5.54458 23.345 5.88314 22.9387 6.15398C21.8553 6.69568 20.4333 8.18534 18.6728 10.623C16.9123 12.9252 15.0841 15.6337 13.1882 18.7484C11.9693 20.9152 10.412 23.8268 8.51603 27.4833C6.6201 31.1397 5.5367 34.2545 5.26586 36.8275C5.26586 37.9109 5.5367 38.3849 6.0784 38.2495C7.70349 35.541 9.26086 33.0356 10.7505 30.7334C12.3756 28.4312 14.2038 26.0613 16.2352 23.6237C18.2666 21.186 20.5688 18.6807 23.1418 16.1076C25.7149 13.3992 28.2202 11.1647 30.6579 9.40416C33.2309 7.50822 35.2623 6.62797 36.7519 6.76339C38.5124 6.89882 39.7313 7.44051 40.4084 8.38848C41.0855 9.33645 41.4241 10.4876 41.4241 11.8418C41.4241 14.0086 40.9501 16.2431 40.0021 18.5453C39.0541 20.8475 38.2416 22.7434 37.5645 24.2331L36.7519 26.2644C38.7833 23.556 41.2886 20.7121 44.268 17.7327C47.2473 14.7534 50.2943 12.1126 53.4091 9.81043C56.5238 7.3728 59.2323 5.74771 61.5345 4.93517C62.8888 4.39347 64.1753 4.12263 65.3941 4.12263C66.6129 4.12263 67.2223 4.5289 67.2223 5.34144C67.2223 5.61229 66.8838 6.28941 66.2067 7.3728C63.0919 11.5709 60.3157 15.8368 57.8781 20.1704C55.4404 24.5039 53.8154 29.3792 53.0028 34.7962C52.8674 35.6087 52.732 36.4212 52.5965 37.2338C52.5965 37.9109 52.5965 38.588 52.5965 39.2652C52.5965 41.4319 52.9351 43.3279 53.6122 44.953C54.2893 46.4426 55.5082 47.1875 57.2687 47.1875C59.8417 47.1875 62.4825 46.0364 65.191 43.7341C67.8995 41.2965 70.6079 38.2495 73.3164 34.593C76.0249 30.8012 78.6657 27.0093 81.2387 23.2174C81.5096 22.8111 81.7127 22.608 81.8481 22.608C82.2544 22.608 82.4575 22.9466 82.4575 23.6237C82.4575 24.4362 82.119 25.3842 81.4419 26.4676C79.1396 29.9886 76.5666 33.5773 73.7227 37.2338C71.0142 40.8902 68.1026 43.9373 64.9878 46.3749C61.8731 48.8125 58.6229 50.0314 55.2373 50.0314ZM94.2442 49.6251C88.6918 49.6251 84.6291 48.4063 82.056 45.9686C79.483 43.3956 78.1964 40.01 78.1964 35.8118C78.1964 34.7284 78.2642 33.6451 78.3996 32.5617C78.6704 31.3428 78.9413 30.124 79.2121 28.9052C79.8892 26.4676 80.9726 23.6237 82.4623 20.3735C84.0874 17.1233 86.051 13.9409 88.3532 10.8261C90.6554 7.71136 93.1608 5.1383 95.8693 3.10694C98.5778 1.07558 101.422 0.0599039 104.401 0.0599039C106.839 0.0599039 108.667 0.940161 109.886 2.70067C111.24 4.46119 111.917 6.56026 111.917 8.99789C111.917 11.5709 111.104 14.2117 109.479 16.9202C107.99 19.4932 105.958 21.5923 103.385 23.2174C100.406 25.2488 97.0204 26.2644 93.2285 26.2644C90.7909 26.2644 88.5564 25.7905 86.525 24.8425C84.4937 28.9052 83.478 32.9002 83.478 36.8275C83.478 39.6714 84.2905 42.1091 85.9156 44.1404C87.5407 46.1718 90.2492 47.1875 94.041 47.1875C98.6455 47.1875 102.708 46.1041 106.229 43.9373C109.75 41.6351 113 38.6557 115.98 34.9993C119.094 31.3428 122.074 27.4156 124.918 23.2174C125.324 22.8111 125.595 22.608 125.73 22.608C126.137 22.608 126.34 22.9466 126.34 23.6237C126.34 24.3008 126.137 24.9779 125.73 25.655C123.293 29.4469 120.516 33.1711 117.402 36.8275C114.422 40.484 111.037 43.531 107.245 45.9686C103.453 48.4063 99.1194 49.6251 94.2442 49.6251ZM91.1971 23.4205C94.7182 23.4205 98.0361 22.2017 101.151 19.7641C102.64 18.6807 103.927 17.3942 105.01 15.9045C106.094 14.4148 106.839 12.9252 107.245 11.4355C107.651 9.94586 107.854 8.65933 107.854 7.57594C107.854 4.46118 106.703 2.90381 104.401 2.90381C102.911 2.90381 101.219 3.78406 99.3226 5.54458C97.6975 7.03424 96.0047 8.93018 94.2442 11.2324C92.6191 13.5346 91.1971 15.7691 89.9783 17.9359C88.7595 19.9672 87.947 21.4569 87.5407 22.4049C88.4887 23.082 89.7075 23.4205 91.1971 23.4205Z" fill="#FD9800"/>
</svg>
