<svg width="26" height="26" viewBox="0 0 26 26" fill="none" xmlns="http://www.w3.org/2000/svg">
<g id="phone-receiver-silhouette 1">
<g id="Group">
<path id="Vector" d="M21.1891 16.9283C19.9314 15.8526 18.655 15.2009 17.4126 16.2751L16.6708 16.9242C16.1281 17.3955 15.119 19.5974 11.2173 15.1091C7.31652 10.6266 9.63783 9.92862 10.1814 9.46144L10.9273 8.81144C12.1631 7.73487 11.6967 6.37962 10.8054 4.98456L10.2675 4.13956C9.37215 2.74775 8.39715 1.83369 7.15808 2.90862L6.48858 3.49362C5.94096 3.89256 4.41021 5.18931 4.0389 7.65281C3.59202 10.6087 5.00171 13.9936 8.2314 17.7075C11.457 21.4231 14.6152 23.2894 17.6068 23.2569C20.0931 23.2301 21.5946 21.8959 22.0642 21.4109L22.7361 20.8251C23.972 19.7509 23.2041 18.6573 21.9456 17.5791L21.1891 16.9283Z" fill="#828282"/>
</g>
</g>
</svg>
