<svg width="20" height="18" viewBox="0 0 20 18" fill="none" xmlns="http://www.w3.org/2000/svg">
<path d="M5.18548 17.0023C6.57179 15.1585 9.5096 11.4884 10.9013 9.64661L12.3216 7.76449L11.4655 7.05334L10.6212 6.32812L9.00296 8.04296C7.41937 9.72282 4.29244 13.2328 2.70638 14.9076C2.30702 15.329 2.10813 15.866 2.14496 16.4181C2.20697 17.3462 2.8715 17.9017 3.79012 17.8081C4.34058 17.7523 4.83704 17.4662 5.18565 17.0022L5.18548 17.0023Z" fill="#D3D3D3"/>
<path d="M19.4845 6.19289C19.2741 6.01464 19.0613 5.83639 18.8485 5.65824C18.6112 5.45936 18.374 5.25778 18.1395 5.05865C18.0586 4.98901 17.9809 4.9649 17.8756 4.97281C17.8205 4.97696 17.3247 5.02745 17.1868 5.04031L17.1444 5.04366C16.6476 5.08156 16.3912 4.86125 16.3424 4.35273L16.3275 4.22523C16.3139 4.11273 16.3032 4.00251 16.2995 3.8892C16.2957 3.74054 16.2343 3.62911 16.0938 3.50602C15.3749 2.87925 14.5263 2.13621 13.6812 1.37294C13.3235 1.04923 12.916 0.797726 12.4346 0.607132C11.3702 0.178149 10.366 0.0805377 9.36354 0.30298C8.86815 0.412132 8.40543 0.59615 7.96492 0.860397C7.72439 1.00464 7.82068 1.37883 8.101 1.38257C8.63938 1.38993 9.12823 1.48436 9.59311 1.66569C10.6724 2.08837 11.3422 3.0015 11.3831 4.10601C11.4014 4.61426 11.2961 5.11946 11.0706 5.60574C11.3888 5.87668 11.7127 6.15486 12.0314 6.4286C12.3038 6.66043 12.5684 6.88998 12.8142 7.1009C13.0961 6.79421 13.1623 6.73394 13.2175 6.69445C13.5627 6.45632 13.9723 6.3998 14.3188 6.54271C14.431 6.58958 14.542 6.65949 14.6474 6.74976C15.1241 7.14754 15.2473 7.70589 14.9837 8.25336C15.0939 8.34336 15.2043 8.43363 15.3145 8.52349C15.7561 8.88857 16.2161 9.26492 16.6742 9.61622C16.7411 9.66671 16.7962 9.69523 16.8314 9.69269C16.8489 9.69135 16.9036 9.67702 17.0072 9.58354L19.0079 7.25156L19.5334 6.59598C19.6387 6.46112 19.668 6.34821 19.4845 6.19285L19.4845 6.19289Z" fill="#D3D3D3"/>
<path d="M1.59186 4.8611C1.60096 4.85507 1.60886 4.84744 1.61516 4.8378C1.61677 4.83538 1.61824 4.83311 1.61985 4.8307C1.62668 4.82159 1.63244 4.81235 1.6382 4.80271C1.64971 4.78516 1.66096 4.76789 1.67248 4.75034C1.72163 4.67548 1.77038 4.60061 1.81954 4.52601C1.88623 4.42422 1.95279 4.32271 2.01922 4.22106C2.09114 4.11137 2.16293 4.00168 2.23485 3.89186C2.29954 3.79289 2.36436 3.69405 2.42905 3.59507C2.47431 3.5257 2.51985 3.45632 2.56512 3.38695C2.59177 3.3461 2.61909 3.30445 2.61949 3.25396C2.62003 3.19503 2.5915 3.1365 2.54128 3.10583C2.51008 3.08668 2.47847 3.06766 2.44753 3.04771L1.47735 2.42453C1.08131 2.16993 0.737668 1.9495 0.699233 1.92485L0.508252 1.80231C0.452805 1.76695 0.380349 1.80646 0.379546 1.87249L0.376466 2.10043C0.375663 2.16017 0.373788 2.21695 0.371779 2.27133C0.367627 2.39039 0.363609 2.50289 0.372582 2.61861C0.447448 3.56373 0.715439 4.30197 1.16852 4.81289C1.1787 4.82441 1.18888 4.83566 1.19946 4.84745C1.2008 4.84878 1.20214 4.84959 1.20361 4.85106C1.20549 4.85347 1.20696 4.85602 1.20884 4.85843C1.30379 4.96544 1.47214 4.96972 1.58492 4.86834C1.58786 4.86606 1.58947 4.86338 1.59188 4.86111L1.59186 4.8611Z" fill="#D3D3D3"/>
<path d="M8.40897 7.47946C7.88948 8.0319 7.19505 8.78914 6.4539 9.6013C5.82496 8.77 5.12492 8.00447 4.21984 7.47116C3.62934 7.12669 2.97297 6.93517 2.28938 6.89434C1.95858 6.87786 1.51288 6.88067 1.32966 6.54438C1.19828 6.31202 1.4964 6.06572 1.61412 5.88798C1.91506 5.43411 2.21011 4.98291 2.50823 4.53167C2.93478 3.88628 3.36403 3.24088 3.79072 2.59573C3.62076 2.47546 3.03575 2.10099 2.85256 1.98061C2.37938 1.67699 1.89002 1.35716 1.47726 0.976964L1.4581 0.957812C1.39516 0.88683 1.37601 0.785581 1.40868 0.698125C1.46333 0.556028 1.60556 0.481964 2.02113 0.375627C2.23997 0.318304 2.47233 0.2717 2.52698 0.263396C2.9727 0.211566 3.40195 0.203262 3.8068 0.246923C4.47136 0.320716 5.40362 0.561254 6.07929 1.32157L6.10675 1.3572C6.48416 1.79475 6.74665 2.33342 6.85057 2.90503C6.95182 3.44918 6.75763 3.99333 6.81214 4.5431C6.8558 4.9943 6.99816 5.42355 7.21393 5.8201C7.53924 6.42158 7.99863 6.92489 8.46361 7.42241L8.40897 7.47946Z" fill="#D3D3D3"/>
<path d="M15.3581 16.113C15.1749 17.1575 14.3219 17.8303 13.2363 17.7809C12.5882 17.7508 12.0332 17.4584 11.6751 16.955C11.366 16.5229 11.0598 16.091 10.7507 15.6562C10.1983 14.877 9.64592 14.1003 9.09375 13.3209C9.88674 12.3091 10.6743 11.3031 11.2705 10.5234C12.4655 11.8359 13.6631 13.1459 14.877 14.442C15.2977 14.8936 15.4699 15.4867 15.3581 16.113H15.3581Z" fill="#D3D3D3"/>
</svg>
