<svg width="24" height="24" viewBox="0 0 24 24" fill="none" xmlns="http://www.w3.org/2000/svg">
<path d="M8.02309 11.2856C8.0846 11.2203 8.15838 11.1677 8.24022 11.1309C8.32206 11.0941 8.41035 11.0737 8.50004 11.071C8.58974 11.0683 8.67909 11.0833 8.76299 11.1152C8.84689 11.147 8.9237 11.1951 8.98902 11.2566C12.1332 14.2184 15.2881 16.0205 19.0006 16.939C19.5015 15.5725 19.5459 14.0686 19.1134 12.6013C18.5394 10.6545 17.2028 8.95836 15.2492 7.6965C13.5052 6.57001 11.7621 6.27664 10.0758 5.9931C7.94836 5.63525 5.93878 5.29705 4.02102 3.26654C3.8075 3.04193 3.5167 2.95183 3.23871 3.02485C2.921 3.11025 2.70791 3.36134 2.60586 3.77641C2.36672 4.74789 2.52045 7.4706 3.19301 10.3449C4.27296 14.9628 5.99643 17.2994 7.25231 18.4469C8.87501 19.9282 10.9939 20.7485 13.0996 20.7485C13.4965 20.7491 13.8929 20.72 14.2854 20.6614C16.0665 20.3915 17.5492 19.4969 18.3849 18.1953C14.5634 17.2012 11.2988 15.3108 8.05085 12.2529C7.98541 12.1912 7.93276 12.1173 7.89594 12.0353C7.85912 11.9533 7.83883 11.8649 7.83626 11.775C7.83368 11.6852 7.84885 11.5957 7.88091 11.5117C7.91297 11.4277 7.96129 11.3509 8.02309 11.2856Z" fill="#D3D3D3"/>
<path d="M21.0988 17.3547C20.3801 17.2441 19.6841 17.1053 19.0064 16.9375C18.8671 17.3179 18.6937 17.6849 18.4884 18.0341C18.4572 18.0875 18.4244 18.1404 18.3906 18.1925C19.2149 18.4059 20.0495 18.5769 20.8913 18.705C20.9809 18.7207 21.0727 18.7184 21.1613 18.6982C21.25 18.678 21.3337 18.6403 21.4077 18.5873C21.4816 18.5343 21.5441 18.4671 21.5917 18.3896C21.6393 18.3121 21.671 18.2259 21.6848 18.136C21.6987 18.0462 21.6944 17.9544 21.6724 17.8662C21.6503 17.778 21.6108 17.695 21.5563 17.6223C21.5017 17.5495 21.4332 17.4883 21.3547 17.4424C21.2763 17.3965 21.1894 17.3666 21.0992 17.3547H21.0988Z" fill="#D3D3D3"/>
</svg>
