<svg width="14" height="14" viewBox="0 0 14 14" fill="none" xmlns="http://www.w3.org/2000/svg">
<path d="M3.11111 0C1.39292 0 0 1.393 0 3.11111V3.38889C0 3.66503 0.223858 3.88889 0.5 3.88889H5.72222C5.99836 3.88889 6.22222 3.66503 6.22222 3.38889V0.5C6.22222 0.223858 5.99836 0 5.72222 0H3.11111ZM8.27778 0C8.00164 0 7.77778 0.223858 7.77778 0.5V8.05555C7.77778 8.3317 8.00164 8.55556 8.27778 8.55556H13.5C13.7761 8.55556 14 8.3317 14 8.05556V3.11111C14 1.393 12.6071 0 10.8889 0H8.27778ZM0.5 5.44444C0.223857 5.44444 0 5.6683 0 5.94444V10.8889C0 12.607 1.39292 14 3.11111 14H5.72222C5.99837 14 6.22222 13.7761 6.22222 13.5V9.33333V5.94444C6.22222 5.6683 5.99836 5.44444 5.72222 5.44444H0.5ZM8.27778 10.1111C8.00164 10.1111 7.77778 10.335 7.77778 10.6111V13.5C7.77778 13.7761 8.00164 14 8.27778 14H10.8889C12.6071 14 14 12.607 14 10.8889V10.6111C14 10.335 13.7761 10.1111 13.5 10.1111H8.27778Z" fill="#D3D3D3"/>
</svg>
