<svg width="16" height="16" viewBox="0 0 16 16" fill="none" xmlns="http://www.w3.org/2000/svg">
<path d="M9.75662 0.1875H5.62426V0.196978C2.60689 0.38823 0.203125 3.82362 0.203125 8.03536C0.203125 12.2471 2.60694 15.6822 5.62426 15.8737V15.8832H9.75662C12.8972 15.8832 15.4434 12.3698 15.4434 8.03574C15.4434 3.70169 12.8972 0.188258 9.75662 0.188258V0.1875ZM9.99662 13.9366C7.72834 13.9366 5.88982 11.2946 5.88982 8.03498C5.88982 4.77532 7.72838 2.13334 9.99662 2.13334C12.2652 2.13334 14.1041 4.77532 14.1041 8.03498C14.1041 11.2946 12.2656 13.9366 9.99662 13.9366Z" fill="#D3D3D3"/>
<path d="M9.04696 2.8125C7.56538 2.8125 6.14844 5.15032 6.14844 8.03347C6.14844 10.917 7.56538 13.2544 9.04696 13.2544C10.5282 13.2544 11.729 10.9166 11.729 8.03347C11.729 5.14998 10.5282 2.8125 9.04696 2.8125V2.8125Z" fill="#D3D3D3"/>
</svg>
