<svg width="187" height="54" viewBox="0 0 187 54" fill="none" xmlns="http://www.w3.org/2000/svg">
<path d="M155.826 44.2336C153.627 44.3484 151.373 43.7426 149.324 42.4884C148.329 41.8807 147.527 41.8772 146.762 42.7586C145.104 44.6682 142.668 45.9153 142.715 49.1285C142.745 51.1139 140.518 52.2374 138.161 52.0802C137.221 52.0348 136.326 51.6622 135.631 51.0268C134.935 50.3914 134.484 49.5331 134.355 48.6003C133.986 46.1273 135.001 43.8945 137.344 43.6913C140.433 43.4246 141.998 41.4409 143.86 39.5508C144.632 38.77 144.743 38.1376 144.231 37.1996C141.922 32.9213 142.026 28.5935 144.127 24.2745C144.531 23.4443 144.388 22.9303 143.636 22.3509C138.816 18.6378 134.019 14.8959 129.244 11.1251C128.46 10.5104 127.642 10.4856 126.704 10.6641C123.224 11.3247 120.387 9.31802 119.976 5.9653C119.642 3.22907 122.092 0.358596 124.959 0.123659C128.026 -0.127177 130.666 2.2434 130.757 5.55195C130.788 6.76374 131.286 7.46678 132.148 8.1292C136.81 11.7116 141.47 15.2974 146.091 18.9187C147.071 19.6871 147.857 20.0333 149.009 19.1589C149.815 18.5424 150.816 17.9824 151.797 17.8341C153.826 17.5249 154.07 16.3432 154.019 14.6174C153.962 12.7449 153.955 11.1322 152.327 9.63775C150.521 7.97729 150.977 4.79061 152.793 3.10189C153.687 2.25961 154.867 1.78889 156.095 1.78528C157.323 1.78167 158.506 2.24545 159.405 3.08246C161.396 4.95313 161.837 7.97729 159.841 9.73667C157.626 11.6798 158.336 13.9761 158.297 16.2178C158.271 17.6309 159.728 17.5196 160.624 17.8553C165.243 19.5811 168.274 22.7536 169.396 27.5707C171.429 36.2846 165.004 44.2672 155.826 44.2336ZM156.137 23.7994C152.346 23.8153 149.143 27.0567 149.168 30.8528C149.193 34.4917 152.284 37.507 156.017 37.53C159.993 37.5547 163.056 34.5464 163.047 30.6249C163.037 26.8712 159.912 23.7852 156.137 23.7994Z" fill="#FB7555"/>
<path d="M0.272944 26.4685C0.271178 21.1445 0.302974 15.8275 0.246448 10.4963C0.234082 9.2598 0.541444 8.84469 1.85568 8.82703C6.8353 8.76167 6.8353 8.70691 6.83353 13.7589C6.83353 16.5252 6.87769 19.2915 6.81587 22.0613C6.7876 23.2448 7.04551 23.7994 8.40567 23.7641C11.8626 23.6776 15.3231 23.6829 18.7818 23.7641C20.1066 23.7941 20.3999 23.2766 20.3716 22.0666C20.3115 18.3323 20.414 14.598 20.3292 10.8655C20.2939 9.39406 20.6083 8.79876 22.2546 8.82526C26.9905 8.90298 26.9922 8.82526 26.9922 13.5947C26.9922 23.2059 26.9498 32.8172 27.0276 42.4266C27.0399 44.0571 26.6089 44.5358 24.9661 44.5146C20.3592 44.4528 20.3592 44.5269 20.361 40.0119C20.361 37.2474 20.2921 34.4794 20.3928 31.7096C20.4422 30.3176 19.9459 29.9785 18.6263 30.0103C15.2383 30.0974 11.8485 30.0974 8.4569 30.0103C7.19389 29.9785 6.77877 30.3406 6.80704 31.6248C6.88299 35.2884 6.76994 38.9556 6.86709 42.6174C6.90596 44.0765 6.45551 44.4987 4.99996 44.4951C0.276477 44.4775 0.276477 44.5358 0.276477 39.7434C0.276477 35.319 0.2753 30.8941 0.272944 26.4685Z" fill="#FCFCFC"/>
<path d="M64.0159 20.2948C70.4299 16.7319 75.95 17.2371 80.2831 21.632C84.452 25.8715 85.2981 32.4586 82.3463 37.7226C79.6649 42.5061 73.6007 45.3342 68.2148 44.3114C62.7688 43.2763 58.5912 38.975 58.0224 33.2181C57.2663 25.5765 57.8457 17.8907 57.7168 10.226C57.7009 9.30396 58.0983 9.00013 58.9533 9.02132C60.128 9.05135 61.308 9.09198 62.4773 9.02132C63.6467 8.95067 64.0565 9.36225 64.0318 10.5511C63.9665 13.7183 64.0159 16.8873 64.0159 20.2948ZM64.2756 31.0843C64.2032 34.8945 67.3616 38.1872 71.1382 38.2419C74.8283 38.2967 78.0274 35.1489 78.0945 31.4111C78.1161 30.4933 77.9559 29.5803 77.6232 28.7247C77.2905 27.8691 76.7919 27.0877 76.156 26.4256C75.5202 25.7634 74.7596 25.2336 73.9181 24.8666C73.0767 24.4995 72.1709 24.3026 71.2531 24.287C67.5488 24.2357 64.3409 27.3606 64.2703 31.0843H64.2756Z" fill="#FCFCFC"/>
<path d="M118.254 41.6175C118.254 44.5922 118.265 47.2542 118.254 49.9198C118.254 51.9636 117.351 52.8433 115.251 52.9122C114.898 52.9228 114.545 52.8645 114.216 52.9245C112.45 53.2354 111.883 52.6437 111.92 50.7536C112.063 44.0517 111.92 37.3445 112.029 30.6408C112.135 24.1844 116.081 19.1925 121.971 17.7793C127.447 16.4651 133.983 19.491 136.752 24.6119C139.618 29.9201 138.501 36.5125 134.046 40.7696C129.701 44.9208 122.649 45.2016 119.19 42.2128C118.89 41.9962 118.578 41.7974 118.254 41.6175ZM118.477 31.4481C118.104 33.6685 121.566 37.6112 124.956 37.7313C128.74 37.8656 132.179 34.905 132.354 31.1336C132.431 29.3147 131.797 27.5372 130.587 26.1776C129.376 24.8181 127.683 23.9835 125.868 23.8506C121.469 23.5556 117.964 27.4541 118.477 31.4551V31.4481Z" fill="#FCFCFC"/>
<path d="M97.7547 8.82715C101.243 8.87661 104.124 10.0089 106.612 12.2134C107.495 12.9889 107.749 13.6425 106.788 14.5911C105.764 15.6121 105.075 17.1842 103.875 17.7583C102.54 18.396 101.701 16.5218 100.507 15.9671C97.2883 14.4462 94.2677 15.3718 93.6071 18.2476C93.2538 19.8074 93.7537 20.9556 95.1032 21.7611C96.3627 22.5136 97.7829 22.8545 99.1484 23.3403C100.521 23.8005 101.866 24.342 103.174 24.9619C106.615 26.6771 107.714 29.7313 107.915 33.3419C108.193 38.2791 106.325 41.9534 101.556 43.6103C96.5076 45.3644 91.853 44.6825 87.6983 40.92C86.0414 39.4203 86.0661 38.5229 87.6983 37.2899C88.0799 36.9901 88.4187 36.6395 88.7052 36.2477C89.8728 34.6985 90.8779 34.3046 92.2645 36.1788C93.5806 37.9453 96.6807 38.5635 98.6591 37.7386C100.083 37.1468 101.118 36.1311 101.243 34.5219C101.376 32.8349 100.537 31.5472 99.0565 30.8654C96.8644 29.8549 94.5468 29.1166 92.3582 28.0991C86.2604 25.2728 84.5628 17.8537 88.8429 12.6285C91.1605 9.80399 94.3984 8.9243 97.7547 8.82715Z" fill="#FCFCFC"/>
<path d="M30.8449 26.5746C30.8449 24.0857 30.8838 21.595 30.8255 19.1079C30.8007 18.048 31.1399 17.6947 32.2386 17.6276C37.0451 17.3467 37.0434 17.3096 37.0434 22.1515C37.0434 25.4706 37.0204 28.7898 37.0434 32.1089C37.0769 35.7725 39.2285 38.2367 42.3639 38.2685C45.4623 38.3021 47.6632 35.7955 47.6738 32.169C47.688 27.8836 47.718 23.5946 47.6544 19.3092C47.635 18.0727 47.9529 17.6452 49.2601 17.6223C53.9995 17.5428 54.003 17.4916 53.9907 22.215C53.9801 25.9493 54.056 29.6854 53.9165 33.4143C53.6815 39.7117 48.4705 44.6207 42.3056 44.52C35.8775 44.4087 30.9368 39.4467 30.8626 33.0045C30.8378 30.8618 30.8626 28.7191 30.8626 26.5746H30.8449Z" fill="#FCFCFC"/>
<path d="M179.826 11.6957C179.826 13.5204 179.912 15.2286 179.799 16.9314C179.704 18.3446 180.241 18.8286 181.58 18.6378C181.925 18.6131 182.27 18.6131 182.615 18.6378C185.588 18.659 185.441 18.6696 185.637 21.5313C185.791 23.7058 185.13 24.3434 182.956 24.211C179.833 24.0202 179.824 24.1739 179.822 27.3641C179.822 29.505 179.81 31.6477 179.822 33.7886C179.845 37.4558 181.008 38.7435 184.638 38.6446C186.478 38.5934 186.671 39.1445 186.227 40.7396C185.132 44.7124 184.638 45.0815 180.517 44.3467C176.053 43.55 173.573 40.7061 173.544 36.1875C173.502 29.4167 173.564 22.6441 173.5 15.8733C173.49 14.6368 173.894 13.9726 175.048 13.5964C176.609 13.0929 177.966 12.0613 179.826 11.6957Z" fill="#FCFCFC"/>
</svg>
