<svg width="222" height="63" viewBox="0 0 222 63" fill="none" xmlns="http://www.w3.org/2000/svg">
<path d="M163.612 62.8033C162.973 62.4871 162.295 62.2274 161.7 61.8399C159.783 60.5832 158.795 58.8112 158.797 56.5031V6.31064C158.797 3.28828 160.621 0.975957 163.614 0.190522C163.696 0.169577 163.757 0.0711356 163.824 0.00830078H215.977C216.651 0.307814 217.351 0.557058 217.994 0.913123C219.625 1.81585 220.375 3.38463 221.001 5.03299V57.9902C220.628 58.2478 220.635 58.6981 220.478 59.0605C219.611 61.0775 217.964 62.1394 215.977 62.8033H163.612ZM192.307 28.4557C192.307 27.3687 192.263 26.5309 192.319 25.6973C192.365 25.0438 192.148 24.8741 191.505 24.8846C189.168 24.9237 186.831 24.9237 184.492 24.8846C183.864 24.8846 183.671 25.0375 183.673 25.6931C183.696 33.574 183.696 41.4556 183.673 49.3378C183.673 50.0081 183.83 50.2385 184.536 50.2238C186.767 50.1798 189.002 50.1652 191.239 50.2238C192.112 50.2489 192.34 50.0018 192.332 49.1347C192.286 44.7069 192.29 40.2771 192.319 35.8472C192.334 33.2835 194.131 31.2142 196.454 30.9838C199.177 30.7115 200.869 31.964 201.428 34.7392C201.523 35.3235 201.561 35.9155 201.541 36.507C201.541 40.763 201.562 45.0169 201.531 49.2708C201.531 49.9871 201.698 50.2364 202.452 50.2196C204.755 50.1721 207.059 50.1721 209.364 50.2196C210.114 50.2343 210.292 49.9913 210.288 49.2729C210.257 44.8095 210.269 40.3462 210.275 35.8828C210.276 34.5601 210.142 33.2408 209.875 31.9452C208.422 24.8741 199.667 21.7596 194.206 26.355C193.538 26.9205 193.048 27.6389 192.307 28.4557ZM179.53 37.6904C179.53 33.7108 179.518 29.7313 179.545 25.7664C179.545 25.1108 179.413 24.8679 178.707 24.8825C176.403 24.9307 174.099 24.9433 171.795 24.8825C170.958 24.8574 170.844 25.1674 170.847 25.8963C170.872 33.671 170.872 41.4458 170.847 49.2206C170.847 49.9788 171.008 50.2531 171.823 50.2322C174.089 50.1756 176.357 50.1819 178.623 50.2322C179.359 50.2469 179.558 50.0395 179.549 49.3064C179.503 45.4295 179.53 41.561 179.53 37.6904ZM175.105 21.3533C175.383 21.3533 175.662 21.3721 175.942 21.3533C178.112 21.1878 179.736 19.6588 180.083 17.4638C180.207 16.5582 180.024 15.6372 179.563 14.8479C179.102 14.0586 178.39 13.4465 177.541 13.1094C176.702 12.7553 175.794 12.5995 174.886 12.654C173.977 12.7085 173.094 12.9718 172.304 13.4235C171.47 13.8816 170.84 14.638 170.541 15.5411C169.477 18.5153 171.701 21.3721 175.096 21.3596L175.105 21.3533Z" fill="#00679E"/>
<path d="M142.497 26.1392C142.497 21.835 142.524 17.7947 142.476 13.7545C142.465 12.8873 142.685 12.6339 143.561 12.6611C145.793 12.7281 148.028 12.7219 150.263 12.6611C151.063 12.6402 151.235 12.8831 151.231 13.656C151.206 22.9681 151.206 32.281 151.231 41.5945C151.231 44.1728 151.191 46.7553 151.44 49.3274C151.505 49.9766 151.403 50.2468 150.651 50.228C148.627 50.1714 146.602 50.1798 144.577 50.228C143.887 50.2426 143.686 50.0185 143.665 49.3525C143.634 48.3911 143.477 47.436 143.355 46.3113C142.645 47.0737 142.195 47.813 141.535 48.3785C137.007 52.2701 129.312 51.3674 125.469 46.4747C121.28 41.14 121.566 32.0373 126.097 26.9958C129.348 23.3703 135.158 22.1136 139.634 24.0636C140.726 24.5417 141.703 25.2497 142.497 26.1392ZM142.497 36.7059C142.497 36.0776 142.446 35.4492 142.507 34.8209C142.717 32.7117 141.183 30.4937 139.156 29.7941C138.048 29.4104 136.848 29.3807 135.722 29.709C134.596 30.0373 133.601 30.7075 132.873 31.6268C130.832 34.2931 130.778 39.3513 132.782 42.0657C134.133 43.9068 136.624 44.6755 138.961 43.9717C141.091 43.3329 142.386 41.6029 142.49 39.2068C142.518 38.3794 142.488 37.5416 142.488 36.7059H142.497Z" fill="white"/>
<path d="M96.0418 23.695C94.1881 25.7015 92.4979 27.5342 90.8055 29.3648C89.4085 30.8729 88.0324 32.4018 86.5956 33.8701C86.0908 34.3853 86.1516 34.7079 86.5474 35.2483C90.0075 39.9232 93.4488 44.612 96.8712 49.3149C97.0513 49.5599 97.3089 49.7631 97.3571 50.2113C94.5337 50.2113 91.7229 50.094 88.9289 50.2553C87.2805 50.3496 86.3945 49.8008 85.5881 48.3703C83.8581 45.3186 81.9081 42.3926 79.9937 39.3241C79.3005 40.1829 78.67 40.9872 78.0082 41.7663C77.7191 42.1056 77.7862 42.4847 77.7862 42.8576C77.7862 45.0212 77.7547 47.1827 77.7987 49.3505C77.8134 50.0375 77.6249 50.2365 76.9316 50.2218C74.5962 50.1799 72.2567 50.1883 69.9213 50.2218C69.3453 50.2218 69.1464 50.0961 69.1485 49.4803C69.1666 37.4496 69.1666 25.4195 69.1485 13.3901C69.1485 12.7618 69.3851 12.6654 69.9339 12.6717C72.2378 12.6989 74.5418 12.7262 76.8457 12.6717C77.6835 12.6466 77.7966 12.9293 77.7945 13.6687C77.7673 20.5009 77.7778 27.3353 77.7778 34.1696C78.1611 34.3099 78.1757 33.9601 78.293 33.7905C80.5614 30.6613 82.8297 27.53 85.0687 24.3778C85.2108 24.1477 85.4137 23.9613 85.6551 23.8393C85.8965 23.7173 86.1669 23.6645 86.4364 23.6866C89.5384 23.716 92.6424 23.695 96.0418 23.695Z" fill="white"/>
<path d="M47.9005 28.3447C47.9302 28.209 47.9781 28.078 48.043 27.9551C50.5689 24.3401 54.9674 23.6782 58.8171 24.7569C62.4719 25.779 65.0105 29.0275 65.377 33.204C65.8106 38.1428 65.4796 43.0963 65.5571 48.0434C65.5927 50.2092 65.5571 50.2112 63.3998 50.2112C61.5148 50.2112 59.6297 50.1756 57.7447 50.228C57.0074 50.249 56.8105 50.0353 56.8168 49.3001C56.8524 45.0483 56.8336 40.7944 56.8336 36.5405C56.8581 35.8091 56.7877 35.0776 56.6241 34.3643C56.0125 32.0289 54.5883 30.9 52.2843 30.9587C50.0893 31.0068 48.2042 32.5253 47.7853 34.6156C47.6813 35.1631 47.6315 35.7194 47.6366 36.2766C47.6241 40.5996 47.6094 44.9227 47.6492 49.2457C47.6492 50.0186 47.4816 50.2531 46.6774 50.2322C44.4132 50.1715 42.1428 50.1798 39.8765 50.2322C39.1393 50.2489 38.955 50.0227 38.957 49.3064C38.9968 42.0553 38.9989 34.8041 39.0073 27.553C39.0073 26.8555 39.0073 26.156 38.9654 25.4585C38.9361 24.9893 39.1141 24.87 39.5624 24.8741C42.0381 24.8909 44.5158 24.8951 46.9915 24.8741C47.49 24.8741 47.6618 25.0061 47.6408 25.5151C47.601 26.4031 47.6303 27.2933 47.6303 28.1814L47.9005 28.3447Z" fill="white"/>
<path d="M102.741 39.6046C102.951 41.7431 104.187 42.9809 105.99 43.7643C108.378 44.8115 110.887 44.69 113.396 44.4932C114.856 44.3932 116.301 44.1369 117.707 43.7287C118.278 43.5569 118.438 43.7475 118.534 44.2314C118.813 45.6277 119.102 47.024 119.399 48.4203C119.491 48.8392 119.422 49.1241 118.93 49.277C113.484 50.9735 107.997 51.5809 102.526 49.6226C97.4759 47.8192 94.9352 43.9926 94.4933 38.7165C94.2399 35.667 94.7279 32.7368 96.2422 30.0474C99.0467 25.0646 103.508 23.0581 109.037 23.1649C113.304 23.2487 116.837 24.8259 119.104 28.6316C120.321 30.6758 120.825 32.9357 120.989 35.2921C121.072 36.4482 120.901 37.5834 120.876 38.7291C120.859 39.4748 120.519 39.6214 119.828 39.6193C114.527 39.592 109.226 39.6046 103.925 39.6046H102.741ZM102.693 33.9181C105.969 33.9181 109.236 33.9181 112.502 33.9181C112.87 33.9181 112.95 33.7798 112.971 33.4342C113.097 31.3544 111.383 29.0923 109.335 28.6714C105.963 27.9844 103.064 30.2443 102.693 33.9181Z" fill="white"/>
<path d="M0.267321 31.4069C0.267321 25.5109 0.290361 19.6149 0.242188 13.721C0.242188 12.8141 0.503999 12.6402 1.34599 12.6737C3.54102 12.7345 5.74443 12.7387 7.93946 12.6737C8.7982 12.6486 8.96366 12.9293 8.96157 13.721C8.93853 22.9368 8.96157 32.14 8.92387 41.3474C8.92387 42.4428 9.22966 42.6502 10.2518 42.6355C14.579 42.5768 18.9062 42.6355 23.2376 42.5894C24.0754 42.5894 24.2849 42.8324 24.264 43.6367C24.2053 45.5531 24.2242 47.4738 24.264 49.3902C24.264 49.9997 24.1425 50.228 23.4618 50.228C15.9942 50.2029 8.52382 50.2029 1.05066 50.228C0.244282 50.228 0.256849 49.872 0.256849 49.296C0.269416 43.3309 0.269416 37.3664 0.256849 31.4027L0.267321 31.4069Z" fill="white"/>
<path d="M35.6537 37.6315C35.6537 41.5001 35.6348 45.3665 35.6704 49.2329C35.6704 49.9681 35.5657 50.2571 34.7279 50.2341C32.3946 50.165 30.0572 50.1922 27.7239 50.2236C27.127 50.2236 26.951 50.0498 26.9531 49.457C26.9699 41.5147 26.9699 33.5724 26.9531 25.6301C26.9531 25.0436 27.106 24.8593 27.7051 24.8677C30.0739 24.9012 32.4449 24.9075 34.8138 24.8677C35.4924 24.8551 35.6788 25.0352 35.6725 25.7222C35.639 29.6892 35.6537 33.6604 35.6537 37.6315Z" fill="white"/>
<path d="M31.4518 21.393C27.8513 21.393 25.6249 18.5843 26.6344 15.5955C27.0533 14.3597 27.9288 13.5638 29.108 13.0821C31.479 12.1081 34.2563 12.8726 35.4858 14.6257C37.1844 17.047 35.8439 20.8925 32.1765 21.3553C31.8832 21.3909 31.567 21.3888 31.4518 21.393Z" fill="white"/>
<path d="M192.308 28.4558C193.044 27.639 193.534 26.9206 194.193 26.3613C199.654 21.766 208.409 24.8805 209.862 31.9515C210.129 33.2472 210.263 34.5665 210.262 35.8892C210.262 40.3526 210.244 44.8159 210.275 49.2793C210.275 49.9977 210.101 50.2407 209.351 50.226C207.05 50.1785 204.746 50.1785 202.439 50.226C201.685 50.2428 201.512 49.9935 201.518 49.2772C201.549 45.0233 201.537 40.7694 201.528 36.5134C201.548 35.9218 201.51 35.3298 201.415 34.7456C200.856 31.9704 199.172 30.7179 196.441 30.9902C194.118 31.2206 192.321 33.2941 192.306 35.8536C192.277 40.2834 192.273 44.7133 192.319 49.1411C192.319 50.0082 192.109 50.2553 191.225 50.2302C188.995 50.1653 186.76 50.1799 184.523 50.2302C183.817 50.2449 183.658 50.0208 183.66 49.3442C183.681 41.462 183.681 33.5804 183.66 25.6995C183.66 25.0439 183.842 24.8805 184.479 24.891C186.817 24.9287 189.154 24.9287 191.491 24.891C192.134 24.891 192.352 25.0502 192.306 25.7037C192.271 26.531 192.308 27.3688 192.308 28.4558Z" fill="#FDFDFD"/>
<path d="M179.53 37.6904C179.53 41.561 179.511 45.44 179.546 49.3002C179.546 50.0333 179.356 50.2406 178.621 50.226C176.354 50.1778 174.086 50.1715 171.82 50.226C171.005 50.2469 170.842 49.9725 170.844 49.2143C170.869 41.4396 170.869 33.6648 170.844 25.89C170.844 25.1611 170.951 24.8428 171.793 24.8763C174.097 24.9412 176.4 24.9287 178.704 24.8763C179.419 24.8616 179.555 25.1046 179.542 25.7602C179.509 29.7502 179.53 33.7151 179.53 37.6904Z" fill="#FDFDFD"/>
<path d="M175.097 21.3595C171.702 21.3595 169.467 18.5152 170.541 15.5452C170.841 14.6421 171.471 13.8856 172.305 13.4276C173.095 12.9759 173.978 12.7126 174.886 12.6581C175.794 12.6036 176.703 12.7594 177.541 13.1134C178.391 13.4506 179.103 14.0627 179.564 14.852C180.024 15.6413 180.208 16.5623 180.084 17.4679C179.736 19.6629 178.113 21.1919 175.943 21.3574C175.654 21.372 175.375 21.3595 175.097 21.3595Z" fill="#FDFDFD"/>
</svg>
