<svg width="226" height="52" viewBox="0 0 226 52" fill="none" xmlns="http://www.w3.org/2000/svg">
<path d="M122.71 0.603343C125.476 0.603343 128.196 0.510735 130.894 0.635649C132.697 0.717488 133.797 1.97954 133.996 3.78002C134.056 4.31993 134.086 4.86278 134.086 5.40604C134.086 14.4759 134.086 23.5457 134.086 32.6156C134.086 33.5977 134.153 33.6666 135.139 33.6666C135.865 33.6666 136.591 33.6666 137.349 33.6666V40.6208C137.196 40.6337 137.037 40.6617 136.877 40.6617C134.702 40.6617 132.528 40.6617 130.356 40.6617C130.018 40.6652 129.681 40.6414 129.348 40.5907C127.84 40.3365 126.807 39.5504 126.501 37.877C126.311 38.0493 126.18 38.1635 126.057 38.2841C124.091 40.2439 121.687 41.1959 118.95 41.3143C115.048 41.4844 111.677 40.2719 109.056 37.302C107.092 35.0751 106.041 32.4067 105.599 29.5014C105.074 26.0964 105.233 22.7259 106.478 19.4846C108.156 15.1277 111.126 12.1191 115.801 11.1413C118.918 10.4952 121.954 10.7773 124.767 12.4206C125.181 12.6618 125.557 12.9633 126.036 13.295V11.2188C126.036 10.282 126.036 9.34512 126.036 8.40612C126.036 7.72555 125.902 7.59418 125.209 7.58772C124.386 7.58772 123.563 7.58772 122.71 7.58772V0.603343ZM126.186 26.245C126.247 24.7126 125.967 23.1857 125.368 21.774C124.358 19.5062 122.71 18.0912 120.13 18.0072C117.585 17.9254 115.674 19.069 114.589 21.3131C113.017 24.5673 113.062 27.9163 114.658 31.1619C115.676 33.2359 117.457 34.2998 119.779 34.3062C122.03 34.3062 123.787 33.3306 124.948 31.3858C125.915 29.7792 126.178 27.9917 126.186 26.245Z" fill="white"/>
<path d="M44.8711 18.5888V11.5656C45.0136 11.5406 45.1574 11.5241 45.3018 11.5161C47.4943 11.5161 49.6889 11.4816 51.8813 11.5398C52.5889 11.5725 53.2861 11.7224 53.9445 11.9834C54.9137 12.3496 55.394 13.1744 55.5964 14.234C55.6942 14.1673 55.7884 14.0954 55.8785 14.0187C58.463 11.4579 61.6353 10.5922 65.1501 10.9152C70.7045 11.4299 74.1956 14.6281 75.9185 19.7582C77.4412 24.3089 77.3873 28.9264 75.4878 33.3824C73.6851 37.6057 70.5472 40.3387 65.9341 41.1356C62.514 41.7236 59.333 41.1485 56.5785 38.885C56.4966 38.8182 56.404 38.7623 56.2361 38.6438V51.6391H48.2244V19.6118C48.2244 18.6254 48.1899 18.5909 47.2208 18.5888H44.8711ZM68.8071 25.5581C68.7867 24.2017 68.4769 22.8653 67.8982 21.6384C66.8709 19.4847 65.2513 18.1322 62.7854 18.0159C60.3582 17.8996 58.4026 18.8515 57.2892 21.0073C55.5447 24.3822 55.534 27.8819 57.3172 31.2459C59.5678 35.4951 65.1394 35.1118 67.4266 31.5367C68.4819 29.8977 68.8049 28.0822 68.8071 25.5581Z" fill="white"/>
<path d="M11.5199 38.6093V51.6347H3.55129V50.9283C3.55129 40.4859 3.55129 30.0441 3.55129 19.6031C3.55129 18.6361 3.50822 18.5952 2.53475 18.593H0.210938V11.5613C0.332509 11.5377 0.455561 11.5226 0.579216 11.516C2.79104 11.516 5.00502 11.516 7.21685 11.516C7.64722 11.5224 8.07556 11.5766 8.49398 11.6776C9.83357 12.0006 10.3784 12.5649 10.9621 14.165C11.0073 14.15 11.0698 14.1478 11.0999 14.1155C13.0662 12.0674 15.5171 11.0573 18.3061 10.885C22.2818 10.6266 25.7514 11.796 28.4607 14.8133C30.399 16.967 31.4586 19.5514 31.926 22.3706C32.5462 26.1201 32.374 29.818 30.8491 33.3435C29.0056 37.5755 25.8957 40.3365 21.2545 41.1334C17.8582 41.717 14.6901 41.1334 11.942 38.9065C11.8408 38.829 11.731 38.76 11.5199 38.6093ZM11.3971 26.118C11.3525 27.8287 11.7344 29.5236 12.5084 31.0499C14.8107 35.5101 20.4555 35.1246 22.7449 31.5452C24.6143 28.6313 24.6078 23.5508 22.6846 20.6778C20.1152 16.8399 14.6083 17.1371 12.4589 21.2334C11.6556 22.7625 11.4101 24.4187 11.3971 26.1201V26.118Z" fill="white"/>
<path d="M85.7224 27.869C85.9959 30.7657 88.3628 33.3609 91.2595 34.0156C94.3113 34.7048 97.0378 33.8605 99.5641 32.1785C100.152 31.7887 100.684 31.317 101.276 30.854C101.874 31.8476 102.47 32.8404 103.066 33.8325C103.538 34.6186 103.988 35.4198 104.483 36.1908C104.698 36.5289 104.666 36.7292 104.369 36.9941C102.288 38.8748 99.7568 40.1877 97.0206 40.8061C91.7096 42.0079 86.7626 41.2369 82.4854 37.6747C79.4444 35.142 77.8637 31.7801 77.4652 27.8798C77.0926 24.2185 77.6806 20.7296 79.5974 17.5572C82.0009 13.6074 85.5932 11.4903 90.1504 10.9519C92.6508 10.6547 95.1038 10.8787 97.4169 11.9016C101.399 13.6612 103.594 16.8551 104.524 21.0009C105.004 23.1266 104.94 25.2781 104.739 27.4318C104.694 27.9315 104.38 27.8626 104.067 27.8626H85.7224V27.869ZM96.6157 21.8538C96.2841 18.6771 93.7319 16.8551 90.6091 17.5012C88.2961 17.9772 86.375 19.8056 86.0412 21.8538H96.6157Z" fill="white"/>
<path d="M221.864 30.8194C223.031 32.7792 224.168 34.696 225.325 36.6343C224.364 37.6128 223.256 38.4341 222.04 39.0679C216.548 41.9711 210.96 42.2769 205.435 39.3027C201.128 36.9875 198.778 33.197 198.139 28.3857C197.596 24.2786 198.259 20.3762 200.626 16.898C203.049 13.3358 206.51 11.4513 210.749 10.9582C213.43 10.6459 216.036 10.9237 218.476 12.1211C222.15 13.9259 224.2 16.9949 225.105 20.9038C225.609 23.0855 225.536 25.2909 225.335 27.5027C225.301 27.8559 225.107 27.8731 224.844 27.8731C224.076 27.8731 223.307 27.8731 222.538 27.8731H206.293C206.445 29.0683 206.898 30.2051 207.611 31.1769C209.465 33.6924 212.043 34.5151 215.037 34.1769C217.513 33.8948 219.632 32.7749 221.498 31.136C221.588 31.0498 221.689 30.9658 221.864 30.8194ZM206.635 21.8536H217.21C216.899 18.8858 214.625 17.1155 211.718 17.4343C209.549 17.6733 207.283 19.14 206.635 21.8536Z" fill="white"/>
<path d="M169.262 18.5886V11.5159C169.882 11.5159 170.474 11.5052 171.069 11.5159C172.397 11.5439 173.731 11.5159 175.051 11.6322C176.645 11.7679 177.691 12.7091 178.251 14.1779C178.839 15.7156 179.375 17.2727 179.925 18.8234C181.201 22.4128 182.475 26.0109 183.745 29.6176C183.883 30.0009 183.991 30.3951 184.12 30.8086C184.182 30.759 184.247 30.7354 184.262 30.6944C185.569 26.932 186.866 23.1566 188.177 19.4027C188.77 17.7078 189.381 16.0193 189.993 14.3308C190.639 12.5691 191.931 11.6387 193.766 11.5504C195.41 11.4707 197.059 11.5332 198.75 11.5332V18.5886H197.798C196.936 18.5886 196.768 18.7006 196.467 19.4996C195.226 22.7919 193.987 26.0827 192.75 29.3721C191.391 32.9773 190.025 36.5826 188.684 40.1965C188.652 40.3477 188.563 40.481 188.436 40.5691C188.309 40.6572 188.154 40.6934 188.001 40.6703C185.378 40.653 182.755 40.6466 180.129 40.6703C179.632 40.6703 179.418 40.5195 179.248 40.0651C176.97 33.9659 174.68 27.8717 172.378 21.7825C172.081 20.9943 171.762 20.2146 171.493 19.4135C171.288 18.8104 170.92 18.5262 170.278 18.5757C169.96 18.6102 169.641 18.5886 169.262 18.5886Z" fill="white"/>
<path d="M147.244 40.6272H139.234V39.9811C139.234 33.2516 139.234 26.5228 139.234 19.7947C139.234 19.6634 139.234 19.532 139.234 19.4006C139.219 18.6791 139.129 18.5844 138.418 18.5822C137.595 18.5822 136.77 18.5822 135.902 18.5822V11.516H136.699C138.706 11.516 140.712 11.516 142.717 11.516C143.203 11.5151 143.689 11.5576 144.168 11.6431C145.762 11.9424 146.753 13.0085 146.946 14.6108C147 15.0416 147.028 15.4917 147.076 16.0323C149.499 12.4636 152.654 10.6007 157.043 11.2942V19.2692C156.332 19.2283 155.647 19.1572 154.962 19.1551C151.394 19.14 148.458 21.4466 147.75 24.9549C147.45 26.4961 147.287 28.0607 147.263 29.6306C147.192 33.0592 147.241 36.49 147.241 39.9187L147.244 40.6272Z" fill="white"/>
<path d="M46.364 33.6665V40.5777C46.3037 40.61 46.2736 40.6423 46.2412 40.6423C43.6568 40.6423 41.0724 40.6961 38.488 40.6186C36.4097 40.5561 35.2058 39.2252 35.055 37.0478C35.0314 36.6924 35.0357 36.3371 35.0357 35.971V19.603C35.0357 18.6403 34.9689 18.5757 34.0277 18.5736H31.6953V11.516H32.2273C34.4197 11.516 36.6143 11.516 38.8068 11.516C39.3136 11.5133 39.8192 11.5668 40.3143 11.6753C42.0265 12.0802 42.972 13.3832 43.0107 15.4012C43.0409 17.1069 43.0215 18.8126 43.0215 20.5183C43.0215 24.5672 43.0215 28.6154 43.0215 32.6629C43.0215 33.5481 43.1356 33.6601 44.0273 33.6601L46.364 33.6665Z" fill="white"/>
<path d="M157.89 11.6195C160.474 11.6195 162.994 11.514 165.51 11.6583C167.172 11.753 168.18 12.9505 168.409 14.611C168.478 15.1307 168.514 15.6545 168.514 16.1788C168.514 21.6492 168.514 27.1202 168.514 32.592C168.514 33.5999 168.583 33.6688 169.606 33.6688H171.865V40.6145C171.723 40.6403 171.579 40.6576 171.435 40.6661C169.13 40.6661 166.826 40.6661 164.521 40.6661C164.203 40.6691 163.885 40.6439 163.571 40.5908C161.7 40.2505 160.694 39.1241 160.556 37.2224C160.526 36.7917 160.518 36.3609 160.518 35.9302C160.518 30.513 160.518 25.0979 160.518 19.685C160.518 18.6534 160.466 18.6082 159.441 18.6082H157.875L157.89 11.6195Z" fill="white"/>
<path d="M167.922 8.0701H160.875V0.532227H167.92L167.922 8.0701Z" fill="white"/>
<path d="M35.3828 8.04859V0.551636H42.4232V8.04859H35.3828Z" fill="white"/>
</svg>
