<svg width="149" height="300" fill="none" xmlns="http://www.w3.org/2000/svg"><g opacity=".05" fill="#fff"><path d="M32.041 78.82H6.617v10.169h25.424c8.415-.025 15.23-6.84 15.255-15.255V42.29a15.254 15.254 0 00-5.085-29.637 15.255 15.255 0 00-5.085 29.637v31.445a5.085 5.085 0 01-5.084 5.085zM6.617 109.326h50.85a5.085 5.085 0 100-10.17H6.616v10.17zm0 111.867h25.424a5.085 5.085 0 015.086 5.085v31.445a15.254 15.254 0 00-9.95 16.962 15.254 15.254 0 0015.035 12.675 15.255 15.255 0 005.085-29.637v-31.445c-.025-8.415-6.84-15.229-15.255-15.255H6.618v10.17zm76.273-50.845H6.618v10.169h76.274a5.085 5.085 0 015.085 5.085v26.361a15.255 15.255 0 1010.17 0v-26.361c-.026-8.414-6.84-15.229-15.255-15.254zm50.85-35.598a15.253 15.253 0 00-14.319 10.17H6.617v10.169h112.804c2.598 7.295 10.257 11.478 17.799 9.723 7.542-1.756 12.566-8.892 11.675-16.584-.89-7.692-7.412-13.492-15.155-13.478z"/><path d="M62.551 195.773a5.085 5.085 0 00-5.085-5.085H6.617v10.169h50.85a5.084 5.084 0 005.084-5.084zm35.595-81.362v-26.36a15.254 15.254 0 00-5.085-29.637 15.255 15.255 0 00-5.085 29.637v26.36a5.085 5.085 0 01-5.085 5.085H6.617v10.17h76.274c8.415-.026 15.23-6.84 15.255-15.255z"/></g></svg>