<svg width="238" height="45" fill="none" xmlns="http://www.w3.org/2000/svg"><path d="M39.391 10.273L38.06 8.942 24.17 22.817 8.521 7.184 7.19 8.514l15.648 15.634L7.189 39.784l1.332 1.331L24.17 25.48l12.459 12.447 1.332-1.333L25.5 24.148l13.89-13.875z" fill="url(#paint0_linear_71_2775)"/><path d="M54.942 20.672a.863.863 0 01.382.067c.1.053.19.121.269.202l4.44 4.065 4.55-4.065a.806.806 0 01.248-.202.875.875 0 01.385-.067h2.545c.21 0 .334.07.372.212a.398.398 0 01-.124.396l-6.017 5.514 6.189 5.646a.42.42 0 01.113.381c-.032.135-.15.202-.36.202h-2.856a.94.94 0 01-.395-.067.909.909 0 01-.27-.18l-4.776-4.366-4.91 4.366a.94.94 0 01-.248.18.86.86 0 01-.382.067H51.55c-.21 0-.333-.067-.371-.202a.373.373 0 01.124-.381l6.364-5.82-5.813-5.34a.416.416 0 01-.134-.396c.03-.142.148-.212.36-.212h2.86zm17.863-4.568a.44.44 0 01.495.495v2.15c0 .344-.167.517-.495.517h-2.21a.458.458 0 01-.516-.517V16.6c0-.331.172-.495.516-.495h2.21zm0 4.57c.328 0 .495.172.495.517v11.342a.439.439 0 01-.495.495h-2.21a.437.437 0 01-.495-.495V21.188c0-.344.164-.516.495-.516l2.21.002zm7.567-.002c.28-.004.56.022.834.078.215.049.419.14.598.27.186.142.346.316.47.515.143.218.305.5.485.845l3.74 7.404a.347.347 0 00.315.201h.374a.318.318 0 00.315-.201l3.721-7.402c.18-.344.342-.626.485-.844a1.96 1.96 0 01.47-.516c.18-.13.383-.22.598-.27a3.96 3.96 0 01.834-.077h2.252a3.18 3.18 0 01.97.124c.238.071.45.213.607.406.164.214.272.465.315.73.066.364.097.734.092 1.103v9.496a.438.438 0 01-.498.495h-2.223a.436.436 0 01-.495-.495v-8.958c0-.15-.062-.226-.18-.226h-.205a.412.412 0 00-.19.032.32.32 0 00-.103.148l-3.692 7.291c-.21.406-.403.748-.576 1.025a3.116 3.116 0 01-.562.685c-.2.18-.438.31-.697.382-.306.08-.62.119-.936.113h-.99a3.435 3.435 0 01-.937-.113 1.74 1.74 0 01-.697-.382 3.397 3.397 0 01-.576-.685 9.93 9.93 0 01-.562-1.025l-3.695-7.29a.301.301 0 00-.11-.138.412.412 0 00-.191-.032h-.205c-.118 0-.18.075-.18.226v8.947a.434.434 0 01-.495.495h-2.207c-.347 0-.52-.164-.52-.495v-9.498a5.55 5.55 0 01.092-1.103 1.65 1.65 0 01.315-.731c.158-.193.37-.334.608-.406a3.27 3.27 0 01.99-.124h2.242zm26.557 3.398a.358.358 0 01.406.404v1.613a.364.364 0 01-.102.303.363.363 0 01-.304.103h-6.781a.359.359 0 01-.404-.406v-1.619a.357.357 0 01.404-.403l6.781.005zm16.939-3.398c.764 0 1.302.153 1.614.46.313.306.47.79.474 1.451v9.948c0 .33-.172.495-.517.495h-2.193a.432.432 0 01-.372-.123.43.43 0 01-.105-.172.427.427 0 01-.018-.2v-8.528a.415.415 0 00-.473-.473h-9.335a.42.42 0 00-.347.123.425.425 0 00-.113.35v8.53a.431.431 0 01-.495.495h-2.207c-.347 0-.519-.164-.519-.495v-9.947c0-.658.158-1.142.473-1.452.316-.31.854-.463 1.615-.46l12.518-.002zm14.91 0a10.71 10.71 0 012.545.269 3.862 3.862 0 011.655.806c.423.382.731.874.891 1.42.193.676.284 1.378.269 2.08v5.988c.005.298-.021.595-.078.887-.04.2-.133.386-.269.538a.99.99 0 01-.506.282 3.38 3.38 0 01-.807.078h-10.729a6.034 6.034 0 01-1.655-.19c-.4-.1-.77-.297-1.076-.573a2.094 2.094 0 01-.576-.992 5.407 5.407 0 01-.17-1.439v-1.075a4.264 4.264 0 01.17-1.25c.106-.356.305-.678.576-.933a2.553 2.553 0 011.076-.575 6.136 6.136 0 011.655-.18h9.168v-.439a3.298 3.298 0 00-.113-.922 1.266 1.266 0 00-.382-.618 1.713 1.713 0 00-.743-.35 5.39 5.39 0 00-1.216-.113h-9.418a.36.36 0 01-.407-.403v-1.882a.364.364 0 01.103-.303.352.352 0 01.304-.1l9.733-.011zm1.485 9.88a.648.648 0 00.509-.17.937.937 0 00.145-.596v-1.981h-8.253a1.37 1.37 0 00-.982.268 1.116 1.116 0 00-.269.82v.474c-.031.32.066.64.269.89.28.212.632.308.982.268l7.599.027zm17.887-9.88c.855-.013 1.709.077 2.543.268a3.875 3.875 0 011.657.807c.421.383.728.874.888 1.42a7.03 7.03 0 01.269 2.08v3.227a7.021 7.021 0 01-.269 2.083 3.086 3.086 0 01-.888 1.417 3.745 3.745 0 01-1.657.807c-.836.18-1.689.263-2.543.247h-8.447v4.479a.443.443 0 01-.495.495h-2.209c-.345 0-.517-.164-.517-.495V25.239a7.036 7.036 0 01.269-2.08c.16-.547.468-1.038.891-1.42a3.85 3.85 0 011.644-.807 10.662 10.662 0 012.556-.268l6.308.008zm-8.447 9.654h8.129a5.37 5.37 0 001.217-.113c.286-.058.549-.2.756-.406a1.62 1.62 0 00.393-.763 5.26 5.26 0 00.113-1.194v-2.003a5.318 5.318 0 00-.113-1.18 1.557 1.557 0 00-.393-.767 1.615 1.615 0 00-.756-.405 5.012 5.012 0 00-1.217-.124h-5.675a4.922 4.922 0 00-1.195.123 1.614 1.614 0 00-.753.406 1.552 1.552 0 00-.396.767 5.258 5.258 0 00-.11 1.18v4.479zm19.167-9.654c.331 0 .495.172.495.516v8.657c0 .15.06.223.181.223h.201a.311.311 0 00.294-.156L176.795 22c.166-.214.346-.416.538-.608a2.54 2.54 0 01.554-.406c.216-.112.447-.192.687-.236a5.18 5.18 0 01.979-.078h1.278c.689 0 1.2.165 1.531.494.331.331.496.952.496 1.883v9.484c0 .331-.173.495-.517.495h-2.209a.437.437 0 01-.495-.495v-8.667c0-.148-.06-.223-.181-.223h-.202a.387.387 0 00-.293.156l-6.781 7.898c-.21.242-.398.45-.562.621a2.123 2.123 0 01-1.214.64c-.32.05-.644.073-.969.068h-1.216c-.692 0-1.206-.162-1.542-.485-.335-.322-.505-.94-.508-1.854v-9.499a.451.451 0 01.13-.388.456.456 0 01.389-.128h2.182zm32.818 0a.36.36 0 01.391.24.35.35 0 01.015.163v1.882a.35.35 0 01-.102.303.352.352 0 01-.304.1h-6.644v9.173a.443.443 0 01-.495.495h-2.209c-.345 0-.517-.164-.517-.495v-9.162h-6.646a.357.357 0 01-.404-.403v-1.882a.36.36 0 01.101-.302.357.357 0 01.303-.101l16.511-.011zm13.586 0c.64-.013 1.28.05 1.905.19.447.098.859.316 1.192.63.308.319.523.716.622 1.148.129.565.19 1.143.18 1.723v2.15c0 .48-.108.807-.317 1.001-.28.205-.624.3-.969.269h-11.38v.538c0 .704.169 1.214.509 1.53.339.315.995.473 1.969.473h9.394a.357.357 0 01.404.403v1.882a.353.353 0 01-.102.302.352.352 0 01-.302.101h-9.709a11.017 11.017 0 01-2.556-.247 3.72 3.72 0 01-1.644-.807 3.067 3.067 0 01-.891-1.417 7.054 7.054 0 01-.269-2.083v-3.226a7.036 7.036 0 01.269-2.081c.16-.547.468-1.038.891-1.42a3.85 3.85 0 011.644-.807 10.667 10.667 0 012.556-.268l6.604.016zm-8.762 5.108h9.123a.338.338 0 00.384-.382v-.946a1.37 1.37 0 00-.293-.99c-.196-.196-.557-.293-1.076-.293h-5.651c-.978 0-1.635.154-1.97.463-.335.308-.505.822-.509 1.54l-.008.608zm31.081-5.109a.357.357 0 01.404.404v1.882a.36.36 0 01-.404.403h-6.647v9.173a.426.426 0 01-.122.372.44.44 0 01-.373.123h-2.206c-.347 0-.52-.164-.52-.495v-9.162h-6.643a.358.358 0 01-.407-.404v-1.882a.364.364 0 01.103-.303.353.353 0 01.304-.1l16.511-.01z" fill="#122A4C"/><path d="M32.455 9.606a6.262 6.262 0 003.873 5.79 6.278 6.278 0 006.836-1.36 6.265 6.265 0 00-4.44-10.697 6.28 6.28 0 00-4.431 1.838 6.269 6.269 0 00-1.838 4.429z" fill="url(#paint1_linear_71_2775)"/><path d="M15.71 7.848a7.843 7.843 0 00-4.85-7.25 7.861 7.861 0 00-8.56 1.7 7.846 7.846 0 005.555 13.397 7.866 7.866 0 005.551-2.3 7.852 7.852 0 002.303-5.547z" fill="url(#paint2_linear_71_2775)"/><path d="M12.41 40.448a4.549 4.549 0 00-2.812-4.205 4.56 4.56 0 00-4.965.987A4.55 4.55 0 007.855 45a4.563 4.563 0 004.555-4.552z" fill="url(#paint3_linear_71_2775)"/><path d="M33.055 37.26a4.233 4.233 0 002.616 3.912 4.241 4.241 0 005.779-3.086 4.231 4.231 0 00-1.803-4.347 4.24 4.24 0 00-6.592 3.52z" fill="url(#paint4_linear_71_2775)"/><path d="M24.17 29.143a5.003 5.003 0 01-4.62-3.084 4.992 4.992 0 013.644-6.81 5.004 5.004 0 015.133 2.123 4.992 4.992 0 01-2.244 7.391 5.002 5.002 0 01-1.913.38z" fill="url(#paint5_linear_71_2775)"/><defs><linearGradient id="paint0_linear_71_2775" x1="7.189" y1="24.148" x2="39.391" y2="24.148" gradientUnits="userSpaceOnUse"><stop offset=".21" stop-color="#304CBC"/><stop offset=".3" stop-color="#365ED0"/><stop offset=".41" stop-color="#3C6FE3"/><stop offset=".54" stop-color="#417CF1"/><stop offset=".7" stop-color="#4383F9"/><stop offset="1" stop-color="#4485FB"/></linearGradient><linearGradient id="paint1_linear_71_2775" x1="17.332" y1="-18.753" x2="61.375" y2="39.733" gradientUnits="userSpaceOnUse"><stop offset=".21" stop-color="#304CBC"/><stop offset=".3" stop-color="#365ED0"/><stop offset=".41" stop-color="#3C6FE3"/><stop offset=".54" stop-color="#417CF1"/><stop offset=".7" stop-color="#4383F9"/><stop offset="1" stop-color="#4485FB"/></linearGradient><linearGradient id="paint2_linear_71_2775" x1="-1.51" y1="-4.565" x2="42.533" y2="53.921" gradientUnits="userSpaceOnUse"><stop stop-color="#31DDA4"/><stop offset=".4" stop-color="#30DBA3"/><stop offset=".61" stop-color="#2CD3A0"/><stop offset=".78" stop-color="#26C59B"/><stop offset=".93" stop-color="#1DB293"/><stop offset="1" stop-color="#17A58E"/></linearGradient><linearGradient id="paint3_linear_71_2775" x1="-17.192" y1="7.245" x2="26.848" y2="65.731" gradientUnits="userSpaceOnUse"><stop offset=".21" stop-color="#304CBC"/><stop offset=".3" stop-color="#365ED0"/><stop offset=".41" stop-color="#3C6FE3"/><stop offset=".54" stop-color="#417CF1"/><stop offset=".7" stop-color="#4383F9"/><stop offset="1" stop-color="#4485FB"/></linearGradient><linearGradient id="paint4_linear_71_2775" x1="3.116" y1="-8.047" x2="47.156" y2="50.439" gradientUnits="userSpaceOnUse"><stop offset=".21" stop-color="#304CBC"/><stop offset=".3" stop-color="#365ED0"/><stop offset=".41" stop-color="#3C6FE3"/><stop offset=".54" stop-color="#417CF1"/><stop offset=".7" stop-color="#4383F9"/><stop offset="1" stop-color="#4485FB"/></linearGradient><linearGradient id="paint5_linear_71_2775" x1="1.055" y1="-6.496" x2="45.095" y2="51.992" gradientUnits="userSpaceOnUse"><stop offset=".21" stop-color="#304CBC"/><stop offset=".3" stop-color="#365ED0"/><stop offset=".41" stop-color="#3C6FE3"/><stop offset=".54" stop-color="#417CF1"/><stop offset=".7" stop-color="#4383F9"/><stop offset="1" stop-color="#4485FB"/></linearGradient></defs></svg>