<svg width="75" height="21" viewBox="0 0 75 21" fill="none" xmlns="http://www.w3.org/2000/svg">
<path d="M74.437 6.43031C74.6746 5.63671 74.2239 4.8007 73.4303 4.56305L60.4977 0.690234C59.7041 0.452579 58.8681 0.903266 58.6305 1.69687C58.3928 2.49048 58.8435 3.32648 59.6371 3.56414L71.1327 7.00664L67.6902 18.5023C67.4526 19.2959 67.9033 20.1319 68.6969 20.3695C69.4905 20.6072 70.3265 20.1565 70.5641 19.3629L74.437 6.43031ZM0.173171 7.25154C13.1264 15.8091 23.8035 20.0914 35.2078 20.0224C46.568 19.9537 58.4177 15.5654 73.7118 7.32036L72.2882 4.67964C57.1038 12.8655 45.791 16.9583 35.1896 17.0224C24.6323 17.0863 14.5486 13.1531 1.82683 4.74846L0.173171 7.25154Z" fill="#E2E7F8"/>
</svg>
