<svg width="513" height="582" viewBox="0 0 513 582" fill="none" xmlns="http://www.w3.org/2000/svg">
<path d="M457.152 256.483L433.205 216.506C433.126 216.368 432.992 216.286 432.897 216.164C432.798 216.038 432.746 215.881 432.631 215.768C432.582 215.717 432.512 215.702 432.474 215.662C432.385 215.576 432.316 215.504 432.219 215.432C432.062 215.311 431.872 215.241 431.696 215.149C431.504 215.041 431.307 214.928 431.104 214.854C431.033 214.836 430.992 214.786 430.93 214.773L384.215 201.539L351.186 168.067L338.771 121.891C338.753 121.82 338.698 121.774 338.681 121.71C338.615 121.499 338.501 121.317 338.398 121.116C338.31 120.942 338.241 120.767 338.127 120.611C338.059 120.515 337.976 120.439 337.904 120.356C337.854 120.297 337.844 120.231 337.785 120.183C337.669 120.066 337.523 120.019 337.394 119.928C337.275 119.831 337.2 119.692 337.059 119.616L297.273 95.3539C297.199 95.3095 297.128 95.3063 297.058 95.2762C296.949 95.2185 296.869 95.1527 296.756 95.1077C296.581 95.0341 296.394 95.021 296.205 94.9702C295.995 94.9138 295.793 94.8437 295.575 94.8198C295.46 94.8135 295.36 94.7878 295.247 94.7886C295.063 94.7861 294.889 94.8381 294.707 94.8616C294.484 94.8891 294.256 94.8987 294.037 94.9592C293.928 94.9931 293.828 95.0132 293.713 95.0526C293.557 95.1112 293.411 95.2278 293.252 95.3098C293.028 95.4253 292.818 95.5331 292.623 95.6862C292.551 95.7404 292.477 95.7535 292.409 95.8103L267.934 117.374L231.887 107.284L190.406 66.8449C190.334 66.7807 190.251 66.7617 190.177 66.702C189.977 66.5323 189.753 66.4072 189.52 66.2806C189.376 66.206 189.257 66.0786 189.104 66.0178C189.005 65.9804 188.912 65.9833 188.82 65.9592C188.599 65.8905 188.367 65.8707 188.128 65.8376C187.949 65.8108 187.762 65.7402 187.575 65.7423C187.491 65.735 187.402 65.7826 187.294 65.7895C187.203 65.7994 187.123 65.7606 187.029 65.7752L154.599 70.6862C154.461 70.7093 154.345 70.7909 154.214 70.8272C153.91 70.9074 153.63 71.0003 153.343 71.1446C153.126 71.258 152.931 71.3958 152.738 71.5408C152.603 71.6509 152.439 71.6963 152.31 71.8195L97.0571 125.128L97.0462 125.131C96.7882 125.191 96.5311 125.24 96.2851 125.346C96.031 125.466 95.8117 125.63 95.5869 125.802C95.4222 125.921 95.2317 125.985 95.0798 126.122L35.5509 183.419C35.4791 183.489 35.4575 183.571 35.3902 183.643C35.2911 183.759 35.192 183.858 35.1058 183.978C35.0023 184.121 34.9253 184.276 34.8446 184.432C34.7412 184.621 34.6424 184.812 34.5692 185.012C34.5403 185.096 34.4767 185.152 34.4569 185.241C34.4389 185.307 34.4537 185.364 34.4374 185.422C34.4249 185.479 34.3858 185.524 34.3659 185.583L28.2917 216.976C28.2738 217.072 28.3051 217.163 28.3 217.264C28.2608 217.549 28.2782 217.812 28.3055 218.083C28.3274 218.332 28.3455 218.568 28.4157 218.808C28.4876 219.04 28.597 219.25 28.7054 219.472C28.8367 219.722 28.9616 219.947 29.1448 220.156C29.2089 220.238 29.2256 220.332 29.2989 220.404L69.8587 262.323L78.6628 297.783L55.8705 321.075C55.7996 321.148 55.7799 321.238 55.7126 321.31C55.5327 321.52 55.4002 321.748 55.2679 321.99C55.1464 322.215 55.0212 322.425 54.939 322.665C54.8568 322.906 54.8349 323.152 54.7965 323.411C54.76 323.661 54.7298 323.907 54.7444 324.158C54.7653 324.404 54.83 324.638 54.8938 324.884C54.9613 325.144 55.0296 325.392 55.1618 325.631C55.2004 325.719 55.1971 325.812 55.253 325.892L79.1483 365.67C79.3777 366.057 79.6699 366.384 79.9947 366.657C80.0084 366.665 80.0203 366.665 80.0203 366.665C80.3982 366.977 80.8241 367.187 81.2771 367.337C81.3237 367.351 81.3576 367.391 81.4078 367.404L127.986 380.892L161.019 414.382L173.589 460.312C173.641 460.512 173.779 460.653 173.854 460.835C173.964 461.094 174.064 461.345 174.227 461.564C174.407 461.808 174.637 461.985 174.867 462.18C175.012 462.301 175.096 462.457 175.263 462.559L214.947 487.273C215.176 487.416 215.44 487.442 215.683 487.535C215.87 487.606 216.036 487.69 216.226 487.729C216.871 487.867 217.539 487.896 218.174 487.72L218.185 487.717C218.728 487.567 219.229 487.268 219.681 486.903C219.725 486.863 219.786 486.858 219.838 486.817L244.466 465.009L280.25 474.957L321.873 515.976C321.931 516.033 322.014 516.036 322.069 516.082C322.921 516.835 324.069 517.254 325.308 517.056L357.685 511.946C357.787 511.929 357.886 511.906 357.992 511.877C358.003 511.874 358.016 511.881 358.031 511.877L358.148 511.845L358.151 511.844C358.658 511.704 359.115 511.463 359.522 511.163C359.619 511.086 359.685 510.992 359.778 510.913C359.831 510.864 359.896 510.857 359.947 510.813L415.151 457.299C415.274 457.277 415.417 457.314 415.537 457.28L415.548 457.277C416.179 457.103 416.745 456.755 417.231 456.308C417.262 456.277 417.312 456.274 417.339 456.244L417.43 456.157L476.616 398.802C476.635 398.785 476.64 398.761 476.656 398.748C476.99 398.408 477.263 398.016 477.464 397.582C477.521 397.456 477.546 397.342 477.591 397.215C477.66 397.028 477.749 396.847 477.792 396.652L483.918 365.455C483.935 365.358 483.908 365.267 483.917 365.165C483.929 365.047 483.976 364.943 483.98 364.823C483.99 364.652 483.93 364.494 483.911 364.316C483.887 364.074 483.867 363.847 483.805 363.623C483.775 363.521 483.779 363.417 483.741 363.317C483.688 363.171 483.567 363.052 483.496 362.915C483.373 362.682 483.255 362.466 483.083 362.27C483.019 362.188 483.001 362.09 482.928 362.019L442.508 319.843L433.704 284.383L456.537 261.294C456.608 261.221 456.628 261.131 456.688 261.061C456.867 260.863 456.991 260.649 457.121 260.426C457.2 260.278 457.324 260.152 457.39 260.001C457.43 259.902 457.439 259.8 457.464 259.701C457.536 259.479 457.571 259.256 457.608 259.02C457.64 258.843 457.701 258.67 457.704 258.501C457.71 258.389 457.676 258.303 457.668 258.198C457.653 257.973 457.593 257.761 457.54 257.539C457.494 257.361 457.498 257.18 457.425 257.006C457.386 256.902 457.303 256.822 457.248 256.715C457.2 256.652 457.208 256.562 457.152 256.482L457.152 256.483ZM411.371 448.597L368.404 438.06C368.26 438.016 368.107 438.058 367.962 438.041C367.683 438.008 367.42 437.989 367.138 438.013C366.884 438.03 366.646 438.077 366.397 438.142C366.142 438.213 365.897 438.292 365.654 438.409C365.411 438.526 365.193 438.666 364.978 438.832C364.851 438.929 364.694 438.972 364.578 439.081L343.802 458.509C343.677 458.628 343.62 458.785 343.517 458.916C343.321 459.138 343.151 459.357 343.011 459.614C342.897 459.836 342.818 460.06 342.751 460.3C342.675 460.546 342.603 460.784 342.572 461.04C342.542 461.316 342.569 461.572 342.594 461.832C342.602 461.998 342.567 462.164 342.605 462.325L352.236 504.779L326.243 508.882L285.321 468.559C285.27 468.512 285.204 468.499 285.166 468.46C284.967 468.279 284.73 468.165 284.495 468.028C284.257 467.891 284.043 467.748 283.791 467.665C283.723 467.642 283.683 467.596 283.625 467.581L244.707 456.759C244.554 456.714 244.395 456.746 244.244 456.723C243.979 456.682 243.722 456.654 243.451 456.664C243.18 456.674 242.923 456.722 242.665 456.782C242.425 456.837 242.204 456.906 241.977 457.007C241.699 457.126 241.464 457.275 241.226 457.443C241.108 457.53 240.961 457.566 240.853 457.661L216.838 478.921L181.007 456.6L168.574 411.151C168.558 411.09 168.508 411.047 168.488 410.984C168.413 410.741 168.268 410.529 168.148 410.307C168.007 410.067 167.89 409.824 167.71 409.63C167.663 409.582 167.648 409.525 167.605 409.48L133.151 374.551C133.102 374.499 133.039 374.482 132.995 374.445C132.794 374.26 132.562 374.134 132.318 373.991C132.093 373.862 131.888 373.721 131.643 373.636C131.571 373.614 131.521 373.555 131.454 373.539L85.3732 360.191L63.8094 324.307L86.0201 301.618C86.1337 301.499 86.1807 301.349 86.277 301.223C86.4514 301.007 86.603 300.793 86.7217 300.542C86.8331 300.309 86.9208 300.075 86.9856 299.828C87.0514 299.585 87.1025 299.345 87.1272 299.094C87.15 298.821 87.13 298.563 87.0916 298.295C87.0775 298.15 87.1162 297.998 87.0773 297.848L77.4923 259.245C77.4738 259.174 77.4225 259.127 77.4004 259.057C77.3229 258.803 77.1871 258.581 77.065 258.352C76.931 258.122 76.8152 257.886 76.6375 257.684C76.5871 257.625 76.5778 257.559 76.5256 257.509L36.6387 216.285L41.4971 191.168L84.5579 202.02C84.5625 202.022 84.5615 202.018 84.5697 202.02L84.5843 202.016C85.1605 202.158 85.757 202.108 86.3359 201.989C86.4444 201.971 86.5504 202.018 86.6562 201.989C87.3088 201.808 87.9216 201.474 88.4427 200.968L88.4454 200.963C88.4554 200.956 88.4554 200.956 88.4591 200.955L109.115 181.144C110.232 180.075 110.558 178.546 110.182 177.188C110.166 177.109 110.196 177.043 110.179 176.964L100.71 135.134L126.746 131.198L167.806 171.254C167.806 171.254 167.809 171.264 167.813 171.267L167.818 171.269L167.834 171.288C167.879 171.325 167.934 171.325 167.971 171.361C168.415 171.764 168.924 172.097 169.546 172.265L208.399 182.883L208.403 182.882L208.407 182.884C208.433 182.893 208.451 182.887 208.476 182.892C208.514 182.904 208.544 182.9 208.581 182.905C208.659 182.922 208.727 182.926 208.807 182.934C209.036 182.974 209.261 183.026 209.5 183.029C209.87 183.025 210.232 182.975 210.586 182.877C211.177 182.714 211.738 182.421 212.229 181.995L236.167 161.127L272.088 183.042L284.322 228.52C284.339 228.588 284.388 228.628 284.41 228.694C284.428 228.765 284.418 228.833 284.448 228.901C284.518 229.08 284.66 229.22 284.753 229.385C284.893 229.622 285.009 229.857 285.188 230.051C285.237 230.103 285.245 230.165 285.296 230.212L285.303 230.222L285.304 230.226L285.308 230.228L319.746 265.139L319.747 265.143C319.747 265.143 319.747 265.146 319.753 265.152C319.79 265.192 319.849 265.191 319.89 265.229C320.328 265.635 320.831 265.976 321.439 266.152L367.52 279.5L389.081 315.373L367.027 337.808C366.914 337.927 366.867 338.078 366.771 338.207C366.613 338.411 366.461 338.606 366.344 338.833C366.291 338.932 366.221 339.008 366.18 339.107C366.108 339.265 366.109 339.433 366.061 339.595C365.994 339.819 365.942 340.04 365.914 340.28C365.905 340.394 365.864 340.493 365.87 340.606C365.862 340.787 365.926 340.957 365.954 341.14C365.968 341.285 365.929 341.437 365.968 341.586L375.605 380.389C375.624 380.46 375.675 380.507 375.695 380.57C375.717 380.656 375.716 380.74 375.749 380.823C375.812 381.004 375.95 381.145 376.047 381.309C376.171 381.53 376.279 381.752 376.442 381.944C376.493 382.002 376.509 382.067 376.554 382.119L416.249 423.4L411.371 448.597Z" fill="#181816"/>
<path d="M352.281 335.421L335.802 301.48C335.751 301.372 335.645 301.31 335.591 301.207C335.53 301.109 335.524 300.996 335.456 300.9L311.979 268.682C311.918 268.599 311.832 268.57 311.765 268.493C311.703 268.418 311.683 268.324 311.614 268.256L282.418 238.475C282.343 238.396 282.239 238.371 282.154 238.3C282.071 238.223 282.031 238.127 281.938 238.057L249.487 214.306C249.393 214.233 249.285 214.224 249.188 214.164C249.086 214.104 249.03 214.009 248.927 213.957L214.717 196.899C214.587 196.836 214.46 196.844 214.34 196.801C214.221 196.75 214.137 196.666 214.015 196.635L180.954 187.39C180.777 187.34 180.61 187.375 180.437 187.354C180.236 187.321 180.067 187.242 179.863 187.238L157.593 187.215L150.23 186.945C149.683 186.917 149.125 186.983 148.574 187.196L123.962 196.148C123.962 196.148 123.952 196.154 123.941 196.157C123.632 196.277 123.358 196.487 123.069 196.685C122.904 196.803 122.703 196.87 122.557 197.002C122.547 197.009 122.536 197.012 122.527 197.022L104.892 213.447C104.865 213.477 104.857 213.51 104.829 213.537C104.631 213.721 104.504 213.97 104.352 214.199C104.202 214.42 104.024 214.623 103.926 214.863C103.909 214.903 103.878 214.919 103.864 214.957L94.4913 238.724C94.398 238.952 94.4153 239.184 94.3631 239.42C94.3164 239.647 94.2148 239.843 94.2029 240.083L93.4366 269.165C93.4326 269.346 93.5108 269.496 93.5296 269.674C93.5494 269.856 93.5025 270.022 93.5488 270.2L101.595 302.841C101.629 302.973 101.723 303.08 101.767 303.205C101.815 303.33 101.809 303.473 101.869 303.597L118.348 337.538C118.405 337.652 118.503 337.732 118.565 337.833C118.623 337.92 118.625 338.019 118.686 338.101L142.319 370.922C142.396 371.023 142.495 371.087 142.579 371.182C142.634 371.243 142.65 371.323 142.707 371.376L171.799 400.757C171.858 400.818 171.941 400.821 172 400.87C172.098 400.957 172.145 401.078 172.247 401.157L205.005 425.243C205.094 425.302 205.193 425.305 205.28 425.354C205.388 425.423 205.451 425.532 205.564 425.588L239.569 442.703C239.705 442.776 239.848 442.767 239.98 442.826C240.108 442.867 240.194 442.958 240.325 442.994L273.283 451.843C273.585 451.923 273.888 451.943 274.181 451.957C274.224 451.957 274.253 451.979 274.299 451.978L304.157 452.277C304.538 452.283 304.908 452.219 305.271 452.122C305.274 452.121 305.286 452.122 305.293 452.12L305.297 452.119L305.301 452.118C305.388 452.094 305.468 452.068 305.55 452.037L330.268 443.492C330.839 443.3 331.322 442.975 331.739 442.593C331.761 442.571 331.784 442.569 331.806 442.551L349.336 425.72C349.762 425.312 350.064 424.835 350.278 424.333C350.285 424.316 350.305 424.303 350.309 424.286L359.887 400.463C359.887 400.451 359.887 400.448 359.892 400.438C360.054 400.023 360.156 399.571 360.176 399.107L360.455 390.933L360.455 390.921L360.453 390.911L360.455 390.906L360.445 390.867C360.445 390.852 360.459 390.829 360.459 390.829L360.693 369.788C360.7 369.618 360.622 369.468 360.603 369.305C360.584 369.143 360.63 368.973 360.588 368.813L352.551 336.174C352.517 336.042 352.422 335.934 352.378 335.809C352.335 335.687 352.341 335.544 352.281 335.42L352.281 335.421ZM352.6 370.413L352.419 386.856L334.689 386.681L302.422 378.13L268.978 360.963L236.782 337.443L208.041 308.27L184.9 276.383L168.934 243.03L160.724 211.412L161.308 195.198L179.085 195.207L211.22 204.2L244.827 220.955L276.743 244.316L305.519 273.67L328.622 305.381L344.78 338.657L352.6 370.413Z" fill="#181816"/>
</svg>
