<svg width="72" height="72" viewBox="0 0 72 72" fill="none" xmlns="http://www.w3.org/2000/svg">
<path fill-rule="evenodd" clip-rule="evenodd" d="M72 29.25H64.35C63.45 26.1 62.55 23.4 60.75 20.7L66.15 15.3L56.7 5.85L51.3 11.25C48.6 9.45 45.9 8.55 42.75 7.65V0H29.25V7.65C26.1 8.1 23.4 9.45 20.7 11.25L15.3 5.85L5.85 15.3L11.25 20.7C9.45 23.4 8.1 26.1 7.65 29.25H0V42.75H7.65C8.55 45.9 9.45 48.6 11.25 51.3L5.85 56.7L15.3 66.15L20.7 60.75C23.4 62.55 26.1 63.45 29.25 64.35V72H42.75V64.35C45.9 63.45 48.6 62.55 51.3 60.75L56.7 66.15L66.15 56.7L60.75 51.3C62.55 48.6 63.45 45.9 64.35 42.75H72V29.25ZM46.7109 40.5859C46.7109 46.4844 42.2578 50.4883 35.8125 50.4883C29.6797 50.4883 25.6172 46.9141 25.2656 42.207L25.2461 41.9141H30.6953L30.7344 42.0508C31.1445 44.1797 33.1172 45.8203 35.832 45.8203C38.918 45.8203 41.0859 43.7109 41.0859 40.7031V40.6641C41.0664 37.6953 38.8984 35.6055 35.8516 35.6055C34.4062 35.6055 33.1758 36.0352 32.2188 36.7969C31.6523 37.2266 31.2031 37.7734 30.8711 38.3594H25.7344L27.0234 21.8164H45.0117V26.5039H31.7109L31.0273 34.4336H31.1445C32.3164 32.5391 34.6406 31.3867 37.4922 31.3867C42.8438 31.3867 46.7109 35.2344 46.7109 40.5469V40.5859Z" fill="#EB4545"/>
</svg>
