<svg width="72" height="72" viewBox="0 0 72 72" fill="none" xmlns="http://www.w3.org/2000/svg">
<path fill-rule="evenodd" clip-rule="evenodd" d="M72 29.25H64.35C63.45 26.1 62.55 23.4 60.75 20.7L66.15 15.3L56.7 5.85L51.3 11.25C48.6 9.45 45.9 8.55 42.75 7.65V0H29.25V7.65C26.1 8.1 23.4 9.45 20.7 11.25L15.3 5.85L5.85 15.3L11.25 20.7C9.45 23.4 8.1 26.1 7.65 29.25H0V42.75H7.65C8.55 45.9 9.45 48.6 11.25 51.3L5.85 56.7L15.3 66.15L20.7 60.75C23.4 62.55 26.1 63.45 29.25 64.35V72H42.75V64.35C45.9 63.45 48.6 62.55 51.3 60.75L56.7 66.15L66.15 56.7L60.75 51.3C62.55 48.6 63.45 45.9 64.35 42.75H72V29.25ZM46.9102 50H26.4219V45.957L36.3828 36.6406C40.0156 33.2422 40.7773 31.8555 40.7773 29.9023V29.8633C40.7578 27.5586 39 25.918 36.5 25.918C33.6094 25.918 31.6562 27.8125 31.5781 30.3516L31.5586 30.5273H26.0898V30.3711C26.0898 25.0586 30.5039 21.3281 36.4609 21.3281C42.418 21.3281 46.5195 24.7266 46.5195 29.5312V29.5703C46.5195 32.9883 44.8984 35.2148 40.0352 39.6875L34.1367 45.0781V45.3125H46.9102V50Z" fill="#EB4545"/>
</svg>
