<svg width="72" height="72" viewBox="0 0 72 72" fill="none" xmlns="http://www.w3.org/2000/svg">
<path fill-rule="evenodd" clip-rule="evenodd" d="M72 29.25H64.35C63.45 26.1 62.55 23.4 60.75 20.7L66.15 15.3L56.7 5.85L51.3 11.25C48.6 9.45 45.9 8.55 42.75 7.65V0H29.25V7.65C26.1 8.1 23.4 9.45 20.7 11.25L15.3 5.85L5.85 15.3L11.25 20.7C9.45 23.4 8.1 26.1 7.65 29.25H0V42.75H7.65C8.55 45.9 9.45 48.6 11.25 51.3L5.85 56.7L15.3 66.15L20.7 60.75C23.4 62.55 26.1 63.45 29.25 64.35V72H42.75V64.35C45.9 63.45 48.6 62.55 51.3 60.75L56.7 66.15L66.15 56.7L60.75 51.3C62.55 48.6 63.45 45.9 64.35 42.75H72V29.25ZM43.0859 50H37.4805V44.8242H23.457V39.9023L34.7656 21.8164H43.0859V40.1172H46.7969V44.8242H43.0859V50ZM28.5938 40.1172V40.2734H37.5977V26.0742H37.4609L28.5938 40.1172Z" fill="#EB4545"/>
</svg>
