<svg width="312" height="312" fill="none" xmlns="http://www.w3.org/2000/svg"><path fill="#272727" d="M0 0h312v312H0z"/><path d="M157.124 130.37h-16.71c-.477-2.741-1.356-5.168-2.637-7.283-1.28-2.145-2.874-3.962-4.78-5.451-1.907-1.489-4.081-2.606-6.524-3.351-2.412-.775-5.019-1.162-7.819-1.162-4.974 0-9.382 1.251-13.225 3.753-3.842 2.473-6.85 6.107-9.025 10.902-2.174 4.766-3.262 10.589-3.262 17.47 0 7 1.088 12.897 3.262 17.693 2.204 4.766 5.213 8.37 9.025 10.813 3.843 2.412 8.236 3.619 13.181 3.619 2.74 0 5.302-.358 7.685-1.073 2.412-.744 4.572-1.832 6.478-3.261a19.157 19.157 0 004.87-5.272c1.341-2.086 2.264-4.468 2.771-7.149l16.71.089a35.986 35.986 0 01-4.066 12.242c-2.055 3.813-4.751 7.179-8.087 10.098-3.336 2.889-7.238 5.153-11.706 6.791-4.468 1.609-9.428 2.413-14.879 2.413-8.042 0-15.221-1.862-21.535-5.585-6.315-3.723-11.29-9.1-14.923-16.129-3.634-7.03-5.451-15.46-5.451-25.289 0-9.859 1.832-18.289 5.495-25.289 3.664-7.029 8.653-12.406 14.968-16.129 6.315-3.724 13.464-5.585 21.446-5.585 5.094 0 9.83.715 14.209 2.144 4.378 1.43 8.28 3.53 11.706 6.3 3.425 2.741 6.24 6.107 8.444 10.098 2.234 3.962 3.694 8.489 4.379 13.583zM168.529 191V99.496h35.029c6.613 0 12.108 1.042 16.487 3.127 4.408 2.056 7.7 4.871 9.874 8.445 2.204 3.574 3.306 7.625 3.306 12.153 0 3.723-.714 6.91-2.144 9.561-1.43 2.621-3.351 4.751-5.764 6.389-2.413 1.639-5.108 2.815-8.087 3.53v.894c3.247.179 6.359 1.176 9.338 2.993 3.009 1.788 5.466 4.319 7.372 7.596 1.907 3.276 2.86 7.238 2.86 11.885 0 4.736-1.147 8.995-3.441 12.778-2.293 3.753-5.748 6.717-10.365 8.891-4.617 2.175-10.426 3.262-17.425 3.262h-37.04zm16.576-13.851h17.828c6.016 0 10.35-1.147 13.001-3.44 2.681-2.323 4.022-5.302 4.022-8.936 0-2.711-.671-5.153-2.011-7.327-1.34-2.205-3.247-3.932-5.719-5.183-2.472-1.281-5.421-1.922-8.847-1.922h-18.274v26.808zm0-38.737h16.398c2.859 0 5.436-.521 7.729-1.564 2.294-1.072 4.096-2.576 5.407-4.513 1.34-1.965 2.01-4.289 2.01-6.97 0-3.544-1.251-6.463-3.753-8.757-2.472-2.293-6.151-3.44-11.036-3.44h-16.755v25.244z" fill="#fff"/></svg>