<svg width="46" height="42" fill="none" xmlns="http://www.w3.org/2000/svg"><g clip-path="url(#clip0_2293_22464)" fill="#DEDEDE"><path d="M2.31 15.094c1.936-2.529 6.79-1.345 6.876 2.018.05 1.946-1.175 3.778-3.227 4.055-1.666.225-3.614-.775-4.125-2.433a4.156 4.156 0 01-.17-1.258c-.07-.828.104-1.67.646-2.382zm9.098 13.097c1.844-.111 3.585.564 4.7 2.076 1.264 1.711 1.403 3.84 1.317 5.88-.035.899-.564 1.655-1.288 2.156-.614.94-1.505 1.696-2.577 2.01-3.955 1.16-8.834-2.283-8.096-6.591.477-2.772 3.05-5.359 5.943-5.534v.003zM34.853 2.424c7.952 2.583 9.548 10.851 6.215 16.876a13.59 13.59 0 01-2.976 4.046c-4.678 4.34-11.57 3.908-15.965-.476-4.036-4.03-4.92-10.308-2.258-15.339 3.004-5.68 9.207-6.985 14.984-5.107z"/></g><defs><clipPath id="clip0_2293_22464"><path fill="#fff" transform="scale(-1 1) rotate(7.697 -20.528 -305.163)" d="M0 0h41.43v36.331H0z"/></clipPath></defs></svg>