<svg width="62" height="62" viewBox="0 0 62 62" fill="none" xmlns="http://www.w3.org/2000/svg">
<g clip-path="url(#clip0_1277_23860)">
<path d="M30.843 26.4926H30.6931C28.9637 26.4705 27.2654 26.0122 25.7456 25.1571C24.2257 24.302 22.93 23.0762 21.9704 21.5855C21.0109 20.0948 20.4166 18.3843 20.2389 16.6021C20.0612 14.8199 20.3057 13.0196 20.9508 11.3573C21.8733 8.97701 23.5667 7.00365 25.7406 5.77591C27.9145 4.54818 30.433 4.14266 32.864 4.629C35.2951 5.11534 37.4869 6.46319 39.0632 8.44116C40.6394 10.4191 41.5018 12.9038 41.5024 15.4687V15.5246C41.4865 18.4419 40.3564 21.2341 38.3588 23.2906C36.3613 25.347 33.6592 26.5005 30.843 26.4988V26.4926ZM30.843 6.86695C29.1848 6.86685 27.5643 7.37996 26.1895 8.34048C24.8147 9.301 23.7483 10.6651 23.127 12.2578C22.6227 13.5538 22.4313 14.9577 22.5692 16.3478C22.7072 17.7379 23.1704 19.072 23.9187 20.2346C24.6671 21.3972 25.6781 22.3532 26.8638 23.0194C28.0495 23.6857 29.3741 24.0422 30.723 24.0581C31.8242 24.062 32.9164 23.8513 33.9425 23.437C35.4811 22.7999 36.7999 21.6994 37.7286 20.2779C38.6573 18.8563 39.1532 17.179 39.1523 15.4625V15.4129C39.1444 13.1358 38.2653 10.955 36.7077 9.34835C35.15 7.74173 33.041 6.84043 30.843 6.84209V6.86695Z" fill="white"/>
<path d="M43.2297 57.5277H18.4574C17.3814 57.5277 16.3493 57.0858 15.5874 56.2988C14.8254 55.5118 14.3958 54.4439 14.3926 53.3293V38.6782C14.3973 35.688 15.547 32.8218 17.5893 30.7085C19.6315 28.5952 22.3995 27.4075 25.286 27.4059H36.3952C39.2818 27.4075 42.0498 28.5952 44.092 30.7085C46.1342 32.8218 47.2838 35.688 47.2885 38.6782V53.3293C47.2885 53.8812 47.1834 54.4275 46.9794 54.9373C46.7754 55.4471 46.4763 55.9102 46.0993 56.3001C45.7223 56.6901 45.275 56.9993 44.7826 57.2099C44.2902 57.4205 43.7625 57.5285 43.2297 57.5277ZM25.286 29.8218C23.0223 29.8218 20.851 30.7526 19.2492 32.4096C17.6474 34.0667 16.746 36.3145 16.7428 38.6596V53.3106C16.7436 53.5431 16.7885 53.7731 16.8751 53.9875C16.9617 54.2019 17.0883 54.3966 17.2475 54.5604C17.4067 54.7241 17.5955 54.8538 17.8031 54.942C18.0107 55.0302 18.233 55.0752 18.4574 55.0744H43.2297C43.6789 55.0707 44.1091 54.8859 44.4288 54.559C44.5869 54.3963 44.7124 54.2027 44.7978 53.9895C44.8832 53.7763 44.9269 53.5477 44.9264 53.3169V38.6658C44.9217 36.3212 44.0196 34.0743 42.4181 32.4176C40.8167 30.7609 38.6465 29.8296 36.3832 29.828L25.286 29.8218Z" fill="white"/>
<path d="M35.048 41.8522C34.73 41.8522 34.425 41.7212 34.2001 41.4882C33.9753 41.2553 33.849 40.9395 33.849 40.61V35.6415C33.7614 35.6298 33.6726 35.6298 33.5851 35.6415H28.0455C27.9579 35.6298 27.8693 35.6298 27.7817 35.6415V40.61C27.7267 40.8908 27.5796 41.1432 27.3655 41.3245C27.1513 41.5058 26.8833 41.6048 26.6067 41.6048C26.3301 41.6048 26.0621 41.5058 25.8479 41.3245C25.6338 41.1432 25.4867 40.8908 25.4316 40.61V35.2688C25.4316 34.0825 26.5527 33.1943 28.0455 33.1943H33.5851C35.0719 33.1943 36.1991 34.0825 36.1991 35.2688V40.61C36.1993 40.931 36.0795 41.2395 35.8649 41.4711C35.6503 41.7027 35.3576 41.8393 35.048 41.8522Z" fill="white"/>
<path fill-rule="evenodd" clip-rule="evenodd" d="M37.635 40.6345H24.0439C23.3018 40.6362 22.5906 40.9423 22.0659 41.4859C21.5411 42.0295 21.2457 42.7663 21.2441 43.535V54.5092C21.2457 55.2785 21.541 56.0159 22.0656 56.5605C22.5901 57.105 23.3013 57.4125 24.0439 57.4158H37.635C38.3782 57.4125 39.09 57.1053 39.6155 56.5609C40.141 56.0165 40.4378 55.2791 40.4409 54.5092V43.535C40.4377 42.7657 40.1409 42.0288 39.6152 41.4854C39.0896 40.942 38.3776 40.6361 37.635 40.6345ZM31.5739 49.9505V52.0685C31.5739 52.2694 31.4968 52.4621 31.3596 52.6042C31.2225 52.7463 31.0365 52.8262 30.8425 52.8262C30.6485 52.8262 30.4624 52.7463 30.3253 52.6042C30.1881 52.4621 30.111 52.2694 30.111 52.0685V49.9505C29.5664 49.7699 29.1021 49.3936 28.8017 48.8894C28.5014 48.3853 28.3849 47.7865 28.4731 47.2012C28.5614 46.6159 28.8487 46.0826 29.2831 45.6974C29.7176 45.3122 30.2707 45.1004 30.8425 45.1004C31.4144 45.1004 31.9673 45.3122 32.4018 45.6974C32.8362 46.0826 33.1235 46.6159 33.2118 47.2012C33.3001 47.7865 33.1835 48.3853 32.8832 48.8894C32.5829 49.3936 32.1185 49.7699 31.5739 49.9505Z" fill="white"/>
</g>
<defs>
<clipPath id="clip0_1277_23860">
<rect width="62" height="62" fill="white"/>
</clipPath>
</defs>
</svg>
