<svg width="55" height="54" viewBox="0 0 55 54" fill="none" xmlns="http://www.w3.org/2000/svg">
<circle cx="27.5" cy="27" r="27" fill="#031C77"/>
<path d="M36.1289 32.418C36.1289 34.7266 35.3789 36.5137 33.8789 37.7793C32.3789 39.0332 30.2402 39.6602 27.4629 39.6602C24.8496 39.6602 22.7695 39.0625 21.2227 37.8672C19.6875 36.6719 18.7793 34.9375 18.498 32.6641L22.9453 32.2773C23.2969 34.832 24.7969 36.1094 27.4453 36.1094C28.7695 36.1094 29.8008 35.7871 30.5391 35.1426C31.2773 34.4863 31.6465 33.4961 31.6465 32.1719C31.6465 30.9883 31.207 30.0801 30.3281 29.4473C29.4609 28.8027 28.1777 28.4805 26.4785 28.4805H24.7207V24.8945H26.373C27.8965 24.8945 29.0566 24.5781 29.8535 23.9453C30.6504 23.3008 31.0488 22.3984 31.0488 21.2383C31.0488 20.1133 30.7266 19.2344 30.082 18.6016C29.4492 17.957 28.5117 17.6348 27.2695 17.6348C26.1328 17.6348 25.207 17.9395 24.4922 18.5488C23.7891 19.1582 23.3848 20.0254 23.2793 21.1504L18.9199 20.834C19.1777 18.7363 20.0508 17.0957 21.5391 15.9121C23.0273 14.7285 24.9609 14.1367 27.3398 14.1367C29.8945 14.1367 31.8867 14.7168 33.3164 15.877C34.7578 17.0371 35.4785 18.6484 35.4785 20.7109C35.4785 22.2695 35.0273 23.5469 34.125 24.543C33.2227 25.5391 31.9219 26.207 30.2227 26.5469V26.6172C32.0977 26.8281 33.5508 27.4492 34.582 28.4805C35.6133 29.5117 36.1289 30.8242 36.1289 32.418Z" fill="white"/>
</svg>
