<svg width="95" height="63" fill="none" xmlns="http://www.w3.org/2000/svg"><g clip-path="url(#clip0_2576_24920)" fill="#CACACA"><path d="M4.493 38.781c1.858 6.745 5.372 13.192 8.18 19.606.476 1.09 4.05.26 4.113-.853.489-8.321.938-16.633 1.366-24.95l-4.133.857c4.158 7.869 6.472 16.284 8.669 24.86.323 1.27 3.969.124 4.21-.875 3.214-13.298 6.444-26.61 9.333-39.977.256-1.208-3.495-.561-3.783.552-3.46 13.293-6.604 26.667-9.748 40.04l4.211-.875c-2.253-8.552-4.647-16.96-8.747-24.841-.536-1.037-4.062-.308-4.133.857a3443.51 3443.51 0 00-1.346 24.946c1.371-.285 2.742-.57 4.113-.853-2.885-6.438-5.35-13.372-9.096-19.355-.504-.807-3.481-.144-3.21.861zM40.46 28.667C38.68 34 36.421 46.494 42.852 49.829c5.056 2.624 8.443-1.88 9.7-6.14 1.538-5.186 3.692-16.126-3.723-17.674-4.204-.881-10.446 2.185-8.996 7.157.308 1.068 3.397.132 3.585-.742.694-3.187 4.516-5.307 6.074-1.253.536 1.395.48 3.112.476 4.57-.013 2.978-.215 8.083-1.93 10.622-3.41 5.032-5.339-3.81-5.66-6.19-.55-3.998-.158-8.008.826-11.897.22-.871-2.487-.372-2.749.406l.005-.021zm12.666-13.921c2.37 9.286 5.881 18.267 8.275 27.567.318 1.25 4.066.143 4.07-1.089.085-8.69.047-17.382.123-26.07l-4.03 1.08 9.473 28.092c.395 1.181 4.144.217 4.22-.878 1.105-14.927 5.335-27.637 10.275-41.588.416-1.184-3.266-.42-3.693.315-7.278 12.395-9.834 27.748-10.79 41.892l4.22-.878-9.675-28.035c-.428-1.236-4.024-.142-4.03 1.08-.013 8.694-.15 17.385-.163 26.08l4.07-1.09c-2.452-9.194-5.293-18.607-9.02-27.365-.404-.954-3.585-.11-3.325.887z"/></g><defs><clipPath id="clip0_2576_24920"><path fill="#fff" transform="rotate(-12.945 90.532 8.963)" d="M0 0h87.33v42.73H0z"/></clipPath></defs></svg>