<svg width="19" height="19" fill="none" xmlns="http://www.w3.org/2000/svg"><path d="M4.148 5.126c.12.753.498 1.442 1.07 1.954.63.603 1.242 1.227 1.872 1.83.238.224.238.378 0 .601-.673.643-1.316 1.312-1.99 1.952-.887.844-1.13 1.893-.894 3.021.213 1.021.881 1.772 1.876 2.158 1.33.52 2.517.257 3.533-.739l.76-.735a.298.298 0 01.215-.121.304.304 0 01.233.078c.242.19.51.345.796.46.161.055.167.172.05.288-.947.947-1.822 1.984-3.24 2.294-1.732.376-3.674-.137-4.833-1.714a4.441 4.441 0 01-.9-2.647c-.017-1.339.493-2.454 1.436-3.392.313-.31.621-.627.953-.918.244-.212.218-.351-.009-.565-.45-.423-.918-.835-1.23-1.382-.387-.681-.467-1.354-.072-2.045a.742.742 0 01.374-.378z" fill="#FDB604"/><path d="M13.903 15.587c-1.59.031-2.762-.628-3.75-1.657-.234-.24-.487-.464-.703-.72-.196-.229-.34-.186-.522.01a7.543 7.543 0 01-1.23 1.136c-.797.545-1.705.568-2.438.075-.09-.062-.193-.121-.171-.221.022-.1.156-.059.24-.078a3.137 3.137 0 001.56-.857c.676-.671 1.358-1.337 2.023-2.018.203-.208.335-.212.553 0 .766.767 1.494 1.58 2.347 2.258a3.216 3.216 0 002.89.588c.494-.14.946-.397 1.317-.748.372-.35.651-.785.815-1.265.424-1.185.155-2.296-.733-3.229-.276-.286-.563-.558-.845-.836-.138-.136-.184-.272-.023-.452a3.29 3.29 0 00.414-.674c.1-.202.193-.286.38-.089.599.634 1.322 1.167 1.753 1.936.508.907.758 1.863.586 2.932-.308 1.9-1.417 3.094-3.198 3.736a3.051 3.051 0 01-1.265.173z" fill="#FDB604"/><path d="M11.063 1.52c-.821.053-1.588.286-2.198.9-.276.28-.57.545-.847.829-.161.165-.288.199-.494.04a4.482 4.482 0 00-.757-.434c-.161-.08-.222-.146-.071-.293C7.29 1.984 7.822 1.335 8.53.878a4.38 4.38 0 012.111-.705c2.016-.136 3.511.66 4.503 2.38.29.514.462 1.085.505 1.672.152 1.647-.47 2.96-1.673 4.054-.267.242-.51.511-.775.754-.138.136-.149.217 0 .352.267.244.518.504.77.763.575.593.948 1.261.854 2.123-.053.324-.182.63-.376.897-.034.053-.06.137-.149.115-.088-.022-.09-.096-.105-.161a3.626 3.626 0 00-.276-.8c-.34-.68-.946-1.123-1.46-1.648a33.573 33.573 0 00-1.244-1.205c-.2-.183-.194-.31 0-.495.676-.646 1.337-1.305 2.003-1.96 1.512-1.487 1.392-3.642-.301-4.908-.528-.395-1.167-.556-1.855-.586z" fill="#FDB604"/><path d="M0 7.593C-.032 5.323 1.29 3.58 3.245 3.02c1.775-.507 3.376-.083 4.71 1.21.348.336.702.666 1.03 1.02.162.172.265.144.415 0 .38-.369.731-.771 1.165-1.091.882-.641 1.863-.693 2.611-.137.06.045.156.074.138.172 0 .03-.065.063-.103.068-.91.136-1.546.694-2.146 1.324-.51.535-1.065 1.028-1.57 1.567-.242.256-.387.197-.6-.018-.66-.667-1.344-1.31-2.004-1.977a3.204 3.204 0 00-1.312-.809 3.237 3.237 0 00-2.955.515c-.413.317-.74.73-.953 1.202-.544 1.147-.356 2.428.598 3.446.276.297.569.588.87.865.159.148.201.248.05.442a5.291 5.291 0 00-.464.781c-.08.15-.155.183-.277.058-.86-.853-1.83-1.616-2.217-2.834A4.635 4.635 0 010 7.594z" fill="#FDB604"/></svg>