<svg width="24" height="25" fill="none" xmlns="http://www.w3.org/2000/svg"><path d="M10.518 24c-2.552 0-5.06.084-7.557-.03-1.685-.073-2.946-1.703-2.95-3.555C-.005 15.818 0 11.22 0 6.628c0-.939-.01-1.877 0-2.81C.024 1.54 1.463.074 3.758.06 7.178.035 10.597.055 14.015.05c2.025 0 4.054-.01 6.08 0 2.457.015 3.896 1.447 3.896 3.891.005 5.413.005 10.825 0 16.237 0 2.425-1.395 3.832-3.813 3.857-1.749.015-3.503 0-5.33 0v-8.46h3.482l.7-4.207h-4.197V8.494h4.162V4.237c-1.817.09-3.64 0-5.394.312-1.837.325-2.94 2.059-3.005 4.138-.024.84 0 1.684 0 2.637H7.883v4.163h2.63v8.504l.006.01z" fill="#EB5B31"/></svg>