<svg width="24" height="25" fill="none" xmlns="http://www.w3.org/2000/svg"><g clip-path="url(#clip0_2607_24270)" fill="#EB5B31"><path d="M11.988 24.044c-2.003-.089-4.022-.084-6.01-.291-3.349-.356-5.714-2.69-5.853-6.025-.164-3.86-.159-7.735 0-11.6C.264 2.827 2.714.331 6.032.182c3.977-.182 7.975-.187 11.953 0 3.318.159 5.733 2.66 5.882 5.98.164 3.742.188 7.498.044 11.24-.163 4.19-2.99 6.38-7.161 6.514-1.582.049-3.165.01-4.752.01v.123l-.01-.005zm-.014-5.975c3.337.01 6.184-2.812 6.17-6.129-.015-3.34-2.842-6.153-6.17-6.128-3.373.024-6.16 2.797-6.165 6.133 0 3.346 2.782 6.109 6.164 6.119v.005zm7.856-12.49c.02-.731-.62-1.398-1.37-1.423-.733-.025-1.428.623-1.442 1.354-.02.761.58 1.429 1.324 1.473.764.05 1.468-.613 1.488-1.403z"/><path d="M11.958 16.324c-2.446-.015-4.39-1.977-4.36-4.404.025-2.362 2.004-4.31 4.38-4.32 2.405-.01 4.409 1.987 4.404 4.39 0 2.416-1.974 4.349-4.43 4.334h.006z"/></g><defs><clipPath id="clip0_2607_24270"><path fill="#fff" transform="translate(0 .044)" d="M0 0h24v24H0z"/></clipPath></defs></svg>