<svg width="143" height="83" fill="none" xmlns="http://www.w3.org/2000/svg"><path d="M37.703 21.071c-1.13-3.387-2.583-5.347-4.801-6.407-1.31-.758-2.51-1.487-3.6-2.42-1.034-.916-1.143-.946-2.608-1.338-2.172-.582-3.852-.392-6.638.665-6.024 2.285-12.133 9.667-14.235 17.076-.433 1.397-.63 2.567-.612 3.153a2.93 2.93 0 01-.095.79c-.15 1.646.573 4.808 1.487 6.391 1.023 1.613 1.696 2.142 5.807 4.175.988.44 2.164 1.045 2.569 1.27 1.284.635 3.406.97 5.209.756.478-.047.739-.151.782-.314.059-.217.073-.272.192-.065.174.22.76.204 2.213-.222 4.11-1.226 8.95-5.167 12.195-10.116 3.12-4.692 3.744-8.54 2.135-13.394zm-27.15 8.378c-.07.04-.11-.029-.08-.137.029-.109.112-.203.166-.188.109.029.149.098.134.152-.029.108-.112.203-.22.173zm.565-1.244c-.108-.03-.148-.098-.065-.192.084-.095.34.033.297.195-.014.055-.123.026-.232-.003zm1.35.827c-.109-.03-.094-.084-.065-.192.083-.094.152-.134.207-.12.054.015.04.07.01.178-.029.108-.098.148-.152.134zM31.897 25.8c-.64 2.389-1.932 4.603-4.34 7.508-2.643 3.132-5.075 5.04-8.041 6.34-1.181.499-3.416 1.238-3.58 1.195-.053-.015-.3.036-.6.071-.247.05-.902.108-1.38.154-.547.087-.941.04-1.05.01-.163-.044-.935-1.938-1.083-2.909-.921-4.378 1.143-10.342 5.236-15.414 1.295-1.573 2.1-2.405 3.785-3.7 3.095-2.428 6.786-3.825 9.124-3.431l.775.149.393.92c.484 1.235.975 2.88 1.107 3.904.047.479.093.956.118 1.08.223 1.34.143 2.074-.464 4.123zm-.001 9.776c-.084.094-.192.065-.3.036-.055-.015-.055-.015-.026-.124.084-.094.207-.119.26-.104.11.029.095.083.066.192zm.348-.43c-.109-.03-.109-.03-.065-.193.127-.257.334-.376.26-.104-.043.163-.126.257-.195.296zm1.632-2.182c-.29.213-.217-.058.102-.38.098-.148.112-.203.123-.025a1.06 1.06 0 01-.225.405zm1.081-1.863c-.258.745-.744 1.255-.809 1.063-.04-.069.044-.163.127-.257.055.015.167-.188.225-.405.059-.217.24-.46.475-.687.236-.228.236-.228-.018.286zm.562-1.014c-.141.312-.18.243-.104-.26.033-.34.174-.652.189-.706.123-.025.22-.174.333-.376.059-.217.07-.04-.033.34-.101.38-.287.854-.385 1.002zm1.136 1.41c-.109-.029-.065-.192.033-.34.097-.148.18-.242.235-.228.109.03.08.138-.018.286-.098.148-.196.297-.25.282zm32.17-2.087c-1.129-3.386-2.582-5.347-4.8-6.407-1.31-.758-2.511-1.487-3.6-2.419-1.034-.917-1.143-.946-2.609-1.34-2.172-.581-3.852-.391-6.637.666-6.024 2.285-12.134 9.668-14.235 17.076-.433 1.398-.63 2.567-.612 3.153.01.178-.023.518-.096.79-.15 1.647.574 4.808 1.488 6.392 1.023 1.612 1.696 2.142 5.806 4.174a41 41 0 012.57 1.27c1.284.636 3.405.971 5.209.756.478-.046.739-.151.782-.314.058-.217.073-.271.192-.065.174.221.76.204 2.213-.222 4.11-1.226 8.949-5.167 12.195-10.116 3.12-4.692 3.743-8.54 2.134-13.394zm-27.15 8.379c-.069.04-.109-.03-.08-.138.03-.109.113-.203.167-.188.109.029.148.098.134.152-.03.109-.113.203-.221.174zm.566-1.245c-.108-.03-.148-.098-.065-.192.084-.094.34.033.297.196-.015.054-.123.025-.232-.004zm1.35.827c-.109-.03-.094-.083-.065-.192.083-.094.152-.134.206-.12.054.015.04.07.01.178-.028.109-.097.148-.151.134zm19.428-3.232c-.64 2.39-1.931 4.603-4.339 7.508-2.643 3.132-5.075 5.041-8.042 6.34-1.18.5-3.416 1.239-3.578 1.195-.055-.015-.301.036-.602.072-.246.05-.901.107-1.38.154-.546.086-.94.038-1.05.01-.162-.044-.935-1.939-1.082-2.91-.921-4.378 1.142-10.342 5.236-15.413 1.294-1.574 2.1-2.406 3.784-3.7 3.095-2.43 6.786-3.826 9.125-3.432l.774.15.394.92c.484 1.235.974 2.879 1.107 3.904.046.478.093.956.118 1.079.223 1.34.142 2.075-.465 4.123zm0 9.776c-.084.094-.192.065-.301.036-.054-.015-.054-.015-.025-.123.083-.094.206-.12.26-.105.11.03.095.083.066.192zm.348-.43c-.109-.03-.109-.03-.065-.192.127-.257.333-.377.26-.105-.043.163-.127.257-.195.297zm1.632-2.182c-.29.214-.218-.058.101-.38.098-.148.113-.202.124-.025a1.06 1.06 0 01-.225.405zm1.08-1.863c-.257.745-.743 1.255-.808 1.063-.04-.068.044-.162.127-.257.054.015.167-.188.225-.405.058-.217.24-.46.475-.687.236-.228.236-.228-.018.286zm.563-1.013c-.141.311-.181.242-.105-.261.033-.34.175-.651.19-.706.123-.025.22-.173.333-.376.058-.217.069-.04-.033.34-.102.38-.287.855-.385 1.003zm1.135 1.41c-.108-.03-.065-.192.033-.34.098-.149.182-.243.236-.228.108.029.08.137-.019.285-.097.149-.195.297-.25.283zm.548 14.752c-.014.055.149.098.312.142.162.044.231.004.246-.05-.065-.192-.528-.2-.558-.092zm8.033-5.005a.242.242 0 00-.275.16c-.044.162-.004.231-.004.231.055.014.178-.01.276-.159.206-.12.22-.174.003-.232zM71.47 53.28a.12.12 0 00-.138.08c-.029.108.01.177.065.191.109.03.177-.01.206-.119.015-.054-.025-.123-.133-.152zm5.575-2.347c-.109-.03-.3.036-.315.09-.153.134.01.178.325.087.192-.065.207-.119-.01-.177zm2.742-.895c-.08-.137-.094-.083-.07.04.04.069-.043.163-.151.134-.109-.03-.247.05-.261.105-.044.162-.167.188-.276.159-.162-.044-.34-.033-.448-.063-.232-.003-.852.354-.827.477.026.123.967.085.996-.024.03-.108.221-.173.522-.21.517.023.837-.299.515-.618zM97.34 36.644c-.17-.453-.762-1.717-1.26-2.898-1.35-3.213-2.42-4.431-4.841-5.604-.988-.439-3.363-1.133-4.586-1.345-1.727-.288-2.625-.412-2.693-.372-.07.04-.355.021-.681-.066-.286-.019-.75-.026-1.021-.1-.34-.032-.489-.13-.568-.268-.01-.177-.065-.192-.38-.102-.246.05-.3.036-.311-.141-.05-.246-.724-.776-1.494-1.157-.677-.298-.731-.312-1.05.01-.207.119-.599.712-.921 1.266-.494.973-.563 1.013-1.193 1.193-2.398.696-3.843 1.53-3.953 2.374.007.41 1.477 2.957 1.749 3.03.217.057.003.64-1.373 3.821-1.562 3.655-1.562 3.655-2.742 6.54-1.423 3.575-1.467 3.738-1.818 3.527-.148-.098-.217-.058-.232-.004.08.138-.837.3-.916.162-.04-.069-.163-.043-.3.036a.437.437 0 01-.464-.008c-.109-.029-.34-.033-.478.047-.138.08-.424.06-.695-.012-.977-.262-1.196.553-.393 1.466.441.525.427.58.662.352.153-.134.261-.105.355-.021-.029.108.134.152.38.101.355-.02.355-.02.257.127-.098.149-.004.232.16.276.325.087.68.066.723-.097.015-.054-.094-.084-.286-.019-.33.145-.543-.145-.227-.235.22-.174.922.247.879.41-.215.583-1.304 3.782-1.504 4.31-.117.435-.204.76-.095.79.054.014.006.409-.125.897-.13.489-.243.692-.268.569-.036-.301-.036-.301-.217-.059-.044.163-.088.326.006.41.094.083.08.137-.098.148-.068.04-.083.094-.097.148.094.084.09.315.071.601-.189.706-.233.869-.366.717-.04-.07-.011-.178.018-.286.084-.094.058-.217.004-.232-.054-.015-.236.228-.352.662-.145.543-.12.666.032.532.112-.202.167-.188.138-.08-.062.45-.447 1.452-.53 1.546-.138.08.056.656.22.7.108.028.177-.011.275-.16.097-.148.097-.148.04.07-.102.38.303.604.39.278.03-.108.083-.094.109.03.075.369.705.189.699-.22.018-.287.264-.337.3-.036.025.123.08.137.138-.08.014-.054.167-.188.221-.173.054.014.069-.04.03-.109-.012-.177-.012-.177-.11-.029-.068.04-.137.08-.177.01-.242-.18-.076-.369.196-.296.163.044.246-.05.236-.228.043-.163-.05-.246-.16-.275-.123.025-.148-.098.023-.518.185-.474.189-.706.08-.735-.108-.029-.108-.029.113-.203.138-.079.402-.415.46-.633.073-.271.27-.568.544-.727.399-.184.497-.332.388-.361-.148-.098-.119-.207.102-.38.305-.268.269-.568-.036-.3-.22.173-.246.05-.119-.207a.12.12 0 00-.08-.138c-.054-.015.019-.286.092-.558.17-.42.2-.528.037-.572-.109-.029-.094-.083.098-.148.177-.01.275-.159.319-.322.029-.108.097-.148.123-.025.036.3.655-.057.826-.477a.473.473 0 01.319-.322c.108.03.163.044.065.192-.084.094-.113.203-.004.232.054.014.123-.025.152-.134.058-.217.511-.387 1.058-.473.67-.111.778-.082.626.052-.083.094-.058.217-.004.231.04.07.163.044.192-.065.03-.108.113-.202.221-.173.055.014.09.315-.138.952-.19.706-.179.883-.066.68.152-.133.348-.43.391-.593.058-.217.24-.46.377-.539.07-.04.128-.257.171-.42.019-.286.5-.564.62-.357.159.275.743-.383.805-.832.072-.272.13-.489.24-.46.108.03.137-.08.224-.405.012-.695.745-2.128.918-1.907.08.138 1.39.024 1.434-.14.03-.108.084-.093.207-.119.883.179 1.415.147 2.05-.265.137-.08.314-.09.394.048.094.083.203.112.355-.022.138-.08.33-.144.438-.115.109.029.178-.01.167-.188-.01-.178.043-.163.109.029.064.192.158.275.188.167.014-.055.152-.134.26-.105.109.029.232.004.247-.05.014-.055.152-.134.33-.145.122-.025.26-.105.22-.173-.04-.07-.08-.138-.217-.059-.054-.014-.108-.029-.04-.068.084-.094.261-.105.464.007.203.113.326.088.34.033.03-.108.152-.133.192-.065.04.07.203.113.34.033.138-.08.247-.05.232.004-.029.109-.236.228-.496.333-.232-.004-.576.195-.714.274-.152.134-.384.13-.478.047a.487.487 0 00-.438.115c-.138.08-.152.134-.03.108.124-.025.164.044.15.098-.03.11-.139.08-.287-.018-.148-.098-.394-.047-.532.032-.152.134-.399.184-.493.1-.094-.083-.163-.043-.192.066-.014.054-.137.08-.246.05-.109-.029-.246.05-.29.213-.029.109-.098.149-.138.08-.04-.069-.162-.044-.26.105-.084.094-.207.119-.355.02-.257-.126-.311-.14-.261.105.065.192.01.178-.123.026-.12-.207-.489-.131-.576.195-.03.108-.275.159-.522.209-.192.065-.33.144-.344.199.054.014.286.018.587-.018.561-.14.615-.126.572.037-.015.054-.344.199-.7.22-.423.061-.753.206-.782.314-.058.217-.004.232.435.117.246-.05.6-.072.71-.043.108.03.477-.047.738-.151.246-.05.507-.155.561-.14 0 0 .247-.051.478-.047.247-.05.547-.087.656-.057.054.014.37-.076.645-.235.315-.09.561-.14.6-.072 0 0 .11.03.247-.05.138-.08.26-.105.246-.05-.029.108.094.083.192-.065.152-.134.152-.134.109.029-.167.188-1.319.578-1.398.44-.094-.084-.674.343-.718.506-.043.163.228.235.434.116.124-.025.808-.19 1.63-.436.725-.097 1.601-.328 1.808-.447.192-.065.452-.17.507-.155.054.015 1-.256 2.151-.645 3.894-1.285 6.796-2.776 8.691-4.422a26.58 26.58 0 001.095-1.045c.098-.148.28-.39.392-.593.167-.188.49-.742.66-1.161.708-1.556.681-3.193-.08-4.91zM66.335 53.765c-.069.04-.108-.03-.065-.192.044-.163.113-.203.123-.025.04.069-.004.232-.058.217zm.228.236c-.069.04-.094-.084-.065-.192.058-.217.112-.203.138-.08.025.123-.004.232-.073.272zm.598 2.546s-.094-.084-.065-.192c-.04-.07-.01-.178.098-.149.054.015.134.153.12.207-.03.109-.099.148-.153.134zm.838-1.172c.04.068.08.137.065.192l-.109-.03a.121.121 0 01-.08-.137c.015-.054.084-.094.124-.025zm-.298.676c.025.123.05.247-.004.232-.083.094-.203-.113-.159-.275.03-.109.138-.08.163.043zm5.318-11.377c-.084.094-.055-.014-.01-.177.057-.217.072-.272.112-.203.025.123-.033.34-.102.38zm-1.551 7.091l-.272-.072c.015-.055.084-.094.33-.145.123-.025.286.019.272.073-.015.054-.207.12-.33.144zm.831-1.58c-.138.079-.109-.03-.065-.193.058-.217.073-.271.167-.188l-.102.38zm1.502-5.825c-.054-.014-.108-.029-.08-.137-.039-.07-.01-.178.099-.149.054.015.08.138.065.192-.03.109-.03.109-.084.094zm1.327-1.04c-.356.893-.708 1.555-.817 1.526 0 0-.123.025-.34-.033-.232-.004-.232-.004.127-.257.206-.12.388-.361.417-.47.073-.271.073-.271-.109-.03-.166.189-.166.189-.123.026.03-.108.127-.257.196-.297a.427.427 0 00.167-.188c.014-.054-.025-.123-.094-.083-.123.025-.04-.069.127-.257.388-.362.605-.303.449.062zm.214-.584c-.167.189-.192.065-.09-.315.087-.325.254-.514.308-.499.055.015.134.152.076.37-.044.162-.21.35-.294.444zm.556-1.422c-.088.326-.254.514-.363.485 0 0-.04-.069.044-.163.293-.445.512-1.26.378-1.412-.109-.029-.04-.068.123-.025.286.019.199.344-.182 1.115zm.839-2.044c-.102.38-.298.676-.436.756-.083.094-.083.094.015-.055.029-.108.072-.271.047-.394-.134-.152-.105-.261.058-.217.055.014.109.029.07-.04-.04-.069.072-.272.239-.46.29-.213.275-.159.007.41zm.639-1.517c-.044.163-.113.203-.138.08.029-.109.087-.326.008-.464.004-.231.072-.271.137-.08.094.084.09.316-.007.464zm.326-.785c-.083.094-.069.04-.01-.178.043-.162.058-.217.098-.148.025.123-.019.286-.088.326zm.352-.662a.121.121 0 01-.08-.138c.03-.108.084-.094.138-.08.08.138.12.207.105.261l-.163-.043zm2.994 12.498c-.109-.029-.148-.098-.105-.26.03-.11.098-.149.192-.066.04.07.065.192.05.247-.028.108-.083.094-.137.08zm1.523-16.758c.137-.08.177-.01.271.073 0 0-.069.04-.177.01-.163-.043-.203-.112-.094-.083zm-3.948 6.914c.069-.04.152-.133.152-.133.055.014.08.137.065.192-.029.108-.152.133-.206.119-.109-.03-.094-.084-.01-.178zm-.018.286c.054.015.094.084.025.123-.03.11-.098.149-.152.134-.055-.014-.04-.069-.01-.177a.12.12 0 01.137-.08zm-1.562 3.655c.03-.108.182-.242.182-.242s.01.178-.019.286c-.043.163-.127.257-.235.228-.055-.015-.025-.123.072-.272zm-.5 1.437c-.07.04-.15-.098-.12-.206.058-.218.196-.297.28-.391.053.014.093.083.05.246-.044.163-.142.311-.21.351zm-.719 3.765c-.069.04-.162-.044-.148-.098.015-.054.152-.134.221-.174.069-.04.109.03.094.084a.425.425 0 01-.167.188zm2.323-7.583c-.123.025-.163-.043-.148-.098.014-.054.098-.148.22-.173.07-.04.11.029.095.083a.426.426 0 01-.167.188zm-1.273 7.573c-.123.025-.217-.058-.108-.029.083-.094.058-.217-.022-.355-.064-.192-.064-.192.044-.163.025.123.148.098.272.073.206-.12.191-.065.133.152-.043.163-.141.312-.319.322zm6.266 1.155c-.083.095-.137.08-.177.011-.094-.083-.123.025-.26.105-.03.108-.153.134-.262.105-.108-.03-.04-.07.113-.203.344-.199.807-.191.586-.017zm.622-2.102c.03-.109.221-.174.344-.2.178-.01.41-.006.532-.031.07-.04-.014.054-.344.199-.713.274-.713.274-.532.032zm.501 1.821c-.083.094-.138.08-.138.08-.054-.015-.108-.03-.08-.138-.039-.069.015-.054.124-.025.109.03.163.044.094.083zm.774-2.236c.112-.203.29-.214.398-.184.163.043.203.112.134.152-.014.054-.206.119-.344.199-.246.05-.3.035-.188-.167zm.363 1.901c-.094-.083-.34-.033-.561.14-.167.189-.359.254-.344.2.029-.11.25-.283.456-.402.33-.145.453-.17.464.008.025.123-.03.108-.015.054zm.716-2.02c-.109-.029-.148-.097-.12-.206.03-.108.113-.203.222-.173.054.014.148.098.12.206-.015.054-.139.08-.222.174zm7.728-10.382c-.181.243-.348.431-.363.485-.014.055-.18.243-.348.43-2.084 2.352-6.62 4.511-13.346 6.375-2.836.811-2.673.855-2.103-.622.284-.622.723-1.61.923-2.138.24-.46 1.132-2.49 1.956-4.48.879-1.976 1.616-3.64 1.616-3.64.069-.04 2.701-.092 3.096-.044 3.186.272 5.712.832 7.377 1.57 1.813.834 1.917 1.095 1.192 2.065zM72.83 54.284a.812.812 0 00-.21.351c-.044.163-.019.286.064.192.109.03.222-.173.25-.282.044-.163.005-.232-.104-.26zm-1.058.473c.113-.202.127-.257-.094-.083-.123.025-.28.39-.367.716-.156.366-.105.612-.036.572.069-.04.192-.064.22-.173.03-.109.128-.257.182-.242.069-.04.098-.149.033-.34-.025-.124-.021-.356.062-.45zm1.672-2.112c-.055-.015-.192.065-.25.282-.03.109.05.246.119.206a.43.43 0 00.181-.242c.03-.108.004-.232-.05-.246zm-.447 1.451c.069-.04.098-.148.072-.271-.025-.123-.08-.138-.137.08-.03.108-.004.231.065.191zm.52-1.723a.12.12 0 00.079.138l.109.03c.014-.055-.026-.124-.065-.193-.04-.069-.109-.029-.124.025zm2.283-2.006c-.221.173-.221.173-.163-.044.044-.163.044-.163-.109-.029-.137.08-.22.174-.235.228a.121.121 0 00.08.137c.162.044.506-.155.55-.318.03-.108-.04-.068-.123.026zm-10.013 4.358c.069-.04.127-.257.087-.326-.025-.123-.054-.015-.097.148-.059.218-.073.272.01.178zm2.782-.826c-.084.094-.004.232.144.33a.984.984 0 00.257.127s.03-.109.019-.286c.018-.286-.239-.413-.42-.171zm-.898 3.134a.426.426 0 00-.167.189c-.014.054.025.123.094.083.123-.025.207-.12.221-.174.015-.054-.025-.123-.148-.098zm-.316.963s-.138.08-.153.134c-.083.094-.097.148.011.177.054.015.123-.025.152-.133.015-.055.044-.163-.01-.178zm-.28.39c-.054-.014-.097.15-.127.258-.043.163-.072.271-.018.286.054.014.138-.08.181-.243.03-.108.019-.286-.036-.3zm61.396-19.975c-.734-.954-.788-.968-1.093-.7-.167.188-.235.227-.163-.044-.039-.069-.05-.246-.159-.276-.068.04-.079-.137-.021-.354.033-.34-.021-.355-.253-.36-.246.051-.34-.032-.391-.278-.144-.33-1.25-1.848-1.536-1.867-.109-.029-.203-.112-.174-.221-.09-.315-.768.26-1.576 1.323-.501.564-.794 1.01-.809 1.064a10.614 10.614 0 01-1.096-.469c-3.706-1.807-8.543-1.998-12.889-.544-2.51.899-5.992 2.817-7.573 4.372-.928.857-1.138 1.208-1.425 2.062-.273.8-.063 1.322 1.14 3.564a158.317 158.317 0 011.531 2.971c.831 1.678 1.287 2.149 3.526 3.564 1.498.925 2.62 1.516 4.867 2.467 1.393.665 3.173 1.84 3.289 2.278.245.822-1.377 3.181-3.16 4.624-1.134.976-3.199 2.168-4.804 2.727-1.206.376-2.89.797-3.531.8-.192.065-.655.057-1.01.078-.37.076-.887.054-1.025.133-.764.028-3.497-.413-4.351-.7-.869-.233-1.003-.385-1.892-1.845l-.437-.758-.304.268c-.457.401-.469 1.096-.126 1.77.145.33.701 1.294 1.164 2.174.585.855 1.207 2.01 1.525 2.562.621 1.155 1.106 1.518 2.745 2.132.489.13 1.698.397 2.704.55 2.639.358 4.413.251 6.978-.633 4.415-1.493 8.598-5.377 9.033-8.52.201-1.4-.21-2.907-1.413-5.15-.264-.535-.766-1.485-1.055-2.144-.881-1.924-3.206-4.758-4.049-4.867-.109-.03-.257-.127-.243-.182.004-.232-.955-.78-3.079-1.756-1.719-.751-3.542-1.764-3.513-1.872.062-.45 3.305-2.78 5.106-3.637 1.677-.83 2.376-1.05 3.799-1.367 1.931-.472 3.651-.593 5.12-.432.286.018.587-.018.616-.126 0 0 .109.029.257.127.109.029.366.156.583.214.286.019.322.32.032.532-.069.04-.338.608-.621 1.23-.258.746-.541 1.369-.654 1.571-.112.203-.337.608-.395.825-.222 1.046-.368 1.59-.299 1.55.083-.094.257.127.485.362.228.236.455.471.564.5.054.015.148.099.203.113.01.178 1.128 1 1.4 1.073.054.015.256.128.365.157.188.166.463.007.747-.615l.308-.5-.185.475c-.462 1.505-.411 1.752-.009 1.336.236-.228.236-.228.17.453-.033.34.318.55.351.21.087-.326.383-.13.336.265-.008.463-.008.463.228.235.25-.282.747-1.487.682-1.679-.039-.069-.01-.177.098-.148 0 0 .505-.796.998-1.77.694-1.501 2.896-5.16 4.252-7.181.602-.945.606-1.176.111-1.716zm-22.789 3.611c-.098.148-.236.228-.29.213-.054-.014.029-.108.29-.213.221-.174.221-.174 0 0zm16.251 4.936c-.244.692-.382.771-.57.604-.213-.29-.169-.453.088-.325a.124.124 0 00.206-.12c.029-.108.156-.365.24-.46.152-.133.137-.079.036.301zm.482-1.15c-.127.256-.127.256-.108-.03.044-.163.087-.325.225-.405.014-.054.123-.025.108.03-.029.108-.127.256-.225.404zm.592-1.122c-.167.188-.167.188-.109-.03.03-.108.127-.256.171-.42.152-.133.207-.118.178-.01-.044.163-.102.38-.24.46zm5.412-5.65c-.054-.014-.094-.082-.05-.245.138-.08.167-.188.221-.174 0 0 .025.123-.004.232.011.177-.058.217-.167.188zm13.591-2.933c-.04-.069-.514-.254-.919-.48-.691-.242-.869-.232-1.021-.098-.112.203-.478.047-.608-.337-.104-.261-.159-.276-.365-.157-.207.12-.301.036-.637-.229-.282-.25-.742-.49-1.448-.678l-1.031-.277-.465.865c-.239.46-.733 1.433-1.114 2.204-.272.8-.907 2.084-1.263 2.978-.991 2.178-2.615 6.282-4.87 12.312-.302.908-.672 1.856-.745 2.128-1.769 4.647-4.007 11.262-3.873 11.415.079.137.133.152.148.097.029-.108.054.015.188.167.09.315.199.344.85.52.435.115.898.123 1.13.127.26-.105.355-.021.227.236-.083.094-.014.054.109.029.207-.12.221-.174.102-.38-.065-.192-.036-.3.406-.648.29-.213.62-.358.674-.343.054.015.04.069-.015.054-.123.026-.206.12-.166.188-.015.055-.044.163-.153.134-.054-.014-.123.025-.112.203.04.069-.018.286-.156.365-.207.12-.167.188.036.3.39.28.597.16.692-.628.116-.435.229-.637.283-.623.203.113.534-.904.389-1.234-.025-.123-.011-.177.044-.163.108.03.192-.065.25-.282.044-.163.229-.637.439-.988.171-.42.287-.854.287-.854-.025-.123.044-.163.167-.188.232.004.275-.159.377-.539.019-.286.131-.489.214-.583.124-.025.138-.08.073-.271-.104-.26-.036-.3.236-.228.054.015.108.03.138-.08.029-.108-.026-.123-.134-.152-.055-.014-.065-.192.072-.271.059-.217.182-.242.182-.242.108.029.196-.297.268-.569.157-.365.385-1.002.585-1.53.2-.529.429-1.166.502-1.437.087-.326.199-.529.199-.529.217.059.126.616-.182 1.115-.142.312-.443 1.22-.73 2.074-.233.869-.56 1.654-.574 1.708-.069.04-.127.257-.102.38.025.123-.073.272-.211.351-.152.134-.127.257.007.41.188.166.188.166-.044.162-.162-.043-.192.065-.468 1.097-.313 1.603-.288 1.727-.165 1.701.109.03.134.153.09.316-.043.162-.131.488-.12.665-.004.232-.091.558-.258.746-.058.217-.102.38-.062.449.04.069-.004.232-.185.474-.294.445-.229.637.1.493.276-.16.668-.753.421-.702-.054-.015-.108-.03-.079-.138.014-.054.083-.094.138-.08.054.015.181-.242.199-.528.073-.271.215-.583.283-.622.222-.174.425-.934.233-.869-.137.08-.079-.138.171-.42.098-.148.225-.405.283-.622.113-.203.254-.514.367-.717.098-.148.326-.785.541-1.368.214-.582.414-1.11.483-1.15.029-.109.029-.109-.08-.138-.108-.03-.079-.138.058-.217.153-.134.28-.39.723-1.61.029-.11.167-.189.221-.174.054.014.094.083.025.123-.015.054-.283.623-.458 1.274-.268.568-.599 1.585-.813 2.168-.2.528-.527 1.313-.658 1.802a21.8 21.8 0 01-.876 2.617c-.239.46-.268.568-.091.557.123-.025.305-.267.407-.647.072-.272.228-.637.326-.786.084-.094.142-.31.171-.42.015-.054.116-.434.243-.69.142-.312.425-.934.556-1.423.185-.474.912-2.316 1.623-4.104.727-1.842 1.424-3.575 1.497-3.847.356-.894 2.004-4.874 2.443-5.862.483-1.151 2.034-4.983 2.35-5.946 1.282-3.265 2.224-6.562 2.025-6.906zM128.478 61.63c.127-.257.167-.189.051.246-.073.271-.2.528-.309.499-.108-.03.008-.463.258-.745zm-1.29 3.727c-.137.08-.123.025.004-.231.098-.149.167-.189.192-.066-.029.11-.058.218-.196.297zm.509-1.028c-.345.2-.345.2-.218-.058.138-.08.211-.35.254-.514.059-.217.113-.202.124-.025.025.123.05.247.09.315.039.07-.044.163-.25.282zm4.652-9.11c.048-.395.306-1.14.36-1.126.054.014.221-.174.294-.445.112-.203.054.014-.16.597-.248.923-.487 1.382-.494.973zm-1.732 7.333c-.109-.03-.148-.098-.119-.207.029-.108.083-.094.177-.01.04.068.08.137.065.191 0 0-.069.04-.123.026zm.276-1.032c-.123.025-.163-.044-.148-.098.029-.108.112-.202.221-.173.069-.04.123-.026.109.029a.429.429 0 01-.182.242zm2.658-8.831l-.196.297-.022-.355c.008-.464.342-.84.363-.485a.962.962 0 01-.145.543zm.628-1.694c-.171.42-.327.786-.396.825-.137.08.32-1.194.487-1.382.113-.203.109.029-.091.557zm-.964 7.074c-.109-.03.12-.666.326-.786 0 0 .026.124-.047.395-.058.217-.171.42-.279.39zm.453-1.042c-.054-.015-.079-.138-.01-.178.083-.094.152-.134.206-.12 0 0 .04.07.011.178-.015.055-.098.149-.207.12zm.454-1.043c-.192.065-.09-.315.175-.651.181-.242.167-.188.079.138-.018.286-.185.474-.254.513zm.523-1.082a.43.43 0 01-.301.036c-.162-.043-.079-.137.153-.134.123-.025.231.004.148.098zm-5.415 10.653c.054.015.138-.08.182-.242.043-.163.018-.286-.036-.3-.055-.015-.138.079-.182.242-.043.163-.018.286.036.3zm-1.523 7.855c-.108-.029-.257-.127-.296-.196-.025-.123-.391-.279-.756-.435-.598-.16-.667-.12-.71.043-.073.271-.127.256-.355.02-.134-.151-.322-.318-.362-.387.029-.109-.242-.181-.488-.131-.272-.073-.435-.116-.42-.17.044-.163-1.132-.77-2.081-1.14-.651-.175-.868-.233-1.089-.06-.29.214-.896 1.39-1.677 3.218-.283.622-.751 1.718-1.049 2.395-.498 1.205-.512 1.26-.313 1.604.198.344.415.402 2.261.897 1.615.49 2.118.567 2.216.419.29-.214.611.105.43.348-.098.148-.058.217.065.192.123-.025.192-.065.221-.174.019-.286.33-.144.351.21-.018.287.604.57.623.284.029-.109.112-.203.166-.188.109.029.08.137.036.3-.141.311.13.384.38.102.098-.148.577-1.067 1.071-2.04.439-.989 1.103-2.382 1.495-2.975.65-1.339.73-2.074.281-2.136zm-3.414 2.751c-.123.026-.162-.043-.148-.098.015-.054.098-.148.221-.173.069-.04.109.029.094.083a.423.423 0 01-.167.188zm3.233-2.508c-.163-.044-.217-.059-.094-.084.123-.025.232.004.271.073.04.069-.029.108-.177.01zm1.015-6.828c.065.192.021.355-.048.395-.069.04-.083.094.025.123.109.029.221-.174.265-.337.058-.217.146-.542.244-.69.097-.15.101-.38.007-.464-.054-.015-.108-.03-.014.054-.015.054-.058.217-.211.351-.29.213-.333.376-.268.568z" fill="#DCDCDC"/></svg>