<svg width="28" height="35" fill="none" xmlns="http://www.w3.org/2000/svg"><path d="M4.178 4.191V.598c0-.217.176-.393.393-.393h6.902c.217 0 .393.176.393.393v3.593a.393.393 0 01-.393.393H4.57a.393.393 0 01-.393-.393zm22.77 13.13c.388.388.606.914.606 1.463v13.91a2.072 2.072 0 01-2.07 2.071H2.867a2.07 2.07 0 01-2.07-2.07V8.804a2.072 2.072 0 012.07-2.07h12.636c.55 0 1.076.217 1.464.606l9.98 9.98zm-8.398 8.4c-.393-2.94-2.991-4.85-4.068-8.3a.317.317 0 00-.604.001c-1.167 3.735-4.118 5.666-4.118 9.054a4.42 4.42 0 004.382 4.42 4.506 4.506 0 004.408-5.176zm-4.888 2.328a3.315 3.315 0 01-1.885-2.983c0-.308.03-.617.09-.92a4.975 4.975 0 00-.633 2.331 2.953 2.953 0 001.915 2.759.647.647 0 00.513-1.187z" fill="#31DDA4"/></svg>