<svg width="40" height="36" fill="none" xmlns="http://www.w3.org/2000/svg"><path d="M10.369 34.007c2.773-3.688 8.648-11.028 11.432-14.712l2.84-3.764-1.712-1.422-1.688-1.45-3.237 3.429c-3.167 3.36-9.421 10.38-12.593 13.73-.799.842-1.197 1.916-1.123 3.02.124 1.856 1.453 2.967 3.29 2.78 1.101-.111 2.094-.684 2.791-1.612zM38.957 12.39c-.42-.357-.846-.713-1.272-1.07-.474-.397-.949-.8-1.418-1.199a.662.662 0 00-.528-.171c-.11.008-1.101.109-1.377.135l-.085.006c-.993.076-1.506-.365-1.604-1.382l-.03-.255a7.521 7.521 0 01-.056-.672c-.007-.297-.13-.52-.411-.766A369.08 369.08 0 0127.35 2.75a8.076 8.076 0 00-2.493-1.532C22.728.36 20.72.165 18.715.61a9.254 9.254 0 00-2.797 1.115c-.48.288-.288 1.037.272 1.044a8.396 8.396 0 012.984.566c2.16.846 3.499 2.672 3.58 4.88a6.522 6.522 0 01-.625 3c.637.542 1.285 1.099 1.922 1.646.545.464 1.074.923 1.566 1.345.563-.614.696-.734.806-.813.69-.476 1.51-.59 2.203-.304.224.094.446.234.657.414.953.796 1.2 1.913.673 3.008l.661.54a96.46 96.46 0 002.72 2.185c.133.101.244.158.314.153.035-.002.144-.031.352-.218l4.001-4.664 1.051-1.311c.21-.27.27-.496-.098-.806zM3.18 9.726a.161.161 0 00.046-.046l.01-.015a.629.629 0 00.036-.056l.07-.104.293-.45.4-.609.43-.658.39-.594.271-.416c.054-.082.108-.165.11-.266a.344.344 0 00-.157-.296c-.063-.039-.126-.077-.188-.117l-1.94-1.246-1.556-1-.382-.244a.168.168 0 00-.258.14l-.006.456c-.002.12-.005.233-.01.342-.008.238-.016.463.002.694.15 1.89.686 3.367 1.592 4.389l.062.069.008.007.01.015c.19.214.527.222.753.02l.014-.015z" fill="#31DDA4"/><path d="M16.81 14.96a424.412 424.412 0 00-3.91 4.244c-1.258-1.662-2.658-3.193-4.468-4.26a8.64 8.64 0 00-3.861-1.153c-.662-.033-1.553-.028-1.92-.7-.262-.465.334-.958.57-1.313.601-.908 1.191-1.81 1.788-2.713.853-1.29 1.711-2.581 2.565-3.872-.34-.24-1.51-.99-1.877-1.23-.946-.607-1.925-1.247-2.75-2.007l-.039-.038a.517.517 0 01-.098-.52c.109-.284.393-.432 1.224-.645C4.472.64 4.937.545 5.046.53a11.53 11.53 0 012.56-.033c1.329.147 3.193.628 4.545 2.15l.055.07a6.57 6.57 0 011.487 3.096c.203 1.088-.186 2.177-.076 3.276.087.903.371 1.761.803 2.554.65 1.203 1.57 2.21 2.5 3.205l-.11.114zm13.896 17.266c-.366 2.089-2.072 3.435-4.243 3.336-1.296-.06-2.406-.645-3.123-1.652-.618-.864-1.23-1.728-1.848-2.597-1.105-1.559-2.21-3.112-3.314-4.671a659.136 659.136 0 004.353-5.595 757.135 757.135 0 007.213 7.837c.842.903 1.186 2.09.962 3.342z" fill="#31DDA4"/></svg>