<svg width="17" height="36" fill="none" xmlns="http://www.w3.org/2000/svg"><path d="M.602 14.593c0 .308.164.598.433.75l4.637 2.647a1.729 1.729 0 01.827 1.898L5.1 25.96a9.535 9.535 0 001.53 7.683l1.105 1.547a.824.824 0 00.668.343.82.82 0 00.662-.343l1.105-1.547a9.536 9.536 0 001.53-7.683l-1.4-6.07a1.726 1.726 0 01.833-1.898l4.632-2.648a.867.867 0 00.438-.75v-1.161H.602v1.161zm7.8 14.438a.866.866 0 110 1.733.866.866 0 010-1.733zm5.776-20.664a2.148 2.148 0 01-1.664-.78l-.893-1.07a.43.43 0 00-.333-.156.442.442 0 00-.334.156l-.888 1.07a2.154 2.154 0 01-1.664.78 2.149 2.149 0 01-1.664-.78l-.893-1.07a.436.436 0 00-.667 0l-.893 1.07a2.148 2.148 0 01-1.664.78 2.149 2.149 0 01-1.664-.78l-.355-.429V11.7h15.6V7.158l-.36.43a2.148 2.148 0 01-1.664.78z" fill="#31DDA4"/><path d="M15.335.002H1.468c-.48 0-.866.39-.866.867v3.583l.26.317L2.287 6.48a.44.44 0 00.334.156.43.43 0 00.334-.156l.892-1.07c.247-.295.564-.511.915-.641.238-.087.49-.139.75-.139s.51.052.749.139c.35.13.667.346.914.641l.893 1.07a.416.416 0 00.334.156.414.414 0 00.329-.156l.893-1.07c.247-.295.563-.511.914-.641.238-.087.49-.139.75-.139s.515.052.75.139c.355.13.666.346.913.641l.893 1.07a.416.416 0 00.334.156.42.42 0 00.333-.156l1.426-1.711.264-.317V.87a.87.87 0 00-.866-.867z" fill="#31DDA4"/></svg>