<svg width="48" height="48" fill="none" xmlns="http://www.w3.org/2000/svg"><path d="M33.606 17.975a3.6 3.6 0 11-7.2 0 3.6 3.6 0 017.2 0zm-12 12a3.6 3.6 0 11-7.2 0 3.6 3.6 0 017.2 0z" fill="#31DDA4"/><path d="M24.84 32.233a1.653 1.653 0 00-.462-1.406l-1.656-1.656c.044.262.08.526.08.8a4.8 4.8 0 11-4.8-4.8c.275 0 .54.036.8.08l-1.655-1.656a1.634 1.634 0 00-1.162-.478 1.85 1.85 0 00-.253.017c-.668.104-1.279.154-1.856.154-1.47 0-2.755-.334-3.897-1.015-.067.069-.141.129-.192.215l-2.421 4.157a1.204 1.204 0 00.44 1.646l1.76 1.008a7.878 7.878 0 000 1.344l-1.76 1.008a1.198 1.198 0 00-.44 1.646l2.421 4.156a1.2 1.2 0 001.633.438l1.775-1.015a8.74 8.74 0 001.208.682v2.013a1.2 1.2 0 001.2 1.2h4.8a1.2 1.2 0 001.2-1.2v-2.013a8.65 8.65 0 001.207-.682l1.775 1.015c.35.2.75.185 1.09.028-1.175-2.044-1.065-4.17-.834-5.686zM23.163 15.71a1.653 1.653 0 00.462 1.405l1.656 1.656a4.76 4.76 0 01-.08-.8 4.8 4.8 0 114.8 4.8c-.275 0-.54-.036-.8-.08l1.656 1.657a1.626 1.626 0 001.409.46 12.252 12.252 0 011.862-.153c1.47 0 2.755.334 3.897 1.014.067-.068.14-.129.19-.215l2.422-4.157a1.204 1.204 0 00-.441-1.645l-1.76-1.008a7.898 7.898 0 000-1.345l1.76-1.008a1.198 1.198 0 00.441-1.645l-2.422-4.157a1.2 1.2 0 00-1.633-.437l-1.774 1.016a8.67 8.67 0 00-1.208-.683V8.372a1.2 1.2 0 00-1.2-1.2h-4.8a1.2 1.2 0 00-1.2 1.2v2.013a8.653 8.653 0 00-1.207.683l-1.775-1.016c-.35-.2-.75-.184-1.09-.028 1.175 2.044 1.065 4.17.835 5.686z" fill="#31DDA4"/><path d="M39.037 28.047a27.53 27.53 0 00-.71-.684c-1.17-1.015-2.544-1.508-4.197-1.508-.513 0-1.065.046-1.686.14a2.832 2.832 0 01-2.433-.799l-7.231-7.233a2.855 2.855 0 01-.8-2.434c.258-1.705.337-3.915-1.368-5.884-.1-.116-.585-.61-.695-.72a5.95 5.95 0 00-4.235-1.753 6.02 6.02 0 00-2.678.633 1.198 1.198 0 00-.311 1.922l2.608 2.608c-.457 1.528-1.406 2.478-2.934 2.935L9.76 12.66a1.2 1.2 0 00-1.922.312 5.985 5.985 0 001.132 6.923c.098.1.593.584.71.685 1.17 1.015 2.544 1.508 4.196 1.508.514 0 1.066-.046 1.686-.14a2.841 2.841 0 012.434.799l7.231 7.232c.635.636.934 1.546.8 2.434-.259 1.706-.337 3.916 1.368 5.885.1.116.585.61.695.72a5.948 5.948 0 004.235 1.753c.924 0 1.85-.22 2.677-.633a1.199 1.199 0 00.312-1.922l-2.609-2.609c.457-1.528 1.407-2.477 2.934-2.934l2.609 2.609a1.199 1.199 0 001.922-.311 5.984 5.984 0 00-1.132-6.925z" fill="#31DDA4"/></svg>