<svg width="16" height="18" fill="none" xmlns="http://www.w3.org/2000/svg"><path d="M7.495 5.148a.233.233 0 00.3-.183C7.95 4.068 8.258 1.08 5.7.16a3.327 3.327 0 00-.567-.148h-.007a.66.66 0 00-.775.586c-.114 1.271.129 3.593 3.145 4.55zm1.042.192c.058.009.122-.012.147-.064.869-1.8 2.57-2.024 2.942-2.161a1.78 1.78 0 00.268-.119c.606-.344.605-.917.517-1.303a.41.41 0 00-.512-.302c-3.148.914-3.47 3.2-3.493 3.791a.153.153 0 00.131.158z" fill="#D3D3D3"/><path d="M13.54 5.56s-1.935-1.3-4.202.087l-.204.113a1.967 1.967 0 01-1.9 0l-.205-.113c-2.267-1.386-4.202-.086-4.202-.086-3.493 2.286-1.419 7.329-1.419 7.329 1.569 3.58 3.755 4.66 4.784 4.98a1.55 1.55 0 001.004-.03l.485-.181a1.431 1.431 0 011.006 0l.484.182c.323.12.676.131 1.005.029 1.028-.32 3.215-1.4 4.784-4.98 0 0 2.074-5.043-1.42-7.33zM4.055 7.983c-.484.576-.875 1.044-1.246.733-.37-.312-.443-1.169.041-1.745.484-.576 1.34-.652 1.711-.341.37.311-.022.777-.506 1.353z" fill="#D3D3D3"/></svg>