<svg width="20" height="18" fill="none" xmlns="http://www.w3.org/2000/svg"><path d="M5.185 17.002c1.387-1.843 4.325-5.514 5.716-7.355l1.42-1.883-.855-.71-.845-.726-1.618 1.715c-1.584 1.68-4.71 5.19-6.297 6.865a1.99 1.99 0 00-.561 1.51c.062.928.727 1.484 1.645 1.39a1.99 1.99 0 001.396-.806zm14.3-10.809c-.21-.178-.424-.357-.636-.535-.238-.199-.475-.4-.71-.6a.331.331 0 00-.263-.085c-.056.004-.551.054-.69.067l-.042.004c-.496.038-.753-.183-.802-.691l-.014-.128a3.817 3.817 0 01-.029-.336c-.003-.148-.065-.26-.205-.383-.72-.627-1.568-1.37-2.413-2.133a4.037 4.037 0 00-1.246-.766C11.37.178 10.366.081 9.364.303c-.496.11-.959.293-1.4.557-.24.145-.143.519.137.523a4.197 4.197 0 011.492.283c1.08.422 1.75 1.336 1.79 2.44a3.262 3.262 0 01-.312 1.5c.318.27.642.549.96.823.273.231.537.461.783.672.282-.307.348-.367.403-.407.346-.238.755-.294 1.102-.151.112.047.223.116.328.207.477.398.6.956.337 1.503l.33.27c.442.366.902.742 1.36 1.093.067.05.122.08.157.077.018-.002.073-.016.176-.11l2-2.331.526-.656c.106-.135.135-.248-.049-.403zM1.592 4.861a.08.08 0 00.023-.023l.005-.007a.315.315 0 00.018-.028l.034-.053.148-.224.2-.305.215-.33.194-.296.136-.208c.027-.04.054-.083.054-.133a.172.172 0 00-.078-.148c-.03-.02-.063-.038-.093-.058l-.97-.623-.779-.5-.19-.123a.084.084 0 00-.13.07L.377 2.1a7.2 7.2 0 01-.004.171c-.004.12-.008.232 0 .348.075.945.343 1.683.797 2.194l.03.034.005.004.005.007a.264.264 0 00.376.01l.007-.007z" fill="#D3D3D3"/><path d="M8.409 7.48c-.52.552-1.214 1.31-1.955 2.121-.629-.831-1.33-1.597-2.234-2.13a4.32 4.32 0 00-1.93-.577c-.331-.016-.777-.013-.96-.35-.132-.232.166-.478.284-.656.301-.454.596-.905.894-1.356l1.283-1.936c-.17-.12-.755-.495-.938-.615-.474-.304-.963-.624-1.376-1.004l-.019-.02a.258.258 0 01-.05-.259c.055-.142.198-.216.613-.322.219-.058.451-.104.506-.113.446-.051.875-.06 1.28-.016C4.47.32 5.404.56 6.079 1.322l.028.035c.377.438.64.976.744 1.548.1.544-.093 1.088-.039 1.638.044.451.186.88.402 1.277.325.602.785 1.105 1.25 1.602l-.055.057zm6.949 8.633c-.183 1.044-1.036 1.717-2.122 1.668-.648-.03-1.203-.323-1.56-.826-.31-.432-.616-.864-.925-1.299l-1.657-2.335a326.38 326.38 0 002.177-2.798 377.977 377.977 0 003.606 3.919c.42.452.593 1.045.481 1.671z" fill="#D3D3D3"/></svg>