<svg width="14" height="18" fill="none" xmlns="http://www.w3.org/2000/svg"><path d="M2.089 2.595V.798c0-.108.088-.196.197-.196h3.45c.109 0 .197.088.197.196v1.797a.197.197 0 01-.197.196h-3.45a.197.197 0 01-.197-.196zm11.385 6.564c.194.194.303.458.303.732v6.955a1.036 1.036 0 01-1.035 1.036H1.434a1.035 1.035 0 01-1.036-1.036V4.901a1.036 1.036 0 011.036-1.035h6.318c.274 0 .538.109.732.303l4.99 4.99zm-4.2 4.2c-.195-1.47-1.495-2.425-2.033-4.15a.158.158 0 00-.302.001c-.583 1.868-2.059 2.833-2.059 4.527a2.21 2.21 0 002.19 2.21 2.253 2.253 0 002.205-2.588zm-2.443 1.165a1.657 1.657 0 01-.942-1.492c0-.154.015-.308.045-.46-.2.357-.309.757-.317 1.166a1.477 1.477 0 00.958 1.379.324.324 0 00.256-.594z" fill="#D3D3D3"/></svg>