<svg width="18" height="18" fill="none" xmlns="http://www.w3.org/2000/svg"><path d="M13.803 5.987a1.8 1.8 0 11-3.6 0 1.8 1.8 0 013.6 0zm-6 6.001a1.8 1.8 0 11-3.6 0 1.8 1.8 0 013.6 0z" fill="#D3D3D3"/><path d="M9.42 13.12a.827.827 0 00-.231-.702l-.828-.828c.022.13.04.262.04.4a2.4 2.4 0 11-2.4-2.4c.137 0 .27.018.4.04l-.828-.83a.817.817 0 00-.707-.23c-.334.052-.64.077-.928.077-.735 0-1.378-.167-1.949-.507-.033.034-.07.064-.095.107l-1.211 2.08a.602.602 0 00.22.822l.88.504a3.934 3.934 0 000 .673l-.88.504a.599.599 0 00-.22.822l1.21 2.079a.6.6 0 00.817.218l.888-.507c.189.128.392.242.603.34v1.007a.6.6 0 00.6.6h2.4a.6.6 0 00.6-.6v-1.006a4.32 4.32 0 00.604-.341l.888.507a.59.59 0 00.545.015c-.588-1.023-.533-2.086-.418-2.844zm-.839-8.265a.827.827 0 00.232.703l.827.827a2.38 2.38 0 01-.04-.4 2.4 2.4 0 112.4 2.4 2.38 2.38 0 01-.4-.04l.829.829a.813.813 0 00.704.23c.337-.051.642-.077.93-.077.736 0 1.378.167 1.95.508.033-.035.07-.065.095-.108l1.21-2.078a.602.602 0 00-.22-.823l-.88-.504a3.909 3.909 0 000-.672l.88-.504a.599.599 0 00.22-.823l-1.21-2.078a.6.6 0 00-.817-.22l-.887.509a4.334 4.334 0 00-.604-.342V1.186a.6.6 0 00-.6-.6h-2.4a.6.6 0 00-.6.6v1.006a4.323 4.323 0 00-.604.342l-.887-.508a.59.59 0 00-.545-.014c.587 1.022.533 2.085.417 2.843z" fill="#D3D3D3"/><path d="M16.518 11.024c-.049-.05-.296-.292-.355-.342-.585-.508-1.272-.755-2.098-.755a5.57 5.57 0 00-.843.07 1.416 1.416 0 01-1.217-.399L8.39 5.982a1.428 1.428 0 01-.4-1.217c.13-.853.168-1.958-.684-2.942a14.38 14.38 0 00-.347-.36A2.975 2.975 0 004.84.586c-.462 0-.925.11-1.339.316a.6.6 0 00-.155.961L4.65 3.168c-.229.764-.703 1.238-1.467 1.467L1.879 3.33a.6.6 0 00-.96.156 2.992 2.992 0 00.565 3.461c.05.05.297.292.356.342.585.508 1.271.754 2.098.754.256 0 .532-.022.843-.07a1.42 1.42 0 011.217.4l3.615 3.616c.318.318.467.773.4 1.217-.13.853-.169 1.958.684 2.942.05.058.292.305.347.36a2.974 2.974 0 002.118.877c.462 0 .925-.11 1.339-.316a.6.6 0 00.155-.961l-1.304-1.305c.229-.764.703-1.239 1.467-1.467l1.304 1.304a.6.6 0 00.961-.156 2.992 2.992 0 00-.566-3.461z" fill="#D3D3D3"/></svg>