<svg width="24" height="25" fill="none" xmlns="http://www.w3.org/2000/svg"><path d="M11.986 24.043c-2.897 0-5.795.002-8.692-.001a3.25 3.25 0 01-3.215-2.588 3.365 3.365 0 01-.075-.72C0 14.94 0 9.145.002 3.352c0-1.858 1.44-3.303 3.295-3.304 5.802-.004 11.605-.004 17.408 0 1.842.001 3.29 1.443 3.291 3.283.005 5.81.005 11.62 0 17.43-.002 1.838-1.45 3.278-3.295 3.282-2.906.004-5.81 0-8.716 0h.001zm.796-13.396c0-.21.005-.418 0-.628-.011-.35-.178-.517-.525-.52a247.34 247.34 0 00-2.11 0c-.375.003-.537.17-.537.551v8.929c0 .399.169.563.576.563h1.922c.529 0 .664-.134.664-.665 0-1.5-.003-3 .002-4.5.002-.572.125-1.117.441-1.602.386-.592.953-.775 1.626-.685.616.083 1.03.445 1.174 1.03.12.486.175.999.183 1.5.023 1.445.005 2.89.006 4.335 0 .425.159.582.578.583.696.001 1.39.002 2.086 0 .417 0 .582-.166.582-.584 0-1.633.02-3.265-.015-4.897a10.93 10.93 0 00-.23-2.065c-.268-1.243-.96-2.164-2.25-2.503a4.862 4.862 0 00-2.458.006c-.702.177-1.251.58-1.715 1.153zM5.015 14.53v4.38c0 .457.176.631.64.632h1.874c.476 0 .653-.173.653-.646v-8.759c0-.467-.172-.64-.632-.643-.632-.003-1.264-.003-1.897 0-.467.002-.638.173-.638.634v4.403-.001zm3.622-7.936a2.04 2.04 0 00-2.006-2.05 2.051 2.051 0 00-2.08 2.028A2.043 2.043 0 006.573 8.63a2.03 2.03 0 002.063-2.034v-.001z" fill="#EB5B31"/></svg>