<svg width="109" height="39" fill="none" xmlns="http://www.w3.org/2000/svg"><path d="M35.495 0H2.931C1.312 0 0 1.332 0 2.974v33.052C0 37.668 1.312 39 2.93 39h32.565c1.619 0 2.93-1.332 2.93-2.974V2.974c0-1.642-1.311-2.974-2.93-2.974z" fill="#fff"/><path fill-rule="evenodd" clip-rule="evenodd" d="M27.95 6.448c-1.678 1.818-3.334 1.513-5.517.876-.4-.142-.84-.276-1.255-.43-1.255-.462-2.595-1.05-3.91-1.282-4.062-.714-4.798 3.652-6.557 6.42-1.047 1.623-3.31 3.883-5.13 4.366-.735.195-1.175-.317-.631-.921.304-.316.627-.61.967-.885 1.3-1.083.94-2.216-.132-2.382a3.128 3.128 0 00-1.506.22c-.477.197-.9.508-1.232.908a3.265 3.265 0 00-.632 2.93c.264-.852 1.383-1.116 1.671-1.968a1.012 1.012 0 00-.312-1.108c1.747-1.132 2.671-.17 2.08.515-.424.491-1.248.995-1.736 1.591-1.063 1.299.264 3.011 2.57 1.964-.065.427-.077.86-.035 1.29a3.978 3.978 0 01-.274 2.036 3.902 3.902 0 01-1.25 1.616 7.023 7.023 0 01-.36 4.083 3.284 3.284 0 001.28 2.029c.547-1.596.771-3.286.66-4.971 1.843-.674 4.754-1.794 5.034-4.058.095-.065.227-.187.263-.215a18.49 18.49 0 013.667-2.325 3.276 3.276 0 01-.624-.662c1.247.508 3.998-.718 5.098-1.193.175.905.335 1.806-.604 2.28l-.048.053a2.323 2.323 0 000 1.758l.104-.065c1.347-.812 2.359-1.555 2.13-3.316l-.147-3.035-.4-.406c-.403.11-.818.168-1.235.175a9.935 9.935 0 001.307-.463c.7.763 1.2 1.307 1.563 2.338.833.148 1.69.037 2.46-.321l-.429-4.464c1.424-.267 2.903-1.205 3.103-2.978zm-4.041 6.96a6.096 6.096 0 00-1.384-2.922 4 4 0 01.172 1.298c-.687-1.266-2.187-2.216-2.135-3.567a1.755 1.755 0 00-.372 1.299 4.821 4.821 0 01-3.31-.406c.065.44.236.858.496 1.217a1.996 1.996 0 01-.986-.629 2.043 2.043 0 01-.474-1.08c-.543 1.758.7 3.478 2.072 4.107a4.559 4.559 0 002.826.256c-1.795 1.262-5.43 2.719-7.376.166-.014.675.16 1.34.5 1.92a12.061 12.061 0 00-2.907 2.114 3.324 3.324 0 00-1.008-.93c1.028 2.03-.108 3.738-.711 4.375.233-.528.35-1.101.344-1.68-.46 1.31-2.12 2.597-3.275 2.995.844-.812 1.136-1.595 1.1-2.893 0-.678-.14-1.413.104-2.066.203-.487.509-.923.895-1.278a14.128 14.128 0 002.99-3.332 5.65 5.65 0 01-.027.938c1.2-1.895 1.323-5.004 3.43-6.469a2.945 2.945 0 012.275-.405c.881.182 1.745.445 2.579.787l.216.081c.331.13.66.26.98.377.419.155.85.297 1.279.439h.027l.244.069c.165.307.393.575.67.786.275.21.592.357.93.431l.375 3.908c-.174.04-.35.072-.527.093h-.012z" fill="#B8860B"/><path d="M30.645 10.526l.855.852-11.702 11.443-2.647-2.706-.224-.223-.456.43L4.545 32.24l1.067.11 11.279-11.196 2.823 2.873.531-.48.24-.235 11.61-11.345.764.755 1.02-3.158-3.234.962zM17.436 27.829h-1.643v4.897h1.643V27.83zm3.285-2.804h-1.643v7.702h1.643v-7.702zm3.291-2.095H22.37v9.796h1.643v-9.795zm-9.867 6.81h-1.643v2.986h1.643V29.74zm13.158-10.242H25.66v13.229h1.643V19.498zm3.285-3.076h-1.643v16.309h1.643V16.422zm3.292-3.019h-1.644v18.95h1.644v-18.95z" fill="#B8860B"/><path d="M57.937 16.049a7.967 7.967 0 01-2.687 1.546 9.856 9.856 0 01-6.285 0 8.277 8.277 0 01-2.674-1.502 7.451 7.451 0 01-1.864-2.434 7.363 7.363 0 01-.7-3.27 7.157 7.157 0 01.712-3.247 7.286 7.286 0 011.904-2.394 8.247 8.247 0 012.686-1.477c1-.332 2.046-.5 3.099-.5 1.032-.002 2.06.152 3.046.46a8.52 8.52 0 012.663 1.35l-1.899 2.224a6.128 6.128 0 00-1.795-.848 7.169 7.169 0 00-2-.292 6.83 6.83 0 00-1.998.292 5.423 5.423 0 00-1.732.876 4.25 4.25 0 00-1.199 1.49 4.743 4.743 0 00-.452 2.13 4.552 4.552 0 00.464 2.118c.3.578.721 1.081 1.236 1.473a5.4 5.4 0 001.743.877 6.868 6.868 0 001.999.292 6.203 6.203 0 002.99-.75v-2.31H53.74l-1.2-2.702h5.398v6.598zm20.089-5.734a7.342 7.342 0 01-.716 3.287 7.662 7.662 0 01-1.879 2.434 8.253 8.253 0 01-2.694 1.534 9.705 9.705 0 01-6.277 0 8.213 8.213 0 01-2.68-1.501 7.423 7.423 0 01-1.87-2.435 7.417 7.417 0 01-.7-3.27 7.158 7.158 0 01.716-3.247 7.286 7.286 0 011.895-2.394 8.282 8.282 0 012.695-1.477 9.817 9.817 0 013.102-.499c1.057 0 2.108.158 3.119.47a8.076 8.076 0 012.694 1.421 6.993 6.993 0 011.951 2.517c.45.98.67 2.054.644 3.136v.024zm-2.99.028a4.227 4.227 0 00-.416-1.975 4.16 4.16 0 00-1.28-1.547 5.164 5.164 0 00-1.739-.836 7.586 7.586 0 00-1.999-.264c-.676 0-1.349.094-1.999.28a4.968 4.968 0 00-1.723.86 4.51 4.51 0 00-1.286 1.59 4.58 4.58 0 000 4.004 4.51 4.51 0 001.286 1.59 5.233 5.233 0 001.739.864c.65.186 1.323.28 1.999.28a6.288 6.288 0 001.971-.321 5.604 5.604 0 001.723-.933 4.633 4.633 0 001.232-1.518c.326-.64.495-1.352.491-2.074zm6.665 7.321V3.242h2.939v11.529h7.54v2.893H81.701zM93.004 3.242h8.796a8.935 8.935 0 012.918.459 6.16 6.16 0 012.279 1.367 6.154 6.154 0 011.468 2.228c.363.973.54 2.007.519 3.047a8.639 8.639 0 01-.507 3.036 6.397 6.397 0 01-1.452 2.309 6.42 6.42 0 01-2.279 1.46 8.07 8.07 0 01-2.946.516h-5.778V6.11h-1.755l-1.263-2.869zM99 6.112v8.659h2.799c1.363 0 2.423-.382 3.166-1.145.744-.763 1.124-1.834 1.124-3.226s-.376-2.48-1.124-3.205c-.747-.727-1.803-1.084-3.166-1.084H99zM59.565 31.274c0 1.45-.444 2.563-1.332 3.34-.887.776-2.127 1.165-3.718 1.168H45.79V21.36h8.724a4.7 4.7 0 011.66.293 4.12 4.12 0 011.37.835c.393.36.71.797.936 1.283.233.52.35 1.085.34 1.655a4.47 4.47 0 01-.204 1.364 2.54 2.54 0 01-.728 1.116c.547.323.982.809 1.248 1.392a4.52 4.52 0 01.428 1.976zm-10.947-3.758a5.193 5.193 0 012.07-.698c.789-.094 1.582-.14 2.375-.138h1.452c.951 0 1.427-.418 1.427-1.254a1.064 1.064 0 00-.4-.892c-.3-.214-.66-.321-1.027-.305h-5.897v3.287zm0 5.373h5.897c.28 0 .56-.023.835-.07.247-.039.484-.124.7-.25.205-.123.375-.296.496-.504.139-.26.205-.553.192-.848A1.439 1.439 0 0056.214 30a2.766 2.766 0 00-1.7-.406h-1.45c-.66 0-1.2 0-1.636.04-.435.041-.8.073-1.111.126-.29.052-.575.137-.848.252-.256.113-.54.251-.851.406v2.47zm21.476 3.339a9.858 9.858 0 01-2.73-.36 6.17 6.17 0 01-2.167-1.1 4.887 4.887 0 01-1.424-1.895 6.738 6.738 0 01-.507-2.74V21.36h2.822v8.773a3.605 3.605 0 00.288 1.53c.182.398.467.739.824.986.385.264.819.445 1.275.532a8.875 8.875 0 003.295 0c.456-.088.89-.268 1.275-.532.348-.25.624-.59.8-.986a3.606 3.606 0 00.292-1.53V21.36h2.822v8.773c.023.94-.15 1.873-.508 2.74a4.889 4.889 0 01-1.403 1.903 6.17 6.17 0 01-2.167 1.1 9.845 9.845 0 01-2.73.36l-.056-.008zm12.206-.446V21.36h2.935v11.53h7.545v2.893H82.3zm13.618 0V21.36h2.935v11.53h7.544v2.893H95.918z" fill="#fff"/></svg>