<svg width="16" height="16" fill="none" xmlns="http://www.w3.org/2000/svg"><path d="M9.757.188H5.624v.009C2.607.388.204 3.824.204 8.035c0 4.212 2.403 7.647 5.42 7.839v.01h4.133c3.14 0 5.686-3.514 5.686-7.848S12.897.188 9.757.188zm.24 13.749c-2.269 0-4.107-2.642-4.107-5.902 0-3.26 1.838-5.902 4.107-5.902 2.268 0 4.107 2.642 4.107 5.902 0 3.26-1.838 5.902-4.107 5.902z" fill="#D3D3D3"/><path d="M9.047 2.813c-1.482 0-2.899 2.337-2.899 5.22 0 2.884 1.417 5.221 2.899 5.221 1.481 0 2.682-2.337 2.682-5.22 0-2.884-1.2-5.222-2.682-5.222z" fill="#D3D3D3"/></svg>