<svg width="9" height="18" fill="none" xmlns="http://www.w3.org/2000/svg"><path d="M.797 7.3a.43.43 0 00.217.374l2.318 1.324c.334.193.5.572.414.949l-.7 3.036a4.767 4.767 0 00.765 3.841l.552.773a.412.412 0 00.334.172.41.41 0 00.331-.171l.553-.774a4.768 4.768 0 00.765-3.842l-.7-3.035a.863.863 0 01.416-.949l2.316-1.324a.433.433 0 00.219-.374v-.581h-7.8v.58zm3.9 7.219a.433.433 0 110 .866.433.433 0 010-.866z"/><path d="M7.585 4.183c-.323 0-.626-.141-.832-.39l-.446-.535a.215.215 0 00-.167-.078.221.221 0 00-.167.078l-.444.535c-.206.249-.511.39-.832.39-.323 0-.626-.141-.832-.39l-.446-.535a.218.218 0 00-.334 0l-.446.535c-.206.249-.51.39-.832.39-.323 0-.627-.141-.832-.39l-.178-.215V5.85h7.8V3.58l-.18.214c-.206.249-.51.39-.832.39z" fill="#0CC689"/><path d="M8.163 0H1.23a.433.433 0 00-.433.433v1.792l.13.158.713.856a.22.22 0 00.167.078.21.21 0 00.166-.078l.447-.535c.123-.147.281-.256.457-.32a1.08 1.08 0 01.375-.07 1.094 1.094 0 01.832.39l.446.535c.056.07.128.078.167.078a.207.207 0 00.165-.078l.446-.535c.123-.147.282-.256.457-.32.12-.044.245-.07.375-.07s.258.026.375.07c.177.064.333.173.457.32l.446.535c.056.07.128.078.167.078a.21.21 0 00.167-.078l.713-.856.132-.158V.433A.435.435 0 008.164 0z" fill="#0CC689"/></svg>