<svg width="24" height="24" fill="none" xmlns="http://www.w3.org/2000/svg"><path d="M8.023 11.286a.683.683 0 01.966-.03c3.144 2.962 6.3 4.764 10.012 5.683.5-1.367.545-2.87.112-4.338-.574-1.947-1.91-3.643-3.864-4.905-1.744-1.126-3.487-1.42-5.173-1.703-2.128-.358-4.137-.696-6.055-2.726a.793.793 0 00-.782-.242c-.318.085-.531.336-.633.751-.24.972-.086 3.695.587 6.569 1.08 4.618 2.803 6.954 4.06 8.102 1.622 1.481 3.74 2.302 5.847 2.302a7.95 7.95 0 001.185-.088c1.782-.27 3.264-1.164 4.1-2.466-3.822-.994-7.086-2.884-10.334-5.942a.684.684 0 01-.028-.967zm13.076 6.069c-.719-.11-1.415-.25-2.093-.418a6.73 6.73 0 01-.615 1.255 24.96 24.96 0 002.5.513.684.684 0 10.208-1.35z" fill="#D3D3D3"/></svg>