<svg width="28" height="28" fill="none" xmlns="http://www.w3.org/2000/svg"><path d="M27.063 20.688c-.306-.326-1.386-1.29-3.371-2.564-2-1.285-3.475-2.087-3.898-2.274a.224.224 0 00-.23.029 74.09 74.09 0 00-1.89 1.56c-.397.34-.397.34-.722.235-.572-.188-2.349-1.131-3.897-2.683-1.548-1.551-2.54-3.372-2.727-3.943-.107-.326-.107-.326.234-.723a74.393 74.393 0 001.561-1.89.225.225 0 00.029-.23c-.187-.423-.989-1.898-2.274-3.897C8.602 2.323 7.64 1.243 7.314.938a.228.228 0 00-.228-.052 18.871 18.871 0 00-3.281 1.492A19.805 19.805 0 00.955 4.39a.224.224 0 00-.075.22c.123.57.708 2.953 2.524 6.253 1.854 3.367 3.138 5.093 5.86 7.805 2.722 2.713 4.502 4.074 7.873 5.928 3.3 1.816 5.684 2.402 6.253 2.523a.226.226 0 00.22-.073 19.786 19.786 0 002.012-2.851c.6-1.044 1.1-2.143 1.491-3.281a.228.228 0 00-.05-.227z" fill="#031C77"/></svg>