<svg width="93" height="87" fill="none" xmlns="http://www.w3.org/2000/svg"><g clip-path="url(#clip0_2255_44449)"><path d="M73.277 55.386c1.637-2.65 3.31-2.785 5.01-.412 2.388.61 2.905 1.731 1.555 3.343-.372 1.877-2.06 3.27-3.407 4.482-2.782 2.47-6.204 4.278-9.728 5.443-8.885 2.93-18.5 1.337-26.49-3.305-5.24-3.04-11.19-7.852-11.474-14.336-.161-3.59 1.794-7.517 3.705-10.46 3.715-5.73 9.455-10.01 15.95-12.094 2.68-.865 7.066-2.304 9.87-1.316 6.163 2.185 1.736 10.49-.71 13.127-5.5 5.931-13.778 6.824-21.427 6.674-6.555-.134-13.78-1.833-17.266-8.087-1.85-3.316-2.687-7.306-2.115-11.066.512-3.367 2.196-6.458 4.645-8.804.934-.898 3.975-3.875 5.603-3.504 5.024 1.156-1.292 6.127-2.88 7.257-1.43 1.023 2.61 4.27 3.805 3.407 3.247-2.355 6.734-5.307 4.959-9.746-.9-2.254-3.261-4.138-5.635-4.535C16.97 9.722 11.243 23.47 13.015 31.55c1.747 7.997 8.271 14.766 16.115 16.972 9.062 2.555 22.341 2.072 29.947-4.017 6.105-4.892 9.356-15.862.616-19.93-7.91-3.69-19.362 1.56-25.322 6.69-6.649 5.724-12.744 16.503-7.068 24.8 5.63 8.21 16.52 14.126 26.153 15.847 9.277 1.626 25.843-1.082 29.764-11.429 2.724-7.186-7.503-13.478-11.926-6.503-.388.61 1.491 1.938 1.983 1.407z" fill="#CACACA"/></g><defs><clipPath id="clip0_2255_44449"><path fill="#fff" transform="rotate(-142.76 46.698 32.236)" d="M0 0h80.29v46.47H0z"/></clipPath></defs></svg>