<svg width="75" height="92" fill="none" xmlns="http://www.w3.org/2000/svg"><g clip-path="url(#clip0_2255_44451)"><path d="M58.711 47.427l-4.745-1.783c.97-.466 1.931-.948 2.904-1.412.89-.423 1.276-1.92.132-2.351-1.23-.461-2.459-.925-3.689-1.386 5.607-5.404 11.288-10.73 16.737-16.297.492-.502.305-1.52-.363-1.773-1.236-.468-2.463-.958-3.692-1.442.78-.778 1.572-1.544 2.343-2.333.337-.342.38-.725.255-1.052-.056-.297-.236-.566-.617-.715L44 7.493c-.47-.184-1.002-.12-1.347.287-7.715 9.092-15.203 18.39-23.065 27.356-.512.585-.391 1.748.414 2.029 1.114.388 2.23.771 3.345 1.16-.68.787-1.36 1.577-2.047 2.359-.515.584-.39 1.746.413 2.027 1.465.511 2.934 1.019 4.4 1.527-7.36 8.017-14.989 15.783-22.272 23.871-1.066 1.186.476 2.55 1.698 1.924l6.393-3.284a466.668 466.668 0 00-6.382 6.907c-1.067 1.185.476 2.55 1.698 1.923 17.03-8.745 34.051-17.565 51.334-25.797.89-.424 1.274-1.921.132-2.352l-.002-.003zM21.917 65.166c-.026-.573-.064-1.147-.073-1.72-.007-.576-.014-1.16-.1-1.729.54-.276 1.081-.551 1.622-.825-.082.581-.084 1.185-.096 1.68-.01.411-.09 1.25.067 1.87l-1.421.725v-.001zm-4.644 2.371a17.983 17.983 0 01-.067-1.507c-.001-.316.052-.746.037-1.15.408-.432.813-.865 1.223-1.295-.02.509-.002 1.02.022 1.541.025.506-.078 1.208.079 1.746l-1.296.665h.002zm-1.02-1.279c-.036.606-.038 1.2.023 1.79l-3.894 2a816.324 816.324 0 013.883-4.13 9.915 9.915 0 01-.012.34zm3.192-1.216c-.071-.678-.17-1.332-.355-1.974.57-.292 1.143-.582 1.714-.876-.046.508-.07 1.018-.1 1.522-.04.684-.075 1.374.04 2.046-.379.196-.76.388-1.141.583-.012-.454-.121-.936-.158-1.301zm4.934-1.92c-.046-.806.082-1.834-.035-2.733.7-.358 1.403-.715 2.103-1.072-.1.64-.147 1.288-.17 1.951-.019.506-.077 1.127.082 1.632l-1.904.97c-.024-.345-.071-.65-.077-.748h.001zm2.827-1.935c-.018-.756.012-1.494-.053-2.23.712-.363 1.425-.73 2.14-1.092-.04.523-.024 1.061-.036 1.541-.014.572-.119 1.358.023 2.004-.66.334-1.315.67-1.973 1.005-.014-.417-.092-.849-.102-1.23v.002zm2.998-1.517c-.023-.685.048-1.5-.083-2.227.652-.331 1.302-.658 1.954-.988-.027.396-.02.795-.027 1.155-.012.695-.088 1.595.138 2.327-.622.314-1.245.631-1.868.947-.028-.416-.1-.836-.113-1.213h-.001zm2.847-1.794c-.039-.59.007-1.255-.033-1.893.682-.344 1.368-.682 2.05-1.028-.02.581-.017 1.164-.03 1.747-.012.542-.1 1.218.01 1.801-.618.312-1.238.617-1.855.928-.011-.528-.112-1.076-.143-1.557v.002zM36 56.62c-.046-.682-.098-1.359-.213-2.023.589-.297 1.18-.592 1.771-.888.002.343.017.686.017 1.018-.002.718-.185 1.748.068 2.482-.51.256-1.022.509-1.532.765-.006-.47-.084-.953-.11-1.355L36 56.62zm2.449-1.256c-.01-.626-.007-1.362-.105-2.048.62-.31 1.239-.621 1.859-.93-.002.435.017.873.044 1.312.031.576.04 1.416.252 2.086l-2.042 1.019c.068-.47 0-.994-.008-1.44zm2.636-1.74c-.08-.532-.112-1.068-.162-1.6.756-.378 1.508-.76 2.265-1.136-.041.53-.057 1.062-.079 1.593-.021.565-.065 1.31.063 1.963-.587.29-1.17.586-1.757.878-.074-.592-.258-1.212-.332-1.699h.002zm2.922-1.219c-.034-.635-.03-1.263-.078-1.887.606-.299 1.216-.587 1.821-.884-.014.564.002 1.13.023 1.707.021.542-.028 1.195.02 1.814-.535.263-1.074.52-1.608.785-.052-.533-.153-1.073-.178-1.535zm2.61-1.135a37.725 37.725 0 00-.195-1.961c.666-.33 1.337-.648 2.005-.975-.043.654.026 1.336.068 1.921.028.4.048.984.161 1.518-.62.303-1.246.598-1.868.902-.05-.49-.138-.98-.172-1.404l.001-.001zm2.736-1.091c-.096-.701-.111-1.467-.203-2.197.56-.274 1.122-.544 1.683-.817.13.048.261.1.392.148-.065.503-.08 1.017-.075 1.517.006.48-.063 1.169.126 1.676-.558.271-1.117.538-1.673.809-.088-.405-.203-.804-.248-1.135l-.002-.001zm2.714-1.428c-.02-.377-.037-.76-.066-1.144.985.373 1.97.745 2.953 1.12-.92.438-1.835.888-2.755 1.33-.005-.452-.115-.939-.134-1.307l.002.001zm11.8-25.65c.086.689.252 1.383.345 2.015.027.19-.006.921.079 1.505-.548.525-1.096 1.046-1.647 1.57-.046-.236-.094-.459-.128-.65a31.888 31.888 0 00-.58-2.553c.646-.626 1.29-1.258 1.931-1.887zm.777-.206c.832.325 1.662.653 2.494.979-.61.593-1.222 1.182-1.834 1.77-.102-.87-.382-1.907-.66-2.748zm-3.277 2.643c.053.563.147 1.125.227 1.695.084.601.133 1.201.157 1.806-.52.495-1.041.99-1.562 1.482-.045-.413-.1-.82-.14-1.2-.075-.724-.144-1.502-.257-2.265.527-.505 1.052-1.011 1.577-1.518h-.002zm-2.302 2.218c.032.402.068.803.091 1.189.048.793.022 1.66.056 2.503l-1.262 1.193c-.042-.325-.097-.642-.138-.915-.113-.8-.233-1.602-.374-2.401.544-.52 1.084-1.047 1.627-1.567v-.002zm-2.202 2.118c0 .405.029.815.069 1.23.054.575.106 1.15.135 1.728.01.214.002.43-.004.642-.43.404-.858.81-1.287 1.214-.021-.212-.045-.41-.059-.568-.076-.93-.175-1.886-.348-2.817.498-.477.993-.954 1.493-1.43l.001.001zM54.74 31.91c.017.638.097 1.28.134 1.914.034.574.027 1.152-.007 1.726-.505.477-1.008.957-1.513 1.435-.042-.343-.108-.68-.138-.971-.083-.774-.173-1.56-.333-2.328.618-.595 1.236-1.185 1.855-1.777h.002zm-2.451 2.347c.015.49.057.984.098 1.474.045.59-.052 1.424.08 2.098-.484.458-.969.918-1.452 1.38-.094-.351-.22-.696-.282-.97-.155-.68-.254-1.387-.397-2.078.653-.633 1.299-1.274 1.955-1.905h-.002zm-2.601 2.536c.048.448.131.893.218 1.315.061.306.104.75.191 1.182l-2.141-.803c.576-.567 1.153-1.129 1.73-1.692l.002-.002zm-6.62-27.22c.943.367 1.885.737 2.827 1.106 6.512 2.549 13.026 5.095 19.539 7.646-6.86 6.65-13.915 13.095-20.706 19.82-.554.55-.328 1.686.402 1.961 2.706 1.026 5.41 2.05 8.118 3.074-14.33 6.847-28.482 14.084-42.614 21.341 7.376-7.935 14.96-15.678 22.147-23.791.518-.585.39-1.754-.414-2.033a6425.08 6425.08 0 00-9.58-3.315c4.492-5.223 8.839-10.564 13.179-15.915.742-.915 7.941-9.566 7.101-9.894zM27.482 41.96c-.083-.545-.172-1.085-.225-1.635a9.66 9.66 0 01-.043-.664l2.314.802c-.503.56-1.005 1.124-1.511 1.682l-.537-.186.002.001zm-.993-2.55c-.02.264-.017.527-.025.727-.02.497.011.998.066 1.493-.677-.233-1.355-.466-2.033-.702.49-.566.979-1.131 1.464-1.7l.528.183z" fill="#EB5B31"/><path d="M53.84 53.62c-7.299 3.09-14.31 7.15-21.431 10.65-6.54 3.216-13.155 6.294-19.594 9.716-.087.047-.011.194.077.154 6.634-2.969 13.144-6.226 19.67-9.43 7.09-3.48 14.683-6.678 21.35-10.95.073-.047.012-.174-.071-.139v-.001zM20.976 30.835c3.093-3.512 6.033-7.16 8.975-10.8 3.075-3.809 6.749-7.74 8.993-12.115.027-.053-.046-.095-.081-.054-3.357 3.652-6.128 8.004-9.249 11.875-2.94 3.645-6.03 7.183-8.738 11.008-.048.069.043.153.101.086h-.001zm-.863.875c-.339.382-.766.862-.928 1.351-.018.059.033.11.09.078.47-.265.846-.845.967-1.37.017-.074-.08-.114-.129-.06zm2.237 13.491c-5.991 5.734-11.56 12.056-17.085 18.24-.051.056.034.128.088.077 5.953-5.773 11.57-12.042 17.063-18.256.04-.046-.026-.101-.067-.06zm34.992-5.982c4.497-3.493 9.379-7.449 13.049-11.828.033-.038-.018-.103-.06-.067-4.457 3.713-9.057 7.602-13.097 11.774-.065.069.034.18.109.123l-.001-.002z" fill="#2D2D2D"/></g><defs><clipPath id="clip0_2255_44451"><path fill="#fff" transform="rotate(25.535 15.276 76.65)" d="M0 0h43.775v79.71H0z"/></clipPath></defs></svg>