<svg width="28" height="28" fill="none" xmlns="http://www.w3.org/2000/svg"><path fill-rule="evenodd" clip-rule="evenodd" d="M16.628 2.917a.292.292 0 00-.292-.292H8.169a3.208 3.208 0 00-3.208 3.208v16.334a3.208 3.208 0 003.208 3.208h11.667a3.208 3.208 0 003.208-3.208V10.672a.292.292 0 00-.291-.292h-5.25a.875.875 0 01-.875-.875V2.917zm.875 11.375a.875.875 0 110 1.75h-7a.875.875 0 010-1.75h7zm0 4.666a.875.875 0 010 1.75h-7a.875.875 0 110-1.75h7z" fill="#31DDA4"/><path d="M18.375 3.294c0-.215.225-.352.392-.217.141.114.268.248.376.398l3.516 4.898c.08.111-.007.256-.144.256h-3.848a.292.292 0 01-.292-.292V3.294z" fill="#31DDA4"/></svg>