<svg width="40" height="36" viewBox="0 0 40 36" fill="none" xmlns="http://www.w3.org/2000/svg">
<path d="M10.369 34.0065C13.1416 30.3189 19.0172 22.9788 21.8006 19.2952L24.6412 15.5309L22.929 14.1086L21.2405 12.6582L18.004 16.0879C14.8368 19.4476 8.58293 26.4675 5.41082 29.8172C4.6121 30.6599 4.21431 31.734 4.28796 32.8382C4.41198 34.6944 5.74106 35.8054 7.57829 35.6182C8.67921 35.5066 9.67212 34.9344 10.3694 34.0063L10.369 34.0065Z" fill="#31DDA4"/>
<path d="M38.9573 12.3897C38.5365 12.0332 38.1109 11.6767 37.6853 11.3204C37.2106 10.9226 36.7362 10.5195 36.2672 10.1212C36.1054 9.98193 35.9501 9.93371 35.7395 9.94952C35.6292 9.95782 34.6376 10.0588 34.3619 10.0845L34.277 10.0912C33.2836 10.167 32.7706 9.7264 32.6731 8.70937L32.6433 8.45436C32.616 8.22937 32.5946 8.00892 32.5874 7.78231C32.5796 7.48499 32.4569 7.26213 32.1759 7.01595C30.7381 5.7624 29.0409 4.27632 27.3508 2.74978C26.6353 2.10237 25.8203 1.59936 24.8576 1.21817C22.7286 0.360205 20.7203 0.164982 18.7154 0.609866C17.7246 0.82817 16.7991 1.19621 15.9181 1.7247C15.4371 2.01318 15.6296 2.76157 16.1903 2.76904C17.267 2.78378 18.2447 2.97262 19.1745 3.33529C21.3331 4.18064 22.6727 6.0069 22.7544 8.21593C22.7911 9.23244 22.5806 10.2428 22.1295 11.2154C22.7659 11.7573 23.4136 12.3136 24.0511 12.8611C24.5959 13.3248 25.1252 13.7839 25.6167 14.2057C26.1805 13.5923 26.3128 13.4718 26.4232 13.3928C27.1138 12.9166 27.9329 12.8035 28.6258 13.0893C28.8503 13.1831 29.0723 13.3229 29.2831 13.5034C30.2364 14.299 30.4829 15.4157 29.9557 16.5106C30.1762 16.6906 30.3969 16.8712 30.6173 17.0509C31.5005 17.781 32.4206 18.5338 33.3366 19.2363C33.4705 19.3373 33.5806 19.3944 33.6511 19.3893C33.6862 19.3866 33.7954 19.3579 34.0028 19.171L38.004 14.507L39.0551 13.1959C39.2656 12.9261 39.3243 12.7003 38.9573 12.3896L38.9573 12.3897Z" fill="#31DDA4"/>
<path d="M3.17981 9.7261C3.19802 9.71405 3.21382 9.69878 3.22641 9.6795C3.22963 9.67467 3.23257 9.67012 3.23579 9.6653C3.24945 9.64709 3.26097 9.6286 3.27249 9.60932C3.29552 9.57423 3.31802 9.53968 3.34106 9.50459C3.43936 9.35486 3.53686 9.20512 3.63517 9.05593C3.76856 8.85235 3.90168 8.64932 4.03454 8.44602C4.17838 8.22664 4.32195 8.00727 4.46579 7.78762C4.59517 7.58968 4.72481 7.392 4.85419 7.19405C4.94472 7.05531 5.03579 6.91655 5.12633 6.7778C5.17964 6.69611 5.23428 6.61281 5.23508 6.51182C5.23615 6.39396 5.1791 6.27691 5.07866 6.21557C5.01625 6.17727 4.95303 6.13923 4.89116 6.09933L2.95079 4.85297C2.15872 4.34377 1.47143 3.90291 1.39456 3.85361L1.0126 3.60852C0.901703 3.53781 0.756791 3.61683 0.755187 3.74888L0.749026 4.20477C0.747419 4.32424 0.743669 4.43781 0.739651 4.54656C0.731348 4.78469 0.723312 5.00968 0.741258 5.24112C0.890991 7.13136 1.42697 8.60784 2.33314 9.62969C2.3535 9.65273 2.37386 9.67523 2.39502 9.6988C2.3977 9.70148 2.40038 9.70308 2.40332 9.70603C2.40707 9.71085 2.41002 9.71594 2.41377 9.72076C2.60368 9.93478 2.94038 9.94335 3.16593 9.74058C3.17182 9.73603 3.17504 9.73067 3.17986 9.72612L3.17981 9.7261Z" fill="#31DDA4"/>
<path d="M16.8101 14.9609C15.7711 16.0658 14.3823 17.5802 12.9 19.2045C11.6421 17.542 10.242 16.0109 8.43187 14.9443C7.25087 14.2553 5.93813 13.8723 4.57096 13.7906C3.90935 13.7577 3.01795 13.7633 2.65151 13.0907C2.38874 12.626 2.98499 12.1334 3.22044 11.7779C3.82231 10.8702 4.41241 9.96777 5.00864 9.0653C5.86174 7.77451 6.72025 6.48372 7.57362 5.19341C7.23372 4.95288 6.06368 4.20393 5.6973 3.96317C4.75095 3.35594 3.77223 2.71627 2.9467 1.95588L2.9084 1.91758C2.78251 1.77561 2.7442 1.57312 2.80956 1.3982C2.91885 1.11401 3.20331 0.965881 4.03445 0.753207C4.47213 0.638562 4.93685 0.545353 5.04615 0.528745C5.93758 0.425085 6.79609 0.408477 7.60579 0.495798C8.93491 0.643385 10.7994 1.12446 12.1508 2.6451L12.2057 2.71635C12.9605 3.59146 13.4855 4.66879 13.6933 5.81201C13.8958 6.90031 13.5074 7.98861 13.6165 9.08815C13.7038 9.99055 13.9885 10.8491 14.42 11.6422C15.0707 12.8451 15.9894 13.8517 16.9194 14.8468L16.8101 14.9609Z" fill="#31DDA4"/>
<path d="M30.7065 32.2259C30.3401 34.315 28.6341 35.6607 26.4628 35.5618C25.1667 35.5015 24.0566 34.9168 23.3404 33.9099C22.7222 33.0458 22.1099 32.182 21.4917 31.3125C20.3868 29.7541 19.2821 28.2005 18.1777 26.6419C19.7637 24.6182 21.3387 22.6061 22.5312 21.0469C24.9213 23.6719 27.3165 26.2918 29.7442 28.8839C30.5856 29.7871 30.93 30.9735 30.7064 32.2259H30.7065Z" fill="#31DDA4"/>
</svg>
