<svg width="48" height="49" viewBox="0 0 48 49" fill="none" xmlns="http://www.w3.org/2000/svg">
<path d="M16.0462 22.5732C16.1692 22.4426 16.3168 22.3374 16.4804 22.2637C16.6441 22.1901 16.8207 22.1494 17.0001 22.144C17.1795 22.1386 17.3582 22.1686 17.526 22.2323C17.6938 22.296 17.8474 22.3921 17.978 22.5152C24.2664 28.4389 30.5761 32.0429 38.0012 33.88C39.003 31.147 39.0919 28.1391 38.2267 25.2046C37.0789 21.311 34.4057 17.9187 30.4984 15.3949C27.0105 13.142 23.5242 12.5552 20.1516 11.9881C15.8967 11.2725 11.8776 10.596 8.04203 6.53504C7.61501 6.08581 7.0334 5.9056 6.47741 6.05165C5.842 6.22246 5.41583 6.72464 5.21171 7.55477C4.73344 9.49774 5.0409 14.9432 6.38603 20.6918C8.54592 29.9275 11.9929 34.6008 14.5046 36.8957C17.75 39.8584 21.9878 41.499 26.1991 41.499C26.9929 41.5002 27.7857 41.442 28.5708 41.3248C32.1331 40.785 35.0983 38.9958 36.7697 36.3926C29.1268 34.4044 22.5976 30.6235 16.1017 24.5077C15.9708 24.3844 15.8655 24.2366 15.7919 24.0726C15.7182 23.9086 15.6777 23.7317 15.6725 23.552C15.6674 23.3723 15.6977 23.1933 15.7618 23.0254C15.8259 22.8574 15.9226 22.7038 16.0462 22.5732Z" fill="#31DDA4"/>
<path d="M42.1898 34.7114C40.7525 34.4902 39.3604 34.2126 38.005 33.877C37.7263 34.6377 37.3796 35.3717 36.969 36.0702C36.9067 36.1769 36.8409 36.2828 36.7734 36.387C38.422 36.8137 40.0913 37.1558 41.7748 37.4119C41.9539 37.4433 42.1375 37.4388 42.3148 37.3984C42.4922 37.3579 42.6597 37.2825 42.8075 37.1766C42.9553 37.0706 43.0805 36.9362 43.1757 36.7812C43.2709 36.6262 43.3342 36.4538 43.3619 36.274C43.3895 36.0943 43.3811 35.9108 43.3369 35.7343C43.2928 35.5579 43.2138 35.392 43.1048 35.2465C42.9957 35.1009 42.8586 34.9786 42.7017 34.8868C42.5447 34.7949 42.371 34.7352 42.1907 34.7114H42.1898Z" fill="#31DDA4"/>
</svg>
