<svg width="17" height="36" viewBox="0 0 17 36" fill="none" xmlns="http://www.w3.org/2000/svg">
<path d="M0.601562 14.593C0.601562 14.9007 0.766298 15.1909 1.03502 15.3426L5.6718 17.9902C6.33921 18.3759 6.67295 19.1342 6.49939 19.8881L5.09958 25.9591C4.48416 28.6197 5.04336 31.419 6.62939 33.6421L7.73446 35.1891C7.88589 35.4016 8.13738 35.5316 8.40156 35.5316C8.66151 35.5316 8.913 35.4016 9.06443 35.1891L10.1695 33.6421C11.7555 31.4192 12.3144 28.62 11.6993 25.9591L10.2995 19.8884C10.1263 19.1345 10.4597 18.3761 11.1316 17.9905L15.7639 15.3429C16.0326 15.1912 16.2016 14.901 16.2016 14.5933V13.4316H0.601663L0.601562 14.593ZM8.40151 29.0314C8.87819 29.0314 9.26809 29.4171 9.26809 29.898C9.26809 30.3746 8.87816 30.7645 8.40151 30.7645C7.9206 30.7645 7.53492 30.3746 7.53492 29.898C7.53492 29.4171 7.92062 29.0314 8.40151 29.0314Z" fill="#31DDA4"/>
<path d="M14.1779 8.36746C13.5322 8.36746 12.9255 8.08575 12.5139 7.58762L11.6213 6.5173C11.5086 6.38309 11.3656 6.36133 11.2876 6.36133C11.2138 6.36133 11.0709 6.38309 10.9539 6.5173L10.0656 7.58762C9.65388 8.08606 9.04298 8.36746 8.40157 8.36746C7.75593 8.36746 7.14925 8.08575 6.73758 7.58762L5.845 6.5173C5.73226 6.38309 5.58505 6.36133 5.5113 6.36133C5.43331 6.36133 5.29034 6.38309 5.1776 6.5173L4.28501 7.58762C3.87332 8.08606 3.26668 8.36746 2.62102 8.36746C1.97536 8.36746 1.3687 8.08575 0.957032 7.58762L0.601562 7.1584V11.6999H16.2015V7.1584L15.8418 7.58732C15.4301 8.08576 14.8234 8.36747 14.1778 8.36747L14.1779 8.36746Z" fill="#31DDA4"/>
<path d="M15.3347 0.00203046H1.46815C0.987242 0.00203046 0.601562 0.391958 0.601562 0.868614V4.45226L0.861514 4.76873L2.28733 6.48046C2.4043 6.61467 2.54728 6.63643 2.62103 6.63643C2.69901 6.63643 2.84199 6.61466 2.95473 6.48046L3.84732 5.41013C4.09427 5.11542 4.41074 4.8987 4.76165 4.76872C4.99983 4.68197 5.25132 4.62998 5.51127 4.62998C5.77122 4.62998 6.02271 4.68197 6.26089 4.76872C6.61183 4.8987 6.9283 5.11542 7.17522 5.41013L8.0678 6.48046C8.18055 6.6192 8.32352 6.63643 8.40151 6.63643C8.47526 6.63643 8.61824 6.6192 8.73098 6.48046L9.62356 5.41013C9.87051 5.11542 10.187 4.8987 10.5379 4.76872C10.7761 4.68197 11.0276 4.62998 11.2875 4.62998C11.5475 4.62998 11.8032 4.68197 12.0371 4.76872C12.3926 4.8987 12.7045 5.11542 12.9515 5.41013L13.844 6.48046C13.9568 6.6192 14.0998 6.63643 14.1778 6.63643C14.2515 6.63643 14.3987 6.6192 14.5115 6.48046L15.937 4.76873L16.2014 4.45226V0.868846C16.2014 0.392167 15.8115 0.00195312 15.3349 0.00195312L15.3347 0.00203046Z" fill="#31DDA4"/>
</svg>
