<svg width="31" height="32" viewBox="0 0 31 32" fill="none" xmlns="http://www.w3.org/2000/svg">
<path d="M19.5054 0.369141H11.2407V0.388096C5.20597 0.7706 0.398438 7.64138 0.398438 16.0649C0.398438 24.4883 5.20606 31.3586 11.2407 31.7416V31.7606H19.5054C25.7865 31.7606 30.8789 24.7337 30.8789 16.0656C30.8789 7.39751 25.7865 0.370657 19.5054 0.370657V0.369141ZM19.9854 27.8674C15.4489 27.8674 11.7718 22.5834 11.7718 16.0641C11.7718 9.54478 15.449 4.26082 19.9854 4.26082C24.5226 4.26082 28.2004 9.54478 28.2004 16.0641C28.2004 22.5834 24.5233 27.8674 19.9854 27.8674Z" fill="#31DDA4"/>
<path d="M18.0861 5.62695C15.1229 5.62695 12.2891 10.3026 12.2891 16.0689C12.2891 21.8359 15.1229 26.5108 18.0861 26.5108C21.0487 26.5108 23.4502 21.8352 23.4502 16.0689C23.4502 10.3019 21.0486 5.62695 18.0861 5.62695Z" fill="#31DDA4"/>
</svg>
