<svg width="31" height="36" viewBox="0 0 31 36" fill="none" xmlns="http://www.w3.org/2000/svg">
<path d="M13.9893 10.2975C14.2591 10.383 14.5419 10.211 14.5901 9.93244C14.9003 8.13889 15.5159 2.16192 10.3973 0.320095C10.0301 0.18804 9.64978 0.0905379 9.26482 0.024915C9.26 0.0241114 9.25491 0.0233078 9.24982 0.0222364C8.48778 -0.110888 7.76833 0.426164 7.69921 1.19652C7.47127 3.73847 7.95742 8.38281 13.9893 10.2973L13.9893 10.2975Z" fill="#31DDA4"/>
<path d="M16.0827 10.675C16.1971 10.6913 16.3254 10.6495 16.3755 10.5456C18.1128 6.94586 21.5149 6.49802 22.2603 6.22401C22.4441 6.15651 22.6246 6.08284 22.795 5.98615C24.007 5.29803 24.0054 4.15131 23.8302 3.38043C23.7263 2.92373 23.256 2.64596 22.8059 2.77641C16.5107 4.6037 15.8658 9.17715 15.8206 10.3584C15.8144 10.5159 15.9266 10.6525 16.0825 10.6747L16.0827 10.675Z" fill="#31DDA4"/>
<path d="M26.088 11.1235C26.088 11.1235 22.2178 8.52371 17.6846 11.2963L17.2764 11.5216C16.093 12.1746 14.6575 12.1746 13.4741 11.5216L13.0659 11.2963C8.53274 8.52368 4.6625 11.1235 4.6625 11.1235C-2.32425 15.6969 1.82398 25.7814 1.82398 25.7814C4.96167 32.9409 9.33393 35.1016 11.3918 35.7414C12.0496 35.9457 12.7554 35.9254 13.4004 35.6835L14.3701 35.3195C15.0183 35.0763 15.7327 35.0763 16.3809 35.3195L17.3505 35.6835C17.9955 35.9256 18.7013 35.946 19.3592 35.7414C21.4169 35.102 25.7892 32.9412 28.927 25.7814C28.9273 25.7814 33.0758 15.6966 26.0885 11.1235H26.088ZM7.11771 15.9664C6.14996 17.1182 5.36729 18.0536 4.62637 17.431C3.88546 16.8085 3.74057 15.0942 4.70834 13.9424C5.67611 12.7906 7.38962 12.6375 8.13046 13.2599C8.87138 13.8822 8.0852 14.8146 7.11766 15.9664L7.11771 15.9664Z" fill="#31DDA4"/>
</svg>
