<svg width="131" height="33" fill="none" xmlns="http://www.w3.org/2000/svg"><g clip-path="url(#clip0_524_5431)" fill="#B9B9B9"><path d="M11.807 12.778c0 2.968-.022 5.8.01 8.63.013 1.288.716 2.133 1.967 2.494.3.086.603.118.558.528-.051.468-.428.318-.687.318-4.058.01-8.113.007-12.17 0-.22 0-.552.145-.606-.276-.049-.39.182-.468.504-.566 1.442-.437 2.072-1.495 2.076-2.917.016-5.745.011-11.487 0-17.232C3.457 2.313 2.821 1.275 1.341.91.97.818.857.662.879.317c.027-.435.363-.295.583-.297 6.326-.009 12.654 0 18.98-.015.544 0 .696.171.692.695-.023 2.687-.014 5.375-.007 8.064 0 .426.036.79-.607.776-.535-.011-.761-.13-.869-.704-.528-2.857-1.925-5.139-4.624-6.498-.098-.05-.197-.105-.297-.15-2.488-1.11-2.943-.835-2.945 1.763 0 2.246.04 4.492-.02 6.739-.023.84.313.911.978.76 1.695-.386 2.96-1.935 3.305-4.038.06-.372-.188-.976.578-.95.858.032.504.689.506 1.072.027 3.46.025 6.922.005 10.385 0 .327.282.848-.441.906-.748.058-.583-.47-.654-.87-.44-2.423-1.514-4.348-4.237-5.173l.002-.004zm71.731-2.151c1.673-2.188 3.675-2.752 6.076-2.226 1.72.377 2.694 1.453 3.128 3.077.423 1.587.343 3.214.343 4.832 0 1.805-.007 3.61.006 5.412.007.974.258 1.836 1.295 2.22.3.111.439.274.374.568-.081.379-.41.24-.639.24-2.642.01-5.284 0-7.929.012-.6.002-.938-.199-.508-.742.392-.497.385-1.028.39-1.565.02-2.946.013-5.891.015-8.837v-.112c-.058-.831-.13-1.691-1.198-1.832-.723-.093-1.377.736-1.386 1.817-.027 3.055-.004 6.112.007 9.17 0 .49.08.96.566 1.243.258.15.363.374.253.653-.105.27-.367.198-.578.198-2.828.005-5.658.007-8.486-.004-.227 0-.553.129-.616-.27-.067-.428.253-.464.546-.524.885-.185 1.218-.847 1.24-1.62.106-3.717.124-7.436-.01-11.153-.027-.775-.392-1.42-1.275-1.593-.242-.05-.541-.031-.508-.428.043-.492.423-.328.674-.328 2.383-.013 4.765.034 7.146-.03.864-.025 1.15.238 1.016 1.049-.026.167.023.35.058.773zm-39.792.145c1.568-2.235 3.493-2.855 5.762-2.451 2.224.396 3.415 1.733 3.677 3.973.343 2.94.107 5.89.166 8.835.024 1.206 0 2.41 1.473 2.884.195.062.284.223.26.432-.036.303-.26.312-.49.312-2.757 0-5.511-.007-8.268.007-.573.002-.717-.374-.43-.67.49-.507.432-1.08.437-1.645.024-2.949.017-5.895.022-8.843 0-.073 0-.147-.005-.22-.049-.814-.203-1.685-1.202-1.683-.99 0-1.36.834-1.366 1.705-.027 3.095-.004 6.188 0 9.283 0 .504.137.954.598 1.235.27.165.34.394.23.657-.11.266-.38.17-.584.17-2.83.006-5.66.006-8.491.004-.249 0-.556.065-.591-.323-.034-.357.24-.412.497-.47.875-.194 1.209-.809 1.234-1.616.116-3.719.13-7.438-.01-11.157-.029-.805-.376-1.422-1.249-1.6-.275-.056-.522-.118-.472-.47.053-.388.373-.288.61-.288 2.495-.007 4.992.016 7.487-.018.63-.009.772.241.712.78-.031.281-.005.569-.005 1.18l-.002-.003zm59.456 5.321v4.863c0 1.319.468 1.816 1.858 1.883 2.264.107 3.96-1.008 5.489-2.51.302-.296.432-1.176 1.097-.69.692.503-.056.978-.3 1.39-2.029 3.423-5.17 4.626-9.002 4.165-3.305-.399-5.761-2.063-6.995-5.23-2.184-5.598 1.894-11.492 8.115-11.732 2.264-.087 4.46.149 6.4 1.47.895.61 1.5 1.418 1.758 2.463.396 1.602-.61 3.206-2.202 3.534-1.78.365-3.235-.49-3.574-2.124-.183-.893.059-1.711.713-2.322.624-.581.264-.869-.224-1.15-.634-.365-1.339-.405-2.056-.372-.766.036-1.12.348-1.095 1.17.051 1.73.016 3.463.016 5.195l.002-.003zm-71.595-.336c0 1.95-.016 3.902.007 5.852.013 1.098.087 2.195 1.54 2.415.274.043.372.225.31.477-.092.365-.41.247-.643.247-1.823.012-3.646.007-5.469.007-1.377 0-2.752.005-4.129-.004-.235 0-.553.098-.607-.295-.051-.365.218-.423.477-.472 1.122-.212 1.386-1.09 1.395-1.988.043-3.605.025-7.213 0-10.82-.004-.82-.412-1.393-1.287-1.558-.287-.054-.63-.094-.547-.526.074-.381.397-.263.63-.263 2.53-.009 5.06.016 7.588-.02.619-.009.746.205.74.762-.027 2.061-.012 4.123-.012 6.184h.005l.002.002zM27.888.152c1.9.022 3.188.882 3.67 2.446.461 1.498-.195 3.015-1.608 3.704-1.194.581-2.44.64-3.677.227-1.626-.54-2.447-2.048-2.139-3.77.285-1.587 1.79-2.632 3.754-2.607zm96.621 30.063c.074-1.072 1.406-2.048.161-3.263h3.014c-.654 1.277.336 2.226.672 3.325.251-1.099 1.57-2.03.423-3.345h2.092c-1.163 1.565-1.519 3.396-2.139 5.112-.311.86-.882.678-1.485.744-.669.076-.924-.216-1.052-.817-.105-.497-.329-.97-.531-1.538-.566.477-.557 1.139-.737 1.687-.19.577-.535.722-1.079.662-.551-.06-1.187.207-1.451-.626-.376-1.19-.873-2.34-1.274-3.523-.202-.593-.414-1.16-1.2-1.74h3.356c.285 0 .305.133.316.411.038 1.025.493 1.948.914 2.908v.003zm-30.215 2.538h-3.695c.76-1.286.719-4.86-.24-5.972 1.275.376 2.529-.435 3.563.66 1.026-.867 1.975-.983 2.526-.177.457.671.394 1.35-.248 1.868-.659.53-1.342.223-1.996-.827-.765.918-.761 3.327.092 4.448h-.002zm13.438-5.841h2.186c-1.147 1.46-1.378 3.225-2.014 4.825-.228.579-.327 1.12-1.227 1.078-.839-.038-1.343-.158-1.59-1.063-.295-1.092-.774-2.137-1.182-3.2-.206-.537-.358-1.107-1.162-1.589h3.986c-.811 1.324.45 2.267.656 3.42.269-1.107 1.429-2.096.347-3.47zm2.795.076c.033-.018.065-.045.098-.05 2.05-.22 3.076.678 3.079 2.697 0 .55-.004 1.103 0 1.654.009.815.011.815.62 1.45h-3.809c.764-1.023.762-4.829.009-5.751h.003zM91.394 3.757c0-.682.004-1.366 0-2.048-.005-.421-.038-.802.602-.79.674.01.549.454.551.837.01 1.14.016 2.28-.007 3.42-.004.286.184.725-.356.77-.403.033-.799.073-1.05-.4-.425-.795-.904-1.56-1.574-2.295 0 .675-.011 1.353.004 2.028.012.426-.067.69-.6.689-.506 0-.636-.223-.631-.669.013-1.176-.005-2.353.016-3.53.004-.296-.168-.726.315-.82.444-.084.876-.071 1.147.424.445.822.931 1.624 1.4 2.435l.185-.053-.002.002zm-12.95-.145c0-.69.01-1.38-.002-2.07-.007-.385.087-.626.553-.622.437.003.71.085.703.6-.018 1.179.011 2.357-.011 3.536-.007.323.2.796-.374.885-.504.08-.914.016-1.182-.544a10.6 10.6 0 00-1.494-2.268c0 .67.005 1.339 0 2.01-.004.385.121.813-.555.83-.732.019-.632-.445-.634-.877-.004-1.105-.013-2.21.009-3.314.007-.294-.18-.73.305-.822.434-.08.87-.102 1.142.419.405.78.873 1.529 1.312 2.29l.228-.053zm-43.409-.189C34.822 1.455 36.14.657 37.632.907c.513.087.909.332 1.166.767.142.236.433.561.14.777-.28.207-.769.279-.997-.096-.296-.485-.645-.74-1.178-.499-.51.232-.573.731-.56 1.23.01.406-.02.816.045 1.213.078.476.363.806.907.8.293-.005.627.044.732-.337.094-.34 0-.577-.41-.597-.365-.018-.41-.268-.358-.546.056-.296.331-.312.526-.256.488.14 1.259-.45 1.442.465.238 1.19-.096 1.834-1.045 2.082-1.575.41-3.26-.232-3.003-2.483l-.002-.004zm49.979 2.4c-1.285.477-1.641-.31-2.033-1.092-.152-.303-.242-.818-.703-.724-.522.104-.195.608-.269.929-.034.14-.016.294-.004.439.033.417-.135.586-.574.588-.443.002-.577-.174-.575-.586.013-1.286.011-2.574 0-3.862-.005-.4.112-.601.566-.597.426.005.612.14.587.573-.022.434-.004.869-.004 1.422 1.189-.395.927-2.603 2.763-1.888-.092.923-1.409 1.437-1.16 2.38.222.842.891 1.569 1.408 2.418h-.002zm9.795-2.264c.051.6-.092 1.437.992 1.535.287.027.631.038.71-.354.063-.315.022-.582-.423-.575-.274.004-.374-.2-.356-.45.024-.361.31-.43.557-.355.464.145 1.174-.434 1.395.401.305 1.155-.013 1.874-.954 2.122-.974.256-1.932.247-2.651-.61-.571-.683-.623-2.648-.13-3.48.54-.906 1.395-.989 2.329-.884.522.058.902.345 1.167.76.147.232.369.568.094.796-.26.211-.742.213-.918-.043-.33-.479-.65-.856-1.246-.546-.631.33-.557.976-.566 1.683zm-53.542-.517c0 .258.036.521-.004.773-.164 1.01.235 1.395 1.265 1.259.327-.045.914-.245.869.47-.036.59-.522.401-.853.412-1.653.055-2.478-.733-2.477-2.364 0-.7.011-1.4 0-2.099-.007-.419.172-.584.602-.582.426.003.614.163.603.586-.014.515-.002 1.032-.002 1.547l-.003-.002zm17.418.396c0-.624.015-1.25-.005-1.871-.016-.464.152-.66.645-.647.475.014.54.261.535.638-.011.88.036 1.764-.016 2.642-.038.658.146.977.858.87.253-.038.52-.005.78-.005.28 0 .519.031.519.401 0 .392-.213.495-.567.488a39.412 39.412 0 00-2.116.005c-.488.018-.656-.188-.64-.649.022-.624.004-1.248.007-1.872zm28.427.036c0 .626-.01 1.252.005 1.878.009.397-.105.609-.56.62-.472.009-.68-.145-.674-.626.016-1.29.011-2.578.005-3.869 0-.432.212-.563.624-.563.415 0 .62.131.607.57-.02.662-.004 1.326-.004 1.99h-.002zm25.154 23.055c-.783-.107-1.381-.437-1.345-1.306.033-.787.539-1.161 1.325-1.174.887-.016 1.516.51 1.476 1.27-.049.905-.735 1.085-1.456 1.21zm-37.911-5.255c-.244-.076-.439.005-.528.259-.17.477-.482.789-1.006.612-.564-.189-.56-.728-.564-1.205-.013-1.29-.005-2.578-.005-3.869 0-1.067-.044-2.139.007-3.204.14-2.872-1.632-4.236-3.522-4.896-2.55-.889-5.17-.991-7.802-.354-1.202.292-2.353.72-3.173 1.71-1.292 1.56-.708 3.763 1.147 4.313 1.209.36 2.293.105 3.15-.817.733-.787.762-2.068.17-3.203-.111-.216-.544-.512-.087-.697.77-.312 1.599-.274 2.398-.038.672.198.912.718.939 1.353.031.773.042 1.546.047 2.317.009 1.656.004 1.66-1.615 1.783-2.049.156-4.078.392-5.849 1.557-1.749 1.15-2.45 2.95-2.006 5.108.318 1.55 1.755 2.946 3.477 3.175 2.206.292 4.318.02 6.062-1.533.358-.318.576-.508.898.054 1.216 2.117 5.56 1.954 6.982.376a4.21 4.21 0 001.075-2.25c.031-.208.105-.46-.192-.55h-.003zm-8.827-3.249a183.05 183.05 0 01-.025 2.964c-.013.68-.324 1.188-.958 1.477-.878.401-1.55.007-1.588-.949-.024-.622-.004-1.243-.004-1.865 0-.548.015-1.099-.003-1.647-.026-.815.363-1.192 1.183-1.25 1.4-.098 1.4-.12 1.395 1.27zm64.821 1.594c-.347-.235-.533-.083-.741.171-.686.838-1.523 1.507-2.435 2.086-1.334.849-2.792 1.2-4.364.896-.972-.188-1.61-.653-1.516-1.8.081-.988.049-1.99.004-2.982-.024-.573.139-.765.739-.745 1.301.045 2.605.014 3.908.014s2.609-.054 3.908.02c.799.044.891-.274.864-.945-.226-5.562-4.848-9.067-10.484-7.855-3.225.693-5.518 2.591-6.47 5.745-.983 3.255-.457 6.308 2.105 8.746 4.235 4.031 11.954 2.656 14.596-2.536.17-.336.26-.56-.117-.813l.003-.002zm-9.058-5.11c.092-1.21.054-2.431.011-3.646-.031-.938.546-1.114 1.283-1.12.737-.007 1.337.16 1.294 1.1-.033.736-.006 1.473-.006 2.21 0 .442-.054.892.011 1.327.157 1.063-.161 1.45-1.344 1.406-1.012-.038-1.328-.277-1.251-1.277h.002zm-20.485 15.529c.546.078 1.117-.026 1.67.023.708.06.82-.268.703-.854-.409-2.056-2.535-3.115-4.478-2.22-1.344.62-2.067 1.882-1.892 3.308.17 1.392 1.162 2.386 2.613 2.616 1.767.28 2.906-.297 3.643-1.95-.707.319-1.191 1.018-2.008 1.085-.636.054-1.288.152-1.362-.82-.067-.855.103-1.33 1.113-1.185l-.002-.003zm-1.131-1.657c.074-.473-.177-1.168.587-1.092.786.078.421.802.461 1.252.036.394.183.972-.567.907-.84-.074-.302-.744-.481-1.065v-.002zm18.682 3.683c-.714.04-1.216-.062-1.24-.976-.023-.802.166-1.154 1.039-1.05.622.074 1.265-.01 1.897.018.506.023.64-.176.588-.653-.125-1.165-1.034-2.308-2.122-2.61-1.752-.483-3.55.447-4.118 2.127-.536 1.58.235 3.255 1.751 3.808 1.923.702 3.618.033 4.53-2.048-.903.673-1.442 1.33-2.322 1.382l-.003.002zm-.727-4.78c.835-.006.441.749.562 1.186-.112.36.259.967-.518.976-.855.009-.521-.647-.533-1.041-.011-.421-.248-1.116.489-1.12zM69.7 4.662c-.155-.89-.401-1.725-.166-2.648.083-.325-.278-.666-.64-.826-.923-.41-1.958-.455-2.82-.132-.533.2-.136 1.139-.217 1.74-.025.181-.004.368-.004.55 0 .627.031 1.253-.01 1.877-.037.595.213.78.782.736.63-.05 1.27.009 1.89-.083.672-.1 1.312-.495 1.187-1.214H69.7zm-2.195-2.86c.444.007.802.112.9.6-.017.517-.407.544-.774.6-.417.064-.63-.078-.6-.524.022-.33-.039-.682.474-.673v-.002zm.251 3.279c-.463.02-.849-.027-.71-.589-.054-.477.025-.773.562-.737.468.03.93.067.959.655.024.524-.359.653-.811.67zm-15.021-2.92c.195-.305-.19-.69-.515-.889-.89-.539-1.93-.501-2.817-.265-.699.187-.17 1.099-.3 1.674-.047.21-.007.44-.007.661h-.005c0 .662-.002 1.326 0 1.988 0 .216-.024.444.213.584.43.252 2.875-.045 3.243-.414 1.037-1.041-.515-2.233.19-3.339h-.002zm-1.87-.358c.419.035.699.207.734.637-.047.521-.445.528-.81.582-.605.091-.52-.328-.54-.693-.027-.462.217-.56.616-.526zm.893 2.714c-.056.486-.474.541-.91.57-.635.04-.614-.34-.588-.766-.076-.528.251-.575.668-.562.513.016.893.21.83.758zm53.41-.292c.074-.225.195-.54-.105-.686-.224-.112-.533-.134-.665.176-.117.276-.162.655-.551.245-.229-.24-.614-.461-.141-.874.622-.543.671-1.223.147-1.843-.443-.523-1.083-.48-1.632-.193-.701.367-.813 1.033-.551 1.71.146.38.251.63-.139.928-.515.397-.49.976-.284 1.51.222.585.75.834 1.339.794.9-.062 1.796-.183 2.862-.127-.894-.54-.457-1.092-.28-1.64zm-2.17-2.422c.273.049.34.265.271.477-.049.149-.219.358-.34.36-.231.007-.379-.193-.363-.438.015-.248.163-.388.432-.4zm-.553 2.3c.457.089.549.519.893.777-.996.26-1.043.214-.893-.778zM46.12.88c-1.415-.007-2.139.825-2.148 2.476-.008 1.736.7 2.643 2.083 2.663 1.435.02 2.208-.87 2.212-2.54.005-1.734-.703-2.59-2.147-2.597V.88zm.956 3.213c-.12.509-.282 1.012-.963 1.003-.66-.009-.886-.465-.954-1.003a5.58 5.58 0 010-1.31c.063-.541.3-1.005.95-1.007.656-.002.855.484.965 1.007.045.21.007.437.007.655 0 .219.042.448-.007.655h.002zM74.55 5.43c-.45-1.325-.9-2.807-1.469-4.242-.213-.54-1.214-.337-1.433.283a68.851 68.851 0 00-1.194 3.672c-.065.223-.537.629.07.78.327.08.685.123.958-.312.56-.887 1.283-.858 1.935.06.255.361.57.27.889.27.24 0 .309-.152.244-.513v.003zm-1.852-1.435c-.08.099-.582.043-.6-.022-.143-.503.05-.95.502-1.655-.115.786.508 1.176.098 1.677zM56.439 1.457c-.135-.441-.388-.539-.811-.539-.416 0-.685.08-.822.528-.371 1.223-.806 2.429-1.16 3.66-.067.233-.45.66.08.808.355.098.758.152 1.006-.383.332-.716 1.447-.776 1.776-.094.322.67.76.544 1.341.419-.477-1.484-.962-2.937-1.408-4.401l-.002.002zm-.549 2.574c-.072.087-.423.091-.513 0-.497-.49.177-.87.197-1.335.226.45.721.834.316 1.333v.002z"/></g><defs><clipPath id="clip0_524_5431"><path fill="#fff" transform="translate(.875)" d="M0 0h130v33H0z"/></clipPath></defs></svg>