<svg width="124" height="27" fill="none" xmlns="http://www.w3.org/2000/svg"><g clip-path="url(#clip0_524_5404)"><path d="M23.523 16.399V7.553c0-.293-.081-.586.347-.73 4.286-1.392 8.623-1.822 13.007-.615 1.72.472 3.145 1.476 3.834 3.3a5.27 5.27 0 01.353 1.87c0 4.662-.011 9.324.012 13.986 0 .514-.145.634-.62.616a47.522 47.522 0 00-3.33 0c-.533.024-.648-.15-.648-.675.023-4.352-.047-8.709.034-13.06.047-2.523-1.424-3.437-3.144-3.796-1.54-.322-3.076-.161-4.599.192-.538.125-.73.328-.73.944.03 5.182 0 10.37.035 15.552 0 .705-.185.885-.845.843-.99-.06-1.992-.054-2.982 0-.568.03-.742-.132-.736-.735.029-2.947.012-5.9.012-8.846z" fill="#ACA9A9"/><path d="M62.474 6.04c1.657 0 3.133.013 4.61-.005.348 0 .48.209.637.454 1.263 1.93 2.537 3.855 3.782 5.798.29.454.428.466.735.006 1.275-1.925 2.59-3.82 3.863-5.744.25-.377.516-.532.962-.52 1.221.036 2.45.012 3.706.012.029.31-.197.472-.336.657-1.986 2.684-3.973 5.373-5.982 8.04-.33.442-.388.716-.03 1.207 2.253 3.072 4.471 6.174 6.69 9.276.144.197.359.364.382.717H76.65c-.312 0-.41-.269-.55-.478-1.419-2.17-2.85-4.327-4.239-6.515-.347-.544-.498-.466-.805.018-1.39 2.158-2.815 4.297-4.204 6.455-.244.377-.493.55-.95.544-1.355-.03-2.716-.012-4.216-.012.55-.77 1.019-1.434 1.494-2.086 1.894-2.606 3.787-5.218 5.704-7.812.278-.37.26-.598 0-.968-1.975-2.75-3.932-5.523-5.89-8.284a50.97 50.97 0 01-.526-.76h.005z" fill="#B9B9B9"/><path d="M.387 13.231c0-3.993.011-7.985-.012-11.978C.375.745.45.578 1 .578c4.32.03 8.647.024 12.973 0 .51 0 .62.155.585.633-.052.73.237 1.722-.122 2.134-.411.466-1.384.131-2.114.137-2.195.018-4.395.03-6.59-.006-.544-.011-.643.162-.631.682.029 2.211.034 4.423 0 6.634-.012.598.19.676.695.67 2.38-.024 4.76.006 7.146-.024.515-.006.695.12.649.663a9.104 9.104 0 000 1.638c.046.526-.163.616-.626.616-2.426-.024-4.853 0-7.28-.024-.457 0-.573.12-.573.591.023 3.425 0 6.844.023 10.269 0 .592-.08.83-.735.795-1.13-.066-2.264-.042-3.4-.006-.498.018-.625-.12-.625-.622.023-4.04.012-8.08.012-12.121v-.006z" fill="#ACA9A9"/><path d="M84.417 15.221c0-1.948-.023-3.897.012-5.845.012-.574-.174-.747-.707-.711-.573.041-1.158 0-1.731.012-.382.012-.544-.12-.521-.532a17.17 17.17 0 000-1.638c-.018-.389.15-.49.492-.478.625.018 1.25-.018 1.87.012.44.024.609-.114.597-.598-.029-1.094.006-2.188-.017-3.281-.012-.4.098-.61.486-.706a83.19 83.19 0 003.556-.92c.44-.126.504 0 .504.406-.018 1.495.011 2.995-.018 4.489-.005.454.11.622.574.604.967-.036 1.94.012 2.913-.018.469-.018.608.155.573.61-.035.472-.04.95 0 1.422.046.526-.18.634-.643.622-.967-.03-1.94.006-2.913-.018-.4-.012-.51.137-.51.532.012 3.92-.011 7.841.018 11.762.011 1.608 1.297 2.618 3.07 2.51.644-.04.966.282.966.963 0 1.674 0 1.685-1.638 1.883a7.914 7.914 0 01-3.423-.335c-2.218-.735-3.498-2.564-3.51-4.99-.011-1.925 0-3.85 0-5.775v.018zm11.103 1.202c0-2.923.01-5.852-.012-8.774 0-.52.168-.742.63-.915 3.25-1.177 6.609-1.255 9.991-1.136.365.012.504.108.353.515a25.802 25.802 0 00-.695 2.157c-.104.383-.278.389-.602.329-1.489-.281-2.977-.323-4.471.036-.51.12-.689.364-.683.926.023 5.206 0 10.412.028 15.618 0 .646-.173.807-.776.777a33.99 33.99 0 00-3.121 0c-.527.018-.666-.161-.66-.693.023-2.947.011-5.894.011-8.846l.006.006z" fill="#B9B9B9"/><path d="M21.038 16.046c0 3.066-.017 6.133.012 9.199.005.61-.174.759-.736.735a37.814 37.814 0 00-3.19 0c-.54.024-.696-.131-.696-.7.023-4.207.012-8.415.012-12.623 0-1.996.023-3.992-.012-5.989-.011-.556.157-.675.66-.651 1.037.042 2.085.054 3.122 0 .649-.036.857.12.845.837-.046 3.066-.017 6.132-.017 9.198v-.006zM18.762.596c.58 0 1.159.023 1.732-.006.4-.024.602.065.55.537-.081.772.319 1.788-.162 2.254-.382.376-1.361.113-2.074.12-.648.005-1.29-.013-1.94.005-.33.012-.445-.095-.434-.442.023-.663.023-1.333 0-1.996-.017-.365.081-.502.458-.484.62.03 1.245.006 1.87.006v.006z" fill="#ACA9A9"/><path d="M123.369 18.138V12.43c0-3.574-1.731-5.833-5.148-6.55-3.411-.718-6.753-.234-10.036.842-.58.191-.661.424-.371.938.22.389.4.807.527 1.238.145.49.365.514.805.358 2.23-.8 4.511-1.165 6.88-.824 1.992.286 3 1.338 3.087 3.28.038.794-.325 1.232-1.089 1.316-.342.036-.689.083-1.031.125-2.276.275-4.529.646-6.66 1.548-1.396.592-2.641 1.405-3.428 2.768-1.836 3.18-.359 7.065 3.26 8.206 4.268 1.345 8.531.945 12.741-.448.371-.126.475-.34.475-.735-.018-2.116-.012-4.232-.012-6.354zm-4.783 5.433c-1.842.544-3.689.634-5.537.09-1.338-.395-2.282-1.243-2.502-2.738-.225-1.506.093-2.845 1.269-3.855 1.332-1.147 2.982-1.452 4.615-1.757.701-.131 1.419-.191 2.126-.299.417-.066.573.072.561.526-.029 1.237-.011 2.475-.011 3.712 0 1.19-.018 2.379.011 3.568.012.442-.15.64-.538.753h.006zM61.45 12.675c-.632-3.365-2.352-5.78-5.693-6.736-1.379-.395-2.786-.46-4.193-.335-3.718.335-6.486 2.122-7.836 5.804-1.013 2.773-1.025 5.624-.197 8.457.788 2.696 2.485 4.573 4.992 5.649 1.616.693 3.324.974 4.766.92 2.641 0 4.906-.34 7.1-1.177.447-.168.545-.377.336-.82a15.406 15.406 0 01-.683-1.709c-.133-.394-.307-.412-.654-.275-1.923.765-3.927 1.04-5.977.969-3.336-.12-5.565-2.146-5.994-5.374-.052-.406.017-.55.417-.591 2.085-.24 4.17-.496 6.26-.753 2.34-.287 4.674-.592 7.014-.867.475-.054.7-.233.63-.765-.11-.801-.127-1.614-.271-2.403l-.018.006zm-4.744 1.417c-1.946.269-3.891.52-5.837.77l-3.295.431c-.302.042-.55.048-.533-.4.064-1.865.382-3.646 1.639-5.093.996-1.153 2.293-1.632 3.266-1.65 4.187 0 5.322 2.75 5.38 5.47.012.502-.36.43-.614.466l-.006.006z" fill="#B9B9B9"/></g><defs><clipPath id="clip0_524_5404"><path fill="#fff" transform="translate(.375 .5)" d="M0 0h123v26H0z"/></clipPath></defs></svg>