<svg width="114" height="49" fill="none" xmlns="http://www.w3.org/2000/svg"><g clip-path="url(#clip0_524_5475)"><path d="M75.74 42.755c0 1.215.023 2.05-.009 2.882-.012.378.205.963-.418 1.014-.633.055-.539-.521-.542-.921-.01-1.328.003-2.655.019-3.98.003-.307-.044-.688.343-.794.337-.09.583.15.8.397l2.966 3.401c0-1.168-.013-2.047.006-2.927.007-.346-.085-.823.444-.855.53-.028.523.426.523.79.01 1.38.006 2.762-.003 4.14 0 .25.07.557-.236.692-.375.163-.59-.144-.787-.362-.958-1.05-1.893-2.118-3.108-3.484l.003.007zm-55.347.841v-2.233c0-.406.095-.752.56-.81.555-.067.58.359.574.73-.019.928-.126 1.772 1.332 1.373.586-.16 1.13.508 1.212 1.218.073.63.073 1.274.054 1.91-.013.385.126.948-.551.903-.539-.039-.438-.496-.448-.851-.012-.426.02-.851-.006-1.277-.031-.492-.116-1.017-.756-.995-.56.023-.727.448-.837.973-.154.733.545 2.115-.674 2.038-.957-.06-.287-1.424-.457-2.185-.056-.253-.009-.532-.009-.797h.006v.003zm72.506 1.859c.4-.752.875-1.286.567-2.044-.114-.279-.114-.532.208-.644.302-.105.503.077.607.346.271.688.526 1.382.816 2.156.699-.534.595-1.42.976-2.05.164-.27.277-.615.69-.432.44.195.214.515.107.8-.284.742-.567 1.484-.866 2.22-.151.371-.16.864-.737.896-.627.035-.756-.448-.942-.887l-.23-.556c-.57.189-.44.736-.686 1.046-.497.62-.926.624-1.256-.125-.381-.87-.718-1.76-1.09-2.633-.138-.323-.223-.62.18-.784.302-.121.526.096.633.32.337.714.63 1.453 1.02 2.374l.003-.003zm16.805-.17c-.072.164-.208.34-.23.531-.044.416.051.941-.601.855-.516-.07-.387-.557-.39-.9-.016-1.433-.007-2.87-.013-4.303 0-.444 0-.918.605-.876.569.035.371.54.384.864.028.796.009 1.593.009 2.485.728-.076.961-.758 1.43-1.09.236-.167.456-.257.711-.09.233.15.224.4.041.528-1.883 1.305-.113 2.16.457 3.215-1.392.66-1.439-1.116-2.406-1.219h.003zm-65.058-1.081c-.167-.909.636-2.492-1.433-2.45-.113 0-.321-.295-.328-.455-.009-.326.271-.403.548-.406 1.197 0 2.397 0 3.593.006.268 0 .57.07.57.393 0 .407-.293.519-.652.439-1.13-.243-1.158.467-1.13 1.292.031.95.016 1.904.006 2.858-.003.361.05.783-.485.828-.576.048-.699-.317-.692-.796.003-.528 0-1.06 0-1.709h.003zm23.811.848c.87-.733.41-2.595 1.578-2.144.822.317-.33 1.6-.58 2.445-.28.956-.755 1.862-1.218 2.751-.246.47-.709.784-1.25.88-.265.048-.53 0-.605-.339-.053-.24.047-.435.265-.506 1.735-.576 1.278-1.74.784-2.934-.224-.537-.397-1.097-.617-1.634-.123-.301-.321-.605.094-.8.479-.227.646.14.797.496l.755 1.785h-.003zm-30.282.822c.116-.025.494-.275.595.208.079.38-.296.512-.592.614-.856.292-1.672.244-2.305-.476-.664-.759-.686-1.706-.299-2.547.384-.832 1.187-1.184 2.11-1.046.774.115 1.221.63 1.25 1.404.034.88-.658.768-1.225.832-.416.048-1.175-.259-1.153.343.029.764.753.905 1.616.668h.003zm-27.672.973c-1.052-.199-1.76-.314-2.551-.115-.84.214-1.52-.26-1.499-1.315.003-.16-.04-.327 0-.474.186-.691-.478-1.948.5-1.98.883-.03.319 1.21.457 1.868.104.486-.125 1.162.687 1.162.79 0 .812-.602.897-1.216.092-.65-.431-1.84.504-1.814.907.025.39 1.219.425 1.878.035.633.22 1.196.58 2.009v-.003zM89.8 42.908c-1.841 1.427-1.772 2.643-.012 3.398-.431.717-1.083.506-1.631.387-.627-.137-.652-.745-.737-1.276-.11-.692.073-1.35-.444-2.083-.397-.56 1.01-.839.995-1.891.69.643.834 1.468 1.83 1.465zm-57.942.812c.86.724 1.987.855 1.912 1.997a1.12 1.12 0 01-1.027 1.047c-.712.067-1.54.303-1.908-.65.22-.3.416-.233.623-.189.381.08.885.394 1.074-.163.19-.55-.403-.675-.743-.838-.693-.327-.932-.854-.712-1.545.24-.743.936-.733 1.55-.781.38-.029.84.102.85.508.016.573-.513.324-.838.375-.186.029-.362.109-.778.237l-.003.003zm-14.113 3.076c-1.228-.004-2.075-.9-2.003-2.125.073-1.241 1.19-2.262 2.299-2.063.334.06.84.092.793.563-.053.524-.55.33-.894.336-.806.016-1.08.515-1.08 1.247 0 .778.419 1.14 1.15 1.226.327.038.97-.464.906.297-.044.538-.708.49-1.171.519zM12.09 43.6c-.199-.83.031-1.117.847-.682.255.134.598.908.412 1.158-.38.515-.198 1.123-.258 1.69-.04.396.1.943-.554.901-.526-.032-.438-.495-.444-.85-.01-.74 0-1.479 0-2.218h-.003zm92.752-.897c.397.717.8.237 1.238-.006.293-.163.623-.157.759.237.104.297-.054.54-.34.592-1.304.236-1.187 1.228-1.187 2.191 0 .384.148.95-.482.96-.636.013-.488-.556-.507-.944-.044-.787-.022-1.577-.085-2.36-.038-.471.082-.708.604-.673v.003zM72.205 36.19c-.492.463-1.102.255-1.65.255-9.18.02-18.361.023-27.54.01-2.727 0-4.062-1.328-4.066-4.08-.015-9.38-.012-18.761.007-28.139.006-2.784 1.29-4.111 4.043-4.12C52.127.082 61.256.073 70.382.098c3.025.01 4.134 1.146 4.143 4.255.013 5.164.243 10.328-.037 15.49-1.008-.206-1.323-1.226-2.013-1.815-2.48-2.112-4.748-4.476-7.258-6.562-.116-.096-.154-.275-.204-.426-.287-1.302-.835-2.316-2.39-2.21-1.987-1.12-4.116-1.45-6.364-1.335-1.619.083-3.243.016-4.868.016-1.732 0-2.6.909-2.601 2.726-.007 2.288.21 4.598-.063 6.854-.406 3.333-.022 6.66-.22 9.988-.105 1.757.144 1.891 1.86 1.93 1.2.028 2.403-.09 3.603.032.45 1.02-.366 1.023-.932 1.12-.866.15-1.76 0-2.806.13.535 1.11 1.492 1.639 2.107 2.445 2.05 2.684 4.745 3.228 7.913 3.02 3.28-.217 6.59-.06 9.884-.038.715.003 1.483-.15 2.075.464l-.006.006zm21.172.265l-10.41.029c-.418-.304-.903-.122-1.354-.173-3.108-.352-4.02-1.34-4.144-4.518-.009-.256.041-.528-.166-.739-.013-9.163-.044-18.323-.026-27.487C77.284 1.305 78.84.01 81.4.007c8.077-.01 16.15 0 24.228 0 1.102 0 2.201-.01 3.303 0 2.894.028 4.222 1.34 4.232 4.287.022 7.938.038 15.876-.007 23.814-.009 1.84.325 3.704-.217 5.525-.664-.573-.488-1.366-.491-2.086-.022-4.844-.038-9.688.006-14.532.013-1.373-.428-2.374-1.382-3.382-1.984-2.096-4.487-3.644-6.169-6.05a.83.83 0 01-.403.233c-2.928-.51-4.393.713-4.396 3.667 0 2.121.038 4.24-.028 6.357-.016.557.038 1.28-.67 1.45-.62.147-.88-.47-1.15-.902-.586-.935-1.3-1.802-1.584-2.906-.359-2.332-1.137-4.43-3.155-5.845-.661-.653-.875-1.798-1.955-1.965a14.983 14.983 0 00-4.538-.006c-.759.115-.718.832-.73 1.405a195.41 195.41 0 00-.013 6.229c.057 4.524-.16 9.051.13 13.569.05.627.453 1.024.878 1.42 1.864 1.741 3.482 3.747 5.542 5.276.28.208.607.432.541.884l.007.006z" fill="#B9B9B9"/><path d="M72.205 36.19c-5.13-.007-10.26-.042-15.389.003-1.329.012-2.289-.442-3.08-1.514-1.026-1.395-2.701-2.13-3.661-3.618-.224-.35-.696-.666-.482-1.085.217-.429.755-.17 1.146-.189.784-.035 1.571-.016 2.355-.013.444 0 .86-.025.888-.623-.626-2.285-.73-4.566.07-6.838 1.187-.659 2.522-.096 3.743-.46.967-.298 1.994-.384 2.91-.861 1.663-.787 3.042-1.869 3.7-3.695.044-.15.098-.292.151-.436.498-1.836.403-3.702.249-5.567.094-.253.223-.454.538-.387 2.482 2.326 4.925 4.703 7.476 6.95.68.598 1.2 1.244 1.66 1.99.308 4.39.22 8.792.119 13.181-.032 1.43-.784 2.749-2.4 3.161h.007zm21.172.265c-2.701-1.808-4.666-4.441-7.106-6.543-.085-.074-.045-.294-.064-.448.627-.627 1.433-.403 2.176-.46.7-.055 1.443.134 2.04-.417.41-.505.294-1.107.297-1.676.012-2.797-.013-5.593.019-8.392.01-.701-.227-1.642.651-1.926.803-.26 1.09.63 1.512 1.126.236.278.406.61.709.832 2.012 2.55 3.192 5.596 4.808 8.385 1.074 1.853 3.168 2.71 5.114 1.971.721-.275.683-.876.692-1.443.035-1.967.013-3.932.013-5.9 0-3.88-.01-7.761.009-11.64.003-.725-.135-1.503.419-2.127.145-.07-.053-.681.394-.272 2.472 2.265 4.943 4.524 7.4 6.809.563.524.428 1.27.431 1.955l.047 17.347c-.715 2.09-1.656 2.841-3.775 2.848-5.262.016-10.524-.013-15.789-.023l.004-.006zm-16.071-5.398c.538.445.214 1.095.371 1.632.514 1.76 1.351 3.081 3.404 3.273.599.058 1.364-.019 1.89.525-1.427.01-2.894.387-4.192-.592-1.662-1.251-1.643-3.017-1.47-4.838h-.003z" fill="#959595"/><path d="M17.512 36.432c-4.61.016-9.223.061-13.833.035-1.584-.01-2.925-1.4-3.183-3.196a21.434 21.434 0 01-.233-3.017c-.02-7.826-.013-15.652 0-23.48 0-.9.072-1.805.173-2.701C.77 1.053 1.896.048 4.942.048c8.7-.007 17.4.054 26.1-.048 2.038-.023 3.7.397 5.01 1.993.275 1.091.331 2.198.328 3.321-.019 8.892-.019 17.783-.028 26.674 0 .467.123.967-.214 1.382-.668-.57-.476-1.363-.479-2.076-.025-3.34-.013-6.677-.01-10.018 0-.86.01-1.766-.69-2.36-3.07-2.612-5.711-5.718-9.027-8.048-2.286-2.661-5.233-3.51-8.602-3.34-1.773.09-3.556.039-5.335.01-1.136-.02-1.584.48-1.58 1.622.012 6.057.022 12.116-.007 18.173-.006 1.254.507 1.709 1.697 1.657.936-.038 1.883-.112 2.806.144.847.576.3.82-.261.941-1.077.23-2.186-.006-3.612.192 2.226 1.485 3.627 3.503 5.526 4.994.397.31.948.512.951 1.165l-.003.006z" fill="#B9B9B9"/><path d="M17.512 36.433c-2.68-1.773-4.616-4.364-7.258-6.463 1.842-.583 3.555.243 5.092-.554-.923-2.195-.567-4.466-.287-6.706.107-.848.98-1.005 1.741-1.056 1.147-.077 2.3.039 3.436-.134 2.028-.295 3.68-1.245 4.909-2.928 1.102-1.977 1.716-4.034 1.09-6.322-.12-.441-.284-.918.069-1.35 1.395.121 2.188 1.273 3.016 2.124a61.381 61.381 0 004.742 4.358c1.263 1.053 2.107 2.121 2.04 3.993-.14 3.983.007 7.98.036 11.97-.13.492-.259.985-.39 1.474-.41.998-1.182 1.494-2.205 1.635l.003-.003-16.037-.048.003.01z" fill="#959595"/><path d="M59.537 41.04c-1.742-.858-2.982-.045-2.96 1.881.003.317 0 .633 0 .95 0 .688 0 1.373.003 2.06 0 .388.044.75.55.781.492.03.684-.272.618-.688-.198-1.231.41-1.497 1.483-1.567.87-.058 1.304-.784 1.392-1.66.088-.871-.419-1.428-1.09-1.757h.004zm-1.124 2.751c-.703.039-.662-.508-.665-.992.073-.483-.135-1.142.693-1.151.74-.01 1.001.483 1.055 1.116.066.774-.47.995-1.08 1.027h-.003zM2.102 40.806C.744 40.73.688 41.51.77 42.512c.034.422.006.85.006 1.273h.01c0 .691-.004 1.382 0 2.073 0 .368-.035.806.484.829.536.026.564-.42.507-.78-.157-1.047.284-1.383 1.285-1.434 1.001-.054 1.612-.675 1.603-1.785-.013-1.23-.86-1.783-2.563-1.882zm.346 2.982c-.803.013-.658-.614-.683-1.113-.026-.557-.02-1.104.765-1.005.589.074 1.124.26 1.12 1.017-.002.807-.503 1.092-1.199 1.101h-.003zm98.169-1.165c-1.238-.163-2.242.82-2.255 2.067-.012 1.264.825 2.198 1.987 2.218 1.118.016 2.097-.95 2.145-2.346-.086-.972-.684-1.779-1.877-1.935v-.004zm-.107 3.45c-.743-.129-1.137-.512-1.165-1.267-.025-.727.182-1.287.985-1.3.75-.012 1.109.5 1.165 1.207.06.739-.324 1.17-.985 1.36zm-50.275-3.472c-1.297-.026-2.21.867-2.201 2.147.01 1.225.875 2.07 2.1 2.044 1.298-.025 2.035-.787 2.031-2.098-.003-1.12-.884-2.074-1.93-2.096v.003zm-.142 3.424c-.78-.052-.995-.704-1.058-1.338-.072-.739.287-1.21 1.087-1.18.818.032.966.64 1.067 1.267-.066.72-.286 1.298-1.099 1.247l.003.004zm-20.959-1.443c-.116-2.051-1.19-2.525-3.133-1.251.504.361.93.128 1.335.176.268.032.583.054.611.367.035.356-.343.31-.557.397-.24.1-.498.147-.743.237-.614.224-.983.672-.853 1.334.141.736.699 1.136 1.388.906.756-.25 1.414.09 2.12.108-.057-.758-.127-1.516-.168-2.274zm-1.857 1.51c-.36-.016-.605-.192-.548-.58.072-.502.45-.662.897-.68.406-.02.517.249.535.53-.075.595-.418.749-.884.73zm56.846-1.242c.507-.067 1.152.087 1.285-.598.138-.713-.315-1.17-.939-1.472-.828-.403-1.58-.21-2.131.439-.655.77-.854 1.695-.271 2.64.592.96 1.499 1.061 2.481.873.356-.068.838-.183.75-.637-.114-.592-.567-.189-.889-.15-.592.06-1.3.06-1.357-.663-.06-.755.68-.377 1.068-.432h.003zm-1.049-1.113c.054-.326.381-.47.715-.445.4.032.633.282.737.666-.1.509-.472.275-.721.236-.29-.044-.831.16-.73-.457z" fill="#B9B9B9"/><path d="M38.109 44.127c-.662.074-1.156.202-1.622-.115.535-.58 1.076-.542 1.622.115z" fill="#F0EFF1"/><path d="M65.425 46.22c-.604-.64-.267-1.411-.35-2.125-.078-.675-.349-1.241-1.07-1.401-.718-.16-1.385-.128-1.795.668.583.375 1.24-.147 1.795.468-.356.575-.948.476-1.398.684-.85.397-1.077 1.61-.356 2.054.951.586 2.01-.208 3.014.132.166.057.318-.317.16-.487v.006zM63.3 46.1c-.287-.019-.498-.211-.454-.525.076-.521.488-.665.917-.659.362.007.274.368.327.538-.066.547-.397.672-.79.65V46.1z" fill="#B9B9B9"/><path d="M64.965 11.3c.58 2.023.618 4.02-.26 5.974-.7-.886-.42-1.936-.439-2.921-.056-3.462-1.952-5.625-5.328-6.175-2.761-.451-5.532-.262-8.303-.314-1.061-.019-1.502.487-1.505 1.549 0 5.849-.013 11.697.01 17.546.002.982.301 1.625 1.463 1.561 1.833-.099 2.233-.323 2.3-1.65.059-1.169-.045-2.343.053-3.507.06-.73.075-1.587 1.206-1.424.192.086.27.233.236.445-.687.278-.422.895-.428 1.369-.026 1.795.003 3.593.012 5.388-1.66.749-3.397.346-5.095.3-.979-.025-.752-1.017-.752-1.644 0-3.459.066-6.92.088-10.379.019-2.985.047-5.967 0-8.952-.016-1.056.245-1.523 1.395-1.488 2.777.08 5.558.042 8.338.045 1.89 0 3.593.585 5.139 1.67 1.165.464 1.801 1.318 1.867 2.598l.003.01z" fill="#DDEBCF"/><path d="M64.965 11.3c-.52-.94-1.06-1.868-1.867-2.597 2.006-.59 1.72 1.241 2.252 2.204-.13.131-.255.262-.385.394z" fill="#959595"/><path d="M90.871 29.128c-1.508.752-3.114.109-4.66.336-.432-.483-.378-1.081-.378-1.66 0-6.425.025-12.85-.022-19.274-.01-1.13.34-1.533 1.426-1.408.62.074 1.263.09 1.88.007 2.198-.292 3.99.156 4.837 2.511 1.316 1.616 2.28 3.43 2.963 5.404.513 1.555 1.511 2.796 2.777 4.054v-3.884c0-2.282 0-4.566.019-6.847.003-.397-.145-1.104.315-1.107 1.555-.007 3.218-.698 4.641.534 0 6.652-.031 13.3.022 19.952.01 1.25-.245 1.616-1.587 1.773-2.815.329-4.496-.567-5.633-3.302-1.068-2.573-2.673-4.915-4.043-7.356-.756-.877-1.15-2.022-2.031-2.838-.504.592-.381 1.29-.397 1.952-.085 3.717.164 7.438-.129 11.153z" fill="#FBFDFD"/><path d="M96.914 15.044c-1.083-1.747-2.249-3.45-2.963-5.404.387-.013.784.112.935.445.734 1.628 2.188 2.953 2.028 4.959z" fill="#959595"/><path d="M54.379 22.144c-.998-.211-.982.467-.982 1.145 0 1.491-.02 2.982 0 4.473.009.717-.237 1.033-.992 1.081-3.662.227-3.795 1.181-3.763-3.413.04-5.376.047-10.754-.02-16.13-.018-1.445.413-1.99 1.884-1.935 3.284.122 6.578-.157 9.834.599 2.16.499 4.641 3.557 4.402 5.643-.139 1.21-.038 2.445-.047 3.667l-.007.02c-.916 1.618-2.248 2.828-3.722 3.9-.79.889-2.03.402-2.922.985-1.225.102-2.45.16-3.671-.039l.006.004z" fill="#FBFDFB"/><path d="M60.976 21.2l3.722-3.9c-.545 1.983-1.896 3.177-3.722 3.9z" fill="#DDEBCF"/><path d="M54.379 22.144l3.675.038c-1.194.496-2.434.15-3.653.208a.593.593 0 01-.022-.246z" fill="#B9B9B9"/><path d="M108.883 29.48c-1.156 0-2.079-.88-1.95-1.99.136-1.139.838-1.875 1.987-1.836 1.165.038 1.761.793 1.786 1.99.025 1.235-.567 1.836-1.823 1.836zm-18.012-.352V14.273a26.605 26.605 0 012.557 4.588c-.746-.22-.844-1.017-1.291-1.507-.205-.224-.318-.617-.683-.515-.381.109-.287.515-.29.813-.01 2.322.04 4.645-.025 6.968-.044 1.504.324 3.036-.268 4.508z" fill="#959595"/><path d="M20.664 21.843c-1.313.47-2.68.227-4.018.25-.96.015-1.278.364-1.263 1.314.032 2.003-.018 4.01-.034 6.012-1.357.007-2.718-.022-4.078.03-.913.031-1.313-.273-1.307-1.268.029-6.639.01-13.278.013-19.917 0-.521-.079-1.132.727-1.12 3.391.052 6.795-.287 10.171.19 2.324.329 4.194 1.506 5.435 3.592.92 2.803.825 5.49-.904 7.986-.198.31-.661-.163-.913.522-.33.896-1.404 1.305-2.324 1.67-.523.205-1.083.32-1.502.739h-.003z" fill="#FAFDFD"/><path d="M20.664 21.843c.24-.691.866-.816 1.436-1.034.91-.348 1.842-.735 2.283-1.67.309-.652.693-.124 1.02-.227-1.152 1.693-2.765 2.617-4.739 2.93z" fill="#CCE7F1"/><path d="M58.4 17.232c-.286.128-.56.292-.856.384-3.212 1.011-3.858.519-3.713-2.812.01-.211-.025-.448.054-.633.406-.944-.917-2.515.884-2.906 2.24-.486 3.792.346 4.585 2.234.337 1.417-.359 2.562-.95 3.733H58.4z" fill="#959595"/><path d="M58.4 17.232c.318-1.244.633-2.489.95-3.733.678 1.506.177 2.703-.95 3.733zm49.768 9.349c.538-.57 1.149-.492 1.625-.003.437.451.736 1.046.091 1.77-.409-.79-.268-2.186-1.735-1.786l.022.02h-.003z" fill="#959595"/><path d="M108.149 26.562v1.702c-.69-.608-.879-1.184.022-1.683l-.022-.019zM15.38 14.618c0-.265-.053-.547.013-.796.223-.874-.611-2.166.777-2.566 1.622-.467 3.918.345 4.535 1.433 1.184 2.083.148 4.563-2.154 5.081-.554.125-1.143.09-1.71.163-1.06.138-1.58-.253-1.473-1.404.06-.634.009-1.277.012-1.914v.003z" fill="#959595"/></g><defs><clipPath id="clip0_524_5475"><path fill="#fff" transform="translate(.25)" d="M0 0h113v49H0z"/></clipPath></defs></svg>