<svg width="39" height="53" fill="none" xmlns="http://www.w3.org/2000/svg"><path d="M19.125 38.087c-6.164 0-12.33-.004-18.494.008-.383 0-.496-.091-.496-.487.012-12.38.012-24.762 0-37.143C.135.083.248 0 .61 0c12.343.008 24.685.008 37.03 0 .36 0 .475.083.475.465-.01 12.38-.011 24.763 0 37.143 0 .396-.113.488-.496.488-6.164-.011-12.33-.008-18.493-.008v-.002zM10.729 5.233v.03c-1.965 0-3.93 0-5.896.003-.12 0-.276-.076-.354.099-.156.355.04.678.422.69.068.002.134.007.202.01 1.397.068 1.63.308 1.63 1.693v12.314c0 .244-.014.487-.031.728-.036.467-.266.724-.71.865a3.2 3.2 0 01-1.236.12c-.341-.026-.288.196-.28.39.007.195-.092.435.283.434a760.44 760.44 0 017.552 0c.333.001.304-.184.29-.386-.014-.187.114-.466-.272-.435-.445.034-.88-.036-1.32-.115-.697-.128-1.012-.42-1.017-1.12-.016-2.04-.007-4.078-.011-6.118 0-.2.046-.295.27-.29 1.008.023 2.018.005 3.025.061.477.028.88.25 1.065.776.108.313.155.63.176.945.023.324.163.355.432.36.328.005.292-.198.292-.399v-4.456c0-.19.073-.417-.271-.41-.27.007-.472.009-.45.372.013.198-.048.4-.08.6-.114.688-.556 1.11-1.251 1.132-.968.033-1.938.026-2.906.049-.228.005-.302-.07-.3-.3.006-2.147.006-4.294 0-6.442 0-.204.054-.293.272-.282 1.447.068 2.901-.133 4.345.158.835.168 1.45.59 1.792 1.38.213.493.368 1.002.417 1.542.029.321.084.64.124.962.04.316.26.31.504.313.293.005.282-.185.283-.378v-1.58c0-1.012-.011-2.025.007-3.037.006-.334-.102-.428-.419-.367a3.988 3.988 0 01-.758.083c-1.938.006-3.875.003-5.815.003l-.006.003zm18.099 8.271c0-2.322 0-4.644-.002-6.967 0-.215-.018-.397.297-.387.925.027 1.856-.056 2.769.176.889.226 1.48.774 1.766 1.64.233.704.393 1.425.42 2.17.012.34.22.371.493.373.31.002.303-.188.303-.402-.002-1.552-.007-3.106.005-4.658.001-.284-.097-.358-.356-.305-.584.123-1.177.117-1.768.117-3.701.003-7.404.005-11.104 0-.564 0-1.13.006-1.688-.115-.297-.065-.404.045-.402.358.013 1.526.008 3.052.003 4.577 0 .245.034.417.34.43.289.01.431-.056.468-.382.084-.747.18-1.496.441-2.21.327-.89.948-1.408 1.882-1.615.788-.174 1.577-.133 2.367-.146.554-.01.554 0 .554.537v13.488c0 .134.004.27-.012.403-.083.675-.374.94-1.041 1.093-.467.107-.931.119-1.4.11-.367-.006-.221.265-.23.43-.01.166-.096.403.235.388.35-.015.7-.003 1.05-.003 2.302 0 4.605-.008 6.906.008.346.002.351-.16.356-.418.005-.27-.023-.437-.362-.41-.401.035-.8-.035-1.201-.093-.724-.104-1.09-.552-1.088-1.343.004-2.282 0-4.564 0-6.845l-.001.001zM10.435 51.252c.334-.997.657-1.93.96-2.87.076-.236.194-.32.434-.31.377.016.754.005 1.13.005.099 0 .204.005.207.134.003.115-.1.107-.176.114-.344.034-.432.232-.393.553.138 1.148.264 2.296.391 3.446.028.25.175.339.406.344.092.001.207.01.184.149-.016.102-.116.102-.192.102-.566.003-1.13.002-1.695 0-.085 0-.162-.011-.16-.126.001-.112.072-.128.161-.127.288.005.375-.17.35-.418-.11-1.07-.227-2.14-.343-3.211-.007-.062.001-.138-.114-.169-.462 1.354-.922 2.71-1.385 4.066-.032.006-.066.011-.098.018-.527-1.31-.871-2.683-1.36-4.01-.163.078-.15.228-.163.356-.093.963-.184 1.928-.274 2.893-.03.32.111.483.44.475.09-.001.2-.014.201.128.002.15-.114.123-.202.125a81.34 81.34 0 01-1.21 0c-.089 0-.2.016-.196-.131.004-.114.084-.123.168-.122.319.007.408-.2.435-.464.113-1.098.222-2.195.343-3.292.035-.324-.01-.564-.396-.588-.068-.005-.14-.01-.14-.103 0-.099.056-.142.153-.142.457 0 .914.006 1.372-.004.207-.004.197.172.23.274.256.776.502 1.554.73 2.337.048.17.116.325.207.566l-.005.002zm-2.689-9.575c0 1.06-.005 2.12.004 3.18.002.198.15.304.34.341.137.026.296.011.41.264H6.823c-.055 0-.11-.011-.118-.078-.012-.087.051-.123.121-.124.591-.018.577-.438.575-.858-.003-.972-.011-1.945.004-2.916.004-.349-.117-.54-.47-.56-.109-.006-.238 0-.233-.154.004-.162.143-.13.244-.13.363-.003.727.012 1.089-.006.247-.011.36.159.478.311.663.853 1.317 1.713 1.972 2.57a.414.414 0 00.254.168c0-.811.008-1.6-.005-2.39-.005-.27-.218-.344-.45-.37-.105-.012-.244-.013-.226-.162.018-.142.157-.122.262-.124h1.25c.095 0 .204-.011.214.123.008.124-.082.16-.186.16-.446 0-.515.283-.514.648.007 1.215.004 2.43 0 3.644 0 .1.062.239-.069.287-.149.055-.16-.12-.217-.19-.95-1.166-1.89-2.338-2.836-3.51-.04-.05-.086-.1-.128-.148a1.81 1.81 0 01-.088.023v.001zm13.411 3.907c-.693-.863-1.357-1.693-2.026-2.52-.327-.404-.66-.804-.994-1.202-.044-.052-.06-.168-.168-.13-.071.026-.087.103-.087.17.008.956-.042 1.913.024 2.868.02.295.197.417.465.46.083.014.222 0 .219.129-.004.134-.135.1-.222.102-.417.003-.834.002-1.25 0-.077 0-.18.024-.195-.088-.013-.105.084-.131.164-.14.431-.044.481-.333.478-.692-.01-.997-.023-1.996.005-2.993.011-.416-.147-.6-.538-.626-.117-.008-.272.014-.248-.174.021-.157.165-.094.262-.11.026-.003.053 0 .08 0 .903-.012 1.697.454 2.385 1.398.362.495.738.976 1.113 1.461.037.049.105.107.154.104.108-.007.092-.114.093-.188.002-.7.004-1.403-.001-2.104-.003-.303-.218-.368-.466-.386-.111-.008-.23-.016-.213-.17.015-.135.13-.112.221-.114l1.292-.001c.1 0 .21.011.224.12.015.115-.097.156-.19.159-.464.02-.511.316-.506.697.014 1.173.006 2.347.003 3.521 0 .128.039.264-.076.448l-.002.001zm-5.363 7.338c-.538 0-1.077.004-1.615-.003-.103 0-.268.07-.284-.118-.015-.172.136-.129.233-.135.237-.018.318-.157.318-.38-.002-1.188-.005-2.375.003-3.564.002-.261-.137-.355-.358-.392-.086-.015-.206.008-.186-.143.014-.112.101-.109.182-.109h3.23c.083 0 .19.01.196.102.021.349.028.698.03 1.046 0 .06-.068.078-.125.064-.071-.02-.11-.072-.12-.146-.035-.273-.1-.575-.373-.664a3.172 3.172 0 00-1.396-.112c-.117.017-.18.106-.178.234.002.487 0 .971 0 1.458 0 .1.015.207.132.212.372.018.75.104 1.106-.09.071-.04.134-.075.171-.158.044-.097-.05-.305.133-.28.215.029.107.241.114.371.017.27.007.54.004.81 0 .093.001.207-.123.218-.118.01-.1-.104-.11-.177-.044-.329-.271-.389-.55-.402-.879-.04-.879-.044-.879.834 0 .068-.006.136 0 .202.046.375-.17.888.366 1.034.787.214 1.478-.117 1.763-.703.074-.152.045-.49.258-.436.21.054.078.352.063.534-.07.892-.077.89-.958.89h-1.05l.003.003zM2.34 45.371c-.122.142-.265.09-.392.091-.444.007-.887.01-1.331 0-.152-.003-.4.085-.438-.065-.058-.225.226-.144.346-.223.144-.098.174-.227.174-.383 0-1.147-.003-2.293.002-3.44 0-.26-.096-.412-.365-.426-.099-.007-.198-.033-.188-.16.01-.134.123-.12.215-.123 1.09-.003 2.179 0 3.268-.01.14 0 .205.045.207.174.003.386 0 .774 0 1.22-.231-.132-.246-.305-.272-.466-.064-.394-.297-.57-.688-.6-1.272-.095-1.27-.1-1.27 1.2 0 .444.22.664.66.66.312-.001.652.041.647-.439 0-.087.094-.087.155-.087.063 0 .082.056.082.113v1.174c0 .067-.01.141-.105.135-.072-.005-.124-.044-.134-.123-.022-.174-.017-.365-.25-.404-.32-.052-.643-.072-.96 0-.14.03-.092.178-.092.279-.005.418.011.836-.007 1.253-.013.3.112.446.396.5.11.02.25 0 .34.15zm18.855 2.679c-.044.497.212.966-.008 1.5-.173-.286-.207-.562-.377-.774-.283-.356-.65-.503-1.087-.445-.277.037-.508.19-.584.474-.076.287-.026.545.238.75.331.26.722.403 1.074.615.466.28.97.526 1.043 1.17.14 1.234-.99 1.767-1.886 1.642a2.5 2.5 0 01-.645-.209c-.15-.066-.244-.102-.377.054-.142.167-.23.061-.242-.119-.023-.349-.044-.699-.065-1.047-.005-.085.004-.17.107-.185.097-.015.09.074.113.131l.121.297c.248.611 1.018.966 1.636.741a.732.732 0 00.49-.624.766.766 0 00-.375-.79c-.41-.248-.847-.445-1.256-.693-.45-.274-.806-.634-.776-1.216.03-.56.32-.957.828-1.179a1.705 1.705 0 011.294-.023c.268.1.482.208.729-.068l.005-.001zm-9.581-2.59c.81-.283.912-.998 1.143-1.618.365-.976.737-1.949 1.093-2.928.066-.184.124-.307.349-.312.211-.005.277.122.34.278.529 1.311 1.062 2.622 1.583 3.937.08.203.177.357.394.415.065.018.134.06.125.138-.012.114-.11.096-.188.096H14.88c-.074 0-.18.023-.19-.09-.012-.111.09-.116.167-.124.374-.033.404-.226.25-.518-.036-.07-.031-.162-.07-.228-.168-.287-.149-.767-.425-.87-.369-.136-.821-.045-1.238-.048a.305.305 0 00-.154.032c-.106.064-.52 1.316-.472 1.422.09.2.303.142.454.208.059.026.14.013.154.1.011.066-.027.108-.086.11-.552.002-1.104 0-1.656 0h.001zm2.316-2.187c.081 0 .162-.01.241 0 .357.047.331-.147.24-.378-.125-.31-.258-.614-.379-.924-.026-.065-.042-.133-.118-.143-.08-.01-.11.054-.134.122-.128.35-.262.697-.383 1.047-.063.185.011.284.213.276.107-.005.215 0 .322 0h-.002zm18.072 2.189c.042-.113.042-.13.051-.139.154-.148.495-.011.529-.258.026-.185-.126-.395-.199-.595-.32-.885-.32-.863-1.268-.895-.41-.015-.658.078-.723.51-.02.143-.09.278-.134.42-.107.354.01.605.348.753.06.026.137.034.117.127-.014.065-.074.073-.127.073h-1.474c0-.088-.005-.135 0-.135.703-.157.75-.804.952-1.315.39-.994.737-2.006 1.123-3.002.065-.169.08-.436.4-.405.285.027.3.243.377.436.511 1.276 1.03 2.548 1.54 3.824.083.204.207.332.424.376.065.013.121.063.105.146-.013.067-.068.076-.123.076H32l.002.003zm-.748-3.731c-.173.457-.322.84-.461 1.228-.03.082-.095.217.006.256.308.115.63.066.948.03.093-.01.105-.11.077-.194-.145-.438-.28-.882-.57-1.32zM4.49 49.574c-.248-.17-.243-.352-.276-.516-.101-.505-.853-.897-1.322-.696-.132.057-.12.165-.12.27 0 1.2-.004 2.403 0 3.604 0 .326.196.443.502.433.095-.003.242-.042.244.125 0 .175-.152.122-.243.123-.632.007-1.265.005-1.897.002-.087 0-.208.03-.218-.11-.013-.172.126-.146.226-.143.348.012.472-.157.469-.496-.01-1.161-.01-2.323 0-3.484.003-.26-.073-.364-.343-.34-.906.08-.974.154-1.147.927-.021.091.014.255-.159.218-.12-.026-.07-.156-.07-.24 0-.325.014-.649.007-.972-.005-.185.075-.222.241-.222 1.291.005 2.584.003 3.876.003.088 0 .22-.027.223.106.01.446.004.892.004 1.408h.002zm21.694-7.919c-.005.076.126.392-.062.433-.265.056-.189-.294-.256-.458-.372-.906-1.625-1.044-2.289-.248-.803.965-.551 3.046.787 3.58.575.23 1.12.19 1.624-.182.096-.07.19-.214.293-.104.124.133-.037.258-.123.33a2.28 2.28 0 01-1.907.534c-.958-.152-1.78-.92-1.99-1.702-.347-1.3.283-2.418 1.054-2.882.695-.419 1.43-.498 2.193-.206.086.032.173.128.259.086.583-.295.354.21.412.421.024.088.003.189.003.401l.002-.003zm8.156 3.709c.408-.233.613-.612.613-1.139 0-.918-.007-1.834.003-2.752.003-.307-.052-.534-.414-.564-.076-.007-.215-.018-.19-.153.02-.117.139-.112.23-.112.539-.003 1.077-.001 1.615 0 .09 0 .202-.018.213.12.01.128-.082.157-.182.16-.306.012-.367.195-.365.463.008 1.106.01 2.212-.002 3.318-.005.365.13.5.496.501 1.033.005 1.157-.066 1.566-1.043.026-.061.055-.124.192-.152.03.441-.013.87-.067 1.297-.015.112-.097.158-.202.156-1.156-.02-2.311.05-3.465-.037-.008 0-.015-.021-.04-.063zm-5.554-.002c-.021.114-.118.097-.19.099-.55.005-1.103.005-1.654.003-.073 0-.177.033-.2-.076-.027-.118.077-.123.153-.135.368-.048.43-.3.427-.614a242.943 242.943 0 010-3.078c.001-.333-.021-.631-.45-.668-.084-.007-.161-.04-.139-.151.018-.083.083-.1.154-.1.578 0 1.157 0 1.735.006.083 0 .17.03.167.134-.003.086-.087.093-.15.1-.36.051-.435.28-.43.607.014.931.005 1.864.005 2.795 0 .496.19.855.57 1.077l.002.001zm-22.448.102h-1.88c-.051 0-.111 0-.129-.068-.023-.088.034-.131.102-.14.426-.048.44-.343.436-.679-.01-1.012-.01-2.026 0-3.038.003-.322-.018-.603-.422-.65-.07-.008-.139-.037-.124-.122.008-.043.06-.115.09-.115.63.007 1.26-.071 1.885.042.027.005.045.059.111.151-.717-.006-.632.479-.627.93.008.824.003 1.646.003 2.47 0 .513.185.92.553 1.22h.002zm-.386 7.459h-.807c-.094 0-.199.005-.19-.14.006-.113.095-.115.174-.115.338.005.393-.232.394-.486.007-1.107.004-2.21.004-3.317 0-.287-.086-.506-.414-.538-.084-.008-.167-.025-.14-.141.022-.101.103-.11.187-.11h1.613c.085 0 .164.009.179.114.016.116-.065.132-.149.14-.305.03-.376.21-.373.498.014 1.119.01 2.238.003 3.357 0 .274.045.486.38.483.092 0 .16.03.155.136-.005.112-.089.119-.171.119H5.95h.002z" fill="#B9B9B9"/><path d="M10.729 5.79c1.938 0 3.875.003 5.815-.004.253 0 .509-.034.758-.083.316-.061.425.033.418.367-.018 1.012-.006 2.026-.006 3.037v1.58c0 .193.01.383-.283.378-.244-.003-.464.003-.504-.313-.04-.321-.097-.64-.125-.962a4.997 4.997 0 00-.417-1.542c-.342-.79-.957-1.211-1.792-1.38-1.442-.29-2.896-.09-4.344-.157-.218-.01-.273.079-.273.282.004 2.147.006 4.294 0 6.441 0 .23.074.305.3.3.968-.022 1.938-.016 2.906-.048.695-.023 1.138-.445 1.25-1.132.033-.2.095-.402.082-.6-.024-.364.178-.365.449-.372.344-.008.272.22.272.409.003 1.486 0 2.971 0 4.457 0 .202.035.405-.293.398-.27-.004-.41-.035-.431-.36a3.584 3.584 0 00-.177-.945c-.182-.526-.586-.748-1.065-.775-1.007-.057-2.017-.04-3.025-.062-.221-.005-.27.09-.27.29.006 2.039-.005 4.077.011 6.118.007.7.32.992 1.017 1.12.44.081.876.151 1.32.115.387-.029.259.248.272.435.014.203.043.39-.29.386a731.219 731.219 0 00-7.552 0c-.375.002-.276-.238-.282-.433-.007-.195-.062-.417.28-.39a3.22 3.22 0 001.235-.12c.445-.144.674-.4.71-.865.02-.242.03-.485.03-.728.002-4.105 0-8.21 0-12.314 0-1.385-.23-1.625-1.628-1.693-.068-.004-.135-.008-.202-.01-.382-.013-.579-.334-.422-.691.077-.177.234-.099.354-.099 1.965-.005 3.93-.003 5.895-.003v-.03l.007-.003zm18.099 8.27v6.845c0 .792.363 1.24 1.088 1.343.4.057.798.128 1.2.094.34-.029.367.138.362.41-.005.257-.01.42-.355.418-2.302-.017-4.603-.009-6.906-.009-.35 0-.7-.011-1.05.004-.332.014-.246-.223-.236-.388.01-.165-.136-.436.23-.43.47.008.933-.003 1.4-.11.668-.152.959-.418 1.041-1.093.016-.133.013-.27.013-.404V7.252c0-.538 0-.546-.554-.537-.79.013-1.58-.027-2.368.146-.936.206-1.555.724-1.881 1.616-.262.713-.357 1.462-.441 2.21-.037.326-.18.394-.469.381-.305-.013-.341-.185-.34-.43.005-1.526.01-3.052-.003-4.576-.003-.313.104-.423.403-.359.556.122 1.123.116 1.687.116 3.7.004 7.403.004 11.104 0 .592 0 1.185.006 1.768-.117.257-.055.358.02.356.305-.011 1.552-.007 3.105-.005 4.657 0 .214.01.406-.302.402-.273-.001-.482-.032-.493-.373-.026-.744-.188-1.466-.42-2.17-.286-.865-.878-1.414-1.767-1.639-.913-.232-1.842-.148-2.768-.177-.315-.01-.297.172-.297.388.003 2.322.001 4.644.001 6.967l.002-.002z" fill="#F7F7F7"/></svg>