<svg width="128" height="31" fill="none" xmlns="http://www.w3.org/2000/svg"><g clip-path="url(#clip0_524_5563)"><path d="M49.636 4.54c-.2.33-.122.61-.122.872-.006 4.585-.015 9.17.009 13.754.003.587-.13.76-.72.748-1.756-.038-1.756-.009-1.756-1.808V4.154l-.114-.025c-.653 1.97-1.306 3.938-1.957 5.908-1.016 3.074-2.044 6.144-3.035 9.227-.159.492-.363.658-.878.652-1.866-.028-1.859-.006-2.468-1.842-1.49-4.482-2.985-8.96-4.482-13.439-.09-.271-.21-.533-.384-.972.203 5.282.087 10.374.14 15.463.005.631-.145.807-.766.791-1.74-.042-1.742-.012-1.742-1.824 0-5.622.01-11.247-.015-16.87-.003-.612.168-.77.736-.736.788.05 1.582.043 2.37 0 .48-.025.66.153.814.62 1.596 4.87 3.223 9.732 4.843 14.596.102.309.217.615.349.987.356-.556.47-1.148.654-1.704 1.537-4.623 3.068-9.25 4.578-13.881.147-.45.314-.642.802-.619.962.046 1.927.049 2.887 0 .539-.027.824.161 1.104.63 2.84 4.767 5.707 9.517 8.568 14.27.1.164.21.32.414.624v-2.4c0-4.154.01-8.308-.013-12.463-.003-.541.142-.666.654-.66 1.793.02 1.793-.002 1.793 1.832 0 5.598-.008 11.195.014 16.793.003.593-.166.675-.72.764-1.648.266-2.522-.46-3.352-1.894-2.504-4.323-5.185-8.54-7.796-12.797-.123-.201-.253-.4-.41-.642V4.54zm36.291 15.902c-2.464.02-4.494-.528-6.03-2.315-.984-1.144-1.425-2.516-1.46-4.041-.01-.415.118-.524.498-.505.567.03 1.199-.149 1.686.055.532.224.27.976.43 1.48.476 1.493 1.401 2.499 2.901 2.842 1.614.369 3.231.378 4.786-.314 1.597-.712 2.238-2.193 1.716-3.857-.212-.673-.638-1.12-1.249-1.414-1.442-.69-2.995-.995-4.524-1.379-1.15-.29-2.301-.576-3.37-1.115-1.472-.742-2.216-1.986-2.24-3.644C79.02 2.881 80.826.66 84.058.148c2.198-.35 4.336-.136 6.257 1.16 1.56 1.054 2.159 2.625 2.236 4.47.013.311-.104.409-.38.381-.098-.009-.197 0-.297 0-.517-.001-1.105.151-1.537-.049-.468-.216-.326-.93-.505-1.41-.459-1.221-1.34-1.925-2.534-2.21-1.165-.278-2.354-.293-3.517.014-1.537.403-2.518 2.03-2.2 3.626.153.767.618 1.288 1.34 1.586 1.861.771 3.835 1.098 5.764 1.602 1.105.288 2.197.635 3.03 1.486 2.696 2.76 1.463 7.667-2.251 8.989-1.221.434-2.469.704-3.54.647l.002.002zM.085 10.162c0-3.012.009-6.023-.01-9.036C.074.661.15.478.666.485c2.639.03 5.278.013 7.917.013 1.26 0 2.437.32 3.498 1.029 2.5 1.667 2.477 5.673 1.172 7.79-1.2 1.945-3.018 2.363-5.046 2.372-1.652.008-3.305.02-4.957-.01-.482-.008-.626.127-.62.632.026 2.278-.005 4.556.022 6.834.007.56-.089.84-.71.766-.584-.068-1.362.182-1.715-.123-.416-.36-.13-1.184-.134-1.804-.018-2.608-.007-5.215-.007-7.822zm2.556-4.04c0 .964.011 1.927-.006 2.888-.006.326.083.444.414.433 1.922-.064 3.85.117 5.77-.116 1.814-.22 2.72-1.353 2.687-3.335-.034-1.943-1.03-3.12-2.853-3.193-1.848-.075-3.703-.014-5.554-.041-.436-.006-.47.2-.464.552.016.937.006 1.874.006 2.813zM13.326.498c.864 0 1.606.034 2.342-.012.48-.029.746.134.991.562 1.642 2.88 3.313 5.742 4.973 8.605.308-.023.336-.295.439-.472 1.578-2.684 3.158-5.365 4.705-8.069.273-.477.568-.669 1.107-.629.712.053 1.428.014 2.155.014.055.341-.191.524-.325.74-2.102 3.426-4.21 6.848-6.331 10.26a2.26 2.26 0 00-.352 1.275c.018 2.18-.004 4.357.018 6.536.005.456-.096.646-.568.597-.656-.068-1.507.273-1.923-.135-.382-.377-.1-1.247-.106-1.9-.014-1.646-.023-3.293.004-4.94a2.706 2.706 0 00-.438-1.556c-2.154-3.452-4.284-6.92-6.42-10.384-.077-.124-.142-.257-.271-.493v.001zM72.224 11.29c0 2.633-.015 5.264.012 7.898.006.542-.088.8-.675.719-.626-.086-1.47.277-1.832-.153-.309-.367-.096-1.205-.098-1.834-.003-4.733-.016-9.468.015-14.2.004-.701-.114-.957-.865-.927-1.65.067-3.305.003-4.958.032-.464.008-.572-.142-.577-.6-.013-1.73-.03-1.73 1.681-1.73 4.317 0 8.634.012 12.95-.014.576-.003.745.14.73.744-.038 1.588-.008 1.59-1.523 1.59-1.406 0-2.813.024-4.218-.013-.514-.013-.663.128-.657.666.028 2.607.012 5.215.012 7.822h.003z" fill="#B9B9B9"/><path d="M117.125 11.686c1.056-1.106 2.173-1.722 3.633-1.313.498.14.927.387 1.203.82.264.414.427.41.758.054.92-.992 2.075-1.21 3.33-.874 1.169.312 1.823 1.19 1.866 2.68.061 2.124.012 4.251.032 6.378.005.724-.5.46-.836.488-.39.032-.801.087-.793-.567.022-1.872.009-3.745.007-5.62 0-1.447-.377-1.964-1.446-1.993-1.263-.035-2.233.808-2.267 2.073-.047 1.745-.018 3.492-.036 5.239-.002.281.153.676-.201.812-.392.15-.838.125-1.239.009-.26-.075-.153-.395-.154-.608-.008-1.873 0-3.746-.008-5.62-.004-1.152-.281-1.704-.909-1.879-.963-.266-2.06.21-2.528 1.116-.305.592-.399 1.243-.4 1.908-.005 1.493-.034 2.988.013 4.48.021.652-.292.667-.765.667-.472 0-.776-.017-.767-.668a301.44 301.44 0 00-.002-8.124c-.009-.653.241-.732.776-.744.574-.014.835.148.74.76-.022.137-.003.282-.003.524l-.004.002zm-10.811 3.578c-.051-1.649.363-3.13 1.666-4.19 1.295-1.055 2.772-1.145 4.263-.53 1.614.667 2.341 2.043 2.483 3.743.137 1.628-.096 3.208-1.142 4.515-1.064 1.33-2.896 1.77-4.587 1.195-1.488-.506-2.559-1.996-2.68-3.744-.023-.328-.003-.658-.003-.988v-.001zm6.804-.367c.08-.43-.061-.924-.169-1.413-.242-1.088-.973-1.766-1.964-1.877-1.341-.153-2.062.22-2.609 1.342-.613 1.256-.677 2.566-.319 3.894.369 1.374 1.158 2.035 2.32 2.037 1.286 0 2.083-.646 2.49-2.036a5.672 5.672 0 00.251-1.947zm-15.275.608c-.02-1.727.304-3.138 1.453-4.252 1.361-1.321 3.883-1.435 5.316-.204.662.57.892 1.371 1.025 2.211.021.13.027.235-.115.312-.448.243-1.297-.076-1.485-.588-.312-.847-.898-1.306-1.775-1.373-.94-.071-1.75.23-2.179 1.117-.8 1.655-.862 3.362-.031 5.032.439.882 1.243 1.09 2.145.987.978-.111 1.564-.733 1.831-1.642.13-.442.287-.624.75-.615.871.017.944.089.689.962-.527 1.8-1.779 2.697-3.731 2.676-1.83-.02-3.2-1.131-3.716-2.996-.165-.594-.187-1.196-.178-1.626l.001-.002z" fill="#A7A9AC"/><path d="M59.094 24.922c.944-.883 1.503-.857 2.255.076.266-.393.611-.64 1.092-.688.653-.065 1.166.261 1.196.924.056 1.263.03 2.531.04 3.797.001.195-.027.346-.275.343-.297-.005-.29-.212-.29-.417 0-1.038.01-2.077-.005-3.115-.006-.476.037-1.018-.65-1.064-.563-.038-.997.368-1.022 1.047-.038 1.012-.013 2.025-.02 3.039 0 .242.07.536-.337.51-.377-.024-.248-.318-.25-.51-.011-1.038-.003-2.077-.006-3.115-.001-.451-.046-.904-.606-.961-.542-.057-.904.22-1.024.766-.203.925-.05 1.867-.092 2.8-.012.254-.004.507-.006.761 0 .19-.096.264-.276.262-.185 0-.27-.088-.27-.271l-.003-4.407c0-.161.03-.297.233-.31.38-.022.224.345.318.537l-.002-.004zm50.069-.011c.944-.873 1.485-.846 2.26.087.256-.402.606-.64 1.081-.69.642-.069 1.172.27 1.2.923.055 1.265.03 2.532.037 3.799 0 .187-.019.349-.273.343-.295-.006-.292-.21-.293-.418-.002-1.04.007-2.077-.006-3.116-.006-.477.038-1.018-.65-1.062-.567-.037-.987.37-1.016 1.053-.036.835.024 1.675-.031 2.507-.023.34.31.99-.263.988-.61-.001-.267-.665-.292-1.02-.055-.807-.015-1.62-.019-2.431-.003-.486.035-1.036-.623-1.09-.671-.054-1.008.386-1.046 1.015-.052.832-.031 1.67-.04 2.506-.003.202.003.405-.002.608-.006.222.04.484-.316.46-.32-.023-.234-.275-.234-.454-.008-1.317-.011-2.635.003-3.952.001-.196-.14-.501.185-.566.373-.077.252.313.337.513l.001-.003zm-3.968.079c.383-.597.933-.829 1.584-.628.717.221.73.863.726 1.49-.006 1.014.003 2.027-.006 3.04-.002.199.102.488-.278.479-.353-.01-.295-.27-.296-.486-.005-1.04-.003-2.077-.002-3.116 0-.476-.012-.966-.638-.99-.627-.022-.976.357-1.007.968-.044.884-.024 1.773-.03 2.66-.001.202-.005.405 0 .608.008.254-.1.368-.353.357-.277-.012-.221-.227-.221-.387-.006-1.113.003-2.229-.009-3.343-.004-.397-.093-.781-.56-.853-.466-.072-.827.122-1.018.57-.129.303-.156.632-.151.967.009.861.006 1.724 0 2.585 0 .212.074.487-.298.463-.307-.02-.261-.25-.263-.442a701.649 701.649 0 010-4.103c0-.166-.052-.383.19-.427.082-.015.249.04.257.082.08.498.237.273.471.096.684-.516 1.205-.393 1.902.413v-.003zM1.64 28.661c.284-1.378.517-2.53.762-3.68.056-.268-.015-.628.466-.608.477.02.384.413.434.657.239 1.13.436 2.272.772 3.409.203-1.085.403-2.172.61-3.257.04-.222.082-.448.15-.663.061-.192.242-.132.38-.13.226.007.205.175.17.324-.322 1.45-.656 2.9-.97 4.352-.057.265-.197.308-.416.31-.254.002-.323-.133-.368-.366-.242-1.264-.501-2.522-.803-4.019-.293 1.428-.545 2.633-.784 3.842-.055.277-.036.545-.444.55-.385.003-.363-.291-.414-.508-.31-1.351-.6-2.706-.896-4.06-.034-.16-.15-.363.12-.421.259-.055.395.041.447.341.17.994.375 1.983.57 2.973.047.244.108.485.215.954h-.002zm89.391-3.776c0-.654-.01-1.176.006-1.699.006-.193-.123-.483.258-.494.352-.009.312.238.312.464 0 1.894.003 3.79-.005 5.683 0 .203.098.497-.25.524-.4.032-.214-.364-.374-.57-.39.627-.964.788-1.608.587-.651-.204-.864-.809-.96-1.412-.132-.823-.166-1.663.077-2.476.39-1.303 1.42-1.597 2.543-.607h.001zm-2.123 2.022c.04.447.026.925.177 1.39.144.439.418.658.863.683.47.025.751-.238.877-.654.292-.963.275-1.938.007-2.904-.121-.442-.452-.643-.888-.65-.42-.006-.677.226-.83.616-.192.481-.152.99-.204 1.518l-.001.001zm-41.253 1.919v1.764c0 .206.018.42-.287.402-.28-.015-.29-.205-.29-.422.002-1.92.003-3.841 0-5.761 0-.252.189-.588.324-.393.414.599.655.036.94-.066.798-.285 1.546.055 1.812.919.293.959.304 1.95.062 2.915-.347 1.39-1.452 1.687-2.56.642zm2.111-1.95c-.044-.417 0-.871-.14-1.314-.142-.448-.357-.778-.861-.778-.52 0-.822.316-.954.788-.256.92-.215 1.85.048 2.758.11.381.368.627.817.62.423-.006.703-.18.872-.559.21-.472.186-.983.217-1.517l.001.001zm74.951.18c.053-.68.055-1.242.279-1.761.286-.663.767-1.044 1.5-.995.73.047 1.181.439 1.332 1.182.019.1.064.192.083.291.196 1.052.141 1.119-.881 1.119-.346 0-.695.036-1.034-.008-.665-.085-.739.238-.625.799.098.481.174.97.65 1.203.518.253 1.022-.068 1.261-.796.084-.258.13-.51.467-.398.364.119.119.372.071.548-.213.808-.737 1.245-1.473 1.22-.758-.024-1.247-.429-1.419-1.19-.101-.44-.155-.89-.208-1.215l-.003.001zm1.617-.588c.294-.31.963.39 1.009-.46.04-.733-.393-1.254-.973-1.237-.623.018-.991.469-.972 1.235.022.817.66.173.936.462zM52.655 24.29c.9.013 1.315.405 1.347 1.334.026.834 0 1.669.013 2.502.004.305-.128.67.312.83.182.065.135.281.028.37-.187.153-.515.162-.617.005-.316-.482-.539-.223-.871-.025-.637.38-1.525.105-1.797-.491-.362-.794-.07-1.75.654-2.06a6.367 6.367 0 011.055-.328c.46-.107.67-.367.632-.855-.032-.423-.18-.731-.633-.789-.453-.058-.84.023-1.022.523-.034.094-.085.189-.09.285-.016.225-.12.323-.333.277-.257-.055-.177-.256-.16-.424.07-.719.646-1.167 1.482-1.156v.003zm.755 2.366c-.422.163-.757.315-1.107.42-.616.186-.798.613-.702 1.218.07.43.302.683.745.683.63 0 .952-.406 1.049-.971.071-.416.013-.857.013-1.352l.002.002zm-24.069.236c-.148 0-.295-.002-.444 0-.44.008-.958-.168-.842.67.129.942.486 1.443 1.133 1.366.506-.06.727-.43.797-.863.055-.346.209-.455.482-.369.277.089.129.337.086.512-.19.775-.74 1.24-1.461 1.255-.71.015-1.242-.375-1.455-1.146-.262-.939-.276-1.896.007-2.833.264-.872.835-1.253 1.657-1.172.71.07 1.161.558 1.305 1.413.132.779-.29 1.168-1.264 1.167h-.001zm-.341-.43c.314-.282 1.019.395 1.03-.504.008-.738-.373-1.189-.94-1.183-.626.006-.995.453-1.001 1.207-.008.847.64.212.91.48zm37.476.43c-.098 0-.204-.023-.295.004-.343.1-.896-.283-1.01.243-.12.554.008 1.173.462 1.604.488.465 1.162.194 1.424-.557.088-.252.098-.639.484-.48.357.146.121.489.047.704-.224.65-.683 1.046-1.38 1.052-.686.007-1.188-.317-1.415-.998-.345-1.034-.36-2.076.005-3.114.257-.73.763-1.093 1.522-1.047.74.043 1.154.44 1.343 1.268.201.881-.195 1.322-1.189 1.322l.002-.001zm-.291-.438c.3-.254.908.328.982-.4.073-.709-.4-1.285-.955-1.282-.626.003-1.105.534-1.025 1.288.074.7.682.157.998.396v-.002zm50.091-2.16c1.009-.01 1.999 1.536 1.566 2.436-.106.22-.29.156-.447.159-.59.009-1.182.018-1.773 0-.317-.01-.443.09-.42.428.027.382.081.753.248 1.097.166.34.416.544.819.527.396-.017.639-.23.797-.57.062-.134.093-.286.123-.434.044-.225.188-.273.381-.253.283.03.202.233.169.396-.133.66-.433 1.177-1.132 1.33-.74.162-1.405-.095-1.672-.764-.467-1.168-.477-2.367.032-3.53.243-.557.712-.818 1.311-.82l-.002-.002zm-.093 2.167c.323-.278.976.36 1.05-.422.069-.73-.405-1.271-.973-1.262-.623.009-1.016.445-1.013 1.223.004.806.654.197.936.462v-.001zM6.612 24.891c.574-.62 1.15-.743 1.774-.495.653.259.68.87.688 1.463.01.961.012 1.924-.004 2.886-.005.238.154.64-.306.614-.448-.026-.24-.424-.246-.65-.025-.936-.003-1.873-.014-2.81-.007-.566-.11-1.092-.812-1.124-.609-.027-1.036.384-1.066 1.107-.04 1.011-.007 2.025-.019 3.037-.001.172.103.432-.228.452-.32.02-.353-.18-.352-.436.003-1.949.003-3.9 0-5.848 0-.216.002-.393.298-.4.313-.008.288.19.287.394v1.809zm6.235 1.992c0 .48-.003.96.001 1.44.002.172-.036.369.125.49.187.142.508.28.213.534a.502.502 0 01-.728-.124c-.19-.32-.283-.239-.516-.05-.491.4-1.055.39-1.592.1-.546-.298-.552-.848-.53-1.39.026-.634.368-1.022.942-1.206.28-.09.564-.183.853-.236.515-.093.675-.395.638-.911-.032-.457-.228-.706-.66-.753-.455-.049-.826.07-.99.573-.08.237-.072.672-.46.492-.305-.142-.109-.486-.011-.731.265-.674.866-.916 1.8-.765.708.114.901.61.913 1.248.007.43 0 .857 0 1.287h.003l-.001.002zm-.586-.226c-.442.17-.806.323-1.177.451-.59.203-.697.663-.617 1.21.058.393.287.646.691.658.57.017.94-.28 1.07-.84.107-.465.123-.942.033-1.479zm71.095.239c0 .48-.003.962.001 1.442.002.174-.037.375.132.488.184.121.468.259.251.483a.504.504 0 01-.78-.089c-.196-.329-.258-.254-.499-.052-.483.403-1.056.4-1.597.115-.55-.29-.567-.85-.546-1.387.025-.626.368-1.027.942-1.216.304-.099.61-.201.922-.262.502-.096.61-.425.58-.884-.026-.402-.179-.673-.591-.74-.422-.069-.793-.005-1.012.422a1.614 1.614 0 00-.14.43c-.035.188-.139.246-.311.23-.221-.022-.193-.193-.185-.336.022-.37.16-.704.443-.925.54-.42 1.177-.402 1.762-.186.524.194.644.713.628 1.258-.012.403-.003.809-.001 1.214v-.005zm-.544-.24c-.45.169-.833.318-1.218.457-.576.209-.684.669-.604 1.208.058.387.285.64.685.655.562.022.932-.268 1.076-.816.121-.464.112-.942.06-1.504zM69.23 24.93c.284-.377.64-.621 1.115-.644.678-.033 1.222.377 1.255 1.094.055 1.21.024 2.425.03 3.637 0 .194-.035.339-.273.355-.297.022-.31-.161-.31-.382v-3.032c0-.558-.038-1.102-.738-1.18-.629-.07-1.09.346-1.13 1.111-.054.983-.012 1.97-.03 2.955-.003.189.138.498-.236.52-.414.027-.316-.3-.317-.53a237.11 237.11 0 01.003-3.865c.001-.217-.141-.546.264-.584.403-.038.165.383.365.544l.001.002zm-25.282 2.296c0 .58.002 1.162 0 1.743 0 .196.036.414-.28.403-.29-.009-.298-.196-.298-.41 0-1.036-.003-2.072 0-3.108 0-.549-.086-1.048-.754-1.074-.647-.025-1.035.343-1.065.995-.044 1.009-.024 2.02-.044 3.03-.005.222.121.563-.287.56-.421-.003-.264-.355-.267-.566-.013-1.289-.01-2.578-.003-3.867 0-.184-.104-.44.143-.533.234-.089.32.055.382.299.072.275.211.056.303-.026.475-.429 1.012-.517 1.574-.243.589.287.61.857.6 1.43-.007.454 0 .91 0 1.365l-.004.002zM24.16 24.935c.327-.283.569-.56.972-.621.833-.125 1.44.304 1.466 1.165.037 1.164.01 2.33.012 3.496 0 .209.009.41-.297.397-.292-.012-.292-.207-.292-.416 0-1.039-.006-2.076.001-3.116.005-.527-.091-1.002-.697-1.057-.635-.06-1.072.277-1.112.938-.063 1.035-.043 2.074-.073 3.112-.006.22.125.565-.304.533-.364-.027-.233-.333-.234-.527a250.19 250.19 0 01-.002-3.951c0-.2-.105-.5.265-.5.382 0 .165.345.296.549l-.002-.002zm60.893.023c.495-.617 1.068-.842 1.744-.557.668.282.698.91.695 1.537-.005.988 0 1.975-.003 2.962 0 .223.044.477-.309.473-.372-.005-.274-.287-.276-.49a207.94 207.94 0 01-.003-3.038c.003-.527-.11-1.001-.703-1.062-.633-.066-1.08.287-1.126.931-.073 1.007-.034 2.022-.07 3.032-.007.224.2.645-.284.613-.39-.026-.221-.39-.224-.602a154.06 154.06 0 010-3.797c.003-.209-.16-.567.265-.566.374 0 .14.359.294.567v-.003zm16.508 1.928c-.033.53-.079 1.054-.264 1.559-.245.669-.723 1.01-1.405 1.018-.687.007-1.182-.336-1.421-.997a4.567 4.567 0 01-.024-3.112c.228-.662.682-1.043 1.375-1.06.721-.018 1.205.344 1.47 1.034.195.503.236 1.028.269 1.558zm-.595-.049c-.028-.498-.061-1.024-.291-1.513-.166-.352-.43-.546-.813-.541-.38.005-.67.189-.802.555-.373 1.03-.389 2.066.016 3.091.142.362.424.55.808.54.411-.01.689-.226.836-.62.178-.477.232-.976.246-1.512zm-44.569 1.577c.273-1.172.55-2.345.82-3.517.062-.266.072-.623.467-.498.385.123.108.412.056.613-.424 1.656-.87 3.306-1.294 4.961-.172.672-.541 1.058-1.252 1.024-.154-.008-.307-.002-.32-.213-.012-.183.09-.232.26-.284.8-.248 1.029-.682.805-1.5-.365-1.334-.746-2.661-1.105-3.996-.053-.2-.315-.495.078-.61.331-.095.385.19.45.45.297 1.195.607 2.385.912 3.578l.123-.008zm21.179-.397c-.008.882-.565 1.433-1.46 1.447-.904.014-1.46-.419-1.502-1.195-.009-.173-.123-.432.185-.484.299-.049.376.13.395.4.042.613.45.808.97.79.426-.015.766-.21.838-.696.084-.56-.161-.91-.669-1.11a11.436 11.436 0 01-1.072-.495c-.645-.335-.614-.936-.484-1.515.141-.618.726-.917 1.465-.864.64.046 1.088.308 1.176 1.008.02.167.144.428-.189.466-.243.027-.356-.082-.38-.337-.047-.503-.363-.687-.818-.663-.414.023-.71.221-.778.663-.07.47.165.768.576.939.318.132.64.254.952.402.512.242.824.63.795 1.242v.002zM19.06 29.462c-.895-.012-1.35-.379-1.449-1.18-.022-.186-.114-.423.178-.493.303-.071.364.096.396.372.078.67.523.872 1.11.805.412-.047.685-.32.743-.735.061-.44-.129-.79-.537-.983-.423-.2-.872-.355-1.27-.599-.583-.356-.635-.932-.427-1.53.25-.723.816-.863 1.493-.81.617.049 1.04.296 1.115.972.02.172.178.42-.148.485-.24.049-.344-.052-.383-.314-.073-.512-.398-.738-.893-.681-.375.042-.647.216-.706.644-.071.515.165.817.61.988.253.097.511.181.76.29.78.339 1.05.86.89 1.688-.131.685-.688 1.09-1.484 1.078l.001.003zm11.996-5.16c1.207.222 1.032 1.357 1.63 1.836.628-.413.387-1.684 1.595-1.785-.192.39-.282.69-.46.92-.814 1.044-.813 2.06.001 3.106.195.25.293.578.438.876-.375.085-.682-.13-.923-.646-.19-.407-.384-.809-.583-1.228-.724.508-.482 1.82-1.749 2.072.411-.813.723-1.482 1.08-2.122.206-.37.215-.677.002-1.047-.336-.58-.623-1.192-1.031-1.98v-.002zm63.988 2.629c.065.42.108.9.224 1.361.096.387.343.662.785.675.455.014.743-.211.903-.629.053-.14.086-.29.12-.437.06-.258.254-.203.413-.176.237.041.13.229.105.357-.132.66-.429 1.18-1.13 1.327-.744.156-1.404-.11-1.66-.785-.447-1.168-.48-2.37.059-3.526.317-.68.893-.873 1.605-.768.657.098.991.505 1.12 1.128.03.142.17.361-.114.425-.223.05-.371-.014-.424-.274-.12-.57-.437-.898-1.043-.808-.614.092-.745.58-.828 1.094-.052.323-.085.65-.132 1.037h-.003zm26.543-.163a4.37 4.37 0 00.135 1.405c.119.445.335.785.849.794.494.008.768-.27.909-.723.037-.12.05-.249.086-.37.059-.194.223-.164.366-.16.239.004.195.18.167.322-.129.652-.399 1.201-1.097 1.367-.746.178-1.406-.072-1.682-.74-.489-1.189-.513-2.411.048-3.59.324-.683.913-.85 1.62-.733.655.106.977.528 1.103 1.147.028.14.146.375-.151.404-.144.014-.326.038-.365-.16-.131-.67-.463-1.093-1.172-.9-.761.205-.703.936-.811 1.538-.032.17-.005.354-.005.4zm-86.508.168c0-.456.009-.913-.003-1.368-.009-.322.145-.732-.448-.735-.263 0-.231-.397-.068-.397.725-.002.476-.521.52-.895.027-.22-.121-.55.303-.544.442.006.248.352.265.556.04.418-.152.977.613.838.168-.03.275.081.26.275-.014.167-.134.21-.258.187-.67-.123-.617.325-.611.773.011.81.011 1.621 0 2.432-.006.468.017.89.634.868.137-.004.242.034.24.203-.004.139-.056.215-.2.267-.597.219-1.19-.13-1.235-.788-.037-.555-.008-1.114-.008-1.672h-.006.002z" fill="#B9B9B9"/><path d="M95.317 17.25c.642-.023 1.28.615 1.3 1.302.019.65-.545 1.232-1.229 1.267-.714.035-1.22-.447-1.248-1.183-.026-.765.477-1.358 1.177-1.384v-.001z" fill="#A7A9AC"/><path d="M72.843 26.884v-1.438c0-.293.08-.616-.41-.604-.293.008-.27-.378-.124-.385.722-.037.513-.552.534-.956.012-.239-.075-.53.335-.507.387.023.227.315.245.504.038.428-.192 1.029.62.892.129-.022.233.056.247.212.023.214-.124.274-.274.248-.595-.102-.61.253-.596.707.025.832.013 1.666.004 2.498-.004.455-.012.892.617.87.13-.005.24.02.252.193.012.2-.103.242-.262.284-.657.169-1.119-.159-1.182-.854-.005-.05-.005-.1-.005-.15v-1.514h-.001zm-58.675-.014c0-.457.006-.912-.001-1.368-.005-.306.119-.67-.426-.666-.307.003-.23-.393-.087-.394.706-.011.477-.515.519-.892.024-.213-.149-.54.282-.554.44-.016.289.317.298.53.018.457-.126 1.012.653.872.139-.026.212.099.212.245 0 .17-.128.227-.247.206-.663-.122-.626.31-.617.764a69.84 69.84 0 010 2.507c-.007.451.04.826.61.805.126-.005.246.018.255.193.01.198-.11.244-.268.285-.652.166-1.137-.17-1.17-.864-.026-.556-.005-1.114-.005-1.671h-.006l-.002.001zm104.55.008c0-.682-.004-1.367.003-2.05.002-.158-.079-.38.169-.434.178-.038.352-.018.386.228.053.391.187.141.305.04.095-.079.187-.17.296-.225.221-.111.457-.224.703-.172.126.027.117.204.11.33-.029.426-.379.199-.572.278-.551.227-.808.647-.821 1.228-.021.908-.012 1.817-.029 2.726-.004.226.106.558-.307.541-.372-.015-.236-.323-.24-.516-.016-.657-.006-1.316-.006-1.974h.003zm-78.827 0v2.04c0 .237.005.471-.33.452-.325-.019-.23-.278-.23-.451-.01-1.361-.01-2.722 0-4.083 0-.173-.097-.432.23-.45.333-.019.33.214.33.45v2.042zm-23.483-2.043c.316-.544.3-1.056.077-1.61-.068-.169-.146-.519.282-.539.4-.018.35.242.347.492-.009.643.09 1.33-.704 1.657h-.002zm23.459-1.551c-.007.045.13.324-.231.358-.364.033-.326-.224-.301-.44.022-.187-.146-.482.231-.51.334-.023.344.194.301.591z" fill="#B9B9B9"/></g><defs><clipPath id="clip0_524_5563"><path fill="#fff" d="M0 0h128v31H0z"/></clipPath></defs></svg>