<svg width="172" height="37" fill="none" xmlns="http://www.w3.org/2000/svg"><g clip-path="url(#clip0_524_5461)" fill="#B9B9B9"><path d="M87.922 28.05c-1.486 0-2.11-.732-1.873-2.195.295-1.794.614-3.588.903-5.386.174-1.097.208-2.236-1.051-2.615-1.209-.36-2.041.379-2.568 1.458-.705 1.44-.705 3.072-1.028 4.618-.181.86-.309 1.734-.393 2.608-.107 1.119-.547 1.572-1.708 1.543-2.756-.067-2.76.004-2.303-2.77.285-1.738.607-3.469.866-5.213.134-.913.044-1.855-.92-2.22-.957-.36-1.719.104-2.326.928-.615.832-.739 1.83-.924 2.803-.228 1.21-.39 2.43-.607 3.645-.52 2.894-1.071 3.262-3.82 2.81-.639-.107-.726-.397-.639-.931.662-3.995 1.33-7.99 1.984-11.99.094-.576.507-.676.856-.545 1.045.397 2.572-1.065 3.22.974.12.378.524-.163.762-.322 2.41-1.625 4.103-1.526 6.14.523.457.46.678.453 1.051.021a4.555 4.555 0 011.944-1.33c3.297-1.196 6.164.963 5.828 4.586-.252 2.74-.84 5.45-1.323 8.164-.268 1.518-1.477.513-2.068.832l-.003.003zm49.246.02c-1.675 0-3.354-.042-5.029.015-1.017.035-1.289-.436-1.125-1.387.94-5.55 1.884-11.098 2.804-16.65.164-.988.634-1.37 1.594-1.356a321.5 321.5 0 009.051 0c1.084-.014 1.336.386 1.131 1.49-.483 2.608-.439 2.619-3.018 2.619-1.228 0-2.46.046-3.686-.01-2.085-.096-1.507 1.687-1.678 2.766-.219 1.38.956.772 1.524.814 1.279.096 2.568 0 3.854.043.587.021 1.608-.308 1.386.867-.198 1.054.366 2.746-1.406 2.88-1.669.128-3.351.043-5.026.029-1.937-.014-1.316 1.663-1.558 2.693-.302 1.295.645 1.22 1.447 1.22 1.79 0 3.576.029 5.365-.014.89-.02 1.118.238.987 1.232-.356 2.735-.299 2.742-2.924 2.742h-3.69l-.003.008zM34.755 9.028c1.282 0 2.581-.13 3.847.029 2.662.336 4.36 2.102 4.606 4.565.289 2.92-1.05 5.333-3.505 6.366-1.702.715-3.491.821-5.277.764-1.165-.035-1.75.284-1.84 1.614-.087 1.285-.48 2.544-.601 3.83-.134 1.407-.608 1.995-2.091 1.903-2.542-.16-2.525-.035-2.079-2.64.823-4.802 1.676-9.6 2.397-14.42.235-1.575.648-2.499 2.37-2.156.702.142 1.45.025 2.176.025v.124l-.003-.004zm.372 8.129c2.579-.035 3.874-.92 3.817-2.534-.053-1.436-1.087-2.08-3.296-2.052-1.35.018-2.078 1.412-2.021 3.797.033 1.437 1.09.478 1.504.789h-.004zm116.175 5.591c1.027-2.148 2.078-4.084 2.89-6.122.631-1.585 1.511-2.353 3.163-2.063.698.124 1.436-.142 2.319.24-1.262 2.326-2.474 4.622-3.739 6.887-1.954 3.5-3.62 7.177-5.829 10.517-1.305 1.975-3.686 2.81-5.764 2.276-.809-.209-1.138-.669-.752-1.345.44-.768-.581-2.35 1.189-2.367 2.118-.022 3.548-1.947 3.075-4.102-.752-3.44-1.464-6.886-2.276-10.308-.302-1.27-.168-1.82 1.249-1.809 2.991.018 2.997-.05 3.498 2.987.245 1.504.453 3.015.688 4.523.023.155.124.3.299.693l-.01-.007zm-88.995.018c1.024-2.113 2.155-4.176 3.028-6.356.598-1.486 1.41-2.084 2.907-1.847.702.113 1.43.018 2.427.018-1.094 2.035-2.07 3.857-3.055 5.676-1.994 3.68-4.001 7.35-5.989 11.034-1.383 2.565-3.484 3.493-6.204 3.164-.802-.096-1.108-.418-.883-1.25.313-1.16-.07-2.735 2.085-2.448 1.333.176 2.649-2.297 2.313-3.858a631.486 631.486 0 00-2.363-10.648c-.266-1.147-.363-1.78 1.171-1.716 3.008.127 3.005.02 3.465 3.195.242 1.656.51 3.309.765 4.965.111.021.222.046.333.067v.004zm55.047 5.284c-1.479 0-2.102-.755-1.867-2.265.286-1.798.598-3.592.877-5.39.151-.973.147-1.957-.867-2.42-1.094-.5-1.943.067-2.645.93-.446.552-.631 1.228-.752 1.932-.312 1.855-.752 3.691-.923 5.556-.128 1.398-.688 1.844-1.92 1.667a4.482 4.482 0 00-1.172 0c-1.001.113-1.393-.156-1.172-1.355a278.98 278.98 0 001.813-10.946c.144-1.005.547-1.394 1.383-1.146.94.276 2.394-.963 2.807 1.047.047.234.554-.194.802-.396 1.34-1.09 2.847-1.33 4.435-.856 1.783.534 2.844 2.13 2.595 4.204-.342 2.855-.88 5.683-1.343 8.525-.245 1.514-1.406.69-2.058.923l.007-.01zm49.424-5.62c-1.175 0-2.347-.007-3.522.003-.389 0-.836-.003-.99.47-.144.443.128.818.396 1.105 1.205 1.285 2.777 1.345 3.999.464 1.645-1.182 2.393.095 3.404.849.356.265.513.601.11 1.019-2.867 2.973-9.601 3.2-11.454-1.274-1.158-2.792-.312-6.918 2.028-9.027 2.564-2.315 6.499-2.64 9.03-.75 1.541 1.15 2.488 4.975 1.665 6.635-.265.538-.711.492-1.148.495-1.175.01-2.346.004-3.521.004v.007h.003zm-1.736-2.59c.279 0 .581.067.836-.015.682-.22 1.927.64 1.941-.846.013-1.33-1.105-1.634-2.139-1.79-.638-.096-1.202.237-1.729.57-.634.4-1.403.959-1.222 1.723.172.722 1.075.237 1.645.347.215.042.447.007.672.007l-.004.003zm-63.96 2.576c-1.172 0-2.347-.008-3.518.003-.376 0-.853-.11-1.008.39-.13.413.108.8.343 1.135.83 1.19 2.77 1.434 4.3.627.457-.24.779-1.051 1.42-.63.705.463 1.357 1.04 1.964 1.642.346.343-.053.609-.268.856-2.293 2.647-7.876 2.668-10.243.036-2.632-2.927-1.621-8.62 1.977-11.066 1.833-1.246 3.878-1.586 5.953-1.072 3.763.934 4.367 4.31 3.787 7.456-.125.665-.571.616-1.014.62-1.229.006-2.458 0-3.686 0l-.007.003zm-1.645-2.59c.557 0 1.114.013 1.672-.004.426-.014 1.01.177 1.158-.404.128-.502-.071-1.08-.447-1.447-1.101-1.083-2.323-.987-3.535-.23-.63.393-1.42 1.001-1.259 1.71.182.792 1.142.233 1.743.367.211.05.443.007.668.007zM49.872 14.17c4.166.018 5.764 1.932 5.2 6.09-.309 2.269-.665 4.526-1.014 6.788-.154.998-2.76 1.624-3.585.683-.517-.591-.729-.446-1.169-.156-1.034.69-2.172.881-3.373.76-1.424-.144-2.69-.678-3.163-2.186-.514-1.646-.339-3.256.96-4.547 1.726-1.717 3.945-1.756 6.1-2.039.534-.07 1.4.354 1.43-.683.027-.916-.62-1.32-1.43-1.405-1.088-.116-2.115.128-3.058.701-1.568.956-1.521-.835-2.082-1.433-.782-.828.269-1.083.689-1.33 1.43-.85 2.977-1.324 4.495-1.236v-.007zm-.178 8.005c-.833.12-1.732.127-2.531.594-.574.337-.934.825-.82 1.565.121.792.716 1.005 1.333 1.072 1.38.152 2.344-.573 2.958-1.805.477-.959.567-1.773-.94-1.43v.004zm77.275 6.196c-3.246-.017-4.455-1.422-4.062-4.547.205-1.631.52-3.249.852-4.859.165-.8.101-1.253-.815-1.196-.467.029-1.212.145-.984-.693.235-.857-.265-2.343 1.024-2.421 1.282-.078 1.601-.595 1.695-1.773.051-.633-.08-1.645.699-1.78 1.084-.191 2.276-.251 3.316.05.692.198.108 1.146 0 1.712-.228 1.179-.208 1.957 1.276 1.745.403-.057 1.346-.393 1.024.726-.252.877.353 2.512-1.215 2.385-1.726-.142-2.065.76-2.202 2.194a22.979 22.979 0 01-.457 2.781c-.316 1.416-.121 2.389 1.544 2.233.527-.05.776.163.655.683-.208.899.302 2.134-.954 2.559-.52.177-1.101.162-1.389.201h-.007zM18.378 11.98c1.169.046 2.34.106 3.509.138 2.591.074 3.72 1.514 3.253 4.285-.78 4.629-1.615 9.247-2.42 13.869-.192 1.097-.357 2.2-.561 3.294-.35 1.869-1.437 2.877-3.264 2.902-3.128.039-6.26.043-9.39 0-2.407-.032-3.666-1.71-3.26-4.193.407-2.485.786-4.976 1.176-7.46l.342-1.065-.01.02c.36-.041.718-.084 1.078-.126 1.776.039 3.552.06 5.328.12.731.025 1.191-.287 1.285-1.051.386-3.185 1.28-6.285 1.47-9.505l1.246-.064c-.577 3.464-1.175 6.925-1.722 10.397-.161 1.023-.661 1.345-1.605 1.31-1.672-.06-3.35-.008-5.025-.022-.675-.007-1.212.117-1.34.963-.346 2.26-.799 4.505-1.05 6.776-.232 2.078.308 2.619 2.353 2.637 2.79.025 5.583.014 8.376.003 2.313-.007 2.642-.297 3.062-2.739.943-5.485 1.876-10.974 2.813-16.462.312-1.826-.383-2.757-2.186-2.831-1.225-.05-2.457-.021-3.682-.025-.058-.421.02-.814.231-1.178l-.007.007z"/><path d="M18.16 13.148l-1.249.063c-1.668-.017-3.34.01-5.005-.074-.984-.053-1.35.33-1.504 1.348-.467 3.065-1.041 6.108-1.571 9.159l-1.078.127c.597-3.348 1.229-6.688 1.776-10.047.191-1.16.557-1.723 1.816-1.613 1.608.145 3.236 0 4.858.05.822.024 1.192-.27 1.326-1.158.322-2.148.742-4.278 1.114-6.416.343-1.957-.355-2.972-2.219-3.008-3.071-.056-6.143-.028-9.215-.01-1.36.007-2.169.715-2.417 2.169-.98 5.726-1.988 11.448-2.971 17.177-.306 1.773.372 2.725 2.088 2.831 1.279.078 2.568.007 3.85.004l-.342 1.065c-1.229-.014-2.464.035-3.69-.06-2.14-.163-3.282-1.615-2.912-3.811A1969.02 1969.02 0 013.906 3.227C4.2 1.565 5.252.606 6.816.568c3.297-.082 6.6-.096 9.894-.004 2.199.06 3.28 1.589 2.924 3.942-.38 2.498-.836 4.982-1.256 7.474-.211.36-.288.753-.231 1.178l.01-.01h.003z"/></g><defs><clipPath id="clip0_524_5461"><path fill="#fff" transform="translate(.75 .5)" d="M0 0h171v36H0z"/></clipPath></defs></svg>