<svg width="54" height="54" viewBox="0 0 54 54" fill="none" xmlns="http://www.w3.org/2000/svg">
<path d="M35.744 25.2528H35.6543C34.1991 25.2389 32.7888 24.7478 31.6397 23.8549C31.4983 23.7867 31.3739 23.6877 31.2756 23.5653C31.1772 23.443 31.1074 23.3002 31.0713 23.1474C31.0352 22.9946 31.0336 22.8357 31.0667 22.6823C31.0997 22.5288 31.1666 22.3846 31.2624 22.2603C31.3583 22.136 31.4807 22.0347 31.6207 21.9636C31.7607 21.8926 31.9148 21.8537 32.0718 21.8498C32.2287 21.8459 32.3845 21.877 32.5279 21.941C32.6712 22.0049 32.7985 22.1 32.9005 22.2194C33.5459 22.7161 34.3097 23.0359 35.1165 23.1469C35.9234 23.2579 36.7451 23.1564 37.5007 22.8525C38.0743 22.6196 38.5962 22.2754 39.036 21.8396C39.49 21.4125 39.8495 20.8949 40.0911 20.3202C40.4497 19.4657 40.5458 18.5237 40.3673 17.6143C40.1888 16.7049 39.7437 15.8692 39.0886 15.2136C38.4896 14.6237 37.7446 14.2034 36.9299 13.9957C36.1151 13.7881 35.2598 13.8006 34.4514 14.0319C34.3131 14.1075 34.1596 14.1511 34.0022 14.1596C33.8448 14.168 34.4784 13.8126 34.3327 13.7522C34.1871 13.6919 33.9766 13.4879 33.8712 13.3706C33.7659 13.2533 33.5444 13.6513 33.5 13.5C33.4556 13.3487 32.8788 13.0924 32.9041 12.9368C32.9294 12.7811 32.9891 12.6331 33.0791 12.5037C33.1691 12.3742 33.287 12.2666 33.424 12.1887C33.5611 12.1108 33.7139 12.0646 33.8712 12.0535C35.0351 11.7188 36.267 11.6997 37.4407 11.9982C38.6144 12.2967 39.6875 12.9021 40.55 13.7522C41.4994 14.6992 42.1447 15.9078 42.4031 17.2236C42.6616 18.5393 42.5214 19.9023 42.0007 21.138C41.6584 21.9642 41.1523 22.7124 40.513 23.3378C39.2483 24.5857 37.5418 25.2835 35.765 25.2792L35.744 25.2528Z" fill="#031C77"/>
<path d="M43.2105 43.3056H39.4595C39.221 43.2571 39.0067 43.1277 38.8527 42.9393C38.6986 42.7508 38.6145 42.5149 38.6145 42.2715C38.6145 42.0282 38.6986 41.7923 38.8527 41.6038C39.0067 41.4154 39.221 41.286 39.4595 41.2376H43.2105C43.3031 41.2382 43.3948 41.2206 43.4806 41.1856C43.5663 41.1507 43.6444 41.0991 43.7101 41.0339C43.7758 40.9687 43.8279 40.8911 43.8635 40.8056C43.8991 40.7202 43.9175 40.6285 43.9175 40.5359V32.0159C43.9168 31.3827 43.7913 30.7559 43.5483 30.1711C43.3054 29.5864 42.9497 29.0552 42.5015 28.6079C42.0532 28.1607 41.5212 27.8061 40.9359 27.5644C40.3507 27.3227 39.7235 27.1987 39.0903 27.1994L32.5698 26.8934C32.3355 26.8326 32.1292 26.6932 31.9855 26.4984C31.8417 26.3036 31.7693 26.0653 31.7804 25.8235C31.7915 25.5817 31.8855 25.3511 32.0465 25.1703C32.2075 24.9896 32.4258 24.8696 32.6647 24.8307L39.1431 25.1314C40.964 25.1397 42.7074 25.8686 43.9926 27.1586C45.2777 28.4487 45.9999 30.195 46.0013 32.0159V40.5359C45.9999 41.271 45.7069 41.9754 45.1866 42.4947C44.6664 43.0139 43.9614 43.3056 43.2263 43.3056H43.2105Z" fill="#031C77"/>
<path d="M21.167 24.1185H21.0456C19.6552 24.0997 18.2903 23.7425 17.0689 23.0778C15.8475 22.4131 14.8062 21.461 14.0353 20.3036C13.2645 19.1463 12.7871 17.8186 12.6445 16.4353C12.5018 15.0521 12.6982 13.6549 13.2167 12.3646C13.7472 11.0516 14.5945 9.89034 15.683 8.98449C16.7716 8.07863 18.0675 7.45636 19.455 7.17321C20.8425 6.89006 22.2787 6.95485 23.6351 7.36177C24.9915 7.7687 26.226 8.5051 27.2285 9.50528C27.3393 9.61606 27.4502 9.73214 27.5557 9.85348C28.9651 11.4182 29.7433 13.4504 29.7397 15.5563C29.7383 16.6902 29.5124 17.8126 29.075 18.8588C28.6394 19.9065 27.9971 20.8557 27.1864 21.6495C26.5861 22.2411 25.9017 22.7406 25.1553 23.132C24.8982 23.269 24.6341 23.3923 24.364 23.5013C23.3471 23.9078 22.2621 24.1173 21.167 24.1185ZM21.167 9.06215C20.2096 9.06249 19.2641 9.27451 18.3982 9.68302C17.5324 10.0915 16.7676 10.6864 16.1586 11.4251C15.5495 12.1638 15.1113 13.028 14.8754 13.9559C14.6394 14.8837 14.6116 15.8523 14.7938 16.7922C14.976 17.732 15.3638 18.6201 15.9293 19.3926C16.4949 20.1651 17.2242 20.803 18.0651 21.2606C18.9061 21.7182 19.8378 21.9842 20.7936 22.0396C21.7494 22.095 22.7056 21.9384 23.5938 21.581C23.7957 21.4986 23.9928 21.4052 24.1845 21.3013C25.5234 20.6037 26.576 19.4596 27.16 18.0674C27.6401 16.9332 27.7868 15.6857 27.5831 14.471C27.3794 13.2563 26.8336 12.1248 26.0099 11.2093C25.936 11.1196 25.8569 11.0405 25.7778 10.9613C25.1732 10.3567 24.4551 9.87771 23.6647 9.55177C22.8743 9.22583 22.0272 9.05942 21.1722 9.06215H21.167Z" fill="#031C77"/>
<path d="M28.6916 24.6145C28.6617 24.617 28.6317 24.617 28.6019 24.6145C26.9523 24.5978 25.3533 24.042 24.0491 23.0318C23.909 22.9628 23.7861 22.8637 23.6891 22.7414C23.592 22.6191 23.5232 22.4768 23.4878 22.3248C23.4523 22.1728 23.4511 22.0147 23.4842 21.8622C23.5172 21.7096 23.9042 21.6239 23.9993 21.5001C24.0945 21.3763 24.3433 21.4623 24.4822 21.3912C24.6211 21.32 24.5703 21.3961 24.7264 21.3912C24.8824 21.3862 24.7935 21.0557 24.9366 21.118C25.0288 21.3912 25.2073 21.2736 25.31 21.3912C26.2587 22.1275 27.4222 22.5332 28.623 22.5465C29.3716 22.5475 30.1139 22.4099 30.8123 22.1403C31.1281 22.0132 31.4318 21.8578 31.7197 21.6761C32.5228 21.17 33.1855 20.4696 33.6465 19.6398C34.1075 18.8099 34.352 17.8774 34.3575 16.9281C34.3561 15.6135 33.8952 14.3407 33.0544 13.3301C32.9434 13.1957 32.8254 13.0672 32.701 12.945C31.6412 11.8904 30.2078 11.297 28.7127 11.2938C28.1619 11.2923 27.6141 11.3741 27.0878 11.5364C26.8456 11.5593 26.6029 11.4978 26.4009 11.3623C26.1989 11.2268 26.05 11.0256 25.9792 10.7929C25.9085 10.5602 25.9203 10.3101 26.0127 10.0851C26.1051 9.86009 26.2725 9.67393 26.4864 9.55813C27.8202 9.15229 29.2392 9.1171 30.5914 9.45631C31.9437 9.79553 33.1781 10.4964 34.1623 11.4837C34.3575 11.6789 34.5105 11.8477 34.6476 12.0113C35.7942 13.3914 36.423 15.1285 36.4254 16.9228C36.4283 17.9451 36.2238 18.9573 35.8241 19.8982C35.4296 20.8423 34.8502 21.6978 34.1201 22.4146C33.7278 22.8131 33.2926 23.167 32.8223 23.4697C31.5862 24.2449 30.1559 24.6545 28.6968 24.6514L28.6916 24.6145Z" fill="#031C77"/>
<path d="M37.4232 45.7007H33.303C33.0645 45.6523 32.8501 45.5229 32.6961 45.3345C32.5421 45.146 32.4578 44.9101 32.4578 44.6667C32.4578 44.4234 32.5421 44.1874 32.6961 43.999C32.8501 43.8105 33.0645 43.6812 33.303 43.6328H37.4232C37.6896 43.634 37.9457 43.5296 38.1355 43.3426C38.2275 43.2504 38.3005 43.141 38.3503 43.0206C38.4001 42.9003 38.4256 42.7712 38.4255 42.641V32.686C38.4255 31.147 37.8142 29.6709 36.7259 28.5826C35.6376 27.4944 34.1615 26.883 32.6224 26.883H27.5158C27.2772 26.8345 27.0628 26.7051 26.9087 26.5167C26.7547 26.3282 26.6706 26.0923 26.6706 25.8489C26.6706 25.6055 26.7547 25.3697 26.9087 25.1812C27.0628 24.9928 27.2772 24.8634 27.5158 24.8149H32.6224C34.7082 24.8163 36.7084 25.6444 38.1848 27.1178C39.6611 28.5912 40.4933 30.5897 40.4989 32.6755V42.6198C40.498 43.022 40.4178 43.42 40.263 43.7911C40.1083 44.1622 39.8818 44.4992 39.5967 44.7828C39.0217 45.3636 38.2405 45.6935 37.4232 45.7007Z" fill="#031C77"/>
<path d="M31.0119 47.9219H11.3289C10.4474 47.9205 9.60217 47.57 8.97834 46.9472C8.35451 46.3244 8.00279 45.4798 8 44.5983V33.3614C8.00419 31.0415 8.92866 28.8182 10.5705 27.1793C12.2124 25.5404 14.4376 24.6199 16.7574 24.6199H19.6695C19.8347 24.6217 19.997 24.6623 20.1436 24.7383C20.2902 24.8144 20.4169 24.9238 20.5135 25.0577C20.6064 25.1935 20.6662 25.3492 20.6882 25.5122C20.7102 25.6753 20.6937 25.8412 20.6401 25.9968L18.2661 32.6862H18.7463C18.9106 32.6904 19.0716 32.7329 19.2165 32.8103C19.3615 32.8878 19.4862 32.9981 19.581 33.1323C19.6758 33.2666 19.738 33.4211 19.7625 33.5836C19.787 33.7461 19.7732 33.9121 19.7222 34.0684L18.7041 36.9329H23.6366L22.6185 34.0684C22.5675 33.9121 22.5536 33.7461 22.5781 33.5836C22.6026 33.4211 22.6648 33.2666 22.7596 33.1323C22.8544 32.9981 22.9793 32.8878 23.1242 32.8103C23.2692 32.7329 23.4302 32.6904 23.5945 32.6862H24.0745L21.7005 25.9968C21.6469 25.8412 21.6305 25.6753 21.6525 25.5122C21.6745 25.3492 21.7343 25.1935 21.8271 25.0577C21.9237 24.9238 22.0504 24.8144 22.197 24.7383C22.3436 24.6623 22.5061 24.6217 22.6713 24.6199H25.5834C27.9028 24.6213 30.127 25.5422 31.7686 27.1808C33.4101 28.8194 34.3351 31.042 34.3407 33.3614V44.5983C34.3379 45.4798 33.9861 46.3244 33.3623 46.9472C32.7385 47.57 31.8934 47.9205 31.0119 47.9219ZM16.768 26.6879C14.9966 26.6879 13.2975 27.3905 12.0435 28.6416C10.7894 29.8926 10.0827 31.59 10.0785 33.3614V44.5983C10.0799 44.9318 10.2134 45.2511 10.4497 45.4864C10.686 45.7217 11.006 45.8539 11.3394 45.8539H31.0223C31.3558 45.8539 31.6758 45.7217 31.9121 45.4864C32.1484 45.2511 32.2819 44.9318 32.2832 44.5983V33.3614C32.2791 31.59 31.5724 29.8926 30.3183 28.6416C29.0643 27.3905 27.3653 26.6879 25.5939 26.6879H24.1484L26.2006 32.491C26.2915 32.7476 26.3197 33.0222 26.283 33.292C26.2463 33.5618 26.1457 33.8189 25.9896 34.0419C25.7596 34.3645 25.4265 34.599 25.0452 34.7067L25.7679 36.7377C25.8585 36.993 25.8869 37.2661 25.8509 37.5345C25.8148 37.8029 25.7154 38.0588 25.5607 38.2811C25.406 38.5034 25.2005 38.6856 24.9613 38.8126C24.7221 38.9396 24.4561 39.0078 24.1853 39.0115H18.2292C17.9566 39.0108 17.6882 38.9449 17.4462 38.8193C17.2043 38.6938 16.9958 38.5121 16.8383 38.2896C16.6808 38.0671 16.5789 37.8101 16.5409 37.5401C16.503 37.2702 16.5302 36.995 16.6203 36.7377L17.3429 34.7067C16.9617 34.599 16.6286 34.3645 16.3986 34.0419C16.2424 33.8189 16.1419 33.5618 16.1052 33.292C16.0685 33.0222 16.0967 32.7476 16.1876 32.491L18.2397 26.6879H16.768Z" fill="#031C77"/>
</svg>
