<svg width="54" height="54" viewBox="0 0 54 54" fill="none" xmlns="http://www.w3.org/2000/svg">
<path d="M27.0374 25.259H26.9186C24.725 25.2154 22.6333 24.3251 21.081 22.7746C19.5287 21.2241 18.636 19.1334 18.5899 16.9398C18.5741 14.6994 19.4491 12.5445 21.0221 10.9491C22.5952 9.3538 24.7376 8.4487 26.978 8.43295C29.2184 8.4172 31.3732 9.2921 32.9686 10.8652C34.5639 12.4382 35.4691 14.5806 35.4848 16.821V16.8685C35.471 19.0994 34.5747 21.2342 32.9919 22.8063C31.409 24.3785 29.2683 25.2603 27.0374 25.259ZM27.0374 10.2455C25.7238 10.2479 24.4408 10.6415 23.3518 11.3759C22.2628 12.1104 21.4171 13.1525 20.9226 14.3695C20.5229 15.3609 20.3712 16.4349 20.4806 17.4983C20.5899 18.5617 20.9571 19.5823 21.5501 20.4717C22.1432 21.361 22.9443 22.0923 23.8839 22.602C24.8236 23.1117 25.8734 23.3844 26.9424 23.3966C27.8154 23.4032 28.6815 23.2419 29.4936 22.9215C30.7129 22.434 31.7581 21.5922 32.4941 20.5047C33.23 19.4173 33.6231 18.1341 33.6224 16.821V16.783C33.6099 15.0448 32.9106 13.3821 31.677 12.1574C30.4434 10.9327 28.7756 10.2454 27.0374 10.2455Z" fill="#031C77"/>
<path fill-rule="evenodd" clip-rule="evenodd" d="M22.7846 26.7933C22.7402 26.8663 22.7051 26.9445 22.6801 27.0261L18.7366 41.1132C18.702 41.2342 18.6918 41.3609 18.7066 41.4859C18.7214 41.611 18.7609 41.7318 18.8228 41.8414C18.8847 41.951 18.9677 42.0473 19.0671 42.1245C19.1665 42.2018 19.2802 42.2585 19.4017 42.2915L20.3519 42.5622C20.437 42.5865 20.5249 42.5993 20.6133 42.6003C20.8215 42.6004 21.0241 42.5321 21.1898 42.4059C21.3554 42.2798 21.475 42.1026 21.5302 41.9018L25.4737 27.8148C25.4964 27.7344 25.5076 27.6513 25.5069 27.5678C26.0071 27.6418 26.5121 27.6783 27.0178 27.677C27.3503 27.677 27.6735 27.6771 28.0013 27.6295L28.2341 27.601C28.4906 27.5725 28.7425 27.5345 28.9943 27.487L29.1986 27.4442C29.4741 27.3872 29.7402 27.3207 30.0062 27.2447L30.1298 27.2114C32.5716 26.4817 34.6779 24.9143 36.0783 22.785C37.4787 20.6557 38.0835 18.1009 37.7864 15.5698C37.4893 13.0386 36.3094 10.6932 34.454 8.94612C32.5986 7.19899 30.1866 6.162 27.6422 6.01745C25.0977 5.8729 22.5839 6.63004 20.5425 8.1558C18.5012 9.68155 17.0632 11.8782 16.4813 14.3594C15.8995 16.8406 16.2111 19.4475 17.3614 21.7217C18.5116 23.9959 20.4269 25.7917 22.7703 26.7933H22.7846ZM18.1808 14.3882C18.7219 12.4583 19.8783 10.7579 21.4742 9.54529C23.0701 8.33271 25.0182 7.67433 27.0225 7.67013C27.8656 7.67142 28.7046 7.78647 29.5169 8.0122C31.6548 8.61213 33.5037 9.96526 34.722 11.8218C35.9403 13.6783 36.4458 15.9129 36.1453 18.113C35.8448 20.3131 34.7586 22.3303 33.087 23.7921C31.4155 25.2539 29.2716 26.0618 27.0511 26.0664C26.208 26.0651 25.369 25.9501 24.5567 25.7243C22.2082 25.0663 20.2171 23.5023 19.0214 21.3765C17.8257 19.2506 17.5234 16.737 18.1808 14.3882Z" fill="#031C77"/>
<path d="M36.8528 49H17.2165C16.3646 48.9987 15.5479 48.6601 14.9451 48.0582C14.3423 47.4563 14.0025 46.6401 14 45.7882V34.5804C14.0091 32.582 14.709 30.6481 15.9811 29.1068C17.2531 27.5655 19.0189 26.5114 20.9794 26.1234C21.1993 26.0806 21.4274 26.1195 21.6208 26.2326L22.8988 26.931C23.0353 26.9683 23.1617 27.0356 23.2688 27.128C23.376 27.2204 23.4612 27.3355 23.5182 27.465C23.5752 27.5945 23.6025 27.735 23.5983 27.8765C23.594 28.0179 23.5582 28.1566 23.4935 28.2824C23.4288 28.4082 23.3367 28.518 23.2242 28.6037C23.1116 28.6894 22.9814 28.7489 22.8429 28.7778C22.7044 28.8068 22.5612 28.8045 22.4237 28.771C22.2862 28.7375 22.158 28.6738 22.0484 28.5845C21.9248 28.5227 21.3785 28.2234 21.0126 28.0238C19.5469 28.3876 18.2444 29.23 17.3115 30.4176C16.3786 31.6053 15.8687 33.0702 15.8624 34.5804V45.7882C15.8624 46.1473 16.005 46.4918 16.259 46.7457C16.5129 46.9996 16.8574 47.1423 17.2165 47.1423H36.8528C37.2093 47.1377 37.5501 46.9946 37.803 46.7432C37.9283 46.6188 38.0277 46.4707 38.0954 46.3076C38.1631 46.1445 38.1977 45.9696 38.1974 45.793V34.5851C38.1927 33.0745 37.6834 31.6088 36.7502 30.4208C35.8171 29.2329 34.5137 28.3909 33.0471 28.0286C31.1976 29.0324 29.1272 29.5598 27.0227 29.5632C26.8184 29.5632 26.139 29.5204 25.1223 29.4444H24.8847C24.7451 29.4635 24.6029 29.4512 24.4686 29.4086C24.3342 29.3659 24.2111 29.2938 24.1081 29.1977C24.005 29.1015 23.9246 28.9836 23.8727 28.8525C23.8208 28.7215 23.7987 28.5805 23.8081 28.4398C23.8174 28.2992 23.858 28.1624 23.9268 28.0394C23.9955 27.9163 24.0908 27.8101 24.2057 27.7284C24.3206 27.6468 24.4522 27.5917 24.5911 27.5672C24.7299 27.5426 24.8724 27.5493 25.0083 27.5867H25.2553C25.6497 27.5867 26.8565 27.696 27.0418 27.696C28.9428 27.6919 30.8092 27.1872 32.4532 26.2326C32.6466 26.1195 32.8747 26.0806 33.0947 26.1234C35.0576 26.5071 36.8267 27.5598 38.1003 29.102C39.3739 30.6442 40.0731 32.5803 40.0788 34.5804V45.7882C40.0788 46.2104 39.9956 46.6284 39.8339 47.0184C39.6722 47.4084 39.4352 47.7627 39.1365 48.061C38.8377 48.3593 38.4831 48.5957 38.0929 48.7569C37.7026 48.918 37.2844 49.0006 36.8623 49H36.8528Z" fill="#031C77"/>
</svg>
