<svg width="22" height="23" viewBox="0 0 22 23" fill="none" xmlns="http://www.w3.org/2000/svg">
<path d="M11.0002 2.33331C9.18717 2.33331 7.41489 2.87093 5.90744 3.87817C4.39999 4.88542 3.22507 6.31706 2.53127 7.99205C1.83747 9.66704 1.65594 11.5101 2.00964 13.2883C2.36333 15.0665 3.23637 16.6998 4.51835 17.9818C5.80034 19.2638 7.43368 20.1368 9.21184 20.4905C10.99 20.8442 12.8331 20.6627 14.5081 19.9689C16.1831 19.2751 17.6147 18.1002 18.622 16.5927C19.6292 15.0853 20.1668 13.313 20.1668 11.5C20.164 9.06971 19.1973 6.7398 17.4788 5.02133C15.7603 3.30287 13.4304 2.33618 11.0002 2.33331ZM14.0893 14.5891C13.9331 14.7454 13.7211 14.8331 13.5002 14.8331C13.2792 14.8331 13.0673 14.7454 12.911 14.5891L10.411 12.0891C10.2547 11.9329 10.1669 11.721 10.1668 11.5V6.49998C10.1668 6.27896 10.2546 6.067 10.4109 5.91072C10.5672 5.75444 10.7792 5.66665 11.0002 5.66665C11.2212 5.66665 11.4331 5.75444 11.5894 5.91072C11.7457 6.067 11.8335 6.27896 11.8335 6.49998V11.155L14.0893 13.4108C14.2456 13.5671 14.3333 13.779 14.3333 14C14.3333 14.2209 14.2456 14.4329 14.0893 14.5891Z" fill="#D3D3D3"/>
</svg>
