<svg width="35" height="30" viewBox="0 0 35 30" fill="none" xmlns="http://www.w3.org/2000/svg">
<g clip-path="url(#clip0_2514_1859)">
<path d="M17.3573 11.5035C21.1671 11.5169 24.5538 12.7878 27.6012 15.0221C30.3505 17.036 32.5621 19.5363 34.1723 22.5551C34.6208 23.397 34.2428 24.3111 33.3712 24.5463C32.7591 24.712 32.1642 24.4327 31.8302 23.8032C30.9 22.054 29.7077 20.5025 28.3011 19.1153C26.3157 17.1563 24.0521 15.6355 21.3774 14.7963C18.0399 13.7499 14.7717 14.0078 11.6125 15.4671C7.80267 17.2258 4.95625 20.0294 2.95218 23.711C2.5849 24.3859 2.04197 24.6946 1.42584 24.565C0.546233 24.3792 0.104433 23.4411 0.52228 22.6166C1.21825 21.2455 2.06858 19.9746 3.05731 18.7986C5.61097 15.7625 8.69958 13.5014 12.4908 12.2652C13.9919 11.7761 15.7245 11.5035 17.3573 11.5022V11.5035Z" fill="#F3F3F3"/>
<path d="M17.3643 29.8153C13.7634 29.8153 10.8477 26.8847 10.8438 23.2646C10.8398 19.6257 13.7607 16.6951 17.3816 16.7031C20.9852 16.7098 23.8902 19.6418 23.8862 23.2659C23.8809 26.8874 20.9652 29.8167 17.3643 29.8153ZM17.3231 27.1453C19.4349 27.1747 21.1941 25.4589 21.2261 23.3394C21.258 21.1772 19.576 19.4052 17.4561 19.3705C15.2924 19.3344 13.5278 21.0382 13.5025 23.1884C13.4759 25.36 15.1713 27.1159 17.3231 27.1453Z" fill="#F3F3F3"/>
<path d="M4.68024 13.2127C4.39946 13.0764 4.07343 12.9922 3.84588 12.7944C2.83453 11.9165 1.84314 11.0131 0.859731 10.1031C0.308811 9.5939 0.286189 8.7921 0.770573 8.24687C1.25496 7.70164 2.05605 7.62413 2.61629 8.11724C3.63961 9.0166 4.64564 9.93467 5.64501 10.8608C6.06419 11.2496 6.15867 11.8189 5.94177 12.3294C5.72885 12.8305 5.26044 13.1392 4.67891 13.2141L4.68024 13.2127Z" fill="#F3F3F3"/>
<path d="M30.0514 13.198C29.4779 13.1432 29.0015 12.8412 28.7925 12.3401C28.5703 11.8055 28.6382 11.2884 29.0547 10.8968C30.07 9.94 31.104 9.00188 32.1566 8.08649C32.6929 7.6201 33.4767 7.71632 33.9504 8.2375C34.4188 8.75332 34.4361 9.56048 33.9211 10.0456C32.9058 11.0024 31.8665 11.9338 30.8139 12.8506C30.6116 13.027 30.3069 13.0858 30.0501 13.198H30.0514Z" fill="#F3F3F3"/>
<path d="M18.6943 4.14426C18.6943 4.78838 18.6983 5.4325 18.6943 6.07662C18.689 6.88377 18.1221 7.48111 17.3675 7.48245C16.613 7.48379 16.0408 6.88644 16.0382 6.08062C16.0342 4.79239 16.0342 3.50415 16.0382 2.21725C16.0395 1.40476 16.601 0.81543 17.3622 0.81543C18.1234 0.81543 18.6876 1.40208 18.6929 2.21325C18.6969 2.85736 18.6929 3.50148 18.6929 4.1456L18.6943 4.14426Z" fill="#F3F3F3"/>
</g>
<defs>
<clipPath id="clip0_2514_1859">
<rect width="34" height="29" fill="white" transform="translate(0.363281 0.81543)"/>
</clipPath>
</defs>
</svg>
