<svg width="173" height="58" fill="none" xmlns="http://www.w3.org/2000/svg"><path d="M71.638 21.35h1.358v4.535c-.111.038-.275.08-.49.126a12.845 12.845 0 01-1.624.252 8.733 8.733 0 01-.994.056 4.972 4.972 0 01-1.862-.336 3.96 3.96 0 01-1.441-.98 4.506 4.506 0 01-.938-1.582c-.215-.625-.323-1.344-.323-2.156s.122-1.53.365-2.156a4.775 4.775 0 011.008-1.596c.42-.43.91-.756 1.47-.98a4.926 4.926 0 011.82-.336 7.136 7.136 0 012.044.28c.242.075.438.15.587.224.16.075.267.13.323.168l-.434 1.134c-.271-.177-.63-.322-1.079-.434a5.227 5.227 0 00-1.371-.182 3.39 3.39 0 00-1.359.266 2.897 2.897 0 00-1.035.77c-.28.336-.5.747-.659 1.232a5.076 5.076 0 00-.238 1.61c0 .579.066 1.106.197 1.582.14.476.345.887.616 1.232.28.336.62.598 1.022.784.41.187.89.28 1.442.28.391 0 .723-.018.993-.056.28-.046.481-.088.602-.126V21.35zm9.827 1.133c0 .579-.084 1.102-.252 1.568a3.525 3.525 0 01-.714 1.204 3.118 3.118 0 01-1.078.784 3.49 3.49 0 01-1.372.266 3.49 3.49 0 01-1.372-.266 3.262 3.262 0 01-1.092-.784 3.65 3.65 0 01-.7-1.204 4.605 4.605 0 01-.252-1.568c0-.57.084-1.087.252-1.554a3.62 3.62 0 01.7-1.218 3.102 3.102 0 011.092-.77 3.34 3.34 0 011.372-.28c.494 0 .952.094 1.372.28.42.178.779.434 1.078.77.308.336.546.742.714 1.218.168.467.252.985.252 1.554zm-1.358 0c0-.821-.187-1.47-.56-1.946-.364-.485-.864-.728-1.498-.728-.635 0-1.139.243-1.512.728-.364.476-.546 1.125-.546 1.946 0 .822.182 1.475.546 1.96.373.476.877.714 1.512.714.634 0 1.134-.238 1.498-.714.373-.485.56-1.138.56-1.96zm9.615 0c0 .579-.084 1.102-.251 1.568a3.525 3.525 0 01-.715 1.204 3.118 3.118 0 01-1.078.784 3.49 3.49 0 01-1.371.266 3.49 3.49 0 01-1.373-.266 3.262 3.262 0 01-1.091-.784 3.65 3.65 0 01-.7-1.204 4.605 4.605 0 01-.252-1.568c0-.57.084-1.087.251-1.554.169-.476.402-.882.7-1.218a3.102 3.102 0 011.093-.77 3.34 3.34 0 011.371-.28c.495 0 .953.094 1.373.28.42.178.779.434 1.078.77.307.336.545.742.713 1.218.168.467.252.985.252 1.554zm-1.357 0c0-.821-.187-1.47-.56-1.946-.365-.485-.864-.728-1.499-.728-.634 0-1.138.243-1.511.728-.365.476-.546 1.125-.546 1.946 0 .822.181 1.475.546 1.96.373.476.877.714 1.511.714.635 0 1.135-.238 1.499-.714.373-.485.56-1.138.56-1.96zm7.753 2.912c-.112.075-.331.173-.658.294-.317.112-.69.168-1.12.168a3.68 3.68 0 01-1.246-.21 2.742 2.742 0 01-1.008-.644 3.221 3.221 0 01-.686-1.106c-.168-.438-.252-.961-.252-1.568 0-.532.08-1.017.238-1.456a3.22 3.22 0 01.686-1.148 3.13 3.13 0 011.12-.756c.439-.186.934-.28 1.484-.28.607 0 1.134.047 1.582.14.458.084.84.164 1.148.238v6.496c0 1.12-.289 1.932-.868 2.436-.578.504-1.456.756-2.632.756a7.27 7.27 0 01-2.352-.378l.238-1.134c.262.103.579.192.952.266.383.084.78.126 1.19.126.775 0 1.33-.154 1.666-.462.346-.308.518-.798.518-1.47v-.308zm-.014-5.404a3.689 3.689 0 00-.532-.098 5.418 5.418 0 00-.882-.056c-.7 0-1.241.229-1.624.686-.373.458-.56 1.064-.56 1.82 0 .42.052.78.154 1.078.112.299.257.546.434.742.187.196.397.34.63.434.243.094.49.14.742.14.346 0 .663-.046.952-.14.29-.102.518-.22.686-.35v-4.256zm5.728 6.272c-.803-.018-1.372-.191-1.708-.518-.336-.326-.504-.835-.504-1.526v-8.736l1.302-.224v8.75c0 .215.019.392.056.532.037.14.098.252.182.336.084.084.196.15.336.196.14.038.313.07.518.098l-.182 1.092zm1.238-3.766c0-.644.094-1.204.28-1.68.187-.485.434-.886.742-1.204a3.017 3.017 0 011.064-.714 3.328 3.328 0 011.232-.238c.98 0 1.732.308 2.254.924.523.607.784 1.536.784 2.786v.224a1.8 1.8 0 01-.014.238h-4.984c.056.756.276 1.33.658 1.722.383.392.98.588 1.792.588.458 0 .84-.037 1.148-.112a4.42 4.42 0 00.714-.238l.182 1.092c-.158.084-.438.173-.84.266-.392.094-.84.14-1.344.14-.634 0-1.185-.093-1.652-.28a3.156 3.156 0 01-1.134-.798 3.336 3.336 0 01-.672-1.19 5.29 5.29 0 01-.21-1.526zm4.998-.714c.01-.588-.14-1.068-.448-1.442-.298-.382-.714-.574-1.246-.574a1.7 1.7 0 00-.798.182 1.807 1.807 0 00-.574.448 2.241 2.241 0 00-.378.644c-.084.243-.14.49-.168.742h3.612zm11.299.28c.149.187.336.434.56.742.233.299.471.635.714 1.008.242.364.48.747.714 1.148.242.402.448.789.616 1.162h-1.484a18.712 18.712 0 00-.616-1.078 17.95 17.95 0 00-.658-1.036 16.348 16.348 0 00-.672-.938 19.27 19.27 0 00-.588-.756c-.122.01-.248.014-.378.014h-1.596v3.794h-1.358v-9.562a7.202 7.202 0 011.274-.182c.476-.037.91-.056 1.302-.056 1.362 0 2.398.257 3.108.77.718.514 1.078 1.279 1.078 2.296 0 .644-.173 1.195-.518 1.652-.336.458-.836.798-1.498 1.022zm-2.058-4.55c-.579 0-1.022.014-1.33.042v3.654h.966c.466 0 .886-.023 1.26-.07.373-.046.686-.135.938-.266a1.42 1.42 0 00.602-.546c.14-.242.21-.56.21-.952 0-.364-.07-.667-.21-.91a1.545 1.545 0 00-.574-.574 2.422 2.422 0 00-.84-.294 5.889 5.889 0 00-1.022-.084zm8.496 7.672c.308 0 .579-.004.812-.014a4.02 4.02 0 00.602-.084v-2.17a1.585 1.585 0 00-.462-.112 4.313 4.313 0 00-.756-.056c-.196 0-.406.014-.63.042a1.888 1.888 0 00-.602.182 1.217 1.217 0 00-.448.364c-.121.15-.182.35-.182.602 0 .467.15.794.448.98.299.178.705.266 1.218.266zm-.112-6.524c.523 0 .962.07 1.316.21.364.13.654.322.868.574.224.243.383.537.476.882.094.336.14.71.14 1.12v4.55l-.476.084c-.196.028-.42.056-.672.084a17.15 17.15 0 01-.826.07 8.99 8.99 0 01-.868.042c-.41 0-.788-.042-1.134-.126a2.615 2.615 0 01-.896-.392 1.882 1.882 0 01-.588-.728c-.14-.298-.21-.658-.21-1.078 0-.401.08-.746.238-1.036.168-.29.392-.522.672-.7a3.09 3.09 0 01.98-.392 5.353 5.353 0 011.176-.126c.131 0 .266.01.406.028.14.01.271.028.392.056a6.249 6.249 0 01.532.098v-.364c0-.214-.023-.424-.07-.63a1.38 1.38 0 00-.252-.56 1.186 1.186 0 00-.504-.392c-.205-.102-.476-.154-.812-.154a5.84 5.84 0 00-1.134.098 3.688 3.688 0 00-.714.182l-.154-1.078c.168-.074.448-.144.84-.21a6.822 6.822 0 011.274-.112zm6.181.182h2.758v1.092h-2.758v3.36c0 .364.028.668.084.91.056.234.14.42.252.56.112.13.252.224.42.28.168.056.364.084.588.084.392 0 .705-.042.938-.126.243-.093.411-.158.504-.196l.252 1.078a4.46 4.46 0 01-.686.238c-.327.103-.7.154-1.12.154-.495 0-.905-.06-1.232-.182a1.843 1.843 0 01-.77-.574 2.34 2.34 0 01-.42-.924 6.59 6.59 0 01-.112-1.288v-6.496l1.302-.224v2.254zm5.717 7.28h-1.302v-7.28h1.302v7.28zm-.658-8.596a.874.874 0 01-.602-.224c-.159-.158-.238-.368-.238-.63 0-.261.079-.466.238-.616a.845.845 0 01.602-.238.8.8 0 01.588.238c.168.15.252.355.252.616 0 .262-.084.472-.252.63a.826.826 0 01-.588.224zm2.897 1.526c.298-.074.695-.154 1.19-.238a10.29 10.29 0 011.708-.126c.578 0 1.059.084 1.442.252.382.159.686.388.91.686.233.29.396.64.49 1.05.093.41.14.864.14 1.358v4.088h-1.302v-3.808c0-.448-.033-.83-.098-1.148-.056-.317-.154-.574-.294-.77a1.15 1.15 0 00-.56-.42c-.234-.093-.523-.14-.868-.14a6.98 6.98 0 00-.868.056 3.951 3.951 0 00-.588.084v6.146h-1.302v-7.07zm12.603 6.342c-.112.075-.332.173-.658.294a3.372 3.372 0 01-1.12.168c-.439 0-.854-.07-1.246-.21a2.735 2.735 0 01-1.008-.644 3.21 3.21 0 01-.686-1.106c-.168-.438-.252-.961-.252-1.568 0-.532.079-1.017.238-1.456a3.21 3.21 0 01.686-1.148 3.127 3.127 0 011.12-.756c.438-.186.933-.28 1.484-.28a7.87 7.87 0 011.582.14c.457.084.84.164 1.148.238v6.496c0 1.12-.29 1.932-.868 2.436-.579.504-1.456.756-2.632.756a7.388 7.388 0 01-2.352-.378l.238-1.134c.261.103.578.192.952.266.382.084.779.126 1.19.126.774 0 1.33-.154 1.666-.462.345-.308.518-.798.518-1.47v-.308zm-.014-5.404a3.7 3.7 0 00-.532-.098 5.425 5.425 0 00-.882-.056c-.7 0-1.242.229-1.624.686-.374.458-.56 1.064-.56 1.82 0 .42.051.78.154 1.078.112.299.256.546.434.742.186.196.396.34.63.434.242.094.49.14.742.14.345 0 .662-.046.952-.14.289-.102.518-.22.686-.35v-4.256z" fill="#fff"/><path d="M64.912 38.723c.127-.293.3-.633.52-1.02.22-.393.467-.796.74-1.21.28-.413.577-.82.89-1.22.32-.4.64-.76.96-1.08h.89v4.4h.82v.76h-.82v1.77h-.9v-1.77h-3.1v-.63zm3.1-3.43c-.2.214-.403.454-.61.72a16.22 16.22 0 00-1.14 1.7c-.166.3-.316.594-.45.88h2.2v-3.3zm3.925 4.69c.007.054.01.107.01.16v.15c0 .42-.063.834-.19 1.24a5.41 5.41 0 01-.5 1.18l-.72-.23c.167-.34.277-.686.33-1.04.053-.346.08-.673.08-.98 0-.086-.003-.17-.01-.25 0-.08-.003-.156-.01-.23h1.01zm5.69-3.02c0 1.374-.342 2.414-1.03 3.12-.68.7-1.692 1.054-3.04 1.06l-.03-.78c.42 0 .798-.04 1.13-.12a2.6 2.6 0 00.89-.38c.254-.18.464-.41.63-.69.174-.28.3-.623.38-1.03-.172.08-.37.147-.59.2-.22.047-.446.07-.68.07-.392 0-.726-.056-1-.17a1.92 1.92 0 01-.67-.47c-.172-.2-.3-.426-.38-.68a2.97 2.97 0 01-.11-.81c0-.246.044-.503.13-.77a2.34 2.34 0 01.39-.73c.18-.22.408-.4.68-.54.274-.14.598-.21.97-.21.38 0 .714.067 1 .2.294.134.538.327.73.58.2.254.35.564.45.93.1.36.15.767.15 1.22zm-2.24.69c.234 0 .454-.02.66-.06.208-.046.408-.113.6-.2a2.31 2.31 0 00.01-.21v-.22c0-.286-.02-.56-.06-.82a2.049 2.049 0 00-.22-.69c-.1-.2-.236-.356-.41-.47-.172-.12-.392-.18-.66-.18-.22 0-.406.047-.56.14-.152.094-.28.214-.38.36-.1.14-.172.297-.22.47-.04.167-.06.33-.06.49 0 .454.108.8.32 1.04.22.234.548.35.98.35z" fill="#EC9548"/><rect x=".5" y="1.123" width="171.671" height="56" rx=".5" stroke="#C4C4C4"/><path d="M91.474 32.847l1.153 3.55h3.734l-3.02 2.194 1.153 3.55-3.02-2.193-3.02 2.194 1.153-3.55-3.02-2.195h3.733l1.154-3.55zm14.276 0l1.154 3.55h3.733l-3.02 2.194 1.154 3.55-3.021-2.193-3.02 2.194 1.154-3.55-3.02-2.195h3.733l1.153-3.55zm14.277 0l1.153 3.55h3.733l-3.02 2.194 1.154 3.55-3.02-2.193-3.021 2.194 1.154-3.55-3.02-2.195h3.733l1.154-3.55zm14.276 0l1.154 3.55h3.733l-3.02 2.194 1.153 3.55-3.02-2.193-3.02 2.194 1.154-3.55-3.02-2.195h3.733l1.153-3.55zm14.277 0l1.153 3.55h3.734l-3.021 2.194 1.154 3.55-3.02-2.193-3.02 2.194 1.153-3.55-3.02-2.195h3.733l1.154-3.55z" fill="#EC9548"/><g clip-path="url(#clip0_9_588)"><path d="M33.393 15c.825.301 1.705.374 2.552.617 1.41.405 2.666 1.043 3.841 1.889.218.157.442.311.653.483.681.555.706.524.09 1.15-1.027 1.04-2.056 2.077-3.077 3.122-.188.191-.317.301-.6.087-4.351-3.312-10.605-1.359-12.48 3.78-.014.037-.05.066-.074.097-.116-.033-.255-.034-.342-.103-1.426-1.123-2.846-2.255-4.268-3.386 1.365-2.823 3.473-4.894 6.242-6.286a11.67 11.67 0 013.663-1.16c.257-.036.785.208.972-.289h2.828V15z" fill="#FD2C26"/><path d="M24.284 31.694c1.018 2.646 2.81 4.491 5.53 5.268 2.43.694 4.762.31 6.96-.939.101.101.194.212.305.3 1.313 1.06 2.629 2.114 3.944 3.171-1.816 1.786-4.016 2.787-6.475 3.277-.345.068-.721.004-1.032.229h-3.197c-.602-.319-1.286-.291-1.922-.482-3.947-1.183-6.903-3.567-8.738-7.324l4.625-3.498v-.002z" fill="#01AB47"/><path d="M41.023 39.494c-1.315-1.056-2.63-2.112-3.944-3.17-.11-.089-.204-.2-.305-.3 1.191-.932 2.113-2.05 2.555-3.546.149-.507.078-.648-.46-.642-2.09.027-4.18-.005-6.269.023-.464.006-.583-.124-.573-.587.03-1.43.03-2.86 0-4.291-.009-.448.127-.545.549-.543 3.932.016 7.865.022 11.798-.007.498-.003.621.207.685.613.37 2.335.138 4.622-.547 6.87a12.899 12.899 0 01-3.203 5.352c-.085.087-.191.154-.287.23l.001-.002z" fill="#3090E8"/><path d="M19.659 35.194c-1.111-2.16-1.51-4.471-1.41-6.886.083-1.962.519-3.832 1.438-5.572 1.421 1.131 2.841 2.263 4.268 3.386.087.069.226.07.342.103-.542 1.822-.564 3.645-.014 5.47l-4.625 3.498z" fill="#FEBA01"/></g><defs><clipPath id="clip0_9_588"><path fill="#fff" transform="translate(18.235 15)" d="M0 0h27v28H0z"/></clipPath></defs></svg>