<svg width="24" height="25" viewBox="0 0 24 25" fill="none" xmlns="http://www.w3.org/2000/svg">
<path d="M10.5177 24.0004C7.96599 24.0004 5.4586 24.0844 2.96106 23.9708C1.27633 23.8967 0.0152508 22.2671 0.0103247 20.4152C-0.0044536 15.8177 0.000472513 11.2202 0.000472513 6.62758C0.000472513 5.68931 -0.0093797 4.75103 0.000472513 3.8177C0.0251031 1.54116 1.46353 0.0744911 3.75909 0.0596763C7.17781 0.0349849 10.5965 0.054738 14.0153 0.0497997C16.0399 0.0497997 18.0694 0.0399232 20.0941 0.0497997C22.5522 0.0646145 23.9906 1.49671 23.9906 3.94116C23.9955 9.3535 23.9955 14.7659 23.9906 20.1782C23.9906 22.6029 22.5965 24.0103 20.1778 24.035C18.429 24.0498 16.6753 24.035 14.8478 24.035V15.5757H18.3305C18.567 14.1486 18.7886 12.8202 19.03 11.3683H14.833V8.49425H18.9955V4.23745C17.1778 4.32634 15.3552 4.23745 13.6015 4.54857C11.764 4.87449 10.6606 6.60782 10.5965 8.68684C10.5719 9.52634 10.5965 10.3708 10.5965 11.3239H7.88225V15.4868H10.5128V23.9905L10.5177 24.0004Z" fill="#EB5B31"/>
</svg>
