<svg width="24" height="25" viewBox="0 0 24 25" fill="none" xmlns="http://www.w3.org/2000/svg">
<path d="M11.9861 24.0426C9.08901 24.0426 6.19098 24.0454 3.2939 24.0416C1.71862 24.0397 0.41371 22.989 0.0785644 21.4538C0.0269313 21.22 0.00440055 20.974 0.00440055 20.7346C-0.00029337 14.9402 -0.00123215 9.1449 0.0015842 3.35054C0.00252298 1.49326 1.44262 0.0481895 3.29671 0.0472505C9.09933 0.0434946 14.902 0.0434946 20.7046 0.0472505C22.5474 0.0481895 23.995 1.49044 23.996 3.32988C24.0006 9.14021 24.0006 14.9505 23.996 20.7609C23.9941 22.5984 22.5455 24.0379 20.7008 24.0416C17.7953 24.0463 14.8907 24.0426 11.9852 24.0426H11.9861ZM12.7822 10.6473C12.7822 10.4379 12.7869 10.2285 12.7812 10.0191C12.7709 9.66979 12.6038 9.50171 12.2565 9.49983C11.5533 9.49608 10.8502 9.49608 10.147 9.49983C9.77244 9.50171 9.61003 9.66979 9.61003 10.0501C9.60909 13.0266 9.61003 16.0022 9.61003 18.9787C9.61003 19.3778 9.77901 19.5421 10.1864 19.5421C10.8267 19.543 11.4679 19.5421 12.1081 19.5421C12.6367 19.5421 12.7719 19.4078 12.7719 18.8773C12.7719 17.3778 12.769 15.8773 12.7737 14.3778C12.7756 13.805 12.8986 13.2604 13.215 12.775C13.6008 12.1834 14.1678 12.0003 14.8409 12.0904C15.4568 12.1731 15.8708 12.5346 16.0154 13.1196C16.1355 13.6059 16.19 14.1186 16.1984 14.62C16.2209 16.0651 16.2031 17.5102 16.204 18.9552C16.204 19.3796 16.3627 19.5374 16.7823 19.5383C17.478 19.5393 18.1727 19.5402 18.8683 19.5383C19.2851 19.5383 19.4504 19.3721 19.4504 18.9543C19.4504 17.3214 19.4691 15.6886 19.4353 14.0566C19.4213 13.3665 19.3499 12.666 19.2044 11.9919C18.9368 10.7487 18.2459 9.82847 16.9541 9.4895C16.1393 9.27542 15.315 9.28856 14.4973 9.49514C13.7951 9.67166 13.2459 10.0745 12.7822 10.6482V10.6473ZM5.01469 14.5299C5.01469 15.99 5.01469 17.4491 5.01469 18.9092C5.01469 19.3674 5.19118 19.5411 5.65494 19.5421C6.27923 19.5421 6.90446 19.5421 7.52875 19.5421C8.00471 19.5421 8.18214 19.3693 8.18214 18.8961C8.18308 15.9768 8.18308 13.0566 8.18214 10.1374C8.18214 9.66979 8.01035 9.49608 7.55034 9.4942C6.9176 9.49138 6.2858 9.49138 5.65306 9.4942C5.18555 9.49608 5.01469 9.66697 5.01469 10.128C5.01469 11.5956 5.01469 13.0632 5.01469 14.5308V14.5299ZM8.63651 6.59373C8.64402 5.47918 7.74185 4.55805 6.63127 4.5449C5.49347 4.53176 4.55938 5.44162 4.55093 6.57213C4.54248 7.69795 5.45216 8.62284 6.57307 8.62941C7.7212 8.63598 8.62807 7.74115 8.63558 6.59467L8.63651 6.59373Z" fill="#EB5B31"/>
</svg>
