<svg width="71" height="71" viewBox="0 0 71 71" fill="none" xmlns="http://www.w3.org/2000/svg">
<path d="M69.3656 14.8313C69.1856 14.4812 68.9254 14.1785 68.6063 13.948C68.2871 13.7175 67.9181 13.5655 67.5291 13.5046C67.1402 13.4437 66.7423 13.4755 66.368 13.5974C65.9937 13.7194 65.6534 13.928 65.375 14.2063L55.775 23.8126C55.3037 24.277 54.6686 24.5373 54.007 24.5373C53.3453 24.5373 52.7103 24.277 52.239 23.8126L48.089 19.6563C47.8568 19.4242 47.6726 19.1485 47.5469 18.8452C47.4213 18.5418 47.3566 18.2167 47.3566 17.8883C47.3566 17.56 47.4213 17.2348 47.5469 16.9315C47.6726 16.6281 47.8568 16.3525 48.089 16.1204L57.6484 6.55943C57.935 6.2729 58.1476 5.921 58.2679 5.53405C58.3883 5.14709 58.4128 4.73667 58.3393 4.33815C58.2658 3.93963 58.0965 3.56495 57.8461 3.24637C57.5956 2.9278 57.2714 2.67489 56.9015 2.50943C49.6812 -0.718695 40.6687 0.96568 34.9859 6.6063C30.1578 11.4001 28.7187 18.8907 31.0406 27.1579C31.1658 27.5987 31.1665 28.0656 31.0427 28.5069C30.9188 28.9481 30.6753 29.3465 30.339 29.6579L4.32653 53.4157C3.31316 54.3255 2.49577 55.4323 1.92422 56.6685C1.35267 57.9046 1.03895 59.2443 1.00219 60.6057C0.965428 61.9671 1.2064 63.3217 1.71041 64.5869C2.21441 65.8521 2.97089 67.0014 3.93368 67.9646C4.89648 68.9278 6.04541 69.6848 7.31039 70.1894C8.57538 70.6939 9.92989 70.9355 11.2913 70.8994C12.6527 70.8632 13.9925 70.5501 15.2289 69.9791C16.4653 69.4081 17.5725 68.5912 18.4828 67.5782L42.4953 41.5079C42.8022 41.1759 43.1938 40.934 43.628 40.8082C44.0622 40.6823 44.5225 40.6774 44.9593 40.7938C47.313 41.4387 49.7408 41.7733 52.1812 41.7891C57.4 41.7891 61.9796 40.1001 65.2828 36.8454C71.4 30.8188 72.3328 20.5969 69.3656 14.8313ZM11.5437 65.8672C10.5147 65.9796 9.47609 65.7697 8.57137 65.2667C7.66664 64.7636 6.94036 63.9921 6.49276 63.0588C6.04515 62.1253 5.89829 61.076 6.07244 60.0556C6.24659 59.0352 6.73316 58.094 7.46502 57.3619C8.19687 56.6297 9.13791 56.1428 10.1583 55.9683C11.1786 55.7938 12.228 55.9403 13.1616 56.3876C14.0951 56.8349 14.8668 57.5609 15.3702 58.4654C15.8736 59.37 16.0838 60.4085 15.9718 61.4376C15.8487 62.5699 15.3426 63.6262 14.5373 64.4317C13.7321 65.2372 12.676 65.7437 11.5437 65.8672Z" fill="#B4BCD1"/>
</svg>
