<svg width="20" height="20" viewBox="0 0 20 20" fill="none" xmlns="http://www.w3.org/2000/svg">
<path d="M0.397739 0.397739C0.928057 -0.132579 1.78787 -0.132579 2.31819 0.397739L19.6023 17.6818C20.1326 18.2121 20.1326 19.0719 19.6023 19.6023C19.0719 20.1326 18.2121 20.1326 17.6818 19.6023L0.397739 2.31819C-0.132579 1.78787 -0.13258 0.928058 0.397739 0.397739Z" fill="#B4BCD1"/>
<path d="M0.397739 19.6023C-0.13258 19.0719 -0.13258 18.2121 0.397739 17.6818L17.6818 0.397739C18.2121 -0.132579 19.0719 -0.13258 19.6023 0.397738C20.1326 0.928057 20.1326 1.78787 19.6023 2.31819L2.31819 19.6023C1.78787 20.1326 0.928057 20.1326 0.397739 19.6023Z" fill="#B4BCD1"/>
</svg>
