<svg width="80" height="80" viewBox="0 0 80 80" fill="none" xmlns="http://www.w3.org/2000/svg">
<path d="M57.5 30H55V17.5C55 13.5218 53.4197 9.70644 50.6066 6.8934C47.7936 4.08035 43.9782 2.5 40 2.5C36.0218 2.5 32.2064 4.08035 29.3934 6.8934C26.5804 9.70644 25 13.5218 25 17.5V30H22.5C19.8487 30.0029 17.3069 31.0574 15.4321 32.9321C13.5574 34.8069 12.5029 37.3487 12.5 40V67.5C12.5029 70.1513 13.5574 72.6931 15.4321 74.5679C17.3069 76.4426 19.8487 77.4971 22.5 77.5H57.5C60.1513 77.4971 62.6931 76.4426 64.5679 74.5679C66.4426 72.6931 67.4971 70.1513 67.5 67.5V40C67.4971 37.3487 66.4426 34.8069 64.5679 32.9321C62.6931 31.0574 60.1513 30.0029 57.5 30ZM50 30H30V17.5C30 14.8478 31.0536 12.3043 32.9289 10.4289C34.8043 8.55357 37.3478 7.5 40 7.5C42.6522 7.5 45.1957 8.55357 47.0711 10.4289C48.9464 12.3043 50 14.8478 50 17.5V30Z" fill="#B4BCD1"/>
</svg>
