<svg width="72" height="72" fill="none" xmlns="http://www.w3.org/2000/svg"><g filter="url(#filter0_d_2206_837)"><circle cx="36" cy="32" r="20" fill="#fff"/></g><path d="M40.415 38.5h-9.04v-2.4l.98-.94 1.1-1.1c.24-.267.56-.6.96-1 .454-.48.774-.86.96-1.14l.66-1.02c.467-.707.7-1.433.7-2.18 0-.92-.426-1.38-1.28-1.38-.386 0-.693.127-.92.38-.226.24-.433.613-.62 1.12l-2.5-1.14c.24-1.053.734-1.873 1.48-2.46.76-.6 1.734-.9 2.92-.9 1.294 0 2.3.367 3.02 1.1.734.733 1.1 1.627 1.1 2.68 0 2.653-1.56 5.18-4.68 7.58h5.16v2.8z" fill="#7E9BFA"/><defs><filter id="filter0_d_2206_837" x="0" y="0" width="72" height="72" filterUnits="userSpaceOnUse" color-interpolation-filters="sRGB"><feFlood flood-opacity="0" result="BackgroundImageFix"/><feColorMatrix in="SourceAlpha" values="0 0 0 0 0 0 0 0 0 0 0 0 0 0 0 0 0 0 127 0" result="hardAlpha"/><feOffset dy="4"/><feGaussianBlur stdDeviation="8"/><feColorMatrix values="0 0 0 0 0.1375 0 0 0 0 0.233899 0 0 0 0 0.55 0 0 0 0.15 0"/><feBlend in2="BackgroundImageFix" result="effect1_dropShadow_2206_837"/><feBlend in="SourceGraphic" in2="effect1_dropShadow_2206_837" result="shape"/></filter></defs></svg>