<svg xmlns="http://www.w3.org/2000/svg" viewBox="0 0 229.73 225.48"><defs><style>.cls-1{fill:#f4f6fe;}</style></defs><g id="Слой_2" data-name="Слой 2"><g id="Слой_1-2" data-name="Слой 1"><path class="cls-1" d="M24.86,136.72A83.72,83.72,0,0,1,0,79.1,76.77,76.77,0,0,1,79.1,0l33.65.7A19.64,19.64,0,0,1,131.8,19.77,17.75,17.75,0,0,1,113.53,38l-33.65-.7A41.28,41.28,0,0,0,37.34,79.88,45.68,45.68,0,0,0,81.7,124.24l67.69,1.41a19.64,19.64,0,0,1,19.05,19A17.75,17.75,0,0,1,150.17,163l-67.69-1.41A83.81,83.81,0,0,1,24.86,136.72Z"/><path class="cls-1" d="M103.52,218.9a19.58,19.58,0,0,1-5.78-13.35A17.69,17.69,0,0,1,116,187.27l33.74.78a41.27,41.27,0,0,0,42.55-42.56c-.55-24-20.54-44-44.56-44.56L79.88,99.37A19.77,19.77,0,0,1,60.74,80.24,17.71,17.71,0,0,1,79,62l67.86,1.56c44.64,1,81.8,38.19,82.83,82.83s-34.46,80.14-79.1,79.11l-33.74-.78A19.56,19.56,0,0,1,103.52,218.9Z"/></g></g></svg>