<svg width="173" height="58" viewBox="0 0 173 58" fill="none" xmlns="http://www.w3.org/2000/svg">
<path d="M70.2176 26.3332C69.5362 26.3332 68.9156 26.2212 68.3556 25.9972C67.7956 25.7732 67.3149 25.4466 66.9136 25.0172C66.5122 24.5879 66.1996 24.0606 65.9756 23.4352C65.7609 22.8006 65.6536 22.0772 65.6536 21.2652C65.6536 20.4532 65.7749 19.7346 66.0176 19.1092C66.2696 18.4746 66.6056 17.9426 67.0256 17.5132C67.4456 17.0839 67.9356 16.7572 68.4956 16.5332C69.0556 16.3092 69.6529 16.1972 70.2876 16.1972C70.6889 16.1972 71.0482 16.2252 71.3656 16.2812C71.6922 16.3372 71.9722 16.4026 72.2056 16.4772C72.4482 16.5519 72.6442 16.6266 72.7936 16.7012C72.9429 16.7759 73.0456 16.8319 73.1016 16.8692L72.7096 17.9892C72.6256 17.9332 72.5042 17.8726 72.3456 17.8072C72.1869 17.7419 72.0049 17.6766 71.7996 17.6112C71.6036 17.5459 71.3842 17.4946 71.1416 17.4572C70.9082 17.4106 70.6702 17.3872 70.4276 17.3872C69.9142 17.3872 69.4522 17.4759 69.0416 17.6532C68.6309 17.8306 68.2809 18.0872 67.9916 18.4232C67.7022 18.7592 67.4782 19.1699 67.3196 19.6552C67.1702 20.1312 67.0956 20.6679 67.0956 21.2652C67.0956 21.8439 67.1609 22.3712 67.2916 22.8472C67.4316 23.3232 67.6369 23.7339 67.9076 24.0792C68.1782 24.4152 68.5142 24.6766 68.9156 24.8632C69.3262 25.0499 69.8022 25.1432 70.3436 25.1432C70.9689 25.1432 71.4869 25.0779 71.8976 24.9472C72.3082 24.8166 72.6162 24.6999 72.8216 24.5972L73.1716 25.7172C73.1062 25.7639 72.9896 25.8246 72.8216 25.8992C72.6536 25.9646 72.4436 26.0299 72.1916 26.0952C71.9396 26.1606 71.6456 26.2166 71.3096 26.2632C70.9736 26.3099 70.6096 26.3332 70.2176 26.3332ZM74.0321 22.4972C74.0321 21.8532 74.1254 21.2932 74.3121 20.8172C74.4988 20.3319 74.7461 19.9306 75.0541 19.6132C75.3621 19.2959 75.7168 19.0579 76.1181 18.8992C76.5194 18.7406 76.9301 18.6612 77.3501 18.6612C78.3301 18.6612 79.0814 18.9692 79.6041 19.5852C80.1268 20.1919 80.3881 21.1206 80.3881 22.3712C80.3881 22.4272 80.3881 22.5019 80.3881 22.5952C80.3881 22.6792 80.3834 22.7586 80.3741 22.8332H75.3901C75.4461 23.5892 75.6654 24.1632 76.0481 24.5552C76.4308 24.9472 77.0281 25.1432 77.8401 25.1432C78.2974 25.1432 78.6801 25.1059 78.9881 25.0312C79.3054 24.9472 79.5434 24.8679 79.7021 24.7932L79.8841 25.8852C79.7254 25.9692 79.4454 26.0579 79.0441 26.1512C78.6521 26.2446 78.2041 26.2912 77.7001 26.2912C77.0654 26.2912 76.5148 26.1979 76.0481 26.0112C75.5908 25.8152 75.2128 25.5492 74.9141 25.2132C74.6154 24.8772 74.3914 24.4806 74.2421 24.0232C74.1021 23.5566 74.0321 23.0479 74.0321 22.4972ZM79.0301 21.7832C79.0394 21.1952 78.8901 20.7146 78.5821 20.3412C78.2834 19.9586 77.8681 19.7672 77.3361 19.7672C77.0374 19.7672 76.7714 19.8279 76.5381 19.9492C76.3141 20.0612 76.1228 20.2106 75.9641 20.3972C75.8054 20.5839 75.6794 20.7986 75.5861 21.0412C75.5021 21.2839 75.4461 21.5312 75.4181 21.7832H79.0301ZM84.9464 18.6892C85.0584 18.6892 85.1844 18.6986 85.3244 18.7172C85.4738 18.7266 85.6184 18.7452 85.7584 18.7732C85.8984 18.7919 86.0244 18.8152 86.1364 18.8432C86.2578 18.8619 86.3464 18.8806 86.4024 18.8992L86.1784 20.0332C86.0758 19.9959 85.9031 19.9539 85.6604 19.9072C85.4271 19.8512 85.1238 19.8232 84.7504 19.8232C84.5078 19.8232 84.2651 19.8512 84.0224 19.9072C83.7891 19.9539 83.6351 19.9866 83.5604 20.0052V26.1232H82.2584V19.1512C82.5664 19.0392 82.9491 18.9366 83.4064 18.8432C83.8638 18.7406 84.3771 18.6892 84.9464 18.6892ZM88.8768 18.8432H91.6348V19.9352H88.8768V23.2952C88.8768 23.6592 88.9048 23.9626 88.9608 24.2052C89.0168 24.4386 89.1008 24.6252 89.2128 24.7652C89.3248 24.8959 89.4648 24.9892 89.6328 25.0452C89.8008 25.1012 89.9968 25.1292 90.2208 25.1292C90.6128 25.1292 90.9255 25.0872 91.1588 25.0032C91.4015 24.9099 91.5695 24.8446 91.6628 24.8072L91.9148 25.8852C91.7842 25.9506 91.5555 26.0299 91.2288 26.1232C90.9022 26.2259 90.5288 26.2772 90.1088 26.2772C89.6142 26.2772 89.2035 26.2166 88.8768 26.0952C88.5595 25.9646 88.3028 25.7732 88.1068 25.5212C87.9108 25.2692 87.7708 24.9612 87.6868 24.5972C87.6122 24.2239 87.5748 23.7946 87.5748 23.3092V16.8132L88.8768 16.5892V18.8432ZM94.5936 26.1232H93.2916V18.8432H94.5936V26.1232ZM93.9356 17.5272C93.7023 17.5272 93.5016 17.4526 93.3336 17.3032C93.175 17.1446 93.0956 16.9346 93.0956 16.6732C93.0956 16.4119 93.175 16.2066 93.3336 16.0572C93.5016 15.8986 93.7023 15.8192 93.9356 15.8192C94.169 15.8192 94.365 15.8986 94.5236 16.0572C94.6916 16.2066 94.7756 16.4119 94.7756 16.6732C94.7756 16.9346 94.6916 17.1446 94.5236 17.3032C94.365 17.4526 94.169 17.5272 93.9356 17.5272ZM99.6746 15.2592C100.001 15.2592 100.281 15.2826 100.515 15.3292C100.748 15.3666 100.916 15.4039 101.019 15.4412L100.837 16.5612C100.734 16.5239 100.594 16.4866 100.417 16.4492C100.239 16.4026 100.025 16.3792 99.7726 16.3792C99.166 16.3792 98.7413 16.5472 98.4986 16.8832C98.256 17.2099 98.1346 17.6532 98.1346 18.2132V18.8432H100.935V19.9352H98.1346V26.1232H96.8326V18.1852C96.8326 17.2519 97.0613 16.5332 97.5186 16.0292C97.976 15.5159 98.6946 15.2592 99.6746 15.2592ZM103.595 26.1232H102.293V18.8432H103.595V26.1232ZM102.937 17.5272C102.703 17.5272 102.503 17.4526 102.335 17.3032C102.176 17.1446 102.097 16.9346 102.097 16.6732C102.097 16.4119 102.176 16.2066 102.335 16.0572C102.503 15.8986 102.703 15.8192 102.937 15.8192C103.17 15.8192 103.366 15.8986 103.525 16.0572C103.693 16.2066 103.777 16.4119 103.777 16.6732C103.777 16.9346 103.693 17.1446 103.525 17.3032C103.366 17.4526 103.17 17.5272 102.937 17.5272ZM105.423 22.4972C105.423 21.8532 105.516 21.2932 105.703 20.8172C105.889 20.3319 106.137 19.9306 106.445 19.6132C106.753 19.2959 107.107 19.0579 107.509 18.8992C107.91 18.7406 108.321 18.6612 108.741 18.6612C109.721 18.6612 110.472 18.9692 110.995 19.5852C111.517 20.1919 111.779 21.1206 111.779 22.3712C111.779 22.4272 111.779 22.5019 111.779 22.5952C111.779 22.6792 111.774 22.7586 111.765 22.8332H106.781C106.837 23.5892 107.056 24.1632 107.439 24.5552C107.821 24.9472 108.419 25.1432 109.231 25.1432C109.688 25.1432 110.071 25.1059 110.379 25.0312C110.696 24.9472 110.934 24.8679 111.093 24.7932L111.275 25.8852C111.116 25.9692 110.836 26.0579 110.435 26.1512C110.043 26.2446 109.595 26.2912 109.091 26.2912C108.456 26.2912 107.905 26.1979 107.439 26.0112C106.981 25.8152 106.603 25.5492 106.305 25.2132C106.006 24.8772 105.782 24.4806 105.633 24.0232C105.493 23.5566 105.423 23.0479 105.423 22.4972ZM110.421 21.7832C110.43 21.1952 110.281 20.7146 109.973 20.3412C109.674 19.9586 109.259 19.7672 108.727 19.7672C108.428 19.7672 108.162 19.8279 107.929 19.9492C107.705 20.0612 107.513 20.2106 107.355 20.3972C107.196 20.5839 107.07 20.7986 106.977 21.0412C106.893 21.2839 106.837 21.5312 106.809 21.7832H110.421ZM118.353 20.3832C118.194 20.2526 117.966 20.1266 117.667 20.0052C117.368 19.8839 117.042 19.8232 116.687 19.8232C116.314 19.8232 115.992 19.8932 115.721 20.0332C115.46 20.1639 115.245 20.3506 115.077 20.5932C114.909 20.8266 114.788 21.1066 114.713 21.4332C114.638 21.7599 114.601 22.1099 114.601 22.4832C114.601 23.3326 114.811 23.9906 115.231 24.4572C115.651 24.9146 116.211 25.1432 116.911 25.1432C117.266 25.1432 117.56 25.1292 117.793 25.1012C118.036 25.0639 118.222 25.0266 118.353 24.9892V20.3832ZM118.353 15.4832L119.655 15.2592V25.9132C119.356 25.9972 118.974 26.0812 118.507 26.1652C118.04 26.2492 117.504 26.2912 116.897 26.2912C116.337 26.2912 115.833 26.2026 115.385 26.0252C114.937 25.8479 114.554 25.5959 114.237 25.2692C113.92 24.9426 113.672 24.5459 113.495 24.0792C113.327 23.6032 113.243 23.0712 113.243 22.4832C113.243 21.9232 113.313 21.4099 113.453 20.9432C113.602 20.4766 113.817 20.0752 114.097 19.7392C114.377 19.4032 114.718 19.1419 115.119 18.9552C115.53 18.7686 115.996 18.6752 116.519 18.6752C116.939 18.6752 117.308 18.7312 117.625 18.8432C117.952 18.9552 118.194 19.0626 118.353 19.1652V15.4832Z" fill="white"/>
<path d="M67.7216 34.1132C68.7549 34.1132 69.5482 34.2966 70.1016 34.6632C70.6549 35.0232 70.9316 35.6166 70.9316 36.4432C70.9316 37.2766 70.6516 37.8799 70.0916 38.2532C69.5316 38.6199 68.7316 38.8032 67.6916 38.8032H67.2016V41.1232H65.6416V34.2932C65.9816 34.2266 66.3416 34.1799 66.7216 34.1532C67.1016 34.1266 67.4349 34.1132 67.7216 34.1132ZM67.8216 35.4432C67.7082 35.4432 67.5949 35.4466 67.4816 35.4532C67.3749 35.4599 67.2816 35.4666 67.2016 35.4732V37.4732H67.6916C68.2316 37.4732 68.6382 37.3999 68.9116 37.2532C69.1849 37.1066 69.3216 36.8332 69.3216 36.4332C69.3216 36.2399 69.2849 36.0799 69.2116 35.9532C69.1449 35.8266 69.0449 35.7266 68.9116 35.6532C68.7849 35.5732 68.6282 35.5199 68.4416 35.4932C68.2549 35.4599 68.0482 35.4432 67.8216 35.4432ZM76.3335 41.1232C76.2602 40.8832 76.1768 40.6366 76.0835 40.3832C75.9968 40.1299 75.9102 39.8766 75.8235 39.6232H73.1235C73.0368 39.8766 72.9468 40.1299 72.8535 40.3832C72.7668 40.6366 72.6868 40.8832 72.6135 41.1232H70.9935C71.2535 40.3766 71.5002 39.6866 71.7335 39.0532C71.9668 38.4199 72.1935 37.8232 72.4135 37.2632C72.6402 36.7032 72.8602 36.1732 73.0735 35.6732C73.2935 35.1666 73.5202 34.6732 73.7535 34.1932H75.2435C75.4702 34.6732 75.6935 35.1666 75.9135 35.6732C76.1335 36.1732 76.3535 36.7032 76.5735 37.2632C76.8002 37.8232 77.0302 38.4199 77.2635 39.0532C77.4968 39.6866 77.7435 40.3766 78.0035 41.1232H76.3335ZM74.4635 35.7632C74.4302 35.8632 74.3802 35.9999 74.3135 36.1732C74.2468 36.3466 74.1702 36.5466 74.0835 36.7732C73.9968 36.9999 73.9002 37.2499 73.7935 37.5232C73.6935 37.7966 73.5902 38.0832 73.4835 38.3832H75.4535C75.3468 38.0832 75.2435 37.7966 75.1435 37.5232C75.0435 37.2499 74.9468 36.9999 74.8535 36.7732C74.7668 36.5466 74.6902 36.3466 74.6235 36.1732C74.5568 35.9999 74.5035 35.8632 74.4635 35.7632ZM81.2305 34.1132C82.2705 34.1132 83.0672 34.2999 83.6205 34.6732C84.1739 35.0399 84.4505 35.6132 84.4505 36.3932C84.4505 36.8799 84.3372 37.2766 84.1105 37.5832C83.8905 37.8832 83.5705 38.1199 83.1505 38.2932C83.2905 38.4666 83.4372 38.6666 83.5905 38.8932C83.7439 39.1132 83.8939 39.3466 84.0405 39.5932C84.1939 39.8332 84.3405 40.0866 84.4805 40.3532C84.6205 40.6132 84.7505 40.8699 84.8705 41.1232H83.1205C82.9939 40.8966 82.8639 40.6666 82.7305 40.4332C82.6039 40.1999 82.4705 39.9732 82.3305 39.7532C82.1972 39.5332 82.0639 39.3266 81.9305 39.1332C81.7972 38.9332 81.6639 38.7532 81.5305 38.5932H80.7605V41.1232H79.2005V34.2932C79.5405 34.2266 79.8905 34.1799 80.2505 34.1532C80.6172 34.1266 80.9439 34.1132 81.2305 34.1132ZM81.3205 35.4432C81.2072 35.4432 81.1039 35.4466 81.0105 35.4532C80.9239 35.4599 80.8405 35.4666 80.7605 35.4732V37.3532H81.2005C81.7872 37.3532 82.2072 37.2799 82.4605 37.1332C82.7139 36.9866 82.8405 36.7366 82.8405 36.3832C82.8405 36.0432 82.7105 35.8032 82.4505 35.6632C82.1972 35.5166 81.8205 35.4432 81.3205 35.4432ZM91.2128 34.1932V35.5232H89.1228V41.1232H87.5628V35.5232H85.4728V34.1932H91.2128ZM97.1654 41.1232C96.7187 40.3299 96.2354 39.5466 95.7154 38.7732C95.1954 37.9999 94.642 37.2699 94.0554 36.5832V41.1232H92.5154V34.1932H93.7854C94.0054 34.4132 94.2487 34.6832 94.5154 35.0032C94.782 35.3232 95.052 35.6666 95.3254 36.0332C95.6054 36.3932 95.882 36.7699 96.1554 37.1632C96.4287 37.5499 96.6854 37.9232 96.9254 38.2832V34.1932H98.4754V41.1232H97.1654ZM100.374 41.1232V34.1932H105.054V35.5032H101.934V36.8632H104.704V38.1432H101.934V39.8132H105.284V41.1232H100.374ZM108.768 34.1132C109.808 34.1132 110.605 34.2999 111.158 34.6732C111.712 35.0399 111.988 35.6132 111.988 36.3932C111.988 36.8799 111.875 37.2766 111.648 37.5832C111.428 37.8832 111.108 38.1199 110.688 38.2932C110.828 38.4666 110.975 38.6666 111.128 38.8932C111.282 39.1132 111.432 39.3466 111.578 39.5932C111.732 39.8332 111.878 40.0866 112.018 40.3532C112.158 40.6132 112.288 40.8699 112.408 41.1232H110.658C110.532 40.8966 110.402 40.6666 110.268 40.4332C110.142 40.1999 110.008 39.9732 109.868 39.7532C109.735 39.5332 109.602 39.3266 109.468 39.1332C109.335 38.9332 109.202 38.7532 109.068 38.5932H108.298V41.1232H106.738V34.2932C107.078 34.2266 107.428 34.1799 107.788 34.1532C108.155 34.1266 108.482 34.1132 108.768 34.1132ZM108.858 35.4432C108.745 35.4432 108.642 35.4466 108.548 35.4532C108.462 35.4599 108.378 35.4666 108.298 35.4732V37.3532H108.738C109.325 37.3532 109.745 37.2799 109.998 37.1332C110.252 36.9866 110.378 36.7366 110.378 36.3832C110.378 36.0432 110.248 35.8032 109.988 35.6632C109.735 35.5166 109.358 35.4432 108.858 35.4432Z" fill="#EC9548"/>
<rect x="0.829102" y="1.12323" width="171.671" height="56" rx="0.5" stroke="#C4C4C4"/>
<path d="M36.3512 23.0063C36.3512 22.5411 36.3512 22.0733 36.3512 21.6081C36.361 21.5328 36.3457 21.4563 36.3076 21.3905C36.2696 21.3248 36.2109 21.2734 36.1407 21.2443C35.6178 20.9684 35.2087 20.5171 34.9853 19.9696C34.762 19.4221 34.7386 18.8135 34.9193 18.2505C35.0816 17.6877 35.4331 17.1982 35.9145 16.8645C36.3958 16.5308 36.9776 16.3735 37.5616 16.419C38.1455 16.4645 38.6959 16.7101 39.1197 17.1143C39.5436 17.5185 39.815 18.0566 39.8882 18.6377C39.9778 19.1561 39.9002 19.6896 39.6666 20.161C39.433 20.6324 39.0556 21.0172 38.5888 21.2599C38.5277 21.2843 38.4761 21.3279 38.4419 21.3842C38.4077 21.4404 38.3927 21.5062 38.3991 21.5717C38.3991 22.5359 38.3991 23.5 38.3991 24.4642C38.3991 24.6539 38.4484 24.7241 38.6589 24.7682C40.0546 25.0383 41.3368 25.7216 42.3392 26.7295C43.3416 27.7375 44.0178 29.0235 44.2801 30.4206C45.0805 34.3344 42.2505 38.2845 38.3029 38.7835C36.5063 39.0443 34.6787 38.5961 33.2067 37.5335C33.0404 37.4165 32.9468 37.4139 32.8013 37.5647C32.0217 38.3677 31.2264 39.1577 30.4286 39.9451C30.3721 39.9949 30.3309 40.0596 30.3097 40.1318C30.2886 40.2041 30.2883 40.2808 30.3091 40.3532C30.3776 40.6816 30.3698 41.0213 30.2862 41.3463C30.2027 41.6712 30.0456 41.9726 29.8271 42.2272C29.6087 42.4818 29.3347 42.6828 29.0262 42.8148C28.7178 42.9468 28.3831 43.0061 28.0481 42.9883C27.6426 42.9666 27.251 42.8332 26.9165 42.603C26.582 42.3728 26.3177 42.0546 26.1526 41.6836C25.9875 41.3125 25.9282 40.9031 25.9811 40.5005C26.034 40.0979 26.1971 39.7178 26.4525 39.402C26.6941 39.0828 27.024 38.8414 27.4013 38.7074C27.7786 38.5735 28.1868 38.553 28.5757 38.6483C28.6848 38.6815 28.8013 38.6812 28.9102 38.6474C29.0191 38.6136 29.1153 38.5478 29.1864 38.4586C29.9175 37.705 30.6564 36.9626 31.4031 36.2315C31.5643 36.073 31.5929 35.9716 31.4551 35.7689C30.5169 34.4193 30.0792 32.7845 30.2178 31.1466C30.3563 29.5088 31.0623 27.9707 32.214 26.7979C32.4141 26.5926 32.3387 26.538 32.1568 26.3977C29.3414 24.4226 26.5339 22.4467 23.7341 20.4699C23.6746 20.4157 23.5993 20.3822 23.5192 20.3742C23.4392 20.3663 23.3587 20.3843 23.2897 20.4257C22.8192 20.6774 22.2843 20.7831 21.7534 20.7295C21.2224 20.6758 20.7196 20.465 20.3089 20.1242C19.8786 19.8151 19.5492 19.3859 19.3619 18.8902C19.1747 18.3946 19.138 17.8547 19.2564 17.3383C19.4747 16.1897 20.2128 15.4932 21.3355 15.1112C22.8973 14.5732 25.296 16.0389 24.8438 18.3986C24.8226 18.4712 24.8267 18.5489 24.8555 18.6188C24.8844 18.6887 24.9361 18.7467 25.0023 18.7832C27.9476 20.9489 30.8825 23.1146 33.807 25.2802C33.866 25.3361 33.9417 25.371 34.0226 25.3795C34.1034 25.3879 34.1847 25.3695 34.254 25.327C34.8251 25.0358 35.4393 24.8384 36.0732 24.7423C36.2992 24.7085 36.3538 24.6149 36.333 24.3992C36.3382 23.9392 36.3512 23.4741 36.3512 23.0063ZM37.3076 35.509C38.0528 35.5095 38.7814 35.2889 39.4012 34.8751C40.0209 34.4613 40.504 33.8729 40.7892 33.1844C41.0743 32.4959 41.1488 31.7383 41.0032 31.0075C40.8576 30.2766 40.4983 29.6054 39.971 29.0788C39.4437 28.5523 38.772 28.194 38.041 28.0493C37.3099 27.9047 36.5524 27.9802 35.8643 28.2664C35.1762 28.5525 34.5885 29.0364 34.1756 29.6567C33.7626 30.277 33.543 31.006 33.5445 31.7512C33.5493 32.7472 33.9475 33.7011 34.6523 34.4049C35.3571 35.1088 36.3115 35.5056 37.3076 35.509Z" fill="#EC9548"/>
</svg>
