<svg width="173" height="58" viewBox="0 0 173 58" fill="none" xmlns="http://www.w3.org/2000/svg">
<path d="M71.6385 21.3492H72.9965V25.8852C72.8845 25.9226 72.7211 25.9646 72.5065 26.0112C72.3011 26.0579 72.0585 26.1046 71.7785 26.1512C71.5078 26.1979 71.2091 26.2352 70.8825 26.2632C70.5558 26.3006 70.2245 26.3192 69.8885 26.3192C69.2071 26.3192 68.5865 26.2072 68.0265 25.9832C67.4665 25.7592 66.9858 25.4326 66.5845 25.0032C66.1831 24.5739 65.8705 24.0466 65.6465 23.4212C65.4318 22.7959 65.3245 22.0772 65.3245 21.2652C65.3245 20.4532 65.4458 19.7346 65.6885 19.1092C65.9405 18.4746 66.2765 17.9426 66.6965 17.5132C67.1165 17.0839 67.6065 16.7572 68.1665 16.5332C68.7358 16.3092 69.3425 16.1972 69.9865 16.1972C70.4251 16.1972 70.8125 16.2252 71.1485 16.2812C71.4938 16.3372 71.7878 16.4026 72.0305 16.4772C72.2731 16.5519 72.4691 16.6266 72.6185 16.7012C72.7771 16.7759 72.8845 16.8319 72.9405 16.8692L72.5065 18.0032C72.2358 17.8259 71.8765 17.6812 71.4285 17.5692C70.9805 17.4479 70.5231 17.3872 70.0565 17.3872C69.5618 17.3872 69.1091 17.4759 68.6985 17.6532C68.2971 17.8306 67.9518 18.0872 67.6625 18.4232C67.3825 18.7592 67.1631 19.1699 67.0045 19.6552C66.8458 20.1312 66.7665 20.6679 66.7665 21.2652C66.7665 21.8439 66.8318 22.3712 66.9625 22.8472C67.1025 23.3232 67.3078 23.7339 67.5785 24.0792C67.8585 24.4152 68.1991 24.6766 68.6005 24.8632C69.0111 25.0499 69.4918 25.1432 70.0425 25.1432C70.4345 25.1432 70.7658 25.1246 71.0365 25.0872C71.3165 25.0406 71.5171 24.9986 71.6385 24.9612V21.3492ZM81.4647 22.4832C81.4647 23.0619 81.3807 23.5846 81.2127 24.0512C81.0447 24.5179 80.8067 24.9192 80.4987 25.2552C80.2 25.5912 79.8407 25.8526 79.4207 26.0392C79.0007 26.2166 78.5434 26.3052 78.0487 26.3052C77.554 26.3052 77.0967 26.2166 76.6767 26.0392C76.2567 25.8526 75.8927 25.5912 75.5847 25.2552C75.286 24.9192 75.0527 24.5179 74.8847 24.0512C74.7167 23.5846 74.6327 23.0619 74.6327 22.4832C74.6327 21.9139 74.7167 21.3959 74.8847 20.9292C75.0527 20.4532 75.286 20.0472 75.5847 19.7112C75.8927 19.3752 76.2567 19.1186 76.6767 18.9412C77.0967 18.7546 77.554 18.6612 78.0487 18.6612C78.5434 18.6612 79.0007 18.7546 79.4207 18.9412C79.8407 19.1186 80.2 19.3752 80.4987 19.7112C80.8067 20.0472 81.0447 20.4532 81.2127 20.9292C81.3807 21.3959 81.4647 21.9139 81.4647 22.4832ZM80.1067 22.4832C80.1067 21.6619 79.92 21.0132 79.5467 20.5372C79.1827 20.0519 78.6834 19.8092 78.0487 19.8092C77.414 19.8092 76.91 20.0519 76.5367 20.5372C76.1727 21.0132 75.9907 21.6619 75.9907 22.4832C75.9907 23.3046 76.1727 23.9579 76.5367 24.4432C76.91 24.9192 77.414 25.1572 78.0487 25.1572C78.6834 25.1572 79.1827 24.9192 79.5467 24.4432C79.92 23.9579 80.1067 23.3046 80.1067 22.4832ZM89.7225 22.4832C89.7225 23.0619 89.6385 23.5846 89.4705 24.0512C89.3025 24.5179 89.0645 24.9192 88.7565 25.2552C88.4578 25.5912 88.0985 25.8526 87.6785 26.0392C87.2585 26.2166 86.8012 26.3052 86.3065 26.3052C85.8118 26.3052 85.3545 26.2166 84.9345 26.0392C84.5145 25.8526 84.1505 25.5912 83.8425 25.2552C83.5438 24.9192 83.3105 24.5179 83.1425 24.0512C82.9745 23.5846 82.8905 23.0619 82.8905 22.4832C82.8905 21.9139 82.9745 21.3959 83.1425 20.9292C83.3105 20.4532 83.5438 20.0472 83.8425 19.7112C84.1505 19.3752 84.5145 19.1186 84.9345 18.9412C85.3545 18.7546 85.8118 18.6612 86.3065 18.6612C86.8012 18.6612 87.2585 18.7546 87.6785 18.9412C88.0985 19.1186 88.4578 19.3752 88.7565 19.7112C89.0645 20.0472 89.3025 20.4532 89.4705 20.9292C89.6385 21.3959 89.7225 21.9139 89.7225 22.4832ZM88.3645 22.4832C88.3645 21.6619 88.1778 21.0132 87.8045 20.5372C87.4405 20.0519 86.9412 19.8092 86.3065 19.8092C85.6718 19.8092 85.1678 20.0519 84.7945 20.5372C84.4305 21.0132 84.2485 21.6619 84.2485 22.4832C84.2485 23.3046 84.4305 23.9579 84.7945 24.4432C85.1678 24.9192 85.6718 25.1572 86.3065 25.1572C86.9412 25.1572 87.4405 24.9192 87.8045 24.4432C88.1778 23.9579 88.3645 23.3046 88.3645 22.4832ZM96.1183 25.3952C96.0063 25.4699 95.787 25.5679 95.4603 25.6892C95.143 25.8012 94.7697 25.8572 94.3403 25.8572C93.9017 25.8572 93.4863 25.7872 93.0943 25.6472C92.7117 25.5072 92.3757 25.2926 92.0863 25.0032C91.797 24.7046 91.5683 24.3359 91.4003 23.8972C91.2323 23.4586 91.1483 22.9359 91.1483 22.3292C91.1483 21.7972 91.2277 21.3119 91.3863 20.8732C91.545 20.4252 91.7737 20.0426 92.0723 19.7252C92.3803 19.3986 92.7537 19.1466 93.1923 18.9692C93.631 18.7826 94.1257 18.6892 94.6763 18.6892C95.283 18.6892 95.8103 18.7359 96.2583 18.8292C96.7157 18.9132 97.0983 18.9926 97.4063 19.0672V25.5632C97.4063 26.6832 97.117 27.4952 96.5383 27.9992C95.9597 28.5032 95.0823 28.7552 93.9063 28.7552C93.449 28.7552 93.015 28.7179 92.6043 28.6432C92.203 28.5686 91.853 28.4799 91.5543 28.3772L91.7923 27.2432C92.0537 27.3459 92.371 27.4346 92.7443 27.5092C93.127 27.5932 93.5237 27.6352 93.9343 27.6352C94.709 27.6352 95.2643 27.4812 95.6003 27.1732C95.9457 26.8652 96.1183 26.3752 96.1183 25.7032V25.3952ZM96.1043 19.9912C95.9737 19.9539 95.7963 19.9212 95.5723 19.8932C95.3577 19.8559 95.0637 19.8372 94.6903 19.8372C93.9903 19.8372 93.449 20.0659 93.0663 20.5232C92.693 20.9806 92.5063 21.5872 92.5063 22.3432C92.5063 22.7632 92.5577 23.1226 92.6603 23.4212C92.7723 23.7199 92.917 23.9672 93.0943 24.1632C93.281 24.3592 93.491 24.5039 93.7243 24.5972C93.967 24.6906 94.2143 24.7372 94.4663 24.7372C94.8117 24.7372 95.129 24.6906 95.4183 24.5972C95.7077 24.4946 95.9363 24.3779 96.1043 24.2472V19.9912ZM101.832 26.2632C101.029 26.2446 100.46 26.0719 100.124 25.7452C99.7881 25.4186 99.6201 24.9099 99.6201 24.2192V15.4832L100.922 15.2592V24.0092C100.922 24.2239 100.941 24.4012 100.978 24.5412C101.015 24.6812 101.076 24.7932 101.16 24.8772C101.244 24.9612 101.356 25.0266 101.496 25.0732C101.636 25.1106 101.809 25.1432 102.014 25.1712L101.832 26.2632ZM103.07 22.4972C103.07 21.8532 103.164 21.2932 103.35 20.8172C103.537 20.3319 103.784 19.9306 104.092 19.6132C104.4 19.2959 104.755 19.0579 105.156 18.8992C105.558 18.7406 105.968 18.6612 106.388 18.6612C107.368 18.6612 108.12 18.9692 108.642 19.5852C109.165 20.1919 109.426 21.1206 109.426 22.3712C109.426 22.4272 109.426 22.5019 109.426 22.5952C109.426 22.6792 109.422 22.7586 109.412 22.8332H104.428C104.484 23.5892 104.704 24.1632 105.086 24.5552C105.469 24.9472 106.066 25.1432 106.878 25.1432C107.336 25.1432 107.718 25.1059 108.026 25.0312C108.344 24.9472 108.582 24.8679 108.74 24.7932L108.922 25.8852C108.764 25.9692 108.484 26.0579 108.082 26.1512C107.69 26.2446 107.242 26.2912 106.738 26.2912C106.104 26.2912 105.553 26.1979 105.086 26.0112C104.629 25.8152 104.251 25.5492 103.952 25.2132C103.654 24.8772 103.43 24.4806 103.28 24.0232C103.14 23.5566 103.07 23.0479 103.07 22.4972ZM108.068 21.7832C108.078 21.1952 107.928 20.7146 107.62 20.3412C107.322 19.9586 106.906 19.7672 106.374 19.7672C106.076 19.7672 105.81 19.8279 105.576 19.9492C105.352 20.0612 105.161 20.2106 105.002 20.3972C104.844 20.5839 104.718 20.7986 104.624 21.0412C104.54 21.2839 104.484 21.5312 104.456 21.7832H108.068ZM119.367 22.0632C119.516 22.2499 119.703 22.4972 119.927 22.8052C120.16 23.1039 120.398 23.4399 120.641 23.8132C120.883 24.1772 121.121 24.5599 121.355 24.9612C121.597 25.3626 121.803 25.7499 121.971 26.1232H120.487C120.3 25.7686 120.095 25.4092 119.871 25.0452C119.656 24.6812 119.437 24.3359 119.213 24.0092C118.989 23.6732 118.765 23.3606 118.541 23.0712C118.326 22.7819 118.13 22.5299 117.953 22.3152C117.831 22.3246 117.705 22.3292 117.575 22.3292C117.453 22.3292 117.327 22.3292 117.197 22.3292H115.979V26.1232H114.621V16.5612C115.003 16.4679 115.428 16.4072 115.895 16.3792C116.371 16.3419 116.805 16.3232 117.197 16.3232C118.559 16.3232 119.595 16.5799 120.305 17.0932C121.023 17.6066 121.383 18.3719 121.383 19.3892C121.383 20.0332 121.21 20.5839 120.865 21.0412C120.529 21.4986 120.029 21.8392 119.367 22.0632ZM117.309 17.5132C116.73 17.5132 116.287 17.5272 115.979 17.5552V21.2092H116.945C117.411 21.2092 117.831 21.1859 118.205 21.1392C118.578 21.0926 118.891 21.0039 119.143 20.8732C119.404 20.7426 119.605 20.5606 119.745 20.3272C119.885 20.0846 119.955 19.7672 119.955 19.3752C119.955 19.0112 119.885 18.7079 119.745 18.4652C119.605 18.2226 119.413 18.0312 119.171 17.8912C118.937 17.7512 118.657 17.6532 118.331 17.5972C118.013 17.5412 117.673 17.5132 117.309 17.5132ZM125.805 25.1852C126.113 25.1852 126.384 25.1806 126.617 25.1712C126.86 25.1526 127.061 25.1246 127.219 25.0872V22.9172C127.126 22.8706 126.972 22.8332 126.757 22.8052C126.552 22.7679 126.3 22.7492 126.001 22.7492C125.805 22.7492 125.595 22.7632 125.371 22.7912C125.157 22.8192 124.956 22.8799 124.769 22.9732C124.592 23.0572 124.443 23.1786 124.321 23.3372C124.2 23.4866 124.139 23.6872 124.139 23.9392C124.139 24.4059 124.289 24.7326 124.587 24.9192C124.886 25.0966 125.292 25.1852 125.805 25.1852ZM125.693 18.6612C126.216 18.6612 126.655 18.7312 127.009 18.8712C127.373 19.0019 127.663 19.1932 127.877 19.4452C128.101 19.6879 128.26 19.9819 128.353 20.3272C128.447 20.6632 128.493 21.0366 128.493 21.4472V25.9972C128.381 26.0159 128.223 26.0439 128.017 26.0812C127.821 26.1092 127.597 26.1372 127.345 26.1652C127.093 26.1932 126.818 26.2166 126.519 26.2352C126.23 26.2632 125.941 26.2772 125.651 26.2772C125.241 26.2772 124.863 26.2352 124.517 26.1512C124.172 26.0672 123.873 25.9366 123.621 25.7592C123.369 25.5726 123.173 25.3299 123.033 25.0312C122.893 24.7326 122.823 24.3732 122.823 23.9532C122.823 23.5519 122.903 23.2066 123.061 22.9172C123.229 22.6279 123.453 22.3946 123.733 22.2172C124.013 22.0399 124.34 21.9092 124.713 21.8252C125.087 21.7412 125.479 21.6992 125.889 21.6992C126.02 21.6992 126.155 21.7086 126.295 21.7272C126.435 21.7366 126.566 21.7552 126.687 21.7832C126.818 21.8019 126.93 21.8206 127.023 21.8392C127.117 21.8579 127.182 21.8719 127.219 21.8812V21.5172C127.219 21.3026 127.196 21.0926 127.149 20.8872C127.103 20.6726 127.019 20.4859 126.897 20.3272C126.776 20.1592 126.608 20.0286 126.393 19.9352C126.188 19.8326 125.917 19.7812 125.581 19.7812C125.152 19.7812 124.774 19.8139 124.447 19.8792C124.13 19.9352 123.892 19.9959 123.733 20.0612L123.579 18.9832C123.747 18.9086 124.027 18.8386 124.419 18.7732C124.811 18.6986 125.236 18.6612 125.693 18.6612ZM131.874 18.8432H134.632V19.9352H131.874V23.2952C131.874 23.6592 131.902 23.9626 131.958 24.2052C132.014 24.4386 132.098 24.6252 132.21 24.7652C132.322 24.8959 132.462 24.9892 132.63 25.0452C132.798 25.1012 132.994 25.1292 133.218 25.1292C133.61 25.1292 133.923 25.0872 134.156 25.0032C134.399 24.9099 134.567 24.8446 134.66 24.8072L134.912 25.8852C134.781 25.9506 134.553 26.0299 134.226 26.1232C133.899 26.2259 133.526 26.2772 133.106 26.2772C132.611 26.2772 132.201 26.2166 131.874 26.0952C131.557 25.9646 131.3 25.7732 131.104 25.5212C130.908 25.2692 130.768 24.9612 130.684 24.5972C130.609 24.2239 130.572 23.7946 130.572 23.3092V16.8132L131.874 16.5892V18.8432ZM137.591 26.1232H136.289V18.8432H137.591V26.1232ZM136.933 17.5272C136.699 17.5272 136.499 17.4526 136.331 17.3032C136.172 17.1446 136.093 16.9346 136.093 16.6732C136.093 16.4119 136.172 16.2066 136.331 16.0572C136.499 15.8986 136.699 15.8192 136.933 15.8192C137.166 15.8192 137.362 15.8986 137.521 16.0572C137.689 16.2066 137.773 16.4119 137.773 16.6732C137.773 16.9346 137.689 17.1446 137.521 17.3032C137.362 17.4526 137.166 17.5272 136.933 17.5272ZM139.83 19.0532C140.128 18.9786 140.525 18.8992 141.02 18.8152C141.514 18.7312 142.084 18.6892 142.728 18.6892C143.306 18.6892 143.787 18.7732 144.17 18.9412C144.552 19.0999 144.856 19.3286 145.08 19.6272C145.313 19.9166 145.476 20.2666 145.57 20.6772C145.663 21.0879 145.71 21.5406 145.71 22.0352V26.1232H144.408V22.3152C144.408 21.8672 144.375 21.4846 144.31 21.1672C144.254 20.8499 144.156 20.5932 144.016 20.3972C143.876 20.2012 143.689 20.0612 143.456 19.9772C143.222 19.8839 142.933 19.8372 142.588 19.8372C142.448 19.8372 142.303 19.8419 142.154 19.8512C142.004 19.8606 141.86 19.8746 141.72 19.8932C141.589 19.9026 141.468 19.9166 141.356 19.9352C141.253 19.9539 141.178 19.9679 141.132 19.9772V26.1232H139.83V19.0532ZM152.433 25.3952C152.321 25.4699 152.101 25.5679 151.775 25.6892C151.457 25.8012 151.084 25.8572 150.655 25.8572C150.216 25.8572 149.801 25.7872 149.409 25.6472C149.026 25.5072 148.69 25.2926 148.401 25.0032C148.111 24.7046 147.883 24.3359 147.715 23.8972C147.547 23.4586 147.463 22.9359 147.463 22.3292C147.463 21.7972 147.542 21.3119 147.701 20.8732C147.859 20.4252 148.088 20.0426 148.387 19.7252C148.695 19.3986 149.068 19.1466 149.507 18.9692C149.945 18.7826 150.44 18.6892 150.991 18.6892C151.597 18.6892 152.125 18.7359 152.573 18.8292C153.03 18.9132 153.413 18.9926 153.721 19.0672V25.5632C153.721 26.6832 153.431 27.4952 152.853 27.9992C152.274 28.5032 151.397 28.7552 150.221 28.7552C149.763 28.7552 149.329 28.7179 148.919 28.6432C148.517 28.5686 148.167 28.4799 147.869 28.3772L148.107 27.2432C148.368 27.3459 148.685 27.4346 149.059 27.5092C149.441 27.5932 149.838 27.6352 150.249 27.6352C151.023 27.6352 151.579 27.4812 151.915 27.1732C152.26 26.8652 152.433 26.3752 152.433 25.7032V25.3952ZM152.419 19.9912C152.288 19.9539 152.111 19.9212 151.887 19.8932C151.672 19.8559 151.378 19.8372 151.005 19.8372C150.305 19.8372 149.763 20.0659 149.381 20.5232C149.007 20.9806 148.821 21.5872 148.821 22.3432C148.821 22.7632 148.872 23.1226 148.975 23.4212C149.087 23.7199 149.231 23.9672 149.409 24.1632C149.595 24.3592 149.805 24.5039 150.039 24.5972C150.281 24.6906 150.529 24.7372 150.781 24.7372C151.126 24.7372 151.443 24.6906 151.733 24.5972C152.022 24.4946 152.251 24.3779 152.419 24.2472V19.9912Z" fill="white"/>
<path d="M64.9125 38.7232C65.0391 38.4299 65.2125 38.0899 65.4325 37.7032C65.6525 37.3099 65.8991 36.9066 66.1725 36.4932C66.4525 36.0799 66.7491 35.6732 67.0625 35.2732C67.3825 34.8732 67.7025 34.5132 68.0225 34.1932H68.9125V38.5932H69.7325V39.3532H68.9125V41.1232H68.0125V39.3532H64.9125V38.7232ZM68.0125 35.2932C67.8125 35.5066 67.6091 35.7466 67.4025 36.0132C67.2025 36.2732 67.0058 36.5466 66.8125 36.8332C66.6191 37.1199 66.4358 37.4132 66.2625 37.7132C66.0958 38.0132 65.9458 38.3066 65.8125 38.5932H68.0125V35.2932ZM71.937 39.9832C71.9436 40.0366 71.947 40.0899 71.947 40.1432C71.947 40.1899 71.947 40.2399 71.947 40.2932C71.947 40.7132 71.8836 41.1266 71.757 41.5332C71.637 41.9466 71.4703 42.3399 71.257 42.7132L70.537 42.4832C70.7036 42.1432 70.8136 41.7966 70.867 41.4432C70.9203 41.0966 70.947 40.7699 70.947 40.4632C70.947 40.3766 70.9436 40.2932 70.937 40.2132C70.937 40.1332 70.9336 40.0566 70.927 39.9832H71.937ZM77.6279 36.9632C77.6279 38.3366 77.2846 39.3766 76.5979 40.0832C75.9179 40.7832 74.9046 41.1366 73.5579 41.1432L73.5279 40.3632C73.9479 40.3632 74.3246 40.3232 74.6579 40.2432C74.9979 40.1632 75.2946 40.0366 75.5479 39.8632C75.8013 39.6832 76.0113 39.4532 76.1779 39.1732C76.3513 38.8932 76.4779 38.5499 76.5579 38.1432C76.3846 38.2232 76.1879 38.2899 75.9679 38.3432C75.7479 38.3899 75.5213 38.4132 75.2879 38.4132C74.8946 38.4132 74.5613 38.3566 74.2879 38.2432C74.0146 38.1232 73.7913 37.9666 73.6179 37.7732C73.4446 37.5732 73.3179 37.3466 73.2379 37.0932C73.1646 36.8332 73.1279 36.5632 73.1279 36.2832C73.1279 36.0366 73.1713 35.7799 73.2579 35.5132C73.3446 35.2466 73.4746 35.0032 73.6479 34.7832C73.8279 34.5632 74.0546 34.3832 74.3279 34.2432C74.6013 34.1032 74.9246 34.0332 75.2979 34.0332C75.6779 34.0332 76.0113 34.0999 76.2979 34.2332C76.5913 34.3666 76.8346 34.5599 77.0279 34.8132C77.2279 35.0666 77.3779 35.3766 77.4779 35.7432C77.5779 36.1032 77.6279 36.5099 77.6279 36.9632ZM75.3879 37.6532C75.6213 37.6532 75.8413 37.6332 76.0479 37.5932C76.2546 37.5466 76.4546 37.4799 76.6479 37.3932C76.6546 37.3199 76.6579 37.2499 76.6579 37.1832C76.6579 37.1099 76.6579 37.0366 76.6579 36.9632C76.6579 36.6766 76.6379 36.4032 76.5979 36.1432C76.5579 35.8766 76.4846 35.6466 76.3779 35.4532C76.2779 35.2532 76.1413 35.0966 75.9679 34.9832C75.7946 34.8632 75.5746 34.8032 75.3079 34.8032C75.0879 34.8032 74.9013 34.8499 74.7479 34.9432C74.5946 35.0366 74.4679 35.1566 74.3679 35.3032C74.2679 35.4432 74.1946 35.5999 74.1479 35.7732C74.1079 35.9399 74.0879 36.1032 74.0879 36.2632C74.0879 36.7166 74.1946 37.0632 74.4079 37.3032C74.6279 37.5366 74.9546 37.6532 75.3879 37.6532Z" fill="#EC9548"/>
<rect x="0.5" y="1.12323" width="171.671" height="56" rx="0.5" stroke="#C4C4C4"/>
<path d="M91.4737 32.8467L92.6273 36.3971H96.3605L93.3403 38.5914L94.4939 42.1419L91.4737 39.9476L88.4535 42.1419L89.6071 38.5914L86.5869 36.3971H90.3201L91.4737 32.8467Z" fill="#EC9548"/>
<path d="M105.75 32.8467L106.904 36.3971H110.637L107.617 38.5914L108.771 42.1419L105.75 39.9476L102.73 42.1419L103.884 38.5914L100.864 36.3971H104.597L105.75 32.8467Z" fill="#EC9548"/>
<path d="M120.027 32.8467L121.18 36.3971H124.913L121.893 38.5914L123.047 42.1419L120.027 39.9476L117.006 42.1419L118.16 38.5914L115.14 36.3971H118.873L120.027 32.8467Z" fill="#EC9548"/>
<path d="M134.303 32.8467L135.457 36.3971H139.19L136.17 38.5914L137.323 42.1419L134.303 39.9476L131.283 42.1419L132.437 38.5914L129.417 36.3971H133.15L134.303 32.8467Z" fill="#EC9548"/>
<path d="M148.58 32.8467L149.733 36.3971H153.467L150.446 38.5914L151.6 42.1419L148.58 39.9476L145.56 42.1419L146.713 38.5914L143.693 36.3971H147.426L148.58 32.8467Z" fill="#EC9548"/>
<g clip-path="url(#clip0_9_588)">
<path d="M33.3926 15C34.2183 15.3014 35.0981 15.3736 35.9447 15.6165C37.3549 16.0225 38.6112 16.6601 39.7864 17.5057C40.0042 17.6626 40.2281 17.8171 40.4386 17.9889C41.1203 18.5444 41.1449 18.5132 40.5284 19.1384C39.5021 20.1783 38.4734 21.2157 37.4521 22.2606C37.2638 22.4524 37.1346 22.562 36.8528 22.3478C32.5005 19.0363 26.247 20.9891 24.3717 26.1275C24.3582 26.1649 24.3225 26.1935 24.2979 26.2247C24.1822 26.1923 24.0432 26.191 23.9558 26.1225C22.5296 24.9992 21.1096 23.8671 19.6884 22.7363C21.053 19.913 23.1609 17.842 25.9295 16.4496C27.0875 15.8668 28.2946 15.472 29.5928 15.2902C29.85 15.2541 30.3779 15.4982 30.5649 15.0012H33.3926V15Z" fill="#FD2C26"/>
<path d="M24.2843 31.6944C25.302 34.3396 27.0936 36.1853 29.8143 36.9624C32.2433 37.6561 34.5764 37.2712 36.7741 36.0234C36.875 36.1242 36.9685 36.2351 37.0792 36.3235C38.3922 37.3821 39.7076 38.4369 41.023 39.4942C39.2068 41.2801 37.0066 42.2814 34.5481 42.7709C34.2035 42.8394 33.827 42.7746 33.5157 43H30.3188C29.7171 42.6812 29.0329 42.7086 28.3967 42.518C24.4504 41.3349 21.4935 38.9513 19.6588 35.1939C21.2007 34.0282 22.7425 32.8613 24.2843 31.6956V31.6944Z" fill="#01AB47"/>
<path d="M41.0231 39.4942C39.7077 38.4381 38.3923 37.3821 37.0793 36.3235C36.9686 36.2351 36.875 36.1242 36.7741 36.0233C37.9653 35.0918 38.8869 33.9734 39.3287 32.4777C39.4776 31.9709 39.4074 31.8301 38.8685 31.8364C36.7791 31.8625 34.6896 31.8314 32.6002 31.8588C32.1363 31.865 32.017 31.7355 32.0268 31.2722C32.0576 29.8425 32.0563 28.4115 32.0268 26.9806C32.0182 26.5335 32.1535 26.4364 32.5756 26.4376C36.5083 26.4538 40.4411 26.46 44.3738 26.4314C44.8722 26.4276 44.9952 26.6381 45.0592 27.0441C45.4296 29.3792 45.197 31.6657 44.5116 33.9137C43.8853 35.9661 42.8061 37.7457 41.3086 39.2663C41.2237 39.3535 41.1179 39.4195 41.0219 39.4955L41.0231 39.4942Z" fill="#3090E8"/>
<path d="M19.6589 35.1939C18.5477 33.0332 18.149 30.723 18.2499 28.3082C18.3324 26.3455 18.768 24.4761 19.6872 22.7363C21.1084 23.8671 22.5284 24.9992 23.9546 26.1225C24.042 26.191 24.181 26.1923 24.2967 26.2247C23.7553 28.0467 23.7331 29.8699 24.2832 31.6944C22.7413 32.8601 21.1995 34.027 19.6576 35.1927L19.6589 35.1939Z" fill="#FEBA01"/>
</g>
<defs>
<clipPath id="clip0_9_588">
<rect width="27" height="28" fill="white" transform="translate(18.2351 15)"/>
</clipPath>
</defs>
</svg>
