<svg width="176" height="164" fill="none" xmlns="http://www.w3.org/2000/svg"><path d="M48.276 96.275c-4.808-2.403-8.442-2.943-11.933-1.71-2.201.587-4.257 1.09-6.408 1.257-2.078.124-2.224.209-4.203 1.352-2.932 1.692-4.519 3.683-6.359 7.775-3.98 8.846-2.626 23.211 3.025 33.337 1.027 1.948 2.062 3.402 2.705 4.008.2.178.528.575.74.942 1.593 1.914 5.73 4.509 8.389 5.222 2.806.627 4.086.475 10.626-1.738a60.841 60.841 0 014.088-1.383c2.044-.691 4.66-2.592 6.35-4.741.46-.559.626-.948.5-1.168-.17-.293-.212-.366.135-.273.42.05 1.026-.593 2.12-2.592 3.07-5.682 4.026-15.029 2.213-23.755-1.674-8.317-5.107-13.078-11.988-16.533zM28.29 134.103c-.03.115-.146.084-.23-.062-.085-.147-.097-.336-.023-.378.146-.085.262-.054.304.019.085.147.096.336-.05.421zm-.722-1.929c-.146.085-.262.054-.273-.135-.012-.189.397-.327.524-.107.042.073-.104.158-.25.242zm2.318-.556c-.147.085-.19.011-.274-.135-.011-.189.02-.305.093-.347.073-.042.116.031.2.178.085.146.054.262-.02.304zm17.244-24.126c1.862 3.225 2.845 6.957 3.374 12.613.52 6.149-.036 10.771-1.811 15.313-.727 1.788-2.319 4.955-2.539 5.082-.073.042-.282.358-.564.716-.208.316-.845 1.075-1.304 1.633-.49.674-.962 1.044-1.108 1.128-.22.127-3.06-1.067-4.25-1.944-5.643-3.68-9.796-12.228-10.837-21.986-.297-3.053-.325-4.795.09-7.968.71-5.881 3.152-11.298 6.061-13.369l.984-.665 1.399.56c1.83.8 4.103 2.029 5.335 2.979.559.459 1.117.919 1.275 1.023 1.664 1.189 2.36 2.057 3.895 4.885zm10.408 10.409c.011.189-.136.273-.282.358-.074.042-.074.042-.158-.104-.011-.189.093-.347.166-.389.147-.085.189-.012.274.135zm-.088-.829c-.147.085-.147.085-.274-.135-.138-.409-.045-.756.167-.389.127.219.138.408.107.524zm-.585-4.06c-.082.536-.293.169-.296-.513-.054-.262-.096-.336.104-.158.127.22.18.482.192.671zm-.833-3.135c.52 1.068.545 2.129.272 1.993-.116-.031-.127-.22-.139-.408.074-.043-.022-.378-.192-.671-.169-.294-.234-.745-.226-1.238.009-.494.009-.494.285.324zm-.48-1.677c.181.482.065.451-.389-.167-.327-.397-.508-.879-.55-.952.104-.158.05-.421-.045-.756-.17-.293.03-.116.327.397.296.513.604 1.215.657 1.478zm2.71.292c-.147.085-.274-.135-.327-.398-.054-.262-.065-.451.008-.493.147-.085.231.062.285.324.054.262.107.525.034.567zm32.03-36.474c-4.808-2.403-8.442-2.944-11.933-1.71-2.202.587-4.257 1.09-6.408 1.256-2.078.125-2.225.21-4.203 1.352-2.932 1.693-4.519 3.684-6.359 7.776-3.98 8.846-2.626 23.211 3.025 33.336 1.027 1.948 2.062 3.403 2.705 4.009.2.178.528.575.74.941 1.593 1.914 5.73 4.51 8.389 5.222 2.805.628 4.085.475 10.626-1.737a60.86 60.86 0 014.088-1.383c2.044-.691 4.66-2.593 6.35-4.742.46-.558.626-.947.5-1.167-.17-.293-.212-.367.135-.274.42.051 1.026-.592 2.119-2.591 3.071-5.683 4.027-15.03 2.214-23.755-1.674-8.317-5.107-13.078-11.988-16.533zm-19.987 37.827c-.03.116-.146.085-.23-.062-.085-.146-.097-.335-.023-.377.146-.085.262-.054.304.019.085.147.096.336-.05.42zm-.722-1.928c-.147.085-.262.054-.273-.135-.012-.189.397-.327.524-.108.042.074-.104.158-.251.243zm2.318-.556c-.147.084-.19.011-.274-.135-.011-.189.02-.305.093-.347.073-.043.116.031.2.177.085.147.054.262-.02.305zm17.244-24.127c1.862 3.225 2.845 6.958 3.374 12.614.52 6.149-.036 10.77-1.811 15.313-.727 1.788-2.32 4.955-2.539 5.082-.073.042-.282.358-.564.716-.208.316-.845 1.074-1.305 1.633-.49.674-.96 1.043-1.107 1.128-.22.127-3.06-1.068-4.25-1.944-5.643-3.681-9.796-12.228-10.837-21.986-.297-3.053-.325-4.796.09-7.968.71-5.882 3.152-11.299 6.061-13.369l.984-.666 1.399.56c1.83.801 4.103 2.03 5.335 2.98.559.459 1.117.918 1.275 1.023 1.664 1.189 2.36 2.057 3.895 4.884zm10.408 10.41c.01.188-.136.273-.282.358-.074.042-.074.042-.158-.105-.011-.189.093-.346.166-.389.147-.084.189-.011.274.136zm-.088-.83c-.147.085-.147.085-.274-.135-.138-.408-.045-.755.167-.389.127.22.138.409.107.525zm-.585-4.06c-.082.536-.293.17-.296-.512-.054-.263-.096-.336.104-.158.127.22.18.482.192.67zm-.833-3.134c.52 1.068.545 2.128.271 1.993-.115-.031-.126-.22-.138-.409.073-.042-.023-.378-.192-.67-.169-.294-.234-.745-.226-1.239.009-.493.009-.493.285.325zm-.48-1.678c.181.482.065.451-.389-.166-.327-.397-.508-.88-.55-.953.104-.158.05-.42-.045-.755-.17-.294.03-.116.327.397.296.513.604 1.215.657 1.477zm2.71.293c-.147.084-.274-.136-.327-.398-.054-.262-.065-.451.008-.493.147-.085.231.062.285.324.054.262.107.524.034.567zm16.291 15.123c.042.073.262-.054.482-.18.22-.127.251-.243.208-.316-.273-.136-.775.35-.69.496zm3.224-13.881a.363.363 0 00-.124.462c.127.22.242.25.242.25.073-.041.178-.2.124-.461.093-.347.051-.42-.242-.251zm-1.272 9.138c-.073.042-.104.158-.062.231.085.147.2.178.274.135.146-.084.177-.2.093-.346-.043-.074-.158-.105-.305-.02zm3.437-8.434c-.146.084-.282.358-.239.431-.02.305.2.178.439-.254.136-.273.093-.347-.2-.177zm1.967-3.872c-.231-.062-.189.011-.031.116.116.03.127.22-.02.304-.146.085-.208.316-.166.39.127.22.023.377-.124.462-.22.127-.397.327-.544.412-.251.242-.53 1.282-.372 1.387.158.104 1.119-.94 1.035-1.086-.085-.147.05-.42.332-.778.575-.528.572-1.21-.11-1.207zm4.43-32.95c-.663-.302-2.639-1.017-4.427-1.744-4.859-1.983-7.295-2.14-11.12-.811-1.52.584-4.787 2.372-6.315 3.45-2.145 1.532-3.233 2.355-3.264 2.47-.031.117-.355.401-.795.655-.324.285-.826.77-1.192.982-.398.327-.66.38-.891.319-.201-.178-.274-.136-.513.296-.209.316-.282.358-.483.18-.315-.208-1.595-.055-2.822.36-1.037.403-1.11.445-1.107 1.128-.093.347.121 1.395.367 2.328.51 1.562.48 1.678 0 2.54-1.811 3.295-2.462 5.722-1.68 6.737.442.429 4.72 1.575 5.087 1.363.293-.169.685.68 2.606 5.531 2.23 5.554 2.23 5.554 4.044 9.881 2.291 5.323 2.418 5.543 1.82 5.692-.262.054-.293.17-.25.243.231.062-.572 1.21-.804 1.148-.115-.031-.22.127-.282.358a.656.656 0 01-.501.485c-.147.085-.398.327-.46.558-.062.232-.386.516-.752.728-1.319.762-.685 1.861 1.142 1.979 1.029.09 1.072.163 1.08-.33.02-.305.166-.39.355-.4.085.146.305.019.513-.297.355-.4.355-.4.409-.138.054.262.243.25.462.124.44-.254.795-.655.668-.875-.042-.073-.188.012-.324.285-.197.505-.733.423-.493-.008.05-.42 1.246-.72 1.373-.5.392.849 2.638 5.416 2.988 6.191.338.586.592 1.026.739.942.073-.043.442.428.823 1.088.381.659.477.995.319.891-.358-.282-.358-.282-.293.169.127.22.254.44.443.428.189-.011.231.062.053.262-.031.116.012.189.054.263.189-.012.432.239.716.563.551.953.678 1.173.373 1.153-.116-.031-.2-.177-.285-.324-.011-.189-.169-.293-.242-.251-.074.043-.009.494.33 1.08.423.733.581.837.601.533-.096-.336-.023-.378.061-.231.412.544 1.07 2.021 1.081 2.21-.062.231.759.637.979.51.146-.085.177-.201.123-.463-.053-.262-.053-.262.116.031.296.513.967.321.713-.118-.084-.147-.011-.189.147-.085.474.313.953-.55.51-.979-.285-.324-.076-.64.282-.358.158.105.231.062.062-.231-.043-.073-.023-.378.05-.42.074-.042.031-.116-.084-.147-.2-.177-.2-.177-.147.085-.031.116-.062.231-.177.2-.451.065-.474-.313-.108-.524.22-.127.209-.316.009-.494-.127-.219-.316-.208-.463-.123-.104.157-.262.053-.527-.575-.308-.702-.55-.953-.697-.869-.147.085-.147.085-.096-.335.062-.231-.014-.871-.184-1.165-.211-.366-.318-.89-.195-1.353.229-.62.175-.882.028-.798-.262.054-.346-.093-.296-.513.039-.609-.319-.89-.358-.282-.051.42-.209.316-.347-.093-.042-.073-.158-.104-.231-.062-.073.043-.285-.324-.496-.69-.266-.629-.35-.775-.57-.648-.147.084-.189.01-.054-.263.178-.2.124-.462-.003-.682-.085-.147-.054-.262.104-.158.359.282.637-.759.372-1.387-.127-.22-.107-.525-.003-.683.147-.084.22-.126.274.136.011.189.096.335.242.25.073-.042.104-.157.02-.304-.169-.293.132-.956.622-1.63.595-.832.742-.916.722-.612.011.189.169.293.243.251.115.03.219-.127.135-.274-.085-.146-.096-.335.05-.42.074-.042.432.24.866 1.162.55.952.751 1.13.655.794.019-.304-.088-.828-.215-1.048-.169-.293-.234-.745-.172-.976.031-.115-.138-.409-.265-.628-.285-.325-.068-1.134.278-1.04.463.123.383-1.2-.028-1.743-.212-.367-.381-.66-.235-.745.147-.084.062-.23-.192-.67-.727-.753-1.472-3.06-1.052-3.009.231.062 1.505-1.455 1.378-1.675-.085-.147-.011-.189.093-.347 1.13-.75 1.663-1.35 1.899-2.465.062-.23.24-.431.471-.37.189-.01.336-.095.355-.4.062-.23.198-.504.344-.589.147-.085.178-.2-.023-.378-.2-.177-.127-.22.147-.084.274.135.462.123.378-.023-.042-.073.019-.305.166-.39.147-.084.251-.242.209-.315-.043-.073.019-.305.197-.505.104-.158.166-.389.05-.42-.115-.03-.231-.062-.293.17-.073.042-.146.084-.115-.032-.012-.189.166-.389.501-.485.336-.096.44-.254.398-.327-.085-.147.019-.304.135-.273.116.03.336-.096.397-.328.062-.23.209-.316.251-.242.085.146-.008.493-.174.882-.251.243-.406.821-.468 1.052-.02.305-.27.547-.459.559a.733.733 0 00-.344.589c-.062.231-.02.305.085.147.104-.158.219-.127.262-.054.084.147-.062.231-.324.285-.263.053-.471.37-.533.6-.02.305-.228.62-.417.632-.189.012-.22.127-.135.274.042.073-.062.23-.209.316-.147.084-.209.315-.082.535.085.147.054.263-.062.232-.115-.031-.219.126-.166.389.012.189-.093.346-.355.4-.409.138-.482.18-.166.39.273.135.2.177-.104.157-.347-.093-.66.381-.406.82.085.147-.124.463-.333.78-.135.273-.197.504-.154.577.073-.042.324-.285.606-.643.448-.747.521-.79.648-.57.042.074-.155.578-.51.979-.386.516-.583 1.02-.499 1.167.169.293.243.251.586-.338.209-.316.564-.716.711-.801.146-.085.459-.559.625-.948.209-.316.375-.705.448-.747 0 0 .209-.316.46-.558.208-.316.49-.674.637-.76.073-.041.313-.473.437-.935.239-.432.448-.748.563-.717 0 0 .147-.084.209-.316.062-.23.166-.389.208-.315.085.146.189-.012.136-.274.019-.304.019-.304.146-.085.023.378-.789 2.02-1.02 1.958-.189.01-.352 1.082-.225 1.302.127.22.493.009.586-.338.105-.158.657-1.063 1.271-2.2.668-.874 1.356-2.053 1.449-2.4.135-.273.301-.662.374-.705.074-.042.792-1.336 1.604-2.978 2.778-5.513 4.279-10.19 4.546-13.96.048-1.103.064-2.09.053-2.279-.054-.262-.119-.713-.215-1.048-.023-.378-.268-1.311-.533-1.94-.903-2.41-2.675-4.124-5.314-5.141zM113.57 100.6c-.031.115-.147.084-.274-.136-.127-.22-.096-.335.105-.158.115.031.242.251.169.294zm.493.008c-.031.115-.189.011-.273-.135-.169-.294-.096-.336.062-.232.158.105.242.251.211.367zm3.348 2.074s-.189.011-.274-.135c-.115-.031-.2-.178-.053-.262.073-.043.304.019.346.092.085.147.054.263-.019.305zm-.356-2.14c.115.031.231.062.273.135l-.146.085c-.074.042-.189.011-.231-.062-.043-.073-.012-.189.104-.158zm.403 1.038c.158.104.316.208.243.25.011.189-.336.096-.463-.124-.084-.146.062-.231.22-.126zm-6.451-17.775c.012.188-.073.042-.2-.178-.169-.293-.212-.366-.096-.335.158.104.327.397.296.513zm5.899 9.2l-.367.212c-.042-.073-.011-.189.198-.505.104-.157.324-.285.366-.211.042.073-.093.347-.197.505zm-.799-2.568c-.062.231-.147.085-.273-.135-.17-.293-.212-.366-.023-.378l.296.513zm-4.601-7.8c-.073.043-.147.085-.231-.062-.116-.03-.201-.177-.054-.262.073-.042.231.062.274.135.084.147.084.147.011.19zm.304-2.52c.572 1.33.903 2.41.756 2.495 0 0-.104.157-.397.327-.251.242-.251.242-.139-.41.093-.346.028-.797-.056-.944-.212-.366-.212-.366-.147.085.023.378.023.378-.104.158-.085-.147-.139-.409-.108-.525.031-.115.02-.304-.022-.377-.043-.074-.158-.105-.189.011-.104.158-.116-.03-.138-.409.028-.798.321-.967.544-.412zm-.393-.85c.023.379-.135.275-.431-.239-.254-.44-.277-.817-.203-.86.073-.042.304.02.473.313.127.22.15.598.161.787zm-.922-2.105c.254.44.276.818.13.902 0 0-.116-.03-.127-.22-.161-.786-.796-1.886-1.1-1.905-.147.084-.116-.031.104-.158.324-.285.578.155.993 1.381zm-1.284-3.07c.296.513.403 1.037.342 1.269.011.189.011.189-.043-.074-.084-.146-.211-.366-.369-.47-.305-.02-.389-.167-.17-.293.074-.043.147-.085.031-.116-.115-.031-.211-.367-.234-.744.082-.536.124-.463.443.428zm-.934-2.295c.127.22.096.336-.062.231-.085-.146-.254-.44-.485-.501-.243-.251-.212-.367.062-.231.189-.012.431.24.485.501zm-.488-1.184c.011.19-.031.116-.2-.177-.127-.22-.17-.294-.054-.263.158.105.285.325.254.44zm-.33-1.08a.183.183 0 01-.232-.061c-.084-.147-.011-.19.062-.232.232.062.347.093.389.166l-.219.127zm16.494 10.12c-.147.085-.262.054-.389-.166-.085-.147-.054-.262.135-.274.116.031.274.136.316.209.085.146.011.189-.062.231zm-16.221-19.464c.062-.23.177-.2.366-.211 0 0-.031.116-.177.2-.22.127-.336.096-.189.012zm3.159 11.565c.031-.116.019-.304.019-.304.074-.043.231.062.274.135.084.146-.02.304-.093.347-.147.084-.189.011-.2-.178zm.284.324c.074-.042.189-.011.158.105.085.146.054.262-.019.304-.074.042-.116-.03-.2-.177-.043-.074-.012-.19.061-.232zm2.23 5.554c-.085-.147-.065-.451-.065-.451s.2.177.285.324c.127.22.138.409-.009.493-.073.043-.158-.104-.211-.366zm.996 2.063c-.031.116-.263.054-.347-.092-.169-.294-.108-.525-.119-.714.073-.042.189-.011.316.209s.181.482.15.597zm3.244 4.773c-.031.115-.22.127-.263.054-.042-.074.02-.305.051-.42.031-.116.147-.085.189-.012.042.073.054.262.023.378zm-5.601-10.546c-.104.158-.219.127-.262.054-.042-.074-.053-.263.051-.42.031-.116.146-.085.189-.012.042.073.053.262.022.378zm6.708 9.418c-.104.158-.293.169-.146.084-.012-.189-.17-.293-.401-.355-.273-.135-.273-.135-.127-.22.158.105.262-.053.367-.211.093-.347.135-.274.304.02.127.22.181.481.003.682zm7.902-5.442c.011.19-.062.232-.178.2-.189.012-.104.159-.166.39.084.146-.02.304-.166.389-.147.085-.116-.031-.096-.336.155-.578.656-1.063.606-.643zm-1.577-2.9c-.085-.147.05-.42.154-.578.178-.2.429-.443.533-.601.031-.116.042.073-.155.578-.467 1.052-.467 1.052-.532.6zm2.473 1.406c.011.189-.062.231-.062.231-.074.042-.147.085-.231-.062-.116-.03-.043-.073.104-.158.146-.085.22-.127.189-.011zm-1.558-3.206c-.096-.335.082-.535.229-.62.219-.127.335-.096.304.02.042.073-.093.347-.155.578-.208.316-.282.358-.378.022zm2.412 1.638c-.189.011-.398.327-.449.747.023.378-.112.651-.154.578-.085-.146-.034-.567.059-.913.197-.505.301-.663.501-.485.158.104.085.146.043.073zm-1.389-2.912c-.146.084-.262.053-.346-.093-.085-.147-.096-.336.05-.42.073-.043.262-.054.347.093.042.073-.062.23-.051.42zm-2.825-19.282c.065.451.087.829.13.902.042.074.065.451.087.83.284 4.722-2.246 11.85-7.422 20.996-2.156 3.883-1.936 3.756-2.901 1.577-.361-.965-.945-2.484-1.295-3.26-.234-.744-1.445-3.856-2.687-6.853-1.168-3.039-2.155-5.596-2.155-5.596.03-.115 2.779-2.972 3.249-3.342 3.682-3.102 6.968-5.196 9.525-6.183 2.82-1.041 3.209-.875 3.469.93zm-3.153 41.594c.011.19.022.378.149.598.127.22.285.324.274.135.146-.084.051-.42-.034-.566-.127-.22-.243-.251-.389-.167zm-.623 1.63c-.096-.335-.138-.409-.189.012-.104.157.119.713.373 1.153.223.555.539.764.57.648.031-.116.135-.274.05-.42-.084-.147-.138-.409-.065-.451.031-.116-.053-.263-.327-.398-.158-.104-.4-.355-.412-.544zm-.469-4.029c-.073.043-.135.274.034.567.084.147.316.209.347.093a.65.65 0 00-.065-.451c-.085-.147-.243-.251-.316-.209zm1.069 2.022c.031-.116-.054-.263-.212-.367-.157-.104-.231-.062-.061.231.084.147.242.251.273.136zm-1.281-2.388c.043.073.158.104.231.062l.147-.085c-.042-.073-.158-.104-.273-.135-.116-.031-.147.085-.105.158zm.295-4.568c-.051.42-.051.42-.22.127-.127-.22-.127-.22-.147.085-.062.231-.05.42-.008.493.042.073.158.105.231.062.22-.127.375-.705.248-.925-.085-.146-.115-.03-.104.158zm-6.021 15.301c.031-.116-.138-.409-.253-.44-.158-.104-.074.042.053.262.169.293.212.367.2.178zm2.083-3.841c.011.189.242.25.505.197.262-.053.408-.138.408-.138s-.084-.147-.284-.324c-.285-.325-.694-.186-.629.265zm2.381 4.293c-.031.116-.02.305.023.378.042.073.157.104.188-.011.105-.158.093-.347.051-.42-.042-.074-.158-.105-.262.053zm.688 1.362s-.062.231-.019.304c.011.189.053.263.2.178.073-.042.104-.158.02-.305-.043-.073-.127-.219-.201-.177zm.119.713c-.073.042.054.262.138.409.127.22.212.366.285.324.073-.042.062-.231-.065-.451-.085-.147-.285-.324-.358-.282zm44.099-86.636c-1.796-.233-1.87-.191-1.909.418.023.378-.008.493-.22.127-.116-.031-.316-.209-.462-.124-.031.116-.232-.062-.401-.355-.327-.398-.4-.355-.651-.113-.209.316-.398.328-.714.119-.504-.197-3.299-.636-3.623-.351-.146.084-.335.096-.42-.05-.431-.24-.541 1.093-.269 3.087.068 1.133.229 1.92.271 1.993-.073.042-.849.392-1.666.669-5.87 2.02-11.222 6.967-14.302 13.143-1.716 3.63-3.381 9.379-3.408 12.717-.075 1.9.074 2.498.678 3.713.562 1.142 1.34 1.474 5.008 2.581 1.661.507 3.827 1.211 4.794 1.533 2.67.9 3.657.918 7.548.04 2.58-.61 4.404-1.175 7.809-2.555 2.191-.776 5.337-1.42 5.926-1.076 1.137.614 1.922 4.852 1.559 8.286-.168 2.247-1.097 5.716-2.21 8.02-.885 1.683-2.229 3.925-2.909 4.61-.135.274-.637.759-.992 1.16-.313.473-.888 1-.95 1.232-.783.843-4.163 3.283-5.378 3.887-1.173.677-1.477.657-3.978.05l-1.272-.342-.039.61c-.059.913.669 1.666 1.751 2.018.505.197 2.124.63 3.553 1.076 1.534.287 3.426.855 4.351 1.103 1.892.57 2.794.44 5.193-.653.66-.38 2.23-1.385 3.465-2.293 3.191-2.429 4.966-4.431 6.756-8.103 3.11-6.29 3.429-14.88.546-18.687-1.278-1.706-3.319-2.873-6.988-3.98-.851-.29-2.397-.765-3.406-1.16-2.986-1.11-8.479-1.652-9.494-.87-.146.084-.408.137-.451.064-.242-.25-1.846.187-5.148 1.409-2.63 1.03-5.649 1.893-5.734 1.747-.412-.544.559-6.48 1.565-9.308.901-2.67 1.411-3.649 2.589-5.502 1.553-2.557 3.255-4.517 4.991-5.91.325-.286.606-.644.522-.79 0 0 .146-.085.409-.139.146-.084.555-.223.848-.392.324-.285.682-.003.601.533-.031.115.288 1.006.649 1.97.519 1.069.88 2.033.976 2.369.096.335.288 1.006.458 1.3.877 1.35 1.3 2.082 1.331 1.967-.011-.19.409-.139.902-.13.494.008.987.016 1.134-.068.073-.043.262-.054.335-.096.2.177 2.267-.136 2.633-.348.074-.042.409-.138.556-.223.378-.023.501-.485.14-1.45l-.203-.859.307.702c1.112 2.095 1.428 2.303 1.414 1.432.008-.494.008-.494.662.301.327.398.925.248.598-.15-.254-.44.27-.546.64-.076.485.502.485.502.493.009-.034-.567-.787-2.38-1.061-2.515-.115-.031-.2-.178-.053-.262 0 0-.311-1.384-.822-2.946-.86-2.337-2.41-8.576-3.119-12.174-.364-1.646-.607-1.897-1.709-1.945zm-20.419 28.109c.054.262-.008.493-.081.535-.074.043-.085-.146.081-.535.051-.42.051-.42 0 0zm22.558-12.047c.477.995.415 1.227.037 1.25-.536-.082-.663-.302-.254-.44a.187.187 0 00.093-.347c-.084-.147-.223-.556-.234-.745.02-.304.062-.23.358.282zm-.711-1.74c.138.41.138.41-.147.085-.126-.22-.253-.44-.191-.67-.043-.074.104-.159.146-.085.085.146.138.409.192.67zm-.564-1.823c.022.377.022.377-.147.084-.085-.146-.138-.408-.265-.628.019-.305.093-.347.177-.2.127.22.297.512.235.744zm-.252-11.777c-.074.042-.189.011-.316-.209.062-.231-.023-.378.05-.42 0 0 .158.104.243.25.2.178.169.294.023.379zm11.346-17.594c-.116-.03-.818.277-1.489.469-.995.476-1.172.677-1.192.981.096.336-.459.559-1.006.288-.39-.166-.463-.124-.556.223-.093.347-.282.358-.922.434-.566.034-1.311.269-2.263.819l-1.393.804.426 1.415c.234.744.745 2.306 1.16 3.533.562 1.141 1.253 3.185 1.826 4.516 1.264 3.374 3.905 9.472 7.923 18.293.646 1.288 1.261 2.692 1.473 3.059 3.064 6.83 7.725 16.257 8.029 16.277.231.062.305.02.262-.054-.084-.146.074-.042.378-.022.432.24.578.154 1.458-.353.586-.339 1.088-.824 1.339-1.066.166-.39.355-.401.493.008.011.189.042.073.147-.085.093-.347.05-.42-.297-.513-.273-.135-.358-.282-.257-1.122.082-.536.279-1.04.353-1.083.073-.042.115.031.042.074-.104.157-.093.346.023.377.042.074.127.22-.02.305-.073.042-.104.158.096.335.116.031.285.325.223.556-.093.347.022.377.358.282.713-.12.806-.466.067-1.407-.338-.587-.434-.922-.361-.965.335-.096-.395-1.53-.9-1.728-.158-.104-.2-.177-.127-.22.147-.084.135-.273-.034-.566-.127-.22-.434-.922-.584-1.52-.265-.628-.604-1.215-.604-1.215-.158-.104-.127-.22-.023-.377.251-.243.124-.463-.172-.976-.285-.324-.381-.66-.392-.849.104-.157.062-.23-.212-.366-.389-.166-.358-.282.009-.493.073-.043.146-.085.062-.232-.085-.146-.158-.104-.305-.02-.073.043-.273-.135-.211-.366-.17-.293-.065-.45-.065-.45.146-.085-.108-.525-.319-.892-.223-.555-.658-1.477-1.008-2.252-.349-.776-.784-1.697-.996-2.064a3.862 3.862 0 01-.349-.775c.293-.17.789.521.993 1.381.18.482.826 1.77 1.43 2.986.677 1.172 1.165 2.356 1.207 2.43-.03.115.139.408.297.513.158.104.211.366.149.597-.019.305.139.41.443.429.378-.023.378-.023.127.22-.22.127-.135.273.669 1.666 1.374 2.04 1.532 2.145 1.636 1.987.146-.085.304.02.431.24s.381.66.581.837c.243.25.497.69.519 1.068.17.293.297.513.412.544.116.031.243.251.308.702.161.787.434.922.632.417.123-.462-.091-1.511-.3-1.195-.073.042-.146.085-.231-.062-.042-.073-.011-.189.062-.231.073-.043-.065-.451-.35-.776-.211-.366-.392-.848-.361-.964.051-.42-.542-1.446-.677-1.172-.062.23-.231-.062-.265-.63a3.626 3.626 0 00-.362-.963c-.096-.336-.276-.818-.372-1.153-.054-.262-.488-1.184-.88-2.033-.393-.848-.742-1.624-.712-1.74-.084-.146-.084-.146-.231-.061-.146.084-.231-.062-.169-.293.02-.305-.119-.714-.945-2.484-.085-.147-.023-.378.05-.42.074-.042.189-.011.158.104.043.073.361.964.869 1.844.319.89 1.05 2.325 1.442 3.174.35.775.838 1.96 1.219 2.619a33.053 33.053 0 011.853 3.718c.235.745.319.891.497.69.104-.157.039-.608-.257-1.121-.212-.367-.435-.922-.488-1.184-.011-.19-.181-.482-.265-.629-.043-.073-.339-.586-.477-.995-.181-.482-.542-1.446-.923-2.106-.307-.702-1.495-3.436-2.641-6.098-1.188-2.734-2.291-5.322-2.503-5.688-.572-1.331-3.055-7.325-3.64-8.844-.711-1.74-3.14-7.47-3.828-8.832-2.111-4.84-4.619-9.354-5.197-9.509zm12.772 41.586c-.139-.408-.023-.377.315.209.212.366.35.775.204.86-.147.084-.485-.502-.519-1.069zm2.595 5.343c-.062.23-.104.157-.242-.251-.054-.263-.023-.378.135-.274.085.147.169.293.107.525zm-.553-1.636c-.155.578-.155.578-.293.17.062-.231-.15-.598-.277-.818-.169-.293-.096-.335.105-.158.157.105.315.209.431.24.116.03.127.22.034.566zm-4.747-14.654c-.37-.47-.889-1.539-.815-1.581.073-.043.05-.42-.161-.787-.096-.335.073-.042.465.806.719 1.246.954 1.99.511 1.562zm5.963 9.652c-.146.085-.262.054-.346-.093-.085-.146-.012-.189.177-.2.116.031.231.062.274.135 0 0-.031.116-.105.158zm-.804-1.392c-.104.158-.219.127-.262.053-.084-.146-.096-.335.051-.42.031-.115.104-.158.146-.084a.644.644 0 01.065.45zm-6.573-12.232l.107.524-.4-.355c-.485-.502-.531-1.257-.13-.902.2.178.369.47.423.733zm-1.134-2.472c.265.628.488 1.184.457 1.3-.062.23-.931-1.613-.954-1.991-.096-.335.147-.085.497.69zm6.504 8.557c-.146.085-.581-.837-.488-1.184 0 0 .158.105.37.471.169.293.265.629.118.713zm-.626-1.592c-.073.042-.231-.062-.2-.178-.012-.189.019-.304.093-.347 0 0 .115.031.2.178.042.073.054.262-.093.347zm-.627-1.593c-.135.273-.431-.24-.507-.88-.065-.45-.023-.377.231.062.285.325.307.702.276.818zm-.595-1.709a.645.645 0 01-.282.359c-.22.127-.231-.062.02-.305.104-.158.251-.242.262-.054zm5.577 17.107c.073-.042.062-.23-.065-.45s-.285-.325-.358-.282c-.074.042-.062.23.065.45s.285.325.358.282zm6.742 9.985c-.147.085-.409.138-.525.107-.158-.104-.713.119-1.268.342-.807.465-.838.58-.711.8.212.367.139.41-.355.401-.304-.02-.682.003-.798-.028-.084-.146-.451.065-.659.381-.367.212-.587.339-.629.265-.127-.22-2.024.387-3.428 1.002-.88.508-1.173.678-1.224 1.098-.081.535.526 2.433 1.64 5.21.361.964 1.03 2.63 1.434 3.667.753 1.813.795 1.886 1.374 2.041.578.155.871-.014 3.363-1.453 2.241-1.196 2.858-1.65 2.805-1.912.081-.536.763-.54.828-.088.054.262.17.293.274.135.104-.158.135-.273.051-.42-.285-.324.197-.505.597-.15.285.324 1.249-.037.964-.36-.084-.147-.096-.336-.022-.379.146-.084.231.062.358.282.18.482.547.27.513-.296-.054-.262-.522-1.75-1.033-3.313-.584-1.52-1.36-3.71-1.575-4.759-.734-2.117-1.43-2.985-1.974-2.573zm-.706 6.564c-.104.158-.22.127-.262.054-.042-.074-.054-.263.05-.42.031-.116.147-.085.189-.012.043.073.054.262.023.378zm.771-6.113c-.22.127-.294.17-.189.011.104-.157.251-.242.366-.211.116.03.085.146-.177.2zm-6.189-8.35c.274.136.4.356.369.471-.03.116.012.19.158.105.147-.085.051-.42-.076-.64-.169-.294-.423-.733-.477-.995-.053-.263-.296-.514-.485-.502-.073.042-.146.084.042.073.043.073.17.293.15.598-.081.535.045.755.319.89z" fill="#DCDCDC"/></svg>