<svg width="215" height="77" fill="none" xmlns="http://www.w3.org/2000/svg"><path d="M56.49-15.992c-1.7-5.099-3.887-8.05-7.227-9.647-1.972-1.141-3.781-2.24-5.42-3.642-1.558-1.382-1.721-1.425-3.929-2.017-3.27-.876-5.8-.59-9.994 1.002-9.07 3.44-18.27 14.556-21.433 25.712C7.835-2.481 7.539-.72 7.565.163c.016.267-.034.78-.143 1.188-.227 2.48.863 7.241 2.24 9.625 1.54 2.428 2.553 3.225 8.742 6.286a60.739 60.739 0 013.869 1.912c1.934.957 5.128 1.462 7.843 1.138.72-.07 1.113-.228 1.178-.473.088-.327.11-.409.29-.098.26.333 1.144.307 3.33-.334 6.19-1.846 13.475-7.78 18.364-15.231 4.696-7.065 5.636-12.86 3.213-20.167zM15.61-3.376c-.103.06-.163-.044-.12-.208.044-.163.17-.305.252-.283.163.044.223.148.201.23-.044.163-.17.305-.333.26zm.853-1.875c-.163-.043-.223-.147-.098-.289.126-.141.513.05.447.295-.022.082-.186.038-.349-.006zm2.032 1.246c-.164-.044-.142-.126-.098-.29.126-.14.23-.2.311-.179.082.022.06.104.016.267-.044.164-.147.224-.229.202zm29.254-4.866c-.964 3.597-2.909 6.93-6.534 11.304-3.98 4.716-7.641 7.59-12.108 9.548-1.779.75-5.144 1.864-5.389 1.798-.081-.022-.452.054-.905.108-.37.076-1.357.162-2.077.232-.824.13-1.418.058-1.581.014-.245-.066-1.409-2.918-1.63-4.38-1.388-6.592 1.72-15.573 7.883-23.209 1.95-2.369 3.16-3.621 5.698-5.57 4.66-3.658 10.218-5.76 13.74-5.168l1.166.225.592 1.386c.728 1.86 1.467 4.335 1.667 5.878.07.72.14 1.44.178 1.625.335 2.018.214 3.124-.7 6.209zm-.001 14.72c-.126.14-.29.097-.453.053-.082-.022-.082-.022-.038-.185.126-.142.311-.18.393-.158.163.044.141.126.098.29zm.524-.649c-.164-.044-.164-.044-.098-.289.191-.387.502-.566.393-.158-.066.246-.192.387-.295.447zm2.457-3.284c-.437.32-.327-.088.153-.573.148-.223.17-.305.186-.037a1.595 1.595 0 01-.34.61zM52.357-.89C51.968.233 51.237 1 51.139.711c-.06-.103.066-.245.191-.386.082.021.252-.284.34-.61.087-.328.36-.693.715-1.036.354-.343.354-.343-.028.431zm.847-1.525c-.214.468-.273.365-.158-.393.05-.513.263-.981.285-1.063.185-.038.333-.261.502-.566.088-.327.104-.06-.05.512-.153.572-.432 1.286-.58 1.51zm1.709 2.122c-.164-.043-.098-.289.05-.512.147-.223.273-.365.354-.343.164.044.12.207-.027.43-.148.224-.295.447-.377.425zm48.439-3.142c-1.7-5.1-3.888-8.051-7.228-9.647-1.972-1.142-3.78-2.24-5.42-3.643-1.557-1.381-1.72-1.425-3.928-2.016-3.27-.876-5.8-.59-9.994 1.002-9.07 3.44-18.27 14.556-21.434 25.711-.651 2.104-.948 3.864-.922 4.748a4.41 4.41 0 01-.143 1.188c-.226 2.48.864 7.24 2.24 9.625 1.54 2.427 2.553 3.225 8.743 6.285a60.739 60.739 0 013.868 1.913c1.934.956 5.128 1.461 7.844 1.138.72-.07 1.112-.228 1.178-.473.087-.327.11-.409.289-.098.261.333 1.144.307 3.331-.334 6.19-1.846 13.475-7.78 18.363-15.232 4.697-7.065 5.636-12.859 3.213-20.167zM62.472 9.18c-.104.06-.164-.044-.12-.207.044-.164.17-.305.251-.283.164.044.224.147.202.229-.044.163-.17.305-.333.261zm.853-1.874c-.164-.044-.224-.148-.098-.29.125-.14.512.05.447.296-.022.082-.186.038-.35-.006zm2.032 1.245c-.164-.043-.142-.125-.098-.289.125-.141.229-.201.31-.18.082.023.06.104.017.268-.044.163-.148.223-.23.201zM94.61 3.685c-.963 3.597-2.908 6.931-6.533 11.305-3.98 4.716-7.642 7.59-12.109 9.547-1.778.75-5.143 1.864-5.388 1.798-.082-.022-.453.054-.905.108-.371.076-1.358.162-2.078.232-.823.13-1.417.058-1.58.015-.246-.066-1.41-2.919-1.63-4.38-1.389-6.593 1.719-15.573 7.883-23.209 1.949-2.37 3.16-3.622 5.698-5.57 4.66-3.658 10.218-5.761 13.739-5.168l1.166.225.593 1.385c.728 1.86 1.466 4.336 1.666 5.879.07.72.14 1.44.178 1.625.336 2.017.215 3.124-.7 6.208zm0 14.72c-.126.141-.29.098-.453.054-.082-.022-.082-.022-.038-.186.125-.141.31-.18.392-.157.164.044.142.125.098.289zm.523-.648c-.163-.044-.163-.044-.097-.29.19-.386.502-.566.392-.157-.066.245-.191.387-.295.447zm2.457-3.285c-.436.321-.327-.087.154-.572.147-.223.17-.305.185-.038a1.593 1.593 0 01-.339.61zm1.628-2.805c-.388 1.122-1.12 1.89-1.217 1.6-.06-.103.066-.244.191-.386.082.022.251-.283.339-.61.087-.327.36-.692.715-1.035.355-.343.355-.343-.028.43zm.847-1.526c-.213.469-.273.365-.157-.393.05-.512.262-.98.284-1.062.186-.038.333-.262.503-.567.087-.327.103-.06-.05.513-.153.572-.432 1.286-.58 1.51zm1.709 2.123c-.163-.044-.097-.29.05-.512.148-.224.273-.366.355-.344.163.044.12.208-.028.431-.147.223-.295.447-.377.425zm.826 22.213c-.022.082.223.148.468.213.246.066.349.006.371-.076-.098-.289-.795-.3-.839-.137zm12.095-7.536c-.163-.044-.371.076-.414.24-.066.245-.006.348-.006.348.081.022.267-.016.414-.24.311-.179.333-.26.006-.348zm-7.361 5.563a.182.182 0 00-.207.12c-.044.163.016.267.098.288.163.044.267-.016.311-.18.022-.08-.038-.184-.202-.228zm8.395-3.534c-.164-.044-.453.054-.475.136-.229.201.016.267.491.131.289-.097.31-.18-.016-.267zm4.128-1.347c-.12-.207-.142-.125-.104.06.06.104-.065.245-.229.201-.163-.043-.371.076-.393.158-.065.245-.251.283-.414.24-.245-.066-.513-.05-.676-.094-.349-.006-1.282.533-1.244.718.038.186 1.456.127 1.499-.036.044-.164.333-.262.786-.316.779.034 1.26-.45.775-.93zm26.432-20.167c-.256-.681-1.147-2.585-1.898-4.363-2.033-4.838-3.644-6.672-7.289-8.437-1.488-.661-5.063-1.707-6.905-2.025-2.6-.434-3.952-.621-4.055-.561-.104.06-.535.032-1.025-.1-.431-.027-1.129-.04-1.537-.149-.513-.05-.736-.197-.856-.404-.016-.267-.097-.29-.572-.153-.371.075-.453.053-.469-.214-.075-.37-1.088-1.168-2.249-1.741-1.019-.449-1.101-.47-1.581.014-.311.18-.901 1.073-1.387 1.906-.743 1.466-.847 1.526-1.796 1.797-3.61 1.048-5.787 2.305-5.952 3.575.01.616 2.225 4.451 2.633 4.56.327.088.005.966-2.067 5.755-2.351 5.503-2.351 5.503-4.128 9.846-2.143 5.384-2.209 5.63-2.738 5.312-.223-.147-.327-.087-.348-.006.119.208-1.26.451-1.38.244-.06-.104-.245-.066-.453.054a.658.658 0 01-.697-.012c-.164-.043-.513-.05-.72.07-.207.12-.638.092-1.047-.017-1.471-.395-1.8.832-.591 2.207.664.791.642.873.997.53.229-.201.392-.158.534-.032-.044.163.202.23.572.153.535-.032.535-.032.387.191-.147.224-.006.35.24.415.49.132 1.024.1 1.09-.146.022-.082-.142-.125-.431-.028-.496.218-.817-.219-.343-.354.333-.262 1.39.372 1.324.617-.322.878-1.964 5.695-2.264 6.49-.176.654-.307 1.145-.144 1.189.082.022.01.616-.187 1.351-.197.736-.366 1.041-.404.856-.054-.453-.054-.453-.327-.088-.066.246-.131.49.01.616.142.126.12.208-.147.224-.104.06-.126.141-.148.223.142.126.136.474.108.905-.285 1.063-.35 1.308-.552 1.079-.06-.104-.016-.267.028-.43.126-.142.088-.328.006-.35-.082-.021-.355.343-.53.997-.219.818-.181 1.003.048.802.17-.305.251-.283.207-.12-.093.676-.673 2.185-.798 2.327-.208.12.086.987.331 1.053.163.043.267-.016.415-.24.147-.223.147-.223.06.104-.154.572.456.91.588.42.043-.163.125-.141.163.044.114.556 1.063.285 1.053-.331.028-.43.398-.507.452-.054.038.185.12.207.208-.12.022-.081.25-.283.332-.261.082.022.104-.06.044-.163-.016-.268-.016-.268-.163-.044-.104.06-.207.12-.267.016-.365-.273-.114-.556.295-.447.245.066.37-.076.354-.343.066-.245-.076-.37-.239-.415-.185.038-.223-.147.034-.78.279-.713.284-1.062.121-1.106-.164-.043-.164-.043.169-.305.208-.12.606-.626.694-.953.109-.409.404-.855.819-1.095.6-.277.747-.5.584-.544-.224-.148-.18-.311.153-.572.459-.403.405-.856-.054-.453-.333.261-.371.076-.179-.311.022-.082-.038-.185-.12-.207-.082-.022.028-.431.137-.84.257-.632.301-.795.056-.861-.164-.044-.142-.126.147-.223.267-.016.415-.24.481-.485.043-.163.147-.223.185-.038.054.453.987-.086 1.244-.718.065-.245.295-.447.48-.485.164.044.245.066.098.29-.126.141-.169.305-.006.348.082.022.185-.038.229-.201.088-.327.77-.582 1.593-.712 1.009-.168 1.172-.124.943.077-.126.142-.088.327-.006.349.06.104.245.066.289-.098.044-.163.17-.305.333-.261.082.022.136.474-.209 1.433-.285 1.063-.269 1.33-.099 1.025.229-.201.524-.648.59-.893.087-.327.36-.692.568-.812.103-.06.191-.387.257-.632.027-.43.753-.85.932-.538.24.414 1.119-.577 1.212-1.253.11-.409.197-.736.361-.692.163.044.207-.12.339-.61.017-1.047 1.121-3.204 1.382-2.871.12.207 2.094.035 2.159-.21.044-.164.126-.142.311-.18 1.33.269 2.132.22 3.086-.4.208-.12.475-.135.595.072.141.126.305.17.534-.032.207-.12.496-.218.66-.174.163.044.267-.016.251-.283-.016-.267.066-.245.163.044.098.289.24.415.284.251.021-.082.229-.201.392-.158.164.044.349.006.371-.075.022-.082.229-.202.496-.218.186-.038.393-.158.333-.261-.06-.104-.119-.208-.327-.088-.081-.022-.163-.044-.06-.104.126-.141.393-.157.698.012.305.17.491.132.513.05.043-.164.229-.202.289-.098.059.104.305.17.512.05.207-.12.371-.076.349.006-.044.163-.355.343-.748.5-.348-.006-.867.294-1.074.413-.229.202-.578.196-.72.07a.735.735 0 00-.66.174c-.207.12-.229.201-.043.163.185-.037.245.066.223.148-.044.163-.207.12-.431-.028-.223-.147-.594-.071-.801.048-.229.202-.6.278-.742.152-.141-.125-.245-.066-.289.098-.022.082-.207.12-.371.076-.163-.044-.37.076-.436.32-.044.164-.148.224-.207.12-.06-.103-.246-.065-.393.158-.126.142-.311.18-.534.032-.387-.191-.469-.213-.393.158.098.289.016.267-.185.038-.18-.311-.736-.197-.868.293-.043.164-.414.24-.785.315-.289.098-.496.218-.518.3.081.021.43.027.883-.027.845-.211.927-.19.861.056-.022.082-.518.3-1.052.331-.638.092-1.135.31-1.179.473-.087.327-.005.349.654.175.371-.076.906-.108 1.069-.064.164.044.72-.07 1.112-.227.371-.076.764-.234.846-.212 0 0 .371-.076.719-.07.371-.076.824-.13.987-.086.082.022.556-.114.971-.353.475-.136.845-.212.905-.108 0 0 .164.044.371-.076s.393-.158.371-.076c-.044.164.141.126.289-.098.229-.201.229-.201.163.044-.251.283-1.985.87-2.105.663-.141-.126-1.014.516-1.08.762-.066.245.343.354.654.175a40.217 40.217 0 002.454-.657c1.09-.146 2.41-.493 2.721-.673.289-.097.682-.255.764-.233.081.022 1.505-.385 3.239-.972 5.863-1.934 10.232-4.18 13.086-6.657.814-.746 1.523-1.432 1.649-1.574.147-.223.42-.588.59-.893.251-.283.737-1.117.994-1.749 1.066-2.343 1.025-4.807-.122-7.393zm-46.686 25.78c-.104.06-.164-.044-.098-.29.066-.244.17-.304.186-.037.06.104-.006.349-.088.327zm.343.355c-.104.06-.142-.126-.098-.29.088-.326.17-.305.207-.12.038.186-.005.35-.11.41zm.9 3.833s-.141-.125-.097-.289c-.06-.103-.016-.267.147-.223.082.022.201.229.18.31-.044.164-.148.224-.23.202zm1.262-1.765c.06.104.119.208.098.29l-.164-.044a.183.183 0 01-.12-.208c.022-.081.126-.141.186-.038zm-.448 1.02c.037.185.075.37-.006.348-.126.142-.305-.17-.24-.414.044-.164.208-.12.246.065zm8.007-17.131c-.126.142-.082-.022-.016-.267.087-.327.109-.409.169-.305.038.185-.05.512-.153.572zm-2.336 10.677l-.408-.11c.022-.081.125-.141.496-.217.186-.038.431.028.409.11-.022.081-.311.179-.497.217zm1.252-2.38c-.208.119-.164-.045-.098-.29.088-.327.109-.409.251-.283l-.153.572zm2.262-8.77c-.082-.022-.164-.044-.12-.207-.06-.104-.016-.267.148-.223.081.021.119.207.097.288-.043.164-.043.164-.125.142zm1.997-1.568c-.536 1.346-1.066 2.343-1.229 2.3 0 0-.186.038-.513-.05-.349-.006-.349-.006.191-.387.311-.18.584-.544.628-.708.11-.409.11-.409-.163-.044-.251.283-.251.283-.186.038.044-.163.192-.387.295-.447.104-.06.229-.2.251-.283.022-.081-.038-.185-.141-.125-.186.038-.06-.104.191-.387.584-.545.911-.457.676.093zm.323-.877c-.251.283-.289.098-.136-.474.131-.49.382-.774.464-.752.082.022.202.23.114.556-.066.245-.317.528-.442.67zm.836-2.141c-.131.49-.382.773-.546.73 0 0-.06-.104.066-.246.442-.67.771-1.896.57-2.125-.164-.044-.06-.104.185-.038.431.028.299.518-.275 1.679zm1.263-3.08c-.153.573-.448 1.02-.655 1.14-.126.141-.126.141.022-.082.043-.164.109-.409.071-.594-.201-.23-.157-.393.088-.327.082.022.163.043.104-.06-.06-.104.109-.409.36-.692.437-.321.415-.24.01.616zm.963-2.282c-.066.245-.17.305-.208.12.044-.164.132-.49.012-.698.006-.35.11-.409.207-.12.142.126.136.475-.011.698zm.492-1.183c-.126.142-.104.06-.016-.267.065-.245.087-.327.147-.223.038.185-.028.43-.131.49zm.53-.997c-.082-.021-.142-.125-.12-.207.044-.163.125-.141.207-.12.12.208.18.311.158.393l-.245-.066zm4.507 18.82c-.163-.044-.223-.148-.157-.393.044-.164.147-.224.289-.098.06.104.098.289.076.37-.044.164-.126.142-.208.12zM124.049.533c.207-.12.267-.016.409.11 0 0-.104.059-.267.015-.246-.066-.305-.17-.142-.125zm-5.944 10.41a1.2 1.2 0 00.229-.2c.082.021.12.206.098.288-.044.164-.229.202-.311.18-.163-.044-.141-.126-.016-.268zm-.028.431c.082.022.142.126.038.186-.043.163-.147.223-.229.201-.082-.022-.06-.104-.016-.267.022-.082.126-.142.207-.12zm-2.35 5.503c.043-.163.273-.364.273-.364s.016.267-.028.43c-.066.245-.191.387-.355.343-.082-.022-.038-.185.11-.409zm-.755 2.164c-.104.06-.224-.148-.18-.311.088-.327.295-.447.421-.588.081.022.141.125.076.37-.066.246-.214.469-.317.529zm-1.081 5.668c-.104.06-.245-.065-.223-.147.022-.082.229-.202.332-.261.104-.06.164.043.142.125-.022.082-.147.223-.251.283zm3.497-11.417c-.185.038-.245-.065-.223-.147.022-.082.147-.224.333-.261.103-.06.163.043.141.125-.022.082-.147.223-.251.283zm-1.916 11.403c-.185.038-.327-.088-.164-.044.126-.142.088-.327-.032-.534-.097-.29-.097-.29.066-.245.038.185.223.147.409.109.311-.18.289-.098.201.23-.065.244-.213.468-.48.484zm9.435 1.74c-.126.14-.208.119-.268.015-.141-.125-.185.038-.392.158-.044.163-.229.201-.393.158-.163-.044-.06-.104.169-.305.519-.3 1.216-.288.884-.027zm.936-3.167c.043-.163.333-.261.518-.3.267-.015.616-.01.801-.047.104-.06-.022.081-.518.299-1.074.413-1.074.413-.801.048zm.754 2.743c-.125.142-.207.12-.207.12-.082-.022-.164-.044-.12-.208-.06-.103.022-.081.186-.037.163.043.245.065.141.125zm1.165-3.368c.17-.305.437-.32.6-.277.246.066.305.17.202.23-.022.081-.311.179-.518.298-.371.076-.453.055-.284-.25zm.548 2.863c-.142-.125-.513-.05-.846.212-.251.283-.54.38-.518.299.044-.163.377-.425.688-.604.496-.218.681-.256.697.011.038.186-.043.164-.021.082zm1.077-3.04c-.163-.044-.223-.148-.179-.312.043-.163.169-.305.333-.26.081.021.223.147.179.31-.022.082-.207.12-.333.261zm11.636-15.633c-.273.365-.524.648-.546.73-.022.082-.273.365-.524.648-3.139 3.54-9.968 6.792-20.095 9.598-4.27 1.222-4.025 1.287-3.166-.936.426-.937 1.087-2.424 1.388-3.22.361-.692 1.706-3.749 2.947-6.746 1.322-2.975 2.432-5.481 2.432-5.481.104-.06 4.067-.137 4.661-.065 4.797.409 8.602 1.253 11.108 2.363 2.73 1.257 2.887 1.65 1.795 3.11zm-31.641 27.182c-.125.142-.251.284-.317.529-.065.245-.027.43.098.289.164.044.333-.262.377-.425.066-.245.006-.349-.158-.393zm-1.593.712c.17-.305.192-.386-.141-.125-.186.038-.421.588-.552 1.079-.235.55-.159.92-.056.861.104-.06.289-.098.333-.261.044-.164.192-.387.273-.365.104-.06.148-.224.05-.513-.038-.185-.032-.534.093-.676zm2.517-3.18c-.081-.022-.289.098-.376.425-.044.163.076.37.179.31a.641.641 0 00.273-.364c.044-.164.006-.35-.076-.371zm-.673 2.185c.104-.06.148-.223.11-.409-.038-.185-.12-.207-.207.12-.044.163-.006.349.097.29zm.783-2.594c-.022.082.038.186.12.207l.163.044c.022-.082-.038-.185-.098-.289-.059-.104-.163-.044-.185.038zm3.438-3.021c-.333.26-.333.26-.245-.066.066-.245.066-.245-.164-.044-.207.12-.332.261-.354.343a.182.182 0 00.119.207c.246.066.764-.233.83-.478.043-.164-.06-.104-.186.038zM98.778 34.68c.104-.06.191-.387.131-.49-.038-.186-.081-.023-.147.222-.088.327-.11.41.016.268zm4.188-1.244c-.125.142-.006.35.218.496.223.148.387.192.387.192s.043-.164.027-.43c.028-.431-.359-.623-.632-.258zm-1.352 4.72c-.104.06-.229.201-.251.283-.022.082.038.185.142.125.185-.038.311-.18.332-.26.022-.083-.037-.186-.223-.148zm-.476 1.45s-.207.119-.229.2c-.126.142-.148.224.016.268.082.022.185-.038.229-.202.022-.081.066-.245-.016-.267zm-.42.587c-.082-.021-.148.224-.192.387-.065.246-.109.41-.027.431.081.022.207-.12.273-.365.043-.163.027-.43-.054-.453zm92.443-30.078c-1.105-1.435-1.187-1.457-1.645-1.054-.251.283-.355.343-.245-.066-.06-.103-.076-.37-.24-.414-.103.06-.119-.208-.032-.535.05-.512-.032-.534-.381-.54-.371.076-.512-.05-.588-.42-.218-.497-1.883-2.783-2.314-2.81-.163-.045-.305-.17-.261-.334-.136-.474-1.156.392-2.374 1.993-.753.85-1.195 1.52-1.217 1.601a15.98 15.98 0 01-1.651-.705c-5.58-2.722-12.863-3.008-19.407-.82-3.78 1.354-9.022 4.242-11.402 6.584-1.397 1.29-1.714 1.818-2.146 3.104-.411 1.205-.095 1.99 1.716 5.367a244.23 244.23 0 012.306 4.473c1.251 2.526 1.937 3.235 5.309 5.365 2.255 1.393 3.944 2.284 7.328 3.716 2.098 1 4.778 2.77 4.952 3.43.369 1.238-2.072 4.79-4.757 6.961-1.708 1.47-4.818 3.265-7.234 4.108-1.816.564-4.352 1.2-5.317 1.203-.289.098-.987.087-1.521.119-.556.113-1.336.08-1.543.2-1.15.042-5.265-.623-6.551-1.055-1.308-.35-1.51-.58-2.848-2.778l-.659-1.14-.458.402c-.688.605-.705 1.651-.189 2.666.218.496 1.056 1.948 1.752 3.273.882 1.288 1.817 3.028 2.296 3.857.935 1.74 1.665 2.286 4.134 3.21a46.17 46.17 0 004.071.829c3.974.539 6.645.378 10.507-.953 6.648-2.249 12.946-8.096 13.6-12.828.303-2.109-.316-4.378-2.127-7.754-.397-.807-1.153-2.237-1.588-3.23-1.327-2.896-4.827-7.163-6.097-7.328-.164-.044-.387-.192-.365-.273.006-.35-1.438-1.174-4.636-2.645-2.589-1.131-5.334-2.655-5.291-2.819.094-.676 4.977-4.186 7.688-5.475 2.526-1.25 3.578-1.582 5.721-2.06 2.907-.71 5.497-.892 7.71-.65.431.028.883-.026.927-.19 0 0 .163.044.387.192.163.044.55.235.877.322.431.028.485.48.048.802-.104.06-.508.915-.934 1.852-.389 1.123-.815 2.06-.984 2.365-.17.305-.509.915-.596 1.242-.335 1.576-.554 2.393-.45 2.333.126-.141.387.192.73.546.343.355.686.71.849.754.082.021.224.147.306.169.016.267 1.699 1.507 2.107 1.616.082.022.387.191.551.235.283.251.698.012 1.124-.925l.464-.752-.279.714c-.695 2.267-.619 2.638-.013 2.012.355-.343.355-.343.255.681-.049.513.479.83.529.317.131-.49.578-.195.506.399-.011.697-.011.697.343.354.377-.424 1.126-2.239 1.028-2.528-.06-.103-.016-.267.148-.223 0 0 .759-1.199 1.502-2.664 1.044-2.261 4.36-7.769 6.402-10.814.907-1.422.913-1.77.167-2.584zm-34.314 5.438c-.147.223-.354.343-.436.321-.082-.022.044-.164.436-.321.333-.261.333-.261 0 0zm24.469 7.432c-.366 1.041-.573 1.161-.857.91-.321-.437-.255-.682.132-.49a.187.187 0 00.311-.18c.044-.164.235-.55.36-.692.23-.202.208-.12.054.452zm.727-1.732c-.191.387-.191.387-.163-.044.066-.245.131-.49.339-.61.022-.082.185-.038.163.044-.044.163-.191.386-.339.61zm.891-1.69c-.251.284-.251.284-.163-.043.043-.163.191-.387.257-.632.229-.202.311-.18.267-.016-.066.245-.154.572-.361.692zm8.15-8.505c-.082-.022-.142-.125-.076-.37.207-.12.251-.284.333-.262 0 0 .037.185-.006.349.016.267-.088.327-.251.283zm20.463-4.417c-.06-.104-.773-.383-1.384-.722-1.04-.366-1.308-.35-1.537-.149-.169.305-.72.07-.915-.508-.158-.393-.239-.414-.55-.235-.311.18-.453.054-.96-.345-.424-.376-1.116-.737-2.179-1.022l-1.553-.416-.7 1.302c-.36.692-1.103 2.158-1.677 3.318-.41 1.205-1.367 3.139-1.903 4.485-1.492 3.28-3.936 9.46-7.333 18.537-.454 1.368-1.011 2.796-1.121 3.205-2.663 6.996-6.033 16.958-5.832 17.187.12.207.201.23.223.148.044-.164.082.021.284.25.135.475.299.519 1.28.782.654.175 1.352.187 1.7.193.393-.158.535-.032.343.354-.125.142-.021.082.164.044.311-.18.333-.261.153-.572-.097-.29-.054-.453.612-.975.437-.321.933-.539 1.015-.517.081.022.06.104-.022.082-.186.038-.311.18-.251.283-.022.082-.066.245-.23.202-.081-.022-.185.038-.169.305.06.103-.028.43-.235.55-.311.18-.251.283.054.453.588.42.899.24 1.042-.948.176-.654.345-.959.427-.937.305.17.803-1.362.585-1.858-.038-.186-.016-.267.066-.245.163.043.289-.098.377-.425.065-.245.344-.96.661-1.488.257-.632.432-1.286.432-1.286-.038-.185.066-.245.251-.283.349.006.415-.24.568-.812.028-.43.198-.735.323-.877.185-.038.207-.12.11-.409-.158-.392-.054-.452.354-.343.082.022.164.044.208-.12.043-.163-.038-.185-.202-.229-.082-.022-.098-.289.11-.408.087-.327.273-.365.273-.365.163.044.295-.447.404-.856.235-.55.58-1.51.881-2.305.3-.795.645-1.754.755-2.163.131-.49.3-.796.3-.796.327.088.19.927-.274 1.68-.213.468-.667 1.835-1.1 3.121-.35 1.308-.842 2.49-.864 2.573-.104.06-.191.386-.153.572.037.185-.11.409-.317.528-.23.202-.192.387.01.616.283.252.283.252-.066.246-.245-.066-.289.097-.705 1.65-.472 2.415-.434 2.6-.248 2.563.163.043.201.229.135.474-.065.245-.197.736-.181 1.003-.006.349-.137.84-.388 1.123-.088.326-.154.572-.094.675.06.104-.006.35-.279.714-.442.67-.344.96.152.742.415-.24 1.005-1.133.634-1.057-.082-.022-.164-.044-.12-.207.022-.082.126-.142.207-.12.082.022.273-.365.301-.796.11-.408.323-.877.427-.937.332-.261.639-1.405.35-1.308-.207.12-.12-.207.257-.632.147-.223.339-.61.426-.937.17-.305.383-.774.552-1.079.148-.223.492-1.182.815-2.06.323-.877.623-1.672.727-1.732.044-.164.044-.164-.12-.208-.163-.043-.119-.207.088-.327.229-.201.421-.588 1.088-2.424.044-.164.251-.283.333-.261.081.021.141.125.038.185-.022.082-.427.937-.69 1.918-.404.855-.902 2.387-1.225 3.264-.3.796-.792 1.978-.99 2.714a32.997 32.997 0 01-1.318 3.94c-.361.692-.405.855-.137.84.185-.039.458-.404.611-.976.11-.409.345-.959.492-1.182.126-.142.214-.469.257-.632.022-.082.176-.654.367-1.041.213-.469.639-1.406.836-2.142.279-.714 1.373-3.487 2.445-6.179 1.093-2.773 2.143-5.384 2.253-5.792.536-1.346 3.018-7.34 3.679-8.828.727-1.732 3.062-7.503 3.538-8.952 1.931-4.916 3.348-9.88 3.049-10.398zm-20.375 38.436c.191-.386.251-.283.076.371-.11.409-.301.796-.464.752-.164-.044.011-.698.388-1.123zm-1.942 5.613c-.207.12-.185.038.006-.349.147-.223.251-.283.289-.097-.044.163-.088.327-.295.446zm.765-1.547c-.518.3-.518.3-.327-.088.207-.12.317-.528.383-.773.087-.327.169-.305.185-.038.038.185.076.37.136.474.06.104-.066.245-.377.425zm7.006-13.719c.071-.594.459-1.717.541-1.695.082.022.333-.261.443-.67.169-.305.081.022-.241.9-.373 1.39-.733 2.081-.743 1.465zm-2.609 11.042c-.163-.044-.223-.148-.179-.311.044-.163.125-.142.267-.016.06.104.12.207.098.289 0 0-.104.06-.186.038zm.416-1.553c-.185.038-.245-.066-.223-.148.044-.163.17-.305.333-.261.104-.06.185-.038.164.044a.647.647 0 01-.274.365zm4.002-13.297l-.295.446-.032-.534c.011-.698.514-1.264.546-.73a1.45 1.45 0 01-.219.818zm.946-2.55c-.257.631-.492 1.182-.596 1.242-.207.12.482-1.799.733-2.082.169-.305.164.044-.137.84zm-1.452 10.65c-.164-.044.181-1.003.492-1.182 0 0 .038.185-.072.594-.087.327-.257.632-.42.588zm.683-1.57c-.082-.021-.12-.206-.016-.266.126-.142.229-.202.311-.18 0 0 .06.104.016.267-.022.082-.147.224-.311.18zm.683-1.568c-.289.097-.135-.475.263-.981.273-.365.251-.284.12.207-.028.43-.279.714-.383.774zm.787-1.63a.645.645 0 01-.452.054c-.245-.065-.12-.207.229-.201.185-.038.349.006.223.148zm-8.153 16.04c.082.022.208-.12.273-.365.066-.245.028-.43-.054-.452-.081-.022-.207.12-.273.365-.065.245-.027.43.054.452zm-2.293 11.828c-.163-.044-.386-.192-.446-.295-.038-.186-.589-.42-1.139-.656-.899-.24-1.003-.18-1.068.064-.11.409-.192.387-.535.032-.201-.229-.484-.48-.544-.584.044-.163-.365-.273-.736-.197-.409-.11-.654-.175-.632-.257.066-.245-1.705-1.157-3.133-1.715-.981-.263-1.308-.35-1.64-.09-.437.322-1.35 2.092-2.525 4.844-.426.937-1.132 2.588-1.58 3.607-.749 1.815-.771 1.896-.472 2.415.3.518.627.606 3.406 1.35 2.431.74 3.188.855 3.336.631.436-.321.921.16.648.524-.148.224-.088.327.098.29.185-.039.289-.098.333-.262.027-.43.496-.217.528.317-.028.43.909.857.937.426.044-.163.17-.305.251-.283.164.044.12.207.054.453-.213.468.196.578.572.153.148-.223.869-1.607 1.612-3.073.662-1.487 1.662-3.585 2.252-4.478.978-2.016 1.099-3.123.423-3.216zm-5.14 4.142c-.185.038-.245-.066-.223-.147.022-.082.147-.224.333-.262.103-.06.163.044.141.126-.022.082-.147.223-.251.283zm4.867-3.777c-.245-.066-.327-.088-.141-.126.185-.038.349.006.409.11.059.103-.044.163-.268.016zm1.528-10.28c.098.289.032.534-.071.594-.104.06-.126.141.038.185.163.044.332-.261.398-.506.088-.327.219-.818.367-1.041.147-.224.153-.572.011-.698-.081-.022-.163-.044-.021.082-.022.081-.088.327-.317.528-.437.321-.503.567-.405.856z" fill="#DCDCDC"/></svg>