<svg width="1220" height="773" viewBox="0 0 1220 773" fill="none" xmlns="http://www.w3.org/2000/svg">
<path d="M-270.631 301.334C-327.883 346.96 -198.17 427.03 -160.911 431.21C-114.225 436.446 -30.3303 385.325 6.58564 360.438C68.8626 318.454 126.301 279.72 177.448 223.653C208.68 189.416 254.128 121.839 252.095 72.2719C251.042 46.6081 243.6 -6.31817 206.891 1.50155C101.698 23.9096 92.4045 166.886 148.868 237.737C187.828 286.625 244.372 313.832 307.705 309.842C398.481 304.123 484.512 291.652 576.158 297.076C767.15 308.382 694.539 516.767 647.753 631.186C572.43 815.396 832.168 674.898 895.46 654.822C966.835 632.181 1066.35 622.721 1130.13 671.462C1171.42 703.022 1187.78 740.679 1218.81 779.613" stroke="white" stroke-opacity="0.11"/>
</svg>
