<svg width="212" height="480" viewBox="0 0 212 480" fill="none" xmlns="http://www.w3.org/2000/svg">
<path d="M31.8871 541.819C7.27428 555.18 -1.64164 497.428 2.43317 483.659C7.53892 466.406 38.0569 444.471 52.3291 435.177C76.4062 419.498 98.6171 405.04 126.002 395.397C142.725 389.509 173.32 383.601 190.494 391.743C199.386 395.959 216.939 406.513 208.715 418.291C185.15 452.041 133.354 433.9 116.78 403.369C105.345 382.302 104.172 358.28 115.01 336.537C130.544 305.372 147.753 276.894 159.487 243.753C183.943 174.687 99.6552 169.082 52.3449 168.445C-23.8228 167.419 64.3944 96.8445 80.8983 77.5258C99.5097 55.7403 117.665 22.0522 109.977 -7.74654C104.998 -27.0414 94.1559 -38.4514 85.0487 -55.2287" stroke="white" stroke-opacity="0.11"/>
</svg>
