<svg width="163" height="251" viewBox="0 0 163 251" fill="none" xmlns="http://www.w3.org/2000/svg">
<path d="M-220 425.463C-218.093 365.377 -228.924 258.966 -154.243 233.025C-133.005 225.647 -108.62 222.011 -86.3497 218.974C-73.5578 217.229 -47.6145 216.803 -36.8912 208.633C-1.95607 182.015 5.51217 137.032 6.72223 95.8897C8.10129 49.0016 42.5137 25.646 87.2047 23.1632C104.752 22.1883 131.307 30.2573 143.52 13.8335C153.067 0.993796 153.265 -9.26038 149.14 -24.3844C144.764 -40.4302 138.997 -42.6881 126.209 -52.7106C114.936 -61.5467 113.185 -80.4083 110.248 -93.6263C108.204 -102.822 154.548 -99.6944 162.404 -98.5721" stroke="white" stroke-opacity="0.2"/>
</svg>
