<svg width="70" height="65" fill="none" xmlns="http://www.w3.org/2000/svg"><g clip-path="url(#clip0_6159_19490)" fill="#EC008C"><path d="M34.342 28.251c-.942-1.692-1.895-3.276-2.724-4.925-1.623-3.234-2.67-6.672-3.027-10.26-.276-2.761.624-5.311 2.317-7.497C34.15 1.392 38.463-.17 43.648.912c4.716.986 8.378 4.97 9.26 9.795.387 2.11-.113 4.121-.593 6.132-.945 3.937-2.59 7.573-4.88 10.922-.086.126-.162.26-.291.469 1.434.389 2.805.869 4.217 1.11 1.47.252 2.215 1.035 2.836 2.349C59.095 42.015 64.074 52.3 69.029 62.6c.124.26.275.523.324.802.143.804-.619 1.365-1.515 1.115-2.028-.563-4.05-1.145-6.073-1.718-5.041-1.43-10.077-2.867-15.123-4.277a2.403 2.403 0 00-1.226 0c-6.98 1.957-13.952 3.947-20.935 5.902a2.91 2.91 0 01-1.501.002c-7.158-2.006-14.305-4.038-21.456-6.07-1.193-.338-1.433-.893-.855-1.98 5.133-9.642 10.268-19.281 15.404-28.921.478-.898.75-1.019 1.725-.759 3.57.95 7.134 1.91 10.71 2.845.304.08.666.075.974-.003 1.623-.407 3.237-.852 4.86-1.284v-.003zm-6.575 3.35c-.145-.06-.224-.102-.307-.124-3.092-.831-6.184-1.652-9.27-2.504-.462-.13-.573.104-.74.415-4.72 8.878-9.445 17.751-14.168 26.627-.089.166-.156.343-.254.565 6.635 1.88 13.204 3.744 19.82 5.618 1.644-10.238 3.278-20.39 4.917-30.598h.002zm9.386.656c-.413-.603-.837-1.153-1.182-1.75-.22-.381-.47-.392-.827-.293-1.574.437-3.148.874-4.73 1.28-.357.09-.508.222-.568.597-.602 3.826-1.228 7.648-1.846 11.471-.794 4.923-1.585 9.846-2.374 14.77-.197 1.22-.383 2.442-.588 3.748 6.631-1.882 13.165-3.738 19.754-5.61l-2.757-15.584c-.74 0-1.39.03-2.036-.005-2.241-.124-4.344-.66-6.1-2.14-1.42-1.196-1.75-2.762-.777-3.998.416-.53.983-.987 1.566-1.333.761-.45 1.61-.761 2.468-1.153h-.003zm29.119 29.606c-.087-.22-.127-.34-.181-.456-4.701-9.774-9.4-19.545-14.114-29.31-.1-.21-.332-.438-.548-.5a167.172 167.172 0 00-5.12-1.38c-.18-.046-.5.059-.61.204-.445.581-.837 1.204-1.274 1.855.224.072.42.107.591.193.915.453 1.92.797 2.716 1.405 1.693 1.293 1.785 3.379.203 4.792-.726.652-1.69 1.054-2.573 1.515-.362.19-.8.241-1.202.357.014.187.008.321.033.45.88 4.926 1.776 9.852 2.627 14.783.089.523.316.68.772.81 4.976 1.4 9.947 2.82 14.918 4.23 1.22.347 2.444.684 3.756 1.05l.006.002zm-25.5-28.246c.55-.743 1.036-1.376 1.5-2.025 2.893-4.06 5.56-8.253 7.359-12.921.918-2.384 1.577-4.824 1.172-7.428-.686-4.419-4.267-7.932-8.665-8.476-4.55-.563-8.868 1.899-10.66 6.052-1.202 2.783-.93 5.567-.036 8.347 1.375 4.282 3.632 8.12 6.105 11.841 1.021 1.534 2.112 3.022 3.227 4.61h-.003zm.043 5.306c.013-.056.03-.112.043-.169.58-.048 1.166-.07 1.744-.152 1.267-.183 2.536-.4 3.608-1.164.953-.679.972-1.569-.046-2.121-.85-.459-1.818-.716-2.752-1.008-.175-.054-.491.088-.637.238-.416.435-.748.95-1.17 1.376-.596.603-1.077.598-1.67-.022-.4-.418-.71-.92-1.108-1.34-.143-.153-.443-.29-.632-.25-.631.137-1.26.314-1.857.555-.708.285-1.529.609-1.529 1.502 0 .882.794 1.306 1.515 1.51 1.474.42 2.992.705 4.49 1.045z"/><path d="M40.788 18.974c-3.413 0-6.176-2.725-6.184-6.098-.008-3.408 2.765-6.143 6.216-6.13a6.165 6.165 0 016.16 6.2c-.012 3.309-2.806 6.03-6.192 6.028zm0-2.301c2.2 0 4.058-1.794 4.047-3.907-.01-2.126-1.863-3.917-4.045-3.917-2.206 0-4.042 1.78-4.036 3.91.005 2.133 1.838 3.911 4.034 3.914z"/></g><defs><clipPath id="clip0_6159_19490"><path fill="#fff" transform="translate(.369 .58)" d="M0 0h69v64H0z"/></clipPath></defs></svg>