<svg width="61" height="61" fill="none" xmlns="http://www.w3.org/2000/svg"><g clip-path="url(#clip0_6159_19451)" fill="#EC008C"><path d="M38.097 60.364c-2.215.026-4.663-.905-7.044-2.161C18.039 51.327 8.399 41.184 1.847 28.057-.75 22.856.275 16.625 4.34 12.38c.825-.86 1.671-1.7 2.524-2.532 1.443-1.406 3.44-1.406 4.867 0 3.088 3.068 6.166 6.147 9.234 9.238 1.44 1.449 1.42 3.444-.02 4.923-1.22 1.24-2.459 2.459-3.684 3.692-1.09 1.097-1.2 2.126-.347 3.406.541.811 1.113 1.603 1.678 2.398.52.731.485 1.425-.108 1.856-.593.432-1.265.235-1.76-.44-.649-.903-1.3-1.807-1.907-2.738-1.275-1.955-1.036-4.28.602-5.952 1.23-1.254 2.484-2.487 3.723-3.732.72-.722.727-1.172.021-1.891a6862.93 6862.93 0 00-8.946-8.95c-.684-.685-1.153-.675-1.844.012-.747.743-1.502 1.481-2.235 2.238C2.567 17.584 1.8 22.816 4.11 27.375c3.789 7.483 8.719 14.093 14.966 19.69a61.918 61.918 0 0014.635 9.816 11.477 11.477 0 0012.839-2.002c.897-.842 1.755-1.726 2.617-2.602.56-.57.558-1.11-.014-1.683-3.032-3.043-6.07-6.081-9.113-9.114-.574-.575-1.1-.563-1.677 0-1.25 1.237-2.484 2.49-3.73 3.727-1.814 1.795-4.11 2.037-6.224.6-1.308-.886-2.578-1.84-3.836-2.785-.675-.506-.806-1.219-.377-1.774.428-.556 1.113-.593 1.809-.08 1.241.912 2.479 1.833 3.749 2.712 1.115.776 2.202.668 3.177-.288 1.242-1.217 2.46-2.457 3.69-3.683 1.617-1.61 3.558-1.624 5.156-.026 2.999 2.993 5.994 5.99 8.986 8.992 1.575 1.578 1.577 3.545 0 5.125-.991.996-1.966 2.016-3.018 2.944-2.514 2.22-5.788 3.42-9.65 3.42zM35.327.355c10.03.185 19.474 6.753 23.198 16.134a26.19 26.19 0 011.889 9.527c0 .827-.483 1.369-1.2 1.35-.67-.017-1.132-.52-1.141-1.294a21.483 21.483 0 00-.959-6.458c-2.99-9.116-9.178-14.677-18.6-16.557-1.198-.234-2.44-.267-3.663-.347-.906-.06-1.438-.468-1.44-1.186-.003-.717.555-1.172 1.497-1.172l.42.003z"/><path d="M35.102 7.42c9.103.2 16.871 7.15 18.078 16.174.105.793.164 1.592.194 2.391.033.835-.468 1.38-1.171 1.376-.703-.005-1.13-.513-1.172-1.331-.286-6.587-3.322-11.46-9.138-14.557-2.11-1.128-4.415-1.641-6.796-1.728-.194 0-.391 0-.585-.02a1.15 1.15 0 01-1.08-1.107 1.151 1.151 0 01.979-1.2c.23-.02.461-.018.691.002z"/><path d="M46.329 25.889c.035 1.125-.816 1.805-1.697 1.355-.52-.265-.625-.734-.654-1.275-.161-3.308-1.617-5.893-4.389-7.712a9.256 9.256 0 00-4.805-1.46c-.877-.036-1.376-.47-1.364-1.19.012-.719.572-1.171 1.46-1.15a11.784 11.784 0 0111.449 11.432zm-7.065.105c.035.779-.37 1.304-1.05 1.367-.68.063-1.172-.375-1.275-1.15-.215-1.524-.836-2.15-2.343-2.361-.78-.11-1.22-.589-1.172-1.266.05-.678.581-1.093 1.355-1.062a4.664 4.664 0 014.485 4.473zM22.383 38.43a1.172 1.172 0 01-1.171 1.153 1.17 1.17 0 01-1.158-1.22 1.148 1.148 0 011.198-1.11 1.127 1.127 0 011.131 1.177z"/></g><defs><clipPath id="clip0_6159_19451"><path fill="#fff" transform="translate(.423 .357)" d="M0 0h60v60H0z"/></clipPath></defs></svg>