<svg width="118" height="137" viewBox="0 0 118 137" fill="none" xmlns="http://www.w3.org/2000/svg">
<path d="M1.53802 136.755H2.33832V132.214H3.76306V131.506H0.113281V132.214H1.53802V136.755Z" fill="url(#paint0_linear_260_1270)"/>
<path d="M12.3903 131.506H11.7307L9.83984 136.755H10.6753L11.0711 135.587H13.0499L13.4545 136.755H14.29L12.3991 131.506H12.3903ZM11.2997 134.879L12.0561 132.586H12.0649L12.8212 134.879H11.2909H11.2997Z" fill="url(#paint1_linear_260_1270)"/>
<path d="M22.1804 132.64C22.2683 132.534 22.3739 132.445 22.5058 132.365C22.6377 132.295 22.796 132.259 22.9895 132.25C23.2445 132.25 23.4556 132.33 23.6315 132.472C23.7986 132.622 23.9217 132.799 23.9833 133.012H24.8188C24.7309 132.569 24.5374 132.206 24.2208 131.905C23.9042 131.613 23.4908 131.462 22.9895 131.454C22.5761 131.454 22.2331 131.56 21.9605 131.746C21.6791 131.932 21.4768 132.153 21.3537 132.392C21.2745 132.516 21.2129 132.684 21.1778 132.896C21.1426 133.1 21.125 133.507 21.125 134.118C21.125 134.729 21.1426 135.127 21.1778 135.34C21.1954 135.455 21.2218 135.543 21.2481 135.623C21.2833 135.694 21.3097 135.773 21.3537 135.853C21.4768 136.092 21.6791 136.313 21.9605 136.49C22.2331 136.685 22.5761 136.782 22.9895 136.791C23.5172 136.782 23.9657 136.596 24.3087 136.251C24.6605 135.897 24.8364 135.455 24.8452 134.932V133.861H22.9895V134.614H24.0537V134.888C24.0537 135.216 23.9481 135.481 23.7459 135.685C23.5436 135.897 23.2885 136.003 22.9807 136.003C22.796 136.003 22.6377 135.968 22.497 135.888C22.3651 135.818 22.2507 135.738 22.1716 135.623C22.066 135.508 22.0045 135.366 21.9693 135.18C21.9341 134.994 21.9077 134.649 21.9077 134.136C21.9077 133.622 21.9253 133.268 21.9693 133.082C22.0045 132.905 22.0748 132.764 22.1716 132.649L22.1804 132.64Z" fill="url(#paint2_linear_260_1270)"/>
<path d="M34.7109 131.506V136.755H38.0354V136.003H35.4937V131.506H34.7109Z" fill="url(#paint3_linear_260_1270)"/>
<path d="M46.1724 131.506H45.3809V136.755H46.1724V131.506Z" fill="url(#paint4_linear_260_1270)"/>
<path d="M53.8574 131.506V136.755H54.6489V133.029H54.6665L57.0235 136.755H57.7711V131.506H56.9795V135.242H56.9619L54.605 131.506H53.8574Z" fill="url(#paint5_linear_260_1270)"/>
<path d="M68.8 132.259V131.506H65.4668V136.755H68.8V136.003H66.2583V134.463H68.4306V133.755H66.2583V132.259H68.8Z" fill="url(#paint6_linear_260_1270)"/>
<path d="M84.7358 136.755V131.506H83.9442V133.755H81.8775V131.506H81.0859V136.755H81.8775V134.463H83.9442V136.755H84.7358Z" fill="url(#paint7_linear_260_1270)"/>
<path d="M95.7648 132.259V131.506H92.4316V136.755H95.7648V136.003H93.2232V134.463H95.3867V133.755H93.2232V132.259H95.7648Z" fill="url(#paint8_linear_260_1270)"/>
<path d="M105.713 134.427C106.372 134.171 106.715 133.684 106.724 132.976C106.706 132.489 106.539 132.117 106.205 131.852C105.924 131.621 105.572 131.506 105.141 131.506H103.109V136.755H103.901V134.516H104.912L105.994 136.755H106.935L105.721 134.427H105.713ZM103.901 133.808V132.214H105.141C105.396 132.214 105.589 132.268 105.721 132.383C105.888 132.507 105.976 132.701 105.985 132.976C105.985 133.197 105.915 133.392 105.765 133.551C105.625 133.719 105.396 133.808 105.106 133.808H103.91H103.901Z" fill="url(#paint9_linear_260_1270)"/>
<path d="M117.497 132.259V131.506H114.164V136.755H117.497V136.003H114.956V134.463H117.128V133.755H114.956V132.259H117.497Z" fill="url(#paint10_linear_260_1270)"/>
<path d="M5.62754 125.319C6.82362 125.319 7.88778 125.001 8.81123 124.363C9.74347 123.726 10.3855 122.841 10.7549 121.708H7.63276C7.22821 122.496 6.56857 122.894 5.6715 122.894C4.77444 122.894 4.06209 122.611 3.552 122.044C3.03311 121.478 2.77806 120.725 2.77806 119.778C2.77806 118.831 3.03311 118.078 3.552 117.512C4.07089 116.945 4.77444 116.662 5.6715 116.662C6.56857 116.662 7.22821 117.061 7.63276 117.848H10.7549C10.3855 116.715 9.73468 115.83 8.81123 115.193C7.87899 114.555 6.81483 114.237 5.62754 114.237C4.08846 114.237 2.77804 114.759 1.71387 115.804C0.649713 116.848 0.113281 118.167 0.113281 119.778C0.113281 121.389 0.649713 122.708 1.71387 123.752C2.77804 124.797 4.08846 125.319 5.62754 125.319Z" fill="url(#paint11_linear_260_1270)"/>
<path d="M28.9681 119.787C28.9681 118.185 28.4403 116.857 27.385 115.812C26.3296 114.768 25.028 114.246 23.4801 114.246C21.9322 114.246 20.6218 114.768 19.5577 115.812C18.4935 116.857 17.957 118.176 17.957 119.787C17.957 121.398 18.4935 122.717 19.5577 123.77C20.6218 124.815 21.9323 125.346 23.4713 125.346C25.0104 125.346 26.312 124.823 27.3762 123.77C28.4404 122.726 28.9681 121.398 28.9681 119.787ZM25.5293 122.053C25.0104 122.619 24.3244 122.903 23.4625 122.903C22.6007 122.903 21.9058 122.619 21.3957 122.053C20.8769 121.486 20.6218 120.734 20.6218 119.787C20.6218 118.84 20.8769 118.087 21.3957 117.521C21.9146 116.954 22.6007 116.671 23.4625 116.671C24.3244 116.671 25.0192 116.954 25.5293 117.521C26.0482 118.087 26.3032 118.84 26.3032 119.787C26.3032 120.734 26.0482 121.486 25.5293 122.053Z" fill="url(#paint12_linear_260_1270)"/>
<path d="M48.9678 114.405H45.96L42.8819 121.867L39.7861 114.405H36.7871V125.231H39.408V119.123L41.9056 125.231H43.8493L46.347 119.123V125.231H48.9678V114.405Z" fill="url(#paint13_linear_260_1270)"/>
<path d="M60.0134 121.017H61.6404C62.388 121.017 63.03 120.911 63.5753 120.69C64.1206 120.468 64.5339 120.185 64.8066 119.831C65.3255 119.149 65.5893 118.45 65.5893 117.715C65.5893 116.804 65.2375 116.016 64.5515 115.37C63.8567 114.724 62.8893 114.396 61.6404 114.396H57.3926V125.222H60.0134V121.008V121.017ZM60.0134 116.405H61.6404C62.0274 116.405 62.344 116.529 62.5727 116.777C62.8101 117.025 62.9245 117.344 62.9245 117.724C62.9245 118.105 62.8102 118.424 62.5815 118.654C62.3528 118.893 62.0362 119.008 61.6404 119.008H60.0134V116.405Z" fill="url(#paint14_linear_260_1270)"/>
<path d="M76.0288 114.369L72.291 125.231H75.079L75.677 123.407H79.5379L80.136 125.231H82.9415L79.2213 114.369H76.0376H76.0288ZM76.3366 121.407L77.6119 117.547L78.8871 121.407H76.3454H76.3366Z" fill="url(#paint15_linear_260_1270)"/>
<path d="M99.9789 125.231V114.369H97.358V121.203L92.9782 114.369H90.3574V125.231H92.9782V118.397L97.358 125.231H99.9789Z" fill="url(#paint16_linear_260_1270)"/>
<path d="M111.208 121.743V125.231H113.829V121.743L117.558 114.405H114.586L112.528 119.291L110.461 114.405H107.488L111.208 121.743Z" fill="url(#paint17_linear_260_1270)"/>
<path d="M65.9945 14.0081C67.6479 16.3449 68.9847 18.9208 69.9434 21.6825C71.1394 21.8419 72.3268 22.0632 73.4789 22.3376C73.6723 22.3818 73.8658 22.4349 74.0593 22.4792C74.1033 22.4881 74.1561 22.5058 74.2 22.5146C74.4463 22.5766 74.6925 22.6474 74.9388 22.7182C74.9388 22.7182 74.9388 22.7182 74.9476 22.7182C75.185 22.7802 75.4225 22.851 75.6511 22.9306C75.8534 22.9926 76.0557 23.0546 76.258 23.1254C76.469 23.1962 76.6713 23.267 76.8824 23.3378C77.0759 23.3998 77.2694 23.4706 77.4628 23.5503C77.6563 23.6211 77.841 23.6919 78.0345 23.7716C79.1515 24.2053 80.242 24.701 81.2974 25.2498C81.5524 25.3826 81.7987 25.5065 82.0449 25.6481C82.4671 25.8783 82.8804 26.1173 83.2938 26.3651C83.4697 26.4714 83.6456 26.5776 83.8127 26.6838C83.8918 26.7281 83.9797 26.7812 84.0589 26.8343C84.2436 26.9494 84.4283 27.0733 84.6042 27.1972C84.7801 27.3123 84.956 27.4273 85.1231 27.5513C87.1459 28.941 89.0104 30.552 90.699 32.3312C90.9012 32.5348 91.0859 32.7384 91.2706 32.9509C91.4289 33.119 91.5784 33.2961 91.7279 33.4643C91.9742 33.7475 92.2116 34.0308 92.4491 34.3229C92.5986 34.4911 92.7305 34.6681 92.8712 34.8451C93.0559 35.0841 93.2406 35.3231 93.4165 35.5621C93.5836 35.7923 93.7507 36.0224 93.909 36.2526C94.0761 36.4827 94.2344 36.7129 94.3927 36.9519C94.7093 37.421 95.0084 37.8901 95.2986 38.377C95.4481 38.616 95.5888 38.8638 95.7295 39.1117C95.8702 39.3595 96.011 39.6074 96.1429 39.8552C96.4331 40.3952 96.7145 40.944 96.9696 41.4928C97.0751 41.7141 97.1807 41.9354 97.2774 42.1567C97.3741 42.378 97.4709 42.5993 97.5676 42.8206C97.6556 43.0153 97.7347 43.2101 97.8139 43.4137C97.8842 43.5995 97.9634 43.7766 98.0337 43.9625C98.2096 44.4228 98.3855 44.8919 98.535 45.361C98.6318 45.6355 98.7197 45.9099 98.7989 46.1843C98.7989 46.1843 98.7989 46.202 98.8077 46.2197C98.8868 46.4852 98.966 46.7508 99.0363 47.0163C99.2562 47.7776 99.4409 48.5477 99.608 49.3266C99.6519 49.5214 99.6871 49.725 99.7311 49.9197C99.7487 50.0348 99.7751 50.1499 99.7927 50.2561C99.8191 50.4066 99.8455 50.557 99.8719 50.7164C99.907 50.9377 99.9422 51.1501 99.9774 51.3714C100.013 51.5927 100.048 51.814 100.074 52.0353C100.083 52.1327 100.1 52.23 100.109 52.3274C100.127 52.4867 100.144 52.6549 100.162 52.8142C100.18 52.9736 100.197 53.1241 100.206 53.2834C100.232 53.5224 100.25 53.7614 100.268 54.0004C100.285 54.2836 100.303 54.5669 100.32 54.8501C100.338 55.1511 100.347 55.4521 100.356 55.753C100.356 56.054 100.364 56.3549 100.364 56.6559C100.364 76.0944 84.6482 91.9125 65.3349 91.9125C65.0359 91.9125 64.7281 91.9125 64.4291 91.9037C64.13 91.9037 63.831 91.886 63.532 91.8683C63.2418 91.8594 62.9428 91.8417 62.6525 91.8152H62.6173C62.3447 91.7974 62.0721 91.7709 61.7994 91.7444C61.562 91.7178 61.3333 91.6912 61.0959 91.6647C60.9464 91.647 60.8056 91.6293 60.6561 91.6116C60.4451 91.585 60.2428 91.5585 60.0405 91.5231C60.0229 91.5231 60.0053 91.5231 59.9877 91.5231C59.7766 91.4965 59.5744 91.4611 59.3721 91.4257C59.1962 91.3991 59.0203 91.3637 58.8532 91.3283C58.5982 91.2841 58.3431 91.2309 58.0969 91.1778C56.7337 90.8857 55.3881 90.5139 54.0777 90.0625C53.8226 89.974 53.5676 89.8855 53.3125 89.7881C53.0663 89.6996 52.82 89.6022 52.565 89.5048C52.2308 89.3721 51.8966 89.2304 51.5624 89.0888C51.3513 89.0003 51.1402 88.9118 50.938 88.8144C50.7181 88.717 50.4894 88.602 50.2607 88.4957C49.9793 88.3541 49.6891 88.2213 49.4077 88.0709C49.179 87.9469 48.9415 87.8319 48.7129 87.6991C48.449 87.5486 48.1852 87.407 47.9214 87.2477C47.6751 87.106 47.4377 86.9644 47.1914 86.8139C47.1914 86.8139 47.1826 86.8139 47.1738 86.8139C46.7253 86.5484 46.2943 86.2651 45.8634 85.973C45.8282 85.9553 45.793 85.9287 45.7667 85.9022C45.538 85.7428 45.3093 85.5835 45.0806 85.4242C44.852 85.2649 44.6234 85.0967 44.4035 84.9285C44.1748 84.7603 43.9549 84.5921 43.7351 84.4151C43.5504 84.2734 43.3745 84.1318 43.1986 83.9813C42.9172 83.7512 42.6357 83.5122 42.3543 83.2732C42.1696 83.1139 41.9849 82.9457 41.809 82.7863C41.598 82.5916 41.3957 82.4057 41.1934 82.2021C40.9911 82.0074 40.7888 81.8126 40.5865 81.6091C40.1996 81.2196 39.8214 80.8213 39.452 80.4141C39.2586 80.1928 39.0563 79.9715 38.8716 79.7502C38.5022 79.3253 38.1504 78.9004 37.8074 78.4578C37.5964 78.1923 37.3941 77.9179 37.1918 77.6435C37.0687 77.4841 36.9543 77.3248 36.84 77.1566C36.8048 77.1035 36.7608 77.0504 36.7256 76.9973C36.5849 76.7937 36.4442 76.5901 36.3035 76.3865C36.1628 76.1829 36.0397 75.9882 35.9077 75.7846C35.7231 75.5013 35.5384 75.2092 35.3625 74.9171C35.081 74.448 34.8084 73.97 34.5446 73.4831C34.0345 72.5537 33.5771 71.5889 33.155 70.5975C33.0582 70.3673 32.9616 70.146 32.8736 69.9159C32.8736 69.9159 32.8736 69.8982 32.8648 69.8805C32.7944 69.7034 32.724 69.5352 32.6625 69.3671C32.6009 69.2077 32.5394 69.0484 32.4778 68.8891C32.4163 68.7209 32.3547 68.5527 32.3019 68.3845C32.214 68.1455 32.1348 67.9065 32.0556 67.6675C31.9765 67.4285 31.8974 67.1807 31.827 66.9328C31.8182 66.9151 31.8094 66.8886 31.8094 66.862C31.7391 66.6319 31.6687 66.384 31.5984 66.145C31.528 65.8883 31.4577 65.6316 31.3873 65.3749C31.1938 64.596 31.0179 63.8081 30.8772 63.0203C30.8332 62.7548 30.7892 62.4892 30.7452 62.2237C30.7013 61.9581 30.6661 61.6926 30.6309 61.4182C27.8869 60.4622 25.3189 59.1167 22.9883 57.4614C23.384 80.6619 42.196 99.348 65.3437 99.348C88.4915 99.348 107.708 80.2636 107.708 56.709C107.708 33.1544 89.0807 14.4152 65.9769 14.0789L65.9945 14.0081ZM30.499 53.2922C30.5254 53.0355 30.5518 52.77 30.5781 52.5133C30.6045 52.2566 30.6397 51.991 30.6749 51.7343C30.7101 51.4776 30.7452 51.2209 30.7892 50.9642C30.8244 50.7075 30.8772 50.4508 30.9211 50.203C31.1146 49.185 31.3433 48.1759 31.6159 47.1934C31.6775 46.9544 31.7567 46.7065 31.827 46.4587C31.8798 46.2639 31.9413 46.078 32.0029 45.8833C32.0205 45.8036 32.0469 45.7151 32.0821 45.6443C32.1524 45.4319 32.2228 45.2194 32.3019 45.007C32.3635 44.8211 32.425 44.6352 32.5042 44.4493C32.5482 44.3342 32.5922 44.2192 32.6361 44.1041C32.7944 43.6881 32.9527 43.2897 33.1198 42.8825C33.3221 42.4134 33.5244 41.9443 33.7531 41.484C33.8586 41.2627 33.9641 41.0414 34.0697 40.8289C34.1312 40.6873 34.2104 40.5545 34.2807 40.4129C34.3599 40.2447 34.4478 40.0854 34.5358 39.9261C34.5622 39.8729 34.5974 39.811 34.6326 39.7579C34.7469 39.5366 34.87 39.3241 34.9931 39.1028C35.1074 38.9081 35.2218 38.7134 35.3273 38.5186C35.4329 38.3504 35.5296 38.1823 35.6351 38.0229C35.7319 37.8724 35.8286 37.722 35.9254 37.5626C36.3299 36.9342 36.7521 36.3145 37.1918 35.7215C37.3413 35.5179 37.4908 35.3231 37.6403 35.1195C37.7547 34.9691 37.869 34.8186 37.9921 34.6681C38.3439 34.2255 38.7045 33.7829 39.0827 33.358C39.2322 33.181 39.3905 33.004 39.5488 32.8358C39.883 32.464 40.226 32.1099 40.5777 31.7559C40.7185 31.6142 40.8592 31.4726 41.0087 31.331C41.2374 31.1097 41.4572 30.8884 41.6859 30.6848C41.853 30.5255 42.0201 30.375 42.196 30.2245C42.5038 29.9501 42.8204 29.6846 43.1282 29.419C43.2865 29.2862 43.4536 29.1534 43.6119 29.0207C44.3155 28.4542 45.0455 27.9142 45.7931 27.4096C46.0041 27.2592 46.224 27.1175 46.4439 26.9759C46.6198 26.8608 46.7868 26.7546 46.9627 26.6484C47.0946 26.5687 47.2266 26.4802 47.3585 26.4094C47.552 26.2855 47.7455 26.1704 47.9477 26.0642C48.194 25.9137 48.4403 25.7809 48.6865 25.6481C48.9328 25.5065 49.1878 25.3737 49.434 25.2498C49.6803 25.117 49.9354 24.9931 50.1904 24.8692C50.208 24.8692 50.2168 24.8603 50.2344 24.8515C50.6829 24.6302 51.1402 24.4266 51.5976 24.223C51.9406 24.0725 52.2835 23.9309 52.6353 23.7981C52.864 23.7008 53.0926 23.6122 53.3301 23.5326C53.5324 23.4529 53.7435 23.3821 53.9457 23.3113C54.0513 23.2759 54.1568 23.2405 54.2623 23.1962C54.491 23.1254 54.7197 23.0457 54.9484 22.9749C55.221 22.8864 55.4936 22.8067 55.7751 22.7271C56.0477 22.6474 56.3291 22.5677 56.6106 22.4969C56.8568 22.4349 57.1031 22.373 57.3493 22.311C57.534 22.2668 57.7275 22.2225 57.9122 22.1871C57.9913 22.1694 58.0793 22.1517 58.1585 22.134C58.2992 22.1074 58.4399 22.0809 58.5894 22.0455C58.8356 22.0012 59.0907 21.9481 59.3369 21.9038C59.5216 21.8773 59.6975 21.8419 59.8734 21.8153C60.0669 21.7799 60.2516 21.7534 60.4451 21.7268C60.9376 21.656 61.4301 21.594 61.9314 21.5498C60.7001 19.027 59.0203 16.7521 57.0151 14.8224C40.2699 18.1949 27.0867 31.4903 23.7974 48.3618C25.7147 50.38 27.9749 52.053 30.4902 53.2922H30.499Z" fill="url(#paint18_linear_260_1270)"/>
<path d="M71.1654 26.2768C69.2834 25.9139 67.3486 25.7192 65.3609 25.7192C64.7453 25.7192 64.1297 25.7369 63.5316 25.7723C64.0681 27.7551 64.3583 29.8441 64.3583 31.9862C64.3583 45.0515 53.7958 55.6824 40.8148 55.6824C38.7041 55.6824 36.6549 55.3992 34.7113 54.8681C34.6849 55.4523 34.6673 56.0277 34.6673 56.6207C34.6673 58.6478 34.8608 60.6306 35.239 62.5514C37.0507 62.8878 38.9152 63.056 40.8324 63.056C57.8854 63.056 71.7107 49.141 71.7107 31.9774C71.7107 30.0211 71.526 28.118 71.1918 26.2591L71.1654 26.2768ZM40.806 0.916504C23.753 0.916504 9.92773 14.8315 9.92773 31.9951C9.92773 40.4751 13.3049 48.1584 18.7664 53.7616C18.9687 50.3714 19.5228 47.052 20.4198 43.8476C18.4058 40.36 17.2626 36.3059 17.2626 31.9951C17.2626 18.9299 27.825 8.29888 40.806 8.29888C45.0715 8.29888 49.0819 9.44076 52.5294 11.4501C55.7131 10.5384 59.0023 9.97187 62.3707 9.75943C56.8124 4.28903 49.1962 0.916504 40.806 0.916504Z" fill="url(#paint19_linear_260_1270)"/>
<defs>
<linearGradient id="paint0_linear_260_1270" x1="1.94257" y1="155.92" x2="1.94257" y2="-28.5778" gradientUnits="userSpaceOnUse">
<stop/>
<stop offset="0.33"/>
<stop offset="0.52"/>
<stop offset="0.73"/>
<stop offset="1"/>
</linearGradient>
<linearGradient id="paint1_linear_260_1270" x1="12.0561" y1="163.532" x2="12.0561" y2="7.47543" gradientUnits="userSpaceOnUse">
<stop/>
<stop offset="0.33"/>
<stop offset="0.52"/>
<stop offset="0.73"/>
<stop offset="1"/>
</linearGradient>
<linearGradient id="paint2_linear_260_1270" x1="22.9895" y1="182.236" x2="22.9895" y2="6.8472" gradientUnits="userSpaceOnUse">
<stop/>
<stop offset="0.33"/>
<stop offset="0.52"/>
<stop offset="0.73"/>
<stop offset="1"/>
</linearGradient>
<linearGradient id="paint3_linear_260_1270" x1="36.3732" y1="210.907" x2="36.3732" y2="9.77689" gradientUnits="userSpaceOnUse">
<stop/>
<stop offset="0.33"/>
<stop offset="0.52"/>
<stop offset="0.73"/>
<stop offset="1"/>
</linearGradient>
<linearGradient id="paint4_linear_260_1270" x1="45.7766" y1="325.059" x2="45.7766" y2="-94.072" gradientUnits="userSpaceOnUse">
<stop/>
<stop offset="0.33"/>
<stop offset="0.52"/>
<stop offset="0.73"/>
<stop offset="1"/>
</linearGradient>
<linearGradient id="paint5_linear_260_1270" x1="55.8187" y1="211.42" x2="55.8187" y2="65.9767" gradientUnits="userSpaceOnUse">
<stop/>
<stop offset="0.33"/>
<stop offset="0.52"/>
<stop offset="0.73"/>
<stop offset="1"/>
</linearGradient>
<linearGradient id="paint6_linear_260_1270" x1="67.129" y1="236.249" x2="67.129" y2="70.7213" gradientUnits="userSpaceOnUse">
<stop/>
<stop offset="0.33"/>
<stop offset="0.52"/>
<stop offset="0.73"/>
<stop offset="1"/>
</linearGradient>
<linearGradient id="paint7_linear_260_1270" x1="82.9153" y1="246.075" x2="82.9153" y2="92.0983" gradientUnits="userSpaceOnUse">
<stop/>
<stop offset="0.33"/>
<stop offset="0.52"/>
<stop offset="0.73"/>
<stop offset="1"/>
</linearGradient>
<linearGradient id="paint8_linear_260_1270" x1="94.0938" y1="268.452" x2="94.0938" y2="102.933" gradientUnits="userSpaceOnUse">
<stop/>
<stop offset="0.33"/>
<stop offset="0.52"/>
<stop offset="0.73"/>
<stop offset="1"/>
</linearGradient>
<linearGradient id="paint9_linear_260_1270" x1="105.009" y1="279.729" x2="105.009" y2="116.573" gradientUnits="userSpaceOnUse">
<stop/>
<stop offset="0.33"/>
<stop offset="0.52"/>
<stop offset="0.73"/>
<stop offset="1"/>
</linearGradient>
<linearGradient id="paint10_linear_260_1270" x1="115.835" y1="295.636" x2="115.835" y2="130.108" gradientUnits="userSpaceOnUse">
<stop/>
<stop offset="0.33"/>
<stop offset="0.52"/>
<stop offset="0.73"/>
<stop offset="1"/>
</linearGradient>
<linearGradient id="paint11_linear_260_1270" x1="5.44288" y1="141.049" x2="5.44288" y2="8.52017" gradientUnits="userSpaceOnUse">
<stop/>
<stop offset="0.33"/>
<stop offset="0.52"/>
<stop offset="0.73"/>
<stop offset="1"/>
</linearGradient>
<linearGradient id="paint12_linear_260_1270" x1="23.4625" y1="158.549" x2="23.4625" y2="27.4983" gradientUnits="userSpaceOnUse">
<stop/>
<stop offset="0.33"/>
<stop offset="0.52"/>
<stop offset="0.73"/>
<stop offset="1"/>
</linearGradient>
<linearGradient id="paint13_linear_260_1270" x1="42.8731" y1="165.196" x2="42.8731" y2="62.6219" gradientUnits="userSpaceOnUse">
<stop/>
<stop offset="0.33"/>
<stop offset="0.52"/>
<stop offset="0.73"/>
<stop offset="1"/>
</linearGradient>
<linearGradient id="paint14_linear_260_1270" x1="61.4909" y1="207.623" x2="61.4909" y2="56.5408" gradientUnits="userSpaceOnUse">
<stop/>
<stop offset="0.33"/>
<stop offset="0.52"/>
<stop offset="0.73"/>
<stop offset="1"/>
</linearGradient>
<linearGradient id="paint15_linear_260_1270" x1="77.6118" y1="214.005" x2="77.6118" y2="79.0596" gradientUnits="userSpaceOnUse">
<stop/>
<stop offset="0.33"/>
<stop offset="0.52"/>
<stop offset="0.73"/>
<stop offset="1"/>
</linearGradient>
<linearGradient id="paint16_linear_260_1270" x1="95.1681" y1="225.22" x2="95.1681" y2="99.3479" gradientUnits="userSpaceOnUse">
<stop/>
<stop offset="0.33"/>
<stop offset="0.52"/>
<stop offset="0.73"/>
<stop offset="1"/>
</linearGradient>
<linearGradient id="paint17_linear_260_1270" x1="112.519" y1="258.645" x2="112.519" y2="116.308" gradientUnits="userSpaceOnUse">
<stop/>
<stop offset="0.33"/>
<stop offset="0.52"/>
<stop offset="0.73"/>
<stop offset="1"/>
</linearGradient>
<linearGradient id="paint18_linear_260_1270" x1="23.0147" y1="56.6382" x2="107.734" y2="56.6382" gradientUnits="userSpaceOnUse">
<stop/>
<stop offset="0.33"/>
<stop offset="0.52"/>
<stop offset="0.73"/>
<stop offset="1"/>
</linearGradient>
<linearGradient id="paint19_linear_260_1270" x1="9.93653" y1="31.9862" x2="71.6931" y2="31.9862" gradientUnits="userSpaceOnUse">
<stop/>
<stop offset="0.33"/>
<stop offset="0.52"/>
<stop offset="0.73"/>
<stop offset="1"/>
</linearGradient>
</defs>
</svg>
