<svg width="32" height="38" fill="none" xmlns="http://www.w3.org/2000/svg"><g clip-path="url(#clip0_2255_45613)" fill="#DEDEDE"><path d="M22.78 21.201c-2.381.894-4.013 3.315-3.914 5.857.08 2.037 1.345 3.612 3.04 4.415.105.09.202.19.317.274 1.33.96 3.036.67 4.414.006 3.025-1.46 4.354-5.662 2.195-8.36-1.466-1.835-3.694-3.08-6.056-2.192h.003zM9.477 19.506c2.682.946 5.747.807 8.01-1.046 2.688-2.199 3.337-6.509 2.12-9.618-1.419-3.632-5.38-5.755-9.19-5.375-4.022.397-7.104 3.941-7.463 7.89-.228 2.519.921 4.498 2.67 5.757a10.508 10.508 0 003.854 2.389v.003z"/></g><defs><clipPath id="clip0_2255_45613"><path fill="#fff" transform="rotate(-31.278 15.918 4.456)" d="M0 0h17.166v33.378H0z"/></clipPath></defs></svg>