<svg width="55" height="53" fill="none" xmlns="http://www.w3.org/2000/svg"><g clip-path="url(#clip0_2255_44421)" fill="#DEDEDE"><path d="M6.46 28.22c.911-3.05 5.869-3.667 7.143-.553.738 1.8.243 3.948-1.577 4.936-1.476.802-3.653.558-4.72-.81a4.156 4.156 0 01-.605-1.116c-.359-.748-.496-1.598-.242-2.456zm13.154 9.015c1.684-.759 3.552-.746 5.132.272 1.789 1.15 2.674 3.09 3.319 5.03.286.851.06 1.746-.439 2.47-.24 1.099-.805 2.122-1.695 2.796-3.286 2.488-9.069 1.002-9.91-3.287-.538-2.761.95-6.093 3.591-7.284l.002.003zM32.382 4.822c8.35-.41 12.779 6.753 11.802 13.57a13.59 13.59 0 01-1.345 4.838c-2.833 5.718-9.428 7.762-15.094 5.224-5.204-2.334-8.26-7.89-7.557-13.537.79-6.377 6.126-9.799 12.194-10.095z"/></g><defs><clipPath id="clip0_2255_44421"><path fill="#fff" transform="scale(-1 1) rotate(28.496 -19.355 -73.31)" d="M0 0h41.43v36.331H0z"/></clipPath></defs></svg>