<svg width="48" height="49" fill="none" xmlns="http://www.w3.org/2000/svg"><g clip-path="url(#clip0_2255_45599)" fill="#DEDEDE"><path d="M18.172 6.892a.676.676 0 00-.225.191c-4.15 2.41-9.652 6.678-10.992 11.478-1.247 4.463.785 9.008 2.42 13.146 1.498 3.791 3.254 7.187 7.356 8.42 3.763 1.13 9.287 3.213 13.227 1.978 5.279-1.655 8.157-7.267 10.442-11.928.693-1.414 1.663-3.277 1.39-4.915-.31-1.865-1.1-3.71-1.738-5.477-1.314-3.634-2.768-9.438-6.56-11.353-4.153-2.096-10.968-3.83-15.32-1.54zm.37 1.202c.032-.01.063-.01.098-.025 3.914-1.86 9.671.031 13.456 1.479.097.037.186.088.28.131 1.309 2.09-2.378 5.52-3.55 6.983-1.756 2.19-3.78 4.249-6.305 5.532-1.897.963-3.849.81-5.848.36-2.484-.56-7.667-1.487-7.67-4.668 1.043-2.141 3.018-3.97 4.647-5.533 1.555-1.493 3.118-3.024 4.891-4.26zM10.718 30.48c-1.24-3.124-2.833-6.72-2.433-10.143.863 1.1 2.428 1.793 4.01 2.382 2.94 1.097 6.04 2.023 9.115 1.366.904.889 1.569 2.06 2.109 3.31.124.38.26.744.394 1.083a.52.52 0 00.093.142c.363.981.678 1.964.996 2.852 1.098 3.063 2.011 6.278 3.46 9.199-3.331.545-7.656-1.161-10.783-2.024-4.067-1.122-5.505-4.5-6.96-8.167zm27.565-10.696a76.534 76.534 0 011.643 4.872c.459 1.555-.154 2.827-.79 4.26-1.879 4.232-4.822 9.94-9.512 11.473-1.038-3.639-2.517-7.22-3.831-10.771-.285-.77-.59-1.66-.958-2.549-.309-1.453-.592-2.773-.19-4.331 2.622-1.65 4.75-4.362 6.531-6.684 1.172-1.526 2.84-3.32 3.004-5.043 2.135 2.277 3.16 6.225 4.102 8.771l.001.002z"/><path d="M30.442 27.08c.569-.42.855-1.143.814-1.837-.045-.794-.748-1.586-1.543-1.671-.812-.088-1.576.502-1.803 1.27-.115.389-.098.838.041 1.237.11.399.326.777.57.999.557.503 1.346.428 1.92.003zm3.835-4.447c.57-.421.855-1.143.815-1.837-.045-.795-.747-1.587-1.543-1.672-.812-.087-1.575.503-1.803 1.27a2.06 2.06 0 00.043 1.243c.11.397.325.772.57.993.556.503 1.345.428 1.918.003zm-1.449 7.133c-.81-.086-1.575.503-1.802 1.27-.116.39-.1.841.041 1.241.11.397.325.774.571.995.557.503 1.345.428 1.92.003.568-.422.854-1.144.813-1.837-.045-.795-.747-1.586-1.543-1.672zm3.74-4.528c-.81-.087-1.575.503-1.802 1.27-.116.39-.098.84.041 1.24.11.398.325.775.571.996.557.503 1.344.428 1.919.003.569-.422.855-1.144.815-1.837-.046-.795-.747-1.587-1.543-1.672zm-19.144 3.148c-1.16.022-1.785 1.113-1.881 2.151-.315 1.302.756 2.589 2.1 2.94.747.194 1.562.046 2.102-.53.682-.73.534-1.805.303-2.681-.307-1.161-1.467-1.902-2.624-1.88zm.828 2.898l-.012-.005v-.002c.014.004.016.004.013.008h-.002zM14.15 18.632c.549 0 1.111-.34 1.419-.807.007-.008.015-.013.023-.02.295-.322.513-.88.42-1.315-.302-1.391-2.104-1.191-2.852-.306-.306.362-.485.924-.393 1.394.138.708.69 1.055 1.382 1.054zm6.107-2.429c.55 0 1.111-.34 1.42-.807.007-.008.015-.013.022-.02.296-.322.514-.88.42-1.314-.301-1.392-2.104-1.192-2.851-.307-.306.362-.485.924-.393 1.394.137.708.69 1.055 1.383 1.054h-.001zm6.105-2.427c.55 0 1.112-.34 1.42-.807.007-.008.015-.013.023-.021.296-.322.513-.88.42-1.314-.302-1.392-2.105-1.191-2.852-.307-.306.363-.485.924-.393 1.394.137.709.69 1.055 1.383 1.054zm6.178-7.258c-.047-.013-.06.051-.033.077 1.43 1.395 3.276 1.942 4.526 3.625 1.109 1.49 1.692 3.37 2.352 5.086.028.074.143.045.133-.034-.5-4.104-2.91-7.595-6.978-8.754zm7.035 9.442c.056.441.193.87.265 1.311.019.113.162.106.19.004.129-.465-.061-.985-.337-1.361-.038-.053-.125-.018-.117.046zM12.421 38.582c-1.46-1.34-2.184-3.08-3.29-4.665-.03-.043-.1-.013-.094.037.422 3.442 4.57 7.767 8.174 7.682.126-.003.13-.177.033-.225-1.74-.865-3.355-1.482-4.823-2.829zM8.893 33.31c.07-.334-.105-.687-.215-.997-.119-.333-.305-.637-.59-.85-.04-.03-.118 0-.105.059.072.324.183.638.317.942.133.302.214.684.495.885.039.028.089.007.099-.039z"/></g><defs><clipPath id="clip0_2255_45599"><path fill="#fff" transform="rotate(-21.684 36.301 4.79)" d="M0 0h35.825v37.149H0z"/></clipPath></defs></svg>