<svg width="51" height="51" fill="none" xmlns="http://www.w3.org/2000/svg"><g clip-path="url(#clip0_2255_45616)" fill="#CACACA"><path d="M14.45 37.09c5.688-10.127 11.955-19.533 19.091-28.726l-2.202-.048c.08 10.444.63 20.687 2.344 31.004l2.449-.22c-6.255-6.798-12.51-13.597-18.751-20.4l-1.888.677c7.908 1.723 15.87 3.073 23.896 4.123-.278-.263-.55-.525-.827-.788-8.574 5.064-17.777 8.967-26.35 14.036-.901.532 1.905.971 2.627.544 8.475-5.082 17.58-9.01 26.049-14.097.71-.428-.63-.764-.827-.788-7.821-.996-15.58-2.352-23.285-4.007-.253-.055-2.437.085-1.887.678 6.291 6.792 12.577 13.584 18.856 20.388.333.36 2.578.568 2.449-.22-1.727-10.28-2.424-20.584-2.603-30.998-.013-.733-1.913-.421-2.202-.048-6.989 9.058-13.904 18.378-18.795 28.75-.26.55 1.604.629 1.875.146l-.018-.006zm26.173-21.872c1.634-.935 3.09-2.168 4.62-3.256 1.61-1.148 3.312-2.162 4.916-3.316.58-.416-1.117-.556-1.413-.403-3.226 1.716-6.865 3.976-9.413 6.608-.487.501 1.043.513 1.296.367h-.006zm-.746 16.211c2.992 2.37 5.928 5.137 9.099 7.238.308.207 2.072.042 1.69-.355-2.677-2.803-6.335-5.05-9.536-7.231-.303-.208-1.715-.019-1.253.348z"/><path d="M23.408 38.69c-1.425 3.763-2.837 8.015-3.497 11.979-.074.446 1.505.415 1.659.036 1.567-3.72 2.714-8.032 3.534-11.977.087-.428-1.542-.446-1.696-.037zm.062-26.63c-1.301-3.591-2.523-7.335-4.083-10.823-.167-.379-1.727-.281-1.635.146.777 3.75 2.22 7.623 4.225 10.897.216.354 1.678.281 1.493-.226v.006zM1.9 28.094c3.947-1.026 7.833-1.998 11.849-2.749 1.135-.214.24-.72-.47-.653-4.218.415-8.376 1.465-12.342 2.925-.765.281.666.55.962.477z"/></g><defs><clipPath id="clip0_2255_45616"><path fill="#fff" transform="translate(.715 .999)" d="M0 0h50v50H0z"/></clipPath></defs></svg>