<svg width="14" height="18" viewBox="0 0 14 18" fill="none" xmlns="http://www.w3.org/2000/svg">
<path d="M2.08899 2.59457V0.798171C2.08899 0.689553 2.17698 0.601562 2.2856 0.601562H5.73645C5.84494 0.601562 5.93293 0.689553 5.93293 0.798171V2.59457C5.93293 2.70319 5.84494 2.79118 5.73645 2.79118H2.2856C2.17698 2.79118 2.08899 2.70319 2.08899 2.59457ZM13.4739 9.15926C13.668 9.35332 13.7771 9.61663 13.7771 9.89119V16.8464C13.7771 17.1209 13.668 17.3843 13.4739 17.5785C13.2797 17.7727 13.0164 17.8817 12.7418 17.8817H1.43372C1.15917 17.8817 0.895847 17.7727 0.701653 17.5785C0.507589 17.3843 0.398438 17.1209 0.398438 16.8464V4.9009C0.398438 4.62635 0.507589 4.36303 0.701653 4.16883C0.895851 3.97477 1.15916 3.86562 1.43372 3.86562H7.75155C8.02624 3.86562 8.28952 3.97477 8.48362 4.16883L13.4739 9.15926ZM9.27493 13.3593C9.07859 11.8894 7.77935 10.9341 7.24097 9.20931C7.22021 9.14328 7.15887 9.09828 7.08963 9.09842C7.02025 9.09869 6.95918 9.14382 6.93882 9.21012C6.35555 11.0778 4.88007 12.0432 4.88007 13.7372C4.88007 14.3199 5.11016 14.8792 5.52053 15.2931C5.93075 15.7069 6.4879 15.9419 7.07075 15.947C7.72259 15.9402 8.33946 15.6514 8.76227 15.1551C9.18495 14.6589 9.37191 14.0038 9.27495 13.3591L9.27493 13.3593ZM6.83087 14.5235C6.54936 14.3889 6.31151 14.1776 6.14475 13.9137C5.97814 13.6499 5.88935 13.3443 5.88868 13.0322C5.88854 12.8778 5.90354 12.7236 5.93368 12.5722C5.73399 12.9288 5.6251 13.3291 5.61693 13.7377C5.6176 14.0376 5.70975 14.3302 5.88077 14.5765C6.0518 14.8228 6.29381 15.0113 6.57451 15.1168C6.73603 15.1772 6.91656 15.1005 6.98501 14.9422C7.05345 14.7837 6.98568 14.5996 6.83086 14.5235L6.83087 14.5235Z" fill="#D3D3D3"/>
</svg>
