<svg width="16" height="18" viewBox="0 0 16 18" fill="none" xmlns="http://www.w3.org/2000/svg">
<path d="M7.49467 5.14779C7.62954 5.19051 7.77097 5.10453 7.79507 4.96524C7.95016 4.06847 8.25793 1.07999 5.69867 0.159071C5.51505 0.0930433 5.32489 0.0442924 5.13241 0.0114809C5.13 0.0110791 5.12745 0.0106773 5.12491 0.0101416C4.74389 -0.0564207 4.38417 0.212105 4.34961 0.597285C4.23563 1.86826 4.47871 4.19043 7.49464 5.14769L7.49467 5.14779Z" fill="#D3D3D3"/>
<path d="M8.53746 5.34041C8.59465 5.34858 8.65881 5.32769 8.68385 5.27572C9.55251 3.47586 11.2535 3.25194 11.6262 3.11493C11.7181 3.08118 11.8084 3.04435 11.8936 2.996C12.4996 2.65194 12.4988 2.07858 12.4112 1.69314C12.3593 1.46479 12.1241 1.32591 11.8991 1.39113C8.75146 2.30478 8.429 4.5915 8.40637 5.18211C8.40329 5.26086 8.45941 5.32916 8.53735 5.34028L8.53746 5.34041Z" fill="#D3D3D3"/>
<path d="M13.5401 5.56079C13.5401 5.56079 11.605 4.26088 9.33838 5.64717L9.13427 5.75981C8.54257 6.08632 7.82487 6.08632 7.23316 5.75981L7.02906 5.64717C4.76246 4.26086 2.82734 5.56079 2.82734 5.56079C-0.666032 7.84748 1.40808 12.8897 1.40808 12.8897C2.97693 16.4695 5.16306 17.5498 6.19197 17.8697C6.5209 17.9719 6.87381 17.9617 7.1963 17.8408L7.68114 17.6588C8.00525 17.5372 8.36243 17.5372 8.68653 17.6588L9.17137 17.8408C9.49387 17.9618 9.84676 17.972 10.1757 17.8697C11.2045 17.55 13.3907 16.4696 14.9596 12.8897C14.9597 12.8897 17.034 7.8473 13.5403 5.56079H13.5401ZM4.05495 7.98222C3.57107 8.55812 3.17974 9.02581 2.80928 8.71453C2.43882 8.40328 2.36638 7.54614 2.85026 6.97024C3.33415 6.39434 4.1909 6.31775 4.56133 6.62899C4.93178 6.94011 4.53869 7.40632 4.05493 7.98221L4.05495 7.98222Z" fill="#D3D3D3"/>
</svg>
