<svg width="15" height="20" viewBox="0 0 15 20" fill="none" xmlns="http://www.w3.org/2000/svg">
<path d="M9.82 1.00001C9.82 0.799561 9.7003 0.618491 9.5159 0.539971C9.3314 0.461451 9.1179 0.500661 8.9734 0.639601L7.1955 2.34917C4.54827 4.89458 2.31144 7.83479 0.56461 11.0651C0.52348 11.1378 0.5 11.2217 0.5 11.3112C0.5 11.5873 0.72386 11.8112 1 11.8112H5.31V19C5.31 19.198 5.42684 19.3774 5.60795 19.4574C5.78907 19.5374 6.0003 19.503 6.1467 19.3696L6.9422 18.645C9.7269 16.1083 12.0902 13.1446 13.9432 9.865L14.4353 8.9942C14.5228 8.8394 14.5215 8.6498 14.4318 8.4962C14.3422 8.3426 14.1778 8.2482 14 8.2482H9.82V1.00001Z" fill="#D3D3D3"/>
</svg>
