<svg width="18" height="18" viewBox="0 0 18 18" fill="none" xmlns="http://www.w3.org/2000/svg">
<path d="M13.8031 5.9875C13.8031 6.98165 12.9973 7.7875 12.0031 7.7875C11.0091 7.7875 10.2031 6.98165 10.2031 5.9875C10.2031 4.99335 11.0091 4.1875 12.0031 4.1875C12.9973 4.1875 13.8031 4.99335 13.8031 5.9875Z" fill="#D3D3D3"/>
<path d="M7.80313 11.9875C7.80313 12.9816 6.99727 13.7875 6.00313 13.7875C5.00911 13.7875 4.20312 12.9816 4.20312 11.9875C4.20312 10.9934 5.00911 10.1875 6.00313 10.1875C6.99727 10.1875 7.80313 10.9934 7.80313 11.9875Z" fill="#D3D3D3"/>
<path d="M9.42047 13.1202C9.4585 12.8641 9.37239 12.6011 9.18904 12.4176L8.3611 11.5896C8.3832 11.7203 8.40142 11.8525 8.40142 11.9893C8.40142 13.3148 7.3269 14.3893 6.00142 14.3893C4.67593 14.3893 3.60142 13.3148 3.60142 11.9893C3.60142 10.6638 4.67593 9.58933 6.00142 9.58933C6.13843 9.58933 6.27075 9.60754 6.40146 9.62964L5.57326 8.8013C5.41857 8.64715 5.21233 8.56223 4.99253 8.56223C4.95088 8.56223 4.90869 8.56518 4.86596 8.57107C4.53195 8.62263 4.22671 8.64781 3.93785 8.64781C3.20297 8.64781 2.56039 8.4808 1.98932 8.14062C1.95598 8.17491 1.91888 8.20491 1.8937 8.24817L0.682863 10.3265C0.602641 10.4648 0.580675 10.6294 0.621927 10.7838C0.66318 10.9383 0.764563 11.0698 0.903444 11.1492L1.78322 11.6532C1.77357 11.7658 1.76889 11.8778 1.76889 11.9893C1.76889 12.1009 1.77357 12.2128 1.78322 12.3256L0.903444 12.8296C0.764559 12.909 0.663176 13.0405 0.621927 13.1949C0.580678 13.3493 0.602641 13.5139 0.682863 13.6523L1.8937 15.7306C2.06017 16.0153 2.42434 16.1127 2.71025 15.9494L3.59766 15.4417C3.7869 15.57 3.98969 15.6845 4.2014 15.7829V16.7893C4.2014 17.1206 4.47006 17.3893 4.8014 17.3893H7.2014C7.53274 17.3893 7.8014 17.1206 7.8014 16.7893V15.7829C8.01328 15.6845 8.21591 15.57 8.40514 15.4417L9.29255 15.9494C9.46773 16.0496 9.66768 16.042 9.83777 15.9636C9.25008 14.9414 9.305 13.8781 9.42044 13.1202L9.42047 13.1202Z" fill="#D3D3D3"/>
<path d="M8.58124 4.85502C8.5432 5.11109 8.62932 5.37414 8.81267 5.5576L9.64036 6.38543C9.61826 6.25485 9.60005 6.12279 9.60005 5.98593C9.60005 4.66045 10.6746 3.58593 12 3.58593C13.3255 3.58593 14.4 4.66045 14.4 5.98593C14.4 7.31142 13.3255 8.38593 12 8.38593C11.863 8.38593 11.7308 8.36772 11.6003 8.34562L12.4285 9.17396C12.5832 9.32865 12.7889 9.41356 13.0068 9.41356C13.0484 9.41356 13.0906 9.41061 13.1328 9.40418C13.4698 9.35262 13.775 9.32744 14.0639 9.32744C14.7987 9.32744 15.4413 9.49445 16.0124 9.83463C16.0457 9.80035 16.0826 9.77021 16.1077 9.72695L17.3186 7.64866C17.3988 7.51031 17.4208 7.34571 17.3795 7.19129C17.3383 7.03687 17.2369 6.90535 17.098 6.82594L16.2182 6.32197C16.2279 6.20947 16.2326 6.09751 16.2326 5.98594C16.2326 5.87438 16.2279 5.76242 16.2182 5.64965L17.098 5.14568C17.2369 5.06626 17.3383 4.93475 17.3795 4.78033C17.4208 4.62592 17.3988 4.46132 17.3186 4.32296L16.1077 2.24467C15.9413 1.95967 15.5763 1.86231 15.2912 2.02583L14.4039 2.53394C14.2147 2.40564 14.0119 2.29073 13.8002 2.19229L13.8 1.18594C13.8 0.854597 13.5314 0.585938 13.2 0.585938H10.8001C10.4687 0.585938 10.2001 0.854597 10.2001 1.18594V2.19229C9.98817 2.29073 9.78554 2.40564 9.59631 2.53394L8.7089 2.02596C8.53412 1.92632 8.33443 1.93382 8.16406 2.01217C8.75148 3.03419 8.69669 4.09729 8.58125 4.85507L8.58124 4.85502Z" fill="#D3D3D3"/>
<path d="M16.5184 11.0238C16.4692 10.974 16.2219 10.7319 16.1634 10.6816C15.5781 10.1741 14.8914 9.92743 14.0652 9.92743C13.8086 9.92743 13.5326 9.95034 13.2222 9.99775C12.7692 10.0651 12.324 9.91632 12.0053 9.59811L8.38986 5.98165C8.07232 5.66411 7.92285 5.20875 7.98968 4.76465C8.11918 3.91206 8.15843 2.807 7.30599 1.82262C7.25563 1.76463 7.01362 1.5174 6.95857 1.4629C6.39364 0.897732 5.64138 0.585938 4.84101 0.585938C4.37884 0.585938 3.91599 0.695491 3.50226 0.902412C3.32936 0.988527 3.20936 1.15259 3.17829 1.34305C3.14789 1.5335 3.2099 1.72688 3.3465 1.86337L4.65069 3.1677C4.42221 3.93176 3.94756 4.40641 3.18364 4.63489L1.87931 3.33056C1.74404 3.19395 1.55293 3.13181 1.35899 3.16235C1.16868 3.19342 1.00461 3.31356 0.918489 3.48632C0.340844 4.6412 0.566375 6.03043 1.48448 6.94815C1.53363 6.99797 1.78099 7.23998 1.83951 7.29034C2.42476 7.7978 3.11144 8.04449 3.93762 8.04449C4.19423 8.04449 4.47025 8.02159 4.78071 7.97418C5.2354 7.90855 5.67951 8.05627 5.99757 8.37381L9.613 11.9903C9.93055 12.3078 10.08 12.7632 10.0132 13.2073C9.88368 14.0599 9.84443 15.1649 10.6969 16.1493C10.7472 16.2073 10.9892 16.4545 11.0443 16.509C11.6092 17.0743 12.3615 17.386 13.1618 17.386C13.6242 17.386 14.087 17.2764 14.5006 17.0695C14.6735 16.9834 14.7935 16.8193 14.8246 16.6289C14.855 16.4384 14.793 16.245 14.6564 16.1086L13.3522 14.8042C13.5807 14.0402 14.0553 13.5655 14.8192 13.337L16.1234 14.6414C16.2599 14.7778 16.4521 14.8412 16.6437 14.8096C16.8342 14.7785 16.9982 14.6584 17.0844 14.4856C17.6622 13.3307 17.4366 11.9415 16.5184 11.0238Z" fill="#D3D3D3"/>
</svg>
