<svg width="9" height="18" viewBox="0 0 9 18" fill="none" xmlns="http://www.w3.org/2000/svg">
<path d="M0.796875 7.29941C0.796875 7.45327 0.879243 7.59836 1.0136 7.67422L3.332 8.99801C3.6657 9.19086 3.83257 9.57005 3.74579 9.94697L3.04588 12.9825C2.73818 14.3128 3.01777 15.7124 3.81079 16.824L4.36332 17.5975C4.43904 17.7037 4.56478 17.7687 4.69687 17.7687C4.82685 17.7687 4.95259 17.7037 5.02831 17.5975L5.58085 16.824C6.37384 15.7125 6.6533 14.3129 6.34575 12.9825L5.64584 9.94712C5.55924 9.57019 5.72594 9.191 6.06192 8.99817L8.37803 7.67438C8.51239 7.59851 8.59687 7.45342 8.59687 7.29957V6.71875H0.796925L0.796875 7.29941ZM4.69685 14.5186C4.93519 14.5186 5.13014 14.7115 5.13014 14.9519C5.13014 15.1903 4.93517 15.3852 4.69685 15.3852C4.4564 15.3852 4.26356 15.1902 4.26356 14.9519C4.26356 14.7115 4.4564 14.5186 4.69685 14.5186Z" fill="#0CC689"/>
<path d="M7.58503 4.18275C7.2622 4.18275 6.95887 4.0419 6.75303 3.79284L6.30674 3.25767C6.25037 3.19057 6.17888 3.17969 6.13989 3.17969C6.10301 3.17969 6.03153 3.19057 5.97304 3.25767L5.52887 3.79284C5.32303 4.04205 5.01758 4.18275 4.69688 4.18275C4.37406 4.18275 4.07072 4.0419 3.86489 3.79284L3.41859 3.25767C3.36222 3.19057 3.28862 3.17969 3.25174 3.17969C3.21275 3.17969 3.14126 3.19057 3.08489 3.25767L2.6386 3.79284C2.43276 4.04205 2.12944 4.18275 1.8066 4.18275C1.48377 4.18275 1.18044 4.0419 0.97461 3.79284L0.796875 3.57822V5.84899H8.59682V3.57822L8.41698 3.79268C8.21113 4.0419 7.90781 4.18276 7.58498 4.18276L7.58503 4.18275Z" fill="#0CC689"/>
<path d="M8.16346 3.8669e-05H1.23017C0.989715 3.8669e-05 0.796875 0.195003 0.796875 0.433331V2.22515L0.926851 2.38339L1.63976 3.23925C1.69824 3.30636 1.76973 3.31724 1.80661 3.31724C1.8456 3.31724 1.91709 3.30636 1.97346 3.23925L2.41975 2.70409C2.54323 2.55674 2.70146 2.44837 2.87692 2.38338C2.99601 2.34001 3.12175 2.31401 3.25173 2.31401C3.3817 2.31401 3.50745 2.34001 3.62654 2.38338C3.80201 2.44837 3.96024 2.55674 4.0837 2.70409L4.53 3.23925C4.58637 3.30862 4.65786 3.31724 4.69685 3.31724C4.73372 3.31724 4.80521 3.30862 4.86158 3.23925L5.30788 2.70409C5.43135 2.55674 5.58959 2.44837 5.76504 2.38338C5.88413 2.34001 6.00988 2.31401 6.13985 2.31401C6.26983 2.31401 6.39769 2.34001 6.51466 2.38338C6.6924 2.44837 6.84837 2.55674 6.97183 2.70409L7.41812 3.23925C7.47449 3.30862 7.54598 3.31724 7.58497 3.31724C7.62185 3.31724 7.69545 3.30862 7.75182 3.23925L8.46457 2.38339L8.59682 2.22515V0.433446C8.59682 0.195107 8.40185 0 8.16353 0L8.16346 3.8669e-05Z" fill="#0CC689"/>
</svg>
