<svg width="181" height="34" viewBox="0 0 181 34" fill="none" xmlns="http://www.w3.org/2000/svg">
<g clip-path="url(#clip0_437_6)">
<path d="M174.452 18.5133C174.929 17.8964 174.983 17.2042 175.209 16.5851C175.684 15.2804 176.108 13.9536 176.522 12.6333C176.971 11.2155 177.466 9.80432 177.89 8.3776C178.142 7.53001 178.128 7.52778 178.991 7.52778C179.515 7.52778 180.038 7.54553 180.564 7.52778C180.946 7.51003 181.014 7.65426 180.906 7.98486C180.065 10.3346 179.218 12.6822 178.389 15.0363C177.762 16.8225 177.176 18.6198 176.537 20.4015C176.313 21.0072 176.072 21.6041 175.888 22.2254C175.859 22.3675 175.79 22.4988 175.69 22.6048C175.088 23.0996 174.374 22.7158 173.715 22.8267C173.416 22.8777 173.279 22.6514 173.198 22.4184C172.708 20.9984 172.23 19.5717 171.738 18.1516C171.342 17.0089 170.931 15.8706 170.531 14.7279C170.279 14.0024 170.034 13.2746 169.783 12.549C169.749 12.4536 169.767 12.3116 169.614 12.2983C169.461 12.285 169.389 12.4248 169.358 12.5446C168.92 13.8027 168.491 15.0607 168.052 16.3166C167.551 17.7478 167.043 19.1745 166.547 20.6079C166.363 21.1404 166.187 21.6773 166.028 22.2187C165.904 22.6359 165.693 22.8844 165.196 22.8378C164.843 22.7945 164.486 22.7945 164.134 22.8378C163.608 22.911 163.39 22.6159 163.248 22.2121C162.012 18.6945 160.78 15.1769 159.552 11.6593C159.102 10.399 158.653 9.13866 158.203 7.88723C158.127 7.66535 158.156 7.53666 158.428 7.53887C159.194 7.53887 159.963 7.53887 160.729 7.53887C161.015 7.53887 161.113 7.69863 161.179 7.92939C161.853 10.0373 162.527 12.1444 163.201 14.2509C163.623 15.5489 164.066 16.8425 164.502 18.1361C164.531 18.227 164.502 18.3846 164.673 18.3579C164.803 18.3402 164.846 18.2248 164.882 18.1205C165.255 17.0111 165.629 15.9017 166.005 14.7923C166.423 13.5408 166.861 12.2961 167.277 11.0447C167.596 10.0839 167.972 9.13645 168.219 8.16016C168.338 7.68755 168.549 7.44569 169.059 7.53222C169.134 7.53889 169.209 7.53889 169.284 7.53222C170.857 7.53222 170.805 7.54331 171.275 9.00997C172.034 11.3886 172.848 13.7494 173.645 16.1103C173.929 16.8758 174.174 17.659 174.452 18.5133Z" fill="#292425"/>
<path d="M148.775 22.9019C144.244 23.0084 140.811 19.3895 140.804 15.136C140.802 14.0935 141.009 13.061 141.415 12.0986C141.821 11.1362 142.417 10.2633 143.168 9.53071C143.919 8.79812 144.811 8.22055 145.79 7.83168C146.77 7.44281 147.818 7.25042 148.873 7.26574C153.464 7.28571 156.857 10.8159 156.848 15.1005C156.854 16.1409 156.647 17.1717 156.241 18.1318C155.835 19.0918 155.237 19.9615 154.484 20.6892C153.731 21.4169 152.838 21.9877 151.857 22.3678C150.876 22.748 149.828 22.9296 148.775 22.9019ZM143.703 15.0517C143.703 15.4 143.687 15.7506 143.703 16.1012C143.744 16.3885 143.824 16.6691 143.941 16.9355C144.343 18.1446 145.188 19.1618 146.311 19.7874C147.433 20.413 148.752 20.6018 150.008 20.317C152.426 19.7711 153.754 17.7165 153.983 15.7595C154.111 14.6362 153.895 13.5008 153.363 12.5C152.839 11.4594 151.966 10.6297 150.893 10.1517C149.82 9.67362 148.613 9.57651 147.476 9.87681C146.339 10.1771 145.342 10.8563 144.654 11.7994C143.966 12.7425 143.629 13.8915 143.701 15.0517H143.703Z" fill="#292425"/>
<path d="M114.556 15.1051C114.556 12.7643 114.556 10.4234 114.556 8.08027C114.556 7.66757 114.639 7.51226 115.104 7.51669C118.55 7.53592 121.995 7.53592 125.441 7.51669C125.904 7.51669 126.016 7.66092 125.985 8.07807C125.95 8.52116 125.95 8.96628 125.985 9.40937C126.018 9.83317 125.892 9.97295 125.434 9.96851C122.947 9.94632 120.459 9.95742 117.971 9.96851C117.232 9.96851 117.232 9.96851 117.23 10.6941C117.23 11.6349 117.257 12.5757 117.23 13.5142C117.212 13.958 117.374 14.0734 117.801 14.0711C119.989 14.0556 122.178 14.0712 124.367 14.0534C124.899 14.0534 125.068 14.2353 125.041 14.7191C125.018 15.1248 125.018 15.5315 125.041 15.9372C125.063 16.381 124.852 16.5518 124.403 16.5496C122.252 16.5496 120.102 16.5496 117.949 16.5318C117.385 16.5318 117.219 16.6827 117.234 17.2507C117.277 18.855 117.223 20.4592 117.264 22.0634C117.264 22.5937 117.097 22.7291 116.605 22.6803C116.12 22.6425 115.632 22.6425 115.147 22.6803C114.697 22.7135 114.578 22.576 114.583 22.1366C114.556 19.7891 114.556 17.4482 114.556 15.1051Z" fill="#292425"/>
<path d="M7.33351 8.44849C7.52961 9.67301 8.1432 10.7947 9.07276 11.6281C10.0997 12.6088 11.0952 13.625 12.1198 14.6058C12.5086 14.9697 12.5086 15.2204 12.1198 15.5843C11.0255 16.6294 9.97835 17.7188 8.88176 18.7594C7.43913 20.1329 7.04364 21.8414 7.42789 23.6764C7.77395 25.3383 8.86154 26.5609 10.4794 27.1888C12.6434 28.0342 14.5759 27.606 16.2298 25.9862C16.641 25.5846 17.0567 25.1896 17.4679 24.7903C17.5083 24.7348 17.5603 24.6885 17.6202 24.6544C17.6802 24.6203 17.7468 24.5992 17.8157 24.5924C17.8846 24.5857 17.9541 24.5936 18.0197 24.6154C18.0852 24.6373 18.1453 24.6727 18.196 24.7193C18.5897 25.0279 19.0254 25.2803 19.4903 25.4692C19.7532 25.558 19.7622 25.7488 19.5712 25.9374C18.0319 27.4773 16.6073 29.1658 14.2995 29.6695C11.4816 30.2819 8.31999 29.4476 6.43467 26.8804C5.49396 25.6357 4.98063 24.1267 4.96957 22.5736C4.94261 20.3947 5.77178 18.5797 7.30655 17.0532C7.81664 16.5473 8.31774 16.0325 8.85704 15.5599C9.25478 15.2137 9.21208 14.9874 8.84356 14.639C8.11101 13.9512 7.34924 13.2811 6.8414 12.3914C6.21221 11.282 6.08188 10.1881 6.72455 9.06311C6.84372 8.79102 7.06063 8.57208 7.33351 8.44849Z" fill="#FDB604"/>
<path d="M23.1935 25.4714C20.6048 25.5224 18.6993 24.4485 17.0903 22.7755C16.7106 22.3827 16.2994 22.0188 15.9466 21.6039C15.6275 21.2311 15.3938 21.2999 15.0972 21.6194C14.5021 22.3069 13.8313 22.9269 13.0973 23.4677C11.7984 24.3553 10.3221 24.393 9.12888 23.5898C8.98282 23.4899 8.81429 23.3923 8.85024 23.2303C8.8862 23.0684 9.10416 23.1349 9.24124 23.1039C10.2063 22.8919 11.0878 22.4069 11.7782 21.7082C12.8793 20.6165 13.9894 19.5337 15.0725 18.4243C15.4028 18.087 15.6162 18.0804 15.9713 18.4243C17.2184 19.6735 18.4026 20.996 19.7914 22.0987C20.4383 22.6219 21.2041 22.9823 22.0231 23.149C22.8421 23.3156 23.6898 23.2835 24.4935 23.0555C25.2971 22.8275 26.0328 22.4104 26.6373 21.8398C27.2418 21.2693 27.6971 20.5625 27.964 19.78C28.6539 17.8519 28.2157 16.0435 26.7708 14.5258C26.3214 14.0599 25.854 13.6183 25.3956 13.1657C25.1709 12.9438 25.0967 12.7219 25.3574 12.429C25.6264 12.092 25.8527 11.7239 26.0315 11.3329C26.1956 11.0045 26.3461 10.8669 26.6495 11.1887C27.6247 12.2204 28.8022 13.088 29.5033 14.3394C30.3302 15.815 30.7369 17.3704 30.4561 19.1099C29.955 22.203 28.1505 24.1445 25.2518 25.1896C24.5939 25.4275 23.8921 25.5236 23.1935 25.4714Z" fill="#292425"/>
<path d="M18.5824 2.57959C17.2454 2.66612 15.9983 3.04554 15.0051 4.04402C14.5556 4.5011 14.077 4.93156 13.6276 5.39308C13.3647 5.66156 13.1579 5.71704 12.8231 5.45743C12.437 5.18303 12.0246 4.94669 11.5917 4.75183C11.3288 4.62092 11.2299 4.51442 11.4749 4.27479C12.4434 3.334 13.3085 2.27782 14.4613 1.53451C15.486 0.863513 16.6702 0.468115 17.8971 0.387373C21.1778 0.165488 23.6114 1.46129 25.2248 4.25925C25.6957 5.09714 25.9763 6.02612 26.0473 6.98178C26.2945 9.66214 25.281 11.7989 23.3238 13.5784C22.8901 13.9733 22.4946 14.4104 22.0632 14.8054C21.8385 15.0273 21.8205 15.1582 22.0632 15.3779C22.4969 15.775 22.9058 16.1988 23.3148 16.6204C24.2519 17.5856 24.8586 18.6728 24.7058 20.0751C24.6194 20.602 24.4101 21.1018 24.0946 21.5352C24.0384 21.6217 23.9957 21.757 23.8519 21.7215C23.7081 21.686 23.7058 21.5662 23.6811 21.4597C23.5827 21.0106 23.4319 20.5743 23.2317 20.1595C22.6766 19.05 21.6924 18.3312 20.8543 17.4769C20.1981 16.8068 19.524 16.153 18.8319 15.5154C18.506 15.2181 18.515 15.0095 18.8319 14.71C19.9307 13.6583 21.0071 12.5866 22.0902 11.5215C24.5507 9.10076 24.3552 5.59277 21.6003 3.53369C20.7419 2.89022 19.7015 2.6284 18.5824 2.57959Z" fill="#FDB604"/>
<path d="M0.576491 12.4624C0.522561 8.76803 2.67528 5.93014 5.85492 5.02042C8.74244 4.19501 11.3491 4.88507 13.5198 6.98853C14.086 7.53658 14.6613 8.07354 15.1961 8.64822C15.459 8.93001 15.6275 8.88341 15.8702 8.64822C16.4904 8.04913 17.0612 7.39457 17.7668 6.87314C19.2027 5.83029 20.7981 5.74597 22.016 6.65126C22.1149 6.72448 22.2699 6.77108 22.2407 6.93084C22.2407 6.97965 22.1351 7.0329 22.0722 7.04178C20.5914 7.26366 19.5577 8.17117 18.5802 9.19628C17.751 10.0661 16.8477 10.8693 16.0253 11.7457C15.632 12.1629 15.3961 12.0675 15.0478 11.7169C13.9737 10.6319 12.8614 9.58457 11.7872 8.49956C11.1955 7.89518 10.4626 7.4434 9.65282 7.1838C8.84306 6.9242 7.98117 6.86473 7.14272 7.0106C6.30427 7.15647 5.51486 7.50322 4.84371 8.02046C4.17257 8.53769 3.64018 9.20962 3.29323 9.97731C2.40787 11.8434 2.71348 13.9291 4.26622 15.5843C4.71564 16.068 5.19202 16.5429 5.68189 16.9933C5.9403 17.2329 6.00997 17.3971 5.76279 17.7122C5.47487 18.114 5.22227 18.5393 5.00776 18.9836C4.87743 19.2277 4.75609 19.2809 4.55834 19.0768C3.1584 17.69 1.5787 16.4475 0.94951 14.466C0.735009 13.8176 0.609551 13.1437 0.576491 12.4624Z" fill="#292425"/>
<path d="M128.584 15.1161C128.584 12.7752 128.598 10.4343 128.584 8.09346C128.584 7.62085 128.728 7.48551 129.187 7.51879C129.691 7.55873 130.197 7.55873 130.701 7.51879C131.189 7.47663 131.283 7.67189 131.281 8.11344C131.265 11.8855 131.281 15.6353 131.281 19.3962C131.281 20.2372 131.281 20.2372 132.112 20.2372C134.339 20.2372 136.564 20.2483 138.789 20.2372C139.22 20.2372 139.397 20.3348 139.362 20.7875C139.33 21.284 139.33 21.782 139.362 22.2785C139.377 22.6003 139.254 22.6801 138.944 22.6801C135.652 22.6801 132.36 22.6668 129.068 22.6801C128.618 22.6801 128.602 22.4827 128.602 22.1454C128.589 19.8001 128.584 17.4592 128.584 15.1161Z" fill="#292425"/>
<path d="M67.8589 15.1138C67.9061 11.9875 69.2297 9.58227 72.0633 8.08233C73.4924 7.32793 75.0204 7.1948 76.6428 7.38119C77.6702 7.48063 78.6629 7.80188 79.5506 8.3222C80.4383 8.84253 81.1993 9.54919 81.7797 10.3922C84.4987 14.1642 83.4852 19.891 78.9394 22.1897C77.4656 22.9241 75.7848 23.1484 74.1665 22.8265C71.2948 22.2918 69.3061 20.6365 68.2994 17.8719C67.9868 16.9859 67.8376 16.0518 67.8589 15.1138ZM75.5732 21.8303C76.7246 21.895 77.8672 21.5991 78.8382 20.9849C80.6921 19.8755 81.6876 18.2202 81.964 16.1035C82.2316 14.3774 81.8339 12.6149 80.8494 11.1643C79.6472 9.38924 77.9776 8.4662 75.8114 8.36857C74.1373 8.29313 72.6228 8.70805 71.3846 9.81303C69.4274 11.5615 68.7578 13.7714 69.1533 16.332C69.6139 19.2808 72.1194 21.9346 75.5732 21.8303Z" fill="#292425"/>
<path d="M65.531 22.5537C64.5108 22.8111 63.8951 22.6358 63.3423 21.8703C62.0659 20.0953 60.6795 18.4134 59.3447 16.6893C59.272 16.5853 59.173 16.5018 59.0575 16.4473C58.9419 16.3928 58.814 16.3692 58.6863 16.3787C57.3201 16.392 55.9561 16.3965 54.5898 16.3787C54.1943 16.3787 54.0842 16.503 54.0887 16.8846C54.1067 18.6597 54.0887 20.4347 54.109 22.1943C54.109 22.6713 53.8842 22.6824 53.5382 22.6736C53.1921 22.6647 52.9539 22.7002 52.9562 22.2076C52.9772 17.4741 52.9772 12.7346 52.9562 7.98926C52.9562 7.62759 53.0573 7.51887 53.4281 7.52109C55.6347 7.54106 57.8459 7.4634 60.048 7.56325C61.8008 7.64313 63.4187 8.2289 64.349 9.83312C65.4725 11.7702 64.9804 14.6347 62.2435 15.7153C61.8163 15.8965 61.3723 16.0362 60.9177 16.1324C60.4682 16.2145 60.5019 16.321 60.7469 16.6294C62.212 18.4799 63.6681 20.3482 65.1175 22.2032C65.2119 22.3141 65.2366 22.4805 65.531 22.5537ZM54.109 11.9721C54.109 12.9107 54.1337 13.8514 54.0977 14.79C54.0797 15.2338 54.2415 15.358 54.6685 15.3514C56.2752 15.3336 57.8818 15.3514 59.4908 15.3514C60.2762 15.3605 61.0543 15.2015 61.7716 14.8854C62.5315 14.5671 63.1403 13.975 63.4742 13.2295C63.8081 12.4839 63.842 11.6409 63.5692 10.8715C63.0614 9.3716 61.5581 8.72592 60.1537 8.65269C58.2908 8.5595 56.419 8.63051 54.5494 8.61498C54.2146 8.61498 54.1 8.70373 54.1 9.05875C54.109 10.0173 54.109 10.9958 54.109 11.9721Z" fill="#292425"/>
<path d="M92.1478 22.8955C89.917 22.9354 87.749 22.1647 86.0559 20.7299C85.6604 20.4059 85.9503 20.2395 86.1143 20.0265C86.2784 19.8135 86.4604 19.5228 86.8177 19.8445C87.6199 20.5612 88.5075 21.1758 89.5546 21.4621C91.3343 21.948 93.1208 22.1544 94.7544 20.9895C95.6173 20.3771 95.9162 19.5073 95.842 18.4866C95.7656 17.4171 95.0937 16.7959 94.1747 16.3809C93.2197 15.9527 92.1927 15.7552 91.1748 15.5333C89.9928 15.276 88.8446 14.9387 87.8244 14.2575C85.9188 12.9839 85.8604 10.1149 87.5817 8.63053C89.1412 7.28369 90.9815 7.10396 92.9567 7.45675C94.1221 7.69427 95.2242 8.16966 96.1926 8.85241C96.4645 9.02992 96.6128 9.23626 96.3274 9.48033C96.1027 9.67337 96.024 10.2281 95.487 9.79985C94.7933 9.23599 93.9873 8.82236 93.1214 8.58576C92.2554 8.34915 91.3488 8.29485 90.4602 8.42638C88.8468 8.64827 87.3143 9.65342 87.5794 11.7391C87.7233 12.8663 88.53 13.3966 89.4625 13.8049C90.4827 14.2486 91.5838 14.4217 92.6624 14.6769C93.5826 14.8908 94.4698 15.2251 95.3005 15.6709C97.6936 16.9601 97.4689 20.4902 95.4331 21.8526C94.332 22.5915 93.1275 22.9354 92.1478 22.8955Z" fill="#292425"/>
<path d="M106.017 22.8975C103.84 22.9143 101.73 22.1539 100.076 20.7564C99.7789 20.5123 99.7857 20.3303 100.044 20.0907C100.269 19.8843 100.392 19.4672 100.819 19.8555C101.588 20.601 102.527 21.1541 103.556 21.4686C105.354 21.9612 107.152 22.1343 108.801 20.9538C110.165 19.9731 110.439 17.2683 108.127 16.3564C106.886 15.8683 105.579 15.6774 104.307 15.3269C103.248 15.0317 102.21 14.6878 101.404 13.9068C99.8643 12.4135 100.024 9.75534 101.745 8.47063C103.318 7.30352 105.073 7.10826 106.963 7.46106C108.113 7.68547 109.199 8.15828 110.143 8.84561C110.381 9.01203 110.646 9.19176 110.336 9.46468C110.111 9.66437 110.03 10.2457 109.455 9.7864C108.768 9.2269 107.969 8.81694 107.111 8.58332C106.252 8.3497 105.353 8.29768 104.473 8.43069C102.714 8.66367 101.195 9.79749 101.608 11.9365C101.804 12.9482 102.579 13.4519 103.442 13.7958C104.519 14.2022 105.633 14.5098 106.767 14.7145C107.912 14.9002 108.987 15.38 109.884 16.1057C111.666 17.6322 111.338 20.6343 109.232 21.9922C108.274 22.5999 107.156 22.9148 106.017 22.8975Z" fill="#292425"/>
<path d="M43.8016 22.9021C40.4804 23.0374 37.7142 20.8452 36.6783 18.2425C35.3682 14.9364 36.2783 10.9425 39.1726 8.79022C41.15 7.328 43.3432 6.99961 45.7273 7.48554C47.1745 7.78064 48.3474 8.52617 49.453 9.43811C49.7496 9.68219 49.6575 9.802 49.453 10.035C49.098 10.441 48.8373 10.5187 48.3856 10.1016C46.7205 8.54837 44.6734 8.04691 42.4893 8.45074C40.177 8.87898 38.5591 10.2946 37.7838 12.4957C36.8356 15.1938 37.2041 17.7277 39.1726 19.9C39.6969 20.4774 40.3327 20.9458 41.0427 21.2776C41.7526 21.6095 42.5225 21.7982 43.3072 21.8326C45.361 21.979 47.0778 21.2934 48.5744 19.9643C49.0418 19.5472 49.3317 19.576 49.653 20.1041C49.7541 20.2661 49.7137 20.3814 49.5609 20.5235C48.4575 21.5463 47.2396 22.3362 45.7408 22.6979C45.1029 22.8299 44.4533 22.8983 43.8016 22.9021Z" fill="#292425"/>
</g>
<defs>
<clipPath id="clip0_437_6">
<rect width="180.379" height="33.2738" fill="white" transform="translate(0.576477 0.363037)"/>
</clipPath>
</defs>
</svg>
