<svg width="181" height="34" viewBox="0 0 181 34" fill="none" xmlns="http://www.w3.org/2000/svg">
<g clip-path="url(#clip0_206_1838)">
<path d="M174.452 18.5135C174.929 17.8967 174.983 17.2044 175.209 16.5853C175.684 15.2807 176.108 13.9538 176.522 12.6336C176.971 11.2157 177.466 9.80456 177.89 8.37785C178.142 7.53025 178.128 7.52803 178.991 7.52803C179.515 7.52803 180.038 7.54578 180.564 7.52803C180.946 7.51028 181.014 7.6545 180.906 7.98511C180.065 10.3349 179.218 12.6824 178.389 15.0366C177.762 16.8228 177.176 18.62 176.537 20.4018C176.313 21.0075 176.072 21.6044 175.888 22.2256C175.859 22.3677 175.79 22.499 175.69 22.6051C175.088 23.0999 174.374 22.716 173.715 22.8269C173.416 22.878 173.279 22.6516 173.198 22.4187C172.708 20.9986 172.23 19.5719 171.738 18.1518C171.342 17.0091 170.931 15.8709 170.531 14.7282C170.279 14.0026 170.034 13.2748 169.783 12.5493C169.749 12.4539 169.767 12.3118 169.614 12.2985C169.461 12.2852 169.389 12.425 169.358 12.5448C168.92 13.8029 168.491 15.061 168.052 16.3169C167.551 17.748 167.043 19.1747 166.547 20.6081C166.363 21.1406 166.187 21.6776 166.028 22.219C165.904 22.6361 165.693 22.8846 165.196 22.838C164.843 22.7948 164.486 22.7948 164.134 22.838C163.608 22.9113 163.39 22.6161 163.248 22.2123C162.012 18.6947 160.78 15.1771 159.552 11.6595C159.102 10.3992 158.653 9.1389 158.203 7.88748C158.127 7.66559 158.156 7.5369 158.428 7.53912C159.194 7.53912 159.963 7.53912 160.729 7.53912C161.015 7.53912 161.113 7.69888 161.179 7.92964C161.853 10.0375 162.527 12.1447 163.201 14.2511C163.623 15.5491 164.066 16.8427 164.502 18.1363C164.531 18.2273 164.502 18.3848 164.673 18.3582C164.803 18.3404 164.846 18.2251 164.882 18.1208C165.255 17.0114 165.629 15.9019 166.005 14.7925C166.423 13.5411 166.861 12.2963 167.277 11.0449C167.596 10.0841 167.972 9.1367 168.219 8.1604C168.338 7.68779 168.549 7.44593 169.059 7.53247C169.134 7.53913 169.209 7.53913 169.284 7.53247C170.857 7.53247 170.805 7.54356 171.275 9.01021C172.034 11.3888 172.848 13.7497 173.645 16.1105C173.929 16.876 174.174 17.6593 174.452 18.5135Z" fill="white"/>
<path d="M148.775 22.9022C144.244 23.0087 140.811 19.3897 140.804 15.1362C140.802 14.0937 141.009 13.0612 141.415 12.0988C141.821 11.1365 142.417 10.2635 143.168 9.53095C143.919 8.79837 144.811 8.22079 145.79 7.83192C146.77 7.44305 147.818 7.25066 148.873 7.26598C153.464 7.28595 156.857 10.8161 156.848 15.1007C156.854 16.1411 156.647 17.172 156.241 18.132C155.835 19.0921 155.237 19.9618 154.484 20.6895C153.731 21.4171 152.838 21.988 151.857 22.3681C150.876 22.7482 149.828 22.9298 148.775 22.9022ZM143.703 15.0519C143.703 15.4003 143.687 15.7508 143.703 16.1014C143.744 16.3887 143.824 16.6693 143.941 16.9357C144.343 18.1449 145.188 19.162 146.311 19.7876C147.433 20.4132 148.752 20.6021 150.008 20.3172C152.426 19.7714 153.754 17.7167 153.983 15.7597C154.111 14.6364 153.895 13.5011 153.363 12.5002C152.839 11.4596 151.966 10.63 150.893 10.1519C149.82 9.67386 148.613 9.57675 147.476 9.87705C146.339 10.1773 145.342 10.8566 144.654 11.7997C143.966 12.7428 143.629 13.8917 143.701 15.0519H143.703Z" fill="white"/>
<path d="M114.556 15.1051C114.556 12.7643 114.556 10.4234 114.556 8.08027C114.556 7.66757 114.639 7.51226 115.104 7.51669C118.55 7.53592 121.995 7.53592 125.441 7.51669C125.904 7.51669 126.016 7.66092 125.985 8.07807C125.95 8.52116 125.95 8.96628 125.985 9.40937C126.018 9.83317 125.892 9.97295 125.434 9.96851C122.946 9.94632 120.459 9.95742 117.971 9.96851C117.232 9.96851 117.232 9.96851 117.23 10.6941C117.23 11.6349 117.257 12.5757 117.23 13.5142C117.212 13.958 117.374 14.0734 117.801 14.0711C119.989 14.0556 122.178 14.0712 124.367 14.0534C124.899 14.0534 125.068 14.2353 125.041 14.7191C125.018 15.1248 125.018 15.5315 125.041 15.9372C125.063 16.381 124.852 16.5518 124.403 16.5496C122.252 16.5496 120.102 16.5496 117.949 16.5318C117.385 16.5318 117.219 16.6827 117.234 17.2507C117.277 18.855 117.223 20.4592 117.264 22.0634C117.264 22.5937 117.097 22.7291 116.605 22.6803C116.12 22.6425 115.632 22.6425 115.147 22.6803C114.697 22.7135 114.578 22.576 114.583 22.1366C114.556 19.7891 114.556 17.4482 114.556 15.1051Z" fill="white"/>
<path d="M7.33351 8.44873C7.52961 9.67326 8.1432 10.795 9.07276 11.6283C10.0997 12.6091 11.0952 13.6253 12.1198 14.606C12.5086 14.9699 12.5086 15.2206 12.1198 15.5845C11.0255 16.6296 9.97835 17.719 8.88176 18.7597C7.43913 20.1331 7.04364 21.8417 7.42789 23.6766C7.77395 25.3386 8.86154 26.5611 10.4794 27.1891C12.6434 28.0344 14.5759 27.6062 16.2298 25.9865C16.641 25.5848 17.0567 25.1899 17.4679 24.7905C17.5083 24.735 17.5603 24.6887 17.6202 24.6546C17.6802 24.6205 17.7468 24.5994 17.8157 24.5927C17.8846 24.586 17.9541 24.5938 18.0197 24.6157C18.0852 24.6375 18.1453 24.6729 18.196 24.7195C18.5897 25.0281 19.0254 25.2806 19.4903 25.4695C19.7532 25.5582 19.7622 25.749 19.5712 25.9377C18.0319 27.4775 16.6073 29.1661 14.2995 29.6697C11.4816 30.2821 8.31999 29.4479 6.43467 26.8807C5.49396 25.6359 4.98063 24.127 4.96957 22.5739C4.94261 20.395 5.77178 18.58 7.30655 17.0534C7.81664 16.5475 8.31774 16.0327 8.85704 15.5601C9.25478 15.214 9.21208 14.9877 8.84356 14.6393C8.11101 13.9515 7.34924 13.2814 6.8414 12.3916C6.21221 11.2822 6.08188 10.1883 6.72455 9.06335C6.84372 8.79126 7.06063 8.57233 7.33351 8.44873Z" fill="#FDB604"/>
<path d="M23.1935 25.4718C20.6048 25.5229 18.6993 24.449 17.0903 22.776C16.7106 22.3832 16.2994 22.0193 15.9466 21.6044C15.6275 21.2316 15.3938 21.3004 15.0972 21.6199C14.5021 22.3074 13.8313 22.9274 13.0973 23.4682C11.7984 24.3558 10.3221 24.3935 9.12888 23.5903C8.98282 23.4904 8.81429 23.3928 8.85024 23.2308C8.8862 23.0688 9.10416 23.1354 9.24124 23.1043C10.2063 22.8924 11.0878 22.4074 11.7782 21.7087C12.8793 20.617 13.9894 19.5342 15.0725 18.4248C15.4028 18.0875 15.6162 18.0809 15.9713 18.4248C17.2184 19.674 18.4026 20.9964 19.7914 22.0992C20.4383 22.6224 21.2041 22.9828 22.0231 23.1494C22.8421 23.3161 23.6898 23.284 24.4935 23.056C25.2971 22.828 26.0328 22.4108 26.6373 21.8403C27.2418 21.2698 27.6971 20.563 27.964 19.7805C28.6539 17.8523 28.2157 16.044 26.7708 14.5263C26.3214 14.0603 25.854 13.6188 25.3956 13.1662C25.1709 12.9443 25.0967 12.7224 25.3574 12.4295C25.6264 12.0925 25.8527 11.7244 26.0315 11.3334C26.1956 11.005 26.3461 10.8674 26.6495 11.1892C27.6247 12.2209 28.8022 13.0885 29.5033 14.3399C30.3302 15.8154 30.7369 17.3709 30.4561 19.1104C29.955 22.2035 28.1505 24.145 25.2518 25.1901C24.5939 25.428 23.8921 25.5241 23.1935 25.4718Z" fill="white"/>
<path d="M18.5824 2.57983C17.2454 2.66637 15.9983 3.04578 15.0051 4.04426C14.5556 4.50135 14.077 4.9318 13.6276 5.39332C13.3647 5.6618 13.1579 5.71728 12.8231 5.45768C12.437 5.18327 12.0246 4.94693 11.5917 4.75207C11.3288 4.62116 11.2299 4.51467 11.4749 4.27503C12.4434 3.33424 13.3085 2.27807 14.4613 1.53475C15.486 0.863757 16.6702 0.468359 17.8971 0.387617C21.1778 0.165733 23.6114 1.46154 25.2248 4.2595C25.6957 5.09739 25.9763 6.02637 26.0473 6.98202C26.2945 9.66238 25.281 11.7991 23.3238 13.5786C22.8901 13.9736 22.4946 14.4107 22.0632 14.8056C21.8385 15.0275 21.8205 15.1584 22.0632 15.3781C22.4969 15.7753 22.9058 16.1991 23.3148 16.6207C24.2519 17.5859 24.8586 18.6731 24.7058 20.0754C24.6194 20.6023 24.4101 21.1021 24.0946 21.5354C24.0384 21.6219 23.9957 21.7573 23.8519 21.7218C23.7081 21.6863 23.7058 21.5665 23.6811 21.46C23.5827 21.0109 23.4319 20.5745 23.2317 20.1597C22.6766 19.0503 21.6924 18.3314 20.8543 17.4771C20.1981 16.807 19.524 16.1532 18.8319 15.5157C18.506 15.2184 18.515 15.0098 18.8319 14.7102C19.9307 13.6585 21.0071 12.5868 22.0902 11.5218C24.5507 9.10101 24.3552 5.59302 21.6003 3.53393C20.7419 2.89047 19.7015 2.62865 18.5824 2.57983Z" fill="#FDB604"/>
<path d="M0.576491 12.4624C0.522561 8.76803 2.67528 5.93014 5.85492 5.02042C8.74244 4.19501 11.3491 4.88507 13.5198 6.98853C14.086 7.53658 14.6613 8.07354 15.1961 8.64822C15.459 8.93001 15.6275 8.88341 15.8702 8.64822C16.4904 8.04913 17.0612 7.39457 17.7668 6.87314C19.2027 5.83029 20.7981 5.74597 22.016 6.65126C22.1149 6.72448 22.2699 6.77108 22.2407 6.93084C22.2407 6.97965 22.1351 7.0329 22.0722 7.04178C20.5914 7.26366 19.5577 8.17117 18.5802 9.19628C17.751 10.0661 16.8477 10.8693 16.0253 11.7457C15.632 12.1629 15.3961 12.0675 15.0478 11.7169C13.9737 10.6319 12.8614 9.58457 11.7872 8.49956C11.1955 7.89518 10.4626 7.4434 9.65282 7.1838C8.84306 6.9242 7.98117 6.86473 7.14272 7.0106C6.30427 7.15647 5.51486 7.50322 4.84371 8.02046C4.17257 8.53769 3.64018 9.20962 3.29323 9.97731C2.40787 11.8434 2.71348 13.9291 4.26622 15.5843C4.71564 16.068 5.19202 16.5429 5.68189 16.9933C5.9403 17.2329 6.00997 17.3971 5.76279 17.7122C5.47487 18.114 5.22227 18.5393 5.00776 18.9836C4.87743 19.2277 4.75609 19.2809 4.55834 19.0768C3.1584 17.69 1.5787 16.4475 0.94951 14.466C0.735009 13.8176 0.609551 13.1437 0.576491 12.4624Z" fill="white"/>
<path d="M128.584 15.1166C128.584 12.7757 128.598 10.4348 128.584 8.09395C128.584 7.62134 128.728 7.486 129.187 7.51928C129.691 7.55922 130.197 7.55922 130.701 7.51928C131.189 7.47712 131.283 7.67238 131.281 8.11393C131.265 11.886 131.281 15.6358 131.281 19.3967C131.281 20.2377 131.281 20.2377 132.112 20.2377C134.339 20.2377 136.564 20.2488 138.789 20.2377C139.22 20.2377 139.397 20.3353 139.362 20.788C139.33 21.2845 139.33 21.7825 139.362 22.279C139.377 22.6008 139.254 22.6806 138.944 22.6806C135.652 22.6806 132.36 22.6673 129.068 22.6806C128.618 22.6806 128.602 22.4831 128.602 22.1459C128.589 19.8006 128.584 17.4597 128.584 15.1166Z" fill="white"/>
<path d="M67.8589 15.1141C67.9061 11.9877 69.2297 9.58252 72.0633 8.08258C73.4924 7.32817 75.0204 7.19505 76.6428 7.38143C77.6702 7.48087 78.6629 7.80213 79.5506 8.32245C80.4383 8.84277 81.1993 9.54944 81.7797 10.3924C84.4987 14.1644 83.4852 19.8913 78.9394 22.19C77.4656 22.9243 75.7848 23.1486 74.1665 22.8268C71.2948 22.292 69.3061 20.6368 68.2994 17.8721C67.9868 16.9862 67.8376 16.052 67.8589 15.1141ZM75.5732 21.8305C76.7246 21.8952 77.8672 21.5994 78.8382 20.9852C80.6921 19.8757 81.6876 18.2205 81.964 16.1037C82.2316 14.3776 81.8339 12.6152 80.8494 11.1646C79.6472 9.38948 77.9776 8.46645 75.8114 8.36882C74.1373 8.29338 72.6228 8.70829 71.3846 9.81327C69.4274 11.5617 68.7578 13.7717 69.1533 16.3322C69.6139 19.2811 72.1194 21.9348 75.5732 21.8305Z" fill="white"/>
<path d="M65.531 22.554C64.5108 22.8114 63.8951 22.6361 63.3423 21.8706C62.066 20.0955 60.6795 18.4136 59.3448 16.6896C59.2721 16.5855 59.173 16.5021 59.0575 16.4476C58.942 16.3931 58.814 16.3694 58.6864 16.3789C57.3201 16.3923 55.9561 16.3967 54.5899 16.3789C54.1944 16.3789 54.0843 16.5032 54.0888 16.8848C54.1068 18.6599 54.0888 20.435 54.109 22.1945C54.109 22.6716 53.8843 22.6827 53.5383 22.6738C53.1922 22.6649 52.954 22.7004 52.9563 22.2078C52.9772 17.4743 52.9772 12.7349 52.9563 7.98951C52.9563 7.62784 53.0574 7.51912 53.4281 7.52133C55.6348 7.5413 57.8459 7.46364 60.0481 7.56349C61.8008 7.64337 63.4187 8.22914 64.349 9.83336C65.4726 11.7704 64.9805 14.6349 62.2435 15.7155C61.8163 15.8967 61.3723 16.0364 60.9177 16.1327C60.4683 16.2148 60.502 16.3213 60.7469 16.6297C62.212 18.4802 63.6682 20.3485 65.1175 22.2034C65.2119 22.3143 65.2366 22.4808 65.531 22.554ZM54.109 11.9723C54.109 12.9109 54.1337 13.8517 54.0978 14.7903C54.0798 15.234 54.2416 15.3583 54.6685 15.3516C56.2752 15.3339 57.8819 15.3516 59.4908 15.3516C60.2762 15.3607 61.0543 15.2018 61.7716 14.8857C62.5316 14.5673 63.1403 13.9752 63.4742 13.2297C63.8081 12.4842 63.8421 11.6411 63.5693 10.8718C63.0614 9.37184 61.5581 8.72616 60.1537 8.65294C58.2909 8.55975 56.419 8.63075 54.5495 8.61522C54.2146 8.61522 54.1 8.70398 54.1 9.05899C54.109 10.0175 54.109 10.996 54.109 11.9723Z" fill="white"/>
<path d="M92.1479 22.8957C89.917 22.9356 87.7491 22.1649 86.056 20.7301C85.6605 20.4062 85.9504 20.2397 86.1144 20.0267C86.2784 19.8137 86.4604 19.5231 86.8177 19.8448C87.6199 20.5615 88.5076 21.1761 89.5547 21.4623C91.3344 21.9482 93.1208 22.1546 94.7545 20.9897C95.6174 20.3773 95.9162 19.5075 95.8421 18.4869C95.7657 17.4174 95.0938 16.7961 94.1747 16.3812C93.2197 15.9529 92.1928 15.7555 91.1749 15.5336C89.9929 15.2762 88.8446 14.9389 87.8244 14.2577C85.9189 12.9841 85.8605 10.1152 87.5818 8.63077C89.1412 7.28394 90.9816 7.1042 92.9568 7.457C94.1221 7.69452 95.2243 8.16991 96.1926 8.85266C96.4645 9.03016 96.6128 9.23651 96.3275 9.48058C96.1027 9.67362 96.0241 10.2283 95.487 9.80009C94.7934 9.23623 93.9874 8.82261 93.1214 8.586C92.2555 8.34939 91.3489 8.29509 90.4603 8.42663C88.8469 8.64851 87.3143 9.65366 87.5795 11.7394C87.7233 12.8665 88.53 13.3968 89.4626 13.8051C90.4828 14.2489 91.5838 14.4219 92.6624 14.6771C93.5827 14.891 94.4699 15.2253 95.3005 15.6712C97.6937 16.9603 97.469 20.4905 95.4331 21.8528C94.332 22.5917 93.1276 22.9356 92.1479 22.8957Z" fill="white"/>
<path d="M106.017 22.898C103.84 22.9148 101.73 22.1544 100.076 20.7568C99.779 20.5128 99.7857 20.3308 100.044 20.0912C100.269 19.8848 100.392 19.4677 100.819 19.856C101.588 20.6015 102.527 21.1546 103.556 21.4691C105.354 21.9617 107.152 22.1347 108.801 20.9543C110.165 19.9736 110.439 17.2688 108.127 16.3569C106.887 15.8687 105.579 15.6779 104.307 15.3273C103.248 15.0322 102.21 14.6883 101.404 13.9073C99.8644 12.414 100.024 9.75583 101.745 8.47112C103.318 7.30401 105.073 7.10875 106.963 7.46155C108.113 7.68596 109.199 8.15877 110.143 8.8461C110.381 9.01251 110.646 9.19225 110.336 9.46517C110.111 9.66486 110.03 10.2462 109.455 9.78689C108.768 9.22739 107.969 8.81743 107.111 8.58381C106.252 8.35018 105.353 8.29817 104.473 8.43118C102.714 8.66416 101.195 9.79798 101.608 11.9369C101.804 12.9487 102.579 13.4524 103.442 13.7963C104.519 14.2027 105.633 14.5102 106.767 14.7149C107.912 14.9007 108.987 15.3805 109.884 16.1062C111.666 17.6327 111.338 20.6348 109.233 21.9927C108.274 22.6004 107.156 22.9153 106.017 22.898Z" fill="white"/>
<path d="M43.8016 22.9021C40.4804 23.0374 37.7142 20.8452 36.6783 18.2425C35.3682 14.9364 36.2783 10.9425 39.1726 8.79022C41.15 7.328 43.3432 6.99961 45.7273 7.48554C47.1745 7.78064 48.3474 8.52617 49.453 9.43811C49.7496 9.68219 49.6575 9.802 49.453 10.035C49.098 10.441 48.8373 10.5187 48.3856 10.1016C46.7205 8.54837 44.6734 8.04691 42.4893 8.45074C40.177 8.87898 38.5591 10.2946 37.7838 12.4957C36.8356 15.1938 37.2041 17.7277 39.1726 19.9C39.6969 20.4774 40.3327 20.9458 41.0427 21.2776C41.7526 21.6095 42.5225 21.7982 43.3072 21.8326C45.361 21.979 47.0778 21.2934 48.5744 19.9643C49.0418 19.5472 49.3317 19.576 49.653 20.1041C49.7541 20.2661 49.7137 20.3814 49.5609 20.5235C48.4575 21.5463 47.2396 22.3362 45.7408 22.6979C45.1029 22.8299 44.4533 22.8983 43.8016 22.9021Z" fill="white"/>
<path d="M72.1082 31.367C72.5824 31.1606 72.5239 30.7014 72.6655 30.373C72.9666 29.6873 73.1554 28.9551 73.3936 28.2429C73.4239 28.156 73.4623 28.0721 73.5082 27.9922C73.5377 27.9126 73.5972 27.8475 73.6743 27.8103C73.7513 27.7731 73.8399 27.7667 73.9216 27.7925C74.1688 27.8723 74.0722 28.0521 74.0205 28.2029C73.6183 29.3234 73.2205 30.444 72.8071 31.5578C72.7417 31.8246 72.6451 32.083 72.5194 32.3278C72.4318 32.4587 72.3801 32.594 72.1959 32.563C72.1217 32.5552 72.051 32.5275 71.9916 32.4829C71.9322 32.4383 71.8863 32.3785 71.8588 32.31C71.5442 31.3848 71.2319 30.4617 70.9397 29.5298C70.8815 29.3239 70.7588 29.1413 70.5892 29.0084C70.2139 30.0845 69.8544 31.1185 69.4859 32.148C69.423 32.3278 69.405 32.5785 69.1173 32.5585C68.8657 32.543 68.814 32.3522 68.7398 32.148C68.2635 30.83 67.7668 29.5209 67.2837 28.2074C67.2298 28.0632 67.1287 27.8479 67.3826 27.8013C67.5871 27.7636 67.8006 27.7636 67.8994 28.0676C68.2567 29.1593 68.65 30.2398 69.041 31.3515C69.4904 31.1296 69.4409 30.6858 69.5713 30.3597C69.8566 29.6474 70.0589 28.8996 70.2769 28.1608C70.2934 28.0608 70.3418 27.9687 70.4149 27.8977C70.488 27.8267 70.5821 27.7805 70.6836 27.7658C70.9083 27.7303 70.9375 27.9322 70.9937 28.0831C71.2215 28.6132 71.4144 29.1572 71.5712 29.7118C71.697 30.2776 71.9846 30.779 72.1082 31.367Z" fill="white"/>
<path d="M128.984 28.8841C128.424 29.4612 127.942 30.1079 127.551 30.8078C127.268 31.2516 127.083 31.0874 126.877 30.8078C126.45 30.2065 126.052 29.5852 125.627 28.9484C125.403 29.137 125.483 29.35 125.481 29.5342C125.481 30.3996 125.481 31.2671 125.481 32.1325C125.481 32.3255 125.481 32.5252 125.212 32.5274C124.942 32.5297 124.857 32.3721 124.857 32.1303C124.857 30.7989 124.857 29.4676 124.857 28.1496C124.843 28.0677 124.862 27.9836 124.91 27.9156C124.959 27.8475 125.032 27.8009 125.115 27.7858C125.225 27.7594 125.34 27.7703 125.443 27.8165C125.545 27.8628 125.629 27.9419 125.681 28.0409C126.113 28.6622 126.564 29.2724 126.953 29.9203C127.178 30.2931 127.313 30.1821 127.486 29.9203C127.892 29.3286 128.293 28.7332 128.69 28.1341C128.841 27.9122 129.007 27.6904 129.31 27.7835C129.614 27.8767 129.517 28.143 129.517 28.3538C129.517 29.5342 129.517 30.7124 129.517 31.9039C129.517 31.9771 129.517 32.0526 129.517 32.1258C129.497 32.31 129.488 32.5274 129.236 32.5319C128.984 32.5363 128.98 32.31 128.978 32.128C128.978 31.3914 128.978 30.6547 128.978 29.9092L128.984 28.8841Z" fill="white"/>
<path d="M95.5229 30.8212C95.5229 31.1895 95.5229 31.5579 95.5229 31.9306C95.5701 33.1111 94.7275 33.5371 93.8803 33.6303C93.4141 33.6525 92.9499 33.5562 92.5321 33.3507C92.3545 33.2797 92.0961 33.1865 92.2444 32.9069C92.368 32.685 92.5815 32.8004 92.7388 32.8825C93.1756 33.1018 93.6763 33.1638 94.1545 33.0578C94.3306 33.0354 94.4953 32.9593 94.6255 32.8399C94.7556 32.7205 94.8447 32.564 94.8803 32.3921C94.9185 32.239 95.0511 32.0571 94.8803 31.9484C94.7095 31.8397 94.5679 31.9683 94.4309 32.0438C94.1771 32.176 93.8931 32.2413 93.6063 32.2336C93.3195 32.2259 93.0395 32.1453 92.7934 31.9996C92.5473 31.8539 92.3434 31.6481 92.2014 31.402C92.0593 31.1558 91.9838 30.8777 91.9823 30.5944C91.9808 30.3111 92.0532 30.0322 92.1927 29.7845C92.3321 29.5369 92.5338 29.329 92.7783 29.1807C93.0228 29.0325 93.3018 28.9489 93.5886 28.9382C93.8753 28.9275 94.1599 28.9898 94.4151 29.1193C94.669 29.2414 94.887 29.5343 95.1657 29.0483C95.3027 28.8087 95.5432 29.0683 95.5477 29.3346C95.5477 29.8316 95.5477 30.3286 95.5477 30.8279L95.5229 30.8212ZM93.7477 31.7442C94.4443 31.7442 95.0623 31.1696 95.0421 30.5505C95.0218 29.9314 94.3679 29.3923 93.7163 29.4034C93.5577 29.4017 93.4005 29.432 93.2542 29.4923C93.1079 29.5527 92.9756 29.6419 92.8654 29.7544C92.7552 29.867 92.6694 30.0006 92.6133 30.147C92.5571 30.2934 92.5318 30.4496 92.5388 30.606C92.5363 30.7609 92.5663 30.9146 92.6269 31.0575C92.6876 31.2004 92.7775 31.3294 92.891 31.4363C93.0046 31.5432 93.1393 31.6258 93.2868 31.6788C93.4342 31.7318 93.5912 31.7541 93.7477 31.7442Z" fill="white"/>
<path d="M148.305 31.2785C148.305 30.6506 148.305 30.0249 148.305 29.3992C148.305 29.2372 148.278 29.053 148.503 28.9953C148.665 28.9554 148.844 28.9953 148.887 29.1374C149.015 29.5612 149.195 29.286 149.361 29.1928C149.666 28.9912 150.032 28.8993 150.398 28.9324C150.764 28.9655 151.107 29.1217 151.37 29.3748C151.927 29.874 152.094 30.8436 151.752 31.6269C151.593 31.9392 151.343 32.1975 151.034 32.3686C150.726 32.5398 150.372 32.6161 150.02 32.5876C149.759 32.5613 149.512 32.4637 149.305 32.3059C148.905 31.993 148.934 32.2704 148.93 32.5277C148.93 32.7496 148.93 32.9715 148.93 33.1934C148.93 33.4153 148.891 33.6083 148.617 33.6216C148.343 33.6349 148.298 33.4286 148.305 33.2111V31.2763V31.2785ZM148.921 30.7749C148.878 31.6313 149.455 32.044 150.127 32.0862C150.799 32.1283 151.368 31.527 151.363 30.7549C151.359 29.9827 150.788 29.3903 150.105 29.4103C149.422 29.4302 148.914 30.0027 148.921 30.7749Z" fill="white"/>
<path d="M98.5229 30.1512C98.4835 29.7047 98.5821 29.2569 98.8055 28.8668C99.0289 28.4766 99.3667 28.1625 99.7745 27.9656C100.642 27.4885 101.527 27.5729 102.363 28.0899C102.559 28.2119 102.848 28.3339 102.644 28.6268C102.471 28.8731 102.273 28.7111 102.073 28.5847C101.037 27.9345 99.8441 28.2075 99.3026 29.2037C98.9386 29.8694 99.1655 31.1252 99.7295 31.6444C100.251 32.1215 101.422 32.1991 102.062 31.7265C102.107 31.6948 102.15 31.6599 102.19 31.6223C102.217 31.5842 102.252 31.5526 102.293 31.53C102.334 31.5074 102.379 31.4943 102.426 31.4917C102.473 31.4891 102.52 31.4971 102.563 31.5152C102.606 31.5332 102.645 31.5607 102.675 31.5956C102.783 31.7376 102.702 31.893 102.525 32.0394C102.242 32.27 101.91 32.4357 101.554 32.5246C101.198 32.6135 100.826 32.6234 100.466 32.5536C100.106 32.4838 99.7655 32.336 99.4699 32.1209C99.1744 31.9057 98.9307 31.6286 98.7565 31.3094C98.598 30.9435 98.5184 30.5491 98.5229 30.1512Z" fill="white"/>
<path d="M137.748 30.0093C137.748 29.3814 137.748 28.7534 137.748 28.1277C137.748 27.9058 137.627 27.5752 138.025 27.593C138.422 27.6107 138.283 27.9369 138.285 28.1543C138.299 28.8555 138.285 29.5567 138.285 30.2578C138.285 30.3909 138.236 30.564 138.431 30.6328C138.627 30.7016 138.656 30.5196 138.73 30.442C139.139 30.0603 139.535 29.6609 139.935 29.2682C140.019 29.1744 140.116 29.0917 140.222 29.0219C140.355 28.9442 140.557 28.9154 140.64 29.0219C140.723 29.1284 140.606 29.2593 140.492 29.368C140.218 29.6254 139.982 29.925 139.705 30.1824C139.429 30.4398 139.411 30.6261 139.678 30.9124C140.009 31.2659 140.31 31.6459 140.577 32.0484C140.66 32.1705 140.912 32.3524 140.701 32.5099C140.611 32.5627 140.504 32.5785 140.402 32.554C140.3 32.5296 140.212 32.4667 140.157 32.379C139.912 32.0684 139.663 31.7622 139.404 31.4649C139.258 31.2962 139.18 30.9523 138.878 31.0854C138.724 31.149 138.589 31.2508 138.486 31.381C138.384 31.5112 138.317 31.6655 138.292 31.8288C138.247 32.0861 138.442 32.5454 137.993 32.5166C137.544 32.4877 137.768 32.0418 137.753 31.7799C137.728 31.1897 137.748 30.5995 137.748 30.0093Z" fill="white"/>
<path d="M119.983 31.2229V32.217C119.988 32.2819 119.972 32.3468 119.935 32.4012C119.899 32.4556 119.845 32.4962 119.783 32.5165C119.722 32.5452 119.653 32.5494 119.59 32.5282C119.526 32.5071 119.474 32.4623 119.443 32.4034C119.326 32.1371 119.234 32.2458 119.043 32.3523C118.189 32.8338 117.246 32.5986 116.92 31.8553C116.861 31.7111 116.834 31.5556 116.843 31.4002C116.852 31.2447 116.895 31.0931 116.97 30.9562C117.045 30.8192 117.149 30.7003 117.276 30.6079C117.403 30.5155 117.549 30.452 117.704 30.4219C118.103 30.3247 118.519 30.3149 118.922 30.3931C119.064 30.4286 119.281 30.5218 119.371 30.311C119.401 30.2221 119.404 30.1269 119.382 30.0361C119.36 29.9452 119.313 29.8622 119.246 29.7962C118.958 29.4723 118.571 29.4301 118.171 29.4745C117.947 29.4967 117.733 29.5566 117.511 29.5899C117.389 29.6076 117.241 29.652 117.21 29.4545C117.178 29.257 117.248 29.2038 117.421 29.1372C118.574 28.6935 120.135 28.8887 119.996 30.7814C119.996 30.9278 119.996 31.0765 119.996 31.2252L119.983 31.2229ZM118.479 30.7903L118.016 30.8346C117.724 30.8635 117.486 30.97 117.421 31.2784C117.38 31.4286 117.396 31.5882 117.466 31.7275C117.536 31.8668 117.655 31.9761 117.801 32.035C118.308 32.3146 118.722 32.1171 119.12 31.842C119.241 31.7538 119.332 31.6316 119.381 31.4915C119.43 31.3513 119.435 31.1997 119.396 31.0565C119.326 30.7237 118.998 30.8857 118.792 30.8191C118.689 30.7985 118.584 30.7889 118.479 30.7903Z" fill="white"/>
<path d="M133.777 31.252C133.777 31.5648 133.795 31.8777 133.777 32.1905C133.76 32.5034 133.492 32.7031 133.328 32.4501C133.076 32.0862 132.937 32.3192 132.737 32.4146C131.951 32.7852 131.115 32.5832 130.757 31.9331C130.685 31.7898 130.647 31.6322 130.646 31.4722C130.644 31.3122 130.679 31.1538 130.748 31.0091C130.817 30.8644 130.919 30.737 131.045 30.6365C131.171 30.536 131.319 30.465 131.476 30.4288C131.913 30.3264 132.367 30.3181 132.807 30.4044C133.274 30.5064 133.274 30.2246 133.128 29.9295C132.917 29.5013 132.499 29.448 132.076 29.468C131.836 29.468 131.598 29.5501 131.357 29.5834C131.223 29.6011 131.05 29.6877 131.018 29.4414C130.993 29.2639 131.072 29.1951 131.243 29.1307C132.366 28.687 133.91 28.88 133.802 30.7549C133.791 30.9191 133.802 31.0855 133.802 31.252H133.777ZM132.285 30.7927C132.142 30.806 131.955 30.8193 131.773 30.8415C131.636 30.8414 131.504 30.8904 131.401 30.9794C131.298 31.0684 131.232 31.1912 131.214 31.3252C131.18 31.4584 131.195 31.5989 131.254 31.7229C131.313 31.847 131.414 31.9471 131.539 32.0063C131.764 32.1293 132.023 32.1771 132.277 32.1428C132.532 32.1084 132.768 31.9936 132.951 31.8155C133.061 31.7169 133.14 31.5896 133.18 31.4482C133.22 31.3069 133.218 31.1572 133.175 31.0167C133.097 30.7438 132.793 30.8814 132.596 30.8237C132.493 30.8038 132.39 30.7934 132.285 30.7927Z" fill="white"/>
<path d="M157.7 31.2227C157.7 31.5356 157.7 31.8506 157.7 32.1635C157.712 32.2365 157.698 32.3115 157.66 32.3752C157.622 32.4389 157.562 32.4873 157.491 32.5118C157.457 32.5286 157.42 32.5381 157.382 32.5398C157.344 32.5415 157.306 32.5354 157.271 32.5218C157.236 32.5082 157.204 32.4875 157.177 32.4609C157.15 32.4344 157.129 32.4026 157.116 32.3676C156.997 32.0814 156.911 32.2633 156.765 32.3454C155.956 32.7892 155.024 32.625 154.655 31.966C154.577 31.8217 154.534 31.6615 154.529 31.4979C154.524 31.3343 154.557 31.1718 154.626 31.023C154.695 30.8742 154.797 30.7431 154.926 30.6399C155.055 30.5368 155.206 30.4644 155.368 30.4284C155.784 30.3197 156.22 30.3083 156.642 30.3951C156.774 30.4283 156.976 30.506 157.051 30.344C157.086 30.2578 157.097 30.1635 157.081 30.0718C157.065 29.98 157.023 29.8945 156.961 29.8248C156.666 29.4676 156.262 29.4365 155.837 29.4743C155.633 29.4942 155.433 29.5519 155.23 29.5852C155.105 29.6074 154.954 29.6562 154.911 29.472C154.869 29.2879 154.911 29.2169 155.1 29.1348C156.498 28.5024 157.687 29.2235 157.693 30.7257L157.7 31.2227ZM157.084 31.2227C157.084 31.0652 157.12 30.8899 156.86 30.861C156.42 30.7735 155.967 30.7735 155.527 30.861C155.43 30.8894 155.342 30.9409 155.269 31.0109C155.197 31.081 155.144 31.1675 155.113 31.2628C155.083 31.3581 155.077 31.4593 155.095 31.5576C155.114 31.6558 155.156 31.7481 155.219 31.8262C155.352 31.9846 155.533 32.0963 155.736 32.1447C155.938 32.193 156.151 32.1755 156.343 32.0947C156.734 31.9505 157.123 31.7574 157.073 31.2205L157.084 31.2227Z" fill="white"/>
<path d="M60.2908 31.1896C60.2908 31.5202 60.2908 31.8552 60.2908 32.1836C60.2908 32.3633 60.2368 32.5253 60.0211 32.5364C59.8054 32.5475 59.7762 32.3545 59.7739 32.1881C59.7739 31.6001 59.7919 31.0099 59.7537 30.413C59.7245 29.9692 59.529 29.5898 59.0391 29.4766C58.8325 29.4224 58.614 29.432 58.4131 29.5042C58.2122 29.5764 58.0385 29.7077 57.9156 29.8805C57.8099 30.0314 57.7628 30.215 57.783 30.3975C57.7695 30.9677 57.765 31.5379 57.783 32.1082C57.783 32.3434 57.7156 32.5187 57.4572 32.5253C57.1988 32.532 57.1538 32.3212 57.1538 32.1015C57.1538 30.7214 57.1538 29.342 57.1538 27.9634C57.1538 27.7415 57.1785 27.5906 57.4324 27.5884C57.6864 27.5862 57.801 27.6883 57.7852 27.9567C57.7628 28.3251 57.7852 28.6934 57.7852 29.0662C57.7852 29.2193 57.7965 29.3479 58.0369 29.2437C59.547 28.578 60.2975 29.0728 60.3088 30.6881V31.1851L60.2908 31.1896Z" fill="white"/>
<path d="M85.1189 29.033C84.8318 29.4465 84.4894 29.8197 84.101 30.1425C83.7774 30.442 83.8044 30.6683 84.0718 30.9723C84.3908 31.3384 84.674 31.7334 84.9706 32.1194C85.0605 32.237 85.2829 32.3613 85.0762 32.5144C84.9953 32.5653 84.8984 32.5854 84.8036 32.5706C84.7088 32.5559 84.6228 32.5075 84.5616 32.4345C84.2942 32.135 84.0672 31.8044 83.8066 31.5004C83.6515 31.3229 83.5819 30.9523 83.2493 31.0855C83.0941 31.1468 82.9578 31.2469 82.8538 31.3761C82.7498 31.5053 82.6816 31.659 82.6561 31.8221C82.6066 32.0795 82.8089 32.5543 82.3617 32.521C81.9145 32.4878 82.137 32.0107 82.137 31.7445C82.11 30.5086 82.1213 29.2749 82.137 28.039C82.137 27.8637 82.0269 27.5952 82.3797 27.5952C82.6808 27.5952 82.6583 27.8304 82.6583 28.039C82.6583 28.7756 82.6583 29.5145 82.6718 30.2578C82.6718 30.3954 82.6336 30.5751 82.8111 30.6439C82.9886 30.7127 83.0651 30.5196 83.1594 30.422C83.5572 30.0382 83.9369 29.641 84.3212 29.2438C84.4117 29.1263 84.5391 29.0419 84.6835 29.0037C84.8279 28.9655 84.9811 28.9759 85.1189 29.033Z" fill="white"/>
<path d="M143.319 31.0142C143 31.0142 142.683 31.0142 142.366 31.0142C142.227 31.0142 142.045 30.9654 141.982 31.1518C141.932 31.3004 142.02 31.4224 142.107 31.5489C142.203 31.688 142.326 31.8067 142.469 31.8981C142.612 31.9895 142.771 32.0517 142.939 32.0811C143.107 32.1104 143.278 32.1064 143.444 32.0691C143.61 32.0318 143.767 31.9621 143.905 31.864C144.098 31.742 144.292 31.6221 144.433 31.8152C144.575 32.0082 144.33 32.1436 144.186 32.259C143.837 32.5036 143.413 32.6219 142.986 32.594C142.558 32.5661 142.154 32.3937 141.84 32.1059C141.519 31.7568 141.334 31.307 141.317 30.8359C141.299 30.3649 141.451 29.903 141.746 29.532C141.999 29.2222 142.358 29.0144 142.755 28.9478C143.152 28.8812 143.561 28.9603 143.903 29.1703C144.492 29.5187 144.62 30.1089 144.698 30.7058C144.723 30.901 144.528 31.012 144.314 31.012H143.319V31.0142ZM143.024 30.5948C143.287 30.5948 143.548 30.5948 143.809 30.5948C144.103 30.5948 144.191 30.4284 144.089 30.2043C143.905 29.796 143.627 29.4366 143.143 29.3811C142.66 29.3256 142.33 29.5897 142.085 29.9713C141.84 30.353 141.932 30.5793 142.411 30.5926C142.606 30.6015 142.811 30.5948 143.015 30.5948H143.024Z" fill="white"/>
<path d="M63.203 31.0164C62.9042 31.0164 62.6053 31.0164 62.3042 31.0164C61.8548 31.0164 61.8548 31.2383 62.0233 31.54C62.3581 32.1125 63.1873 32.2855 63.848 31.8928C64.039 31.7774 64.2367 31.6243 64.3693 31.8151C64.5468 32.0703 64.2389 32.2057 64.0771 32.3166C63.7557 32.5187 63.379 32.6181 62.9983 32.6014C62.6176 32.5848 62.2513 32.4528 61.9492 32.2234C61.6494 31.9659 61.4323 31.6276 61.3246 31.25C61.2168 30.8724 61.223 30.4719 61.3424 30.0978C61.471 29.7323 61.7195 29.4198 62.0484 29.2095C62.3773 28.9993 62.7678 28.9035 63.1581 28.9373C63.576 28.992 63.9576 29.2004 64.2267 29.5208C64.4958 29.8412 64.6326 30.2501 64.6097 30.6658C64.6121 30.7164 64.603 30.7668 64.583 30.8135C64.5631 30.8601 64.5329 30.9018 64.4945 30.9354C64.4562 30.969 64.4107 30.9937 64.3614 31.0077C64.3121 31.0217 64.2603 31.0247 64.2097 31.0164C63.8727 31.0164 63.5356 31.0164 63.2008 31.0164H63.203ZM62.9019 30.5948C63.0705 30.5948 63.239 30.5948 63.4075 30.5948C63.6322 30.5837 63.8996 30.6724 63.9738 30.3729C63.998 30.2559 63.9899 30.1347 63.9504 30.0219C63.9109 29.9091 63.8413 29.8088 63.7491 29.7317C63.2345 29.2169 62.5716 29.259 62.1132 29.8359C62.0341 29.9134 61.9785 30.0112 61.9527 30.1182C61.9269 30.2253 61.9319 30.3373 61.9671 30.4417C62.0593 30.6636 62.2862 30.5748 62.4592 30.5881C62.6323 30.6014 62.7536 30.5948 62.9019 30.5948Z" fill="white"/>
<path d="M164.441 31.0146C164.16 31.0146 163.88 31.0146 163.601 31.0146C163.459 31.0146 163.271 30.9635 163.201 31.1277C163.173 31.2155 163.169 31.3092 163.19 31.399C163.211 31.4887 163.256 31.5713 163.32 31.6381C163.531 31.8865 163.828 32.0482 164.154 32.0917C164.479 32.1352 164.809 32.0573 165.08 31.8733C165.275 31.7557 165.473 31.627 165.603 31.8222C165.733 32.0175 165.495 32.1839 165.333 32.286C165.059 32.4801 164.735 32.5927 164.398 32.6104C164.061 32.6281 163.726 32.5502 163.432 32.3858C163.155 32.2504 162.923 32.0391 162.763 31.7771C162.604 31.5151 162.524 31.2135 162.534 30.9081C162.516 29.6611 163.208 28.88 164.331 28.9311C164.761 28.9706 165.159 29.1724 165.441 29.4945C165.724 29.8165 165.87 30.2339 165.848 30.6595C165.823 30.9191 165.702 31.0168 165.455 31.0123C165.115 31.0101 164.781 31.0123 164.441 31.0146ZM164.147 30.5952C164.333 30.5952 164.522 30.5952 164.709 30.5952C165.23 30.5819 165.365 30.3289 165.089 29.8874C164.997 29.743 164.872 29.6225 164.723 29.5364C164.575 29.4503 164.407 29.4011 164.235 29.3931C164.063 29.385 163.891 29.4183 163.735 29.4901C163.579 29.5619 163.443 29.6701 163.338 29.8053C163.263 29.8845 163.208 29.9807 163.179 30.0855C163.15 30.1903 163.148 30.3006 163.172 30.4066C163.246 30.6684 163.502 30.5863 163.7 30.5952C163.85 30.6019 163.992 30.5952 164.149 30.5952H164.147Z" fill="white"/>
<path d="M106.702 31.1344C106.702 31.5027 106.702 31.8711 106.702 32.2438C106.702 32.3681 106.662 32.5057 106.498 32.5367C106.397 32.5545 106.289 32.5367 106.273 32.4369C106.183 32.1218 106.066 32.2305 105.853 32.3437C105.327 32.6233 104.779 32.7165 104.206 32.4125C103.985 32.3171 103.805 32.147 103.7 31.9326C103.594 31.7182 103.57 31.4738 103.63 31.2431C103.67 31.0366 103.772 30.847 103.925 30.7004C104.077 30.5539 104.272 30.4574 104.482 30.4244C104.919 30.3249 105.373 30.3196 105.812 30.4089C106.197 30.4821 106.28 30.3157 106.129 29.9784C105.929 29.5346 105.529 29.4681 105.111 29.437C105.003 29.437 104.887 29.4925 104.783 29.4836C104.538 29.4658 104.174 29.8231 104.071 29.4326C103.968 29.0421 104.46 29.0665 104.698 28.9888C105.133 28.8624 105.6 28.9028 106.006 29.102C106.197 29.1754 106.363 29.3021 106.482 29.4668C106.602 29.6315 106.671 29.8269 106.68 30.0294C106.698 30.3955 106.725 30.7639 106.747 31.1389L106.702 31.1344ZM105.266 30.7861C105.165 30.7861 105.017 30.8105 104.869 30.8171C104.451 30.8393 104.224 31.039 104.215 31.465C104.206 31.891 104.491 32.0597 104.851 32.1462C105.007 32.1735 105.167 32.1693 105.321 32.1338C105.476 32.0983 105.622 32.0324 105.749 31.9399C105.91 31.8591 106.04 31.7287 106.119 31.5684C106.197 31.4082 106.221 31.227 106.185 31.0523C106.114 30.6951 105.756 30.8859 105.536 30.8038C105.447 30.7894 105.356 30.7857 105.266 30.7927V30.7861Z" fill="white"/>
<path d="M76.4586 32.594C76.2137 32.6035 75.9694 32.5632 75.741 32.4754C75.5126 32.3877 75.305 32.2544 75.131 32.0839C74.9571 31.9134 74.8206 31.7093 74.73 31.4844C74.6395 31.2595 74.5969 31.0186 74.6048 30.7767C74.5945 30.5334 74.635 30.2905 74.7239 30.0633C74.8128 29.8361 74.948 29.6294 75.1213 29.456C75.2946 29.2826 75.5021 29.1463 75.731 29.0556C75.9599 28.9648 76.2053 28.9215 76.4519 28.9284C76.9403 28.93 77.4088 29.1196 77.7579 29.4568C78.107 29.7941 78.3092 30.2525 78.3214 30.7346C78.3169 31.2229 78.1198 31.6902 77.772 32.0374C77.4242 32.3845 76.9531 32.5842 76.4586 32.594ZM77.7372 30.8189C77.7514 30.4666 77.628 30.1224 77.3926 29.8573C77.1572 29.5923 76.8277 29.4265 76.4721 29.3944C75.8159 29.3656 75.1755 29.9868 75.1238 30.6902C75.1299 31.0377 75.2621 31.3714 75.4963 31.6308C75.7306 31.8902 76.0513 32.058 76.4002 32.1036C76.7473 32.1044 77.0811 31.9716 77.3307 31.7334C77.5803 31.4952 77.7261 31.1703 77.7372 30.8278V30.8189Z" fill="white"/>
<path d="M108.502 29.4945C109.561 28.7623 110.392 28.7578 111.037 29.4767C111.327 29.8359 111.487 30.2813 111.49 30.741C111.493 31.2007 111.339 31.648 111.053 32.0107C110.378 32.7673 109.623 32.7806 108.43 31.9973C108.43 32.4056 108.43 32.7673 108.43 33.1245C108.43 33.3065 108.522 33.5905 108.206 33.5993C107.842 33.5993 107.952 33.2954 107.952 33.1023C107.94 31.9189 107.94 30.7356 107.952 29.5522C107.952 29.3547 107.833 29.0574 108.147 28.9952C108.538 28.9287 108.347 29.3591 108.502 29.4945ZM108.426 30.7459C108.418 31.0931 108.549 31.4293 108.789 31.683C109.029 31.9367 109.36 32.0877 109.711 32.1038C110.385 32.1038 110.9 31.5425 110.913 30.7881C110.927 30.0337 110.374 29.4057 109.7 29.4102C109.356 29.4336 109.034 29.5842 108.798 29.8318C108.562 30.0794 108.429 30.4058 108.426 30.7459Z" fill="white"/>
<path d="M87.8649 30.7483C87.8649 30.2868 87.8649 29.8275 87.8649 29.3682C87.8649 29.2217 87.8649 29.0575 88.0469 29.0043C88.2289 28.951 88.357 28.9643 88.4177 29.1441C88.512 29.417 88.6221 29.2816 88.7794 29.1951C89.903 28.576 90.8782 29.0487 91.0265 30.3045C91.0659 30.911 91.0726 31.519 91.0468 32.1262C91.0468 32.3481 90.9704 32.5367 90.7007 32.53C90.4311 32.5233 90.476 32.2904 90.476 32.1195C90.476 31.567 90.476 31.0101 90.476 30.462C90.476 29.8363 90.0693 29.4259 89.4963 29.4325C89.3613 29.4319 89.2275 29.4578 89.1027 29.5088C88.978 29.5597 88.8647 29.6347 88.7696 29.7292C88.6744 29.8238 88.5993 29.9361 88.5485 30.0596C88.4977 30.1832 88.4723 30.3154 88.4738 30.4487C88.4559 31.019 88.4738 31.5892 88.4738 32.1595C88.4738 32.368 88.4244 32.5367 88.1705 32.5234C87.957 32.5234 87.8986 32.3614 87.8986 32.1772L87.8649 30.7483Z" fill="white"/>
<path d="M54.0753 30.3731C54.0753 29.8028 54.0618 29.2326 54.0753 28.6623C54.0753 28.3672 53.9719 28.2696 53.6866 28.2829C53.4012 28.2962 53.0888 28.2829 52.7877 28.2829C52.6282 28.2829 52.4776 28.2629 52.4574 28.061C52.4516 28.0237 52.4543 27.9856 52.4654 27.9495C52.4766 27.9134 52.4958 27.8803 52.5217 27.8526C52.5477 27.8248 52.5796 27.8032 52.6151 27.7894C52.6507 27.7755 52.6889 27.7698 52.727 27.7726C53.8101 27.7726 54.8955 27.7726 55.9786 27.7726C56.0161 27.7683 56.0541 27.7728 56.0894 27.7859C56.1248 27.7989 56.1565 27.8201 56.182 27.8476C56.2074 27.8751 56.2259 27.9082 56.2359 27.9442C56.2458 27.9801 56.247 28.0179 56.2393 28.0544C56.2393 28.2208 56.1314 28.2763 55.9808 28.2763C55.8865 28.2763 55.7943 28.2763 55.7 28.2763C54.6596 28.2896 54.6596 28.2896 54.6596 29.2925C54.6596 30.1933 54.6596 31.0957 54.6596 31.9995C54.6596 32.2436 54.6596 32.5253 54.3247 32.5253C53.9899 32.5253 54.0798 32.2147 54.0753 32.0217C54.0663 31.478 54.0753 30.9256 54.0753 30.3731Z" fill="white"/>
<path d="M158.599 30.777C158.589 30.4501 158.671 30.1268 158.836 29.843C159 29.5591 159.241 29.3256 159.531 29.1684C159.82 28.9926 160.154 28.9035 160.493 28.9122C160.832 28.9209 161.16 29.0268 161.439 29.2172C161.601 29.3192 161.864 29.4169 161.722 29.6609C161.561 29.9516 161.361 29.763 161.165 29.6609C160.507 29.2904 159.918 29.3658 159.505 29.8584C159.321 30.1189 159.222 30.4286 159.222 30.746C159.222 31.0633 159.321 31.3731 159.505 31.6335C159.709 31.8729 159.996 32.0283 160.31 32.0693C160.625 32.1104 160.943 32.0341 161.203 31.8554C161.41 31.7178 161.628 31.5891 161.774 31.8044C161.92 32.0196 161.644 32.1327 161.489 32.2481C161.226 32.4567 160.905 32.582 160.569 32.6078C160.232 32.6335 159.896 32.5584 159.603 32.3923C159.296 32.2469 159.038 32.0172 158.86 31.7308C158.682 31.4443 158.591 31.1131 158.599 30.777Z" fill="white"/>
<path d="M115.679 32.0219C115.866 32.0064 116.032 31.9066 116.07 32.1506C116.09 32.2309 116.078 32.3155 116.036 32.3869C115.994 32.4583 115.926 32.5112 115.846 32.5345C115.716 32.5835 115.578 32.6059 115.439 32.6003C115.301 32.5946 115.165 32.5611 115.04 32.5016C114.915 32.4422 114.803 32.3582 114.712 32.2547C114.621 32.1512 114.553 32.0305 114.511 31.8999C114.36 31.3785 114.446 30.8393 114.426 30.309C114.406 30.1817 114.406 30.0524 114.426 29.9251C114.556 29.4969 113.785 29.5191 113.994 29.153C114.142 28.8956 114.511 28.7736 114.43 28.3653C114.413 28.3163 114.409 28.2642 114.416 28.2131C114.424 28.162 114.444 28.1134 114.474 28.0713C114.504 28.0291 114.544 27.9946 114.59 27.9705C114.636 27.9464 114.688 27.9334 114.74 27.9326C115.043 27.9326 115.017 28.2033 114.992 28.3764C114.915 28.9089 115.196 29.0021 115.643 28.9622C115.834 28.9444 116.093 28.8934 116.093 29.2107C116.093 29.528 115.83 29.5213 115.616 29.4947C115.129 29.4348 114.942 29.6101 114.985 30.1049C115.013 30.5082 115.013 30.913 114.985 31.3164C114.981 31.8511 115.208 32.0907 115.679 32.0219Z" fill="white"/>
<path d="M145.75 30.6906C145.718 30.4527 145.718 30.2118 145.75 29.9739C145.88 29.5146 145.217 29.5701 145.274 29.2106C145.321 28.9244 145.858 28.9488 145.75 28.5095C145.687 28.2587 145.723 27.9326 146.092 27.9525C146.406 27.9681 146.346 28.2809 146.316 28.4828C146.265 28.9377 146.503 29.0043 146.883 28.9865C147.078 28.9865 147.379 28.8711 147.397 29.2262C147.415 29.6233 147.089 29.5346 146.876 29.5146C146.426 29.4702 146.287 29.6588 146.316 30.0826C146.341 30.5261 146.341 30.9705 146.316 31.4139C146.298 31.9043 146.541 32.0796 147.006 32.0419C147.15 32.0419 147.352 31.8954 147.388 32.1839C147.424 32.4723 147.238 32.5367 147.024 32.5833C146.35 32.7364 145.793 32.3059 145.737 31.5803C145.714 31.2875 145.737 30.9924 145.737 30.6928L145.75 30.6906Z" fill="white"/>
<path d="M79.9506 29.6098C80.1957 29.3197 80.5144 29.0992 80.8742 28.9707C81.0225 28.9286 81.2337 28.8709 81.2472 29.1394C81.2472 29.3102 81.3034 29.4811 81.0337 29.5654C80.1214 29.8561 79.9102 30.1711 79.881 31.1186C79.881 31.4492 79.881 31.7842 79.881 32.1104C79.881 32.3323 79.8495 32.532 79.5754 32.5542C79.3012 32.5764 79.2765 32.3434 79.2765 32.1326C79.2765 31.305 79.2765 30.4773 79.2765 29.6497C79.2765 29.4278 79.1372 29.0772 79.5192 29.0107C79.9012 28.9441 79.8652 29.2925 79.9506 29.6098Z" fill="white"/>
<path d="M134.93 30.7504C134.93 30.2733 134.93 29.7963 134.93 29.317C134.93 29.195 134.908 29.0485 135.074 28.9931C135.109 28.9787 135.146 28.9715 135.184 28.9717C135.221 28.9719 135.259 28.9796 135.293 28.9943C135.328 29.009 135.359 29.0304 135.385 29.0572C135.411 29.0841 135.431 29.1158 135.445 29.1506C135.595 29.4834 135.775 29.4324 136.02 29.2371C136.182 29.1153 136.363 29.0222 136.557 28.962C136.69 28.9176 136.878 28.8976 136.901 29.1173C136.917 29.2726 136.975 29.499 136.753 29.5345C135.582 29.7142 135.528 30.5684 135.526 31.4604C135.526 31.6823 135.526 31.9042 135.526 32.1261C135.526 32.3479 135.427 32.5366 135.175 32.541C134.923 32.5454 134.95 32.308 134.937 32.1327C134.926 31.669 134.93 31.2097 134.93 30.7504Z" fill="white"/>
<path d="M153.55 30.0403C153.55 30.7414 153.55 31.4404 153.55 32.1415C153.55 32.3412 153.536 32.532 153.278 32.532C153.019 32.532 152.925 32.3834 152.925 32.1371C152.925 30.737 152.925 29.3369 152.925 27.9346C152.925 27.6839 153.055 27.6106 153.26 27.5929C153.516 27.5685 153.556 27.7216 153.554 27.939C153.543 28.6402 153.55 29.3391 153.55 30.0403Z" fill="white"/>
<path d="M121.758 30.0493C121.758 30.7305 121.758 31.4117 121.758 32.0907C121.758 32.3525 121.69 32.5455 121.4 32.5344C121.111 32.5233 121.131 32.2859 121.133 32.0907C121.133 30.7283 121.133 29.3659 121.133 28.0036C121.133 27.7706 121.162 27.5953 121.448 27.6108C121.733 27.6264 121.771 27.7772 121.764 28.0191C121.747 28.6936 121.758 29.3593 121.758 30.0493Z" fill="white"/>
<path d="M86.0851 30.7281C86.0851 30.2666 86.0851 29.8051 86.0851 29.3458C86.0851 29.1816 86.0672 28.9974 86.3098 28.9841C86.352 28.9765 86.3953 28.9783 86.4367 28.9893C86.4781 29.0002 86.5165 29.0201 86.5491 29.0475C86.5818 29.0749 86.6079 29.109 86.6256 29.1476C86.6433 29.1861 86.6521 29.228 86.6514 29.2703C86.6619 30.2643 86.6619 31.2599 86.6514 32.2569C86.6525 32.2992 86.6438 32.3411 86.6259 32.3796C86.608 32.418 86.5815 32.452 86.5483 32.4787C86.5151 32.5055 86.4762 32.5244 86.4345 32.534C86.3928 32.5437 86.3493 32.5437 86.3076 32.5342C86.1054 32.5165 86.0829 32.3811 86.0829 32.2214C86.0874 31.7244 86.0874 31.2251 86.0851 30.7281Z" fill="white"/>
<path d="M112.569 30.7257C112.569 30.2486 112.569 29.7716 112.569 29.2946C112.569 29.1503 112.569 28.9861 112.794 28.9839C113.019 28.9817 113.046 29.1148 113.046 29.2746C113.046 30.2671 113.046 31.259 113.046 32.2501C113.046 32.412 112.99 32.5452 112.79 32.5341C112.59 32.523 112.565 32.3632 112.565 32.2146C112.567 31.7197 112.569 31.2227 112.569 30.7257Z" fill="white"/>
<path d="M112.803 28.2783C112.578 28.3005 112.495 28.1452 112.491 27.9788C112.486 27.8124 112.569 27.6304 112.826 27.6459C113.082 27.6615 113.147 27.8079 113.142 28.0054C113.138 28.2029 112.994 28.285 112.803 28.2783Z" fill="white"/>
<path d="M86.3863 28.2762C86.1728 28.3028 86.0649 28.2251 86.0762 28.0055C86.0762 27.8235 86.0492 27.6305 86.3458 27.6416C86.5705 27.6416 86.7031 27.6948 86.7076 27.9433C86.7121 28.1918 86.6245 28.2917 86.3863 28.2762Z" fill="white"/>
</g>
<defs>
<clipPath id="clip0_206_1838">
<rect width="180.379" height="33.2738" fill="white" transform="translate(0.576477 0.363281)"/>
</clipPath>
</defs>
</svg>
