<svg width="176" height="164" viewBox="0 0 176 164" fill="none" xmlns="http://www.w3.org/2000/svg">
<path d="M48.2761 96.2754C43.4681 93.8719 39.8336 93.3317 36.3434 94.565C34.1416 95.1521 32.0863 95.6546 29.9351 95.8217C27.8572 95.9464 27.7106 96.031 25.7317 97.1736C22.7999 98.8662 21.2132 100.857 19.3734 104.949C15.3922 113.795 16.7474 128.16 22.3981 138.286C23.425 140.234 24.4602 141.688 25.1033 142.294C25.3035 142.472 25.6307 142.869 25.8423 143.236C27.4359 145.15 31.573 147.745 34.232 148.458C37.0376 149.085 38.3176 148.933 44.8581 146.72C46.3776 146.136 48.275 145.529 48.946 145.337C50.9899 144.646 53.6058 142.745 55.2968 140.596C55.7562 140.037 55.9224 139.648 55.7955 139.428C55.6262 139.135 55.5839 139.062 55.9307 139.155C56.3508 139.205 56.9568 138.562 58.0501 136.563C61.1216 130.881 62.0772 121.534 60.2643 112.808C58.5897 104.491 55.1568 99.7299 48.2761 96.2754ZM28.2895 134.103C28.2585 134.218 28.1429 134.187 28.0583 134.041C27.9737 133.894 27.9623 133.705 28.0356 133.663C28.1822 133.578 28.2978 133.609 28.3401 133.682C28.4248 133.829 28.4361 134.018 28.2895 134.103ZM27.5671 132.174C27.4205 132.259 27.3049 132.228 27.2936 132.039C27.2822 131.85 27.691 131.712 27.818 131.932C27.8603 132.005 27.7137 132.09 27.5671 132.174ZM29.8846 131.618C29.738 131.703 29.6956 131.629 29.611 131.483C29.5997 131.294 29.6307 131.178 29.7039 131.136C29.7772 131.094 29.8196 131.167 29.9042 131.314C29.9888 131.46 29.9578 131.576 29.8846 131.618ZM47.1293 107.492C48.9913 110.717 49.9736 114.449 50.5027 120.105C51.0235 126.254 50.4667 130.876 48.6918 135.418C47.965 137.206 46.373 140.373 46.1531 140.5C46.0798 140.542 45.8713 140.858 45.5894 141.216C45.3809 141.532 44.7439 142.291 44.2845 142.849C43.7941 143.523 43.3234 143.893 43.1768 143.977C42.9569 144.104 40.1173 142.91 38.9272 142.033C33.2842 138.353 29.1312 129.805 28.0905 120.047C27.7934 116.994 27.7647 115.252 28.1809 112.079C28.8896 106.198 31.3324 100.781 34.2414 98.7103L35.2252 98.0446L36.6239 98.6052C38.454 99.4054 40.7269 100.634 41.9593 101.584C42.5177 102.043 43.0761 102.503 43.2341 102.607C44.8979 103.796 45.5946 104.664 47.1293 107.492ZM57.5366 117.901C57.548 118.09 57.4014 118.174 57.2548 118.259C57.1815 118.301 57.1815 118.301 57.0969 118.155C57.0855 117.966 57.1898 117.808 57.2631 117.766C57.4097 117.681 57.452 117.754 57.5366 117.901ZM57.449 117.072C57.3024 117.157 57.3024 117.157 57.1754 116.937C57.0372 116.528 57.1301 116.181 57.3417 116.548C57.4686 116.767 57.48 116.956 57.449 117.072ZM56.864 113.012C56.7824 113.548 56.5709 113.181 56.5678 112.499C56.5142 112.237 56.4719 112.163 56.6721 112.341C56.799 112.561 56.8527 112.823 56.864 113.012ZM56.0313 109.877C56.5504 110.945 56.5761 112.006 56.3026 111.87C56.187 111.839 56.1756 111.65 56.1643 111.462C56.2376 111.419 56.1416 111.084 55.9724 110.791C55.8031 110.497 55.7381 110.046 55.7464 109.553C55.7547 109.059 55.7547 109.059 56.0313 109.877ZM55.5514 108.2C55.732 108.682 55.6164 108.651 55.1623 108.033C54.8351 107.636 54.6545 107.154 54.6122 107.081C54.7164 106.923 54.6628 106.66 54.5668 106.325C54.3976 106.032 54.5978 106.209 54.894 106.722C55.1902 107.235 55.4978 107.937 55.5514 108.2ZM58.2611 108.492C58.1145 108.577 57.9875 108.357 57.9339 108.094C57.8802 107.832 57.8689 107.643 57.9422 107.601C58.0888 107.516 58.1734 107.663 58.227 107.925C58.2807 108.187 58.3344 108.45 58.2611 108.492ZM90.291 72.0181C85.483 69.6146 81.8485 69.0744 78.3583 70.3076C76.1565 70.8948 74.1013 71.3973 71.95 71.5644C69.8721 71.6891 69.7255 71.7737 67.7466 72.9163C64.8148 74.6089 63.2281 76.6 61.3883 80.6917C57.4072 89.5377 58.7623 103.903 64.413 114.028C65.4399 115.976 66.4752 117.431 67.1182 118.037C67.3184 118.215 67.6456 118.612 67.8572 118.978C69.4508 120.892 73.5879 123.488 76.2469 124.2C79.0525 124.828 80.3325 124.675 86.873 122.463C88.3926 121.879 90.2899 121.272 90.9609 121.08C93.0048 120.389 95.6207 118.487 97.3117 116.338C97.7711 115.78 97.9373 115.391 97.8104 115.171C97.6411 114.878 97.5988 114.804 97.9456 114.897C98.3657 114.948 98.9717 114.305 100.065 112.306C103.136 106.623 104.092 97.2764 102.279 88.5506C100.605 80.2336 97.1717 75.4726 90.291 72.0181ZM70.3044 109.845C70.2734 109.961 70.1578 109.93 70.0732 109.783C69.9886 109.637 69.9772 109.448 70.0505 109.406C70.1971 109.321 70.3127 109.352 70.355 109.425C70.4397 109.572 70.451 109.761 70.3044 109.845ZM69.582 107.917C69.4354 108.002 69.3198 107.971 69.3085 107.782C69.2971 107.593 69.7059 107.455 69.8329 107.674C69.8752 107.748 69.7286 107.832 69.582 107.917ZM71.8995 107.361C71.7529 107.445 71.7106 107.372 71.6259 107.226C71.6146 107.037 71.6456 106.921 71.7189 106.879C71.7922 106.836 71.8345 106.91 71.9191 107.056C72.0037 107.203 71.9728 107.318 71.8995 107.361ZM89.1443 83.2344C91.0062 86.4593 91.9886 90.192 92.5176 95.8478C93.0384 101.997 92.4816 106.618 90.7068 111.161C89.9799 112.949 88.3879 116.116 88.168 116.243C88.0947 116.285 87.8862 116.601 87.6043 116.959C87.3958 117.275 86.7588 118.033 86.2994 118.592C85.8091 119.266 85.3383 119.635 85.1917 119.72C84.9719 119.847 82.1322 118.652 80.9421 117.776C75.2991 114.095 71.1461 105.548 70.1054 95.7901C69.8083 92.7367 69.7796 90.9942 70.1959 87.8222C70.9045 81.9405 73.3473 76.5234 76.2563 74.453L77.2401 73.7873L78.6388 74.3479C80.4689 75.148 82.7418 76.3766 83.9742 77.3264C84.5326 77.7858 85.091 78.2452 85.249 78.3495C86.9129 79.5388 87.6096 80.4069 89.1443 83.2344ZM99.5516 93.6435C99.5629 93.8324 99.4163 93.917 99.2697 94.0017C99.1964 94.044 99.1964 94.044 99.1118 93.8974C99.1005 93.7085 99.2047 93.5506 99.278 93.5082C99.4246 93.4236 99.4669 93.4969 99.5516 93.6435ZM99.4639 92.8146C99.3173 92.8992 99.3173 92.8992 99.1904 92.6793C99.0521 92.2706 99.145 91.9237 99.3566 92.2902C99.4835 92.5101 99.4949 92.699 99.4639 92.8146ZM98.879 88.7547C98.7974 89.2904 98.5858 88.924 98.5827 88.2416C98.5291 87.9794 98.4868 87.9061 98.687 88.0837C98.814 88.3036 98.8676 88.5658 98.879 88.7547ZM98.0462 85.6197C98.5653 86.6881 98.591 87.7482 98.3175 87.613C98.2019 87.582 98.1906 87.3931 98.1792 87.2042C98.2525 87.1619 98.1565 86.8264 97.9873 86.5332C97.818 86.24 97.753 85.7889 97.7613 85.2955C97.7696 84.8021 97.7696 84.8021 98.0462 85.6197ZM97.5663 83.9422C97.747 84.4243 97.6313 84.3933 97.1772 83.776C96.85 83.3786 96.6694 82.8965 96.6271 82.8232C96.7314 82.6653 96.6777 82.4031 96.5817 82.0676C96.4125 81.7744 96.6127 81.952 96.9089 82.465C97.2051 82.9781 97.5127 83.68 97.5663 83.9422ZM100.276 84.2346C100.129 84.3192 100.002 84.0993 99.9488 83.8371C99.8951 83.5749 99.8838 83.386 99.9571 83.3437C100.104 83.2591 100.188 83.4057 100.242 83.6679C100.296 83.9301 100.349 84.1923 100.276 84.2346ZM116.567 99.358C116.609 99.4313 116.829 99.3044 117.049 99.1774C117.269 99.0505 117.3 98.9349 117.257 98.8616C116.984 98.7263 116.482 99.2115 116.567 99.358ZM119.791 85.4766C119.644 85.5612 119.582 85.7925 119.667 85.939C119.794 86.1589 119.909 86.1899 119.909 86.1899C119.982 86.1476 120.087 85.9897 120.033 85.7275C120.126 85.3806 120.084 85.3073 119.791 85.4766ZM118.519 94.615C118.446 94.6573 118.415 94.7729 118.457 94.8462C118.542 94.9928 118.657 95.0238 118.731 94.9815C118.877 94.8969 118.908 94.7812 118.824 94.6347C118.781 94.5614 118.666 94.5304 118.519 94.615ZM121.956 86.1808C121.81 86.2654 121.674 86.539 121.717 86.6122C121.697 86.9168 121.917 86.7898 122.156 86.3583C122.292 86.0848 122.249 86.0115 121.956 86.1808ZM123.923 82.309C123.692 82.247 123.734 82.3203 123.892 82.4246C124.008 82.4556 124.019 82.6445 123.872 82.7291C123.726 82.8137 123.664 83.045 123.706 83.1182C123.833 83.3381 123.729 83.496 123.582 83.5807C123.362 83.7076 123.185 83.9079 123.038 83.9925C122.787 84.2351 122.508 85.2755 122.666 85.3798C122.824 85.4841 123.785 84.4406 123.701 84.294C123.616 84.1474 123.751 83.8739 124.033 83.5157C124.608 82.9883 124.605 82.3059 123.923 82.309ZM128.353 49.3589C127.69 49.0574 125.714 48.3419 123.926 47.615C119.067 45.6316 116.631 45.4745 112.806 46.8037C111.286 47.3879 108.019 49.1765 106.491 50.254C104.346 51.7857 103.258 52.6093 103.227 52.7249C103.196 52.8405 102.872 53.1254 102.432 53.3793C102.108 53.6642 101.606 54.1493 101.24 54.3609C100.842 54.6881 100.58 54.7417 100.349 54.6798C100.148 54.5022 100.075 54.5445 99.8356 54.976C99.6271 55.2918 99.5538 55.3342 99.3535 55.1566C99.0377 54.948 97.7577 55.1007 96.5313 55.5156C95.4939 55.9191 95.4206 55.9614 95.4236 56.6437C95.3307 56.9906 95.5453 58.0393 95.7909 58.9725C96.3017 60.5344 96.2708 60.65 95.7917 61.5129C93.9798 64.8066 93.3293 67.2344 94.1106 68.2492C94.5534 68.6776 98.831 69.8238 99.1975 69.6122C99.4906 69.443 99.8828 70.2915 101.804 75.1433C104.034 80.697 104.034 80.697 105.848 85.0243C108.139 90.3468 108.266 90.5667 107.668 90.7163C107.406 90.77 107.375 90.8856 107.418 90.9589C107.649 91.0208 106.846 92.1686 106.614 92.1067C106.499 92.0757 106.394 92.2336 106.332 92.4648C106.271 92.696 106.093 92.8963 105.831 92.9499C105.684 93.0346 105.433 93.2771 105.371 93.5083C105.309 93.7396 104.985 94.0244 104.619 94.236C103.3 94.9977 103.934 96.0971 105.761 96.2149C106.79 96.3048 106.833 96.3781 106.841 95.8847C106.861 95.5802 107.007 95.4956 107.196 95.4842C107.281 95.6308 107.501 95.5039 107.709 95.188C108.064 94.7875 108.064 94.7875 108.118 95.0497C108.172 95.3119 108.361 95.3006 108.58 95.1736C109.02 94.9197 109.375 94.5193 109.248 94.2994C109.206 94.2261 109.06 94.3107 108.924 94.5843C108.727 95.089 108.191 95.0074 108.431 94.576C108.481 94.1558 109.677 93.8566 109.804 94.0765C110.196 94.925 112.442 99.4919 112.792 100.267C113.13 100.853 113.384 101.293 113.531 101.209C113.604 101.166 113.973 101.637 114.354 102.297C114.735 102.956 114.831 103.292 114.673 103.188C114.315 102.906 114.315 102.906 114.38 103.357C114.507 103.577 114.634 103.797 114.823 103.785C115.012 103.774 115.054 103.847 114.876 104.047C114.845 104.163 114.888 104.236 114.93 104.31C115.119 104.298 115.362 104.549 115.646 104.873C116.197 105.826 116.324 106.046 116.019 106.026C115.903 105.995 115.819 105.849 115.734 105.702C115.723 105.513 115.565 105.409 115.492 105.451C115.418 105.494 115.483 105.945 115.822 106.531C116.245 107.264 116.403 107.368 116.423 107.064C116.327 106.728 116.4 106.686 116.484 106.833C116.896 107.377 117.554 108.854 117.565 109.043C117.503 109.274 118.324 109.68 118.544 109.553C118.69 109.468 118.721 109.352 118.667 109.09C118.614 108.828 118.614 108.828 118.783 109.121C119.079 109.634 119.75 109.442 119.496 109.003C119.412 108.856 119.485 108.814 119.643 108.918C120.117 109.231 120.596 108.368 120.153 107.939C119.868 107.615 120.077 107.299 120.435 107.581C120.593 107.686 120.666 107.643 120.497 107.35C120.454 107.277 120.474 106.972 120.547 106.93C120.621 106.888 120.578 106.814 120.463 106.783C120.263 106.606 120.263 106.606 120.316 106.868C120.285 106.984 120.254 107.099 120.139 107.068C119.688 107.133 119.665 106.755 120.031 106.544C120.251 106.417 120.24 106.228 120.04 106.05C119.913 105.831 119.724 105.842 119.577 105.927C119.473 106.084 119.315 105.98 119.05 105.352C118.742 104.65 118.5 104.399 118.353 104.483C118.206 104.568 118.206 104.568 118.257 104.148C118.319 103.917 118.243 103.277 118.073 102.983C117.862 102.617 117.755 102.093 117.878 101.63C118.107 101.01 118.053 100.748 117.906 100.832C117.644 100.886 117.56 100.739 117.61 100.319C117.649 99.7101 117.291 99.4283 117.252 100.037C117.201 100.457 117.043 100.353 116.905 99.9444C116.863 99.8711 116.747 99.8401 116.674 99.8824C116.601 99.9248 116.389 99.5583 116.178 99.1918C115.912 98.5632 115.828 98.4166 115.608 98.5435C115.461 98.6281 115.419 98.5549 115.554 98.2813C115.732 98.0811 115.678 97.8189 115.551 97.599C115.466 97.4524 115.497 97.3368 115.655 97.4411C116.014 97.7229 116.292 96.6824 116.027 96.0538C115.9 95.8339 115.92 95.5294 116.024 95.3714C116.171 95.2868 116.244 95.2445 116.298 95.5067C116.309 95.6956 116.394 95.8422 116.54 95.7575C116.613 95.7152 116.644 95.5996 116.56 95.453C116.391 95.1599 116.692 94.4972 117.182 93.8232C117.777 92.9912 117.924 92.9066 117.904 93.2111C117.915 93.4 118.073 93.5043 118.147 93.462C118.262 93.4929 118.366 93.335 118.282 93.1884C118.197 93.0418 118.186 92.8529 118.332 92.7683C118.406 92.726 118.764 93.0078 119.198 93.9297C119.748 94.8825 119.949 95.06 119.853 94.7245C119.872 94.42 119.765 93.8956 119.638 93.6758C119.469 93.3826 119.404 92.9315 119.466 92.7003C119.497 92.5847 119.328 92.2915 119.201 92.0716C118.916 91.7475 119.133 90.9382 119.479 91.0311C119.942 91.155 119.862 89.8327 119.451 89.2887C119.239 88.9222 119.07 88.629 119.216 88.5444C119.363 88.4598 119.278 88.3132 119.024 87.8734C118.297 87.1208 117.552 84.8147 117.972 84.8654C118.203 84.9273 119.477 83.41 119.35 83.1901C119.265 83.0435 119.339 83.0012 119.443 82.8433C120.573 82.0929 121.106 81.4922 121.342 80.3784C121.404 80.1472 121.582 79.947 121.813 80.0089C122.002 79.9976 122.149 79.913 122.168 79.6085C122.23 79.3772 122.366 79.1037 122.512 79.0191C122.659 78.9344 122.69 78.8188 122.489 78.6413C122.289 78.4637 122.362 78.4214 122.636 78.5566C122.91 78.6919 123.098 78.6805 123.014 78.534C122.972 78.4607 123.033 78.2294 123.18 78.1448C123.327 78.0602 123.431 77.9023 123.389 77.829C123.346 77.7557 123.408 77.5244 123.586 77.3242C123.69 77.1663 123.752 76.9351 123.636 76.9041C123.521 76.8731 123.405 76.8421 123.343 77.0733C123.27 77.1157 123.197 77.158 123.228 77.0424C123.216 76.8535 123.394 76.6532 123.729 76.5573C124.065 76.4613 124.169 76.3034 124.127 76.2301C124.042 76.0835 124.146 75.9256 124.262 75.9565C124.378 75.9875 124.598 75.8606 124.659 75.6293C124.721 75.3981 124.868 75.3135 124.91 75.3868C124.995 75.5334 124.902 75.8802 124.736 76.2693C124.485 76.5119 124.33 77.09 124.268 77.3212C124.248 77.6257 123.998 77.8682 123.809 77.8796C123.662 77.9642 123.485 78.1644 123.465 78.469C123.403 78.7002 123.445 78.7735 123.55 78.6155C123.654 78.4576 123.769 78.4886 123.812 78.5619C123.896 78.7085 123.75 78.7931 123.488 78.8468C123.225 78.9004 123.017 79.2163 122.955 79.4475C122.935 79.752 122.727 80.0679 122.538 80.0792C122.349 80.0905 122.318 80.2061 122.403 80.3527C122.445 80.426 122.341 80.5839 122.194 80.6686C122.047 80.7532 121.985 80.9844 122.112 81.2043C122.197 81.3509 122.166 81.4665 122.05 81.4355C121.935 81.4046 121.831 81.5625 121.884 81.8247C121.896 82.0136 121.791 82.1715 121.529 82.2252C121.12 82.3634 121.047 82.4058 121.363 82.6143C121.636 82.7496 121.563 82.7919 121.259 82.7722C120.912 82.6793 120.599 83.1531 120.853 83.5928C120.938 83.7394 120.729 84.0553 120.52 84.3711C120.385 84.6447 120.323 84.8759 120.366 84.9492C120.439 84.9069 120.69 84.6643 120.972 84.3061C121.42 83.5588 121.493 83.5165 121.62 83.7364C121.662 83.8097 121.465 84.3144 121.11 84.7149C120.724 85.231 120.527 85.7358 120.611 85.8823C120.78 86.1755 120.854 86.1332 121.197 85.5438C121.406 85.228 121.761 84.8275 121.908 84.7429C122.054 84.6582 122.367 84.1844 122.533 83.7953C122.742 83.4794 122.908 83.0903 122.981 83.048C122.981 83.048 123.19 82.7321 123.441 82.4896C123.649 82.1737 123.931 81.8156 124.078 81.7309C124.151 81.6886 124.391 81.2572 124.515 80.7947C124.754 80.3633 124.963 80.0474 125.078 80.0784C125.078 80.0784 125.225 79.9937 125.287 79.7625C125.349 79.5313 125.453 79.3734 125.495 79.4467C125.58 79.5933 125.684 79.4353 125.631 79.1731C125.65 78.8686 125.65 78.8686 125.777 79.0885C125.8 79.4663 124.988 81.1075 124.757 81.0456C124.568 81.0569 124.405 82.1284 124.532 82.3483C124.659 82.5681 125.025 82.3566 125.118 82.0097C125.223 81.8518 125.775 80.9466 126.389 79.8101C127.057 78.9358 127.745 77.7571 127.838 77.4102C127.973 77.1367 128.139 76.7476 128.212 76.7053C128.286 76.6629 129.004 75.3686 129.816 73.7273C132.594 68.2143 134.095 63.5363 134.362 59.7665C134.41 58.6641 134.426 57.6773 134.415 57.4884C134.361 57.2262 134.296 56.7751 134.2 56.4396C134.177 56.0618 133.932 55.1286 133.667 54.4999C132.764 52.0895 130.992 50.3759 128.353 49.3589ZM113.57 100.6C113.539 100.715 113.423 100.684 113.296 100.464C113.169 100.244 113.2 100.129 113.401 100.306C113.516 100.337 113.643 100.557 113.57 100.6ZM114.063 100.608C114.032 100.723 113.874 100.619 113.79 100.473C113.621 100.179 113.694 100.137 113.852 100.241C114.01 100.346 114.094 100.492 114.063 100.608ZM117.411 102.682C117.411 102.682 117.222 102.693 117.137 102.547C117.022 102.516 116.937 102.369 117.084 102.285C117.157 102.242 117.388 102.304 117.43 102.377C117.515 102.524 117.484 102.64 117.411 102.682ZM117.055 100.542C117.17 100.573 117.286 100.604 117.328 100.677C117.328 100.677 117.255 100.72 117.182 100.762C117.108 100.804 116.993 100.773 116.951 100.7C116.908 100.627 116.939 100.511 117.055 100.542ZM117.458 101.58C117.616 101.684 117.774 101.788 117.701 101.83C117.712 102.019 117.365 101.926 117.238 101.706C117.154 101.56 117.3 101.475 117.458 101.58ZM111.007 83.8046C111.019 83.9935 110.934 83.8469 110.807 83.6271C110.638 83.3339 110.595 83.2606 110.711 83.2916C110.869 83.3958 111.038 83.689 111.007 83.8046ZM116.906 93.0056C116.613 93.1749 116.539 93.2172 116.539 93.2172C116.497 93.1439 116.528 93.0283 116.737 92.7124C116.841 92.5545 117.061 92.4275 117.103 92.5008C117.145 92.5741 117.01 92.8477 116.906 93.0056ZM116.107 90.4373C116.045 90.6685 115.96 90.5219 115.834 90.302C115.664 90.0089 115.622 89.9356 115.811 89.9242C115.895 90.0708 116.022 90.2907 116.107 90.4373ZM111.506 82.6372C111.433 82.6795 111.359 82.7218 111.275 82.5752C111.159 82.5443 111.074 82.3977 111.221 82.313C111.294 82.2707 111.452 82.375 111.495 82.4483C111.579 82.5949 111.579 82.5949 111.506 82.6372ZM111.81 80.1165C112.382 81.4471 112.713 82.5269 112.566 82.6115C112.566 82.6115 112.462 82.7694 112.169 82.9387C111.918 83.1812 111.918 83.1812 112.03 82.5299C112.123 82.1831 112.058 81.732 111.974 81.5854C111.762 81.2189 111.762 81.2189 111.827 81.67C111.85 82.0478 111.85 82.0478 111.723 81.8279C111.638 81.6813 111.584 81.4191 111.615 81.3035C111.646 81.1879 111.635 80.999 111.593 80.9257C111.55 80.8524 111.435 80.8215 111.404 80.9371C111.3 81.095 111.288 80.9061 111.266 80.5283C111.294 79.7304 111.587 79.5611 111.81 80.1165ZM111.417 79.2679C111.44 79.6457 111.282 79.5415 110.986 79.0284C110.732 78.5886 110.709 78.2108 110.783 78.1685C110.856 78.1262 111.087 78.1882 111.256 78.4813C111.383 78.7012 111.406 79.079 111.417 79.2679ZM110.495 77.1621C110.749 77.6018 110.771 77.9796 110.625 78.0642C110.625 78.0642 110.509 78.0333 110.498 77.8444C110.337 77.0578 109.702 75.9584 109.398 75.9387C109.251 76.0234 109.282 75.9078 109.502 75.7808C109.826 75.4959 110.08 75.9357 110.495 77.1621ZM109.211 74.092C109.507 74.6051 109.614 75.1295 109.553 75.3607C109.564 75.5496 109.564 75.5496 109.51 75.2874C109.426 75.1408 109.299 74.9209 109.141 74.8167C108.836 74.797 108.752 74.6504 108.971 74.5235C109.045 74.4812 109.118 74.4389 109.002 74.4079C108.887 74.3769 108.791 74.0414 108.768 73.6636C108.85 73.1279 108.892 73.2012 109.211 74.092ZM108.277 71.7972C108.404 72.0171 108.373 72.1327 108.215 72.0285C108.13 71.8819 107.961 71.5887 107.73 71.5268C107.487 71.2759 107.518 71.1603 107.792 71.2955C107.981 71.2842 108.223 71.5351 108.277 71.7972ZM107.789 70.6132C107.8 70.8021 107.758 70.7288 107.589 70.4357C107.462 70.2158 107.419 70.1425 107.535 70.1735C107.693 70.2777 107.82 70.4976 107.789 70.6132ZM107.459 69.5335C107.385 69.5758 107.27 69.5448 107.227 69.4715C107.143 69.3249 107.216 69.2826 107.289 69.2403C107.521 69.3022 107.636 69.3332 107.678 69.4065C107.678 69.4065 107.605 69.4488 107.459 69.5335ZM123.953 79.653C123.806 79.7376 123.691 79.7067 123.564 79.4868C123.479 79.3402 123.51 79.2246 123.699 79.2132C123.815 79.2442 123.973 79.3485 124.015 79.4218C124.1 79.5684 124.026 79.6107 123.953 79.653ZM107.732 60.1895C107.794 59.9583 107.909 59.9893 108.098 59.978C108.098 59.978 108.067 60.0936 107.921 60.1782C107.701 60.3051 107.585 60.2742 107.732 60.1895ZM110.891 71.7541C110.922 71.6385 110.91 71.4496 110.91 71.4496C110.984 71.4073 111.141 71.5116 111.184 71.5849C111.268 71.7314 111.164 71.8894 111.091 71.9317C110.944 72.0163 110.902 71.943 110.891 71.7541ZM111.175 72.0783C111.249 72.036 111.364 72.0669 111.333 72.1825C111.418 72.3291 111.387 72.4447 111.314 72.4871C111.24 72.5294 111.198 72.4561 111.114 72.3095C111.071 72.2362 111.102 72.1206 111.175 72.0783ZM113.405 77.632C113.32 77.4854 113.34 77.1809 113.34 77.1809C113.34 77.1809 113.54 77.3584 113.625 77.505C113.752 77.7249 113.763 77.9138 113.616 77.9984C113.543 78.0408 113.458 77.8942 113.405 77.632ZM114.401 79.6955C114.37 79.8111 114.138 79.7492 114.054 79.6026C113.885 79.3094 113.946 79.0782 113.935 78.8893C114.008 78.847 114.124 78.878 114.251 79.0978C114.378 79.3177 114.432 79.5799 114.401 79.6955ZM117.645 84.4679C117.614 84.5835 117.425 84.5949 117.382 84.5216C117.34 84.4483 117.402 84.2171 117.433 84.1014C117.464 83.9858 117.58 84.0168 117.622 84.0901C117.664 84.1634 117.676 84.3523 117.645 84.4679ZM112.044 73.9219C111.94 74.0799 111.825 74.0489 111.782 73.9756C111.74 73.9023 111.729 73.7134 111.833 73.5555C111.864 73.4399 111.979 73.4708 112.022 73.5441C112.064 73.6174 112.075 73.8063 112.044 73.9219ZM118.752 83.3398C118.648 83.4977 118.459 83.509 118.606 83.4244C118.594 83.2355 118.436 83.1312 118.205 83.0693C117.932 82.934 117.932 82.934 118.078 82.8494C118.236 82.9536 118.34 82.7957 118.445 82.6378C118.538 82.291 118.58 82.3643 118.749 82.6574C118.876 82.8773 118.93 83.1395 118.752 83.3398ZM126.654 77.8984C126.665 78.0873 126.592 78.1296 126.476 78.0986C126.287 78.11 126.372 78.2566 126.31 78.4878C126.394 78.6344 126.29 78.7923 126.144 78.8769C125.997 78.9616 126.028 78.846 126.048 78.5414C126.203 77.9634 126.704 77.4783 126.654 77.8984ZM125.077 74.9976C124.992 74.8511 125.127 74.5775 125.231 74.4196C125.409 74.2194 125.66 73.9768 125.764 73.8189C125.795 73.7033 125.806 73.8922 125.609 74.3969C125.142 75.4487 125.142 75.4487 125.077 74.9976ZM127.55 76.4038C127.561 76.5927 127.488 76.635 127.488 76.635C127.414 76.6773 127.341 76.7196 127.257 76.573C127.141 76.5421 127.214 76.4997 127.361 76.4151C127.507 76.3305 127.581 76.2882 127.55 76.4038ZM125.992 73.1985C125.896 72.863 126.074 72.6628 126.221 72.5781C126.44 72.4512 126.556 72.4822 126.525 72.5978C126.567 72.6711 126.432 72.9446 126.37 73.1758C126.162 73.4917 126.088 73.534 125.992 73.1985ZM128.404 74.8359C128.215 74.8472 128.006 75.1631 127.955 75.5832C127.978 75.961 127.843 76.2345 127.801 76.1612C127.716 76.0146 127.767 75.5945 127.86 75.2477C128.057 74.7429 128.161 74.585 128.361 74.7626C128.519 74.8668 128.446 74.9092 128.404 74.8359ZM127.015 71.9238C126.869 72.0084 126.753 71.9774 126.669 71.8308C126.584 71.6842 126.573 71.4953 126.719 71.4107C126.792 71.3684 126.981 71.3571 127.066 71.5036C127.108 71.5769 127.004 71.7349 127.015 71.9238ZM124.19 52.6421C124.255 53.0932 124.277 53.471 124.32 53.5443C124.362 53.6176 124.385 53.9954 124.407 54.3732C124.691 59.0958 122.161 66.2243 116.985 75.3696C114.829 79.2527 115.049 79.1258 114.084 76.9466C113.723 75.9825 113.139 74.4629 112.789 73.6877C112.555 72.9434 111.344 69.8311 110.102 66.8343C108.934 63.7953 107.947 61.2383 107.947 61.2383C107.977 61.1227 110.726 58.2657 111.196 57.8962C114.878 54.7935 118.164 52.7004 120.721 51.7128C123.541 50.6715 123.93 50.8377 124.19 52.6421ZM121.037 94.2364C121.048 94.4253 121.059 94.6142 121.186 94.8341C121.313 95.054 121.471 95.1582 121.46 94.9693C121.606 94.8847 121.511 94.5492 121.426 94.4026C121.299 94.1827 121.183 94.1518 121.037 94.2364ZM120.414 95.8663C120.318 95.5308 120.276 95.4575 120.225 95.8776C120.121 96.0355 120.344 96.5909 120.598 97.0307C120.821 97.586 121.137 97.7946 121.168 97.679C121.199 97.5634 121.303 97.4054 121.218 97.2588C121.134 97.1123 121.08 96.8501 121.153 96.8077C121.184 96.6921 121.1 96.5455 120.826 96.4103C120.668 96.306 120.426 96.0552 120.414 95.8663ZM119.945 91.8373C119.872 91.8797 119.81 92.1109 119.979 92.4041C120.063 92.5506 120.295 92.6126 120.326 92.497C120.357 92.3814 120.345 92.1925 120.261 92.0459C120.176 91.8993 120.018 91.795 119.945 91.8373ZM121.014 93.8586C121.045 93.743 120.96 93.5964 120.802 93.4921C120.645 93.3879 120.571 93.4302 120.741 93.7233C120.825 93.8699 120.983 93.9742 121.014 93.8586ZM119.733 91.4709C119.776 91.5442 119.891 91.5752 119.964 91.5328C120.038 91.4905 120.111 91.4482 120.111 91.4482C120.069 91.3749 119.953 91.3439 119.838 91.313C119.722 91.282 119.691 91.3976 119.733 91.4709ZM120.028 86.9032C119.977 87.3233 119.977 87.3233 119.808 87.0301C119.681 86.8103 119.681 86.8103 119.661 87.1148C119.599 87.346 119.611 87.5349 119.653 87.6082C119.695 87.6815 119.811 87.7125 119.884 87.6701C120.104 87.5432 120.259 86.9651 120.132 86.7453C120.047 86.5987 120.017 86.7143 120.028 86.9032ZM114.007 102.204C114.038 102.088 113.869 101.795 113.754 101.764C113.596 101.66 113.68 101.806 113.807 102.026C113.976 102.319 114.019 102.393 114.007 102.204ZM116.09 98.3629C116.101 98.5518 116.332 98.6138 116.595 98.5601C116.857 98.5065 117.003 98.4218 117.003 98.4218C117.003 98.4218 116.919 98.2752 116.719 98.0977C116.434 97.7735 116.025 97.9118 116.09 98.3629ZM118.471 102.656C118.44 102.772 118.451 102.961 118.494 103.034C118.536 103.107 118.651 103.138 118.682 103.023C118.787 102.865 118.775 102.676 118.733 102.603C118.691 102.529 118.575 102.498 118.471 102.656ZM119.159 104.018C119.159 104.018 119.097 104.249 119.14 104.322C119.151 104.511 119.193 104.585 119.34 104.5C119.413 104.458 119.444 104.342 119.36 104.195C119.317 104.122 119.233 103.976 119.159 104.018ZM119.278 104.731C119.205 104.773 119.332 104.993 119.416 105.14C119.543 105.36 119.628 105.506 119.701 105.464C119.774 105.422 119.763 105.233 119.636 105.013C119.551 104.866 119.351 104.689 119.278 104.731ZM163.377 18.0951C161.581 17.8617 161.507 17.904 161.468 18.513C161.491 18.8908 161.46 19.0064 161.248 18.64C161.132 18.609 160.932 18.4314 160.786 18.5161C160.755 18.6317 160.554 18.4541 160.385 18.1609C160.058 17.7635 159.985 17.8058 159.734 18.0484C159.525 18.3642 159.336 18.3756 159.02 18.167C158.516 17.9698 155.721 17.5309 155.397 17.8157C155.251 17.9004 155.062 17.9117 154.977 17.7651C154.546 17.5256 154.436 18.8593 154.708 20.8526C154.776 21.986 154.937 22.7726 154.979 22.8459C154.906 22.8882 154.13 23.238 153.313 23.5146C147.443 25.5353 142.091 30.4824 139.011 36.6581C137.295 40.2873 135.63 46.0368 135.603 49.3751C135.528 51.2755 135.677 51.8732 136.281 53.0882C136.843 54.2299 137.621 54.5624 141.289 55.6692C142.95 56.1762 145.116 56.8804 146.083 57.2015C148.753 58.1029 149.74 58.1195 153.631 57.2414C156.211 56.6316 158.035 56.0671 161.44 54.6872C163.631 53.9112 166.777 53.2673 167.366 53.6111C168.503 54.2254 169.288 58.4629 168.925 61.8971C168.757 64.1443 167.828 67.6126 166.715 69.9165C165.83 71.6 164.486 73.842 163.806 74.5273C163.671 74.8009 163.169 75.286 162.814 75.6865C162.501 76.1602 161.926 76.6877 161.864 76.9189C161.081 77.7622 157.701 80.2021 156.486 80.8059C155.313 81.4829 155.009 81.4633 152.508 80.8551L151.236 80.5143L151.197 81.1234C151.138 82.0369 151.866 82.7895 152.948 83.1416C153.453 83.3388 155.072 83.7724 156.501 84.2175C158.035 84.5046 159.927 85.0735 160.852 85.3213C162.744 85.8903 163.646 85.7603 166.045 84.6684C166.705 84.2875 168.275 83.2833 169.51 82.375C172.701 79.9464 174.476 77.944 176.266 74.2724C179.376 67.9811 179.695 59.3928 176.812 55.5846C175.534 53.8792 173.493 52.7125 169.824 51.6057C168.973 51.3155 167.427 50.8395 166.418 50.4451C163.432 49.3352 157.939 48.7928 156.924 49.5741C156.778 49.6587 156.516 49.7124 156.473 49.6391C156.231 49.3882 154.627 49.8258 151.325 51.0477C148.695 52.0776 145.676 52.9414 145.591 52.7948C145.179 52.2508 146.15 46.3154 147.156 43.4871C148.057 40.8168 148.567 39.8382 149.745 37.9854C151.298 35.4277 153 33.4676 154.736 32.0742C155.061 31.7893 155.342 31.4311 155.258 31.2845C155.258 31.2845 155.404 31.1999 155.667 31.1463C155.813 31.0616 156.222 30.9233 156.515 30.7541C156.839 30.4692 157.197 30.751 157.116 31.2868C157.085 31.4024 157.404 32.2932 157.765 33.2574C158.284 34.3258 158.645 35.29 158.741 35.6255C158.837 35.9609 159.029 36.6319 159.199 36.9251C160.076 38.2754 160.499 39.0083 160.53 38.8927C160.519 38.7038 160.939 38.7544 161.432 38.7627C161.926 38.771 162.419 38.7793 162.566 38.6947C162.639 38.6524 162.828 38.641 162.901 38.5987C163.101 38.7763 165.168 38.4626 165.534 38.2511C165.608 38.2087 165.943 38.1128 166.09 38.0281C166.468 38.0055 166.591 37.543 166.23 36.5789L166.027 35.719L166.334 36.4209C167.446 38.5155 167.762 38.724 167.748 37.8528C167.756 37.3594 167.756 37.3594 168.41 38.1543C168.737 38.5517 169.335 38.4021 169.008 38.0046C168.754 37.5649 169.278 37.4576 169.648 37.9283C170.133 38.43 170.133 38.43 170.141 37.9366C170.107 37.3699 169.354 35.5572 169.08 35.422C168.965 35.391 168.88 35.2444 169.027 35.1598C169.027 35.1598 168.716 33.7755 168.205 32.2136C167.345 29.8766 165.795 23.6375 165.086 20.04C164.722 18.3936 164.479 18.1427 163.377 18.0951ZM142.958 46.2036C143.012 46.4658 142.95 46.6971 142.877 46.7394C142.803 46.7817 142.792 46.5928 142.958 46.2036C143.009 45.7835 143.009 45.7835 142.958 46.2036ZM165.516 34.1571C165.993 35.1523 165.931 35.3835 165.553 35.4062C165.017 35.3246 164.89 35.1047 165.299 34.9664C165.488 34.9551 165.55 34.7239 165.392 34.6196C165.308 34.473 165.169 34.0642 165.158 33.8753C165.178 33.5708 165.22 33.6441 165.516 34.1571ZM164.805 32.4177C164.943 32.8265 164.943 32.8265 164.658 32.5024C164.532 32.2825 164.405 32.0626 164.467 31.8314C164.424 31.7581 164.571 31.6735 164.613 31.7468C164.698 31.8933 164.751 32.1555 164.805 32.4177ZM164.241 30.5937C164.263 30.9715 164.263 30.9715 164.094 30.6783C164.009 30.5317 163.956 30.2696 163.829 30.0497C163.848 29.7452 163.922 29.7028 164.006 29.8494C164.133 30.0693 164.303 30.3625 164.241 30.5937ZM163.989 18.8167C163.915 18.859 163.8 18.8281 163.673 18.6082C163.735 18.377 163.65 18.2304 163.723 18.1881C163.723 18.1881 163.881 18.2923 163.966 18.4389C164.166 18.6165 164.135 18.7321 163.989 18.8167ZM175.335 1.22306C175.219 1.19208 174.517 1.49963 173.846 1.69157C172.851 2.16839 172.674 2.36863 172.654 2.67314C172.75 3.00863 172.195 3.23155 171.648 2.96105C171.258 2.79483 171.185 2.83714 171.092 3.18397C170.999 3.5308 170.81 3.54214 170.17 3.61847C169.604 3.65248 168.859 3.88674 167.907 4.43685L166.514 5.24085L166.94 6.65611C167.174 7.40038 167.685 8.96222 168.1 10.1886C168.662 11.3303 169.353 13.3742 169.926 14.7048C171.19 18.0794 173.831 24.1771 177.849 32.998C178.495 34.2863 179.11 35.6903 179.322 36.0567C182.386 42.8874 187.047 52.3143 187.351 52.334C187.582 52.3959 187.656 52.3536 187.613 52.2803C187.529 52.1337 187.687 52.238 187.991 52.2576C188.423 52.4971 188.569 52.4125 189.449 51.9047C190.035 51.5662 190.537 51.0811 190.788 50.8385C190.954 50.4494 191.143 50.438 191.281 50.8468C191.292 51.0357 191.323 50.9201 191.428 50.7622C191.521 50.4154 191.478 50.3421 191.131 50.2491C190.858 50.1139 190.773 49.9673 190.874 49.1271C190.956 48.5913 191.153 48.0866 191.227 48.0443C191.3 48.0019 191.342 48.0752 191.269 48.1175C191.165 48.2755 191.176 48.4644 191.292 48.4954C191.334 48.5686 191.419 48.7152 191.272 48.7999C191.199 48.8422 191.168 48.9578 191.368 49.1354C191.484 49.1663 191.653 49.4595 191.591 49.6907C191.498 50.0376 191.613 50.0685 191.949 49.9726C192.662 49.8539 192.755 49.5071 192.016 48.5656C191.678 47.9793 191.582 47.6438 191.655 47.6015C191.99 47.5055 191.26 46.0706 190.755 45.8734C190.597 45.7691 190.555 45.6958 190.628 45.6535C190.775 45.5689 190.763 45.38 190.594 45.0868C190.467 44.8669 190.16 44.165 190.01 43.5673C189.745 42.9386 189.406 42.3523 189.406 42.3523C189.248 42.248 189.279 42.1324 189.383 41.9745C189.634 41.7319 189.507 41.512 189.211 40.999C188.926 40.6748 188.83 40.3393 188.819 40.1504C188.923 39.9925 188.881 39.9192 188.607 39.784C188.218 39.6177 188.249 39.5021 188.616 39.2905C188.689 39.2482 188.762 39.2059 188.678 39.0593C188.593 38.9127 188.52 38.955 188.373 39.0397C188.3 39.082 188.1 38.9044 188.162 38.6732C187.992 38.38 188.097 38.2221 188.097 38.2221C188.243 38.1375 187.989 37.6977 187.778 37.3313C187.555 36.7759 187.12 35.854 186.77 35.0788C186.421 34.3035 185.986 33.3817 185.774 33.0152C185.521 32.5755 185.425 32.24 185.425 32.24C185.718 32.0707 186.214 32.7613 186.418 33.6212C186.598 34.1033 187.244 35.3916 187.848 36.6066C188.525 37.7793 189.013 38.9633 189.055 39.0366C189.025 39.1522 189.194 39.4454 189.352 39.5497C189.51 39.654 189.563 39.9162 189.501 40.1474C189.482 40.4519 189.64 40.5562 189.944 40.5758C190.322 40.5531 190.322 40.5531 190.071 40.7957C189.851 40.9226 189.936 41.0692 190.74 42.4618C192.114 44.5027 192.272 44.6069 192.376 44.449C192.522 44.3644 192.68 44.4687 192.807 44.6885C192.934 44.9084 193.188 45.3482 193.388 45.5257C193.631 45.7766 193.885 46.2164 193.907 46.5942C194.077 46.8873 194.204 47.1072 194.319 47.1382C194.435 47.1692 194.562 47.3891 194.627 47.8402C194.788 48.6267 195.061 48.762 195.259 48.2572C195.382 47.7948 195.168 46.746 194.959 47.0619C194.886 47.1042 194.813 47.1465 194.728 46.9999C194.686 46.9266 194.717 46.811 194.79 46.7687C194.863 46.7264 194.725 46.3176 194.44 45.9934C194.229 45.627 194.048 45.1449 194.079 45.0293C194.13 44.6092 193.537 43.5831 193.402 43.8566C193.34 44.0878 193.171 43.7946 193.137 43.2279C193.083 42.9657 192.945 42.5569 192.775 42.2638C192.679 41.9283 192.499 41.4462 192.403 41.1107C192.349 40.8485 191.915 39.9267 191.523 39.0781C191.13 38.2296 190.781 37.4543 190.811 37.3387C190.727 37.1921 190.727 37.1921 190.58 37.2768C190.434 37.3614 190.349 37.2148 190.411 36.9836C190.431 36.6791 190.292 36.2703 189.466 34.4999C189.381 34.3533 189.443 34.1221 189.516 34.0798C189.59 34.0375 189.705 34.0685 189.674 34.1841C189.717 34.2574 190.035 35.1482 190.543 36.0278C190.862 36.9186 191.593 38.3535 191.985 39.2021C192.335 39.9773 192.823 41.1613 193.204 41.821C193.923 43.067 194.527 44.282 195.057 45.5393C195.292 46.2836 195.376 46.4302 195.554 46.2299C195.658 46.072 195.593 45.6209 195.297 45.1078C195.085 44.7414 194.862 44.186 194.809 43.9238C194.798 43.7349 194.628 43.4417 194.544 43.2951C194.501 43.2219 194.205 42.7088 194.067 42.3C193.886 41.8179 193.525 40.8538 193.144 40.1941C192.837 39.4922 191.649 36.7576 190.503 34.0964C189.315 31.3619 188.212 28.7739 188 28.4075C187.428 27.0768 184.945 21.0834 184.36 19.5638C183.649 17.8244 181.22 12.0932 180.532 10.7316C178.421 5.89116 175.913 1.37794 175.335 1.22306ZM188.107 42.8094C187.968 42.4007 188.084 42.4316 188.422 43.018C188.634 43.3844 188.772 43.7932 188.626 43.8779C188.479 43.9625 188.141 43.3761 188.107 42.8094ZM190.702 48.1516C190.64 48.3828 190.598 48.3095 190.46 47.9007C190.406 47.6385 190.437 47.5229 190.595 47.6272C190.68 47.7738 190.764 47.9203 190.702 48.1516ZM190.149 46.5164C189.994 47.0945 189.994 47.0945 189.856 46.6857C189.918 46.4545 189.706 46.088 189.579 45.8681C189.41 45.5749 189.483 45.5326 189.684 45.7102C189.841 45.8145 189.999 45.9187 190.115 45.9497C190.231 45.9807 190.242 46.1696 190.149 46.5164ZM185.402 31.8622C185.032 31.3914 184.513 30.323 184.587 30.2807C184.66 30.2384 184.637 29.8606 184.426 29.4941C184.33 29.1586 184.499 29.4518 184.891 30.3003C185.61 31.5463 185.845 32.2906 185.402 31.8622ZM191.365 41.5142C191.219 41.5989 191.103 41.5679 191.019 41.4213C190.934 41.2747 191.007 41.2324 191.196 41.2211C191.312 41.252 191.427 41.283 191.47 41.3563C191.47 41.3563 191.439 41.4719 191.365 41.5142ZM190.561 40.1217C190.457 40.2796 190.342 40.2486 190.299 40.1753C190.215 40.0287 190.203 39.8398 190.35 39.7552C190.381 39.6396 190.454 39.5973 190.496 39.6706C190.581 39.8172 190.592 40.0061 190.561 40.1217ZM183.988 27.89L184.095 28.4143L183.695 28.0592C183.21 27.5575 183.164 26.8019 183.565 27.157C183.765 27.3346 183.934 27.6278 183.988 27.89ZM182.854 25.4176C183.119 26.0463 183.342 26.6016 183.311 26.7173C183.249 26.9485 182.38 25.1048 182.357 24.727C182.261 24.3915 182.504 24.6424 182.854 25.4176ZM189.358 33.9755C189.212 34.0602 188.777 33.1383 188.87 32.7915C188.87 32.7915 189.028 32.8958 189.24 33.2622C189.409 33.5554 189.505 33.8909 189.358 33.9755ZM188.732 32.3827C188.659 32.425 188.501 32.3208 188.532 32.2052C188.52 32.0163 188.551 31.9006 188.625 31.8583C188.625 31.8583 188.74 31.8893 188.825 32.0359C188.867 32.1092 188.879 32.2981 188.732 32.3827ZM188.105 30.7899C187.97 31.0634 187.674 30.5504 187.598 29.9104C187.533 29.4593 187.575 29.5326 187.829 29.9723C188.114 30.2965 188.136 30.6743 188.105 30.7899ZM187.51 29.0815C187.479 29.1971 187.375 29.355 187.228 29.4396C187.008 29.5666 186.997 29.3777 187.248 29.1351C187.352 28.9772 187.499 28.8926 187.51 29.0815ZM193.087 46.1884C193.16 46.1461 193.149 45.9572 193.022 45.7373C192.895 45.5174 192.737 45.4132 192.664 45.4555C192.59 45.4978 192.602 45.6867 192.729 45.9066C192.856 46.1265 193.014 46.2307 193.087 46.1884ZM199.829 56.1729C199.682 56.2576 199.42 56.3112 199.304 56.2802C199.146 56.176 198.591 56.3989 198.036 56.6218C197.229 57.0873 197.198 57.2029 197.325 57.4228C197.537 57.7892 197.464 57.8316 196.97 57.8233C196.666 57.8036 196.288 57.8263 196.172 57.7953C196.088 57.6487 195.721 57.8603 195.513 58.1762C195.146 58.3877 194.926 58.5147 194.884 58.4414C194.757 58.2215 192.86 58.8283 191.456 59.4434C190.576 59.9512 190.283 60.1205 190.232 60.5406C190.151 61.0763 190.758 62.9737 191.872 65.7505C192.233 66.7147 192.902 68.3808 193.306 69.4182C194.059 71.2309 194.101 71.3042 194.68 71.4591C195.258 71.614 195.551 71.4447 198.043 70.006C200.284 68.8098 200.901 68.3557 200.848 68.0935C200.929 67.5577 201.611 67.5547 201.676 68.0058C201.73 68.268 201.846 68.299 201.95 68.141C202.054 67.9831 202.085 67.8675 202.001 67.7209C201.716 67.3968 202.198 67.2162 202.598 67.5713C202.883 67.8954 203.847 67.5342 203.562 67.2101C203.478 67.0635 203.466 66.8746 203.54 66.8323C203.686 66.7477 203.771 66.8942 203.898 67.1141C204.078 67.5962 204.445 67.3846 204.411 66.8179C204.357 66.5557 203.889 65.0672 203.378 63.5053C202.794 61.9858 202.018 59.7953 201.803 58.7465C201.069 56.6293 200.373 55.7611 199.829 56.1729ZM199.123 62.737C199.019 62.8949 198.903 62.8639 198.861 62.7906C198.819 62.7173 198.807 62.5284 198.911 62.3705C198.942 62.2549 199.058 62.2859 199.1 62.3592C199.143 62.4325 199.154 62.6214 199.123 62.737ZM199.894 56.624C199.674 56.751 199.6 56.7933 199.705 56.6354C199.809 56.4775 199.956 56.3928 200.071 56.4238C200.187 56.4548 200.156 56.5704 199.894 56.624ZM193.705 48.2747C193.979 48.4099 194.105 48.6298 194.074 48.7454C194.044 48.861 194.086 48.9343 194.232 48.8497C194.379 48.765 194.283 48.4295 194.156 48.2097C193.987 47.9165 193.733 47.4767 193.679 47.2145C193.626 46.9523 193.383 46.7015 193.194 46.7128C193.121 46.7551 193.048 46.7974 193.236 46.7861C193.279 46.8594 193.406 47.0793 193.386 47.3838C193.305 47.9195 193.431 48.1394 193.705 48.2747Z" fill="#DCDCDC"/>
</svg>
