<svg width="143" height="83" viewBox="0 0 143 83" fill="none" xmlns="http://www.w3.org/2000/svg">
<path d="M37.7026 21.0711C36.5734 17.6844 35.1202 15.7239 32.902 14.664C31.5923 13.9058 30.3911 13.1766 29.3024 12.2448C28.268 11.3275 28.1594 11.2984 26.6935 10.9056C24.5218 10.3237 22.8416 10.5136 20.056 11.5711C14.0322 13.8558 7.92253 21.2382 5.82093 28.6472C5.3884 30.0442 5.19148 31.2135 5.20888 31.8C5.21953 31.9775 5.18654 32.3178 5.1138 32.5892C4.96338 34.2364 5.68735 37.3981 6.60148 38.9815C7.6242 40.5939 8.297 41.1233 12.4076 43.1558C13.3955 43.5951 14.5715 44.2011 14.9768 44.4261C16.2613 45.0612 18.3826 45.3969 20.186 45.1818C20.664 45.1353 20.9248 45.0306 20.9684 44.8677C21.0266 44.6506 21.0412 44.5963 21.1604 44.8028C21.3339 45.0239 21.9205 45.0065 23.3729 44.581C27.4838 43.3549 32.3221 39.4141 35.5685 34.465C38.6879 29.7727 39.3116 25.9247 37.7026 21.0711ZM10.5522 29.4494C10.4833 29.4891 10.4436 29.4203 10.4727 29.3117C10.5018 29.2031 10.5852 29.1091 10.6394 29.1236C10.748 29.1527 10.7878 29.2216 10.7732 29.2759C10.7441 29.3844 10.6607 29.4785 10.5522 29.4494ZM11.1185 28.2046C11.0099 28.1755 10.9701 28.1066 11.0535 28.0126C11.1369 27.9185 11.3938 28.0456 11.3502 28.2085C11.3356 28.2627 11.2271 28.2336 11.1185 28.2046ZM12.468 29.0317C12.3594 29.0026 12.3739 28.9483 12.403 28.8397C12.4864 28.7457 12.5553 28.7059 12.6096 28.7205C12.6639 28.735 12.6493 28.7893 12.6202 28.8979C12.5911 29.0065 12.5223 29.0462 12.468 29.0317ZM31.8967 25.8C31.2566 28.1888 29.965 30.4031 27.5574 33.3076C24.9142 36.4399 22.4824 38.3487 19.5156 39.6486C18.3346 40.1469 16.0998 40.8864 15.9369 40.8428C15.8826 40.8282 15.6364 40.8786 15.3358 40.9145C15.0895 40.9649 14.4341 41.022 13.9561 41.0685C13.4093 41.1548 13.0147 41.1072 12.9061 41.0781C12.7433 41.0345 11.9707 39.1399 11.8234 38.1694C10.9018 33.791 12.9655 27.8266 17.0592 22.7553C18.3537 21.1819 19.1585 20.3501 20.8436 19.0559C23.9386 16.6266 27.6297 15.2298 29.9682 15.6236L30.7428 15.773L31.1364 16.6931C31.62 17.9283 32.1105 19.5727 32.2432 20.5975C32.2897 21.0755 32.3362 21.5535 32.3614 21.6766C32.5843 23.0165 32.5038 23.7514 31.8967 25.8ZM31.8958 35.5757C31.8124 35.6698 31.7038 35.6407 31.5953 35.6116C31.541 35.597 31.541 35.597 31.5701 35.4884C31.6535 35.3944 31.7766 35.3692 31.8309 35.3838C31.9395 35.4129 31.9249 35.4671 31.8958 35.5757ZM32.2439 35.1453C32.1353 35.1162 32.1353 35.1162 32.179 34.9533C32.306 34.6964 32.5125 34.5772 32.4398 34.8486C32.3961 35.0115 32.3128 35.1055 32.2439 35.1453ZM33.8758 32.964C33.5859 33.1773 33.6587 32.9058 33.9777 32.5839C34.0756 32.4356 34.0901 32.3813 34.1008 32.5587C34.0571 32.7216 33.9592 32.87 33.8758 32.964ZM34.957 31.1006C34.699 31.8462 34.2133 32.3561 34.1483 32.1642C34.1086 32.0953 34.192 32.0013 34.2754 31.9072C34.3296 31.9218 34.4421 31.7192 34.5003 31.502C34.5585 31.2848 34.7398 31.0425 34.9755 30.8146C35.2111 30.5868 35.2111 30.5868 34.957 31.1006ZM35.5194 30.0875C35.3778 30.3987 35.3381 30.3299 35.4147 29.8267C35.4477 29.4864 35.5893 29.1752 35.6038 29.1209C35.727 29.0957 35.8249 28.9474 35.9374 28.7448C35.9956 28.5276 36.0062 28.705 35.9044 29.0851C35.8026 29.4651 35.6174 29.9392 35.5194 30.0875ZM36.6546 31.4973C36.546 31.4682 36.5897 31.3054 36.6876 31.157C36.7855 31.0087 36.8689 30.9147 36.9232 30.9292C37.0318 30.9583 37.0027 31.0669 36.9048 31.2152C36.8068 31.3635 36.7089 31.5119 36.6546 31.4973ZM68.8253 29.4104C67.6961 26.0237 66.2429 24.0632 64.0247 23.0033C62.715 22.2451 61.5138 21.5159 60.4251 20.5841C59.3907 19.6668 59.2821 19.6377 57.8162 19.2449C55.6445 18.663 53.9643 18.8529 51.1787 19.9104C45.1549 22.1951 39.0452 29.5775 36.9436 36.9865C36.5111 38.3835 36.3142 39.5528 36.3316 40.1393C36.3422 40.3168 36.3092 40.6571 36.2365 40.9285C36.0861 42.5757 36.81 45.7374 37.7242 47.3207C38.7469 48.9332 39.4197 49.4626 43.5303 51.4951C44.5182 51.9344 45.6942 52.5404 46.0995 52.7654C47.384 53.4005 49.5053 53.7362 51.3087 53.5211C51.7867 53.4746 52.0475 53.3699 52.0911 53.207C52.1493 52.9899 52.1638 52.9356 52.2831 53.1421C52.4566 53.3631 53.0432 53.3457 54.4956 52.9202C58.6065 51.6941 63.4448 47.7534 66.6912 42.8043C69.8105 38.112 70.4343 34.264 68.8253 29.4104ZM41.6748 37.7887C41.606 37.8284 41.5663 37.7596 41.5954 37.651C41.6244 37.5424 41.7078 37.4484 41.7621 37.4629C41.8707 37.492 41.9105 37.5609 41.8959 37.6152C41.8668 37.7237 41.7834 37.8178 41.6748 37.7887ZM42.2412 36.5439C42.1326 36.5148 42.0928 36.4459 42.1762 36.3519C42.2596 36.2578 42.5165 36.3849 42.4729 36.5478C42.4583 36.602 42.3497 36.5729 42.2412 36.5439ZM43.5907 37.371C43.4821 37.3419 43.4966 37.2876 43.5257 37.179C43.6091 37.085 43.678 37.0452 43.7322 37.0598C43.7865 37.0743 43.772 37.1286 43.7429 37.2372C43.7138 37.3458 43.645 37.3855 43.5907 37.371ZM63.0193 34.1393C62.3792 36.5281 61.0876 38.7424 58.68 41.6469C56.0368 44.7792 53.6051 46.688 50.6382 47.9879C49.4573 48.4862 47.2225 49.2257 47.0596 49.1821C47.0053 49.1675 46.759 49.2179 46.4585 49.2538C46.2122 49.3042 45.5568 49.3613 45.0788 49.4078C44.532 49.494 44.1374 49.4465 44.0288 49.4174C43.866 49.3738 43.0934 47.4792 42.9461 46.5087C42.0245 42.1303 44.0881 36.1659 48.1819 31.0946C49.4764 29.5212 50.2812 28.6894 51.9663 27.3952C55.0613 24.9659 58.7524 23.5691 61.0908 23.9629L61.8655 24.1123L62.259 25.0324C62.7427 26.2676 63.2332 27.912 63.3659 28.9368C63.4124 29.4148 63.4589 29.8928 63.4841 30.0159C63.707 31.3558 63.6264 32.0907 63.0193 34.1393ZM63.0185 43.915C62.9351 44.0091 62.8265 43.98 62.7179 43.9509C62.6636 43.9363 62.6636 43.9363 62.6927 43.8277C62.7761 43.7337 62.8993 43.7085 62.9536 43.7231C63.0621 43.7521 63.0476 43.8064 63.0185 43.915ZM63.3666 43.4846C63.258 43.4555 63.258 43.4555 63.3017 43.2926C63.4287 43.0357 63.6352 42.9165 63.5625 43.1879C63.5188 43.3508 63.4354 43.4448 63.3666 43.4846ZM64.9985 41.3033C64.7086 41.5166 64.7813 41.2451 65.1003 40.9232C65.1983 40.7749 65.2128 40.7206 65.2235 40.898C65.1798 41.0609 65.0819 41.2092 64.9985 41.3033ZM66.0797 39.4399C65.8217 40.1855 65.3359 40.6954 65.271 40.5034C65.2313 40.4346 65.3146 40.3406 65.398 40.2465C65.4523 40.2611 65.5648 40.0585 65.623 39.8413C65.6812 39.6241 65.8625 39.3818 66.0981 39.1539C66.3337 38.9261 66.3337 38.9261 66.0797 39.4399ZM66.6421 38.4268C66.5005 38.738 66.4608 38.6692 66.5374 38.166C66.5704 37.8257 66.712 37.5145 66.7265 37.4602C66.8497 37.435 66.9476 37.2867 67.0601 37.0841C67.1183 36.8669 67.1289 37.0443 67.0271 37.4244C66.9253 37.8044 66.74 38.2785 66.6421 38.4268ZM67.7773 39.8366C67.6687 39.8075 67.7124 39.6447 67.8103 39.4963C67.9082 39.348 67.9916 39.254 68.0459 39.2685C68.1545 39.2976 68.1254 39.4062 68.0275 39.5545C67.9295 39.7028 67.8316 39.8512 67.7773 39.8366ZM68.3254 54.5893C68.3109 54.6436 68.4738 54.6872 68.6367 54.7309C68.7995 54.7745 68.8684 54.7348 68.8829 54.6805C68.818 54.4885 68.3545 54.4807 68.3254 54.5893ZM76.3584 49.5843C76.2498 49.5552 76.1122 49.6347 76.0831 49.7433C76.0394 49.9062 76.0792 49.975 76.0792 49.975C76.1335 49.9895 76.2566 49.9644 76.3545 49.816C76.561 49.6968 76.5756 49.6425 76.3584 49.5843ZM71.4697 53.2788C71.4155 53.2642 71.3466 53.304 71.3321 53.3582C71.303 53.4668 71.3427 53.5357 71.397 53.5502C71.5056 53.5793 71.5744 53.5396 71.6035 53.431C71.6181 53.3767 71.5783 53.3079 71.4697 53.2788ZM77.0447 50.932C76.9362 50.9029 76.7442 50.9679 76.7296 51.0221C76.5774 51.1559 76.7403 51.1996 77.0554 51.1094C77.2474 51.0445 77.2619 50.9902 77.0447 50.932ZM79.7866 50.0374C79.7072 49.8997 79.6926 49.954 79.7178 50.0771C79.7575 50.146 79.6742 50.24 79.5656 50.2109C79.457 50.1818 79.3193 50.2613 79.3048 50.3156C79.2611 50.4785 79.138 50.5037 79.0294 50.4746C78.8665 50.4309 78.6891 50.4416 78.5805 50.4125C78.3488 50.4086 77.7292 50.7663 77.7544 50.8894C77.7796 51.0125 78.721 50.9738 78.7501 50.8653C78.7792 50.7567 78.9712 50.6917 79.2718 50.6559C79.7895 50.6782 80.1085 50.3564 79.7866 50.0374ZM97.3411 36.6439C97.1715 36.1911 96.5792 34.9268 96.081 33.7458C94.7307 30.5327 93.6604 29.3149 91.2396 28.1425C90.2517 27.7032 87.8774 27.0088 86.6539 26.7974C84.9272 26.5093 84.0294 26.3851 83.9606 26.4248C83.8917 26.4646 83.6057 26.4461 83.2799 26.3589C82.9939 26.3404 82.5305 26.3326 82.259 26.2599C81.9187 26.2269 81.7704 26.129 81.6909 25.9913C81.6803 25.8138 81.626 25.7993 81.3109 25.8894C81.0646 25.9398 81.0103 25.9253 80.9997 25.7479C80.9493 25.5016 80.2765 24.9722 79.5057 24.5911C78.829 24.2934 78.7747 24.2788 78.4557 24.6007C78.2492 24.7199 77.8575 25.3132 77.5346 25.8668C77.041 26.8402 76.9721 26.8799 76.3419 27.0602C73.9442 27.7561 72.4986 28.5908 72.389 29.4342C72.3957 29.8434 73.8663 32.3905 74.1377 32.4632C74.3549 32.5214 74.1406 33.1041 72.7646 36.285C71.2033 39.94 71.2033 39.94 70.0231 42.8242C68.5996 46.3997 68.5559 46.5626 68.205 46.3522C68.0566 46.2542 67.9878 46.294 67.9732 46.3483C68.0527 46.4859 67.1365 46.6478 67.057 46.5101C67.0173 46.4413 66.8942 46.4665 66.7565 46.5459C66.6188 46.6254 66.4414 46.6361 66.293 46.5381C66.1845 46.5091 65.9527 46.5052 65.8151 46.5846C65.6774 46.6641 65.3914 46.6457 65.1199 46.573C64.1426 46.3111 63.9244 47.1255 64.7271 48.0388C65.1682 48.5644 65.1537 48.6187 65.3893 48.3908C65.5415 48.2571 65.6501 48.2862 65.7441 48.3695C65.715 48.4781 65.8779 48.5218 66.1242 48.4714C66.479 48.4501 66.479 48.4501 66.3811 48.5984C66.2832 48.7467 66.3772 48.8301 66.5401 48.8738C66.8658 48.9611 67.2207 48.9398 67.2643 48.7769C67.2789 48.7226 67.1703 48.6935 66.9783 48.7584C66.6487 48.9029 66.4354 48.613 66.7505 48.5228C66.9716 48.3493 67.6735 48.7701 67.6298 48.933C67.4155 49.5157 66.3255 52.715 66.1257 53.2434C66.0093 53.6777 65.922 54.0035 66.0306 54.0326C66.0849 54.0471 66.0374 54.4417 65.9064 54.9304C65.7755 55.419 65.663 55.6216 65.6378 55.4985C65.602 55.1979 65.602 55.1979 65.4207 55.4403C65.377 55.6032 65.3334 55.766 65.4274 55.8494C65.5215 55.9328 65.5069 55.9871 65.3295 55.9978C65.2606 56.0375 65.2461 56.0918 65.2315 56.1461C65.3256 56.2295 65.3217 56.4612 65.3032 56.7472C65.1141 57.453 65.0705 57.6159 64.9367 57.4637C64.897 57.3948 64.926 57.2862 64.9551 57.1776C65.0385 57.0836 65.0133 56.9605 64.959 56.9459C64.9047 56.9314 64.7234 57.1737 64.607 57.6081C64.4616 58.151 64.4868 58.2741 64.639 58.1404C64.7515 57.9377 64.8058 57.9523 64.7767 58.0609C64.7146 58.5098 64.3296 59.5122 64.2462 59.6063C64.1085 59.6857 64.3034 60.2617 64.4662 60.3053C64.5748 60.3344 64.6437 60.2947 64.7416 60.1463C64.8395 59.998 64.8395 59.998 64.7813 60.2152C64.6795 60.5952 65.0847 60.8202 65.172 60.4944C65.2011 60.3858 65.2554 60.4004 65.2806 60.5235C65.3562 60.8929 65.9864 60.7126 65.9797 60.3035C65.9981 60.0175 66.2444 59.9671 66.2802 60.2676C66.3054 60.3908 66.3597 60.4053 66.4179 60.1882C66.4325 60.1339 66.5847 60.0001 66.639 60.0146C66.6933 60.0292 66.7078 59.9749 66.6681 59.906C66.6574 59.7286 66.6574 59.7286 66.5595 59.877C66.4906 59.9167 66.4218 59.9564 66.3821 59.8876C66.1397 59.7063 66.3065 59.5182 66.5779 59.5909C66.7408 59.6346 66.8242 59.5405 66.8135 59.3631C66.8572 59.2002 66.7631 59.1169 66.6546 59.0878C66.5314 59.113 66.5062 58.9898 66.6769 58.57C66.8621 58.096 66.866 57.8642 66.7574 57.8351C66.6489 57.806 66.6489 57.806 66.8699 57.6325C67.0076 57.553 67.2723 57.2166 67.3305 56.9995C67.4032 56.728 67.5991 56.4313 67.8745 56.2724C68.273 56.0882 68.3709 55.9399 68.2623 55.9108C68.114 55.8128 68.1431 55.7042 68.3641 55.5307C68.6686 55.2631 68.6328 54.9626 68.3283 55.2302C68.1072 55.4037 68.082 55.2805 68.2091 55.0236C68.2236 54.9693 68.1839 54.9005 68.1296 54.886C68.0753 54.8714 68.148 54.5999 68.2208 54.3285C68.3914 53.9087 68.4205 53.8001 68.2577 53.7565C68.1491 53.7274 68.1636 53.6731 68.3556 53.6081C68.533 53.5975 68.6309 53.4492 68.6746 53.2863C68.7037 53.1777 68.7725 53.1379 68.7977 53.2611C68.8336 53.5616 69.4531 53.2039 69.6238 52.7841C69.6674 52.6213 69.8197 52.4875 69.9428 52.4623C70.0514 52.4914 70.1057 52.5059 70.0077 52.6543C69.9244 52.7483 69.8953 52.8569 70.0038 52.886C70.0581 52.9005 70.127 52.8608 70.1561 52.7522C70.2143 52.535 70.6671 52.3654 71.2139 52.2792C71.8838 52.1677 71.9924 52.1968 71.8402 52.3306C71.7568 52.4246 71.782 52.5478 71.8363 52.5623C71.876 52.6311 71.9992 52.606 72.0283 52.4974C72.0574 52.3888 72.1407 52.2947 72.2493 52.3238C72.3036 52.3384 72.3395 52.6389 72.1106 53.2759C71.9215 53.9817 71.9321 54.1591 72.0446 53.9565C72.1968 53.8227 72.3927 53.5261 72.4364 53.3632C72.4945 53.146 72.6759 52.9037 72.8135 52.8242C72.8824 52.7844 72.9406 52.5673 72.9842 52.4044C73.0027 52.1184 73.4845 51.8402 73.6038 52.0467C73.7628 52.322 74.3465 51.6638 74.4086 51.2149C74.4813 50.9434 74.5395 50.7263 74.6481 50.7553C74.7567 50.7844 74.7858 50.6759 74.873 50.3501C74.8847 49.655 75.6178 48.2221 75.7914 48.4431C75.8708 48.5808 77.1817 48.4665 77.2253 48.3036C77.2544 48.195 77.3087 48.2096 77.4318 48.1844C78.315 48.3629 78.8473 48.3309 79.4814 47.9189C79.6191 47.8394 79.7965 47.8288 79.876 47.9665C79.9701 48.0499 80.0786 48.0789 80.2309 47.9452C80.3685 47.8657 80.5605 47.8007 80.6691 47.8298C80.7777 47.8589 80.8465 47.8192 80.8359 47.6418C80.8252 47.4643 80.8795 47.4789 80.9445 47.6708C81.0094 47.8628 81.1034 47.9462 81.1325 47.8376C81.1471 47.7833 81.2848 47.7038 81.3933 47.7329C81.5019 47.762 81.6251 47.7368 81.6396 47.6825C81.6542 47.6282 81.7918 47.5488 81.9693 47.5381C82.0924 47.5129 82.2301 47.4334 82.1903 47.3646C82.1506 47.2957 82.1108 47.2269 81.9732 47.3064C81.9189 47.2918 81.8646 47.2773 81.9334 47.2376C82.0168 47.1435 82.1942 47.1329 82.3969 47.2453C82.5995 47.3578 82.7226 47.3326 82.7372 47.2783C82.7663 47.1698 82.8894 47.1446 82.9291 47.2134C82.9689 47.2822 83.1318 47.3259 83.2694 47.2464C83.4071 47.1669 83.5157 47.196 83.5011 47.2503C83.4721 47.3589 83.2655 47.4781 83.0047 47.5828C82.773 47.5789 82.4288 47.7776 82.2911 47.8571C82.1389 47.9909 81.9072 47.987 81.8131 47.9036C81.7046 47.8745 81.5271 47.8852 81.3749 48.0189C81.2372 48.0984 81.2227 48.1527 81.3458 48.1275C81.4689 48.1023 81.5087 48.1712 81.4941 48.2255C81.465 48.3341 81.3565 48.305 81.2081 48.207C81.0598 48.1091 80.8135 48.1595 80.6759 48.239C80.5236 48.3728 80.2774 48.4231 80.1833 48.3398C80.0893 48.2564 80.0204 48.2961 79.9914 48.4047C79.9768 48.459 79.8537 48.4842 79.7451 48.4551C79.6365 48.426 79.4988 48.5055 79.4552 48.6684C79.4261 48.777 79.3572 48.8167 79.3175 48.7479C79.2778 48.679 79.1546 48.7042 79.0567 48.8525C78.9733 48.9466 78.8502 48.9718 78.7018 48.8738C78.4449 48.7468 78.3906 48.7323 78.441 48.9785C78.506 49.1705 78.4517 49.156 78.3179 49.0037C78.1987 48.7972 77.8293 48.8728 77.742 49.1986C77.7129 49.3071 77.4666 49.3575 77.2204 49.4079C77.0284 49.4729 76.8907 49.5524 76.8762 49.6066C76.9304 49.6212 77.1622 49.6251 77.4627 49.5892C78.0241 49.4487 78.0784 49.4633 78.0347 49.6261C78.0202 49.6804 77.6905 49.8249 77.3357 49.8462C76.912 49.9072 76.5823 50.0516 76.5533 50.1602C76.4951 50.3774 76.5494 50.3919 76.9876 50.2766C77.2339 50.2262 77.5887 50.2049 77.6973 50.234C77.8059 50.2631 78.1753 50.1875 78.4361 50.0828C78.6823 50.0324 78.9432 49.9277 78.9975 49.9423C78.9975 49.9423 79.2437 49.8919 79.4754 49.8958C79.7217 49.8454 80.0223 49.8095 80.1308 49.8386C80.1851 49.8532 80.5002 49.7631 80.7756 49.6041C81.0907 49.5139 81.337 49.4635 81.3767 49.5324C81.3767 49.5324 81.4853 49.5615 81.623 49.482C81.7607 49.4025 81.8838 49.3773 81.8692 49.4316C81.8401 49.5402 81.9633 49.515 82.0612 49.3666C82.2134 49.2329 82.2134 49.2329 82.1698 49.3957C82.003 49.5838 80.8512 49.9735 80.7717 49.8358C80.6777 49.7524 80.0978 50.1789 80.0542 50.3418C80.0106 50.5047 80.282 50.5774 80.4885 50.4582C80.6117 50.433 81.2962 50.2673 82.1184 50.0221C82.8426 49.9252 83.7191 49.6945 83.9256 49.5753C84.1176 49.5103 84.3784 49.4056 84.4327 49.4202C84.487 49.4347 85.4323 49.1643 86.5841 48.7747C90.4779 47.4904 93.3798 45.9985 95.2754 44.3534C95.8154 43.858 96.2867 43.4024 96.37 43.3083C96.468 43.16 96.6493 42.9176 96.7618 42.715C96.9286 42.5269 97.2515 41.9734 97.4221 41.5536C98.13 39.9975 98.103 38.361 97.3411 36.6439ZM66.3351 53.765C66.2662 53.8048 66.2265 53.7359 66.2701 53.573C66.3138 53.4102 66.3826 53.3704 66.3933 53.5479C66.433 53.6167 66.3894 53.7796 66.3351 53.765ZM66.5629 54.0006C66.4941 54.0404 66.4689 53.9172 66.498 53.8087C66.5561 53.5915 66.6104 53.606 66.6356 53.7292C66.6608 53.8523 66.6317 53.9609 66.5629 54.0006ZM67.1609 56.5467C67.1609 56.5467 67.0668 56.4633 67.0959 56.3547C67.0562 56.2859 67.0853 56.1773 67.1939 56.2064C67.2482 56.2209 67.3277 56.3586 67.3131 56.4129C67.284 56.5215 67.2152 56.5612 67.1609 56.5467ZM67.9986 55.3746C68.0384 55.4434 68.0781 55.5123 68.0636 55.5666C68.0636 55.5666 68.0093 55.552 67.955 55.5375C67.9007 55.5229 67.861 55.4541 67.8755 55.3998C67.8901 55.3455 67.9589 55.3057 67.9986 55.3746ZM67.7009 56.0513C67.7261 56.1744 67.7513 56.2976 67.697 56.283C67.6137 56.377 67.4944 56.1705 67.5381 56.0076C67.5672 55.8991 67.6757 55.9282 67.7009 56.0513ZM73.0188 44.6743C72.9354 44.7684 72.9645 44.6598 73.0082 44.4969C73.0664 44.2797 73.0809 44.2254 73.1207 44.2943C73.1459 44.4174 73.0877 44.6346 73.0188 44.6743ZM71.4679 51.7653C71.2508 51.7071 71.1965 51.6926 71.1965 51.6926C71.211 51.6383 71.2799 51.5985 71.5261 51.5482C71.6493 51.523 71.8121 51.5666 71.7976 51.6209C71.783 51.6752 71.5911 51.7401 71.4679 51.7653ZM72.299 50.1841C72.1613 50.2636 72.1904 50.155 72.234 49.9921C72.2922 49.775 72.3068 49.7207 72.4008 49.804C72.3717 49.9126 72.3281 50.0755 72.299 50.1841ZM73.8013 44.3603C73.747 44.3457 73.6927 44.3312 73.7218 44.2226C73.682 44.1537 73.7111 44.0452 73.8197 44.0743C73.874 44.0888 73.8992 44.2119 73.8846 44.2662C73.8555 44.3748 73.8555 44.3748 73.8013 44.3603ZM75.1277 43.3191C74.7718 44.213 74.4198 44.8751 74.3112 44.846C74.3112 44.846 74.1881 44.8712 73.9709 44.813C73.7392 44.8091 73.7392 44.8091 74.0979 44.5561C74.3044 44.4369 74.4858 44.1945 74.5149 44.0859C74.5876 43.8145 74.5876 43.8145 74.4063 44.0569C74.2395 44.2449 74.2395 44.2449 74.2831 44.082C74.3122 43.9735 74.4102 43.8251 74.479 43.7854C74.5478 43.7456 74.6312 43.6516 74.6458 43.5973C74.6603 43.543 74.6206 43.4742 74.5517 43.5139C74.4286 43.5391 74.512 43.4451 74.6788 43.257C75.0666 42.8954 75.2838 42.9536 75.1277 43.3191ZM75.342 42.7364C75.1752 42.9245 75.15 42.8014 75.2518 42.4213C75.3391 42.0956 75.5059 41.9075 75.5602 41.922C75.6145 41.9366 75.694 42.0743 75.6358 42.2914C75.5921 42.4543 75.4254 42.6424 75.342 42.7364ZM75.8976 41.3142C75.8104 41.6399 75.6436 41.828 75.535 41.7989C75.535 41.7989 75.4953 41.7301 75.5786 41.636C75.8724 41.1911 76.0907 40.3767 75.9569 40.2244C75.8483 40.1953 75.9171 40.1556 76.08 40.1992C76.366 40.2177 76.2787 40.5434 75.8976 41.3142ZM76.7365 39.2695C76.6346 39.6496 76.4388 39.9462 76.3011 40.0257C76.2177 40.1197 76.2177 40.1197 76.3156 39.9714C76.3447 39.8628 76.3884 39.7 76.3632 39.5768C76.2294 39.4246 76.2585 39.316 76.4214 39.3597C76.4756 39.3742 76.5299 39.3888 76.4902 39.3199C76.4504 39.2511 76.5629 39.0484 76.7297 38.8604C77.0196 38.6471 77.0051 38.7014 76.7365 39.2695ZM77.3755 37.7532C77.3319 37.9161 77.263 37.9559 77.2378 37.8327C77.2669 37.7241 77.3251 37.507 77.2456 37.3693C77.2495 37.1376 77.3184 37.0978 77.3833 37.2898C77.4773 37.3732 77.4734 37.6049 77.3755 37.7532ZM77.7023 36.9679C77.6189 37.062 77.6335 37.0077 77.6917 36.7905C77.7353 36.6276 77.7498 36.5733 77.7896 36.6422C77.8148 36.7653 77.7711 36.9282 77.7023 36.9679ZM78.0543 36.3058C78 36.2912 77.9603 36.2224 77.9748 36.1681C78.0039 36.0595 78.0582 36.0741 78.1125 36.0886C78.192 36.2263 78.2317 36.2951 78.2172 36.3494C78.2172 36.3494 78.1629 36.3349 78.0543 36.3058ZM81.0481 48.8042C80.9395 48.7751 80.8998 48.7063 80.9434 48.5434C80.9725 48.4348 81.0414 48.3951 81.1354 48.4785C81.1751 48.5473 81.2003 48.6705 81.1858 48.7247C81.1567 48.8333 81.1024 48.8188 81.0481 48.8042ZM82.5707 32.0461C82.7084 31.9666 82.7482 32.0354 82.8422 32.1188C82.8422 32.1188 82.7734 32.1585 82.6648 32.1294C82.5019 32.0858 82.4622 32.017 82.5707 32.0461ZM78.6232 38.9604C78.692 38.9207 78.7754 38.8266 78.7754 38.8266C78.8297 38.8412 78.8549 38.9643 78.8404 39.0186C78.8113 39.1272 78.6881 39.1524 78.6338 39.1378C78.5253 39.1087 78.5398 39.0544 78.6232 38.9604ZM78.6047 39.2464C78.659 39.261 78.6988 39.3298 78.6299 39.3695C78.6008 39.4781 78.532 39.5179 78.4777 39.5033C78.4234 39.4888 78.438 39.4345 78.4671 39.3259C78.4816 39.2716 78.5505 39.2319 78.6047 39.2464ZM77.0435 42.9014C77.0726 42.7928 77.2248 42.659 77.2248 42.659C77.2248 42.659 77.2355 42.8365 77.2064 42.945C77.1627 43.1079 77.0793 43.202 76.9707 43.1729C76.9165 43.1583 76.9456 43.0497 77.0435 42.9014ZM76.5421 44.3382C76.4733 44.3779 76.3938 44.2403 76.4229 44.1317C76.4811 43.9145 76.6188 43.835 76.7021 43.741C76.7564 43.7555 76.7962 43.8244 76.7525 43.9872C76.7089 44.1501 76.611 44.2985 76.5421 44.3382ZM75.8243 48.1028C75.7555 48.1426 75.6615 48.0592 75.676 48.0049C75.6906 47.9506 75.8282 47.8711 75.8971 47.8314C75.9659 47.7916 76.0057 47.8605 75.9911 47.9147C75.9766 47.969 75.8932 48.0631 75.8243 48.1028ZM78.147 40.5203C78.0239 40.5455 77.9841 40.4767 77.9987 40.4224C78.0132 40.3681 78.0966 40.2741 78.2198 40.2489C78.2886 40.2091 78.3283 40.278 78.3138 40.3323C78.2992 40.3865 78.2159 40.4806 78.147 40.5203ZM76.8743 48.0932C76.7512 48.1184 76.6572 48.035 76.7658 48.0641C76.8491 47.9701 76.8239 47.8469 76.7445 47.7093C76.6795 47.5173 76.6795 47.5173 76.7881 47.5464C76.8133 47.6695 76.9364 47.6443 77.0596 47.6191C77.2661 47.4999 77.2515 47.5542 77.1933 47.7714C77.1497 47.9342 77.0518 48.0826 76.8743 48.0932ZM83.1403 49.2485C83.0569 49.3425 83.0026 49.3279 82.9629 49.2591C82.8688 49.1757 82.8398 49.2843 82.7021 49.3638C82.673 49.4724 82.5498 49.4976 82.4413 49.4685C82.3327 49.4394 82.4015 49.3996 82.5537 49.2659C82.8979 49.0671 83.3614 49.0749 83.1403 49.2485ZM83.762 47.1456C83.7911 47.037 83.983 46.9721 84.1062 46.9469C84.2836 46.9362 84.5153 46.9401 84.6384 46.9149C84.7073 46.8752 84.6239 46.9692 84.2942 47.1137C83.5806 47.388 83.5806 47.388 83.762 47.1456ZM84.263 48.9674C84.1797 49.0614 84.1254 49.0469 84.1254 49.0469C84.0711 49.0323 84.0168 49.0178 84.0459 48.9092C84.0061 48.8404 84.0604 48.8549 84.169 48.884C84.2776 48.9131 84.3319 48.9276 84.263 48.9674ZM85.0369 46.7308C85.1494 46.5281 85.3268 46.5175 85.4354 46.5466C85.5983 46.5902 85.638 46.6591 85.5692 46.6988C85.5547 46.7531 85.3627 46.818 85.225 46.8975C84.9787 46.9479 84.9244 46.9334 85.0369 46.7308ZM85.4003 48.632C85.3063 48.5486 85.06 48.599 84.839 48.7726C84.6722 48.9606 84.4802 49.0256 84.4948 48.9713C84.5239 48.8627 84.7449 48.6892 84.9514 48.5699C85.2811 48.4255 85.4042 48.4003 85.4149 48.5777C85.4401 48.7009 85.3858 48.6863 85.4003 48.632ZM86.116 46.6126C86.0074 46.5835 85.9677 46.5146 85.9968 46.406C86.0259 46.2975 86.1093 46.2034 86.2179 46.2325C86.2721 46.2471 86.3662 46.3305 86.3371 46.439C86.3225 46.4933 86.1994 46.5185 86.116 46.6126ZM93.8441 36.2305C93.6627 36.4729 93.496 36.661 93.4814 36.7153C93.4669 36.7696 93.3001 36.9576 93.1333 37.1457C91.0486 39.4966 86.513 41.6564 79.7872 43.5202C76.9513 44.3314 77.1141 44.3751 77.6843 42.8985C77.9675 42.2761 78.4068 41.2882 78.6066 40.7598C78.8461 40.3003 79.7392 38.2702 80.5634 36.2798C81.442 34.304 82.179 32.6394 82.179 32.6394C82.2478 32.5996 84.8801 32.5485 85.2747 32.596C88.4606 32.8678 90.9871 33.4284 92.6517 34.1653C94.4647 35.0003 94.5694 35.2611 93.8441 36.2305ZM72.8299 54.2833C72.7465 54.3773 72.6631 54.4714 72.6195 54.6343C72.5758 54.7971 72.601 54.9203 72.6844 54.8262C72.793 54.8553 72.9055 54.6527 72.9346 54.5441C72.9782 54.3812 72.9385 54.3124 72.8299 54.2833ZM71.7721 54.7563C71.8846 54.5537 71.8991 54.4994 71.6781 54.673C71.5549 54.6982 71.3988 55.0637 71.3115 55.3894C71.1554 55.7549 71.2058 56.0012 71.2746 55.9614C71.3435 55.9217 71.4666 55.8965 71.4957 55.7879C71.5248 55.6793 71.6227 55.531 71.677 55.5455C71.7459 55.5058 71.775 55.3972 71.71 55.2052C71.6848 55.0821 71.6887 54.8504 71.7721 54.7563ZM73.4438 52.6439C73.3895 52.6293 73.2518 52.7088 73.1936 52.926C73.1645 53.0346 73.244 53.1723 73.3128 53.1325C73.3817 53.0928 73.4651 52.9987 73.4942 52.8902C73.5232 52.7816 73.4981 52.6584 73.4438 52.6439ZM72.9967 54.0952C73.0655 54.0555 73.0946 53.9469 73.0694 53.8238C73.0442 53.7006 72.9899 53.6861 72.9317 53.9033C72.9026 54.0118 72.9278 54.135 72.9967 54.0952ZM73.5165 52.3724C73.5019 52.4267 73.5417 52.4956 73.596 52.5101C73.6503 52.5247 73.7046 52.5392 73.7046 52.5392C73.7191 52.4849 73.6794 52.4161 73.6396 52.3472C73.5999 52.2784 73.531 52.3181 73.5165 52.3724ZM75.7999 50.3657C75.5788 50.5392 75.5788 50.5392 75.637 50.3221C75.6807 50.1592 75.6807 50.1592 75.5284 50.293C75.3908 50.3724 75.3074 50.4665 75.2928 50.5208C75.2783 50.5751 75.318 50.6439 75.3723 50.6585C75.5352 50.7021 75.8794 50.5034 75.923 50.3405C75.9521 50.2319 75.8833 50.2717 75.7999 50.3657ZM65.7872 54.7238C65.856 54.6841 65.9142 54.4669 65.8745 54.3981C65.8493 54.275 65.8202 54.3835 65.7766 54.5464C65.7184 54.7636 65.7038 54.8179 65.7872 54.7238ZM68.5689 53.898C68.4855 53.9921 68.565 54.1298 68.7133 54.2277C68.8616 54.3256 68.9702 54.3547 68.9702 54.3547C68.9702 54.3547 68.9993 54.2461 68.9887 54.0687C69.0071 53.7827 68.7502 53.6557 68.5689 53.898ZM67.6708 57.0325C67.602 57.0722 67.5186 57.1662 67.504 57.2205C67.4895 57.2748 67.5292 57.3437 67.5981 57.3039C67.7212 57.2787 67.8046 57.1847 67.8191 57.1304C67.8337 57.0761 67.7939 57.0073 67.6708 57.0325ZM67.3547 57.9952C67.3547 57.9952 67.217 58.0747 67.2024 58.1289C67.119 58.223 67.1045 58.2773 67.2131 58.3064C67.2674 58.3209 67.3362 58.2812 67.3653 58.1726C67.3799 58.1183 67.4089 58.0097 67.3547 57.9952ZM67.0754 58.3859C67.0211 58.3713 66.9775 58.5342 66.9484 58.6428C66.9047 58.8057 66.8756 58.9142 66.9299 58.9288C66.9842 58.9433 67.0676 58.8493 67.1112 58.6864C67.1403 58.5778 67.1297 58.4004 67.0754 58.3859ZM128.471 38.4095C127.737 37.4564 127.683 37.4419 127.378 37.7094C127.211 37.8975 127.143 37.9373 127.215 37.6658C127.176 37.597 127.165 37.4195 127.056 37.3904C126.988 37.4302 126.977 37.2528 127.035 37.0356C127.068 36.6953 127.014 36.6807 126.782 36.6768C126.536 36.7272 126.442 36.6438 126.391 36.3976C126.247 36.0679 125.141 34.5496 124.855 34.5311C124.746 34.502 124.652 34.4186 124.681 34.31C124.591 33.9949 123.913 34.5698 123.105 35.6333C122.604 36.1975 122.311 36.6425 122.296 36.6968C122.242 36.6823 121.713 36.4825 121.2 36.2284C117.494 34.4209 112.657 34.2305 108.311 35.6844C105.801 36.5829 102.319 38.5013 100.738 40.0563C99.8104 40.9133 99.6 41.2643 99.3129 42.1184C99.0404 42.9182 99.2498 43.4398 100.453 45.6825C100.995 46.7005 101.681 48.0482 101.984 48.6532C102.815 50.3306 103.271 50.8018 105.51 52.2166C107.008 53.1416 108.13 53.7331 110.377 54.6844C111.77 55.3487 113.55 56.5239 113.666 56.9621C113.911 57.7843 112.289 60.143 110.506 61.5856C109.372 62.5618 107.307 63.7541 105.702 64.3134C104.496 64.6885 102.812 65.1101 102.171 65.113C101.979 65.1779 101.516 65.1701 101.161 65.1914C100.791 65.267 100.274 65.2446 100.136 65.3241C99.372 65.3522 96.6389 64.9108 95.7848 64.6238C94.9161 64.391 94.7823 64.2388 93.8934 62.7786L93.4562 62.0213L93.1518 62.2889C92.6951 62.6903 92.6834 63.3854 93.0265 64.0593C93.171 64.3889 93.7274 65.3527 94.1898 66.233C94.7753 67.0882 95.3967 68.2439 95.7146 68.7947C96.336 69.9504 96.8207 70.313 98.4602 70.9269C98.9488 71.0578 100.158 71.3236 101.164 71.4769C103.803 71.8348 105.577 71.7283 108.142 70.8444C112.557 69.3507 116.74 65.4671 117.175 62.3249C117.376 60.924 116.965 59.4173 115.762 57.1746C115.498 56.6385 114.996 55.6893 114.707 55.03C113.826 53.1063 111.501 50.2722 110.658 50.1626C110.549 50.1335 110.401 50.0355 110.415 49.9813C110.419 49.7495 109.46 49.2017 107.336 48.2252C105.617 47.4736 103.794 46.4613 103.823 46.3527C103.885 45.9038 107.128 43.5724 108.929 42.7164C110.606 41.8857 111.305 41.6657 112.728 41.3488C114.659 40.8768 116.379 40.7557 117.848 40.9168C118.134 40.9352 118.435 40.8994 118.464 40.7908C118.464 40.7908 118.573 40.8199 118.721 40.9178C118.83 40.9469 119.087 41.074 119.304 41.1322C119.59 41.1506 119.626 41.4512 119.336 41.6644C119.267 41.7042 118.998 42.2723 118.715 42.8947C118.457 43.6403 118.174 44.2627 118.061 44.4653C117.949 44.6679 117.724 45.0732 117.666 45.2903C117.444 46.3364 117.298 46.8793 117.367 46.8396C117.45 46.7456 117.624 46.9666 117.852 47.2023C118.08 47.4379 118.307 47.6735 118.416 47.7026C118.47 47.7171 118.564 47.8005 118.619 47.8151C118.629 47.9925 119.747 48.8157 120.019 48.8884C120.073 48.903 120.275 49.0155 120.384 49.0446C120.572 49.2113 120.847 49.0524 121.131 48.43L121.439 47.9307L121.254 48.4048C120.792 49.9104 120.843 50.1567 121.245 49.7408C121.481 49.513 121.481 49.513 121.415 50.1936C121.382 50.5339 121.733 50.7443 121.766 50.404C121.853 50.0782 122.149 50.2741 122.102 50.6687C122.094 51.1321 122.094 51.1321 122.33 50.9043C122.58 50.6222 123.077 49.4171 123.012 49.2251C122.973 49.1563 123.002 49.0477 123.11 49.0768C123.11 49.0768 123.615 48.2809 124.108 47.3075C124.802 45.8058 127.004 42.1479 128.36 40.1256C128.962 39.1813 128.966 38.9496 128.471 38.4095ZM105.682 42.021C105.584 42.1693 105.446 42.2488 105.392 42.2343C105.338 42.2197 105.421 42.1257 105.682 42.021C105.903 41.8475 105.903 41.8475 105.682 42.021ZM121.933 46.9573C121.689 47.6486 121.551 47.7281 121.363 47.5613C121.15 47.2714 121.194 47.1085 121.451 47.2355C121.545 47.3189 121.682 47.2394 121.657 47.1163C121.686 47.0077 121.813 46.7508 121.897 46.6568C122.049 46.523 122.034 46.5773 121.933 46.9573ZM122.415 45.8065C122.288 46.0634 122.288 46.0634 122.307 45.7774C122.351 45.6145 122.394 45.4517 122.532 45.3722C122.546 45.3179 122.655 45.347 122.64 45.4013C122.611 45.5099 122.513 45.6582 122.415 45.8065ZM123.007 44.6848C122.84 44.8729 122.84 44.8729 122.898 44.6557C122.928 44.5471 123.025 44.3988 123.069 44.2359C123.221 44.1022 123.276 44.1167 123.247 44.2253C123.203 44.3882 123.145 44.6053 123.007 44.6848ZM128.419 39.0358C128.365 39.0213 128.325 38.9525 128.369 38.7896C128.507 38.7101 128.536 38.6015 128.59 38.6161C128.59 38.6161 128.615 38.7392 128.586 38.8478C128.597 39.0252 128.528 39.0649 128.419 39.0358ZM142.01 36.102C141.97 36.0331 141.496 35.8479 141.091 35.6229C140.4 35.3795 140.222 35.3902 140.07 35.524C139.958 35.7266 139.592 35.5705 139.462 35.1865C139.358 34.9257 139.303 34.9111 139.097 35.0304C138.89 35.1496 138.796 35.0662 138.46 34.8015C138.178 34.5514 137.718 34.3118 137.012 34.1227L135.981 33.8463L135.516 34.7111C135.277 35.1706 134.783 36.144 134.402 36.9147C134.13 37.7146 133.495 38.9992 133.139 39.893C132.148 42.0715 130.524 46.1753 128.269 52.2047C127.967 53.1131 127.597 54.0612 127.524 54.3327C125.755 58.9795 123.517 65.5954 123.651 65.7476C123.73 65.8853 123.784 65.8998 123.799 65.8455C123.828 65.737 123.853 65.8601 123.987 66.0123C124.077 66.3274 124.186 66.3565 124.837 66.5311C125.272 66.6475 125.735 66.6553 125.967 66.6592C126.227 66.5545 126.322 66.6379 126.194 66.8948C126.111 66.9888 126.18 66.9491 126.303 66.9239C126.51 66.8046 126.524 66.7504 126.405 66.5438C126.34 66.3519 126.369 66.2433 126.811 65.8962C127.101 65.6829 127.431 65.5385 127.485 65.5531C127.539 65.5676 127.525 65.6219 127.47 65.6074C127.347 65.6326 127.264 65.7266 127.304 65.7954C127.289 65.8497 127.26 65.9583 127.151 65.9292C127.097 65.9147 127.028 65.9544 127.039 66.1318C127.079 66.2007 127.021 66.4178 126.883 66.4973C126.676 66.6166 126.716 66.6854 126.919 66.7979C127.309 67.0772 127.516 66.9579 127.611 66.1687C127.727 65.7344 127.84 65.5318 127.894 65.5463C128.097 65.6588 128.428 64.6418 128.283 64.3121C128.258 64.189 128.272 64.1347 128.327 64.1493C128.435 64.1784 128.519 64.0843 128.577 63.8671C128.621 63.7043 128.806 63.2302 129.016 62.8792C129.187 62.4594 129.303 62.0251 129.303 62.0251C129.278 61.902 129.347 61.8622 129.47 61.837C129.702 61.8409 129.745 61.6781 129.847 61.298C129.866 61.012 129.978 60.8094 130.061 60.7153C130.185 60.6901 130.199 60.6358 130.134 60.4439C130.03 60.1831 130.098 60.1433 130.37 60.2161C130.424 60.2306 130.478 60.2452 130.508 60.1366C130.537 60.028 130.482 60.0134 130.374 59.9843C130.319 59.9698 130.309 59.7924 130.446 59.7129C130.505 59.4957 130.628 59.4705 130.628 59.4705C130.736 59.4996 130.824 59.1739 130.896 58.9024C131.053 58.5369 131.281 57.8999 131.481 57.3716C131.681 56.8432 131.91 56.2062 131.983 55.9348C132.07 55.609 132.182 55.4064 132.182 55.4064C132.399 55.4646 132.308 56.022 132 56.5213C131.858 56.8325 131.557 57.741 131.27 58.5951C131.037 59.4638 130.71 60.249 130.696 60.3033C130.627 60.3431 130.569 60.5603 130.594 60.6834C130.619 60.8065 130.521 60.9548 130.383 61.0343C130.231 61.1681 130.256 61.2913 130.39 61.4435C130.578 61.6103 130.578 61.6103 130.346 61.6064C130.184 61.5627 130.154 61.6713 129.878 62.7029C129.565 64.3064 129.59 64.4296 129.713 64.4044C129.822 64.4335 129.847 64.5566 129.803 64.7195C129.76 64.8823 129.672 65.2081 129.683 65.3855C129.679 65.6172 129.592 65.943 129.425 66.1311C129.367 66.3482 129.323 66.5111 129.363 66.58C129.403 66.6488 129.359 66.8117 129.178 67.054C128.884 67.499 128.949 67.691 129.278 67.5466C129.554 67.3876 129.946 66.7943 129.699 66.8447C129.645 66.8301 129.591 66.8156 129.62 66.707C129.634 66.6527 129.703 66.613 129.758 66.6275C129.812 66.642 129.939 66.3851 129.957 66.0991C130.03 65.8277 130.172 65.5165 130.24 65.4767C130.462 65.3032 130.665 64.5431 130.473 64.608C130.336 64.6875 130.394 64.4704 130.644 64.1882C130.742 64.0399 130.869 63.783 130.927 63.5658C131.04 63.3632 131.181 63.052 131.294 62.8494C131.392 62.701 131.62 62.0641 131.835 61.4814C132.049 60.8987 132.249 60.3704 132.318 60.3306C132.347 60.222 132.347 60.222 132.238 60.1929C132.13 60.1639 132.159 60.0553 132.296 59.9758C132.449 59.842 132.576 59.5851 133.019 58.3655C133.048 58.2569 133.186 58.1774 133.24 58.1919C133.294 58.2065 133.334 58.2753 133.265 58.3151C133.25 58.3693 132.982 58.9375 132.807 59.589C132.539 60.1571 132.208 61.1741 131.994 61.7568C131.794 62.2852 131.467 63.0704 131.336 63.5591C131.089 64.482 130.802 65.3362 130.46 66.1758C130.221 66.6353 130.192 66.7439 130.369 66.7332C130.492 66.708 130.674 66.4657 130.776 66.0856C130.848 65.8142 131.004 65.4487 131.102 65.3003C131.186 65.2063 131.244 64.9891 131.273 64.8805C131.288 64.8262 131.389 64.4462 131.516 64.1893C131.658 63.8781 131.941 63.2557 132.072 62.767C132.257 62.2929 132.984 60.4509 133.695 58.6632C134.422 56.8211 135.119 55.0877 135.192 54.8162C135.548 53.9223 137.196 49.9416 137.635 48.9537C138.118 47.8029 139.669 43.9705 139.985 43.0077C141.267 39.7434 142.209 36.4462 142.01 36.102ZM128.478 61.6295C128.605 61.3726 128.645 61.4414 128.529 61.8757C128.456 62.1472 128.329 62.4041 128.22 62.375C128.112 62.3459 128.228 61.9116 128.478 61.6295ZM127.188 65.3572C127.051 65.4367 127.065 65.3824 127.192 65.1255C127.29 64.9771 127.359 64.9374 127.384 65.0605C127.355 65.1691 127.326 65.2777 127.188 65.3572ZM127.697 64.3295C127.352 64.5283 127.352 64.5283 127.479 64.2713C127.617 64.1919 127.69 63.9204 127.733 63.7575C127.792 63.5403 127.846 63.5549 127.857 63.7323C127.882 63.8555 127.907 63.9786 127.947 64.0474C127.986 64.1163 127.903 64.2103 127.697 64.3295ZM132.349 55.2183C132.397 54.8237 132.655 54.0782 132.709 54.0927C132.763 54.1073 132.93 53.9192 133.003 53.6477C133.115 53.4451 133.057 53.6623 132.843 54.2449C132.595 55.1679 132.356 55.6274 132.349 55.2183ZM130.617 62.5517C130.508 62.5226 130.469 62.4537 130.498 62.3452C130.527 62.2366 130.581 62.2511 130.675 62.3345C130.715 62.4033 130.755 62.4722 130.74 62.5265C130.74 62.5265 130.671 62.5662 130.617 62.5517ZM130.893 61.5201C130.77 61.5453 130.73 61.4765 130.745 61.4222C130.774 61.3136 130.857 61.2196 130.966 61.2487C131.035 61.2089 131.089 61.2235 131.075 61.2778C131.046 61.3863 130.962 61.4804 130.893 61.5201ZM133.551 52.6889L133.355 52.9856L133.333 52.6307C133.341 52.1673 133.675 51.7911 133.696 52.146C133.707 52.3234 133.648 52.5406 133.551 52.6889ZM134.179 50.9952C134.008 51.415 133.852 51.7805 133.783 51.8202C133.646 51.8997 134.103 50.6258 134.27 50.4377C134.383 50.2351 134.379 50.4668 134.179 50.9952ZM133.215 58.0688C133.106 58.0397 133.335 57.4027 133.541 57.2835C133.541 57.2835 133.567 57.4066 133.494 57.6781C133.436 57.8953 133.323 58.0979 133.215 58.0688ZM133.668 57.0266C133.614 57.012 133.589 56.8889 133.658 56.8492C133.741 56.7551 133.81 56.7154 133.864 56.7299C133.864 56.7299 133.904 56.7988 133.875 56.9074C133.86 56.9616 133.777 57.0557 133.668 57.0266ZM134.122 55.9844C133.93 56.0493 134.032 55.6693 134.297 55.3329C134.478 55.0905 134.464 55.1448 134.376 55.4706C134.358 55.7566 134.191 55.9446 134.122 55.9844ZM134.645 54.9024C134.576 54.9422 134.453 54.9674 134.344 54.9383C134.182 54.8946 134.265 54.8006 134.497 54.8045C134.62 54.7793 134.728 54.8084 134.645 54.9024ZM129.23 65.5552C129.284 65.5697 129.368 65.4757 129.412 65.3128C129.455 65.1499 129.43 65.0268 129.376 65.0122C129.321 64.9977 129.238 65.0917 129.194 65.2546C129.151 65.4175 129.176 65.5406 129.23 65.5552ZM127.707 73.4101C127.599 73.3811 127.45 73.2831 127.411 73.2143C127.386 73.0911 127.02 72.935 126.655 72.7789C126.057 72.6189 125.988 72.6586 125.945 72.8215C125.872 73.093 125.818 73.0784 125.59 72.8428C125.456 72.6906 125.268 72.5238 125.228 72.4549C125.257 72.3464 124.986 72.2736 124.74 72.324C124.468 72.2513 124.305 72.2076 124.32 72.1533C124.364 71.9905 123.188 71.3844 122.239 71.014C121.588 70.8394 121.371 70.7812 121.15 70.9547C120.86 71.168 120.254 72.344 119.473 74.1715C119.19 74.7939 118.722 75.8904 118.424 76.5671C117.926 77.7722 117.912 77.8265 118.111 78.1707C118.309 78.5149 118.526 78.5731 120.372 79.0677C121.987 79.5584 122.49 79.635 122.588 79.4867C122.878 79.2734 123.199 79.5924 123.018 79.8348C122.92 79.9831 122.96 80.052 123.083 80.0268C123.206 80.0016 123.275 79.9618 123.304 79.8533C123.323 79.5673 123.634 79.7088 123.655 80.0637C123.637 80.3497 124.259 80.6328 124.278 80.3468C124.307 80.2382 124.39 80.1442 124.444 80.1588C124.553 80.1879 124.524 80.2964 124.48 80.4593C124.339 80.7705 124.61 80.8433 124.86 80.5611C124.958 80.4128 125.437 79.4937 125.931 78.5204C126.37 77.5325 127.034 76.1393 127.426 75.546C128.076 74.2071 128.156 73.4722 127.707 73.4101ZM124.293 76.1614C124.17 76.1866 124.131 76.1177 124.145 76.0634C124.16 76.0092 124.243 75.9151 124.366 75.8899C124.435 75.8502 124.475 75.919 124.46 75.9733C124.446 76.0276 124.362 76.1216 124.293 76.1614ZM127.526 73.6525C127.363 73.6089 127.309 73.5943 127.432 73.5691C127.555 73.5439 127.664 73.573 127.703 73.6419C127.743 73.7107 127.674 73.7504 127.526 73.6525ZM128.541 66.8252C128.606 67.0172 128.562 67.18 128.493 67.2198C128.424 67.2595 128.41 67.3138 128.518 67.3429C128.627 67.372 128.739 67.1694 128.783 67.0065C128.841 66.7893 128.929 66.4636 129.027 66.3152C129.124 66.1669 129.128 65.9352 129.034 65.8518C128.98 65.8373 128.926 65.8227 129.02 65.9061C129.005 65.9604 128.962 66.1233 128.809 66.2571C128.519 66.4703 128.476 66.6332 128.541 66.8252Z" fill="#DCDCDC"/>
</svg>
