<svg width="215" height="77" viewBox="0 0 215 77" fill="none" xmlns="http://www.w3.org/2000/svg">
<path d="M56.4909 -15.9915C54.7906 -21.0908 52.6026 -24.0427 49.2627 -25.6386C47.2905 -26.7804 45.4819 -27.8783 43.8427 -29.2813C42.2851 -30.6625 42.1216 -30.7063 39.9144 -31.2977C36.6445 -32.1739 34.1146 -31.888 29.9204 -30.2957C20.8502 -26.8556 11.6509 -15.7399 8.48651 -4.58416C7.83525 -2.48061 7.53876 -0.720087 7.56496 0.163109C7.58099 0.430257 7.53131 0.942651 7.42179 1.35139C7.19531 3.83161 8.28539 8.59219 9.6618 10.9762C11.2017 13.404 12.2148 14.2012 18.4041 17.2615C19.8916 17.9229 21.6623 18.8355 22.2725 19.1742C24.2067 20.1306 27.4007 20.6359 30.116 20.3121C30.8357 20.2421 31.2285 20.0844 31.2942 19.8392C31.3818 19.5122 31.4037 19.4305 31.5832 19.7414C31.8445 20.0743 32.7277 20.0481 34.9146 19.4074C41.1044 17.5613 48.3894 11.6277 53.2775 4.17571C57.9744 -2.88943 58.9136 -8.68339 56.4909 -15.9915ZM15.6104 -3.37627C15.5067 -3.31643 15.4469 -3.42008 15.4907 -3.58358C15.5345 -3.74708 15.66 -3.88867 15.7418 -3.86676C15.9053 -3.82295 15.9651 -3.7193 15.9432 -3.63755C15.8994 -3.47406 15.7738 -3.33246 15.6104 -3.37627ZM16.463 -5.25062C16.2996 -5.29442 16.2397 -5.39808 16.3653 -5.53967C16.4908 -5.68126 16.8777 -5.48999 16.8119 -5.24474C16.79 -5.163 16.6265 -5.20681 16.463 -5.25062ZM18.495 -4.00521C18.3315 -4.04902 18.3534 -4.13077 18.3972 -4.29426C18.5228 -4.43586 18.6264 -4.4957 18.7082 -4.4738C18.7899 -4.45189 18.768 -4.37014 18.7242 -4.20665C18.6804 -4.04315 18.5768 -3.9833 18.495 -4.00521ZM47.7488 -8.87121C46.7851 -5.27429 44.8403 -1.94022 41.2152 2.4331C37.2353 7.14945 33.5738 10.0235 29.1066 11.9808C27.3284 12.731 23.9634 13.8445 23.7182 13.7788C23.6365 13.7569 23.2657 13.8328 22.8131 13.8868C22.4423 13.9626 21.4555 14.0487 20.7358 14.1187C19.9124 14.2486 19.3183 14.177 19.1548 14.1332C18.9095 14.0674 17.7463 11.2149 17.5245 9.75355C16.1368 3.16086 19.2441 -5.81971 25.4081 -13.4555C27.3572 -15.8246 28.5689 -17.0771 31.1063 -19.0257C35.7663 -22.6836 41.3241 -24.7868 44.8451 -24.1938L46.0115 -23.9689L46.6041 -22.5834C47.3324 -20.7236 48.0708 -18.2476 48.2707 -16.7046C48.3407 -15.9849 48.4107 -15.2652 48.4486 -15.0798C48.7842 -13.0623 48.663 -11.9557 47.7488 -8.87121ZM47.7476 5.84819C47.622 5.98979 47.4585 5.94598 47.295 5.90217C47.2133 5.88027 47.2133 5.88027 47.2571 5.71677C47.3827 5.57518 47.5681 5.53724 47.6498 5.55914C47.8133 5.60295 47.7914 5.6847 47.7476 5.84819ZM48.2717 5.20008C48.1082 5.15627 48.1082 5.15627 48.1739 4.91102C48.3652 4.52419 48.6762 4.34466 48.5666 4.7534C48.5009 4.99864 48.3754 5.14023 48.2717 5.20008ZM50.7289 1.91568C50.2924 2.23681 50.4019 1.82807 50.8822 1.34345C51.0297 1.12011 51.0516 1.03836 51.0676 1.30551C51.0019 1.55075 50.8544 1.77409 50.7289 1.91568ZM52.3568 -0.889957C51.9684 0.232614 51.237 1.00042 51.1392 0.711366C51.0794 0.607712 51.2049 0.46612 51.3305 0.324529C51.4122 0.346433 51.5816 0.0413451 51.6692 -0.285649C51.7568 -0.612642 52.0298 -0.977575 52.3846 -1.3206C52.7394 -1.66363 52.7394 -1.66363 52.3568 -0.889957ZM53.2037 -2.4154C52.9905 -1.94682 52.9306 -2.05047 53.046 -2.80811C53.0957 -3.3205 53.3089 -3.78909 53.3308 -3.87083C53.5162 -3.90877 53.6636 -4.13211 53.833 -4.4372C53.9206 -4.7642 53.9367 -4.49705 53.7833 -3.92481C53.63 -3.35257 53.3511 -2.63874 53.2037 -2.4154ZM54.9129 -0.292668C54.7494 -0.336478 54.8151 -0.581724 54.9626 -0.805064C55.1101 -1.0284 55.2356 -1.17 55.3174 -1.14809C55.4809 -1.10428 55.4371 -0.940787 55.2896 -0.717447C55.1421 -0.494107 54.9947 -0.270764 54.9129 -0.292668ZM103.352 -3.43497C101.652 -8.53428 99.4642 -11.4862 96.1242 -13.0821C94.1521 -14.2239 92.3435 -15.3218 90.7042 -16.7248C89.1467 -18.106 88.9832 -18.1498 86.776 -18.7412C83.5061 -19.6174 80.9762 -19.3315 76.7819 -17.7391C67.7118 -14.2991 58.5125 -3.18335 55.3481 7.97235C54.6968 10.0759 54.4003 11.8364 54.4265 12.7196C54.4425 12.9868 54.3929 13.4992 54.2833 13.9079C54.0569 16.3881 55.1469 21.1487 56.5233 23.5327C58.0633 25.9605 59.0763 26.7577 65.2657 29.818C66.7532 30.4794 68.5239 31.392 69.1341 31.7307C71.0682 32.6871 74.2623 33.1924 76.9776 32.8686C77.6973 32.7986 78.09 32.641 78.1557 32.3957C78.2433 32.0687 78.2652 31.987 78.4448 32.2979C78.7061 32.6308 79.5892 32.6046 81.7761 31.9639C87.9659 30.1178 95.251 24.1842 100.139 16.7322C104.836 9.66708 105.775 3.87312 103.352 -3.43497ZM62.4719 9.18024C62.3683 9.24008 62.3084 9.13643 62.3522 8.97294C62.396 8.80944 62.5216 8.66785 62.6033 8.68975C62.7668 8.73356 62.8267 8.83721 62.8048 8.91896C62.761 9.08246 62.6354 9.22405 62.4719 9.18024ZM63.3246 7.3059C63.1611 7.26209 63.1013 7.15844 63.2268 7.01685C63.3524 6.87525 63.7392 7.06652 63.6735 7.31177C63.6516 7.39352 63.4881 7.34971 63.3246 7.3059ZM65.3566 8.55131C65.1931 8.5075 65.215 8.42575 65.2588 8.26225C65.3843 8.12066 65.488 8.06081 65.5697 8.08272C65.6515 8.10462 65.6296 8.18637 65.5858 8.34987C65.542 8.51336 65.4383 8.57321 65.3566 8.55131ZM94.6104 3.6853C93.6466 7.28223 91.7018 10.6163 88.0767 14.9896C84.0968 19.706 80.4353 22.58 75.9681 24.5373C74.19 25.2875 70.825 26.401 70.5798 26.3353C70.498 26.3134 70.1272 26.3893 69.6747 26.4433C69.3038 26.5192 68.317 26.6052 67.5973 26.6752C66.774 26.8051 66.1798 26.7335 66.0163 26.6897C65.7711 26.624 64.6078 23.7714 64.3861 22.3101C62.9983 15.7174 66.1056 6.73681 72.2696 -0.899002C74.2187 -3.26813 75.4305 -4.52055 77.9678 -6.4692C82.6279 -10.1271 88.1856 -12.2302 91.7067 -11.6373L92.873 -11.4123L93.4656 -10.0269C94.1939 -8.16704 94.9324 -5.69112 95.1322 -4.14807C95.2022 -3.42837 95.2722 -2.70867 95.3102 -2.52327C95.6458 -0.505761 95.5245 0.600774 94.6104 3.6853ZM94.6091 18.4047C94.4836 18.5463 94.3201 18.5025 94.1566 18.4587C94.0748 18.4368 94.0748 18.4368 94.1186 18.2733C94.2442 18.1317 94.4296 18.0938 94.5114 18.1157C94.6748 18.1595 94.6529 18.2412 94.6091 18.4047ZM95.1333 17.7566C94.9698 17.7128 94.9698 17.7128 95.0355 17.4675C95.2268 17.0807 95.5377 16.9012 95.4282 17.3099C95.3625 17.5552 95.2369 17.6967 95.1333 17.7566ZM97.5904 14.4722C97.1539 14.7933 97.2634 14.3846 97.7438 13.9C97.8912 13.6766 97.9131 13.5949 97.9292 13.862C97.8635 14.1073 97.716 14.3306 97.5904 14.4722ZM99.2184 11.6666C98.83 12.7891 98.0985 13.5569 98.0007 13.2679C97.9409 13.1642 98.0665 13.0226 98.192 12.881C98.2738 12.9029 98.4431 12.5979 98.5308 12.2709C98.6184 11.9439 98.8914 11.5789 99.2462 11.2359C99.6009 10.8929 99.6009 10.8929 99.2184 11.6666ZM100.065 10.1411C99.852 10.6097 99.7922 10.506 99.9076 9.74841C99.9573 9.23601 100.17 8.76743 100.192 8.68568C100.378 8.64774 100.525 8.4244 100.695 8.11931C100.782 7.79232 100.798 8.05947 100.645 8.63171C100.492 9.20394 100.213 9.91777 100.065 10.1411ZM101.774 12.2638C101.611 12.22 101.677 11.9748 101.824 11.7515C101.972 11.5281 102.097 11.3865 102.179 11.4084C102.342 11.4522 102.299 11.6157 102.151 11.8391C102.004 12.0624 101.856 12.2858 101.774 12.2638ZM102.6 34.477C102.578 34.5587 102.823 34.6245 103.068 34.6902C103.314 34.7559 103.417 34.696 103.439 34.6143C103.341 34.3252 102.644 34.3135 102.6 34.477ZM114.695 26.941C114.532 26.8972 114.324 27.0168 114.281 27.1803C114.215 27.4256 114.275 27.5292 114.275 27.5292C114.356 27.5511 114.542 27.5132 114.689 27.2899C115 27.1103 115.022 27.0286 114.695 26.941ZM107.334 32.5037C107.252 32.4818 107.149 32.5417 107.127 32.6234C107.083 32.7869 107.143 32.8906 107.225 32.9125C107.388 32.9563 107.492 32.8964 107.536 32.7329C107.558 32.6512 107.498 32.5475 107.334 32.5037ZM115.729 28.9702C115.565 28.9264 115.276 29.0242 115.254 29.1059C115.025 29.3074 115.27 29.3731 115.745 29.2374C116.034 29.1396 116.055 29.0578 115.729 28.9702ZM119.857 27.6231C119.737 27.4158 119.715 27.4976 119.753 27.683C119.813 27.7866 119.688 27.9282 119.524 27.8844C119.361 27.8406 119.153 27.9603 119.131 28.0421C119.066 28.2873 118.88 28.3252 118.717 28.2814C118.472 28.2157 118.204 28.2317 118.041 28.1879C117.692 28.1821 116.759 28.7207 116.797 28.9061C116.835 29.0915 118.253 29.0332 118.296 28.8697C118.34 28.7062 118.629 28.6084 119.082 28.5544C119.861 28.5881 120.342 28.1035 119.857 27.6231ZM146.289 7.45649C146.033 6.77472 145.142 4.87104 144.391 3.09291C142.358 -1.74512 140.747 -3.5788 137.102 -5.34404C135.614 -6.00547 132.039 -7.05101 130.197 -7.36941C127.597 -7.8032 126.245 -7.99017 126.142 -7.93033C126.038 -7.87049 125.607 -7.89826 125.117 -8.02968C124.686 -8.05746 123.988 -8.0692 123.58 -8.17872C123.067 -8.22839 122.844 -8.37586 122.724 -8.58316C122.708 -8.85031 122.627 -8.87222 122.152 -8.73649C121.781 -8.66062 121.699 -8.68252 121.683 -8.94967C121.608 -9.32047 120.595 -10.1176 119.434 -10.6914C118.415 -11.1397 118.333 -11.1616 117.853 -10.677C117.542 -10.4974 116.952 -9.60408 116.466 -8.77056C115.723 -7.30496 115.619 -7.24511 114.67 -6.97367C111.06 -5.92583 108.883 -4.6691 108.718 -3.39907C108.728 -2.78302 110.943 1.05212 111.351 1.16164C111.678 1.24926 111.356 2.12659 109.284 6.91609C106.933 12.4194 106.933 12.4194 105.156 16.7623C103.013 22.1459 102.947 22.3911 102.418 22.0743C102.195 21.9269 102.091 21.9867 102.07 22.0684C102.189 22.2758 100.81 22.5194 100.69 22.3121C100.63 22.2085 100.445 22.2464 100.237 22.3661C100.03 22.4858 99.763 22.5018 99.5396 22.3544C99.3761 22.3105 99.0272 22.3047 98.8199 22.4244C98.6126 22.5441 98.182 22.5163 97.7732 22.4068C96.3018 22.0125 95.9732 23.2387 97.1818 24.614C97.846 25.4052 97.8241 25.487 98.1788 25.144C98.408 24.9425 98.5715 24.9863 98.7131 25.1119C98.6693 25.2754 98.9146 25.3411 99.2854 25.2652C99.8197 25.2332 99.8197 25.2332 99.6722 25.4565C99.5247 25.6798 99.6663 25.8054 99.9116 25.8711C100.402 26.0025 100.936 25.9705 101.002 25.7252C101.024 25.6435 100.86 25.5997 100.571 25.6974C100.075 25.9149 99.7539 25.4784 100.228 25.3427C100.561 25.0814 101.618 25.715 101.552 25.9603C101.23 26.8376 99.5885 31.6549 99.2877 32.4505C99.1124 33.1045 98.981 33.595 99.1445 33.6388C99.2262 33.6607 99.1547 34.2548 98.9575 34.9905C98.7604 35.7263 98.591 36.0314 98.5531 35.846C98.4991 35.3934 98.4991 35.3934 98.2261 35.7583C98.1604 36.0036 98.0947 36.2488 98.2363 36.3744C98.3778 36.5 98.3559 36.5817 98.0888 36.5977C97.9851 36.6576 97.9632 36.7393 97.9413 36.8211C98.0829 36.9466 98.0771 37.2955 98.0493 37.7262C97.7645 38.7889 97.6988 39.0341 97.4974 38.8049C97.4375 38.7013 97.4813 38.5378 97.5251 38.3743C97.6507 38.2327 97.6128 38.0473 97.531 38.0254C97.4493 38.0035 97.1763 38.3684 97.001 39.0224C96.782 39.8399 96.8199 40.0253 97.0491 39.8239C97.2185 39.5188 97.3002 39.5407 97.2564 39.7042C97.1629 40.3801 96.5833 41.8895 96.4577 42.0311C96.2504 42.1507 96.5437 43.0179 96.789 43.0836C96.9525 43.1274 97.0561 43.0676 97.2036 42.8442C97.3511 42.6209 97.3511 42.6209 97.2634 42.9479C97.1101 43.5201 97.7203 43.8589 97.8517 43.3684C97.8955 43.2049 97.9773 43.2268 98.0152 43.4122C98.129 43.9684 99.0779 43.6969 99.0678 43.0809C99.0956 42.6503 99.4664 42.5744 99.5203 43.0269C99.5583 43.2123 99.64 43.2342 99.7276 42.9072C99.7495 42.8255 99.9787 42.624 100.06 42.646C100.142 42.6679 100.164 42.5861 100.104 42.4825C100.088 42.2153 100.088 42.2153 99.9408 42.4386C99.8372 42.4985 99.7335 42.5583 99.6737 42.4547C99.3087 42.1817 99.5598 41.8985 99.9686 42.008C100.214 42.0737 100.339 41.9321 100.323 41.665C100.389 41.4197 100.247 41.2942 100.084 41.2504C99.8986 41.2883 99.8606 41.1029 100.118 40.4708C100.397 39.757 100.402 39.4081 100.239 39.3643C100.075 39.3205 100.075 39.3205 100.408 39.0592C100.616 38.9395 101.014 38.433 101.102 38.106C101.211 37.6972 101.506 37.2506 101.921 37.0112C102.521 36.7339 102.668 36.5105 102.505 36.4667C102.281 36.3193 102.325 36.1558 102.658 35.8945C103.117 35.4916 103.063 35.0391 102.604 35.4419C102.271 35.7032 102.233 35.5178 102.425 35.131C102.447 35.0492 102.387 34.9456 102.305 34.9237C102.223 34.9018 102.333 34.493 102.442 34.0843C102.699 33.4522 102.743 33.2887 102.498 33.223C102.334 33.1792 102.356 33.0974 102.645 32.9997C102.912 32.9836 103.06 32.7603 103.126 32.515C103.169 32.3515 103.273 32.2917 103.311 32.4771C103.365 32.9296 104.298 32.3911 104.555 31.759C104.62 31.5137 104.85 31.3123 105.035 31.2744C105.199 31.3182 105.28 31.3401 105.133 31.5634C105.007 31.705 104.964 31.8685 105.127 31.9123C105.209 31.9342 105.312 31.8744 105.356 31.7109C105.444 31.3839 106.126 31.1285 106.949 30.9986C107.958 30.8308 108.121 30.8746 107.892 31.0761C107.766 31.2177 107.804 31.4031 107.886 31.425C107.946 31.5286 108.131 31.4907 108.175 31.3272C108.219 31.1637 108.345 31.0221 108.508 31.0659C108.59 31.0878 108.644 31.5403 108.299 32.4994C108.014 33.5622 108.03 33.8293 108.2 33.5242C108.429 33.3228 108.724 32.8761 108.79 32.6309C108.877 32.3039 109.15 31.9389 109.358 31.8192C109.461 31.7594 109.549 31.4324 109.615 31.1872C109.642 30.7565 110.368 30.3376 110.547 30.6486C110.787 31.0632 111.666 30.072 111.759 29.3961C111.869 28.9874 111.956 28.6604 112.12 28.7042C112.283 28.748 112.327 28.5845 112.459 28.094C112.476 27.0473 113.58 24.8898 113.841 25.2227C113.961 25.43 115.935 25.2579 116 25.0126C116.044 24.8492 116.126 24.8711 116.311 24.8331C117.641 25.1018 118.443 25.0537 119.397 24.4334C119.605 24.3137 119.872 24.2977 119.992 24.505C120.133 24.6305 120.297 24.6743 120.526 24.4729C120.733 24.3532 121.022 24.2554 121.186 24.2992C121.349 24.343 121.453 24.2832 121.437 24.0161C121.421 23.7489 121.503 23.7708 121.6 24.0599C121.698 24.3489 121.84 24.4745 121.884 24.311C121.905 24.2292 122.113 24.1095 122.276 24.1534C122.44 24.1972 122.625 24.1592 122.647 24.0775C122.669 23.9957 122.876 23.876 123.143 23.86C123.329 23.8221 123.536 23.7024 123.476 23.5987C123.416 23.4951 123.357 23.3914 123.149 23.5111C123.068 23.4892 122.986 23.4673 123.089 23.4075C123.215 23.2659 123.482 23.2498 123.787 23.4192C124.092 23.5886 124.278 23.5506 124.3 23.4689C124.343 23.3054 124.529 23.2674 124.589 23.3711C124.648 23.4747 124.894 23.5405 125.101 23.4208C125.308 23.3011 125.472 23.3449 125.45 23.4266C125.406 23.5901 125.095 23.7697 124.702 23.9273C124.354 23.9214 123.835 24.2206 123.628 24.3403C123.399 24.5418 123.05 24.5359 122.908 24.4103C122.745 24.3665 122.478 24.3826 122.248 24.584C122.041 24.7037 122.019 24.7854 122.205 24.7475C122.39 24.7096 122.45 24.8132 122.428 24.895C122.384 25.0585 122.221 25.0146 121.997 24.8672C121.774 24.7197 121.403 24.7956 121.196 24.9153C120.967 25.1167 120.596 25.1926 120.454 25.067C120.313 24.9415 120.209 25.0013 120.165 25.1648C120.143 25.2466 119.958 25.2845 119.794 25.2407C119.631 25.1969 119.424 25.3166 119.358 25.5618C119.314 25.7253 119.21 25.7852 119.151 25.6815C119.091 25.5779 118.905 25.6158 118.758 25.8391C118.632 25.9807 118.447 26.0187 118.224 25.8712C117.837 25.6799 117.755 25.658 117.831 26.0288C117.929 26.3179 117.847 26.296 117.646 26.0668C117.466 25.7558 116.91 25.8696 116.778 26.3601C116.735 26.5236 116.364 26.5995 115.993 26.6754C115.704 26.7732 115.497 26.8929 115.475 26.9746C115.556 26.9965 115.905 27.0024 116.358 26.9484C117.203 26.7368 117.285 26.7587 117.219 27.004C117.197 27.0857 116.701 27.3032 116.167 27.3352C115.529 27.4272 115.032 27.6446 114.988 27.8081C114.901 28.1351 114.983 28.157 115.642 27.9834C116.013 27.9075 116.548 27.8754 116.711 27.9192C116.875 27.963 117.431 27.8492 117.823 27.6916C118.194 27.6157 118.587 27.4581 118.669 27.48C118.669 27.48 119.04 27.4041 119.388 27.41C119.759 27.3341 120.212 27.2801 120.375 27.3239C120.457 27.3458 120.931 27.2101 121.346 26.9707C121.821 26.835 122.191 26.7591 122.251 26.8628C122.251 26.8628 122.415 26.9066 122.622 26.7869C122.829 26.6672 123.015 26.6293 122.993 26.711C122.949 26.8745 123.134 26.8366 123.282 26.6132C123.511 26.4118 123.511 26.4118 123.445 26.657C123.194 26.9402 121.46 27.5269 121.34 27.3196C121.199 27.1941 120.326 27.8363 120.26 28.0816C120.194 28.3268 120.603 28.4363 120.914 28.2568C121.099 28.2189 122.13 27.9693 123.368 27.6001C124.458 27.4542 125.778 27.1069 126.089 26.9273C126.378 26.8296 126.771 26.6719 126.853 26.6938C126.934 26.7157 128.358 26.3086 130.092 25.7219C135.955 23.7881 140.324 21.5418 143.178 19.0647C143.992 18.3188 144.701 17.6328 144.827 17.4912C144.974 17.2679 145.247 16.9029 145.417 16.5978C145.668 16.3146 146.154 15.4811 146.411 14.849C147.477 12.5061 147.436 10.0419 146.289 7.45649ZM99.6029 33.2359C99.4993 33.2957 99.4394 33.1921 99.5051 32.9468C99.5709 32.7016 99.6745 32.6417 99.6905 32.9089C99.7504 33.0125 99.6847 33.2578 99.6029 33.2359ZM99.9459 33.5907C99.8423 33.6505 99.8044 33.4651 99.8482 33.3016C99.9358 32.9746 100.018 32.9965 100.055 33.1819C100.093 33.3673 100.05 33.5308 99.9459 33.5907ZM100.846 37.4242C100.846 37.4242 100.705 37.2987 100.749 37.1352C100.689 37.0315 100.733 36.868 100.896 36.9118C100.978 36.9337 101.097 37.141 101.076 37.2228C101.032 37.3863 100.928 37.4461 100.846 37.4242ZM102.108 35.6594C102.168 35.7631 102.227 35.8667 102.206 35.9485C102.206 35.9485 102.124 35.9266 102.042 35.9047C101.96 35.8828 101.9 35.7791 101.922 35.6974C101.944 35.6156 102.048 35.5558 102.108 35.6594ZM101.66 36.6783C101.697 36.8637 101.735 37.0491 101.654 37.0272C101.528 37.1688 101.349 36.8579 101.414 36.6126C101.458 36.4491 101.622 36.4929 101.66 36.6783ZM109.667 19.548C109.541 19.6896 109.585 19.5261 109.651 19.2808C109.738 18.9538 109.76 18.8721 109.82 18.9757C109.858 19.1611 109.77 19.4881 109.667 19.548ZM107.331 30.2249C107.004 30.1373 106.923 30.1154 106.923 30.1154C106.945 30.0337 107.048 29.9738 107.419 29.8979C107.605 29.86 107.85 29.9257 107.828 30.0075C107.806 30.0892 107.517 30.187 107.331 30.2249ZM108.583 27.8441C108.375 27.9638 108.419 27.8003 108.485 27.555C108.573 27.228 108.594 27.1463 108.736 27.2718C108.692 27.4353 108.627 27.6806 108.583 27.8441ZM110.845 19.0751C110.763 19.0532 110.681 19.0313 110.725 18.8678C110.665 18.7641 110.709 18.6006 110.873 18.6445C110.954 18.6664 110.992 18.8518 110.97 18.9335C110.927 19.097 110.927 19.097 110.845 19.0751ZM112.842 17.5074C112.306 18.8533 111.776 19.8503 111.613 19.8065C111.613 19.8065 111.427 19.8445 111.1 19.7569C110.751 19.751 110.751 19.751 111.291 19.37C111.602 19.1905 111.875 18.8256 111.919 18.6621C112.029 18.2533 112.029 18.2533 111.756 18.6183C111.505 18.9014 111.505 18.9014 111.57 18.6562C111.614 18.4927 111.762 18.2694 111.865 18.2095C111.969 18.1497 112.094 18.0081 112.116 17.9263C112.138 17.8446 112.078 17.7409 111.975 17.8008C111.789 17.8387 111.915 17.6971 112.166 17.4139C112.75 16.8695 113.077 16.9571 112.842 17.5074ZM113.165 16.6301C112.914 16.9133 112.876 16.7279 113.029 16.1556C113.16 15.6652 113.411 15.382 113.493 15.4039C113.575 15.4258 113.695 15.6331 113.607 15.9601C113.541 16.2053 113.29 16.4885 113.165 16.6301ZM114.001 14.4886C113.87 14.9791 113.619 15.2623 113.455 15.2185C113.455 15.2185 113.395 15.1148 113.521 14.9732C113.963 14.3032 114.292 13.077 114.091 12.8478C113.927 12.804 114.031 12.7441 114.276 12.8098C114.707 12.8376 114.575 13.3281 114.001 14.4886ZM115.264 11.4099C115.111 11.9822 114.816 12.4289 114.609 12.5486C114.483 12.6901 114.483 12.6901 114.631 12.4668C114.674 12.3033 114.74 12.0581 114.702 11.8727C114.501 11.6435 114.545 11.48 114.79 11.5457C114.872 11.5676 114.953 11.5895 114.894 11.4858C114.834 11.3822 115.003 11.0771 115.254 10.7939C115.691 10.4728 115.669 10.5545 115.264 11.4099ZM116.227 9.12686C116.161 9.37211 116.057 9.43195 116.019 9.24655C116.063 9.08305 116.151 8.75606 116.031 8.54875C116.037 8.19986 116.141 8.14001 116.238 8.42907C116.38 8.55463 116.374 8.90352 116.227 9.12686ZM116.719 7.94445C116.593 8.08604 116.615 8.00429 116.703 7.6773C116.768 7.43205 116.79 7.35031 116.85 7.45396C116.888 7.63936 116.822 7.8846 116.719 7.94445ZM117.249 6.94743C117.167 6.92553 117.107 6.82188 117.129 6.74013C117.173 6.57663 117.254 6.59854 117.336 6.62044C117.456 6.82775 117.516 6.9314 117.494 7.01315C117.494 7.01315 117.412 6.99124 117.249 6.94743ZM121.756 25.7664C121.593 25.7226 121.533 25.619 121.599 25.3737C121.643 25.2102 121.746 25.1504 121.888 25.2759C121.948 25.3796 121.986 25.565 121.964 25.6467C121.92 25.8102 121.838 25.7883 121.756 25.7664ZM124.049 0.533553C124.256 0.413863 124.316 0.517514 124.458 0.643075C124.458 0.643075 124.354 0.702918 124.191 0.659109C123.945 0.593396 123.886 0.489744 124.049 0.533553ZM118.105 10.9445C118.209 10.8847 118.334 10.7431 118.334 10.7431C118.416 10.765 118.454 10.9504 118.432 11.0321C118.388 11.1956 118.203 11.2336 118.121 11.2117C117.958 11.1678 117.98 11.0861 118.105 10.9445ZM118.077 11.3752C118.159 11.3971 118.219 11.5007 118.115 11.5606C118.072 11.724 117.968 11.7839 117.886 11.762C117.804 11.7401 117.826 11.6583 117.87 11.4948C117.892 11.4131 117.996 11.3532 118.077 11.3752ZM115.727 16.8785C115.77 16.715 116 16.5136 116 16.5136C116 16.5136 116.016 16.7807 115.972 16.9442C115.906 17.1894 115.781 17.331 115.617 17.2872C115.535 17.2653 115.579 17.1018 115.727 16.8785ZM114.972 19.0419C114.868 19.1017 114.748 18.8944 114.792 18.7309C114.88 18.4039 115.087 18.2842 115.213 18.1426C115.294 18.1646 115.354 18.2682 115.289 18.5135C115.223 18.7587 115.075 18.982 114.972 19.0419ZM113.891 24.7103C113.787 24.7701 113.646 24.6446 113.668 24.5628C113.69 24.4811 113.897 24.3614 114 24.3015C114.104 24.2417 114.164 24.3454 114.142 24.4271C114.12 24.5088 113.995 24.6504 113.891 24.7103ZM117.388 13.2933C117.203 13.3312 117.143 13.2276 117.165 13.1458C117.187 13.0641 117.312 12.9225 117.498 12.8846C117.601 12.8247 117.661 12.9284 117.639 13.0101C117.617 13.0919 117.492 13.2335 117.388 13.2933ZM115.472 24.6958C115.287 24.7338 115.145 24.6082 115.308 24.652C115.434 24.5104 115.396 24.325 115.276 24.1177C115.179 23.8287 115.179 23.8287 115.342 23.8725C115.38 24.0579 115.565 24.0199 115.751 23.982C116.062 23.8025 116.04 23.8842 115.952 24.2112C115.887 24.4564 115.739 24.6798 115.472 24.6958ZM124.907 26.4353C124.781 26.5769 124.699 26.555 124.639 26.4513C124.498 26.3258 124.454 26.4893 124.247 26.6089C124.203 26.7724 124.018 26.8104 123.854 26.7666C123.691 26.7228 123.794 26.6629 124.023 26.4615C124.542 26.1623 125.239 26.174 124.907 26.4353ZM125.843 23.269C125.886 23.1055 126.176 23.0077 126.361 22.9698C126.628 22.9538 126.977 22.9596 127.162 22.9217C127.266 22.8618 127.14 23.0034 126.644 23.2209C125.57 23.6339 125.57 23.6339 125.843 23.269ZM126.597 26.0121C126.472 26.1537 126.39 26.1318 126.39 26.1318C126.308 26.1099 126.226 26.088 126.27 25.9245C126.21 25.8208 126.292 25.8427 126.456 25.8865C126.619 25.9303 126.701 25.9522 126.597 26.0121ZM127.762 22.6444C127.932 22.3393 128.199 22.3232 128.362 22.367C128.608 22.4328 128.667 22.5364 128.564 22.5963C128.542 22.678 128.253 22.7758 128.046 22.8955C127.675 22.9714 127.593 22.9495 127.762 22.6444ZM128.31 25.5071C128.168 25.3816 127.797 25.4574 127.464 25.7187C127.213 26.0019 126.924 26.0997 126.946 26.0179C126.99 25.8545 127.323 25.5932 127.634 25.4136C128.13 25.1962 128.315 25.1582 128.331 25.4254C128.369 25.6108 128.288 25.5889 128.31 25.5071ZM129.387 22.4664C129.224 22.4226 129.164 22.3189 129.208 22.1554C129.251 21.9919 129.377 21.8504 129.541 21.8942C129.622 21.9161 129.764 22.0416 129.72 22.2051C129.698 22.2869 129.513 22.3248 129.387 22.4664ZM141.023 6.83415C140.75 7.19908 140.499 7.48227 140.477 7.56401C140.455 7.64576 140.204 7.92895 139.953 8.21213C136.814 11.7519 129.985 15.0038 119.858 17.8102C115.588 19.0317 115.833 19.0974 116.692 16.8742C117.118 15.937 117.779 14.4495 118.08 13.6539C118.441 12.962 119.786 9.90525 121.027 6.90834C122.349 3.93333 123.459 1.42691 123.459 1.42691C123.563 1.36707 127.526 1.29004 128.12 1.36162C132.917 1.77079 136.722 2.61489 139.228 3.72457C141.958 4.98171 142.115 5.37442 141.023 6.83415ZM109.382 34.0163C109.257 34.1579 109.131 34.2995 109.065 34.5447C109 34.7899 109.038 34.9753 109.163 34.8338C109.327 34.8776 109.496 34.5725 109.54 34.409C109.606 34.1637 109.546 34.0601 109.382 34.0163ZM107.789 34.7285C107.959 34.4234 107.981 34.3417 107.648 34.603C107.462 34.6409 107.227 35.1912 107.096 35.6817C106.861 36.2321 106.937 36.6029 107.04 36.543C107.144 36.4832 107.329 36.4452 107.373 36.2817C107.417 36.1183 107.565 35.8949 107.646 35.9168C107.75 35.857 107.794 35.6935 107.696 35.4044C107.658 35.219 107.664 34.8701 107.789 34.7285ZM110.306 31.5478C110.225 31.5259 110.017 31.6456 109.93 31.9726C109.886 32.1361 110.006 32.3434 110.109 32.2835C110.213 32.2237 110.339 32.0821 110.382 31.9186C110.426 31.7551 110.388 31.5697 110.306 31.5478ZM109.633 33.7331C109.737 33.6732 109.781 33.5097 109.743 33.3243C109.705 33.1389 109.623 33.117 109.536 33.444C109.492 33.6075 109.53 33.7929 109.633 33.7331ZM110.416 31.139C110.394 31.2208 110.454 31.3245 110.536 31.3464C110.617 31.3683 110.699 31.3902 110.699 31.3902C110.721 31.3084 110.661 31.2048 110.601 31.1011C110.542 30.9975 110.438 31.0573 110.416 31.139ZM113.854 28.1175C113.521 28.3788 113.521 28.3788 113.609 28.0518C113.675 27.8066 113.675 27.8066 113.445 28.008C113.238 28.1277 113.113 28.2693 113.091 28.351C113.069 28.4328 113.129 28.5364 113.21 28.5583C113.456 28.624 113.974 28.3248 114.04 28.0796C114.083 27.9161 113.98 27.9759 113.854 28.1175ZM98.778 34.6796C98.8816 34.6197 98.9693 34.2927 98.9094 34.1891C98.8715 34.0037 98.8277 34.1672 98.762 34.4124C98.6743 34.7394 98.6524 34.8212 98.778 34.6796ZM102.966 33.4362C102.841 33.5778 102.96 33.7851 103.184 33.9325C103.407 34.08 103.571 34.1238 103.571 34.1238C103.571 34.1238 103.614 33.9603 103.598 33.6932C103.626 33.2625 103.239 33.0712 102.966 33.4362ZM101.614 38.1557C101.51 38.2155 101.385 38.3571 101.363 38.4389C101.341 38.5206 101.401 38.6243 101.505 38.5644C101.69 38.5265 101.816 38.3849 101.837 38.3031C101.859 38.2214 101.8 38.1177 101.614 38.1557ZM101.138 39.6052C101.138 39.6052 100.931 39.7249 100.909 39.8067C100.783 39.9483 100.761 40.03 100.925 40.0738C101.007 40.0957 101.11 40.0359 101.154 39.8724C101.176 39.7906 101.22 39.6271 101.138 39.6052ZM100.718 40.1935C100.636 40.1716 100.57 40.4168 100.526 40.5803C100.461 40.8256 100.417 40.9891 100.499 41.011C100.58 41.0329 100.706 40.8913 100.772 40.6461C100.815 40.4826 100.799 40.2154 100.718 40.1935ZM193.161 10.1151C192.056 8.67997 191.974 8.65806 191.516 9.06093C191.265 9.34412 191.161 9.40396 191.271 8.99522C191.211 8.89157 191.195 8.62442 191.031 8.58061C190.928 8.64045 190.912 8.37331 190.999 8.04631C191.049 7.53391 190.967 7.51201 190.618 7.50615C190.247 7.58202 190.106 7.45647 190.03 7.08566C189.812 6.5893 188.147 4.30308 187.716 4.27531C187.553 4.2315 187.411 4.10594 187.455 3.94244C187.319 3.46799 186.299 4.33358 185.081 5.93489C184.328 6.78445 183.886 7.45447 183.864 7.53622C183.782 7.51431 182.986 7.21352 182.213 6.83098C176.633 4.10939 169.35 3.82264 162.806 6.01181C159.026 7.36475 153.784 10.2533 151.404 12.5946C150.007 13.885 149.69 14.4134 149.258 15.6995C148.847 16.9038 149.163 17.6892 150.974 21.066C151.79 22.5988 152.823 24.6281 153.28 25.5391C154.531 28.0647 155.217 28.7742 158.589 30.9044C160.844 32.2972 162.533 33.1879 165.917 34.6203C168.015 35.6204 170.695 37.39 170.869 38.0498C171.238 39.2878 168.797 42.8393 166.112 45.0113C164.404 46.4812 161.294 48.2765 158.878 49.1186C157.062 49.6834 154.526 50.3182 153.561 50.3225C153.272 50.4203 152.574 50.4086 152.04 50.4406C151.484 50.5545 150.704 50.5208 150.497 50.6405C149.347 50.6827 145.232 50.0182 143.946 49.5859C142.638 49.2355 142.436 49.0063 141.098 46.8077L140.439 45.6675L139.981 46.0703C139.293 46.6747 139.276 47.7213 139.792 48.736C140.01 49.2323 140.848 50.6835 141.544 52.009C142.426 53.2967 143.361 55.0369 143.84 55.8661C144.775 57.6063 145.505 58.1523 147.974 59.0766C148.71 59.2737 150.53 59.6739 152.045 59.9047C156.019 60.4437 158.69 60.2833 162.552 58.9523C169.2 56.7033 175.498 50.8558 176.152 46.1245C176.455 44.0151 175.836 41.7465 174.025 38.3698C173.628 37.5625 172.872 36.1332 172.437 35.1405C171.11 32.2441 167.61 27.9767 166.34 27.8117C166.176 27.7679 165.953 27.6204 165.975 27.5387C165.981 27.1898 164.537 26.3648 161.339 24.8945C158.75 23.7629 156.005 22.2386 156.048 22.0751C156.142 21.3992 161.025 17.8888 163.736 16.6C166.262 15.3491 167.314 15.0179 169.457 14.5407C172.364 13.83 174.954 13.6477 177.167 13.8903C177.598 13.918 178.05 13.8641 178.094 13.7006C178.094 13.7006 178.257 13.7444 178.481 13.8918C178.644 13.9356 179.031 14.1269 179.358 14.2145C179.789 14.2423 179.843 14.6949 179.406 15.016C179.302 15.0758 178.898 15.9312 178.472 16.8684C178.083 17.991 177.657 18.9282 177.488 19.2332C177.318 19.5383 176.979 20.1485 176.892 20.4755C176.557 22.0506 176.338 22.8681 176.442 22.8083C176.568 22.6667 176.829 22.9995 177.172 23.3543C177.515 23.7091 177.858 24.0638 178.021 24.1076C178.103 24.1295 178.245 24.2551 178.327 24.277C178.343 24.5442 180.026 25.7837 180.434 25.8932C180.516 25.9151 180.821 26.0845 180.985 26.1283C181.268 26.3794 181.683 26.14 182.109 25.2029L182.573 24.4511L182.294 25.1649C181.599 27.432 181.675 27.8028 182.281 27.1766C182.636 26.8335 182.636 26.8335 182.536 27.8583C182.487 28.3707 183.015 28.6875 183.065 28.1751C183.196 27.6847 183.643 27.9796 183.571 28.5737C183.56 29.2715 183.56 29.2715 183.914 28.9285C184.291 28.5037 185.04 26.6892 184.942 26.4002C184.882 26.2965 184.926 26.133 185.09 26.1768C185.09 26.1768 185.849 24.9784 186.592 23.5128C187.636 21.2516 190.952 15.744 192.994 12.6989C193.901 11.2772 193.907 10.9283 193.161 10.1151ZM158.847 15.5529C158.7 15.7762 158.493 15.8959 158.411 15.874C158.329 15.8521 158.455 15.7105 158.847 15.5529C159.18 15.2916 159.18 15.2916 158.847 15.5529ZM183.316 22.9855C182.95 24.0263 182.743 24.146 182.459 23.8949C182.138 23.4584 182.204 23.2131 182.591 23.4044C182.732 23.53 182.94 23.4103 182.902 23.2249C182.946 23.0614 183.137 22.6745 183.262 22.5329C183.492 22.3315 183.47 22.4133 183.316 22.9855ZM184.043 21.2527C183.852 21.6396 183.852 21.6396 183.88 21.2089C183.946 20.9637 184.011 20.7184 184.219 20.5988C184.241 20.517 184.404 20.5608 184.382 20.6426C184.338 20.8061 184.191 21.0294 184.043 21.2527ZM184.934 19.5638C184.683 19.847 184.683 19.847 184.771 19.52C184.814 19.3565 184.962 19.1332 185.028 18.8879C185.257 18.6865 185.339 18.7084 185.295 18.8719C185.229 19.1171 185.141 19.4441 184.934 19.5638ZM193.084 11.0581C193.002 11.0362 192.942 10.9326 193.008 10.6873C193.215 10.5676 193.259 10.4041 193.341 10.426C193.341 10.426 193.378 10.6114 193.335 10.7749C193.351 11.0421 193.247 11.1019 193.084 11.0581ZM213.547 6.64054C213.487 6.53689 212.774 6.258 212.163 5.91927C211.123 5.55276 210.855 5.5688 210.626 5.77024C210.457 6.07532 209.906 5.84025 209.711 5.26214C209.553 4.86943 209.472 4.84753 209.161 5.02706C208.85 5.20659 208.708 5.08104 208.201 4.68246C207.777 4.30579 207.085 3.94515 206.022 3.6604L204.469 3.24421L203.769 4.54632C203.409 5.23824 202.666 6.70384 202.092 7.86435C201.682 9.06867 200.725 11.0029 200.189 12.3488C198.697 15.6289 196.253 21.8081 192.856 30.8864C192.402 32.2543 191.845 33.6819 191.735 34.0907C189.072 41.0874 185.702 51.0489 185.903 51.2781C186.023 51.4854 186.104 51.5073 186.126 51.4256C186.17 51.2621 186.208 51.4475 186.41 51.6767C186.545 52.1512 186.709 52.195 187.69 52.4578C188.344 52.6331 189.042 52.6448 189.39 52.6507C189.783 52.493 189.925 52.6186 189.733 53.0054C189.608 53.147 189.712 53.0872 189.897 53.0492C190.208 52.8697 190.23 52.788 190.05 52.477C189.953 52.1879 189.996 52.0244 190.662 51.5019C191.099 51.1808 191.595 50.9633 191.677 50.9852C191.758 51.0071 191.737 51.0888 191.655 51.0669C191.469 51.1049 191.344 51.2465 191.404 51.3501C191.382 51.4319 191.338 51.5954 191.174 51.5516C191.093 51.5297 190.989 51.5895 191.005 51.8567C191.065 51.9603 190.977 52.2873 190.77 52.407C190.459 52.5865 190.519 52.6902 190.824 52.8595C191.412 53.28 191.723 53.1005 191.866 51.9122C192.042 51.2582 192.211 50.9531 192.293 50.975C192.598 51.1444 193.096 49.6131 192.878 49.1167C192.84 48.9313 192.862 48.8496 192.944 48.8715C193.107 48.9153 193.233 48.7737 193.321 48.4467C193.386 48.2015 193.665 47.4876 193.982 46.9592C194.239 46.3271 194.414 45.6731 194.414 45.6731C194.376 45.4877 194.48 45.4279 194.665 45.3899C195.014 45.3958 195.08 45.1506 195.233 44.5783C195.261 44.1477 195.431 43.8426 195.556 43.701C195.741 43.6631 195.763 43.5813 195.666 43.2923C195.508 42.8996 195.612 42.8397 196.02 42.9492C196.102 42.9711 196.184 42.993 196.228 42.8296C196.271 42.6661 196.19 42.6442 196.026 42.6003C195.944 42.5784 195.928 42.3113 196.136 42.1916C196.223 41.8646 196.409 41.8267 196.409 41.8267C196.572 41.8705 196.704 41.38 196.813 40.9712C197.048 40.4209 197.393 39.4618 197.694 38.6663C197.994 37.8707 198.339 36.9116 198.449 36.5029C198.58 36.0124 198.749 35.7073 198.749 35.7073C199.076 35.7949 198.939 36.6343 198.475 37.3861C198.262 37.8546 197.808 39.2225 197.375 40.5085C197.025 41.8165 196.533 42.9989 196.511 43.0807C196.407 43.1405 196.32 43.4675 196.358 43.6529C196.395 43.8383 196.248 44.0616 196.041 44.1813C195.811 44.3828 195.849 44.5682 196.051 44.7974C196.334 45.0485 196.334 45.0485 195.985 45.0426C195.74 44.9769 195.696 45.1404 195.28 46.6936C194.808 49.1081 194.846 49.2935 195.032 49.2556C195.195 49.2994 195.233 49.4848 195.167 49.73C195.102 49.9753 194.97 50.4658 194.986 50.7329C194.98 51.0818 194.849 51.5723 194.598 51.8555C194.51 52.1825 194.444 52.4277 194.504 52.5314C194.564 52.635 194.498 52.8803 194.225 53.2452C193.783 53.9152 193.881 54.2043 194.377 53.9868C194.792 53.7475 195.382 52.8541 195.011 52.93C194.929 52.9081 194.847 52.8862 194.891 52.7227C194.913 52.6409 195.017 52.5811 195.098 52.603C195.18 52.6249 195.371 52.238 195.399 51.8074C195.509 51.3987 195.722 50.9301 195.826 50.8702C196.158 50.6089 196.465 49.4645 196.176 49.5623C195.969 49.6819 196.056 49.355 196.433 48.9302C196.58 48.7068 196.772 48.32 196.859 47.993C197.029 47.6879 197.242 47.2193 197.411 46.9142C197.559 46.6909 197.903 45.7318 198.226 44.8545C198.549 43.9772 198.849 43.1816 198.953 43.1218C198.997 42.9583 198.997 42.9583 198.833 42.9144C198.67 42.8706 198.714 42.7071 198.921 42.5875C199.15 42.386 199.342 41.9992 200.009 40.1628C200.053 39.9993 200.26 39.8796 200.342 39.9015C200.423 39.9234 200.483 40.0271 200.38 40.0869C200.358 40.1686 199.953 41.0241 199.69 42.005C199.286 42.8605 198.788 44.3918 198.465 45.2691C198.165 46.0647 197.673 47.2471 197.475 47.9828C197.103 49.3726 196.671 50.6586 196.157 51.9228C195.796 52.6147 195.752 52.7782 196.02 52.7622C196.205 52.7242 196.478 52.3593 196.631 51.7871C196.741 51.3783 196.976 50.828 197.123 50.6047C197.249 50.4631 197.337 50.1361 197.38 49.9726C197.402 49.8908 197.556 49.3186 197.747 48.9317C197.96 48.4632 198.386 47.526 198.583 46.7903C198.862 46.0764 199.956 43.3029 201.028 40.611C202.121 37.8375 203.171 35.2274 203.281 34.8186C203.817 33.4727 206.299 27.4789 206.96 25.9914C207.687 24.2587 210.022 18.4882 210.498 17.0386C212.429 12.1235 213.846 7.1588 213.547 6.64054ZM193.172 45.0774C193.363 44.6906 193.423 44.7942 193.248 45.4482C193.138 45.857 192.947 46.2438 192.784 46.2C192.62 46.1562 192.795 45.5022 193.172 45.0774ZM191.23 50.6903C191.023 50.81 191.045 50.7282 191.236 50.3414C191.383 50.118 191.487 50.0582 191.525 50.2436C191.481 50.4071 191.437 50.5706 191.23 50.6903ZM191.995 49.1429C191.477 49.4421 191.477 49.4421 191.668 49.0553C191.875 48.9356 191.985 48.5269 192.051 48.2816C192.138 47.9546 192.22 47.9765 192.236 48.2437C192.274 48.4291 192.312 48.6145 192.372 48.7182C192.432 48.8218 192.306 48.9634 191.995 49.1429ZM199.001 35.4241C199.072 34.83 199.46 33.7074 199.542 33.7293C199.624 33.7512 199.875 33.468 199.985 33.0593C200.154 32.7542 200.066 33.0812 199.744 33.9585C199.371 35.3482 199.011 36.0401 199.001 35.4241ZM196.392 46.466C196.229 46.4222 196.169 46.3185 196.213 46.155C196.257 45.9915 196.338 46.0134 196.48 46.139C196.54 46.2426 196.6 46.3463 196.578 46.428C196.578 46.428 196.474 46.4879 196.392 46.466ZM196.808 44.9128C196.623 44.9507 196.563 44.8471 196.585 44.7653C196.629 44.6018 196.755 44.4602 196.918 44.504C197.022 44.4442 197.103 44.4661 197.082 44.5478C197.038 44.7113 196.912 44.8529 196.808 44.9128ZM200.81 31.6156L200.515 32.0623L200.483 31.528C200.494 30.8302 200.997 30.2638 201.029 30.7981C201.045 31.0652 200.957 31.3922 200.81 31.6156ZM201.756 29.0653C201.499 29.6974 201.264 30.2478 201.16 30.3076C200.953 30.4273 201.642 28.5091 201.893 28.226C202.062 27.9209 202.057 28.2698 201.756 29.0653ZM200.304 39.7161C200.14 39.6723 200.485 38.7132 200.796 38.5337C200.796 38.5337 200.834 38.7191 200.724 39.1278C200.637 39.4548 200.467 39.7599 200.304 39.7161ZM200.987 38.1468C200.905 38.1249 200.867 37.9395 200.971 37.8797C201.097 37.7381 201.2 37.6783 201.282 37.7002C201.282 37.7002 201.342 37.8038 201.298 37.9673C201.276 38.0491 201.151 38.1907 200.987 38.1468ZM201.67 36.5776C201.381 36.6754 201.535 36.1031 201.933 35.5966C202.206 35.2317 202.184 35.3134 202.053 35.8039C202.025 36.2346 201.774 36.5177 201.67 36.5776ZM202.457 34.9485C202.354 35.0083 202.168 35.0463 202.005 35.0025C201.76 34.9368 201.885 34.7952 202.234 34.801C202.419 34.7631 202.583 34.8069 202.457 34.9485ZM194.304 50.9883C194.386 51.0102 194.512 50.8687 194.577 50.6234C194.643 50.3782 194.605 50.1928 194.523 50.1709C194.442 50.149 194.316 50.2905 194.25 50.5358C194.185 50.781 194.223 50.9664 194.304 50.9883ZM192.011 62.8156C191.848 62.7718 191.625 62.6244 191.565 62.5207C191.527 62.3353 190.976 62.1002 190.426 61.8652C189.527 61.6242 189.423 61.6841 189.358 61.9293C189.248 62.338 189.166 62.3161 188.823 61.9614C188.622 61.7322 188.339 61.481 188.279 61.3774C188.323 61.2139 187.914 61.1044 187.543 61.1803C187.134 61.0707 186.889 61.005 186.911 60.9233C186.977 60.678 185.206 59.7655 183.778 59.2077C182.797 58.9449 182.47 58.8572 182.138 59.1185C181.701 59.4396 180.788 61.2103 179.613 63.962C179.187 64.8992 178.481 66.5502 178.033 67.5691C177.284 69.3836 177.262 69.4653 177.561 69.9836C177.861 70.5019 178.188 70.5895 180.967 71.3342C183.398 72.0731 184.155 72.1885 184.303 71.9652C184.739 71.644 185.224 72.1244 184.951 72.4893C184.803 72.7126 184.863 72.8163 185.049 72.7783C185.234 72.7404 185.338 72.6806 185.382 72.5171C185.409 72.0864 185.878 72.2996 185.91 72.8339C185.882 73.2645 186.819 73.6909 186.847 73.2602C186.891 73.0967 187.017 72.9551 187.098 72.9771C187.262 73.0209 187.218 73.1844 187.152 73.4296C186.939 73.8982 187.348 74.0077 187.724 73.5829C187.872 73.3596 188.593 71.9757 189.336 70.5101C189.998 69.0226 190.998 66.925 191.588 66.0316C192.566 64.0157 192.687 62.9091 192.011 62.8156ZM186.871 66.9582C186.686 66.9961 186.626 66.8925 186.648 66.8107C186.67 66.729 186.795 66.5874 186.981 66.5494C187.084 66.4896 187.144 66.5932 187.122 66.675C187.1 66.7567 186.975 66.8983 186.871 66.9582ZM191.738 63.1806C191.493 63.1149 191.411 63.093 191.597 63.055C191.782 63.0171 191.946 63.0609 192.006 63.1645C192.065 63.2682 191.962 63.328 191.738 63.1806ZM193.266 52.9006C193.364 53.1897 193.298 53.4349 193.195 53.4948C193.091 53.5546 193.069 53.6364 193.233 53.6802C193.396 53.724 193.565 53.4189 193.631 53.1736C193.719 52.8466 193.85 52.3562 193.998 52.1328C194.145 51.9095 194.151 51.5606 194.009 51.435C193.928 51.4131 193.846 51.3912 193.988 51.5168C193.966 51.5985 193.9 51.8438 193.671 52.0452C193.234 52.3663 193.168 52.6116 193.266 52.9006Z" fill="#DCDCDC"/>
</svg>
