<svg width="72" height="72" fill="none" xmlns="http://www.w3.org/2000/svg"><path fill-rule="evenodd" clip-rule="evenodd" d="M72 29.25h-7.65c-.9-3.15-1.8-5.85-3.6-8.55l5.4-5.4-9.45-9.45-5.4 5.4c-2.7-1.8-5.4-2.7-8.55-3.6V0h-13.5v7.65c-3.15.45-5.85 1.8-8.55 3.6l-5.4-5.4-9.45 9.45 5.4 5.4c-1.8 2.7-3.15 5.4-3.6 8.55H0v13.5h7.65c.9 3.15 1.8 5.85 3.6 8.55l-5.4 5.4 9.45 9.45 5.4-5.4c2.7 1.8 5.4 2.7 8.55 3.6V72h13.5v-7.65c3.15-.9 5.85-1.8 8.55-3.6l5.4 5.4 9.45-9.45-5.4-5.4c1.8-2.7 2.7-5.4 3.6-8.55H72v-13.5zM46.91 50H26.422v-4.043l9.96-9.316c3.634-3.399 4.395-4.785 4.395-6.739v-.039c-.02-2.304-1.777-3.945-4.277-3.945-2.89 0-4.844 1.895-4.922 4.434l-.02.175H26.09v-.156c0-5.312 4.414-9.043 10.37-9.043 5.958 0 10.06 3.399 10.06 8.203v.04c0 3.417-1.622 5.644-6.485 10.116l-5.898 5.391v.234H46.91V50z" fill="#EB4545"/></svg>