<svg width="72" height="72" fill="none" xmlns="http://www.w3.org/2000/svg"><path fill-rule="evenodd" clip-rule="evenodd" d="M72 29.25h-7.65c-.9-3.15-1.8-5.85-3.6-8.55l5.4-5.4-9.45-9.45-5.4 5.4c-2.7-1.8-5.4-2.7-8.55-3.6V0h-13.5v7.65c-3.15.45-5.85 1.8-8.55 3.6l-5.4-5.4-9.45 9.45 5.4 5.4c-1.8 2.7-3.15 5.4-3.6 8.55H0v13.5h7.65c.9 3.15 1.8 5.85 3.6 8.55l-5.4 5.4 9.45 9.45 5.4-5.4c2.7 1.8 5.4 2.7 8.55 3.6V72h13.5v-7.65c3.15-.9 5.85-1.8 8.55-3.6l5.4 5.4 9.45-9.45-5.4-5.4c1.8-2.7 2.7-5.4 3.6-8.55H72v-13.5zM40.883 50h-5.84V27.227h-.117l-7.188 4.882v-5.234l7.285-5.059h5.86V50z" fill="#EB4545"/></svg>