<svg width="72" height="72" fill="none" xmlns="http://www.w3.org/2000/svg"><path fill-rule="evenodd" clip-rule="evenodd" d="M72 29.25h-7.65c-.9-3.15-1.8-5.85-3.6-8.55l5.4-5.4-9.45-9.45-5.4 5.4c-2.7-1.8-5.4-2.7-8.55-3.6V0h-13.5v7.65c-3.15.45-5.85 1.8-8.55 3.6l-5.4-5.4-9.45 9.45 5.4 5.4c-1.8 2.7-3.15 5.4-3.6 8.55H0v13.5h7.65c.9 3.15 1.8 5.85 3.6 8.55l-5.4 5.4 9.45 9.45 5.4-5.4c2.7 1.8 5.4 2.7 8.55 3.6V72h13.5v-7.65c3.15-.9 5.85-1.8 8.55-3.6l5.4 5.4 9.45-9.45-5.4-5.4c1.8-2.7 2.7-5.4 3.6-8.55H72v-13.5zM46.71 40.586c0 5.898-4.452 9.902-10.898 9.902-6.132 0-10.195-3.574-10.546-8.281l-.02-.293h5.45l.038.137c.41 2.129 2.383 3.77 5.098 3.77 3.086 0 5.254-2.11 5.254-5.118v-.039c-.02-2.969-2.188-5.059-5.234-5.059-1.446 0-2.676.43-3.633 1.192a5.127 5.127 0 00-1.348 1.562h-5.137l1.29-16.543h17.988v4.688H31.71l-.684 7.93h.117c1.172-1.895 3.497-3.047 6.348-3.047 5.352 0 9.219 3.847 9.219 9.16v.039z" fill="#EB4545"/></svg>