<svg width="48" height="48" viewBox="0 0 48 48" fill="none" xmlns="http://www.w3.org/2000/svg">
<path d="M33.6063 17.975C33.6063 19.9633 31.9945 21.575 30.0063 21.575C28.0182 21.575 26.4062 19.9633 26.4062 17.975C26.4062 15.9867 28.0182 14.375 30.0063 14.375C31.9945 14.375 33.6063 15.9867 33.6063 17.975Z" fill="#31DDA4"/>
<path d="M21.6063 29.975C21.6063 31.9633 19.9945 33.575 18.0063 33.575C16.0182 33.575 14.4062 31.9633 14.4062 29.975C14.4062 27.9867 16.0182 26.375 18.0063 26.375C19.9945 26.375 21.6063 27.9867 21.6063 29.975Z" fill="#31DDA4"/>
<path d="M24.8409 32.2326C24.917 31.7205 24.7448 31.1944 24.3781 30.8274L22.7222 29.1713C22.7664 29.4327 22.8028 29.6971 22.8028 29.9708C22.8028 32.6218 20.6538 34.7708 18.0028 34.7708C15.3519 34.7708 13.2028 32.6218 13.2028 29.9708C13.2028 27.3199 15.3519 25.1708 18.0028 25.1708C18.2769 25.1708 18.5415 25.2073 18.8029 25.2515L17.1465 23.5948C16.8371 23.2865 16.4247 23.1167 15.9851 23.1167C15.9018 23.1167 15.8174 23.1225 15.7319 23.1343C15.0639 23.2375 14.4534 23.2878 13.8757 23.2878C12.4059 23.2878 11.1208 22.9538 9.97865 22.2734C9.91195 22.342 9.83775 22.402 9.7874 22.4885L7.36573 26.6451C7.20528 26.9218 7.16135 27.251 7.24385 27.5599C7.32636 27.8687 7.52913 28.1317 7.80689 28.2906L9.56643 29.2985C9.54715 29.5238 9.53777 29.7477 9.53777 29.9708C9.53777 30.1939 9.54715 30.4179 9.56643 30.6434L7.80689 31.6513C7.52912 31.8102 7.32635 32.0732 7.24385 32.382C7.16136 32.6909 7.20528 33.0201 7.36573 33.2968L9.7874 37.4534C10.1203 38.0228 10.8487 38.2176 11.4205 37.8911L13.1953 36.8756C13.5738 37.1322 13.9794 37.3612 14.4028 37.5581V39.5708C14.4028 40.2335 14.9401 40.7708 15.6028 40.7708H20.4028C21.0655 40.7708 21.6028 40.2335 21.6028 39.5708V37.5581C22.0266 37.3612 22.4318 37.1322 22.8103 36.8756L24.5851 37.8911C24.9355 38.0914 25.3354 38.0761 25.6755 37.9194C24.5002 35.8749 24.61 33.7484 24.8409 32.2325L24.8409 32.2326Z" fill="#31DDA4"/>
<path d="M23.1625 15.71C23.0864 16.2222 23.2586 16.7483 23.6253 17.1152L25.2807 18.7709C25.2365 18.5097 25.2001 18.2456 25.2001 17.9719C25.2001 15.3209 27.3491 13.1719 30.0001 13.1719C32.6511 13.1719 34.8001 15.3209 34.8001 17.9719C34.8001 20.6228 32.6511 22.7719 30.0001 22.7719C29.7261 22.7719 29.4617 22.7354 29.2006 22.6912L30.857 24.3479C31.1663 24.6573 31.5778 24.8271 32.0136 24.8271C32.0969 24.8271 32.1812 24.8212 32.2656 24.8084C32.9395 24.7052 33.55 24.6549 34.1277 24.6549C35.5975 24.6549 36.8827 24.9889 38.0248 25.6693C38.0915 25.6007 38.1651 25.5404 38.2155 25.4539L40.6372 21.2973C40.7976 21.0206 40.8415 20.6914 40.759 20.3826C40.6765 20.0737 40.4738 19.8107 40.196 19.6519L38.4365 18.6439C38.4557 18.4189 38.4651 18.195 38.4651 17.9719C38.4651 17.7488 38.4557 17.5248 38.4365 17.2993L40.196 16.2914C40.4738 16.1325 40.6765 15.8695 40.759 15.5607C40.8415 15.2518 40.7976 14.9226 40.6372 14.6459L38.2155 10.4893C37.8825 9.91933 37.1526 9.72462 36.5824 10.0517L34.8078 11.0679C34.4294 10.8113 34.0238 10.5815 33.6004 10.3846L33.6001 8.37187C33.6001 7.70919 33.0628 7.17188 32.4001 7.17188H27.6001C26.9374 7.17188 26.4001 7.70919 26.4001 8.37187V10.3846C25.9763 10.5815 25.5711 10.8113 25.1926 11.0679L23.4178 10.0519C23.0682 9.85265 22.6689 9.86764 22.3281 10.0243C23.503 12.0684 23.3934 14.1946 23.1625 15.7101L23.1625 15.71Z" fill="#31DDA4"/>
<path d="M39.0368 28.0475C38.9385 27.9479 38.4437 27.4639 38.3267 27.3632C37.1562 26.3482 35.7829 25.8549 34.1305 25.8549C33.6173 25.8549 33.0652 25.9007 32.4443 25.9955C31.5384 26.1302 30.6481 25.8326 30.0106 25.1962L22.7797 17.9633C22.1446 17.3282 21.8457 16.4175 21.9794 15.5293C22.2384 13.8241 22.3169 11.614 20.612 9.64525C20.5113 9.52927 20.0272 9.0348 19.9171 8.9258C18.7873 7.79546 17.2828 7.17188 15.682 7.17188C14.7577 7.17188 13.832 7.39098 13.0045 7.80482C12.6587 7.97705 12.4187 8.30518 12.3566 8.6861C12.2958 9.067 12.4198 9.45376 12.693 9.72674L15.3014 12.3354C14.8444 13.8635 13.8951 14.8128 12.3673 15.2698L9.75862 12.6611C9.48809 12.3879 9.10586 12.2636 8.71798 12.3247C8.33736 12.3868 8.00923 12.6271 7.83698 12.9726C6.68169 15.2824 7.13275 18.0609 8.96896 19.8963C9.06726 19.9959 9.56199 20.48 9.67901 20.5807C10.8495 21.5956 12.2229 22.089 13.8752 22.089C14.3885 22.089 14.9405 22.0432 15.5614 21.9484C16.4708 21.8171 17.359 22.1125 17.9951 22.7476L25.226 29.9805C25.8611 30.6156 26.16 31.5263 26.0264 32.4145C25.7674 34.1197 25.6889 36.3298 27.3938 38.2986C27.4945 38.4146 27.9785 38.909 28.0886 39.0181C29.2184 40.1487 30.723 40.772 32.3237 40.772C33.2483 40.772 34.174 40.5529 35.0012 40.139C35.347 39.9668 35.587 39.6387 35.6492 39.2577C35.71 38.8768 35.5859 38.4901 35.3127 38.2171L32.7043 35.6084C33.1613 34.0803 34.1106 33.131 35.6384 32.6741L38.2468 35.2827C38.5198 35.5557 38.9041 35.6824 39.2875 35.6191C39.6684 35.557 39.9965 35.3167 40.1687 34.9712C41.3243 32.6614 40.8732 29.883 39.0368 28.0475Z" fill="#31DDA4"/>
</svg>
