<svg width="28" height="39" viewBox="0 0 28 39" fill="none" xmlns="http://www.w3.org/2000/svg">
<path d="M18.64 1.00198C18.64 0.601075 18.4006 0.238935 18.0318 0.0818953C17.6628 -0.0751447 17.2358 0.00327548 16.9468 0.281155L13.391 3.7003C8.09654 8.79112 3.62288 14.6715 0.12922 21.1322C0.04696 21.2776 0 21.4454 0 21.6244C0 22.1766 0.44772 22.6244 1 22.6244H9.62V37.002C9.62 37.398 9.85368 37.7568 10.2159 37.9168C10.5781 38.0768 11.0006 38.008 11.2934 37.7412L12.8844 36.292C18.4538 31.2186 23.1804 25.2912 26.8864 18.732L27.8706 16.9904C28.0456 16.6808 28.043 16.3016 27.8636 15.9944C27.6844 15.6872 27.3556 15.4984 27 15.4984H18.64V1.00198Z" fill="#31DDA4"/>
</svg>
