<svg width="28" height="35" viewBox="0 0 28 35" fill="none" xmlns="http://www.w3.org/2000/svg">
<path d="M4.17798 4.19109V0.598294C4.17798 0.38106 4.35396 0.205078 4.5712 0.205078H11.4729C11.6899 0.205078 11.8659 0.38106 11.8659 0.598294V4.19109C11.8659 4.40833 11.6899 4.58431 11.4729 4.58431H4.5712C4.35396 4.58431 4.17798 4.40833 4.17798 4.19109ZM26.9478 17.3205C27.3359 17.7086 27.5542 18.2352 27.5542 18.7843V32.6947C27.5542 33.2438 27.3359 33.7705 26.9478 34.1589C26.5594 34.5473 26.0328 34.7653 25.4837 34.7653H2.86744C2.31834 34.7653 1.79169 34.5473 1.40331 34.1589C1.01518 33.7705 0.796875 33.2438 0.796875 32.6947V8.80376C0.796875 8.25465 1.01518 7.72801 1.40331 7.33962C1.7917 6.95149 2.31832 6.73319 2.86744 6.73319H15.5031C16.0525 6.73319 16.579 6.95149 16.9672 7.33962L26.9478 17.3205ZM18.5499 25.7205C18.1572 22.7807 15.5587 20.8701 14.4819 17.4206C14.4404 17.2885 14.3177 17.1985 14.1793 17.1988C14.0405 17.1993 13.9184 17.2896 13.8776 17.4222C12.7111 21.1575 9.76014 23.0884 9.76014 26.4764C9.76014 27.6418 10.2203 28.7604 11.0411 29.5881C11.8615 30.4157 12.9758 30.8858 14.1415 30.896C15.4452 30.8823 16.6789 30.3048 17.5245 29.3121C18.3699 28.3197 18.7438 27.0096 18.5499 25.7201L18.5499 25.7205ZM13.6617 28.0489C13.0987 27.7797 12.623 27.3571 12.2895 26.8294C11.9563 26.3017 11.7787 25.6905 11.7774 25.0664C11.7771 24.7575 11.8071 24.4492 11.8674 24.1463C11.468 24.8596 11.2502 25.6602 11.2339 26.4774C11.2352 27.0772 11.4195 27.6624 11.7615 28.155C12.1036 28.6476 12.5876 29.0245 13.149 29.2356C13.4721 29.3564 13.8331 29.2029 13.97 28.8863C14.1069 28.5694 13.9714 28.2011 13.6617 28.049L13.6617 28.0489Z" fill="#31DDA4"/>
</svg>
