<svg width="287" height="451" fill="none" xmlns="http://www.w3.org/2000/svg"><path stroke="#C4C4C4" d="M2.703 361.692h275.598"/><path stroke="#464646" d="M47.998 243.078h231m-276.295 0h7.111m38.184-118.614h231m-276.295 0h7.111M47.998 5.851h231m-276.295 0h7.111"/><path d="M30.64 348.639L2.93 362.192h276.2V99.657l-27.629 37.186-27.794-11.317h-27.515l-27.554 21.938-27.631 96.893-27.553 26.729-27.63 39.53-27.475 26.729-27.71 11.294z" fill="url(#paint0_linear_39_1318)"/><path d="M2.93 361.742l27.71-13.553 27.71-11.294 27.473-26.729 27.631-39.53 27.553-26.729 27.631-96.893 27.554-21.938h27.515l27.794 11.318 27.629-37.187" stroke="#ED863C" stroke-width="3" stroke-linecap="round"/><circle cx="33.352" cy="361.742" r="3.5" fill="#C4C4C4"/><circle cx="60.957" cy="361.742" r="3.5" fill="#C4C4C4"/><circle cx="88.563" cy="361.742" r="3.5" fill="#C4C4C4"/><circle cx="116.168" cy="361.742" r="3.5" fill="#C4C4C4"/><circle cx="143.773" cy="361.742" r="3.5" fill="#C4C4C4"/><circle cx="171.379" cy="361.742" r="3.5" fill="#C4C4C4"/><circle cx="198.984" cy="361.742" r="3.5" fill="#C4C4C4"/><circle cx="226.59" cy="361.742" r="3.5" fill="#C4C4C4"/><circle cx="254.195" cy="361.742" r="3.5" fill="#C4C4C4"/><circle cx="280.658" cy="361.742" r="3.5" fill="#C4C4C4"/><circle cx="3.746" cy="361.578" r="3.5" fill="#ED863C"/><circle cx="31.352" cy="347.551" r="3.5" fill="#ED863C"/><circle cx="58.963" cy="336.607" r="3.5" fill="#ED863C"/><circle cx="86.59" cy="309.597" r="3.5" fill="#ED863C"/><circle cx="114.033" cy="270.482" r="3.5" fill="#ED863C"/><circle cx="141.623" cy="242.959" r="3.5" fill="#ED863C"/><circle cx="169.186" cy="146.785" r="3.5" fill="#ED863C"/><circle cx="196.84" cy="124.964" r="3.5" fill="#ED863C"/><circle cx="224.01" cy="124.964" r="3.5" fill="#ED863C"/><circle cx="251.816" cy="136.208" r="3.5" fill="#ED863C"/><circle cx="279.486" cy="98.207" r="3.5" fill="#ED863C"/><path d="M37.049 426.181c-.3.113-.593.22-.88.32-.293.1-.59.203-.89.31v3.14l1.77.63v1.01c-.733-.267-1.41-.517-2.03-.75-.627-.234-1.22-.46-1.78-.68-.56-.227-1.093-.45-1.6-.67a39.18 39.18 0 01-1.52-.69v-.89a49.11 49.11 0 013.12-1.35 65.71 65.71 0 011.78-.69c.62-.234 1.297-.484 2.03-.75v1.06zm-2.57.91c-.58.213-1.14.426-1.68.64-.547.206-1.07.423-1.57.65.5.233 1.023.456 1.57.67.54.206 1.1.413 1.68.62v-2.58zm2.42-6.845c.053.214.11.497.17.85.06.347.09.75.09 1.21 0 .4-.057.737-.17 1.01-.12.274-.287.494-.5.66a2.001 2.001 0 01-.75.36c-.293.074-.617.11-.97.11h-2.92v-.93h2.72c.633 0 1.087-.1 1.36-.3.273-.2.41-.536.41-1.01 0-.1-.003-.203-.01-.31a33.526 33.526 0 00-.02-.3 4.911 4.911 0 01-.03-.25.923.923 0 00-.04-.17h-4.39v-.93h5.05zm-.37-4.862c.053.08.123.237.21.47.08.227.12.493.12.8 0 .313-.05.61-.15.89-.1.273-.254.513-.46.72-.214.207-.477.37-.79.49-.314.12-.687.18-1.12.18-.38 0-.727-.057-1.04-.17a2.299 2.299 0 01-.82-.49 2.238 2.238 0 01-.54-.8 2.684 2.684 0 01-.2-1.06c0-.433.033-.81.1-1.13.06-.327.117-.6.17-.82h4.64c.8 0 1.38.207 1.74.62.36.413.54 1.04.54 1.88a5.183 5.183 0 01-.27 1.68l-.81-.17c.073-.187.137-.413.19-.68.06-.273.09-.557.09-.85 0-.553-.11-.95-.33-1.19-.22-.247-.57-.37-1.05-.37h-.22zm-3.86.01c-.027.093-.05.22-.07.38a3.87 3.87 0 00-.04.63c0 .5.163.887.49 1.16.327.267.76.4 1.3.4.3 0 .557-.037.77-.11.213-.08.39-.183.53-.31.14-.133.243-.283.31-.45.066-.173.1-.35.1-.53 0-.247-.033-.473-.1-.68a1.752 1.752 0 00-.25-.49h-3.04zm4.23-6.671c.053.213.11.497.17.85.06.347.09.75.09 1.21 0 .4-.057.737-.17 1.01a1.68 1.68 0 01-.5.66 2.001 2.001 0 01-.75.36c-.293.073-.617.11-.97.11h-2.92v-.93h2.72c.633 0 1.087-.1 1.36-.3.273-.2.41-.537.41-1.01 0-.1-.003-.203-.01-.31a29.19 29.19 0 00-.02-.3 5.05 5.05 0 01-.03-.25.902.902 0 00-.04-.17h-4.39v-.93h5.05zm-.52-2.812c0-.38-.05-.66-.15-.84a.505.505 0 00-.48-.28.637.637 0 00-.54.27c-.134.18-.284.476-.45.89-.08.2-.16.393-.24.58-.087.18-.187.336-.3.47a1.3 1.3 0 01-.41.32c-.16.08-.357.12-.59.12-.46 0-.824-.17-1.09-.51-.273-.34-.41-.804-.41-1.39 0-.147.01-.294.03-.44.013-.147.033-.284.06-.41.02-.127.043-.237.07-.33.026-.1.05-.177.07-.23l.8.17a2.19 2.19 0 00-.16.47c-.06.213-.09.47-.09.77 0 .26.053.486.16.68.1.193.26.29.48.29.113 0 .213-.02.3-.06a.85.85 0 00.24-.2 2.03 2.03 0 00.19-.34c.06-.134.123-.294.19-.48.093-.247.187-.467.28-.66a1.86 1.86 0 01.31-.49c.12-.14.267-.247.44-.32a1.53 1.53 0 01.62-.11c.48 0 .843.18 1.09.54.246.353.37.86.37 1.52 0 .46-.04.82-.12 1.08-.074.26-.13.436-.17.53l-.8-.17c.04-.107.1-.277.18-.51.08-.234.12-.544.12-.93zm-4.53-4.123v-1.97h.78v1.97h2.4c.26 0 .476-.02.65-.06.166-.04.3-.1.4-.18.093-.08.16-.18.2-.3.04-.12.06-.26.06-.42 0-.28-.03-.504-.09-.67a24.141 24.141 0 00-.14-.36l.77-.18c.047.093.103.256.17.49.073.233.11.5.11.8 0 .353-.044.646-.13.88a1.32 1.32 0 01-.41.55c-.18.14-.4.24-.66.3a4.76 4.76 0 01-.92.08h-4.64l-.16-.93h1.61zm.04-9.338c.24 0 .473.05.7.15.22.093.44.22.66.38.213.16.426.34.64.54.206.2.41.4.61.6l.4.4c.153.147.313.287.48.42.166.133.327.247.48.34a.84.84 0 00.4.13v-3.19h.79v4.2a.694.694 0 01-.12.01h-.11c-.314 0-.604-.05-.87-.15a3.71 3.71 0 01-.77-.41 5.422 5.422 0 01-.68-.56c-.214-.207-.42-.41-.62-.61-.16-.167-.317-.323-.47-.47a4.847 4.847 0 00-.47-.4 2.16 2.16 0 00-.49-.28 1.307 1.307 0 00-.53-.11c-.2 0-.37.033-.51.1a.956.956 0 00-.35.25.946.946 0 00-.2.38 1.651 1.651 0 00.01.98c.053.16.116.303.19.43.066.127.14.233.22.32l.17.2-.66.46a2.16 2.16 0 01-.24-.27 2.35 2.35 0 01-.28-.43 3.068 3.068 0 01-.22-.56c-.06-.207-.09-.43-.09-.67 0-.727.17-1.27.51-1.63.333-.367.806-.55 1.42-.55zm1.69-1.475c-1.16 0-2.053-.203-2.68-.61-.627-.413-.94-.983-.94-1.71 0-.726.313-1.293.94-1.7.627-.413 1.52-.62 2.68-.62 1.16 0 2.053.207 2.68.62.627.407.94.974.94 1.7 0 .727-.313 1.297-.94 1.71-.627.407-1.52.61-2.68.61zm0-3.66c-.38 0-.74.024-1.08.07-.34.04-.637.114-.89.22-.254.1-.454.237-.6.41a.933.933 0 00-.23.64.93.93 0 00.23.64c.146.174.346.314.6.42.253.1.55.174.89.22.34.04.7.06 1.08.06.38 0 .74-.02 1.08-.06.34-.046.636-.12.89-.22a1.64 1.64 0 00.61-.42.955.955 0 00.22-.64.959.959 0 00-.22-.64 1.566 1.566 0 00-.61-.41 3.307 3.307 0 00-.89-.22c-.34-.046-.7-.07-1.08-.07zm-1.69-6.154c.24 0 .473.05.7.15.22.093.44.22.66.38.213.16.426.34.64.54.206.2.41.4.61.6l.4.4c.153.146.313.286.48.42.166.133.327.246.48.34.153.086.286.13.4.13v-3.19h.79v4.2a.81.81 0 01-.12.01h-.11c-.314 0-.604-.05-.87-.15a3.758 3.758 0 01-.77-.41 5.51 5.51 0 01-.68-.56c-.214-.207-.42-.41-.62-.61a14.87 14.87 0 00-.47-.47 4.71 4.71 0 00-.47-.4 2.122 2.122 0 00-.49-.28 1.29 1.29 0 00-.53-.11c-.2 0-.37.033-.51.1a.94.94 0 00-.55.63 1.651 1.651 0 00.01.98c.053.16.116.303.19.43.066.126.14.233.22.32l.17.2-.66.46a2.16 2.16 0 01-.24-.27c-.1-.12-.194-.264-.28-.43a3.096 3.096 0 01-.22-.56c-.06-.207-.09-.43-.09-.67 0-.727.17-1.27.51-1.63.333-.367.806-.55 1.42-.55zm1.69-1.475c-1.16 0-2.053-.203-2.68-.61-.627-.413-.94-.983-.94-1.71 0-.726.313-1.293.94-1.7.627-.413 1.52-.62 2.68-.62 1.16 0 2.053.207 2.68.62.627.407.94.974.94 1.7 0 .727-.313 1.297-.94 1.71-.627.407-1.52.61-2.68.61zm0-3.66c-.38 0-.74.024-1.08.07-.34.04-.637.114-.89.22-.254.1-.454.237-.6.41a.933.933 0 00-.23.64.93.93 0 00.23.64c.146.174.346.314.6.42.253.1.55.174.89.22.34.04.7.06 1.08.06.38 0 .74-.02 1.08-.06.34-.046.636-.12.89-.22a1.64 1.64 0 00.61-.42.955.955 0 00.22-.64.959.959 0 00-.22-.64 1.566 1.566 0 00-.61-.41 3.307 3.307 0 00-.89-.22c-.34-.046-.7-.07-1.08-.07zM17.633 241.299c0 .24-.05.474-.15.7-.093.22-.22.44-.38.66a7.49 7.49 0 01-.54.64c-.2.207-.4.41-.6.61l-.4.4a7.542 7.542 0 00-.42.48 4.694 4.694 0 00-.34.48.847.847 0 00-.13.4h3.19v.79h-4.2a.725.725 0 01-.01-.12v-.11c0-.313.05-.603.15-.87.107-.273.243-.53.41-.77.167-.24.353-.466.56-.68.207-.213.41-.42.61-.62.167-.16.323-.316.47-.47.153-.16.287-.316.4-.47.12-.16.213-.323.28-.49.073-.166.11-.343.11-.53 0-.2-.033-.37-.1-.51a.964.964 0 00-.25-.35.95.95 0 00-.38-.2c-.14-.046-.29-.07-.45-.07-.193 0-.37.027-.53.08-.16.054-.303.117-.43.19-.127.067-.233.14-.32.22l-.2.17-.46-.66c.06-.066.15-.146.27-.24.12-.1.263-.193.43-.28.167-.086.353-.16.56-.22.207-.06.43-.09.67-.09.727 0 1.27.17 1.63.51.367.334.55.807.55 1.42zm1.474 1.69c0-1.16.204-2.053.61-2.68.414-.626.984-.94 1.71-.94.727 0 1.294.314 1.7.94.414.627.62 1.52.62 2.68 0 1.16-.206 2.054-.62 2.68-.406.627-.973.94-1.7.94-.726 0-1.296-.313-1.71-.94-.406-.626-.61-1.52-.61-2.68zm3.66 0c0-.38-.023-.74-.07-1.08a3.287 3.287 0 00-.22-.89 1.481 1.481 0 00-.41-.6.933.933 0 00-.64-.23.933.933 0 00-.64.23 1.568 1.568 0 00-.42.6c-.1.254-.173.55-.22.89-.04.34-.06.7-.06 1.08 0 .38.02.74.06 1.08.047.34.12.637.22.89.107.254.247.457.42.61.174.147.387.22.64.22a.955.955 0 00.64-.22c.174-.153.31-.356.41-.61.107-.253.18-.55.22-.89.047-.34.07-.7.07-1.08zm4.3 0c0-1.16.203-2.053.61-2.68.413-.626.983-.94 1.71-.94.726 0 1.293.314 1.7.94.413.627.62 1.52.62 2.68 0 1.16-.207 2.054-.62 2.68-.407.627-.974.94-1.7.94-.727 0-1.297-.313-1.71-.94-.407-.626-.61-1.52-.61-2.68zm3.66 0c0-.38-.024-.74-.07-1.08a3.287 3.287 0 00-.22-.89 1.482 1.482 0 00-.41-.6.933.933 0 00-.64-.23.933.933 0 00-.64.23 1.568 1.568 0 00-.42.6c-.1.254-.174.55-.22.89-.04.34-.06.7-.06 1.08 0 .38.02.74.06 1.08.046.34.12.637.22.89.106.254.246.457.42.61.173.147.386.22.64.22a.955.955 0 00.64-.22c.173-.153.31-.356.41-.61.106-.253.18-.55.22-.89.046-.34.07-.7.07-1.08zm1.984 0c0-1.16.203-2.053.61-2.68.413-.626.983-.94 1.71-.94s1.293.314 1.7.94c.413.627.62 1.52.62 2.68 0 1.16-.207 2.054-.62 2.68-.407.627-.973.94-1.7.94s-1.297-.313-1.71-.94c-.407-.626-.61-1.52-.61-2.68zm3.66 0c0-.38-.023-.74-.07-1.08a3.287 3.287 0 00-.22-.89 1.481 1.481 0 00-.41-.6.933.933 0 00-.64-.23.933.933 0 00-.64.23 1.568 1.568 0 00-.42.6c-.1.254-.173.55-.22.89-.04.34-.06.7-.06 1.08 0 .38.02.74.06 1.08.047.34.12.637.22.89.107.254.247.457.42.61.173.147.387.22.64.22a.955.955 0 00.64-.22c.173-.153.31-.356.41-.61.107-.253.18-.55.22-.89.047-.34.07-.7.07-1.08zm1.984 0c0-1.16.204-2.053.61-2.68.414-.626.984-.94 1.71-.94.727 0 1.294.314 1.7.94.414.627.62 1.52.62 2.68 0 1.16-.206 2.054-.62 2.68-.406.627-.973.94-1.7.94-.726 0-1.296-.313-1.71-.94-.406-.626-.61-1.52-.61-2.68zm3.66 0c0-.38-.023-.74-.07-1.08a3.29 3.29 0 00-.22-.89 1.482 1.482 0 00-.41-.6.933.933 0 00-.64-.23.933.933 0 00-.64.23 1.566 1.566 0 00-.42.6c-.1.254-.173.55-.22.89-.04.34-.06.7-.06 1.08 0 .38.02.74.06 1.08.047.34.12.637.22.89.107.254.247.457.42.61.174.147.387.22.64.22a.955.955 0 00.64-.22c.174-.153.31-.356.41-.61.107-.253.18-.55.22-.89.047-.34.07-.7.07-1.08zM13.363 124.814c.127-.293.3-.633.52-1.02.22-.393.467-.796.74-1.21a22 22 0 01.89-1.22c.32-.4.64-.76.96-1.08h.89v4.4h.82v.76h-.82v1.77h-.9v-1.77h-3.1v-.63zm3.1-3.43c-.2.214-.403.454-.61.72a16.303 16.303 0 00-1.14 1.7c-.167.3-.317.594-.45.88h2.2v-3.3zm2.644 2.36c0-1.16.204-2.053.61-2.68.414-.626.984-.94 1.71-.94.727 0 1.294.314 1.7.94.414.627.62 1.52.62 2.68 0 1.16-.206 2.054-.62 2.68-.406.627-.973.94-1.7.94-.726 0-1.296-.313-1.71-.94-.406-.626-.61-1.52-.61-2.68zm3.66 0c0-.38-.023-.74-.07-1.08a3.287 3.287 0 00-.22-.89 1.481 1.481 0 00-.41-.6.933.933 0 00-.64-.23.933.933 0 00-.64.23 1.568 1.568 0 00-.42.6c-.1.254-.173.55-.22.89-.04.34-.06.7-.06 1.08 0 .38.02.74.06 1.08.047.34.12.637.22.89.107.254.247.457.42.61.174.147.387.22.64.22a.955.955 0 00.64-.22c.174-.153.31-.356.41-.61.107-.253.18-.55.22-.89.047-.34.07-.7.07-1.08zm4.3 0c0-1.16.203-2.053.61-2.68.413-.626.983-.94 1.71-.94.726 0 1.293.314 1.7.94.413.627.62 1.52.62 2.68 0 1.16-.207 2.054-.62 2.68-.407.627-.974.94-1.7.94-.727 0-1.297-.313-1.71-.94-.407-.626-.61-1.52-.61-2.68zm3.66 0c0-.38-.024-.74-.07-1.08a3.287 3.287 0 00-.22-.89 1.482 1.482 0 00-.41-.6.933.933 0 00-.64-.23.933.933 0 00-.64.23 1.568 1.568 0 00-.42.6c-.1.254-.174.55-.22.89-.04.34-.06.7-.06 1.08 0 .38.02.74.06 1.08.046.34.12.637.22.89.106.254.246.457.42.61.173.147.386.22.64.22a.955.955 0 00.64-.22c.173-.153.31-.356.41-.61.106-.253.18-.55.22-.89.046-.34.07-.7.07-1.08zm1.984 0c0-1.16.203-2.053.61-2.68.413-.626.983-.94 1.71-.94s1.293.314 1.7.94c.413.627.62 1.52.62 2.68 0 1.16-.207 2.054-.62 2.68-.407.627-.973.94-1.7.94s-1.297-.313-1.71-.94c-.407-.626-.61-1.52-.61-2.68zm3.66 0c0-.38-.023-.74-.07-1.08a3.287 3.287 0 00-.22-.89 1.481 1.481 0 00-.41-.6.933.933 0 00-.64-.23.933.933 0 00-.64.23 1.568 1.568 0 00-.42.6c-.1.254-.173.55-.22.89-.04.34-.06.7-.06 1.08 0 .38.02.74.06 1.08.047.34.12.637.22.89.107.254.247.457.42.61.173.147.387.22.64.22a.955.955 0 00.64-.22c.173-.153.31-.356.41-.61.107-.253.18-.55.22-.89.047-.34.07-.7.07-1.08zm1.984 0c0-1.16.204-2.053.61-2.68.414-.626.984-.94 1.71-.94.727 0 1.294.314 1.7.94.414.627.62 1.52.62 2.68 0 1.16-.206 2.054-.62 2.68-.406.627-.973.94-1.7.94-.726 0-1.296-.313-1.71-.94-.406-.626-.61-1.52-.61-2.68zm3.66 0c0-.38-.023-.74-.07-1.08a3.29 3.29 0 00-.22-.89 1.482 1.482 0 00-.41-.6.933.933 0 00-.64-.23.933.933 0 00-.64.23 1.566 1.566 0 00-.42.6c-.1.254-.173.55-.22.89-.04.34-.06.7-.06 1.08 0 .38.02.74.06 1.08.047.34.12.637.22.89.107.254.247.457.42.61.174.147.387.22.64.22a.955.955 0 00.64-.22c.174-.153.31-.356.41-.61.107-.253.18-.55.22-.89.047-.34.07-.7.07-1.08zM13.593 7.07c0-.673.093-1.266.28-1.78.187-.52.45-.956.79-1.31a3.36 3.36 0 011.25-.8 4.811 4.811 0 011.66-.29l.07.78a4.89 4.89 0 00-1.08.13c-.32.08-.607.207-.86.38-.253.174-.467.4-.64.68a3.105 3.105 0 00-.39 1.02c.173-.08.367-.146.58-.2.22-.053.447-.08.68-.08.393 0 .727.06 1 .18s.497.28.67.48c.173.194.297.42.37.68.08.254.12.52.12.8a2.5 2.5 0 01-.13.78c-.087.267-.22.51-.4.73-.173.22-.397.4-.67.54s-.597.21-.97.21c-.76 0-1.34-.26-1.74-.78-.393-.52-.59-1.236-.59-2.15zm2.24-.71c-.233 0-.45.024-.65.07-.2.04-.4.104-.6.19l-.02.23v.22c0 .294.02.57.06.83.04.26.11.49.21.69.107.194.247.35.42.47.173.114.393.17.66.17.22 0 .407-.046.56-.14.153-.093.28-.213.38-.36.1-.146.17-.303.21-.47.047-.173.07-.34.07-.5 0-.453-.11-.8-.33-1.04-.213-.24-.537-.36-.97-.36zm3.274.02c0-1.16.204-2.053.61-2.68.414-.626.984-.94 1.71-.94.727 0 1.294.314 1.7.94.414.627.62 1.52.62 2.68 0 1.16-.206 2.054-.62 2.68-.406.627-.973.94-1.7.94-.726 0-1.296-.313-1.71-.94-.406-.626-.61-1.52-.61-2.68zm3.66 0c0-.38-.023-.74-.07-1.08a3.28 3.28 0 00-.22-.89 1.477 1.477 0 00-.41-.6.931.931 0 00-.64-.23.931.931 0 00-.64.23 1.563 1.563 0 00-.42.6c-.1.254-.173.55-.22.89-.04.34-.06.7-.06 1.08 0 .38.02.74.06 1.08.047.34.12.637.22.89.107.254.247.457.42.61.174.147.387.22.64.22a.957.957 0 00.64-.22c.174-.153.31-.356.41-.61.107-.253.18-.55.22-.89.047-.34.07-.7.07-1.08zm4.3 0c0-1.16.203-2.053.61-2.68.413-.626.983-.94 1.71-.94.726 0 1.293.314 1.7.94.413.627.62 1.52.62 2.68 0 1.16-.207 2.054-.62 2.68-.407.627-.974.94-1.7.94-.727 0-1.297-.313-1.71-.94-.407-.626-.61-1.52-.61-2.68zm3.66 0c0-.38-.024-.74-.07-1.08a3.28 3.28 0 00-.22-.89 1.478 1.478 0 00-.41-.6.931.931 0 00-.64-.23.931.931 0 00-.64.23 1.563 1.563 0 00-.42.6c-.1.254-.174.55-.22.89-.04.34-.06.7-.06 1.08 0 .38.02.74.06 1.08.046.34.12.637.22.89.106.254.246.457.42.61.173.147.386.22.64.22a.957.957 0 00.64-.22c.173-.153.31-.356.41-.61.106-.253.18-.55.22-.89.046-.34.07-.7.07-1.08zm1.984 0c0-1.16.203-2.053.61-2.68.413-.626.983-.94 1.71-.94s1.293.314 1.7.94c.413.627.62 1.52.62 2.68 0 1.16-.207 2.054-.62 2.68-.407.627-.973.94-1.7.94s-1.297-.313-1.71-.94c-.407-.626-.61-1.52-.61-2.68zm3.66 0c0-.38-.023-.74-.07-1.08a3.28 3.28 0 00-.22-.89 1.477 1.477 0 00-.41-.6.931.931 0 00-.64-.23.931.931 0 00-.64.23 1.563 1.563 0 00-.42.6c-.1.254-.173.55-.22.89-.04.34-.06.7-.06 1.08 0 .38.02.74.06 1.08.047.34.12.637.22.89.107.254.247.457.42.61.173.147.387.22.64.22a.957.957 0 00.64-.22c.173-.153.31-.356.41-.61.107-.253.18-.55.22-.89.047-.34.07-.7.07-1.08zm1.984 0c0-1.16.204-2.053.61-2.68.414-.626.984-.94 1.71-.94.727 0 1.294.314 1.7.94.414.627.62 1.52.62 2.68 0 1.16-.206 2.054-.62 2.68-.406.627-.973.94-1.7.94-.726 0-1.296-.313-1.71-.94-.406-.626-.61-1.52-.61-2.68zm3.66 0c0-.38-.023-.74-.07-1.08a3.285 3.285 0 00-.22-.89 1.478 1.478 0 00-.41-.6.931.931 0 00-.64-.23.931.931 0 00-.64.23 1.56 1.56 0 00-.42.6c-.1.254-.173.55-.22.89-.04.34-.06.7-.06 1.08 0 .38.02.74.06 1.08.047.34.12.637.22.89.107.254.247.457.42.61.174.147.387.22.64.22a.957.957 0 00.64-.22c.174-.153.31-.356.41-.61.107-.253.18-.55.22-.89.047-.34.07-.7.07-1.08zm21.844 440.829c0-1.013-.347-1.52-1.04-1.52a.989.989 0 00-.54.14 1.187 1.187 0 00-.39.36 2.38 2.38 0 00-.29.53c-.08.194-.16.4-.24.62a6.903 6.903 0 01-.29.72 2.72 2.72 0 01-.39.59c-.154.167-.334.3-.54.4-.207.094-.457.14-.75.14-.607 0-1.08-.206-1.42-.62-.34-.413-.51-.983-.51-1.71 0-.42.046-.8.14-1.14.087-.346.183-.6.29-.76l.79.31c-.087.14-.17.35-.25.63a3.18 3.18 0 00-.13.96c0 .187.02.36.06.52.04.16.1.3.18.42a.92.92 0 00.31.29c.12.067.263.1.43.1a.918.918 0 00.47-.11 1.13 1.13 0 00.34-.31c.093-.133.18-.286.26-.46.08-.18.16-.376.24-.59.12-.3.24-.573.36-.82.12-.253.263-.47.43-.65.166-.186.367-.33.6-.43.227-.1.503-.15.83-.15.607 0 1.073.224 1.4.67.326.44.49 1.064.49 1.87 0 .274-.02.527-.06.76-.033.227-.073.43-.12.61a5.37 5.37 0 01-.16.47c-.06.127-.11.227-.15.3l-.8-.29c.087-.153.183-.386.29-.7.107-.313.16-.696.16-1.15zm-1.9-3.362c-.46 0-.86-.066-1.2-.2a2.505 2.505 0 01-.86-.53 2.15 2.15 0 01-.51-.76 2.372 2.372 0 01-.17-.88c0-.7.22-1.236.66-1.61.433-.373 1.096-.56 1.99-.56h.16c.06 0 .116.004.17.01v3.56c.54-.04.95-.196 1.23-.47.28-.273.42-.7.42-1.28 0-.326-.027-.6-.08-.82a3.234 3.234 0 00-.17-.51l.78-.13c.06.114.123.314.19.6.066.28.1.6.1.96 0 .454-.067.847-.2 1.18-.14.327-.33.597-.57.81-.24.214-.523.374-.85.48-.334.1-.697.15-1.09.15zm-.51-3.57c-.42-.006-.764.1-1.03.32-.273.214-.41.51-.41.89a1.275 1.275 0 00.45.98c.133.114.286.204.46.27.173.06.35.1.53.12v-2.58zm.51-5.916c-.607 0-1.074.15-1.4.45-.327.3-.49.7-.49 1.2 0 .28.01.5.03.66.02.154.043.277.07.37h3.28c.093-.113.183-.276.27-.49.087-.213.13-.446.13-.7a1.51 1.51 0 00-.14-.68 1.32 1.32 0 00-.4-.47 1.757 1.757 0 00-.6-.26 3.38 3.38 0 00-.75-.08zm0-.97c.393 0 .756.054 1.09.16.333.1.62.25.86.45s.426.447.56.74c.133.287.2.617.2.99a2.51 2.51 0 01-.35 1.31h2.08v.93h-6.89c-.053-.22-.11-.493-.17-.82a5.906 5.906 0 01-.1-1.15c0-.4.063-.76.19-1.08.127-.32.306-.593.54-.82.233-.226.52-.4.86-.52.333-.126.71-.19 1.13-.19zm-2.61-2.178v-1.97h.78v1.97h2.4c.26 0 .476-.02.65-.06.166-.04.3-.1.4-.18.093-.08.16-.18.2-.3.04-.12.06-.26.06-.42 0-.28-.03-.504-.09-.67a24.141 24.141 0 00-.14-.36l.77-.18c.046.093.103.256.17.49.073.233.11.5.11.8 0 .353-.044.646-.13.88a1.32 1.32 0 01-.41.55c-.18.14-.4.24-.66.3a4.76 4.76 0 01-.92.08h-4.64l-.16-.93h1.61zm2.61-2.766c-.46 0-.86-.067-1.2-.2a2.52 2.52 0 01-.86-.53 2.16 2.16 0 01-.51-.76 2.376 2.376 0 01-.17-.88c0-.7.22-1.237.66-1.61.433-.374 1.096-.56 1.99-.56h.16c.06 0 .116.003.17.01v3.56c.54-.04.95-.197 1.23-.47.28-.274.42-.7.42-1.28 0-.327-.027-.6-.08-.82a3.163 3.163 0 00-.17-.51l.78-.13c.06.113.123.313.19.6.066.28.1.6.1.96 0 .453-.067.846-.2 1.18-.14.326-.33.596-.57.81-.24.213-.523.373-.85.48-.334.1-.697.15-1.09.15zm-.51-3.57c-.42-.007-.764.1-1.03.32-.273.213-.41.51-.41.89 0 .213.043.403.13.57.08.16.186.296.32.41.133.113.286.203.46.27.173.06.35.1.53.12v-2.58zm-1.95-2.306c-.053-.213-.11-.493-.17-.84-.06-.353-.09-.76-.09-1.22 0-.333.047-.613.14-.84a1.43 1.43 0 01.39-.57 3.714 3.714 0 01-.14-.22 2.15 2.15 0 01-.17-.37c-.06-.147-.11-.31-.15-.49a2.306 2.306 0 01-.07-.58c0-.4.06-.727.18-.98.113-.253.277-.45.49-.59a1.83 1.83 0 01.76-.29c.293-.053.613-.08.96-.08h2.92v.93h-2.72c-.307 0-.57.017-.79.05-.22.027-.404.083-.55.17a.717.717 0 00-.32.34 1.19 1.19 0 00-.11.55c0 .313.043.573.13.78.08.2.153.337.22.41.173-.053.363-.093.57-.12.206-.027.423-.04.65-.04h2.92v.93h-2.72c-.307 0-.57.017-.79.05-.22.033-.404.093-.55.18a.717.717 0 00-.32.34c-.073.14-.11.32-.11.54a4.894 4.894 0 00.04.61 2.836 2.836 0 00.06.42h4.39v.93h-5.05zm.08-9.543a2.569 2.569 0 01-.23-.51c-.08-.234-.12-.5-.12-.8 0-.374.066-.704.2-.99.133-.294.32-.54.56-.74.24-.2.527-.35.86-.45.333-.107.7-.16 1.1-.16.42 0 .8.063 1.14.19.333.12.617.293.85.52.233.226.413.5.54.82.127.32.19.68.19 1.08 0 .433-.03.816-.09 1.15-.06.333-.12.606-.18.82h-7.45l-.16-.93h2.79zm4.16 0a3.59 3.59 0 00.08-.39c.02-.174.03-.387.03-.64 0-.5-.163-.9-.49-1.2-.334-.3-.803-.45-1.41-.45-.267 0-.517.026-.75.08-.233.053-.433.14-.6.26-.173.12-.307.276-.4.47-.1.186-.15.413-.15.68 0 .253.043.486.13.7.087.213.176.376.27.49h3.29zm-1.78-4.669c-.46 0-.86-.067-1.2-.2a2.505 2.505 0 01-.86-.53 2.15 2.15 0 01-.51-.76 2.376 2.376 0 01-.17-.88c0-.7.22-1.237.66-1.61.433-.373 1.096-.56 1.99-.56h.16c.06 0 .116.003.17.01v3.56c.54-.04.95-.197 1.23-.47.28-.273.42-.7.42-1.28 0-.327-.027-.6-.08-.82a3.163 3.163 0 00-.17-.51l.78-.13c.06.113.123.313.19.6.066.28.1.6.1.96 0 .453-.067.847-.2 1.18-.14.327-.33.597-.57.81-.24.213-.523.373-.85.48-.334.1-.697.15-1.09.15zm-.51-3.57c-.42-.007-.764.1-1.03.32-.273.213-.41.51-.41.89a1.275 1.275 0 00.45.98c.133.113.286.203.46.27.173.06.35.1.53.12v-2.58zm-2.21-4.226c0-.08.007-.17.02-.27.007-.107.02-.21.04-.31.013-.1.03-.19.05-.27.013-.087.027-.15.04-.19l.81.16a2.735 2.735 0 00-.09.37 2.872 2.872 0 000 1.17c.033.167.056.277.07.33h4.37v.93h-4.98a5.884 5.884 0 01-.22-.82 5.039 5.039 0 01-.11-1.1zm.15-8.122c.24 0 .473.05.7.15.22.093.44.22.66.38.213.16.426.34.64.54.206.2.41.4.61.6l.4.4c.153.147.313.287.48.42.166.133.327.247.48.34a.84.84 0 00.4.13v-3.19h.79v4.2a.694.694 0 01-.12.01h-.11c-.314 0-.604-.05-.87-.15a3.71 3.71 0 01-.77-.41 5.422 5.422 0 01-.68-.56c-.214-.207-.42-.41-.62-.61-.16-.167-.317-.323-.47-.47a4.847 4.847 0 00-.47-.4 2.16 2.16 0 00-.49-.28 1.307 1.307 0 00-.53-.11c-.2 0-.37.033-.51.1a.956.956 0 00-.35.25.946.946 0 00-.2.38 1.651 1.651 0 00.01.98c.053.16.117.303.19.43.067.127.14.233.22.32l.17.2-.66.46a2.16 2.16 0 01-.24-.27 2.35 2.35 0 01-.28-.43 3.068 3.068 0 01-.22-.56c-.06-.207-.09-.43-.09-.67 0-.727.17-1.27.51-1.63.333-.367.806-.55 1.42-.55zm1.69-1.474c-1.16 0-2.053-.204-2.68-.61-.627-.414-.94-.984-.94-1.71 0-.727.313-1.294.94-1.7.627-.414 1.52-.62 2.68-.62 1.16 0 2.053.206 2.68.62.626.406.94.973.94 1.7 0 .726-.314 1.296-.94 1.71-.627.406-1.52.61-2.68.61zm0-3.66c-.38 0-.74.023-1.08.07a3.27 3.27 0 00-.89.22c-.254.1-.453.236-.6.41a.93.93 0 00-.23.64.93.93 0 00.23.64c.147.173.346.313.6.42.253.1.55.173.89.22.34.04.7.06 1.08.06.38 0 .74-.02 1.08-.06.34-.047.636-.12.89-.22.253-.107.456-.247.61-.42a.959.959 0 00.22-.64.955.955 0 00-.22-.64 1.555 1.555 0 00-.61-.41 3.27 3.27 0 00-.89-.22c-.34-.047-.7-.07-1.08-.07zm-1.69-6.155c.24 0 .473.05.7.15.22.093.44.22.66.38.213.16.426.34.64.54.206.2.41.4.61.6l.4.4c.153.147.313.287.48.42.166.133.327.247.48.34a.84.84 0 00.4.13v-3.19h.79v4.2a.694.694 0 01-.12.01h-.11c-.314 0-.604-.05-.87-.15a3.71 3.71 0 01-.77-.41 5.422 5.422 0 01-.68-.56c-.214-.207-.42-.41-.62-.61-.16-.167-.317-.323-.47-.47a4.847 4.847 0 00-.47-.4 2.16 2.16 0 00-.49-.28 1.307 1.307 0 00-.53-.11c-.2 0-.37.033-.51.1a.956.956 0 00-.35.25.946.946 0 00-.2.38 1.651 1.651 0 00.01.98c.053.16.117.303.19.43.067.127.14.233.22.32l.17.2-.66.46a2.16 2.16 0 01-.24-.27 2.35 2.35 0 01-.28-.43 3.068 3.068 0 01-.22-.56c-.06-.207-.09-.43-.09-.67 0-.727.17-1.27.51-1.63.333-.367.806-.55 1.42-.55zm1.69-1.475c-1.16 0-2.053-.203-2.68-.61-.627-.413-.94-.983-.94-1.71 0-.726.313-1.293.94-1.7.627-.413 1.52-.62 2.68-.62 1.16 0 2.053.207 2.68.62.626.407.94.974.94 1.7 0 .727-.314 1.297-.94 1.71-.627.407-1.52.61-2.68.61zm0-3.66c-.38 0-.74.024-1.08.07-.34.04-.637.114-.89.22-.254.1-.453.237-.6.41a.933.933 0 00-.23.64.93.93 0 00.23.64c.147.174.346.314.6.42.253.1.55.174.89.22.34.04.7.06 1.08.06.38 0 .74-.02 1.08-.06.34-.046.636-.12.89-.22a1.64 1.64 0 00.61-.42.955.955 0 00.22-.64.959.959 0 00-.22-.64 1.566 1.566 0 00-.61-.41 3.307 3.307 0 00-.89-.22c-.34-.046-.7-.07-1.08-.07zm58.47 65.151c-.247.147-.524.317-.83.51-.307.187-.624.39-.95.61-.334.22-.67.45-1.01.69-.34.233-.667.467-.98.7-.32.233-.62.46-.9.68-.28.22-.527.423-.74.61h5.41v.95h-6.93v-.77a18.04 18.04 0 011.17-1c.44-.36.896-.713 1.37-1.06.466-.353.926-.683 1.38-.99.453-.313.856-.577 1.21-.79h-5.13v-.95h6.93v.81zm-2.6-7.055c.413 0 .786.06 1.12.18.333.12.62.29.86.51.24.213.426.47.56.77.126.3.19.626.19.98 0 .353-.064.68-.19.98-.134.3-.32.56-.56.78-.24.213-.527.38-.86.5-.334.12-.707.18-1.12.18-.407 0-.777-.06-1.11-.18-.34-.12-.63-.287-.87-.5-.24-.22-.424-.48-.55-.78-.134-.3-.2-.627-.2-.98 0-.354.066-.68.2-.98.126-.3.31-.557.55-.77.24-.22.53-.39.87-.51.333-.12.703-.18 1.11-.18zm0 .97c-.587 0-1.05.133-1.39.4-.347.26-.52.616-.52 1.07 0 .453.173.813.52 1.08.34.26.803.39 1.39.39.586 0 1.053-.13 1.4-.39.34-.267.51-.627.51-1.08 0-.454-.17-.81-.51-1.07-.347-.267-.814-.4-1.4-.4zm-2.6-6.202c.973.26 1.906.567 2.8.92.893.347 1.693.683 2.4 1.01v.84c-.707.327-1.507.667-2.4 1.02a26.98 26.98 0 01-2.8.91v-1c.326-.08.676-.173 1.05-.28.366-.113.733-.23 1.1-.35.36-.127.71-.253 1.05-.38.34-.127.643-.247.91-.36-.267-.113-.57-.233-.91-.36-.34-.127-.69-.25-1.05-.37a23.685 23.685 0 00-1.1-.35c-.374-.113-.724-.21-1.05-.29v-.96zm2.61-.533c-.46 0-.86-.067-1.2-.2a2.494 2.494 0 01-.86-.53 2.14 2.14 0 01-.51-.76 2.362 2.362 0 01-.17-.88c0-.7.22-1.237.66-1.61.433-.373 1.096-.56 1.99-.56h.16c.06 0 .116.003.17.01v3.56c.54-.04.95-.197 1.23-.47.28-.273.42-.7.42-1.28 0-.327-.027-.6-.08-.82a3.204 3.204 0 00-.17-.51l.78-.13c.06.113.123.313.19.6.066.28.1.6.1.96 0 .453-.067.847-.2 1.18-.14.327-.33.597-.57.81-.24.213-.524.373-.85.48-.334.1-.697.15-1.09.15zm-.51-3.57c-.42-.007-.764.1-1.03.32-.274.213-.41.51-.41.89a1.275 1.275 0 00.45.98c.133.113.286.203.46.27.173.06.35.1.53.12v-2.58zm-1.95-2.306c-.054-.213-.11-.493-.17-.84-.06-.353-.09-.76-.09-1.22 0-.333.046-.613.14-.84.086-.226.216-.416.39-.57a3.12 3.12 0 01-.14-.22 2.12 2.12 0 01-.17-.37c-.06-.146-.11-.31-.15-.49a2.288 2.288 0 01-.07-.58c0-.4.06-.726.18-.98.113-.253.276-.45.49-.59.213-.146.466-.243.76-.29.293-.053.613-.08.96-.08h2.92v.93h-2.72c-.307 0-.57.017-.79.05a1.42 1.42 0 00-.55.17.717.717 0 00-.32.34c-.074.14-.11.324-.11.55 0 .314.043.574.13.78.08.2.153.337.22.41.173-.053.363-.093.57-.12.206-.026.423-.04.65-.04h2.92v.93h-2.72c-.307 0-.57.017-.79.05-.22.034-.404.094-.55.18a.717.717 0 00-.32.34c-.074.14-.11.32-.11.54a4.55 4.55 0 00.04.61c.006.094.016.18.03.26.013.08.023.134.03.16h4.39v.93h-5.05zm.08-9.543a2.477 2.477 0 01-.35-1.31c0-.373.066-.703.2-.99.133-.293.32-.54.56-.74.24-.2.526-.35.86-.45.333-.107.7-.16 1.1-.16.42 0 .8.063 1.14.19.333.12.616.293.85.52.233.227.413.5.54.82.126.32.19.68.19 1.08 0 .433-.03.817-.09 1.15-.06.333-.12.607-.18.82h-7.45l-.16-.93h2.79zm4.16 0c.026-.093.053-.223.08-.39.02-.173.03-.387.03-.64 0-.5-.164-.9-.49-1.2-.334-.3-.804-.45-1.41-.45-.267 0-.517.027-.75.08-.234.053-.434.14-.6.26-.174.12-.307.277-.4.47-.1.187-.15.413-.15.68 0 .253.043.487.13.7.086.213.176.377.27.49h3.29zm-1.78-4.669c-.46 0-.86-.066-1.2-.2a2.494 2.494 0 01-.86-.53 2.14 2.14 0 01-.51-.76 2.358 2.358 0 01-.17-.88c0-.7.22-1.236.66-1.61.433-.373 1.096-.56 1.99-.56h.16c.06 0 .116.004.17.01v3.56c.54-.04.95-.196 1.23-.47.28-.273.42-.7.42-1.28 0-.326-.027-.6-.08-.82a3.277 3.277 0 00-.17-.51l.78-.13c.06.114.123.314.19.6.066.28.1.6.1.96 0 .454-.067.847-.2 1.18-.14.327-.33.597-.57.81-.24.214-.524.374-.85.48-.334.1-.697.15-1.09.15zm-.51-3.57c-.42-.006-.764.1-1.03.32-.274.214-.41.51-.41.89a1.275 1.275 0 00.45.98c.133.114.286.204.46.27.173.06.35.1.53.12v-2.58zm-2.21-4.226c0-.08.006-.17.02-.27.006-.106.02-.21.04-.31.013-.1.03-.19.05-.27.013-.086.026-.15.04-.19l.81.16a2.653 2.653 0 00-.09.37 2.878 2.878 0 000 1.17c.033.167.056.277.07.33h4.37v.93h-4.98a5.788 5.788 0 01-.22-.82 4.99 4.99 0 01-.11-1.1zm.15-8.122c.24 0 .473.05.7.15.22.094.44.22.66.38.213.16.426.34.64.54a58 58 0 011.01 1c.153.147.313.287.48.42.166.134.326.247.48.34.153.087.286.13.4.13v-3.19h.79v4.2a.694.694 0 01-.12.01h-.11c-.314 0-.604-.05-.87-.15a3.646 3.646 0 01-.77-.41 5.308 5.308 0 01-.68-.56c-.214-.206-.42-.41-.62-.61a17.35 17.35 0 00-.47-.47 5.043 5.043 0 00-.47-.4 2.174 2.174 0 00-.49-.28 1.31 1.31 0 00-.53-.11c-.2 0-.37.034-.51.1a.964.964 0 00-.35.25.944.944 0 00-.2.38 1.647 1.647 0 00.01.98c.053.16.116.304.19.43.066.127.14.234.22.32l.17.2-.66.46a2.098 2.098 0 01-.24-.27 2.35 2.35 0 01-.28-.43 3.011 3.011 0 01-.22-.56 2.39 2.39 0 01-.09-.67c0-.726.17-1.27.51-1.63.333-.366.806-.55 1.42-.55zm1.69-1.474c-1.16 0-2.054-.203-2.68-.61-.627-.413-.94-.983-.94-1.71s.313-1.293.94-1.7c.626-.413 1.52-.62 2.68-.62 1.16 0 2.053.207 2.68.62.626.407.94.973.94 1.7s-.314 1.297-.94 1.71c-.627.407-1.52.61-2.68.61zm0-3.66c-.38 0-.74.023-1.08.07-.34.04-.637.113-.89.22-.254.1-.454.237-.6.41a.928.928 0 00-.23.64c0 .253.076.467.23.64.146.173.346.313.6.42.253.1.55.173.89.22.34.04.7.06 1.08.06.38 0 .74-.02 1.08-.06.34-.047.636-.12.89-.22.253-.107.456-.247.61-.42a.96.96 0 00.22-.64.96.96 0 00-.22-.64 1.574 1.574 0 00-.61-.41 3.276 3.276 0 00-.89-.22c-.34-.047-.7-.07-1.08-.07zm-1.69-6.155c.24 0 .473.05.7.15.22.094.44.22.66.38.213.16.426.34.64.54a58 58 0 011.01 1c.153.147.313.287.48.42.166.134.326.247.48.34.153.087.286.13.4.13v-3.19h.79v4.2a.694.694 0 01-.12.01h-.11c-.314 0-.604-.05-.87-.15a3.646 3.646 0 01-.77-.41 5.308 5.308 0 01-.68-.56c-.214-.206-.42-.41-.62-.61a17.35 17.35 0 00-.47-.47 5.043 5.043 0 00-.47-.4 2.174 2.174 0 00-.49-.28 1.31 1.31 0 00-.53-.11c-.2 0-.37.034-.51.1a.964.964 0 00-.35.25.944.944 0 00-.2.38 1.647 1.647 0 00.01.98c.053.16.116.304.19.43.066.127.14.234.22.32l.17.2-.66.46a2.098 2.098 0 01-.24-.27 2.35 2.35 0 01-.28-.43 3.011 3.011 0 01-.22-.56 2.39 2.39 0 01-.09-.67c0-.726.17-1.27.51-1.63.333-.366.806-.55 1.42-.55zm1.69-1.474c-1.16 0-2.054-.203-2.68-.61-.627-.413-.94-.983-.94-1.71s.313-1.293.94-1.7c.626-.413 1.52-.62 2.68-.62 1.16 0 2.053.207 2.68.62.626.407.94.973.94 1.7s-.314 1.297-.94 1.71c-.627.407-1.52.61-2.68.61zm0-3.66c-.38 0-.74.023-1.08.07-.34.04-.637.113-.89.22-.254.1-.454.237-.6.41a.928.928 0 00-.23.64c0 .253.076.467.23.64.146.173.346.313.6.42.253.1.55.173.89.22.34.04.7.06 1.08.06.38 0 .74-.02 1.08-.06.34-.047.636-.12.89-.22.253-.107.456-.247.61-.42a.96.96 0 00.22-.64.96.96 0 00-.22-.64 1.574 1.574 0 00-.61-.41 3.276 3.276 0 00-.89-.22c-.34-.047-.7-.07-1.08-.07zm27.5 63.531c.6 0 1.123.093 1.57.28.44.186.806.45 1.1.79.286.34.503.746.65 1.22.14.473.21.993.21 1.56 0 .28-.014.59-.04.93-.02.333-.064.636-.13.91h-6.72a5.134 5.134 0 01-.13-.91c-.027-.34-.04-.65-.04-.93 0-.567.073-1.087.22-1.56.14-.474.356-.88.65-1.22.286-.34.653-.604 1.1-.79.44-.187.96-.28 1.56-.28zm2.68 3.77c0-.92-.234-1.607-.7-2.06-.474-.454-1.134-.68-1.98-.68-.847 0-1.504.226-1.97.68-.474.453-.71 1.14-.71 2.06 0 .273.003.486.01.64.006.146.013.25.02.31h5.3c.006-.06.013-.164.02-.31.006-.154.01-.367.01-.64zm-1.8-4.859c-.46 0-.86-.067-1.2-.2a2.494 2.494 0 01-.86-.53 2.14 2.14 0 01-.51-.76 2.362 2.362 0 01-.17-.88c0-.7.22-1.237.66-1.61.433-.373 1.096-.56 1.99-.56h.16c.06 0 .116.003.17.01v3.56c.54-.04.95-.197 1.23-.47.28-.273.42-.7.42-1.28 0-.327-.027-.6-.08-.82a3.204 3.204 0 00-.17-.51l.78-.13c.06.113.123.313.19.6.066.28.1.6.1.96 0 .453-.067.847-.2 1.18-.14.327-.33.597-.57.81-.24.213-.524.373-.85.48-.334.1-.697.15-1.09.15zm-.51-3.57c-.42-.007-.764.1-1.03.32-.274.213-.41.51-.41.89a1.275 1.275 0 00.45.98c.133.113.286.203.46.27.173.06.35.1.53.12v-2.58zm3.22-4.566c0 .42-.067.79-.2 1.11-.134.313-.32.58-.56.8-.24.213-.524.373-.85.48-.334.107-.7.16-1.1.16-.4 0-.767-.057-1.1-.17a2.606 2.606 0 01-.86-.5 2.137 2.137 0 01-.57-.78 2.52 2.52 0 01-.21-1.04c0-.233.02-.467.06-.7a3.2 3.2 0 01.19-.67l.79.21c-.067.14-.12.303-.16.49-.04.18-.06.373-.06.58 0 .52.163.92.49 1.2.326.273.803.41 1.43.41.28 0 .536-.03.77-.09.233-.067.433-.167.6-.3.166-.14.296-.317.39-.53.086-.213.13-.473.13-.78 0-.247-.024-.47-.07-.67a2.49 2.49 0 00-.15-.47l.78-.13c.033.053.066.13.1.23.026.1.05.213.07.34.026.127.046.263.06.41.02.14.03.277.03.41zm-2.71-2.099c-.46 0-.86-.066-1.2-.2a2.494 2.494 0 01-.86-.53 2.14 2.14 0 01-.51-.76 2.358 2.358 0 01-.17-.88c0-.7.22-1.236.66-1.61.433-.373 1.096-.56 1.99-.56h.16c.06 0 .116.004.17.01v3.56c.54-.04.95-.196 1.23-.47.28-.273.42-.7.42-1.28 0-.326-.027-.6-.08-.82a3.277 3.277 0 00-.17-.51l.78-.13c.06.114.123.314.19.6.066.28.1.6.1.96 0 .454-.067.847-.2 1.18-.14.327-.33.597-.57.81-.24.214-.524.374-.85.48-.334.1-.697.15-1.09.15zm-.51-3.57c-.42-.006-.764.1-1.03.32-.274.214-.41.51-.41.89a1.275 1.275 0 00.45.98c.133.114.286.204.46.27.173.06.35.1.53.12v-2.58zm-1.95-2.305c-.054-.214-.11-.494-.17-.84a7.36 7.36 0 01-.09-1.22c0-.334.046-.614.14-.84a1.41 1.41 0 01.39-.57 3.38 3.38 0 01-.14-.22c-.06-.1-.117-.224-.17-.37-.06-.147-.11-.31-.15-.49a2.293 2.293 0 01-.07-.58c0-.4.06-.727.18-.98a1.33 1.33 0 01.49-.59 1.81 1.81 0 01.76-.29 5.31 5.31 0 01.96-.08h2.92v.93h-2.72c-.307 0-.57.016-.79.05-.22.026-.404.083-.55.17a.712.712 0 00-.32.34c-.074.14-.11.323-.11.55 0 .313.043.573.13.78.08.2.153.336.22.41a3.29 3.29 0 01.57-.12c.206-.027.423-.04.65-.04h2.92v.93h-2.72c-.307 0-.57.016-.79.05-.22.033-.404.093-.55.18a.712.712 0 00-.32.34c-.074.14-.11.32-.11.54a4.595 4.595 0 00.04.61c.006.093.016.18.03.26.013.08.023.133.03.16h4.39v.93h-5.05zm.08-9.544a2.477 2.477 0 01-.35-1.31c0-.373.066-.703.2-.99.133-.293.32-.54.56-.74.24-.2.526-.35.86-.45.333-.106.7-.16 1.1-.16.42 0 .8.064 1.14.19.333.12.616.294.85.52.233.227.413.5.54.82.126.32.19.68.19 1.08 0 .434-.03.817-.09 1.15a8.96 8.96 0 01-.18.82h-7.45l-.16-.93h2.79zm4.16 0c.026-.093.053-.223.08-.39.02-.173.03-.386.03-.64 0-.5-.164-.9-.49-1.2-.334-.3-.804-.45-1.41-.45-.267 0-.517.027-.75.08a1.64 1.64 0 00-.6.26c-.174.12-.307.277-.4.47-.1.187-.15.414-.15.68 0 .254.043.487.13.7.086.214.176.377.27.49h3.29zm-1.78-4.668c-.46 0-.86-.067-1.2-.2a2.51 2.51 0 01-.86-.53 2.149 2.149 0 01-.51-.76 2.362 2.362 0 01-.17-.88c0-.7.22-1.237.66-1.61.433-.374 1.096-.56 1.99-.56h.16c.06 0 .116.003.17.01v3.56c.54-.04.95-.197 1.23-.47.28-.274.42-.7.42-1.28 0-.327-.027-.6-.08-.82a3.204 3.204 0 00-.17-.51l.78-.13c.06.113.123.313.19.6.066.28.1.6.1.96 0 .453-.067.846-.2 1.18-.14.326-.33.596-.57.81-.24.213-.524.373-.85.48-.334.1-.697.15-1.09.15zm-.51-3.57c-.42-.007-.764.1-1.03.32-.274.213-.41.51-.41.89 0 .213.043.403.13.57.08.16.186.296.32.41.133.113.286.203.46.27.173.06.35.1.53.12v-2.58zm-2.21-4.226c0-.08.006-.17.02-.27.006-.107.02-.21.04-.31.013-.1.03-.19.05-.27.013-.087.026-.15.04-.19l.81.16a2.58 2.58 0 00-.09.37c-.04.166-.06.383-.06.65 0 .173.02.346.06.52.033.166.056.276.07.33h4.37v.93h-4.98a5.825 5.825 0 01-.22-.82 5.002 5.002 0 01-.11-1.1zm.15-8.122c.24 0 .473.05.7.15.22.093.44.22.66.38.213.16.426.34.64.54.206.2.41.4.61.6l.4.4c.153.146.313.286.48.42.166.133.326.246.48.34.153.086.286.13.4.13v-3.19h.79v4.2a.81.81 0 01-.12.01h-.11c-.314 0-.604-.05-.87-.15a3.74 3.74 0 01-.77-.41 5.481 5.481 0 01-.68-.56c-.214-.207-.42-.41-.62-.61a14.87 14.87 0 00-.47-.47 4.756 4.756 0 00-.47-.4 2.137 2.137 0 00-.49-.28 1.294 1.294 0 00-.53-.11c-.2 0-.37.033-.51.1a.931.931 0 00-.55.63 1.651 1.651 0 00.01.98c.053.16.116.303.19.43.066.126.14.233.22.32l.17.2-.66.46a2.098 2.098 0 01-.24-.27c-.1-.12-.194-.264-.28-.43a3.067 3.067 0 01-.22-.56c-.06-.207-.09-.43-.09-.67 0-.727.17-1.27.51-1.63.333-.367.806-.55 1.42-.55zm1.69-1.475c-1.16 0-2.054-.203-2.68-.61-.627-.413-.94-.983-.94-1.71 0-.726.313-1.293.94-1.7.626-.413 1.52-.62 2.68-.62 1.16 0 2.053.207 2.68.62.626.407.94.974.94 1.7 0 .727-.314 1.297-.94 1.71-.627.407-1.52.61-2.68.61zm0-3.66c-.38 0-.74.024-1.08.07-.34.04-.637.114-.89.22-.254.1-.454.237-.6.41a.93.93 0 00-.23.64c0 .254.076.467.23.64.146.174.346.314.6.42.253.1.55.174.89.22.34.04.7.06 1.08.06.38 0 .74-.02 1.08-.06.34-.046.636-.12.89-.22.253-.106.456-.246.61-.42a.959.959 0 00.22-.64.962.962 0 00-.22-.64 1.574 1.574 0 00-.61-.41 3.313 3.313 0 00-.89-.22c-.34-.046-.7-.07-1.08-.07zm-1.69-6.154c.24 0 .473.05.7.15.22.093.44.22.66.38.213.16.426.34.64.54.206.2.41.4.61.6l.4.4c.153.146.313.286.48.42.166.133.326.246.48.34.153.086.286.13.4.13v-3.19h.79v4.2a.81.81 0 01-.12.01h-.11c-.314 0-.604-.05-.87-.15a3.74 3.74 0 01-.77-.41 5.481 5.481 0 01-.68-.56c-.214-.207-.42-.41-.62-.61a14.87 14.87 0 00-.47-.47 4.756 4.756 0 00-.47-.4 2.137 2.137 0 00-.49-.28 1.294 1.294 0 00-.53-.11c-.2 0-.37.033-.51.1a.931.931 0 00-.55.63 1.651 1.651 0 00.01.98c.053.16.116.303.19.43.066.126.14.233.22.32l.17.2-.66.46a2.098 2.098 0 01-.24-.27c-.1-.12-.194-.264-.28-.43a3.067 3.067 0 01-.22-.56c-.06-.207-.09-.43-.09-.67 0-.727.17-1.27.51-1.63.333-.367.806-.55 1.42-.55zm1.69-1.475c-1.16 0-2.054-.203-2.68-.61-.627-.413-.94-.983-.94-1.71 0-.726.313-1.293.94-1.7.626-.413 1.52-.62 2.68-.62 1.16 0 2.053.207 2.68.62.626.407.94.974.94 1.7 0 .727-.314 1.297-.94 1.71-.627.407-1.52.61-2.68.61zm0-3.66c-.38 0-.74.024-1.08.07-.34.04-.637.114-.89.22-.254.1-.454.237-.6.41a.93.93 0 00-.23.64c0 .254.076.467.23.64.146.174.346.314.6.42.253.1.55.174.89.22.34.04.7.06 1.08.06.38 0 .74-.02 1.08-.06.34-.046.636-.12.89-.22.253-.106.456-.246.61-.42a.959.959 0 00.22-.64.962.962 0 00-.22-.64 1.574 1.574 0 00-.61-.41 3.313 3.313 0 00-.89-.22c-.34-.046-.7-.07-1.08-.07zm28.74 55.154c.333 0 .643.036.93.11.286.066.54.19.76.37.213.173.383.41.51.71.12.293.18.663.18 1.11 0 .226-.02.436-.06.63a3.509 3.509 0 01-.13.51c-.06.153-.12.286-.18.4a1.74 1.74 0 01-.19.27l-.77-.38c.1-.14.206-.32.32-.54.106-.227.16-.507.16-.84 0-.48-.12-.83-.36-1.05-.247-.22-.667-.33-1.26-.33h-4.61v-.97h4.7zm1.56-3.37c0-.22-.004-.414-.01-.58a3.065 3.065 0 00-.06-.43h-1.55a1.09 1.09 0 00-.08.33 3.64 3.64 0 00-.01.99c.02.153.063.296.13.43.06.126.146.233.26.32.106.086.25.13.43.13.333 0 .566-.107.7-.32.126-.214.19-.504.19-.87zm-4.66.08c0-.374.05-.687.15-.94.093-.26.23-.467.41-.62a1.47 1.47 0 01.63-.34c.24-.067.506-.1.8-.1h3.25c.013.08.033.193.06.34a13.184 13.184 0 01.11 1.07c.02.206.03.413.03.62 0 .293-.03.563-.09.81-.06.246-.154.46-.28.64-.134.18-.307.32-.52.42-.214.1-.47.15-.77.15-.287 0-.534-.057-.74-.17a1.428 1.428 0 01-.5-.48c-.127-.2-.22-.434-.28-.7a3.821 3.821 0 01-.09-.84c0-.094.006-.19.02-.29.006-.1.02-.194.04-.28a3.506 3.506 0 01.07-.38h-.26c-.154 0-.304.016-.45.05a.982.982 0 00-.4.18.837.837 0 00-.28.36c-.074.146-.11.34-.11.58 0 .306.023.576.07.81.04.226.083.396.13.51l-.77.11c-.054-.12-.104-.32-.15-.6a4.816 4.816 0 01-.08-.91zm.28-3.545c-.054-.213-.11-.497-.17-.85-.06-.353-.09-.76-.09-1.22 0-.413.06-.757.18-1.03.113-.273.276-.49.49-.65.206-.167.456-.283.75-.35.293-.067.616-.1.97-.1h2.92v.93h-2.72a4.1 4.1 0 00-.82.07c-.227.04-.41.11-.55.21a.82.82 0 00-.3.4 1.67 1.67 0 00-.1.62 4.736 4.736 0 00.04.62c.006.093.016.18.03.26l.03.16h4.39v.93h-5.05zm4.9-9.882c.053.213.11.497.17.85.06.347.09.75.09 1.21 0 .4-.057.737-.17 1.01a1.68 1.68 0 01-.5.66 2.011 2.011 0 01-.75.36 4.02 4.02 0 01-.97.11h-2.92v-.93h2.72c.633 0 1.086-.1 1.36-.3.273-.2.41-.537.41-1.01 0-.1-.004-.203-.01-.31l-.02-.3a3.787 3.787 0 01-.03-.25 1 1 0 00-.04-.17h-4.39v-.93h5.05zm-.52-3.362c0-.22-.004-.414-.01-.58a3.065 3.065 0 00-.06-.43h-1.55a1.09 1.09 0 00-.08.33 3.64 3.64 0 00-.01.99c.02.153.063.296.13.43.06.126.146.233.26.32.106.086.25.13.43.13.333 0 .566-.107.7-.32.126-.214.19-.504.19-.87zm-4.66.08c0-.374.05-.687.15-.94.093-.26.23-.467.41-.62a1.47 1.47 0 01.63-.34c.24-.067.506-.1.8-.1h3.25c.013.08.033.193.06.34a13.184 13.184 0 01.11 1.07c.02.206.03.413.03.62 0 .293-.03.563-.09.81-.06.246-.154.46-.28.64-.134.18-.307.32-.52.42-.214.1-.47.15-.77.15-.287 0-.534-.057-.74-.17a1.428 1.428 0 01-.5-.48c-.127-.2-.22-.434-.28-.7a3.821 3.821 0 01-.09-.84c0-.094.006-.19.02-.29.006-.1.02-.194.04-.28a3.506 3.506 0 01.07-.38h-.26c-.154 0-.304.016-.45.05a.982.982 0 00-.4.18.837.837 0 00-.28.36c-.074.146-.11.34-.11.58 0 .306.023.576.07.81.04.226.083.396.13.51l-.77.11c-.054-.12-.104-.32-.15-.6a4.816 4.816 0 01-.08-.91zm.02-5.465c0-.08.006-.17.02-.27.006-.106.02-.21.04-.31.013-.1.03-.19.05-.27.013-.086.026-.15.04-.19l.81.16a2.653 2.653 0 00-.09.37 2.878 2.878 0 000 1.17c.033.167.056.277.07.33h4.37v.93h-4.98a5.788 5.788 0 01-.22-.82 4.99 4.99 0 01-.11-1.1zm6.28-1.542c.033-.073.063-.167.09-.28.033-.12.05-.237.05-.35 0-.367-.084-.653-.25-.86-.16-.207-.424-.393-.79-.56-.8.42-1.647.813-2.54 1.18-.9.36-1.81.66-2.73.9v-1c.3-.073.623-.16.97-.26.346-.107.703-.223 1.07-.35a24.98 24.98 0 001.1-.41c.366-.147.72-.3 1.06-.46a27.06 27.06 0 00-2.08-.66 55.15 55.15 0 00-2.12-.53v-.96c.98.24 1.923.507 2.83.8.9.293 1.743.61 2.53.95.3.133.556.273.77.42.22.14.4.297.54.47s.243.37.31.59c.066.213.1.457.1.73 0 .073-.007.15-.02.23-.007.08-.02.16-.04.24a2.15 2.15 0 01-.05.21 1.18 1.18 0 01-.05.13l-.75-.17zm-6.13-11.765c.24 0 .473.05.7.15.22.093.44.22.66.38.213.16.426.34.64.54.206.2.41.4.61.6l.4.4c.153.146.313.286.48.42.166.133.326.246.48.34.153.086.286.13.4.13v-3.19h.79v4.2a.81.81 0 01-.12.01h-.11c-.314 0-.604-.05-.87-.15a3.74 3.74 0 01-.77-.41 5.481 5.481 0 01-.68-.56c-.214-.207-.42-.41-.62-.61a14.87 14.87 0 00-.47-.47 4.756 4.756 0 00-.47-.4 2.137 2.137 0 00-.49-.28 1.294 1.294 0 00-.53-.11c-.2 0-.37.033-.51.1a.931.931 0 00-.55.63 1.651 1.651 0 00.01.98c.053.16.116.303.19.43.066.126.14.233.22.32l.17.2-.66.46a2.098 2.098 0 01-.24-.27c-.1-.12-.194-.264-.28-.43a3.067 3.067 0 01-.22-.56c-.06-.207-.09-.43-.09-.67 0-.727.17-1.27.51-1.63.333-.367.806-.55 1.42-.55zm1.69-1.475c-1.16 0-2.054-.203-2.68-.61-.627-.413-.94-.983-.94-1.71 0-.726.313-1.293.94-1.7.626-.413 1.52-.62 2.68-.62 1.16 0 2.053.207 2.68.62.626.407.94.974.94 1.7 0 .727-.314 1.297-.94 1.71-.627.407-1.52.61-2.68.61zm0-3.66c-.38 0-.74.024-1.08.07-.34.04-.637.114-.89.22-.254.1-.454.237-.6.41a.93.93 0 00-.23.64c0 .254.076.467.23.64.146.174.346.314.6.42.253.1.55.174.89.22.34.04.7.06 1.08.06.38 0 .74-.02 1.08-.06.34-.046.636-.12.89-.22.253-.106.456-.246.61-.42a.959.959 0 00.22-.64.962.962 0 00-.22-.64 1.574 1.574 0 00-.61-.41 3.313 3.313 0 00-.89-.22c-.34-.046-.7-.07-1.08-.07zm-1.69-6.154c.24 0 .473.05.7.15.22.093.44.22.66.38.213.16.426.34.64.54.206.2.41.4.61.6l.4.4c.153.146.313.286.48.42.166.133.326.246.48.34.153.086.286.13.4.13v-3.19h.79v4.2a.81.81 0 01-.12.01h-.11c-.314 0-.604-.05-.87-.15a3.74 3.74 0 01-.77-.41 5.481 5.481 0 01-.68-.56c-.214-.207-.42-.41-.62-.61a14.87 14.87 0 00-.47-.47 4.756 4.756 0 00-.47-.4 2.137 2.137 0 00-.49-.28 1.294 1.294 0 00-.53-.11c-.2 0-.37.033-.51.1a.931.931 0 00-.55.63 1.651 1.651 0 00.01.98c.053.16.116.303.19.43.066.126.14.233.22.32l.17.2-.66.46a2.098 2.098 0 01-.24-.27c-.1-.12-.194-.264-.28-.43a3.067 3.067 0 01-.22-.56c-.06-.207-.09-.43-.09-.67 0-.727.17-1.27.51-1.63.333-.367.806-.55 1.42-.55zm-.34-1.905a6.492 6.492 0 00-.56-1.11 4.701 4.701 0 00-.87-.99v-.66h6.93v.93h-5.64c.073.08.15.18.23.3a5.387 5.387 0 01.44.81c.066.147.123.29.17.43l-.7.29zm33 60.095h-6.93v-4.18h.83v3.21h2.09v-2.85h.82v2.85h3.19v.97zm-2.59-4.885c-.46 0-.86-.066-1.2-.2a2.494 2.494 0 01-.86-.53 2.14 2.14 0 01-.51-.76 2.358 2.358 0 01-.17-.88c0-.7.22-1.236.66-1.61.433-.373 1.096-.56 1.99-.56h.16c.06 0 .116.004.17.01v3.56c.54-.04.95-.196 1.23-.47.28-.273.42-.7.42-1.28 0-.326-.027-.6-.08-.82a3.277 3.277 0 00-.17-.51l.78-.13c.06.114.123.314.19.6.066.28.1.6.1.96 0 .454-.067.847-.2 1.18-.14.327-.33.597-.57.81-.24.214-.524.374-.85.48-.334.1-.697.15-1.09.15zm-.51-3.57c-.42-.006-.764.1-1.03.32-.274.214-.41.51-.41.89a1.275 1.275 0 00.45.98c.133.114.286.204.46.27.173.06.35.1.53.12v-2.58zm-1.87-3.236a2.477 2.477 0 01-.35-1.31c0-.373.066-.703.2-.99.133-.293.32-.54.56-.74.24-.2.526-.35.86-.45.333-.106.7-.16 1.1-.16.42 0 .8.064 1.14.19.333.12.616.294.85.52.233.227.413.5.54.82.126.32.19.68.19 1.08 0 .434-.03.817-.09 1.15a8.96 8.96 0 01-.18.82h-7.45l-.16-.93h2.79zm4.16 0c.026-.093.053-.223.08-.39.02-.173.03-.386.03-.64 0-.5-.164-.9-.49-1.2-.334-.3-.804-.45-1.41-.45-.267 0-.517.027-.75.08a1.64 1.64 0 00-.6.26c-.174.12-.307.277-.4.47-.1.187-.15.414-.15.68 0 .254.043.487.13.7.086.214.176.377.27.49h3.29zm-4.5-6.878c0-.08.006-.17.02-.27.006-.107.02-.21.04-.31.013-.1.03-.19.05-.27.013-.087.026-.15.04-.19l.81.16a2.58 2.58 0 00-.09.37c-.04.166-.06.383-.06.65 0 .173.02.346.06.52.033.166.056.276.07.33h4.37v.93h-4.98a5.825 5.825 0 01-.22-.82 5.002 5.002 0 01-.11-1.1zm5.16-6.078c.053.214.11.497.17.85.06.347.09.75.09 1.21 0 .4-.057.737-.17 1.01-.12.274-.287.494-.5.66a2.011 2.011 0 01-.75.36c-.294.074-.617.11-.97.11h-2.92v-.93h2.72c.633 0 1.086-.1 1.36-.3.273-.2.41-.536.41-1.01 0-.1-.004-.203-.01-.31l-.02-.3a3.71 3.71 0 01-.03-.25 1.025 1.025 0 00-.04-.17h-4.39v-.93h5.05zm-.52-3.362c0-.22-.004-.413-.01-.58a3.087 3.087 0 00-.06-.43h-1.55c-.034.067-.06.177-.08.33a3.64 3.64 0 00-.01.99c.02.153.063.297.13.43.06.127.146.233.26.32.106.087.25.13.43.13.333 0 .566-.107.7-.32.126-.213.19-.503.19-.87zm-4.66.08c0-.373.05-.687.15-.94.093-.26.23-.467.41-.62.173-.16.383-.273.63-.34.24-.067.506-.1.8-.1h3.25c.013.08.033.193.06.34a13.312 13.312 0 01.11 1.07c.02.207.03.413.03.62 0 .293-.03.563-.09.81-.06.247-.154.46-.28.64-.134.18-.307.32-.52.42-.214.1-.47.15-.77.15-.287 0-.534-.057-.74-.17a1.428 1.428 0 01-.5-.48c-.127-.2-.22-.433-.28-.7a3.821 3.821 0 01-.09-.84c0-.093.006-.19.02-.29a1.7 1.7 0 01.04-.28 3.729 3.729 0 01.07-.38h-.26c-.154 0-.304.017-.45.05a.982.982 0 00-.4.18.849.849 0 00-.28.36c-.074.147-.11.34-.11.58 0 .307.023.577.07.81.04.227.083.397.13.51l-.77.11c-.054-.12-.104-.32-.15-.6a4.809 4.809 0 01-.08-.91zm.02-5.465c0-.08.006-.17.02-.27.006-.106.02-.21.04-.31.013-.1.03-.19.05-.27.013-.086.026-.15.04-.19l.81.16a2.653 2.653 0 00-.09.37 2.878 2.878 0 000 1.17c.033.167.056.277.07.33h4.37v.93h-4.98a5.788 5.788 0 01-.22-.82 4.99 4.99 0 01-.11-1.1zm6.28-1.542c.033-.073.063-.167.09-.28.033-.12.05-.237.05-.35 0-.367-.084-.653-.25-.86-.16-.207-.424-.393-.79-.56-.8.42-1.647.813-2.54 1.18-.9.36-1.81.66-2.73.9v-1c.3-.073.623-.16.97-.26.346-.107.703-.223 1.07-.35a24.98 24.98 0 001.1-.41c.366-.147.72-.3 1.06-.46a27.06 27.06 0 00-2.08-.66 55.15 55.15 0 00-2.12-.53v-.96c.98.24 1.923.507 2.83.8.9.293 1.743.61 2.53.95.3.133.556.273.77.42.22.14.4.297.54.47s.243.37.31.59c.066.213.1.457.1.73 0 .073-.007.15-.02.23-.007.08-.02.16-.04.24a2.15 2.15 0 01-.05.21 1.18 1.18 0 01-.05.13l-.75-.17zm-6.13-11.765c.24 0 .473.05.7.15.22.093.44.22.66.38.213.16.426.34.64.54.206.2.41.4.61.6l.4.4c.153.147.313.287.48.42.166.133.326.247.48.34.153.087.286.13.4.13v-3.19h.79v4.2a.694.694 0 01-.12.01h-.11c-.314 0-.604-.05-.87-.15a3.692 3.692 0 01-.77-.41 5.393 5.393 0 01-.68-.56c-.214-.207-.42-.41-.62-.61-.16-.167-.317-.323-.47-.47a4.895 4.895 0 00-.47-.4 2.174 2.174 0 00-.49-.28 1.31 1.31 0 00-.53-.11c-.2 0-.37.033-.51.1a.938.938 0 00-.55.63 1.651 1.651 0 00.01.98c.053.16.116.303.19.43.066.127.14.233.22.32l.17.2-.66.46a2.098 2.098 0 01-.24-.27 2.35 2.35 0 01-.28-.43 3.04 3.04 0 01-.22-.56c-.06-.207-.09-.43-.09-.67 0-.727.17-1.27.51-1.63.333-.367.806-.55 1.42-.55zm1.69-1.475c-1.16 0-2.054-.203-2.68-.61-.627-.413-.94-.983-.94-1.71 0-.726.313-1.293.94-1.7.626-.413 1.52-.62 2.68-.62 1.16 0 2.053.207 2.68.62.626.407.94.974.94 1.7 0 .727-.314 1.297-.94 1.71-.627.407-1.52.61-2.68.61zm0-3.66c-.38 0-.74.024-1.08.07-.34.04-.637.114-.89.22-.254.1-.454.237-.6.41a.93.93 0 00-.23.64c0 .254.076.467.23.64.146.174.346.314.6.42.253.1.55.174.89.22.34.04.7.06 1.08.06.38 0 .74-.02 1.08-.06.34-.046.636-.12.89-.22.253-.106.456-.246.61-.42a.959.959 0 00.22-.64.962.962 0 00-.22-.64 1.574 1.574 0 00-.61-.41 3.313 3.313 0 00-.89-.22c-.34-.046-.7-.07-1.08-.07zm-1.69-6.154c.24 0 .473.05.7.15.22.093.44.22.66.38.213.16.426.34.64.54.206.2.41.4.61.6l.4.4c.153.147.313.287.48.42.166.133.326.247.48.34.153.087.286.13.4.13v-3.19h.79v4.2a.694.694 0 01-.12.01h-.11c-.314 0-.604-.05-.87-.15a3.692 3.692 0 01-.77-.41 5.393 5.393 0 01-.68-.56c-.214-.207-.42-.41-.62-.61-.16-.167-.317-.323-.47-.47a4.895 4.895 0 00-.47-.4 2.174 2.174 0 00-.49-.28 1.31 1.31 0 00-.53-.11c-.2 0-.37.033-.51.1a.938.938 0 00-.55.63 1.651 1.651 0 00.01.98c.053.16.116.303.19.43.066.127.14.233.22.32l.17.2-.66.46a2.098 2.098 0 01-.24-.27 2.35 2.35 0 01-.28-.43 3.04 3.04 0 01-.22-.56c-.06-.207-.09-.43-.09-.67 0-.727.17-1.27.51-1.63.333-.367.806-.55 1.42-.55zm-.34-1.905a6.492 6.492 0 00-.56-1.11 4.701 4.701 0 00-.87-.99v-.66h6.93v.93h-5.64c.073.08.15.18.23.3.08.114.156.24.23.38.073.134.143.277.21.43.066.147.123.29.17.43l-.7.29zm32.04 44.574c-.16.066-.364.156-.61.27-.247.106-.514.223-.8.35-.287.126-.58.263-.88.41-.307.14-.594.273-.86.4-.274.126-.517.246-.73.36a7.792 7.792 0 00-.49.26c.786.073 1.64.133 2.56.18.913.046 1.836.086 2.77.12v.95c-.6-.027-1.204-.057-1.81-.09-.614-.034-1.214-.07-1.8-.11-.594-.047-1.17-.094-1.73-.14-.56-.054-1.09-.11-1.59-.17v-.85c.293-.18.64-.374 1.04-.58.4-.207.82-.414 1.26-.62.433-.207.87-.407 1.31-.6.433-.194.83-.37 1.19-.53l-1.19-.53a50.06 50.06 0 01-2.57-1.22c-.4-.207-.747-.4-1.04-.58v-.85c2.233-.227 4.543-.397 6.93-.51v.95c-.934.033-1.857.073-2.77.12a58.73 58.73 0 00-2.56.18c.113.066.276.156.49.27.213.106.456.223.73.35l.86.41c.3.14.593.273.88.4.286.126.553.246.8.36.246.106.45.193.61.26v.78zm.29-7.301c0-.22-.004-.414-.01-.58a3.065 3.065 0 00-.06-.43h-1.55a1.09 1.09 0 00-.08.33 3.64 3.64 0 00-.01.99c.02.153.063.296.13.43.06.126.146.233.26.32.106.086.25.13.43.13.333 0 .566-.107.7-.32.126-.214.19-.504.19-.87zm-4.66.08c0-.374.05-.687.15-.94.093-.26.23-.467.41-.62a1.47 1.47 0 01.63-.34c.24-.067.506-.1.8-.1h3.25c.013.08.033.193.06.34a13.184 13.184 0 01.11 1.07c.02.206.03.413.03.62 0 .293-.03.563-.09.81-.06.246-.154.46-.28.64-.134.18-.307.32-.52.42-.214.1-.47.15-.77.15-.287 0-.534-.057-.74-.17a1.428 1.428 0 01-.5-.48c-.127-.2-.22-.434-.28-.7a3.821 3.821 0 01-.09-.84c0-.094.006-.19.02-.29.006-.1.02-.194.04-.28a3.506 3.506 0 01.07-.38h-.26c-.154 0-.304.016-.45.05a.982.982 0 00-.4.18.837.837 0 00-.28.36c-.074.146-.11.34-.11.58 0 .306.023.576.07.81.04.226.083.396.13.51l-.77.11c-.054-.12-.104-.32-.15-.6a4.816 4.816 0 01-.08-.91zm.02-5.465c0-.08.006-.17.02-.27.006-.107.02-.21.04-.31.013-.1.03-.19.05-.27.013-.087.026-.15.04-.19l.81.16a2.616 2.616 0 00-.09.37 2.872 2.872 0 000 1.17c.033.167.056.277.07.33h4.37v.93h-4.98a5.788 5.788 0 01-.22-.82 4.996 4.996 0 01-.11-1.1zm5.43-4.197c0 .42-.067.79-.2 1.11-.134.313-.32.58-.56.8-.24.213-.524.373-.85.48-.334.106-.7.16-1.1.16-.4 0-.767-.057-1.1-.17a2.606 2.606 0 01-.86-.5 2.153 2.153 0 01-.57-.78c-.14-.314-.21-.66-.21-1.04 0-.234.02-.467.06-.7.04-.234.103-.457.19-.67l.79.21c-.067.14-.12.303-.16.49-.04.18-.06.373-.06.58 0 .52.163.92.49 1.2.326.273.803.41 1.43.41.28 0 .536-.03.77-.09.233-.067.433-.167.6-.3.166-.14.296-.317.39-.53.086-.214.13-.474.13-.78 0-.247-.024-.47-.07-.67a2.49 2.49 0 00-.15-.47l.78-.13c.033.053.066.13.1.23.026.1.05.213.07.34.026.126.046.263.06.41.02.14.03.276.03.41zm-.12-2.389h-7.6l-.16-.93h2.66a2.833 2.833 0 01-.15-.55c-.04-.2-.06-.396-.06-.59 0-.413.06-.756.18-1.03.113-.273.276-.49.49-.65a1.82 1.82 0 01.75-.35c.293-.066.616-.1.97-.1h2.92v.93h-2.72c-.32 0-.594.024-.82.07-.227.04-.41.11-.55.21-.14.1-.24.234-.3.4-.067.167-.1.374-.1.62 0 .1.006.204.02.31.013.107.03.21.05.31.013.094.03.18.05.26.02.074.036.127.05.16h4.32v.93zm-5.16-11.897c.24 0 .473.05.7.15.22.093.44.22.66.38.213.16.426.34.64.54.206.2.41.4.61.6l.4.4c.153.147.313.287.48.42.166.133.326.247.48.34.153.087.286.13.4.13v-3.19h.79v4.2a.694.694 0 01-.12.01h-.11c-.314 0-.604-.05-.87-.15a3.692 3.692 0 01-.77-.41 5.393 5.393 0 01-.68-.56c-.214-.207-.42-.41-.62-.61-.16-.167-.317-.323-.47-.47a4.895 4.895 0 00-.47-.4 2.174 2.174 0 00-.49-.28 1.31 1.31 0 00-.53-.11c-.2 0-.37.033-.51.1a.938.938 0 00-.55.63 1.651 1.651 0 00.01.98c.053.16.116.303.19.43.066.127.14.233.22.32l.17.2-.66.46a2.098 2.098 0 01-.24-.27 2.35 2.35 0 01-.28-.43 3.04 3.04 0 01-.22-.56c-.06-.207-.09-.43-.09-.67 0-.727.17-1.27.51-1.63.333-.367.806-.55 1.42-.55zm1.69-1.475c-1.16 0-2.054-.203-2.68-.61-.627-.413-.94-.983-.94-1.71 0-.726.313-1.293.94-1.7.626-.413 1.52-.62 2.68-.62 1.16 0 2.053.207 2.68.62.626.407.94.974.94 1.7 0 .727-.314 1.297-.94 1.71-.627.407-1.52.61-2.68.61zm0-3.66c-.38 0-.74.024-1.08.07-.34.04-.637.114-.89.22-.254.1-.454.237-.6.41a.93.93 0 00-.23.64c0 .254.076.467.23.64.146.174.346.314.6.42.253.1.55.174.89.22.34.04.7.06 1.08.06.38 0 .74-.02 1.08-.06.34-.046.636-.12.89-.22.253-.106.456-.246.61-.42a.959.959 0 00.22-.64.962.962 0 00-.22-.64 1.574 1.574 0 00-.61-.41 3.313 3.313 0 00-.89-.22c-.34-.046-.7-.07-1.08-.07zm-1.69-6.154c.24 0 .473.05.7.15.22.093.44.22.66.38.213.16.426.34.64.54.206.2.41.4.61.6l.4.4c.153.146.313.286.48.42.166.133.326.246.48.34.153.086.286.13.4.13v-3.19h.79v4.2a.81.81 0 01-.12.01h-.11c-.314 0-.604-.05-.87-.15a3.74 3.74 0 01-.77-.41 5.481 5.481 0 01-.68-.56c-.214-.207-.42-.41-.62-.61a14.87 14.87 0 00-.47-.47 4.756 4.756 0 00-.47-.4 2.137 2.137 0 00-.49-.28 1.294 1.294 0 00-.53-.11c-.2 0-.37.033-.51.1a.931.931 0 00-.55.63 1.651 1.651 0 00.01.98c.053.16.116.303.19.43.066.126.14.233.22.32l.17.2-.66.46a2.098 2.098 0 01-.24-.27c-.1-.12-.194-.264-.28-.43a3.067 3.067 0 01-.22-.56c-.06-.207-.09-.43-.09-.67 0-.727.17-1.27.51-1.63.333-.367.806-.55 1.42-.55zm1.69-1.475c-1.16 0-2.054-.203-2.68-.61-.627-.413-.94-.983-.94-1.71 0-.726.313-1.293.94-1.7.626-.413 1.52-.62 2.68-.62 1.16 0 2.053.207 2.68.62.626.407.94.974.94 1.7 0 .727-.314 1.297-.94 1.71-.627.407-1.52.61-2.68.61zm0-3.66c-.38 0-.74.024-1.08.07-.34.04-.637.114-.89.22-.254.1-.454.237-.6.41a.93.93 0 00-.23.64c0 .254.076.467.23.64.146.174.346.314.6.42.253.1.55.174.89.22.34.04.7.06 1.08.06.38 0 .74-.02 1.08-.06.34-.046.636-.12.89-.22.253-.106.456-.246.61-.42a.959.959 0 00.22-.64.962.962 0 00-.22-.64 1.574 1.574 0 00-.61-.41 3.313 3.313 0 00-.89-.22c-.34-.046-.7-.07-1.08-.07zm30.97 39.316c-.3.113-.594.22-.88.32-.294.1-.59.203-.89.31v3.14l1.77.63v1.01a204.659 204.659 0 01-3.81-1.43c-.56-.227-1.094-.45-1.6-.67-.514-.22-1.02-.45-1.52-.69v-.89a48.473 48.473 0 013.12-1.35c.56-.227 1.153-.457 1.78-.69.62-.234 1.296-.484 2.03-.75v1.06zm-2.57.91c-.58.213-1.14.426-1.68.64-.547.206-1.07.423-1.57.65.5.233 1.023.456 1.57.67.54.206 1.1.413 1.68.62v-2.58zm-.02-6.461c-.607 0-1.074.15-1.4.45-.327.3-.49.7-.49 1.2 0 .28.01.5.03.66.02.153.043.277.07.37h3.28c.093-.113.183-.277.27-.49.086-.213.13-.447.13-.7 0-.267-.047-.493-.14-.68a1.32 1.32 0 00-.4-.47 1.75 1.75 0 00-.6-.26 3.389 3.389 0 00-.75-.08zm0-.97c.393 0 .756.053 1.09.16.333.1.62.25.86.45s.426.447.56.74c.133.287.2.617.2.99 0 .3-.04.567-.12.8-.08.227-.157.397-.23.51h2.08v.93h-6.89c-.054-.22-.11-.493-.17-.82a5.882 5.882 0 01-.1-1.15c0-.4.063-.76.19-1.08a2.3 2.3 0 01.54-.82c.233-.227.52-.4.86-.52.333-.127.71-.19 1.13-.19zm-2.72-3.229c0-.08.006-.17.02-.27.006-.106.02-.21.04-.31.013-.1.03-.19.05-.27.013-.086.026-.15.04-.19l.81.16a2.653 2.653 0 00-.09.37 2.878 2.878 0 000 1.17c.033.167.056.277.07.33h4.37v.93h-4.98a5.788 5.788 0 01-.22-.82 4.99 4.99 0 01-.11-1.1zm5.31-2.867v.93h-5.2v-.93h5.2zm-6.14.47c0 .167-.054.31-.16.43a.612.612 0 01-.45.17.575.575 0 01-.44-.17.601.601 0 01-.17-.43c0-.167.056-.307.17-.42a.557.557 0 01.44-.18c.186 0 .336.06.45.18.106.113.16.253.16.42zm6.24-3.629c-.014.573-.137.98-.37 1.22-.234.24-.597.36-1.09.36h-6.24l-.16-.93h6.25c.153 0 .28-.014.38-.04.1-.027.18-.07.24-.13a.61.61 0 00.14-.24c.026-.1.05-.224.07-.37l.78.13zm-5.26-7.359c.24 0 .473.05.7.15.22.093.44.22.66.38.213.16.426.34.64.54.206.2.41.4.61.6l.4.4c.153.146.313.286.48.42.166.133.326.246.48.34.153.086.286.13.4.13v-3.19h.79v4.2a.81.81 0 01-.12.01h-.11c-.314 0-.604-.05-.87-.15a3.74 3.74 0 01-.77-.41 5.481 5.481 0 01-.68-.56c-.214-.207-.42-.41-.62-.61a14.87 14.87 0 00-.47-.47 4.756 4.756 0 00-.47-.4 2.137 2.137 0 00-.49-.28 1.294 1.294 0 00-.53-.11c-.2 0-.37.033-.51.1a.931.931 0 00-.55.63 1.651 1.651 0 00.01.98c.053.16.116.303.19.43.066.126.14.233.22.32l.17.2-.66.46a2.098 2.098 0 01-.24-.27c-.1-.12-.194-.264-.28-.43a3.067 3.067 0 01-.22-.56c-.06-.207-.09-.43-.09-.67 0-.727.17-1.27.51-1.63.333-.367.806-.55 1.42-.55zm1.69-1.475c-1.16 0-2.054-.203-2.68-.61-.627-.413-.94-.983-.94-1.71 0-.726.313-1.293.94-1.7.626-.413 1.52-.62 2.68-.62 1.16 0 2.053.207 2.68.62.626.407.94.974.94 1.7 0 .727-.314 1.297-.94 1.71-.627.407-1.52.61-2.68.61zm0-3.66c-.38 0-.74.024-1.08.07-.34.04-.637.114-.89.22-.254.1-.454.237-.6.41a.93.93 0 00-.23.64c0 .254.076.467.23.64.146.174.346.314.6.42.253.1.55.174.89.22.34.04.7.06 1.08.06.38 0 .74-.02 1.08-.06.34-.046.636-.12.89-.22.253-.106.456-.246.61-.42a.959.959 0 00.22-.64.962.962 0 00-.22-.64 1.574 1.574 0 00-.61-.41 3.313 3.313 0 00-.89-.22c-.34-.046-.7-.07-1.08-.07zm-1.69-6.154c.24 0 .473.05.7.15.22.093.44.22.66.38.213.16.426.34.64.54.206.2.41.4.61.6l.4.4c.153.146.313.286.48.42.166.133.326.246.48.34.153.086.286.13.4.13v-3.19h.79v4.2a.81.81 0 01-.12.01h-.11c-.314 0-.604-.05-.87-.15a3.74 3.74 0 01-.77-.41 5.481 5.481 0 01-.68-.56c-.214-.207-.42-.41-.62-.61a14.87 14.87 0 00-.47-.47 4.756 4.756 0 00-.47-.4 2.137 2.137 0 00-.49-.28 1.294 1.294 0 00-.53-.11c-.2 0-.37.033-.51.1a.931.931 0 00-.55.63 1.651 1.651 0 00.01.98c.053.16.116.303.19.43.066.126.14.233.22.32l.17.2-.66.46a2.098 2.098 0 01-.24-.27c-.1-.12-.194-.264-.28-.43a3.067 3.067 0 01-.22-.56c-.06-.207-.09-.43-.09-.67 0-.727.17-1.27.51-1.63.333-.367.806-.55 1.42-.55zm-.34-1.905a6.492 6.492 0 00-.56-1.11 4.701 4.701 0 00-.87-.99v-.66h6.93v.93h-5.64c.073.08.15.18.23.3a5.387 5.387 0 01.44.81c.066.147.123.29.17.43l-.7.29zm32.04 34.908c-.16.067-.364.157-.61.27l-.8.35c-.287.127-.58.264-.88.41-.307.14-.594.274-.86.4-.274.127-.517.247-.73.36a9.025 9.025 0 00-.49.26c.786.074 1.64.134 2.56.18.913.047 1.836.087 2.77.12v.95a142.319 142.319 0 01-3.61-.2c-.594-.046-1.17-.093-1.73-.14-.56-.053-1.09-.11-1.59-.17v-.85c.293-.18.64-.373 1.04-.58a50.06 50.06 0 012.57-1.22l1.19-.53c-.36-.16-.757-.336-1.19-.53-.44-.193-.877-.393-1.31-.6-.44-.206-.86-.413-1.26-.62-.4-.206-.747-.4-1.04-.58v-.85c2.233-.226 4.543-.396 6.93-.51v.95c-.934.034-1.857.074-2.77.12-.92.047-1.774.107-2.56.18.113.067.276.157.49.27.213.107.456.224.73.35l.86.41c.3.14.593.274.88.4.286.127.553.247.8.36.246.107.45.194.61.26v.78zm.29-7.301c0-.22-.004-.413-.01-.58a3.11 3.11 0 00-.06-.43h-1.55c-.034.067-.06.177-.08.33a3.64 3.64 0 00-.01.99c.02.154.063.297.13.43.06.127.146.234.26.32.106.087.25.13.43.13.333 0 .566-.106.7-.32.126-.213.19-.503.19-.87zm-4.66.08c0-.373.05-.686.15-.94.093-.26.23-.466.41-.62.173-.16.383-.273.63-.34.24-.066.506-.1.8-.1h3.25c.013.08.033.194.06.34a13.312 13.312 0 01.11 1.07c.02.207.03.414.03.62 0 .294-.03.564-.09.81-.06.247-.154.46-.28.64-.134.18-.307.32-.52.42-.214.1-.47.15-.77.15-.287 0-.534-.056-.74-.17a1.428 1.428 0 01-.5-.48c-.127-.2-.22-.433-.28-.7a3.808 3.808 0 01-.09-.84c0-.093.006-.19.02-.29a1.7 1.7 0 01.04-.28 3.729 3.729 0 01.07-.38h-.26c-.154 0-.304.017-.45.05a1.01 1.01 0 00-.4.18.849.849 0 00-.28.36c-.074.147-.11.34-.11.58 0 .307.023.577.07.81.04.227.083.397.13.51l-.77.11c-.054-.12-.104-.32-.15-.6a4.809 4.809 0 01-.08-.91zm6.3-2.788c.033-.073.063-.166.09-.28.033-.12.05-.236.05-.35 0-.366-.084-.653-.25-.86-.16-.206-.424-.393-.79-.56-.8.42-1.647.814-2.54 1.18-.9.36-1.81.66-2.73.9v-1c.3-.073.623-.16.97-.26.346-.106.703-.223 1.07-.35a23.77 23.77 0 001.1-.41c.366-.146.72-.3 1.06-.46a27.06 27.06 0 00-2.08-.66 57.068 57.068 0 00-2.12-.53v-.96c.98.24 1.923.507 2.83.8.9.294 1.743.61 2.53.95.3.134.556.274.77.42.22.14.4.297.54.47.14.174.243.37.31.59.066.214.1.457.1.73 0 .074-.007.15-.02.23-.007.08-.02.16-.04.24a2.02 2.02 0 01-.05.21c-.02.06-.037.104-.05.13l-.75-.17zm-6.13-11.765c.24 0 .473.05.7.15.22.093.44.22.66.38.213.16.426.34.64.54.206.2.41.4.61.6l.4.4c.153.147.313.287.48.42.166.133.326.247.48.34.153.087.286.13.4.13v-3.19h.79v4.2a.694.694 0 01-.12.01h-.11c-.314 0-.604-.05-.87-.15a3.692 3.692 0 01-.77-.41 5.393 5.393 0 01-.68-.56c-.214-.207-.42-.41-.62-.61-.16-.167-.317-.323-.47-.47a4.895 4.895 0 00-.47-.4 2.174 2.174 0 00-.49-.28 1.31 1.31 0 00-.53-.11c-.2 0-.37.033-.51.1a.938.938 0 00-.55.63 1.651 1.651 0 00.01.98c.053.16.116.303.19.43.066.127.14.233.22.32l.17.2-.66.46a2.098 2.098 0 01-.24-.27 2.35 2.35 0 01-.28-.43 3.04 3.04 0 01-.22-.56c-.06-.207-.09-.43-.09-.67 0-.727.17-1.27.51-1.63.333-.367.806-.55 1.42-.55zm1.69-1.474c-1.16 0-2.054-.204-2.68-.61-.627-.414-.94-.984-.94-1.71 0-.727.313-1.294.94-1.7.626-.414 1.52-.62 2.68-.62 1.16 0 2.053.206 2.68.62.626.406.94.973.94 1.7 0 .726-.314 1.296-.94 1.71-.627.406-1.52.61-2.68.61zm0-3.66c-.38 0-.74.023-1.08.07-.34.04-.637.113-.89.22-.254.1-.454.236-.6.41a.926.926 0 00-.23.64.93.93 0 00.23.64c.146.173.346.313.6.42.253.1.55.173.89.22.34.04.7.06 1.08.06.38 0 .74-.02 1.08-.06.34-.047.636-.12.89-.22.253-.107.456-.247.61-.42a.962.962 0 00.22-.64.959.959 0 00-.22-.64 1.563 1.563 0 00-.61-.41 3.276 3.276 0 00-.89-.22c-.34-.047-.7-.07-1.08-.07zm-1.69-6.155c.24 0 .473.05.7.15.22.093.44.22.66.38.213.16.426.34.64.54.206.2.41.4.61.6l.4.4c.153.147.313.287.48.42.166.133.326.247.48.34.153.087.286.13.4.13v-3.19h.79v4.2a.694.694 0 01-.12.01h-.11c-.314 0-.604-.05-.87-.15a3.692 3.692 0 01-.77-.41 5.393 5.393 0 01-.68-.56c-.214-.207-.42-.41-.62-.61-.16-.167-.317-.323-.47-.47a4.895 4.895 0 00-.47-.4 2.174 2.174 0 00-.49-.28 1.31 1.31 0 00-.53-.11c-.2 0-.37.033-.51.1a.938.938 0 00-.55.63 1.651 1.651 0 00.01.98c.053.16.116.303.19.43.066.127.14.233.22.32l.17.2-.66.46a2.098 2.098 0 01-.24-.27 2.35 2.35 0 01-.28-.43 3.04 3.04 0 01-.22-.56c-.06-.207-.09-.43-.09-.67 0-.727.17-1.27.51-1.63.333-.367.806-.55 1.42-.55zm-.34-1.904a6.492 6.492 0 00-.56-1.11 4.701 4.701 0 00-.87-.99v-.66h6.93v.93h-5.64c.073.08.15.18.23.3a5.225 5.225 0 01.44.81c.066.146.123.29.17.43l-.7.29zm-190.47 57.252c-.593 0-1.117-.087-1.57-.26a3.29 3.29 0 01-1.13-.72 3.01 3.01 0 01-.69-1.06 3.63 3.63 0 01-.23-1.29c0-.447.076-.867.23-1.26a2.9 2.9 0 01.69-1.05c.3-.3.676-.537 1.13-.71.453-.18.977-.27 1.57-.27.593 0 1.117.09 1.57.27.453.173.833.41 1.14.71.3.3.526.65.68 1.05.153.393.23.813.23 1.26 0 .453-.077.883-.23 1.29-.153.4-.38.753-.68 1.06a3.4 3.4 0 01-1.14.72c-.454.173-.977.26-1.57.26zm0-1.02c.42 0 .803-.053 1.15-.16.34-.107.63-.257.87-.45.24-.2.426-.44.56-.72.126-.287.19-.607.19-.96s-.064-.67-.19-.95a2.006 2.006 0 00-.56-.71c-.24-.2-.53-.353-.87-.46a3.887 3.887 0 00-1.15-.16c-.42 0-.8.053-1.14.16-.347.107-.64.26-.88.46-.24.193-.424.43-.55.71-.133.28-.2.597-.2.95s.067.673.2.96a2 2 0 00.55.72c.24.193.533.343.88.45.34.107.72.16 1.14.16zm3.59-9.243c0 .42-.067.79-.2 1.11a2.28 2.28 0 01-.56.8c-.24.213-.524.373-.85.48-.334.106-.7.16-1.1.16-.4 0-.767-.057-1.1-.17a2.614 2.614 0 01-.86-.5 2.163 2.163 0 01-.57-.78c-.14-.314-.21-.66-.21-1.04 0-.234.02-.467.06-.7.04-.234.103-.457.19-.67l.79.21c-.067.14-.12.303-.16.49-.04.18-.06.373-.06.58 0 .52.163.92.49 1.2.327.273.803.41 1.43.41.28 0 .537-.03.77-.09.233-.067.433-.167.6-.3.167-.14.297-.317.39-.53a2.08 2.08 0 00.13-.78c0-.247-.023-.47-.07-.67a2.433 2.433 0 00-.15-.47l.78-.13c.033.053.066.13.1.23.026.1.05.213.07.34.027.126.047.263.06.41.02.14.03.276.03.41zm-5.32-3.259v-1.97h.78v1.97h2.4c.26 0 .477-.02.65-.06.166-.04.3-.1.4-.18.093-.08.16-.18.2-.3.04-.12.06-.26.06-.42 0-.28-.03-.503-.09-.67a38.406 38.406 0 00-.14-.36l.77-.18c.046.094.103.257.17.49.073.234.11.5.11.8 0 .354-.044.647-.13.88a1.31 1.31 0 01-.41.55c-.18.14-.4.24-.66.3-.267.054-.574.08-.92.08h-4.64l-.16-.93h1.61zm2.6-7.606c.413 0 .787.06 1.12.18.333.12.62.29.86.51.24.213.427.47.56.77.126.3.19.626.19.98 0 .353-.064.68-.19.98-.133.3-.32.56-.56.78-.24.213-.527.38-.86.5a3.29 3.29 0 01-1.12.18c-.407 0-.777-.06-1.11-.18-.34-.12-.63-.287-.87-.5-.24-.22-.423-.48-.55-.78-.133-.3-.2-.627-.2-.98 0-.354.067-.68.2-.98.127-.3.31-.557.55-.77.24-.22.53-.39.87-.51.333-.12.703-.18 1.11-.18zm0 .97c-.587 0-1.05.133-1.39.4-.347.26-.52.616-.52 1.07 0 .453.173.813.52 1.08.34.26.803.39 1.39.39.587 0 1.053-.13 1.4-.39.34-.267.51-.627.51-1.08 0-.454-.17-.81-.51-1.07-.347-.267-.814-.4-1.4-.4zm-2.37-3.209a2.515 2.515 0 01-.35-1.31c0-.373.067-.703.2-.99.133-.293.32-.54.56-.74.24-.2.526-.35.86-.45.333-.107.7-.16 1.1-.16.42 0 .8.063 1.14.19.333.12.617.293.85.52.233.227.413.5.54.82.127.32.19.68.19 1.08 0 .433-.03.817-.09 1.15-.06.333-.12.607-.18.82h-7.45l-.16-.93h2.79zm4.16 0c.026-.093.053-.223.08-.39.02-.173.03-.387.03-.64 0-.5-.163-.9-.49-1.2-.334-.3-.803-.45-1.41-.45-.267 0-.517.027-.75.08-.233.053-.433.14-.6.26-.174.12-.307.277-.4.47-.1.187-.15.413-.15.68 0 .253.043.487.13.7.087.213.177.377.27.49h3.29zm-1.78-4.669c-.46 0-.86-.066-1.2-.2a2.505 2.505 0 01-.86-.53 2.15 2.15 0 01-.51-.76 2.372 2.372 0 01-.17-.88c0-.7.22-1.236.66-1.61.433-.373 1.096-.56 1.99-.56h.16c.06 0 .117.004.17.01v3.56c.54-.04.95-.196 1.23-.47.28-.273.42-.7.42-1.28 0-.326-.027-.6-.08-.82a3.234 3.234 0 00-.17-.51l.78-.13c.06.114.123.314.19.6.066.28.1.6.1.96 0 .454-.067.847-.2 1.18-.14.327-.33.597-.57.81-.24.214-.523.374-.85.48-.334.1-.697.15-1.09.15zm-.51-3.57c-.42-.006-.763.1-1.03.32-.273.214-.41.51-.41.89 0 .214.043.404.13.57.08.16.187.297.32.41.133.114.287.204.46.27.173.06.35.1.53.12v-2.58zm-2.21-4.226c0-.08.007-.17.02-.27.007-.106.02-.21.04-.31.013-.1.03-.19.05-.27.013-.086.026-.15.04-.19l.81.16a2.775 2.775 0 00-.09.37 2.878 2.878 0 000 1.17c.033.167.056.277.07.33h4.37v.93h-4.98a5.884 5.884 0 01-.22-.82 5.032 5.032 0 01-.11-1.1zm.15-8.121c.24 0 .473.05.7.15.22.093.44.22.66.38.213.16.427.34.64.54.207.2.41.4.61.6l.4.4c.153.146.313.286.48.42.166.133.326.246.48.34.153.086.287.13.4.13v-3.19h.79v4.2a.81.81 0 01-.12.01h-.11c-.314 0-.603-.05-.87-.15a3.758 3.758 0 01-.77-.41 5.51 5.51 0 01-.68-.56c-.213-.207-.42-.41-.62-.61a14.87 14.87 0 00-.47-.47 4.71 4.71 0 00-.47-.4 2.122 2.122 0 00-.49-.28 1.29 1.29 0 00-.53-.11c-.2 0-.37.033-.51.1a.94.94 0 00-.55.63 1.651 1.651 0 00.01.98c.053.16.117.303.19.43.067.126.14.233.22.32l.17.2-.66.46a2.16 2.16 0 01-.24-.27c-.1-.12-.194-.264-.28-.43a3.096 3.096 0 01-.22-.56c-.06-.207-.09-.43-.09-.67 0-.727.17-1.27.51-1.63.333-.367.806-.55 1.42-.55zm1.69-1.475c-1.16 0-2.053-.203-2.68-.61-.627-.413-.94-.983-.94-1.71s.313-1.293.94-1.7c.626-.413 1.52-.62 2.68-.62 1.16 0 2.053.207 2.68.62.626.407.94.973.94 1.7s-.314 1.297-.94 1.71c-.627.407-1.52.61-2.68.61zm0-3.66c-.38 0-.74.023-1.08.07a3.27 3.27 0 00-.89.22c-.253.1-.453.237-.6.41a.931.931 0 00-.23.64c0 .253.077.467.23.64.147.173.347.313.6.42.253.1.55.173.89.22.34.04.7.06 1.08.06.38 0 .74-.02 1.08-.06.34-.047.636-.12.89-.22.253-.107.456-.247.61-.42a.957.957 0 00.22-.64.957.957 0 00-.22-.64 1.566 1.566 0 00-.61-.41 3.27 3.27 0 00-.89-.22c-.34-.047-.7-.07-1.08-.07zm-1.69-6.154c.24 0 .473.05.7.15.22.093.44.22.66.38.213.16.427.34.64.54.207.2.41.4.61.6l.4.4c.153.146.313.286.48.42.166.133.326.246.48.34.153.086.287.13.4.13v-3.19h.79v4.2a.81.81 0 01-.12.01h-.11c-.314 0-.603-.05-.87-.15a3.758 3.758 0 01-.77-.41 5.51 5.51 0 01-.68-.56c-.213-.207-.42-.41-.62-.61a14.87 14.87 0 00-.47-.47 4.71 4.71 0 00-.47-.4 2.122 2.122 0 00-.49-.28 1.29 1.29 0 00-.53-.11c-.2 0-.37.033-.51.1a.94.94 0 00-.55.63 1.651 1.651 0 00.01.98c.053.16.117.303.19.43.067.126.14.233.22.32l.17.2-.66.46a2.16 2.16 0 01-.24-.27c-.1-.12-.194-.264-.28-.43a3.096 3.096 0 01-.22-.56c-.06-.207-.09-.43-.09-.67 0-.727.17-1.27.51-1.63.333-.367.806-.55 1.42-.55zm1.69-1.475c-1.16 0-2.053-.203-2.68-.61-.627-.413-.94-.983-.94-1.71s.313-1.293.94-1.7c.626-.413 1.52-.62 2.68-.62 1.16 0 2.053.207 2.68.62.626.407.94.973.94 1.7s-.314 1.297-.94 1.71c-.627.407-1.52.61-2.68.61zm0-3.66c-.38 0-.74.023-1.08.07a3.27 3.27 0 00-.89.22c-.253.1-.453.237-.6.41a.931.931 0 00-.23.64c0 .253.077.467.23.64.147.173.347.313.6.42.253.1.55.173.89.22.34.04.7.06 1.08.06.38 0 .74-.02 1.08-.06.34-.047.636-.12.89-.22.253-.107.456-.247.61-.42a.957.957 0 00.22-.64.957.957 0 00-.22-.64 1.566 1.566 0 00-.61-.41 3.27 3.27 0 00-.89-.22c-.34-.047-.7-.07-1.08-.07z" fill="#8F8F8F"/><defs><linearGradient id="paint0_linear_39_1318" x1="141.03" y1="99.657" x2="141.03" y2="362.192" gradientUnits="userSpaceOnUse"><stop stop-color="#F77E7E" stop-opacity=".25"/><stop offset="1" stop-color="#F77E7E" stop-opacity="0"/></linearGradient></defs></svg>