<svg width="22" height="32" fill="none" xmlns="http://www.w3.org/2000/svg"><path d="M22 11.111c-.012 1.394-.46 3.058-1.37 4.607-2.971 5.055-5.946 10.106-8.917 15.16-.157.268-.337.5-.698.505-.379.004-.56-.237-.725-.515-2.96-5.037-5.926-10.07-8.888-15.107-1.11-1.89-1.592-3.92-1.334-6.063.402-3.334 2.12-5.939 5.147-7.745C7.348.681 9.7.18 12.2.457c3.5.39 6.222 2.012 8.126 4.805 1.134 1.664 1.66 3.502 1.675 5.848l-.001.001zm-10.957-5.56c-2.964-.06-5.463 2.242-5.527 5.093-.064 2.814 2.35 5.167 5.37 5.237 3.029.07 5.533-2.196 5.608-5.074.075-2.847-2.359-5.193-5.451-5.255z" fill="#ED863C"/></svg>