<svg width="30" height="29" fill="none" xmlns="http://www.w3.org/2000/svg"><path d="M1.642 14.59c.086-.762.187-1.567.262-2.376.017-.186-.001-.407-.088-.566C-.66 7.012 1.974 1.316 7.11.203c2.05-.444 3.979-.158 5.806.867.139.078.336.11.494.086C21.05.007 27.878 5.225 29.13 12.261c.298 1.668.27 3.33-.049 4.993-.037.19.003.424.082.603 2.29 5.08-1.268 10.23-6.005 11.032-1.697.288-3.305.006-4.85-.723a.95.95 0 00-.533-.074C10.322 29.358 3.178 24.334 1.88 16.894c-.13-.74-.159-1.498-.24-2.304h.002zm14.18 9.427c.473-.053 1.311-.104 2.132-.247 1.65-.29 3.143-.928 4.298-2.193 1.845-2.022 1.766-5.22-.173-6.986-.854-.778-1.887-1.255-2.983-1.56-1.564-.435-3.157-.774-4.717-1.224a6.878 6.878 0 01-1.912-.868c-.762-.515-.758-1.402-.075-2.027.214-.196.465-.395.733-.477.581-.177 1.178-.356 1.78-.397 1.683-.115 3.065.407 3.862 2.03.155.313.359.614.594.873.546.602 1.257.656 1.99.471.73-.183 1.172-.673 1.328-1.41.176-.834-.105-1.561-.566-2.23-.634-.919-1.498-1.559-2.529-1.974-1.895-.763-3.864-.917-5.873-.664-1.37.173-2.675.553-3.843 1.322-2.49 1.643-2.82 5.091-.675 7.079a6.374 6.374 0 002.6 1.458c1.403.4 2.835.694 4.242 1.08.734.202 1.453.473 2.15.777.476.206.816.591.957 1.12.218.825-.162 1.669-1.015 2.22-.64.413-1.357.6-2.104.66-2.456.196-3.685-.542-4.525-2.391-.14-.311-.3-.617-.484-.903-.519-.804-1.445-1.08-2.434-.747-.814.273-1.27 1.03-1.187 1.99.017.199.05.399.104.592.42 1.533 1.415 2.618 2.75 3.404 1.604.945 3.387 1.17 5.571 1.223l.003-.002z" fill="#ED863C"/></svg>