<svg width="73" height="64" fill="none" xmlns="http://www.w3.org/2000/svg"><g clip-path="url(#clip0_6424_29509)" fill="#4F4F4F"><path d="M35.997 63.757H8.169c-5.416 0-8.14-2.66-8.14-7.923V8.55C.03 3.472 2.795.768 8.022.766h56.079c5.143 0 7.925 2.725 7.925 7.724v47.56c0 4.988-2.782 7.711-7.92 7.725-9.371-.002-18.741-.008-28.11-.017zm0-60.233H7.893c-3.508 0-5.05 1.523-5.05 4.944v47.418c0 3.63 1.48 5.104 5.168 5.104h56.073c3.598 0 5.12-1.5 5.12-5.016V8.7c0-3.722-1.463-5.173-5.241-5.173l-27.966-.003z"/><path d="M9.66 10.127v19c.142.055.29.094.44.119 3.082.108 3.08.105 4.362-2.67.694-1.502 1.387-3.002 2.092-4.498.364-.775.564-1.73 1.74-1.7 1.271.031 1.37 1.104 1.66 1.932 1.184 3.371 2.335 6.757 3.598 10.437.262-.72.513-1.156.564-1.617.197-1.561 1.105-2.055 2.627-1.931 1.21.097 2.43.02 3.784.02.319-1.005.643-1.99.939-2.98 1.054-3.56 2.102-7.121 3.144-10.686.242-.827.524-1.655 1.581-1.638 1.058.016 1.314.85 1.512 1.696a5656.261 5656.261 0 003.933 16.725c.084.35.194.695.377 1.343.564-1.282 1.055-2.287 1.436-3.33.38-1.042 1.085-1.608 2.227-1.41 2.041.354 3.352-.41 4.125-2.275a7.845 7.845 0 011.31-2.106c.384-.438 1.044-.968 1.518-.916.473.053 1.094.696 1.288 1.209.753 1.97 1.362 3.992 2.027 5.992.113.345.251.682.358.971.7-1.056 1.165-2.483 2.143-3.034 1.02-.566 2.538-.276 3.922-.354v-18.3H43.423c-.513 0-1.114.075-1.511-.154-.398-.229-.866-.797-.868-1.22-.003-.421.45-.984.862-1.222.412-.237.998-.154 1.509-.154h19.403c2.185 0 2.456.276 2.456 2.35V43.82c0 2.036-.282 2.334-2.332 2.334H9.091c-2.033 0-2.32-.301-2.32-2.346v-34.1c0-2.044.281-2.34 2.323-2.34h19.682c.42 0 .945-.09 1.235.114.437.309.981.841.979 1.274-.003.434-.564.977-1.001 1.256-.347.212-.911.11-1.376.113H9.652l.008.003zm42.492 18.266c-.25.276-.411.387-.47.533-.889 2.207-2.468 3.167-4.923 2.795-.342-.053-.965.455-1.148.841-.919 1.954-1.717 3.96-2.6 5.93-.521 1.166-1.578 1.539-2.297.777a3.55 3.55 0 01-.708-1.592c-1.181-4.947-2.326-9.902-3.488-14.854-.118-.5-.282-.985-.563-1.873-1.007 3.415-1.912 6.395-2.755 9.38-.324 1.148-.956 1.689-2.205 1.633-1.39-.063-2.786-.013-4.175-.013-.564 2.044-1.024 3.967-1.672 5.824-.18.521-.897 1.128-1.41 1.186-.415.041-1.086-.618-1.342-1.104-.457-.888-.685-1.892-1.015-2.844-1.058-3.054-2.12-6.108-3.299-9.504-.86 1.843-1.635 3.338-2.256 4.894-.476 1.194-1.186 1.75-2.537 1.636-1.19-.102-2.394-.022-3.592-.022v11.312h52.678v-11.93c-2.43-.31-2.427-.31-3.32 1.686-.413.921-.847 1.837-1.241 2.758-.333.781-.708 1.769-1.692 1.493-.629-.177-1.25-1.013-1.508-1.688-.889-2.329-1.619-4.724-2.462-7.254zM48.42 49.19a4.541 4.541 0 013.159 1.28 4.348 4.348 0 011.323 3.085 4.311 4.311 0 01-.345 1.709 4.391 4.391 0 01-.996 1.444 4.5 4.5 0 01-1.491.951 4.579 4.579 0 01-1.752.31 4.533 4.533 0 01-3.14-1.326 4.34 4.34 0 01-1.272-3.107 4.347 4.347 0 011.34-3.085 4.54 4.54 0 013.173-1.26zm-.06 6c1.04-.074 1.692-.603 1.692-1.616a1.443 1.443 0 00-.412-1.134 1.536 1.536 0 00-1.139-.455c-1.037-.05-1.706.513-1.753 1.523-.048 1.01.597 1.559 1.612 1.683zm16.914-1.56a4.345 4.345 0 01-1.346 3.07 4.537 4.537 0 01-3.165 1.255 4.574 4.574 0 01-1.742-.35 4.492 4.492 0 01-1.467-.983 4.381 4.381 0 01-.96-1.464 4.309 4.309 0 01-.306-1.714 4.353 4.353 0 011.4-3.053 4.547 4.547 0 013.19-1.204 4.535 4.535 0 013.132 1.336 4.342 4.342 0 011.264 3.106zm-4.424 1.564c.95-.13 1.607-.646 1.579-1.67a1.445 1.445 0 00-.446-1.12 1.535 1.535 0 00-1.15-.422c-1.046-.022-1.691.552-1.708 1.57-.017 1.018.637 1.548 1.725 1.644v-.002zm-48.77-.244H8.57c-.945 0-1.735-.3-1.757-1.346-.023-1.045.73-1.401 1.691-1.404h7.44c.906 0 1.597.362 1.61 1.335.015 1.057-.721 1.405-1.69 1.41-1.258.011-2.521.006-3.785.006zm17.76-2.747c1.262 0 2.537-.02 3.789 0 .902.02 1.57.4 1.562 1.38-.009.979-.697 1.346-1.593 1.351a576.68 576.68 0 01-7.58 0c-.904 0-1.567-.397-1.558-1.38.008-.981.69-1.337 1.59-1.351 1.26-.017 2.526 0 3.79 0z"/><path d="M37.618 9.136c-.564.315-1.181.916-1.709.855-.47-.055-1.127-.803-1.209-1.313-.116-.828.603-1.407 1.446-1.22.564.125.998.701 1.492 1.077l-.02.601z"/></g><defs><clipPath id="clip0_6424_29509"><path fill="#fff" transform="translate(.03 .76)" d="M0 0h72v63H0z"/></clipPath></defs></svg>