<svg width="64" height="74" fill="none" xmlns="http://www.w3.org/2000/svg"><g clip-path="url(#clip0_6424_29498)" fill="#4F4F4F"><path d="M27.195 14.863c-1.097 0-1.986.037-2.872 0-2.087-.111-3.173-2.187-1.904-3.861 2.45-3.235 4.998-6.392 7.574-9.527.999-1.213 2.532-1.19 3.547.04 2.531 3.1 5.063 6.224 7.462 9.438.438.587.582 1.831.258 2.452-.354.683-1.352 1.179-2.168 1.424-.816.244-1.747.05-2.796.05v8.474c0 3.328-.863 4.197-4.16 4.203h-1.265c-2.641-.029-3.657-1.054-3.674-3.702-.008-2.941-.002-5.86-.002-8.991zm2.812 9.709h3.426c.023-.382.053-.658.053-.934V13.97c0-1.483.481-1.933 1.944-1.956.866-.014 1.73 0 2.891 0l-6.576-8.257-6.55 8.257h1.724c3.057 0 3.094.046 3.094 3.215l-.006 9.342zm6.289 34.708c1.111 0 2.003-.04 2.886 0 2.084.116 3.153 2.195 1.881 3.874-2.452 3.243-5 6.404-7.58 9.533-.995 1.21-2.53 1.167-3.543-.068-2.532-3.101-5.063-6.222-7.46-9.439-.435-.57-.562-1.836-.244-2.451.36-.68 1.364-1.165 2.18-1.398.815-.234 1.743-.052 2.779-.052v-8.635c0-3.115.92-4.035 4.036-4.04 4.562 0 5.062.5 5.062 5.124l.003 7.551zm-11.13 2.847l6.593 8.256c2.225-2.801 4.3-5.41 6.534-8.24h-2.74c-1.628-.014-2.064-.444-2.072-2.112-.014-2.563 0-5.125 0-7.688V49.6h-3.423c-.023.396-.05.675-.05.954v9.396c0 1.773-.42 2.192-2.13 2.206-.782-.028-1.57-.028-2.711-.028zM10.482 44.152c2.672-1.563 5.178-3.035 7.69-4.496 2.16-1.252 3.656-.854 4.921 1.324.403.695.819 1.381 1.193 2.09.925 1.757.52 3.354-1.178 4.382-2.206 1.338-4.453 2.608-6.678 3.912-.435.256-.843.541-1.352.854.478.854.905 1.635 1.344 2.406.52.908.647 1.945-.107 2.625-.622.57-1.645 1.09-2.413.997-3.803-.47-7.594-1.139-11.369-1.771C.578 56.147-.17 54.843.528 52.973c1.316-3.542 2.68-7.067 4.022-10.6.394-1.04 1.01-1.805 2.202-1.902 1.193-.097 1.93.52 2.472 1.514.38.698.8 1.379 1.258 2.167zm3.094 11.201c-.563-1.01-.993-1.794-1.452-2.562-.664-1.105-.478-1.956.656-2.6 1.465-.834 2.916-1.708 4.373-2.562 1.604-.937 3.204-1.88 4.866-2.848-.619-1.084-1.147-2.013-1.721-3.012-.515.285-.928.473-1.322.703-2.593 1.51-5.178 3.035-7.777 4.536-1.477.854-1.927.712-2.813-.797-.41-.706-.818-1.424-1.372-2.366l-3.75 9.86 10.312 1.648zm39.436-25.357c-2.656 1.549-5.162 3.026-7.679 4.478-2.177 1.262-3.673.855-4.927-1.298-2.627-4.51-2.484-5.06 2.022-7.688l6.019-3.521c-.52-.92-1.156-1.686-1.39-2.563-.208-.783-.28-1.92.147-2.474a3.048 3.048 0 011.07-.781c.408-.178.85-.264 1.295-.25 3.805.47 7.594 1.139 11.369 1.771 2.03.345 2.73 1.643 1.991 3.622-1.31 3.496-2.652 6.975-3.98 10.463-.394 1.04-1.001 1.817-2.194 1.922-1.257.108-2-.57-2.548-1.623-.352-.678-.754-1.304-1.195-2.058zm-11.557-.644l1.81 3.035 8.068-4.712c2.725-1.597 2.725-1.594 4.278 1.108.241.421.506.825.888 1.446 1.294-3.402 2.49-6.549 3.73-9.817l-10.3-1.62 1.162 2.073c1.06 1.867.95 2.297-.875 3.365-2.866 1.68-5.735 3.354-8.761 5.122zm6.98 22.829c-2.624-1.54-5.13-3.006-7.63-4.478-2.233-1.313-2.63-2.8-1.359-5.063.369-.66.732-1.324 1.125-1.97 1.072-1.757 2.653-2.201 4.441-1.182 2.647 1.51 5.268 3.064 7.991 4.65.478-.812.804-1.709 1.406-2.3.602-.593 1.514-1.31 2.25-1.27.737.04 1.778.797 2.076 1.503 1.556 3.701 2.953 7.465 4.334 11.235a2.263 2.263 0 01-.113 2.003c-.171.302-.41.559-.697.75a2.193 2.193 0 01-.956.356c-3.966.686-7.937 1.338-11.92 1.902-1.93.285-3.248-1.708-2.402-3.505.402-.851.909-1.651 1.454-2.63zm1.474 3.18l10.325-1.64c-1.26-3.302-2.46-6.451-3.676-9.632-.2.134-.298.163-.337.228-.386.65-.757 1.307-1.125 1.956-.864 1.466-1.336 1.592-2.835.73-1.097-.63-2.183-1.285-3.277-1.923-1.89-1.099-3.783-2.192-5.76-3.34l-1.722 3.073c3.162 1.847 6.163 3.584 9.144 5.35 1.288.763 1.426 1.352.703 2.676-.436.774-.88 1.537-1.44 2.523zM10.482 29.996c-.529.9-.844 1.808-1.468 2.403-.625.595-1.542 1.21-2.298 1.17-.692-.034-1.671-.792-1.97-1.475C3.2 28.393 1.826 24.614.405 20.86c-.4-1.056-.138-2.033.765-2.637a1.907 1.907 0 011.64-.122c.357.182.51.905.622 1.424.146.66.028 1.4.253 2.021 1.026 2.83 2.135 5.632 3.321 8.727.546-.943.954-1.651 1.367-2.358.884-1.509 1.334-1.648 2.813-.791 2.962 1.708 5.906 3.448 9.028 5.264L22 29.361c-1.93-1.14-3.772-2.23-5.626-3.314a287.564 287.564 0 00-3.656-2.122c-1.058-.603-1.302-1.423-.675-2.485.36-.61.706-1.227 1.057-1.842.352-.615.76-1.14.214-1.914-.188-.284.02-1.07.31-1.37a1.747 1.747 0 011.372-.37c1.381.251 2.149 1.868 1.547 3.22-.402.903-.934 1.746-1.5 2.783.55.333 1.09.666 1.635.988 2.022 1.187 4.053 2.36 6.072 3.556 2.133 1.267 2.515 2.784 1.28 4.988-.32.57-.652 1.139-.987 1.708-1.226 2.102-2.737 2.532-4.812 1.333-2.518-1.466-5.074-2.964-7.75-4.524z"/><path d="M9.967 18.379c-.495.396-.945 1.01-1.5 1.139-.826.176-1.566-.393-1.428-1.279.084-.532.74-1.306 1.201-1.352.534-.054 1.125.57 1.71.894l.017.598z"/></g><defs><clipPath id="clip0_6424_29498"><path fill="#fff" transform="translate(.238 .57)" d="M0 0h63v73H0z"/></clipPath></defs></svg>