<svg width="103" height="95" fill="none" xmlns="http://www.w3.org/2000/svg"><path d="M8.724 30.589c-.28-.358-.498-.417-.756-.675-.24-.16-.478-.318-.697-.377-.437-.12-.933.497-1.172.855-.079.12-.079.12-.059.22l.06.297-1.293-1.29-.22-.06c-1.888-.137-1.926 1.214-1.786 1.91l.04.199 3.322 3.157c.14.18.378.338.518.517l.02.1c.36 1.788.917 3.537 1.456 5.186.279.874.558 1.749.937 2.603.04.199.179.378.239.676l.378.854.558 1.232c.14.18.2.477.319.557l.596-.12 2.166-.54 1.272-.358c.874-.28 1.769-.459 2.643-.738.875-.28 1.749-.558 2.603-.937.855-.379 1.789-.876 2.583-1.553.894-.697 1.51-1.75 1.786-2.944.298-1.093.197-2.107.097-3.12-.181-1.929-.64-3.698-1.079-5.367l-1.416-5.505c.317-.477.515-1.034.833-1.512l.754-1.392.695-1.173s.893-1.73 1.805-3.362c.913-1.63 1.826-3.261 1.747-3.142 1.528-2.685 2.142-4.773-1.214-.894-1.012 1.134-2.184 2.507-2.978 3.7-.893 1.214-1.45 2.05-1.45 2.05-.476.716-.833 1.511-1.31 2.227-.436.915-.991 1.75-1.428 2.665l-.318-.039c-.517 0-.914.08-1.431.08l-1.292.26c-.795.16-1.769.46-2.643.739-1.848.578-3.637 1.454-3.438 1.414-1.41.697-2.483 1.533-2.622 1.871-.139.338.676.278 3.12-.42a34.242 34.242 0 014.473-.899c1.311-.16 2.325-.26 2.325-.26l.298-.06a95.225 95.225 0 00-3.173 7.358l-.595 1.67-.397 1.114-.238-.16a65.144 65.144 0 01-4-3.434c-.239-1.193-.36-2.306-.46-3.32-.138.338-.158.24-.178.14zm1.896 8.407c.259.258.498.417.756.675l.378.337.736.576c.498.417 1.074.715 1.572 1.132l.358.238.239.159.119.08.08-.12.336-.895 1.031-3.102a34.974 34.974 0 011.348-3.58c.694-1.69 1.488-3.4 2.282-5.11l.478 1.867c.46 1.77.898 3.439 1.138 5.148.06.815.121 1.63.042 2.266a2.622 2.622 0 01-.813 1.611c-.953.915-2.583 1.553-4.232 2.091-.775.26-1.65.539-2.544.718l-1.868.48-.1.02-.159-.279c-.04-.199-.18-.377-.22-.576-.258-.775-.637-1.63-.916-2.504-.08-.397-.279-.874-.359-1.272.199-.04.199-.04.318.04zm-.565 15.724c-.079.12-.079.12-.059.219.3 1.49.719 3.06 1.118 4.531.458 1.77 1.017 3.518 1.575 5.267l.997 2.901.458 1.252.06.298.04.199.199-.04.695-.14 2.167-.539c1.768-.459 3.458-.798 5.326-1.277.874-.28 1.769-.46 2.723-.858.854-.378 1.808-.777 2.702-1.473.893-.697 1.588-1.87 1.865-3.063.178-1.173.177-2.207-.023-3.2-.3-2.008-.957-3.737-1.615-5.466-.28-.874-.658-1.729-1.036-2.583l-.817-2.007-.22-.576c-.02-.1-.119-.08-.119-.08l-.199.04-.298.06-1.292.26-1.291.26-.696.14-1.272.358s-1.947.599-3.656 1.356c-1.809.777-3.517 1.534-3.319 1.494-1.033.518-1.847 1.095-2.304 1.394-1.034 0-1.51.716-1.709 1.273zm4.234-1.057c1.47-.4 3.16-.739 4.53-1.118l2.386-.48 1.272-.358.695-.14.795-.16.497-.1.02.1.04.198.399.954.458 1.252c.638 1.63 1.196 3.378 1.515 4.968.16.795.22 1.61.142 2.246-.079.637-.277 1.193-.814 1.611-.953.916-2.702 1.474-4.371 1.913-1.67.439-3.438.898-5.227 1.257l-.696.14-.737-2.126c-.558-1.749-1.117-3.498-1.556-5.167-.399-1.47-.798-2.941-1.097-4.432-.02-.1-.14-.179-.14-.179l1.889-.38zM18.68 89.38l.46 2.286.06.298.317.04.716-.04 1.352.037c.934.02 1.968.018 2.882-.062 1.948-.081 3.876-.262 5.963-.681.994-.2 2.047-.619 3.06-1.236s1.947-1.632 2.423-2.865c.476-1.233.455-2.366.354-3.38-.12-1.113-.3-2.007-.5-3a53.035 53.035 0 00-1.735-5.545l-.996-2.901-.459-1.252-.239-.676-.04-.199-.199.04-.397.08-1.391.28-.696.14-.397.08-.974.299-.676.239c-.497.1-.874.279-1.272.359 0 0-1.808.777-3.596 1.653-1.788.877-3.338 1.912-3.238 1.892-1.371.895-2.325 1.81-2.364 2.129-.02.417.656.178 3.06-.719 1.352-.478 3.1-1.036 4.353-1.495 1.37-.379 2.345-.678 2.345-.678.377-.18.874-.279 1.252-.458l.576-.22.298-.06.497-.1.695-.14.299-.059.717 2.027c.578 1.848 1.256 3.676 1.715 5.445.28.874.459 1.769.54 2.683.06.815.12 1.63-.058 2.286-.178.656-.496 1.134-1.132 1.572-.536.418-1.41.697-2.186.956-1.669.439-3.597.62-5.446.681-.914.08-1.848.062-2.882.063l-.318-.04-.08-.397-1.337-5.625c-.3-1.49-.6-2.981-.78-4.392-.02-.1-.139-.179-.139-.179-.637-.596-1.194-.794-1.67-.595-.497.1-.716.558-.954.916-.08.119-.08.119-.06.218.122 1.63.441 3.22.84 4.69l1.437 5.605zm15.981-61.42c-.775.26-1.43.598-2.186.956-.1.02-.178.14-.159.239-.912 1.63.34 2.206 1.096 2.364l.199-.04c.675-.239 1.331-.577 2.106-.837l2.107-.836c6.955-2.432 14.11-4.387 21.304-6.143l10.83-2.695 8.467-2.115s1.848-.578 3.677-1.256c1.828-.677 3.577-1.236 3.378-1.196 2.96-1.215 4.59-2.37-.3-1.49-2.922.38-7.095 1.22-7.095 1.22l-8.268 2.074-11.03 2.734c-7.373 1.896-14.647 3.772-21.88 6.363l-2.246.658zm47.577 9.874c-2.921.38-7.115 1.12-7.115 1.12l-2.465.599a1272.236 1272.236 0 01-27.287 6.725l-4.431 1.098c-.1.02-.18.139-.18.139-1.15 1.472-.057 2.286.62 2.564.119.079.119.079.218.059l4.432-1.097 15.283-3.693 7.572-1.935 6.578-1.736s1.849-.578 3.677-1.256c1.848-.578 3.577-1.236 3.378-1.196 3-1.017 4.749-2.092-.28-1.391zm14.078 22.707c-2.941.282-7.155.922-7.155.922l-18.185 4.172c-6.817 1.577-13.713 3.273-20.51 4.95l-4.531 1.117c-.1.02-.18.14-.18.14-1.13 1.571.043 2.266.719 2.543.12.08.12.08.219.06l4.412-1.197c6.677-1.756 13.395-3.313 20.112-4.87l18.185-4.172s7.413-2.214 7.115-2.154c3-1.017 4.749-2.092-.2-1.51zM64.082 28.767c-2.942.28-7.176.822-7.176.822l-2.484.5c-4.472.898-9.003 2.016-13.435 3.63a37.866 37.866 0 00-4.391 1.813c-.1.02-.179.14-.159.239-.793 1.71.44 2.186 1.195 2.344l.199-.04c1.311-.677 2.762-1.175 4.093-1.753 4.133-1.554 8.585-2.553 13.057-3.451l2.186-.44s1.868-.479 3.717-1.057c1.868-.479 3.617-1.037 3.517-1.017 2.862-1.196 4.61-2.27-.32-1.59zm26.973 39.552c-2.962.182-7.196.723-7.196.723l-6.737 1.457c-2.683.54-5.347 1.178-8.11 1.837-5.325 1.277-10.731 2.674-15.977 4.349-1.451.498-2.922.897-4.372 1.395-.1.02-.18.14-.18.14-1.011 1.65.142 2.246.898 2.404.119.08.119.08.198-.04 1.451-.498 2.902-.996 4.372-1.395 5.167-1.556 10.354-3.012 15.581-4.27 2.663-.638 5.227-1.257 7.91-1.796l6.738-1.458s1.868-.479 3.716-1.057c1.868-.479 3.617-1.037 3.418-.997 2.862-.679 4.73-1.675-.26-1.292zM79.704 45.788c-2.961.182-7.195.723-7.195.723l-2.484.499c-7.135 1.537-14.37 3.095-21.225 6.024-.775.259-1.41.697-2.166 1.055-.755.359-1.41.697-2.046 1.135-.1.02-.179.14-.159.24-.674 1.789.638 2.145 1.374 2.204l.199-.04c.655-.338 1.29-.776 1.966-1.015.656-.339 1.312-.678 1.987-.917 6.458-2.849 13.593-4.386 20.629-5.904l2.186-.44 3.736-.957c1.868-.479 3.617-1.037 3.518-1.017 2.901-.997 4.65-2.072-.32-1.59z" fill="#fff"/></svg>