<svg width="95" height="69" fill="none" xmlns="http://www.w3.org/2000/svg"><g clip-path="url(#clip0_2644_25984)" fill="#fff"><path d="M60.614 10.089c8.048 1.258 16.048 2.8 24.11 3.98.42.063.672.338.783.682.1.22.13.482.049.78a293.745 293.745 0 01-6.54 20.63c-1.718 4.8-3.649 9.521-5.885 14.097-1.01 2.067-1.81 1.892-3.897 2.22-19.228 3.019-38.497 5.88-57.806 8.337-1.32.169-1.563-1.54-.958-2.325 8.933-11.614 17.864-23.229 26.796-34.844C40.979 18.82 44.7 14 48.419 9.178c1.464-1.9 9.934.556 12.198.91h-.003zm-9.889 1.052c.703 3.54.497 8.225 1.993 11.438l.076.169c8.685-3.011 18.07-5.196 27.112-6.988-5.66-.832-11.303-1.755-16.946-2.69-2.122-.352-9.564-2.433-12.237-1.93l.002.001zm3.11 13.878c1.002 2.18 1.999 4.363 3 6.545l3.018 6.59c6.49-6.38 12.706-13.059 19.177-19.459-8.278 2.465-16.86 4.055-25.193 6.324h-.002zm3.953 14.947c-.925-2.04-1.851-4.076-2.777-6.115l-3.641-8.014c-6.755 5.193-13.026 11.191-19.425 16.808-4.965 4.357-10.215 8.596-15.092 13.143 13.51-5.564 27.924-9.26 40.934-15.82l.001-.002zm19.267-5.925a251.99 251.99 0 004.9-14.585c-6.57 7.283-13.466 14.634-20.89 20.948 2.266 3.182 7.041 6.29 10.018 8.613.465-1.293 1.966-4.902 2.156-5.337 1.396-3.16 2.618-6.4 3.815-9.639h.001zM66.465 50.16c.62-.096 1.24-.188 1.86-.284a170.985 170.985 0 01-3.506-2.823c-1.52-1.262-4.423-3.18-5.898-5.043-11.783 6.346-24.977 10.092-37.614 14.758 15.073-2.047 30.118-4.309 45.155-6.61l.002.002zm-28.54-23.003L22.22 47.617c2.646-2.28 5.314-4.523 7.9-6.792 6.62-5.81 13.145-12.037 20.303-17.19-1.263-3.3-1.327-7.027-1.699-10.576a13160.12 13160.12 0 01-10.799 14.1v-.002zm3.641-13.699c-9.026 10.964-17.56 22.337-25.121 34.385-.04.06-.132.008-.096-.056 3.356-6.012 7.37-11.642 11.41-17.2 4.31-5.93 8.748-11.833 13.704-17.232.064-.07.163.033.103.103zm2.633-2.908c-.523.714-1.008 1.518-1.766 1.996-.047.03-.09-.028-.07-.07a4.47 4.47 0 011.743-2.02c.055-.034.134.036.093.093zm31.485 40.363c2.33-5.177 4.55-10.31 6.285-15.73 1.447-4.517 2.555-9.14 4.13-13.619.04-.114.21-.069.18.05-2.366 9.92-4.947 20.701-10.506 29.35-.036.056-.115.008-.09-.053l.001.002zm-16.599 5.504c-7.33 1.828-14.875 2.81-22.355 3.801-6.398.848-12.816 1.62-19.26 2.021-.085.006-.08-.12 0-.13 13.897-1.72 27.805-3.268 41.581-5.817.081-.014.115.105.034.125zm3.329-48.199c4.874.393 10.209.68 14.917 2.1.062.021.053.125-.016.12-4.925-.485-10.078-1.014-14.918-2.091-.071-.017-.056-.134.017-.128v-.001zm-4.497-.515c.955-.26 2.23-.097 3.149.273.107.044.101.214-.028.212-1.028-.016-2.11-.177-3.122-.351-.07-.013-.063-.117 0-.134z"/></g><defs><clipPath id="clip0_2644_25984"><path fill="#fff" transform="scale(-1 1) rotate(-75 -16.448 84.869)" d="M0 0h48.674v84.446H0z"/></clipPath></defs></svg>