<svg width="117" height="155" fill="none" xmlns="http://www.w3.org/2000/svg"><path d="M3.332 142.89v9.083h78.84l31.49-31.49V36.329m0-24.219V3.027H3.332v115.644" stroke="#fff" stroke-width="6.055" stroke-miterlimit="22.926" stroke-linecap="round" stroke-linejoin="round"/><path d="M82.172 151.973v-31.49h31.49l-31.49 31.49zM26.926 52.777l17.963-17.964m27.208 17.964l17.964-17.964M44.889 52.777L26.926 34.813M90.06 52.777L72.097 34.813m17.964 56.31c-7.835-6.313-19.077-10.27-31.568-10.27-12.49 0-23.733 3.957-31.567 10.27" stroke="#fff" stroke-width="6.055" stroke-miterlimit="22.926" stroke-linecap="round" stroke-linejoin="round"/><path fill-rule="evenodd" clip-rule="evenodd" d="M3.332 133.808a3.033 3.033 0 003.027-3.027 3.033 3.033 0 00-3.027-3.028 3.033 3.033 0 00-3.027 3.028 3.033 3.033 0 003.027 3.027zM113.664 27.247a3.033 3.033 0 003.028-3.028 3.033 3.033 0 00-3.028-3.027 3.033 3.033 0 00-3.027 3.027 3.033 3.033 0 003.027 3.028z" fill="#fff"/></svg>