<svg width="143" height="161" fill="none" xmlns="http://www.w3.org/2000/svg"><path d="M1.65 89.474c-.194 1.07.032 1.847.469 2.479-1.2.518-1.249 1.798-1.022 2.575l.145.211 4.857 5.673 39.307 46.943s8.824 9.159 8.532 8.738c.648.486.94.907 1.441 1.183-.21.146-.065.357-.275.502l-.065.357c.663 1.409 1.456 2.107 2.234 1.88.583.843 1.506.827 2.43.812l.21-.146 5.674-4.857 89.054-74.339s9.305-8.613 8.738-8.532c3.631-3.756 5.431-6.558-1.457-2.107-4.149 2.557-9.692 6.701-9.692 6.701l-89.476 74.631-2.383 1.958c.195-1.069.39-2.138.375-3.061.65-3.564.733-7.047 1.027-10.676.44-3.418.733-7.047 1.027-10.676l1.844-21.206.294-3.629s.284-12.653.218-12.296c.05-1.28-.111-2.414-.127-3.338l1.28.05 5.038-.37 6.093-1.098c3.046-.549 6.092-1.097 5.736-1.162 1.555-.453 2.9-.76 3.889-1.132.502.276 1.004.551 1.57.47.779-.225 1.41-.663 1.832-.954l.21-.146c.39-2.138 1.202-4.568 2.014-6.997l2.71-7.791c.406-1.215.877-2.786 1.283-4.001l.406-1.215c2.203.034 4.05.003 6.253.037l42.396 2.764 3.629.294s12.718-.073 12.151.007c4.617-.078 7.874-.772 2.237-2.17-.081-.566-.744-1.976-2.201-4.083-2.557-4.15-6.701-9.692-6.701-9.692l-37.493-44.77-4.209-5.188c-.016-.923-.307-1.345-.794-.697-.713-.13-1.069-.195-1.636-.114 1.038-1.652.325-1.782-4.245 1.066-4.149 2.557-9.693 6.701-9.693 6.701L7.941 83.257l-5.674 4.857c-.762 1.15-.616 1.36-.616 1.36zm148.925-34.14s8.824 9.16 8.532 8.738c.94.908 1.879 1.816 2.672 2.513l-.356-.065c-4.779-1.056-11.615-1.935-11.615-1.935l-4.196-.213-42.607-2.62c-1.636-.114-3.483-.083-5.12-.197l4.173-13.784 4.497-15.567 2.144-7.71 1.266-4.924s.586-3.208 1.316-6.204l.716-3.92 1.522 1.75 37.056 44.138zM10.433 87.762L98.855 13.86s9.305-8.613 8.738-8.532c.421-.292.697-.794 1.118-1.085-.065.356.081.567-.13.713l.146.21 1.23 1.33c-1.768 4.648-4.008 10.868-4.008 10.868l-1.202 4.568-2.208 8.067-4.563 15.922-4.708 15.712c-.666 2.64-1.542 5.427-2.354 7.856-.811 2.43-1.834 5.005-2.71 7.791-.812 2.43-1.623 4.86-2.29 7.5l.147.21c-.713-.13-1.637-.114-3.127-.018-4.763-.132-11.649.269-11.649.269l-4.682.434-8.02.562-16.04 1.124c-10.644.82-21.645 1.574-32.355 2.75-1.134.161-2.479.468-3.759.42l4.004-2.769zm.546 7.097c10.353-1.241 20.998-2.061 31.642-2.88l16.04-1.125 5.039-.37c-.13.714-.471 1.572-.52 2.852-1.056 4.779-2.292 11.55-2.292 11.55l-.213 4.196-1.844 21.206c-.294 3.628-.523 6.901-1.028 10.675-.293 3.629-.733 7.047-1.172 10.465-.05 1.28-.456 2.495-.505 3.775-2.557-4.149-6.701-9.692-6.701-9.692L9.47 98.081 7.512 95.7c.842-.583 2.122-.534 3.467-.84z" fill="#fff"/></svg>