<svg width="217" height="196" fill="none" xmlns="http://www.w3.org/2000/svg"><g clip-path="url(#clip0_2644_25914)" fill="#fff"><path d="M98.16 125.743c7.671-45.15 18.431-88.37 32.681-131.926l-8.191 2.686c14.031 38.824 29.528 76.286 49.423 112.504 2.909-1.333 5.818-2.667 8.749-4.008-32.024-17.193-64.048-34.386-96.035-51.618l-6.075 4.985c31.451-3.878 62.616-9.217 93.615-15.751-1.37-.618-2.717-1.243-4.087-1.86-24.984 30.037-53.818 56.569-78.794 86.629-2.625 3.153 8.311 1.138 10.413-1.396 24.596-29.977 53.033-56.471 77.599-86.463 2.055-2.518-3.327-2.027-4.087-1.86-30.176 6.474-60.598 11.525-91.209 15.388-1.005.124-8.88 3.491-6.074 4.985a58483.087 58483.087 0 0196.406 51.435c1.703.91 10.263-1.24 8.749-4.008C161.35 69.4 145.226 31.902 130.871-6.68c-1.01-2.716-7.612.92-8.192 2.686-13.881 42.862-27.143 86.606-31.557 131.631-.233 2.386 6.746.257 7.114-1.895l-.077.001zm67.83-115.604c4.804-5.612 8.554-12.106 12.77-18.15 4.432-6.377 9.382-12.373 13.782-18.764 1.594-2.303-4.851-.617-5.743.337-9.649 10.598-20.109 23.76-26.049 36.89-1.14 2.501 4.522.555 5.263-.321l-.023.008zm18.562 61.391c14.158 4.938 28.633 11.427 43.097 15.13 1.412.372 7.706-2.54 5.772-3.522-13.567-6.963-30.023-10.578-44.706-14.536-1.388-.38-6.352 2.165-4.163 2.928z"/><path d="M133.322 120.045c-.311 15.879.066 33.563 2.844 49.197.313 1.759 6.101-.412 6.172-2.024.89-15.904-.546-33.471-2.707-49.245-.244-1.706-6.278.346-6.309 2.072zM98.53 20.708C89.001 9.017 79.57-3.348 69.224-14.314c-1.113-1.195-6.744 1.201-5.84 2.675 7.8 12.965 18.22 25.519 29.924 35.11 1.263 1.04 6.562-1.137 5.212-2.786l.008.023zm-58.528 87.848c13.22-8.965 26.285-17.645 40.118-25.674 3.907-2.275-.06-3-2.59-1.826-15.025 7.043-28.987 16.372-41.706 26.978-2.453 2.043 3.182 1.181 4.178.522z"/></g><defs><clipPath id="clip0_2644_25914"><path fill="#fff" transform="rotate(-19.435 26.603 4.556)" d="M0 0h195.686v197.617H0z"/></clipPath></defs></svg>