<svg width="21" height="17" fill="none" xmlns="http://www.w3.org/2000/svg"><path d="M10.496 16.784c-2.675 0-5.352.002-8.027 0-1.173 0-2.116-.717-2.39-1.822a2.85 2.85 0 01-.074-.68C0 10.616-.002 6.952.002 3.286.004 1.826 1.03.786 2.47.786h16.054c1.434 0 2.472 1.047 2.473 2.502.005 3.665.005 7.33 0 10.995-.001 1.454-1.039 2.498-2.474 2.5-2.675.004-5.351.001-8.026.001h-.001zm-9.121-1.077c.367.293.77.358 1.192.358h15.856c.073 0 .146 0 .218-.004.353-.024.684-.105.966-.354-.051-.054-.09-.097-.13-.138l-4.6-4.744c-.04-.042-.083-.082-.121-.127-.143-.173-.143-.379-.002-.517.14-.138.343-.132.51.018.05.044.093.094.14.142l4.49 4.633c.056.057.095.13.159.22.21-.342.23-.663.23-.987V4c-.096.08-.153.125-.208.172-2.646 2.274-5.294 4.547-7.939 6.823-.435.374-.922.613-1.498.649-.739.046-1.337-.262-1.884-.734C6.145 8.66 3.529 6.418.914 4.174c-.058-.05-.12-.094-.206-.16v10.233c0 .311.036.612.228.945.064-.09.102-.165.158-.222 1.492-1.549 2.986-3.097 4.479-4.644.056-.058.109-.122.173-.17.153-.117.312-.117.46.009.136.117.153.325.043.481-.038.054-.087.1-.133.148l-3.165 3.281-1.575 1.631-.001.001zM10.51 1.505H2.53c-.933 0-1.643.555-1.784 1.375-.023.134.005.212.108.3 2.833 2.427 5.662 4.86 8.497 7.286.74.634 1.58.62 2.32-.016l8.255-7.096c.397-.34.416-.43.177-.905a1.866 1.866 0 00-.23-.348c-.372-.444-.864-.599-1.422-.599-2.646.002-5.292 0-7.938 0v.003z"/></svg>