<svg width="19" height="19" viewBox="0 0 19 19" fill="none" xmlns="http://www.w3.org/2000/svg">
<path d="M4.14834 5.12646C4.26885 5.87893 4.6459 6.56824 5.21711 7.08033C5.84815 7.68298 6.45987 8.30745 7.08953 8.91011C7.32841 9.13372 7.32841 9.28779 7.08953 9.5114C6.41706 10.1536 5.77359 10.8231 5.09974 11.4625C4.21324 12.3065 3.97022 13.3564 4.20634 14.484C4.41899 15.5052 5.08731 16.2565 6.08151 16.6424C7.41126 17.1619 8.59878 16.8987 9.61508 15.9034C9.86777 15.6566 10.1232 15.4139 10.3759 15.1685C10.4008 15.1344 10.4327 15.1059 10.4695 15.085C10.5064 15.064 10.5473 15.051 10.5896 15.0469C10.632 15.0428 10.6747 15.0476 10.715 15.061C10.7553 15.0745 10.7922 15.0962 10.8233 15.1248C11.0653 15.3145 11.333 15.4696 11.6187 15.5857C11.7802 15.6402 11.7857 15.7575 11.6684 15.8734C10.7225 16.8196 9.84706 17.8572 8.42894 18.1667C6.69737 18.5431 4.75453 18.0304 3.59601 16.4529C3.01794 15.688 2.7025 14.7607 2.6957 13.8063C2.67913 12.4674 3.18866 11.3521 4.13177 10.414C4.44522 10.1031 4.75315 9.78682 5.08455 9.4964C5.32896 9.2837 5.30272 9.14462 5.07627 8.93056C4.62611 8.50788 4.15801 8.09612 3.84594 7.54936C3.45931 6.86763 3.37922 6.19543 3.77414 5.50415C3.84736 5.33695 3.98066 5.20241 4.14834 5.12646Z" fill="#FDB604"/>
<path d="M13.9028 15.587C12.3121 15.6184 11.1412 14.9585 10.1525 13.9304C9.91912 13.6891 9.66643 13.4655 9.44964 13.2105C9.25356 12.9814 9.10995 13.0237 8.92768 13.22C8.562 13.6425 8.14981 14.0234 7.69873 14.3558C6.90061 14.9012 5.9934 14.9244 5.26018 14.4308C5.17042 14.3694 5.06686 14.3095 5.08895 14.2099C5.11105 14.1104 5.24499 14.1513 5.32922 14.1322C5.92222 14.002 6.46396 13.7039 6.88818 13.2746C7.56479 12.6037 8.24693 11.9384 8.91249 11.2566C9.11547 11.0494 9.24665 11.0453 9.46483 11.2566C10.2312 12.0243 10.9589 12.8369 11.8122 13.5145C12.2098 13.8361 12.6804 14.0575 13.1836 14.1599C13.6869 14.2623 14.2078 14.2426 14.7017 14.1025C15.1956 13.9624 15.6476 13.706 16.0191 13.3555C16.3905 13.0049 16.6703 12.5705 16.8344 12.0897C17.2583 10.9049 16.989 9.79362 16.1011 8.86101C15.825 8.57468 15.5377 8.30335 15.2561 8.0252C15.118 7.88885 15.0724 7.7525 15.2326 7.57252C15.3979 7.36545 15.537 7.13926 15.6468 6.89896C15.7476 6.69717 15.8401 6.61263 16.0266 6.81034C16.6258 7.44435 17.3494 7.97747 17.7802 8.74647C18.2884 9.65318 18.5383 10.609 18.3657 11.6779C18.0578 13.5786 16.949 14.7717 15.1677 15.4139C14.7634 15.5601 14.3321 15.6191 13.9028 15.587Z" fill="#FDB604"/>
<path d="M11.0632 1.52003C10.2416 1.5732 9.47528 1.80635 8.86495 2.41992C8.58878 2.70079 8.29466 2.96531 8.0185 3.24891C7.85694 3.41389 7.7299 3.44799 7.52415 3.28846C7.28689 3.11984 7.03345 2.97461 6.76746 2.85487C6.6059 2.77442 6.54514 2.70898 6.69565 2.56172C7.29079 1.98361 7.82242 1.33459 8.53078 0.877828C9.16047 0.465501 9.8882 0.222529 10.6421 0.172913C12.6581 0.0365655 14.1535 0.832837 15.145 2.55218C15.4343 3.06706 15.6068 3.63792 15.6504 4.22517C15.8023 5.87224 15.1795 7.18527 13.9768 8.27878C13.7103 8.52147 13.4673 8.79007 13.2022 9.03277C13.0641 9.16912 13.053 9.24957 13.2022 9.38455C13.4687 9.62861 13.72 9.88904 13.9713 10.1481C14.5471 10.7412 14.9199 11.4093 14.826 12.271C14.7729 12.5948 14.6443 12.9019 14.4504 13.1682C14.4159 13.2214 14.3897 13.3045 14.3013 13.2827C14.2129 13.2609 14.2115 13.1873 14.1964 13.1218C14.1359 12.8459 14.0432 12.5777 13.9202 12.3228C13.5791 11.6411 12.9743 11.1993 12.4593 10.6744C12.0561 10.2626 11.6418 9.86086 11.2165 9.46909C11.0163 9.28638 11.0218 9.15821 11.2165 8.97414C11.8917 8.32786 12.5532 7.6693 13.2187 7.01483C14.7307 5.52728 14.6106 3.37163 12.9177 2.10632C12.3902 1.71091 11.7509 1.55002 11.0632 1.52003Z" fill="#FDB604"/>
<path d="M0.000608783 7.59309C-0.0325313 5.32291 1.29031 3.57903 3.2442 3.02C5.01857 2.51279 6.62034 2.93683 7.95423 4.2294C8.3022 4.56618 8.65569 4.89614 8.98433 5.24928C9.14589 5.42244 9.24945 5.39381 9.39858 5.24928C9.77969 4.88114 10.1304 4.47892 10.564 4.1585C11.4464 3.51767 12.4268 3.46585 13.1752 4.02215C13.2359 4.06715 13.3312 4.09578 13.3133 4.19395C13.3133 4.22395 13.2484 4.25667 13.2097 4.26212C12.2997 4.39847 11.6645 4.95614 11.0639 5.58606C10.5543 6.12054 9.99924 6.61412 9.49386 7.15269C9.25221 7.40903 9.10723 7.3504 8.8932 7.13497C8.23316 6.46823 7.54964 5.82467 6.8896 5.15793C6.52596 4.78654 6.0756 4.50892 5.578 4.3494C5.08041 4.18988 4.55078 4.15333 4.03555 4.24297C3.52032 4.3326 3.03523 4.54568 2.62281 4.86352C2.21039 5.18136 1.88324 5.59426 1.67004 6.06601C1.12599 7.21269 1.31379 8.49435 2.26794 9.5115C2.54411 9.80874 2.83685 10.1005 3.13787 10.3773C3.29666 10.5246 3.33947 10.6255 3.18758 10.8191C3.01066 11.066 2.85544 11.3273 2.72362 11.6003C2.64353 11.7503 2.56896 11.7831 2.44745 11.6576C1.58719 10.8054 0.616462 10.0419 0.229828 8.82432C0.0980178 8.42587 0.0209238 8.01177 0.000608783 7.59309Z" fill="#FDB604"/>
</svg>
