<svg width="721" height="354" fill="none" xmlns="http://www.w3.org/2000/svg"><path d="M715.989 357.536c8.57-2.857 1.567-20.335-1.27-24.874-20.343-32.548-62.717-37.993-97.059-43.925-22.954-3.965-40.535 3.031-61.283 12.066-25.5 11.105-54.094 12.847-81.923 10.585-17.048-1.386-34.301-4.613-50.805-9.103-9.794-2.664-27.799-7.34-33.129-16.935-4.464-8.034-7.122-15.836-10.797-23.92-12.099-26.618-47.917-23.602-71.232-19.264-41.781 7.773-82.706 18.918-125.637 20.004-23.163.587-46.25-.097-69.328-.952-12.84-.476-42.668-2.416-45.724-17.359-1.999-9.772-29.716-5.607-33.755-14.359-3.937-8.529 3.599-23.202 0-32-5.444-13.307-47.188-19.872-55.5-32.5-7.438-11.299 9.613-74.174 0-83.5C-57.788 46.25-59.732 42.924-88 1.266" stroke="#fff" stroke-opacity=".15"/></svg>