<svg width="513" height="582" fill="none" xmlns="http://www.w3.org/2000/svg"><path d="M457.152 256.483l-23.947-39.977c-.079-.138-.213-.22-.308-.342-.099-.126-.151-.283-.266-.396-.049-.051-.119-.066-.157-.106-.089-.086-.158-.158-.255-.23-.157-.121-.347-.191-.523-.283-.192-.108-.389-.221-.592-.295-.071-.018-.112-.068-.174-.081l-46.715-13.234-33.029-33.472-12.415-46.176c-.018-.071-.073-.117-.09-.181-.066-.211-.18-.393-.283-.594-.088-.174-.157-.349-.271-.505-.068-.096-.151-.172-.223-.255-.05-.059-.06-.125-.119-.173-.116-.117-.262-.164-.391-.255-.119-.097-.194-.236-.335-.312l-39.786-24.262c-.074-.044-.145-.048-.215-.078-.109-.057-.189-.123-.302-.168-.175-.074-.362-.087-.551-.138-.21-.056-.412-.126-.63-.15-.115-.006-.215-.032-.328-.031-.184-.003-.358.05-.54.073-.223.027-.451.037-.67.097-.109.034-.209.054-.324.094-.156.058-.302.175-.461.257a3.778 3.778 0 00-.629.376c-.072.054-.146.067-.214.124l-24.475 21.564-36.047-10.09-41.481-40.44c-.072-.063-.155-.082-.229-.142a3.71 3.71 0 00-.657-.421c-.144-.075-.263-.202-.416-.263-.099-.038-.192-.035-.284-.059-.221-.069-.453-.088-.692-.121-.179-.027-.366-.098-.553-.096-.084-.007-.173.04-.281.047-.091.01-.171-.028-.265-.014l-32.43 4.911c-.138.023-.254.105-.385.141a4.35 4.35 0 00-.871.318 4.411 4.411 0 00-.605.396c-.135.11-.299.155-.428.279l-55.253 53.308-.01.003c-.259.06-.516.109-.762.215-.254.12-.473.284-.698.456-.165.119-.355.183-.507.32l-59.53 57.297c-.07.07-.092.152-.16.224-.099.116-.198.215-.284.335-.104.143-.18.298-.261.454a4.3 4.3 0 00-.276.58c-.029.084-.092.14-.112.229-.018.066-.003.123-.02.181-.012.057-.051.102-.071.161l-6.074 31.393c-.018.096.013.187.008.288a3.37 3.37 0 00.005.819c.022.249.04.485.11.725.073.232.182.442.29.664.132.25.257.475.44.684.064.082.08.176.154.248l40.56 41.919 8.804 35.46-22.792 23.292c-.071.073-.091.163-.158.235-.18.21-.313.438-.445.68-.122.225-.247.435-.329.675-.082.241-.104.487-.142.746a3.68 3.68 0 00-.053.747c.021.246.086.48.15.726.067.26.136.508.268.747.038.088.035.181.091.261l23.895 39.778c.23.387.522.714.847.987.013.008.025.008.025.008.378.312.804.522 1.257.672.047.014.08.054.13.067l46.579 13.488 33.033 33.49 12.57 45.93c.052.2.19.341.265.523.11.259.21.51.373.729.18.244.41.421.64.616.145.121.229.277.396.379l39.684 24.714c.229.143.493.169.736.262.187.071.353.155.543.194.645.138 1.313.167 1.948-.009l.011-.003c.543-.15 1.044-.449 1.496-.814.044-.04.105-.045.157-.086l24.628-21.808 35.784 9.948 41.623 41.019c.058.057.141.06.196.106.852.753 2 1.172 3.239.974l32.377-5.11c.102-.017.201-.04.307-.069.011-.003.024.004.039 0l.117-.032.003-.001c.507-.14.964-.381 1.371-.681.097-.077.163-.171.256-.25.053-.049.118-.056.169-.1l55.204-53.514c.123-.022.266.015.386-.019l.011-.003c.631-.174 1.197-.522 1.683-.969.031-.031.081-.034.108-.064l.091-.087 59.186-57.355c.019-.017.024-.041.04-.054a4.15 4.15 0 00.808-1.166c.057-.126.082-.24.127-.367.069-.187.158-.368.201-.563l6.126-31.197c.017-.097-.01-.188-.001-.29.012-.118.059-.222.063-.342.01-.171-.05-.329-.069-.507-.024-.242-.044-.469-.106-.693-.03-.102-.026-.206-.064-.306-.053-.146-.174-.265-.245-.402-.123-.233-.241-.449-.413-.645-.064-.082-.082-.18-.155-.251l-40.42-42.176-8.804-35.46 22.833-23.089c.071-.073.091-.163.151-.233.179-.198.303-.412.433-.635.079-.148.203-.274.269-.425.04-.099.049-.201.074-.3.072-.222.107-.445.144-.681.032-.177.093-.35.096-.519.006-.112-.028-.198-.036-.303-.015-.225-.075-.437-.128-.659-.046-.178-.042-.359-.115-.533-.039-.104-.122-.184-.177-.291-.048-.063-.04-.153-.096-.233v.001zm-45.781 192.114l-42.967-10.537c-.144-.044-.297-.002-.442-.019a3.981 3.981 0 00-.824-.028 3.926 3.926 0 00-.741.129c-.255.071-.5.15-.743.267a3.77 3.77 0 00-.676.423c-.127.097-.284.14-.4.249l-20.776 19.428c-.125.119-.182.276-.285.407a3.773 3.773 0 00-.506.698 3.574 3.574 0 00-.26.686 4.2 4.2 0 00-.179.74c-.03.276-.003.532.022.792.008.166-.027.332.011.493l9.631 42.454-25.993 4.103-40.922-40.323c-.051-.047-.117-.06-.155-.099-.199-.181-.436-.295-.671-.432-.238-.137-.452-.28-.704-.363-.068-.023-.108-.069-.166-.084l-38.918-10.822c-.153-.045-.312-.013-.463-.036a4.118 4.118 0 00-.793-.059c-.271.01-.528.058-.786.118-.24.055-.461.124-.688.225a4.036 4.036 0 00-.751.436c-.118.087-.265.123-.373.218l-24.015 21.26-35.831-22.321-12.433-45.449c-.016-.061-.066-.104-.086-.167-.075-.243-.22-.455-.34-.677-.141-.24-.258-.483-.438-.677-.047-.048-.062-.105-.105-.15l-34.454-34.929c-.049-.052-.112-.069-.156-.106-.201-.185-.433-.311-.677-.454-.225-.129-.43-.27-.675-.355-.072-.022-.122-.081-.189-.097l-46.08-13.348-21.565-35.884 22.211-22.689c.114-.119.16-.269.257-.395.174-.216.326-.43.445-.681.111-.233.199-.467.264-.714.065-.243.117-.483.141-.734a3.486 3.486 0 00-.035-.799c-.014-.145.024-.297-.015-.447l-9.585-38.603c-.018-.071-.07-.118-.092-.188-.077-.254-.213-.476-.335-.705-.134-.23-.25-.466-.427-.668-.05-.059-.06-.125-.112-.175l-39.887-41.224 4.858-25.117 43.06 10.852c.005.002.004-.002.013 0l.014-.004c.576.142 1.173.092 1.752-.027.108-.018.214.029.32 0a4.126 4.126 0 001.787-1.021l.002-.005c.01-.007.01-.007.014-.008l20.656-19.811c1.117-1.069 1.443-2.598 1.067-3.956-.016-.079.014-.145-.003-.224l-9.469-41.83 26.036-3.936 41.06 40.056s.003.01.007.013l.005.002.016.019c.045.037.1.037.137.073.444.403.953.736 1.575.904l38.853 10.618.004-.001.004.002c.026.009.044.003.069.008.038.012.068.008.105.013.078.017.146.021.226.029.229.04.454.092.693.095a4.223 4.223 0 002.729-1.034l23.938-20.868 35.921 21.915 12.234 45.478c.017.068.066.108.088.174.018.071.008.139.038.207.07.179.212.319.305.484.14.237.256.472.435.666.049.052.057.114.108.161l.007.01.001.004.004.002 34.438 34.911.001.004s0 .003.006.009c.037.04.096.039.137.077.438.406.941.747 1.549.923L367.52 279.5l21.561 35.873-22.054 22.435c-.113.119-.16.27-.256.399-.158.204-.31.399-.427.626-.053.099-.123.175-.164.274-.072.158-.071.326-.119.488a3.951 3.951 0 00-.147.685c-.009.114-.05.213-.044.326-.008.181.056.351.084.534.014.145-.025.297.014.446l9.637 38.803c.019.071.07.118.09.181.022.086.021.17.054.253.063.181.201.322.298.486.124.221.232.443.395.635.051.058.067.123.112.175l39.695 41.281-4.878 25.197z" fill="#181816"/><path d="M352.281 335.421l-16.479-33.941c-.051-.108-.157-.17-.211-.273-.061-.098-.067-.211-.135-.307l-23.477-32.218c-.061-.083-.147-.112-.214-.189-.062-.075-.082-.169-.151-.237l-29.196-29.781c-.075-.079-.179-.104-.264-.175-.083-.077-.123-.173-.216-.243l-32.451-23.751c-.094-.073-.202-.082-.299-.142-.102-.06-.158-.155-.261-.207l-34.21-17.058c-.13-.063-.257-.055-.377-.098-.119-.051-.203-.135-.325-.166l-33.061-9.245c-.177-.05-.344-.015-.517-.036-.201-.033-.37-.112-.574-.116l-22.27-.023-7.363-.27a3.978 3.978 0 00-1.656.251l-24.612 8.952s-.01.006-.021.009c-.309.12-.583.33-.872.528-.165.118-.366.185-.512.317-.01.007-.021.01-.03.02l-17.635 16.425c-.027.03-.035.063-.063.09-.198.184-.325.433-.477.662-.15.221-.328.424-.426.664-.017.04-.048.056-.062.094l-9.373 23.767c-.093.228-.076.46-.128.696-.047.227-.148.423-.16.663l-.766 29.082c-.004.181.074.331.093.509.02.182-.028.348.019.526l8.046 32.641c.034.132.128.239.172.364.048.125.042.268.102.392l16.479 33.941c.057.114.155.194.217.295.058.087.06.186.121.268l23.633 32.821c.077.101.176.165.26.26.055.061.071.141.128.194l29.092 29.381c.059.061.142.064.201.113.098.087.145.208.247.287l32.758 24.086c.089.059.188.062.275.111.108.069.171.178.284.234l34.005 17.115c.136.073.279.064.411.123.128.041.214.132.345.168l32.958 8.849c.302.08.605.1.898.114.043 0 .072.022.118.021l29.858.299c.381.006.751-.058 1.114-.155.003-.001.015 0 .022-.002l.004-.001.004-.001c.087-.024.167-.05.249-.081l24.718-8.545c.571-.192 1.054-.517 1.471-.899.022-.022.045-.024.067-.042l17.53-16.831c.426-.408.728-.885.942-1.387.007-.017.027-.03.031-.047l9.578-23.823c0-.012 0-.015.005-.025.162-.415.264-.867.284-1.331l.279-8.174v-.012l-.002-.01.002-.005-.01-.039c0-.015.014-.038.014-.038l.234-21.041c.007-.17-.071-.32-.09-.483-.019-.162.027-.332-.015-.492l-8.037-32.639c-.034-.132-.129-.24-.173-.365-.043-.122-.037-.265-.097-.389v.001zm.319 34.992l-.181 16.443-17.73-.175-32.267-8.551-33.444-17.167-32.196-23.52-28.741-29.173-23.141-31.887-15.966-33.353-8.21-31.618.584-16.214 17.777.009 32.135 8.993 33.607 16.755 31.916 23.361 28.776 29.354 23.103 31.711 16.158 33.276 7.82 31.756z" fill="#181816"/></svg>