<svg width="72" height="72" fill="none" xmlns="http://www.w3.org/2000/svg"><path fill-rule="evenodd" clip-rule="evenodd" d="M72 29.25h-7.65c-.9-3.15-1.8-5.85-3.6-8.55l5.4-5.4-9.45-9.45-5.4 5.4c-2.7-1.8-5.4-2.7-8.55-3.6V0h-13.5v7.65c-3.15.45-5.85 1.8-8.55 3.6l-5.4-5.4-9.45 9.45 5.4 5.4c-1.8 2.7-3.15 5.4-3.6 8.55H0v13.5h7.65c.9 3.15 1.8 5.85 3.6 8.55l-5.4 5.4 9.45 9.45 5.4-5.4c2.7 1.8 5.4 2.7 8.55 3.6V72h13.5v-7.65c3.15-.9 5.85-1.8 8.55-3.6l5.4 5.4 9.45-9.45-5.4-5.4c1.8-2.7 2.7-5.4 3.6-8.55H72v-13.5zm-26.16 12.8c0 5.04-4.375 8.438-10.957 8.438-6.387 0-10.567-3.36-10.957-8.222l-.02-.254h5.625l.04.215c.253 2.011 2.245 3.515 5.292 3.515 3.028 0 4.98-1.62 4.98-3.926v-.039c0-2.695-2.011-4.18-5.41-4.18h-3.222v-4.199h3.145c2.949 0 4.863-1.562 4.863-3.847v-.04c0-2.284-1.621-3.652-4.395-3.652-2.754 0-4.629 1.426-4.863 3.614l-.02.175h-5.41l.02-.234c.39-4.883 4.355-8.086 10.273-8.086 6.074 0 9.98 2.969 9.98 7.402v.04c0 3.515-2.577 5.8-5.878 6.484v.117c4.18.39 6.914 2.813 6.914 6.64v.04z" fill="#EB4545"/></svg>