<svg width="54" height="54" fill="none" xmlns="http://www.w3.org/2000/svg"><path d="M26.982 30.917a4.308 4.308 0 00-2.16 8.04v4.049a.398.398 0 00.235.335c.05.026.107.037.163.032a.452.452 0 00.235-.068l1.527-1.196 1.526 1.196a.358.358 0 00.399.036.398.398 0 00.235-.335v-4.05a4.307 4.307 0 00-2.16-8.04z" fill="#031C77"/><path d="M44.366 36.411H32.798a.62.62 0 010-1.236H43.75V11.228H10.232v23.956h10.79a.62.62 0 010 1.236H9.615A.616.616 0 019 35.804V10.62a.616.616 0 01.616-.62h34.768a.617.617 0 01.616.62v25.184a.617.617 0 01-.634.607z" fill="#031C77"/><path d="M36.843 28.933h-19.72a.905.905 0 110-1.771h19.72a.907.907 0 110 1.771zm0-4.846h-19.72a.905.905 0 110-1.771h19.72a.907.907 0 110 1.77zm-.002-4.842H17.12a.905.905 0 010-1.776h19.72a.907.907 0 110 1.776zM13.552 35.678a3.954 3.954 0 00-3.955-3.955v3.955h3.955zm0-25.067a3.951 3.951 0 01-3.955 3.95v-3.95h3.955zm26.86 25.067a3.954 3.954 0 013.954-3.955v3.955h-3.954zm0-25.067a3.951 3.951 0 003.954 3.95v-3.95h-3.954z" fill="#031C77"/></svg>