<svg width="54" height="54" fill="none" xmlns="http://www.w3.org/2000/svg"><path fill-rule="evenodd" clip-rule="evenodd" d="M19.214 27.252a.409.409 0 01.408.398 7.146 7.146 0 0014.27 0 .408.408 0 01.404-.398h7.19a.414.414 0 01.408.409v1.356a.418.418 0 01-.261.387l-2.054.784a.419.419 0 00-.245.278 12.847 12.847 0 01-1.41 3.404.403.403 0 000 .37l.893 2.01a.408.408 0 01-.087.452l-2.5 2.5a.404.404 0 01-.452.087l-2.01-.893a.403.403 0 00-.37 0 12.849 12.849 0 01-3.405 1.41.419.419 0 00-.278.246l-.79 2.053a.408.408 0 01-.38.262h-3.58a.407.407 0 01-.38-.262l-.79-2.053a.403.403 0 00-.278-.245 12.895 12.895 0 01-3.399-1.41.403.403 0 00-.37 0l-2.01.892a.41.41 0 01-.458-.087l-2.5-2.5a.398.398 0 01-.081-.452l.887-2.01a.403.403 0 000-.37 13.069 13.069 0 01-1.41-3.399.404.404 0 00-.245-.283l-2.048-.79a.408.408 0 01-.262-.381V27.66a.403.403 0 01.409-.409h7.184zm4.145-14.75h6.792a.545.545 0 01.545.545v.354h2.494a.605.605 0 01.605.605v1.9c0 2.44-1.82 3.764-4.08 3.987-.719 1.09-1.775 1.863-2.946 1.863-1.171 0-2.228-.795-2.953-1.863-2.26-.223-4.08-1.552-4.08-3.987v-1.9a.61.61 0 01.61-.605h2.495v-.354a.545.545 0 01.545-.545h-.027zm7.32 2.092v2.293a4.903 4.903 0 01-.3 1.634c1.324-.343 2.18-1.204 2.18-2.642v-1.296l-1.88.01zm-7.549 3.938a5.055 5.055 0 01-.3-1.634v-2.293h-1.89V15.9c0 1.438.866 2.299 2.18 2.642l.01-.011zm.294 6.738v-.703a.18.18 0 01.158-.185 2.663 2.663 0 002.179-1.422.174.174 0 01.196-.098 3.903 3.903 0 001.634 0 .18.18 0 01.196.093 2.647 2.647 0 002.152 1.438.18.18 0 01.174.18v.724a.185.185 0 01-.185.185h-6.324a.185.185 0 01-.18-.185v-.027zm7.332 1.982h-7.969a3.998 3.998 0 107.996 0h-.027z" fill="#031C77"/><path d="M26.845 47.127A20.044 20.044 0 019.492 37.111 19.875 19.875 0 0116.9 9.986a.68.68 0 01.675 1.182 18.519 18.519 0 00-6.901 25.267 18.644 18.644 0 0021.493 8.535.681.681 0 11.403 1.302 19.556 19.556 0 01-5.725.855zm9.435-2.517a.68.68 0 01-.338-1.274 18.519 18.519 0 00-15.18-33.611.682.682 0 01-.441-1.291 19.886 19.886 0 0116.296 36.084.702.702 0 01-.337.093z" fill="#031C77"/><path d="M16.986 13.63a.667.667 0 01-.18 0 .686.686 0 01-.479-.839l.545-1.939-2.032-.545a.679.679 0 01-.375-1.083.68.68 0 01.735-.23l2.69.736a.68.68 0 01.48.839l-.708 2.592a.692.692 0 01-.676.469zm20.633 32.44a.676.676 0 01-.18 0l-2.593-.708a.697.697 0 01-.48-.866l.736-2.69a.68.68 0 011.313.36l-.545 2.03 1.94.546a.68.68 0 01-.18 1.34l-.011-.011z" fill="#031C77"/></svg>