<svg width="62" height="62" fill="none" xmlns="http://www.w3.org/2000/svg"><g clip-path="url(#clip0_807_9612)" fill="#031C77"><path d="M43.862 47.275a.801.801 0 00-.577.247.86.86 0 00-.239.598v3.974H9.287v-29.04h12.35a.801.801 0 00.577-.248.86.86 0 00.239-.598V9.446h20.623v2.763c.018.213.112.41.263.554a.802.802 0 001.111 0 .862.862 0 00.263-.554V8.601a.867.867 0 00-.24-.602.807.807 0 00-.581-.249H21.494a.858.858 0 00-.198.075h-.042a.924.924 0 00-.174.13L7.944 21.563a.907.907 0 00-.126.173v.05a.747.747 0 00-.066.205 1.29 1.29 0 000 .155v30.73a.86.86 0 00.24.598c.152.159.36.247.576.247H43.94a.79.79 0 00.58-.245.847.847 0 00.24-.6v-4.819a.867.867 0 00-.288-.589.806.806 0 00-.61-.193z"/><path d="M17.611 36.816h15.792a.811.811 0 00.535-.273.868.868 0 00.216-.575.868.868 0 00-.216-.575.812.812 0 00-.535-.273H17.61a.811.811 0 00-.535.273.868.868 0 00-.216.575c0 .213.077.419.216.575.14.157.33.255.535.273zm0-5h15.792a.804.804 0 00.577-.247.86.86 0 00.238-.597.86.86 0 00-.239-.598.801.801 0 00-.576-.247H17.612a.801.801 0 00-.577.247.86.86 0 00-.239.598.86.86 0 00.239.597c.153.158.36.247.576.247zm-.815-5.838a.86.86 0 00.239.597c.153.159.36.248.576.248h15.792a.801.801 0 00.577-.248.86.86 0 00.238-.597.86.86 0 00-.239-.597.8.8 0 00-.576-.247H17.612a.801.801 0 00-.577.247.86.86 0 00-.239.597zm7.09-4.726a.871.871 0 00.237.601.814.814 0 00.579.25H31.5a.811.811 0 00.535-.273.868.868 0 00.217-.575.868.868 0 00-.217-.575.811.811 0 00-.535-.273h-6.798a.792.792 0 00-.577.248.847.847 0 00-.239.597zm7.543-3.875a.811.811 0 00.535-.273.868.868 0 00.216-.575.868.868 0 00-.216-.575.81.81 0 00-.535-.273h-6.193a.81.81 0 00-.535.273.868.868 0 00-.216.575c0 .213.077.418.216.575a.81.81 0 00.535.273h6.193zm.078 29.854c2.464 0 2.997-2.056 3.507-2.304.238.568.37 1.176.39 1.795.018.217.113.42.267.567a.83.83 0 00.566.234h.03a.808.808 0 00.608-.277.869.869 0 00.22-.649c-.108-1.453-.522-3.44-1.997-3.44-1.948 0-1.709 2.329-3.597 2.329a3 3 0 01-.312 0 2.922 2.922 0 010-.41c0-1.428-.6-2.193-2.014-2.193-1.2 0-2.872 1.746-3.921 2.975a.899.899 0 00.11 1.186.824.824 0 00.579.221.83.83 0 00.57-.245c1.091-1.242 2.272-2.335 2.662-2.391h.317v.41c-.012 1.422.576 2.192 2.015 2.192zm10.568-21.837c-.048 5.522-.665 13.328-.66 17.316 0 .733.282 1.436.782 1.954s1.179.81 1.886.81c.708 0 1.387-.292 1.887-.81s.782-1.221.782-1.954c0-3.994-.6-11.8-.654-17.316h-4.023zm-4.609-9.657c-2.05-1.373-3.406-.584-3.406.658v5.54c0 1.242 1.373 2.019 3.406.659a3.947 3.947 0 01-.06-.659v-5.54c.001-.22.021-.44.06-.658zm13.239 0c.043.216.065.437.066.658v5.54a3.455 3.455 0 01-.066.658c2.056 1.373 3.41.584 3.41-.658v-5.54c0-1.26-1.378-2.037-3.41-.658zm-3.272-.721h-6.685c-.738 0-1.337.62-1.337 1.385v5.54c0 .765.599 1.385 1.337 1.385h6.685c.738 0 1.337-.62 1.337-1.385v-5.54c0-.765-.599-1.385-1.337-1.385z"/></g><defs><clipPath id="clip0_807_9612"><path fill="#fff" d="M0 0h62v62H0z"/></clipPath></defs></svg>