<svg width="72" height="72" viewBox="0 0 72 72" fill="none" xmlns="http://www.w3.org/2000/svg">
<path fill-rule="evenodd" clip-rule="evenodd" d="M72 29.25H64.35C63.45 26.1 62.55 23.4 60.75 20.7L66.15 15.3L56.7 5.85L51.3 11.25C48.6 9.45 45.9 8.55 42.75 7.65V0H29.25V7.65C26.1 8.1 23.4 9.45 20.7 11.25L15.3 5.85L5.85 15.3L11.25 20.7C9.45 23.4 8.1 26.1 7.65 29.25H0V42.75H7.65C8.55 45.9 9.45 48.6 11.25 51.3L5.85 56.7L15.3 66.15L20.7 60.75C23.4 62.55 26.1 63.45 29.25 64.35V72H42.75V64.35C45.9 63.45 48.6 62.55 51.3 60.75L56.7 66.15L66.15 56.7L60.75 51.3C62.55 48.6 63.45 45.9 64.35 42.75H72V29.25ZM45.8398 42.0508C45.8398 47.0898 41.4648 50.4883 34.8828 50.4883C28.4961 50.4883 24.3164 47.1289 23.9258 42.2656L23.9062 42.0117H29.5312L29.5703 42.2266C29.8242 44.2383 31.8164 45.7422 34.8633 45.7422C37.8906 45.7422 39.8438 44.1211 39.8438 41.8164V41.7773C39.8438 39.082 37.832 37.5977 34.4336 37.5977H31.2109V33.3984H34.3555C37.3047 33.3984 39.2188 31.8359 39.2188 29.5508V29.5117C39.2188 27.2266 37.5977 25.8594 34.8242 25.8594C32.0703 25.8594 30.1953 27.2852 29.9609 29.4727L29.9414 29.6484H24.5312L24.5508 29.4141C24.9414 24.5312 28.9062 21.3281 34.8242 21.3281C40.8984 21.3281 44.8047 24.2969 44.8047 28.7305V28.7695C44.8047 32.2852 42.2266 34.5703 38.9258 35.2539V35.3711C43.1055 35.7617 45.8398 38.1836 45.8398 42.0117V42.0508Z" fill="#EB4545"/>
</svg>
