<svg width="287" height="79" fill="none" xmlns="http://www.w3.org/2000/svg"><path d="M26.722 34.394c.007-.047-.076-.155-.17-.168 0 0-.061.088-.068.136-.02.143.022.197.117.21.095.012.197-.022.121-.178zm-1.588 2.061c-.222.212-.222.212-.032.238.143.02.15-.028.115-.13-.041-.054.013-.095.149-.028.088.06.19.026.197-.022.025-.19-.165-.216-.428-.058zm-2.97 3.327c-.013.095.022.197.076.156.054-.041.067-.137.032-.238-.035-.102-.082-.108-.108.082zM6.667 34.045c.02-.142-.117-.21-.463-.16 0 0-.006.048.035.102.069.203.408.201.428.058zm3.039-4.189c-.026.19-.1.374-.207.456-.108.082-.169.171-.175.219-.04.285.285.039.419-.234.073-.184.2-.409.296-.396.101-.034.557-.893.57-.988-.212-.223-.839.467-.903.943zm15.439 9.023c-.033.238.002.34.062.25.02-.142.046-.332.058-.428-.028-.149-.095-.013-.12.178zm.038-1.351c-.048-.007-.067.136-.08.23.022.198.056.3.056.3.048.006.108-.083.134-.273.013-.095-.063-.251-.11-.257zm-.066-1.656c-.013.095-.026.19.07.203 0 0 .053-.041.066-.136.013-.096-.022-.197-.015-.245-.089-.06-.102.035-.121.178zM6.409 33.09s-.121.177-.235.307c-.08.232-.087.279.082.108.343-.39.41-.525.274-.592-.035-.102-.089-.06-.048-.007.035.102-.019.143-.073.184zm.525-.655c.067-.137.067-.137-.089-.06-.108.081-.216.164-.222.211-.013.095.19.026.31-.151zm-.381 2.806c-.19-.026-.264.158-.14.32.13.114.272.134.304-.104a.206.206 0 00-.164-.216zm-.036.625c-.048-.007-.156.075-.162.123-.055.041-.061.089-.013.095.095.013.196-.022.203-.07.054-.04.067-.135-.028-.148zm-.727-1.068c-.013.095-.21.117-.36.145-.38-.051-.472.275-.092.327.143.02.225.127.247.324l-.033.238.318-.2c.318-.198.324-.246.18-.605-.07-.203-.152-.311-.26-.229zm19.69.542c.038-.286-.01-.292-.117-.21-.067.136-.121.177-.108.082.013-.095-.041-.054-.15.028-.114.13-.073.184.064.251.136.067.224.127.224.127s.067-.136.087-.278zm4.61-11.485c-.047-.006-.149.029-.155.076-.013.095.028.15.076.156 0 0 .101-.035.114-.13.054-.041.013-.095-.035-.102zm-1.138-2.673c-.02.143.069.203.26.229.094.013.237.032.243-.015.007-.048-.13-.115-.212-.223-.177-.12-.272-.134-.291.009zm.827-.033a.664.664 0 00-.168.17c-.127.226.117.21.244-.014.06-.089.026-.19-.076-.156zm.483.017c-.096-.013-.156.076-.169.17.063.252.402.25.435.012.032-.238.032-.238-.266-.182zM27.184 40.27c.06-.089.026-.19-.009-.292-.082-.108-.13-.115-.149.028a.515.515 0 00.056.298c.041.054.09.06.102-.034zm.684-5.042c-.047-.007-.066.136-.038.285-.02.143-.045.333.002.34-.006.047.035.101.035.101.047.007.114-.13.092-.326.026-.19.005-.387-.09-.4zm.601-11.205c-.264.158-.181.266.32.14.244-.015.298-.056.169-.17-.13-.115-.225-.128-.489.03zm-1.805 10.8c-.006.047.028.148.076.155.095.013.095.013.101-.035.007-.047.013-.095-.075-.155-.041-.054-.095-.013-.102.034zm-.11.808c-.02.142.01.292.063.25.102-.034.121-.177.093-.326-.05-.346-.104-.305-.156.076zm.511 5.155c-.013.096-.025.19.029.15a.146.146 0 00.025-.19c-.028-.15-.034-.102-.054.04zm.018.584c-.02.143.015.244.123.162.048.007.115-.13.033-.238-.063-.25-.117-.21-.156.076zm.865-6.373c.095.013.121-.178.01-.435.007-.047-.002-.34.044-.672.038-.286.023-.53-.012-.632-.04-.054-.037-.44.028-.916.01-.435.053-1.107.01-1.5.01-.435-.007-1.019-.01-1.358.009-.774.04-1.012-.027-3.007-.06-2.77-.041-2.912.584-2.876.095.013.244-.015.25-.063.048.007.143.02.197-.021.095.013.15-.029.15-.029s.148-.028.25-.062c1.025-.055 1.479-.187 1.342-.254-.082-.108-.266-.181-.36-.195-.143-.019-.232-.08-.226-.127.08-.231-.24-.372-.402-.248a.264.264 0 00.11.257c.355.242.187.413-.276.253-.238-.032-.38-.052-.393.044-.013.095-.102.034-.13-.115-.171-.169-.212-.223-.273-.134-.108.082-.08.232.01.292.088.06.122.162.02.197-.006.047-.142-.02-.224-.128-.076-.155-.165-.216-.361-.194-.197.022-.197.022.006-.048.162-.123.169-.17-.07-.203-.176-.12-.252-.276-.255-.616-.024-.536.05-.72.383-.674.142.019.196-.022.181-.267.026-.19.08-.23.432-.328.292-.01.435.01.435.01-.013.095.082.108.143.02a1.19 1.19 0 01.488-.031c.197-.022.346-.05.359-.145.006-.048.101-.035.142.02.171.168.318-.2.1-.375-.083-.108-.165-.216-.07-.203.19.026.106-.422-.078-.495-.088-.06-.158-.264-.18-.46-.071-.543-.318-.867-.854-.843-.393.044-.447.085-.33.294.123.162.075.156-.09-.06-.211-.223-.306-.236-.747-.199-.25.063-.536.025-.53-.023.007-.047-.078-.495-.102-1.031-.124-1.228-.767-6.837-1.021-8.18-.387-2.862-.915-4.677-1.261-4.627a.46.46 0 01-.415-.154c-.158-.263-.92-.367-.993-.183-.08.232-.508.173-.516-.118-.022-.197-.247-.325-.463-.16-.06.089-.25.063-.47-.112a3.956 3.956 0 00-1.299-.419l-.945-.177-.477.662c-2.495 3.392-4.987 7.122-7.417 11.104-.497.804-1.108 1.738-1.309 2.147-1.222 1.869-1.585 2.4-1.598 2.496-.006.047-.134.272-.356.484-.283.3-.486.37-1.327.498-1.187.178-1.485.235-1.578.561-.134.273.163.942.507 1.619.37.486.344.676.048 1.072a24.97 24.97 0 00-.691 1.166c-.261.497-.57.988-.691 1.166-.564.94-1.51 2.556-1.516 2.603-.007.048-.182.266-.315.539-.867 1.384-1.704 2.917-1.702 3.256.028.15-.08.232-.127.225-.048-.006-.21.117-.325.247-.133.272-.133.272.076.156.21-.117.21-.117.022.196-.08.232-.188.314-.27.206-.035-.102-.089-.06-.15.028-.14.32-.185.653-.09.666.095.013.13.114.158.264.022.196.206.27.913.414 1.128.25 2.283.31 2.445.187.108-.083.073-.184-.05-.346-.212-.223-.26-.23-.634-.328-.19-.026-.224-.128-.158-.264.013-.095-.015-.244-.11-.257-.089-.06-.15.028-.162.123a.206.206 0 01-.216.165c-.238-.033-.212-.223.039-.286.149-.028.162-.123.175-.218-.042-.054-.083-.108-.035-.102.048.007.15-.028.292-.009.108-.082.149-.028.082.108-.114.13-.08.232.07.203.053-.04.168-.17.18-.266.02-.142.087-.279.135-.272.108-.082.242-.355.287-.688.02-.142.067-.136.19.026.082.108.117.21.056.298-.101.035-.114.13-.127.225.095.013-.026.19-.14.32-.23.26-.23.26-.04.286.191.026.48-.323.411-.526-.034-.101-.028-.149.054-.04.048.006.15-.03.223-.213.067-.136.181-.266.29-.348.047.006.053-.041-.09-.06-.19-.026-.183-.074-.021-.197.12-.178.175-.219.25-.063.042.054.102-.035.135-.273.038-.285.099-.374.241-.354.096.013.15-.029.108-.082a.31.31 0 01.128-.225c.095.013.127-.225.106-.422-.022-.197.038-.285.08-.231.047.006.19.025.339-.003.21-.117.21-.117-.076-.155-.238-.033-.231-.08-.123-.162.101-.035.155-.076.108-.083-.095-.013.013-.095.216-.164.155-.076.318-.2.33-.294.093-.327.873-1.432.968-1.419.102-.035.175-.218.2-.409.027-.19.135-.272.277-.253.333.045.353-.097.214-.504-.056-.298-.09-.4.065-.475.114-.13.108-.082.04.054-.073.184-.073.184.118.21.142.019.244-.016.25-.064-.034-.101.128-.224.283-.3.407-.139.502-.126.47.112-.013.095-.074.184-.121.177-.048-.006-.108.082-.115.13-.013.095-.2.409-.389.722-.187.314-.369.58-.375.627-.106.422-.36.872-.523.995-.114.13-.181.266-.147.368.041.054-.013.095-.06.088-.048-.006-.15.029-.156.076-.038.286.266.182.46-.18.255-.45.217-.164-.051.381-.134.273-.214.504-.125.564.13.115.387.005.311-.151-.035-.102-.028-.15.067-.136.095.013.102-.035.115-.13-.09-.06.019-.143.114-.13.102-.035.162-.123.127-.225.013-.095.026-.19.074-.184.095.013.197-.021.155-.075.026-.19.227-.6.322-.586.095.012.15-.029.108-.083.026-.19.274-.592.417-.573.048.007.054-.04.013-.095-.07-.203.277-.253.393-.043.11.257.301.283.238.032-.034-.102-.028-.15.013-.095.143.02.789-.814.815-1.004.006-.047.146-.367.328-.633.309-.491.106-.422 3.272-.913 1.187-.178 2.469-.343 2.815-.393.345-.05.793-.134.99-.156.149-.028.888-.121 1.437-.24.787-.087 1.126-.09 1.161.012.063.25.234 4.343.337 6.44.075 1.947.068 1.995.09 3.257-.01.435.062.977.096 1.079.035.102.07.203.016.244-.108.082-.017 1.548.126 1.567 0 0 .015.245-.058.429-.033.237-.058.428.037.44.095.014.108-.082.114-.13.046-.332.137.068.1.693.05.345.053.685.046.732-.006.048-.013.096-.067.137-.102.034-.162.123-.168.17-.007.048.034.102.142.02.054-.041.13.114.17.895.028.149-.074.184-.163.123-.224-.127-.122.904.137 1.133.212.222.647.233.72.049.067-.136.115-.13.19.026.083.108.13.114.19.026.061-.089.163-.124.305-.104.19.026.292-.01.299-.057-.041-.054.032-.238.099-.374l.14-.32-.039.286c-.025.19.057.298.247.324.286.038.413-.186.14-.32-.142-.02-.177-.121-.11-.258.06-.088-.022-.196-.206-.27-.088-.06-.224-.127-.218-.175.013-.095.108-.082.197-.021.225.127.413-.187.328-.634-.05-.346-.24-.372-.285-.039-.058.428-.296.396-.245.016a2.063 2.063 0 01-.017-.584c-.022-.197.032-.238.114-.13.082.108.171.169.266.182.143.019.074-.184-.132-.454-.281-.426-.372-.826-.21-.95.054-.04.108-.081.101-.034-.025.19.01.292.085.448.082.108.17.168.266.181.047.007.054-.041.02-.143-.083-.108-.12-.549-.11-.983.011-.435.009-.774-.08-.835-.136-.067-.09-.4.052-.38.047.006.162-.123.194-.361.026-.19-.009-.292-.056-.299-.054.041-.057-.298-.046-.732.103-.761.103-.761.423-.621.19.026.238.032.197-.022-.225-.127-.151-.311.032-.238.137.067.143.02.147-.367-.015-.244.023-.53-.011-.631.006-.048.067-.137.162-.124.19.026.19.026.006-.047-.088-.06-.17-.169-.164-.216.006-.048.06-.09.102-.035.088.06.142.02.149-.028.013-.095-.076-.156-.171-.169-.095-.013-.178-.12-.158-.264-.028-.149-.015-.244.032-.237.095.013.121-.178.052-.38-.01-.293.058-.429.172-.559.21-.116.322-.586.125-.564-.263.158-.374-.1-.18-.46.074-.184.093-.327.046-.333-.095-.013-.13-.115-.11-.258.019-.142.073-.183.168-.17.082.108.086-.28.027-.917a1.079 1.079 0 01-.002-.34c.013-.095-.07-.203-.104-.304-.164-.216-.072-.543.1-.374.13.114.11-.809-.014-.97-.089-.061-.098-.353-.059-.639.093-.326.071-.523-.024-.536-.143-.019-.072-.542.123-.903.12-.178.168-.171.136.067l.164.216c.124.162.158.263.003.34-.067.135-.106.42-.06 1.154-.037.624.035 1.167.07 1.268-.013.096.009.292-.045.333-.013.096-.046.333.03.489.022.197.063.25.206.27.203-.07.203-.07.04.054-.27.206-.35.437-.172.558.143.02.13.114.11.257-.06.089-.051.38.025.536.069.203.056.299-.039.286-.203.069-.196 1.087-.01 1.5.07.203.091.4.072.542a.89.89 0 00.126.502c.075.156.164.216.177.12-.044-.393.084-.617.179-.605.047.007.117.21.084.448-.038.285-.153.415-.248.402-.143-.02-.203.07-.175.219-.039.285.268.52.314.188.013-.096.067-.137.108-.083.095.013.076.156.002.34-.073.183-.08.231.022.196.155-.075.155-.075-.02.143-.073.184-.08.231-.038.285.088.061.117.21.05.346-.013.096-.04.286.043.394.041.054.098.352.052.685-.038.285-.049.72-.027.917-.026.19-.01.434.037.44-.013.096-.013.096.082.109.143.02.26-1.564.131-1.678-.082-.108-.13-.114-.022-.197.15-.028.138-.66.04-1.011-.103-.305-.09-.4.046-.333.041.054.06-.089.045-.333-.009-.292-.024-.536.024-.53.013-.095.019-.143-.076-.156-.048-.006-.076-.155.01-.434.087-.279.106-.422-.024-.536-.088-.06-.075-.156.02-.143.142.02.179-.605.066-1.202-.009-.292.052-.38.147-.368.095.013.13.115.117.21-.06.089-.08.232-.033.238-.006.047.07.203.057.298-.013.095.056.299.043.394.082.108.044.393.065.59.022.197-.03.577.02.923a5.318 5.318 0 00-.027.916c-.01.435.059.638.201.658zm.297-13.96c.04.055.021.197-.074.184-.013.096-.047-.006-.028-.149.02-.142.073-.184.102-.034zM4.849 31.378c-.095-.013-.095-.013-.082-.108.06-.09.115-.13.162-.124 0 0 .041.054.028.15-.013.095-.06.088-.108.082zm1.331-.885c-.013.095-.133.272-.153.415a1.54 1.54 0 01-.229.26c-.101.034-.108.081-.06.088.088.06.034.102-.121.177-.156.076-.23.26-.208.457.01.292.01.292-.229.26-.285-.04-.285-.04.266-.885.248-.402.49-.757.497-.805.012-.095.114-.13.162-.123.142.02.183.073.075.156zm.087-.28c-.143-.019-.143-.019-.13-.114.054-.04.162-.123.21-.117.047.007.082.108.075.156-.013.095-.108.082-.155.076zm.153-.415c-.041-.053.073-.183.188-.313.168-.17.168-.17.082.108-.147.368-.147.368-.27.206zm.288.379c-.095-.013-.089-.06-.076-.156.054-.041.108-.082.156-.076.047.007.04.054.034.102-.013.095-.067.136-.114.13zm.336-1.408c-.143-.02-.136-.067-.041-.054.06-.089.15-.028.238.032 0 0-.054.042-.197.022zm2.076.766c-.203.07-.298.057-.28-.086.027-.19.38-.288.455-.132.041.054-.067.136-.175.218zm.24-.694c-.014.095-.109.082-.109.082-.047-.006-.095-.012-.13-.114.013-.095.02-.143.163-.123.095.013.136.067.075.155zm1.19-.565c-.095-.013-.184-.073-.17-.168.006-.048.06-.089.155-.076.047.006.089.06.13.114.034.102-.02.143-.115.13zm.16-.462a.367.367 0 01-.25.062c-.048-.006.006-.047.114-.13a.264.264 0 00.175-.218c.006-.047.067-.136.168-.17.197-.023.044.393-.207.456zm.417-.574c-.095-.012-.13-.114-.117-.21.02-.142.086-.278.188-.313.143.02.184.074.158.264-.026.19-.086.279-.23.26zm6.12-10.116c.21-.117.38.051.219.175-.108.082-.121.177-.08.231.04.054-.013.095-.108.082-.095-.013-.082-.108-.07-.203.06-.089.026-.19-.021-.197-.095-.012-.095-.012.06-.088zm-2.68 2.252c-.031.238-.64.445-.602.16.02-.143.47-.614.438-.376-.012.095.035.101.09.06.1-.035.142.02.075.156zm.107-.422c-.048-.006-.137-.067-.13-.114.013-.095.108-.082.155-.076.035.101.124.162.117.21l-.142-.02zm.462-.906c-.04.285-.112.47-.112.47s-.09-.061-.171-.17c-.171-.168-.165-.215.105-.42l.236-.308-.058.428zm.818-1.39a3.819 3.819 0 01-.248.402.207.207 0 01-.216.164c-.143-.02-.136-.067.02-.142.1-.035.174-.219.187-.314.026-.19.2-.409.376-.627l.33-.294-.133.272a2.086 2.086 0 01-.316.539zm.207 2.401c-.06.089-.169.171-.216.165-.143-.02-.044-.394.153-.415.102-.035.089.06.063.25zm.153-.415c-.197.022-.197.022-.034-.102.108-.082.203-.069.203-.069.04.054-.02.143-.169.171zm.201-.409c.073-.184.372-.24.346-.05-.007.048-.108.083-.21.117-.149.029-.196.022-.136-.067zm2.687 6.614c-.067.136-.46.18-.441.037.006-.048.114-.13.264-.158.142.02.19.026.177.12zm.483-1.775c-.123-.162-.218-.175-.238-.033-.06.09-.108.083-.088-.06-.104-.305.181-.266.38.052.117.21.117.21-.054.04zm1.383-4.124c-.108.082-1.73.25-3.642.426-.102.035-.346.05-.543.072-.196.022-.34.002-.333-.045.007-.048.201-.409.497-.805.2-.409.443-.763.45-.81.006-.048.369-.58.744-1.207.424-.621.968-1.42 1.216-1.821.987-1.562 1.29-2.005 1.311-1.809.029.15.09 1.127.138 2.199.035 1.167.153 2.443.142 2.877.03.489.027.876.02.923zm3.95-5.906c-.006.048-.04-.054-.021-.197.02-.142.073-.184.101-.034-.006.047-.025.19-.08.231zM22.314 35.83c-.048-.006-.089-.06-.123-.162.006-.047.012-.095.108-.082.047.006.088.06.082.108-.013.095-.02.143-.067.136zM25.29 17.1c.026-.19.093-.326.134-.272a.58.58 0 01.091.4c-.058.428-.235.307-.225-.128zm-2.792 24.86c-.047-.007-.082-.108-.063-.251l.04-.285c.047.006.075.155.103.304.028.15.015.245-.08.232zm1.855-3.672c-.067.136-.115.13-.13-.115-.05-.345.18-.605.236-.307a.478.478 0 01-.106.422zm.17-.897c.041.054-.06.088-.162.123-.197.022-.197.022-.035-.102.102-.034.156-.075.197-.021zm.334-2.813c-.048-.007-.083-.108-.07-.203.087-.28.223-.212.184.073-.013.095-.067.136-.114.13zm.742-5.47c.048.006.089.06.082.108-.013.095-.067.136-.114.13-.048-.007-.089-.06-.076-.156a.103.103 0 01.108-.082zm-.642 4.37c-.012.095-.019.142-.066.136-.095-.013-.124-.162-.11-.258.038-.285.168-.17.177.122zm-.819 3.182a.594.594 0 01-.115.13c-.047-.007-.088-.06-.075-.156.006-.047.108-.082.155-.075.048.006.089.06.035.101zm.714-5.619c.048.007.082.108.063.25-.013.096-.067.137-.114.13-.048-.006-.035-.1-.022-.196.026-.19.032-.238.073-.184zm2.44-5.482c.095.013.101-.034.026-.19-.042-.054-.022-.196.038-.285.121-.177.225.127.195.705.003.339-.14.32-.285-.04-.082-.107-.07-.202.026-.19zm-.658 5.918c-.076-.156-.056-.299-.009-.292.095.013.177.12.152.311.097.352-.046.333-.143-.02zm.769-4.595c.02-.142.093-.326.14-.32.048.007.07.204.05.346-.032.238-.1.374-.147.368-.047-.007-.075-.156-.043-.394zm.059.638c.006-.047.114-.13.114-.13.048.007.082.108.076.156-.013.095-.108.082-.156.076-.095-.013-.095-.013-.034-.102zm-.065.476c.02-.143.032-.238.08-.232.047.007.13.115.11.258.029.149.016.244-.032.237-.095-.012-.13-.114-.158-.263zm.202.657c-.026.19-.14.32-.122.177-.062-.25-.03-.488.065-.475.048.006.076.155.056.298zm-.129 2.017c-.047-.007-.089-.06-.035-.102.007-.047.033-.238-.05-.346-.082-.108-.062-.25-.05-.345.115-.13.067-.137-.034-.102-.102.035-.143-.02-.022-.197.073-.184.147-.367.16-.462.032-.238.21-.117.177.12-.02.143-.032.238-.127.225-.143-.019-.15.029-.02.143.089.06.152.311.16.603-.003.387-.016.482-.159.463zm2.402-6.989c-.156.076-.25.063-.34.003-.04-.054-.047-.007-.006.047.063.251.11.258.34-.002.168-.17.168-.17.006-.048zM5.908 34.282c.074-.183.032-.237-.063-.25-.149.028-.35.437-.267.545.123.162.237.032.33-.295zm24.569-11.487c.047.006.095.013.108-.082.013-.096-.029-.15-.029-.15s-.101.035-.114.13c-.06.089-.06.089.035.102zM6.789 33.142c-.019.142.022.196.124.162.101-.035.203-.07.21-.117l-.178-.121c-.095-.013-.143-.02-.156.076zm1.379-1.945c-.19-.025-.299.057-.305.104-.007.048-.108.083-.245.016-.183-.074-.237-.033-.257.11-.013.095-.073.184-.12.177-.048-.006-.115.13-.135.273-.019.143.016.244.07.203.047.006.076.156.002.34-.08.23-.106.421-.064.475.069.203.123.162.21-.117.14-.32.327-.633.617-.982.404-.478.423-.62.227-.599zm-.722.677c-.095-.012-.082-.108-.07-.203.109-.082.122-.177.17-.17.047.006.034.1.02.196-.012.095-.073.184-.12.177zm.494-1.143c.095.012.15-.029.162-.124.007-.047-.028-.149-.123-.162-.048-.006-.108.082-.115.13-.012.095.029.149.076.155zm22.8-8.095c-.032.238.01.292.178.12.006-.047.019-.142-.07-.202-.04-.054-.095-.013-.108.082zm.626 1.102c-.026.19-.033.238.136.067.006-.048.02-.143-.028-.15-.041-.053-.095-.012-.108.083zm.436-.716c-.035-.101-.076-.155-.136-.067-.007.048-.203.07-.346.05-.28-.086-.38-.052-.305.104-.013.095.13.114.273.134.155-.076.345-.05.44-.037.048.006.109-.082.074-.184zm-.586-.322c.047.007.155-.075.162-.123.013-.095-.076-.156-.123-.162-.048-.006-.156.076-.169.17-.013.096.07.204.13.115zm-.416-1.219s.095.013.108-.082c.007-.047-.076-.155-.076-.155-.088-.061-.095-.013-.108.082-.013.095-.019.142.076.155zm-.154 2.208c-.13-.115-.13-.115-.156.075.035.102.016.245.063.251-.013.095.095.013.197-.022.013-.095-.022-.196-.104-.304zm.82 14.982c-.053.041-.114.13-.072.184.069.203.123.162.155-.076.013-.095-.028-.149-.082-.108zm5.638 2.364a.367.367 0 00-.127.225c-.013.095.028.15.082.108.054-.041.162-.123.175-.218.013-.096-.076-.156-.13-.115zm-.508.173c-.162.124-.257.11-.244.016.013-.096-.076-.156-.17-.169-.096-.013-.204.07-.223.212-.033.238.741.246.828-.033.025-.19.025-.19-.19-.026zm21.997-10.383c-.123-.162-.442-1.03-.747-1.99-.719-1.842-1.152-2.58-1.868-3.015-.538-.316-2.097-.963-2.478-1.015-.142-.02-.184-.073-.069-.203.108-.082.169-.171.08-.232-.041-.054.006-.047.095.013.231.08 3.123-1.95 4.235-3.01.944-.888 1.934-2.11 2.357-2.731.583-1.084.535-2.156-.314-4.112-.22-.514-.58-1.435-.747-1.99-.955-2.6-2.285-3.508-5.9-3.998-2.33-.317-4.944-.332-7.155-.1-.495.079-1.079.096-1.263.023-.136-.067-.238-.033-.244.015-.013.095-.143-.02-.272-.134-.342-.337-1.16-.738-1.765-.918-.517-.118-.51-.166-1.602 2.883-1.785 4.941-3.354 9.717-5.77 17.527-.074.184-.285 1.027-.544 1.864-.259.837-.45 1.537-.41 1.591.041.055-.02.143-.073.184-.054.041-.22.552-.386 1.062-.119.517-.292 1.075-.359 1.21-.146.368-.265.885-.444 1.49-.032.238-.166.51-.268.546-.06.088-1.344-.086-2.242-.256-.142-.02-.285-.04-.292.008-.012.096-.073.184-.12.178-.162.123.108.983.444 1.368.082.108.199.318.192.365-.006.048.063.25.2.318.129.114.164.216.103.305-.06.088.567.464.681.334.102-.034.076.156.03.489-.079.231.384.39 1.791.727.47.112.891.218.837.26-.013.094-.114.129-.155.075-.362-.194-.708-.145-.882.074-.188.313-.366.193-.184-.074.067-.136.02-.142-.219-.174-.196.021-.34.002-.333-.046.013-.095-.123-.162-.266-.181-.19-.026-.34.002-.352.097-.013.096.082.108.13.115.047.006.082.108.063.25-.013.096.028.15.082.109.095.013.225.127.348.29.2.317.472.45.456.206-.028-.149 1.317-.063 1.434.147-.007.047.088.06.196-.022.108-.082.216-.165.134-.273-.034-.101.013-.095.095.013.13.115.219.175.273.134.054-.041.095.013.089.06-.013.096.028.15.13.115.107-.082.4-.09.685-.052.237.032.475.064.488-.03 0 0 .197-.023.387.003.28.087.368.147.39.344.021.197.103.305.389.343.143.02.393-.043.447-.084.054-.041.156-.076.245-.016.183.074.285.04.304-.104.02-.142.02-.142.19.026a.712.712 0 00.219.175c.06-.088 1.736-.297 2.177-.334.34-.002 1.18-.13 1.526-.18.101-.035.542-.072.936-.115.34-.003.888-.122 1.187-.178.25-.063.99-.157 1.58-.222 1.688-.304 4.094-.897 5.475-1.437 3.67-1.342 6.654-3.698 7.102-5.575.125-.564-.1-1.757-.48-2.535zm-24.805 9.663c-.19-.026-.26-.23-.158-.264.155-.075.285.039.26.23-.007.047-.055.04-.102.034zm.98-.448c-.237-.032-.23-.08-.068-.203.168-.171.393-.044.367.146-.006.048-.155.076-.298.057zm2.47-7.125c.101-.035.237.032.279.087.116.21-.188.313-.353.097-.177-.121-.17-.169.074-.184zm-.703.535c.048.006.089.06.035.101-.013.095-.067.136-.114.13-.048-.006-.042-.054-.029-.15a.103.103 0 01.108-.081zm-.606 1.613c.006-.048.108-.083.155-.076.096.013.09.06.035.102-.013.095-.114.13-.21.116-.047-.006-.04-.054.02-.142zm-.587 5.394c-.048-.007-.143-.02-.13-.115-.034-.101.02-.142.115-.13.095.013.184.074.17.169-.012.095-.107.082-.155.076zm.112-.47c-.095-.012-.089-.06-.082-.108.06-.088.292-.008.279.087-.007.047-.102.034-.197.021zm.173.508c-.006.048-.04-.054-.021-.196.019-.143.067-.136.101-.035.041.054.022.197-.08.231zm2.691-8.402c-.047-.006-.12.177-.285 1.027-.038.285-.112.47-.207.456-.13-.114-.114.13-.01.435.116.21.11.257-.074.184-.136-.067-.197.021-.29.348-.051.38-.07.523.066.59.143.02.088.06-.06.089-.197.021-.305.104-.318.199-.02.142-.216.164-.441.037-.273-.134-.158-.264.3-.783.235-.307.417-.573.375-.627-.034-.102-.04-.054-.053.041-.046.333-.163.123-.152-.311-.002-.34.106-.422.385-.336.047.007.12-.177.105-.421-.002-.34.071-.523.166-.51.156-.076.43-.669.508-1.24.019-.142.08-.23.127-.224.048.006.07.203.024.536-.086.279-.118.517-.166.51zm15.089-8.027c-.048-.007-.089-.06-.076-.156.007-.047.067-.136.115-.13.095.013.13.115.123.162-.013.096-.067.137-.162.124zm1.643-2.829c-.013.095-.06.089-.108.082 0 0-.047-.006-.034-.101.013-.096.067-.137.114-.13.048.006.089.06.028.149zm.595-.452c-.06.088-.115.13-.163.123-.047-.006-.04-.054-.028-.149a.103.103 0 01.108-.082c.096.013.089.06.083.108zm-12.106 1.747c.72-2.082 2.298-7.293 2.356-7.72.046-.334 2.514-.677 5.1-.81 1.554-.032 5.42.396 5.394.587-.033.237-.97 1.079-2.969 2.6-2.478 1.843-5.912 3.945-9.018 5.412-.568.262-.981.448-.981.448-.048-.006-.022-.197.118-.517zm9.275.194c-.06.088-.162.123-.21.117-.19-.026-.13-.115.067-.137.156-.075.197-.021.143.02zm-.48.322c-.006.048-.067.136-.162.123-.06.09-.095-.012-.089-.06.02-.143.074-.184.121-.177.095.012.136.066.13.114zm-.839.468c-.27.205-.587.404-.79.474-.46.18-.508.173-.333-.046.108-.082.263-.158.31-.151.096.013.252-.063.414-.186.162-.124.371-.24.527-.316.203-.07.143.019-.127.225zM40.34 30.769c-.02.142-.087.279-.182.266-.095-.013-.05-.346.106-.422.06-.088.095.013.076.156zm.712-7.75c.065-.476.262-.498.204-.07-.02.143-.093.326-.14.32-.109.082-.137-.067-.064-.25zm-.118.516c.047.006.13.114.123.162-.013.095-.067.136-.114.13 0 0-.089-.06-.076-.156-.041-.054-.028-.149.067-.136zm-1.35 8.875c.149-.028.162-.123.067-.136-.095-.013-.095-.013-.082-.108.168-.171.304-.104.224.127a.206.206 0 01-.216.165c-.155.075-.149.028.007-.048zm-.6 1.566c.101-.035.168-.171.14-.32-.034-.102.039-.286.1-.374.107-.083.12-.178.08-.232 0 0 .012-.095.06-.089.095.013.149-.028.12-.177-.04-.054.02-.143.068-.136.19.026.084.447-.197 1.087-.073.184-.187.314-.33.295-.095-.013-.089-.06-.041-.055zm-.306 4.754c-.048-.007-.228-.467-.215-.562.02-.143.178.12.247.324l-.032.238zm.187-4.238c.048.007.102-.034.115-.13-.041-.053.02-.142.168-.17.095.013.095.013.029.149-.067.136-.087.279-.113.469-.038.285-.276.253-.279-.086-.028-.15-.015-.245.08-.232zm-.909 4.915c.032-.238.309-.491.276-.253-.025.19.219.174.251-.063.013-.095.06-.089.124.162.028.149.103.304.199.317.095.013.082.108-.026.19-.156.076-.203.07-.32-.14-.11-.257-.457-.207-.394.044.035.101.016.244-.086.279-.102.034-.177-.121-.024-.536zm1.116-10.36c.026-.19.146-.368.194-.362.048.007.022.197-.004.387-.074.184-.14.32-.236.308 0 0-.028-.15.046-.333zm-.132.611c.041.054.022.197-.004.387l-.08.232-.063-.251c-.056-.298.071-.523.147-.368zm-.23.986c-.061.089-.048-.006-.029-.149.02-.143.026-.19.054-.04.041.053.022.196-.026.19zm-1.177 10.45c-.177-.122-.212-.223-.158-.264.108-.083.19.025.32.14.206.27.098.352-.162.123zm.318-.2c-.048-.006-.143-.02-.184-.073.007-.048.02-.143.121-.178.054-.04.102-.034.136.067.041.054-.019.143-.073.184zm.058-.428c-.047-.007-.082-.108-.076-.156.007-.047.054-.04.102-.034.041.054.13.114.123.162-.006.047-.101.034-.149.028zm.113.596c-.076-.155.105-.421.302-.443.156-.076.422.106.396.296-.02.143-.67.297-.698.148zm.93-.067c-.061.089-.15.028-.137-.067-.063-.25.153-.415.216-.164.041.054.022.196-.08.231zm.657-.201c-.13-.115-.137-.067-.067.136.075.155.021.197-.121.177-.096-.013-.418-.492-.275-.473.203-.07.678-.005.666.09-.013.095-.108.082-.203.07zm.5-.126c-.079.231-.174.218-.155.076.013-.096.067-.137.121-.178.095.013.095.013.035.102zm.623-1.369c-.28-.086-.374-.1-.299.056.035.102.029.15-.013.096-.04-.054-.19-.026-.291.008-.156.076-.156.076-.041-.054.06-.088-.042-.054-.204.07-.155.075-.257.11-.196.021.06-.088.067-.136-.13-.114-.102.035-.203.07-.216.164.063.251-.305.104-.504-.213-.152-.312-.173-.508.004-.387.048.006.143.019.15-.029.012-.095.263-.157.453-.132.285.039.38.052.314.188-.067.136.028.15.32.14.196-.021.447-.084.454-.132.054-.04.203-.069.291-.009.13.115.19.026.216-.164l.04-.285.15.31c.18.461-.036.626-.498.466zm1.081 1.31c-.19-.026-.298.056-.304.103-.007.048-.15.029-.292.01-.143-.02-.286-.04-.273-.135.007-.047-.04-.054-.142-.019-.102.035-.102.035-.089-.06.162-.124.61-.208.685-.053-.013.095.13.115.184.074.257-.11.495-.079.482.017-.013.095-.156.075-.25.062zm-.269-1.587a1.03 1.03 0 01.36-.145c.19.026.237.032.211.222-.02.143-.08.232-.08.232-.047-.007-.034-.102-.028-.15.007-.047-.13-.114-.279-.086-.149.028-.197.022-.184-.073zm1.802 1.358c-.054.042-.102.035-.19-.025-.095-.013-.197.021-.216.164-.067.136-.175.219-.46.18-.327-.093-.416-.153-.146-.359.216-.164 1.133-.137 1.012.04zm-.405-1.653c.02-.143.086-.279.181-.266a.207.207 0 01.165.216c-.04.285-.379.288-.346.05zm.612.132c-.266-.182-.152-.312.08-.232.136.067.218.175.211.223-.019.142-.114.13-.291.008zm.783 1.365c-.19-.026-.292.01-.298.057-.013.095-.067.136-.162.123-.096-.013-.089-.06-.035-.102.054-.04.02-.142-.07-.203-.094-.013-.04-.054.102-.034.143.019.38.051.53.023.143.02.238.032.231.08-.006.047-.155.076-.298.056zm.03-1.643c.1-.034.19.026.237.032.041.055-.054.042-.15.029-.142-.02-.19-.026-.088-.06zm1.132-.137c-.048-.006-.102.035-.06.089l-.02.143c-.047-.007-.089-.06-.13-.115-.075-.155.188-.313.318-.199.041.054-.013.095-.108.082zm.555-.166c-.006.047-.108.082-.108.082a.103.103 0 01-.082-.108c.007-.048.115-.13.162-.124.048.007.082.108.028.15zm1.266 1.382c-.06.089-.156.076-.298.057-.096-.013-.299.056-.305.104-.115.13-.311.151-.292.009.032-.238.235-.308.616-.256.19.026.333.045.279.086zm1.244-1.671c-.047-.007-.095-.013-.13-.115-.034-.102-.028-.15.067-.136.095.013.136.067.124.162-.013.095-.06.089-.06.089zm1.203 1.132c-.13-.115-.13-.115.06-.09.095.014.184.074.178.122-.026.19-.026.19-.238-.032zm3.711-8.07c-2.608 1.728-6.408 2.956-11.764 3.876-1.98.313-2.374.356-2.409.255-.04-.054.059-.428.212-.844.44-1.102.852-2.354 1.012-2.817.106-.422.46-1.245.514-1.287.216-.164 3.316-.518 4.734-.617 2.763-.012 7.796.38 8.382.702.183.074-.026.19-.681.731zm2.611 3.6c-.21.116-.352.097-.332-.046.019-.142.175-.218.352-.097.136.067.13.114-.02.142zm-16.913 4.34c-.121.177-.121.177.035.101.108-.082.12-.177.127-.224-.047-.007-.102.034-.162.123zm49.712-17.957c-1.322-2.746-2.765-4.25-4.759-4.908-1.191-.501-2.288-.989-3.31-1.66-.976-.666-1.071-.679-2.355-.853-1.903-.258-3.306.084-5.551 1.28-4.856 2.587-9.234 9.501-10.214 16.004-.215 1.23-.256 2.242-.177 2.737.028.15.037.441.004.68.051 1.41 1.006 4.01 1.951 5.253 1.041 1.256 1.668 1.632 5.37 2.91.884.264 1.946.65 2.314.798 1.156.399 2.99.454 4.494.077.4-.091.61-.208.629-.35.026-.191.032-.239.156-.077.17.169.665.09 1.85-.427 3.35-1.482 7.022-5.343 9.238-9.887 2.135-4.312 2.248-7.639.36-11.577zM66.792 31.066c-.054.04-.095-.013-.082-.108.013-.095.073-.184.12-.178.096.013.137.067.13.115-.012.095-.073.184-.168.17zm.345-1.116c-.095-.013-.136-.067-.076-.156.06-.088.292-.008.273.134-.007.048-.102.035-.197.022zm1.233.555c-.095-.013-.089-.06-.076-.156.06-.088.115-.13.162-.123.048.006.041.054.028.15-.013.094-.067.135-.114.129zm16.109-4.837c-.284 2.093-1.14 4.108-2.865 6.828-1.9 2.94-3.754 4.82-6.127 6.241-.946.55-2.76 1.418-2.902 1.398-.048-.006-.251.063-.502.126-.203.07-.752.188-1.152.28-.454.132-.793.134-.888.121-.143-.02-1.002-1.54-1.232-2.347-1.254-3.61-.15-8.885 2.77-13.623.926-1.473 1.518-2.264 2.806-3.543 2.36-2.392 5.335-3.974 7.359-3.893l.672.042.433.737c.543.994 1.136 2.334 1.36 3.188.09.4.181.8.216.902.333 1.11.345 1.742.052 3.543zm1.055 8.281c-.06.089-.155.076-.25.063-.048-.007-.048-.007-.035-.102.06-.088.162-.123.21-.117.095.013.088.06.075.156zm.249-.402c-.095-.013-.095-.013-.076-.156.08-.231.242-.355.21-.117-.02.143-.08.232-.134.273zm1.147-2.024c-.223.212-.19-.026.045-.333.067-.137.073-.184.101-.035a.903.903 0 01-.146.368zm.714-1.696c-.138.66-.494 1.144-.57.989-.041-.054.02-.143.08-.232.047.007.12-.177.147-.367.025-.19.153-.416.328-.634.175-.218.175-.218.015.244zm.367-.919c-.086.28-.127.225-.117-.21-.009-.291.078-.57.084-.618.102-.034.169-.17.242-.354.026-.19.054-.041.009.291-.045.333-.151.755-.218.891zm1.114 1.072c-.095-.013-.076-.156-.009-.292.067-.136.128-.225.175-.218.095.013.082.108.015.244-.066.136-.133.272-.181.266zm26.521-9.334c.024-.53-.21-.948-.413-.88-.108.083-.149.029-.231-.079-.042-.054-.266-.181-.498-.261-.285-.039-.428-.058-.495.078-.026.19-.073.184-.326-.093a1.21 1.21 0 00-.403-.248c-.101.034-.333-.046-.51-.166-.272-.134-.729-.342-1.103-.44-.646-.234-.653-.186-.895.168-.162.124-.375.627-.475 1.002-.224.938-.902 4.866-1.378 7.66-.216 1.23-.405 2.27-.466 2.358-.019.143-.25 1.13-.399 2.223-.263 1.224-.5 2.257-.646 2.625-.281.64-1.074 1.84-1.586 2.4-.168.171-.289.349-.289.349-.013.095-.815 1.003-1.266 1.475-.121.177-.404.478-.627.69-.181.266-.356.484-.41.526-.048-.007-.499.465-.951.936-2.184 2.174-3.872 3.544-5.453 4.491-.372.24-.832.42-.975.4-.19-.025-.654-1.25-.823-2.145-.334-2.177.26-6.553 1.476-11.232.775-2.85 2.363-7.769 3.535-11.049.839-2.26.996-3.062.778-3.236-.177-.122-.9-.51-1.036-.577-.047-.007-.067.136-.08.231.076.156.076.156-.095-.013-.158-.263-.151-.31-.184-.073-.025.19-.073.184-.326-.093-.39-.343-.573-.417-.606-.179-.012.095-.054.041-.136-.067-.164-.216-.662-.477-1.492-.784-.878-.313-.884-.265-2.151 3.002-2.254 5.895-4.297 12.738-4.986 17.101-.79 4.398-.52 7.05.762 9.017.652.911 1.32 1.341 2.626 1.712 1.319.276 3.82.761 4.867.903 1.712.233 3.804-.55 6.302-2.535l.912-.652-.334 1.747c-.235 1.373-.246 1.808-.15 1.82.095.014.088.061.082.109-.115.13 1.518.593 2.517.729.761.103.808.11.847-.176.073-.183.073-.183.117.21.069.203.145.359.294.33.102-.034.238.033.415.154.123.162.219.175.279.086.108-.082.121-.177.08-.231-.041-.054.013-.095.108-.083.047.007.082.109.063.251-.058.428.294.33.454-.132.643-2.238 2.492-10.512 3.315-15.148 1.218-6.47 2.383-13.627 2.365-14.21zM93.778 35.795c.035.101.022.196-.032.237-.054.042-.089-.06-.076-.155.02-.143.073-.184.108-.082zm-.217 1.956c-.026.19-.093.327-.188.314 0 0-.076-.156-.05-.346.112-.47.302-.444.238.032zm-.033-.828c.02-.142.073-.184.101-.035.042.055.022.197-.025.19-.06.09-.095-.012-.076-.155zm-.412 2.318c-.075-.156-.11-.257.005-.387.054-.041.127-.225.146-.368-.021-.196.04-.285.121-.177.035.102.05.346-.036.625-.065.475-.119.517-.236.307zm-.016 1.548c-.054.04-.07-.203-.024-.536.103-.761.198-.748.15-.029.008.292-.072.524-.126.565zm.683-4.316c-.115.13-.203.07-.178-.12.013-.096.115-.13.162-.124a.43.43 0 01.016.244zm-.757 6.292s-.035-.102-.057-.299c.02-.142.039-.285.087-.279.047.007.123.163.103.305-.025.19-.086.28-.133.273zm1.524-10.16c-.054.042-.041-.054-.028-.149.02-.142.026-.19.101-.034-.006.047-.019.142-.073.183zm.75-3.385c-.238-.033-.231-.08-.075-.156.257-.11.352-.098.333.045-.014.095-.115.13-.258.11zm-.713 10.608c-.095-.013-.057-.298-.011-.631.097-.714.144-.707.136.067.002.34-.078.57-.125.564zm1.336-6.988c-.095-.013-.089-.06-.028-.149.006-.047.108-.082.108-.082.047.006.088.06.082.108-.013.095-.114.13-.162.123zm12.552 15.655c-.06.089-.047-.006-.028-.15.019-.142.026-.19.054-.04.041.054.022.196-.026.19zm4.496-15.278c.007-.048.02-.143.121-.178.054-.04.095.013.082.108-.025.19-.127.225-.203.07zm26.662-9.508c-.095-.013-.143-.02-.155.076 0 0 .034.101.129.114.048.006.095.013.102-.035.006-.047-.041-.054-.076-.155zm-2.944.278a.507.507 0 00-.251.063c-.013.095.028.15.171.169.143.019.244-.016.257-.11.007-.048-.082-.109-.177-.122zm2.215-.62c.061-.088-.021-.196-.259-.228-.19-.026-.298.056-.311.151-.013.095-.121.178-.318.2-.143-.02-.251.062-.305.103-.054.041.171.169.558.173.768.056.768.056.638-.059-.035-.102-.063-.25-.003-.34zm-.802-1.223c-.007.048.082.109.183.074.15-.028.299-.056.346-.05.095.013.054-.041-.034-.102-.219-.175-.463-.16-.495.079zm0 1.066c.02-.142-.802-.157-.957-.081-.054.04.183.073.421.105.286.04.53.024.536-.024zm-1.003.252c-.142-.02-.225-.128-.164-.216.067-.137.026-.19-.26-.23-.237-.032-.387-.003-.406.14a.207.207 0 01-.216.164c-.143-.02-.136-.067-.022-.197.108-.082.121-.177.074-.184-.048-.006-.232-.08-.422-.106-.19-.025-.333-.045-.339.003-.013.095-.156.076-.346.05-.286-.039-.286-.039-.13-.115.156-.076.162-.123-.028-.149-.095-.013-.251.063-.257.11-.108.083-.299.057-.584.018-.32-.14-.517-.118-.625-.036-.06.088-.067.136-.054.04.013-.094-.177-.12-.558-.172-.536.024-.951-.129-.646-.233.101-.035.196-.021.238.032.095.013.19.026.298-.056a.373.373 0 01.393-.043c.314.188.504.213.523.07.013-.095-.034-.1-.136-.066-.149.028-.142-.02-.123-.162.121-.178.168-.171.482.017a.817.817 0 00.476.064c.108-.082.203-.07.19.026-.007.048.089.06.285.039.156-.076.346-.05.34-.003-.007.048.047.007.149-.028.108-.082.298-.056.339-.002.143.02.333.045.495-.078.203-.07.394-.044.536-.024.083.108.273.133.32.14.054-.041.299-.056.584-.018.333.045.482.017.502-.125.006-.048-.029-.15-.124-.163-.095-.012-.082-.108-.076-.155.121-.177 1.073-.048 1.244.12.116.21.183.074.226-.599.058-.428.056-.767.008-.774-.047-.006-.088-.06-.028-.149.032-.238-.242-.71-.433-.737-.095-.013-.285-.038-.346.05-.114.13-.162.123-.142-.02.013-.094-.273-.133-1.176-.256-1.827-.102-4.326-.248-5.338-.288-.536.024-1.215.028-1.595-.023-.346.05-1.501-.01-2.519-.003-1.059-.047-2.084.008-2.322-.024-1.84-.008-7.778.203-9.053.32-.692.1-1.308.356-1.347.641-.038.286.401 2.04.588 2.454.075.155.132.454.106.644-.032.238.009.292.206.27.203-.07.196-.022.041.054a.549.549 0 00-.195.361c-.026.19.022.197.266.182.197-.022.197-.022.041.054-.365.192-.343.389.003.339.142.02 1.215-.029 2.477-.051 2.186-.043 6.408-.1 7.045-.158.387.004.387.004.247.324-.419 1.3-3.279 10.6-3.523 11.68-.073.184-.518 1.674-1.023 3.252-1.579 5.211-3.165 10.47-3.575 12.061-.284 1.027-.334 1.747-.106 2.214.11.257 2.307.846 2.754.761.34-.002.435.01.511.166.075.156.075.156.183.074.115-.13.115-.13.143.02.056.297.294.33.558.172.162-.123.162-.123.047.006-.181.266.266.182.454-.132.385-.335.704-1.26 1.388-3.445.298-1.122.656-2.333.809-2.748.106-.421.902-3.074 1.676-5.924.863-2.79 1.692-5.68 1.884-6.38.192-.701.669-2.429 1.106-3.871.391-1.449 1.107-3.87 1.558-5.408.397-1.496.761-2.754.815-2.795.115-.13 3.645-.087 4.264-.003.291-.009.536-.024.549-.12.006-.047-.273-.133-.66-.137-.625-.037-.945-.177-.64-.28.156-.076.93-.068 1.65-.02a3.73 3.73 0 01.624.037c.245-.015.128-.225-.158-.263zm-1.302-1.824c1.459-.044 1.792.001 1.779.096-.032.238-.343.39-.514.22-.095-.012-.422-.105-.856-.115-.34.002-.679.004-.733.046-.061.088-.102.034-.137-.067-.034-.102.074-.184.461-.18zm-11.434 21.07c-.061.088-.128.224-.188.313-.073.184-.048-.007-.009-.292.065-.475.125-.564.242-.355.028.15.015.245-.045.333zm2.066-7.374c-.054.041-.095-.013-.075-.155.019-.143.067-.137.101-.035.041.054.022.197-.026.19zm.225-.938c-.054.041-.041-.054-.029-.15.02-.142.026-.19.102-.034-.006.048-.019.143-.073.184zm5.94-10.577c-.142-.02-.183-.073-.082-.108.102-.035.19.026.238.032.041.054-.06.089-.156.076zm.428.058c-.047-.006-.136-.067-.123-.162.007-.048.115-.13.162-.123.048.006.13.114.124.162-.013.095-.115.13-.163.123zm.543-.072c-.06.089-.162.124-.21.117-.047-.006-.088-.06-.075-.155.006-.048.114-.13.162-.124.142.02.177.121.123.162zm.672.043c-.447.085-.495.078-.421-.105.026-.19.419-.234.733-.046.183.073.082.108-.312.151zm1.042-.537c-.095-.012-.089-.06-.035-.101.061-.089.115-.13.162-.123 0 0 .042.054.029.149-.007.047-.061.088-.156.075zm1.25.073c-.096-.013-.137-.067-.083-.108.102-.035.191.026.286.039-.007.047-.061.089-.203.07zm38.305 3.456c-.402-.248-1.014-.38-1.366-.282-.156.075-.34.002-.511-.166-.225-.128-.408-.201-.558-.173-.149.028-.237-.032-.231-.08.013-.095-.076-.155-.171-.168-.095-.013-.184-.074-.171-.169-.034-.101-.266-.181-.545-.268-.237-.032-.523-.07-.564-.125-.164-.216-.644.107-.947.55-.181.266-.49.757-.827 1.099-.289.348-.747.867-.935 1.18-.182.267-.525.656-.652.88-.99 1.223-3.055 3.946-5.342 6.88-.888 1.188-1.649 2.15-1.69 2.097 0 0-.147-.698-.234-1.485-.743-5.236-1.736-10.409-2.281-11.742-.076-.156-.063-.25.032-.238.095.013.101-.034.108-.082-.082-.108-.409-.2-.939-.224-.618-.084-.862-.069-.983.108-.115.13-.216.165-.305.104-.117-.21-3.148-.718-3.643-.64-.197.022-.305.104-.276.254.07 1.269.024 1.602-.071 1.589-.047-.007-.073.183-.051.38-.033.238-.039.285-.115.13-.082-.108-.136-.067-.216.164-.039.286-.052.38.091.4.095.013.13.115.117.21-.108.082-.255.45-.361.871-.159.463-.3.783-.313.878-.06.089-.12.178-.168.171l-.026.19c-.006.048-.08.232-.064.476-.052.38-.106.422-.242.355-.178-.121-.232-.08-.188.313-.039.286-.071.523-.119.517-.054.041-.194.361-.293.735-.106.422-.253.79-.313.878-.061.089-.141.32-.154.415-.019.143-.112.47-.204.796-1.597 4.627-3.453 11.157-4.405 15.678-.604 3.018-.877 4.676-.713 4.892.247.325 2.318.412 3.13.135.251-.063.299-.057.333.045.016.244.254.276.286.039.013-.095.073-.184.121-.178.095.013.13.115.117.21a.206.206 0 00.164.216.207.207 0 00.216-.164c.013-.096.074-.184.121-.178.048.007.082.108.069.203-.013.096.022.197.124.163.101-.035.222-.212.248-.403.043-.672.537-2.882.959-4.568.205-.796.535-2.156.788-2.945.317-1.265 1.289-4.863 2.256-8.413.569-2.054.668-2.428.738-2.225.063.25 1.063 6.441 1.226 7.384.108.983.542 2.786.646 3.09.075.157.199.319.3.284.054-.041.096.013.124.162.075.156.075.156.285.039.054-.041.251-.063.387.004s.238.032.244-.015c.013-.096.162-.124.353-.098.19.026.291-.009.358-.145.067-.136.115-.13.286.039.13.114.177.12.095.013-.035-.102.026-.19.121-.178.238.033.283-.3.118-.516-.082-.108-.069-.204.026-.19.048.006.165.215.24.371.234.42.526.41.483.017.004-.387.004-.387.596-.113.266.182.98.278 1.142.155.101-.034.292-.009.428.058s.238.033.251-.063c.012-.095-.016-.244-.111-.257-.171-.168.132-.612 1.456-2.515 2.829-4.072 3.898-5.526 3.86-5.24a57.207 57.207 0 01-.568 2.393 215.72 215.72 0 00-.996 4.128c-.243 1.08-.493 2.21-.539 2.542a32.722 32.722 0 00-.586 2.537 24.062 24.062 0 00-.5 2.257l-.058.428c-.108.082-.16.463-.391 1.449-.185.652-.17.897-.075.91.048.006.089.06.028.149-.054.04-.101.035-.142-.02-.096-.012-.162.124-.195.362-.032.237-.118.516-.179.605-.06.089-.019.143.124.162.142.02.123.162.078.495-.74 2.951-1.106 4.936-1.024 5.044.089.06.326.093.529.024.156-.076.4-.091.496-.078.136.066.237.032.263-.159.02-.142.099-.373.16-.462.114-.13.127-.225.045-.333-.048-.007-.082-.108-.076-.156.013-.095.013-.095.108-.082.041.054.143.02.169-.17.114-.13.032-.239-.098-.353l-.272-.134.251-.063c.196-.022.304-.104.283-.3-.016-.245.086-.28.324-.247.238.032.285.039.121-.178-.13-.114-.158-.263-.072-.542.08-.231.194-.361.242-.355.095.013.054-.04.019-.143-.129-.114-.129-.114.061-.088.333.045.413-.186.159-.463a.548.548 0 01-.091-.4c.039-.285.039-.285.15-.028.246.324.456.207.365-.193-.085-.447-.078-.495.045-.332.089.06.102-.035.127-.225-.021-.197.046-.333.052-.38.095.012.236-.308.3-.784.199-.748.218-.89.235-1.373-.035-.101.073-.183.168-.17.042.054.102-.035.067-.137-.034-.101.046-.333.119-.516.194-.362.112-.47-.158-.264-.162.123-.162.123-.089-.06.108-.083.216-.165.264-.158.047.006.06-.09.067-.137-.057-.298.341-.728.512-.56.035.102.022.197-.099.374-.182.266-.201.409-.039.286.047.006.143.019.13.114-.007.047-.108.082-.21.117s-.102.035-.006.047a.639.639 0 00.352-.097c.257-.11.264-.158.147-.368-.145-.358-.113-.596.038-.285.076.156.089.06.141-.32.032-.238.112-.47.159-.463.184.073.292-.009.163-.123-.13-.115-.124-.162-.003-.34.115-.13.134-.272.052-.38-.082-.108-.076-.156.019-.143.143.02.203-.07.14-.32.026-.19.052-.38.1-.374.108-.082.235-.307.287-.688.127-.224.274-.592.328-.633.06-.089.086-.279.112-.47-.015-.244.011-.434.058-.427.048.006.108-.083.087-.28-.003-.339.194-.36.285.04.069.203.05.345-.058.428-.115.13-.352 1.163-.209 1.182.143.02.097.353-.099.374-.102.035-.115.13-.046.333.035.102.003.34-.017.482-.025.19-.004.387.079.495a.718.718 0 01.132.454c-.033.238-.033.238-.197.022-.076-.156-.117-.21-.123-.162a.605.605 0 00-.087.279c-.133.272.085.447.253.276.115-.13.096.013.003.34-.16.463-.043.672.214.562.156-.076.229-.26.406-1.205.013-.095.127-.225.222-.212.143.02.117.21-.008.774-.118.517-.144.707-.036.625.101-.035.235-.307.328-.634.039-.285.145-.707.224-.938.1-.374.714-2.761 1.025-3.978.093-.327.317-1.265.541-2.203.218-.891.759-3.095 1.242-4.87 1.803-7.215 2.316-9.567 2.549-11.28.161-1.188.161-1.188-.146-1.424zm-22.632 2.934c.155-.075.263-.158.298-.056.047.006-.013.095-.121.177-.311.152-.447.085-.177-.12zm.752 3.736c-.144.707-.54 1.476-.682 1.457-.095-.013-.102.035-.02.143.158.263-.081.958-.319.925-.048-.006-.108.082-.121.178-.017.482-.09.665-.274.592-.089-.06-.184-.073-.19-.026-.013.095.028.15.075.156.096.013.117.21.085.447-.032.238-.106.422-.207.457-.054.04-.102.034-.143-.02l.019-.143c.007-.047-.069-.203-.11-.257-.028-.149-.028-.149.06-.088.089.06.102-.035.147-.368-.009-.292.065-.476.179-.605.264-.158.309-.491.119-.517-.095-.013-.148-.698.008-.774.102-.035.268-.545.511-1.626.1-.374.24-.694.3-.783.048.007.013-.095-.015-.244-.117-.21-.158-.264-.231-.08-.207.456-.268.545-.404.478-.035-.101-.015-.244.058-.428.121-.177.194-.361.153-.415.013-.095.106-.422.205-.796.093-.326.24-.694.259-.837.112-.469.235-.307.117.21-.045.333-.03.577.017.584.048.006.035.101-.066.136-.217.164-.281.64-.104.76.089.061.089.061.054-.04-.034-.102.033-.238.099-.374.115-.13.264-.158.305-.104.104.305.222 1.58.116 2.002zm-.315 4.462c-.108.082-.102.034-.076-.156.02-.143.026-.19.115-.13l-.039.286zm.049-.72c-.041-.054.02-.143.074-.184.054-.041.095.013.082.108-.032.238-.08.231-.156.076zm.501-1.192c-.214.504-.261.498-.216.165.071-.523.298-1.122.44-1.103.048.007.083.108.063.25-.013.096-.153.416-.287.688zm4.172-11.107c-.095-.013-.136-.067-.123-.162.006-.048.054-.042.149-.029a.7.7 0 01.076.156c-.007.047-.054.041-.102.035zm.099-.374c-.142-.02-.19-.026-.088-.06.101-.036.149-.03.237.031-.006.048-.054.041-.149.029zm-.118 7.298c-.102.035-.171-.169-.146-.359.026-.19.02-.143.089.06.082.109.111.258.057.299zm-.002.726c-.054.041-.041-.054-.022-.196.019-.143.019-.143.102-.035-.007.047-.026.19-.08.231zm.629 3.573c-.007.048-.095-.013-.076-.155-.063-.251-.009-.292.074-.184.034.102.015.244.002.34zm.202 1.723c-.067.136-.067.136-.056-.298-.016-.244-.009-.292.06-.089.082.108.104.305-.004.387zm.311 2.707c-.108.082-.156.075-.095-.013.108-.083.067-.137.025-.19-.041-.055-.075-.156-.021-.197.054-.041.032-.238.045-.333-.098-.352-.091-.4-.109-.984-.024-.536.045-.333.217.902.072.542.093.739-.062.815zm1.156-3.525c-.095-.013-.138-.406-.084-.447.054-.041.088.06.117.21l-.033.237zm.222 1.58c-.048-.006-.136-.067-.117-.21.019-.142.08-.23.08-.23.047.006.082.107.063.25.028.15.021.197-.026.19zm3.068 22.36c-.013.095-.114.13-.162.123-.095-.012-.102.035-.06.09-.013.094-.013.094-.108.081-.429-.058-.558-.172-.52-.458.052-.38.147-.367.232.08.104.305.104.305.367.147.162-.123.264-.158.251-.063zm1.362-4.32s-.029-.15-.003-.34c.074-.183.093-.326.182-.265-.007.047.021.196.002.34-.019.142-.086.278-.181.265zm.671-2.089c-.048-.006-.089-.06-.124-.162-.041-.054-.034-.101.061-.088.095.013.136.067.13.114-.013.095-.067.136-.067.136zm.099-.374c-.048-.006-.136-.067-.13-.114.007-.048.108-.082.149-.028.041.054.082.108.076.155l-.095-.013zm1.951-5.45c-.048-.007-.089-.061-.082-.109.012-.095.06-.089.108-.082a.354.354 0 00.123.162c-.007.048-.102.035-.149.028zm1.724-.93c-.073.184-.175.22-.155.077.006-.048.067-.137.168-.171.054-.042.095.012-.013.095zm.144-1.772c-.052.38-.138.66-.192.7-.054.042-.415-.153-.402-.248.006-.047.108-.082.149-.028.041.054.095.013.108-.082.061-.089.134-.273.16-.463.019-.143.144-.707.263-1.224a6.416 6.416 0 01.317-1.265c.067-.136.179-.605.237-1.033.058-.428.144-.707.192-.7.143.019.068.929-.095 1.052-.054.041-.073.184.009.292.022.197.003.34-.051.38-.096-.012-.387 1.062-.695 2.619zm.155 1.716c-.061.089-.048-.006-.029-.149.02-.142.026-.19.102-.035-.006.048-.026.19-.073.184zm.932-6.51c-.108.083-.102.035-.076-.155.019-.143.026-.19.114-.13l-.038.286zm.259-.836c-.067.136-.156.075-.184-.074-.028-.149-.009-.291.093-.326.054-.041.142.02.183.073-.019.143-.032.238-.092.327zm.094-1.053c.007-.048.032-.238.099-.374.134-.273.134-.273.083.108-.052.38-.119.517-.182.266zm.649-2.285c.035.101.022.196-.032.237-.006.048-.041-.054-.028-.149.019-.143.073-.184.06-.089zm-1.46 12.541c-.086.279-.131.612-.151.755-.019.142-.134.272-.229.26-.095-.014-.129-.115-.037-.442a3.77 3.77 0 00.186-.653c.026-.19.099-.374.194-.36.108-.083.136.066.037.44zm-.059-.638c-.095-.013-.136-.067-.082-.108.102-.034.19.026.286.04-.007.047-.061.088-.204.068zm.389-.722c-.06.089-.114.13-.162.123-.047-.006-.041-.054-.028-.149.006-.047.06-.088.108-.082.095.013.089.06.082.108zm-.069-.203c-.048-.007-.089-.06-.076-.156.007-.047.061-.088.108-.082.095.013.136.067.13.115-.013.095-.067.136-.162.123zm.293-.735a.586.586 0 01-.114.13c-.048-.007-.089-.061-.076-.156.007-.048.108-.082.156-.076.047.007.088.06.034.102zm-.015-.245c-.047-.006-.143-.019-.13-.114.007-.048.115-.13.162-.123.048.006.083.108.076.155-.013.095-.06.089-.108.082zm.22-.551c-.067.136-.175.218-.222.212-.048-.006-.089-.06-.022-.197.06-.088.121-.177.127-.225.007-.047.054-.04.102-.034.095.013.082.108.015.244zm.011-.434c-.054.04-.076-.156.017-.483.151-.754.306-.83.209-.117-.045.334-.131.612-.226.6zm.377-1.354c-.013.095-.114.13-.114.13-.048-.007-.089-.06-.076-.156.007-.047.108-.082.156-.076.047.007.088.06.034.102zm-.015-.244c-.095-.013-.089-.06-.028-.15.006-.047.108-.082.108-.082.047.007.089.06.082.108-.013.096-.114.13-.162.124zm.138-.66c-.203.07-.203.07-.089-.06.108-.082.21-.117.251-.063.041.054-.067.136-.162.123zm.157-.802c-.002-.34.138-.66.233-.646.048.006.083.108.063.25-.058.428-.233.647-.296.396zm.253-.79c-.095-.012-.089-.06-.035-.1a.702.702 0 00.115-.13c.047.006.034.101.028.149-.007.047-.061.088-.108.082zm-8.837 14.787c-.016-.245-.009-.292-.137-.067l-.038.285c.069.203.129.115.175-.218zm3.703-3.373c-.095-.013-.223.212-.248.402-.119.517.125.502.291-.008.033-.238.052-.381-.043-.394zm1.885-3.183c.054-.041.02-.143-.021-.197-.042-.054-.15.028-.163.123-.025.19.063.251.184.074zm-1.868 2.701c.028.15.117.21.212.222.047.007.054-.04.032-.237-.151-.312-.3-.283-.244.015zm2.782-.155c-.047-.007-.108.082-.134.272-.032.238.015.245.082.108.175-.218.195-.36.052-.38zm-.878-1.379l-.111-.257-.032.238c-.026.19-.086.279-.14.32-.054.04-.121.177-.087.279-.013.095-.039.285-.004.387-.006.047.028.149.089.06.095.013.101-.035.108-.082-.041-.054.032-.238.099-.374.073-.184.099-.374.078-.57zm.242.711c-.089-.06-.143-.02-.101.035.041.054.021.197-.033.238-.222.212-.388.722-.246.741.095.013.089.06-.032.238-.162.123-.169.171-.039.285.136.068.197-.021.35-.436.045-.333.186-.653.199-.748.019-.143-.009-.292-.098-.353zm-.649 2.286s-.013.095.028.149c.069.203.171.168.102-.035-.035-.101-.076-.155-.13-.114zm-1.88 1.004c-.096-.013-.083-.108-.022-.197.073-.184.073-.184-.035-.101a2.5 2.5 0 00-.255.45c-.079.23-.038.285.104.304.095.013.15-.028.115-.13-.041-.054-.028-.149.08-.231.203-.07.203-.07.013-.095zm1.987 1.771c-.019.143-.032.238.022.197.054-.041.074-.184.08-.231-.082-.108-.082-.108-.102.034zm32.008-27.82c-.394.044-.394.044-.165-.215.194-.361.16-.463-.091-.4-.21.117-.231-.08.032-.238.115-.13.223-.212.236-.307.006-.048-.035-.102-.089-.06 0 0-.276.252-.607.547-.337.341-.566.601-.655.54-.047-.006-.101.035-.013.096-.013.095-.019.142-.073.183-.054.042-.143-.019-.136-.066.006-.048-.082-.108-.143-.02-.095-.013-.054.041.028.15.178.12-.017.482-.684 1.117-.229.26-.357.485-.316.539.041.054-.06.089-.155.076-.191-.026-.184-.074-.07-.204.169-.17.175-.218.046-.332-.13-.115-.178-.121-.054.04.082.109.028.15-.096-.012-.129-.115-.123-.162.033-.238.263-.158.406-.139.38.052-.006.047.035.101.095.012.102-.034.067-.136-.021-.196a1.673 1.673 0 01-.228-.467c-.021-.197.033-.238.169-.17.279.085.542-.073.588-.405-.022-.197.038-.286.134-.273.095.013.155-.076.127-.225.019-.143.093-.326.248-.402.318-.2.331-.294.071-.523-.129-.115-.164-.216-.104-.305.054-.041.15-.028.184.073.158.264.612.132.603-.16a.72.72 0 01.249-.402c.216-.165.216-.165.025-.19-.345.05-.849-.164-.735-.294.061-.089-.13-.115-.354-.242-.238-.032-.565-.125-.653-.186-.273-.133-.632.012-1.049.585-.229.26-.458.519-.559.553-.102.035-.169.171-.14.32a.405.405 0 01-.236.308.324.324 0 00-.229.26c-.026.19-.026.19-.067.136-.028-.15-.136-.067-.305.103-.121.178-.464.567-.808.956-.343.39-.632.738-.652.88-.013.096-.073.184-.168.172-.095-.013-.324.246-.499.465-.182.266-.35.437-.398.43-.048-.006-.114.13-.127.225-.007.048-.128.225-.344.39-.168.17-.734.772-1.253 1.38a35.438 35.438 0 01-1.441 1.693c-1.797 2.178-4.167 5.005-4.873 5.926-.519.608-.936 1.181-.983 1.175-.048-.007-.362-1.26-.583-2.84-.458-2.34-1.236-5.884-1.589-6.852-.028-.15-.161-.604-.239-1.099-.138-.406-.34-1.063-.444-1.368-.062-.25-.119-.549-.058-.637.013-.095-.063-.251-.234-.42l-.253-.276.272.134c.191.025.286.038.203-.07.013-.095-.177-.12-.272-.134-.143-.019-.279-.086-.32-.14-.063-.25-.986-.23-1.161-.012-.067.136-.114.13-.102.035.013-.096-.034-.102-.129-.115-.013.095-.143-.02-.219-.175-.117-.21-.164-.216-.374-.1-.203.07-.251.064-.415-.152-.301-.283-1.185-.549-1.94-.7-.523-.07-.57-.077-.596.113-.02.143.022.197.171.169.25-.063.225.127.002.34-.108.081-.108.081.035.1.142.02.313.189.335.385.305.962 1.194 4.764 1.868 8.004a153.73 153.73 0 011.179 7.378c.306 2.027.447 2.773.696 3.437l.208.61-.879 2.544c-.98 2.58-2.056 5.873-3.284 9.92-.671 2.09-.69 2.232-.513 2.353.307.235.973.326 2.426.33.625.036.942-.163.683-.393-.13-.114-.13-.114.054-.04.184.073.311-.152.363-.533-.035-.101.079-.231.127-.224.19.025.199.317-.017.482-.223.212-.194.36.056.298.197-.022.197-.022-.006.047-.27.206-.29.349-.004.387.143.02.279.087.409.201.082.108.129.115.298-.056.162-.123.289-.348.302-.444.061-.088.102-.034.076.156-.021.87.374.1 1.233-2.303.265-.884 1.377-4.076 1.67-4.811.779-2.171 1.891-5.362 1.964-5.546.365-1.259.684-2.184.9-2.349.162-.123.748-.867 1.333-1.61 1.897-2.553 2.488-3.345 4.4-5.652 1.037-1.216 1.973-2.397 2.093-2.574.115-.13.586-.744 1.057-1.359 1.756-2.232 1.756-2.232 1.779-2.761.024-.53.084-.619.331-.294.212.222.212.222.346-.05.114-.13.188-.314.16-.463-.07-.203-.016-.244.073-.184.136.067.244-.015.318-.199.207-.456.172-.558-.031-.489-.156.076-.095-.012.127-.224.337-.342.385-.336.495-.079.124.163.171.169.238.033a.296.296 0 00-.329-.432c-.155.075-.196.021.121-.178.175-.218.324-.246.359-.145.041.054.089.06.156-.076s.168-.17.209-.117c.041.055.143.02.108-.082.02-.142-.069-.203-.361-.194-.19-.026-.374-.1-.408-.2-.083-.109.019-.144.196-.023.266.182.314.188.245-.015-.083-.108-.022-.197.079-.231.054-.041.102-.035.042.054-.121.177.116.21.577.03.149-.028.317-.2.33-.294-.009-.292.329-.634.458-.52.095.013.143.02.251-.062.006-.048-.089-.06-.326-.093zm-1.977-1.14c.121-.177.168-.17.143.02-.013.095-.08.231-.128.225-.155.076-.136-.067-.015-.244zM178.538 61.93c-.19-.026-.212-.222-.072-.542.067-.137.162-.124.197-.022.035.101.111.257.098.352-.013.095-.128.225-.223.212zm.313-.878c-.102.035-.143-.02-.158-.263a.892.892 0 01.147-.368c.047.006.142.02.136.067-.013.095.022.197.002.34.083.107.022.196-.127.224zm.259-.837c-.108.083-.095-.012-.069-.203.019-.142.025-.19.067-.136.034.102.015.244.002.34zm1.835-22.081c.047.006.13.114.123.162-.013.095-.067.136-.162.123-.047-.006-.089-.06-.123-.162.006-.048.114-.13.162-.123zm-1.633 20.946c.013-.095.08-.23.147-.367.061-.089.108-.082.102-.035-.033.238-.281.64-.249.402zm.275-.592c-.048-.007-.096-.013-.089-.06a.502.502 0 01.127-.225c.054-.042.089.06.124.162-.013.095-.115.13-.162.123zm.069 4.127c-.095-.013-.089-.06-.035-.102.055-.04.067-.136.115-.13.048.007.082.108.076.156-.007.048-.061.089-.156.076zm.045-.333c-.095-.013-.136-.067-.123-.162a.102.102 0 01.108-.082c.095.013.136.066.13.114-.013.095-.067.136-.115.13zm1.751-21.464c-.101.035-.225-.127-.199-.317.02-.143.02-.143.089.06.13.115.117.21.11.257zm-1.138 19.803c-.013.095-.06.089-.06.089-.048-.007-.095-.013-.082-.108a.102.102 0 01.108-.082c.047.006.095.013.034.101zm.132-.612c-.095-.013-.095-.013-.035-.101.007-.048.067-.136.115-.13.047.006.041.054.034.102.035.101-.067.136-.114.13zm.587-1.47c-.089-.06-.076-.156-.022-.197.108-.082.197-.022.232.08.123.162.015.244-.21.117zm.49-1.823c-.238-.032-.238-.032-.083-.108.264-.158.359-.145.34-.002.034.101-.115.13-.257.11zm13.103-23.022c-.054.04-.114.13-.209.117-.048-.007-.082-.109.026-.19.168-.172.358-.146.183.073zm.564-.941c-.006.047-.041-.054-.022-.197.02-.142.02-.142.054-.04.041.053.022.196-.032.237zm1.797-3.244c.088.06.075.156-.026.19-.013.095-.048-.006-.028-.149-.029-.149.019-.142.054-.04zm-.312.152c.054-.041.096.012.089.06a.361.361 0 01-.121.177c-.054.042-.101.035-.095-.012a.367.367 0 01.127-.225zm-1.454 3.58c.019-.142.092-.326.146-.367.007-.048.061-.089.108-.082.102-.035.083.108.063.25-.201.409-.41.526-.317.2zm.32 1.206c-.108.083-.209.117-.203.07.019-.143.236-.307.372-.24-.007.047-.067.136-.169.17zm.818-2.456c-.121.177-.242.355-.255.45.041.054-.067.136-.073.184-.102.034-.082-.108-.098-.352.039-.286.052-.381.154-.416.088.06.19.026.196-.021.039-.286-.002-.34-.145-.36-.149.029-.19-.025-.129-.114.086-.279.317-.199.421.106.199.318.199.318-.071.523zm2.597-2.36c.095.013.13.115.123.162a.102.102 0 01-.108.082c-.095-.013-.136-.067-.129-.114.006-.048.067-.136.114-.13zm.046.733c-.223.212-.324.247-.352.097.013-.095.188-.313.356-.484.162-.123.311-.152.305-.104-.013.095-.14.32-.309.49zm-1.603 1.817c-.048-.007-.06.089-.073.184-.007.047-.013.095.082.108.054-.041.108-.083.121-.178.019-.142-.028-.149-.13-.114zm2.547-3.772c-.175.218-.296.396-.303.443l.095.013c.238.033.595-.452.573-.649-.028-.149-.136-.067-.365.193zm.455-.859c-.108.083-.216.165-.222.213-.013.095.088.06.263-.158.169-.171.169-.171-.041-.055zm.301.284c-.048-.007-.156.075-.223.212-.013.095-.019.142.083.108.203-.07.33-.295.14-.32zm30.182 31.95c.054-.041.162-.124.169-.171.006-.048-.083-.108-.137-.067a.368.368 0 00-.121.177c-.012.095.035.102.089.06zm.435.01c-.083-.108-.178-.12-.394.044-.229.26-.555.167-.428-.058.067-.137-.022-.197-.266-.182-.244.015-.339.003-.225-.127.108-.082.108-.082-.041-.054-.054.04-.162.123-.175.218-.006.048-.162.124-.257.11-.197.022-.333-.044-.327-.092.026-.19-.415-.153-.583.017-.115.13-.162.124-.102.035.061-.089.026-.19-.117-.21-.19-.025-.298.057-.209.117-.007.048-.02.143-.121.178-.054.04-.095-.013-.089-.06.019-.143-.028-.15-.082-.109-.061.089-.305.104-.448.085-.475-.065-2.334.07-2.401.207-.054.04-.346.05-.631.01-.381-.05-.476-.064-.368-.146.102-.035.352-.097.543-.072.38.052 1.119-.041 1.247-.266.168-.171.501-.126.475.064-.006.048.089.06.286.04.101-.036.209-.118.216-.165.006-.048.121-.178.27-.206.251-.063.298-.056.374.1.028.148.028.148.095.012.013-.095.067-.136.143.02.13.114.177.12.285.038.061-.088.02-.142-.082-.108-.061.089-.108.083-.102.035.007-.048.162-.123.366-.193.399-.09.399-.09.326.093-.067.136-.073.184.171.169.149-.029.21-.117.223-.212-.07-.204.038-.286.181-.266.143.019.225.127.205.27.022.196.022.196.089.06.093-.326.439-.376.406-.138-.025.19.029.149.156-.076.169-.171.277-.253.603-.16.381.051.657-.202.296-.396-.136-.067-.225-.128-.104-.305.013-.095.032-.238-.056-.298-.041-.054-.07-.204-.05-.346.134-.273-.131-1.18-.336-1.45-.13-.115-.32-.14-.768-.056-.345.05-1.323.11-2.157.191a75.12 75.12 0 01-2.008.164c-.299.056-.644.106-.835.08-1.011-.04-8.724.753-11.39 1.118-.84.128-1.627.215-1.824.237-.238-.032-2.069.252-3.655.521-.191-.026-.191-.026-.098-.352.093-.327.106-.422.29-.349.238.033.292-.008.276-.253-.028-.149-.104-.304-.158-.263-.054.04-.067.136-.073.184.041.053.035.101-.013.095-.19-.026-.24-.372-.052-.686.194-.36.2-.408.051-.38-.054.04-.142-.02-.136-.067-.028-.15.019-.143.162-.123.225.127.225.127.108-.083-.076-.155-.063-.25-.002-.339.108-.082.127-.225.105-.422-.069-.203-.043-.393.065-.475.108-.083.127-.225.086-.28.007-.047.02-.142.121-.177.054-.04.083.108.057.299-.033.238.043.393.091.4.095.013.248-.403.259-.837-.029-.15.08-.232.27-.206.19.026.231.08.076.156-.156.076-.109.082.082.108.428.058.454-.132.045-.333-.177-.121-.301-.283-.281-.426.019-.142.079-.231.168-.17.095.012.123.162.117.209-.039.285.342.337.387.004.067-.136.14-.32.16-.463.019-.142.045-.333-.031-.488-.035-.102-.015-.244.099-.374.061-.089.195-.361.281-.64.032-.238.185-.653.313-.878.147-.368.112-.47-.087-.787-.186-.413-.18-.46.207-.456.203-.07.244-.016.273.134.028.149.028.149.054-.041.067-.137.038-.286-.057-.299l.033-.238.032-.237c-.108.082-.13-.115-.104-.305.032-.238.106-.422.201-.409.095.013.108-.082.045-.333-.022-.197-.002-.34.052-.38.054-.041.114-.13.133-.273-.028-.149.026-.19.074-.184.047.007.108-.082.121-.177.084-.618.17-.897.313-.878.047.007.155-.076.222-.212.128-.225.121-.177.07.203-.093.327-.078.571-.037.625.089.06.063.25-.004.387-.073.184-.16.463-.179.605.028.15-.045.333-.16.463-.162.123-.162.123.035.102.203-.07.244-.015.078.495-.185.653-.278.98-.397 1.496-.045.333-.045.333-.108.082-.069-.203-.069-.203-.203.07-.14.32-.151.754-.028.916.089.06.089.06.007-.047.013-.096.019-.143.114-.13.191.026-.167 1.236-.431 1.394-.156.076-.21.117-.061.09.197-.023.184.072.1.69-.105.422-.09.667.005.68.095.012.175-.219.211-.844.033-.237.033-.237.197-.021.152.31.16.603-.03.577-.047-.007-.114.13-.181.266-.02.143-.039.285.009.292.095.013.082.108.021.196-.06.09-.025.19.057.299.095.013.095.013.054-.041s.019-.143.032-.238c.223-.212.46-1.246.269-1.272-.095-.012-.095-.012.013-.095.305-.104.737-1.498.499-1.53-.095-.013-.143-.02-.035-.102.048.006.175-.218.201-.409.073-.184.112-.469.179-.605.013-.095.099-.374.119-.517.025-.19.146-.367.194-.361.048.006.069.203-.004.387-.026.19-.004.387.084.447.089.06.076.156-.172.558-.255.45-.313.878-.123.904.19.026.568-1.328.391-1.449-.035-.101.019-.142.025-.19.102-.035.275-.593.467-1.293.185-.653.342-1.455.422-1.687.08-.23.337-1.407.587-2.536.25-1.128.858-3.468 1.246-5.256.874-3.224 1.285-5.541 1.205-6.376.004-.387-.078-.495-.275-.473-.102.035-.238-.032-.232-.08-.041-.054-.218-.175-.456-.207-.415-.153-.51-.166-.542.072l-.128.224-.3-.282c-.171-.17-.403-.249-.504-.214a1.457 1.457 0 01-.504-.214c-.177-.12-.688-.287-1.116-.345l-.802-.157-.255.45c-.134.272-.36.87-.52 1.333-.911 2.783-3.451 13.29-3.489 14.64-.039.286-.071.523-.118.517-.048-.006-.251 1.129-.485 2.502-.242 1.42-.492 2.549-.511 2.691-.067.136-.032.238.063.251.238.032.067.93-.175 1.284-.168.171-.229.26-.14.32s.111.257.091.4c-.026.19.05.346.139.406.088.06.088.06-.02.143-.196.022-.373.967-.554 2.299-.026.19-.229.259-.689.439-.352.097-.705.195-.765.283-.223.212-.145.707.096 1.08.082.107.158.263.151.31-.102.035.342 1.403.596 1.68.123.162.294.33.341.337.095.013.13.114.07.203-.08.231.054 1.025.197 1.044.048.006.082.108.022.197-.128.225.158.263 1.005.088 1.152-.28 9.935-1.461 16.629-2.248a536.64 536.64 0 007.143-.871c.542-.072.644-.106.419-.234-.273-.134-.247-.324.099-.374.298-.056.331-.294.119-.517zm-1.979-1.48c.013-.095.114-.13.114-.13.048.007.089.061.076.157-.007.047-.108.082-.156.075-.095-.013-.088-.06-.034-.101zm-1.092.192c.054-.042.095.012.076.155-.02.143-.08.232-.128.225-.095-.013-.088-.06-.075-.155.019-.143.032-.238.127-.225zM213.341 45.92c.013-.095.115-.13.115-.13.047.007.088.06.075.156-.006.047-.108.082-.155.076-.048-.007-.041-.054-.035-.102zm-.101 1.1c-.032.238-.105.422-.153.416-.048-.007-.069-.203-.037-.441.119-.517.261-.498.19.026zm-.22.552c.095.013.082.108.057.298-.046.333-.29.348-.245.015.026-.19.093-.326.188-.313zm-.192.7c.095.013.136.067.13.115-.013.095-.067.136-.162.123-.048-.006-.089-.06-.076-.155.007-.048.061-.089.108-.083zm-.093.327c.096.013.178.12.171.168-.006.048.022.197.009.292.028.15-.026.19-.121.178-.095-.013-.171-.169-.192-.366.019-.142.038-.285.133-.272zm-1.107 2.804c-.06.09-.108.083-.108.083-.048-.007-.095-.013-.082-.108.006-.048.114-.13.162-.124.047.007.035.102.028.15zm.463-2.698c.035.102-.026.19-.073.184-.143-.02-.212-.223-.104-.305.054-.04.143.02.177.121zm.701-6.59c.035.102.009.292-.045.334-.061.088-.048-.007-.028-.15.025-.19.032-.237.073-.183zm-.192.701c.102-.035.089.06.015.244-.159.463-.213.504-.162.124.02-.143.093-.327.147-.368zm-.403 1.544c-.022-.197-.022-.197.067-.136.088.06.116.21.097.352-.127.225-.242.355-.318.2-.041-.055.02-.144.074-.185.101-.034.114-.13.08-.231zm-.579.696c.054-.04.114-.13.162-.123a.5.5 0 00.028.15c-.013.094-.06.088-.156.075-.047-.006-.047-.006-.034-.102zm-1.725 4.852c.035.102.016.245-.038.286-.061.089-.054.041-.029-.15.02-.142.026-.19.067-.136zm-.446 1.15c.054-.04.19.027.326.094.082.108.158.263.104.304-.156.076-.298.057-.19-.025.013-.096-.022-.197-.117-.21l-.123-.162zm-.045 1.4c.095.012.184.073.171.168-.013.095-.08.231-.181.266-.109.082-.204.07-.171-.168.025-.19.086-.28.181-.266zm-.584.017c.061-.088.299-.056.273.134l-.19-.026c-.096-.013-.143-.02-.083-.108zm9.554 8.127c-.048-.006-.136-.067-.123-.162.006-.047.108-.082.149-.028a.7.7 0 01.076.156c-.007.047-.054.04-.102.034zm8.271.445c-.488.03-.631.011-.469-.112.21-.117.943-.163.923-.02-.006.047-.203.069-.454.132zm.454-1.198c.013-.095.162-.123.257-.11.19.025.231.08.171.168-.007.048-.156.076-.251.063-.095-.013-.184-.073-.177-.121zm.787.979a1.479 1.479 0 01-.311.151c-.203.07-.251.063-.238-.032.013-.095.128-.225.318-.2.149-.027.285.04.231.08zm.387.004c-.155.076-.21.117-.197.022.02-.143.236-.308.318-.2.048.007-.013.096-.121.178zm1.799-.047c-.041-.054-.137-.067-.143-.02-.013.096-.311.153-.549.12-.523-.07-.564-.125-.45-.255.223-.212.508-.173.292-.008-.013.095.089.06.251-.063l.311-.152c.095.013.244-.015.393-.043.4-.091.638-.06.619.084-.033.238-.499.465-.724.337zm-21.833-5.095c-.061.089-.061.089.034.102.095.013.143.02.156-.076a.214.214 0 00-.028-.15c-.048-.005-.102.036-.162.124zm.337-.342a.104.104 0 00-.083-.108c-.047-.006-.149.029-.155.076-.013.095.076.156.123.162.048.007.102-.034.115-.13zm22.927 5.244a.368.368 0 00-.128.225c-.006.047.041.054.095.013.048.006.156-.076.169-.171.006-.048-.082-.108-.136-.067zm-20.275-12.295c.007-.047-.028-.149-.076-.155-.047-.007-.155.075-.162.123-.012.095.083.108.13.114.048.007.095.013.108-.082zm.911 5.065c.033-.238.045-.333-.063-.251a.295.295 0 00-.092.326c.056.299.11.258.155-.075zm-.397.43c.164.216.205.27.231.08.007-.047-.082-.108-.218-.175-.137-.067-.137-.067-.013.095zm.617-2.047c-.095-.013-.335.68-.246.741.123.162.197-.022.296-.396.026-.19-.003-.339-.05-.345zm-1.403 3.2c-.067.136-.08.231-.033.238.143.02.283-.3.195-.361-.041-.054-.143-.02-.162.123zm17.628 11.645a.509.509 0 00.099-.374c.013-.095.039-.285.112-.47.067-.135.08-.23.033-.237-.048-.007-.115.13-.128.225-.06.088-.099.374-.172.558-.026.19-.039.285.056.298zm4.332-3.723c.048.006.095.013.102-.035.006-.047-.035-.101-.076-.155-.095-.013-.143-.02-.149.028-.007.047.028.149.123.162zm-3.512 5.53s-.06.088-.114.13c-.013.095-.019.142.035.101.047.007.142.02.155-.076.013-.095-.028-.149-.076-.155zm14.022-31.57c.097-.713-.063-1.316-.295-1.395-1.219-.65-1.219-.65-1.401-.384-.175.218-.175.218-.564-.125-.301-.283-.437-.35-.497-.262-.061.089-.251.063-.599-.226-.58-.37-1.369-.622-1.959-.557-.387-.004-.441.037-.668.636-.306.83-1.528 4.83-2.708 8.885-.597 1.904-1.16 3.911-1.326 4.421-.212.844-1.284 4.816-1.635 5.979-.033.238-.337 1.407-.641 2.577-.349 1.503-.494 2.21-.446 2.216.048.007.13.115.117.21 0 0-.102.034-.143-.02-.143-.019-.248.403-.546 1.525-.224.938-.49 1.822-.515 2.013-.074.184-.052.38-.052.38.095.013.117.21.139.407-.026.19-.1.374-.147.367-.095-.013-.089-.06-.082-.108a.306.306 0 00.038-.285c-.199-.318-.414.912-.342 1.455.084.447.026.875-.168 1.236-.013.096-.154.416-.199.749-.112.469-.131.611.024.536.149-.028.149-.028-.006.047-.108.082-.128.225-.058.428.069.204.063.251-.067.137-.232-.08-.34.002-.223.212.076.155.07.203-.073.183-.143-.019-.197.022-.073.184.164.216.497.261.611.132.108-.082.353-.098.686-.053.421.106.469.113.447-.084-.076-.156-.015-.244.08-.231.095.012.156-.076.127-.225-.028-.15-.008-.292.093-.327.054-.041.061-.089.026-.19.006-.048.026-.19.127-.225.067-.136.195-.361.227-.599.073-.184.125-.564.205-.796.073-.183.112-.469.138-.66.118-.516.343-.388.279.087-.011.435.119.55.341.337.013-.095.106-.421.158-.802.064-.476.036-.625-.119-.549-.102.035-.258.11-.277.253-.013.095-.006.048-.028-.149.073-.184.181-.266.432-.329.244-.015.298-.056.21-.117-.035-.101-.184-.073-.279-.086-.156.076-.149.028-.028-.15.073-.183.174-.218.304-.103.165.216.232.08.449-.811.184-.992.43-1.734.579-1.762.047.006.114-.13.086-.28-.035-.1-.002-.339.112-.468.061-.09.16-.463.199-.748.045-.334.15-.755.23-.986.166-.51.166-.51.324-.247.171.168.152.311.057.298-.048-.006-.108.082-.121.178a.265.265 0 01-.175.218c-.244.015.002.34.335.385.19.025.244-.016.203-.07-.095-.013-.164-.216-.151-.31.032-.239.032-.239.108-.083.022.197.247.324.225.127-.022-.196.099-.374.181-.266.095.013.102-.034.093-.326-.009-.292.004-.387.093-.327.041.054.142.02.155-.075-.034-.102-.069-.204-.117-.21-.095-.013-.088-.06-.075-.156.054-.04.155-.075.238.033.041.054.108-.083.099-.374-.009-.292.064-.476.166-.51.149-.029.155-.077.127-.226-.171-.168-.141-.745-.011-.63.041.053.143.019.21-.118.06-.089.019-.143-.082-.108-.251.063-.232-.08.045-.333.114-.13.134-.272.099-.374-.041-.054.013-.095.095.013.13.115.143.02.121-.177-.028-.15-.009-.292.086-.28.095.014.108-.081.128-.224-.028-.15-.016-.244.032-.238.136.067.149-.028.175-.218.026-.19.099-.374.207-.457.162-.123.156-.075.07.203-.343 1.456-.369 1.646-.261 1.564.054-.041.143.02.082.108-.019.142-.086.279-.093.326-.006.048-.06.089-.155.076-.095-.013-.216.164-.249.402.022.197.009.292.083.108.019-.142.133-.272.229-.26.142.02.129.115.002.34-.115.13-.229.26-.324.247-.048-.007-.054.04.028.149.117.21.109.983-.082.958-.047-.007-.088-.06-.075-.156.013-.095-.035-.102-.191-.026-.06.089-.079.232.031.489.158.263.152.311.009.292-.095-.013-.203.069-.21.116-.006.048.082.108.184.074.203-.07.19.026.002.34-.121.177-.127.224.016.243.095.014.203-.069.209-.116.013-.096.02-.143.061-.089.041.054.015.244-.011.434-.127.225-.181.267-.298.057-.076-.156-.076-.156-.251.063-.114.13-.127.225-.026.19.054-.041.096.013.076.156-.019.142-.08.231-.134.272-.047-.006-.073.184-.14.32-.032.238-.004.387.043.394.048.006.169-.171.195-.362.019-.142.105-.421.172-.557.216-.165.264-.158.12.549-.071.523-.056.767.039.78.054-.041.127-.225.16-.463.073-.183.146-.367.194-.36.048.006.08-.232.071-.524.017-.482.078-.57.268-.545.095.013.149-.028.108-.082-.035-.102.026-.19.08-.232.095.013.114-.13.121-.177-.089-.06-.035-.101.013-.095.047.006.108-.082.12-.177.013-.096-.021-.197-.069-.204 0 0-.034-.101.032-.237.02-.143.128-.225.318-.2.238.033.279.087.212.223-.06.089-.026.19.063.25.089.061.162-.123.14-.32 0 0 .074-.183.201-.408.086-.279.425-1.347.617-2.048a1.78 1.78 0 01.153-.415c.013-.095.167-.51.333-1.02.39-1.449.953-3.456 1.231-4.435.326-.973.889-2.98 1.83-6.34.617-2.047 1.427-5.522 1.483-6.29zm-13.888 27.374c-.201.408-.201.408-.264.157-.034-.101.08-.23.141-.32.216-.164.216-.164.123.163zm.794-2.993c-.013.095-.115.13-.162.123-.048-.006-.136-.066-.124-.162.007-.047.108-.082.204-.069.101-.035.142.02.082.108zm.103-.76s-.095-.014-.082-.109c-.041-.054-.035-.102.067-.136.047.006.082.108.076.155-.007.048-.013.096-.061.09zm1.407-.73c-.019.142-.114.13-.114.13-.048-.007-.096-.013-.076-.156.006-.048.108-.082.155-.076.048.007.089.06.035.102zm.467.838c-.116-.21-.069-.203.026-.19.095.013.184.073.171.169.076.155-.073.183-.197.021zm.989-3.353c-.096-.013-.089-.06-.076-.156.054-.041.114-.13.162-.123.047.006.035.101.028.149-.013.095-.067.136-.114.13zm.513-1.287c-.229.26-.276.253-.339.002-.041-.054-.035-.101.006-.047.089.06.191.026.34-.002.162-.124.162-.124-.007.047zm.66.138c-.074.184-.121.177-.082-.108.012-.095.079-.231.127-.225l.19.026c.048.006.089.06.089.06-.007.048-.061.09-.108.083-.048-.007-.149.028-.216.164zm.179.46c-.041-.054.02-.142.121-.177.156-.076.197-.022.184.073-.032.238-.229.26-.305.104zm2.145-4.02c.092-.326.192-.7.217-.89.026-.19.046-.333.141-.32.047.006-.004.386-.104.76-.058.428-.211.844-.312.878-.061.089-.042-.054.058-.428zm-.345 5.04c-.013.095-.115.13-.21.117-.143-.02-.13-.115.115-.13.108-.082.149-.028.095.013zm.192-.7c-.013.094-.115.129-.162.122-.191-.025-.171-.168.073-.183.102-.035.143.019.089.06zm.666-5.626c-.047-.007-.088-.06-.123-.162-.041-.054-.035-.102.061-.089.047.006.136.067.129.114-.013.096-.019.143-.067.137zm.132-.612c-.048-.007-.076-.156-.056-.299.025-.19.086-.278.127-.224.047.006.076.155.056.298-.013.095-.026.19-.127.225zm.357 4.505c.149-.028.184.073.178.12-.061.09-.163.124-.21.118-.095-.013-.136-.067-.123-.162.006-.048.108-.083.155-.076zm.098-6.43c.067-.136.121-.177.121-.177a.996.996 0 00.056.299c-.039.285-.201.408-.27.205-.041-.054-.015-.244.093-.327zm-.177.945c-.034-.101.013-.095.149-.028.089.06.13.115.124.162-.013.095-.238-.032-.273-.134zm-.018 6.198c-.101.035-.162.124-.114.13.238.032.07 1.269-.146 1.433-.169.171-.549.12-.53-.023.006-.048.067-.136.175-.218.169-.171.294-.736.103-.761-.095-.013-.088-.061.013-.096.054-.04.162-.123.128-.224.092-.327.146-.368.337-.342.19.026.19.026.034.101zm.08-.231c-.095-.013-.19-.026-.184-.074 0 0 .108-.082.204-.069.101-.034.203-.07.19.026-.013.095-.115.13-.21.117zm.313-.878c-.095-.013-.136-.067-.117-.21.02-.142.087-.279.182-.266.095.013.095.013-.035-.101-.13-.115-.13-.115.013-.095.089.06.164.216.139.406-.026.19-.087.279-.182.266zm.386-1.062c-.012.096-.127.225-.229.26-.244.015-.237-.032-.062-.25.235-.308.425-.282.291-.01zm1.098-4.162c-.047-.006-.082-.108-.117-.21-.034-.101.026-.19.074-.183.047.006.082.108.069.203l-.026.19zm-2.273 8.895c-.095-.013-.149.028-.108.082.041.054-.026.19-.147.368-.168.17-.194.361-.159.463.034.101.056.298-.004.387-.02.142.021.197.082.108.108-.082.248-.402.293-.735.119-.517.138-.66.043-.673zm-4.535 4.858c-.019.143-.025.19.178.121.095.013.203-.069.168-.17-.009-.292-.307-.236-.346.05zm2.568-1.782a.539.539 0 00.091.4c.123.161.168-.172.058-.429-.117-.21-.117-.21-.149.029zm-2.339.457c-.007.048.082.108.231.08.143.02.197-.022.216-.165-.002-.339-.402-.248-.447.085zm-.334 1.747c-.095-.013-.054.041.088.06.143.02.197-.021.15-.028-.042-.054-.13-.114-.238-.032zm4.042-3.375c-.045.333.003.34.137.067.06-.089.067-.136-.022-.197-.041-.054-.102.035-.115.13zm-2.268 2.793a1.69 1.69 0 00-.159.462c-.013.095.021.197.069.203.047.007.114-.13.153-.415.052-.38.052-.38-.063-.25zm.09 2.191c-.101.035-.203.07-.244.016-.089-.06-.095-.013-.054.04.063.252.253.277.387.005.114-.13.073-.184-.089-.06zm.43-3.526a3.67 3.67 0 00.199-.748l.01-.434-.159.462c-.134.273-.227.6-.199.748.063.251.07.204.149-.028zm.418.493c-.048-.006-.082-.108-.117-.21.013-.095-.047-.006-.086.28-.039.285-.078.57-.132.611-.06.089-.153.415-.239.694l-.119.517.249-.402c.127-.225.207-.457.166-.51.006-.048.086-.28.166-.51.127-.226.207-.457.112-.47zm.972-.74c-.095-.013-.149.028-.155.076a.21.21 0 00.028.149c.047.006.102-.035.162-.123.006-.048.013-.096-.035-.102zm-1.819.916c-.007.047.028.149.075.155.096.013.143.02.15-.028.006-.048-.035-.102-.124-.162-.041-.054-.095-.013-.101.035zm-.976-1.731c-.096-.013-.156.075-.108.082-.013.095-.026.19-.074.184-.06.088-.121.177-.086.278.028.15.076.156.279.087.257-.11.257-.11.201-.409-.035-.102-.117-.21-.212-.222zm-2.246 5.12c-.054.041-.114.13-.032.238.035.102.082.108.19.026.128-.225.059-.428-.158-.264zm-.479 1.388c.076.156.057.298-.038.286-.048-.007-.102.034-.115.13-.045.332.206.27.298-.057.074-.184.052-.38-.03-.489-.082-.108-.13-.114-.115.13zm3.21-7.944c-.238-.032-.305.104-.328.633-.007.048-.121.178-.229.26-.061.089-.181.266-.188.314-.013.095.082.108.13.114.095.013.203-.07.216-.164.013-.096.06-.09.089.06.158.264.285.039.423-.62.064-.476.077-.571-.113-.597zm-3.373 8.794c-.137-.067-.264.158-.296.396-.007.047-.013.095.082.108.238.032.397-.43.214-.504zm.53-1.769c-.047-.006-.149.029-.162.124-.013.095.082.108.13.114.048.007.143.02.156-.076.013-.095-.076-.155-.124-.162zm38.086-22.44c-.143-.02-.292.008-.352.097-.054.04.034.101.129.114.333.045.502-.125.223-.212zm.053-1.108c.171.169.219.175.238.033.006-.048-.082-.108-.177-.121-.184-.074-.191-.026-.061.088zM240.37 66.592l.039-.285c-.035-.101-.048-.006-.067.136-.074.184-.08.232.028.15zm6.031-3.395c-.06.089.029.15.083.108.142.02.209-.117.22-.551-.022-.197-.223.212-.303.443zm-.192.7c-.095-.012-.121.178-.045.334.124.162.232.08.21-.117a.206.206 0 00-.165-.217zm1.7-2.53c-.108.082-.268.545-.44 1.103-.244 1.081-.194 1.427.072.543.492-1.484.53-1.77.368-1.646zm-1.723 3.06c-.095-.013-.156.076-.175.219-.013.095.022.196.076.155.095.013.162-.123.175-.218.006-.048-.028-.15-.076-.156zm2.004-3.7c-.19-.026-.298.056-.229.26-.013.095.076.155.13.114.155-.076.194-.361.099-.374zm19.554-17.012c-.523-.071-.85-.164-.837-.26-.028-.148.365-.192 1.282-.164.951.129 1.1.1 1.18-.13.026-.19.074-.184-.088-.061-.115.13-.156.076-.212-.223-.022-.196-.152-.31-.254-.276-.101.034-.209.117-.174.218.028.15-.02.143-.305.104-.238-.032-.286-.039-.076-.156.305-.103.188-.313-.158-.263-.149.028-.631.011-1.005-.088-.422-.106-.761-.103-.768-.056-.006.048-.25.063-.529-.023-.327-.093-.511-.167-.504-.214.013-.095-.891-.218-1.088-.196-.054.041-.244.015-.387-.004-.184-.074-.38-.052-.393.043-.108.082-.108.082-.007.048.102-.035.143.02.137.067-.007.047-.108.082-.264.158-.238-.032-.231-.08-.171-.169.067-.136.026-.19-.164-.216-.238-.032-.184-.073.162-.123.244-.015.352-.098.365-.193-.035-.101.026-.19.08-.231.054-.041.143.02.177.12.022.197.069.204.292-.008.426-.281.603-.16.443.302-.006.048.041.054.191.026.101-.035.244-.015.387.004.142.02.149-.028.067-.136-.076-.156-.07-.203.133-.272a.907.907 0 01.368.146c.089.06.231.08.285.04.102-.036.441-.038.733-.047.768.056.882-.074.296-.395-.218-.176-.348-.29-.253-.277.048.006.197-.022.339-.003.102-.034.197-.021.184.074-.019.143.297.67.487.696.048.006.102-.035.108-.082.013-.096.061-.09.19.025.13.115.13.115.245-.015.06-.089.168-.17.298-.056.089.06.143.019.162-.124.026-.19.026-.19.143.02.11.257.395.296.523.07.054-.04.019-.142-.076-.155-.238-.032-.212-.222.017-.482.121-.177.128-.225.039-.285-.095-.013-.082-.108.032-.238.182-.266.147-.368-.052-.685-.165-.217-.186-.413-.085-.448.21-.117.207-.456.004-.387-.095-.013-.231-.08-.259-.229-.07-.203-.26-.229-2.372-.37-2.873-.245-3.26-.249-3.375-.12-.013.096-.155.077-.285-.038-.082-.108-.218-.175-.272-.134 0 0-.387-.004-.816-.062-.434-.01-2.023-.08-3.469-.132-3.803-.177-3.423-.125-3.358-.601-.05-.346-.085-.447-.268-.52-.143-.02-.238-.033-.273-.135-.041-.054-.313-.188-.545-.267-.415-.154-.462-.16-.542.071-.013.095-.074.184-.121.178-.089-.06-.137-.067-.124-.162.007-.048.013-.096-.082-.109-.095-.012-.225-.127-.253-.276-.076-.156-.171-.169-.326-.093-.156.076-.251.063-.238-.032-.186-.413-2.085-1.058-2.355-.853-.108.083-.861 2.063-.954 2.39 0 0-.251.063-.543.071-.577-.03-1.227.124-1.158.328-.013.095-.013.095-.108.082-.048-.007-.067.136-.058.428.037.44.078.495.433 1.803.182.8.204.996.038 1.506-.093.327-.703 2.327-1.34 4.517-1.659 5.442-1.752 5.769-1.996 5.784-1.139.185-1.362.397-1.085 1.21.451 1.32.453 1.66.261 2.36-.239.694-.265.884-.617 2.047-.112.47-.237 1.034-.31 1.218-.08.231-.246.741-.345 1.115-.106.422-.225.939-.298 1.123-.419 1.3-.708 2.713-.504 2.644.149-.028-.043.672-.246.741-.156.076-.437.716-.281.64.102-.034.136.067.123.163.083.108.028.149-.108.082-.136-.067-.196.022-.242.355-.032.237-.004.386.044.393.143.02.091.4-.248 1.468 0 0-.047-.007-.082-.108-.048-.007-.156.076-.175.218-.032.238-.032.238.13.115.067-.136.095.013.043.393-.112.47-.131.612-.309.491-.088-.06-.142-.02-.216.165-.032.237.016.244.13.114.175-.218.162-.123.052.685-.051.38-.064.476.18.46.143.02.32.141.402.25.028.148.171.168.225.126.054-.04.203-.069.292-.008.402.248.709-.582.373-.967-.205-.27.026-.19.333.045.301.283.524.071.379-.288-.212-.222-.212-.222-.191-.025-.004.387-.051.38-.304.104-.124-.162-.117-.21-.009-.292.047.006.108-.082.067-.136-.035-.102.019-.143.067-.137 0 0 .073-.183.166-.51.08-.231.192-.7.224-.938.093-.327.119-.517.002-.727-.076-.155-.117-.21-.07-.203.489-.03.578.03.539.316l-.065.475c-.013.095.028.15.124.162.095.013.155-.076.181-.266.067-.136.039-.285-.063-.25-.006.047-.047-.007.013-.096.067-.136.169-.17.21-.117.041.054.047.007.013-.095.019-.142-.07-.203-.253-.276-.143-.02-.178-.121-.145-.359.105-.422.274-.593.499-.465.136.067.183.073.155-.076.007-.047.087-.279.153-.415.121-.177.141-.32-.03-.489-.13-.114-.123-.162-.028-.149.142.02.101-.034-.029-.149-.177-.12-.177-.12.061-.089.143.02.292-.008.305-.103.013-.096-.124-.163-.32-.14-.048-.007-.016-.245.064-.476l.106-.422-.011.434c-.004.387-.004.387.26.23.108-.083.222-.213.283-.301.013-.095.032-.238.099-.374s.214-.504.266-.885c.146-.367.28-.64.334-.68.156-.077.108-.083.013-.096-.047-.006-.082-.108-.056-.298.013-.095.08-.232.127-.225.048.006.082.108.063.25-.019.143.028.15.171.17.101-.036.143.018.082.107-.127.225.139.407.307.236.061-.09.08-.232-.037-.441-.082-.108-.11-.258-.063-.251.061-.089.102-.035.089.06-.006.048-.013.096.076.156.047.006.114-.13.14-.32-.028-.15.039-.285.086-.279.048.007.121-.177.106-.422.026-.19.099-.374.099-.374.095.013.162-.123.175-.218.02-.143.141-.32.242-.355.102-.034.121-.177.147-.367.019-.143.045-.333.14-.32.048.006.102-.035.02-.143-.022-.197.073-.184.263-.158.137.067.219.175.206.27-.054.041-.02.143.076.156.088.06.034.101-.121.177-.108.082-.223.212-.294.735-.045.333-.03.577.018.584.047.006.028.149-.033.238-.025.19-.127.225-.222.212-.048-.007-.019.142.009.292.082.108.212.222.212.222.088.06.084.447-.028.917-.071.523-.129.95-.081.957.142.02.473-.275.404-.478.006-.047.086-.279.105-.421.115-.13.128-.225.074-.184-.102.035-.143-.02-.13-.114.019-.143.073-.184.121-.178.047.007.121-.177.153-.415.026-.19.106-.422.153-.415.095.013.095.013.061-.089.013-.095.032-.238.14-.32.073-.184.201-.409.274-.592.08-.232.186-.653.279-.98.086-.279.22-.551.315-.538.095.013.069.203-.071.523-.039.285-.205.795-.352 1.163l-.185.653c-.061.089-.026.19.008.292.104.305.327.093.525-.655.179-.606.266-.885.572-1.715l.093-.327 1.304.032c.713.097 1.439.099 1.535.111.149-.028.916.028 1.69.036.815.063 1.637.077 1.874.11.679-.005 3.423.125 3.565.144.143.02.143.02.067-.136-.158-.264.065-.476.553-.506.143.02.34-.003.387.004 0 0 .102-.035.15-.028.095.013.149-.029.209-.117.007-.048-.089-.06-.225-.128-.196.022-.238-.032-.164-.216.127-.225.08-.231-.681-.334-.435-.01-1.006-.088-1.202-.067-.245.016-.381-.051-.32-.14.162-.123-.599-.227-.822-.015-.21.117-.21.117-.184-.073.013-.095-.021-.197-.117-.21-.047-.006-.108.083-.079.232l.008.292-.056-.299a1.85 1.85 0 00-.199-.317c-.19-.026-.063-.251.188-.314s.571.077.545.268c-.007.047.142.02.257-.11.168-.171.264-.159.251-.063-.013.095.034.101.292-.01.114-.13.257-.11.25-.062-.013.095.136.067.394-.044.4-.09.454-.132.529.024-.013.095.111.257.199.317.089.061.137.067.108-.082.02-.142.026-.19.115-.13.089.061.184.074.197-.021.006-.048.114-.13.257-.11.197-.022.197-.022.039-.286-.165-.216-.187-.413-.074-.882.058-.428.09-.666-.053-.685-.088-.06-.158-.264-.138-.407.086-.279-.236-.758-.522-.797-.047-.006-.006.048.076.156.035.101.082.108-.013.095-.095-.013-.184-.074-.171-.169-.089-.06-.177-.12-.279-.086-.251.063-.638.059-2.207-.154-.666-.09-1.386-.14-1.583-.118-.19-.026-.72-.05-1.297-.08-.571-.077-1.379-.187-1.861-.204-.435-.01-.856-.116-.904-.122-.089-.06.004-.387.164-.85.099-.374.69-2.232 1.234-4.095l.947-3.408.875-.026c.482.017 1.358-.01 1.983.026.631-.01 1.405-.002 1.833.056.393-.044.971-.014 1.215-.03.285.04.774.009 1.113.007.34-.003.822.014 1.06.046a21.206 21.206 0 011.69.036c.631-.011 1.399.045 1.738.042.578.03 1.922.116 2.886.15.774.008.705-.195-.151-.311zm-.448-.982a.363.363 0 01.203-.069c.095.013.089.06.035.102-.061.089-.115.13-.21.117-.048-.007-.041-.054-.028-.15zm1.562-1.87c-.007.047-.061.088-.169.17-.06.09-.155.076-.238-.032-.034-.101.324-.246.407-.138zm-.309-2.367c.108-.083.197-.022.286.038 0 0-.054.041-.197.022-.143-.02-.184-.073-.089-.06zm-.532 2.495c-.013.095-.115.13-.27.205-.191-.026-.232-.08-.165-.216.074-.184.365-.192.435.01zm-.134-2.586c.258-.11.536-.024.422.106-.061.089-.251.063-.346.05-.238-.032-.231-.08-.076-.156zm-27.105 27.323c-.054.04-.089-.06-.076-.156.045-.333.093-.326.156-.076.034.102.021.197-.08.232zm.771-1.397c.006-.048.06-.09.149-.029.089.06.177.121.171.169-.013.095-.238-.032-.32-.14zm1.658.273c.041.054.028.15-.032.238-.115.13-.162.123-.19-.026-.089-.06-.022-.197.079-.231.061-.089.156-.076.143.02zm.783-3.624c.006-.047.019-.142.121-.177.054-.041.088.06.082.108-.033.238-.134.273-.203.07zm1.281-1.23c-.054.04-.128.224-.099.374-.026.19-.039.285-.134.272-.143-.02-.046-.733.103-.76.054-.042.115-.13.093-.327.019-.143.026-.19.168-.171.191.026.126.501-.131.612zm3.118-9.41c-.095-.013-.089-.061-.028-.15.006-.047.108-.082.108-.082.047.007.041.054.034.102-.013.095-.067.136-.114.13zm-1.254 9.953c-.096-.013-.137-.067-.13-.114.006-.048.114-.13.175-.219.047.007.136.067.076.156-.02.143-.074.184-.121.177zm.293-.735c-.121.177-.311.152-.326-.093-.035-.101.019-.142.067-.136.047.007.155-.076.175-.218.025-.19.025-.19.095.013.028.149.05.345-.011.434zm.091-.666c-.089-.06-.083-.108-.063-.25.019-.143.08-.232.175-.219 0 0 .034.102.015.244-.019.143-.08.232-.127.225zm1.865-8.03c-.048-.006-.182.266-.268.545-.16.463-.214.504-.283.3-.028-.148-.015-.244.086-.278.197-.022.268-.545.138-.66-.089-.06-.076-.155.032-.237.223-.212.359-.146.375.099-.026.19-.033.237-.08.231zm.189-1.04c-.159.463-.159.463-.168.171-.022-.197.077-.57.218-.89.2-.41.254-.45.216-.165a3.86 3.86 0 01-.266.884zm1.375-4.415c-.061.089-.054.04-.029-.15.02-.142.033-.237.067-.136l-.038.286zm7.79 12.199c.101-.035.149-.029.136.066 0 0 .095.013.203-.069.102-.035.203-.07.197-.022-.08.232-.385.336-.562.215-.082-.108-.082-.108.026-.19zm-.625-.037c.162-.123.387.004.367.147-.013.095-.155.076-.298.056-.231-.08-.279-.086-.069-.203zm-1.018.007c.095.013.237.032.291-.009.108-.082.108-.082 0 0-.168.171-.507.174-.488.031.013-.095.114-.13.197-.022zm2.692-2.347c.054-.041.095.013.082.108-.019.143-.073.184-.121.177-.095-.013-.136-.067-.13-.114.061-.089.067-.136.169-.17zm-3.501 2.238c.082.108.076.155-.032.237-.156.076-.203.07-.286-.038-.069-.204.188-.314.318-.2zm-.39-1.41c.061-.088.292-.009.273.134-.007.048-.102.035-.197.022-.089-.06-.136-.067-.076-.156zm-2.934-.156c.054-.04.108-.082.156-.076.048.007.041.054.035.102-.013.095-.067.136-.115.13-.095-.013-.089-.06-.076-.156zm-1.793-6.056c-.095-.013-.089-.06-.029-.15.055-.04.109-.081.156-.075 0 0 .041.054.035.102-.013.095-.115.13-.162.123zm6.772-8.14c-.19-.025-.184-.072-.089-.06.102-.034.197-.021.238.033.041.054-.054.04-.149.028zm2.728-.113c-.114.13-.324.247-.365.192-.089-.06-.197.022-.251.063-.06.089-.155.076-.19-.026-.041-.054-.13-.114-.279-.086-.149.028-.143-.02.006-.047.109-.083.305-.104.448-.085.19.026.292-.009.318-.2.012-.094.067-.135.095.014.034.101.075.155.238.032.209-.117.209-.117-.02.143zm.638-.059c-.013.095-.026.19-.08.231-.054.041-.041-.054-.028-.149.019-.142.073-.184.108-.082zm-.455 1.924c-.048-.006-.082-.108-.076-.155.007-.048.054-.041.102-.035.088.06.129.115.123.162-.006.048-.054.041-.149.028zm.959-1.71c.067-.136.454-.132.529.023-.006.048-.013.095-.067.136l-.285-.038c-.143-.02-.238-.033-.177-.121zm.37 1.552a.613.613 0 01-.114.13c-.048-.007-.089-.061-.076-.156.007-.048.108-.082.156-.076.047.007.088.06.034.102zm1.488.105c-.054.04-.095-.013-.083-.108.013-.095-.034-.102-.142-.02-.067.137-.115.13-.102.035.026-.19.182-.266.4-.091.041.054.028.15-.073.184zm.624.036c-.047-.006-.088-.06-.075-.155.006-.048.06-.09.108-.083.047.007.136.067.123.162-.006.048-.108.083-.156.076zm1.155.06c-.143-.02-.339.002-.435-.01-.203.069-.326-.093-.307-.236.013-.095.061-.089.095.013.07.203.117.21.137.067.013-.095.067-.136.155-.076.095.013.238.032.435.01.203-.069.292-.008.225.128-.013.095-.121.177-.305.104zm.999.136c-.216.164-.216.164-.286-.04-.034-.1-.123-.161-.177-.12-.102.035-.095-.013-.035-.102.061-.088.156-.076.197-.022.089.061.143.02.149-.028.007-.047.061-.088.251-.063.095.013.231.08.225.128-.007.047-.162.123-.324.246zM246.221 61.67c.054-.041.067-.136.073-.184-.028-.15-.082-.108-.101.035-.013.095-.026.19.028.149zm-.382 1.74c-.012.096.022.197.117.21.048.006.102-.035.108-.082a.36.36 0 00-.069-.203c-.089-.06-.143-.02-.156.075zm14.782-5.404c-.095-.013-.232-.08-.327-.093-.088-.06-.285-.039-.387-.004-.108.082-.155.075-.047-.007.06-.088.019-.142-.082-.108-.102.035-.21.117-.223.212-.073.184.491.309.653.186.006-.048.156-.076.292-.01.088.061.238.033.244-.014.013-.096-.028-.15-.123-.162zm-1.874-1.902c-.101.035-.101.035.035.102.143.02.197-.022.203-.07l-.238-.032zm-14.116 7.288c-.095-.013-.203.069-.311.151-.175.219-.175.219.041.054.155-.076.203-.07.231.08.035.102.035.102.108-.082.013-.095-.021-.197-.069-.203zm.744 3.443c-.026.19-.033.238.075.156l.039-.286c-.035-.101-.047-.006-.114.13zm-3.08 1.277c-.143-.02-.149.028-.093.327.063.25.158.263.156-.076.013-.095-.016-.244-.063-.25zm2.832-6.59c-.38-.052-.534.363-.335.68.165.217.165.217-.032.238-.095-.013-.203.07-.27.206-.067.136-.127.225-.08.231.095.013.588-.404.709-.582.322-.586.341-.728.008-.774zm-.099.373c-.089-.06-.089-.06-.076-.155.054-.041.115-.13.162-.123.048.006.035.101.028.149-.013.095-.067.136-.114.13zm11.94-5.887c-.054.041.035.102.082.108l.143.02c.007-.048-.082-.109-.117-.21-.047-.007-.095-.013-.108.082zm33.463-11.104c-.083-.108-.111-.257-.05-.346.013-.095-.076-.155-.314-.188-.143-.019-.368-.146-.456-.207-.082-.108-.13-.114-.143-.02-.006.048-.114.13-.305.105-.095-.013-.183-.074-.117-.21.128-.225-.062-.25-.291.009-.169.17-.169.17-.095-.013.108-.082.079-.231.032-.238-.095-.013-.156.076-.169.171-.032.238-.127.225-.374-.1-.234-.418-.179-.46.242-.354.231.08.53.024.536-.024.102-.035.21-.117.353-.097.095.013.333.045.441-.038.108-.082.095.014-.067.137a.813.813 0 00-.236.307c.095.013.184.073.232.08.095.013.129.114.116.21-.054.04.035.101.083.107.047.007.073-.183.105-.421-.043-.394.017-.482.099-.374.13.114.156-.076.046-.333-.076-.156-.072-.543-.033-.828.125-.565-.01-1.358-.152-1.377-.048-.007-.035-.102.038-.285.02-.143.033-.238-.063-.251-.095-.013-.129-.115-.123-.162.02-.143-.212-.223-.675-.383-.802-.157-4.375-.593-6.767-.821-4.265-.337-6.859-.495-8.21-.533-.537.024-1.406.003-1.935-.021-1.684-.083-1.948.075-1.681 1.322l.141.746-.816 1.73c-.421.96-1.209 2.839-1.777 4.166-.568 1.328-1.088 2.662-1.155 2.799-.281.64-1.481 3.77-2.02 5.247a260.919 260.919 0 00-1.448 4.6c-.127.224-.302 1.509-.511 2.691-.364 2.325-.329 2.426-.157 4.726-.013.095.069.203.063.25.041.055.069.204.05.347-.052.38 1.275 2.74 1.56 2.779.095.013.225.127.26.229.24.372 1.336.86 3.527 1.496 1.211.358 2.748.809 3.394 1.042 1.763.578 2.952.74 4.573.572.787-.087 1.675-.208 1.926-.271.244-.015.996-.204 1.593-.317 1.009-.299 2.622-.758 3.549-1.165.21-.117.426-.281.493-.418.08-.23 1.026-.78 1.203-.66.13.115.69-.439.843-.854.147-.368.153-.415-.044-.393-.298.056-.469-.113-.525-.41.039-.286-.227-.468-.266-.182-.032.237-.765.283-.882.074-.082-.108-.089-.06-.067.136.002.34-.36.871-.477.662-.041-.054.019-.143.121-.178.047.007.114-.13.133-.272.026-.19-.015-.244-.116-.21-.15.028-.279-.086-.349-.29-.158-.263-.199-.317-.449-.254-.258.11-.299.056-.266-.181.032-.238-.241-.372-.368-.147-.115.13-.108.082-.089-.06.033-.239-.233-.42-.798-.545-.285-.039-.516-.118-.599-.227-.082-.108-.177-.12-.38-.051-.156.076-.197.021-.184-.074.013-.095-.149.029-.365.193-.512.56-1.269 1.136-1.411 1.116-.048-.006-.461.18-.778.38-.413.185-.819.324-.962.305-.095-.013-.4.09-.651.154-.216.164-.412.186-.406.138.006-.047-.048-.006-.108.082-.108.082-.27.206-.46.18-.238-.032-.543.072-.841.128-.251.063-.597.113-.698.148-.197.021-.638.058-1.038.15-.406.138-.99.156-1.275.117l-.578-.03-.277-.813c-.435-1.076-.583-2.84-.364-4.457.114-1.196.804-4.493 1.011-4.95.08-.23.908-.264 4.261-.341.238.032 1.697-.012 3.299-.037 1.554-.031 3.4-.071 4.032-.082 3.257-.09 4.974-.245 3.934-.435-.618-.084-.761-.103-.707-.144.054-.041.101-.035.149-.029.048.007.149-.028.305-.104.114-.13.317-.199.413-.186.583-.017.676-.344.153-.415-.19-.026-.279-.086-.253-.276.026-.19-.063-.251-.253-.277-.096-.013-.197.022-.21.117-.006.047-.108.082-.203.07-.143-.02-.184-.074-.13-.115.06-.089.019-.143-.076-.156-.142-.02-.203.07-.168.17.021.198-.515.222-.638.06.013-.095-.089-.06-.203.069-.128.225-.365.193-.333-.045.013-.095-.022-.197-.069-.203-.096-.013-.108.082-.067.136.034.101-.013.095-.137-.067-.17-.169-.17-.169-.149.028.029.15.022.197-.121.177-.095-.013-.183-.073-.171-.168-.082-.108-.129-.115-.291.009-.216.164-.264.158-.441.037-.171-.169-.266-.182-.333-.045-.013.095-.115.13-.149.028-.07-.203-.945-.177-.924.02-.012.095-.12.177-.263.158-.149.028-.19-.026-.123-.162.114-.13.025-.19-.219-.175-.19-.026-.387-.004-.441.037-.095-.013-.19-.026-.177-.121-.035-.102.019-.143 1.228-.124.434.01.685-.053.65-.154.013-.095.026-.19.121-.177.048.006.292-.01.53.023.244-.015.434.01.428.058-.013.095.076.156.171.169.095.013.101-.035.114-.13.013-.095.115-.13.305-.104.149-.028.339-.002.4-.091.054-.041.298-.056.536-.024.38.051.482.017.603-.16.019-.143.093-.327.058-.429.013-.095.121-.177.27-.205.245-.015.314.188.063.25-.149.029-.112.47.031.49.095.012.25-.064.406-.14.06-.088.162-.123.156-.075-.013.095.028.149.075.155.095.013.102-.034.115-.13-.082-.107-.05-.345-.018-.583s.011-.435.011-.435c-.048-.006-.13-.114-.111-.257.078-.57.075-.91-.02-.923-.095-.013-.082-.108-.069-.203.086-.279.058-.428-.132-.454-.143-.02-.136-.067-.123-.162.06-.089.019-.143-.076-.156-.381-.051-1.9.081-1.913.177-.007.047-.108.082-.21.117-.102.034-.197.021-.089-.06.061-.09-.421-.107-2.641-.166-.822-.014-1.793 0-2.132.002a238.66 238.66 0 00-4.25-.093c-1.745.005-1.792-.001-1.665-.226.067-.136.307-.83.553-1.572.287-.688.692-1.892.992-2.675.3-.782.693-1.892.907-2.396.166-.51.38-1.014.434-1.055.162-.123 2.864-.047 7.78.136 2.017.128 3.892.238 4.986.386.523.071 1.005.088 1.018-.007 0 0-.082-.108-.13-.114-.048-.007-.136-.068-.117-.21.013-.095-.028-.15-.076-.156-.06.089-.149.028-.142-.02.013-.094.121-.176.263-.157.191.026.292-.009.318-.2.013-.094.08-.23.127-.224.096.013.076.155.063.25-.121.178-.032.238.111.258.285.039.46-.18.242-.355zm-22.264 15.918c.035.102.022.197-.032.238-.054.041-.041-.054-.028-.15.025-.19.032-.237.06-.088zm-.269 1.271c.034.102.021.197-.08.232-.007.047-.041-.054-.022-.197.019-.143.073-.184.102-.035zm-.106.422c.006-.047.056.298-.002.726-.103.762-.297 1.123-.201.41-.015-.245.024-.53.05-.72.026-.191.051-.381.153-.416zm-.228 2.391c-.095-.013-.129-.114-.104-.305a.98.98 0 01.08-.231s.076.156.063.25c.022.198.009.293-.039.286zm.5-3.323c-.143-.02-.184-.073-.124-.162.007-.047.109-.082.156-.076.048.007.089.06.13.115.035.101-.067.136-.162.123zm.321-1.652c-.007.048-.041-.054-.022-.196.02-.143.074-.184.102-.035.034.102.021.197-.08.231zm16.823 9.889c.114-.13.216-.164.203-.07-.007.048-.121.178-.242.355-.115.13-.21.117-.203.07a.941.941 0 01.242-.355zm-1.798 1.112c.101-.034.25-.063.244-.015 0 0-.156.076-.264.158-.155.076-.25.063-.25.063.006-.048.114-.13.27-.206zm-1.083.483c.102-.035.149-.028.095.013-.06.089-.114.13-.162.123-.19-.026-.177-.12.067-.136zm-12.298-10.389c-.096-.013-.096-.013-.076-.155.08-.232.242-.355.209-.117a.508.508 0 01-.133.272zm13.464-2.483c.095.013.143.02.13.114-.02.143.028.15.095.013a.733.733 0 01.501-.125 8.811 8.811 0 001.364-.057c.156-.076.111.257.003.339-.054.041-.19-.026-.374-.1-.178-.12-.232-.08-.245.016-.012.095-.127.225-.229.26-.095-.013-.19-.026-.177-.121.007-.048-.082-.108-.177-.121-.095-.013-.149.028-.115.13.035.101-.019.142-.054.04-.088-.06-.238-.032-.434-.01-.251.063-.346.05-.374-.1-.035-.1.025-.19.086-.278zm-.834.08c.101-.034.237.033.231.08-.026.19-.223.212-.4.091-.082-.108-.076-.155.169-.17zm-.924.02c.115-.13.543-.071.524.071-.026.19-.487.37-.562.215a.306.306 0 01.038-.286zm-.671-1.835c.143.02.232.08.178.121a.225.225 0 01-.381-.051c.006-.048.108-.082.203-.07zm-1.351-.038c.089.06.123.162.123.162-.006.048-.054.041-.149.029-.047-.007-.088-.06-.076-.156.007-.048.061-.089.102-.035zm-.134.273c.184.073.178.12.069.203-.257.11-.345.05-.32-.14.013-.096.115-.13.251-.063zm-.895.169c.048.006.108-.082.067-.136-.034-.102-.028-.15.054-.041.089.06.13.114.07.203-.054.04-.013.095.075.155.041.054.083.108.028.15-.101.034-.19-.026-.272-.134-.123-.162-.117-.21-.022-.197zm-.421-.106l.177.121c-.006.048-.108.082-.21.117-.095-.013-.142-.02-.123-.162.013-.095.067-.136.156-.076zm-1.489 1.687c-.006.048-.06.09-.108.083-.095-.013-.184-.074-.177-.121-.035-.102.013-.095.108-.083.095.013.19.026.177.121zm.077-1.636c.048.006-.067.136-.264.158-.108.082-.25.063-.244.015.019-.143.426-.281.508-.173zm-3.001-.02c.042.054.083.108.076.156-.006.047-.054.04-.101.034-.096-.013-.13-.114-.124-.162.007-.047.061-.088.149-.028zm.507-9.086c-.095-.013-.095-.013-.082-.108.061-.089.115-.13.162-.124 0 0 .041.054.028.15-.013.095-.06.088-.108.082zm8.119-4.856c-.142-.02-.19-.026-.088-.06.101-.036.196-.023.237.031.041.054-.006.048-.149.029zm1.135.202a.146.146 0 01-.19-.026c.007-.047.019-.142.121-.177.054-.041.102-.035.136.067.041.054-.019.143-.067.136zm1.209.019c-.19-.026-.32-.14-.301-.283.026-.19.489-.03.517.118.034.102-.026.19-.216.165zm.856.116c-.048-.006-.13-.114-.123-.162.006-.047.108-.082.149-.028.041.054.082.108.075.155-.006.048-.054.042-.101.035zm1.166 1.757c-.056-.298-.05-.346.093-.326 0 0 .028.149.063.25-.045.333-.099.374-.156.076zm.479-1.388c-.11-.257-.728-.341-.802-.157-.054.04-.162.123-.209.116-.191-.025-.139-.406.083-.618.163-.123.258-.11.476.065.266.181.266.181.381.051.114-.13.162-.123.333.045.212.223.212.223.037.441-.169.171-.217.165-.299.057zm.226 1.193c-.08.231-.182.266-.156.076.007-.048.067-.136.169-.171.054-.041.095.013-.013.095zm1.569.213c-.127.225-.181.266-.393.044-.082-.108-.13-.115-.022-.197.102-.035.143.02.13.114-.013.095.035.102.197-.021.162-.124.209-.117.088.06zm-2.452 12.358c-.013.096.034.102.034.102.048.007.096.013.156-.076.061-.088.019-.142-.028-.149-.095-.013-.149.028-.162.123zm-.814-.788c-.012.095-.019.143.076.155.048.007.102-.034.115-.13.006-.047.013-.094-.035-.1-.047-.007-.101.034-.156.075zm4.395-11.32c-.149.028-.251.063-.264.158-.013.095.076.156.219.175.095.013.251-.063.257-.11.013-.096-.117-.21-.212-.223zm-5.677 25.048c-.047-.006-.25.063-.413.186-.419.234-.187.314.238.033.162-.124.27-.206.175-.219z" fill="#DCDCDC"/></svg>