<svg width="233" height="158" fill="none" xmlns="http://www.w3.org/2000/svg"><path d="M25.918 112.029c-.47.05-1.035.321-1.254.613-.077.155-.267.21-.505.181-.256.037-.446.091-.547.205-.1.114-.208.12-.232.078-.048-.083-.155-.076-.238-.028-.083.048-.19.054-.238-.029-.09-.059-.322.019-.595.122-.208.12-.457.264-.523.246-.262-.07-.445.479-.412 1.014.019.322.075.899.018 1.375-.016.453-.06 1.144-.017 1.507.019.321-.015.839.022 1.095-.034 1.572-.001 4.989-.014 8.711.024 1.482.012 2.708-.054 2.691 0 0-.544-.462-1.094-1.031-3.791-3.687-7.742-7.17-8.99-7.891-.155-.076-.203-.159-.12-.207.084-.048.06-.09.036-.132-.132-.035-.447.092-.88.397-.54.312-.724.474-.711.688-.011.173-.07.262-.178.269-.22-.094-2.929 1.358-3.272 1.723-.143.138-.178.269-.064.37.832.96 1 1.251.916 1.299-.041.024.055.191.192.333.12.208.144.249-.01.173-.132-.035-.15.03-.071.262.144.249.192.332.317.26.083-.048.172.012.22.095-.035.131.074.511.249.91.156.463.241.802.29.885.006.108.012.215-.03.239l.097.166c.024.041.078.232.24.416.192.332.174.398.025.428-.214.013-.232.079.044.363.144.25.264.457.222.481-.018.066.067.405.218.762.174.398.283.778.29.885a1.4 1.4 0 00.132.422c.072.125.199.44.325.755 1.569 4.637 4.097 10.937 6.11 15.095 1.37 2.757 2.169 4.236 2.43 4.306.394.105 2.086-1.093 2.559-1.809.16-.204.201-.228.29-.168.162.183.37.063.25-.144-.048-.084-.054-.191-.013-.215.084-.048.173.011.221.095.048.083.18.118.262.07a.206.206 0 00.07-.262c-.047-.084-.054-.191-.012-.215.041-.024.13.035.179.119.048.083.137.142.197.052.059-.089.046-.304-.05-.47-.378-.558-1.34-2.608-2.037-4.2-.325-.755-.896-2.032-1.18-2.811-.523-1.194-1.955-4.635-3.364-8.034-.806-1.973-.957-2.33-.777-2.212.203.16 4.782 4.444 5.488 5.09.688.712 2.134 1.872 2.402 2.049.155.077.352.13.411.04.018-.065.083-.048.197.053.155.077.155.077.25-.144.017-.066.16-.203.308-.234.149-.03.208-.12.184-.161-.048-.083.053-.197.219-.293.166-.096.225-.185.195-.334-.03-.149.011-.173.25-.144.172.011.213-.013.082-.048-.09-.059-.096-.166-.012-.214.207-.12.04-.411-.223-.482-.131-.035-.179-.118-.096-.166.042-.024.262.07.418.147.44.189.666.003.391-.282-.233-.308-.233-.308.403-.454.321-.019.945-.379.998-.576.059-.089.225-.185.374-.216.148-.03.208-.12.16-.203-.048-.083-.162-.184-.245-.136-.238-.028-.27-.564-.388-2.88-.254-4.952-.298-6.756-.154-6.506.048.083.517 1.087 1.016 2.24.5 1.152 1.293 2.911 1.738 3.874.469 1.004.962 2.049 1.13 2.34.126.315.601 1.427 1.088 2.365.427 1.028.89 1.925.986 2.092l.216.374c-.035.131.157.463.577 1.384.253.63.415.814.498.766.041-.024.107-.006.113.101-.017.065-.059.089-.124.072-.083.048-.053.197.067.404.12.208.223.482.229.589.006.107.072.124.197.052.124-.072.196.053.364.344 1.221 2.787 2.146 4.581 2.277 4.616.108-.006.315-.126.434-.305a1.06 1.06 0 01.343-.365c.15-.031.208-.12.112-.286a1.427 1.427 0 01-.157-.464c.011-.173-.037-.256-.168-.291-.041.024-.13-.035-.155-.077-.048-.083-.048-.083.035-.131.066.018.125-.072.03-.238.01-.173-.12-.208-.294-.219l-.297.061.16-.204c.142-.137.177-.268.04-.411-.162-.183-.103-.273.105-.393s.25-.144-.013-.214c-.172-.011-.286-.112-.389-.385-.078-.232-.067-.405-.025-.429.083-.048.017-.066-.072-.125-.173-.011-.173-.011-.007-.107.291-.168.213-.4-.157-.464a.543.543 0 01-.316-.26c-.144-.25-.144-.25.1-.114.394.106.488-.115.171-.376-.34-.302-.364-.343-.168-.291.108-.006.06-.089-.036-.255-.138-.143-.168-.291-.192-.333.083-.048-.002-.387-.242-.803-.301-.713-.373-.837-.655-1.229-.09-.059-.054-.19.03-.238.065.017.058-.09-.031-.149-.09-.059-.168-.291-.223-.481-.067-.405-.198-.44-.286-.112-.053.197-.053.197-.107.006.035-.131.07-.262.112-.286.041-.024-.007-.107-.03-.149-.228-.201-.177-.785.061-.756.09.059.138.142.15.356.02.322.092.447.145.25.041-.024.125-.072.173.011.023.042-.036.131-.095.221-.059.089-.059.089.024.041a.636.636 0 00.22-.292c.135-.245.111-.287-.11-.381-.334-.195-.454-.403-.144-.249.155.076.108-.007-.084-.339-.12-.208-.199-.44-.157-.464.19-.055.225-.186.052-.197-.172-.011-.196-.053-.21-.267.012-.173-.06-.297-.191-.332-.131-.036-.155-.077-.072-.125.124-.072.118-.179-.085-.339-.096-.166-.192-.333-.15-.357.035-.131-.002-.387-.194-.719-.037-.256-.146-.637-.128-.702-.007-.107-.103-.274-.199-.44-.161-.184-.257-.35-.216-.374.042-.024.035-.131-.102-.273-.21-.267-.067-.405.25-.144.178.118.25.243.215.374-.011.172.434 1.135.559 1.063.124-.072.292.219.15.357-.06.089-.011.172.168.291.09.059.21.267.282.391.096.167.233.309.364.344.132.035.31.153.383.278.12.208.12.208-.143.138-.155-.077-.22-.095-.196-.053.006.107.054.19.102.273.06.298.34.302.37.064.01-.173.083-.048.209.267.157.464.378.558.513.313.077-.155.023-.345-.416-1.2-.048-.084-.037-.256.047-.304.124-.072.22.094.467.617.222.481.318.647.353.516.06-.089-.002-.387-.128-.702a5.876 5.876 0 01-.397-.879c-.15-.357-1.125-2.621-1.624-3.773a88.577 88.577 0 00-.92-2.074 216.157 216.157 0 01-1.997-4.611c-2.99-6.81-4.023-8.985-4.887-10.481-.6-1.039-.6-1.039-.987-1.038zM9.813 128.2c.077-.155.112-.286.202-.227.041-.024.048.083.013.214-.154.31-.303.341-.215.013zm2.881 2.494c.319.647.477 1.498.352 1.57-.083.048-.059.09.072.125.287.112.522.807.314.927-.041.024-.035.131.013.214.282.392.336.582.146.637-.107.006-.19.054-.166.096.047.083.113.1.155.076.083-.048.22.095.34.303.12.207.175.398.116.487-.018.066-.06.09-.125.072l-.072-.124c-.024-.042-.18-.119-.245-.136-.113-.101-.113-.101-.006-.107.107-.007.059-.09-.11-.381-.185-.225-.24-.416-.228-.588.112-.287-.056-.578-.222-.482-.084.048-.544-.462-.468-.617.06-.089-.121-.595-.59-1.599-.15-.356-.235-.695-.242-.802.042-.024-.048-.083-.161-.184-.221-.094-.287-.112-.232.078.115.488.121.595-.027.625-.09-.059-.162-.183-.216-.374-.013-.214-.068-.404-.133-.422-.048-.083-.175-.398-.325-.754-.126-.315-.235-.696-.307-.821-.199-.439-.002-.387.22.095.168.291.33.474.372.45.041-.024.09.06.03.149-.07.262.17.678.384.665.107-.006.107-.006.018-.065-.09-.059-.12-.208-.15-.357.01-.173.111-.286.177-.269.268.178 1.142 1.115 1.316 1.513zm2.481 3.722c-.035.131-.059.089-.155-.077-.072-.125-.096-.166.011-.173l.144.25zm-.401-.6c-.066-.017-.072-.125-.054-.19.017-.066.083-.048.13.035.12.208.08.232-.076.155zm-.333-1.249c.14.53.098.554-.07.263-.264-.458-.452-1.07-.327-1.142.042-.024.131.035.203.16.048.083.133.422.194.719zm-3.498-11.338c-.083.048-.148.031-.196-.053-.024-.041.017-.065.1-.113a.663.663 0 01.155.077c.024.041-.017.065-.059.089zm-.15-.356c-.125.072-.166.096-.107.006.059-.09.1-.114.207-.12.024.042-.017.066-.1.114zm4.372 5.845c-.06.089-.238-.029-.334-.195-.096-.167-.072-.125.107-.007.131.035.245.136.227.202zm.443.575c-.017.066-.065-.017-.137-.142-.072-.125-.072-.125.059-.09.024.042.096.167.078.232zm2.684 2.441c.024.042-.083.048-.155-.077-.203-.159-.185-.225-.054-.19.09.059.161.184.21.267zm1.214 1.239c.03.149.03.149-.227-.201-.161-.184-.185-.226-.006-.108.131.036.269.178.233.309zm1.902 1.95c-.035.131-.076.155-.083.048.035-.131-.03-.148-.096-.166-.065-.018-.155-.077-.137-.142.017-.066-.12-.208-.168-.291-.293-.219-.317-.261-.688-.712-.347-.409-.168-.291.723.581.389.385.526.527.45.682zm-1.242-3.495c-.083.048-.358-.237-.34-.302.017-.066.107-.007.22.094l.12.208zm1.142 1.114c-.041.024-.148.031-.22-.094-.072-.125-.079-.232-.079-.232.042-.024.131.035.203.16.114.101.138.142.096.166zm16.11 15.807c.048.083-.01.173-.053.197-.083.048-.059.089.007.107.048.083.048.083-.035.131-.374.216-.547.205-.691-.044-.192-.333-.109-.381.232-.079.269.178.269.178.38-.109.053-.196.112-.286.16-.203zm-1.567-4.25s-.113-.101-.21-.267c-.054-.19-.126-.315-.018-.321.024.041.137.142.209.267.072.124.102.273.02.321zm-.747-2.062c-.042.024-.107.006-.197-.053-.065-.018-.09-.059-.006-.107.083-.048.148-.031.172.011.048.083.03.149.03.149zm-.15-.357c-.042.024-.15.03-.173-.011-.024-.042.035-.131.1-.114.066.018.132.035.156.077l-.084.048zm-1.793-5.505c-.042.024-.108.006-.132-.035-.048-.083-.006-.107.036-.131.09.059.196.052.196.052.024.042-.059.09-.1.114zm.795-1.79c.055.19-.004.28-.076.155-.024-.041-.03-.148.028-.238.018-.066.084-.048.048.083zm-.97-1.49c.191.333.294.606.276.672-.017.065-.422.133-.47.049-.024-.041.035-.131.1-.113.066.017.084-.048.036-.131a1.205 1.205 0 00-.157-.464 27.242 27.242 0 01-.54-1.129 6.459 6.459 0 01-.524-1.194c-.03-.149-.229-.589-.445-.963s-.318-.647-.277-.671c.125-.072.622.694.57.89-.018.066.054.191.185.226.138.142.21.267.192.332-.083.048.345 1.076 1.053 2.496zm1.172 1.263c.006.107-.042.024-.114-.101-.072-.124-.096-.166.06-.089.023.041.095.166.054.19zm-3.247-5.719c-.035.131-.059.09-.155-.077-.072-.124-.096-.166.011-.172l.144.249zm-.307-.82c.03.149-.077.155-.19.054-.114-.1-.186-.225-.127-.315.018-.065.125-.072.19-.054.073.125.12.208.127.315zm-.57-.891a1.35 1.35 0 01-.15-.356c-.06-.298-.06-.298.131.035.192.332.223.481.02.321zm-.884-2.205c.09.06.137.143.12.208.024.042-.066-.017-.114-.1-.072-.125-.054-.191-.006-.108zm6.52 10.813c.102.274.27.565.342.689.072.125.06.298-.022.346-.084.048-.173-.012-.3-.326a3.714 3.714 0 00-.252-.63c-.096-.167-.15-.357-.068-.405.035-.131.149-.03.3.326zm-.437-.468c-.083.048-.149.03-.131-.035.059-.09.166-.096.249-.144.024.041.006.107-.118.179zm-.135-.809c.007.107-.011.172-.053.196-.041.024-.065-.017-.113-.1-.024-.042-.007-.108.035-.132.083-.048.107-.006.131.036zm-.179-.119c-.042.024-.107.007-.155-.076-.024-.042-.007-.108.035-.132.083-.048.149-.03.173.012.048.083.03.148-.053.196zm-.218-.761c.007.107-.01.173-.01.173-.043.024-.108.006-.156-.077-.024-.041.035-.131.077-.155.041-.024.107-.006.09.059zm-.161-.184c-.042.024-.125.072-.173-.011-.024-.041.011-.172.053-.196.041-.024.13.035.155.076.048.083.006.107-.035.131zm-.164-.57c.03.148-.004.279-.046.303-.041.024-.107.007-.137-.142-.007-.107-.013-.214-.037-.256-.024-.041.017-.065.059-.089.083-.048.131.035.161.184zm-.257-.351c-.018.066-.155-.076-.282-.391-.342-.689-.266-.845.094-.221.169.291.271.564.188.612zm-.53-1.301c.048.083-.011.173-.011.173-.042.024-.107.006-.155-.077-.024-.042.035-.131.076-.155.042-.024.108-.007.09.059zm-.161-.184c-.084.048-.108.006-.114-.101-.024-.041.035-.131.035-.131a.104.104 0 01.131.035c.048.083-.01.173-.052.197zm-.295-.606c-.118.179-.118.179-.107.007.035-.132.094-.221.16-.204.065.018.03.149-.053.197zm-.366-.731c-.21-.267-.295-.606-.212-.654.042-.024.132.036.203.16.216.374.212.654.009.494zm-.284-.778c-.083.048-.107.006-.09-.059.018-.066.012-.173.012-.173.041-.024.09.059.114.101.023.041.006.107-.036.131zm2.06 17.102c-.162-.184-.186-.226-.15.03l.144.249c.18.119.173.012.005-.279zm.864-4.934c-.083.048-.046.304.05.47.222.481.406.32.225-.185-.12-.208-.192-.333-.275-.285zm-.457-3.671c.018-.066-.072-.125-.137-.143-.066-.017-.1.114-.053.197.096.166.203.16.19-.054zm.176 3.279c.113.101.22.095.303.047.042-.024.018-.066-.12-.208-.31-.154-.41-.04-.183.161zm2.105-1.825c-.041.024-.035.131.061.298.12.207.162.183.131.035.005-.28-.067-.405-.192-.333zm-1.538-.553l-.245-.136.12.208c.096.167.102.274.085.339-.018.066.013.215.102.274.048.083.144.249.234.308.024.042.113.101.107-.006.083-.048.059-.09.035-.131-.066-.018-.12-.208-.15-.357a1.176 1.176 0 00-.288-.499zm.627.414c-.108.007-.125.072-.06.09.066.017.138.142.12.208-.046.304.135.809.26.737.083-.048.107-.007.12.208-.053.196-.029.238.144.249.148-.03.142-.138.01-.56-.169-.291-.254-.63-.302-.713-.072-.124-.185-.225-.292-.219zm.885 2.205s.048.083.113.101c.18.118.239.029.06-.09-.09-.059-.156-.076-.173-.011zm-.873 1.945c-.083.048-.131-.035-.138-.142-.054-.191-.054-.191-.089-.059.006.107.02.321.074.511.078.232.144.25.268.178.084-.048.101-.114.011-.173-.065-.018-.113-.101-.078-.232.118-.179.118-.179-.048-.083zm2.656.185c.072.124.12.207.138.142.017-.066-.055-.19-.079-.232-.13-.035-.13-.035-.059.09zm8.29-41.59c-.284.276-.284.276-.262-.07-.067-.404-.156-.463-.316-.26-.095.22-.232.078-.12-.208.01-.173.046-.304-.002-.387-.024-.042-.09-.06-.107.006 0 0-.064.37-.145.805-.058.476-.08.822-.187.828-.042.024-.06.09.048.083.048.083.072.125.054.19-.017.066-.124.072-.148.031-.025-.042-.132-.035-.125.072-.083.048-.018.065.113.101.215-.013.282.391.143 1.303-.022.345.015.601.08.619.066.017.007.107-.077.155-.166.096-.19.054-.179-.118.03-.239.005-.28-.168-.291-.172-.012-.214.012-.017.065.131.035.113.101-.083.048-.173-.011-.197-.053-.12-.208.112-.286.236-.358.332-.192.024.042.09.059.083-.048.06-.089-.03-.148-.137-.142a1.678 1.678 0 01-.466-.23c-.137-.142-.12-.208.03-.238.273-.103.384-.389.216-.68-.137-.142-.144-.249-.06-.297.083-.049.076-.156-.037-.256-.072-.125-.127-.315-.05-.47.13-.352.081-.435-.264-.458-.173-.01-.262-.07-.269-.177.018-.066.1-.114.19-.055.287.112.565-.27.38-.495a.715.715 0 01-.05-.47c.07-.263.07-.263-.096-.167-.243.251-.773.39-.762.218-.006-.107-.172-.011-.428.026-.208.12-.523.246-.63.252-.297.061-.492.396-.471 1.104-.023.346-.045.69-.104.78-.06.09-.029.239.085.339.072.125.06.298.002.387a.325.325 0 00-.023.346c.096.166.096.166.03.149-.113-.101-.148.03-.177.268.013.215-.02.733-.054 1.251-.033.518-.049.97.023 1.095.048.083.054.19-.029.238-.083.048-.105.394-.11.674.02.321-.01.559-.05.583-.042.024-.012.173.036.256.024.042.037.256-.033.518a31.87 31.87 0 00-.147 1.859c-.014.839-.063 1.81-.103 2.221-.089 2.822-.233 6.508-.228 7.669-.038.798-.017 1.507-.059 1.531-.041.024-1.057-.776-2.199-1.89-1.793-1.57-4.578-3.897-5.45-4.447-.113-.101-.495-.379-.86-.722-.358-.237-.92-.633-1.189-.811-.203-.16-.43-.361-.436-.468-.048-.083-.203-.16-.442-.189l-.37-.064.298-.06c.167-.096.25-.144.119-.18-.048-.083-.215.013-.298.061-.124.072-.273.103-.339.085-.203-.16-.92.421-.925.701.03.149-.012.173-.06.089-.048-.083-.09-.059-.172-.011.048.083-.125.072-.28-.004-.22-.095-.262-.071-.357.15-.118.179-.16.203-.422.133-.41-.04-1.273.291-1.962.634-.457.264-.499.288-.403.454.072.125.138.142.239.029.16-.203.255-.037.21.267-.036.131-.036.131.089.059.124-.072.363-.043.5.099.83.574 3.86 3.037 6.376 5.187 1.59 1.41 3.527 3.229 5.447 5.114 1.483 1.416 2.05 1.92 2.653 2.292l.538.355.863 2.55c.803 2.64 1.967 5.903 3.473 9.856.747 2.063.82 2.187 1.033 2.174.387-.001.97-.337 2.12-1.224.517-.353.646-.705.3-.727-.172-.011-.172-.011.019-.066.19-.054.153-.31-.04-.643-.089-.059-.078-.232-.036-.256.166-.096.352.13.282.392-.047.304.067.405.227.202.142-.138.142-.138.024.041-.088.328-.016.453.233.309a.776.776 0 01.447-.092c.13.036.172.012.2-.227.054-.196.017-.452-.031-.535-.007-.108.059-.09.155.076.515.701.356-.15-.434-2.576-.332-.862-1.406-4.066-1.623-4.827-.713-2.194-1.787-5.398-1.841-5.588-.482-1.219-.796-2.146-.725-2.408.052-.197.06-1.144.068-2.09-.062-3.179-.078-4.168.021-7.163.077-1.596.094-3.102.081-3.316.011-.173.008-.947.004-1.721.023-2.84.023-2.84-.282-3.273-.306-.434-.312-.541.081-.435.304.046.304.046.243-.251.011-.173-.043-.363-.157-.464-.179-.118-.161-.184-.054-.19.148-.031.184-.162.13-.352-.116-.488-.206-.547-.324-.368-.077.155-.083.048-.037-.256.058-.476.1-.5.344-.364.197.052.238.028.208-.12a.296.296 0 00-.525-.141c-.076.155-.142.138-.013-.214.005-.28.106-.394.195-.335.066.018.108-.006.077-.155-.03-.148.029-.238.094-.22.066.017.125-.072.035-.132-.072-.124-.179-.118-.404.068-.166.096-.357.15-.446.091-.131-.035-.072-.125.142-.138.322-.019.363-.043.184-.161-.131-.035-.138-.142-.078-.232.017-.066.059-.09.065.018.013.214.22.094.475-.33.1-.114.13-.352.081-.435-.185-.225-.128-.702.045-.69.083-.049.125-.073.16-.204-.024-.041-.107.007-.315.126zm-2.26.308c-.013-.214.028-.238.124-.072.048.083.079.232.037.256-.077.155-.148.03-.161-.184zm5.302 38.176c-.166.096-.304-.047-.389-.385-.03-.149.053-.197.142-.138.09.059.245.136.293.219.048.083.037.256-.046.304zm-.29-.886c-.06.09-.125.072-.286-.112a.903.903 0 01-.11-.38c.042-.024.126-.072.15-.031.048.083.137.142.21.267.13.035.137.142.036.256zm-.307-.82c-.035.131-.083.048-.18-.119-.071-.124-.095-.166-.03-.148.09.059.162.184.21.267zM37.66 117.221c.042-.024.173.011.197.053.048.083.03.149-.053.197-.041.024-.107.006-.197-.053-.024-.042.012-.173.053-.197zm11.527 17.566c-.048-.083-.078-.232-.108-.381-.007-.107.035-.131.059-.089.12.208.17.678.05.47zm-.145-.636c-.042.024-.084.048-.108.006a.505.505 0 01-.036-.256c.017-.065.107-.006.196.053.048.083-.01.173-.052.197zm2.58 3.221c-.083.048-.107.006-.09-.059.018-.066-.03-.149.012-.173.041-.024.13.035.155.077.024.041.006.107-.077.155zm-.168-.291c-.083.048-.149.03-.197-.053-.024-.041-.006-.107.035-.131.084-.048.15-.03.173.011.048.083.03.149-.011.173zm-11.75-18.047c-.059.09-.255.037-.352-.129-.072-.125-.072-.125.108-.007.172.011.22.094.244.136zm11.218 16.359c.048.083.007.107.007.107-.042.024-.083.048-.131-.035-.024-.042-.007-.108.035-.132.041-.024.083-.048.09.06zm-.27-.565c-.083.048-.083.048-.09-.059-.024-.042-.03-.149.012-.173.041-.024.065.018.09.059.089.06.03.149-.012.173zm-.435-1.522c-.108.006-.156-.077-.138-.142.035-.131.142-.138.232-.079.197.053.162.184-.094.221zm-.729-1.741c-.207.12-.207.12-.13-.035.111-.287.194-.335.266-.21.09.059-.01.173-.136.245zm-3.724-26.228c-.018.066-.011.173-.095.221-.041.024-.13-.035-.096-.166.03-.239.196-.335.19-.055zm-.13-1.089c.024.042-.066-.017-.138-.142-.072-.125-.072-.125.018-.066.066.018.138.143.12.208zm-.564-3.665c.107-.006.155.077.096.167.048.083-.042.024-.114-.101-.113-.101-.072-.125.018-.066zm-.154.311c.018-.066.084-.048.108-.007a.36.36 0 01.012.214c-.017.066-.059.09-.083.048a.365.365 0 01-.037-.255zm1.041 3.722c-.072-.125-.126-.315-.109-.381-.024-.041-.006-.107.035-.131.06-.089.132.035.203.16.092.446-.003.667-.129.352zm.992.758c-.035.131-.095.22-.119.179-.072-.125-.001-.387.147-.418.024.042.03.149-.028.239zm-.857-2.443c.013.214.026.428.074.511.066.018.03.149.055.19-.06.09-.132-.035-.293-.218-.144-.25-.192-.333-.133-.423.107-.006.166-.096.142-.137-.144-.25-.21-.267-.334-.195-.1.113-.166.096-.173-.011-.102-.274.13-.352.398-.175.352.13.352.13.264.458zm.61-3.456c.083-.048.173.01.197.052.024.042.006.108-.035.132-.083.047-.149.03-.173-.012-.024-.041-.03-.148.011-.172zm.485.551c-.046.304-.105.394-.22.293-.047-.083-.042-.363-.014-.601.053-.197.154-.31.178-.27.048.084.085.34.056.578zm-.156 2.418c-.042.024.006.107.054.19.024.042.048.084.132.036.017-.066.035-.132-.013-.215-.072-.124-.114-.1-.173-.011zm-.294-4.541c-.005.28.008.494.032.535l.083-.048c.208-.12.193-.72.056-.863-.114-.1-.149.03-.171.376zm-.165-.958c-.035.131-.07.262-.046.304.048.083.107-.007.111-.286.03-.239.03-.239-.065-.018zm.41.04c-.04.024-.076.155-.045.304.047.083.072.124.13.035.119-.18.082-.435-.084-.34zm23.39 20.195c.024.042.148-.03.273-.102.125-.072.142-.138.118-.18-.155-.076-.44.199-.391.282zm1.828-7.873a.206.206 0 00-.07.262c.072.125.137.143.137.143.042-.024.101-.114.07-.263.053-.196.03-.238-.137-.142zm-.721 5.183c-.042.024-.06.09-.035.131.048.083.113.101.155.077.083-.048.1-.114.053-.197-.024-.041-.09-.059-.173-.011zm1.95-4.784c-.084.048-.16.204-.137.245-.01.173.114.101.25-.144.077-.155.053-.197-.114-.101zm1.115-2.196c-.131-.035-.107.007-.018.066.066.018.072.125-.01.173-.084.048-.12.179-.095.22.072.125.013.215-.07.263-.125.072-.226.185-.31.233-.141.138-.3.728-.21.787.09.059.635-.533.587-.616-.048-.083.029-.238.188-.441.326-.299.325-.686-.062-.685zm2.512-18.688c-.376-.17-1.497-.576-2.51-.989-2.756-1.124-4.138-1.214-6.308-.46-.861.331-2.715 1.346-3.581 1.957-1.217.869-1.834 1.336-1.851 1.401-.018.066-.202.228-.451.372-.184.161-.468.436-.676.556-.226.186-.374.216-.506.181-.113-.1-.155-.077-.29.168-.119.18-.16.203-.274.103-.18-.119-.905-.032-1.6.203-.59.23-.63.253-.629.64-.053.197.07.792.208 1.32.29.887.273.952 0 1.442-1.027 1.868-1.396 3.245-.953 3.82.252.243 2.678.893 2.885.773.167-.096.39.386 1.479 3.137 1.264 3.15 1.264 3.15 2.293 5.604 1.3 3.019 1.372 3.144 1.033 3.229-.149.03-.166.096-.142.137.13.035-.325.686-.456.651-.066-.017-.125.072-.16.203a.374.374 0 01-.284.276c-.084.048-.226.185-.261.316s-.219.293-.427.413c-.748.432-.388 1.056.648 1.122.584.051.608.093.613-.187.01-.173.094-.221.201-.227.048.083.173.011.291-.168.201-.227.201-.227.232-.078.03.148.137.142.262.07.25-.144.451-.371.379-.496-.024-.042-.107.006-.184.162-.112.286-.416.24-.28-.005.029-.238.707-.408.779-.283.222.481 1.496 3.071 1.694 3.511.193.332.337.582.42.534.041-.024.25.243.467.617.216.374.27.564.18.505-.203-.16-.203-.16-.166.096.072.125.144.249.251.243.108-.006.132.035.031.149-.018.065.006.107.03.148.108-.006.245.136.407.32.312.54.384.665.211.654-.066-.018-.114-.101-.162-.184-.006-.107-.096-.166-.137-.142-.042.024-.005.28.187.612.24.416.33.475.34.302-.054-.19-.012-.214.036-.131.234.309.606 1.147.613 1.254-.035.131.43.361.555.289.083-.048.1-.114.07-.262-.03-.149-.03-.149.066.017.168.291.548.182.404-.067-.048-.083-.006-.107.083-.048.27.177.54-.312.29-.555-.162-.184-.044-.363.16-.203.089.059.13.035.035-.131-.024-.042-.013-.214.028-.238.042-.024.018-.066-.048-.084-.113-.1-.113-.1-.083.048-.017.066-.035.132-.1.114-.256.037-.27-.177-.061-.297.124-.072.118-.18.004-.28-.072-.125-.179-.119-.262-.071-.06.09-.149.031-.3-.326-.174-.398-.311-.54-.394-.492-.083.048-.083.048-.055-.19.035-.132-.008-.495-.104-.661a1.057 1.057 0 01-.11-.767c.129-.352.099-.501.015-.453-.148.031-.196-.053-.168-.291.023-.345-.18-.505-.203-.16-.028.239-.118.179-.196-.052a.104.104 0 00-.132-.036c-.041.024-.161-.183-.281-.391-.15-.357-.199-.44-.323-.368-.083.048-.107.006-.03-.149.1-.113.07-.262-.002-.387-.048-.083-.03-.148.059-.089.203.16.361-.43.21-.787a.404.404 0 01-.001-.387c.083-.048.124-.072.155.077.006.107.054.19.138.142.041-.024.059-.09.01-.173-.095-.166.076-.542.354-.924.337-.472.42-.52.409-.347.007.107.096.166.138.142.065.018.124-.072.076-.155s-.054-.19.029-.238c.042-.024.245.135.491.658.312.541.426.641.371.451.011-.173-.05-.47-.121-.595-.096-.166-.133-.422-.098-.553.017-.066-.079-.232-.15-.357-.162-.183-.04-.642.157-.59.263.071.218-.679-.016-.988-.12-.208-.216-.374-.133-.422.084-.048.035-.131-.109-.381-.412-.426-.835-1.734-.597-1.706.132.035.854-.825.782-.95-.048-.083-.006-.107.053-.197.641-.425.943-.766 1.077-1.397.035-.132.136-.245.267-.21.107-.006.19-.054.202-.227.035-.131.112-.286.195-.334.083-.048.1-.114-.013-.215-.114-.1-.072-.124.083-.048.155.077.262.071.214-.013-.024-.041.011-.172.094-.22.084-.048.143-.138.119-.179-.024-.042.01-.173.112-.287.059-.089.094-.22.028-.238-.065-.018-.13-.035-.166.096-.042.024-.083.048-.066-.018-.006-.107.095-.22.285-.275.19-.054.25-.144.225-.185-.048-.083.011-.173.077-.155.066.017.19-.055.226-.186.035-.131.118-.179.142-.138.048.084-.005.28-.1.501-.141.138-.23.465-.264.597-.012.172-.154.31-.261.316a.417.417 0 00-.195.335c-.035.131-.011.172.048.083.06-.09.125-.072.149-.031.048.083-.035.131-.184.162-.149.03-.267.209-.302.341-.011.172-.13.351-.237.358-.107.006-.124.072-.076.155.023.042-.036.131-.119.179-.083.048-.118.179-.046.304.048.083.03.149-.035.131-.066-.018-.125.072-.095.221.007.107-.052.196-.2.227-.233.078-.274.102-.095.221.155.076.113.1-.06.089-.196-.053-.373.216-.23.466.049.083-.07.262-.188.441-.077.155-.112.286-.088.328.042-.024.184-.162.344-.365.254-.424.296-.448.368-.323.023.042-.088.328-.29.555-.219.293-.33.579-.282.662.096.166.137.142.332-.192.118-.179.32-.406.403-.454.083-.048.26-.317.355-.538.118-.179.212-.399.254-.423 0 0 .118-.18.26-.317.119-.179.278-.382.362-.43.041-.024.177-.269.247-.531.136-.245.254-.424.32-.407 0 0 .083-.048.118-.179.035-.131.094-.221.118-.179.048.083.108-.006.077-.155.011-.173.011-.173.083-.048.013.214-.447 1.145-.578 1.11-.107.006-.2.614-.128.739.072.124.28.004.333-.192.059-.09.372-.603.72-1.248.38-.496.77-1.164.822-1.361.077-.155.171-.376.213-.4.041-.024.449-.758.909-1.689 1.576-3.127 2.427-5.78 2.578-7.918.027-.625.037-1.185.03-1.292-.03-.149-.067-.404-.121-.595-.013-.214-.152-.743-.303-1.1-.512-1.367-1.517-2.339-3.014-2.916zm-8.384 29.062c-.018.066-.083.048-.155-.077-.072-.124-.055-.19.059-.089.066.017.138.142.096.166zm.28.005c-.018.065-.107.006-.155-.077-.096-.166-.055-.19.035-.131s.137.142.12.208zm1.898 1.176s-.107.007-.155-.076c-.065-.018-.113-.101-.03-.149.041-.024.172.011.197.053.047.083.03.148-.012.172zm-.202-1.213c.066.017.132.035.156.076l-.084.048c-.041.024-.107.007-.13-.035-.025-.041-.007-.107.058-.089zm.23.588c.089.059.178.118.137.142.006.107-.19.055-.262-.07-.048-.083.035-.131.124-.072zm-3.66-10.081c.007.107-.041.024-.113-.101-.096-.166-.12-.208-.054-.19.09.059.185.225.167.291zm3.346 5.218l-.208.12c-.024-.041-.006-.107.112-.286.06-.09.184-.162.208-.12.024.041-.053.197-.112.286zm-.453-1.456c-.035.131-.083.048-.155-.077-.096-.166-.12-.208-.013-.214l.168.291zm-2.61-4.424c-.041.024-.083.048-.13-.036-.066-.017-.114-.1-.031-.148.041-.024.13.035.155.076.048.084.048.084.006.108zm.173-1.43c.324.755.512 1.367.429 1.415 0 0-.06.09-.226.186-.142.137-.142.137-.078-.232.053-.197.016-.453-.032-.536-.12-.208-.12-.208-.084.048.013.214.013.214-.059.09a.517.517 0 01-.06-.298.364.364 0 00-.013-.214c-.024-.042-.09-.059-.108.006-.059.09-.065-.017-.078-.231.016-.453.182-.549.309-.234zm-.223-.481c.013.214-.077.155-.245-.136-.144-.25-.156-.464-.115-.488.042-.024.173.011.269.178.072.124.085.339.091.446zm-.523-1.195c.144.25.157.464.074.512 0 0-.066-.018-.072-.125-.092-.446-.452-1.069-.624-1.081-.084.048-.066-.017.059-.089.184-.162.328.088.563.783zm-.728-1.741c.168.291.229.589.193.72.007.107.007.107-.024-.042-.048-.083-.12-.208-.21-.267-.172-.011-.22-.094-.095-.166.041-.024.083-.048.017-.066-.065-.017-.12-.208-.132-.422.046-.304.07-.262.25.243zm-.53-1.301c.072.124.054.19-.035.131-.048-.083-.144-.25-.275-.285-.138-.142-.12-.208.035-.131.107-.006.245.136.275.285zm-.277-.672c.006.107-.018.066-.114-.101-.072-.124-.096-.166-.03-.148.09.059.162.184.144.249zm-.187-.612a.104.104 0 01-.131-.035c-.048-.084-.007-.108.035-.132.131.036.197.053.22.095l-.124.072zm9.355 5.739c-.083.048-.149.031-.22-.094-.049-.083-.031-.149.076-.155a.357.357 0 01.179.118c.048.083.006.107-.035.131zm-9.2-11.039c.035-.131.1-.113.208-.12 0 0-.018.066-.101.114-.125.072-.19.054-.107.006zm1.791 6.559c.018-.065.011-.173.011-.173.042-.024.132.036.156.077.048.083-.011.173-.053.197-.083.048-.107.006-.114-.101zm.162.184c.041-.024.107-.006.09.059.047.083.03.149-.012.173-.041.024-.065-.018-.113-.101-.024-.041-.007-.107.035-.131zm1.264 3.15c-.048-.083-.037-.256-.037-.256s.114.101.162.184c.072.125.078.232-.005.28-.041.024-.09-.059-.12-.208zm.565 1.17c-.018.066-.149.031-.197-.053-.096-.166-.06-.297-.067-.404.042-.024.107-.006.18.118.071.125.102.274.084.339zm1.84 2.707c-.018.065-.125.072-.149.03-.024-.041.011-.172.029-.238.017-.066.083-.048.107-.006.024.041.03.148.013.214zm-3.176-5.981c-.06.089-.125.072-.149.03-.024-.041-.03-.149.029-.238.017-.066.083-.048.107-.007a.37.37 0 01.013.215zm3.804 5.341c-.059.09-.166.096-.083.048-.006-.107-.096-.166-.227-.201-.155-.077-.155-.077-.072-.125.09.059.149-.03.208-.12.052-.197.076-.155.172.011.073.125.103.273.002.387zm4.482-3.086c.006.107-.036.131-.101.114-.107.006-.06.089-.094.22.047.083-.012.173-.095.221-.083.048-.065-.018-.054-.19.088-.328.372-.603.344-.365zm-.895-1.645c-.048-.083.029-.239.088-.328.1-.114.243-.251.302-.341.018-.065.024.042-.088.328-.265.597-.265.597-.302.341zm1.403.797c.006.107-.035.131-.035.131-.042.024-.083.048-.131-.035-.066-.017-.025-.041.059-.089.083-.048.124-.072.107-.007zm-.883-1.818c-.055-.19.046-.304.129-.352.125-.072.19-.054.173.012.024.041-.053.196-.088.327-.119.18-.16.204-.215.013zm1.367.929c-.107.006-.225.186-.254.424.013.214-.064.369-.088.328-.048-.083-.02-.322.033-.518.112-.287.171-.376.285-.276.09.06.048.084.024.042zm-.787-1.652c-.083.048-.149.031-.197-.052-.048-.083-.054-.191.029-.239.041-.024.148-.03.196.053.024.042-.035.131-.028.238zm-1.603-10.936c.037.256.05.47.074.512.024.042.037.256.05.47.16 2.679-1.274 6.722-4.21 11.909-1.223 2.202-1.098 2.13-1.645.894a38.887 38.887 0 00-.735-1.848c-.133-.422-.82-2.188-1.524-3.887-.662-1.724-1.222-3.174-1.222-3.174.017-.066 1.576-1.686 1.843-1.895 2.088-1.76 3.952-2.947 5.402-3.508 1.599-.59 1.82-.496 1.967.528zm-1.788 23.591a.69.69 0 00.085.339c.072.125.161.184.155.077.083-.048.029-.238-.02-.322-.072-.124-.137-.142-.22-.094zm-.353.925c-.055-.191-.079-.232-.107.006-.06.09.067.405.21.654.127.315.306.433.324.368.018-.066.077-.155.029-.239-.048-.083-.079-.231-.037-.255.017-.066-.03-.149-.186-.226-.09-.059-.227-.201-.233-.308zm-.267-2.285c-.041.024-.076.155.02.321.048.083.179.118.196.053a.366.366 0 00-.036-.256c-.048-.083-.138-.142-.18-.118zm.607 1.146c.017-.066-.03-.149-.12-.208s-.131-.035-.035.131c.048.083.137.143.155.077zm-.727-1.354c.024.041.09.059.132.035l.083-.048c-.024-.042-.09-.059-.155-.077-.066-.017-.084.048-.06.09zm.168-2.591c-.03.238-.03.238-.125.072-.072-.125-.072-.125-.083.048-.035.131-.029.238-.005.28.024.042.09.059.131.035.125-.072.213-.4.14-.524-.047-.084-.065-.018-.058.089zm-3.415 8.678c.018-.066-.078-.232-.144-.249-.09-.06-.041.024.03.148.096.167.12.208.114.101zm1.181-2.178c.007.107.138.142.286.111.15-.03.232-.078.232-.078s-.048-.083-.161-.184c-.162-.184-.394-.105-.357.151zm1.35 2.435a.363.363 0 00.013.214c.024.041.09.059.108-.007.059-.089.052-.196.028-.238-.024-.041-.09-.059-.148.031zm.391.772s-.035.131-.011.173c.006.107.03.148.113.1.042-.024.06-.089.012-.172-.024-.042-.072-.125-.114-.101zm.067.404c-.041.024.03.149.079.232.072.125.12.208.161.184.042-.024.035-.131-.037-.256-.048-.083-.161-.184-.203-.16zm28.336-44.405c-2.727-1.363-4.788-1.67-6.767-.97-1.25.333-2.415.618-3.635.713-1.178.07-1.262.119-2.384.767-1.663.96-2.563 2.089-3.606 4.41-2.258 5.017-1.49 13.164 1.715 18.907.583 1.105 1.17 1.93 1.534 2.273.114.101.3.327.42.534.904 1.086 3.25 2.558 4.758 2.962 1.591.356 2.317.27 6.027-.985a34.311 34.311 0 012.318-.785c1.159-.392 2.643-1.47 3.602-2.689.261-.317.355-.537.283-.662-.096-.166-.12-.208.077-.155.238.028.582-.336 1.202-1.47 1.742-3.223 2.284-8.524 1.256-13.473-.95-4.717-2.897-7.418-6.8-9.377zM88.911 97.276c-.018.066-.084.048-.132-.035-.047-.083-.054-.19-.012-.214.083-.048.148-.03.172.011.048.083.055.19-.028.238zm-.41-1.093c-.083.048-.149.03-.155-.077-.007-.107.225-.185.297-.06.024.04-.059.089-.142.137zm1.314-.316c-.083.048-.107.007-.155-.076-.006-.108.011-.173.053-.197.041-.024.065.018.113.1.048.084.03.15-.01.173zm9.78-13.683c1.057 1.829 1.614 3.946 1.914 7.154.295 3.487-.02 6.108-1.027 8.685-.412 1.014-1.315 2.81-1.44 2.882-.041.024-.16.203-.32.406-.118.179-.479.609-.74.926-.278.382-.545.592-.628.64-.124.072-1.735-.606-2.41-1.103-3.2-2.087-5.556-6.935-6.146-12.47-.169-1.73-.185-2.72.051-4.518.402-3.336 1.787-6.409 3.437-7.583l.558-.377.794.318c1.037.453 2.327 1.15 3.026 1.689.316.26.633.521.723.58.943.675 1.338 1.167 2.209 2.77zm5.903 5.903c.007.108-.076.156-.159.203-.042.024-.042.024-.09-.059-.006-.107.053-.196.094-.22.083-.048.107-.007.155.076zm-.049-.47c-.083.048-.083.048-.155-.076-.079-.232-.026-.429.094-.221.072.125.078.232.061.297zm-.332-2.302c-.046.303-.166.096-.168-.291-.03-.149-.054-.19.059-.09a.898.898 0 01.109.38zm-.472-1.778c.294.606.309 1.207.154 1.13-.066-.017-.072-.125-.079-.232.042-.024-.013-.214-.109-.38-.096-.167-.133-.422-.128-.702.005-.28.005-.28.162.184zm-.272-.952c.102.274.036.256-.221-.094-.186-.225-.288-.499-.312-.54.059-.09.029-.239-.026-.429-.096-.166.018-.066.186.225.168.291.342.69.373.838zm1.536.166c-.083.048-.155-.077-.185-.225-.031-.15-.037-.256.004-.28.084-.048.132.035.162.184.03.148.061.297.019.321zm24.212-18.579c-1.149-1.221-2.875-2.386-4.903-3.21-.596-.266-1.586-.637-2.141-.926-1.462-.708-3.608-1.353-4.627-1.486-1.364-.154-3.548-.002-4.69.325-1.35.447-4.069 2.072-5.498 3.34-1.43 1.27-1.412 1.204-1.951 1.903-1.125 1.314-1.024 1.2-1.726 1.329-.363.043-.744.152-.868.224-.06.09-.191.055-.191.055-.048-.084-.113-.101-.155-.077-.166.096.263 1.511 1.703 5.446.301.713 1.127 3.008 1.85 5.029.748 2.062 1.561 4.142 1.742 4.648.922 2.46 2.38 6.33 3.029 7.84.38.944.909 2.246 1.138 2.834.188.612.482 1.218.56 1.45.151.357.133.422-.188.442-.297.06-.433.305-.147.417.024.041-.035.131-.094.22-.167.097-.119.18.43.362.352.13.686.324.806.532.096.166.234.309.365.344.131.035.155.077.048.083-.215.013-.154.31.243 1.19.247.522.367.73.45.682.083-.048.297-.06.494-.008.221.094.476.058.767-.11.25-.144.482-.223.565-.27.083-.049.16-.204.129-.353-.013-.214.071-.262.678-.17.435.082.798.039 1.089-.13.25-.143.755-.324 1.046-.492.356-.15.671-.277.713-.301.042-.024.09.06.072.125.006.107.066.017.184-.162.153-.31.195-.334.415-.24.132.035.28.005.298-.06.125-.073.409-.348.635-.533.35-.258.468-.437.438-.586-.103-.273.081-.435.201-.227.072.125.155.077.464-.157.201-.227.486-.502.61-.574.143-.138.326-.3.403-.454.101-.114.58-.723 1.15-1.274.545-.591 1.072-1.118 1.107-1.249a7.1 7.1 0 01.48-.61c2.956-3.424 4.915-7.326 5.807-11.444.519-2.462.559-4.313.168-6.526-.152-.744-.298-1.38-.329-1.53-.006-.106-.235-.695-.405-1.373-.422-1.307-1.629-3.493-2.364-4.288zm-18.929 4.943s.107-.007.179.118c.09.06.162.184.12.208.024.042-.042.024-.155-.077-.09-.059-.162-.184-.144-.25zm1.371 3.143c-.024-.041.035-.13.035-.13.042-.025.108-.007.132.034.072.125-.012.173-.053.197-.083.048-.083.048-.114-.1zm3.213 8.732c.035-.131-.013-.214.07-.262.041-.024.131.035.096.166.072.125.013.214.013.214-.083.048-.107.007-.179-.118zm-4.788-8.1c.09.06.138.143.12.208-.017.066-.107.007-.155-.076-.096-.167-.054-.19.035-.132zm1.121 2.9c.024.042.096.167.078.233.024.041-.065-.018-.137-.143-.072-.124-.031-.148.059-.09zm1.072 2.818c.066.018.114.1.054.19.024.042-.065-.017-.113-.1-.072-.125-.055-.19.059-.09zm-2.766-3.447c.018-.065.011-.172.053-.196.041-.024.089.059.113.1.048.084.031.15-.011.173-.083.048-.107.007-.155-.077zm7.215 14.513c-.077.155-.077.155-.041.024-.048-.083-.096-.166-.18-.118-.041.024-.011.173.061.297.072.125.12.208.037.256-.125.072-.566-.116-.441-.188.083-.048.1-.114.028-.239-.144-.25-.244-.136-.267.21-.028.238-.028.238-.148.03-.031-.148-.157-.463-.17-.678-.12-.207-.109-.38-.043-.363.107-.006.124-.072.1-.113-.048-.083-.012-.215.071-.263.083-.047.124-.072.035-.13-.024-.042-.072-.125-.055-.19.101-.114.263.07.389.384.109.38.415.814.522.808.089.059.137.142.102.273zm-1.202-2.465c.212.654.236.695-.063.37-.12-.209-.216-.375-.175-.399.042-.024.035-.131-.013-.214-.144-.25-.325-.755-.289-.886.017-.066.107-.007.203.16.072.125.229.588.337.969zm-.662-1.724c.013.214.013.214-.107.007a.898.898 0 01-.109-.381c.041-.024.124-.072.172.011.048.083.037.256.044.363zm1.12 1.46c-.042.024-.108.006-.156-.077-.024-.041-.006-.107.06-.09a.355.355 0 01.196.053c.024.042-.017.066-.1.114zm-1.74-2.82c-.096-.167-.12-.208-.012-.215l.168.291c-.036.131-.06.09-.156-.076zm-.132-.423c-.042.024-.108.007-.138-.142-.006-.107.011-.173.053-.197 0 0 .065.018.113.101.072.125.055.19-.028.238zm.068-.649l-.083.048c-.166.096-.232.079-.382-.278-.151-.357-.371-.45-.352-.13.03.15-.011.173-.083.049-.024-.042.011-.173.112-.287.1-.113.111-.286-.009-.494l-.126-.315.275.285c.203.16.299.326.288.499.002.386.146.636.36.623zm-.805-1.586c-.083.048-.131-.035-.227-.201l-.168-.291c.042-.024.179.118.293.219.137.142.144.249.102.273zm-.301-.713c-.017.066-.107.006-.179-.118-.072-.125-.03-.15.059-.09.066.018.138.142.12.208zm-.438-.856c-.048-.083-.096-.166-.013-.214.018-.065.083-.048.131.035.048.084.055.19.013.215-.083.048-.107.006-.131-.035zm5.025 8.129c.06-.09.036-.131-.048-.083-.083.048-.131-.035-.227-.202-.115-.487.13-.352.4.213.127.315.271.564.271.564.024.042-.06.09-.101.114-.125.072-.371-.451-.295-.606zm3.647 5.931c.024.042.006.108-.035.132-.084.047-.149.03-.173-.012-.024-.041.035-.13.118-.179.042-.024.149-.03.09.06zm-4.616-8.475c-.101.114-.149.03-.096-.166-.044-.363.015-.453.118-.18a.324.324 0 01-.022.346zm12.308-4.89c-.201.228-.243.252-.273.103-.007-.107-.013-.214.07-.262.041-.024.142-.138.225-.186.059-.09.143-.137.191-.054.024.041-.053.197-.213.4zm-3.924-14.86c.816 2.854 1.153 4.877 1.017 6.562-.144 2.245-1.343 5.93-3.061 9.195-.867 1.665-1.139 2.154-2.411 3.886-1.45 2.001-2.114 2.772-2.227 2.671-.066-.017-.21-.267-.271-.564a26.616 26.616 0 01-.573-1.665c-.228-.588-.553-1.343-.614-1.64-.127-.315-.669-1.83-1.301-3.406-.567-1.557-1.482-3.91-1.995-5.278-.488-1.325-1.349-3.489-1.861-4.856-.554-1.343-1.018-2.627-1.024-2.734-.098-.553 2.185-2.647 4.299-3.978 2.238-1.403 3.902-1.976 6.069-2.063 1.244-.054 1.393-.084 1.716.284.454.403 2.073 3.015 2.237 3.586zm-5.843 30.2a.307.307 0 00-.25.143c-.083.048.024.042.149-.03.125-.072.184-.162.101-.114zm27.419-55.516c-.744.152-.91.248-.856.439.055.19-.523.246-.684.062-.072-.124-.155-.076-.298.061-.142.138-.291.168-.339.085-.096-.166-1.839.175-2.361.421-.482.223-.504.568-.377 2.324.021.708.012 1.268-.03 1.292-.042.024-.72.194-1.505.37-2.379.487-3.698 1.082-4.889 2.38-.652.598-1.445 1.72-1.432 1.935-.018.065-.035.13-.16.203-.451.371-1.307 3.304-1.684 5.628-.817 5.016.439 11.608 3.316 17.263.342.689 2.241 3.306 2.84 3.958.275.285.729.688 1.022.907.293.218.609.48.699.538.048.083.113.1.155.077-.024-.042.197.053.352.13 1.027.626 2.332.87 3.694.638.47-.05 1.736-.448 2.789-.834.986-.403 2.395-.94 3.007-1.127.654-.211 1.474-.519 1.807-.71.665-.384 1.459-1.12 1.939-1.73.396-.561 1.111-1.916 1.464-2.84 1.094-2.905 2.164-8.732 2.112-11.03-.064-1.071-.186-1.666-.394-1.546-.101.113-.224.572-.116.566.024.041-.012.173-.13.352-.112.286-.153.31-.125.072.112-.287.003-.667-.145-.637-.107.007-.155-.076-.203-.16-.031-.148-.096-.166-.18-.118-.041.024-.059.09-.011.173.024.041-.16.203-.385.389-.333.192-.433.305-.344.364.09.06.138.143.079.232-.018.066.03.149.096.166.065.018.096.167.061.298-.071.262-.136.245-.346-.022-.072-.125-.144-.25-.102-.274.017-.065-.055-.19-.192-.332-.168-.291-.192-.333-.435-.082-.184.162-.267.21-.315.127-.09-.06-.262-.07-.411-.04-.19.054-.387.002-.411-.04-.024-.042-.09-.06-.173-.011-.083.048-.416.24-.772.39-.779.284-.779.284-.719 1.635.027.815-.255 2.918-.547 4.14-.106.393-.293 1.222-.492 1.836-.251 1.198-.967 3.606-1.05 3.654-.041.024-.112.286-.164.483-.459 1.318-1.539 3.383-1.878 3.468-.446.091-2.244-1.199-3.231-2.236-.736-.795-2.03-2.653-2.619-3.865-1.219-2.4-2.143-5.247-2.692-8.31-.495-2.874-.515-4.637-.081-7.437.388-2.496.769-3.659 1.442-4.99.443-.865 1.503-2.197 1.675-2.186.066.018.168.291.247.523.184 1.28 1.581 7.346 2.208 9.2.194.72.266.845.414.814.084-.048.215-.013.304.046.072.125.096.167.114.101.017-.065.184-.161.481-.222a2.36 2.36 0 00.737-.26c.125-.072.464-.156.654-.21a.665.665 0 00.409-.348c.101-.114.16-.203.208-.12.024.042.149-.03.315-.126.101-.114.184-.162.16-.203-.065-.018-.096-.167-.085-.34.119-.179.064-.369-.025-.428-.09-.06-.096-.166.004-.28.059-.09.101-.114.245.136.054.19.133.422.163.57.072.126.162.185.352.13.166-.096.381-.109.494-.008.179.118.197.053.357-.15.076-.155.129-.352.081-.435-.089-.06-.054-.19-.078-.232.035-.131.1-.114.107-.007.037.256.397.88.48.832.083-.048-.136-1.196-.41-2.535a73.03 73.03 0 01-.827-3.735c-.145-.636-.304-1.487-.413-1.868-.243-1.19-.631-4.07-.763-5.545-.069-.792-.197-1.494-.293-1.66-.162-.184-.293-.219-.911-.139zm-7.832 28.964c-.017.066-.065-.017-.137-.142-.09-.06-.072-.125.017-.066.066.018.138.143.12.208zm-.139-.529c-.059.09-.107.007-.203-.16-.157-.463-.139-.529.07-.262.096.166.151.356.133.422zm.453.016c-.018.066-.108.006-.132-.035-.065-.018-.048-.083.036-.131.089.059.155.076.179.118l-.083.048zm17.426-8.121c.017-.066.011-.173.052-.197.084-.048.108-.006.132.035.048.083-.012.173-.071.262-.083.048-.107.007-.113-.1zm-.014.84l.087-.329c.071-.262.154-.31.243-.25.108-.007.09.058.024.041-.065-.018-.166.096-.135.245-.036.13-.095.22-.154.31-.041.024-.083.048-.065-.018zm-1.299-.138c.107-.006.173.011.221.095.024.041.113.1.172.01.084-.047.108-.006.072.125.002.387-.081.435-.338.085-.138-.142-.168-.29-.127-.315zm-.502.955c-.048-.083.005-.28.047-.304.083-.048.076-.155.052-.197-.227-.2.154-.31.315-.126.155.077.162.184.109.38-.094.221-.07.263.103.274.131.035.155.077.072.125-.143.137-.274.102-.418-.147-.137-.142-.161-.184-.173-.011.013.214.013.214-.107.006zm-7.079-9.381c.048.083.157.463.224.868.242.803.248.91-.014.84-.238-.03-.196-.053-.096-.167.125-.072.118-.179-.067-.404-.306-.433-.408-.707-.224-.868.041-.025.059-.09-.031-.15-.048-.082-.096-.166-.013-.214.125-.072.191-.054.221.095zm-.281-.392c-.024-.041-.072-.125.011-.173.041-.024.035-.13-.037-.255-.09-.06-.072-.125.017-.066.204.16.271.564.009.494zm-.028-.816c.007.108-.101.114-.125.073a.363.363 0 01-.036-.256c.059-.09.124-.072.148-.03.066.017.031.148.013.214zm1.977 1.409c.055.19.05.47-.009.56-.083.047-.083.047-.048-.084.017-.065-.061-.297-.074-.511-.096-.167-.126-.315-.043-.363.041-.024.137.142.174.398zm-.363-1.398c-.077.155-.143.138-.197-.053-.03-.148-.061-.297-.026-.428s.059-.09.173.011a.61.61 0 01.05.47zm32.345 1.611c-.024-.041-.155-.076-.238-.029 0 0 .006.108.03.15.072.124.138.142.221.093.083-.048.142-.137-.013-.214zm.006 2.602c-.046.304-.046.304.12.208.125-.072.101-.114.011-.173-.065-.017-.048-.083.101-.113.107-.007.166-.096.142-.138-.096-.166-.262-.07-.374.216zm-.314 4.449c.048.083.138.142.155.077.018-.066-.03-.15-.12-.208-.089-.06-.131-.035-.035.13zm-15.767 4.946c-.072-.125-.221-.094-.464.157 0 0 .024.042.09.06.179.117.446-.092.374-.217zm-.16-5.173c.096.166.151.357.115.488-.035.13-.028.238-.004.28.144.249.249-.144.188-.442-.054-.19-.091-.446-.008-.494.059-.09-.106-1.047-.154-1.13-.304-.047-.377.882-.137 1.298zm17.732-2.312c.12.208.209.267.203.16l-.216-.374c-.114-.1-.083.048.013.215zm-.797-1.091c-.041.024.031.148.079.231.137.143.227.202.227.202.041-.024.035-.131-.061-.298-.048-.083-.203-.16-.245-.136zm-1.065-1.27c.048.083.096.166.179.118 0 0 .018-.065-.03-.148-.048-.083-.138-.142-.162-.184-.107.006-.059.09.013.214zm-16.498 9.248s.012.215.001.387c.079.232.103.274.131.035.034-.518.003-.666-.145-.636-.09-.06-.107.007-.042.024.09.06.072.125.055.19zm.014-.84c-.031-.148-.031-.148-.107.007-.036.131-.071.263-.047.304.048.083.167-.096.154-.31zm1.416 2.453c-.167.096-.112.287.085.34.172.01.297-.061.177-.27a.206.206 0 00-.262-.07zm.353.517c-.041.024-.076.155-.052.197-.018.065.006.107.048.083.083-.048.142-.138.118-.18.017-.065-.031-.148-.114-.1zm-1.228-.4c.048.084-.094.221-.195.335-.333.192-.206.507.126.315.125-.072.256-.037.394.105l.12.208.129-.352c.13-.352.106-.393-.229-.588-.179-.119-.31-.154-.345-.023zm15.904-11.62c-.144-.25-.185-.226-.22-.095.03.149.012.214-.036.131-.048-.083-.065-.017-.1.114-.011.173.054.19.203.16.149-.03.256-.037.256-.037s-.031-.149-.103-.274zm-3.381-11.905c-.041.024-.101.114-.077.155.048.083.114.1.156.077 0 0 .059-.09.011-.173.017-.065-.048-.083-.09-.059zm-2.537-1.418c.072.125.18.119.346.023.083-.048.208-.12.184-.162-.024-.041-.173-.011-.304-.046-.214.013-.298.06-.226.185zm.635-.532c-.017.065-.035.13-.029.238.037.256.221.094.184-.162-.006-.107-.096-.166-.155-.076zm.392-.282c-.083.048-.077.155-.029.238.203.16.47-.05.35-.257-.12-.208-.12-.208-.321.02zm9.256 16.993c-.006-.108-.096-.167-.185-.226-.132-.035-.173-.011-.101.114a.512.512 0 00.227.201c.066.018.107-.006.059-.09zm-2.544-4.407c-.041.024.031.149.144.25.072.124.168.29.21.267.024.041.089.059.089.059.042-.024.011-.173-.126-.315-.096-.166-.234-.309-.317-.26zm-6.382-9.23c-.112.287.02.322.339-.084.184-.162.202-.227.029-.239-.173-.01-.256.037-.368.324zm5.181 9.646c.024.042.114.101.155.077.084-.048.084-.048.06-.09-.024-.041-.048-.083-.156-.076-.065-.018-.083.048-.059.09zm.408.707c.072.125.186.225.203.16.06-.09-.012-.214-.126-.315-.251-.243-.269-.178-.077.155zm3.56 3.765c.048.083.096.166.113.1.018-.065-.03-.148-.096-.166-.113-.1-.089-.059-.017.066zm.371.45c.072.125.161.184.196.053.042-.024.012-.172-.12-.208-.203-.16-.22-.094-.076.156zm-3.216-5.57c.083-.048-.013-.214-.258-.35-.024-.041-.209-.267-.377-.558-.144-.25-.306-.433-.396-.492-.065-.018-.299-.326-.539-.742-.257-.35-.635-.908-.91-1.193-.258-.35-.629-.8-.838-1.068-.467-.617-.587-.825-1.862-2.36-1.743-2.154-1.815-2.279-1.298-2.633.083-.048.184-.161.16-.203.041-.024.124-.072.142-.137a.212.212 0 00.101-.114s.1-.113.16-.203c.776-.67 1.055-1.053.906-1.022-.131-.035-.322.02-.405.067-.124.072-.231.079-.255.037-.079-.232-.418-.147-.471.05a.264.264 0 00.245.136c.429-.026.4.212-.064.37-.208.12-.332.191-.284.274.048.083-.059.09-.173-.01-.238-.03-.304-.047-.297.06-.036.131.078.232.185.225.107-.006.197.053.138.143.024.041-.125.072-.256.037-.155-.077-.262-.07-.405.067-.142.137-.142.137-.024-.042.053-.197.029-.238-.179-.118-.214.013-.369-.064-.579-.33-.347-.41-.401-.6-.11-.768.124-.072.142-.138-.02-.322-.096-.166-.078-.232.141-.524a2.91 2.91 0 01.35-.258c.048.083.131.035.125-.072.059-.09.201-.227.367-.323.143-.138.243-.251.195-.334-.024-.042.06-.09.125-.072.238.028.129-.352-.15-.357-.131-.035-.263-.07-.179-.118.166-.096-.175-.398-.365-.344-.107.007-.286-.112-.424-.254-.389-.385-.782-.49-1.191-.144-.285.276-.303.341-.082.435.197.053.155.077-.107.007-.304-.046-.387.002-.713.3-.16.204-.409.348-.433.306-.024-.041-.365-.343-.712-.753-.85-.895-4.791-4.938-5.813-5.844-2.057-2.027-3.586-3.14-3.829-2.889a.462.462 0 01-.423.133c-.286-.112-.951.272-.897.463.079.232-.295.448-.481.222-.137-.142-.393-.105-.463.157.006.107-.16.203-.44.198a3.954 3.954 0 00-1.284.465l-.855.438.027.816c.102 4.208.414 8.684.929 13.32.099.94.187 2.053.279 2.5.176 2.225.215 2.868.263 2.951.024.042.061.297.014.601-.04.411-.158.59-.744 1.206-.83.867-1.032 1.094-.905 1.41.061.297.705.645 1.391.97.591.158.687.324.695.818.013.214.093.833.166 1.345.098.553.154 1.13.167 1.345.13 1.089.371 2.945.395 2.987.024.041.019.321.08.619.162 1.624.437 3.35.647 3.617.113.1.078.231.037.255-.042.024-.095.221-.106.394.061.297.061.297.155.077.095-.221.095-.221.138.142.078.232.043.363-.088.328-.089-.06-.107.006-.101.113.085.34.253.63.336.582.084-.048.173.011.287.112.137.142.328.088.975-.23 1.046-.493 1.995-1.153 2.048-1.35.035-.13-.054-.19-.251-.242-.304-.046-.345-.022-.702.128-.166.096-.256.037-.286-.112-.048-.083-.162-.184-.245-.136-.107.007-.101.114-.053.197a.206.206 0 01-.07.262c-.208.12-.304-.046-.144-.25.101-.113.053-.196.005-.279-.066-.018-.131-.035-.09-.06.042-.023.101-.113.226-.185.035-.13.1-.113.131.035-.011.173.078.232.179.119.017-.066.029-.239-.019-.322-.072-.124-.103-.273-.061-.297.035-.131-.026-.429-.194-.72-.072-.124-.03-.148.166-.096.131.035.221.095.227.202-.059.09-.011.172.037.256.083-.048.096.166.085.339-.022.345-.022.345.144.249.166-.096.182-.549.003-.667-.089-.059-.113-.1.018-.065.041-.024.1-.114.046-.304a1.054 1.054 0 01.016-.453c.041-.024.017-.065-.107.007-.167.096-.191.054-.138-.143-.013-.214.005-.28.16-.203.066.018.059-.09-.061-.297-.144-.25-.15-.357-.026-.429.084-.048.101-.113.036-.13-.024-.043-.072-.126-.037-.257.083-.048-.037-.256-.175-.398-.137-.142-.144-.25-.078-.232.041-.024.166-.096.267-.21.094-.22.094-.22-.155-.076-.208.12-.232.078-.197-.053.059-.09.077-.155.035-.13-.083.047-.048-.084.07-.263.077-.155.13-.352.082-.435-.127-.315-.186-1.666-.103-1.714.059-.09.005-.28-.091-.446-.096-.167-.061-.298.063-.37.291-.168.219-.293-.139-.53-.227-.2-.317-.26-.24-.415.011-.172.035-.131.066.018.054.19.054.19.22.094.125-.072.184-.161.16-.203-.089-.06-.037-.256.04-.411.237-.358.32-.406.44-.199.048.084.054.19.013.215-.042.024-.035.13-.011.172.048.084.091.447.134.81.043.363.063.684.087.726.174.398.248.91.195 1.106-.011.173.019.322.109.38.066.018.048.084.006.108-.041.024-.1.113-.076.155.144.25.321-.02.254-.424-.074-.512.07-.262.192.333.061.297.139.529.246.522.173.012.309-.233.154-.31-.09-.059-.114-.1-.031-.149.083-.048.059-.09.011-.172-.107.006-.072-.125.012-.173.059-.09.052-.197-.037-.256-.048-.083-.096-.166-.055-.19.083-.048.143-.138.077-.155-.096-.166-.187-.613-.104-.66.083-.049.101-.114.035-.132-.096-.166-.146-.636-.021-.708.042-.024.018-.066-.048-.083-.179-.119.064-.37.285-.275.244.135.41.04.207-.12-.089-.06-.113-.101-.048-.084.125-.072.126-1.125.03-1.292-.024-.041-.109-.38-.128-.702-.056-.577-.174-.398 2.03-2.724.83-.867 1.743-1.782 1.986-2.033.243-.25.545-.592.687-.73.101-.113.628-.639.99-1.07.569-.55.836-.76.925-.7.203.16 2.843 3.292 4.207 4.887 1.251 1.495 1.275 1.536 2.066 2.521.257.35.646.736.736.795.089.059.179.118.161.184-.035.13.934 1.234 1.059 1.162 0 0 .162.184.216.374.12.208.216.374.299.326.083-.048.035-.131.011-.172-.168-.291.149-.031.503.485.251.243.46.51.484.552.024.041.048.083.031.149-.059.09-.053.196-.029.238.024.041.09.06.125-.072.017-.066.172.011.681.604.114.1.055.19-.053.197-.255.037.456.79.802.812.304.046.654-.211.599-.402-.03-.148.012-.172.167-.096.131.036.172.012.166-.096-.006-.107.053-.196.177-.268.167-.096.226-.186.202-.227-.066-.018-.12-.208-.151-.357l-.084-.339.144.25c.096.166.227.2.393.105.249-.144.212-.4-.085-.34-.125.073-.214.014-.245-.135-.006-.107-.137-.142-.327-.088-.108.007-.256.037-.28-.005-.048-.083.035-.13.142-.137.256-.037.212-.4-.128-.702-.251-.243-.418-.147-.25.144.216.374.009.494-.183.162a2.052 2.052 0 01-.372-.451c-.137-.143-.12-.208.012-.173.131.035.238.029.321-.02.125-.071-.054-.19-.382-.277-.483-.165-.8-.425-.747-.622.017-.066.035-.131.059-.09.096.166.185.226.341.302.131.035.238.029.321-.019.042-.024.018-.066-.072-.125-.131-.035-.43-.361-.688-.711-.257-.35-.467-.617-.574-.61-.149.03-.317-.261-.192-.333.041-.024.053-.197-.067-.405-.096-.166-.186-.225-.228-.201-.017.065-.227-.202-.484-.552-.384-.665-.384-.665-.045-.75.166-.096.208-.12.142-.137-.256.037-.31-.154-.12-.208.149-.03.125-.072-.109-.38-.161-.185-.305-.434-.395-.493-.024-.042-.03-.149.053-.197.166-.096.166-.096-.024-.041-.107.006-.239-.03-.263-.07-.024-.042-.006-.108.06-.09.107-.007.124-.072.1-.114-.048-.083-.155-.077-.238-.029-.083.048-.214.013-.286-.111-.114-.101-.162-.184-.12-.208.083-.048-.013-.215-.192-.333-.186-.225-.216-.374-.205-.547.094-.22-.104-.66-.247-.523-.111.287-.356.151-.423-.254-.055-.19-.127-.315-.168-.29-.084.047-.173-.012-.245-.136-.072-.125-.055-.19.029-.239.131.035-.103-.273-.54-.742a1.088 1.088 0 01-.209-.267c-.048-.083-.179-.118-.269-.177-.262-.07-.389-.385-.15-.356.172.01-.408-.707-.605-.76-.107.007-.293-.219-.437-.468-.126-.315-.264-.458-.347-.41-.125.072-.389-.385-.456-.79-.013-.214.029-.238.149-.03l.262.07c.197.053.286.112.21.267.03.15.174.399.659.95.353.517.742.902.832.961.048.083.185.225.168.291.048.083.168.29.323.368.137.142.203.16.328.087.118-.179.118-.179.065.018-.088.328-.009.56.205.547.125-.072.173.011.245.136.006.107.192.332.347.409.179.118.227.201.144.25-.118.179.51.98.91 1.192.179.118.317.26.389.385a.887.887 0 00.406.32c.155.077.262.07.214-.013-.275-.284-.312-.54-.228-.588.041-.024.22.094.34.302.144.25.133.422.05.47-.125.072-.118.18-.005.28.144.25.531.248.363-.043-.048-.084-.03-.15.035-.132.084-.048.156.077.21.267.054.19.078.232.138.143.076-.155.076-.155.072.124.054.19.078.232.144.25.107-.007.22.094.251.243.048.083.144.25.275.284.065.018.293.22.461.51.144.25.401.6.539.742.096.166.257.35.299.326.048.083.048.083.131.035.125-.072-.75-1.395-.923-1.407-.131-.035-.173-.01-.138-.142.101-.113-.294-.606-.587-.825-.269-.177-.317-.26-.168-.29.066.017-.006-.108-.168-.292-.185-.225-.347-.409-.305-.433-.048-.083-.072-.125-.156-.077-.041.024-.155-.076-.257-.35-.103-.273-.175-.398-.347-.41-.107.007-.155-.076-.072-.124.124-.072-.229-.588-.683-.991-.186-.225-.192-.333-.109-.38.083-.049.172.01.22.094.007.107.079.232.12.208.024.041.18.118.228.201.048.083.227.201.275.285.131.035.275.284.412.426.138.143.33.475.581.718.144.25.378.558.539.742.258.35.437.468.562.396zm-8.308-11.221c.065.017.137.142.054.19.048.083-.041.024-.113-.1-.072-.125-.055-.19.059-.09zm-12.177 22.494c-.083.048-.083.048-.131-.036-.006-.107.011-.172.053-.196 0 0 .066.017.114.1.048.084.006.108-.036.132zm.512-1.515c.048.083.061.298.133.422a1.49 1.49 0 01-.023.346c-.059.09-.035.13.007.107.107-.007.089.059.013.214-.077.155-.023.346.115.488.185.225.185.225-.022.345-.25.144-.25.144-.332-.862-.049-.47-.075-.898-.099-.94-.048-.083.011-.173.053-.197.124-.072.19-.054.155.077zm-.103-.273c-.124.072-.124.072-.172-.011.017-.066.052-.197.094-.221.041-.024.131.035.155.077.048.083-.035.13-.077.155zm-.133-.422c-.065-.018-.054-.19-.043-.363.029-.239.029-.239.131.035.109.38.109.38-.088.328zm.459.123c-.083.048-.107.006-.155-.077.018-.066.035-.131.077-.155.042-.024.066.017.09.059.048.083.03.149-.012.173zm-.595-1.32c-.125.072-.149.031-.065-.017-.007-.107.1-.114.207-.12 0 0-.017.066-.142.137zm2.111-.664c-.119.18-.202.227-.274.103-.096-.167.123-.46.278-.383.066.018.031.15-.004.28zm-.236-.695c.048.083-.035.13-.035.13-.041.025-.083.049-.172-.01-.048-.084-.072-.125.052-.197.083-.048.149-.03.155.077zm.597-1.176c-.084.048-.191.055-.239-.029-.024-.041-.006-.107.077-.155.042-.024.107-.006.173.011.089.06.072.125-.011.173zm-.157-.464a.37.37 0 01-.16.204c-.042.024-.024-.042.011-.173a.264.264 0 00.005-.28c-.024-.041-.031-.149.028-.238.143-.138.275.284.116.487zm-.021-.708c-.084.048-.173-.011-.221-.094-.072-.125-.103-.274-.043-.363.124-.072.19-.055.286.112.096.166.102.273-.022.345zm-1.351-11.747c.095-.22.333-.192.28.005-.035.131.013.214.079.232.065.018.048.083-.035.131-.084.048-.132-.035-.18-.118-.006-.107-.096-.167-.137-.143-.083.048-.083.048-.007-.107zm-.74 3.421c.12.208-.235.745-.379.496-.072-.125-.004-.774.116-.566.048.083.09.059.107-.007.06-.09.125-.072.156.077zm-.175-.398c-.041.024-.149.03-.173-.011-.048-.083.036-.131.077-.155.09.059.197.052.221.094l-.125.072zm-.189-1c.144.25.199.44.199.44s-.108.007-.239-.028c-.238-.03-.262-.07-.174-.398l-.002-.388.216.375zm-.204-1.6c.031.149.044.363.05.47a.207.207 0 01-.07.262c-.125.072-.149.03-.072-.124.059-.09.005-.28-.043-.363-.096-.167-.092-.446-.087-.726l.081-.435.061.297c.055.19.092.446.08.619zm1.634 1.773c.006.107-.029.238-.071.262-.124.072-.275-.284-.132-.422.059-.09.107-.006.203.16zm-.133-.422c-.142.137-.142.137-.09-.06a.295.295 0 01.119-.178c.065.017.072.124-.029.238zm-.091-.446c-.055-.19.147-.418.243-.252.024.042-.036.132-.095.221-.1.114-.142.138-.148.03zm6.172 3.586c.03.149-.254.424-.326.3-.024-.042.011-.174.111-.287.125-.072.167-.096.215-.013zm-.704-1.7c-.197-.052-.28-.004-.208.12.006.108-.035.132-.107.007-.269-.178-.02-.322.332-.192.221.094.221.094-.017.065zm-1.43-4.107c-.035.13-1.215 1.255-2.62 2.566-.059.09-.243.25-.385.388-.142.138-.267.21-.291.168-.024-.041-.091-.446-.1-.94-.091-.446-.117-.875-.141-.916-.024-.042-.062-.685-.149-1.41a67.636 67.636 0 00-.152-2.185c-.175-1.839-.207-2.375-.07-2.232.114.1.76.836 1.454 1.654.743.902 1.616 1.839 1.874 2.189.323.368.556.676.58.718zm-.49-7.089c.024.042-.065-.018-.137-.142-.072-.125-.055-.19.059-.09.024.042.096.167.078.232zm11.805 19.678c-.042.024-.107.007-.197-.053-.024-.041-.048-.083.035-.13a.103.103 0 01.131.034c.048.084.072.125.031.15zm-9.106-16.636c-.096-.166-.127-.315-.061-.297a.579.579 0 01.317.26c.216.375.001.387-.256.037zm13.003 21.37c-.042.024-.131-.035-.203-.16l-.144-.25c.041-.023.155.077.268.178.114.1.162.184.079.232zm-.78-4.04c.03.15-.011.173-.173-.01-.251-.243-.229-.589-.002-.387.09.059.186.225.175.398zm-.415-.813c.066.017.007.107-.052.197-.143.137-.143.137-.09-.06.059-.089.077-.155.142-.137zm-1.457-2.429c-.042.024-.131-.035-.179-.118-.103-.273.046-.304.19-.054.048.083.03.148-.011.172zm-2.76-4.78c.041-.024.107-.006.131.035.048.083.03.149-.011.173-.042.024-.107.006-.155-.077-.024-.041-.007-.107.035-.131zm2.166 3.848c.048.083.072.125.031.149-.084.048-.197-.053-.245-.136-.144-.25.029-.238.214-.013zm1.3 3.019a.594.594 0 01-.012.173c-.041.024-.107.006-.155-.077-.024-.042.035-.131.077-.155.042-.024.107-.007.09.059zm-2.874-4.881c.042-.024.131.035.203.16.048.083.031.148-.011.172-.042.024-.09-.059-.138-.142-.096-.166-.12-.208-.054-.19zm-1.425-5.829c.083-.047.059-.09-.096-.166-.066-.017-.138-.142-.144-.25-.013-.213.256-.036.585.439.21.267.085.339-.249.144-.131-.035-.179-.119-.096-.167zm3.101 5.083c-.156-.077-.228-.201-.186-.225.083-.048.214-.013.31.153.293.22.168.291-.124.072zm-2.204-4.104c-.072-.125-.126-.315-.085-.34.042-.023.18.12.252.244.12.208.15.356.108.38-.041.024-.155-.076-.275-.284zm.437.468c-.024-.041.011-.172.011-.172.042-.024.131.035.155.076.048.083-.035.131-.076.155-.084.048-.084.048-.09-.059zm.24.416c-.072-.125-.12-.208-.078-.232.041-.024.172.011.244.136.114.1.162.184.12.208-.083.048-.172-.011-.286-.112zm.561.396c.096.167.085.34.013.215-.203-.16-.323-.368-.24-.416.042-.024.155.077.227.201zm1.133 1.674c-.041.024-.107.007-.089-.059-.024-.041-.12-.208-.252-.243-.131-.035-.203-.16-.251-.243.011-.172-.03-.148-.089-.059-.059.09-.125.072-.138-.142-.054-.19-.109-.38-.157-.464-.12-.208.095-.22.215-.013.072.125.12.208.036.256-.124.072-.1.114.072.125.108-.007.311.153.496.379.234.308.282.391.157.463zm-2.377-6.997c-.076.155-.16.203-.267.21-.065-.018-.041.024.024.041.203.16.245.136.267-.21.029-.237.029-.237-.024-.04zm-12.465 23.05c-.055-.191-.12-.209-.204-.16-.1.113-.009.559.122.594.197.053.208-.12.082-.435zm12.401-24.121c.041-.024.083-.048.035-.131s-.114-.1-.114-.1-.059.089-.011.172c.007.107.007.107.09.059zm-12.402 22.68c.072.124.138.142.197.052s.118-.18.094-.22l-.214.012c-.083.048-.125.072-.077.155zm-.1-2.382c-.166.096-.201.227-.177.269.024.042-.035.131-.184.162-.19.054-.208.12-.136.244.048.083.054.19.013.215-.042.023-.011.172.061.297s.161.184.179.118c.041-.024.155.077.209.267.079.232.175.398.24.416.18.118.197.053.095-.22a4.06 4.06 0 01-.113-1.155c.027-.626-.045-.75-.187-.613zm-.156.977c-.083.048-.131-.035-.179-.118.035-.131-.013-.214.028-.238.042-.024.09.059.138.142.048.083.054.19.013.214zm-.309-1.207c.083-.048.1-.113.052-.197-.024-.041-.113-.1-.196-.052-.042.024-.035.13-.011.172.048.084.113.101.155.077zm13.079-20.354c.12.207.185.225.214-.013-.024-.042-.072-.125-.179-.118-.066-.018-.083.047-.035.13zm1.169.489c.096.166.12.208.149-.03-.024-.042-.072-.125-.114-.102-.066-.017-.083.048-.035.132zm-.093-.834c-.09-.059-.155-.076-.149.03.024.043-.118.18-.243.252-.273.102-.332.192-.177.269.048.083.172.01.297-.061.077-.155.243-.251.326-.3.042-.023.035-.13-.054-.19zm-.661.105c.042-.024.077-.156.053-.197-.048-.083-.155-.077-.197-.053-.041.024-.076.155-.028.239.048.083.179.118.172.01zm-1.074-.71s.083-.048.035-.131c-.024-.042-.155-.077-.155-.077-.108.007-.084.048-.036.131.048.083.072.125.156.077zm1.228 1.84c-.172-.011-.172-.011-.076.155.089.06.161.184.203.16.048.083.083-.048.142-.137-.048-.084-.138-.143-.269-.178zm12.494-25.947c-1.019-.132-1.06-.108-1.083.237.013.214-.004.28-.124.072-.066-.018-.179-.118-.263-.07-.017.065-.131-.035-.227-.202-.185-.225-.227-.201-.369-.063-.118.179-.225.185-.405.067-.286-.112-1.871-.36-2.055-.2-.083.049-.19.055-.238-.028-.245-.136-.307.62-.153 1.751.039.643.13 1.089.154 1.13a9.011 9.011 0 01-.945.38c-3.329 1.146-6.365 3.952-8.111 7.454-.974 2.059-1.918 5.32-1.933 7.213-.043 1.078.042 1.417.384 2.106.319.647.76.836 2.841 1.464.942.287 2.17.687 2.719.869 1.514.511 2.074.52 4.281.022 1.463-.346 2.497-.666 4.429-1.448 1.242-.44 3.027-.806 3.361-.61.644.348 1.09 2.751.884 4.699-.096 1.274-.623 3.241-1.254 4.548-.502.955-1.264 2.227-1.649 2.615-.077.155-.362.43-.563.658-.177.268-.503.567-.539.699-.444.478-2.361 1.862-3.05 2.204-.665.384-.838.373-2.256.028l-.722-.193-.022.345c-.033.518.379.945.994 1.145.286.112 1.204.358 2.015.61.87.163 1.943.486 2.467.626 1.073.323 1.585.25 2.946-.37a26.319 26.319 0 001.965-1.3c1.809-1.378 2.816-2.514 3.831-4.596 1.764-3.569 1.945-8.44.31-10.6-.725-.967-1.882-1.628-3.963-2.256-.483-.165-1.36-.434-1.932-.658-1.694-.63-4.809-.937-5.384-.494-.084.048-.232.078-.256.037-.138-.143-1.048.105-2.92.799-1.492.584-3.204 1.074-3.252.99-.234-.308.317-3.675.887-5.279.511-1.514.801-2.07 1.469-3.12.88-1.45 1.846-2.562 2.831-3.352.184-.162.343-.365.295-.448 0 0 .083-.048.232-.079.083-.048.315-.126.481-.222.184-.162.387-.002.341.302-.017.066.163.57.368 1.117.295.607.5 1.153.554 1.344.054.19.163.57.259.737.498.765.738 1.181.755 1.116-.006-.107.232-.079.512-.074.28.005.56.01.643-.039.042-.024.149-.03.19-.054.114.1 1.286-.077 1.494-.197.041-.024.232-.079.315-.127.214-.012.284-.275.079-.822l-.115-.487.175.398c.63 1.188.809 1.306.801.812.005-.28.005-.28.376.17.185.226.524.141.339-.084-.144-.25.153-.31.363-.043.275.284.275.284.28.004-.02-.321-.447-1.35-.602-1.426-.066-.017-.114-.1-.03-.149 0 0-.177-.785-.466-1.67-.489-1.326-1.368-4.864-1.77-6.905-.206-.934-.344-1.076-.969-1.103zm-11.58 15.942c.03.149-.005.28-.047.304-.041.024-.048-.083.047-.304.028-.238.028-.238 0 0zm12.793-6.832c.271.564.236.695.021.708-.303-.046-.375-.17-.144-.25a.106.106 0 00.053-.196 1.418 1.418 0 01-.133-.422c.011-.173.035-.131.203.16zm-.403-.987c.079.232.079.232-.083.048-.072-.124-.144-.25-.109-.38-.024-.042.059-.09.083-.048.048.083.079.232.109.38zm-.32-1.034c.013.214.013.214-.083.048-.048-.083-.079-.232-.151-.357.012-.172.053-.197.101-.113.072.124.168.29.133.422zm-.143-6.68c-.041.024-.107.007-.179-.118.035-.131-.013-.214.029-.238 0 0 .089.059.137.142.114.1.096.166.013.214zm22.87-11.984c-.083.048-.125.072-.077.155 0 0 .09.06.173.011.041-.024.083-.048.059-.09-.024-.04-.066-.017-.155-.076zm-2.159 2.022a.505.505 0 00-.159.203c.048.083.113.1.238.029.125-.072.184-.162.136-.245-.024-.041-.131-.035-.215.013zm1.374-1.846c-.007-.107-.138-.142-.346-.022-.166.096-.201.227-.153.31.048.083.013.214-.13.352-.124.072-.16.203-.177.269-.018.065.238.028.547-.205.641-.426.641-.426.468-.437-.089-.059-.203-.16-.209-.267zm-1.384-.476c.024.042.131.035.19-.054.101-.114.202-.228.243-.252.084-.047.018-.065-.089-.059-.28-.004-.464.157-.344.365zm.653.843c-.072-.125-.731.366-.808.521-.017.066.191-.054.399-.174.249-.144.433-.306.409-.347zm-.64.812c-.124.072-.255.037-.262-.07-.03-.149-.096-.166-.345-.022-.208.12-.309.233-.237.358a.207.207 0 01-.07.262c-.125.072-.149.03-.138-.142.036-.131-.012-.214-.054-.19-.042.024-.232.078-.398.174-.166.096-.291.168-.267.21.048.083-.077.155-.243.25-.25.145-.25.145-.173-.01.077-.156.053-.197-.113-.101-.084.048-.16.203-.136.245-.035.13-.202.227-.451.37-.339.086-.481.223-.516.354.006.107.03.149-.018.066-.048-.083-.214.013-.547.205-.409.347-.831.48-.654.211.059-.09.142-.138.208-.12.083-.048.166-.096.201-.227a.375.375 0 01.285-.275c.363-.044.529-.14.457-.264-.048-.083-.089-.06-.148.03-.101.114-.125.072-.197-.053-.013-.214.029-.238.391-.281a.819.819 0 00.416-.24c.035-.131.118-.18.166-.096.024.041.108-.007.25-.144.077-.155.243-.251.267-.21.024.042.041-.024.101-.113.035-.131.201-.227.267-.21.124-.072.291-.168.343-.365.119-.179.285-.275.41-.347.131.035.297-.06.338-.085.018-.065.202-.227.451-.37.291-.169.392-.282.32-.407-.024-.042-.114-.1-.197-.053-.083.048-.131-.035-.155-.076-.013-.215.819-.695 1.057-.666.221.094.19-.054-.187-.612-.216-.374-.426-.641-.467-.617-.042.024-.108.006-.114-.101-.12-.208-.627-.414-.793-.318-.083.048-.25.144-.243.251-.011.173-.053.197-.125.072-.048-.083-.297.06-1.087.517-1.508 1.037-3.573 2.45-4.398 3.038-.41.347-.944.766-1.276.958-.243.251-1.193.91-1.994 1.54-.866.61-1.643 1.28-1.851 1.4-1.46 1.12-6.027 4.921-6.964 5.795-.486.502-.817 1.081-.673 1.33.144.25 1.566 1.369 1.966 1.581.155.077.382.279.478.445.12.208.186.225.328.088.118-.18.142-.138.066.017a.546.546 0 00.067.405c.096.166.138.142.321-.02.143-.137.143-.137.066.018-.171.376-.033.518.21.267.124-.072.943-.766 1.928-1.556 1.702-1.371 5.007-4 5.475-4.437.309-.233.309-.233.394.106.464 1.284 3.892 10.39 4.361 11.394.054.19.614 1.64 1.181 3.198 1.94 5.087 3.903 10.217 4.553 11.726.403.987.805 1.586 1.27 1.816.245.136 2.343-.742 2.645-1.083.267-.21.35-.258.505-.181.155.077.155.077.191-.054.011-.173.011-.173.124-.072.227.2.435.08.547-.205.053-.197.053-.197.042-.024.019.321.321-.02.278-.383.099-.5-.215-1.428-1.01-3.573-.452-1.07-.909-2.247-1.042-2.669-.175-.398-1.169-2.984-2.3-5.711a262.723 262.723 0 00-2.415-6.2c-.277-.67-.957-2.329-1.493-3.738-.578-1.384-1.493-3.738-2.078-5.23-.601-1.426-1.083-2.644-1.065-2.71.011-.172 2.829-2.298 3.37-2.61.225-.186.409-.348.361-.43-.024-.042-.297.06-.606.294-.516.353-.855.438-.678.17.077-.156.694-.623 1.293-1.024.226-.186.434-.306.517-.354.184-.162-.037-.256-.287-.112zm-2.146-.645c1.127-.928 1.418-1.096 1.466-1.013.12.208-.033.518-.271.49-.084.048-.398.174-.749.431-.267.21-.534.42-.551.485.006.107-.059.09-.149.03-.089-.058-.054-.19.254-.423zm3.851 23.66c.006.108.036.256.043.364.054.19-.042.024-.186-.226-.24-.415-.246-.523-.025-.428.113.1.161.184.168.29zm-2.878-7.095c-.018.065-.083.048-.155-.077s-.031-.149.059-.09c.066.018.138.143.096.167zm-.397-.88c-.017.066-.065-.017-.113-.1-.072-.125-.096-.167.059-.09.024.042.072.125.054.19zm-1.774-12c-.125.072-.19.054-.131-.036s.166-.096.208-.12c.065.018.006.108-.077.156zm.374-.216c-.041.024-.148.03-.196-.053-.024-.042.011-.173.052-.197.042-.024.173.011.197.053.048.083-.011.173-.053.197zm.385-.39c.007.108-.052.198-.094.222-.041.024-.107.006-.155-.077-.024-.042.011-.173.053-.197.124-.072.214-.013.196.053zm.558-.377c-.302.341-.343.365-.398.175-.096-.167.189-.442.552-.485.19-.054.131.035-.154.31zm.496-1.062c-.083.048-.107.007-.09-.059-.006-.107.011-.173.053-.197 0 0 .066.018.114.101.024.042.006.107-.077.155zm1.033-.707c-.083.048-.149.03-.131-.035.059-.09.166-.096.249-.144.024.042.006.107-.118.18z" fill="#F8C62A"/></svg>