<svg width="88" height="88" fill="none" xmlns="http://www.w3.org/2000/svg"><rect width="88" height="88" rx="44" fill="#F8C62A"/><path d="M44.51 54.885a1.643 1.643 0 01-1.634 1.643c-.374 0-.744-.13-1.044-.378l-8.937-7.446h-4.76a1.639 1.639 0 01-1.635-1.643v-6.548a1.64 1.64 0 011.635-1.643h4.76l8.938-7.446a1.624 1.624 0 011.738-.221c.573.27.94.85.94 1.487v22.195zm6.284-2.569a1.63 1.63 0 01-1.273-.477l-.22-.22a1.649 1.649 0 01-.157-2.141 9.518 9.518 0 001.87-5.69c0-2.22-.733-4.301-2.122-6.02a1.649 1.649 0 01.113-2.199l.218-.22a1.594 1.594 0 011.238-.478c.461.023.892.241 1.184.6 1.926 2.37 2.943 5.246 2.943 8.317 0 2.86-.9 5.584-2.602 7.873-.284.382-.72.621-1.192.655zm6.759 5.08a1.633 1.633 0 01-2.406.101l-.215-.216a1.65 1.65 0 01-.095-2.22 17.6 17.6 0 004.09-11.273c0-4.283-1.556-8.406-4.379-11.61a1.65 1.65 0 01.066-2.25l.215-.216a1.587 1.587 0 011.205-.483c.45.013.876.213 1.175.552A21.137 21.137 0 0162.5 43.788c0 4.975-1.756 9.807-4.947 13.607z" fill="#000"/></svg>