<svg width="22" height="23" viewBox="0 0 22 23" fill="none" xmlns="http://www.w3.org/2000/svg">
<path fill-rule="evenodd" clip-rule="evenodd" d="M6.28401 2.85727C5.84695 2.86235 5.49776 3.22259 5.50628 3.65959V4.44347H4.7224C3.42807 4.44347 2.35693 5.51464 2.35693 6.80894V7.59281H19.6745V6.80894C19.6745 5.51464 18.6049 4.44347 17.3106 4.44347H16.5267V3.65959C16.5354 3.2129 16.171 2.84851 15.7244 2.85727C15.2891 2.86488 14.9427 3.22437 14.9512 3.65959V4.44347H11.8034V3.65959C11.8121 3.21536 11.4515 2.85203 11.0073 2.85727C10.5696 2.86151 10.2195 3.222 10.228 3.65959V4.44347H7.08018V3.65959C7.08884 3.21536 6.72829 2.85203 6.28401 2.85727ZM2.35693 9.16672V17.8232C2.35693 19.1175 3.42809 20.1871 4.7224 20.1871H17.3106C18.6049 20.1871 19.6745 19.1175 19.6745 17.8232V9.16672H2.35693ZM6.29477 12.3145C6.72939 12.3145 7.08172 12.6669 7.08172 13.1015C7.08172 13.5361 6.72939 13.8884 6.29477 13.8884C5.86014 13.8884 5.50781 13.5361 5.50781 13.1015C5.50781 12.6669 5.86014 12.3145 6.29477 12.3145ZM9.44257 12.3145C9.87719 12.3145 10.2295 12.6669 10.2295 13.1015C10.2295 13.5361 9.87719 13.8884 9.44257 13.8884C9.00795 13.8884 8.65562 13.5361 8.65562 13.1015C8.65562 12.6669 9.00795 12.3145 9.44257 12.3145ZM12.5904 12.3145C13.025 12.3145 13.3773 12.6669 13.3773 13.1015C13.3773 13.5361 13.025 13.8884 12.5904 13.8884C12.1558 13.8884 11.8034 13.5361 11.8034 13.1015C11.8034 12.6669 12.1558 12.3145 12.5904 12.3145ZM15.7382 12.3145C16.1728 12.3145 16.5251 12.6669 16.5251 13.1015C16.5251 13.5361 16.1728 13.8884 15.7382 13.8884C15.3036 13.8884 14.9512 13.5361 14.9512 13.1015C14.9512 12.6669 15.3036 12.3145 15.7382 12.3145ZM6.29477 15.4623C6.72939 15.4623 7.08172 15.8147 7.08172 16.2493C7.08172 16.6839 6.72939 17.0362 6.29477 17.0362C5.86014 17.0362 5.50781 16.6839 5.50781 16.2493C5.50781 15.8147 5.86014 15.4623 6.29477 15.4623ZM9.44257 15.4623C9.87719 15.4623 10.2295 15.8147 10.2295 16.2493C10.2295 16.6839 9.87719 17.0362 9.44257 17.0362C9.00795 17.0362 8.65562 16.6839 8.65562 16.2493C8.65562 15.8147 9.00795 15.4623 9.44257 15.4623ZM12.5904 15.4623C13.025 15.4623 13.3773 15.8147 13.3773 16.2493C13.3773 16.6839 13.025 17.0362 12.5904 17.0362C12.1558 17.0362 11.8034 16.6839 11.8034 16.2493C11.8034 15.8147 12.1558 15.4623 12.5904 15.4623ZM15.7382 15.4623C16.1728 15.4623 16.5251 15.8147 16.5251 16.2493C16.5251 16.6839 16.1728 17.0362 15.7382 17.0362C15.3036 17.0362 14.9512 16.6839 14.9512 16.2493C14.9512 15.8147 15.3036 15.4623 15.7382 15.4623Z" fill="#D3D3D3"/>
</svg>
