<svg width="95" height="63" viewBox="0 0 95 63" fill="none" xmlns="http://www.w3.org/2000/svg">
<g clip-path="url(#clip0_2576_24920)">
<path d="M4.49291 38.7811C6.35112 45.5262 9.86456 51.973 12.6727 58.3869C13.1492 59.4779 16.7237 58.6461 16.7861 57.5338C17.2746 49.2129 17.7241 40.901 18.1518 32.5838C16.7709 32.8704 15.3998 33.1548 14.0189 33.4414C18.1772 41.3099 20.4911 49.7254 22.688 58.3012C23.0107 59.5712 26.6567 58.4253 26.8989 57.4257C30.1118 44.128 33.3418 30.8162 36.2309 17.4493C36.4868 16.2413 32.7364 16.8878 32.4483 18.0006C28.9881 31.2936 25.8442 44.6677 22.7003 58.0419C24.1006 57.7508 25.5108 57.4575 26.9111 57.1664C24.658 48.6137 22.2638 40.2064 18.164 32.3245C17.6282 31.2882 14.1018 32.0166 14.0311 33.1821C13.5524 41.5007 13.1029 49.8127 12.6849 58.1276C14.0561 57.8432 15.4272 57.5589 16.7984 57.2745C13.913 50.8372 11.4471 43.9034 7.70166 37.9204C7.19793 37.1127 4.22096 37.7764 4.49291 38.7811Z" fill="#CACACA"/>
<path d="M40.4602 28.6666C38.6799 34.0009 36.4212 46.4944 42.8515 49.8287C47.9078 52.4527 51.2952 47.9495 52.5528 43.6895C54.0901 38.5033 56.2441 27.5628 48.8288 26.0145C44.6247 25.1339 38.3829 28.2 39.8334 33.1715C40.1406 34.2398 43.2295 33.3041 43.4184 32.4295C44.1122 29.2431 47.9344 27.123 49.4922 31.1771C50.0284 32.5725 49.9714 34.2888 49.9679 35.7467C49.9548 38.7253 49.7532 43.8302 48.0383 46.3689C44.6288 51.4005 42.699 42.5581 42.378 40.1795C41.8283 36.1811 42.2201 32.1714 43.2039 28.2822C43.4242 27.4107 40.7172 27.9098 40.455 28.6883L40.4602 28.6666Z" fill="#CACACA"/>
<path d="M53.1257 14.7465C55.4959 24.0315 59.0072 33.0132 61.4013 42.3133C61.7195 43.5638 65.4666 42.4562 65.4707 41.224C65.5562 32.534 65.5181 23.8416 65.5939 15.1539C64.2504 15.514 62.9069 15.8741 61.5634 16.2342C64.7206 25.5948 67.8777 34.9555 71.037 44.3259C71.4318 45.5075 75.181 44.5431 75.2577 43.4481C76.362 28.5214 80.5922 15.8108 85.5325 1.85956C85.948 0.676407 82.2656 1.44072 81.8393 2.17489C74.561 14.5703 72.0052 29.923 71.0493 44.0666C72.4594 43.7732 73.8695 43.4799 75.2699 43.1888C72.0445 33.8438 68.8192 24.4989 65.5939 15.1539C65.1662 13.9183 61.5697 15.0117 61.5634 16.2342C61.5506 24.928 61.4141 33.6194 61.4013 42.3133C62.7545 41.9509 64.1175 41.5863 65.4707 41.224C63.0188 32.0296 60.178 22.6167 56.4514 13.859C56.0475 12.9052 52.8658 13.7494 53.1257 14.7465Z" fill="#CACACA"/>
</g>
<defs>
<clipPath id="clip0_2576_24920">
<rect width="87.33" height="42.73" fill="white" transform="translate(0.292969 20.5078) rotate(-12.9447)"/>
</clipPath>
</defs>
</svg>
