<svg width="105" height="15" fill="none" xmlns="http://www.w3.org/2000/svg"><g clip-path="url(#clip0_282_2999)" fill="#3772FF"><path d="M73.63 3.22v.007a.24.24 0 00.005.022l.002.007a.295.295 0 00.009.025v.003l.014.027v.001l6.391 11.135a.057.057 0 00.004.005.103.103 0 00.008.013l.006.009.008.01.009.009.007.007.01.01.008.006a.116.116 0 00.01.008l.009.006.01.006a.305.305 0 00.011.006l.009.004a.29.29 0 00.013.006c.003 0 .005.002.008.003a.164.164 0 00.014.004l.009.003.014.002.01.002a.21.21 0 00.026.002h.008l1.823-.013h.003l.025-.002.006-.001a.242.242 0 00.055-.016c.003 0 .005-.002.006-.003a.195.195 0 00.022-.01l.005-.003a.25.25 0 00.046-.036l.004-.005a.19.19 0 00.02-.024.262.262 0 00.016-.024L88.569 3.2a.25.25 0 00-.002-.245l-.924-1.596v-.002a.207.207 0 00-.04-.052.231.231 0 00-.02-.015l-.004-.004a.216.216 0 00-.05-.03h-.003a.236.236 0 00-.092-.018h-.002l-12.665.095a.24.24 0 00-.208.125l-.9 1.609v.002a.254.254 0 00-.014.027v.001a.164.164 0 00-.008.026l-.002.008a.23.23 0 00-.005.022v.007a.231.231 0 00-.002.028v.001c0 .01 0 .02.002.03zm13.81-1.246l.64 1.108-6.001 10.737-5.097-8.806 1.265-.01 3.603 6.226.002.002a.117.117 0 00.008.013.08.08 0 00.005.007l.009.011.007.008.008.009.01.009a.447.447 0 00.019.015l.006.005a.183.183 0 00.013.008l.003.002.005.003a.2.2 0 00.047.019.163.163 0 00.023.005l.01.002a.179.179 0 00.036.002.22.22 0 00.023 0l.012-.002a.21.21 0 00.023-.005l.01-.003a.17.17 0 00.012-.004l.011-.005.01-.004a.144.144 0 00.013-.007l.006-.003.002-.001.014-.01.006-.004.012-.01.007-.006.01-.01.007-.007a.103.103 0 00.006-.009l.009-.01.005-.008.008-.013.002-.002 5.17-9.252zM78.804 5l4.592-.034L81.13 9.02 78.804 5zM74.91 1.824l12.109-.092-4.964 8.882-.641-1.107 3.509-6.279a.244.244 0 00-.212-.366l-1.598.012a.243.243 0 00-.24.247c0 .135.11.244.243.243l1.18-.009-.624 1.117-5.289.04-1.684.013-.64-1.108 6.092-.045a.243.243 0 00.24-.247.244.244 0 00-.244-.244l-6.51.05h-.001l-1.35.01.624-1.117zm.59 1.598l6.163 10.646-1.265.01-6.11-10.647 1.213-.01zM2.41 1.45h2.666v13.059H2.411V1.449zm6.058 0h2.649l4.746 4.762 4.745-4.762h2.65v13.059h-2.65V5.118l-4.745 4.57-4.746-4.57v9.391H8.468V1.449zm18.507 0h6.885c1.002 0 1.871.109 2.607.326.735.217 1.345.532 1.83.944.484.406.843.905 1.077 1.495.24.59.36 1.256.36 1.997 0 .697-.117 1.34-.351 1.93a4.045 4.045 0 01-1.078 1.538c-.48.429-1.087.766-1.822 1.01-.735.24-1.604.36-2.606.36l-4.253-.008v3.467h-2.649V1.449zm6.952 7.302a4.4 4.4 0 001.311-.175c.38-.123.694-.293.944-.51.257-.223.446-.49.569-.802.128-.317.192-.668.192-1.053 0-.774-.253-1.375-.76-1.804-.502-.435-1.254-.652-2.256-.652h-4.303v4.996h4.303zm8.706-7.302h6.642c1.003 0 1.872.106 2.607.317.735.206 1.345.507 1.83.903.484.395.844.877 1.077 1.445.24.568.36 1.212.36 1.93 0 .485-.059.947-.176 1.387a4.058 4.058 0 01-.543 1.203c-.24.368-.543.697-.91.986-.368.284-.8.521-1.296.71l2.841 4.178h-3.242l-2.456-3.71h-.075l-4.01-.008v3.718h-2.65V1.449zm6.709 7.052a4.4 4.4 0 001.312-.176 2.66 2.66 0 00.944-.493c.256-.211.445-.468.568-.768a2.62 2.62 0 00.192-1.02c0-.73-.25-1.292-.752-1.688-.501-.4-1.256-.601-2.264-.601h-4.06v4.746h4.06zm8.18-.56c0-.986.18-1.888.543-2.707a6.116 6.116 0 011.52-2.106c.658-.59 1.443-1.047 2.357-1.37.919-.323 1.935-.485 3.049-.485 1.109 0 2.123.162 3.042.485.919.323 1.704.78 2.356 1.37a6.064 6.064 0 011.529 2.106c.362.819.543 1.72.543 2.707 0 .991-.181 1.902-.543 2.732a6.212 6.212 0 01-1.53 2.13c-.651.597-1.436 1.062-2.355 1.396-.92.329-1.933.493-3.042.493-1.114 0-2.13-.165-3.05-.493a7.112 7.112 0 01-2.356-1.395 6.266 6.266 0 01-1.52-2.131c-.362-.83-.543-1.74-.543-2.732zm2.648 0c0 .674.12 1.281.36 1.821.245.54.582 1.003 1.01 1.387.435.379.945.671 1.53.877.59.207 1.23.31 1.921.31.69 0 1.329-.103 1.914-.31a4.54 4.54 0 001.529-.877 4.13 4.13 0 001.01-1.387c.245-.54.368-1.147.368-1.821 0-.674-.123-1.278-.367-1.813a3.895 3.895 0 00-1.011-1.354 4.4 4.4 0 00-1.53-.852 6.019 6.019 0 00-1.913-.292c-.69 0-1.331.097-1.922.292a4.503 4.503 0 00-1.528.852A3.892 3.892 0 0060.53 6.13c-.24.535-.36 1.139-.36 1.813zm30.526 2.682c.473.267.953.51 1.437.727.49.211.997.392 1.52.543.524.145 1.073.256 1.647.334.579.078 1.195.117 1.846.117.786 0 1.454-.05 2.005-.15.552-.106 1-.248 1.346-.427.351-.183.604-.4.76-.651.161-.25.242-.524.242-.819 0-.473-.198-.847-.593-1.12-.396-.278-1.006-.417-1.83-.417-.362 0-.743.025-1.144.075-.401.044-.808.095-1.22.15a94 94 0 01-1.212.159 10.03 10.03 0 01-1.12.067 6.262 6.262 0 01-1.687-.226 4.514 4.514 0 01-1.429-.677c-.412-.3-.74-.676-.986-1.128-.245-.45-.367-.977-.367-1.579 0-.356.047-.71.141-1.06.101-.352.257-.686.469-1.003.217-.323.495-.621.835-.894.34-.279.75-.518 1.228-.719a8.042 8.042 0 011.671-.468 12.026 12.026 0 012.164-.175c.585 0 1.173.033 1.763.1a16.813 16.813 0 013.342.693c.518.162 1 .343 1.446.544l-1.162 2.138a11.662 11.662 0 00-1.186-.442 13.19 13.19 0 00-1.329-.36 14.32 14.32 0 00-1.437-.234 12.36 12.36 0 00-1.504-.091c-.73 0-1.33.052-1.804.158-.468.106-.841.243-1.12.41-.278.161-.473.345-.584.551-.106.2-.16.401-.16.602 0 .39.176.71.527.96.35.246.886.368 1.604.368.29 0 .621-.02.994-.058l1.187-.142c.418-.05.84-.095 1.27-.134.434-.045.855-.067 1.262-.067.768 0 1.448.086 2.038.26.596.172 1.095.42 1.496.743.401.317.704.704.91 1.161.206.451.309.958.309 1.52 0 .753-.175 1.424-.526 2.014-.345.585-.841 1.081-1.487 1.488-.641.4-1.415.707-2.323.919-.908.206-1.919.309-3.033.309-.735 0-1.454-.048-2.155-.142a16.25 16.25 0 01-2.022-.385 16.52 16.52 0 01-1.838-.61c-.58-.239-1.117-.5-1.613-.785l1.412-2.147z"/></g><defs><clipPath id="clip0_282_2999"><path fill="#fff" transform="translate(.891 .891)" d="M0 0h104.109v13.974H0z"/></clipPath></defs></svg>