<svg width="49" height="49" fill="none" xmlns="http://www.w3.org/2000/svg"><g clip-path="url(#clip0_1485_778)"><path d="M48.358 24.805c0-13.255-10.745-24-24-24-13.254 0-24 10.745-24 24 0 11.979 8.777 21.908 20.25 23.708v-16.77h-6.093v-6.938h6.093v-5.288c0-6.015 3.584-9.337 9.066-9.337 2.625 0 5.372.468 5.372.468v5.907H32.02c-2.982 0-3.912 1.85-3.912 3.75v4.5h6.657L33.7 31.742h-5.593v16.771c11.474-1.8 20.25-11.73 20.25-23.708z" fill="#161616"/><path d="M33.7 31.742l1.065-6.937h-6.657v-4.5c0-1.898.93-3.75 3.912-3.75h3.026v-5.907s-2.746-.468-5.372-.468c-5.482 0-9.066 3.322-9.066 9.337v5.288h-6.093v6.937h6.093v16.771c2.485.389 5.015.389 7.5 0v-16.77h5.593z" fill="#fff"/></g><defs><clipPath id="clip0_1485_778"><path fill="#fff" transform="translate(.358 .805)" d="M0 0h48v48H0z"/></clipPath></defs></svg>