<svg width="28" height="29" viewBox="0 0 28 29" fill="none" xmlns="http://www.w3.org/2000/svg">
<path fill-rule="evenodd" clip-rule="evenodd" d="M7.99809 3.5002C7.44184 3.50667 6.99741 3.96515 7.00826 4.52133V5.519H6.01059C4.36326 5.519 3 6.8823 3 8.52959V9.52725H25.0405V8.52959C25.0405 6.8823 23.6792 5.519 22.0319 5.519H21.0342V4.52133C21.0454 3.95282 20.5816 3.48904 20.0131 3.5002C19.4591 3.50988 19.0183 3.96741 19.0291 4.52133V5.519H15.0228V4.52133C15.0338 3.95594 14.575 3.49352 14.0095 3.5002C13.4525 3.50559 13.0069 3.96439 13.0177 4.52133V5.519H9.0114V4.52133C9.02243 3.95594 8.56355 3.49352 7.99809 3.5002ZM3 11.5304V22.5477C3 24.195 4.36328 25.5564 6.01059 25.5564H22.0319C23.6792 25.5564 25.0405 24.195 25.0405 22.5477V11.5304H3ZM8.01179 15.5367C8.56494 15.5367 9.01336 15.9851 9.01336 16.5383C9.01336 17.0914 8.56494 17.5398 8.01179 17.5398C7.45863 17.5398 7.01021 17.0914 7.01021 16.5383C7.01021 15.9851 7.45863 15.5367 8.01179 15.5367ZM12.0181 15.5367C12.5712 15.5367 13.0197 15.9851 13.0197 16.5383C13.0197 17.0914 12.5712 17.5398 12.0181 17.5398C11.4649 17.5398 11.0165 17.0914 11.0165 16.5383C11.0165 15.9851 11.4649 15.5367 12.0181 15.5367ZM16.0244 15.5367C16.5775 15.5367 17.026 15.9851 17.026 16.5383C17.026 17.0914 16.5775 17.5398 16.0244 17.5398C15.4712 17.5398 15.0228 17.0914 15.0228 16.5383C15.0228 15.9851 15.4712 15.5367 16.0244 15.5367ZM20.0307 15.5367C20.5838 15.5367 21.0323 15.9851 21.0323 16.5383C21.0323 17.0914 20.5838 17.5398 20.0307 17.5398C19.4775 17.5398 19.0291 17.0914 19.0291 16.5383C19.0291 15.9851 19.4775 15.5367 20.0307 15.5367ZM8.01179 19.543C8.56494 19.543 9.01336 19.9914 9.01336 20.5446C9.01336 21.0977 8.56494 21.5461 8.01179 21.5461C7.45863 21.5461 7.01021 21.0977 7.01021 20.5446C7.01021 19.9914 7.45863 19.543 8.01179 19.543ZM12.0181 19.543C12.5712 19.543 13.0197 19.9914 13.0197 20.5446C13.0197 21.0977 12.5712 21.5461 12.0181 21.5461C11.4649 21.5461 11.0165 21.0977 11.0165 20.5446C11.0165 19.9914 11.4649 19.543 12.0181 19.543ZM16.0244 19.543C16.5775 19.543 17.026 19.9914 17.026 20.5446C17.026 21.0977 16.5775 21.5461 16.0244 21.5461C15.4712 21.5461 15.0228 21.0977 15.0228 20.5446C15.0228 19.9914 15.4712 19.543 16.0244 19.543ZM20.0307 19.543C20.5838 19.543 21.0323 19.9914 21.0323 20.5446C21.0323 21.0977 20.5838 21.5461 20.0307 21.5461C19.4775 21.5461 19.0291 21.0977 19.0291 20.5446C19.0291 19.9914 19.4775 19.543 20.0307 19.543Z" fill="#7A7A7A"/>
</svg>
