<svg width="88" height="88" viewBox="0 0 88 88" fill="none" xmlns="http://www.w3.org/2000/svg">
<rect width="88" height="88" rx="44" fill="#F8C62A"/>
<path d="M60.7006 60.0494L26.9506 26.2994C26.2175 25.5662 25.0325 25.5662 24.2994 26.2994C23.5662 27.0325 23.5662 28.2175 24.2994 28.9506L31.85 36.5012C31.4769 37.1369 31.25 37.945 31.25 38.875V50.125C31.25 52.1931 32.9319 53.875 35 53.875H41.7237L50.5494 62.7006C50.9075 63.0587 51.3875 63.25 51.875 63.25C52.1169 63.25 52.3606 63.205 52.5931 63.1075C53.2944 62.8187 53.75 62.1325 53.75 61.375V58.4012L58.0494 62.7006C58.415 63.0662 58.895 63.25 59.375 63.25C59.855 63.25 60.335 63.0662 60.7006 62.7006C61.4337 61.9675 61.4337 60.7825 60.7006 60.0494Z" fill="black"/>
<path d="M53.75 27.625V48.25L40.625 35.125H41.7313L50.5438 26.2937C51.0875 25.7687 51.8937 25.6 52.5875 25.9C53.3 26.1812 53.75 26.875 53.75 27.625Z" fill="black"/>
</svg>
