<svg width="41" height="41" viewBox="0 0 41 41" fill="none" xmlns="http://www.w3.org/2000/svg">
<rect width="41" height="41" rx="20.5" fill="white" fill-opacity="0.7"/>
<path d="M30.576 15.048C29.856 15.36 29.112 15.576 28.32 15.672C29.136 15.192 29.76 14.424 30.048 13.488C29.28 13.944 28.44 14.256 27.552 14.448C26.832 13.68 25.8 13.2 24.672 13.2C22.488 13.2 20.736 14.976 20.736 17.136C20.736 17.448 20.76 17.736 20.832 18.024C17.568 17.88 14.688 16.296 12.744 13.92C11.352 16.416 12.912 18.48 13.944 19.176C13.32 19.176 12.696 18.984 12.168 18.696C12.168 20.64 13.536 22.248 15.312 22.608C14.928 22.728 14.064 22.8 13.536 22.68C14.04 24.24 15.504 25.392 17.208 25.416C15.864 26.472 13.896 27.312 11.376 27.048C13.128 28.176 15.192 28.824 17.424 28.824C24.672 28.824 28.608 22.824 28.608 17.64C28.608 17.472 28.608 17.304 28.584 17.136C29.4 16.536 30.072 15.84 30.576 15.048Z" fill="#2D2D2D"/>
</svg>
