<svg width="88" height="88" viewBox="0 0 88 88" fill="none" xmlns="http://www.w3.org/2000/svg">
<rect width="88" height="88" rx="44" fill="#F8C62A"/>
<path d="M44.5108 54.8845C44.5108 55.522 44.1444 56.1012 43.571 56.3716C43.3492 56.477 43.1117 56.5279 42.8756 56.5279C42.5018 56.5279 42.1315 56.3988 41.8324 56.1495L32.8949 48.7043H28.1348C27.2321 48.705 26.5 47.9687 26.5 47.0612V40.5134C26.5 39.6055 27.2321 38.8695 28.1348 38.8695H32.8953L41.8328 31.4243C42.3211 31.0175 42.9983 30.9307 43.5713 31.203C44.1444 31.4734 44.5112 32.0529 44.5112 32.6901L44.5108 54.8845ZM50.7936 52.3164C50.7537 52.3191 50.7154 52.3207 50.6759 52.3207C50.2441 52.3207 49.8278 52.1491 49.5201 51.8395L49.3015 51.6189C48.7281 51.0436 48.6608 50.1322 49.1437 49.478C50.3679 47.8185 51.0141 45.8514 51.0141 43.7879C51.0141 41.5683 50.2805 39.4865 48.8921 37.7671C48.3636 37.1137 48.4123 36.1645 49.0047 35.5694L49.223 35.3496C49.5495 35.0213 49.9872 34.8424 50.4608 34.8708C50.922 34.8941 51.3527 35.1123 51.6452 35.4717C53.571 37.8407 54.5883 40.7168 54.5883 43.7883C54.5883 46.6489 53.6886 49.3718 51.9861 51.6613C51.7017 52.0429 51.2668 52.2825 50.7936 52.3164ZM57.5526 57.3954C57.257 57.7466 56.8294 57.9575 56.3717 57.9769C56.3492 57.9777 56.3264 57.9785 56.3032 57.9785C55.8702 57.9785 55.4546 57.8065 55.147 57.4973L54.9323 57.2814C54.3321 56.6785 54.2915 55.7142 54.8371 55.0615C57.4737 51.9091 58.9262 47.9057 58.9262 43.7879C58.9262 39.5047 57.3711 35.3815 54.5484 32.1778C53.9761 31.5274 54.0051 30.5429 54.6142 29.9283L54.8286 29.7124C55.1466 29.3911 55.5599 29.2141 56.0339 29.2293C56.4839 29.2421 56.9095 29.4421 57.2086 29.7805C60.6206 33.6423 62.5 38.6175 62.5 43.7879C62.5008 48.7626 60.7437 53.5954 57.5526 57.3954Z" fill="black"/>
</svg>
