<svg width="184" height="85" viewBox="0 0 184 85" fill="none" xmlns="http://www.w3.org/2000/svg">
<path d="M9.6288 84.1776C7.2736 84.1776 5.40907 83.4416 4.0352 81.9696C2.66133 80.3995 1.72907 78.4368 1.2384 76.0816C0.747733 73.7264 0.551467 71.3221 0.6496 68.8688C0.944 64.6491 1.87627 59.8405 3.4464 54.4432C5.01653 49.0459 7.02827 43.5504 9.4816 37.9568C12.0331 32.2651 14.8299 26.9168 17.872 21.912C21.0123 16.9072 24.2997 12.5893 27.7344 8.9584C31.1691 5.32747 34.5547 2.82507 37.8912 1.4512C38.9707 0.960533 39.9029 0.666133 40.688 0.568001C41.4731 0.371731 42.2091 0.273596 42.896 0.273596C45.2512 0.273596 46.8213 1.40213 47.6064 3.6592C47.9989 4.44426 48.1952 5.4256 48.1952 6.60319C48.1952 8.9584 47.4101 11.7061 45.84 14.8464C44.4661 17.6923 42.5035 20.9307 39.952 24.5616C37.4005 28.0944 34.5056 31.7253 31.2672 35.4544C28.1269 39.0853 24.9376 42.6181 21.6992 46.0528C18.4608 49.3893 15.4677 52.3824 12.72 55.032C9.97227 57.6816 7.76427 59.6933 6.096 61.0672C5.5072 64.3056 5.2128 67.3477 5.2128 70.1936C5.2128 73.2357 5.70347 75.8853 6.6848 78.1424C7.76427 80.3995 9.53067 81.528 11.984 81.528C14.3392 81.528 16.6453 80.5957 18.9024 78.7312C21.1595 76.8667 23.2203 74.6587 25.0848 72.1072C27.0475 69.5557 28.6667 67.2987 29.9424 65.336C30.3349 64.9435 30.5803 64.7472 30.6784 64.7472C30.9728 64.7472 31.12 64.9925 31.12 65.4832C31.12 65.8757 30.9728 66.3173 30.6784 66.808C28.912 69.5557 26.9493 72.2544 24.7904 74.904C22.6315 77.5536 20.2763 79.7616 17.7248 81.528C15.1733 83.2944 12.4747 84.1776 9.6288 84.1776ZM6.6848 58.5648C8.84373 56.6021 11.6405 53.8053 15.0752 50.1744C18.608 46.5435 22.2389 42.52 25.968 38.104C29.7952 33.688 33.2789 29.3701 36.4192 25.1504C39.5595 20.8325 41.8656 17.0053 43.3376 13.6688C43.9264 12.4912 44.4171 11.2155 44.8096 9.8416C45.2021 8.46773 45.3984 7.192 45.3984 6.0144C45.3984 3.85547 44.6133 2.776 43.0432 2.776C40.8843 2.776 37.9893 4.49333 34.3584 7.92799C30.3349 11.6571 26.4587 16.4165 22.7296 22.2064C19.0005 27.8981 15.7131 33.9333 12.8672 40.312C10.1195 46.5925 8.05867 52.6768 6.6848 58.5648ZM37.3415 83.5888C34.6919 83.5888 32.3858 82.9509 30.4231 81.6752C28.4604 80.3013 27.4791 77.8971 27.4791 74.4624C27.4791 72.3035 28.0188 69.9483 29.0983 67.3968C30.1778 64.7472 31.5516 62.1957 33.2199 59.7424C34.9863 57.1909 36.8999 55.0811 38.9607 53.4128C39.4514 53.0203 40.0892 52.824 40.8743 52.824C42.0519 51.6464 43.3767 50.7632 44.8487 50.1744C46.4188 49.5856 47.8908 49.2912 49.2647 49.2912C51.718 49.2912 53.9751 50.0763 56.0359 51.6464C58.1948 53.2165 59.2743 55.7189 59.2743 59.1536C59.2743 61.1163 58.7346 63.4715 57.6551 66.2192C56.6738 68.7707 55.1527 71.4203 53.0919 74.168C51.0311 76.8176 48.6268 79.0747 45.8791 80.9392C43.2295 82.7056 40.3836 83.5888 37.3415 83.5888ZM37.1943 81.8224C39.3532 81.8224 41.5612 80.9883 43.8183 79.32C46.1735 77.6517 48.3324 75.5419 50.2951 72.9904C52.2578 70.3408 53.6807 67.6912 54.5639 65.0416C55.5452 62.392 56.0359 60.0368 56.0359 57.976C56.0359 55.4245 55.349 53.6091 53.9751 52.5296C52.6012 51.352 51.0802 50.7632 49.4119 50.7632C46.7623 50.7632 44.4562 51.6464 42.4935 53.4128C43.4748 54.0016 43.573 54.5904 42.7879 55.1792C41.414 56.3568 39.8439 57.976 38.0775 60.0368C36.4092 62.0976 35.0844 64.0112 34.1031 65.7776C33.4162 66.9552 32.7783 68.4763 32.1895 70.3408C31.6988 72.2053 31.4535 73.9717 31.4535 75.64C31.4535 77.3083 31.846 78.7803 32.6311 80.056C33.5143 81.2336 35.0354 81.8224 37.1943 81.8224ZM76.4012 83.8832C74.733 83.8832 73.4082 83.3435 72.4268 82.264C71.5436 81.0864 71.102 79.7125 71.102 78.1424C71.102 76.6704 71.4455 75.2475 72.1324 73.8736C73.2119 71.6165 74.5858 69.4085 76.254 67.2496C78.0204 64.9925 79.6396 63.0299 81.1116 61.3616C82.093 60.0859 82.5836 59.0064 82.5836 58.1232C82.5836 56.9456 81.8476 55.768 80.3756 54.5904C79.198 53.8053 78.1186 52.7749 77.1372 51.4992C76.4503 50.5179 75.9596 49.5365 75.6652 48.5552C74.0951 51.7936 72.0834 55.5717 69.63 59.8896C67.2748 64.1093 64.8215 67.8875 62.27 71.224C61.8775 71.8128 61.485 72.1072 61.0924 72.1072C60.798 72.1072 60.6508 71.9109 60.6508 71.5184C60.6508 71.3221 60.6999 71.1259 60.798 70.9296C60.8962 70.7333 61.1906 70.2917 61.6812 69.6048C64.2327 66.072 66.2935 62.7845 67.8636 59.7424C69.4338 56.7003 70.8076 53.8544 71.9852 51.2048L75.2236 43.992C75.3218 43.7957 75.4199 43.5504 75.518 43.256C75.7143 42.8635 75.8615 42.6181 75.9596 42.52C76.1559 42.3237 76.3522 42.2256 76.5484 42.2256C76.941 42.2256 77.2354 42.4219 77.4316 42.8144C77.6279 43.2069 77.6279 43.6976 77.4316 44.2864C77.2354 45.3659 77.3826 46.4453 77.8732 47.5248C78.3639 48.6043 79.0018 49.5856 79.7868 50.4688C80.5719 51.2539 81.7004 51.9899 83.1724 52.6768C84.6444 53.3637 85.9692 54.1488 87.1468 55.032C88.3244 55.9152 88.766 57.0437 88.4716 58.4176C88.0791 60.2821 87.0487 62.0976 85.3804 63.864C83.7122 65.6304 82.0439 67.4949 80.3756 69.4576C79.198 70.7333 78.1186 72.0091 77.1372 73.2848C76.254 74.5605 75.5671 75.8853 75.0764 77.2592C74.9783 77.5536 74.8802 77.848 74.782 78.1424C74.782 78.4368 74.782 78.7312 74.782 79.0256C74.782 80.792 75.7143 81.6752 77.5788 81.6752C78.1676 81.6752 78.9036 81.528 79.7868 81.2336C82.2402 80.3504 84.4972 78.8784 86.558 76.8176C88.717 74.7568 90.5324 72.696 92.0044 70.6352C93.5746 68.5744 94.605 67.1515 95.0956 66.3664C95.8807 65.1888 96.3714 64.6 96.5676 64.6C96.862 64.6 97.0092 64.8453 97.0092 65.336C97.0092 65.8267 96.862 66.3173 96.5676 66.808C94.4087 70.2427 91.9554 73.4811 89.2076 76.5232C86.4599 79.5653 83.5159 81.7243 80.3756 83C78.9036 83.5888 77.5788 83.8832 76.4012 83.8832ZM105.387 84.1776C101.364 84.1776 98.4195 83.2944 96.555 81.528C94.6905 79.6635 93.7582 77.2101 93.7582 74.168C93.7582 73.3829 93.8073 72.5979 93.9054 71.8128C94.1017 70.9296 94.2979 70.0464 94.4942 69.1632C94.9849 67.3968 95.7699 65.336 96.8494 62.9808C98.027 60.6256 99.4499 58.3195 101.118 56.0624C102.786 53.8053 104.602 51.9408 106.565 50.4688C108.527 48.9968 110.588 48.2608 112.747 48.2608C114.513 48.2608 115.838 48.8987 116.721 50.1744C117.703 51.4501 118.193 52.9712 118.193 54.7376C118.193 56.6021 117.605 58.5157 116.427 60.4784C115.348 62.3429 113.876 63.864 112.011 65.0416C109.852 66.5136 107.399 67.2496 104.651 67.2496C102.885 67.2496 101.265 66.9061 99.7934 66.2192C98.3214 69.1632 97.5854 72.0581 97.5854 74.904C97.5854 76.9648 98.1742 78.7312 99.3518 80.2032C100.529 81.6752 102.492 82.4112 105.24 82.4112C108.576 82.4112 111.52 81.6261 114.072 80.056C116.623 78.3877 118.978 76.2288 121.137 73.5792C123.394 70.9296 125.553 68.0837 127.614 65.0416C127.909 64.7472 128.105 64.6 128.203 64.6C128.497 64.6 128.645 64.8453 128.645 65.336C128.645 65.8267 128.497 66.3173 128.203 66.808C126.437 69.5557 124.425 72.2544 122.168 74.904C120.009 77.5536 117.556 79.7616 114.808 81.528C112.06 83.2944 108.92 84.1776 105.387 84.1776ZM103.179 65.1888C105.73 65.1888 108.135 64.3056 110.392 62.5392C111.471 61.7541 112.404 60.8219 113.189 59.7424C113.974 58.6629 114.513 57.5835 114.808 56.504C115.102 55.4245 115.249 54.4923 115.249 53.7072C115.249 51.4501 114.415 50.3216 112.747 50.3216C111.668 50.3216 110.441 50.9595 109.067 52.2352C107.889 53.3147 106.663 54.6885 105.387 56.3568C104.209 58.0251 103.179 59.6443 102.296 61.2144C101.413 62.6864 100.824 63.7659 100.529 64.4528C101.216 64.9435 102.1 65.1888 103.179 65.1888ZM163.802 84.472C162.232 84.472 160.858 83.8341 159.681 82.5584C158.503 81.2827 157.914 79.2709 157.914 76.5232C157.914 74.4624 158.307 72.1563 159.092 69.6048C159.975 66.9552 161.104 64.3056 162.478 61.656C163.851 59.0064 165.274 56.6512 166.746 54.5904C164.784 55.6699 162.429 57.3872 159.681 59.7424C157.031 62.0976 154.48 64.6981 152.026 67.544C149.573 70.2917 147.659 72.8923 146.286 75.3456C145.795 76.2288 144.961 76.8667 143.783 77.2592C142.704 77.5536 142.262 77.5045 142.458 77.112C142.557 77.0139 142.949 76.1797 143.636 74.6096C144.421 72.9413 145.206 71.224 145.991 69.4576C146.776 67.6912 147.267 66.5136 147.463 65.9248C148.248 63.9621 148.788 62.3429 149.082 61.0672C149.475 59.6933 149.671 58.6629 149.671 57.976C149.671 56.8965 149.279 56.3568 148.494 56.3568C147.61 56.3568 146.335 57.0437 144.666 58.4176C143.096 59.6933 141.526 61.1653 139.956 62.8336C138.484 64.4037 137.405 65.6304 136.718 66.5136C135.736 67.6912 134.559 69.2123 133.185 71.0768C131.909 72.8432 130.682 74.6587 129.505 76.5232C128.425 78.3877 127.689 80.056 127.297 81.528C127.199 81.9205 127.101 82.264 127.002 82.5584C126.904 82.7547 126.806 82.9509 126.708 83.1472C126.315 83.8341 125.776 83.7851 125.089 83C124.304 82.1168 123.911 80.6939 123.911 78.7312C123.911 76.6704 124.255 74.3643 124.942 71.8128C125.727 69.1632 126.61 66.7589 127.591 64.6C128.573 62.5392 129.456 60.7237 130.241 59.1536C131.124 57.5835 131.713 56.6021 132.007 56.2096C133.087 54.8357 134.215 53.7072 135.393 52.824C136.57 51.9408 137.748 51.4992 138.926 51.4992C139.514 51.4992 139.956 51.6464 140.25 51.9408C140.643 52.2352 140.692 52.4805 140.398 52.6768C139.613 53.0693 138.582 54.1488 137.306 55.9152C136.031 57.5835 134.706 59.5461 133.332 61.8032C132.449 63.3733 131.32 65.4832 129.946 68.1328C128.573 70.7824 127.787 73.0395 127.591 74.904C127.591 75.6891 127.787 76.0325 128.18 75.9344C129.358 73.9717 130.486 72.1563 131.566 70.488C132.743 68.8197 134.068 67.1024 135.54 65.336C137.012 63.5696 138.68 61.7541 140.545 59.8896C142.409 57.9269 144.225 56.3077 145.991 55.032C147.856 53.6581 149.328 53.0203 150.407 53.1184C151.683 53.2165 152.566 53.6091 153.057 54.296C153.547 54.9829 153.793 55.8171 153.793 56.7984C153.793 58.3685 153.449 59.9877 152.762 61.656C152.075 63.3243 151.487 64.6981 150.996 65.7776L150.407 67.2496C151.879 65.2869 153.695 63.2261 155.854 61.0672C158.013 58.9083 160.221 56.9947 162.478 55.3264C164.735 53.56 166.697 52.3824 168.366 51.7936C169.347 51.4011 170.279 51.2048 171.162 51.2048C172.046 51.2048 172.487 51.4992 172.487 52.088C172.487 52.2843 172.242 52.7749 171.751 53.56C169.494 56.6021 167.482 59.6933 165.716 62.8336C163.95 65.9739 162.772 69.5067 162.183 73.432C162.085 74.0208 161.987 74.6096 161.889 75.1984C161.889 75.6891 161.889 76.1797 161.889 76.6704C161.889 78.2405 162.134 79.6144 162.625 80.792C163.115 81.8715 163.999 82.4112 165.274 82.4112C167.139 82.4112 169.053 81.5771 171.015 79.9088C172.978 78.1424 174.941 75.9344 176.903 73.2848C178.866 70.5371 180.779 67.7893 182.644 65.0416C182.84 64.7472 182.987 64.6 183.086 64.6C183.38 64.6 183.527 64.8453 183.527 65.336C183.527 65.9248 183.282 66.6117 182.791 67.3968C181.123 69.9483 179.258 72.5488 177.198 75.1984C175.235 77.848 173.125 80.056 170.868 81.8224C168.611 83.5888 166.256 84.472 163.802 84.472Z" fill="#FD9800"/>
</svg>
