<svg width="44" height="27" viewBox="0 0 44 27" fill="none" xmlns="http://www.w3.org/2000/svg">
<g clip-path="url(#clip0_2297_23994)">
<path d="M16.6851 23.8564C15.6674 24.1497 14.7083 24.5027 13.7182 24.7012C7.47455 25.9516 1.21195 21.5065 0.168477 15.1119C-0.871558 8.73481 2.99758 2.85653 9.17924 1.4234C15.5606 -0.0571433 22.1074 4.45123 23.1095 11.0426C23.2628 12.0489 23.2507 13.0798 23.3609 14.095C23.8809 18.8475 27.9343 22.4233 32.6041 22.267C37.3015 22.1107 41.0174 18.4874 41.4083 13.6823C41.7819 9.08782 38.5774 4.83762 34.0436 3.94718C32.4664 3.63807 30.9063 3.76277 29.3841 4.29668C29.2791 4.33356 29.1792 4.38801 29.0105 4.46528C29.1844 4.51973 29.2963 4.55661 29.4083 4.58998C30.1349 4.80776 30.5499 5.46988 30.3846 6.15307C30.2038 6.89949 29.5443 7.3087 28.7643 7.13308C27.9963 6.96096 27.2318 6.76426 26.4672 6.57809C26.0781 6.48325 25.6838 6.40071 25.2998 6.2883C24.6437 6.09863 24.2529 5.56296 24.3338 4.87801C24.4853 3.60295 24.6609 2.32964 24.8676 1.06336C24.9829 0.359096 25.6545 -0.0659246 26.3484 0.0482337C27.001 0.155367 27.4608 0.775334 27.4057 1.4796C27.385 1.73602 27.3437 1.99244 27.3144 2.22954C28.2029 1.9538 29.0484 1.62538 29.9214 1.42867C36.6472 -0.0922689 43.249 4.80073 43.9412 11.796C44.5886 18.3346 39.9601 24.162 33.5701 24.8487C26.7944 25.5776 20.7711 20.1629 20.7298 13.2098C20.7005 8.47312 17.4754 4.78844 13.3824 3.94718C8.28212 2.90044 3.20937 6.6501 2.64459 11.9225C2.0953 17.0543 5.49607 21.503 10.5309 22.202C11.9705 22.4022 13.3893 22.2248 14.7582 21.7085C14.8202 21.6856 14.877 21.6452 14.9838 21.5873C14.8254 21.5399 14.7221 21.5082 14.617 21.4766C13.8611 21.2518 13.4444 20.588 13.62 19.8872C13.806 19.1478 14.4741 18.7491 15.2541 18.9283C16.0221 19.1039 16.7866 19.2971 17.5512 19.4833C17.9403 19.5781 18.3346 19.6624 18.7186 19.7748C19.3368 19.9557 19.7397 20.4738 19.6674 21.1113C19.5193 22.4162 19.3402 23.7176 19.1233 25.012C19.0027 25.7268 18.3329 26.129 17.6321 26.0061C17.0019 25.8954 16.5456 25.286 16.5938 24.6011C16.6127 24.3429 16.6575 24.0865 16.6868 23.8529L16.6851 23.8564Z" fill="#F3F3F3"/>
<path d="M15.4097 10.3592C15.4975 10.5805 15.5785 10.7825 15.6577 10.9792C17.0077 11.146 17.5001 11.5166 17.4864 12.3491C17.4709 13.1868 16.9198 13.5943 15.7042 13.661C15.4235 14.0351 15.3736 14.3407 15.7799 14.7201C16.3206 15.2241 16.269 16.0513 15.7558 16.5589C15.2651 17.0436 14.504 17.0348 13.9633 16.5606C13.7929 16.4114 13.7154 16.1128 13.3417 16.248C12.9749 16.3815 12.9267 16.5975 12.9216 16.933C12.9112 17.6092 12.5634 18.0623 11.9762 18.2379C11.4734 18.3889 10.8897 18.2168 10.6177 17.7479C10.4592 17.4739 10.3766 17.1227 10.3628 16.803C10.3508 16.4922 10.2182 16.392 9.9771 16.2691C9.7102 16.1339 9.59139 16.2726 9.43298 16.4307C8.81481 17.0507 8.02445 17.0875 7.49238 16.529C6.96548 15.9758 6.98442 15.1785 7.61464 14.5954C8.00379 14.2353 7.70073 13.9807 7.61636 13.6786C6.27155 13.517 5.77392 13.1412 5.78941 12.3069C5.80491 11.4674 6.35248 11.0635 7.57331 10.9967C7.85054 10.6227 7.90736 10.3153 7.49755 9.93595C6.9672 9.44419 7.0068 8.63806 7.49066 8.12874C7.97968 7.6159 8.76143 7.61239 9.31416 8.09537C9.48463 8.24465 9.56384 8.56605 9.93405 8.40623C10.2457 8.27275 10.3542 8.1182 10.3576 7.76694C10.368 6.66576 11.3598 6.03174 12.25 6.53052C12.7408 6.80626 12.9474 7.25411 12.9233 7.80558C12.9095 8.11469 13.0146 8.2587 13.2969 8.38867C13.5966 8.52742 13.7119 8.35179 13.8721 8.19372C14.4661 7.60712 15.2599 7.57727 15.7834 8.12347C16.3 8.66265 16.2672 9.44068 15.7025 10.0396C15.6043 10.1432 15.5079 10.2486 15.408 10.3557L15.4097 10.3592ZM11.6525 14.0017C12.5531 13.9965 13.2849 13.2448 13.2849 12.328C13.2849 11.4112 12.5496 10.6631 11.6491 10.6595C10.7296 10.656 9.97882 11.4253 9.99604 12.3544C10.0133 13.2764 10.7502 14.007 11.6525 14.0017Z" fill="#F3F3F3"/>
<path d="M36.4268 14.9605C36.1461 15.3627 36.0979 15.663 36.494 16.0301C37.0381 16.5324 36.9899 17.3596 36.4819 17.8689C35.9826 18.3677 35.2043 18.3536 34.6601 17.8478C34.4879 17.688 34.3846 17.421 34.0282 17.5774C33.72 17.7126 33.6476 17.8794 33.6425 18.1956C33.6235 19.2792 32.6782 19.9167 31.7897 19.4601C31.2749 19.1949 31.051 18.7383 31.0734 18.1675C31.0854 17.8636 30.9925 17.7108 30.7066 17.5809C30.4087 17.4456 30.2916 17.6107 30.1315 17.7705C29.5357 18.3607 28.7436 18.3905 28.2202 17.8461C27.6898 17.2946 27.7277 16.5166 28.3269 15.9054C28.4991 15.7297 28.6111 15.598 28.4854 15.3117C28.3665 15.0448 28.2495 14.9482 27.9584 14.95C27.094 14.9587 26.5052 14.4002 26.5138 13.6257C26.5241 12.8652 27.1044 12.3366 27.9447 12.3278C28.0721 12.3278 28.1995 12.3278 28.2804 12.3278C28.6266 11.8975 28.5732 11.5867 28.1978 11.2231C27.6847 10.7226 27.7415 9.91469 28.2391 9.41766C28.7299 8.92766 29.4892 8.93293 30.0316 9.40361C30.1952 9.54412 30.4156 9.71448 30.6033 9.70569C30.9219 9.69164 31.0906 9.48791 31.0837 9.08924C31.0665 8.25852 31.6192 7.68597 32.351 7.6807C33.1001 7.67543 33.6373 8.25149 33.6459 9.11383C33.6494 9.41415 33.7114 9.59153 34.0161 9.69691C34.2417 9.77419 34.3605 9.74082 34.5362 9.58451C34.7669 9.38078 35.0338 9.1753 35.3196 9.091C35.8758 8.92766 36.4337 9.21393 36.704 9.71272C36.9882 10.2378 36.9038 10.8139 36.494 11.2899C36.3424 11.4655 36.0549 11.5638 36.2167 11.9309C36.3459 12.2242 36.4716 12.3454 36.8022 12.3384C37.6287 12.319 38.2142 12.8916 38.2055 13.6538C38.1987 14.4002 37.6253 14.9429 36.8229 14.9587C36.6799 14.9622 36.5387 14.9587 36.4268 14.9587V14.9605ZM32.3424 15.3153C33.2464 15.3223 33.9834 14.5934 34.0041 13.6714C34.023 12.7599 33.2964 11.9906 32.3975 11.9748C31.4729 11.959 30.7187 12.7019 30.7152 13.638C30.7101 14.553 31.4436 15.3082 32.3424 15.3153Z" fill="#F3F3F3"/>
</g>
<defs>
<clipPath id="clip0_2297_23994">
<rect width="44" height="26" fill="white" transform="translate(0 0.0322266)"/>
</clipPath>
</defs>
</svg>
