<svg width="35" height="36" viewBox="0 0 35 36" fill="none" xmlns="http://www.w3.org/2000/svg">
<path d="M30.0638 22.8447C30.9363 23.7349 31.8215 24.6383 32.7067 25.5433C33.2915 26.1412 33.8684 26.7456 34.458 27.3385C34.9262 27.8083 35.1483 28.3388 34.891 28.9991C34.6242 29.6856 34.1672 29.9895 33.4002 29.9895C31.8311 29.9928 30.2636 29.9977 28.6944 29.9829C28.402 29.9796 28.2039 30.0749 28.001 30.2852C26.3264 32.0229 24.6406 33.7508 22.9564 35.4787C22.3956 36.0552 21.8619 36.1406 21.1492 35.7957C20.7386 35.597 20.5213 35.257 20.4526 34.8151C20.419 34.6016 20.419 34.3799 20.419 34.1614C20.4174 31.9605 20.419 29.7612 20.419 27.5603C20.419 27.3977 20.419 27.2351 20.419 27.0412C19.8422 26.9838 19.2909 26.9493 18.7444 26.8704C15.587 26.4155 12.9313 24.9586 10.7311 22.6016C10.5856 22.4456 10.469 22.3634 10.2245 22.4029C5.55232 23.1502 1.10861 20.0147 0.181837 15.332C-0.935082 9.70152 3.23379 4.48334 8.83596 4.50634C9.31213 4.50798 9.7883 4.59503 10.2661 4.59503C10.4307 4.59503 10.6368 4.48991 10.755 4.36344C12.6197 2.37439 14.8456 1.0292 17.4549 0.373843C24.4616 -1.38362 31.6617 3.21206 33.2037 10.4587C34.156 14.9345 33.0806 18.9241 30.3163 22.4686C30.2492 22.554 30.1805 22.6361 30.115 22.7215C30.099 22.7429 30.0942 22.7708 30.0654 22.843L30.0638 22.8447ZM13.457 5.86139C16.0168 7.72725 17.4789 10.237 17.4821 13.4957C17.4853 16.7659 16.0136 19.2821 13.4459 21.1529C15.0821 22.8693 18.345 24.1882 20.4174 23.9583V23.4836C20.4174 21.4617 20.4174 19.4398 20.4174 17.4179C20.4174 17.1042 20.4094 16.7888 20.4222 16.4751C20.4542 15.7245 20.7226 15.3681 21.4033 15.1053C22.0201 14.8671 22.5154 15.0642 22.9548 15.5176C24.3162 16.9202 25.6808 18.318 27.0406 19.7207C27.3011 19.9901 27.5504 20.2693 27.806 20.5436C31.5243 16.6262 31.6058 10.232 27.7277 6.15047C23.6755 1.88493 17.1897 2.13623 13.457 5.86139ZM14.5708 13.5072C14.5548 10.3552 12.4791 7.59093 8.75128 7.51701C5.55711 7.4546 2.91102 10.2074 2.90782 13.4989C2.90623 16.779 5.51716 19.5104 8.70174 19.4858C12.4328 19.4562 14.5596 16.6624 14.5708 13.5088V13.5072ZM23.3543 20.243V30.8518C23.4821 30.7319 23.57 30.6547 23.6515 30.5709C24.6007 29.5969 25.5626 28.6345 26.491 27.6391C26.9192 27.1809 27.389 26.964 28.0089 26.9985C28.6497 27.0347 29.2936 27.0067 29.9392 27.0067C27.7245 24.7319 25.5402 22.4883 23.3543 20.243Z" fill="#F3F3F3"/>
</svg>
