<svg width="82" height="83" viewBox="0 0 82 83" fill="none" xmlns="http://www.w3.org/2000/svg">
<g clip-path="url(#clip0_2255_44462)">
<path d="M22.74 59.2537C31.96 42.6737 42.12 27.2737 53.69 12.2237L50.12 12.1437C50.25 29.2437 51.14 46.0137 53.92 62.9037C55.24 62.7837 56.56 62.6637 57.89 62.5437C47.75 51.4137 37.61 40.2837 27.49 29.1437L24.43 30.2537C37.25 33.0737 50.16 35.2837 63.17 37.0037C62.72 36.5737 62.28 36.1437 61.83 35.7137C47.93 44.0037 33.01 50.3937 19.11 58.6937C17.65 59.5637 22.2 60.2837 23.37 59.5837C37.11 51.2637 51.87 44.8337 65.6 36.5037C66.75 35.8037 64.58 35.2537 64.26 35.2137C51.58 33.5837 39 31.3637 26.51 28.6537C26.1 28.5637 22.56 28.7937 23.45 29.7637C33.65 40.8837 43.84 52.0037 54.02 63.1437C54.56 63.7337 58.2 64.0737 57.99 62.7837C55.19 45.9537 54.06 29.0837 53.77 12.0337C53.75 10.8337 50.67 11.3437 50.2 11.9537C38.87 26.7837 27.66 42.0437 19.73 59.0237C19.31 59.9237 22.33 60.0537 22.77 59.2637L22.74 59.2537Z" fill="#CACACA"/>
<path d="M65.1701 23.444C67.8201 21.914 70.1801 19.894 72.6601 18.114C75.2701 16.234 78.0301 14.574 80.6301 12.684C81.5701 12.004 78.8201 11.774 78.3401 12.024C73.1101 14.834 67.2101 18.534 63.0801 22.844C62.2901 23.664 64.7701 23.684 65.1801 23.444H65.1701Z" fill="#CACACA"/>
<path d="M63.9601 49.9841C68.8101 53.8641 73.5701 58.3941 78.7101 61.8341C79.2101 62.1741 82.0701 61.9041 81.4501 61.2541C77.1101 56.6641 71.1801 52.9841 65.9901 49.4141C65.5001 49.0741 63.2101 49.3841 63.9601 49.9841Z" fill="#CACACA"/>
<path d="M37.26 61.874C34.95 68.034 32.66 74.994 31.59 81.484C31.47 82.214 34.03 82.164 34.28 81.544C36.82 75.454 38.68 68.394 40.01 61.934C40.15 61.234 37.51 61.204 37.26 61.874Z" fill="#CACACA"/>
<path d="M37.3604 18.2742C35.2504 12.3942 33.2704 6.26423 30.7404 0.55423C30.4704 -0.0657699 27.9404 0.0942302 28.0904 0.79423C29.3504 6.93423 31.6904 13.2742 34.9404 18.6342C35.2904 19.2142 37.6604 19.0942 37.3604 18.2642V18.2742Z" fill="#CACACA"/>
<path d="M2.39101 44.5243C8.79101 42.8443 15.091 41.2543 21.601 40.0243C23.441 39.6743 21.991 38.8443 20.841 38.9543C14.001 39.6343 7.26101 41.3543 0.831014 43.7443C-0.408986 44.2043 1.91101 44.6443 2.39101 44.5243Z" fill="#CACACA"/>
</g>
<defs>
<clipPath id="clip0_2255_44462">
<rect width="81.06" height="81.86" fill="white" transform="translate(0.470703 0.164062)"/>
</clipPath>
</defs>
</svg>
