<svg width="88" height="43" viewBox="0 0 88 43" fill="none" xmlns="http://www.w3.org/2000/svg">
<g clip-path="url(#clip0_2255_44498)">
<path d="M0.000389945 18.7499C0.30039 25.7399 2.28039 32.8099 3.58039 39.6899C3.80039 40.8599 7.47039 40.8499 7.78039 39.7799C10.1204 31.7799 12.4204 23.7799 14.7004 15.7699C13.2904 15.7399 11.8904 15.7099 10.4804 15.6799C12.7704 24.2799 13.1404 32.9999 13.3604 41.8499C13.3904 43.1599 17.2004 42.8599 17.6604 41.9399C23.7704 29.6999 29.9004 17.4499 35.7104 5.06986C36.2304 3.94986 32.4304 3.73986 31.9004 4.75986C25.5504 16.9399 19.4904 29.2699 13.4304 41.5999C14.8604 41.6299 16.3004 41.6599 17.7304 41.6899C17.4504 32.8499 17.0004 24.1199 14.7704 15.5199C14.4804 14.3899 10.8804 14.3099 10.5504 15.4299C8.22039 23.4299 5.92039 31.4299 3.65039 39.4399C5.05039 39.4699 6.45039 39.4999 7.85039 39.5299C6.48039 32.6099 5.63039 25.2999 3.32039 18.6299C3.01039 17.7299 -0.0396101 17.7099 0.000389945 18.7499Z" fill="#CACACA"/>
<path d="M37.3204 16.9497C34.3904 21.7497 29.3904 33.4197 34.9104 38.1097C39.2504 41.7997 43.5604 38.1697 45.7404 34.2997C48.4004 29.5897 52.9504 19.4097 46.0704 16.2397C42.1704 14.4397 35.4004 16.0297 35.7004 21.1997C35.7604 22.3097 38.9804 22.0897 39.3604 21.2797C40.7504 18.3297 44.9504 17.1197 45.5604 21.4197C45.7704 22.8997 45.3304 24.5597 45.0004 25.9797C44.3204 28.8797 42.9804 33.8097 40.7404 35.8997C36.2904 40.0397 36.3904 30.9897 36.6104 28.5997C36.9704 24.5797 38.2504 20.7597 40.0804 17.1897C40.4904 16.3897 37.7404 16.2697 37.3104 16.9697L37.3204 16.9497Z" fill="#CACACA"/>
<path d="M52.7795 6.22006C53.0095 15.8001 54.4195 25.3401 54.6695 34.9401C54.6995 36.2301 58.5995 35.9901 58.8795 34.7901C60.9095 26.3401 62.8195 17.8601 64.8395 9.41006C63.4495 9.46006 62.0595 9.51006 60.6695 9.56006C61.6495 19.3901 62.6295 29.2201 63.6095 39.0601C63.7295 40.3001 67.5995 40.2001 67.9195 39.1501C72.3395 24.8501 79.3095 13.4101 87.2495 0.920059C87.9195 -0.139941 84.1595 -0.219941 83.5795 0.400059C73.7095 10.8501 67.7795 25.2401 63.6795 38.8101C65.1195 38.8401 66.5595 38.8701 67.9895 38.9001C66.9395 29.0701 65.8895 19.2401 64.8395 9.41006C64.6995 8.11006 60.9495 8.37006 60.6695 9.56006C58.7095 18.0301 56.6295 26.4701 54.6695 34.9401C56.0695 34.8901 57.4795 34.8401 58.8795 34.7901C58.5495 25.2801 57.8895 15.4701 56.2195 6.10006C56.0395 5.08006 52.7495 5.19006 52.7795 6.22006Z" fill="#CACACA"/>
</g>
<defs>
<clipPath id="clip0_2255_44498">
<rect width="87.33" height="42.73" fill="white"/>
</clipPath>
</defs>
</svg>
