<svg width="125" height="136" fill="none" xmlns="http://www.w3.org/2000/svg"><g clip-path="url(#clip0_2640_24922)" fill="#fff"><path d="M24.175 62.252c-2.371-11.118-4.35-22.315-6.827-33.414-.128-.578.105-1.044.498-1.359.235-.241.563-.411.993-.453a410.013 410.013 0 0130.152-1.758c7.112-.15 14.23.012 21.308.647 3.2.286 3.37 1.416 4.836 3.973 13.52 23.56 26.853 47.252 39.679 71.199.878 1.637-1.228 2.804-2.553 2.407L53.485 85.93c-8.142-2.434-16.28-4.884-24.419-7.327-3.207-.962-4.227-13.228-4.894-16.355l.003.004zm6.3 12.365c4.265-2.68 10.474-4.746 13.918-8.297l.181-.184c-8.253-9.82-15.778-20.965-22.622-31.86 1.737 7.792 3.347 15.61 4.939 23.432.6 2.94 1.596 13.68 3.584 16.913v-.004zm16.541-10.97c2.343-2.392 4.691-4.78 7.037-7.171l7.087-7.22c-11.553-5.28-23.357-10.055-34.925-15.3 7.339 9.562 13.69 19.956 20.8 29.689l.001.002zM64.53 51.044l-6.586 6.668c-2.877 2.915-5.756 5.827-8.631 8.74 10.136 6.218 21.08 11.404 31.59 16.945 8.155 4.3 16.297 9.032 24.655 13.123C91.571 81.683 79.57 64.735 64.533 51.045h-.004zM47.204 28.882c-7.155.084-14.314.361-21.454.882 12.768 4.933 25.787 10.26 37.718 16.79 3.02-4.539 4.691-12.313 6.234-17.351-1.917.038-7.37-.12-8.031-.15-4.815-.246-9.647-.225-14.466-.17l-.002-.001zm26.29 5.772c-.434-.76-.864-1.524-1.297-2.285a234.383 234.383 0 01-1.933 5.979c-.888 2.61-1.94 7.35-3.634 10.2 14.145 12.199 25.605 27.53 37.985 41.678-10.181-18.629-20.628-37.114-31.122-55.569l.001-.003zM57.733 83.321c11.5 3.426 23 6.852 34.498 10.275-4.29-2.312-8.544-4.672-12.791-6.912-10.874-5.736-22.243-11.137-32.527-17.9-3.672 3.292-8.5 5.233-12.94 7.486 7.921 2.346 15.842 4.693 23.762 7.05l-.002.001zm-19.67 2.085c18.792 6.301 37.869 11.756 57.344 15.609.099.021.076.169-.025.153-9.51-1.379-18.85-3.804-28.11-6.301-9.876-2.664-19.783-5.507-29.291-9.276-.124-.048-.04-.229.082-.185zm-5.105-1.986c1.193.325 2.482.557 3.482 1.307.062.047.01.131-.056.126-1.256-.061-2.504-.493-3.502-1.265-.071-.055-.02-.194.076-.168zm36.923-61.159c-7.91-.456-15.709-.793-23.637-.353-6.61.366-13.19 1.226-19.812 1.405-.168.006-.194-.239-.025-.26 14.111-1.86 29.451-3.869 43.495-.933.092.02.07.146-.023.143l.002-.002zM85.332 41.16c6.036 8.642 11.076 17.989 16.097 27.245 4.294 7.918 8.499 15.9 12.234 24.1.05.108-.116.164-.17.065-9.169-17.258-18.118-34.617-28.307-51.305-.059-.098.08-.201.146-.106zM20.843 60.84c-1.918-6.55-4.201-13.648-4.696-20.493-.005-.091.136-.132.163-.039 1.822 6.662 3.7 13.643 4.709 20.49.014.1-.146.14-.174.04l-.002.002zm1.567 6.12c-.814-1.117-1.237-2.86-1.213-4.241.004-.162.229-.24.29-.07.491 1.348.82 2.838 1.098 4.245.018.097-.12.14-.175.065z"/></g><defs><clipPath id="clip0_2640_24922"><path fill="#fff" transform="scale(-1 1) rotate(35.924 -27.964 -85.683)" d="M0 0h67.928v117.852H0z"/></clipPath></defs></svg>