<svg width="12" height="16" fill="none" xmlns="http://www.w3.org/2000/svg"><path fill-rule="evenodd" clip-rule="evenodd" d="M2.4.8A1.8 1.8 0 00.6 2.6v10.8a1.8 1.8 0 001.8 1.8h7.2a1.8 1.8 0 001.8-1.8V2.6A1.8 1.8 0 009.6.8H2.4zm.9 1.8a.9.9 0 000 1.8h5.4a.9.9 0 000-1.8H3.3zm5.4 6.3a.9.9 0 01.9.9v2.7a.9.9 0 01-1.8 0V9.8a.9.9 0 01.9-.9zM6 11.6a.9.9 0 100 1.8h.01a.9.9 0 100-1.8H6zm-3.6.9a.9.9 0 01.9-.9h.01a.9.9 0 110 1.8H3.3a.9.9 0 01-.9-.9zm.9-3.6a.9.9 0 100 1.8h.01a.9.9 0 100-1.8H3.3zm1.8.9a.9.9 0 01.9-.9h.01a.9.9 0 010 1.8H6a.9.9 0 01-.9-.9zm3.6-3.6a.9.9 0 000 1.8h.01a.9.9 0 000-1.8H8.7zm-3.6.9a.9.9 0 01.9-.9h.01a.9.9 0 010 1.8H6a.9.9 0 01-.9-.9zm-1.8-.9a.9.9 0 000 1.8h.01a.9.9 0 000-1.8H3.3z" fill="#fff"/></svg>