<svg width="60" height="60" viewBox="0 0 60 60" fill="none" xmlns="http://www.w3.org/2000/svg">
<rect width="60" height="60" rx="10" fill="#0B0A06"/>
<path fill-rule="evenodd" clip-rule="evenodd" d="M31.2528 43.4919V42.0599C31.2528 41.5843 30.8659 41.1969 30.3908 41.1969C29.9157 41.1969 29.5288 41.5843 29.5288 42.0599V43.4919C20.5658 40.0101 15.4623 33.846 13.175 28.1576H14.6591C15.1342 28.1576 15.5211 27.7702 15.5211 27.2945C15.5211 26.8189 15.1342 26.4315 14.6591 26.4315H12.5677C12.1857 25.1957 11.9359 24.0041 11.8086 22.8811C11.2943 18.296 12.7195 14.4465 15.6239 12.5782C17.539 11.3473 19.454 10.7245 21.325 10.7245C25.3804 10.7245 28.3044 13.5982 29.5337 15.0693V16.6974C29.5337 17.173 29.9206 17.5604 30.3957 17.5604C30.8708 17.5604 31.2577 17.173 31.2577 16.6974V15.0693C32.4871 13.5982 35.4111 10.7245 39.4665 10.7245C41.3374 10.7245 43.2525 11.3473 45.1675 12.5782C48.0719 14.4465 49.4972 18.3009 48.9829 22.8811C48.8604 24.0041 48.6058 25.1957 48.2237 26.4315H46.1275C45.6524 26.4315 45.2655 26.8189 45.2655 27.2945C45.2655 27.7702 45.6524 28.1576 46.1275 28.1576H47.6115C45.3193 33.846 40.2158 40.0052 31.2528 43.4919ZM13.2387 12.279C12.2298 13.2696 11.4363 14.5152 10.8829 15.9422C10.8437 16.0403 10.8094 16.1432 10.7702 16.2413L10.7653 16.256L10.7604 16.2707C10.447 17.1878 9.67311 19.929 10.1531 23.548C10.3245 24.7936 10.638 26.1225 11.0984 27.4809C11.1131 27.5446 11.1327 27.6035 11.162 27.6623C12.6755 32.0365 15.7317 36.7736 20.747 40.579C20.2034 41.5303 19.17 43.3497 18.1855 45.1739C17.3431 46.7284 16.6966 47.9838 16.2607 48.9057C15.6484 50.2003 15.1195 51.3233 15.9864 51.8431C16.1186 51.9215 16.246 52 16.4272 52C17.157 52 18.8026 50.7593 25.5126 43.5703C26.8203 44.2421 28.2162 44.86 29.7149 45.4044C29.8129 45.4387 29.9108 45.473 30.0088 45.5073L30.4006 45.6446L31.0814 45.4044C32.5801 44.86 33.976 44.2421 35.2837 43.5703C41.9937 50.7593 43.6394 52 44.3692 52C44.5504 52 44.6777 51.9264 44.8051 51.8431C45.672 51.3233 45.143 50.2003 44.5308 48.9057C44.0949 47.9838 43.4484 46.7284 42.6059 45.1739C41.6166 43.3497 40.5881 41.5303 40.0444 40.579C45.0597 36.7736 48.116 32.0365 49.6294 27.6623C49.6588 27.6035 49.6784 27.5446 49.6931 27.4809C50.1535 26.1176 50.462 24.7936 50.6334 23.548C51.1085 19.9535 50.3445 17.2221 50.031 16.2904C49.4923 14.7506 48.6743 13.4118 47.6066 12.3428C46.5879 11.3228 45.1724 10.4793 43.8696 9.935C38.9865 7.90972 34.2454 9.21904 30.3908 13.4314C28.9754 11.8867 26.3648 9.63096 22.8286 9.10625C20.8597 8.81693 18.9055 9.13568 17.059 9.88106C15.7415 10.4058 14.2673 11.2639 13.2387 12.279ZM42.3268 48.3417C41.3864 46.4979 40.0101 43.997 38.6338 41.5941C38.0608 41.9815 37.4633 42.3542 36.8412 42.7171C38.7906 44.7914 40.8182 46.8755 42.3268 48.3417ZM18.4598 48.3417C19.9683 46.8804 21.996 44.7914 23.9404 42.7171C23.3184 42.3542 22.7209 41.9815 22.1478 41.5941C20.7764 43.997 19.4001 46.4979 18.4598 48.3417Z" fill="#F9C0AC"/>
<path fill-rule="evenodd" clip-rule="evenodd" d="M30.6402 27.5976C30.3953 27.5976 30.1602 27.6418 29.9447 27.7251C28.1864 26.7787 27.8975 26.6463 27.8975 26.6463C27.8975 26.6463 26.8297 25.9597 26.3644 25.0476C26.3498 25.0182 26.3253 24.9741 26.3106 24.9447V24.9398C26.3008 24.9054 26.2959 24.8662 26.2861 24.8319L26.242 24.6259C26.2224 24.5474 26.1832 24.4739 26.1196 24.4199L25.9236 24.2483C25.8796 24.2091 25.8208 24.1993 25.7669 24.214C25.3555 23.807 22.3238 20.8254 15.8244 15.4165C15.7705 15.3724 15.697 15.3528 15.6285 15.3626C15.5599 15.3724 15.5011 15.4067 15.4668 15.4607C15.266 15.75 15.2562 16.3973 16.368 17.8488C17.7688 19.6779 20.5459 22.2623 24.6159 25.5233C24.6061 25.5772 24.6257 25.6361 24.6698 25.6753L24.8657 25.847C24.9245 25.9009 25.0029 25.9352 25.0812 25.9401C25.189 25.9499 25.2918 25.9597 25.3947 25.9745C26.1391 26.1804 26.722 26.7395 27.295 27.323C27.295 27.323 27.5007 27.6074 28.6958 29.2943C28.686 29.3826 28.6762 29.466 28.6762 29.5542C28.6762 30.638 29.5529 31.5207 30.6402 31.5207C31.7226 31.5207 32.6043 30.6429 32.6043 29.5542C32.6043 29.515 32.6042 29.4807 32.5994 29.4415C34.196 27.3622 36.0474 25.5723 36.0474 25.5723C36.0474 25.5723 38.9714 22.9096 39.9167 22.6644C39.9167 22.6644 40.764 23.297 41.5183 22.6546L45.6814 19.1042C45.9851 18.8492 46.2348 18.5354 46.421 18.1872C46.0487 18.3147 45.701 18.5108 45.3973 18.7707L41.3272 22.2377C41.2244 22.326 41.0677 22.3162 40.9795 22.2083C40.8913 22.1053 40.9011 21.9484 41.0089 21.8601L45.079 18.3931C45.3826 18.1381 45.6324 17.8243 45.8185 17.4761C45.4463 17.6036 45.0986 17.8047 44.7949 18.0597L40.7248 21.5267C40.622 21.615 40.4603 21.6052 40.3722 21.4973C40.284 21.3894 40.2938 21.2325 40.4016 21.1442L44.4716 17.6772C44.7753 17.4222 45.0251 17.1083 45.2112 16.7602C44.839 16.8877 44.4912 17.0887 44.1876 17.3437L40.1175 20.8107C40.0146 20.899 39.8579 20.8892 39.7697 20.7813C39.6816 20.6783 39.6914 20.5214 39.7991 20.4331L43.8692 16.9661C44.1729 16.7111 44.4227 16.3973 44.6088 16.0491C44.2365 16.1766 43.8888 16.3728 43.5851 16.6327L39.422 20.183C38.6677 20.8254 39.1575 21.767 39.1575 21.767C38.7608 22.6644 35.6703 25.1261 35.6703 25.1261C35.6703 25.1261 33.8777 26.4992 31.5561 27.8134C31.2769 27.681 30.9684 27.5976 30.6402 27.5976Z" fill="#F9C0AC"/>
</svg>
