<svg width="622" height="500" viewBox="0 0 622 500" fill="none" xmlns="http://www.w3.org/2000/svg">
<path d="M578.422 300.964C578.439 300.722 578.464 300.499 578.448 300.266C578.435 300.137 578.435 300.007 578.42 299.886C578.381 299.677 578.296 299.494 578.229 299.308C578.162 299.073 578.096 298.852 577.993 298.626C577.929 298.509 577.893 298.4 577.823 298.29C577.714 298.118 577.561 297.978 577.435 297.818C577.282 297.634 577.145 297.45 576.951 297.29C576.848 297.189 576.742 297.104 576.628 297.013C576.58 296.982 576.556 296.924 576.512 296.895C576.369 296.8 576.201 296.785 576.053 296.711C575.913 296.634 575.803 296.514 575.65 296.455L536.682 281.24L555.574 279.179C555.602 279.173 555.618 279.16 555.64 279.157C555.982 279.12 556.291 278.965 556.607 278.847C556.84 278.767 557.093 278.723 557.309 278.608C557.493 278.502 557.632 278.319 557.806 278.184C558.082 277.96 558.383 277.769 558.603 277.495C558.706 277.367 558.753 277.19 558.839 277.045C559.062 276.694 559.274 276.336 559.39 275.935C559.39 275.935 559.411 275.902 559.417 275.881L572.964 225.052C572.978 225 572.961 224.948 572.974 224.9C573.041 224.602 573.028 224.309 573.03 224.011C573.036 223.809 573.108 223.621 573.087 223.408C573.09 223.383 573.069 223.364 573.066 223.342C573.057 223.279 573.038 223.222 573.027 223.163C572.982 222.896 572.855 222.645 572.763 222.391C572.68 222.153 572.639 221.886 572.515 221.671C572.485 221.62 572.435 221.581 572.41 221.531C572.379 221.484 572.378 221.423 572.345 221.384L539.454 172.572C539.342 172.412 539.17 172.314 539.043 172.172C538.821 171.922 538.608 171.67 538.333 171.47C538.108 171.31 537.87 171.216 537.63 171.099C537.355 170.965 537.097 170.83 536.805 170.76C536.502 170.683 536.206 170.694 535.9 170.676C535.687 170.667 535.483 170.59 535.26 170.616L480.528 176.526L437.754 145.014L447.438 108.679C447.452 108.627 447.435 108.579 447.446 108.534C447.501 108.315 447.488 108.104 447.504 107.88C447.524 107.63 447.548 107.394 447.531 107.148C447.52 107.028 447.523 106.903 447.503 106.785C447.462 106.584 447.378 106.397 447.316 106.208C447.243 105.963 447.174 105.737 447.062 105.508C447.006 105.398 446.975 105.286 446.908 105.181C446.807 105.011 446.648 104.878 446.518 104.717C446.366 104.529 446.219 104.334 446.026 104.17C445.922 104.072 445.829 103.987 445.714 103.9C445.666 103.869 445.648 103.821 445.605 103.788C445.459 103.688 445.285 103.663 445.129 103.586C444.989 103.51 444.883 103.39 444.73 103.332L371.284 74.3279C371.16 74.2771 371.024 74.301 370.9 74.2634C370.591 74.1759 370.293 74.1301 369.983 74.1114C369.73 74.0907 369.478 74.0792 369.227 74.0981C368.902 74.1359 368.598 74.2096 368.286 74.3115C368.05 74.3864 367.832 74.4615 367.612 74.5752C367.332 74.7162 367.093 74.9024 366.842 75.0986C366.627 75.2742 366.431 75.4592 366.246 75.6859C366.157 75.7917 366.033 75.8534 365.953 75.9746L346.088 105.174L272.898 94.5493L247.928 57.2277C247.815 57.0677 247.643 56.9694 247.523 56.8204C247.301 56.5702 247.087 56.3182 246.814 56.1148C246.597 55.9569 246.355 55.8615 246.114 55.7447C245.84 55.6102 245.575 55.4698 245.28 55.3946C244.985 55.3195 244.673 55.3262 244.375 55.3108C244.162 55.3009 243.969 55.2317 243.747 55.2541L172.939 62.5794C172.914 62.577 172.895 62.5979 172.872 62.6046C172.797 62.6104 172.736 62.6286 172.659 62.6424C172.404 62.6906 172.17 62.8091 171.918 62.8968C171.883 62.9134 171.85 62.926 171.812 62.9375C171.611 63.013 171.386 63.0475 171.2 63.1486C171.133 63.1869 171.09 63.2358 171.028 63.2752C170.98 63.3099 170.92 63.3068 170.881 63.3395C170.713 63.4541 170.616 63.6398 170.465 63.7679C170.279 63.9338 170.057 64.0687 169.906 64.2616C169.85 64.3285 169.826 64.4 169.782 64.4702C169.617 64.6983 169.526 64.9459 169.406 65.1992C169.308 65.4062 169.172 65.5942 169.111 65.8201L169.075 65.8924L155.528 116.721C155.518 116.758 155.534 116.796 155.524 116.833C155.437 117.177 155.468 117.514 155.454 117.856C155.458 118.099 155.41 118.346 155.443 118.579C155.479 118.831 155.605 119.055 155.691 119.299C155.793 119.612 155.88 119.934 156.049 120.221C156.071 120.253 156.071 120.301 156.093 120.332L156.932 121.635L146.602 126.661L89.8931 104.085C89.7675 104.039 89.6328 104.059 89.512 104.026C89.157 103.917 88.806 103.875 88.4446 103.855C88.2728 103.852 88.1062 103.846 87.9352 103.856C87.5184 103.882 87.1319 103.973 86.7275 104.115C86.574 104.173 86.4306 104.225 86.2819 104.297C85.9569 104.465 85.6678 104.659 85.3829 104.903C85.1843 105.065 85.0076 105.242 84.8417 105.444C84.7418 105.56 84.6092 105.637 84.5243 105.761L57.9668 145.579C57.8725 145.722 57.8537 145.89 57.7755 146.038C57.6995 146.177 57.5806 146.284 57.5215 146.441C57.4938 146.528 57.5098 146.597 57.4741 146.683C57.4505 146.772 57.3879 146.828 57.3653 146.913L43.758 197.968C43.701 198.182 43.7431 198.397 43.7164 198.61C43.6822 198.916 43.6392 199.207 43.6586 199.507C43.6843 199.799 43.7671 200.055 43.8496 200.328C43.9198 200.615 43.9903 200.884 44.1286 201.142C44.2498 201.4 44.4314 201.609 44.6025 201.841C44.7828 202.071 44.9378 202.298 45.1591 202.488C45.3925 202.68 45.6571 202.821 45.9305 202.977C46.1167 203.087 46.2578 203.238 46.4646 203.319L85.6256 218.591L66.7499 220.653C66.7225 220.658 66.7062 220.671 66.6839 220.674C66.6211 220.683 66.5642 220.702 66.5033 220.72C66.2459 220.763 66.0145 220.887 65.7665 220.976C65.7472 220.983 65.726 220.982 65.7147 220.992C65.4901 221.074 65.2388 221.11 65.0206 221.233C64.9707 221.258 64.9315 221.308 64.8816 221.334C64.8346 221.364 64.775 221.361 64.735 221.398C64.5602 221.52 64.4563 221.699 64.3014 221.843C64.1127 222.017 63.8915 222.135 63.7387 222.336C63.6842 222.395 63.6659 222.463 63.6265 222.531C63.4621 222.759 63.3681 223.014 63.2478 223.272C63.1513 223.488 63.013 223.667 62.9496 223.905C62.9496 223.905 62.9279 223.938 62.9225 223.958L49.3754 274.787C49.3615 274.839 49.3778 274.891 49.3649 274.94C49.292 275.262 49.3091 275.586 49.3038 275.913C49.3078 276.174 49.2642 276.435 49.3038 276.674C49.349 276.942 49.4716 277.178 49.5595 277.431C49.6689 277.733 49.764 278.039 49.9305 278.305C49.96 278.356 49.9622 278.413 49.9909 278.451L82.8819 327.262C82.9323 327.332 82.9964 327.367 83.0479 327.432C83.226 327.671 83.4259 327.876 83.6472 328.065C83.7507 328.162 83.829 328.257 83.9398 328.343C84.0088 328.392 84.0587 328.431 84.1287 328.476C84.5255 328.751 84.9636 328.969 85.4426 329.098C85.9618 329.238 86.5178 329.288 87.0868 329.225L141.819 323.316L184.371 354.754L174.684 391.101C174.628 391.31 174.673 391.513 174.645 391.73C174.609 392.045 174.566 392.336 174.592 392.628C174.614 392.915 174.692 393.174 174.769 393.45C174.842 393.729 174.919 394.005 175.048 394.264C175.18 394.516 175.343 394.729 175.516 394.953C175.696 395.187 175.863 395.418 176.088 395.608C176.309 395.797 176.561 395.939 176.818 396.09C177.005 396.197 177.149 396.352 177.363 396.44L250.751 425.649C250.919 425.712 251.077 425.767 251.246 425.813L251.25 425.814C251.262 425.817 251.267 425.814 251.28 425.817C251.764 425.943 252.261 425.969 252.75 425.932C252.821 425.926 252.882 425.925 252.944 425.916C253.079 425.896 253.205 425.843 253.344 425.807C253.632 425.746 253.911 425.67 254.183 425.557C254.3 425.507 254.405 425.47 254.511 425.412C254.627 425.348 254.715 425.277 254.824 425.207C255.035 425.065 255.232 424.906 255.422 424.728C255.547 424.615 255.669 424.496 255.788 424.36C255.857 424.279 255.928 424.207 255.992 424.112C256.031 424.062 256.088 424.026 256.122 423.979L275.822 394.545L349.106 405.64L374.436 442.63C374.481 442.689 374.54 442.727 374.585 442.782C374.756 443.014 374.958 443.211 375.176 443.4C375.278 443.501 375.366 443.593 375.475 443.684C375.537 443.726 375.59 443.771 375.652 443.813C376.055 444.082 376.493 444.299 376.968 444.427C377.487 444.567 378.035 444.615 378.599 444.555L449.176 437.176C449.201 437.179 449.223 437.159 449.251 437.153C449.62 437.11 449.954 436.958 450.295 436.829C450.496 436.754 450.722 436.715 450.91 436.61C451.16 436.466 451.346 436.252 451.565 436.06C451.784 435.873 452.04 435.721 452.21 435.503C452.349 435.338 452.413 435.113 452.511 434.923C452.699 434.606 452.893 434.3 453.002 433.94C453.002 433.94 453.026 433.899 453.032 433.874L466.579 383.045L466.583 382.934C466.658 382.639 466.629 382.341 466.647 382.048C466.656 381.834 466.726 381.637 466.702 381.418C466.697 381.391 466.685 381.37 466.679 381.343C466.675 381.294 466.668 381.24 466.658 381.195C466.622 380.943 466.496 380.719 466.41 380.475C466.388 380.395 466.364 380.324 466.332 380.251C466.257 380.062 466.238 379.858 466.137 379.688C466.111 379.638 466.079 379.599 466.048 379.552C466.026 379.52 466.026 379.472 466.004 379.44L465.165 378.138L475.495 373.112L532.21 395.663C532.375 395.725 532.533 395.78 532.698 395.825L532.702 395.826C532.714 395.829 532.719 395.826 532.731 395.829C533.215 395.955 533.713 395.981 534.202 395.944C534.273 395.938 534.333 395.937 534.404 395.93C534.539 395.91 534.657 395.855 534.8 395.82C535.086 395.768 535.366 395.687 535.638 395.575C535.756 395.52 535.866 395.48 535.977 395.42C536.093 395.356 536.181 395.284 536.286 395.213C536.493 395.083 536.685 394.931 536.867 394.751C537.002 394.632 537.129 394.511 537.251 394.379C537.323 394.286 537.394 394.214 537.458 394.119C537.489 394.067 537.548 394.04 537.578 393.992L564.136 354.173C564.277 353.965 564.313 353.72 564.414 353.5C564.516 353.281 564.669 353.094 564.736 352.843L578.343 301.788C578.358 301.732 578.343 301.676 578.349 301.621C578.408 301.399 578.396 301.184 578.421 300.962L578.422 300.964ZM545.621 335.368L490.524 313.222C490.485 313.207 490.439 313.217 490.4 313.202C490.32 313.176 490.244 313.155 490.163 313.134C490.108 313.114 490.068 313.069 490.016 313.055C489.791 312.994 489.568 313.038 489.346 313.013C489.292 313.003 489.236 312.988 489.184 312.987C489.03 312.984 488.871 312.915 488.719 312.922C488.62 312.921 488.531 312.945 488.437 312.958C488.139 312.991 487.876 313.088 487.597 313.164C487.4 313.224 487.194 313.237 487.011 313.322C486.969 313.337 486.925 313.338 486.892 313.35L434.132 339.088C434.023 339.141 433.964 339.233 433.865 339.297C433.77 339.345 433.663 339.355 433.574 339.418C433.416 339.522 433.328 339.693 433.183 339.814C432.956 340.021 432.73 340.22 432.551 340.47C432.377 340.704 432.257 340.944 432.132 341.2C432.002 341.463 431.885 341.708 431.808 341.995C431.738 342.274 431.715 342.553 431.696 342.838C431.68 343.123 431.671 343.402 431.698 343.686C431.736 343.981 431.828 344.253 431.922 344.546C431.989 344.733 431.976 344.928 432.071 345.105C432.118 345.204 432.211 345.259 432.265 345.347C432.324 345.45 432.336 345.566 432.396 345.664L454.507 378.194L393.852 384.536L368.924 348.143C368.893 348.096 368.846 348.079 368.821 348.042C368.812 348.026 368.8 348.023 368.792 348.008C368.698 347.888 368.574 347.82 368.483 347.708C368.263 347.468 368.059 347.227 367.788 347.046C367.548 346.877 367.285 346.78 367.01 346.663C366.802 346.568 366.623 346.416 366.39 346.353C366.325 346.336 366.259 346.357 366.203 346.342C366.125 346.325 366.066 346.305 365.989 346.284C365.952 346.279 365.928 346.255 365.898 346.255L287.877 334.433C287.661 334.401 287.467 334.466 287.244 334.462C286.984 334.465 286.724 334.421 286.462 334.463C286.376 334.479 286.297 334.501 286.216 334.513C285.975 334.574 285.771 334.692 285.546 334.778C285.322 334.874 285.085 334.935 284.872 335.055C284.798 335.109 284.723 335.145 284.653 335.199C284.456 335.337 284.307 335.525 284.134 335.704C283.949 335.883 283.757 336.035 283.605 336.249C283.575 336.297 283.517 336.32 283.489 336.36L264.224 365.15L199.411 339.349L217.7 312.471C217.872 312.215 217.931 311.928 218.045 311.661C218.153 311.404 218.306 311.169 218.364 310.903C218.429 310.61 218.391 310.314 218.4 310.023C218.403 309.738 218.447 309.46 218.399 309.184C218.349 308.902 218.214 308.649 218.115 308.389C218.015 308.116 217.949 307.83 217.79 307.584C217.629 307.316 217.375 307.118 217.161 306.887C216.982 306.7 216.857 306.472 216.639 306.318L216.525 306.231L159.362 264.302L159.358 264.301L159.249 264.224C159.081 264.092 158.877 264.063 158.689 263.96C158.401 263.809 158.139 263.627 157.831 263.539C157.806 263.532 157.79 263.515 157.765 263.508C157.741 263.502 157.722 263.51 157.698 263.503C157.367 263.418 157.043 263.452 156.715 263.437C156.514 263.431 156.326 263.358 156.117 263.38L102.342 269.18L75.1228 228.784L104.818 225.538L104.822 225.539L107.432 225.313C107.449 225.313 107.466 225.296 107.484 225.296C107.509 225.299 107.525 225.303 107.551 225.302L123.995 223.432C124.284 223.398 124.511 223.26 124.775 223.175C125.051 223.094 125.34 223.046 125.586 222.918C125.848 222.777 126.044 222.574 126.264 222.396C126.485 222.213 126.728 222.063 126.913 221.84C127.1 221.622 127.197 221.355 127.337 221.107C127.477 220.855 127.645 220.628 127.73 220.344C127.827 220.045 127.82 219.728 127.851 219.421C127.874 219.172 127.962 218.936 127.945 218.677L124.749 170.843C124.747 170.786 124.716 170.739 124.703 170.692C124.677 170.417 124.583 170.188 124.518 169.929C124.45 169.698 124.416 169.469 124.317 169.243C124.283 169.161 124.241 169.093 124.206 169.01C124.091 168.797 123.911 168.628 123.757 168.431C123.616 168.246 123.497 168.032 123.32 167.868C123.251 167.806 123.185 167.745 123.114 167.687C122.937 167.54 122.723 167.456 122.524 167.342C122.452 167.305 122.398 167.265 122.328 167.22C122.181 167.142 122.071 167.021 121.914 166.962L121.785 166.91L121.733 166.895L68.4977 145.952L89.9518 113.787L145.134 135.731C145.299 135.793 145.456 135.848 145.621 135.893L145.625 135.894C145.666 135.904 145.708 135.89 145.749 135.901C146.227 136.017 146.719 136.063 147.219 136.016C147.605 135.977 147.965 135.841 148.324 135.708C148.468 135.652 148.609 135.656 148.739 135.591L148.769 135.573C148.769 135.573 148.789 135.565 148.798 135.564L165.364 127.501C165.368 127.502 165.382 127.502 165.382 127.502L201.718 109.926C201.836 109.871 201.903 109.764 202.01 109.702C202.099 109.643 202.199 109.64 202.286 109.59C202.443 109.485 202.526 109.322 202.671 109.197C202.907 108.992 203.124 108.791 203.301 108.549C203.48 108.316 203.601 108.072 203.725 107.816C203.853 107.561 203.973 107.308 204.039 107.027C204.114 106.745 204.144 106.472 204.159 106.186C204.179 105.902 204.193 105.624 204.16 105.326C204.121 105.034 204.035 104.774 203.944 104.485C203.878 104.295 203.892 104.099 203.798 103.918C203.742 103.804 203.645 103.747 203.586 103.645C203.527 103.543 203.524 103.438 203.463 103.344L181.315 70.7441L241.98 64.4738L266.552 101.187L266.569 101.217C266.632 101.308 266.721 101.362 266.793 101.446C267.057 101.785 267.328 102.109 267.68 102.36C268.09 102.651 268.543 102.86 269.019 103.001C269.059 103.012 269.089 103.046 269.129 103.057L269.133 103.058C269.302 103.104 269.479 103.138 269.656 103.169L347.572 114.478C347.685 114.491 347.782 114.452 347.892 114.46C348.272 114.489 348.645 114.465 349.022 114.393C349.192 114.357 349.359 114.345 349.514 114.296C349.961 114.157 350.39 113.957 350.784 113.692C350.823 113.659 350.879 113.644 350.917 113.615C351.294 113.332 351.642 112.98 351.921 112.567L371.351 84.0123L436.265 109.632L417.831 136.956L417.826 136.972C417.826 136.972 417.808 136.993 417.803 136.996C417.605 137.301 417.535 137.628 417.419 137.951C417.331 138.183 417.19 138.387 417.142 138.616C417.081 138.959 417.131 139.288 417.144 139.629C417.154 139.865 417.111 140.108 417.152 140.344C417.211 140.641 417.373 140.905 417.486 141.178C417.59 141.435 417.647 141.706 417.803 141.933C417.976 142.205 418.248 142.399 418.484 142.631C418.677 142.813 418.808 143.034 419.034 143.19L419.05 143.194C419.061 143.202 419.062 143.211 419.073 143.218L430.071 150.5L476.629 184.795C476.669 184.823 476.722 184.833 476.766 184.862C477.178 185.146 477.625 185.379 478.12 185.512C478.611 185.644 479.119 185.664 479.617 185.625C479.664 185.625 479.715 185.647 479.76 185.638L533.536 179.838L560.754 220.221L511.676 225.521C511.409 225.549 511.189 225.68 510.94 225.756C510.637 225.842 510.33 225.894 510.064 226.034C509.817 226.166 509.631 226.363 509.419 226.543C509.185 226.727 508.927 226.882 508.735 227.12C508.566 227.317 508.489 227.555 508.356 227.779C508.197 228.052 508.014 228.318 507.916 228.62C507.836 228.871 507.85 229.143 507.819 229.407C507.782 229.708 507.681 229.988 507.709 230.303L511.191 277.971C511.213 278.275 511.317 278.55 511.39 278.825C511.434 278.966 511.44 279.106 511.492 279.237C511.683 279.734 511.942 280.184 512.286 280.579C512.364 280.674 512.469 280.732 512.552 280.811C512.856 281.109 513.189 281.367 513.563 281.567C513.635 281.604 513.675 281.68 513.752 281.714L516.111 282.833C516.197 282.869 516.269 282.889 516.354 282.925C516.378 282.931 516.387 282.947 516.406 282.956L567.231 302.796L545.621 335.368Z" fill="#181816"/>
</svg>
