<svg width="38" height="38" viewBox="0 0 38 38" fill="none" xmlns="http://www.w3.org/2000/svg">
<path d="M19 20.4166L30.5 37.6666H7.50001L19 20.4166ZM16.9683 15.7399C16.6859 15.4767 16.4593 15.1593 16.3022 14.8066C16.1451 14.454 16.0606 14.0733 16.0537 13.6872C16.0469 13.3012 16.1179 12.9178 16.2625 12.5598C16.4071 12.2018 16.6224 11.8766 16.8954 11.6036C17.1684 11.3306 17.4936 11.1154 17.8516 10.9708C18.2095 10.8262 18.593 10.7552 18.979 10.762C19.365 10.7688 19.7457 10.8533 20.0984 11.0104C20.4511 11.1675 20.7685 11.3941 21.0317 11.6766C21.5395 12.2216 21.816 12.9424 21.8029 13.6872C21.7897 14.4321 21.488 15.1427 20.9612 15.6695C20.4345 16.1962 19.7238 16.4979 18.979 16.5111C18.2342 16.5242 17.5134 16.2477 16.9683 15.7399ZM6.12193 0.833984L8.83401 3.54607C6.13853 6.24186 4.62425 9.89795 4.62425 13.7102C4.62425 17.5224 6.13853 21.1784 8.83401 23.8742L6.12193 26.5863C4.43085 24.8955 3.0894 22.8881 2.17418 20.6788C1.25896 18.4695 0.787903 16.1015 0.787903 13.7102C0.787903 11.3188 1.25896 8.95082 2.17418 6.74152C3.0894 4.53221 4.43085 2.52482 6.12193 0.833984ZM31.8743 0.833984C33.5653 2.52482 34.9068 4.53221 35.822 6.74152C36.7372 8.95082 37.2083 11.3188 37.2083 13.7102C37.2083 16.1015 36.7372 18.4695 35.822 20.6788C34.9068 22.8881 33.5653 24.8955 31.8743 26.5863L29.1622 23.8742C31.8577 21.1784 33.3719 17.5224 33.3719 13.7102C33.3719 9.89795 31.8577 6.24186 29.1622 3.54607L31.8743 0.833984ZM11.5442 6.25432L14.2543 8.96448C13.6313 9.58742 13.1372 10.327 12.8 11.1409C12.4628 11.9548 12.2893 12.8272 12.2893 13.7082C12.2893 14.5892 12.4628 15.4616 12.8 16.2756C13.1372 17.0895 13.6313 17.8291 14.2543 18.452L11.5442 21.1622C9.56734 19.1852 8.45677 16.504 8.45677 13.7082C8.45677 10.9125 9.56734 8.23125 11.5442 6.25432ZM26.452 6.25432C28.4289 8.23125 29.5394 10.9125 29.5394 13.7082C29.5394 16.504 28.4289 19.1852 26.452 21.1622L23.7418 18.452C24.3648 17.8291 24.859 17.0895 25.1962 16.2756C25.5334 15.4616 25.7069 14.5892 25.7069 13.7082C25.7069 12.8272 25.5334 11.9548 25.1962 11.1409C24.859 10.327 24.3648 9.58742 23.7418 8.96448L26.452 6.25432Z" fill="#EB4545"/>
</svg>
