<svg width="72" height="72" fill="none" xmlns="http://www.w3.org/2000/svg"><g filter="url(#filter0_b_1270_14877)"><circle cx="36" cy="36" r="36" fill="#fff" fill-opacity=".1"/><circle cx="36" cy="36" r="35.308" stroke="#fff" stroke-width="1.385"/></g><path d="M39.613 30.44v-1.328c0-4.127-2.866-5.705-6.356-3.517l-4.043 2.534a2.902 2.902 0 01-1.467.415h-1.98c-2.77 0-4.154 1.384-4.154 4.154v5.538c0 2.77 1.384 4.154 4.154 4.154h2.769m4.722 2.95c3.489 2.187 6.355.594 6.355-3.518v-5.04m5.275-4.887a9.24 9.24 0 01-1.121 9.11m4.362-11.353A14.982 14.982 0 0146.3 44.467m3.005-22.847L21.613 49.314" stroke="#fff" stroke-width="2.077" stroke-linecap="round" stroke-linejoin="round"/><defs><filter id="filter0_b_1270_14877" x="-54" y="-54" width="180" height="180" filterUnits="userSpaceOnUse" color-interpolation-filters="sRGB"><feFlood flood-opacity="0" result="BackgroundImageFix"/><feGaussianBlur in="BackgroundImageFix" stdDeviation="27"/><feComposite in2="SourceAlpha" operator="in" result="effect1_backgroundBlur_1270_14877"/><feBlend in="SourceGraphic" in2="effect1_backgroundBlur_1270_14877" result="shape"/></filter></defs></svg>