<svg width="72" height="72" fill="none" xmlns="http://www.w3.org/2000/svg"><g filter="url(#filter0_b_1386_9096)"><circle cx="36" cy="36" r="36" fill="#fff" fill-opacity=".1"/><circle cx="36" cy="36" r="35.308" stroke="#fff" stroke-width="1.385"/></g><path d="M21.769 32.75v5.5c0 2.75 1.385 4.125 4.154 4.125h1.98c.512 0 1.024.151 1.467.413l4.043 2.516c3.49 2.172 6.356.591 6.356-3.493V29.19c0-4.098-2.866-5.665-6.356-3.493l-4.043 2.517a2.918 2.918 0 01-1.467.412h-1.98c-2.77 0-4.154 1.375-4.154 4.125z" stroke="#fff" stroke-width="2.063"/><path d="M43.922 30a9.107 9.107 0 010 11m2.534-14.437a14.809 14.809 0 010 17.875" stroke="#fff" stroke-width="2.063" stroke-linecap="round" stroke-linejoin="round"/><defs><filter id="filter0_b_1386_9096" x="-54" y="-54" width="180" height="180" filterUnits="userSpaceOnUse" color-interpolation-filters="sRGB"><feFlood flood-opacity="0" result="BackgroundImageFix"/><feGaussianBlur in="BackgroundImageFix" stdDeviation="27"/><feComposite in2="SourceAlpha" operator="in" result="effect1_backgroundBlur_1386_9096"/><feBlend in="SourceGraphic" in2="effect1_backgroundBlur_1386_9096" result="shape"/></filter></defs></svg>