<svg width="394" height="582" fill="none" xmlns="http://www.w3.org/2000/svg"><path d="M374.507 710.427c8.08 4.04 15.486-13.271 16.69-18.486 8.631-37.4-17.482-71.213-37.571-99.691-13.427-19.034-30.806-26.52-51.866-34.802-25.883-10.178-47.334-29.165-65.413-50.444-11.074-13.034-20.992-27.515-29.488-42.361-5.041-8.809-14.466-24.847-11.451-35.4 2.525-8.838 6.163-16.234 9.281-24.549 10.266-27.377-17.195-50.572-36.748-63.991-35.04-24.046-71.859-45.105-102.984-74.693-16.793-15.964-32.634-32.772-48.348-49.695-8.743-9.416-28.463-31.88-20.058-44.607 5.497-8.324-17.047-24.977-13.715-34.022 3.248-8.815 18.951-13.861 22.627-22.627C11.023 101.8-13.852 67.64-10.8 52.833-8.07 39.585 48.446 7.182 48.243-6.21c-.767-50.618.21-54.344 9.679-103.79" stroke="#fff" stroke-opacity=".15"/></svg>