<svg width="148" height="148" viewBox="0 0 148 148" fill="none" xmlns="http://www.w3.org/2000/svg">
<g clip-path="url(#clip0_2255_44481)">
<path d="M60.8601 107.139C59.7882 100.732 57.7583 94.5742 56.8625 88.1029C56.0551 82.2821 55.76 76.4374 55.8334 70.5611C54.9801 70.9963 54.1345 71.428 53.2812 71.8633C57.9441 75.288 62.6147 78.7092 67.2812 82.1416C67.976 82.6495 70.1571 81.4735 69.9501 80.5886C67.3147 69.264 66.5524 57.767 67.5318 46.1963L64.8543 47.3701C70.49 56.5291 76.1179 65.6918 81.7613 74.8472C82.2585 75.6529 84.4729 74.368 84.5232 73.6341C85.0773 65.7016 87.3395 58.3653 91.3288 51.4855C90.4213 51.8245 89.5139 52.1636 88.614 52.499C92.1042 63.7522 95.755 74.9491 99.6239 86.0724C100.454 85.5266 101.28 84.9731 102.11 84.4272C84.3991 79.8426 67.1179 96.164 57.2469 108.852C55.9388 110.537 59.6772 109.514 60.3571 108.627C69.1402 97.053 83.9705 82.211 99.9744 86.2829C100.641 86.4489 102.78 85.5447 102.46 84.6377C98.5339 73.5318 94.814 62.3671 91.3735 51.1001C91.0846 50.1599 88.8814 51.7294 88.6587 52.1137C84.5674 59.1157 82.2903 66.5805 81.7357 74.6722C82.6601 74.2692 83.5733 73.8621 84.4977 73.4591C78.839 64.3107 73.1726 55.166 67.5063 46.0212C67.0198 45.2386 64.8822 46.4877 64.8288 47.195C63.8718 58.9141 64.7031 70.5192 67.1558 82.0131C68.0455 81.4954 68.9351 80.9777 69.8247 80.4601C65.1117 77.0681 60.3986 73.6761 55.6819 70.2765C55.0649 69.8351 53.1316 70.8208 53.1298 71.5787C53.091 83.2623 53.9267 97.3423 59.238 107.971C59.4932 108.478 60.9521 107.657 60.8601 107.139Z" fill="white"/>
<path d="M62.0361 38.9541C60.4066 33.5353 58.1979 27.536 55.4603 22.5872C55.0593 21.8675 52.8025 23.0414 53.0198 23.8281C54.5653 29.2673 57.1885 35.0733 59.853 40.0655C60.1992 40.7079 62.2441 39.6609 62.0361 38.9541Z" fill="white"/>
<path d="M86.587 40.5166C88.8823 37.2403 90.0028 33.1284 91.5397 29.4486C93.2068 25.4464 94.9485 21.4841 96.6908 17.503C97.1999 16.3495 94.2619 17.3456 93.8947 18.1618C92.1156 22.1041 90.4414 26.0909 88.801 30.0901C87.4894 33.2909 84.9783 37.3875 85.027 40.8795C85.0319 41.5315 86.437 40.7361 86.6023 40.5094L86.587 40.5166Z" fill="white"/>
<path d="M111.967 73.4748C118.136 74.0944 124.818 72.6889 130.661 70.8057C131.578 70.5087 133.098 68.5756 131.211 69.119C125.221 70.8466 119.342 71.569 113.164 72.272C112.826 72.3082 111.113 73.3871 111.956 73.4707L111.967 73.4748Z" fill="white"/>
<path d="M106.292 97.17C107.846 99.3993 110.569 100.83 112.751 102.402C115.342 104.27 117.924 106.159 120.582 107.93C121.405 108.472 124.246 106.726 123.365 106.081C120.931 104.309 118.41 102.652 115.902 100.98C113.367 99.2924 110.839 97.1995 107.952 96.1996C107.606 96.0802 105.92 96.633 106.292 97.17Z" fill="white"/>
<path d="M82.8927 105.578C82.6419 109.21 83.7371 112.961 84.3558 116.533C85.0465 120.52 85.3396 124.777 86.6409 128.61C86.9109 129.41 89.288 128.133 89.2918 127.439C89.3185 123.828 88.427 120.112 87.7505 116.577C87.0218 112.729 86.6679 108.202 84.6996 104.782C84.3922 104.243 82.9246 105.105 82.8927 105.578Z" fill="white"/>
<path d="M55.9788 115.211C53.3247 117.056 51.6088 119.932 49.8045 122.577C47.7949 125.524 45.4469 128.647 44.233 132.017C43.8022 133.218 46.3093 132.04 46.6083 131.639C48.6655 128.894 50.2724 125.845 52.1735 122.987C53.2405 121.386 54.3449 119.806 55.4677 118.244C56.2357 117.185 57.1653 116.453 57.1637 115.126C57.1664 114.611 56.1565 115.091 55.9865 115.208L55.9788 115.211Z" fill="white"/>
<path d="M44.2897 88.2355C37.5486 89.5749 30.8407 91.0858 24.0924 92.4098C22.9873 92.626 21.0409 94.7862 23.124 94.2822C29.9497 92.6229 36.8086 91.1351 43.6414 89.4912C44.3206 89.3241 45.7453 87.9493 44.2897 88.2355Z" fill="white"/>
<path d="M45.0834 60.6365C43.5481 58.8473 40.5385 58.0261 38.4318 57.0361C35.8348 55.8168 33.2184 54.6159 30.6578 53.3142C29.4241 52.693 26.5906 55.136 27.4309 55.4546C30.2295 56.5051 32.9985 57.6722 35.7684 58.8015C38.3061 59.8335 40.9009 61.2688 43.6322 61.5936C43.9004 61.6275 45.4508 61.0634 45.0834 60.6365Z" fill="white"/>
<path d="M104.42 56.1027C109.856 52.465 115.745 49.0178 120.75 44.796C121.956 43.7753 120.303 43.6582 119.545 44.096C113.816 47.3467 108.483 51.5444 103.122 55.3623C101.402 56.5849 103.297 56.8603 104.424 56.1104L104.42 56.1027Z" fill="white"/>
</g>
<defs>
<clipPath id="clip0_2255_44481">
<rect width="110.834" height="110.41" fill="white" transform="translate(0.490234 47.5938) rotate(-25)"/>
</clipPath>
</defs>
</svg>
