<svg width="23" height="23" viewBox="0 0 23 23" fill="none" xmlns="http://www.w3.org/2000/svg">
<path d="M21.2571 2.32853H17.5544C16.9578 2.32853 16.4742 1.84495 16.4742 1.24843C16.4742 0.950112 16.2363 0.708252 15.9428 0.708252C15.6493 0.708252 15.4113 0.950112 15.4113 1.24843V1.26569C15.4113 1.85268 14.9354 2.32853 14.3484 2.32853C13.7615 2.32853 13.2856 1.85268 13.2856 1.26569V1.24843C13.2856 0.950112 13.0478 0.708252 12.7543 0.708252C12.4608 0.708252 12.2229 0.950112 12.2229 1.24843V1.26569C12.2229 1.85268 11.747 2.32853 11.16 2.32853C10.573 2.32853 10.0972 1.85268 10.0972 1.26569V1.24843C10.0972 0.950112 9.85921 0.708252 9.5657 0.708252C9.27219 0.708252 9.03422 0.950112 9.03422 1.24843V1.26569C9.03422 1.85268 8.55837 2.32853 7.97137 2.32853C7.38438 2.32853 6.90853 1.85268 6.90853 1.26569V1.24843C6.90853 0.950112 6.67056 0.708252 6.37705 0.708252C6.08376 0.708252 5.84579 0.950112 5.84579 1.24843C5.84579 1.84495 5.36221 2.32853 4.76568 2.32853H1.06294C0.780999 2.32853 0.510629 2.44251 0.311391 2.64502C0.112142 2.84753 0 3.12233 0 3.40887V21.2331C0 21.5197 0.112142 21.7945 0.311391 21.997C0.51064 22.1995 0.781009 22.3135 1.06294 22.3135H21.2572C21.5391 22.3135 21.8095 22.1995 22.0087 21.997C22.208 21.7945 22.3199 21.5197 22.3199 21.2331V3.40887C22.3199 3.12232 22.208 2.84752 22.0087 2.64502C21.8095 2.44251 21.5391 2.32853 21.2572 2.32853H21.2571ZM4.76556 3.40887C5.36221 3.40886 5.84589 3.89254 5.84589 4.48919V4.48898C5.84589 4.78729 6.08385 5.02915 6.37715 5.02915C6.67066 5.02915 6.90862 4.78729 6.90862 4.48898V4.47171C6.90862 3.88472 7.38448 3.40887 7.97147 3.40887C8.55847 3.40887 9.03432 3.88472 9.03432 4.47171V4.48919V4.48898C9.03432 4.78729 9.27228 5.02915 9.56579 5.02915C9.8593 5.02915 10.0973 4.78729 10.0973 4.48898V4.47172C10.0973 3.88472 10.5731 3.40887 11.1601 3.40887C11.7471 3.40887 12.223 3.88472 12.223 4.47172V4.4892V4.48899C12.223 4.7873 12.4609 5.02916 12.7544 5.02916C13.0479 5.02916 13.2857 4.7873 13.2857 4.48899V4.47172C13.2857 3.88473 13.7616 3.40888 14.3485 3.40888C14.9355 3.40888 15.4114 3.88473 15.4114 4.47172V4.4892V4.48899C15.4114 4.7873 15.6494 5.02916 15.9429 5.02916C16.2364 5.02916 16.4743 4.7873 16.4743 4.48899C16.4743 3.89246 16.9579 3.40888 17.5545 3.40888H19.3668C20.4108 3.40888 21.2572 4.25523 21.2572 5.29926C21.2572 6.34329 20.4108 7.18964 19.3668 7.18964H2.95336C1.90933 7.18964 1.06297 6.34329 1.06297 5.29926C1.06297 4.25523 1.90932 3.40888 2.95335 3.40887L4.76556 3.40887ZM7.54451 21.2331C3.96489 21.2331 1.06303 18.3313 1.06303 14.7516C1.06303 11.172 3.96489 8.27017 7.54451 8.27017H14.7758C18.3554 8.27017 21.2573 11.172 21.2573 14.7516C21.2573 18.3313 18.3554 21.2331 14.7758 21.2331H7.54451Z" fill="#272727"/>
<path d="M19.5296 9.80493H2.78978C2.4816 9.80493 2.23174 10.0446 2.23174 10.3401V18.3667C2.23174 18.5086 2.29051 18.6449 2.39522 18.7451C2.49994 18.8455 2.64176 18.9019 2.78978 18.9019H19.5296C19.6776 18.9019 19.8195 18.8455 19.9242 18.7451C20.0287 18.6449 20.0877 18.5086 20.0877 18.3667V10.3401C20.0877 10.1982 20.0287 10.0619 19.9242 9.96171C19.8195 9.86128 19.6776 9.80493 19.5296 9.80493ZM18.9716 12.4233C18.9716 13.1937 18.347 13.8183 17.5766 13.8183C16.8061 13.8183 16.1816 13.1937 16.1816 12.4233V12.27C16.1816 11.4996 16.8061 10.875 17.5766 10.875C18.347 10.875 18.9716 11.4996 18.9716 12.27V12.4233ZM15.0657 12.3467C15.0657 13.1594 14.4069 13.8183 13.5941 13.8183H13.1893C12.3766 13.8183 11.7177 13.1594 11.7177 12.3467C11.7177 11.5339 12.3766 10.875 13.1893 10.875H13.5941C14.4069 10.875 15.0657 11.5339 15.0657 12.3467ZM9.1302 10.875C9.94296 10.875 10.6018 11.5339 10.6018 12.3467C10.6018 13.1594 9.94296 13.8183 9.1302 13.8183H8.72542C7.91267 13.8183 7.2538 13.1594 7.2538 12.3467C7.2538 11.5339 7.91267 10.875 8.72542 10.875H9.1302ZM4.74286 10.875C5.51331 10.875 6.13786 11.4996 6.1378 12.2701L6.13779 12.4235C6.13773 13.1938 5.51322 13.8183 4.74286 13.8183C3.97245 13.8183 3.34792 13.1937 3.34792 12.4233V12.27C3.34792 11.4996 3.97246 10.875 4.74286 10.875ZM3.34792 16.2836C3.34792 15.5132 3.97248 14.8886 4.74291 14.8886C5.51335 14.8886 6.13791 15.5132 6.13791 16.2836V16.4367C6.13791 17.2072 5.51328 17.8318 4.7428 17.8317C3.97241 17.8317 3.34792 17.2071 3.34792 16.4367V16.2836ZM7.25374 16.3602C7.25374 15.5474 7.91258 14.8886 8.72531 14.8886H9.13019C9.94292 14.8886 10.6018 15.5474 10.6018 16.3602C10.6018 17.1729 9.94286 17.8318 9.1301 17.8318L8.72521 17.8317C7.91253 17.8317 7.25374 17.1728 7.25374 16.3602ZM13.1893 17.8318C12.3765 17.8318 11.7177 17.173 11.7177 16.3602C11.7177 15.5475 12.3765 14.8886 13.1893 14.8886H13.5941C14.4068 14.8886 15.0657 15.5475 15.0657 16.3602C15.0657 17.173 14.4068 17.8318 13.5941 17.8318H13.1893ZM17.5766 17.8318C16.8061 17.8318 16.1816 17.2073 16.1816 16.4369V16.2836C16.1816 15.5132 16.8061 14.8886 17.5766 14.8886C18.347 14.8886 18.9716 15.5132 18.9716 16.2836V16.4369C18.9716 17.2073 18.347 17.8318 17.5766 17.8318Z" fill="#272727"/>
</svg>
