<svg width="24" height="26" viewBox="0 0 24 26" fill="none" xmlns="http://www.w3.org/2000/svg">
<path d="M17.4057 2.33476C17.332 1.82875 17.0841 1.38471 16.7076 1.08438C16.4077 0.845394 16.0551 0.720215 15.6923 0.720215C15.5994 0.720215 15.5059 0.728344 15.4125 0.745007C14.9538 0.826294 14.5513 1.09982 14.2791 1.51522C14.0069 1.93059 13.8977 2.43801 13.9713 2.94404L17.0021 23.743C17.0758 24.249 17.3237 24.6931 17.7002 24.9934C18.0767 25.2938 18.5366 25.4143 18.9953 25.333C19.454 25.2517 19.8564 24.9782 20.1287 24.5628C20.4009 24.1474 20.5101 23.64 20.4364 23.134L17.4057 2.33476ZM16.4862 9.97391C16.2317 10.0883 15.8392 9.96839 15.7989 9.69229C15.7195 9.14745 16.0555 8.63497 16.5493 8.54736C17.0432 8.45977 17.5077 8.83044 17.5871 9.37526C17.6285 9.65896 17.2826 9.8963 16.9964 9.87908C16.9152 9.8742 16.8307 9.87749 16.7453 9.89264C16.6535 9.90887 16.5667 9.93773 16.4862 9.97391ZM17.1097 12.3918C16.7342 12.4584 16.179 12.2995 16.1239 11.9222L16.122 11.9086C16.1047 11.7901 16.136 11.6689 16.2221 11.5857C16.3659 11.4467 16.6213 11.2445 16.9343 11.189C17.2366 11.1353 17.5267 11.2302 17.7048 11.3108C17.8221 11.364 17.8937 11.4786 17.9123 11.6061L17.9151 11.6251C17.9705 12.0052 17.4878 12.3247 17.1097 12.3918ZM17.551 15.4216C17.551 15.4216 17.551 15.4216 17.551 15.4216C17.0571 15.5092 16.5926 15.1385 16.5132 14.5937C16.4536 14.1846 16.7297 13.8021 17.1368 13.7299L17.4638 13.6719C17.8636 13.6009 18.2428 13.8747 18.3014 14.2765C18.3808 14.8213 18.0448 15.334 17.551 15.4216C17.551 15.4216 17.551 15.4216 17.551 15.4216Z" fill="#272727"/>
<path d="M8.76641 0.745007C8.67302 0.728344 8.57945 0.720215 8.48661 0.720215C8.12374 0.720215 7.77099 0.845394 7.47133 1.08458C7.09483 1.38493 6.84691 1.82899 6.77321 2.33497L3.74245 23.134C3.66877 23.64 3.778 24.1474 4.05024 24.5628C4.32248 24.9782 4.72498 25.2517 5.1836 25.333C5.64222 25.4143 6.10217 25.2938 6.4787 24.9934C6.8552 24.6931 7.10311 24.249 7.17682 23.743L10.2076 2.94404C10.2813 2.43803 10.172 1.93062 9.89978 1.51522C9.62754 1.09984 9.22505 0.826322 8.76643 0.745009L8.76641 0.745007ZM7.66563 14.5937C7.58624 15.1385 7.12152 15.5092 6.62786 15.4216C6.13401 15.334 5.79804 14.8215 5.87744 14.2766C5.93601 13.8748 6.31524 13.6011 6.71502 13.672L7.04228 13.7301C7.44924 13.8023 7.72526 14.1847 7.66563 14.5937ZM8.05491 11.9222C7.99989 12.2996 7.44475 12.4584 7.06919 12.3918C6.69106 12.3247 6.20838 12.0051 6.26378 11.6251L6.26656 11.606C6.28514 11.4786 6.3568 11.3639 6.47412 11.3108C6.65221 11.2301 6.94226 11.1353 7.24455 11.1889C7.55756 11.2444 7.81291 11.4466 7.95672 11.5856C8.04285 11.6689 8.07417 11.7901 8.05688 11.9086L8.05491 11.9222ZM8.37976 9.69206C8.33952 9.96814 7.94698 10.088 7.69253 9.97358C7.612 9.93737 7.52516 9.90847 7.43335 9.89219C7.34794 9.87705 7.26351 9.87375 7.1823 9.87863C6.89612 9.89585 6.55022 9.65852 6.59157 9.37482C6.67096 8.82998 7.1355 8.45931 7.62935 8.54692C8.1232 8.63471 8.45917 9.14742 8.37976 9.69206Z" fill="#272727"/>
<path d="M4.64879 3.19974C4.64879 3.19974 4.64879 3.19974 4.64879 3.19973C4.65919 3.10041 4.53569 2.97822 4.31862 2.87311C4.05619 2.74596 3.69514 2.65876 3.30228 2.62749C3.1991 2.61937 3.09719 2.61523 2.9981 2.61523C2.7196 2.61523 2.46172 2.64719 2.25207 2.70891C2.01688 2.77806 1.87039 2.87876 1.85999 2.97808C1.84531 3.11958 2.11264 3.32491 2.59806 3.45116C2.84328 3.51493 3.07227 3.3286 3.09843 3.07658C3.10631 3.00123 3.18239 2.94558 3.2684 2.9526C3.35456 2.95935 3.41805 3.02603 3.41017 3.10124C3.38448 3.34967 3.57461 3.57226 3.82326 3.54891C4.32797 3.5015 4.63409 3.34143 4.6488 3.19974C4.6488 3.19974 4.64879 3.19974 4.64879 3.19974Z" fill="#272727"/>
<path d="M2.20276 16.8313C2.20276 16.8314 2.20272 16.8314 2.20267 16.8314C2.18294 16.8299 2.16343 16.8291 2.14392 16.8291C1.81437 16.8291 1.53246 17.0503 1.50194 17.3436L0.932408 22.8453C0.91682 22.9959 0.969073 23.1426 1.07929 23.2588C1.1895 23.3749 1.34473 23.4463 1.51642 23.46C1.87077 23.4879 2.18498 23.2584 2.21724 22.9478L2.787 17.4461C2.80258 17.2955 2.75033 17.1487 2.64011 17.0326C2.5297 16.9164 2.37451 16.8449 2.20286 16.8312C2.20281 16.8312 2.20277 16.8313 2.20276 16.8313Z" fill="#272727"/>
<path d="M23.246 22.8455L22.6763 17.3436C22.6458 17.0504 22.3639 16.8291 22.0343 16.8291C22.015 16.8291 21.9952 16.8299 21.9755 16.8314C21.8038 16.8451 21.6488 16.9165 21.5383 17.0326C21.4281 17.1487 21.3759 17.2955 21.3915 17.4461L21.9612 22.9479C21.9935 23.2585 22.307 23.4872 22.662 23.4601C22.8337 23.4464 22.9887 23.375 23.0992 23.2589C23.2094 23.143 23.2616 22.996 23.2461 22.8456L23.246 22.8455Z" fill="#272727"/>
<path d="M20.9103 2.9526C20.9962 2.94558 21.0726 3.00123 21.0803 3.07658C21.1065 3.3286 21.3355 3.51493 21.5807 3.45117C22.0661 3.32496 22.3334 3.11969 22.3188 2.97808C22.3084 2.87876 22.1619 2.77806 21.9267 2.70891C21.717 2.64719 21.4591 2.61523 21.1806 2.61523C21.0814 2.61523 20.9796 2.61923 20.8765 2.62749C20.4834 2.65877 20.1225 2.74597 19.8601 2.87311C19.643 2.97822 19.5197 3.10028 19.5299 3.19974C19.5446 3.34145 19.8506 3.50156 20.3556 3.54893C20.6043 3.57226 20.7943 3.34964 20.7686 3.10124C20.7609 3.02602 20.8243 2.95949 20.9103 2.9526L20.9103 2.9526Z" fill="#272727"/>
<path d="M2.67599 4.51121C2.67599 4.51121 2.67599 4.51121 2.67599 4.51121C2.60757 4.50045 2.54692 4.58156 2.54078 4.69056L1.85994 16.6132C1.85367 16.722 1.90417 16.8185 1.97272 16.8282C1.97661 16.8288 1.98036 16.829 1.98412 16.829C2.04778 16.829 2.10217 16.7517 2.10806 16.6489L2.7889 4.72623C2.79504 4.61743 2.74454 4.52098 2.676 4.51121C2.676 4.51121 2.676 4.51121 2.67599 4.51121Z" fill="#272727"/>
<path d="M22.1947 16.8291C22.1947 16.8291 22.1947 16.8291 22.1947 16.8291C22.1985 16.8291 22.2022 16.8289 22.2061 16.8282C22.2742 16.8178 22.3245 16.7147 22.3182 16.5983L21.6359 3.75555C21.6298 3.63899 21.5696 3.55226 21.5015 3.56377C21.4333 3.57421 21.3831 3.67734 21.3893 3.79369L22.0714 16.6365C22.0773 16.7464 22.1314 16.8291 22.1947 16.8291C22.1947 16.8291 22.1947 16.8291 22.1947 16.8291Z" fill="#272727"/>
</svg>
