<svg width="25" height="31" viewBox="0 0 25 31" fill="none" xmlns="http://www.w3.org/2000/svg">
<path d="M5.88546 6.22605C4.91395 6.33992 4.21582 7.25571 4.32673 8.26773L5.06116 14.9401C5.08364 15.1441 5.13871 15.3361 5.21963 15.5118C5.42238 15.9521 5.72448 16.3728 6.12599 16.6444C8.447 18.2369 9.83413 20.871 9.83413 23.6858V24.3348C9.83413 25.0396 10.381 25.6095 11.0578 25.6095C11.7325 25.6095 12.2776 25.0399 12.2776 24.3348V17.8344C12.2776 17.8248 12.2757 17.8149 12.2757 17.8081C12.2794 17.292 12.0423 16.7842 11.5992 16.4791L9.84225 15.2748C9.03438 14.721 8.50808 13.8425 8.40091 12.8689C8.18173 10.878 9.74067 9.138 11.7437 9.138H13.0816C13.6322 9.138 14.0765 8.67224 14.0765 8.1016C14.0765 7.53096 13.6312 7.06618 13.0816 7.06618L9.56282 7.06597C8.32573 7.0659 7.11335 6.07594 5.8854 6.22604L5.88546 6.22605ZM14.9329 7.17201C14.9329 7.17203 14.9329 7.17202 14.933 7.17201L18.8774 2.60674C19.0439 2.41409 19.0292 2.12457 18.8442 1.94972C18.6471 1.76348 18.3344 1.77934 18.1572 1.98456L14.8882 5.76952C14.5869 6.1184 14.6517 6.64621 14.8719 7.05118C14.8934 7.09067 14.9137 7.13095 14.9329 7.172C14.9329 7.172 14.9329 7.17201 14.9329 7.17201ZM9.5332 12.6277C9.73002 12.8131 10.0415 12.7975 10.2189 12.5934L11.5771 11.0306C11.8447 10.7228 11.626 10.2431 11.2182 10.2431C11.0805 10.2431 10.9497 10.3027 10.8594 10.4065L9.50041 11.9687C9.33266 12.1616 9.34713 12.4525 9.5332 12.6277ZM24.1182 21.6554C24.1182 21.6554 24.1182 21.6554 24.1182 21.6554L23.8432 21.7228C23.5265 21.8004 23.3443 22.1256 23.2842 22.446C23.1882 22.9574 22.818 23.3887 22.3085 23.5204L0.430621 29.3115C0.191095 29.3749 0.0458493 29.6178 0.103319 29.8588C0.162827 30.1084 0.416224 30.2599 0.664253 30.1943L22.5148 24.4125C23.685 24.1183 24.4009 22.8834 24.1182 21.6555C24.1182 21.6555 24.1182 21.6554 24.1182 21.6554ZM6.59321 20.2771C6.85003 20.4901 7.22232 20.4442 7.42677 20.176C7.63124 19.9107 7.58905 19.5207 7.33162 19.3077L3.48923 16.1324C3.23241 15.9223 2.85827 15.9672 2.65567 16.2334C2.45119 16.5029 2.49339 16.8926 2.75082 17.1037L6.59321 20.2771ZM5.81105 5.69466C7.05785 5.68119 8.06421 4.60562 8.06239 3.29051C8.06239 1.97696 7.04311 0.926105 5.79631 0.938587C4.54762 0.94821 3.53393 2.02377 3.54134 3.33888C3.54504 4.65054 4.55693 5.70427 5.81113 5.69466H5.81105Z" fill="#272727"/>
</svg>
