<svg width="173" height="707" viewBox="0 0 173 707" fill="none" xmlns="http://www.w3.org/2000/svg">
<path d="M175.781 0.39175C178.627 17.8181 178.686 37.1408 165.313 50.7186C152.792 63.4322 131.883 65.7885 118.484 78.0855C93.4067 101.1 115.966 152.012 122.983 177.679C129.183 200.357 128.999 210.359 105.91 220.262C93.0992 225.758 78.388 225.135 65.0671 228.879C47.3481 233.858 18.0674 241.254 7.3384 258.065C-3.64085 275.268 1.70946 303.231 5.85413 321.592C12.3467 350.353 26.1072 377.445 38.3684 403.991C54.3087 438.502 70.7299 472.711 89.7815 505.641C123.51 563.938 1.11155 642.598 43.2998 695.23C83.0045 737.612 127.699 757.694 137.877 759.918" stroke="white" stroke-opacity="0.11"/>
</svg>
