<svg width="134" height="771" viewBox="0 0 134 771" fill="none" xmlns="http://www.w3.org/2000/svg">
<path d="M-63.4818 0.742255C-66.6708 20.2733 -66.7374 41.9297 -51.7495 57.1474C-37.7156 71.3964 -14.2817 74.0373 0.7358 87.8195C28.8415 113.613 3.55801 170.674 -4.30721 199.442C-11.2561 224.858 -11.0492 236.069 14.8276 247.168C29.1862 253.327 45.6741 252.629 60.6039 256.825C80.4628 262.405 113.28 270.695 125.305 289.537C137.61 308.817 131.613 340.157 126.968 360.735C119.692 392.97 104.269 423.334 90.527 453.086C72.6615 491.765 54.257 530.106 32.9046 567.013C-4.89727 632.351 132.284 720.51 85 779.5C40.5 827 -9.59293 849.508 -21 852" stroke="white" stroke-opacity="0.17"/>
</svg>
