<svg width="46" height="42" viewBox="0 0 46 42" fill="none" xmlns="http://www.w3.org/2000/svg">
<g clip-path="url(#clip0_2293_22464)">
<path d="M2.31042 15.0935C4.24637 12.5653 9.09997 13.7487 9.1856 17.1123C9.23569 19.0579 8.01097 20.8899 5.95884 21.1672C4.29344 21.3923 2.34531 20.3917 1.83395 18.7343C1.7057 18.3104 1.65945 17.8894 1.66385 17.4757C1.5946 16.6484 1.7681 15.8058 2.31042 15.0935Z" fill="#DEDEDE"/>
<path d="M11.4076 28.1913C13.2515 28.0797 14.9925 28.7553 16.1086 30.2673C17.3723 31.9783 17.5108 34.1062 17.4249 36.1478C17.3902 37.0458 16.8609 37.8022 16.1374 38.3025C15.5231 39.2434 14.6319 39.9994 13.5603 40.3137C9.60522 41.4731 4.7265 38.03 5.46401 33.7219C5.94078 30.9496 8.51459 28.3633 11.4071 28.1878L11.4076 28.1913Z" fill="#DEDEDE"/>
<path d="M34.8531 2.42396C42.805 5.00689 44.4014 13.275 41.0684 19.3002C40.3479 20.8204 39.2837 22.2387 38.0923 23.3459C33.4139 27.6853 26.5227 27.2538 22.127 22.8699C18.0914 18.8397 17.2074 12.5619 19.8695 7.53118C22.873 1.85063 29.0755 0.546316 34.8531 2.42396Z" fill="#DEDEDE"/>
</g>
<defs>
<clipPath id="clip0_2293_22464">
<rect width="41.4298" height="36.3308" fill="white" transform="matrix(-0.99099 0.133934 0.133934 0.99099 41.0566 0)"/>
</clipPath>
</defs>
</svg>
