<svg width="108" height="40" viewBox="0 0 108 40" fill="none" xmlns="http://www.w3.org/2000/svg">
<path d="M50.1066 11.2737L47.4875 7.48412V11.2737H45.6172V3.0835H47.4875V6.64243L49.9914 3.0835H52.119L49.3578 7.07289L52.2342 11.2737H50.1066Z" fill="#222222"/>
<path d="M55.6949 8.58333H54.8078V11.2737H52.9375V3.08351H56.2095C56.5785 3.08249 56.944 3.15447 57.285 3.2953C57.6261 3.43613 57.936 3.64304 58.1969 3.90412C58.4577 4.16521 58.6645 4.47533 58.8052 4.81665C58.9459 5.15797 59.0179 5.52376 59.0168 5.89299C59.0089 6.38976 58.8638 6.87464 58.5974 7.29388C58.331 7.71312 57.9538 8.05035 57.5076 8.26818L59.2473 11.2737H57.2349L55.6949 8.58333ZM54.8078 6.94607H56.2095C56.3404 6.93921 56.4686 6.90645 56.5867 6.84967C56.7048 6.79289 56.8105 6.71322 56.8977 6.61528C56.9848 6.51734 57.0517 6.40307 57.0944 6.27909C57.1372 6.15511 57.1549 6.02387 57.1466 5.89299C57.1549 5.76211 57.1372 5.63088 57.0944 5.50689C57.0517 5.38291 56.9848 5.26864 56.8977 5.1707C56.8105 5.07276 56.7048 4.99309 56.5867 4.93631C56.4686 4.87953 56.3404 4.84677 56.2095 4.83992H54.8078V6.94607Z" fill="#222222"/>
<path d="M59.6582 7.18054C59.6582 6.05114 60.1065 4.96799 60.9045 4.16938C61.7025 3.37077 62.7848 2.92212 63.9134 2.92212C65.0419 2.92212 66.1242 3.37077 66.9222 4.16938C67.7202 4.96799 68.1685 6.05114 68.1685 7.18054C68.1685 8.30995 67.7202 9.3931 66.9222 10.1917C66.1242 10.9903 65.0419 11.439 63.9134 11.439C62.7848 11.439 61.7025 10.9903 60.9045 10.1917C60.1065 9.3931 59.6582 8.30995 59.6582 7.18054ZM66.2983 7.18054C66.2983 6.86712 66.2366 6.55676 66.1167 6.26719C65.9969 5.97762 65.8212 5.71451 65.5997 5.49288C65.3783 5.27125 65.1154 5.09545 64.826 4.97551C64.5367 4.85556 64.2266 4.79383 63.9134 4.79383C63.6002 4.79383 63.2901 4.85556 63.0007 4.97551C62.7114 5.09545 62.4485 5.27125 62.227 5.49288C62.0055 5.71451 61.8299 5.97762 61.71 6.26719C61.5902 6.55676 61.5285 6.86712 61.5285 7.18054C61.5285 7.49397 61.5902 7.80433 61.71 8.0939C61.8299 8.38347 62.0055 8.64658 62.227 8.86821C62.4485 9.08983 62.7114 9.26564 63.0007 9.38558C63.2901 9.50553 63.6002 9.56726 63.9134 9.56726C64.2266 9.56726 64.5367 9.50553 64.826 9.38558C65.1154 9.26564 65.3783 9.08983 65.5997 8.86821C65.8212 8.64658 65.9969 8.38347 66.1167 8.0939C66.2366 7.80433 66.2983 7.49397 66.2983 7.18054Z" fill="#222222"/>
<path d="M68.8725 7.18051C68.8577 6.61725 68.9577 6.05688 69.1663 5.53353C69.3749 5.01018 69.6878 4.53482 70.0859 4.1364C70.484 3.73798 70.959 3.42485 71.482 3.21608C72.0049 3.00731 72.5649 2.90728 73.1277 2.92209C73.8252 2.9118 74.5137 3.08055 75.1276 3.41225C75.7414 3.74396 76.26 4.22754 76.634 4.81685L75.021 5.75463C74.8237 5.43324 74.5441 5.17044 74.2112 4.99341C73.8784 4.81638 73.5043 4.73154 73.1277 4.74767C71.676 4.74767 70.7428 5.72004 70.7428 7.18051C70.7428 8.64098 71.6799 9.61335 73.1277 9.61335C73.5046 9.63112 73.8793 9.54699 74.2124 9.3698C74.5456 9.19262 74.8249 8.92891 75.021 8.60639L76.634 9.54417C76.2613 10.1341 75.7427 10.6178 75.1284 10.9484C74.5142 11.279 73.825 11.4453 73.1277 11.4312C72.5655 11.446 72.0062 11.3462 71.4838 11.1379C70.9614 10.9296 70.4868 10.6172 70.0888 10.2196C69.6908 9.82199 69.3777 9.34755 69.1686 8.82511C68.9595 8.30267 68.8588 7.74313 68.8725 7.18051Z" fill="#222222"/>
<path d="M82.0012 11.2737L79.382 7.48412V11.2737H77.5117V3.0835H79.382V6.64243L81.886 3.0835H84.0135L81.2523 7.07289L84.1288 11.2737H82.0012Z" fill="#222222"/>
<path d="M52.8657 19.8866C52.8807 20.4187 52.7885 20.9484 52.5945 21.4441C52.4006 21.9398 52.109 22.3914 51.737 22.7719C51.365 23.1524 50.9203 23.4541 50.4294 23.659C49.9384 23.8638 49.4113 23.9677 48.8794 23.9644H45.6035V15.7743H48.8794C49.4143 15.7708 49.9444 15.8757 50.4377 16.0827C50.931 16.2897 51.3773 16.5945 51.7498 16.9788C52.1223 17.363 52.4132 17.8187 52.6049 18.3185C52.7967 18.8182 52.8854 19.3517 52.8657 19.8866ZM51.0646 19.8866C51.0646 18.4838 50.1774 17.5806 48.8909 17.5806H47.4892V22.1619H48.8794C50.1774 22.1619 51.0646 21.2741 51.0646 19.8866Z" fill="#222222"/>
<path d="M55.7902 15.7742V23.9643H53.9199V15.7742H55.7902Z" fill="#222222"/>
<path d="M65.2926 20.1018C65.2926 22.6076 63.5491 24.1258 61.2602 24.1258C58.6871 24.1258 56.8399 22.231 56.8399 19.8789C56.8368 19.3153 56.9458 18.7568 57.1606 18.2358C57.3754 17.7149 57.6916 17.2419 58.0909 16.8445C58.4901 16.447 58.9644 16.1331 59.4861 15.921C60.0079 15.7089 60.5665 15.6028 61.1296 15.6089C61.8356 15.5935 62.5339 15.757 63.1597 16.0842C63.7855 16.4115 64.3184 16.8919 64.7089 17.4806L63.119 18.3953C62.8068 17.9876 62.3749 17.6879 61.8838 17.5383C61.3928 17.3887 60.8673 17.3967 60.3811 17.5612C59.8948 17.7257 59.4722 18.0384 59.1725 18.4554C58.8729 18.8724 58.7112 19.3729 58.7102 19.8865C58.7102 21.2778 59.6933 22.2963 61.2832 22.2963C62.3701 22.2963 63.0844 21.8159 63.3763 21.0319H61.1911V19.4023H65.2965L65.2926 20.1018Z" fill="#222222"/>
<path d="M68.214 15.7742V23.9643H66.3438V15.7742H68.214Z" fill="#222222"/>
<path d="M75.1167 17.5805H73.0121V23.9643H71.1534V17.5805H69.0488V15.7742H75.1282L75.1167 17.5805Z" fill="#222222"/>
<path d="M80.1441 22.6768H77.1025L76.6915 23.9643H74.6484L77.4327 15.7742H79.8176L82.6019 23.9643H80.555L80.1441 22.6768ZM79.5834 20.9204L78.6233 17.9149L77.6824 20.9204H79.5834Z" fill="#222222"/>
<path d="M88.0936 22.1618V23.9643H83.2969V15.7742H85.1672V22.1618H88.0936Z" fill="#222222"/>
<path d="M45.207 34.7949L46.82 33.8571C46.9417 34.2109 47.1758 34.5151 47.4865 34.7232C47.7971 34.9314 48.1673 35.0322 48.5405 35.0101C49.4276 35.0101 49.6504 34.6604 49.6504 34.3414C49.6504 33.8379 49.1819 33.638 47.9568 33.2998C46.7317 32.9616 45.5488 32.3736 45.5488 30.8093C45.5488 29.2451 46.8815 28.315 48.2947 28.315C48.9199 28.2941 49.5373 28.4584 50.0695 28.7872C50.6017 29.1161 51.0251 29.5949 51.2864 30.1637L49.708 31.0899C49.6048 30.8012 49.4119 30.5533 49.1575 30.3824C48.9032 30.2115 48.6008 30.1268 48.2947 30.1406C47.711 30.1406 47.4191 30.4327 47.4191 30.7594C47.4191 31.0861 47.6188 31.3897 48.8938 31.7779C50.1688 32.166 51.5245 32.585 51.5245 34.3183C51.5245 35.8979 50.261 36.8357 48.4829 36.8357C46.7624 36.8165 45.664 35.9978 45.207 34.7949Z" fill="#222222"/>
<path d="M52.047 32.5695C52.047 31.7272 52.2965 30.9039 52.7641 30.2036C53.2317 29.5033 53.8962 28.9575 54.6738 28.6352C55.4513 28.3129 56.3069 28.2285 57.1323 28.3929C57.9577 28.5572 58.7159 28.9628 59.311 29.5583C59.9061 30.1539 60.3114 30.9126 60.4756 31.7387C60.6397 32.5647 60.5555 33.421 60.2334 34.1991C59.9114 34.9772 59.366 35.6423 58.6662 36.1102C57.9664 36.5781 57.1438 36.8279 56.3022 36.8279C55.7422 36.832 55.1871 36.7246 54.6689 36.5121C54.1508 36.2995 53.6801 35.986 53.2842 35.5897C52.8882 35.1935 52.575 34.7224 52.3626 34.2039C52.1502 33.6854 52.0429 33.1298 52.047 32.5695ZM58.687 32.5695C58.678 32.0995 58.5304 31.6426 58.2629 31.2563C57.9954 30.8699 57.6198 30.5712 57.1833 30.3976C56.7468 30.224 56.2688 30.1832 55.8093 30.2805C55.3497 30.3777 54.9291 30.6086 54.6002 30.9441C54.2712 31.2797 54.0486 31.705 53.9603 32.1667C53.8719 32.6283 53.9218 33.1058 54.1036 33.5393C54.2853 33.9727 54.591 34.3428 54.9821 34.603C55.3732 34.8633 55.8325 35.0022 56.3022 35.0023C56.6215 35.0105 56.9392 34.9529 57.2353 34.8329C57.5314 34.713 57.7997 34.5333 58.0234 34.3051C58.2471 34.0768 58.4215 33.805 58.5357 33.5064C58.6499 33.2078 58.7014 32.8888 58.687 32.5695Z" fill="#222222"/>
<path d="M66.406 34.8527V36.6552H61.6094V28.4612H63.472V34.8527H66.406Z" fill="#222222"/>
<path d="M67.0469 34.011V28.4612H68.9172V33.8419C68.9172 34.4606 69.209 34.9949 70.2037 34.9949C71.1984 34.9949 71.4902 34.4683 71.4902 33.8419V28.4612H73.3605V34.011C73.3605 35.7674 72.0049 36.8204 70.2037 36.8204C68.4025 36.8204 67.0469 35.7635 67.0469 34.011Z" fill="#222222"/>
<path d="M80.2005 30.2637H78.0959V36.6552H76.2256V30.2637H74.1211V28.4612H80.2005V30.2637Z" fill="#222222"/>
<path d="M82.8898 28.4612V36.6552H81.0195V28.4612H82.8898Z" fill="#222222"/>
<path d="M83.9415 32.5695C83.9415 31.7272 84.1911 30.9039 84.6586 30.2036C85.1262 29.5033 85.7908 28.9575 86.5683 28.6352C87.3458 28.3129 88.2014 28.2285 89.0268 28.3929C89.8523 28.5572 90.6105 28.9628 91.2056 29.5583C91.8007 30.1539 92.2059 30.9126 92.3701 31.7387C92.5343 32.5647 92.45 33.421 92.128 34.1991C91.8059 34.9772 91.2605 35.6423 90.5607 36.1102C89.861 36.5781 89.0383 36.8279 88.1967 36.8279C87.6368 36.832 87.0816 36.7246 86.5635 36.5121C86.0454 36.2995 85.5747 35.986 85.1787 35.5897C84.7828 35.1935 84.4695 34.7224 84.2571 34.2039C84.0447 33.6854 83.9374 33.1298 83.9415 32.5695ZM90.5816 32.5695C90.5725 32.0995 90.425 31.6426 90.1575 31.2563C89.8899 30.8699 89.5144 30.5712 89.0779 30.3976C88.6414 30.224 88.1634 30.1832 87.7038 30.2805C87.2443 30.3777 86.8236 30.6086 86.4947 30.9441C86.1658 31.2797 85.9432 31.705 85.8548 32.1667C85.7665 32.6283 85.8163 33.1058 85.9981 33.5393C86.1799 33.9727 86.4855 34.3428 86.8766 34.603C87.2678 34.8633 87.727 35.0022 88.1967 35.0023C88.5161 35.0105 88.8337 34.9529 89.1298 34.8329C89.4259 34.713 89.6942 34.5333 89.918 34.3051C90.1417 34.0768 90.3161 33.805 90.4302 33.5064C90.5444 33.2078 90.5959 32.8888 90.5816 32.5695Z" fill="#222222"/>
<path d="M99.9366 28.4612V36.6552H98.5348L95.378 32.2084V36.6552H93.5039V28.4612H94.9057L98.0625 32.9079V28.4612H99.9366Z" fill="#222222"/>
<path d="M100.812 34.7949L102.425 33.8571C102.547 34.2109 102.781 34.5151 103.092 34.7232C103.403 34.9314 103.773 35.0322 104.146 35.0101C105.033 35.0101 105.256 34.6604 105.256 34.3414C105.256 33.8379 104.787 33.638 103.562 33.2998C102.337 32.9616 101.154 32.3736 101.154 30.8093C101.154 29.2451 102.487 28.315 103.9 28.315C104.525 28.2941 105.143 28.4584 105.675 28.7872C106.207 29.1161 106.631 29.5949 106.892 30.1637L105.313 31.0899C105.21 30.8016 105.017 30.554 104.762 30.3832C104.508 30.2124 104.206 30.1274 103.9 30.1406C103.316 30.1406 103.025 30.4327 103.025 30.7594C103.025 31.0861 103.224 31.3897 104.499 31.7779C105.774 32.166 107.13 32.585 107.13 34.3183C107.13 35.8979 105.866 36.8357 104.088 36.8357C102.368 36.8165 101.266 35.9978 100.812 34.7949Z" fill="#222222"/>
<path d="M34.6 0.669922H4.24159C3.14462 0.669922 2.09258 1.10602 1.31691 1.88229C0.541237 2.65856 0.105469 3.7114 0.105469 4.8092L0.105469 35.1908C0.105469 36.2886 0.541237 37.3415 1.31691 38.1177C2.09258 38.894 3.14462 39.3301 4.24159 39.3301H34.6C35.697 39.3301 36.749 38.894 37.5247 38.1177C38.3004 37.3415 38.7361 36.2886 38.7361 35.1908V4.8092C38.7361 3.7114 38.3004 2.65856 37.5247 1.88229C36.749 1.10602 35.697 0.669922 34.6 0.669922V0.669922ZM30.6751 15.0671C30.4405 15.1281 30.1994 15.1603 29.957 15.1632L26.6043 21.6277C27.1187 22.0268 27.4894 22.5826 27.6604 23.2111C27.764 23.5952 27.7911 23.996 27.74 24.3905C27.6888 24.7851 27.5606 25.1657 27.3625 25.5106C27.1644 25.8555 26.9003 26.158 26.5854 26.4008C26.2705 26.6437 25.9108 26.822 25.5271 26.9257C25.1433 27.0294 24.7428 27.0565 24.3486 27.0053C23.9543 26.9542 23.574 26.8258 23.2293 26.6276C22.5333 26.2272 22.0246 25.5664 21.8153 24.7907C21.7397 24.4947 21.7099 24.1888 21.727 23.8837L17.6216 22.2541C17.2296 22.705 16.7125 23.0291 16.136 23.1852C15.5596 23.3412 14.9497 23.3221 14.3841 23.1304L11.6728 26.5894C11.8423 26.8436 11.9718 27.1223 12.0568 27.4157C12.2372 28.0684 12.1944 28.7627 11.9352 29.3882C11.676 30.0137 11.2153 30.5345 10.6264 30.8679C10.0375 31.2013 9.35406 31.3281 8.68484 31.2281C8.01562 31.1282 7.399 30.8072 6.93299 30.3162C6.46698 29.8253 6.17835 29.1925 6.11296 28.5185C6.04757 27.8446 6.2092 27.1681 6.57213 26.5966C6.93506 26.0251 7.47848 25.5914 8.11599 25.3645C8.75349 25.1375 9.44851 25.1304 10.0905 25.3442L12.8019 21.8852C12.6324 21.631 12.5028 21.3523 12.4178 21.0589C12.207 20.2821 12.3131 19.4534 12.7128 18.755C13.1125 18.0566 13.7731 17.5457 14.5492 17.3347C15.3254 17.1237 16.1535 17.2299 16.8514 17.6299C17.5492 18.0299 18.0598 18.691 18.2706 19.4677C18.3462 19.7638 18.376 20.0697 18.3589 20.3747L22.449 22.0043C22.7213 21.686 23.0587 21.4298 23.4382 21.2528C23.8178 21.0758 24.2308 20.9821 24.6495 20.9781L28.0176 14.506C27.5032 14.1068 27.1325 13.551 26.9614 12.9225C26.8054 12.3444 26.8241 11.7329 27.0152 11.1654C27.2063 10.5979 27.5612 10.0998 28.0351 9.73417C28.509 9.3685 29.0806 9.15165 29.6777 9.11103C30.2747 9.0704 30.8703 9.20783 31.3893 9.50593C31.9083 9.80403 32.3274 10.2494 32.5935 10.7858C32.8596 11.3222 32.9608 11.9255 32.8844 12.5195C32.808 13.1134 32.5573 13.6714 32.164 14.1228C31.7708 14.5742 31.2527 14.8988 30.6751 15.0556V15.0671Z" fill="#EB5B31"/>
</svg>
