<svg width="31" height="27" viewBox="0 0 31 27" fill="none" xmlns="http://www.w3.org/2000/svg">
<g clip-path="url(#clip0_2114_21435)">
<path d="M7.78077 5.15016C9.95929 5.15016 12.1409 5.12806 14.3195 5.16594C14.9094 5.17541 15.1715 4.986 15.3869 4.43039C16.4918 1.60815 19.1384 0.247536 21.9911 1.07464C23.6796 1.56395 24.8875 2.68464 25.4712 4.38935C25.6709 4.97337 25.9487 5.21329 26.5823 5.1691C27.4874 5.10596 28.3987 5.18173 29.3039 5.14384C29.8969 5.11859 30.131 5.31116 30.131 5.94569C30.131 7.48624 30.159 7.48624 28.6266 7.48624C28.3675 7.48624 28.1022 7.51781 27.8494 7.47993C26.5198 7.29683 25.699 7.6062 25.0373 9.05521C24.0729 11.1766 22.091 11.9911 19.7783 11.7354C17.7152 11.5049 16.2577 10.3527 15.5024 8.4333C15.1903 7.63777 14.7939 7.46099 14.023 7.4673C9.76891 7.50203 5.51485 7.4894 1.25767 7.47362C0.901865 7.47362 0.268282 7.35997 0.240192 7.20844C0.127833 6.60548 0.171528 5.96463 0.246435 5.34904C0.258919 5.25433 0.742689 5.16594 1.00798 5.16279C3.26454 5.147 5.52109 5.15332 7.77765 5.15332L7.78077 5.15016ZM17.4374 6.28663C17.4374 8.10183 18.6672 9.38984 20.4087 9.40246C22.1784 9.41509 23.5142 8.08289 23.5173 6.29926C23.5205 4.58192 22.1628 3.22762 20.468 3.19921C18.8107 3.17396 17.2471 4.73345 17.4406 6.28663H17.4374Z" fill="white"/>
<path d="M22.5533 22.5389C20.3217 22.5389 18.0932 22.5579 15.8616 22.5263C15.331 22.52 15.0751 22.6968 14.9034 23.1924C13.4178 27.4321 8.02767 28.0193 5.56512 24.7077C5.25925 24.2942 4.97523 23.8269 4.82854 23.3408C4.63191 22.6936 4.29171 22.4916 3.64565 22.5295C2.74053 22.5831 1.82917 22.5263 0.924049 22.5484C0.377856 22.561 0.118805 22.3937 0.13129 21.7876C0.174985 20.0103 -0.0559763 20.2186 1.64814 20.1997C2.3223 20.1934 2.99958 20.1555 3.67062 20.2123C4.28235 20.2628 4.56637 20.0545 4.79733 19.4578C5.89908 16.6229 8.59571 15.2876 11.4796 16.1557C13.0838 16.6387 14.2418 17.7247 14.8161 19.3158C15.0782 20.0418 15.4465 20.2186 16.1613 20.2123C20.4933 20.1807 24.8254 20.1902 29.1544 20.2123C29.4665 20.2123 30.0252 20.3923 30.0439 20.5406C30.1157 21.1499 30.0501 21.7813 29.9596 22.3937C29.9471 22.4789 29.4946 22.5358 29.2449 22.5358C27.0133 22.5452 24.7848 22.5421 22.5533 22.5421V22.5389ZM6.81356 21.3519C6.81356 23.1608 8.0464 24.4362 9.80982 24.452C11.5795 24.4678 12.8935 23.1419 12.8966 21.3362C12.8997 19.6346 11.5389 18.2708 9.83166 18.2708C8.10258 18.2708 6.81356 19.5873 6.81356 21.3519Z" fill="white"/>
</g>
<defs>
<clipPath id="clip0_2114_21435">
<rect width="30" height="26" fill="white" transform="translate(0.130859 0.834961)"/>
</clipPath>
</defs>
</svg>
