<svg width="48" height="49" fill="none" xmlns="http://www.w3.org/2000/svg"><path d="M16.046 22.573a1.369 1.369 0 011.932-.058c6.288 5.924 12.598 9.528 20.023 11.365 1.002-2.733 1.09-5.74.226-8.675-1.148-3.894-3.821-7.286-7.729-9.81-3.488-2.253-6.974-2.84-10.346-3.407-4.255-.715-8.274-1.392-12.11-5.453-.427-.45-1.009-.63-1.565-.483-.635.17-1.061.673-1.265 1.503-.479 1.943-.171 7.388 1.174 13.137 2.16 9.235 5.607 13.909 8.119 16.204 3.245 2.962 7.483 4.603 11.694 4.603a15.9 15.9 0 002.372-.174c3.562-.54 6.527-2.33 8.199-4.932-7.643-1.989-14.172-5.77-20.668-11.885a1.366 1.366 0 01-.056-1.935zM42.19 34.711a47.362 47.362 0 01-4.185-.834c-.279.76-.625 1.495-1.036 2.193a8.054 8.054 0 01-.196.317 49.82 49.82 0 005.002 1.025 1.368 1.368 0 10.416-2.7h-.001z" fill="#31DDA4"/></svg>