<svg width="31" height="36" fill="none" xmlns="http://www.w3.org/2000/svg"><path d="M13.99 10.297a.466.466 0 00.6-.365c.31-1.793.926-7.77-4.193-9.612A6.652 6.652 0 009.265.025L9.25.022A1.321 1.321 0 007.7 1.197c-.229 2.541.257 7.186 6.29 9.1zm2.093.378c.114.016.242-.026.293-.13 1.737-3.6 5.139-4.047 5.884-4.321a3.56 3.56 0 00.535-.238c1.212-.688 1.21-1.835 1.035-2.606a.82.82 0 00-1.024-.604c-6.295 1.828-6.94 6.401-6.985 7.582a.306.306 0 00.261.317z" fill="#31DDA4"/><path d="M26.088 11.123s-3.87-2.6-8.403.173l-.409.226a3.935 3.935 0 01-3.802 0l-.408-.226c-4.533-2.772-8.404-.172-8.404-.172-6.986 4.573-2.838 14.657-2.838 14.657 3.138 7.16 7.51 9.32 9.568 9.96a3.099 3.099 0 002.008-.057l.97-.364a2.862 2.862 0 012.01 0l.97.364a3.098 3.098 0 002.01.057c2.057-.639 6.43-2.8 9.567-9.96 0 0 4.149-10.084-2.838-14.657h-.001zm-18.97 4.843c-.968 1.152-1.75 2.088-2.492 1.465-.74-.623-.885-2.337.082-3.489.968-1.151 2.682-1.305 3.422-.682.741.622-.045 1.555-1.012 2.706z" fill="#31DDA4"/></svg>