<svg width="31" height="32" fill="none" xmlns="http://www.w3.org/2000/svg"><path d="M19.505.37h-8.264v.018C5.206.771.398 7.641.398 16.065c0 8.423 4.808 15.294 10.843 15.677v.019h8.264c6.282 0 11.374-7.027 11.374-15.695S25.786.37 19.505.37V.369zm.48 27.497c-4.536 0-8.213-5.284-8.213-11.803 0-6.52 3.677-11.803 8.213-11.803 4.538 0 8.215 5.284 8.215 11.803 0 6.52-3.677 11.803-8.215 11.803z" fill="#31DDA4"/><path d="M18.086 5.627c-2.963 0-5.797 4.676-5.797 10.442 0 5.767 2.834 10.442 5.797 10.442 2.963 0 5.364-4.676 5.364-10.442 0-5.767-2.401-10.442-5.364-10.442z" fill="#31DDA4"/></svg>