<svg width="98" height="98" viewBox="0 0 98 98" fill="none" xmlns="http://www.w3.org/2000/svg">
<g clip-path="url(#clip0_2255_44397)">
<path d="M68.6124 13.3836C59.6655 13.5062 53.7581 19.5232 50.4687 26.8266C48.2385 20.0277 43.9646 13.3909 37.2852 11.4092C25.5673 7.92864 17.8846 14.7564 14.8974 25.3818C11.4029 37.8087 17.508 52.6677 21.9423 64.0965C26.2833 75.2732 31.4896 88.3774 40.5969 96.7905C41.5255 97.6481 42.7824 97.6481 43.7744 97.1725C43.8079 97.1581 43.8452 97.1581 43.8825 97.1364C48.6972 94.5602 52.4565 89.5808 56.4246 85.9165C61.9069 80.8615 67.2847 75.7668 72.2076 70.1893C80.7778 60.4754 87.8376 47.6198 85.9133 34.4507C84.6788 26.0015 79.5881 13.2287 68.6124 13.38V13.3836ZM73.7516 57.2904C66.0428 70.5676 52.2887 78.7501 42.7264 90.3951C34.145 77.6944 28.2301 63.1021 23.807 48.6647C20.9577 39.3652 18.4553 27.6769 25.2615 19.3755C36.0097 6.26763 44.6844 32.1483 47.3546 37.4268C48.1639 39.0301 50.3307 38.9509 51.5092 37.9096C52.2402 37.6754 52.8966 37.1529 53.2397 36.2125C56.3015 27.803 65.6214 11.7407 75.4708 24.0847C83.1758 33.7409 79.2711 47.7891 73.7516 57.294V57.2904Z" fill="white"/>
<path d="M91.2386 15.5604C92.6297 14.5263 94.1252 13.4814 94.0917 11.5898C94.0656 10.181 92.9393 9.17578 91.5184 9.10372C89.8923 9.02085 88.7586 10.0729 87.595 10.9953C86.5209 11.8492 85.4618 12.7104 84.4026 13.5823C83.4665 14.3498 83.3807 15.8414 83.97 16.8142C84.7569 18.1113 86.4128 18.4464 87.7479 17.7726C88.9935 17.1421 90.1273 16.3855 91.2386 15.5604Z" fill="#2D2D2D"/>
<path d="M80.1515 11.6111C82.0088 11.8272 83.3215 10.4473 84.3658 9.04569C85.4436 7.60087 85.9769 6.17407 85.9769 4.38335C85.9769 1.97292 82.598 1.11899 81.3338 3.16913C80.7594 4.09871 80.1739 5.0283 79.5847 5.95068C79.1297 6.66048 78.4919 7.24417 78.119 8.04765C76.9964 9.56093 78.2532 11.6543 80.1478 11.6147L80.1515 11.6111Z" fill="#2D2D2D"/>
<path d="M95.6453 16.9507C93.9969 16.3634 92.4567 17.3722 91.1253 18.2009C90.0922 18.8423 89.0144 19.4188 87.9627 20.0349C86.001 21.1807 86.6238 24.8522 89.227 24.5387C90.7262 24.3585 92.0241 24.0127 93.4151 23.4506C95.3992 22.6471 97.4019 21.6887 97.5362 19.3503C97.6033 18.1865 96.6858 17.3254 95.6453 16.9543V16.9507Z" fill="#2D2D2D"/>
<path d="M7.1688 18.7233C6.12829 18.1721 5.05421 17.6856 3.97268 17.2136C2.91352 16.7525 1.75739 16.7561 0.884707 17.5992C-0.0588398 18.5107 -0.144617 20.179 0.884707 21.0797C1.82452 21.9012 2.86131 22.6326 3.94284 23.274C5.12134 23.973 6.34833 24.8809 7.68719 25.2484C8.88061 25.5763 10.1934 25.0467 10.8162 24.0198C11.4912 22.9065 11.1854 21.7175 10.3836 20.7771C9.58921 19.8439 8.25034 19.3034 7.1688 18.7305V18.7233Z" fill="#2D2D2D"/>
<path d="M15.0501 14.3499C15.162 12.5123 13.6106 11.1216 12.3798 9.91094C11.2722 8.82282 9.99301 7.87162 8.55344 7.2519C7.49801 6.79791 6.36054 6.79431 5.48785 7.63382C4.51447 8.57421 4.51447 10.1451 5.48785 11.0855C6.4314 11.9971 7.34511 12.9483 8.27001 13.8779C9.38884 15.002 10.1198 16.2811 11.7458 16.7783C13.4465 17.3008 14.9532 15.9172 15.0501 14.3463V14.3499Z" fill="#2D2D2D"/>
<path d="M16.8965 6.57361C17.4148 7.60047 17.7952 8.63455 18.6829 9.42722C19.921 10.537 22.651 10.2919 22.9232 8.3463C23.1321 6.86906 22.8039 5.8602 22.1326 4.53789C21.5993 3.4858 21.0026 2.46613 20.4804 1.41044C19.1416 -1.30986 14.9199 0.653802 15.6135 3.39212C15.897 4.50906 16.3781 5.54674 16.8965 6.57361Z" fill="#2D2D2D"/>
</g>
<defs>
<clipPath id="clip0_2255_44397">
<rect width="97.3867" height="97.3867" fill="white" transform="translate(0.148438 0.106445)"/>
</clipPath>
</defs>
</svg>
