<svg width="54" height="54" viewBox="0 0 54 54" fill="none" xmlns="http://www.w3.org/2000/svg">
<path fill-rule="evenodd" clip-rule="evenodd" d="M12.3133 27.7568H14.4593L18.4685 26.5033L23.5165 29.688L27.7289 32.5904L32.5734 27.7568V36.5204C32.5734 38.0563 31.6474 39.3889 30.3262 39.9761L30.9811 44.5497H34.832V35.6733C34.832 35.2442 35.1708 34.9055 35.5885 34.9055C36.0178 34.9055 36.3566 35.2442 36.3566 35.6733V44.5497H42.726V35.7637C42.726 31.3594 39.1238 27.7568 34.719 27.7568H32.5734L28.5644 26.5033L23.5164 29.688L19.3041 32.5904L14.4593 27.7568V36.5204C14.4593 38.0563 15.385 39.3889 16.7067 39.9761L16.0516 44.5497H12.2006V35.6733C12.2006 35.2442 11.8618 34.9055 11.4441 34.9055C11.0147 34.9055 10.6759 35.2442 10.6759 35.6733V44.5497H4.30664V35.7637C4.30664 31.3594 7.90929 27.7568 12.3133 27.7568ZM28.0223 34.6571L29.705 46.4469H24.2847V36.1591C24.2847 35.7299 23.9344 35.391 23.5165 35.391C23.0986 35.391 22.7484 35.7299 22.7484 36.1591V46.4469H17.3278L19.0103 34.6571C20.5126 33.618 22.0142 32.579 23.5165 31.5401L28.0223 34.6571ZM23.3921 0.585327H23.6408C29.671 0.585327 34.6063 5.52032 34.6063 11.5511V11.9012C33.2173 12.5335 32.2573 13.9339 32.2573 15.5601C32.2573 16.4974 32.5734 17.3671 33.1155 18.0559C32.5735 18.7335 32.2573 19.6031 32.2573 20.5518C32.2573 21.2632 32.4381 21.9407 32.777 22.5166H30.5519C30.1904 23.1491 29.75 23.7364 29.2417 24.2446C27.7739 25.7127 25.7411 26.6276 23.5164 26.6276C21.2918 26.6276 19.2589 25.7127 17.7904 24.2446C17.2827 23.7365 16.8418 23.1491 16.4806 22.5166H14.2672C14.5948 21.9407 14.7753 21.2632 14.7753 20.5518C14.7753 19.6031 14.4592 18.7335 13.9169 18.0559C14.4591 17.3671 14.7753 16.4973 14.7753 15.5601C14.7753 13.9339 13.8155 12.5335 12.4262 11.9012V11.5511C12.4263 5.52032 17.3615 0.585327 23.3921 0.585327ZM10.7553 13.0642C12.1328 13.0642 13.2506 14.1825 13.2506 15.5601C13.2506 16.9266 12.1443 18.0446 10.7779 18.0558C12.1443 18.0672 13.2506 19.1737 13.2506 20.5517C13.2506 21.9293 12.1328 23.0475 10.7553 23.0475C9.37721 23.0475 8.25919 21.9293 8.25919 20.5517C8.25919 19.1737 9.36592 18.0671 10.7323 18.0558C9.36592 18.0445 8.25919 16.9266 8.25919 15.5601C8.25919 14.1825 9.37721 13.0642 10.7553 13.0642ZM36.2776 13.0642C37.6554 13.0642 38.7737 14.1825 38.7737 15.5601C38.7737 16.9266 37.6664 18.0446 36.3002 18.0558C37.6664 18.0672 38.7737 19.1737 38.7737 20.5517C38.7737 21.9293 37.6554 23.0475 36.2776 23.0475C34.9001 23.0475 33.7818 21.9293 33.7818 20.5517C33.7818 19.1737 34.889 18.0671 36.2665 18.0558C34.889 18.0445 33.7818 16.9266 33.7818 15.5601C33.7818 14.1825 34.9001 13.0642 36.2776 13.0642ZM18.5248 11.5849H16.9438V18.5189C16.9438 20.3259 17.6891 21.9746 18.8749 23.1604C20.0717 24.3576 21.7097 25.0916 23.5164 25.0916C25.3233 25.0916 26.9721 24.3576 28.1579 23.1604C29.3551 21.9746 30.089 20.326 30.089 18.5189V11.5849H28.5081C28.4737 11.5849 28.4512 11.5735 28.4176 11.5735C27.401 11.4494 26.43 11.167 25.5152 10.7379C24.8038 10.4105 24.1372 9.99251 23.5163 9.50685C22.895 9.99251 22.229 10.4105 21.5172 10.7379C20.6251 11.1556 19.6766 11.4267 18.6938 11.5623C18.6377 11.5736 18.5811 11.5849 18.5248 11.5849Z" fill="#031C77"/>
<g clip-path="url(#clip0_1277_23169)">
<circle cx="33.3151" cy="37.6694" r="8.70968" fill="#F9F9F9"/>
<path d="M43.7638 44.9218C43.4507 44.6119 42.9461 44.6316 42.6562 44.9537L42.1704 45.4934L40.9704 44.2933C42.4641 42.5522 43.3681 40.2908 43.3681 37.8222C43.3681 32.3352 38.9039 27.871 33.4168 27.871C27.922 27.871 23.5166 32.3174 23.5166 37.8222C23.5166 43.3163 27.912 47.7735 33.4168 47.7735C35.8854 47.7735 38.1468 46.8697 39.8879 45.376L41.1448 46.6329L40.6054 47.2325C40.3318 47.5363 40.3454 48.0012 40.6357 48.2886L45.7248 53.3268C46.6225 54.2242 48.0745 54.2244 48.9724 53.3268C49.8665 52.4327 49.8747 50.9816 48.9696 50.0766L43.7638 44.9218ZM25.0476 37.8222C25.0476 33.1792 28.8019 29.402 33.4168 29.402C38.0599 29.402 41.8371 33.1792 41.8371 37.8222C41.8371 42.4653 38.0599 46.2425 33.4168 46.2425C28.8019 46.2425 25.0476 42.4653 25.0476 37.8222ZM47.8897 52.2441C47.5939 52.5399 47.1113 52.5481 46.8047 52.2415L42.2314 47.7141L43.2571 46.5746L47.8897 51.1619C48.1882 51.4603 48.1882 51.9457 47.8897 52.2441Z" fill="#031C77"/>
<path d="M40.1977 37.43C40.0767 37.2272 37.1899 32.464 33.4167 32.464C29.6434 32.464 26.7566 37.2272 26.6354 37.43C26.4913 37.6716 26.4913 37.973 26.6354 38.2146C26.7566 38.4173 29.6434 43.1806 33.4167 43.1806C37.1899 43.1806 40.0767 38.4173 40.1977 38.2146C40.342 37.973 40.342 37.6716 40.1977 37.43ZM33.4167 41.6498C31.0474 41.6498 28.9218 38.8683 28.2059 37.8217C29.3546 36.14 31.373 33.9948 33.4167 33.9948C35.7855 33.9948 37.911 36.7757 38.6272 37.8231C37.479 39.5046 35.4604 41.6498 33.4167 41.6498Z" fill="#031C77"/>
<path d="M33.4166 35.5258C32.1504 35.5258 31.1201 36.556 31.1201 37.8223C31.1201 39.0885 32.1504 40.1187 33.4166 40.1187C34.6829 40.1187 35.7131 39.0885 35.7131 37.8223C35.7131 36.556 34.6829 35.5258 33.4166 35.5258ZM33.4166 38.5877C32.9946 38.5877 32.6511 38.2443 32.6511 37.8223C32.6511 37.4002 32.9946 37.0568 33.4166 37.0568C33.8386 37.0568 34.1821 37.4002 34.1821 37.8223C34.1821 38.2443 33.8386 38.5877 33.4166 38.5877Z" fill="#031C77"/>
</g>
<defs>
<clipPath id="clip0_1277_23169">
<rect width="26.129" height="26.129" fill="white" transform="translate(23.5166 27.871)"/>
</clipPath>
</defs>
</svg>
