<svg width="54" height="54" viewBox="0 0 54 54" fill="none" xmlns="http://www.w3.org/2000/svg">
<g clip-path="url(#clip0_1247_20786)">
<path d="M27.2813 15.8428H35.6313C36.3583 15.8428 36.9497 15.2515 36.9497 14.5245V6.1387C36.9497 5.41169 36.3583 4.82031 35.6313 4.82031H27.2813C26.5543 4.82031 25.9629 5.41169 25.9629 6.1387V12.1963C25.9629 12.6333 26.317 12.6318 26.7539 12.6318C27.1909 12.6318 27.545 12.6333 27.545 12.1963V6.40237H35.3676V14.2609H27.545V11.9288C27.545 11.4919 27.1909 11.1378 26.7539 11.1378C26.317 11.1378 25.9629 11.4919 25.9629 11.9288V14.5246C25.9629 15.2515 26.5543 15.8428 27.2813 15.8428Z" fill="#031C77"/>
<path d="M12.5488 14.5625H23.3251C23.7621 14.5625 24.1161 14.2085 24.1161 13.7715C24.1161 13.3345 23.7621 12.9805 23.3251 12.9805H12.5488C12.1119 12.9805 11.7578 13.3345 11.7578 13.7715C11.7578 14.2085 12.112 14.5625 12.5488 14.5625Z" fill="#031C77"/>
<path d="M30.5822 20.459C30.5822 20.022 30.2281 19.668 29.7911 19.668H18.917C18.48 19.668 18.126 20.022 18.126 20.459C18.126 20.896 18.48 21.25 18.917 21.25H29.7911C30.228 21.25 30.5822 20.8959 30.5822 20.459Z" fill="#031C77"/>
<path d="M12.5488 11.121H23.3251C23.7621 11.121 24.1161 10.7669 24.1161 10.33C24.1161 9.89301 23.7621 9.53894 23.3251 9.53894H12.5488C12.1119 9.53894 11.7578 9.89301 11.7578 10.33C11.7578 10.7669 12.112 11.121 12.5488 11.121Z" fill="#031C77"/>
<path d="M12.5488 7.67972H23.3251C23.7621 7.67972 24.1161 7.32565 24.1161 6.88869C24.1161 6.45172 23.7621 6.09766 23.3251 6.09766H12.5488C12.1119 6.09766 11.7578 6.45172 11.7578 6.88869C11.7578 7.32565 12.112 7.67972 12.5488 7.67972Z" fill="#031C77"/>
<path d="M12.5488 30.0039H28.776C29.213 30.0039 29.5671 29.6499 29.5671 29.2129C29.5671 28.7759 29.213 28.4219 28.776 28.4219H12.5488C12.1119 28.4219 11.7578 28.7759 11.7578 29.2129C11.7578 29.6499 12.112 30.0039 12.5488 30.0039Z" fill="#031C77"/>
<path d="M12.5488 25.5782H25.3823C25.8193 25.5782 26.1733 25.2241 26.1733 24.7871C26.1733 24.3502 25.8193 23.9961 25.3823 23.9961H12.5488C12.1119 23.9961 11.7578 24.3502 11.7578 24.7871C11.7578 25.2241 12.112 25.5782 12.5488 25.5782Z" fill="#031C77"/>
<path d="M36.208 23.9961H28.8115C28.3746 23.9961 28.0205 24.3502 28.0205 24.7871C28.0205 25.2241 28.3746 25.5782 28.8115 25.5782H36.208C36.6449 25.5782 36.999 25.2241 36.999 24.7871C36.999 24.3502 36.6448 23.9961 36.208 23.9961Z" fill="#031C77"/>
<path d="M53.0797 48.9304C53.0701 48.921 53.0602 48.9118 53.0502 48.9028L48.1824 44.5715C48.9515 43.1702 49.3905 41.6 49.4488 39.9636C49.4643 39.5269 49.123 39.1604 48.6864 39.1448C48.2491 39.1318 47.8834 39.4706 47.8677 39.9071C47.7479 44.5668 43.8012 48.4049 39.1321 48.3583C34.3121 48.3583 30.3907 44.4237 30.3907 39.5875C30.3176 34.848 34.3989 30.7497 39.1321 30.8168C42.8193 30.8168 46.1288 33.1567 47.3673 36.6391C47.5137 37.0507 47.9665 37.266 48.3776 37.1194C48.7893 36.973 49.0042 36.5207 48.8579 36.1091C47.5367 32.394 44.2184 29.7811 40.3783 29.3113V1.31838C40.3783 0.591374 39.7869 0 39.0599 0H9.64734C8.92034 0 8.32896 0.591374 8.32896 1.31838V4.17948H5.48389C4.75688 4.17948 4.16551 4.77086 4.16551 5.49787V8.35886H1.32034C0.593327 8.35886 0.00195312 8.95024 0.00195312 9.67724V49.1386C0.00195312 49.8657 0.593327 50.457 1.32034 50.457H26.5081C27.2351 50.457 27.8265 49.8657 27.8265 49.1386V46.2775H31.2605C33.1556 48.5167 35.981 49.9404 39.1322 49.9404C40.8638 49.9404 42.5355 49.5123 44.023 48.708L48.9278 53.1009C50.0941 54.2563 51.9838 54.3201 53.154 53.1652C54.325 52.046 54.2542 50.0374 53.0797 48.9304ZM9.91102 1.58206H38.7963V29.2414C35.4343 29.351 32.3791 31.0991 30.5533 33.829H27.3415C26.9046 33.829 26.5505 34.183 26.5505 34.62C26.5505 35.057 26.9046 35.411 27.3415 35.411H29.6836C29.5777 35.6519 29.4801 35.8978 29.392 36.149C29.0049 37.2517 28.8087 38.4087 28.8087 39.5875C28.8087 39.9006 28.8235 40.21 28.8507 40.5161H17.8457C18.9314 39.476 19.6098 38.0115 19.6098 36.3901V35.4111H23.9129C24.3498 35.4111 24.7039 35.0571 24.7039 34.6201C24.7039 34.1831 24.3498 33.8291 23.9129 33.8291H18.8188C18.3818 33.8291 18.0277 34.1831 18.0277 34.6201V36.3901C18.0277 38.6652 16.1852 40.5161 13.9205 40.5161H9.91102V1.58206ZM5.74757 44.6954L5.74757 29.6129C5.74757 29.1759 5.39351 29.6129 4.95654 29.6129C4.51958 29.6129 4.16551 29.6114 4.16551 30.0484V44.9591C4.16551 45.6861 4.75688 46.2774 5.48389 46.2774H26.2444H15.8642L4.95654 45.7258L4.79057 9.94092H4.16551V30.5389C4.16551 30.9759 4.51958 31.3299 4.95654 31.3299C5.39351 31.3299 5.74757 30.9759 5.74757 30.5389V5.76154H8.32907V41.3071C8.32907 41.7441 8.68313 42.0982 9.1201 42.0982H29.1164C29.3459 43.0186 29.6983 43.8906 30.1555 44.6955L5.74757 44.6954ZM45.7261 46.5968C45.1787 47.1425 45.3984 47.1897 45.2906 47.4677L45.3984 47.8158C46.1085 47.2718 46.7634 46.6181 47.308 45.9109L46.597 45.2903C45.7261 46.5968 46.2696 46.0733 45.7261 46.5968Z" fill="#031C77"/>
<path d="M39.1321 32.8249C35.482 32.7729 32.3339 35.9322 32.3894 39.5859C32.3894 43.314 35.4142 46.3469 39.1321 46.3469C42.85 46.3469 45.8748 43.314 45.8748 39.5859C45.8748 35.8579 42.85 32.8249 39.1321 32.8249ZM39.1321 44.7648C36.2866 44.7648 33.9715 42.4416 33.9715 39.5858C33.9282 36.7875 36.3378 34.3673 39.1321 34.4068C41.9776 34.4068 44.2927 36.73 44.2927 39.5858C44.2927 42.4416 41.9777 44.7648 39.1321 44.7648Z" fill="#031C77"/>
<rect x="27" y="6.09766" width="8.70968" height="8.70968" fill="#031C77"/>
</g>
<defs>
<clipPath id="clip0_1247_20786">
<rect width="54" height="54" fill="white"/>
</clipPath>
</defs>
</svg>
