<svg width="237" height="309" viewBox="0 0 237 309" fill="none" xmlns="http://www.w3.org/2000/svg">
<g opacity="0.8">
<path d="M61.6812 178.688C45.6984 162.705 36.641 141.696 36.1757 119.532C35.713 97.3684 43.9 76.72 59.2291 61.3909C74.5557 46.0643 95.204 37.8775 117.368 38.3393L151.916 39.0633C162.495 39.286 171.253 48.0434 171.475 58.6225C171.697 69.2031 163.298 77.6017 152.717 77.3805L118.169 76.6566C106.24 76.4087 95.1308 80.8087 86.8889 89.0507C78.6448 97.2948 74.2444 108.405 74.4932 120.333C74.7428 132.263 79.6124 143.566 88.208 152.161C96.8019 160.755 108.104 165.625 120.035 165.874L189.536 167.327C200.117 167.549 208.874 176.306 209.095 186.887C209.317 197.467 200.918 205.866 190.337 205.645L120.836 204.192C98.6717 203.726 77.664 194.671 61.6812 178.688Z" fill="white"/>
<path d="M142.444 263.065C138.887 259.508 136.629 254.659 136.505 249.355C136.261 238.748 144.663 230.347 155.269 230.591L189.903 231.39C214.56 231.957 234.161 212.356 233.592 187.698C233.026 163.039 212.502 142.518 187.844 141.949L118.172 140.348C107.565 140.104 98.7679 131.307 98.5239 120.7C98.2802 110.093 106.681 101.692 117.288 101.936L186.96 103.541C232.797 104.597 270.949 142.746 272.002 188.583C273.058 234.42 236.624 270.854 190.787 269.801L156.151 269.002C150.85 268.88 145.999 266.62 142.444 263.065Z" fill="white"/>
</g>
</svg>
