<svg width="215" height="224" viewBox="0 0 215 224" fill="none" xmlns="http://www.w3.org/2000/svg">
<g opacity="0.8">
<path d="M61.6812 93.6879C45.6984 77.7051 36.641 56.6958 36.1757 34.5318C35.713 12.3684 43.9 -8.28 59.2291 -23.6091C74.5557 -38.9357 95.204 -47.1225 117.368 -46.6607L151.916 -45.9367C162.495 -45.7139 171.253 -36.9566 171.475 -26.3775C171.697 -15.7969 163.298 -7.39825 152.717 -7.61948L118.169 -8.34342C106.24 -8.59126 95.1308 -4.19123 86.8889 4.05069C78.6448 12.2948 74.2444 23.4047 74.4932 35.3327C74.7428 47.2631 79.6124 58.5656 88.208 67.1611C96.8019 75.7551 108.104 80.6247 120.035 80.8743L189.536 82.3275C200.117 82.5487 208.874 91.306 209.095 101.887C209.317 112.467 200.918 120.866 190.337 120.645L120.836 119.192C98.6717 118.726 77.664 109.671 61.6812 93.6879Z" fill="white"/>
<path d="M142.444 178.065C138.887 174.508 136.629 169.659 136.505 164.355C136.261 153.748 144.663 145.347 155.269 145.591L189.903 146.39C214.56 146.957 234.161 127.356 233.592 102.698C233.026 78.039 212.502 57.5185 187.844 56.9495L118.172 55.348C107.565 55.1041 98.7679 46.3071 98.5239 35.7002C98.2802 25.0931 106.681 16.6918 117.288 16.9359L186.96 18.5408C232.797 19.5972 270.949 57.7459 272.002 103.583C273.058 149.42 236.624 185.854 190.787 184.801L156.151 184.002C150.85 183.88 145.999 181.62 142.444 178.065Z" fill="white"/>
</g>
</svg>
