<svg width="41" height="41" viewBox="0 0 41 41" fill="none" xmlns="http://www.w3.org/2000/svg">
<rect width="41" height="41" rx="20.5" fill="white" fill-opacity="0.7"/>
<path d="M25.2744 11.4706H16.3718C13.4743 11.4706 11.1172 13.8277 11.1172 16.7252V25.6279C11.1172 28.5252 13.4743 30.8823 16.3718 30.8823H25.2745C28.1718 30.8823 30.529 28.5252 30.529 25.6279V16.7252C30.529 13.8277 28.1718 11.4706 25.2744 11.4706ZM20.8231 26.4842C17.8963 26.4842 15.5153 24.1032 15.5153 21.1765C15.5153 18.2497 17.8963 15.8687 20.8231 15.8687C23.7498 15.8687 26.1308 18.2497 26.1308 21.1765C26.1308 24.1032 23.7498 26.4842 20.8231 26.4842ZM26.2577 17.1204C25.3928 17.1204 24.6894 16.417 24.6894 15.5521C24.6894 14.6872 25.3928 13.9835 26.2577 13.9835C27.1227 13.9835 27.8263 14.6872 27.8263 15.5521C27.8263 16.417 27.1227 17.1204 26.2577 17.1204Z" fill="#2D2D2D"/>
<path d="M20.8231 17.0067C18.524 17.0067 16.6533 18.8772 16.6533 21.1764C16.6533 23.4755 18.524 25.3462 20.8231 25.3462C23.1223 25.3462 24.9928 23.4755 24.9928 21.1764C24.9928 18.8772 23.1223 17.0067 20.8231 17.0067Z" fill="#2D2D2D"/>
<path d="M26.2575 15.1217C26.0203 15.1217 25.8271 15.3149 25.8271 15.5521C25.8271 15.7894 26.0203 15.9825 26.2575 15.9825C26.4949 15.9825 26.6881 15.7895 26.6881 15.5521C26.6881 15.3147 26.4949 15.1217 26.2575 15.1217Z" fill="#2D2D2D"/>
</svg>
