<svg width="28" height="29" viewBox="0 0 28 29" fill="none" xmlns="http://www.w3.org/2000/svg">
<g clip-path="url(#clip0_104_511322)">
<path d="M5.67143 4.33228C5.67078 4.33228 5.67006 4.33228 5.66941 4.33228C5.44242 4.33228 5.22892 4.42076 5.06771 4.58157C4.90472 4.74416 4.81494 4.96064 4.81494 5.19111V18.0691C4.81494 18.5414 5.20064 18.9265 5.67482 18.9277C7.67386 18.9325 11.023 19.3491 13.3335 21.767V8.28978C13.3335 8.1297 13.2926 7.97932 13.2155 7.85487C11.3191 4.80096 7.67499 4.33696 5.67143 4.33228Z" fill="#7A7A7A"/>
<path d="M23.1855 18.0691V5.19101C23.1855 4.96055 23.0957 4.74406 22.9327 4.58148C22.7715 4.42067 22.5578 4.33218 22.3311 4.33218C22.3304 4.33218 22.3296 4.33218 22.329 4.33218C20.3255 4.33695 16.6814 4.80095 14.785 7.85486C14.7078 7.97931 14.667 8.12969 14.667 8.28977V21.7669C16.9775 19.349 20.3266 18.9324 22.3257 18.9276C22.7998 18.9264 23.1855 18.5413 23.1855 18.0691Z" fill="#7A7A7A"/>
<path d="M25.1416 7.30191H24.5189V18.0689C24.5189 19.2746 23.5365 20.2578 22.3289 20.2608C20.6333 20.2649 17.8375 20.5964 15.8574 22.4704C19.2819 21.632 22.892 22.177 24.9493 22.6459C25.2062 22.7044 25.4717 22.6439 25.6775 22.4799C25.8826 22.3163 26.0002 22.0717 26.0002 21.8091V8.16058C26.0003 7.68712 25.615 7.30191 25.1416 7.30191Z" fill="#7A7A7A"/>
<path d="M3.48138 18.0691V7.30212H2.85867C2.38529 7.30212 2 7.68734 2 8.16079V21.8091C2 22.0717 2.11766 22.3162 2.32275 22.4799C2.52841 22.6438 2.79362 22.7045 3.05091 22.6459C5.10829 22.1769 8.71841 21.632 12.1427 22.4704C10.1628 20.5965 7.36697 20.265 5.67137 20.261C4.46385 20.258 3.48138 19.2749 3.48138 18.0691Z" fill="#7A7A7A"/>
</g>
<defs>
<clipPath id="clip0_104_511322">
<rect width="24" height="24" fill="white" transform="translate(2 1.5)"/>
</clipPath>
</defs>
</svg>
