<svg width="83" height="63" fill="none" xmlns="http://www.w3.org/2000/svg"><g clip-path="url(#clip0_2255_44374)"><path d="M42.533 6.748c-4.28.97-11.856 4.638-15.642 1.46-3.033-2.548-6.178-5.052-9.476-7.253-.582-.39-1.205-.235-1.651.143-.048.036-.086.08-.13.12a1.682 1.682 0 00-.317.453c-.07.147-.112.3-.13.46 0 .015-.01.025-.012.043a.242.242 0 01-.004.038c0 .028-.008.055-.01.083-.37 4.314-.909 8.617-1.425 12.913-.41 3.413-9.648 7.052-12.421 8.687-1.452.855-1.045 2.729.378 3.311 2.915 1.196 12.167 3.4 13.35 6.5 1.532 4.005 2.284 8.472 3.257 12.644.303 1.3 2.095 1.867 3.045.863 2.34-2.468 7.48-10.598 11.198-10.502 4.326.109 8.64.355 12.971.375 1.305.008 2.415-1.495 1.634-2.69-2.403-3.666-5.422-7.651-6.92-11.788-1.102-3.042 3.32-10.538 4.453-13.638.479-1.31-.893-2.51-2.144-2.226l-.004.004zM18.036 34.881c-.022.117-.202.1-.226-.006-.274-1.138-1.021-2.392-1.832-3.234-.759-.787-1.658-1.173-2.505-1.806-.082-.057-.074-.183.032-.21 1.168-.317 2.531.962 3.214 1.758.875 1.016 1.563 2.118 1.317 3.498zm-1.774-17.418c-1.07 1.944-2.995 3.051-5.017 3.835-.1.038-.156-.104-.094-.167 1.438-1.478 3.694-2.3 4.44-4.386.62-1.724.397-3.56.565-5.353.016-.155.212-.167.264-.028.711 1.905.861 4.256-.158 6.101v-.002zm.056-6.93c-.034.045-.106.051-.136 0-.308-.541-.2-1.108-.164-1.705.044-.718.054-1.434.082-2.151.004-.094.134-.158.2-.078.83.986.761 2.904.018 3.936v-.002zm19.729 24.384c-2.327-.227-4.691-.672-6.75.783-1.615 1.144-2.672 2.637-4.092 3.964-.044.042-.12 0-.1-.06 1.392-4.415 6.763-7.79 11.03-4.986.124.086.082.317-.088.299zm-9.819-24.669c-.032-.04-.002-.093.05-.081 1.196.282 2.203.964 3.466 1.01 1.05.038 2.122-.12 3.17-.15.097-.001.135.144.045.188-2.114 1.002-5.127 1.082-6.729-.967h-.002zm14.205 25.178c-.523.199-.993.111-1.54.07-.504-.038-1.037.005-1.511-.192-.122-.051-.176-.232-.034-.304.486-.244 1.03-.187 1.563-.157.571.03 1.078.044 1.55.388.08.06.058.161-.028.193v.002zm-1.081-20.238c-.52 1.098-1.01 2.21-1.836 3.119-.096.103-.25-.012-.222-.134.308-1.302.905-2.531 1.511-3.72.419-.82.935-1.995 1.822-2.405.078-.038.15.026.138.107-.174 1.037-.963 2.083-1.413 3.031v.002z" fill="#fff"/></g><g clip-path="url(#clip1_2255_44374)"><path d="M79.94 11.527c-1.913.434-5.298 2.072-6.99.652-1.354-1.138-2.76-2.257-4.233-3.24-.26-.174-.538-.105-.738.064-.021.016-.038.035-.058.053a.75.75 0 00-.141.203.643.643 0 00-.059.205c0 .007-.004.011-.005.02 0 .005 0 .011-.002.016 0 .013-.003.025-.004.038-.166 1.927-.406 3.85-.637 5.77-.183 1.524-4.31 3.15-5.55 3.88-.648.383-.467 1.22.17 1.48 1.302.534 5.435 1.519 5.964 2.904.684 1.79 1.02 3.785 1.455 5.65.136.58.936.834 1.361.385 1.046-1.102 3.342-4.735 5.003-4.692 1.933.049 3.86.159 5.796.168.583.003 1.079-.669.73-1.203-1.074-1.637-2.423-3.418-3.092-5.266-.493-1.36 1.483-4.709 1.99-6.094.213-.585-.4-1.122-.958-.995l-.002.002zm-10.946 12.57c-.01.053-.09.045-.1-.003-.123-.508-.457-1.068-.82-1.444-.338-.352-.74-.525-1.118-.807-.037-.026-.033-.082.014-.094.522-.142 1.13.43 1.436.785.39.454.698.947.588 1.563zm-.792-7.782c-.479.868-1.338 1.363-2.242 1.713-.045.017-.07-.046-.042-.075.642-.66 1.65-1.027 1.984-1.959.276-.77.177-1.59.252-2.392.008-.07.095-.075.118-.012.318.85.385 1.901-.07 2.726v-.001zm.025-3.097c-.015.02-.048.023-.061 0-.138-.242-.09-.495-.073-.761.02-.321.024-.641.036-.962.002-.041.06-.07.09-.034.37.44.34 1.297.008 1.758zm8.814 10.895c-1.039-.101-2.095-.3-3.015.35-.722.511-1.194 1.179-1.828 1.771-.02.019-.054 0-.045-.026.622-1.973 3.022-3.481 4.928-2.228.055.038.037.141-.04.133zm-4.386-11.022c-.015-.018-.001-.042.022-.036.534.126.984.43 1.549.451.468.017.948-.053 1.416-.066.043-.001.06.063.02.083-.945.448-2.29.483-3.006-.432h-.001zM79 24.341c-.233.088-.443.05-.687.03-.226-.016-.464.003-.676-.084-.054-.024-.079-.104-.015-.136.217-.11.46-.084.699-.07.254.013.48.019.692.173.036.026.026.072-.013.086zm-.483-9.043c-.232.49-.45.988-.82 1.394-.043.046-.112-.006-.1-.06.139-.582.405-1.131.676-1.662.187-.367.418-.892.814-1.075.035-.017.067.012.062.048-.078.463-.43.93-.632 1.354v.001z" fill="#fff"/></g><g clip-path="url(#clip2_2255_44374)"><path d="M66.229 44.527c-1.913.434-5.297 2.072-6.99.652-1.354-1.138-2.76-2.257-4.233-3.24-.26-.174-.538-.105-.738.064-.021.016-.038.035-.058.053a.754.754 0 00-.141.203.64.64 0 00-.059.205c0 .007-.004.011-.005.02 0 .005 0 .011-.002.016 0 .013-.003.025-.004.038-.166 1.927-.406 3.85-.637 5.77-.183 1.524-4.31 3.15-5.55 3.88-.648.383-.467 1.22.17 1.48 1.302.534 5.435 1.519 5.964 2.904.684 1.79 1.02 3.785 1.456 5.65.135.58.935.834 1.36.385 1.046-1.102 3.342-4.735 5.003-4.692 1.933.049 3.861.159 5.796.168.583.003 1.079-.669.73-1.203-1.074-1.637-2.423-3.418-3.092-5.266-.493-1.36 1.483-4.709 1.99-6.094.214-.585-.4-1.122-.958-.995l-.002.002zm-10.946 12.57c-.01.053-.09.045-.1-.003-.123-.508-.457-1.068-.82-1.444-.338-.352-.74-.525-1.118-.807-.037-.026-.033-.082.014-.094.522-.142 1.13.43 1.436.785.39.454.698.947.588 1.563zm-.792-7.782c-.479.868-1.338 1.363-2.242 1.713-.045.017-.07-.046-.042-.075.642-.66 1.65-1.027 1.984-1.959.277-.77.177-1.59.252-2.392.008-.07.095-.075.119-.012.317.85.384 1.901-.071 2.726v-.001zm.025-3.097c-.015.02-.047.023-.06 0-.139-.242-.09-.495-.074-.761.02-.321.024-.641.036-.962.002-.041.06-.07.09-.034.37.44.34 1.297.008 1.758zm8.815 10.895c-1.04-.101-2.096-.3-3.016.35-.722.511-1.194 1.179-1.828 1.771-.02.019-.054 0-.045-.026.622-1.973 3.022-3.481 4.928-2.228.055.038.037.141-.04.133zm-4.387-11.022c-.015-.018-.001-.042.022-.036.534.126.984.43 1.549.451.468.017.948-.053 1.416-.066.044-.001.06.063.02.083-.944.448-2.29.483-3.006-.432h-.001zm6.346 11.25c-.233.088-.443.05-.687.03-.226-.016-.464.003-.676-.085-.054-.023-.078-.104-.015-.136.217-.109.46-.083.699-.07.255.014.48.02.692.174.036.026.026.072-.013.086zm-.483-9.043c-.232.49-.45.988-.82 1.394-.043.046-.112-.006-.1-.06.139-.582.405-1.131.676-1.662.187-.367.418-.892.814-1.075.035-.017.067.012.062.048-.078.463-.43.93-.631 1.355z" fill="#fff"/></g><defs><clipPath id="clip0_2255_44374"><path fill="#fff" transform="translate(.406 .729)" d="M0 0h47v47H0z"/></clipPath><clipPath id="clip1_2255_44374"><path fill="#fff" transform="translate(61.117 8.838)" d="M0 0h21v21H0z"/></clipPath><clipPath id="clip2_2255_44374"><path fill="#fff" transform="translate(47.406 41.838)" d="M0 0h21v21H0z"/></clipPath></defs></svg>