<svg width="35" height="35" viewBox="0 0 35 35" fill="none" xmlns="http://www.w3.org/2000/svg">
<path d="M17.4599 34.8679C14.877 34.8679 12.29 34.9677 9.71401 34.8446C5.95084 34.6654 2.92054 33.1331 1.15699 29.6375C0.351378 28.0478 0.050818 26.3048 0.0384663 24.5385C0.00552825 19.8869 -0.0397615 15.2353 0.0659146 10.5932C0.0955742 9.04648 0.376919 7.51478 0.898972 6.0579C2.17395 2.59107 4.88996 0.774206 8.48295 0.27484C9.95596 0.0796412 11.4409 -0.0117938 12.9268 0.00121546C17.018 0.00121546 21.1119 0.0094242 25.2004 0.138028C28.3569 0.233797 31.0922 1.34882 33.0382 3.96878C34.3956 5.79659 34.9459 7.91992 34.9596 10.1349C34.9953 15.3064 35.0667 20.4848 34.8498 25.6494C34.6234 31.0426 30.793 34.6421 25.3431 34.8528C22.7204 34.95 20.0881 34.8665 17.4599 34.8679ZM17.475 31.7212C20.0346 31.7212 22.5955 31.7923 25.1523 31.7048C28.9347 31.5679 31.556 29.3242 31.6699 25.7466C31.8442 20.2645 31.8072 14.7701 31.6782 9.28531C31.6068 6.34521 29.7815 4.32312 27.0614 3.61033C26.4019 3.42173 25.7214 3.31602 25.0357 3.29566C20.0305 3.26966 15.0239 3.18621 10.0214 3.31071C6.0277 3.41058 3.475 5.65978 3.35834 9.33045C3.18542 14.7674 3.2211 20.2166 3.34874 25.6576C3.41599 28.5882 5.18366 30.6253 7.84341 31.3614C8.54544 31.5644 9.27024 31.6788 10.0008 31.702C12.489 31.7485 14.9855 31.7225 17.475 31.7225V31.7212Z" fill="#D9D9D9"/>
<path d="M26.9999 17.9957C26.9908 19.7702 26.4251 21.5023 25.3745 22.9731C24.3239 24.444 22.8354 25.5876 21.0971 26.2595C19.3588 26.9314 17.4487 27.1014 15.6082 26.748C13.7677 26.3946 12.0794 25.5338 10.7565 24.2741C9.43362 23.0145 8.5356 21.4127 8.17588 19.6711C7.81616 17.9294 8.0109 16.1261 8.73549 14.489C9.46007 12.8519 10.682 11.4544 12.2469 10.4732C13.8117 9.49197 15.6493 8.971 17.5274 8.97611C20.0492 8.98624 22.4635 9.94199 24.2397 11.6333C26.016 13.3246 27.0088 15.6131 26.9999 17.9957ZM11.3397 17.9629C11.3417 19.1136 11.7048 20.2378 12.3831 21.1935C13.0614 22.1492 14.0244 22.8934 15.1504 23.3319C16.2764 23.7704 17.5147 23.8836 18.7087 23.6572C19.9028 23.4307 20.999 22.8748 21.8586 22.0597C22.7182 21.2447 23.3028 20.207 23.5382 19.0781C23.7737 17.9491 23.6495 16.7795 23.1814 15.7172C22.7133 14.6549 21.9223 13.7477 20.9084 13.1102C19.8945 12.4727 18.7033 12.1335 17.4855 12.1357C15.8542 12.1433 14.2924 12.7603 13.1409 13.8521C11.9895 14.9438 11.3419 16.4216 11.3397 17.9629Z" fill="#D9D9D9"/>
<path d="M28.9995 8.02259C28.988 8.54271 28.7732 9.03776 28.4008 9.40215C28.0285 9.76654 27.5282 9.97144 27.0065 9.97314C26.4849 9.97485 25.9832 9.77322 25.6085 9.41126C25.2338 9.0493 25.0158 8.55567 25.0008 8.03563C24.9932 7.76954 25.039 7.50462 25.1356 7.25648C25.2323 7.00833 25.3777 6.78199 25.5634 6.59078C25.7491 6.39957 25.9713 6.24737 26.2169 6.14314C26.4625 6.03891 26.7265 5.98477 26.9935 5.9839C27.2604 5.98303 27.5248 6.03545 27.771 6.13807C28.0173 6.24069 28.2405 6.39144 28.4275 6.58144C28.6144 6.77143 28.7613 6.99682 28.8596 7.24433C28.9578 7.49184 29.0054 7.75645 28.9995 8.02259Z" fill="#D9D9D9"/>
</svg>
