<svg width="30" height="34" viewBox="0 0 30 34" fill="none" xmlns="http://www.w3.org/2000/svg">
<g clip-path="url(#clip0_227_681)">
<path d="M12.0616 18.2385C11.2288 18.2385 10.4365 18.1309 9.68229 18.2582C8.43876 18.4514 7.31683 19.1159 6.54841 20.1144C5.77999 21.113 5.42383 22.3692 5.55354 23.6234C5.68793 24.8761 6.29153 26.031 7.24252 26.8551C8.19351 27.6792 9.42108 28.1111 10.6775 28.0637C13.3436 27.9587 15.4125 25.8541 15.4466 23.1209C15.4871 19.9718 15.4623 16.8227 15.4636 13.6736C15.4636 9.38736 15.4636 5.10109 15.4636 0.814828V0H20.9044C21.0039 2.27653 21.787 4.26571 23.4081 5.87962C25.0292 7.49353 27.0013 8.29917 29.3334 8.37265V13.8061C26.2837 13.8061 23.5495 12.8457 20.9777 10.9903C20.962 11.2987 20.9398 11.5152 20.9398 11.7409C20.9476 15.4581 20.9646 19.174 20.9646 22.8939C20.9646 28.1424 17.5168 32.3294 12.3588 33.345C6.83027 34.434 1.19171 30.6197 0.180806 25.1061C-0.875932 19.359 2.91104 13.8691 8.62162 12.9388C9.58015 12.7827 10.574 12.8247 11.5522 12.826C11.7237 12.826 12.0393 13.0805 12.0433 13.2196C12.0734 14.9162 12.0616 16.6193 12.0616 18.2385Z" fill="#D9D9D9"/>
</g>
<defs>
<clipPath id="clip0_227_681">
<rect width="29.3333" height="33.5247" fill="white"/>
</clipPath>
</defs>
</svg>
