<svg width="82" height="83" fill="none" xmlns="http://www.w3.org/2000/svg"><g clip-path="url(#clip0_2255_44462)" fill="#CACACA"><path d="M22.74 59.254c9.22-16.58 19.38-31.98 30.95-47.03l-3.57-.08c.13 17.1 1.02 33.87 3.8 50.76l3.97-.36c-10.14-11.13-20.28-22.26-30.4-33.4l-3.06 1.11c12.82 2.82 25.73 5.03 38.74 6.75-.45-.43-.89-.86-1.34-1.29-13.9 8.29-28.82 14.68-42.72 22.98-1.46.87 3.09 1.59 4.26.89 13.74-8.32 28.5-14.75 42.23-23.08 1.15-.7-1.02-1.25-1.34-1.29-12.68-1.63-25.26-3.85-37.75-6.56-.41-.09-3.95.14-3.06 1.11 10.2 11.12 20.39 22.24 30.57 33.38.54.59 4.18.93 3.97-.36-2.8-16.83-3.93-33.7-4.22-50.75-.02-1.2-3.1-.69-3.57-.08-11.33 14.83-22.54 30.09-30.47 47.07-.42.9 2.6 1.03 3.04.24l-.03-.01zm42.43-35.81c2.65-1.53 5.01-3.55 7.49-5.33 2.61-1.88 5.37-3.54 7.97-5.43.94-.68-1.81-.91-2.29-.66-5.23 2.81-11.13 6.51-15.26 10.82-.79.82 1.69.84 2.1.6h-.01zm-1.21 26.54c4.85 3.88 9.61 8.41 14.75 11.85.5.34 3.36.07 2.74-.58-4.34-4.59-10.27-8.27-15.46-11.84-.49-.34-2.78-.03-2.03.57z"/><path d="M37.26 61.874c-2.31 6.16-4.6 13.12-5.67 19.61-.12.73 2.44.68 2.69.06 2.54-6.09 4.4-13.15 5.73-19.61.14-.7-2.5-.73-2.75-.06zm.1-43.6c-2.11-5.88-4.09-12.01-6.62-17.72-.27-.62-2.8-.46-2.65.24 1.26 6.14 3.6 12.48 6.85 17.84.35.58 2.72.46 2.42-.37v.01zM2.391 44.524c6.4-1.68 12.7-3.27 19.21-4.5 1.84-.35.39-1.18-.76-1.07-6.84.68-13.58 2.4-20.01 4.79-1.24.46 1.08.9 1.56.78z"/></g><defs><clipPath id="clip0_2255_44462"><path fill="#fff" transform="translate(.47 .164)" d="M0 0h81.06v81.86H0z"/></clipPath></defs></svg>