<svg width="88" height="43" fill="none" xmlns="http://www.w3.org/2000/svg"><g clip-path="url(#clip0_2255_44498)" fill="#CACACA"><path d="M0 18.75c.3 6.99 2.28 14.06 3.58 20.94.22 1.17 3.89 1.16 4.2.09 2.34-8 4.64-16 6.92-24.01l-4.22-.09c2.29 8.6 2.66 17.32 2.88 26.17.03 1.31 3.84 1.01 4.3.09C23.77 29.7 29.9 17.45 35.71 5.07c.52-1.12-3.28-1.33-3.81-.31-6.35 12.18-12.41 24.51-18.47 36.84l4.3.09c-.28-8.84-.73-17.57-2.96-26.17-.29-1.13-3.89-1.21-4.22-.09-2.33 8-4.63 16-6.9 24.01l4.2.09c-1.37-6.92-2.22-14.23-4.53-20.9-.31-.9-3.36-.92-3.32.12zm37.32-1.8c-2.93 4.8-7.93 16.47-2.41 21.16 4.34 3.69 8.65.06 10.83-3.81 2.66-4.71 7.21-14.89.33-18.06-3.9-1.8-10.67-.21-10.37 4.96.06 1.11 3.28.89 3.66.08 1.39-2.95 5.59-4.16 6.2.14.21 1.48-.23 3.14-.56 4.56-.68 2.9-2.02 7.83-4.26 9.92-4.45 4.14-4.35-4.91-4.13-7.3.36-4.02 1.64-7.84 3.47-11.41.41-.8-2.34-.92-2.77-.22l.01-.02zM52.78 6.22c.23 9.58 1.64 19.12 1.89 28.72.03 1.29 3.93 1.05 4.21-.15 2.03-8.45 3.94-16.93 5.96-25.38l-4.17.15 2.94 29.5c.12 1.24 3.99 1.14 4.31.09C72.34 24.85 79.31 13.41 87.25.92c.67-1.06-3.09-1.14-3.67-.52-9.87 10.45-15.8 24.84-19.9 38.41l4.31.09-3.15-29.49c-.14-1.3-3.89-1.04-4.17.15-1.96 8.47-4.04 16.91-6 25.38l4.21-.15c-.33-9.51-.99-19.32-2.66-28.69-.18-1.02-3.47-.91-3.44.12z"/></g><defs><clipPath id="clip0_2255_44498"><path fill="#fff" d="M0 0h87.33v42.73H0z"/></clipPath></defs></svg>