<svg width="17" height="17" viewBox="0 0 17 17" fill="none" xmlns="http://www.w3.org/2000/svg">
<path d="M1.00004 6.85687C2.91644 11.0307 6.32644 14.3492 10.5659 16.1482L11.2455 16.451C12.8004 17.1438 14.6281 16.6175 15.5764 15.204L16.4645 13.8803C16.7533 13.4499 16.6654 12.8702 16.262 12.5448L13.2501 10.115C12.8078 9.75814 12.1573 9.84134 11.8188 10.2979L10.8871 11.5552C8.49634 10.3758 6.55524 8.43484 5.37594 6.04402L6.63314 5.1123C7.08984 4.77388 7.17295 4.12336 6.81605 3.68098L4.38623 0.669036C4.06088 0.265756 3.48137 0.177786 3.051 0.466356L1.71816 1.36006C0.295825 2.31376 -0.227555 4.15661 0.481175 5.71556L0.999265 6.85518L1.00004 6.85687Z" fill="white"/>
</svg>
