<svg width="113" height="37" fill="none" xmlns="http://www.w3.org/2000/svg"><path fill-rule="evenodd" clip-rule="evenodd" d="M112.784 3.631v1.704a.52.52 0 01-.521.518h-7.116v8.255h6.275c.286 0 .517.23.517.518v1.704a.518.518 0 01-.517.518h-6.275v7.792h7.116a.52.52 0 01.521.518v1.703a.516.516 0 01-.521.514h-9.348a.52.52 0 01-.522-.514V3.631a.52.52 0 01.522-.518h9.348a.52.52 0 01.521.518zM88.173 26.85v-21h-3.686a.52.52 0 01-.522-.518v-1.7a.52.52 0 01.522-.518h10.126a.52.52 0 01.52.518v1.704a.52.52 0 01-.52.518h-3.687V26.85a.516.516 0 01-.521.514h-1.71a.519.519 0 01-.522-.514zm-18.201-7.204h4.51L72.23 9.34l-2.257 10.306zm-4.443 7.05l5.288-23.177a.52.52 0 01.504-.4h1.808a.52.52 0 01.512.442l5.288 23.18a.515.515 0 01-.504.627h-1.778a.522.522 0 01-.513-.435l-1.05-4.551h-5.722l-1.059 4.585a.52.52 0 01-.504.4h-1.774a.519.519 0 01-.496-.672zM49.547 24.63h2.909c.496 0 .937-.079 1.32-.238a2.831 2.831 0 001.009-.705 3.14 3.14 0 00.664-1.103c.151-.43.227-.914.227-1.465V9.356c0-1.073-.299-1.933-.891-2.572a2.784 2.784 0 00-1.01-.702c-.386-.158-.827-.234-1.323-.234h-2.909v18.784h.004zm-2.753 2.218V3.63a.52.52 0 01.521-.518h5.141c.883 0 1.686.142 2.413.43a5.31 5.31 0 011.925 1.303l.025.03a5.66 5.66 0 011.207 1.975c.269.747.403 1.587.403 2.505V21.12c0 .914-.134 1.75-.403 2.497a5.705 5.705 0 01-1.232 2.004 5.305 5.305 0 01-1.921 1.307c-.723.288-1.526.434-2.413.434h-5.14a.517.517 0 01-.526-.513zm1.736 4.803h-1.736v-.626h4.187v.626h-1.736v4.405h-.715v-4.405zm3.392-.138a.458.458 0 01-.336-.13.447.447 0 010-.639.461.461 0 01.336-.133c.135 0 .248.042.337.125a.415.415 0 01.134.314c0 .13-.046.238-.135.325a.434.434 0 01-.336.138zm-.349.735h.694v3.809h-.694v-3.809zm6.814-.037c.483 0 .866.137 1.148.417.281.276.424.69.424 1.236v2.193h-.693v-2.114c0-.367-.084-.647-.257-.835-.172-.188-.416-.28-.735-.28-.354 0-.63.11-.841.326-.206.217-.311.53-.311.94v1.962h-.694v-2.112c0-.368-.084-.648-.256-.836-.172-.188-.416-.28-.736-.28-.353 0-.63.11-.84.326-.206.217-.311.53-.311.94v1.962h-.694v-3.808h.664v.568c.139-.196.324-.347.55-.45.228-.105.484-.155.774-.155.299 0 .563.058.795.18.23.12.412.296.533.525a1.44 1.44 0 01.606-.517c.26-.126.55-.188.874-.188zm4.439.58c-.332 0-.61.1-.837.3a1.22 1.22 0 00-.395.79h2.46a1.194 1.194 0 00-.396-.785 1.187 1.187 0 00-.832-.305zm1.896 1.382c0 .054-.004.121-.013.209H61.6c.042.334.193.605.445.81.252.205.568.305.942.305.458 0 .828-.154 1.105-.46l.383.447c-.173.2-.391.355-.648.46a2.283 2.283 0 01-.865.158c-.404 0-.765-.083-1.077-.246a1.812 1.812 0 01-.727-.693 1.961 1.961 0 01-.256-1.006c0-.368.084-.702.248-.998.164-.297.395-.527.685-.694.29-.167.622-.246.988-.246.365 0 .693.083.98.246.285.167.512.397.672.693.168.293.248.631.248 1.015zm3.4.56a.636.636 0 01-.466-.188.646.646 0 01-.194-.476c0-.184.068-.338.194-.464a.651.651 0 01.92 0c.127.126.19.28.19.464 0 .192-.064.35-.19.476a.615.615 0 01-.454.188zm24.78 0a.636.636 0 01-.467-.188.646.646 0 01-.193-.476c0-.184.063-.338.193-.464a.651.651 0 011.114.464c0 .192-.067.35-.193.476a.608.608 0 01-.454.188zM72.7 31.65v1.754h2.539v.618H72.7v2.033h-.723v-5.031h3.573v.626H72.7zm5.288 3.842c.248 0 .466-.059.66-.167a1.2 1.2 0 00.458-.476c.11-.205.168-.439.168-.702 0-.263-.059-.497-.168-.701a1.19 1.19 0 00-.458-.472 1.336 1.336 0 00-.66-.167c-.244 0-.467.054-.66.167a1.194 1.194 0 00-.462.472 1.421 1.421 0 00-.168.701c0 .263.058.497.168.702.113.204.269.363.462.476.193.112.416.167.66.167zm0 .605c-.383 0-.723-.083-1.026-.25a1.794 1.794 0 01-.71-.694 1.955 1.955 0 01-.256-1.002c0-.371.084-.705.256-1.002a1.79 1.79 0 01.71-.689 2.092 2.092 0 011.026-.246 2.1 2.1 0 011.021.246c.299.163.538.397.71.69.173.296.257.63.257 1.001 0 .376-.084.706-.256 1.002a1.823 1.823 0 01-.71.694c-.3.167-.64.25-1.022.25zm4.594-.605c.248 0 .467-.059.66-.167.194-.113.35-.272.459-.476.109-.205.168-.439.168-.702 0-.263-.06-.497-.168-.701-.11-.2-.265-.364-.459-.472a1.336 1.336 0 00-.66-.167c-.243 0-.466.054-.66.167a1.194 1.194 0 00-.462.472 1.421 1.421 0 00-.168.701c0 .263.059.497.168.702a1.232 1.232 0 001.122.643zm0 .605a2.08 2.08 0 01-1.025-.25 1.822 1.822 0 01-.71-.694 1.987 1.987 0 01-.257-1.002c0-.371.088-.71.256-1.002a1.79 1.79 0 01.71-.689 2.092 2.092 0 011.026-.246 2.1 2.1 0 011.022.246c.298.163.538.397.71.69.168.291.257.63.257 1.001 0 .376-.089.71-.257 1.002a1.823 1.823 0 01-.71.694c-.299.167-.643.25-1.022.25zm4.59-.605c.24 0 .463-.059.66-.167.198-.113.354-.272.463-.476.11-.205.168-.439.168-.702 0-.263-.059-.497-.168-.701-.11-.2-.265-.364-.463-.472a1.347 1.347 0 00-.66-.167c-.243 0-.466.054-.66.167a1.194 1.194 0 00-.462.472 1.421 1.421 0 00-.168.701c0 .263.055.497.168.702.114.204.27.363.463.476.193.112.416.167.66.167zm1.976-4.769v5.332h-.664v-.605a1.512 1.512 0 01-.584.48 1.847 1.847 0 01-.782.167c-.37 0-.702-.08-1-.242a1.748 1.748 0 01-.69-.685 2.056 2.056 0 01-.248-1.019c0-.384.084-.722.248-1.014.164-.293.4-.522.69-.681a2.03 2.03 0 011-.246c.273 0 .53.05.76.154.232.104.425.255.58.455v-2.096h.69zm7.608.3h.723v4.406h2.741v.627h-3.464v-5.032zm5.789 4.469c.248 0 .466-.055.66-.167a1.2 1.2 0 00.458-.476c.109-.2.168-.439.168-.702 0-.263-.055-.497-.168-.701a1.19 1.19 0 00-.458-.472 1.34 1.34 0 00-.66-.167c-.244 0-.467.058-.66.167a1.17 1.17 0 00-.463.472c-.113.2-.168.438-.168.701 0 .263.055.497.168.702.114.204.269.363.463.476.193.108.412.167.66.167zm0 .605a2.13 2.13 0 01-1.026-.25 1.865 1.865 0 01-.715-.694 1.988 1.988 0 01-.256-1.002c0-.371.088-.71.256-1.002a1.8 1.8 0 01.715-.689 2.14 2.14 0 011.026-.246c.382 0 .723.083 1.021.246.299.163.538.397.71.69.169.291.257.63.257 1.001 0 .376-.088.71-.257 1.002a1.818 1.818 0 01-.71.694c-.298.163-.639.25-1.021.25zm6.233-3.85l-1.677 3.809h-.71l-1.677-3.809h.723l1.315 3.053 1.345-3.053h.681zm2.111.543c-.333 0-.61.1-.837.3a1.216 1.216 0 00-.395.79h2.459a1.195 1.195 0 00-1.227-1.09zm1.895 1.382c0 .054-.004.121-.012.209h-3.111a1.2 1.2 0 00.446.81c.252.205.567.305.945.305.459 0 .829-.154 1.106-.46l.382.447c-.172.2-.39.355-.647.46a2.28 2.28 0 01-.866.158c-.403 0-.765-.083-1.076-.246a1.758 1.758 0 01-.727-.693 2.004 2.004 0 01-.256-1.006c0-.368.084-.702.248-.998a1.78 1.78 0 01.685-.694c.29-.167.622-.246.988-.246.365 0 .693.083.979.246.286.163.513.397.672.693.164.293.244.631.244 1.015zm-94.544-4.8v-1.22a.739.739 0 00-.74-.735c-.408 0-.74.33-.74.735v1.22C9.068 26.407 4.688 21.158 2.725 16.314h1.274a.74.74 0 00.74-.735.738.738 0 00-.74-.735H2.204a16.5 16.5 0 01-.652-3.024c-.441-3.904.782-7.182 3.275-8.773C6.47 1.999 8.114 1.469 9.72 1.469c3.48 0 5.99 2.447 7.045 3.7v1.386a.74.74 0 001.48 0V5.168c1.054-1.252 3.564-3.7 7.044-3.7 1.606 0 3.25.53 4.893 1.579 2.493 1.591 3.716 4.873 3.274 8.773a16.157 16.157 0 01-.651 3.024h-1.8a.738.738 0 00-.739.735c0 .405.332.735.74.735h1.274c-1.968 4.844-6.348 10.089-14.04 13.058zM2.78 2.792c-.866.844-1.547 1.904-2.022 3.12-.034.083-.063.17-.097.254l-.004.013-.004.012c-.27.781-.934 3.116-.522 6.197.148 1.061.417 2.193.812 3.35.012.054.03.104.054.154 1.3 3.725 3.922 7.759 8.227 11-.467.81-1.354 2.358-2.199 3.912a68.806 68.806 0 00-1.652 3.178c-.525 1.102-.98 2.058-.235 2.501.113.067.223.134.378.134.626 0 2.039-1.057 7.797-7.179A31.273 31.273 0 0016.92 31l.252.088.337.117.584-.205a31.273 31.273 0 003.606-1.562c5.76 6.122 7.171 7.179 7.798 7.179.155 0 .265-.063.374-.134.744-.443.29-1.399-.235-2.501a68.801 68.801 0 00-1.652-3.178 215.013 215.013 0 00-2.199-3.913c4.305-3.24 6.927-7.274 8.226-11 .026-.05.042-.1.055-.154.395-1.16.66-2.288.807-3.349.408-3.06-.248-5.386-.517-6.18-.462-1.311-1.164-2.451-2.08-3.361-.875-.869-2.09-1.587-3.208-2.05-4.19-1.725-8.26-.61-11.568 2.977C16.285 2.458 14.045.537 11.01.09 9.32-.156 7.643.116 6.058.75c-1.13.447-2.396 1.178-3.278 2.042zm24.964 30.71c-.807-1.57-1.988-3.7-3.17-5.747a26.98 26.98 0 01-1.538.957c1.673 1.766 3.413 3.54 4.708 4.79zm-20.484 0c1.295-1.245 3.035-3.024 4.704-4.79a27.367 27.367 0 01-1.538-.956C9.249 29.802 8.068 31.93 7.26 33.5z" fill="#fff"/><path fill-rule="evenodd" clip-rule="evenodd" d="M17.714 15.837c-.21 0-.412.037-.597.108-1.509-.806-1.757-.918-1.757-.918s-.916-.585-1.315-1.362l-.047-.087v-.004c-.008-.03-.012-.063-.02-.092l-.038-.176a.331.331 0 00-.106-.175l-.168-.146a.144.144 0 00-.134-.03c-.353-.346-2.955-2.885-8.533-7.49a.222.222 0 00-.168-.047.193.193 0 00-.14.084c-.172.246-.18.797.774 2.033 1.202 1.558 3.586 3.759 7.079 6.535a.14.14 0 00.046.13l.168.146c.05.046.118.075.185.08a5.4 5.4 0 01.27.029c.638.175 1.138.651 1.63 1.148 0 0 .177.242 1.202 1.679-.008.075-.016.146-.016.221a1.68 1.68 0 001.685 1.675 1.68 1.68 0 001.686-1.675c0-.033 0-.063-.004-.096 1.37-1.77 2.959-3.295 2.959-3.295s2.51-2.267 3.32-2.476c0 0 .728.539 1.375-.008l3.573-3.024a2.67 2.67 0 00.635-.78c-.32.108-.618.275-.879.496l-3.493 2.953a.21.21 0 01-.298-.025.207.207 0 01.025-.297L30.106 8c.26-.217.475-.485.635-.781-.32.108-.618.28-.879.497l-3.493 2.952a.215.215 0 01-.302-.025.211.211 0 01.025-.3l3.493-2.953c.26-.217.475-.484.634-.78a2.77 2.77 0 00-.878.496l-3.493 2.952a.21.21 0 01-.299-.025.207.207 0 01.026-.296l3.493-2.952c.26-.218.475-.485.634-.781a2.68 2.68 0 00-.878.497l-3.573 3.023c-.647.547-.227 1.349-.227 1.349-.34.764-2.993 2.86-2.993 2.86s-1.538 1.17-3.53 2.289a1.842 1.842 0 00-.787-.184z" fill="#fff"/></svg>