<svg width="225" height="22" viewBox="0 0 225 22" fill="none" xmlns="http://www.w3.org/2000/svg">
<path d="M52.2942 18.9291C51.577 19.259 50.3157 19.4243 48.9554 19.4243C44.8992 19.4243 42.3516 17.1597 42.3516 13.4796C42.3516 10.1766 44.7507 7.34571 49.4994 7.34571C50.3651 7.34571 51.4285 7.46348 52.2942 7.74659L51.676 10.8608C51.2555 10.6955 50.6619 10.5777 49.7468 10.5777C48.0898 10.5777 46.9025 11.6629 46.9273 13.338C46.9273 15.2252 48.2875 16.1219 49.8704 16.1219C50.6371 16.1219 51.2555 16.0272 51.8244 15.8149L52.2942 18.9291Z" fill="#1F2E76"/>
<path d="M54.1264 11.4975C54.1264 9.65763 54.1015 8.54897 54.0273 7.58164H57.8364L58.0094 9.68141H58.1084C58.7515 7.91175 60.2848 7.32198 61.3484 7.32198C61.7441 7.32198 61.9173 7.32198 62.2387 7.39275V11.3798C61.9173 11.3091 61.571 11.2617 61.101 11.2617C59.7901 11.2617 58.8999 11.7806 58.6525 12.7243C58.6279 12.9134 58.6031 13.1727 58.6031 13.4558V19.1885H54.1264V11.4975Z" fill="#1F2E76"/>
<path d="M71.1165 11.9932C71.1165 11.3325 70.7949 10.1055 69.3852 10.1055C68.0743 10.1055 67.5549 11.2617 67.4807 11.9932H71.1165ZM67.5303 14.8713C67.6785 15.7914 69.0884 16.3103 70.6713 16.3103C71.809 16.3103 72.8974 16.1923 73.9855 15.8619L74.5545 18.6933C73.0951 19.2358 71.5121 19.4243 70.0034 19.4243C65.7248 19.4243 63.3008 17.1835 63.3008 13.5031C63.3008 10.8136 65.1311 7.32193 69.6078 7.32193C73.5403 7.32193 75.2223 10.0823 75.2223 13.2669C75.2223 13.9509 75.1231 14.5882 75.0489 14.8713H67.5303Z" fill="#1F2E76"/>
<path d="M85.0955 12.6064C85.0955 12.441 85.0955 12.229 85.0708 12.0636C84.8978 11.2382 84.2546 10.5776 83.3149 10.5776C81.8306 10.5776 81.1628 11.8516 81.1628 13.3615C81.1628 15.1544 82.0782 16.0745 83.29 16.0745C84.2051 16.0745 84.8729 15.4609 85.0213 14.6824C85.0955 14.4466 85.0955 14.1872 85.0955 13.9041V12.6064ZM89.5721 2.41452V15.5317C89.5721 16.9708 89.6217 18.4101 89.671 19.1883H85.6891L85.516 17.6312H85.4665C84.6752 18.929 83.1912 19.448 81.806 19.448C78.9867 19.448 76.6369 17.1123 76.6369 13.4795C76.6123 9.56293 79.2093 7.32183 82.0782 7.32183C83.4138 7.32183 84.5019 7.69928 85.0459 8.45393H85.0955V2.41452H89.5721Z" fill="#1F2E76"/>
<path d="M92.3179 19.1885V7.58165H96.7946V19.1885H92.3179ZM94.5436 6.37843C93.1587 6.37843 92.293 5.48177 92.293 4.37288C92.293 3.19345 93.1834 2.34411 94.5686 2.34411C95.9537 2.34411 96.8192 3.19345 96.8438 4.37288C96.8438 5.48177 95.9537 6.37843 94.5686 6.37843H94.5436Z" fill="#1F2E76"/>
<path d="M104.44 4.27861V7.5816H106.962V10.6955H104.44V14.022C104.44 15.3902 104.761 15.9564 105.849 15.9564C106.369 15.9564 106.542 15.9564 106.913 15.8619V19.0942C106.394 19.2828 105.404 19.4243 104.267 19.4243C102.956 19.4243 101.868 18.9764 101.224 18.3629C100.482 17.6549 100.087 16.5224 100.087 14.7536V10.6955H98.5781V7.5816H100.087V5.41114L104.44 4.27861Z" fill="#1F2E76"/>
<path d="M114.876 16.4518C116.088 16.4518 116.731 15.2486 116.731 13.3853C116.731 11.7805 116.187 10.318 114.876 10.318C113.392 10.318 112.897 11.8516 112.897 13.3853C112.897 15.1309 113.491 16.4518 114.851 16.4518H114.876ZM114.752 19.448C111.116 19.448 108.297 17.2539 108.297 13.4795C108.297 9.7756 110.844 7.32183 114.999 7.32183C118.808 7.32183 121.331 9.7756 121.331 13.2668C121.331 17.4897 118.165 19.448 114.777 19.448H114.752Z" fill="#1F2E76"/>
<path d="M123.459 11.4975C123.459 9.65763 123.434 8.54897 123.359 7.58164H127.168L127.342 9.68141H127.44C128.084 7.91175 129.617 7.32198 130.681 7.32198C131.076 7.32198 131.25 7.32198 131.571 7.39275V11.3798C131.25 11.3091 130.903 11.2617 130.433 11.2617C129.122 11.2617 128.232 11.7806 127.985 12.7243C127.96 12.9134 127.935 13.1727 127.935 13.4558V19.1885H123.459V11.4975Z" fill="#1F2E76"/>
<path d="M133.574 17.0651C134.242 17.4428 135.38 17.8674 136.468 17.8674C138.026 17.8674 138.768 17.1359 138.768 16.1688C138.768 15.1779 138.15 14.659 136.567 14.0924C134.391 13.338 133.376 12.2052 133.376 10.8608C133.376 9.02025 134.959 7.51048 137.507 7.51048C138.719 7.51048 139.782 7.81737 140.425 8.21826L139.906 9.70458C139.436 9.44491 138.57 9.04414 137.457 9.04414C136.171 9.04414 135.479 9.75192 135.479 10.6012C135.479 11.5448 136.171 11.9695 137.73 12.5595C139.782 13.2905 140.87 14.2817 140.87 15.9803C140.87 18.009 139.213 19.4243 136.419 19.4243C135.108 19.4243 133.896 19.0942 133.055 18.6222L133.574 17.0651Z" fill="#7B7979"/>
<path d="M148.642 17.8906C150.719 17.8906 152.278 16.0271 152.278 13.4319C152.278 11.4974 151.264 9.06783 148.691 9.06783C146.144 9.06783 145.031 11.3324 145.031 13.503C145.031 16.0033 146.515 17.8906 148.617 17.8906H148.642ZM148.543 19.448C145.328 19.448 142.805 17.1835 142.805 13.5738C142.805 9.75182 145.451 7.51039 148.741 7.51039C152.178 7.51039 154.503 9.89338 154.503 13.3615C154.503 17.6081 151.412 19.448 148.567 19.448H148.543Z" fill="#7B7979"/>
<path d="M157.246 2.43834H159.423V19.1885H157.246V2.43834Z" fill="#7B7979"/>
<path d="M173.103 16.0507C173.103 17.2539 173.128 18.292 173.202 19.1883H171.273L171.149 17.325H171.099C170.556 18.2448 169.269 19.448 167.142 19.448C165.262 19.448 163.012 18.4333 163.012 14.4466V7.77005H165.188V14.0692C165.188 16.2392 165.906 17.7258 167.859 17.7258C169.318 17.7258 170.333 16.7585 170.728 15.8148C170.852 15.5317 170.926 15.1544 170.926 14.7535V7.77005H173.103V16.0507Z" fill="#7B7979"/>
<path d="M179.337 5.03338V7.77015H182.454V9.35104H179.337V15.4846C179.337 16.9004 179.758 17.7024 180.97 17.7024C181.563 17.7024 181.909 17.6549 182.231 17.5609L182.33 19.1412C181.909 19.2828 181.242 19.4243 180.401 19.4243C179.387 19.4243 178.571 19.0942 178.051 18.5518C177.457 17.9144 177.21 16.9004 177.21 15.5557V9.35104H175.355V7.77015H177.21V5.67061L179.337 5.03338Z" fill="#7B7979"/>
<path d="M184.901 19.1885V7.7702H187.078V19.1885H184.901ZM185.94 5.83585C185.149 5.83585 184.629 5.24599 184.629 4.56177C184.629 3.83033 185.173 3.26411 185.989 3.26411C186.78 3.26411 187.325 3.83033 187.325 4.56177C187.325 5.24599 186.805 5.83585 185.965 5.83585H185.94Z" fill="#7B7979"/>
<path d="M195.665 17.8906C197.743 17.8906 199.301 16.0271 199.301 13.4319C199.301 11.4974 198.287 9.06783 195.715 9.06783C193.167 9.06783 192.054 11.3324 192.054 13.503C192.054 16.0033 193.538 17.8906 195.641 17.8906H195.665ZM195.566 19.448C192.351 19.448 189.828 17.1835 189.828 13.5738C189.828 9.75182 192.475 7.51039 195.764 7.51039C199.202 7.51039 201.527 9.89338 201.527 13.3615C201.527 17.6081 198.436 19.448 195.591 19.448H195.566Z" fill="#7B7979"/>
<path d="M204.27 10.8609C204.27 9.65763 204.246 8.71409 204.172 7.7702H206.101L206.225 9.63419H206.274C206.867 8.57253 208.253 7.51053 210.231 7.51053C211.889 7.51053 214.461 8.45408 214.461 12.3707V19.1885H212.284V12.6065C212.284 10.7666 211.567 9.20953 209.514 9.20953C208.105 9.20953 206.992 10.1766 206.596 11.3325C206.497 11.5922 206.447 11.9695 206.447 12.2996V19.1885H204.27V10.8609Z" fill="#7B7979"/>
<path d="M217.703 17.0651C218.371 17.4428 219.508 17.8674 220.597 17.8674C222.155 17.8674 222.897 17.1359 222.897 16.1688C222.897 15.1779 222.279 14.659 220.696 14.0924C218.519 13.338 217.505 12.2052 217.505 10.8608C217.505 9.02025 219.088 7.51048 221.635 7.51048C222.847 7.51048 223.911 7.81737 224.554 8.21826L224.035 9.70458C223.565 9.44491 222.699 9.04414 221.586 9.04414C220.3 9.04414 219.607 9.75192 219.607 10.6012C219.607 11.5448 220.3 11.9695 221.858 12.5595C223.911 13.2905 224.999 14.2817 224.999 15.9803C224.999 18.009 223.342 19.4243 220.547 19.4243C219.236 19.4243 218.024 19.0942 217.184 18.6222L217.703 17.0651Z" fill="#7B7979"/>
<path d="M10.9864 21.6838C8.05373 21.6838 5.29525 20.5932 3.21912 18.6132C1.14328 16.633 0 14.0017 0 11.2042C0 8.40703 1.14328 5.77581 3.21912 3.79545L6.45515 0.708988C7.44617 -0.236034 9.05307 -0.236034 10.0441 0.708988C11.0351 1.65429 11.0351 3.18705 10.0441 4.13235L6.80805 7.21882C5.69089 8.28473 5.07532 9.69999 5.07532 11.2042C5.07532 12.7087 5.69089 14.124 6.80805 15.1898C7.92551 16.2557 9.40923 16.8427 10.9864 16.8427C12.5633 16.8427 14.0471 16.2557 15.1645 15.1898L21.6743 8.98033C22.6653 8.03502 24.2722 8.03502 25.2632 8.98033C26.2542 9.92563 26.2542 11.4584 25.2632 12.4037L18.7535 18.6132C16.6773 20.5932 13.9191 21.6838 10.9864 21.6838Z" fill="#1F2E76"/>
<path d="M26.0967 22C25.447 22 24.7979 21.7637 24.3022 21.2911C23.3112 20.3458 23.3112 18.813 24.3022 17.8677L27.5383 14.7813C29.8421 12.5836 29.8421 9.00766 27.538 6.81016C25.2342 4.61238 21.4856 4.61267 19.1815 6.81016L12.672 13.0197C11.681 13.965 10.0741 13.965 9.08311 13.0197C8.09209 12.0743 8.09209 10.5416 9.08311 9.59625L15.5929 3.38708C19.8757 -0.697912 26.8443 -0.698195 31.1269 3.38708C35.4098 7.47207 35.4098 14.1193 31.1272 18.2046L27.8909 21.2911C27.3955 21.7637 26.7461 22 26.0967 22Z" fill="#7B7979"/>
</svg>
