<svg width="28" height="28" viewBox="0 0 28 28" fill="none" xmlns="http://www.w3.org/2000/svg">
<path d="M27.0628 20.6875C26.757 20.3617 25.6771 19.3985 23.6919 18.124C21.6921 16.8385 20.2173 16.0369 19.7943 15.85C19.757 15.8335 19.7159 15.8274 19.6755 15.8325C19.635 15.8375 19.5967 15.8535 19.5646 15.8787C18.8832 16.4102 17.7359 17.3863 17.6744 17.4391C17.2771 17.7795 17.2771 17.7795 16.9519 17.6735C16.38 17.486 14.6035 16.5426 13.0554 14.991C11.5074 13.4395 10.5154 11.619 10.3279 11.0477C10.2207 10.7219 10.2207 10.7219 10.5623 10.3246C10.615 10.2631 11.5918 9.11583 12.1232 8.43497C12.1484 8.40291 12.1644 8.36459 12.1695 8.32412C12.1745 8.28365 12.1684 8.24257 12.1519 8.20529C11.965 7.78165 11.1634 6.30743 9.87789 4.30763C8.60171 2.32306 7.6396 1.24318 7.31382 0.937317C7.28393 0.909106 7.24698 0.889481 7.20686 0.880509C7.16675 0.871538 7.12496 0.873552 7.08589 0.886341C5.94711 1.27768 4.84836 1.77702 3.80464 2.37755C2.79708 2.96327 1.84318 3.63678 0.954057 4.39025C0.92302 4.41663 0.899751 4.45097 0.886745 4.48958C0.873739 4.52818 0.871486 4.5696 0.880229 4.60939C1.00269 5.18009 1.58804 7.56251 3.40445 10.8625C5.25777 14.2305 6.54214 15.9561 9.26382 18.6684C11.9855 21.3807 13.7656 22.7424 17.1371 24.5957C20.4371 26.4121 22.8207 26.9981 23.3902 27.1193C23.4301 27.128 23.4715 27.1257 23.5102 27.1127C23.5489 27.0997 23.5834 27.0765 23.6099 27.0455C24.3632 26.1564 25.0366 25.2025 25.622 24.1949C26.2224 23.1512 26.7218 22.0524 27.1132 20.9137C27.1258 20.8749 27.1277 20.8335 27.1188 20.7937C27.11 20.754 27.0906 20.7173 27.0628 20.6875Z" fill="#031C77"/>
</svg>
