<svg width="323" height="271" viewBox="0 0 323 271" fill="none" xmlns="http://www.w3.org/2000/svg">
<path d="M276.017 181.785H270.897V270.905H191.881C190.152 251.973 179.043 235.171 162.297 226.171C145.552 217.165 125.412 217.165 108.667 226.171C91.9213 235.171 80.812 251.973 79.0827 270.905H0V49.4787C0.005208 36.3589 5.2188 23.7813 14.4947 14.5C23.7707 5.224 36.3493 0.0106667 49.468 0H270.895V89.12H276.014C284.728 89.1356 293.265 91.6148 300.634 96.2607C308.009 100.907 313.926 107.537 317.708 115.386C320.755 121.636 322.343 128.501 322.348 135.454C322.348 147.74 317.468 159.527 308.775 168.214C300.088 176.907 288.302 181.787 276.015 181.787L276.017 181.785Z" fill="#F2F3F8"/>
</svg>
