<svg width="272" height="323" viewBox="0 0 272 323" fill="none" xmlns="http://www.w3.org/2000/svg">
<path d="M0.204427 270.972V270.904H0.136719V191.888C19.0634 190.159 35.866 179.05 44.8714 162.304C53.8714 145.564 53.8714 125.419 44.8714 108.674C35.8662 91.9282 19.0647 80.8188 0.136719 79.0948V0.00683594H221.63C234.745 0.0172519 247.327 5.23084 256.599 14.5068C265.875 23.788 271.094 36.3668 271.099 49.4855V270.966H181.99V276.085C181.99 292.653 173.152 307.96 158.802 316.241C144.458 324.522 126.781 324.522 112.438 316.241C98.0887 307.96 89.2501 292.653 89.2501 276.085V270.966L0.204427 270.972Z" fill="#F2F3F8"/>
</svg>
