<svg width="271" height="323" viewBox="0 0 271 323" fill="none" xmlns="http://www.w3.org/2000/svg">
<path d="M270.898 52.2123H270.965V131.155C252.039 132.869 235.231 143.973 226.225 160.712C217.225 177.452 217.225 197.592 226.225 214.332C235.23 231.072 252.037 242.176 270.965 243.89V322.988H49.4719C36.3522 322.978 23.7692 317.759 14.4932 308.483C5.21725 299.202 0.00923958 286.619 0.00390625 273.499L0.0716146 52.1523H89.1236V47.043C88.9726 34.6575 93.7851 22.731 102.493 13.9176C111.196 5.10511 123.066 0.146973 135.452 0.146973C147.837 0.146973 159.706 5.10538 168.416 13.9176C177.119 22.7302 181.932 34.6576 181.785 47.043V52.1523H270.9L270.898 52.2123Z" fill="#F2F3F8"/>
</svg>
