<svg width="301" height="283" viewBox="0 0 301 283" fill="none" xmlns="http://www.w3.org/2000/svg">
<g clip-path="url(#clip0_214_882)">
<path d="M30.4198 217.545C29.242 215.974 27.7923 214.801 26.0709 214.006C24.3495 213.23 22.5556 212.832 20.671 212.832C18.5147 212.832 16.5215 213.266 14.7095 214.151C12.8974 215.035 11.321 216.209 9.99817 217.69C8.67539 219.17 7.64253 220.886 6.91772 222.836C6.17479 224.786 5.81238 226.826 5.81238 228.957C5.81238 231.232 6.17479 233.345 6.91772 235.295C7.64253 237.245 8.67539 238.942 9.98005 240.387C11.2847 241.831 12.8431 242.969 14.6551 243.817C16.4671 244.666 18.4785 245.081 20.6892 245.081C23.081 245.081 25.2011 244.612 27.0675 243.691C28.9339 242.752 30.5647 241.416 31.96 239.664L35.421 242.572C33.6633 244.919 31.5432 246.634 29.0608 247.736C26.5783 248.837 23.7877 249.379 20.671 249.379C17.8805 249.379 15.2712 248.873 12.8612 247.844C10.4331 246.815 8.3311 245.406 6.55531 243.601C4.77952 241.795 3.38426 239.646 2.36952 237.155C1.35478 234.663 0.847412 231.954 0.847412 228.993C0.847412 226.032 1.33666 223.468 2.29704 220.994C3.27554 218.502 4.63456 216.353 6.39223 214.53C8.1499 212.706 10.2519 211.261 12.6619 210.196C15.09 209.131 17.7356 208.607 20.6348 208.607C23.2804 208.607 25.8172 209.077 28.2635 210.034C30.7097 210.991 32.7392 212.544 34.4062 214.692L30.3835 217.599L30.4198 217.545Z" fill="white"/>
<path d="M64.0873 249.361C61.1156 249.361 58.3976 248.855 55.9151 247.826C53.4326 246.797 51.2944 245.388 49.4824 243.583C47.6703 241.777 46.2569 239.61 45.2422 237.118C44.2275 234.609 43.7201 231.9 43.7201 228.975C43.7201 226.05 44.2275 223.341 45.2422 220.831C46.2569 218.322 47.6703 216.173 49.4824 214.367C51.2944 212.562 53.4507 211.135 55.9151 210.124C58.3976 209.095 61.1156 208.589 64.0873 208.589C67.0591 208.589 69.7771 209.095 72.2596 210.124C74.7421 211.153 76.8803 212.562 78.6923 214.367C80.5043 216.173 81.9177 218.34 82.9325 220.831C83.9472 223.341 84.4546 226.05 84.4546 228.975C84.4546 231.9 83.9472 234.609 82.9325 237.118C81.9177 239.628 80.5043 241.777 78.6923 243.583C76.8803 245.388 74.724 246.815 72.2596 247.826C69.7771 248.855 67.0591 249.361 64.0873 249.361V249.361ZM64.0873 245.081C66.3705 245.081 68.4362 244.666 70.3388 243.817C72.2234 242.969 73.8542 241.831 75.2132 240.369C76.5722 238.906 77.6232 237.191 78.3843 235.241C79.1272 233.29 79.5077 231.196 79.5077 228.957C79.5077 226.718 79.1272 224.641 78.3843 222.673C77.6232 220.723 76.5722 219.008 75.2132 217.545C73.8542 216.083 72.2234 214.927 70.3388 214.096C68.4543 213.248 66.3705 212.832 64.0873 212.832C61.8042 212.832 59.7385 213.248 57.8358 214.096C55.9513 214.945 54.3205 216.083 52.9615 217.545C51.6024 219.008 50.5515 220.723 49.7904 222.673C49.0293 224.623 48.6669 226.718 48.6669 228.957C48.6669 231.196 49.0475 233.272 49.7904 235.241C50.5333 237.191 51.6024 238.906 52.9615 240.369C54.3205 241.831 55.9332 242.987 57.8358 243.817C59.7203 244.666 61.8042 245.081 64.0873 245.081Z" fill="white"/>
<path d="M96.0154 209.546H102.901L116.111 239.971H116.22L129.538 209.546H136.242V248.368H131.622V215.794H131.513L117.542 248.368H114.734L100.763 215.794H100.654V248.368H96.0335V209.546H96.0154Z" fill="white"/>
<path d="M150.05 209.546H161.611C163.405 209.546 165.126 209.727 166.757 210.07C168.388 210.413 169.838 211.009 171.106 211.821C172.374 212.652 173.389 213.735 174.132 215.108C174.875 216.48 175.256 218.177 175.256 220.181C175.256 222.294 174.857 224.064 174.041 225.454C173.226 226.844 172.193 227.946 170.925 228.74C169.656 229.553 168.279 230.113 166.775 230.438C165.271 230.763 163.84 230.925 162.481 230.925H154.671V248.368H150.05V209.546V209.546ZM154.671 226.664H162.481C164.8 226.664 166.667 226.14 168.116 225.093C169.566 224.046 170.291 222.439 170.291 220.236C170.291 218.033 169.566 216.426 168.116 215.378C166.667 214.331 164.782 213.826 162.481 213.826H154.671V226.664Z" fill="white"/>
<path d="M195.387 209.546H199.736L216.298 248.368H210.898L206.93 238.834H187.45L183.428 248.368H178.191L195.369 209.546H195.387ZM197.471 215.469H197.362L189.281 234.554H205.19L197.489 215.469H197.471Z" fill="white"/>
<path d="M225.594 209.546H231.428L253.988 241.795H254.097V209.546H258.718V248.368H252.883L230.323 216.119H230.214V248.368H225.594V209.546V209.546Z" fill="white"/>
<path d="M281.731 231.647L267.198 209.546H273.087L284.032 227.097L295.321 209.546H300.884L286.351 231.647V248.368H281.731V231.647V231.647Z" fill="white"/>
<path d="M96.124 267.165C95.7254 266.605 95.218 266.172 94.6019 265.828C93.9858 265.485 93.2248 265.323 92.3369 265.323C91.8839 265.323 91.4309 265.395 90.9597 265.521C90.4886 265.648 90.0719 265.865 89.6913 266.153C89.3108 266.442 89.0027 266.804 88.7672 267.219C88.5316 267.652 88.4229 268.158 88.4229 268.754C88.4229 269.349 88.5316 269.819 88.7672 270.198C88.9846 270.577 89.2927 270.902 89.6551 271.173C90.0175 271.444 90.4524 271.661 90.9235 271.841C91.3946 272.022 91.902 272.184 92.4094 272.365C93.0436 272.564 93.6959 272.798 94.3301 273.033C94.9825 273.268 95.5623 273.593 96.0697 273.972C96.5952 274.351 97.0119 274.857 97.3381 275.453C97.6643 276.048 97.8273 276.807 97.8273 277.71C97.8273 278.612 97.6461 279.407 97.3019 280.075C96.9576 280.743 96.5046 281.285 95.9428 281.718C95.3811 282.152 94.7469 282.477 94.0221 282.675C93.2973 282.874 92.5725 282.982 91.8476 282.982C91.2859 282.982 90.7423 282.928 90.1806 282.82C89.6188 282.711 89.0933 282.531 88.6041 282.314C88.0967 282.097 87.6437 281.808 87.2088 281.465C86.774 281.122 86.3934 280.725 86.0673 280.274L87.68 279.082C88.0786 279.732 88.6403 280.292 89.347 280.725C90.0719 281.158 90.9054 281.393 91.8839 281.393C92.355 281.393 92.8261 281.321 93.3154 281.176C93.8046 281.032 94.2395 280.797 94.6201 280.508C95.0006 280.201 95.3267 279.84 95.5804 279.389C95.8341 278.956 95.961 278.432 95.961 277.854C95.961 277.222 95.8341 276.68 95.5804 276.265C95.3267 275.85 95.0006 275.489 94.5838 275.2C94.167 274.911 93.6959 274.676 93.1523 274.496C92.6087 274.315 92.047 274.116 91.4671 273.918C90.8691 273.737 90.2712 273.521 89.6732 273.268C89.0934 273.033 88.5497 272.708 88.0967 272.329C87.6256 271.932 87.2451 271.462 86.9733 270.884C86.6834 270.306 86.5384 269.62 86.5384 268.79C86.5384 267.905 86.7196 267.147 87.0639 266.515C87.4263 265.883 87.8793 265.359 88.4591 264.944C89.039 264.528 89.6551 264.221 90.3618 264.041C91.0503 263.842 91.7389 263.752 92.4094 263.752C93.6597 263.752 94.7106 263.969 95.5985 264.402C96.4864 264.835 97.1388 265.359 97.5918 265.973L96.1059 267.165H96.124Z" fill="white"/>
<path d="M108.917 280.888H117.488V282.549H107.051V264.24H108.917V280.888V280.888Z" fill="white"/>
<path d="M142.856 273.376C142.856 274.766 142.621 276.048 142.132 277.222C141.642 278.396 140.972 279.407 140.12 280.256C139.269 281.104 138.254 281.772 137.076 282.26C135.916 282.747 134.648 282.982 133.271 282.982C131.894 282.982 130.643 282.747 129.465 282.26C128.306 281.772 127.291 281.104 126.421 280.256C125.57 279.407 124.899 278.396 124.41 277.222C123.921 276.048 123.685 274.766 123.685 273.376C123.685 271.986 123.921 270.704 124.41 269.53C124.899 268.356 125.57 267.345 126.421 266.497C127.273 265.648 128.288 264.98 129.465 264.492C130.625 264.005 131.894 263.77 133.271 263.77C134.648 263.77 135.898 264.005 137.076 264.492C138.236 264.98 139.25 265.648 140.12 266.497C140.972 267.345 141.642 268.356 142.132 269.53C142.621 270.704 142.856 271.986 142.856 273.376ZM140.881 273.376C140.881 272.311 140.7 271.3 140.356 270.325C140.011 269.368 139.504 268.519 138.852 267.779C138.199 267.038 137.402 266.46 136.46 266.027C135.518 265.594 134.449 265.377 133.289 265.377C132.129 265.377 131.06 265.594 130.118 266.027C129.176 266.46 128.378 267.038 127.726 267.779C127.074 268.519 126.566 269.368 126.222 270.325C125.878 271.282 125.696 272.311 125.696 273.376C125.696 274.441 125.878 275.453 126.222 276.428C126.566 277.385 127.074 278.233 127.726 278.956C128.378 279.678 129.176 280.256 130.118 280.689C131.06 281.122 132.111 281.339 133.289 281.339C134.467 281.339 135.518 281.122 136.46 280.689C137.402 280.256 138.199 279.678 138.852 278.956C139.504 278.233 140.011 277.385 140.356 276.428C140.7 275.471 140.881 274.441 140.881 273.376Z" fill="white"/>
<path d="M165.887 267.544C165.253 266.876 164.492 266.352 163.604 265.973C162.716 265.594 161.702 265.413 160.56 265.413C159.418 265.413 158.331 265.63 157.389 266.063C156.447 266.497 155.649 267.074 154.997 267.815C154.345 268.555 153.837 269.404 153.475 270.361C153.112 271.318 152.949 272.347 152.949 273.412C152.949 274.478 153.131 275.489 153.475 276.464C153.837 277.421 154.327 278.269 154.997 278.992C155.649 279.714 156.447 280.292 157.389 280.725C158.331 281.158 159.4 281.375 160.56 281.375C161.593 281.375 162.553 281.267 163.423 281.032C164.293 280.815 164.981 280.526 165.525 280.183V274.622H161.249V272.961H167.391V281.231C166.395 281.845 165.307 282.278 164.148 282.585C162.988 282.874 161.792 283.018 160.542 283.018C159.165 283.018 157.878 282.784 156.7 282.296C155.522 281.808 154.508 281.14 153.656 280.292C152.804 279.443 152.152 278.432 151.663 277.258C151.192 276.085 150.956 274.803 150.956 273.412C150.956 272.022 151.192 270.74 151.681 269.566C152.17 268.392 152.841 267.381 153.692 266.533C154.544 265.684 155.559 265.016 156.737 264.528C157.896 264.041 159.165 263.806 160.542 263.806C162.01 263.806 163.296 264.023 164.383 264.456C165.471 264.89 166.413 265.503 167.192 266.28L165.887 267.58V267.544Z" fill="white"/>
<path d="M177.231 282.531H175.183L183.12 264.221H184.932L192.814 282.531H190.73L188.701 277.728H179.206L177.212 282.531H177.231ZM179.931 276.012H188.03L183.989 266.28L179.949 276.012H179.931Z" fill="white"/>
<path d="M213.743 279.822H213.797V264.221H215.664V282.531H213.326L202.635 266.785H202.581V282.531H200.714V264.221H203.052L213.743 279.822V279.822Z" fill="white"/>
<path d="M131.169 64.2271L143.327 76.2527C147.495 80.3877 154.236 80.3877 158.403 76.2527L168.388 66.3758L170.49 64.1549L228.928 5.9406C231.12 3.75576 229.562 0 226.463 0H205.933C199.337 0 192.995 2.6182 188.338 7.25873L150.865 44.5996L138.489 32.267C133.923 27.7168 127.726 25.1527 121.275 25.1527H92.1012L131.241 64.1549L131.169 64.2271Z" fill="white"/>
<path d="M170.562 117.349L158.422 105.324C154.236 101.189 147.495 101.189 143.327 105.324L133.343 115.201L131.241 117.422L72.8031 175.654C70.6105 177.839 72.1688 181.576 75.2674 181.576H96.0333C102.502 181.576 108.699 179.012 113.266 174.462L150.884 136.977L163.097 149.147C167.772 153.806 174.114 156.424 180.728 156.424H209.648L170.508 117.422L170.58 117.349H170.562Z" fill="white"/>
<path d="M104.514 90.7883L92.2281 103.031C87.6074 107.635 84.9981 113.901 84.9981 120.419V149.346L124.138 110.344L124.21 110.416L136.315 98.2637C140.464 94.0926 140.464 87.3575 136.279 83.2045L65.6637 12.9466C63.4893 10.7798 59.7565 12.3146 59.7565 15.3842V35.9506C59.7565 42.5593 62.3296 48.7527 67.0227 53.4293L104.514 90.7883Z" fill="white"/>
<path d="M234.817 128.219L197.435 90.7883L209.847 78.3654C214.341 73.8693 216.86 67.7662 216.86 61.4283V32.1948L177.883 71.215L177.81 71.1428L165.887 83.1684C161.774 87.3034 161.756 93.9662 165.833 98.1373L177.829 110.416L177.901 110.343L236.212 168.72C238.35 170.851 241.993 169.352 241.993 166.337V145.5C241.993 138.963 239.456 132.824 234.835 128.201L234.817 128.219Z" fill="white"/>
</g>
<defs>
<clipPath id="clip0_214_882">
<rect width="300" height="283" fill="white" transform="translate(0.865479)"/>
</clipPath>
</defs>
</svg>
