<svg width="294" height="297" viewBox="0 0 294 297" fill="none" xmlns="http://www.w3.org/2000/svg">
<g clip-path="url(#clip0_214_802)">
<path d="M30.4726 254.366C29.1052 256.089 27.507 257.42 25.6602 258.326C23.8311 259.249 21.7534 259.711 19.4094 259.711C17.2607 259.711 15.2896 259.285 13.5138 258.468C11.7202 257.633 10.193 256.515 8.91447 255.094C7.65366 253.674 6.64146 252.005 5.93114 250.087C5.20307 248.151 4.84791 246.074 4.84791 243.854C4.84791 241.759 5.20307 239.77 5.93114 237.835C6.64146 235.917 7.65366 234.23 8.94999 232.774C10.2463 231.318 11.7735 230.164 13.567 229.294C15.3428 228.424 17.2962 227.997 19.4094 227.997C21.2385 227.997 23.0143 228.388 24.7013 229.152C26.3883 229.933 27.8089 231.087 28.9632 232.632L32.8877 229.773C31.2717 227.66 29.265 226.133 26.8855 225.192C24.4882 224.251 22.0021 223.789 19.4094 223.789C16.5681 223.789 13.9577 224.322 11.5959 225.352C9.21636 226.399 7.1742 227.82 5.45168 229.613C3.7114 231.407 2.37956 233.538 1.42063 235.97C0.479464 238.421 0 241.049 0 243.854C0 246.66 0.497221 249.448 1.47391 251.88C2.46835 254.331 3.83571 256.444 5.57598 258.219C7.31626 259.995 9.37618 261.398 11.7557 262.392C14.1175 263.404 16.6747 263.919 19.4094 263.919C22.4638 263.919 25.2162 263.369 27.6313 262.286C30.0641 261.22 32.1418 259.533 33.8643 257.225L30.4726 254.366Z" fill="white"/>
<path d="M80.4256 235.846C79.4311 233.378 78.0638 231.265 76.2702 229.489C74.4944 227.696 72.399 226.311 69.9662 225.298C67.5333 224.304 64.8696 223.789 61.9573 223.789C59.045 223.789 56.3813 224.304 53.9485 225.298C51.5157 226.311 49.4202 227.696 47.6445 229.489C45.8687 231.265 44.4835 233.378 43.4891 235.846C42.4947 238.314 41.9974 240.978 41.9974 243.854C41.9974 246.731 42.4947 249.394 43.4891 251.863C44.4835 254.331 45.8687 256.444 47.6445 258.219C49.4202 259.995 51.5157 261.398 53.9485 262.392C56.3813 263.404 59.045 263.919 61.9573 263.919C64.8696 263.919 67.5333 263.404 69.9662 262.392C72.399 261.398 74.4944 259.995 76.2702 258.219C78.0638 256.444 79.4311 254.331 80.4256 251.863C81.42 249.394 81.9172 246.731 81.9172 243.854C81.9172 240.978 81.42 238.314 80.4256 235.846ZM75.9506 250.034C75.2225 251.951 74.1748 253.638 72.8607 255.077C71.5288 256.497 69.9306 257.633 68.0838 258.468C66.2192 259.285 64.1948 259.711 61.9573 259.711C59.7198 259.711 57.6954 259.285 55.8309 258.468C53.984 257.633 52.4036 256.497 51.0717 255.077C49.7399 253.638 48.7099 251.951 47.9641 250.034C47.236 248.098 46.8631 246.038 46.8631 243.854C46.8631 241.67 47.236 239.593 47.9641 237.675C48.7099 235.757 49.7399 234.07 51.0717 232.632C52.4036 231.194 53.984 230.075 55.8309 229.24C57.6954 228.406 59.7376 227.997 61.9573 227.997C64.1771 227.997 66.2192 228.406 68.0838 229.24C69.9306 230.075 71.5288 231.194 72.8607 232.632C74.1748 234.07 75.2225 235.757 75.9506 237.675C76.6964 239.593 77.0516 241.652 77.0516 243.854C77.0516 246.056 76.6964 248.098 75.9506 250.034Z" fill="white"/>
<path d="M126.081 224.766L113.029 254.686H112.923L99.977 224.766H93.229V262.943H97.7573V230.91H97.8816L111.573 262.943H114.325L128.017 230.91H128.123V262.943H132.652V224.766H126.081Z" fill="white"/>
<path d="M169.783 230.235C169.055 228.885 168.061 227.802 166.818 227.003C165.575 226.186 164.154 225.618 162.556 225.281C160.958 224.926 159.271 224.766 157.513 224.766H146.201V262.943H150.729V245.79H158.383C159.715 245.79 161.118 245.63 162.591 245.31C164.065 244.991 165.415 244.423 166.658 243.641C167.901 242.842 168.913 241.759 169.712 240.409C170.494 239.042 170.884 237.302 170.884 235.224C170.884 233.147 170.529 231.584 169.783 230.235ZM163.906 240.054C162.485 241.066 160.638 241.581 158.383 241.581H150.729V228.974H158.383C160.638 228.974 162.485 229.489 163.906 230.501C165.326 231.531 166.037 233.129 166.037 235.278C166.037 237.426 165.326 239.024 163.906 240.054Z" fill="white"/>
<path d="M194.893 224.766H190.631L173.797 262.943H178.929L182.871 253.567H201.943L205.832 262.943H211.124L194.893 224.766ZM184.647 249.359L192.567 230.59H192.673L200.22 249.359H184.647Z" fill="white"/>
<path d="M248.167 224.766V256.462H248.06L225.952 224.766H220.234V262.943H224.762V231.229H224.868L246.977 262.943H252.695V224.766H248.167Z" fill="white"/>
<path d="M288.566 224.766L277.503 242.025L266.777 224.766H261.006L275.248 246.5V262.943H279.776V246.5L294 224.766H288.566Z" fill="white"/>
<path d="M94.5431 289.578C94.2235 288.992 93.7973 288.513 93.3 288.14C92.7851 287.749 92.2168 287.447 91.5775 287.199C90.956 286.968 90.3167 286.755 89.6952 286.542C89.1802 286.382 88.7007 286.204 88.239 286.027C87.7773 285.867 87.3512 285.654 86.996 285.387C86.6231 285.121 86.3389 284.801 86.1259 284.428C85.895 284.056 85.7885 283.576 85.7885 283.008C85.7885 282.44 85.895 281.925 86.1259 281.516C86.3567 281.09 86.6586 280.735 87.0315 280.451C87.4044 280.167 87.8306 279.971 88.2746 279.829C88.7363 279.687 89.1802 279.634 89.6242 279.634C90.4943 279.634 91.2401 279.794 91.8439 280.114C92.4477 280.451 92.9449 280.895 93.3356 281.428L94.7917 280.256C94.3478 279.67 93.7085 279.155 92.8383 278.729C91.9682 278.285 90.9205 278.072 89.713 278.072C89.0381 278.072 88.3811 278.16 87.6885 278.356C87.0137 278.533 86.3922 278.835 85.8417 279.243C85.2735 279.652 84.8295 280.167 84.4744 280.788C84.137 281.428 83.9594 282.173 83.9594 283.026C83.9594 283.878 84.1014 284.535 84.3856 285.085C84.6519 285.654 85.0249 286.115 85.4866 286.506C85.9483 286.879 86.4632 287.199 87.0315 287.429C87.6175 287.678 88.2035 287.891 88.7895 288.069C89.3578 288.264 89.926 288.441 90.441 288.637C90.9738 288.814 91.4355 289.045 91.8439 289.329C92.2523 289.613 92.572 289.951 92.8206 290.377C93.0692 290.785 93.1935 291.318 93.1935 291.94C93.1935 292.508 93.0692 293.023 92.8206 293.449C92.572 293.875 92.2701 294.248 91.8794 294.55C91.5065 294.834 91.0626 295.065 90.6008 295.207C90.1214 295.349 89.6597 295.42 89.198 295.42C88.239 295.42 87.4222 295.207 86.7119 294.763C86.0193 294.337 85.4688 293.804 85.0781 293.165L83.4977 294.319C83.8173 294.763 84.1902 295.154 84.6164 295.491C85.0426 295.828 85.5043 296.112 85.9838 296.343C86.481 296.556 86.996 296.716 87.5465 296.84C88.0792 296.947 88.6297 297 89.1802 297C89.8905 297 90.5831 296.894 91.2934 296.698C92.0037 296.485 92.6252 296.183 93.1757 295.757C93.7262 295.331 94.1702 294.781 94.5076 294.141C94.845 293.484 95.0226 292.703 95.0226 291.815C95.0226 290.927 94.8627 290.164 94.5431 289.578Z" fill="white"/>
<path d="M105.891 294.905V278.533H104.044V296.539H114.272V294.905H105.891Z" fill="white"/>
<path d="M138.441 283.754C137.961 282.6 137.304 281.587 136.47 280.753C135.635 279.918 134.64 279.261 133.486 278.782C132.35 278.32 131.107 278.072 129.775 278.072C128.443 278.072 127.182 278.32 126.046 278.782C124.891 279.261 123.897 279.918 123.062 280.753C122.228 281.587 121.571 282.6 121.091 283.754C120.612 284.908 120.381 286.169 120.381 287.536C120.381 288.903 120.612 290.164 121.091 291.318C121.571 292.472 122.228 293.467 123.062 294.319C123.897 295.154 124.891 295.811 126.046 296.29C127.182 296.752 128.425 297 129.775 297C131.124 297 132.35 296.752 133.486 296.29C134.64 295.811 135.635 295.154 136.47 294.319C137.304 293.467 137.961 292.472 138.441 291.318C138.92 290.164 139.151 288.903 139.151 287.536C139.151 286.169 138.92 284.908 138.441 283.754ZM136.718 290.537C136.381 291.496 135.884 292.33 135.244 293.04C134.587 293.751 133.806 294.319 132.882 294.727C131.959 295.154 130.929 295.367 129.775 295.367C128.621 295.367 127.573 295.154 126.649 294.727C125.726 294.319 124.945 293.751 124.305 293.04C123.648 292.33 123.169 291.496 122.831 290.537C122.476 289.596 122.316 288.601 122.316 287.554C122.316 286.506 122.476 285.494 122.831 284.553C123.169 283.612 123.648 282.777 124.305 282.049C124.945 281.339 125.726 280.753 126.649 280.344C127.573 279.918 128.621 279.705 129.775 279.705C130.929 279.705 131.959 279.918 132.882 280.344C133.806 280.753 134.587 281.339 135.244 282.049C135.884 282.777 136.381 283.612 136.718 284.553C137.056 285.494 137.215 286.506 137.215 287.554C137.215 288.601 137.056 289.596 136.718 290.537Z" fill="white"/>
<path d="M157.158 287.11V288.726H161.366V294.195C160.833 294.532 160.141 294.816 159.306 295.047C158.454 295.26 157.513 295.367 156.501 295.367C155.346 295.367 154.316 295.154 153.393 294.727C152.47 294.319 151.67 293.751 151.031 293.04C150.392 292.33 149.895 291.496 149.539 290.537C149.202 289.596 149.024 288.601 149.024 287.554C149.024 286.506 149.202 285.494 149.539 284.553C149.895 283.612 150.392 282.777 151.031 282.049C151.67 281.339 152.47 280.753 153.393 280.344C154.316 279.918 155.346 279.705 156.501 279.705C157.655 279.705 158.614 279.883 159.484 280.256C160.336 280.611 161.082 281.126 161.721 281.783L162.982 280.522C162.219 279.758 161.313 279.155 160.247 278.729C159.164 278.285 157.921 278.072 156.483 278.072C155.133 278.072 153.89 278.32 152.754 278.782C151.599 279.261 150.605 279.918 149.77 280.753C148.936 281.587 148.279 282.6 147.799 283.754C147.32 284.908 147.089 286.169 147.089 287.536C147.089 288.903 147.32 290.164 147.781 291.318C148.261 292.472 148.9 293.467 149.735 294.319C150.569 295.154 151.564 295.811 152.718 296.29C153.872 296.752 155.115 297 156.483 297C157.69 297 158.88 296.858 160.017 296.556C161.153 296.272 162.201 295.828 163.195 295.242V287.11H157.158Z" fill="white"/>
<path d="M180.385 278.533H178.609L170.813 296.539H172.838L174.791 291.815H184.096L186.085 296.539H188.127L180.385 278.533ZM175.484 290.128L179.444 280.557L183.421 290.128H175.484Z" fill="white"/>
<path d="M208.673 278.533V293.875H208.62L198.143 278.533H195.852V296.539H197.681V281.055H197.734L208.212 296.539H210.502V278.533H208.673Z" fill="white"/>
<path d="M128.088 137.207L126.081 132.111C123.293 124.99 117.646 119.344 110.525 116.556L105.429 114.549L103.316 113.733L91.3822 109.045L88.8251 108.033L76.6432 103.256L66.6277 99.3318C64.994 98.6215 64.1771 97.414 64.1771 95.7271C64.1771 95.6739 64.1771 95.6561 64.1949 95.6206C64.1771 95.5851 64.1771 95.5496 64.1771 95.5141C64.1771 93.8094 64.994 92.6019 66.6277 91.9094L76.6432 87.9674L88.8251 83.1908L91.3822 82.1965L86.4633 70.9209L86.268 70.4592L74.5122 75.076L60.5723 80.5451C57.1805 81.8946 54.7832 83.7946 53.4158 86.2273C52.0307 88.6599 51.3381 91.8029 51.3381 95.6206C51.3381 99.4383 52.0307 102.563 53.4158 105.014C54.7832 107.447 57.1805 109.347 60.5723 110.678L74.5122 116.147L86.268 120.764L86.7297 120.942L98.1835 125.434L102.126 116.396L98.1835 125.434L100.634 126.393C107.755 129.199 113.384 134.828 116.19 141.948L117.149 144.398L128.887 139.285L128.07 137.171L128.088 137.207Z" fill="white"/>
<path d="M218.742 146.068L212.775 132.342L207.732 120.782L207.643 120.817L207.732 120.782L207.537 120.32L202.618 109.045L197.432 111.087L202.635 109.045L201.57 106.63C198.516 99.6159 198.516 91.6431 201.57 84.6292L202.635 82.2142L190.702 77.5442L189.796 79.604L187.612 84.6114C184.54 91.6431 184.54 99.6336 187.612 106.648L189.796 111.655L190.702 113.733L195.834 125.47L201.197 123.357L195.834 125.47L196.917 127.973L202.174 139.977L206.471 149.832C207.11 151.466 206.844 152.904 205.637 154.111L205.565 154.182C205.565 154.182 205.53 154.236 205.494 154.254C204.287 155.461 202.866 155.727 201.215 155.088L191.359 150.773L179.355 145.535L176.851 144.434L172.358 155.887L172.163 156.349L183.741 161.392L197.468 167.376C200.806 168.832 203.843 169.187 206.542 168.423C209.241 167.678 211.941 165.955 214.64 163.256C217.339 160.557 219.079 157.858 219.825 155.159C220.571 152.46 220.216 149.424 218.76 146.068H218.742Z" fill="white"/>
<path d="M167.528 23.1729L162.059 9.23377C160.727 5.84223 158.827 3.44506 156.394 2.07779C153.943 0.692759 150.818 0.000244141 147 0.000244141C143.182 0.000244141 140.057 0.692759 137.606 2.07779C135.173 3.44506 133.273 5.84223 131.941 9.23377L126.454 23.1729L121.855 34.9101L122.316 35.1054L129.792 38.3727L122.316 35.1054L121.855 34.9101L121.677 35.3718L117.184 46.8249L116.225 49.2753C113.42 56.3958 107.79 62.0247 100.67 64.8303L98.2012 65.8069L103.333 77.5441L105.446 76.7096L110.525 74.7208C117.664 71.933 123.311 66.2863 126.099 59.1481L128.105 54.0519L128.922 51.9566L125.673 50.5361L128.922 51.9566L133.593 40.024L134.605 37.4848L139.382 25.2859L143.306 15.2711C144.017 13.6552 145.206 12.8384 146.911 12.8384H147.124C148.829 12.8384 150.019 13.6552 150.729 15.2711L154.654 25.2859L159.448 37.4848L160.443 40.024L171.719 35.1232L172.163 34.9101L167.546 23.1729H167.528Z" fill="white"/>
<path d="M219.808 36.1175C219.062 33.4185 217.321 30.7194 214.622 28.0204C211.923 25.3036 209.224 23.5812 206.525 22.8354C203.825 22.0896 200.789 22.4448 197.45 23.8831L183.723 29.8671L172.145 34.91L171.701 35.1231L160.425 40.024L157.992 41.0894C150.996 44.1436 143.022 44.1436 136.008 41.0894L133.575 40.024L128.905 51.9565L130.982 52.8621L135.99 55.0462C143.005 58.1181 150.996 58.1181 158.01 55.0462L163.035 52.8621L165.095 51.9565L164.279 49.8612L165.095 51.9565L176.833 46.8248L172.341 35.3717L172.234 35.1231L172.341 35.3895L176.833 46.8248L179.337 45.7417L191.342 40.4857L201.197 36.1885C202.849 35.5493 204.269 35.8156 205.477 37.0231C205.495 37.0408 205.53 37.0586 205.548 37.0941C205.566 37.1119 205.601 37.1296 205.619 37.1651C206.827 38.3726 207.093 39.7931 206.454 41.4445L202.156 51.2995L196.9 63.3031L195.817 65.8068L207.253 70.2993L207.732 70.4769L212.758 58.9172L218.76 45.1912C220.198 41.8352 220.553 38.8165 219.808 36.1175Z" fill="white"/>
<path d="M240.566 86.245C239.199 83.8123 236.802 81.9124 233.41 80.5628L219.47 75.0938L207.732 70.477L207.59 70.7611L207.714 70.477L207.252 70.2994L195.816 65.807L193.348 64.8303C186.227 62.0248 180.598 56.3959 177.792 49.2754L176.833 46.825L165.095 51.9567L165.912 54.052L167.919 59.1482C170.707 66.2864 176.354 71.9331 183.492 74.7209L188.571 76.7096L190.684 77.5442L202.618 82.2142L205.565 75.4666L202.635 82.2142L205.175 83.2086L217.357 87.9852L227.39 91.9272C229.006 92.6197 229.823 93.8272 229.823 95.5318C229.823 95.5673 229.823 95.6028 229.805 95.6384C229.823 95.6739 229.823 95.6916 229.823 95.7449C229.823 97.4318 229.006 98.6393 227.39 99.3495L217.357 103.274L205.175 108.05L202.635 109.045L207.554 120.32L207.75 120.782L219.488 116.165L233.428 110.696C236.819 109.364 239.217 107.464 240.584 105.032C241.969 102.581 242.662 99.4561 242.662 95.6384C242.662 91.8207 241.969 88.6777 240.584 86.245H240.566Z" fill="white"/>
<path d="M163.018 138.414L158.01 136.213C150.978 133.158 143.004 133.158 135.99 136.213L130.982 138.414L128.905 139.32L117.167 144.434L114.663 145.535L102.658 150.773L92.8028 155.07C91.1513 155.727 89.7307 155.461 88.5232 154.253L88.4521 154.182L88.3811 154.111C87.1736 152.904 86.9072 151.466 87.5465 149.832L91.8617 139.977L97.1002 127.956L98.2012 125.47L86.7474 120.959L86.2857 120.782L81.2247 132.342L75.258 146.068C73.8019 149.424 73.4467 152.442 74.1925 155.159C74.9561 157.858 76.6786 160.557 79.3778 163.256C82.077 165.955 84.7762 167.678 87.4754 168.423C90.1747 169.187 93.2113 168.832 96.5497 167.376L110.277 161.392L121.855 156.349L122.316 156.153L133.593 151.235L130.769 144.043L133.593 151.235L136.008 150.187C143.022 147.133 150.978 147.133 157.992 150.187L160.425 151.235L165.095 139.32L163.018 138.414Z" fill="white"/>
<path d="M110.277 29.8671L96.5498 23.8831C93.2113 22.4448 90.1747 22.0896 87.4755 22.8354C84.7763 23.5812 82.0771 25.3036 79.3779 28.0204C76.6787 30.7194 74.9562 33.4185 74.1926 36.1175C73.4468 38.8165 73.8019 41.8352 75.2403 45.1912L81.2425 58.9172L86.2858 70.4769L86.4811 70.9385L91.4 82.2141L97.1714 79.959L91.4178 82.2141L92.4655 84.6468C95.5199 91.6607 95.5199 99.6158 92.4655 106.63L91.4178 109.045L103.333 113.732L104.239 111.655L106.423 106.647C109.495 99.6335 109.495 91.6607 106.441 84.629L104.239 79.6216L103.333 77.5441L98.2013 65.7891L97.1181 63.2854L91.8795 51.2818L87.5643 41.4268C86.925 39.7754 87.1914 38.3548 88.3989 37.1474C88.4167 37.1119 88.4522 37.0941 88.47 37.0764C88.4877 37.0408 88.5233 37.0231 88.541 37.0053C89.7485 35.7979 91.1692 35.5315 92.8207 36.1708L102.676 40.4679L114.681 45.7239L117.185 46.8071L121.695 35.3717L121.873 34.8923L110.294 29.8493L110.277 29.8671Z" fill="white"/>
<path d="M190.684 113.732L188.571 114.549L183.475 116.556C176.354 119.344 170.707 124.99 167.919 132.111L165.912 137.207L165.095 139.32L160.425 151.235L159.43 153.774L154.636 165.973L150.711 175.988C150.001 177.604 148.811 178.438 147.106 178.438C147.071 178.438 147.035 178.438 147 178.438C146.964 178.438 146.929 178.438 146.893 178.438C145.189 178.438 143.999 177.604 143.289 175.988L139.364 165.973L134.587 153.774L133.593 151.235L122.299 156.153L121.855 156.349L126.454 168.104L131.941 182.025C133.273 185.434 135.173 187.814 137.606 189.199C140.057 190.584 143.182 191.259 147 191.259C150.818 191.259 153.943 190.584 156.394 189.199C158.827 187.814 160.727 185.434 162.059 182.025L167.528 168.104L172.145 156.349L171.932 156.26L172.145 156.349L172.323 155.887L176.815 144.434L170.494 141.682L176.815 144.434L177.774 141.983C180.58 134.863 186.209 129.234 193.33 126.429L195.799 125.47L190.667 113.732H190.684Z" fill="white"/>
</g>
<defs>
<clipPath id="clip0_214_802">
<rect width="294" height="297" fill="white" transform="translate(0 0.000244141)"/>
</clipPath>
</defs>
</svg>
