<svg width="300" height="295" viewBox="0 0 300 295" fill="none" xmlns="http://www.w3.org/2000/svg">
<g clip-path="url(#clip0_214_904)">
<path d="M126.353 141.926L150 165.601L126.353 189.258L55.412 118.268L79.059 94.6111L102.706 118.268L126.353 94.6111L150 118.268L126.353 141.926Z" fill="white"/>
<path d="M244.588 118.268L173.647 189.258L150 165.601L173.647 141.926L150 118.268L173.647 94.6111L197.276 118.268L220.941 94.6111L244.588 118.268Z" fill="white"/>
<path d="M244.588 70.9537L220.941 94.611L197.276 70.9537L173.647 94.611L150 70.9537L173.647 47.3146L150 23.6573L173.647 0L244.588 70.9537Z" fill="white"/>
<path d="M126.353 47.3146L150 70.9537L126.353 94.611L102.706 70.9537L79.059 94.611L55.412 70.9537L126.353 0L150 23.6573L126.353 47.3146Z" fill="white"/>
<path d="M29.5543 229.304C28.3765 227.726 26.9268 226.548 25.2054 225.75C23.484 224.971 21.6901 224.572 19.8056 224.572C17.6492 224.572 15.656 225.007 13.844 225.895C12.0319 226.784 10.4555 227.962 9.1327 229.449C7.80991 230.935 6.77705 232.657 6.05224 234.615C5.30931 236.573 4.9469 238.621 4.9469 240.761C4.9469 243.045 5.30931 245.166 6.05224 247.124C6.77705 249.081 7.80991 250.785 9.11458 252.236C10.4192 253.686 11.9776 254.828 13.7896 255.68C15.6017 256.532 17.613 256.949 19.8237 256.949C22.2156 256.949 24.3356 256.478 26.202 255.553C28.0684 254.61 29.6993 253.269 31.0945 251.511L34.5555 254.429C32.7978 256.786 30.6778 258.508 28.1953 259.614C25.7128 260.72 22.9223 261.264 19.8056 261.264C17.015 261.264 14.4057 260.756 11.9957 259.723C9.56758 258.689 7.46563 257.275 5.68983 255.463C3.91404 253.65 2.51878 251.492 1.50404 248.991C0.489303 246.489 -0.0180664 243.77 -0.0180664 240.797C-0.0180664 237.824 0.471182 235.25 1.43156 232.766C2.41006 230.264 3.76908 228.107 5.52675 226.276C7.28442 224.445 9.38638 222.995 11.7964 221.925C14.2245 220.856 16.8701 220.33 19.7693 220.33C22.4149 220.33 24.9517 220.801 27.398 221.762C29.8442 222.723 31.8737 224.282 33.5408 226.439L29.5181 229.358L29.5543 229.304Z" fill="white"/>
<path d="M63.2219 261.227C60.2501 261.227 57.5321 260.72 55.0496 259.686C52.5671 258.653 50.4289 257.239 48.6169 255.426C46.8048 253.613 45.3915 251.438 44.3767 248.936C43.362 246.416 42.8546 243.697 42.8546 240.76C42.8546 237.824 43.362 235.104 44.3767 232.585C45.3915 230.065 46.8048 227.908 48.6169 226.095C50.4289 224.282 52.5852 222.85 55.0496 221.835C57.5321 220.801 60.2501 220.294 63.2219 220.294C66.1936 220.294 68.9116 220.801 71.3941 221.835C73.8766 222.868 76.0148 224.282 77.8268 226.095C79.6389 227.908 81.0522 230.083 82.067 232.585C83.0817 235.104 83.5891 237.824 83.5891 240.76C83.5891 243.697 83.0817 246.416 82.067 248.936C81.0522 251.456 79.6389 253.613 77.8268 255.426C76.0148 257.239 73.8585 258.671 71.3941 259.686C68.9116 260.72 66.1936 261.227 63.2219 261.227ZM63.2219 256.931C65.505 256.931 67.5707 256.514 69.4734 255.662C71.3579 254.81 72.9887 253.668 74.3477 252.199C75.7068 250.731 76.7577 249.009 77.5188 247.051C78.2617 245.093 78.6423 242.99 78.6423 240.742C78.6423 238.494 78.2617 236.41 77.5188 234.434C76.7577 232.476 75.7068 230.754 74.3477 229.285C72.9887 227.817 71.3579 226.657 69.4734 225.823C67.5889 224.971 65.505 224.554 63.2219 224.554C60.9387 224.554 58.873 224.971 56.9703 225.823C55.0858 226.675 53.455 227.817 52.096 229.285C50.737 230.754 49.686 232.476 48.9249 234.434C48.1639 236.392 47.8015 238.494 47.8015 240.742C47.8015 242.99 48.182 245.075 48.9249 247.051C49.6679 249.009 50.737 250.731 52.096 252.199C53.455 253.668 55.0677 254.828 56.9703 255.662C58.8549 256.514 60.9387 256.931 63.2219 256.931Z" fill="white"/>
<path d="M95.1499 221.254H102.036L115.245 251.8H115.354L128.673 221.254H135.377V260.23H130.756V227.527H130.648L116.677 260.23H113.868L99.8974 227.527H99.7887V260.23H95.168V221.254H95.1499Z" fill="white"/>
<path d="M149.185 221.254H160.745C162.539 221.254 164.261 221.436 165.892 221.78C167.522 222.125 168.972 222.723 170.24 223.539C171.509 224.372 172.524 225.46 173.266 226.838C174.009 228.216 174.39 229.92 174.39 231.932C174.39 234.053 173.991 235.829 173.176 237.225C172.36 238.621 171.328 239.727 170.059 240.525C168.791 241.34 167.414 241.902 165.91 242.229C164.406 242.555 162.974 242.718 161.615 242.718H153.805V260.23H149.185V221.254ZM153.805 238.44H161.615C163.935 238.44 165.801 237.914 167.251 236.863C168.7 235.811 169.425 234.198 169.425 231.986C169.425 229.775 168.7 228.161 167.251 227.11C165.801 226.058 163.916 225.551 161.615 225.551H153.805V238.44Z" fill="white"/>
<path d="M194.522 221.254H198.87L215.432 260.23H210.033L206.064 250.658H186.585L182.562 260.23H177.325L194.503 221.254H194.522ZM196.605 227.2H196.497L188.415 246.362H204.325L196.624 227.2H196.605Z" fill="white"/>
<path d="M224.728 221.254H230.563L253.123 253.631H253.232V221.254H257.852V260.23H252.017L229.458 227.853H229.349V260.23H224.728V221.254Z" fill="white"/>
<path d="M280.865 243.443L266.333 221.254H272.222L283.166 238.875L294.455 221.254H300.018L285.486 243.443V260.23H280.865V243.443Z" fill="white"/>
<path d="M95.2586 279.12C94.8599 278.558 94.3525 278.123 93.7365 277.778C93.1204 277.434 92.3593 277.271 91.4714 277.271C91.0184 277.271 90.5654 277.343 90.0943 277.47C89.6231 277.597 89.2064 277.814 88.8258 278.104C88.4453 278.394 88.1373 278.757 87.9017 279.174C87.6661 279.609 87.5574 280.117 87.5574 280.715C87.5574 281.313 87.6661 281.784 87.9017 282.165C88.1191 282.546 88.4272 282.872 88.7896 283.144C89.152 283.416 89.5869 283.633 90.058 283.815C90.5292 283.996 91.0365 284.159 91.5439 284.341C92.1781 284.54 92.8304 284.776 93.4647 285.011C94.117 285.247 94.6968 285.573 95.2042 285.954C95.7297 286.335 96.1465 286.842 96.4726 287.44C96.7988 288.039 96.9619 288.8 96.9619 289.706C96.9619 290.613 96.7807 291.41 96.4364 292.081C96.0921 292.752 95.6391 293.296 95.0774 293.731C94.5156 294.166 93.8814 294.492 93.1566 294.692C92.4318 294.891 91.707 295 90.9822 295C90.4204 295 89.8768 294.945 89.3151 294.837C88.7534 294.728 88.2279 294.547 87.7386 294.329C87.2313 294.112 86.7783 293.822 86.3434 293.477C85.9085 293.133 85.5279 292.734 85.2018 292.281L86.8145 291.084C87.2131 291.737 87.7749 292.299 88.4816 292.734C89.2064 293.169 90.0399 293.405 91.0184 293.405C91.4895 293.405 91.9607 293.332 92.4499 293.187C92.9392 293.042 93.374 292.806 93.7546 292.516C94.1351 292.208 94.4613 291.846 94.7149 291.392C94.9686 290.957 95.0955 290.432 95.0955 289.851C95.0955 289.217 94.9686 288.673 94.7149 288.256C94.4613 287.839 94.1351 287.477 93.7183 287.187C93.3016 286.897 92.8304 286.661 92.2868 286.48C91.7432 286.298 91.1815 286.099 90.6016 285.9C90.0037 285.718 89.4057 285.501 88.8077 285.247C88.2279 285.011 87.6843 284.685 87.2313 284.304C86.7601 283.905 86.3796 283.434 86.1078 282.854C85.8179 282.274 85.6729 281.585 85.6729 280.751C85.6729 279.863 85.8541 279.101 86.1984 278.467C86.5608 277.832 87.0138 277.307 87.5937 276.89C88.1735 276.473 88.7896 276.165 89.4963 275.983C90.1849 275.784 90.8734 275.693 91.5439 275.693C92.7942 275.693 93.8452 275.911 94.7331 276.346C95.621 276.781 96.2733 277.307 96.7263 277.923L95.2404 279.12H95.2586Z" fill="white"/>
<path d="M108.051 292.879H116.622V294.547H106.185V276.165H108.051V292.897V292.879Z" fill="white"/>
<path d="M141.991 285.338C141.991 286.733 141.755 288.021 141.266 289.199C140.777 290.377 140.106 291.392 139.255 292.244C138.403 293.096 137.388 293.767 136.21 294.257C135.051 294.746 133.782 294.982 132.405 294.982C131.028 294.982 129.778 294.746 128.6 294.257C127.44 293.767 126.426 293.096 125.556 292.244C124.704 291.392 124.034 290.377 123.544 289.199C123.055 288.021 122.82 286.733 122.82 285.338C122.82 283.942 123.055 282.655 123.544 281.476C124.034 280.298 124.704 279.283 125.556 278.431C126.407 277.579 127.422 276.908 128.6 276.418C129.76 275.929 131.028 275.693 132.405 275.693C133.782 275.693 135.033 275.929 136.21 276.418C137.37 276.908 138.385 277.579 139.255 278.431C140.106 279.283 140.777 280.298 141.266 281.476C141.755 282.655 141.991 283.942 141.991 285.338ZM140.016 285.338C140.016 284.268 139.835 283.253 139.49 282.274C139.146 281.313 138.639 280.461 137.986 279.718C137.334 278.975 136.537 278.394 135.594 277.959C134.652 277.524 133.583 277.307 132.423 277.307C131.264 277.307 130.195 277.524 129.252 277.959C128.31 278.394 127.513 278.975 126.86 279.718C126.208 280.461 125.701 281.313 125.356 282.274C125.012 283.235 124.831 284.268 124.831 285.338C124.831 286.407 125.012 287.422 125.356 288.401C125.701 289.362 126.208 290.214 126.86 290.939C127.513 291.664 128.31 292.244 129.252 292.679C130.195 293.115 131.246 293.332 132.423 293.332C133.601 293.332 134.652 293.115 135.594 292.679C136.537 292.244 137.334 291.664 137.986 290.939C138.639 290.214 139.146 289.362 139.49 288.401C139.835 287.44 140.016 286.407 140.016 285.338Z" fill="white"/>
<path d="M165.022 279.482C164.388 278.812 163.626 278.286 162.739 277.905C161.851 277.524 160.836 277.343 159.694 277.343C158.553 277.343 157.466 277.561 156.523 277.996C155.581 278.431 154.784 279.011 154.131 279.754C153.479 280.497 152.972 281.349 152.609 282.31C152.247 283.271 152.084 284.304 152.084 285.374C152.084 286.443 152.265 287.459 152.609 288.438C152.972 289.398 153.461 290.25 154.131 290.976C154.784 291.701 155.581 292.281 156.523 292.716C157.466 293.151 158.535 293.368 159.694 293.368C160.727 293.368 161.688 293.26 162.557 293.024C163.427 292.806 164.116 292.516 164.659 292.172V286.589H160.383V284.921H166.526V293.223C165.529 293.84 164.442 294.275 163.282 294.583C162.122 294.873 160.927 295.018 159.676 295.018C158.299 295.018 157.013 294.782 155.835 294.293C154.657 293.804 153.642 293.133 152.79 292.281C151.939 291.429 151.287 290.414 150.797 289.235C150.326 288.057 150.091 286.77 150.091 285.374C150.091 283.978 150.326 282.691 150.815 281.513C151.305 280.334 151.975 279.319 152.827 278.467C153.678 277.615 154.693 276.944 155.871 276.455C157.031 275.965 158.299 275.73 159.676 275.73C161.144 275.73 162.431 275.947 163.518 276.382C164.605 276.817 165.547 277.434 166.326 278.213L165.022 279.519V279.482Z" fill="white"/>
<path d="M176.365 294.528H174.317L182.254 276.146H184.066L191.948 294.528H189.865L187.835 289.706H178.34L176.347 294.528H176.365ZM179.065 287.984H187.165L183.124 278.213L179.083 287.984H179.065Z" fill="white"/>
<path d="M212.878 291.809H212.932V276.146H214.798V294.528H212.461L201.77 278.721H201.716V294.528H199.849V276.146H202.187L212.878 291.809Z" fill="white"/>
</g>
<defs>
<clipPath id="clip0_214_904">
<rect width="300" height="295" fill="white"/>
</clipPath>
</defs>
</svg>
