<svg xmlns="http://www.w3.org/2000/svg" viewBox="0 0 303.41 195.12"><defs><style>.cls-1{fill:#f4f6fe;}</style></defs><g id="Слой_2" data-name="Слой 2"><g id="Слой_1-2" data-name="Слой 1"><path class="cls-1" d="M96.85,192.19A98.34,98.34,0,0,1,28.38,165C10.08,147.42,0,124.1,0,99.3S10.08,51.19,28.38,33.64L56.91,6.28a23.06,23.06,0,0,1,31.63,0,20.83,20.83,0,0,1,0,30.34L60,64a48.47,48.47,0,0,0,0,70.65,53.62,53.62,0,0,0,73.66,0l57.39-55a23.07,23.07,0,0,1,31.64,0,20.84,20.84,0,0,1,0,30.35l-57.39,55A98.32,98.32,0,0,1,96.85,192.19Z"/><path class="cls-1" d="M230.42,195.12a23,23,0,0,1-15.9-6.29,20.79,20.79,0,0,1,0-30.35l28.66-27.37a48.45,48.45,0,0,0,0-70.67c-20.4-19.49-53.6-19.48-74,0l-57.65,55.05a23.23,23.23,0,0,1-31.78,0,20.78,20.78,0,0,1,0-30.35l57.65-55C175.33-6.13,237-6.13,275,30.09s37.93,95.15,0,131.37L246.3,188.83A22.92,22.92,0,0,1,230.42,195.12Z"/></g></g></svg>