<svg width="237" height="266" viewBox="0 0 237 266" fill="none" xmlns="http://www.w3.org/2000/svg">
<g opacity="0.4">
<path d="M114 189.846C84.0622 180.828 59.2744 161.152 44.2021 134.445C29.1335 107.737 25.5976 77.2153 34.2469 48.5017C42.8948 19.7928 62.7008 -3.69768 90.0144 -17.6402L132.592 -39.3679C145.63 -46.0198 162.034 -41.0786 169.229 -28.3317C176.423 -15.5819 171.684 0.149865 158.645 6.80476L116.068 28.5324C101.368 36.0373 90.7081 48.6702 86.0576 64.1086C81.4059 79.5509 83.3141 95.9703 91.4236 110.344C99.5356 124.72 112.867 135.308 128.968 140.158C145.066 145.007 162.027 143.544 176.73 136.041L262.381 92.3263C275.421 85.6715 291.824 90.6127 299.019 103.362C306.213 116.112 301.474 131.844 288.435 138.499L202.782 182.214C175.467 196.152 143.938 198.864 114 189.846Z" fill="#F4F6FE"/>
<path d="M267.646 239.824C260.984 237.817 255.058 233.386 251.437 227.003C244.198 214.236 248.938 198.499 262.025 191.855L304.754 170.163C335.176 154.716 346.235 118.002 329.404 88.3227C312.576 58.6419 274.135 47.0653 243.711 62.5097L157.754 106.155C144.668 112.799 128.19 107.836 120.951 95.0686C113.712 82.3014 118.452 66.5646 131.539 59.9205L217.497 16.2798C274.05 -12.431 345.512 9.0921 376.793 64.2643C408.079 119.434 387.521 187.681 330.97 216.396L288.237 238.088C281.696 241.41 274.306 241.83 267.646 239.824Z" fill="#F4F6FE"/>
</g>
</svg>
