<svg width="234" height="222" viewBox="0 0 234 222" fill="none" xmlns="http://www.w3.org/2000/svg">
<path opacity="0.2" d="M242.103 181.75C232.378 131.924 201.805 104.397 170.293 99.643C138.781 94.8887 100.949 136.044 131.51 159.202C162.07 182.36 214.702 96.0064 156.212 47.6932C109.421 9.04266 59.5545 43.3706 40.4704 65.3659" stroke="#031C77" stroke-dasharray="8 8"/>
<path d="M0.744086 56.1477C0.272763 54.8505 1.42795 53.5429 2.77353 53.8545L61.1416 67.3828C61.8441 67.5456 62.3737 68.1245 62.4735 68.8386C62.5733 69.5528 62.2227 70.2547 61.5918 70.6039L46.8433 78.7663L49.4541 97.7157C49.5642 98.515 49.111 99.2853 48.3588 99.5773C47.6116 99.8675 46.7554 99.6109 46.2942 98.9424L38.0902 87.0453L23.9753 100.88C23.1167 101.721 21.6799 101.459 21.1747 100.367C-0.136112 54.2593 0.786858 56.265 0.744086 56.1477ZM15.2678 60.3267L44.9312 75.8426L55.9355 69.7524L15.2678 60.3267ZM43.3514 78.9479L17.4951 65.4235C40.701 84.0061 39.4878 83.0269 39.5925 83.1337C39.7481 83.2922 39.2937 82.6534 45.0026 90.9321L43.3514 78.9479ZM23.3008 96.6625L35.7252 84.485L7.06456 61.5343L23.3008 96.6625Z" fill="#F4F6FE"/>
</svg>
