<svg width="20" height="21" viewBox="0 0 20 21" fill="none" xmlns="http://www.w3.org/2000/svg">
<path d="M7.5026 6.33334H5.0026C4.56058 6.33334 4.13665 6.50893 3.82409 6.82149C3.51153 7.13405 3.33594 7.55797 3.33594 8V15.5C3.33594 15.942 3.51153 16.366 3.82409 16.6785C4.13665 16.9911 4.56058 17.1667 5.0026 17.1667H12.5026C12.9446 17.1667 13.3686 16.9911 13.6811 16.6785C13.9937 16.366 14.1693 15.942 14.1693 15.5V13" stroke="#031C77" stroke-width="1.5" stroke-linecap="round" stroke-linejoin="round"/>
<path d="M7.5 13H10L17.0833 5.91667C17.4149 5.58515 17.6011 5.13551 17.6011 4.66667C17.6011 4.19783 17.4149 3.74819 17.0833 3.41667C16.7518 3.08515 16.3022 2.8989 15.8333 2.8989C15.3645 2.8989 14.9149 3.08515 14.5833 3.41667L7.5 10.5V13Z" stroke="#031C77" stroke-width="1.5" stroke-linecap="round" stroke-linejoin="round"/>
<path d="M13.3359 4.66667L15.8359 7.16667" stroke="#031C77" stroke-width="1.5" stroke-linecap="round" stroke-linejoin="round"/>
</svg>
