<svg width="291" height="198" fill="none" xmlns="http://www.w3.org/2000/svg"><path d="M156.979 15.316c3.896 8.618 12.515 17.032 22.979 18.879 6.364 12.932 8.415 21.755 10.669 31.393 2.254 9.649 5 17.163 12.005 19.418 4.536 1.465 8.544 1.54 12.617.074 4.462.306 6.976.408 10.056-.204 3.08-.613 4.639-3.108 4.518-4.722 5.13-1.846 6.596-4.388 6.16-7.59-5.743.41-9.648-.611-13.341-3.691-3.692-3.08-5.9-12.033-6.308-19.418-.408-7.384-3.182-20.14-7.078-26.7-3.897-6.567-8.693-13.006-16.393-15.77-6.253-2.245-11.077-2.385-14.547-1.92-3.711.49-3.312 2.235.612 3.08 4.964 1.066 12.163 3.83 16.829 8.006 3.182 2.848 5.409 6.846 6.364 9.852 1.077 3.414-1.651 3.45-4.313 0-4.027-5.233-12.339-11.003-16.57-12.617-3.72-1.42-7.236-2.152-11.54-2.774-4.314-.612-9.695.464-12.163 1.076-1.957.492-5.64 2.078-8.238 5-3.108 3.507-5.232 11.078-5.074 18.471.139 6.569 0 17.312 2.894 30.448 2.421 10.966 7.171 18.554 11.569 23.193 4.23 4.462 8.748 9.648 15.929 9.027 5.742-3.693 10.056-5.947 13.952-6.977-1.846-3.488-4.313-6.976-6.568-8.618-4.722 2.876-10.279 3.775-13.851 2.106-3.46-1.615-6.457-8.025-8.924-11.337-2.616-3.516-5.288-7.088-6.309-9.899-1.029-2.82-1.753-5.668-2.31-9.592-.306-2.18-2.876-6.16-3.08-11.077-.204-4.926-.612-13.545 1.234-17.85 1.865-4.341 4.936-8.451 8.22-9.267zM1.846 113.199l63.511.204 24.928 75.108-59.16-4.026-29.28-71.286z" fill="#D44B4B"/><path d="M265.447 193.827h-.092a1.114 1.114 0 01-1.012-1.206c.093-1.095.195-2.403.306-3.887.483-6.365 1.206-15.985 2.83-25.995 2.431-14.955 2.366-23.323 1.475-31.978-.733-7.116-2.31-13.248-4.676-18.239a1.12 1.12 0 01.529-1.485 1.111 1.111 0 011.485.529c2.477 5.223 4.119 11.606 4.879 18.963 1.076 10.436.678 19.259-1.493 32.562-1.615 9.918-2.338 19.473-2.811 25.8a489.12 489.12 0 01-.306 3.915 1.12 1.12 0 01-1.114 1.021zm-30.457-82.641a1.111 1.111 0 01-.881-1.791c3.498-4.546 12.923-7.765 19.055-6.503.603.121.993.714.863 1.317-.12.603-.705.993-1.317.863-5.232-1.076-13.888 1.846-16.838 5.678a1.11 1.11 0 01-.882.436zm-4.712 5.492a1.112 1.112 0 00-1.522.408c-2.523 4.36-5.909 14.574-8.377 22.033-1.095 3.312-2.041 6.179-2.551 7.394-.761 1.818-1.169 4.026-1.577 6.151-.464 2.449-.937 4.991-1.865 6.067-1.716 2.004-.687 3.85-.009 5.075.371.668.723 1.308.723 1.902 0 .807-.631 1.475-1.262 1.781-.222.102-.992.417-1.54-.019-1.855-1.484-4.62-1.048-8.442-.436l-1.308.204c-4.49.696-20.966 2.273-26.375 1.642-5.557-.649-7.375-.974-8.507-1.28-1.373-.371-3.423.139-4.425 1.317-3.544-.538-7.784-1.178-8.498-1.243-.585-.055-1.54.028-2.097 1.049-.631-.037-1.317-.084-2.041-.121-3.172-.195-7.115-.427-9.917-.705-3.136-.315-8.368-1.883-12.19-3.024-1.373-.409-2.57-.77-3.442-1.002-.631-.167-1.215-.316-1.781-.464 1.317-.371 2.792-.77 4.249-1.169 4.564-1.252 8.869-2.44 10.047-2.895 3.46-1.335 5.306-2.978 5.483-4.889.13-1.382 1.855-4.388 3.887-5.557 2.523-1.447 3.228-2.504 3.646-3.952.111-.371.176-.788.26-1.261.185-1.123.426-2.515 1.27-3.888.91-1.484 7.218-13.86 11.82-22.905 2.226-4.369 3.979-7.811 4.508-8.822 1.327-2.524 3.062-5.493 4.75-6.049a1.114 1.114 0 10-.705-2.115c-2.412.807-4.314 3.896-6.011 7.124-.539 1.03-2.301 4.481-4.528 8.851-4.332 8.498-10.873 21.337-11.735 22.748-1.077 1.744-1.355 3.441-1.568 4.685-.065.408-.13.77-.204 1.02-.214.733-.39 1.364-2.607 2.635-2.616 1.493-4.796 5.084-5.001 7.282-.083.956-1.567 2.051-4.063 3.015-1.076.418-5.733 1.698-9.843 2.821-3.776 1.039-7.348 2.022-8.646 2.458a19.911 19.911 0 00-2.116-.028c-.751.028-1.66.102-2.634.195-.019-.009-.028-.019-.047-.028-.259-.083-.566-.111-4.304-.324-2.32-.13-4.954-.279-5.91-.39-1.011-.121-1.79.037-2.44.325a1.087 1.087 0 00-.788-.436c-3.33-.269-4.63 1.252-5.14 2.625l-.278.019c-2.514.157-4.045.259-5.427 1.929l-19.52-58.696a1.105 1.105 0 00-1.048-.761l-64.587-.548h-.01c-.612 0-1.104.492-1.113 1.104a1.116 1.116 0 001.104 1.123l63.79.538 23.202 69.755c.01.074.046.13.065.195l1.67 5.028c.148.455.575.761 1.058.761h37.887c2.283.195 4.648.223 6.708.223h13.572c.223 0 .418-.084.585-.195.065.028.13.046.195.065l12.292 2.3c.065.01.139.019.204.019a.244.244 0 00.083-.019c-.074.177-.139.353-.213.511-.046.092-.056.194-.074.296H92.41l-60.562-4.722-29.705-71.972a1.12 1.12 0 00-1.457-.603 1.117 1.117 0 00-.603 1.457l29.966 72.603c.157.389.528.649.946.686l61.331 4.778h73.921c.612 0 1.113-.501 1.113-1.113 0-.214-.074-.39-.176-.557 1.966-4.277 2.876-14.454 1.753-18.536 1.354.242 3.405.52 6.949.937.964.112 2.217.158 3.673.158 7.376 0 19.724-1.262 23.295-1.809l1.318-.204c3.265-.52 5.622-.891 6.707-.028 1.039.835 2.533.937 3.887.288 1.54-.743 2.524-2.227 2.524-3.785 0-1.179-.539-2.143-1.012-2.988-.76-1.363-.881-1.799-.241-2.542 1.308-1.53 1.818-4.239 2.366-7.106.38-2.013.77-4.1 1.438-5.705.538-1.299 1.456-4.055 2.607-7.552 2.44-7.366 5.779-17.46 8.191-21.625a1.05 1.05 0 00-.361-1.512zM97.011 165.309c.167-.473.51-.984 1.457-1.179-.446.455-1.086 1.253-1.782 2.153.112-.353.223-.687.325-.974zm-4.555 4.694l-.204.352a27.393 27.393 0 01-1.123 1.763l-1.067-3.201c.168-.092.325-.222.427-.398.863-1.42 1.41-1.596 3.73-1.754l-.548 1.921c-.074.269-.148.538-.222.788a1.07 1.07 0 00-.993.529zm2.19 12.71l-.13-.381c.102.102.213.204.334.306.037.028.083.056.12.084h-.325v-.009zm.686-6.754c-.334.872-.622 1.929-.872 2.857-.167.622-.325 1.216-.455 1.54-.027.074-.046.158-.065.241l-.64-1.938c.065-.325.13-.687.204-1.104.26-1.466.705-3.934 1.17-4.667.862-1.354 4.591-6.512 5.51-7.347l.278-.251c.919-.835 1.373-1.262 2.579-1.122.251.027.603.065 1.021.092-.529.353-.909.817-1.29 1.299-.306.381-.658.817-1.159 1.327-1.967 1.967-4.129 4.731-4.37 5.047-.77.992-1.225 2.198-1.707 3.479l-.204.547zm3.488 6.754a1.12 1.12 0 00.353-.529c.157.074.324.13.491.13.223 0 .436-.075.622-.214.046.223.121.427.232.613H98.82zm9.583 0a7.274 7.274 0 001.661-1.327c.594-.195 1.234-.38 1.902-.575 1.809-.52 3.674-1.058 5.084-1.995.334.223.668.446 1.011.668 1.716 1.141 3.46 2.292 5.297 3.229h-14.955zm43.891.204a1.077 1.077 0 00-.613-.204h-19.797c-1.29-.112-2.542-.269-3.665-.52-3.107-.686-6.067-2.653-8.933-4.555a76.443 76.443 0 00-1.68-1.104 1.101 1.101 0 00-1.335.102c-1.086.946-3.034 1.503-4.917 2.05-.77.223-1.559.446-2.292.705a1.109 1.109 0 00-.482.334c-1.893 2.255-5.288 2.153-6.132 1.847.027-.307.361-1.077 1.113-1.698l5.585-4.657c1.039-.872 1.354-1.132 2.337-1.383 1.299-.324 4.76-1.187 7.311-1.503.232-.027.417-.139.575-.278a100.73 100.73 0 012.69-.037c.613 0 1.114-.501 1.114-1.113s-.501-1.113-1.114-1.113c-1.809 0-4.898.102-7.616.185-2.273.074-4.416.139-5.446.139-.306 0-.594.13-.807.353-1.902 2.013-4.713 3.516-5.798 3.878-.353.12-.622.408-.724.76-.723 2.644-1.558 4.268-2.727 5.26a1.02 1.02 0 00-.316.52 1.095 1.095 0 00-1.16.093c-.222.167-.5.158-.695.13a1.57 1.57 0 01-.566-.232c.13-.399.26-.891.418-1.457.24-.881.5-1.874.797-2.634l.214-.557c.436-1.16.816-2.171 1.382-2.895.232-.296 2.319-2.968 4.193-4.833.594-.594.993-1.104 1.327-1.512.621-.779.77-.946 1.336-1.03l.343-.046c1.791-.26 7.255-1.049 10.075-1.151 2.885-.102 4.908.39 8.238 1.281.854.222 2.023.575 3.377.983 3.906 1.169 9.249 2.774 12.608 3.108 2.839.287 6.809.519 10 .714 1.253.074 2.394.139 3.294.204.009 2.802-.306 9.342-1.512 11.866zm-48.919-5.817c.102-.306.195-.603.279-.891.584-.25 1.317-.621 2.096-1.085l-2.375 1.976zm62.64 8.312a1.091 1.091 0 00-.511-.269l-10.882-2.041c1.42-3.98 1.438-11.485 1.373-13.016 2.848.409 8.851 1.327 11.059 1.68.491 3.228.074 9.472-1.039 13.646z" fill="#475658"/><path d="M170.895 166.83a1.1 1.1 0 01-1.077-.844c-.232-.937-.491-2.022-.853-3.544-.408-1.698-.946-3.952-1.726-7.162-.454-1.846-1.048-3.72-1.623-5.529-1.308-4.101-2.672-8.35-2.301-12.45.631-6.93 1.735-16.68 2.765-21.328.13-.603.723-.974 1.326-.844.603.129.974.723.845 1.326-1.012 4.546-2.097 14.176-2.719 21.041-.334 3.646.9 7.496 2.199 11.568.594 1.847 1.197 3.758 1.67 5.687.779 3.219 1.317 5.474 1.725 7.172.362 1.512.622 2.588.854 3.525a1.123 1.123 0 01-.807 1.354 1.53 1.53 0 01-.278.028zm66.888 26.672a1.12 1.12 0 01-1.086-.863 1.117 1.117 0 01.835-1.336c3.043-.696 5.687-2.903 7.849-6.559 1.8-3.052 9.509-17.153 13.758-27.673 3.887-9.639 7.514-23.416 6.021-33.166a29.311 29.311 0 00-.993-4.324 1.11 1.11 0 01.733-1.391 1.11 1.11 0 011.392.733 32.277 32.277 0 011.066 4.648c1.559 10.195-2.161 24.417-6.16 34.334-4.017 9.964-11.475 23.852-13.906 27.971-2.486 4.212-5.603 6.763-9.277 7.598a.868.868 0 01-.232.028zm-8.684.371c-3.599 0-8.349-.352-12.969-.696-4.574-.343-8.888-.658-12.088-.658-7.422 0-32.962-1.828-34.669-1.976a1.113 1.113 0 01-1.011-1.206c.055-.613.612-1.049 1.206-1.012 1.651.149 27.293 1.967 34.474 1.967 3.284 0 7.644.325 12.255.668 5.464.408 11.114.826 14.686.649.566-.027 1.131.446 1.169 1.058a1.125 1.125 0 01-1.058 1.169c-.612.019-1.28.037-1.995.037zM24.593 181.952h-.064l-16.133-.965a1.118 1.118 0 01-1.049-1.178 1.125 1.125 0 011.178-1.048l16.133.964a1.12 1.12 0 011.049 1.179 1.117 1.117 0 01-1.114 1.048zm264.4 15.827h-.065l-46.126-2.765a1.118 1.118 0 01-1.048-1.178 1.13 1.13 0 011.178-1.048l46.126 2.764a1.118 1.118 0 011.048 1.178 1.123 1.123 0 01-1.113 1.049zM235.018 73.446c-4.648 0-9.36-2.96-11.689-5.278-2.95-2.95-4.833-9.046-5.297-17.135-.251-4.324-1.475-19.241-6.875-29.79-4.406-8.609-11.485-14.314-16.532-16.151a1.126 1.126 0 01-.668-1.429 1.123 1.123 0 011.429-.668c5.065 1.837 12.747 7.46 17.757 17.237 5.603 10.929 6.855 26.245 7.115 30.67.427 7.441 2.125 13.165 4.648 15.688 2.264 2.264 7.505 5.465 11.903 4.426a1.125 1.125 0 011.345.825 1.118 1.118 0 01-.826 1.346c-.761.176-1.531.26-2.31.26zM196.769 57.49a1.12 1.12 0 01-1.086-.863c-.334-1.466-.668-2.978-1.011-4.528l-.297-1.345c-2.477-11.132-7.672-24.714-14.843-29.418a1.108 1.108 0 01-.316-1.54 1.109 1.109 0 011.54-.315c9.723 6.382 14.547 25.187 15.79 30.79l.297 1.346c.343 1.55.677 3.061 1.011 4.518a1.116 1.116 0 01-.835 1.336 2.26 2.26 0 01-.25.018z" fill="#475658"/><path d="M189.106.908c-4.444-.742-11.337-1.178-18.982.928-6.058 1.67-16.095 6.716-17.014 9.778a1.287 1.287 0 00-.028.492 1.148 1.148 0 00-.825-.01c-1.809.724-4.407 3.062-5.854 6.123-1.225 2.589-3.08 6.503-3.405 11.986-.306 5.158-.223 9.426-.009 14.25.427 9.788 1.475 17.998 3.015 23.75 3.572 13.34 13.313 25.939 23.156 29.937.139.056.278.084.417.084.436 0 .854-.26 1.03-.696a1.114 1.114 0 00-.612-1.448c-9.25-3.757-18.434-15.724-21.848-28.453-1.503-5.594-2.514-13.637-2.941-23.267-.204-4.759-.288-8.962.009-14.027.297-5.056 1.967-8.59 3.192-11.17 1.261-2.671 3.488-4.536 4.666-5.01.501-.203.752-.723.659-1.233.037.018.065.046.111.056.111.027.213.046.315.046.483 0 .919-.315 1.067-.798.455-1.521 8.591-6.373 15.475-8.266 7.245-2.004 13.804-1.586 18.016-.881a1.112 1.112 0 001.28-.919c.121-.575-.287-1.15-.89-1.252z" fill="#475658"/><path d="M159.79 40.614c-.232 0-.473-.074-.677-.232a1.11 1.11 0 01-.214-1.558c2.709-3.563 8.062-5.882 12.441-5.39.612.065 1.048.621.983 1.234a1.12 1.12 0 01-1.233.983c-3.591-.399-8.183 1.586-10.419 4.527a1.093 1.093 0 01-.881.436zm-.594 26.292c-.046 0-.093 0-.139-.01a1.11 1.11 0 01-.965-1.243c.269-2.124.019-5.733-.835-7.867a1.107 1.107 0 01.622-1.447 1.11 1.11 0 011.447.622c1.039 2.588 1.28 6.559.974 8.97a1.104 1.104 0 01-1.104.975zm6.93-15.911a2.18 2.18 0 100-4.36 2.18 2.18 0 000 4.36z" fill="#475658"/><path d="M187.139 76.702a1.114 1.114 0 00-1.577.028c-3.897 4.045-6.671 5.576-9.89 6.745-2.95 1.076-6.243.705-8.386-.937-1.763-1.355-3.108-3.73-4.194-5.64l-.315-.557c-.111-.204-.26-.436-.399-.659 2.978-1.011 7.728-3.535 9.509-6.216a1.107 1.107 0 00-.306-1.54 1.106 1.106 0 00-1.54.306c-1.531 2.292-6.401 4.787-8.897 5.511-1.438-2.161-3.238-4.694-4.407-6.308-2.031-2.82-3.089-4.685-3.581-7.71-.12-.742-.25-1.475-.389-2.19.111.02.232.038.352.038a1.958 1.958 0 000-3.915c-.408 0-.788.13-1.104.343a30.643 30.643 0 00-.64-2.393c-.278-.826-.64-1.8-1.011-2.802-.204-.538-.408-1.085-.603-1.623.649-.353 1.095-.38 2.078-.13a1.11 1.11 0 001.345-.807 1.123 1.123 0 00-.807-1.355c-1.206-.297-2.171-.371-3.34.167-.538-1.855-.751-6.392-.677-9.787.074-3.387.844-8.526 2.171-11.782 1.345-3.285 3.405-5.808 5.121-6.262.594-.158.946-.77.789-1.364a1.115 1.115 0 00-1.364-.789c-2.904.78-5.316 4.416-6.605 7.57-1.503 3.674-2.264 9.092-2.338 12.58-.075 3.6.139 8.443.797 10.576.353 1.141.854 2.486 1.336 3.785.362.974.715 1.92.984 2.728.399 1.187 1.159 4.5 1.688 7.774.613 3.776 2.097 6.058 3.971 8.656 1.679 2.319 4.676 6.54 5.919 8.71l.315.548c1.178 2.088 2.653 4.685 4.778 6.309 1.716 1.317 3.98 2.004 6.327 2.004 1.391 0 2.82-.242 4.175-.733 3.414-1.243 6.549-2.96 10.733-7.292a1.125 1.125 0 00-.018-1.587zm76.221 29.353c-1.085-2.903-4.277-6.382-6.893-8.683-2.523-2.208-19.185-13.879-24.64-17.2 1.215-.566 2.431-1.354 3.637-2.449a1.116 1.116 0 10-1.503-1.651c-6.587 5.974-13.693 1.605-19.427-1.93-5.677-3.488-10.984-13.916-13.507-22.126a1.106 1.106 0 00-1.392-.733 1.11 1.11 0 00-.733 1.392c2.737 8.887 8.266 19.556 14.491 23.387 3.804 2.338 8.498 5.233 13.424 5.233.77 0 1.55-.075 2.32-.232.102.148.232.278.399.37 3.098 1.55 22.877 15.373 25.447 17.627 2.301 2.014 5.334 5.27 6.271 7.784.167.445.594.724 1.039.724.13 0 .26-.019.39-.075.603-.222.891-.862.677-1.438z" fill="#475658"/><path d="M227.968 82.37a1.112 1.112 0 00-.594 1.457c1.54 3.646-.334 15.03-1.995 19.278l-9.36 2.709a1.122 1.122 0 00-.807 1.058c-.01.491.315.927.779 1.076l6.336 1.995c-4.509 7.505-9.834 14.917-14.147 20.938-1.828 2.551-3.414 4.759-4.63 6.55-4.406 6.494-9.657 19.779-11.791 28.119a1.106 1.106 0 00.798 1.354 1.109 1.109 0 001.354-.798c2.05-7.987 7.264-21.207 11.476-27.414 1.197-1.762 2.774-3.961 4.592-6.503 4.574-6.383 10.27-14.315 14.983-22.311a1.107 1.107 0 00-.622-1.624l-4.156-1.308 6.327-1.828a1.09 1.09 0 00.705-.621c1.856-4.175 4.091-17.042 2.208-21.514a1.105 1.105 0 00-1.456-.612z" fill="#475658"/><path d="M227.42 84.44a1.113 1.113 0 00-1.41-.696c-8.34 2.857-16.782-3.424-20.465-7.58-2.904-3.284-4.221-6.726-5.78-12.31a1.11 1.11 0 00-1.373-.77 1.11 1.11 0 00-.77 1.373c1.642 5.918 3.062 9.574 6.253 13.192 2.106 2.384 5.65 5.38 9.908 7.254-4.694 1.253-10.91.789-15.317-3.182-3.905-3.506-5.445-9.796-7.579-18.498-.816-3.33-1.744-7.116-2.922-11.216-1.874-6.513-3.999-11.884-6.671-16.885 1.336.158 2.7.241 4.11.241.612 0 1.113-.5 1.113-1.113 0-.612-.501-1.113-1.113-1.113-4.063 0-7.737-.696-11.225-2.115-5.882-2.403-10.743-6.875-14.463-13.276a1.12 1.12 0 00-1.522-.408 1.12 1.12 0 00-.408 1.521c3.971 6.838 9.203 11.615 15.539 14.213a30.248 30.248 0 005.956 1.744c-.222.334-.269.77-.065 1.141 2.653 4.917 4.75 10.214 6.606 16.662 1.168 4.054 2.087 7.811 2.903 11.123 2.227 9.092 3.841 15.66 8.257 19.622 3.479 3.126 7.913 4.36 12.07 4.36 2.773 0 5.436-.548 7.598-1.457a.956.956 0 00.352-.241 17.48 17.48 0 001.837.408c-.38.112-.687.418-.779.826a65.444 65.444 0 01-2.885 10.047c-1.42 3.72-4.602 9.927-8.072 16.43a1.033 1.033 0 00-.417.176c-12.339 8.674-19.816 12.033-23.546 10.548-1.679-.668-2.755-2.393-3.367-5.408a1.118 1.118 0 00-.381-.613c2.236-8.108 5.613-17.988 9.213-23.211.009.065.028.14.037.204.074.399.148.798.232 1.225.102.528.575.89 1.094.89.075 0 .149-.009.223-.018a1.11 1.11 0 00.872-1.308c-.083-.409-.148-.798-.222-1.188-.325-1.772-.631-3.442-1.689-5.436-1.197-2.245-3.572-6.253-6.076-7.923a1.107 1.107 0 00-1.541.306 1.106 1.106 0 00.307 1.54c1.438.956 3.237 3.303 4.991 6.476-.353.157-.752.334-1.216.538-8.089 3.609-10.863 5.158-11.401 6.382-.251.566-.009 1.253.547 1.503.158.065.316.102.473.102.418 0 .798-.232.984-.64.417-.584 2.801-1.818 5.241-2.987-2.662 2.421-5.677 6.485-7.551 9.388a1.095 1.095 0 00-.102 1.002c.13.334.408.585.742.678l1.902.519-3.832 1.791a1.116 1.116 0 00-.612.742c-2.755 11.225-3.544 23.258-3.099 30.188.52 8.145 1.642 15.752 3.006 20.335a1.12 1.12 0 001.067.798 1.119 1.119 0 001.067-1.429c-1.318-4.434-2.412-11.847-2.922-19.834-.427-6.661.324-18.146 2.922-29.001l6.104-2.848a1.117 1.117 0 00-.176-2.087l-3.34-.909c2.023-2.978 4.713-6.364 6.837-8.136.474-.39.538-1.095.14-1.568a1.069 1.069 0 00-.594-.353c1.429-.658 2.737-1.243 3.516-1.595.482-.214.909-.408 1.28-.575.13.352.241.695.343 1.038a1.093 1.093 0 00-1.029.437c-6.197 8.488-11.309 28.944-12.376 35.039-1.225 6.986-.436 18.249-.019 24.307.14 2.013.26 3.71.371 5.186.269 3.71.427 5.955.511 8.052a1.114 1.114 0 001.113 1.076h.037a1.117 1.117 0 001.076-1.15c-.083-2.143-.241-4.397-.51-8.136-.102-1.475-.232-3.173-.371-5.186-.418-5.956-1.188-17.052-.019-23.768.288-1.624.789-3.952 1.466-6.67.872 2.18 2.162 3.599 3.924 4.295.817.325 1.735.492 2.765.492 4.295 0 10.539-2.914 19.807-9.166-.724 1.345-1.457 2.69-2.171 4.007-2.644 4.871-5.13 9.463-6.763 12.719-4.63 9.25-7.821 22.553-8.832 30.986a1.108 1.108 0 001.104 1.243c.557 0 1.039-.417 1.104-.983.993-8.257 4.11-21.245 8.618-30.253 1.605-3.219 4.092-7.802 6.726-12.654 4.936-9.101 10.521-19.408 12.58-24.826a68.617 68.617 0 002.987-10.4 1.11 1.11 0 00-.491-1.15 16.4 16.4 0 001.92.12c1.661 0 3.358-.25 5.056-.834.566-.167.872-.798.677-1.382z" fill="#475658"/></svg>