<svg width="80" height="80" viewBox="0 0 80 80" fill="none" xmlns="http://www.w3.org/2000/svg">
<rect width="80" height="80" rx="40" fill="#0CC689"/>
<g clip-path="url(#clip0_71_2632)">
<path d="M37.33 39.5H39.5C40.6935 39.5 41.8381 39.9741 42.682 40.818C43.5259 41.6619 44 42.8065 44 44H36.999L37 45H45V44C44.9968 42.936 44.6894 41.895 44.114 41H47C47.9453 40.9997 48.8712 41.2674 49.6705 41.772C50.4698 42.2767 51.1097 42.9975 51.516 43.851C49.151 46.972 45.322 49 41 49C38.239 49 35.9 48.41 34 47.375V38.071C35.2166 38.2453 36.3655 38.7383 37.33 39.5ZM33 47C33 47.2652 32.8946 47.5196 32.7071 47.7071C32.5196 47.8946 32.2652 48 32 48H30C29.7348 48 29.4804 47.8946 29.2929 47.7071C29.1054 47.5196 29 47.2652 29 47V38C29 37.7348 29.1054 37.4804 29.2929 37.2929C29.4804 37.1054 29.7348 37 30 37H32C32.2652 37 32.5196 37.1054 32.7071 37.2929C32.8946 37.4804 33 37.7348 33 38V47ZM46 33C46.7956 33 47.5587 33.3161 48.1213 33.8787C48.6839 34.4413 49 35.2044 49 36C49 36.7956 48.6839 37.5587 48.1213 38.1213C47.5587 38.6839 46.7956 39 46 39C45.2044 39 44.4413 38.6839 43.8787 38.1213C43.3161 37.5587 43 36.7956 43 36C43 35.2044 43.3161 34.4413 43.8787 33.8787C44.4413 33.3161 45.2044 33 46 33ZM39 30C39.7956 30 40.5587 30.3161 41.1213 30.8787C41.6839 31.4413 42 32.2044 42 33C42 33.7956 41.6839 34.5587 41.1213 35.1213C40.5587 35.6839 39.7956 36 39 36C38.2044 36 37.4413 35.6839 36.8787 35.1213C36.3161 34.5587 36 33.7956 36 33C36 32.2044 36.3161 31.4413 36.8787 30.8787C37.4413 30.3161 38.2044 30 39 30Z" fill="white"/>
</g>
<defs>
<clipPath id="clip0_71_2632">
<rect width="24" height="24" fill="white" transform="translate(28 28)"/>
</clipPath>
</defs>
</svg>
