<svg width="184" height="85" fill="none" xmlns="http://www.w3.org/2000/svg"><path d="M9.629 84.178c-2.355 0-4.22-.736-5.594-2.208-1.374-1.57-2.306-3.533-2.797-5.888a29.459 29.459 0 01-.588-7.213c.294-4.22 1.226-9.029 2.796-14.426 1.57-5.397 3.582-10.893 6.036-16.486 2.551-5.692 5.348-11.04 8.39-16.045 3.14-5.005 6.428-9.323 9.862-12.954 3.435-3.63 6.82-6.133 10.157-7.507 1.08-.49 2.012-.785 2.797-.883a9.128 9.128 0 012.208-.294c2.355 0 3.925 1.128 4.71 3.385.393.785.59 1.767.59 2.944 0 2.355-.786 5.103-2.356 8.243-1.374 2.846-3.337 6.085-5.888 9.716-2.551 3.532-5.446 7.163-8.685 10.892a333.048 333.048 0 01-9.568 10.599 386.525 386.525 0 01-8.979 8.979c-2.748 2.65-4.956 4.661-6.624 6.035-.589 3.239-.883 6.28-.883 9.127 0 3.042.49 5.691 1.472 7.948 1.08 2.258 2.846 3.386 5.299 3.386 2.355 0 4.661-.932 6.918-2.797 2.258-1.864 4.318-4.072 6.183-6.624 1.962-2.551 3.582-4.808 4.857-6.771.393-.392.638-.589.736-.589.295 0 .442.246.442.736 0 .393-.147.834-.442 1.325a89.107 89.107 0 01-5.888 8.096c-2.159 2.65-4.514 4.858-7.065 6.624-2.552 1.766-5.25 2.65-8.096 2.65zM6.685 58.565c2.159-1.963 4.955-4.76 8.39-8.39 3.533-3.631 7.164-7.655 10.893-12.071 3.827-4.416 7.31-8.734 10.451-12.954 3.14-4.317 5.447-8.145 6.919-11.481a22.132 22.132 0 001.472-3.827c.392-1.374.588-2.65.588-3.828 0-2.159-.785-3.238-2.355-3.238-2.159 0-5.054 1.717-8.685 5.152-4.023 3.73-7.9 8.488-11.628 14.278a128.52 128.52 0 00-9.863 18.106c-2.748 6.28-4.808 12.365-6.182 18.253zm30.657 25.024c-2.65 0-4.956-.638-6.919-1.914-1.963-1.374-2.944-3.778-2.944-7.213 0-2.159.54-4.514 1.62-7.065a41.31 41.31 0 014.12-7.655c1.767-2.551 3.68-4.66 5.742-6.33.49-.392 1.128-.588 1.913-.588 1.178-1.178 2.503-2.06 3.975-2.65 1.57-.588 3.042-.883 4.416-.883 2.453 0 4.71.785 6.77 2.355 2.16 1.57 3.24 4.073 3.24 7.508 0 1.962-.54 4.317-1.62 7.065-.981 2.552-2.502 5.201-4.563 7.949a31.489 31.489 0 01-7.213 6.771c-2.65 1.767-5.495 2.65-8.537 2.65zm-.148-1.767c2.16 0 4.367-.834 6.624-2.502 2.355-1.668 4.514-3.778 6.477-6.33 1.963-2.65 3.386-5.299 4.269-7.948.981-2.65 1.472-5.005 1.472-7.066 0-2.551-.687-4.367-2.06-5.446-1.375-1.178-2.896-1.767-4.564-1.767-2.65 0-4.956.883-6.919 2.65.982.589 1.08 1.177.295 1.766-1.374 1.178-2.944 2.797-4.71 4.858-1.669 2.06-2.994 3.974-3.975 5.74-.687 1.178-1.325 2.7-1.913 4.564-.491 1.864-.736 3.63-.736 5.299 0 1.668.392 3.14 1.177 4.416.883 1.178 2.404 1.766 4.563 1.766zm39.207 2.061c-1.668 0-2.993-.54-3.974-1.619-.883-1.178-1.325-2.551-1.325-4.122 0-1.472.343-2.894 1.03-4.268 1.08-2.257 2.454-4.465 4.122-6.624 1.766-2.257 3.386-4.22 4.858-5.888.981-1.276 1.472-2.356 1.472-3.239 0-1.177-.736-2.355-2.208-3.533-1.178-.785-2.257-1.815-3.239-3.09-.687-.982-1.177-1.964-1.472-2.945-1.57 3.239-3.582 7.017-6.035 11.335-2.355 4.22-4.808 7.998-7.36 11.334-.393.589-.785.883-1.178.883-.294 0-.441-.196-.441-.589 0-.196.049-.392.147-.588.098-.197.393-.638.883-1.325 2.552-3.533 4.612-6.82 6.183-9.863a163.54 163.54 0 004.121-8.537l3.239-7.213c.098-.196.196-.442.294-.736.196-.392.344-.638.442-.736.196-.196.392-.294.588-.294.393 0 .687.196.884.588.196.393.196.884 0 1.472-.197 1.08-.05 2.16.441 3.239.49 1.08 1.129 2.06 1.914 2.944.785.785 1.913 1.52 3.385 2.208a22.35 22.35 0 013.975 2.355c1.177.883 1.619 2.012 1.325 3.386-.393 1.864-1.423 3.68-3.092 5.446a143.544 143.544 0 00-5.004 5.594 55.946 55.946 0 00-3.239 3.827 17.042 17.042 0 00-2.06 3.974l-.295.883v.884c0 1.766.932 2.65 2.797 2.65.589 0 1.325-.148 2.208-.442 2.453-.884 4.71-2.356 6.771-4.416 2.159-2.061 3.974-4.122 5.446-6.183 1.57-2.06 2.601-3.484 3.092-4.269.785-1.177 1.275-1.766 1.472-1.766.294 0 .441.245.441.736 0 .49-.147.981-.441 1.472a70.223 70.223 0 01-7.36 9.715c-2.748 3.042-5.692 5.201-8.832 6.477-1.472.589-2.797.883-3.975.883zm28.986.295c-4.023 0-6.968-.884-8.832-2.65-1.865-1.865-2.797-4.318-2.797-7.36 0-.785.05-1.57.147-2.355l.59-2.65c.49-1.766 1.275-3.827 2.354-6.182a47.05 47.05 0 014.269-6.919c1.668-2.257 3.484-4.121 5.447-5.593 1.962-1.472 4.023-2.208 6.182-2.208 1.766 0 3.091.638 3.974 1.913.982 1.276 1.472 2.797 1.472 4.564 0 1.864-.588 3.778-1.766 5.74-1.079 1.865-2.551 3.386-4.416 4.564-2.159 1.472-4.612 2.208-7.36 2.208-1.766 0-3.386-.344-4.858-1.03-1.472 2.943-2.208 5.838-2.208 8.684 0 2.06.59 3.827 1.767 5.3 1.177 1.471 3.14 2.207 5.888 2.207 3.336 0 6.28-.785 8.832-2.355 2.551-1.668 4.906-3.827 7.065-6.477a97.37 97.37 0 006.477-8.537c.295-.295.491-.442.589-.442.294 0 .442.245.442.736 0 .49-.148.981-.442 1.472a75.214 75.214 0 01-6.035 8.096c-2.159 2.65-4.612 4.858-7.36 6.624s-5.888 2.65-9.421 2.65zm-2.208-18.99c2.551 0 4.956-.882 7.213-2.649a12.612 12.612 0 002.797-2.797c.785-1.08 1.324-2.158 1.619-3.238.294-1.08.441-2.012.441-2.797 0-2.257-.834-3.385-2.502-3.385-1.079 0-2.306.637-3.68 1.913-1.178 1.08-2.404 2.453-3.68 4.122a56.312 56.312 0 00-3.091 4.857c-.883 1.472-1.472 2.552-1.767 3.239.687.49 1.571.736 2.65.736zm60.623 19.284c-1.57 0-2.944-.638-4.121-1.914-1.178-1.275-1.767-3.287-1.767-6.035 0-2.06.393-4.367 1.178-6.918.883-2.65 2.012-5.3 3.386-7.949 1.373-2.65 2.796-5.005 4.268-7.066-1.962 1.08-4.317 2.797-7.065 5.152a82.421 82.421 0 00-7.655 7.802c-2.453 2.748-4.367 5.348-5.74 7.802-.491.883-1.325 1.52-2.503 1.913-1.079.295-1.521.245-1.325-.147.099-.098.491-.932 1.178-2.502a265.22 265.22 0 002.355-5.152c.785-1.767 1.276-2.944 1.472-3.533.785-1.963 1.325-3.582 1.619-4.858.393-1.374.589-2.404.589-3.091 0-1.08-.392-1.62-1.177-1.62-.884 0-2.159.688-3.828 2.062-1.57 1.275-3.14 2.747-4.71 4.416-1.472 1.57-2.551 2.796-3.238 3.68-.982 1.177-2.159 2.698-3.533 4.563a105.185 105.185 0 00-3.68 5.446c-1.08 1.865-1.816 3.533-2.208 5.005a13.64 13.64 0 01-.295 1.03l-.294.59c-.393.686-.932.637-1.619-.148-.785-.883-1.178-2.306-1.178-4.269 0-2.06.344-4.367 1.031-6.918.785-2.65 1.668-5.054 2.649-7.213a324.31 324.31 0 012.65-5.446c.883-1.57 1.472-2.552 1.766-2.944 1.08-1.374 2.208-2.503 3.386-3.386 1.177-.883 2.355-1.325 3.533-1.325.588 0 1.03.147 1.324.442.393.294.442.54.148.736-.785.392-1.816 1.472-3.092 3.238-1.275 1.669-2.6 3.631-3.974 5.888-.883 1.57-2.012 3.68-3.386 6.33-1.373 2.65-2.159 4.907-2.355 6.771 0 .785.196 1.129.589 1.03a189.632 189.632 0 013.386-5.446 81.219 81.219 0 013.974-5.152 81.732 81.732 0 015.005-5.446c1.864-1.963 3.68-3.582 5.446-4.858 1.865-1.374 3.337-2.012 4.416-1.914 1.276.099 2.159.491 2.65 1.178.49.687.736 1.521.736 2.502 0 1.57-.344 3.19-1.031 4.858a128.167 128.167 0 01-1.766 4.122l-.589 1.472c1.472-1.963 3.288-4.024 5.447-6.183 2.159-2.159 4.367-4.072 6.624-5.74 2.257-1.767 4.219-2.945 5.888-3.533.981-.393 1.913-.59 2.796-.59.884 0 1.325.295 1.325.884 0 .196-.245.687-.736 1.472a87.813 87.813 0 00-6.035 9.274c-1.766 3.14-2.944 6.673-3.533 10.598l-.294 1.766v1.472c0 1.57.245 2.944.736 4.122.49 1.08 1.374 1.62 2.649 1.62 1.865 0 3.779-.835 5.741-2.503 1.963-1.767 3.926-3.975 5.888-6.624a418.276 418.276 0 005.741-8.243c.196-.295.343-.442.442-.442.294 0 .441.245.441.736 0 .589-.245 1.276-.736 2.06a117.471 117.471 0 01-5.593 7.802c-1.963 2.65-4.073 4.858-6.33 6.624-2.257 1.767-4.612 2.65-7.066 2.65z" fill="#FD9800"/></svg>