<svg width="26" height="26" fill="none" xmlns="http://www.w3.org/2000/svg"><g id="email-2 1" fill="#828282"><path id="Vector" d="M14.765 15.38a3.173 3.173 0 01-3.53 0L2.578 9.61a3.151 3.151 0 01-.14-.1v9.456c0 1.084.88 1.945 1.944 1.945h17.236c1.084 0 1.945-.88 1.945-1.945V9.51a3.122 3.122 0 01-.141.1l-8.657 5.77z"/><path id="Vector_2" d="M3.265 8.58l8.656 5.77a1.942 1.942 0 002.158 0l8.656-5.77c.518-.346.828-.923.828-1.547a1.946 1.946 0 00-1.944-1.944H4.382a1.947 1.947 0 00-1.944 1.945c0 .623.309 1.2.827 1.545z"/></g></svg>