<svg width="110" height="106" fill="none" xmlns="http://www.w3.org/2000/svg"><path d="M3.973 105.239c-1.156 0-2.065-.661-2.725-1.982-.66-1.321-.991-2.89-.991-4.707 0-2.642.33-5.533.99-8.67.826-3.303 1.652-6.276 2.478-8.919.826-2.807 1.404-4.706 1.734-5.697 2.312-6.11 5.285-13.047 8.918-20.81 3.634-7.927 7.928-15.606 12.882-23.038 5.12-7.597 10.735-14.12 16.846-19.57C50.215 6.23 56.82 2.597 63.922.946a11.413 11.413 0 012.23-.248C66.977.533 67.72.45 68.381.45c2.642 0 4.79.578 6.44 1.734 1.652.991 2.726 2.312 3.221 3.964v.495c.165.166.248.413.248.744 0 .825-.248 1.238-.743 1.238-.826 0-1.322-.578-1.487-1.734-.165-.826-.908-1.404-2.23-1.734-1.32-.495-2.807-.743-4.458-.743-5.45 0-10.983 2.395-16.598 7.184-5.45 4.624-10.817 10.57-16.102 17.836a237.579 237.579 0 00-14.12 22.048c-4.13 7.597-7.515 14.368-10.158 20.314-.165.33-.66 1.568-1.486 3.715a295.842 295.842 0 00-2.23 7.68 92.478 92.478 0 00-1.981 8.67l6.688-9.909c3.799-5.615 8.423-11.23 13.873-16.845 5.45-5.78 11.395-10.487 17.836-14.12a9.679 9.679 0 011.982-.744c.826-.165 1.57-.247 2.23-.247 1.486 0 2.23.495 2.23 1.486 0 .33-.414 1.156-1.24 2.477-3.467 4.624-6.192 9.496-8.174 14.616-1.982 4.955-3.22 10.405-3.716 16.35-.165 3.633.165 7.019.99 10.157.992 3.138 3.056 4.707 6.194 4.707 3.468 0 6.854-1.487 10.157-4.46 3.468-3.137 6.606-6.688 9.413-10.652a564.91 564.91 0 007.68-10.9c.33-.495.578-.743.743-.743.495 0 .743.496.743 1.486 0 .991-.413 2.148-1.239 3.469a180.406 180.406 0 01-8.67 11.89c-2.973 3.964-6.193 7.267-9.661 9.91-3.468 2.642-7.267 3.963-11.396 3.963-4.128 0-7.101-1.569-8.918-4.706-1.816-3.138-2.725-6.937-2.725-11.396 0-4.79.743-9.909 2.23-15.359 1.651-5.45 3.55-9.992 5.697-13.625-4.294 3.138-8.753 7.102-13.377 11.89-4.624 4.625-8.588 9.58-11.89 14.865-1.157 2.146-2.808 4.871-4.955 8.174-2.147 3.138-3.386 5.78-3.716 7.928-.496 2.477-1.074 3.716-1.734 3.716zm95.512-72.584c-2.312 0-3.716-1.404-4.211-4.212-.165-1.32.66-2.642 2.477-3.963 1.816-1.322 3.303-2.23 4.459-2.725.826-.33 1.486-.578 1.982-.743.495-.166.908-.248 1.238-.248 1.156 0 1.734.578 1.734 1.734 0 1.321-.495 2.89-1.486 4.707l-1.239 2.725c-.165.66-.743 1.32-1.734 1.982a7.097 7.097 0 01-3.22.743zm-24.773 73.079c-2.972 0-5.12-.991-6.44-2.973-1.322-1.981-1.982-4.459-1.982-7.431 0-2.313.247-4.542.743-6.69l2.477-7.43c1.486-3.964 3.386-8.341 5.698-13.13 2.477-4.79 5.12-8.919 7.927-12.387 2.808-3.633 5.698-5.45 8.67-5.45 1.322 0 1.982.33 1.982.991 0 .66-.33 1.321-.99 1.982-3.304 3.964-6.442 8.67-9.414 14.12-2.808 5.285-5.203 10.322-7.184 15.112-1.817 4.79-2.89 8.423-3.22 10.9-.496 5.285 1.073 7.927 4.706 7.927h1.486c.496-.165 1.074-.33 1.734-.495 3.469-1.156 6.854-3.303 10.157-6.441a79.402 79.402 0 009.166-10.405c2.808-3.798 5.12-7.101 6.936-9.909.661-.66 1.074-.99 1.239-.99.496 0 .743.412.743 1.238 0 .826-.247 1.651-.743 2.477-3.633 5.615-7.927 11.148-12.882 16.598-4.79 5.45-9.578 9.083-14.368 10.9-2.477.991-4.624 1.486-6.44 1.486z" fill="#FD9800"/></svg>