<svg width="326" height="246" viewBox="0 0 326 246" fill="none" xmlns="http://www.w3.org/2000/svg">
<path d="M104.866 125.676C107.909 144.677 117.431 162.084 131.855 175.015C147.79 190.233 163.237 206.002 179.137 221.221C185.17 226.867 185.17 230.758 179.137 236.404C162.156 252.621 145.907 269.527 128.891 285.675C106.505 306.987 100.368 333.499 106.331 361.973C111.701 387.761 128.577 406.733 153.683 416.476C187.262 429.595 217.249 422.949 242.913 397.815C249.294 391.583 255.745 385.454 262.126 379.257C262.753 378.396 263.559 377.678 264.489 377.149C265.42 376.619 266.454 376.292 267.522 376.187C268.591 376.083 269.67 376.205 270.687 376.544C271.705 376.883 272.637 377.433 273.423 378.155C279.533 382.944 286.294 386.862 293.508 389.793C297.587 391.17 297.727 394.131 294.763 397.058C270.878 420.953 248.771 447.154 212.96 454.97C169.235 464.473 120.174 451.527 90.9188 411.691C76.3213 392.376 68.3558 368.961 68.1842 344.861C67.7658 311.05 80.6324 282.886 104.448 259.198C112.363 251.347 120.139 243.36 128.508 236.026C134.679 230.655 134.017 227.143 128.298 221.737C116.931 211.064 105.11 200.666 97.23 186.859C87.4667 169.644 85.4444 152.669 95.4169 135.213C97.266 130.991 100.632 127.594 104.866 125.676Z" fill="white" fill-opacity="0.1"/>
<path d="M350.971 389.827C310.802 390.619 281.233 373.954 256.267 347.994C250.374 341.9 243.993 336.253 238.519 329.814C233.567 324.03 229.941 325.097 225.338 330.055C216.104 340.723 205.695 350.343 194.305 358.736C174.15 372.508 151.241 373.094 132.726 360.63C130.46 359.08 127.844 357.565 128.402 355.052C128.96 352.539 132.342 353.571 134.47 353.089C149.444 349.801 163.124 342.275 173.837 331.433C190.922 314.493 208.148 297.69 224.955 280.475C230.08 275.242 233.393 275.138 238.902 280.475C258.254 299.86 276.63 320.38 298.18 337.492C308.218 345.611 320.101 351.203 332.81 353.789C345.518 356.375 358.673 355.878 371.144 352.34C383.615 348.801 395.03 342.328 404.411 333.475C413.791 324.622 420.855 313.654 424.998 301.512C435.703 271.592 428.903 243.531 406.483 219.981C399.509 212.75 392.256 205.899 385.143 198.875C381.656 195.432 380.505 191.989 384.55 187.444C388.723 182.215 392.236 176.503 395.011 170.435C397.556 165.339 399.892 163.205 404.6 168.197C419.733 184.207 438.004 197.67 448.883 217.089C461.715 239.985 468.026 264.121 463.668 291.114C455.892 339.111 427.892 369.237 382.911 385.454C372.703 389.146 361.812 390.637 350.971 389.827Z" fill="white" fill-opacity="0.1"/>
<path d="M279.42 34.606C258.673 35.9488 239.321 41.8363 223.909 57.3301C216.935 64.4228 209.508 71.1024 202.534 78.2639C198.454 82.43 195.246 83.2909 190.051 79.2626C184.059 75.0045 177.659 71.3371 170.943 68.3135C166.863 66.2821 165.329 64.6295 169.129 60.911C184.158 46.3124 197.582 29.9234 215.47 18.3891C231.371 7.97701 249.748 1.84147 268.785 0.588559C319.694 -2.8545 357.457 17.253 382.493 60.67C389.799 73.6718 394.153 88.0871 395.255 102.916C399.09 144.508 383.364 177.665 352.994 205.278C346.264 211.407 340.127 218.19 333.432 224.318C329.945 227.761 329.666 229.793 333.432 233.202C340.162 239.365 346.508 245.941 352.854 252.483C367.394 267.46 376.809 284.331 374.438 306.091C373.097 314.266 369.85 322.022 364.954 328.746C364.082 330.089 363.419 332.19 361.188 331.639C358.956 331.088 358.921 329.229 358.538 327.576C357.01 320.607 354.67 313.836 351.564 307.399C342.951 290.184 327.679 279.029 314.673 265.773C304.491 255.375 294.03 245.229 283.29 235.336C278.234 230.723 278.374 227.486 283.29 222.838C300.341 206.518 317.044 189.888 333.851 173.361C372.032 135.797 368.998 81.3627 326.249 49.4111C312.929 39.4262 296.785 35.3635 279.42 34.606Z" fill="white" fill-opacity="0.1"/>
<path d="M0.015373 187.961C-0.821482 130.634 32.5831 86.5978 81.9227 72.4813C126.729 59.6731 167.177 70.381 200.861 103.021C209.648 111.526 218.574 119.858 226.873 128.775C230.953 133.148 233.568 132.425 237.334 128.775C246.958 119.479 255.814 109.322 266.763 101.231C289.044 85.0484 313.801 83.74 332.7 97.7877C334.235 98.9239 336.641 99.6469 336.187 102.126C336.187 102.883 334.548 103.71 333.572 103.847C310.593 107.291 294.554 121.373 279.386 137.28C266.519 150.776 252.502 163.24 239.74 176.84C233.638 183.313 229.976 181.833 224.572 176.393C207.904 159.556 190.644 143.305 173.977 126.468C164.794 117.09 153.421 110.08 140.856 106.051C128.291 102.023 114.917 101.1 101.906 103.364C88.8954 105.627 76.6458 111.008 66.2314 119.034C55.817 127.06 47.5557 137.487 42.172 149.399C28.4336 178.355 33.1758 210.72 57.2703 236.405C64.2441 243.911 71.6363 251.279 79.2377 258.269C83.2476 261.987 84.3286 264.535 80.493 269.424C76.0253 275.659 72.1057 282.259 68.777 289.153C66.7546 292.94 64.8717 293.767 61.8032 290.599C40.0798 269.08 15.567 249.799 5.80364 219.052C2.47515 208.991 0.528369 198.534 0.015373 187.961Z" fill="white" fill-opacity="0.1"/>
</svg>
