<svg width="181" height="34" viewBox="0 0 181 34" fill="none" xmlns="http://www.w3.org/2000/svg">
<g clip-path="url(#clip0_206_1838)">
<path d="M174.452 18.5135C174.929 17.8967 174.983 17.2044 175.209 16.5853C175.684 15.2807 176.108 13.9538 176.522 12.6336C176.971 11.2157 177.466 9.80456 177.89 8.37785C178.142 7.53025 178.128 7.52803 178.991 7.52803C179.515 7.52803 180.038 7.54578 180.564 7.52803C180.946 7.51028 181.014 7.6545 180.906 7.98511C180.065 10.3349 179.218 12.6824 178.389 15.0366C177.762 16.8228 177.176 18.62 176.537 20.4018C176.313 21.0075 176.072 21.6044 175.888 22.2256C175.859 22.3677 175.79 22.499 175.69 22.6051C175.088 23.0999 174.374 22.716 173.715 22.8269C173.416 22.878 173.279 22.6516 173.198 22.4187C172.708 20.9986 172.23 19.5719 171.738 18.1518C171.342 17.0091 170.931 15.8709 170.531 14.7282C170.279 14.0026 170.034 13.2748 169.783 12.5493C169.749 12.4539 169.767 12.3118 169.614 12.2985C169.461 12.2852 169.389 12.425 169.358 12.5448C168.92 13.8029 168.491 15.061 168.052 16.3169C167.551 17.748 167.043 19.1747 166.547 20.6081C166.363 21.1406 166.187 21.6776 166.028 22.219C165.904 22.6361 165.693 22.8846 165.196 22.838C164.843 22.7948 164.486 22.7948 164.134 22.838C163.608 22.9113 163.39 22.6161 163.248 22.2123C162.012 18.6947 160.78 15.1771 159.552 11.6595C159.102 10.3992 158.653 9.1389 158.203 7.88748C158.127 7.66559 158.156 7.5369 158.428 7.53912C159.194 7.53912 159.963 7.53912 160.729 7.53912C161.015 7.53912 161.113 7.69888 161.179 7.92964C161.853 10.0375 162.527 12.1447 163.201 14.2511C163.623 15.5491 164.066 16.8427 164.502 18.1363C164.531 18.2273 164.502 18.3848 164.673 18.3582C164.803 18.3404 164.846 18.2251 164.882 18.1208C165.255 17.0114 165.629 15.9019 166.005 14.7925C166.423 13.5411 166.861 12.2963 167.277 11.0449C167.596 10.0841 167.972 9.1367 168.219 8.1604C168.338 7.68779 168.549 7.44593 169.059 7.53247C169.134 7.53913 169.209 7.53913 169.284 7.53247C170.857 7.53247 170.805 7.54356 171.275 9.01021C172.034 11.3888 172.848 13.7497 173.645 16.1105C173.929 16.876 174.174 17.6593 174.452 18.5135Z" fill="white"/>
<path d="M148.775 22.9022C144.244 23.0087 140.811 19.3897 140.804 15.1362C140.802 14.0937 141.009 13.0612 141.415 12.0988C141.821 11.1365 142.417 10.2635 143.168 9.53095C143.919 8.79837 144.811 8.22079 145.79 7.83192C146.77 7.44305 147.818 7.25066 148.873 7.26598C153.464 7.28595 156.857 10.8161 156.848 15.1007C156.854 16.1411 156.647 17.172 156.241 18.132C155.835 19.0921 155.237 19.9618 154.484 20.6895C153.731 21.4171 152.838 21.988 151.857 22.3681C150.876 22.7482 149.828 22.9298 148.775 22.9022V22.9022ZM143.703 15.0519C143.703 15.4003 143.687 15.7508 143.703 16.1014C143.744 16.3887 143.824 16.6693 143.941 16.9357C144.343 18.1449 145.188 19.162 146.311 19.7876C147.433 20.4132 148.752 20.6021 150.008 20.3172C152.426 19.7714 153.754 17.7167 153.983 15.7597C154.111 14.6364 153.895 13.5011 153.363 12.5002C152.839 11.4596 151.966 10.63 150.893 10.1519C149.82 9.67386 148.613 9.57675 147.476 9.87705C146.339 10.1773 145.342 10.8566 144.654 11.7997C143.966 12.7428 143.629 13.8917 143.701 15.0519H143.703Z" fill="white"/>
<path d="M114.556 15.1051C114.556 12.7643 114.556 10.4234 114.556 8.08027C114.556 7.66757 114.639 7.51226 115.104 7.51669C118.55 7.53592 121.995 7.53592 125.441 7.51669C125.904 7.51669 126.016 7.66092 125.985 8.07807C125.95 8.52116 125.95 8.96628 125.985 9.40937C126.018 9.83317 125.892 9.97295 125.434 9.96851C122.946 9.94632 120.459 9.95742 117.971 9.96851C117.232 9.96851 117.232 9.96851 117.23 10.6941C117.23 11.6349 117.257 12.5757 117.23 13.5142C117.212 13.958 117.374 14.0734 117.801 14.0711C119.989 14.0556 122.178 14.0712 124.367 14.0534C124.899 14.0534 125.068 14.2353 125.041 14.7191C125.018 15.1248 125.018 15.5315 125.041 15.9372C125.063 16.381 124.852 16.5518 124.403 16.5496C122.252 16.5496 120.102 16.5496 117.949 16.5318C117.385 16.5318 117.219 16.6827 117.234 17.2507C117.277 18.855 117.223 20.4592 117.264 22.0634C117.264 22.5937 117.097 22.7291 116.605 22.6803C116.12 22.6425 115.632 22.6425 115.147 22.6803C114.697 22.7135 114.578 22.576 114.583 22.1366C114.556 19.7891 114.556 17.4482 114.556 15.1051Z" fill="white"/>
<path d="M7.33351 8.44873C7.52961 9.67326 8.1432 10.795 9.07276 11.6283C10.0997 12.6091 11.0952 13.6253 12.1198 14.606C12.5086 14.9699 12.5086 15.2206 12.1198 15.5845C11.0255 16.6296 9.97835 17.719 8.88176 18.7597C7.43913 20.1331 7.04364 21.8417 7.42789 23.6766C7.77395 25.3386 8.86154 26.5611 10.4794 27.1891C12.6434 28.0344 14.5759 27.6062 16.2298 25.9865C16.641 25.5848 17.0567 25.1899 17.4679 24.7905C17.5083 24.735 17.5603 24.6887 17.6202 24.6546C17.6802 24.6205 17.7468 24.5994 17.8157 24.5927C17.8846 24.586 17.9541 24.5938 18.0197 24.6157C18.0852 24.6375 18.1453 24.6729 18.196 24.7195C18.5897 25.0281 19.0254 25.2806 19.4903 25.4695C19.7532 25.5582 19.7622 25.749 19.5712 25.9376C18.0319 27.4775 16.6073 29.1661 14.2995 29.6697C11.4816 30.2821 8.31999 29.4479 6.43467 26.8807C5.49396 25.6359 4.98063 24.127 4.96957 22.5739C4.94261 20.395 5.77178 18.58 7.30655 17.0534C7.81664 16.5475 8.31774 16.0327 8.85704 15.5601C9.25478 15.214 9.21208 14.9877 8.84356 14.6393C8.11101 13.9515 7.34924 13.2814 6.8414 12.3916C6.21221 11.2822 6.08188 10.1883 6.72455 9.06335C6.84372 8.79126 7.06063 8.57233 7.33351 8.44873V8.44873Z" fill="#FDB604"/>
<path d="M23.1935 25.4718C20.6048 25.5229 18.6993 24.449 17.0903 22.776C16.7106 22.3832 16.2994 22.0193 15.9466 21.6044C15.6275 21.2316 15.3938 21.3004 15.0972 21.6199C14.5021 22.3074 13.8313 22.9274 13.0973 23.4682C11.7984 24.3558 10.3221 24.3935 9.12888 23.5903C8.98282 23.4904 8.81429 23.3928 8.85024 23.2308C8.8862 23.0688 9.10416 23.1354 9.24124 23.1043C10.2063 22.8924 11.0878 22.4074 11.7782 21.7087C12.8793 20.617 13.9894 19.5342 15.0725 18.4248C15.4028 18.0875 15.6162 18.0809 15.9713 18.4248C17.2184 19.674 18.4026 20.9964 19.7914 22.0992C20.4383 22.6224 21.2041 22.9828 22.0231 23.1494C22.8421 23.3161 23.6898 23.284 24.4935 23.056C25.2971 22.828 26.0328 22.4108 26.6373 21.8403C27.2418 21.2698 27.6971 20.563 27.964 19.7805C28.6539 17.8523 28.2157 16.044 26.7708 14.5263C26.3214 14.0603 25.854 13.6188 25.3956 13.1662C25.1709 12.9443 25.0967 12.7224 25.3574 12.4295C25.6264 12.0925 25.8527 11.7244 26.0315 11.3334C26.1956 11.005 26.3461 10.8674 26.6495 11.1892C27.6247 12.2209 28.8022 13.0885 29.5033 14.3399C30.3302 15.8154 30.7369 17.3709 30.4561 19.1104C29.955 22.2035 28.1505 24.145 25.2518 25.1901C24.5939 25.428 23.8921 25.5241 23.1935 25.4718V25.4718Z" fill="white"/>
<path d="M18.5824 2.57983C17.2454 2.66637 15.9983 3.04578 15.0051 4.04426C14.5556 4.50134 14.077 4.9318 13.6276 5.39332C13.3647 5.6618 13.1579 5.71728 12.8231 5.45768C12.437 5.18327 12.0246 4.94693 11.5917 4.75207C11.3288 4.62116 11.2299 4.51467 11.4749 4.27503C12.4434 3.33424 13.3085 2.27807 14.4613 1.53475C15.486 0.863757 16.6702 0.468359 17.8971 0.387617C21.1778 0.165733 23.6114 1.46154 25.2248 4.2595C25.6957 5.09739 25.9763 6.02637 26.0473 6.98202C26.2945 9.66238 25.281 11.7991 23.3238 13.5786C22.8901 13.9736 22.4946 14.4107 22.0632 14.8056C21.8385 15.0275 21.8205 15.1584 22.0632 15.3781C22.4969 15.7753 22.9058 16.1991 23.3148 16.6207C24.2519 17.5859 24.8586 18.6731 24.7058 20.0754C24.6194 20.6023 24.4101 21.1021 24.0946 21.5354C24.0384 21.6219 23.9957 21.7573 23.8519 21.7218C23.7081 21.6863 23.7058 21.5665 23.6811 21.46C23.5827 21.0109 23.4319 20.5745 23.2317 20.1597C22.6766 19.0503 21.6924 18.3314 20.8543 17.4771C20.1981 16.807 19.524 16.1532 18.8319 15.5157C18.506 15.2184 18.515 15.0098 18.8319 14.7102C19.9307 13.6585 21.0071 12.5868 22.0902 11.5218C24.5507 9.10101 24.3552 5.59302 21.6003 3.53393C20.7419 2.89047 19.7015 2.62865 18.5824 2.57983Z" fill="#FDB604"/>
<path d="M0.576491 12.4624C0.522561 8.76803 2.67528 5.93014 5.85492 5.02042C8.74244 4.19501 11.3491 4.88507 13.5198 6.98853C14.086 7.53658 14.6613 8.07354 15.1961 8.64822C15.459 8.93001 15.6275 8.88341 15.8702 8.64822C16.4904 8.04913 17.0612 7.39457 17.7668 6.87314C19.2027 5.83029 20.7981 5.74597 22.016 6.65126C22.1149 6.72448 22.2699 6.77108 22.2407 6.93084C22.2407 6.97965 22.1351 7.0329 22.0722 7.04178C20.5914 7.26366 19.5577 8.17117 18.5802 9.19628C17.751 10.0661 16.8477 10.8693 16.0253 11.7457C15.632 12.1629 15.3961 12.0675 15.0478 11.7169C13.9737 10.6319 12.8614 9.58457 11.7872 8.49956C11.1955 7.89518 10.4626 7.4434 9.65282 7.1838C8.84306 6.9242 7.98117 6.86473 7.14272 7.0106C6.30427 7.15647 5.51486 7.50322 4.84371 8.02046C4.17257 8.53769 3.64018 9.20962 3.29323 9.97731C2.40787 11.8434 2.71348 13.9291 4.26622 15.5843C4.71564 16.068 5.19202 16.5429 5.68189 16.9933C5.9403 17.2329 6.00997 17.3971 5.76279 17.7122C5.47487 18.114 5.22227 18.5393 5.00776 18.9836C4.87743 19.2277 4.75609 19.2809 4.55834 19.0768C3.1584 17.69 1.5787 16.4475 0.94951 14.466C0.735009 13.8176 0.609551 13.1437 0.576491 12.4624V12.4624Z" fill="white"/>
<path d="M128.584 15.1166C128.584 12.7757 128.598 10.4348 128.584 8.09395C128.584 7.62134 128.728 7.486 129.187 7.51928C129.691 7.55922 130.197 7.55922 130.701 7.51928C131.189 7.47712 131.283 7.67238 131.281 8.11393C131.265 11.886 131.281 15.6358 131.281 19.3967C131.281 20.2377 131.281 20.2377 132.112 20.2377C134.339 20.2377 136.564 20.2488 138.789 20.2377C139.22 20.2377 139.397 20.3353 139.362 20.788C139.33 21.2845 139.33 21.7825 139.362 22.279C139.377 22.6008 139.254 22.6806 138.944 22.6806C135.652 22.6806 132.36 22.6673 129.068 22.6806C128.618 22.6806 128.602 22.4831 128.602 22.1459C128.589 19.8006 128.584 17.4597 128.584 15.1166Z" fill="white"/>
<path d="M67.8589 15.1141C67.9061 11.9877 69.2297 9.58252 72.0633 8.08258C73.4924 7.32817 75.0204 7.19505 76.6428 7.38143C77.6702 7.48087 78.6629 7.80213 79.5506 8.32245C80.4383 8.84277 81.1993 9.54944 81.7797 10.3924C84.4987 14.1644 83.4852 19.8913 78.9394 22.19C77.4656 22.9243 75.7848 23.1486 74.1665 22.8268C71.2948 22.292 69.3061 20.6368 68.2994 17.8721C67.9868 16.9862 67.8376 16.052 67.8589 15.1141ZM75.5732 21.8305C76.7246 21.8952 77.8672 21.5994 78.8382 20.9852C80.6921 19.8757 81.6876 18.2205 81.964 16.1037C82.2316 14.3776 81.8339 12.6152 80.8494 11.1646C79.6472 9.38948 77.9776 8.46645 75.8114 8.36882C74.1373 8.29338 72.6228 8.70829 71.3846 9.81327C69.4274 11.5617 68.7578 13.7717 69.1533 16.3322C69.6139 19.2811 72.1194 21.9348 75.5732 21.8305V21.8305Z" fill="white"/>
<path d="M65.531 22.554C64.5108 22.8114 63.8951 22.6361 63.3423 21.8706C62.066 20.0955 60.6795 18.4136 59.3448 16.6896C59.2721 16.5855 59.173 16.5021 59.0575 16.4476C58.942 16.3931 58.814 16.3694 58.6864 16.3789C57.3201 16.3923 55.9561 16.3967 54.5899 16.3789C54.1944 16.3789 54.0843 16.5032 54.0888 16.8848C54.1068 18.6599 54.0888 20.435 54.109 22.1945C54.109 22.6716 53.8843 22.6827 53.5383 22.6738C53.1922 22.6649 52.954 22.7004 52.9563 22.2078C52.9772 17.4743 52.9772 12.7349 52.9563 7.98951C52.9563 7.62784 53.0574 7.51912 53.4281 7.52133C55.6348 7.5413 57.8459 7.46364 60.0481 7.56349C61.8008 7.64337 63.4187 8.22914 64.349 9.83336C65.4726 11.7704 64.9805 14.6349 62.2435 15.7155C61.8163 15.8967 61.3723 16.0364 60.9177 16.1327C60.4683 16.2148 60.502 16.3213 60.7469 16.6297C62.212 18.4802 63.6682 20.3485 65.1175 22.2034C65.2119 22.3143 65.2366 22.4808 65.531 22.554ZM54.109 11.9723C54.109 12.9109 54.1337 13.8517 54.0978 14.7903C54.0798 15.234 54.2416 15.3583 54.6685 15.3516C56.2752 15.3339 57.8819 15.3516 59.4908 15.3516C60.2762 15.3607 61.0543 15.2018 61.7716 14.8857C62.5316 14.5673 63.1403 13.9752 63.4742 13.2297C63.8081 12.4842 63.8421 11.6411 63.5693 10.8718C63.0614 9.37184 61.5581 8.72616 60.1537 8.65294C58.2909 8.55975 56.419 8.63075 54.5495 8.61522C54.2146 8.61522 54.1 8.70398 54.1 9.05899C54.109 10.0175 54.109 10.996 54.109 11.9723Z" fill="white"/>
<path d="M92.1479 22.8957C89.917 22.9356 87.7491 22.1649 86.056 20.7301C85.6605 20.4062 85.9504 20.2397 86.1144 20.0267C86.2784 19.8137 86.4604 19.5231 86.8177 19.8448C87.6199 20.5615 88.5076 21.1761 89.5547 21.4623C91.3344 21.9482 93.1208 22.1546 94.7545 20.9897C95.6174 20.3773 95.9162 19.5075 95.8421 18.4869C95.7657 17.4174 95.0938 16.7961 94.1747 16.3812C93.2197 15.9529 92.1928 15.7555 91.1749 15.5336C89.9929 15.2762 88.8446 14.9389 87.8244 14.2577C85.9189 12.9841 85.8605 10.1152 87.5818 8.63077C89.1412 7.28394 90.9816 7.1042 92.9568 7.457C94.1221 7.69452 95.2243 8.16991 96.1926 8.85266C96.4645 9.03016 96.6128 9.23651 96.3275 9.48058C96.1027 9.67362 96.0241 10.2283 95.487 9.80009C94.7934 9.23623 93.9874 8.82261 93.1214 8.586C92.2555 8.34939 91.3489 8.29509 90.4603 8.42663C88.8469 8.64851 87.3143 9.65366 87.5795 11.7394C87.7233 12.8665 88.53 13.3968 89.4626 13.8051C90.4828 14.2489 91.5838 14.4219 92.6624 14.6771C93.5827 14.891 94.4699 15.2253 95.3005 15.6711C97.6937 16.9603 97.469 20.4905 95.4331 21.8528C94.332 22.5917 93.1276 22.9356 92.1479 22.8957Z" fill="white"/>
<path d="M106.017 22.898C103.84 22.9148 101.73 22.1544 100.076 20.7568C99.779 20.5128 99.7857 20.3308 100.044 20.0912C100.269 19.8848 100.392 19.4677 100.819 19.856C101.588 20.6015 102.527 21.1546 103.556 21.4691C105.354 21.9617 107.152 22.1347 108.801 20.9543C110.165 19.9736 110.439 17.2688 108.127 16.3569C106.887 15.8687 105.579 15.6779 104.307 15.3273C103.248 15.0322 102.21 14.6883 101.404 13.9073C99.8644 12.414 100.024 9.75583 101.745 8.47112C103.318 7.30401 105.073 7.10875 106.963 7.46155C108.113 7.68596 109.199 8.15877 110.143 8.8461C110.381 9.01251 110.646 9.19225 110.336 9.46517C110.111 9.66486 110.03 10.2462 109.455 9.78689C108.768 9.22739 107.969 8.81743 107.111 8.58381C106.252 8.35018 105.353 8.29817 104.473 8.43118C102.714 8.66416 101.195 9.79798 101.608 11.9369C101.804 12.9487 102.579 13.4524 103.442 13.7963C104.519 14.2027 105.633 14.5102 106.767 14.7149C107.912 14.9007 108.987 15.3805 109.884 16.1062C111.666 17.6327 111.338 20.6348 109.233 21.9927C108.274 22.6004 107.156 22.9153 106.017 22.898V22.898Z" fill="white"/>
<path d="M43.8016 22.9021C40.4804 23.0374 37.7142 20.8452 36.6783 18.2425C35.3682 14.9364 36.2783 10.9425 39.1726 8.79022C41.15 7.328 43.3432 6.99961 45.7273 7.48554C47.1745 7.78064 48.3474 8.52617 49.453 9.43811C49.7496 9.68219 49.6575 9.802 49.453 10.035C49.098 10.441 48.8373 10.5187 48.3856 10.1016C46.7205 8.54837 44.6734 8.04691 42.4893 8.45074C40.177 8.87898 38.5591 10.2946 37.7838 12.4957C36.8356 15.1938 37.2041 17.7277 39.1726 19.9C39.6969 20.4774 40.3327 20.9458 41.0427 21.2776C41.7526 21.6095 42.5225 21.7982 43.3072 21.8326C45.361 21.979 47.0778 21.2934 48.5744 19.9643C49.0418 19.5472 49.3317 19.576 49.653 20.1041C49.7541 20.2661 49.7137 20.3814 49.5609 20.5235C48.4575 21.5463 47.2396 22.3362 45.7408 22.6979C45.1029 22.8299 44.4533 22.8983 43.8016 22.9021Z" fill="white"/>
</g>
<defs>
<clipPath id="clip0_206_1838">
<rect width="180.379" height="33.2738" fill="white" transform="translate(0.576477 0.363281)"/>
</clipPath>
</defs>
</svg>
