<svg width="401" height="423" viewBox="0 0 401 423" fill="none" xmlns="http://www.w3.org/2000/svg">
<path d="M104.868 90.3152C107.911 109.317 117.432 126.723 131.856 139.654C147.792 154.873 163.239 170.642 179.139 185.86C185.171 191.507 185.171 195.397 179.139 201.044C162.158 217.261 145.909 234.166 128.893 250.314C106.507 271.627 100.37 298.138 106.332 326.612C111.702 352.401 128.579 371.372 153.684 381.116C187.263 394.234 217.251 387.589 242.914 362.455C249.295 356.223 255.746 350.094 262.127 343.896C262.754 343.036 263.56 342.317 264.491 341.788C265.421 341.259 266.455 340.931 267.524 340.827C268.593 340.723 269.671 340.844 270.689 341.183C271.706 341.523 272.639 342.072 273.425 342.795C279.534 347.584 286.295 351.501 293.509 354.432C297.589 355.809 297.728 358.771 294.764 361.697C270.879 385.592 248.772 411.794 212.962 419.609C169.236 429.112 120.175 416.166 90.9202 376.33C76.3228 357.015 68.3573 333.6 68.1857 309.5C67.7672 275.689 80.6339 247.525 104.449 223.837C112.365 215.987 120.14 207.999 128.509 200.665C134.681 195.294 134.018 191.782 128.3 186.376C116.932 175.703 105.112 165.305 97.2315 151.498C87.4682 134.283 85.4458 117.309 95.4184 99.8525C97.2675 95.6304 100.633 92.2331 104.868 90.3152Z" fill="white" fill-opacity="0.1"/>
<path d="M350.973 354.466C310.804 355.258 281.235 338.594 256.269 312.633C250.376 306.539 243.995 300.892 238.521 294.454C233.569 288.669 229.943 289.737 225.34 294.695C216.106 305.363 205.697 314.982 194.307 323.375C174.152 337.148 151.243 337.733 132.728 325.269C130.462 323.72 127.846 322.205 128.404 319.691C128.962 317.178 132.344 318.211 134.471 317.729C149.446 314.44 163.126 306.915 173.839 296.072C190.924 279.132 208.15 262.33 224.957 245.115C230.082 239.881 233.395 239.778 238.904 245.115C258.256 264.499 276.632 285.02 298.181 302.132C308.22 310.25 320.103 315.843 332.812 318.429C345.52 321.015 358.675 320.517 371.146 316.979C383.617 313.441 395.032 306.968 404.413 298.115C413.793 289.262 420.857 278.294 425 266.152C435.705 236.232 428.905 208.171 406.485 184.62C399.511 177.39 392.258 170.538 385.145 163.514C381.658 160.071 380.507 156.628 384.552 152.083C388.725 146.854 392.238 141.143 395.013 135.075C397.558 129.979 399.894 127.844 404.602 132.837C419.735 148.847 438.006 162.309 448.885 181.728C461.717 204.624 468.028 228.76 463.67 255.754C455.894 303.75 427.894 333.877 382.913 350.094C372.705 353.786 361.814 355.277 350.973 354.466Z" fill="white" fill-opacity="0.1"/>
<path d="M279.419 -0.75436C258.671 0.588432 239.319 6.47598 223.907 21.9697C216.933 29.0624 209.506 35.742 202.532 42.9036C198.453 47.0697 195.245 47.9306 190.049 43.9022C184.058 39.6442 177.658 35.9768 170.941 32.9531C166.861 30.9217 165.327 29.2692 169.128 25.5507C184.156 10.9521 197.581 -5.437 215.469 -16.9712C231.37 -27.3833 249.746 -33.5189 268.784 -34.7718C319.692 -38.2149 357.455 -18.1073 382.491 25.3096C389.797 38.3114 394.152 52.7268 395.253 67.556C399.089 109.148 383.363 142.305 352.992 169.918C346.262 176.047 340.125 182.829 333.431 188.958C329.944 192.401 329.665 194.433 333.431 197.841C340.16 204.004 346.506 210.581 352.853 217.122C367.393 232.1 376.808 248.971 374.436 270.731C373.096 278.906 369.849 286.662 364.952 293.386C364.08 294.729 363.418 296.829 361.186 296.278C358.955 295.727 358.92 293.868 358.536 292.216C357.009 285.247 354.669 278.476 351.562 272.039C342.95 254.824 327.677 243.668 314.671 230.413C304.489 220.015 294.029 209.869 283.289 199.976C278.233 195.362 278.372 192.126 283.289 187.478C300.34 171.157 317.042 154.528 333.849 138.001C372.031 100.437 368.997 46.0023 326.248 14.0507C312.928 4.06588 296.783 0.00310898 279.419 -0.75436Z" fill="white" fill-opacity="0.1"/>
<path d="M0.015373 152.601C-0.821482 95.2738 32.5831 51.2372 81.9227 37.1207C126.729 24.3125 167.177 35.0204 200.861 67.6606C209.648 76.1649 218.574 84.4971 226.873 93.4146C230.953 97.7873 233.568 97.0642 237.334 93.4146C246.958 84.1183 255.814 73.9613 266.763 65.8701C289.044 49.6878 313.801 48.3794 332.7 62.4271C334.235 63.5633 336.641 64.2864 336.187 66.7654C336.187 67.5228 334.548 68.3492 333.572 68.4869C310.593 71.9299 294.554 86.0121 279.386 101.919C266.519 115.416 252.502 127.88 239.74 141.48C233.638 147.953 229.976 146.472 224.572 141.032C207.904 124.196 190.644 107.944 173.977 91.1078C164.794 81.7295 153.421 74.7189 140.856 70.6907C128.291 66.6625 114.917 65.7396 101.906 68.0031C88.8954 70.2666 76.6458 75.6473 66.2314 83.6734C55.817 91.6995 47.5557 102.126 42.172 114.039C28.4336 142.995 33.1758 175.359 57.2703 201.045C64.2441 208.55 71.6363 215.919 79.2377 222.908C83.2476 226.627 84.3286 229.174 80.493 234.064C76.0253 240.298 72.1057 246.898 68.777 253.792C66.7546 257.58 64.8717 258.406 61.8032 255.238C40.0798 233.719 15.567 214.438 5.80364 183.692C2.47515 173.63 0.528369 163.173 0.015373 152.601Z" fill="white" fill-opacity="0.1"/>
</svg>
