<svg width="76" height="76" viewBox="0 0 76 76" fill="none" xmlns="http://www.w3.org/2000/svg">
<rect y="0.609375" width="75.3827" height="75.3827" fill="#ED863C"/>
<g clip-path="url(#clip0_9_640)">
<path d="M58.1897 37.9112C58.2714 46.9303 52.7438 54.8065 44.2857 57.7012C32.5957 61.7034 19.9406 54.3801 17.5776 42.2452C15.4278 31.2131 22.4559 20.5944 33.4838 18.2447C36.8183 17.5346 40.1352 17.6869 43.4136 18.6245C44.1703 18.8409 44.5727 19.5157 44.3819 20.2161C44.1895 20.9262 43.4793 21.3045 42.705 21.0849C38.9585 20.027 35.2328 20.1007 31.5873 21.4551C26.6176 23.3016 23.0459 26.6931 21.0692 31.6138C17.5295 40.4228 21.353 50.2176 29.888 54.4298C36.1947 57.5425 44.0549 56.5119 49.3564 51.883C52.7118 48.953 54.7477 45.2922 55.4243 40.8925C55.8122 38.3696 55.6278 35.8708 54.9449 33.4089C54.8792 33.1701 54.8215 32.9072 54.8503 32.6668C54.9225 32.0529 55.4114 31.609 55.9934 31.5673C56.6218 31.5224 57.1877 31.8542 57.3272 32.4793C57.6189 33.7888 57.8594 35.1111 58.0871 36.435C58.1704 36.9175 58.1592 37.4176 58.1897 37.9096V37.9112Z" fill="white"/>
<path d="M38.3944 52.4135C30.677 52.4167 24.6717 47.2156 23.6954 40.2915C22.6581 32.9329 27.5332 25.9703 34.7842 24.4733C36.9452 24.0277 39.1014 24.0806 41.2448 24.6239C41.7899 24.7618 42.1987 25.0487 42.3269 25.6193C42.5465 26.5922 41.7065 27.3888 40.7142 27.1339C39.2233 26.7509 37.7211 26.6467 36.1933 26.8406C31.6469 27.4209 27.817 30.7082 26.5682 35.1047C24.6685 41.7965 28.9873 48.5732 35.8839 49.7192C42.0095 50.737 48.0164 46.4591 49.0616 40.3427C49.3534 38.6341 49.2877 36.948 48.8516 35.2714C48.6881 34.6415 48.943 34.0501 49.4704 33.768C49.9738 33.4987 50.6343 33.5917 51.0046 34.0325C51.1682 34.228 51.2948 34.4861 51.3541 34.7361C52.4026 39.099 51.6812 43.1445 48.9799 46.7396C46.1744 50.4725 42.3493 52.3078 38.3944 52.4151V52.4135Z" fill="white"/>
<path d="M37.5913 39.5735C37.1648 39.5478 36.7753 39.325 36.5476 38.8666C36.312 38.3938 36.3665 37.9354 36.6791 37.5122C36.7656 37.3952 36.8779 37.2959 36.9805 37.1933C39.3098 34.8644 41.6424 32.5387 43.9621 30.2002C44.1128 30.0479 44.2234 29.8011 44.2474 29.5879C44.4559 27.6677 44.645 25.7444 44.8262 23.821C44.8743 23.3177 45.0731 22.9202 45.4354 22.5644C46.8525 21.1715 48.2553 19.7643 49.6532 18.3522C50.0941 17.9066 50.5782 17.6646 51.1938 17.9082C51.787 18.1438 51.9874 18.6327 52.0274 19.2434C52.1156 20.6138 52.2406 21.981 52.34 23.3498C52.3561 23.5742 52.4523 23.6367 52.6607 23.6527C54.057 23.7537 55.4517 23.8707 56.848 23.9717C57.4332 24.0133 57.8756 24.2538 58.0905 24.8147C58.2989 25.3613 58.1402 25.8325 57.7362 26.2348C56.2549 27.7142 54.7704 29.192 53.2971 30.6778C52.9845 30.9936 52.6094 31.1138 52.1877 31.1555C50.2512 31.3462 48.313 31.5337 46.378 31.7405C46.176 31.7629 45.942 31.8687 45.7993 32.0114C43.4315 34.3595 41.0749 36.7172 38.7215 39.0766C38.4265 39.3715 38.1027 39.5799 37.5913 39.5735ZM46.883 29.1039C48.5005 28.9388 50.0604 28.7833 51.617 28.615C51.7196 28.6038 51.827 28.5124 51.9088 28.4323C52.5436 27.8056 53.1737 27.1741 53.8021 26.541C53.8582 26.4849 53.8951 26.4079 53.9576 26.3182C53.4991 26.2813 53.0871 26.2461 52.6767 26.2156C52.2647 26.1835 51.8543 26.1531 51.4423 26.1242C50.3506 26.0489 49.9482 25.653 49.868 24.5695C49.86 24.4493 49.8584 24.3307 49.8488 24.2105C49.7895 23.4908 49.7285 22.7711 49.6628 21.9762C48.8853 22.7519 48.1703 23.462 47.4601 24.18C47.4024 24.2393 47.3719 24.3419 47.3639 24.4285C47.2036 25.9624 47.0481 27.4979 46.8846 29.1023L46.883 29.1039Z" fill="white"/>
<path d="M37.883 33.2039C35.1513 33.1109 32.9277 35.0407 32.5879 37.7719C32.2769 40.2851 34.0419 42.715 36.6021 43.2984C39.6528 43.994 42.6956 41.6491 42.8062 38.5172C42.8126 38.3441 42.8078 38.1678 42.8479 38.0011C43.0002 37.3568 43.6126 36.9384 44.257 37.0234C44.8967 37.1083 45.3616 37.6533 45.3728 38.3313C45.4257 41.6026 43.1044 44.7073 39.8981 45.6529C34.7633 47.1692 29.707 43.1622 30.0132 37.82C30.2553 33.5966 34.0403 30.2899 38.2437 30.6297C38.6653 30.6634 39.0645 30.7451 39.3531 31.0946C39.6881 31.5001 39.7795 31.9521 39.5647 32.4361C39.3595 32.8993 38.9956 33.1654 38.4826 33.2023C38.2838 33.2167 38.0834 33.2039 37.883 33.2039Z" fill="white"/>
</g>
<defs>
<clipPath id="clip0_9_640">
<rect width="41" height="41" fill="white" transform="translate(17.1914 17.8008)"/>
</clipPath>
</defs>
</svg>
