<svg width="76" height="76" viewBox="0 0 76 76" fill="none" xmlns="http://www.w3.org/2000/svg">
<rect y="0.101318" width="75.3827" height="75.3827" fill="#ED863C"/>
<g clip-path="url(#clip0_9_651)">
<path d="M39.5212 18.6495C40.2222 18.6048 40.8286 19.0395 41.4385 19.476C41.5931 19.5877 41.8096 19.7646 41.9436 19.7251C42.3353 19.6117 42.7408 19.4571 43.0586 19.2114C43.2132 19.0911 43.1926 18.7354 43.2338 18.4828C43.507 16.7956 44.4279 16.0035 46.1235 16.0035C46.5393 16.0035 46.9533 15.9949 47.3691 16.0069C48.6112 16.0413 49.575 16.8385 49.8465 18.0516C49.8843 18.2182 49.9341 18.3883 49.9341 18.5584C49.9375 19.0791 50.1798 19.3488 50.6746 19.5464C51.1281 19.7285 51.4477 19.7268 51.8239 19.4124C53.2189 18.2509 54.7411 18.4176 55.9093 19.7749C56.1138 20.0138 56.356 20.2182 56.5725 20.4468C57.5019 21.4244 57.6102 22.6598 56.868 23.7818C56.8285 23.8419 56.7924 23.9072 56.7426 23.9554C56.2134 24.4485 56.2186 24.9777 56.5622 25.5842C56.7031 25.8334 56.8285 25.9828 57.1223 26.0103C57.447 26.043 57.7717 26.1151 58.0895 26.1993C59.2079 26.4966 59.945 27.4141 59.9862 28.567C60.0068 29.1255 60.0051 29.6839 59.9879 30.2423C59.9518 31.4313 59.1856 32.3729 58.0362 32.6598C57.8558 32.7045 57.672 32.7578 57.4882 32.7595C56.9092 32.7629 56.6257 33.0602 56.423 33.5945C56.265 34.0103 56.2822 34.2904 56.557 34.6289C57.0209 35.2028 57.38 35.8299 57.349 36.6151C57.3267 37.2114 57.1532 37.7474 56.7512 38.1839C56.3165 38.6581 55.8664 39.122 55.3888 39.5533C54.5504 40.3076 53.4199 40.4072 52.4424 39.8471C52.2809 39.7543 52.1091 39.6667 51.9785 39.5395C51.537 39.1014 51.1006 39.0859 50.5285 39.3471C50.111 39.5378 50.0372 39.8076 49.9392 40.1753C49.7898 40.7337 49.6506 41.3196 49.362 41.8076C48.9806 42.4519 48.3209 42.7801 47.5615 42.8127C46.9327 42.8402 46.3022 42.8437 45.6734 42.8179C44.5224 42.7698 43.6118 42.0035 43.3386 40.8866C43.2905 40.6925 43.2407 40.4949 43.2338 40.2956C43.2132 39.7629 42.9383 39.5121 42.4573 39.2767C41.8852 38.9983 41.5571 39.2715 41.1602 39.5499C39.7721 40.5224 38.6004 40.4158 37.4029 39.2182C37.0593 38.8746 36.7054 38.5378 36.391 38.1667C35.7038 37.3574 35.6127 36.2509 36.1333 35.3213C36.2244 35.1598 36.312 34.9863 36.4391 34.8574C36.903 34.3883 36.9476 33.9055 36.6195 33.3282C36.4597 33.0481 36.3343 32.8608 35.977 32.8179C35.1918 32.7251 34.4204 32.567 33.8501 31.9296C33.4549 31.4863 33.2041 30.9846 33.1852 30.3883C33.1663 29.787 33.1577 29.1856 33.1766 28.5859C33.2178 27.3488 34.0012 26.4244 35.209 26.1529C35.3911 26.1117 35.5749 26.0636 35.7588 26.0602C36.245 26.0516 36.4614 25.7973 36.6899 25.3677C37.0026 24.7767 36.7484 24.4244 36.4391 23.9932C35.4736 22.6426 35.5853 21.4416 36.7569 20.2698C37.1005 19.9261 37.4424 19.5773 37.8032 19.2526C38.2568 18.8437 38.8014 18.6512 39.5178 18.6512L39.5212 18.6495ZM55.1414 22.2595C55.0589 22.1444 54.9971 22.0344 54.9112 21.945C54.6329 21.6564 54.3391 21.3832 54.0659 21.0911C53.8494 20.8591 53.6416 20.8523 53.3907 21.0361C52.9647 21.3488 52.5266 21.6461 52.0919 21.9502C51.6796 22.2389 51.2587 22.2578 50.7965 22.0499C50.1334 21.7526 49.4599 21.476 48.7813 21.2148C48.3071 21.031 48.0391 20.7079 47.9584 20.2114C47.8759 19.7028 47.7797 19.1976 47.6972 18.6907C47.6491 18.3969 47.5186 18.2251 47.1887 18.2354C46.7747 18.2492 46.3589 18.244 45.9432 18.2371C45.6666 18.2337 45.5222 18.3626 45.4776 18.6323C45.3951 19.1409 45.2955 19.6461 45.2182 20.1547C45.134 20.7045 44.8333 21.0464 44.311 21.2406C43.6565 21.4846 43.0088 21.7492 42.3748 22.0413C41.8955 22.2612 41.4677 22.232 41.0434 21.9296C40.6242 21.6306 40.193 21.3471 39.7824 21.0378C39.5109 20.8334 39.2979 20.866 39.0728 21.1066C38.81 21.3883 38.5351 21.6615 38.2533 21.9261C38.0231 22.1426 38.0145 22.3557 38.1966 22.6048C38.5059 23.0344 38.8065 23.4691 39.1089 23.9038C39.3941 24.3145 39.4233 24.7337 39.212 25.1976C38.9148 25.8454 38.6433 26.5052 38.3908 27.1718C38.2052 27.6598 37.8874 27.9519 37.372 28.0344C36.8635 28.1169 36.3584 28.2148 35.8515 28.2973C35.5543 28.3454 35.3928 28.4828 35.4066 28.8093C35.4238 29.2096 35.4186 29.6117 35.4066 30.0121C35.3963 30.3265 35.5268 30.4828 35.843 30.5275C36.3377 30.598 36.8274 30.7045 37.3222 30.7818C37.8702 30.8677 38.2155 31.1633 38.4114 31.6873C38.6553 32.3419 38.9234 32.988 39.2137 33.6237C39.4336 34.1031 39.3975 34.5344 39.0986 34.9571C38.81 35.366 38.5368 35.787 38.2327 36.1839C38.0042 36.4828 38.0334 36.7148 38.31 36.9605C38.5866 37.2079 38.846 37.476 39.1003 37.7492C39.3185 37.9828 39.5298 37.9811 39.7772 37.8007C40.1809 37.5052 40.6001 37.2285 41.0039 36.9347C41.4505 36.6083 41.9007 36.567 42.4109 36.8059C43.0294 37.0945 43.6651 37.3557 44.3059 37.5928C44.8488 37.7921 45.1426 38.1529 45.225 38.7182C45.2972 39.2131 45.402 39.7028 45.4793 40.1976C45.5222 40.4674 45.6597 40.6014 45.938 40.5962C46.352 40.5894 46.7678 40.5825 47.1836 40.5997C47.5065 40.6117 47.6526 40.4588 47.7007 40.1598C47.7814 39.6667 47.8862 39.177 47.9549 38.6804C48.0323 38.1237 48.3381 37.7887 48.8569 37.5928C49.496 37.3505 50.1317 37.0928 50.7519 36.8059C51.2604 36.5688 51.7105 36.6048 52.1589 36.933C52.5627 37.2285 52.9836 37.5 53.3873 37.7973C53.657 37.9966 53.8718 37.9743 54.0968 37.7285C54.3477 37.4554 54.6105 37.189 54.8854 36.9399C55.1517 36.6976 55.1483 36.4725 54.9369 36.1959C54.6518 35.8213 54.4026 35.4176 54.1192 35.0395C53.7618 34.567 53.7309 34.0945 53.9852 33.5567C54.2721 32.9519 54.5263 32.3299 54.7548 31.6993C54.9524 31.1547 55.3149 30.8626 55.8784 30.7784C56.3595 30.7062 56.8336 30.598 57.3147 30.5327C57.6566 30.4863 57.7768 30.311 57.7648 29.9828C57.7511 29.6117 57.7459 29.2371 57.7648 28.8677C57.7854 28.5069 57.6188 28.3471 57.2803 28.2973C56.7855 28.2217 56.2959 28.1186 55.8011 28.043C55.284 27.9622 54.9593 27.6787 54.772 27.1907C54.516 26.5258 54.2497 25.8626 53.9542 25.2148C53.7361 24.7354 53.7653 24.3059 54.0659 23.8815C54.3631 23.4622 54.6586 23.0395 54.9507 22.6151C55.0211 22.5121 55.071 22.3952 55.1448 22.2595H55.1414Z" fill="white"/>
<path d="M23.7844 29.9038C24.3702 29.8815 25.0145 30.1031 25.5247 30.5619C26.2772 31.2389 26.9919 31.4588 27.9385 30.8884C28.3594 30.6341 28.6979 30.4726 28.7151 29.9313C28.7254 29.6066 28.8078 29.2801 28.8817 28.9605C29.0226 28.3471 29.5741 27.9519 30.1376 28.0447C30.7337 28.1409 31.1512 28.6942 31.0601 29.3351C30.9502 30.1135 30.8076 30.8866 30.6633 31.6598C30.5774 32.1203 30.2802 32.4004 29.8455 32.5722C28.971 32.9193 28.0983 33.2715 27.2376 33.6513C26.7582 33.8626 26.3305 33.842 25.9044 33.5396C25.3443 33.1409 24.7825 32.7458 24.2173 32.3574C23.7294 32.0207 23.47 32.0464 23.0456 32.4657C22.6574 32.8471 22.2725 33.2303 21.8928 33.6203C21.5166 34.0052 21.4943 34.2767 21.8018 34.7251C22.166 35.2561 22.5251 35.7921 22.9168 36.3025C23.3222 36.8317 23.3308 37.3403 23.0405 37.9365C22.6848 38.665 22.3687 39.4193 22.1093 40.1891C21.8963 40.8231 21.5132 41.1616 20.862 41.2561C20.2264 41.3471 19.5924 41.4674 18.9619 41.5894C18.419 41.6942 18.2541 41.8952 18.2489 42.433C18.2438 42.9915 18.2438 43.5499 18.2489 44.1083C18.2541 44.6375 18.4465 44.8626 18.9636 44.9554C19.6251 45.0739 20.2865 45.1959 20.9496 45.3007C21.5321 45.3918 21.8774 45.708 22.0801 46.2698C22.3739 47.0877 22.7106 47.8918 23.0783 48.6805C23.3291 49.22 23.3136 49.6873 22.9649 50.165C22.568 50.708 22.1849 51.2612 21.8052 51.8162C21.4977 52.2629 21.52 52.5327 21.8963 52.9193C22.2742 53.3093 22.6608 53.6925 23.0491 54.0739C23.4768 54.4932 23.7294 54.5172 24.2173 54.1822C24.7705 53.8007 25.3237 53.4176 25.8683 53.0224C26.3356 52.6839 26.7926 52.6822 27.3149 52.9227C28.1172 53.2939 28.935 53.6341 29.7648 53.9382C30.3111 54.1375 30.6117 54.4829 30.7028 55.0447C30.8093 55.708 30.9296 56.3695 31.0481 57.031C31.1426 57.5568 31.3625 57.7492 31.8865 57.7561C32.4586 57.7629 33.0324 57.7629 33.6045 57.7561C34.0942 57.7492 34.3141 57.5757 34.4068 57.098C34.5323 56.4674 34.6577 55.8351 34.7453 55.1977C34.8415 54.4932 35.1971 54.0911 35.8912 53.8729C36.6506 53.6358 37.3842 53.3007 38.1006 52.9519C38.6641 52.677 39.1554 52.6805 39.6605 53.0568C40.1879 53.4502 40.7326 53.8214 41.2737 54.1942C41.7445 54.5172 41.9987 54.4932 42.4093 54.0894C42.8079 53.6976 43.2031 53.3042 43.5931 52.9038C43.9452 52.543 43.971 52.2526 43.6841 51.8334C43.2976 51.2664 42.9041 50.7028 42.5004 50.1478C42.1499 49.6667 42.1516 49.1977 42.4059 48.6616C42.7718 47.8884 43.1086 47.098 43.392 46.2922C43.5965 45.7097 43.9452 45.3884 44.5465 45.2973C45.141 45.208 45.7285 45.0894 46.3213 44.988C46.4896 44.9588 46.6614 44.9313 46.8315 44.9279C47.3813 44.9159 47.8761 45.3265 47.962 45.8523C48.0496 46.3849 47.6888 46.9674 47.1459 47.0997C46.6752 47.2148 46.1855 47.2578 45.7165 47.3781C45.5567 47.4193 45.3884 47.5688 45.3025 47.7148C45.1599 47.9588 45.129 48.2733 44.9692 48.5001C44.5689 49.0688 44.7183 49.5138 45.1255 50.0104C45.6426 50.6427 46.0893 51.3248 46.1048 52.2011C46.1185 52.9812 45.9089 53.6788 45.3763 54.2492C44.8489 54.8128 44.3129 55.3746 43.7356 55.8849C42.6911 56.8093 41.3923 56.897 40.2086 56.1598C39.8083 55.9107 39.4217 55.6375 39.0455 55.3523C38.8376 55.1942 38.6589 55.1581 38.427 55.2887C38.2036 55.4141 37.97 55.5568 37.7243 55.6014C37.0113 55.7286 36.7622 56.1667 36.7158 56.8437C36.6849 57.2801 36.5939 57.732 36.4289 58.1358C35.9582 59.2904 35.0666 59.9124 33.8227 59.9829C33.1956 60.019 32.5634 59.9949 31.9329 59.9932C30.2664 59.9863 29.069 59.0619 28.8611 57.4193C28.7288 56.3678 28.4178 55.665 27.3011 55.3901C26.863 55.2818 26.5727 55.2183 26.1947 55.5104C25.6003 55.9708 25.0042 56.4502 24.2207 56.5877C23.3342 56.7423 22.5251 56.5705 21.855 55.9829C21.2314 55.4365 20.6404 54.8489 20.0872 54.232C19.2248 53.2698 19.12 51.9623 19.7848 50.8489C20.0632 50.3832 20.4085 49.9571 20.6937 49.4966C20.7658 49.3781 20.7761 49.177 20.7332 49.0413C20.6387 48.744 20.4342 48.4743 20.3741 48.1736C20.2453 47.5293 19.845 47.3231 19.2402 47.2664C18.7746 47.2234 18.297 47.1324 17.8658 46.9571C16.7079 46.4897 16.0928 45.5911 16.0258 44.3471C15.9897 43.6908 16.0104 43.031 16.0172 42.3712C16.0344 40.799 17.0051 39.6598 18.5565 39.3798C18.8657 39.3248 19.1749 39.2303 19.4859 39.2251C19.9669 39.2148 20.2109 38.9812 20.3037 38.5344C20.3294 38.4107 20.3638 38.2732 20.4377 38.1753C20.9393 37.5069 20.728 36.9674 20.2504 36.3643C19.8896 35.9073 19.613 35.342 19.4464 34.7801C19.1921 33.921 19.4172 33.0842 20.0047 32.4141C20.5768 31.7595 21.2125 31.1547 21.8533 30.5636C22.355 30.1014 22.9821 29.9055 23.7895 29.9073L23.7844 29.9038Z" fill="white"/>
<path d="M32.7145 50.7526C28.2993 50.7096 24.9027 46.9571 25.2962 42.5378C25.6277 38.8024 28.9452 35.7732 32.675 35.799C33.3055 35.8041 33.8209 36.2784 33.8467 36.878C33.8725 37.4553 33.4189 37.9828 32.7953 38.0138C31.4827 38.0808 30.2973 38.4519 29.294 39.3299C27.6378 40.7784 27.0709 43.0653 27.8577 45.1529C28.6136 47.1615 30.5773 48.5 32.7541 48.4897C35.4977 48.4777 37.7311 46.3952 37.939 43.6529C37.9734 43.2114 37.9717 42.756 38.3565 42.4382C38.7052 42.1495 39.1021 42.0602 39.5162 42.2509C39.956 42.4519 40.1896 42.8145 40.2016 43.3041C40.2807 46.8007 37.4099 50.1667 33.9515 50.6272C33.5409 50.6822 33.1286 50.7114 32.7163 50.7526H32.7145Z" fill="white"/>
<path d="M46.5805 34.7475C43.6324 34.7475 41.2598 32.3798 41.2512 29.4314C41.2427 26.4743 43.6444 24.0722 46.5994 24.0843C49.5321 24.0946 51.9201 26.4966 51.9149 29.4296C51.9098 32.3695 49.5218 34.7492 46.5822 34.7492L46.5805 34.7475ZM46.584 32.5087C48.2814 32.5052 49.6712 31.1169 49.6764 29.4245C49.6815 27.7252 48.2607 26.3128 46.5496 26.318C44.8694 26.3231 43.4795 27.7389 43.4881 29.4348C43.4967 31.1393 44.8797 32.5121 46.5822 32.5087H46.584Z" fill="white"/>
</g>
<defs>
<clipPath id="clip0_9_651">
<rect width="44" height="44" fill="white" transform="translate(16 16)"/>
</clipPath>
</defs>
</svg>
