<svg width="76" height="76" viewBox="0 0 76 76" fill="none" xmlns="http://www.w3.org/2000/svg">
<rect y="0.609375" width="75.3827" height="75.3827" fill="#ED863C"/>
<g clip-path="url(#clip0_9_670)">
<path d="M37.8397 18.9999C35.2009 19.0251 32.5769 19.5919 30.0851 20.7447C29.8402 20.8574 29.6354 20.8722 29.386 20.7714C27.9271 20.1853 26.4029 19.8916 24.8357 19.8293C21.903 19.7135 19.8593 21.7313 19.8415 24.7608C19.8326 26.3513 20.22 27.8675 20.7706 29.3467C20.8671 29.6048 20.8715 29.8215 20.7513 30.0826C15.8492 40.7454 21.6596 53.2033 32.9999 56.3071C37.3945 57.5103 41.6896 57.1364 45.8452 55.2685C46.139 55.1365 46.381 55.1187 46.6852 55.2315C48.1397 55.7745 49.6357 56.1602 51.2 56.1394C51.7743 56.132 52.365 56.0563 52.9186 55.905C54.7441 55.4065 55.9196 53.9095 56.1125 51.9645C56.2936 50.1471 55.8706 48.429 55.2695 46.7437C55.1433 46.3891 55.1552 46.1042 55.3111 45.7659C59.6522 36.3375 55.3111 24.8854 45.8214 20.6823C43.3103 19.5696 40.6893 19.0044 37.8397 18.9999ZM44.0227 54.6439C44.7707 50.0373 41.6287 46.1636 37.5622 45.5137C35.6714 45.2111 33.8845 45.5449 32.2564 46.5508C29.9085 48.0032 28.6929 50.1619 28.4837 52.8918C28.4317 52.8873 28.4184 52.8903 28.4095 52.8858C28.3664 52.8636 28.3219 52.8413 28.2804 52.8131C23.304 49.4127 20.5806 44.7066 20.2912 38.692C20.0701 34.1062 21.5572 30.0425 24.4913 26.5115C25.0034 25.8958 25.3596 25.8261 26.0705 26.1836C31.1195 28.7147 35.6105 32.0083 39.6222 35.9815C43.7778 40.0985 47.2165 44.723 49.8331 49.9557C50.1551 50.5996 50.1017 51.0061 49.5659 51.4245C48.8654 51.9705 48.159 52.5164 47.4169 53.0031C46.3721 53.6885 45.2471 54.2241 44.0241 54.6425L44.0227 54.6439ZM47.7983 54.2864C47.9096 54.2048 47.9779 54.1558 48.0447 54.1069C48.8224 53.5386 49.6194 52.9956 50.3733 52.3977C51.3528 51.6233 51.5651 50.5655 50.9966 49.4557C45.4697 38.6653 37.3084 30.5069 26.5113 24.9848C25.4427 24.4389 24.3652 24.6481 23.6216 25.5842C23.0161 26.3468 22.464 27.1539 21.8881 27.9402C21.8362 28.0114 21.7783 28.0812 21.6997 28.1806C21.2915 26.8364 21.017 25.5293 21.152 24.16C21.3093 22.5665 22.2443 21.5161 23.8131 21.212C24.9559 20.9909 26.0794 21.1437 27.1895 21.4212C30.0064 22.1244 32.5369 23.4567 34.9442 25.0308C40.4103 28.6049 45.0601 33.0558 49.0064 38.2469C51.0397 40.9204 52.8207 43.7482 53.9916 46.9187C54.5734 48.4928 55.0023 50.0952 54.848 51.8013C54.7026 53.4021 53.7779 54.4644 52.2107 54.7686C50.7102 55.0594 49.275 54.7241 47.7983 54.2849V54.2864ZM54.4651 44.5301C49.0851 34.569 41.4121 26.9047 31.4431 21.525C34.2422 20.4301 37.1555 20.0266 40.1995 20.4168C38.7554 23.2075 40.1342 25.9403 42.2654 26.9477C44.4768 27.9936 47.7939 27.099 48.7289 23.9211C54.937 28.458 57.5061 37.1431 54.4651 44.5301ZM37.9006 55.7196C35.1683 55.6943 32.5369 55.0772 30.048 53.8413C29.8461 53.7419 29.7393 53.6306 29.76 53.3962C29.8016 52.9541 29.7838 52.5031 29.861 52.0684C30.5066 48.4231 34.0388 46.0656 37.6958 46.8252C41.2547 47.5641 43.5359 51.2212 42.6662 54.7789C42.6053 55.0282 42.4836 55.1395 42.2372 55.1988C40.8243 55.5356 39.3951 55.7136 37.8991 55.7196H37.9006ZM40.8763 22.7787C40.8644 22.117 41.0559 21.5176 41.3942 20.9509C41.5367 20.712 41.6851 20.6467 41.9597 20.7135C43.8119 21.1571 45.5513 21.8618 47.1913 22.8321C47.5059 23.0176 47.549 23.2075 47.4777 23.5146C47.0963 25.1451 45.5127 26.2934 43.8995 26.1035C42.1467 25.8973 40.8837 24.5086 40.8778 22.7787H40.8763Z" fill="white"/>
<path d="M37.635 39.1016C37.629 37.4414 36.2696 36.0898 34.6088 36.0928C32.9317 36.0958 31.5678 37.4726 31.5841 39.1431C31.6019 40.8152 32.9466 42.1489 34.6133 42.1475C36.2993 42.1445 37.6394 40.7929 37.6335 39.1016H37.635ZM32.859 39.1238C32.859 38.1387 33.6426 37.3613 34.6296 37.3702C35.5958 37.3791 36.369 38.1565 36.369 39.1224C36.369 40.0837 35.5913 40.8715 34.6311 40.8819C33.6515 40.8923 32.8605 40.1075 32.859 39.1238Z" fill="white"/>
<path d="M25.0064 32.946C23.7672 32.946 22.7802 33.943 22.7847 35.1863C22.7891 36.4043 23.7791 37.3954 24.9975 37.4013C26.2338 37.4073 27.2386 36.4103 27.2416 35.1774C27.243 33.9386 26.2487 32.946 25.0064 32.9475V32.946ZM24.999 36.1343C24.4707 36.1284 24.0388 35.6789 24.0507 35.1492C24.0625 34.6314 24.4855 34.2145 25.0035 34.2116C25.5363 34.2086 25.9741 34.6433 25.9726 35.1729C25.9726 35.6996 25.5259 36.1403 24.999 36.1328V36.1343Z" fill="white"/>
<path d="M48.76 32.9401C48.7704 34.1581 49.7781 35.1507 50.9981 35.1418C52.2374 35.1329 53.2273 34.127 53.2169 32.8822C53.2065 31.6642 52.1958 30.6702 50.9788 30.6805C49.7366 30.6909 48.7511 31.6939 48.7615 32.9401H48.76ZM51.9509 32.9015C51.9583 33.4327 51.5279 33.8674 50.9936 33.8688C50.4638 33.8703 50.0245 33.4327 50.0275 32.9075C50.0319 32.3926 50.4504 31.9713 50.9684 31.9609C51.5072 31.9505 51.9435 32.3689 51.9494 32.9015H51.9509Z" fill="white"/>
<path d="M40.526 52.9586C40.4592 50.7288 38.4794 48.7852 36.2443 48.7541C35.7783 48.7481 35.4874 48.9796 35.4755 49.3668C35.4636 49.7585 35.7189 49.9899 36.2027 50.0211C37.8946 50.1323 39.1769 51.389 39.2601 53.0195C39.2883 53.5595 39.5138 53.8251 39.9309 53.8058C40.345 53.788 40.5424 53.5076 40.526 52.9572V52.9586Z" fill="white"/>
</g>
<defs>
<clipPath id="clip0_9_670">
<rect width="38" height="38" fill="white" transform="matrix(1 0 0 -1 19 57)"/>
</clipPath>
</defs>
</svg>
