<svg width="76" height="76" viewBox="0 0 76 76" fill="none" xmlns="http://www.w3.org/2000/svg">
<rect y="0.101318" width="75.3827" height="75.3827" fill="#ED863C"/>
<g clip-path="url(#clip0_9_682)">
<path d="M45.0575 27.792C45.583 28.2816 46.0713 28.7356 46.5566 29.191C46.9262 29.5382 46.9797 29.9002 46.711 30.1925C46.4424 30.4862 46.0668 30.4655 45.7017 30.1272C44.967 29.4462 44.2382 28.7593 43.502 28.0798C43.4041 27.9893 43.2794 27.927 43.0761 27.7905C43.0761 28.4255 43.0761 28.9522 43.0761 29.4774C43.0761 30.1049 42.8579 30.4165 42.4304 30.4046C42.0148 30.3928 41.807 30.0886 41.807 29.4848C41.807 28.967 41.807 28.4492 41.807 27.8142C41.617 27.9374 41.4849 27.9982 41.3825 28.0917C40.6463 28.7697 39.922 29.464 39.1754 30.1302C39.0225 30.2667 38.7762 30.4002 38.5966 30.375C38.4036 30.3468 38.1884 30.1628 38.0726 29.9863C37.9123 29.74 38.0325 29.4818 38.2359 29.2875C38.6648 28.878 39.0997 28.4744 39.5361 28.0709C39.6251 27.9893 39.7261 27.9225 39.8567 27.8217C39.5138 27.7 39.2645 27.5887 39.0047 27.5309C38.883 27.5042 38.7212 27.5531 38.6084 27.6184C36.621 28.7667 34.9824 30.3067 33.5827 32.1123C33.4996 32.2191 33.4239 32.3348 33.3319 32.4328C33.0825 32.6998 32.7352 32.7324 32.4651 32.5233C32.1935 32.3126 32.1237 31.9624 32.3434 31.6657C32.6803 31.2088 33.0514 30.777 33.4002 30.3275C33.4714 30.2355 33.559 30.1183 33.5605 30.013C33.5709 28.6421 33.5679 27.2712 33.5679 25.8366C32.4443 26.3633 31.3044 26.6036 30.1036 26.6021C28.8984 26.6021 27.754 26.3722 26.6334 25.8366V30.3171C27.4171 30.4818 28.1682 30.6153 28.9058 30.8037C29.2353 30.8868 29.5515 31.0545 29.8498 31.2236C30.6498 31.6806 31.0669 32.3259 31.055 33.3051C31.0164 36.1967 31.0417 39.0898 31.0417 41.9828V42.3997C31.8209 42.4383 32.5616 42.4472 33.2948 42.5214C34.1126 42.603 34.8933 42.8404 35.6013 43.2736C36.3613 43.738 36.7739 44.367 36.7605 45.3121C36.7249 47.8461 36.7353 50.3801 36.7561 52.9142C36.7635 53.6975 36.4444 54.2657 35.8329 54.7049C35.0373 55.2761 34.1215 55.5194 33.1686 55.6411C31.5389 55.8488 29.9611 55.69 28.4754 54.9081C27.8268 56.1974 26.6349 56.6084 25.354 56.8354C23.6887 57.1291 22.0486 57.0446 20.4975 56.3042C20.1279 56.1277 19.7925 55.8502 19.4882 55.5684C19.1483 55.2627 19.0029 54.8429 19.0073 54.3711C19.0162 53.4319 19.0355 52.4913 19.0014 51.5522C18.9732 50.7481 19.316 50.1561 19.9602 49.7481C20.4366 49.4484 20.9665 49.2348 21.538 48.9514V48.5968C21.538 43.4917 21.5498 38.385 21.5276 33.2799C21.5231 32.3719 21.9016 31.7473 22.6348 31.2859C23.3384 30.8438 24.1191 30.6257 24.9325 30.5011C25.0542 30.4833 25.1744 30.4625 25.3362 30.4358V30.0263C25.3362 28.1228 25.3481 26.2193 25.3302 24.3144C25.3228 23.5651 25.6301 23.0058 26.2134 22.5756C26.9496 22.034 27.7971 21.7789 28.6862 21.6468C30.1526 21.4287 31.5998 21.497 32.9905 22.0504C33.3868 22.2076 33.7638 22.4391 34.1052 22.6957C34.6054 23.0711 34.8518 23.5859 34.8429 24.2357C34.8236 25.62 34.8369 27.0042 34.8369 28.3899C34.8369 28.5086 34.8369 28.6258 34.8369 28.7638C35.8017 28.0323 36.7308 27.3276 37.6808 26.6081C37.0603 25.979 36.5616 25.2387 36.2069 24.4019C35.6622 23.1186 35.444 21.7714 35.4544 20.3887C35.4618 19.411 36.4177 18.8309 37.2904 19.2641C37.5962 19.4155 37.8797 19.6261 38.1453 19.8427C38.8385 20.411 39.6964 20.4213 40.3806 19.8442C41.715 18.7196 43.1473 18.7152 44.4653 19.8338C45.1629 20.4258 46.0149 20.4154 46.7273 19.8249C46.9722 19.6217 47.2379 19.4303 47.5214 19.2849C48.458 18.8027 49.4316 19.4199 49.4153 20.4762C49.4094 20.8946 49.3723 21.313 49.35 21.7195C51.9415 22.9776 52.464 24.8692 50.7467 26.8796C50.9129 26.9285 51.0569 26.9701 51.2024 27.0116C52.1998 27.2994 53.1275 27.7178 53.8844 28.4507C53.9824 28.5457 54.0789 28.6436 54.1546 28.7549C54.3445 29.0308 54.3015 29.3854 54.0655 29.5961C53.8102 29.8231 53.4273 29.8394 53.2017 29.5575C52.418 28.5783 50.432 27.9774 49.0309 27.9389C49.0843 27.9997 49.1185 28.0472 49.1615 28.0843C53.1245 31.412 55.4236 35.719 56.5502 40.7039C56.9197 42.3374 57.0978 43.9872 56.9509 45.6711C56.6273 49.3876 54.3193 52.0848 50.6666 52.886C49.8161 53.0729 48.93 53.1693 48.0602 53.1812C45.2282 53.2168 42.3963 53.196 39.5643 53.1931C39.4055 53.1931 39.2392 53.1916 39.0893 53.1456C38.7762 53.0521 38.6322 52.8162 38.6619 52.4943C38.6915 52.1694 38.883 51.9795 39.2066 51.9365C39.3402 51.9186 39.4782 51.9275 39.6148 51.9275C42.4349 51.9275 45.2549 51.932 48.0736 51.9246C49.3975 51.9216 50.6784 51.6857 51.8926 51.1383C54.0314 50.1739 55.2173 48.4915 55.6017 46.2126C55.9386 44.2083 55.6418 42.2484 55.1535 40.3063C54.1739 36.4059 52.3942 32.9431 49.5088 30.0931C48.5737 29.1688 47.5452 28.3617 46.4201 27.6763C46.1633 27.5205 45.9362 27.4151 45.6409 27.5961C45.488 27.6896 45.292 27.7148 45.062 27.7875L45.0575 27.792ZM27.2435 49.4395V49.079C27.2435 47.7571 27.2553 46.4352 27.239 45.1133C27.2316 44.4798 27.4587 43.9531 27.9589 43.6074C28.4294 43.2825 28.9607 43.0377 29.4862 42.8048C29.7029 42.7083 29.7786 42.6223 29.7786 42.3864C29.7697 39.928 29.7726 37.4697 29.7712 35.0113C29.7712 34.9223 29.7519 34.8333 29.7415 34.7279C27.4171 35.7516 25.1225 35.7279 22.8263 34.7279V48.7363C23.5848 48.7704 24.3313 48.7363 25.0542 48.8535C25.7874 48.9707 26.4969 49.2333 27.2449 49.441L27.2435 49.4395ZM28.5095 46.7378C28.5095 48.7452 28.5481 50.6976 28.4902 52.6471C28.468 53.3889 28.8019 53.7346 29.3986 53.9824C30.3663 54.3815 31.3801 54.5016 32.4131 54.4453C33.2933 54.3963 34.1571 54.2494 34.9393 53.8014C35.2956 53.5981 35.4945 53.3355 35.4885 52.8815C35.4663 50.9662 35.4796 49.0508 35.4796 47.1354V46.7423C33.1449 47.763 30.8502 47.7734 28.511 46.7378H28.5095ZM48.1314 20.3635C47.8954 20.5326 47.7129 20.6498 47.5466 20.7878C46.3206 21.81 44.8097 21.7996 43.597 20.7581C42.843 20.1098 42.0044 20.1098 41.2563 20.7566C40.0511 21.8011 38.5372 21.81 37.3082 20.7893C37.1435 20.6528 36.9579 20.5386 36.7234 20.3724C36.7427 22.0311 37.0099 23.5399 37.9079 24.8603C38.2344 25.341 38.6752 25.7609 39.1235 26.1392C39.5064 26.4612 39.9962 26.6021 40.5617 26.571C40.4741 26.4018 40.4044 26.2876 40.3524 26.1644C40.0022 25.3232 39.643 24.485 39.3179 23.6334C39.1828 23.2803 39.3832 22.9554 39.7276 22.8426C40.0452 22.7388 40.3643 22.8945 40.5068 23.2313C40.5498 23.3337 40.5647 23.4479 40.6122 23.5473C41.0545 24.482 41.4864 25.4226 41.9554 26.3425C42.1573 26.7371 42.6931 26.7208 42.938 26.3514C43.5347 25.4493 43.9859 24.4791 44.3124 23.4494C44.4787 22.9272 44.7681 22.721 45.1555 22.8411C45.5622 22.9672 45.7106 23.3174 45.5058 23.8455C45.1956 24.6497 44.8408 25.4375 44.5024 26.2297C44.4564 26.338 44.397 26.4419 44.3228 26.5888C45.0041 26.568 45.5503 26.3425 46.0253 25.9389C46.6294 25.4256 47.0761 24.7936 47.4012 24.0755C47.9222 22.9227 48.1285 21.7091 48.1314 20.3679V20.3635ZM32.0109 46.3224C32.7812 46.1681 33.5634 46.0494 34.3189 45.8432C34.6722 45.7468 34.9972 45.502 35.3015 45.2794C35.542 45.1029 35.533 44.8344 35.303 44.6444C35.0774 44.459 34.8295 44.2721 34.5609 44.1712C32.8525 43.5258 31.1322 43.5273 29.4209 44.1697C29.1834 44.2587 28.9563 44.4056 28.7574 44.5658C28.4264 44.8329 28.4234 45.0925 28.7589 45.361C28.9771 45.5361 29.2309 45.677 29.4891 45.7868C30.2862 46.1251 31.1322 46.2171 32.0094 46.3254L32.0109 46.3224ZM23.7599 52.5507C24.8315 52.5507 25.8037 52.3667 26.4984 52.0121C26.8145 51.8504 27.2197 51.6976 27.2182 51.2911C27.2182 50.886 26.8204 50.708 26.4954 50.573C24.6742 49.8208 22.8397 49.8193 21.0185 50.573C20.6934 50.708 20.2986 50.886 20.2986 51.2926C20.2986 51.6976 20.7008 51.8563 21.02 52.0106C21.8838 52.4275 22.81 52.5507 23.7584 52.5492L23.7599 52.5507ZM30.071 25.3307C31.0194 25.3321 31.9471 25.2179 32.8094 24.7995C33.136 24.6408 33.553 24.4909 33.5427 24.0562C33.5337 23.6467 33.1345 23.4791 32.8124 23.3471C31.0031 22.6052 29.1819 22.6038 27.3726 23.3471C27.0386 23.4835 26.623 23.6571 26.6349 24.0889C26.6468 24.4909 27.0475 24.6467 27.3681 24.7995C28.2201 25.209 29.1344 25.3307 30.0695 25.3307H30.071ZM26.2906 34.2086C27.2049 34.1819 28.1251 34.0855 28.98 33.6805C29.3199 33.5188 29.7593 33.36 29.7474 32.9194C29.7355 32.5069 29.3199 32.3319 28.9815 32.1969C27.193 31.4788 25.3941 31.4773 23.607 32.1969C23.2582 32.3378 22.8248 32.5144 22.8367 32.9535C22.8471 33.3645 23.2716 33.5247 23.6041 33.682C24.4471 34.0796 25.354 34.1819 26.292 34.2101L26.2906 34.2086ZM20.2749 53.0714C20.2749 53.4319 20.3075 53.7569 20.2674 54.0729C20.2021 54.5906 20.4574 54.8918 20.876 55.1055C21.0734 55.2064 21.2767 55.2983 21.486 55.3696C22.6601 55.7642 23.8653 55.8458 25.0705 55.5995C25.6657 55.4779 26.2431 55.2375 26.8011 54.9883C26.9926 54.9022 27.19 54.6396 27.2212 54.4319C27.285 54.0002 27.2405 53.5506 27.2405 53.0744C24.9176 54.0981 22.6215 54.0996 20.2734 53.0729L20.2749 53.0714ZM47.2884 26.4879C48.2546 26.7935 49.5445 26.4078 50.1233 25.6704C50.8432 24.7535 50.2866 23.3129 49.0932 23.0652C48.7875 24.3426 48.1953 25.479 47.2869 26.4864L47.2884 26.4879Z" fill="white"/>
<path d="M43.0925 43.0822C43.0123 43.5822 43.2558 44.3106 42.4335 44.3002C41.632 44.2913 41.8516 43.5733 41.7878 43.1044C41.485 43.0332 41.203 42.9932 40.9388 42.8997C39.9934 42.5688 39.3299 41.6727 39.2765 40.6891C39.2527 40.244 39.465 39.9488 39.8345 39.9117C40.2368 39.8716 40.4861 40.109 40.5396 40.5823C40.6197 41.3063 41.0947 41.7647 41.7819 41.7647V39.2989C40.1314 38.9978 39.2275 38.0319 39.275 36.6373C39.3195 35.3214 40.2976 34.3511 41.8027 34.1849C41.8027 34.0009 41.7952 33.8081 41.8041 33.6167C41.8234 33.2013 42.0728 32.9431 42.4409 32.9431C42.8149 32.9431 43.0524 33.1953 43.0673 33.6167C43.0732 33.7992 43.0673 33.9831 43.0673 34.1671C43.3092 34.2116 43.5155 34.2368 43.7159 34.2873C44.7801 34.5573 45.5564 35.5142 45.5935 36.5943C45.6098 37.0483 45.399 37.3272 45.0191 37.3524C44.6376 37.3777 44.3868 37.1373 44.3304 36.6907C44.2339 35.9341 43.8138 35.5157 43.0969 35.492V37.9785C43.9133 38.0423 44.6153 38.3524 45.114 39.0363C45.4792 39.5348 45.6291 40.0942 45.5905 40.7114C45.5118 41.9887 44.5975 42.87 43.088 43.0822H43.0925ZM43.0895 39.2782V41.7558C43.7426 41.787 44.2843 41.29 44.3274 40.6387C44.3779 39.8954 43.9029 39.3538 43.0895 39.2782ZM41.7834 35.4905C41.0709 35.5187 40.5485 36.0483 40.541 36.7204C40.5336 37.4014 41.0635 37.9474 41.7834 37.977V35.4905Z" fill="white"/>
<path d="M48.4182 50.6782C47.9373 50.6826 47.6285 50.4393 47.6152 50.0461C47.6018 49.6634 47.8987 49.3845 48.3825 49.3681C49.2301 49.3414 50.0434 49.1871 50.8227 48.8429C52.3351 48.1783 52.9734 46.932 53.15 45.3757C53.1678 45.217 53.1544 45.0523 53.1826 44.8965C53.2509 44.5271 53.5567 44.2793 53.8802 44.3134C54.2172 44.3476 54.4918 44.6324 54.4725 45.0048C54.3626 47.1516 53.5819 48.9097 51.5589 49.926C50.6906 50.3622 49.377 50.6707 48.4182 50.6797V50.6782Z" fill="white"/>
</g>
<defs>
<clipPath id="clip0_9_682">
<rect width="38" height="38" fill="white" transform="translate(19 19)"/>
</clipPath>
</defs>
</svg>
