<svg width="76" height="76" viewBox="0 0 76 76" fill="none" xmlns="http://www.w3.org/2000/svg">
<rect y="0.593262" width="75.3827" height="75.3827" fill="#ED863C"/>
<g clip-path="url(#clip0_9_692)">
<path d="M19.3493 57.5912C19.5979 58.3626 20.0831 58.7045 20.9094 58.7062C23.9251 58.708 26.9408 58.7062 29.9565 58.7062C34.6867 58.7062 39.4185 58.7062 44.1486 58.7062C44.3064 58.7062 44.4675 58.6908 44.6184 58.7251C44.9287 58.7956 45.1207 58.9949 45.1327 59.3247C45.1447 59.6752 44.9544 59.8917 44.627 59.9759C44.4915 60.0103 44.3424 59.9965 44.2001 59.9965C36.4542 59.9965 28.7067 59.9965 20.9609 59.9965C19.1556 59.9965 18.0052 58.8591 18.0018 57.0552C17.9949 53.2616 18 49.4664 18.0018 45.6729C18.0018 45.544 17.9983 45.4135 18.0223 45.288C18.0806 44.9857 18.2709 44.8104 18.5778 44.7829C18.9018 44.7554 19.1419 44.8963 19.2344 45.2107C19.2859 45.3842 19.2876 45.5784 19.2876 45.7622C19.291 49.0266 19.2893 52.2909 19.2893 55.5553V56.1377C23.9389 53.5795 28.513 51.0608 33.0254 48.5782C28.4855 44.0029 23.9423 39.4242 19.3476 34.794C19.327 35.0517 19.2927 35.2819 19.291 35.5122C19.2876 37.7319 19.2893 39.95 19.2893 42.1697C19.2893 42.2848 19.2944 42.3999 19.2876 42.5133C19.2619 42.9789 19.0064 43.2538 18.6172 43.2418C18.2435 43.2298 18.0052 42.9652 18.0052 42.5116C18.0018 40.0634 18.0018 37.6151 18.0103 35.1668C18.0138 34.3971 18.3326 33.7546 18.8744 33.2202C19.6168 32.4866 20.3728 31.765 21.098 31.0142C21.2455 30.8613 21.3518 30.6019 21.3552 30.3889C21.3758 28.6708 21.3638 26.9527 21.3672 25.2346C21.3706 23.4152 22.5176 22.2692 24.3452 22.2641C26.0888 22.2589 27.8323 22.2555 29.5759 22.2692C29.8845 22.2709 30.1057 22.1867 30.3268 21.9668C32.0104 20.2934 33.7077 18.632 35.3999 16.9672C36.7131 15.6769 38.2887 15.6769 39.6019 16.9672C41.2941 18.632 42.9914 20.2934 44.675 21.9668C44.8978 22.1885 45.119 22.2709 45.4259 22.2675C47.1695 22.2537 48.913 22.2572 50.6566 22.2623C52.4825 22.2675 53.6243 23.4117 53.6312 25.2363C53.6312 25.6659 53.638 26.0954 53.6278 26.5249C53.6175 26.9424 53.3826 27.1984 53.0174 27.2121C52.6419 27.2276 52.3625 26.9578 52.3471 26.5318C52.3316 26.0748 52.3471 25.616 52.3419 25.1573C52.3334 24.1539 51.7436 23.5561 50.7389 23.5543C47.0375 23.5492 43.336 23.5526 39.6328 23.5526C34.5735 23.5526 29.5142 23.5526 24.4549 23.5526C23.1862 23.5526 22.6513 24.0835 22.6513 25.3446C22.6513 28.8237 22.6547 32.3028 22.6462 35.7819C22.6462 36.062 22.7285 36.2578 22.9256 36.4554C26.6425 40.163 30.356 43.8741 34.0609 47.5937C34.2769 47.8102 34.4312 47.8222 34.6798 47.6744C35.1821 47.3738 35.6982 47.0955 36.2176 46.8274C37.0457 46.3979 37.8927 46.3825 38.7276 46.8034C39.2882 47.0851 39.8385 47.391 40.3803 47.7088C40.5946 47.8342 40.7198 47.805 40.8929 47.6332C44.6407 43.8758 48.397 40.1269 52.1413 36.3643C52.2699 36.2355 52.3334 35.9881 52.3351 35.7956C52.3488 33.7477 52.3436 31.7015 52.3436 29.6535C52.3436 29.5109 52.3316 29.3632 52.3608 29.2257C52.4379 28.8752 52.6608 28.6673 53.0277 28.6897C53.3894 28.712 53.6072 28.9268 53.6226 29.2962C53.6398 29.6673 53.6003 30.0435 53.6415 30.4112C53.6638 30.6156 53.7478 30.8562 53.8866 30.9988C54.593 31.729 55.3199 32.4385 56.0503 33.1429C56.6949 33.7632 56.9966 34.5088 56.9966 35.4056C56.9898 42.6353 56.9966 49.8667 56.9898 57.0964C56.988 58.8471 55.8205 59.9914 54.0735 59.9931C51.9013 59.9965 49.7291 59.9931 47.5569 59.9931C47.4283 59.9931 47.2946 60.0051 47.1729 59.9742C46.8472 59.8883 46.6569 59.6752 46.6671 59.323C46.6774 58.9914 46.8712 58.7939 47.1798 58.7217C47.3152 58.6891 47.4644 58.7045 47.6066 58.7045C49.7788 58.7045 51.951 58.7062 54.1232 58.7028C54.9101 58.7028 55.3953 58.3472 55.6439 57.5878C55.4193 57.4589 55.1879 57.3249 54.953 57.196C49.4737 54.1774 43.9892 51.1673 38.5184 48.1349C37.8052 47.7397 37.188 47.7397 36.4714 48.1383C30.9132 51.2206 25.343 54.277 19.7745 57.3421C19.6373 57.4177 19.5036 57.4967 19.3442 57.5895L19.3493 57.5912ZM55.6628 34.7579C51.0424 39.4139 46.4991 43.9926 41.9593 48.5678C46.4837 51.0591 51.063 53.5778 55.6628 56.1102V34.7579ZM43.0548 22.252C43.0068 22.1627 42.9948 22.1197 42.9674 22.0922C41.4913 20.6388 40.0237 19.1784 38.5338 17.7404C37.8927 17.1218 37.0714 17.1459 36.4302 17.7713C34.9884 19.1767 33.5568 20.5924 32.1219 22.0063C32.0601 22.0665 32.0207 22.1489 31.9504 22.252H43.0548ZM20.3197 33.6738C20.6488 34.0415 20.978 34.4057 21.326 34.794V32.6619C20.954 33.0347 20.6163 33.3766 20.3197 33.6738ZM53.6689 32.6825V34.7442C54.0289 34.4023 54.3872 34.0621 54.7181 33.7477C54.3701 33.3955 54.0272 33.045 53.6689 32.6825Z" fill="white"/>
<path d="M37.4982 27.9216C40.6699 27.9216 43.8433 27.9216 47.015 27.9216C47.1728 27.9216 47.3305 27.9165 47.4865 27.9337C47.8311 27.9715 48.0368 28.1708 48.0574 28.5178C48.0797 28.8855 47.8894 29.1157 47.5294 29.1861C47.3905 29.2136 47.2448 29.2102 47.1025 29.2102C40.7008 29.2102 34.2991 29.2102 27.8974 29.2102C27.7551 29.2102 27.6093 29.2136 27.4705 29.1861C27.1121 29.1157 26.9201 28.8872 26.9424 28.5178C26.963 28.169 27.1653 27.9715 27.5116 27.9319C27.6676 27.9148 27.8254 27.9199 27.9831 27.9199C31.1548 27.9199 34.3282 27.9199 37.4999 27.9199L37.4982 27.9216Z" fill="white"/>
<path d="M37.5016 37.7818C40.6887 37.7818 43.8742 37.7818 47.0613 37.7818C47.2327 37.7818 47.4076 37.7783 47.5722 37.8127C47.8928 37.8814 48.0591 38.0996 48.0574 38.4278C48.0574 38.7559 47.8859 38.9707 47.5671 39.0394C47.4162 39.0721 47.255 39.0703 47.099 39.0703C40.6973 39.0703 34.2956 39.0703 27.8956 39.0703C27.7533 39.0703 27.6076 39.0703 27.4687 39.0463C27.1275 38.9844 26.9424 38.7714 26.9424 38.4209C26.9424 38.0704 27.1344 37.8591 27.4739 37.8007C27.6264 37.7732 27.7876 37.7801 27.9436 37.7801C31.1308 37.7801 34.3162 37.7801 37.5033 37.7801L37.5016 37.7818Z" fill="white"/>
<path d="M37.4553 34.1377C34.2836 34.1377 31.1102 34.1377 27.9385 34.1377C27.8099 34.1377 27.6813 34.1446 27.5527 34.1343C27.1807 34.1017 26.9373 33.844 26.9373 33.4935C26.9373 33.143 27.179 32.8887 27.5545 32.8526C27.6676 32.8423 27.7825 32.8475 27.8973 32.8475C34.299 32.8475 40.7007 32.8475 47.1025 32.8475C47.231 32.8475 47.363 32.8354 47.4882 32.8578C47.8414 32.9179 48.0591 33.1241 48.0574 33.4952C48.0574 33.8663 47.8414 34.0725 47.4865 34.1309C47.3613 34.1515 47.2293 34.1377 47.1007 34.1377C43.8862 34.1377 40.6699 34.1377 37.4553 34.1377Z" fill="white"/>
</g>
<defs>
<clipPath id="clip0_9_692">
<rect width="39" height="44" fill="white" transform="translate(18 16)"/>
</clipPath>
</defs>
</svg>
