<svg width="56" height="65" fill="none" xmlns="http://www.w3.org/2000/svg"><g clip-path="url(#clip0_2255_44388)"><path d="M37.965 29.205c-.019-.319-.04-.635-.062-.935-.088-1.123-.901-1.735-1.753-1.825-3.532-3.665-8.465-3.386-13.168-.95-6.266 3.25-7.98 11.456-5.478 17.585 2.462 6.037 9.43 7.463 14.703 4.377 2.148-1.258 3.54-3.351 4.43-5.781 1.254 2.693 3.056 4.95 5.608 6.116 7.238 3.306 10.532-10.25 11.232-14.588C56.535 14.278 38.249-.984 20.515 6.178 6.79 11.722 1.09 29.393 5.008 42.888c4.511 15.53 27.458 24.037 39.86 12.605 1.354-1.248-.436-3.627-1.97-2.571-10.73 7.376-26.69 3.36-32.878-7.972-5.044-9.234-2.115-21.712 4.292-29.433 8.714-10.504 25.344-9.204 32.59 2.275 4.482 7.104 3.447 16.382.066 23.633-4.201 9.013-8.446-7.242-8.998-12.218l-.005-.002zm-15.581 14.44c-7.964-6.718 4.275-21.83 11.726-14.49.005.424.019.859.042 1.305-.148 7.074-2.83 20.73-11.766 13.185h-.002z" fill="#fff"/><path d="M55.346 18.168c-.255-.58-.49-1.155-.79-1.713-.074-.14-.257-.038-.234.097.102.64.314 1.219.552 1.816.217.55.384 1.24.89 1.58.078.05.17-.02.175-.103.04-.59-.362-1.153-.593-1.677zM32.963 63.516c-9.597 1.005-17.403-1.355-24.748-7.662-.046-.04-.12.01-.088.068 3.873 6.932 17.84 11.352 24.905 7.855.12-.058.067-.275-.07-.26zm5.435-2.758c-1.418.619-2.86 1.342-4.086 2.295-.039.03-.034.112.028.105 1.635-.17 3.208-.84 4.234-2.17.101-.135-.021-.295-.176-.23zm4.149-56.982c4.813 2.481 7.809 6.725 10.703 11.153.085.13.323.049.263-.114C49.862 4.909 38.357-1.6 27.983.344c-.114.023-.073.177.024.186 5.142.6 9.826.819 14.54 3.246zM9.532 8.715C3.845 11.375-.083 22.028 1.178 27.92c.03.137.217.093.228-.03.749-7.556 3.377-13.32 8.177-19.102.032-.04-.007-.093-.053-.072h.002zm45.36 31.035c-1.075 1.417-1.55 3.207-2.296 4.802-.82 1.76-1.954 3.133-3.178 4.614-.074.088.016.21.122.158 3.109-1.486 5.33-6.19 5.58-9.513.01-.135-.161-.149-.228-.06z" fill="#2D2D2D"/></g><defs><clipPath id="clip0_2255_44388"><path fill="#fff" transform="translate(.941)" d="M0 0h55v65H0z"/></clipPath></defs></svg>