<svg width="98" height="98" fill="none" xmlns="http://www.w3.org/2000/svg"><g clip-path="url(#clip0_2255_44397)"><path d="M68.612 13.384c-8.946.122-14.854 6.14-18.143 13.443-2.23-6.8-6.504-13.436-13.184-15.418-11.718-3.48-19.4 3.347-22.388 13.973-3.494 12.427 2.611 27.286 7.045 38.715 4.341 11.176 9.548 24.28 18.655 32.694.928.857 2.185.857 3.177.382.034-.015.071-.015.108-.037 4.815-2.576 8.575-7.555 12.543-11.22 5.482-5.054 10.86-10.15 15.783-15.727 8.57-9.714 15.63-22.57 13.705-35.738-1.234-8.45-6.325-21.222-17.3-21.071v.004zm5.14 43.906c-7.71 13.278-21.463 21.46-31.026 33.105-8.581-12.7-14.496-27.293-18.919-41.73-2.85-9.3-5.352-20.988 1.455-29.29C36.01 6.268 44.684 32.148 47.355 37.427c.809 1.603 2.976 1.524 4.154.483.731-.235 1.388-.757 1.73-1.697 3.063-8.41 12.382-24.472 22.232-12.128 7.705 9.656 3.8 23.704-1.72 33.209v-.004z" fill="#fff"/><path d="M91.239 15.56c1.39-1.034 2.886-2.079 2.853-3.97-.026-1.409-1.153-2.414-2.574-2.486-1.626-.083-2.76.969-3.923 1.891a240.871 240.871 0 00-3.192 2.587c-.937.768-1.022 2.26-.433 3.232.787 1.297 2.443 1.632 3.778.959 1.245-.63 2.38-1.387 3.49-2.213zm-11.088-3.949c1.858.216 3.17-1.164 4.215-2.565 1.078-1.445 1.61-2.872 1.61-4.663 0-2.41-3.378-3.264-4.642-1.214-.575.93-1.16 1.86-1.75 2.782-.454.71-1.092 1.293-1.465 2.097-1.123 1.513.134 3.606 2.029 3.567l.004-.004zm15.494 5.339c-1.648-.587-3.188.422-4.52 1.25-1.033.642-2.11 1.219-3.162 1.835-1.962 1.146-1.34 4.817 1.264 4.504a15.79 15.79 0 004.188-1.088c1.984-.804 3.987-1.762 4.121-4.1.067-1.165-.85-2.026-1.89-2.397v-.003zM7.169 18.723c-1.04-.55-2.115-1.037-3.196-1.51-1.06-.46-2.216-.457-3.088.386-.944.912-1.03 2.58 0 3.48a20.67 20.67 0 003.058 2.195c1.178.699 2.405 1.607 3.744 1.974 1.194.328 2.506-.201 3.13-1.228.674-1.113.368-2.302-.433-3.243-.795-.933-2.134-1.474-3.215-2.047v-.007zm7.881-4.373c.112-1.838-1.44-3.228-2.67-4.44-1.108-1.087-2.387-2.038-3.827-2.658-1.055-.454-2.192-.458-3.065.382a2.405 2.405 0 000 3.451c.943.912 1.857 1.863 2.782 2.793 1.119 1.124 1.85 2.403 3.476 2.9 1.7.523 3.207-.86 3.304-2.432v.004zm1.846-7.776c.519 1.026.9 2.06 1.787 2.853 1.238 1.11 3.968.865 4.24-1.08.21-1.478-.12-2.487-.79-3.81-.534-1.051-1.13-2.07-1.653-3.127-1.338-2.72-5.56-.756-4.867 1.982.284 1.117.765 2.155 1.284 3.182z" fill="#2D2D2D"/></g><defs><clipPath id="clip0_2255_44397"><path fill="#fff" transform="translate(.148 .106)" d="M0 0h97.387v97.387H0z"/></clipPath></defs></svg>