<svg width="44" height="49" fill="none" xmlns="http://www.w3.org/2000/svg"><g clip-path="url(#clip0_2255_44381)"><path d="M21.322 36.415c.782 6.062-2.79 11.853-8.946 12.398C6.053 49.376.837 44.068.445 37.684c-.202-3.31 1.24-6.823 3.773-8.809 1.741-1.719 3.962-2.886 6.43-3.01 5.606-.281 9.971 5.142 10.674 10.55z" fill="#fff"/></g><g clip-path="url(#clip1_2255_44381)"><path d="M43.371 31.364c.41 3.163-1.461 6.184-4.686 6.468-3.312.294-6.044-2.475-6.25-5.806-.105-1.727.65-3.56 1.977-4.596.912-.897 2.075-1.506 3.369-1.57 2.936-.147 5.222 2.682 5.59 5.504z" fill="#fff"/></g><g clip-path="url(#clip2_2255_44381)"><path d="M37.847 9.12c.596 4.743-2.126 9.275-6.817 9.701-4.817.441-8.79-3.712-9.09-8.709-.154-2.59.945-5.34 2.875-6.894 1.327-1.345 3.019-2.259 4.9-2.355 4.27-.22 7.596 4.024 8.132 8.256z" fill="#fff"/></g><defs><clipPath id="clip0_2255_44381"><path fill="#fff" transform="matrix(1 0 0 -1 .426 48.853)" d="M0 0h21v23H0z"/></clipPath><clipPath id="clip1_2255_44381"><path fill="#fff" transform="matrix(1 0 0 -1 32.426 37.853)" d="M0 0h11v12H0z"/></clipPath><clipPath id="clip2_2255_44381"><path fill="#fff" transform="matrix(1 0 0 -1 21.926 18.854)" d="M0 0h16v18H0z"/></clipPath></defs></svg>