<svg width="40" height="50" fill="none" xmlns="http://www.w3.org/2000/svg"><g id="film-editing 1"><g id="Group" fill="#000"><path id="Vector" d="M16.288 41.17a4.628 4.628 0 00-2.147-.545 4.692 4.692 0 00-4.688 4.688A4.692 4.692 0 0014.141 50a4.692 4.692 0 004.687-4.688c0-.945-.286-1.824-.77-2.561l1.94-3.071 1.943 3.073a4.654 4.654 0 00-.77 2.56A4.692 4.692 0 0025.86 50a4.692 4.692 0 004.688-4.688 4.692 4.692 0 00-4.688-4.687c-.778 0-1.5.209-2.147.545l-2.328-3.683 2.46-3.893h-2.766L20 35.299l-1.078-1.705h2.156l4.102-6.57 1.968 1.265-3.304 5.305 6.703-.001V10H9.453v23.594h6.697l2.464 3.897-2.326 3.68zm-2.147 6.486a2.347 2.347 0 01-2.344-2.343 2.347 2.347 0 012.344-2.344 2.347 2.347 0 012.343 2.343 2.347 2.347 0 01-2.343 2.344zm14.062-2.343a2.347 2.347 0 01-2.344 2.343 2.347 2.347 0 01-2.343-2.343 2.347 2.347 0 012.343-2.344 2.347 2.347 0 012.344 2.343zm-12.89-28.93l10.828 5.414-10.828 5.414V16.383z"/><path id="Vector_2" d="M32.89 18.672h4.688v6.25h-4.687v-6.25z"/><path id="Vector_3" d="M32.89 10h4.688v6.328h-4.687V10z"/><path id="Vector_4" d="M17.656 20.177v3.24l3.239-1.62-3.239-1.62z"/><path id="Vector_5" d="M2.422 18.672h4.687v6.25H2.422v-6.25z"/><path id="Vector_6" d="M2.422 10h4.687v6.328H2.422V10z"/><path id="Vector_7" d="M2.422 27.266h4.687v6.328H2.422v-6.328z"/><path id="Vector_8" d="M32.89 27.266h4.688v6.328h-4.687v-6.328z"/></g></g></svg>