<svg width="394" height="582" viewBox="0 0 394 582" fill="none" xmlns="http://www.w3.org/2000/svg">
<path d="M374.507 710.427C382.587 714.467 389.993 697.156 391.197 691.941C399.828 654.541 373.715 620.728 353.626 592.25C340.199 573.216 322.82 565.73 301.76 557.448C275.877 547.27 254.426 528.283 236.347 507.004C225.273 493.97 215.355 479.489 206.859 464.643C201.818 455.834 192.393 439.796 195.408 429.243C197.933 420.405 201.571 413.009 204.689 404.694C214.955 377.317 187.494 354.122 167.941 340.703C132.901 316.657 96.0823 295.598 64.9571 266.01C48.1637 250.046 32.3228 233.238 16.6086 216.315C7.86551 206.899 -11.8539 184.435 -3.44923 171.708C2.04772 163.384 -20.4964 146.731 -17.164 137.686C-13.9164 128.871 1.78741 123.825 5.46339 115.059C11.0236 101.8 -13.8518 67.6402 -10.8001 52.8334C-8.06938 39.5846 48.4463 7.18156 48.2434 -6.20998C47.4764 -56.8284 48.4535 -60.5542 57.9219 -110" stroke="white" stroke-opacity="0.15"/>
</svg>
