<svg width="73" height="70" viewBox="0 0 73 70" fill="none" xmlns="http://www.w3.org/2000/svg">
<g clip-path="url(#clip0_2680_28286)">
<path d="M48.0221 8.6583C49.8617 32.2401 39.4297 50.9108 19.1054 62.8027C17.5758 63.6979 18.9964 66.2409 20.5929 65.527C41.5805 56.1105 56.0808 31.3769 50.9415 8.37696C50.54 6.57978 47.8709 6.72353 48.0242 8.65748L48.0221 8.6583Z" fill="white"/>
<path d="M22.2826 55.662C21.0352 56.7671 20.1336 58.5059 19.2792 59.9237C18.3305 61.5007 17.3754 63.1319 17.0819 64.9731C16.9585 65.7518 17.5872 66.2946 18.3153 66.2921C21.6121 66.2827 25.3657 66.7464 28.488 65.4689C29.0568 65.2366 28.9427 64.4551 28.3718 64.3212C25.0872 63.5574 21.4379 63.9331 18.0958 64.0239C18.5074 64.4625 18.9168 64.902 19.3292 65.3429C19.7738 62.003 22.932 59.5442 23.3328 56.3023C23.3986 55.7723 22.7487 55.2449 22.2839 55.6591L22.2826 55.662Z" fill="white"/>
<path d="M50.3451 18.2123C54.8602 15.0376 55.7571 12.4361 55.786 12.2477C55.8758 11.6838 55.6844 5.95913 55.6328 3.68578C55.6156 2.93868 52.5757 3.83257 49.3803 6.99279C44.565 3.14692 43.7972 3.09074 43.9086 5.08259C44.054 7.58852 44.2271 10.0962 44.3297 12.6061C44.4075 14.5295 45.9526 16.1161 49.4747 18.2741C49.7486 18.4428 50.0782 18.403 50.3473 18.2114L50.3451 18.2123Z" fill="white"/>
<path d="M54.901 21.8198C54.3162 25.7527 53.9943 29.5038 52.7788 33.333C51.5115 37.3298 49.3296 40.7059 47.2422 44.2971C47.1703 44.4182 47.3531 44.5035 47.4382 44.4168C52.5949 39.184 55.9624 29.1626 55.1103 21.826C55.0971 21.7079 54.9191 21.6996 54.901 21.8198Z" fill="white"/>
<path d="M46.4834 45.3925C45.8301 46.2605 45.0948 47.1008 44.4931 48.0008C44.4419 48.0795 44.508 48.1749 44.6007 48.1468C45.6031 47.8374 46.5497 46.5321 46.7961 45.534C46.8381 45.3603 46.5868 45.2569 46.4834 45.3925Z" fill="white"/>
<path d="M39.3957 37.5517C37.8796 40.4466 36.424 43.2617 34.4813 45.9109C32.5771 48.506 30.2556 50.699 28.093 53.0628C28.0013 53.1644 28.1479 53.3029 28.2533 53.2306C33.065 49.9302 38.1958 43.3478 39.471 37.5746C39.4807 37.529 39.4168 37.5165 39.3987 37.553L39.3957 37.5517Z" fill="white"/>
</g>
<defs>
<clipPath id="clip0_2680_28286">
<rect width="51.9581" height="58.0684" fill="white" transform="translate(54.2383) rotate(69.0749)"/>
</clipPath>
</defs>
</svg>
