<svg width="128" height="123" viewBox="0 0 128 123" fill="none" xmlns="http://www.w3.org/2000/svg">
<g clip-path="url(#clip0_2680_27843)">
<path fill-rule="evenodd" clip-rule="evenodd" d="M121.079 40.8969L110.325 45.0839C110.325 45.0839 105.561 46.8227 106.204 51.6732C106.847 56.5236 112.505 60.2186 112.505 60.2186L123.329 60.8135L117.682 50.8495L122.939 41.9151L121.091 40.8855L121.079 40.8969Z" fill="white"/>
<path fill-rule="evenodd" clip-rule="evenodd" d="M26.4573 14.2539C26.4573 14.2539 6.72705 24.3781 3.37554 43.5053C0.0240386 62.6326 2.13595 78.9914 6.42863 87.5826C10.7213 96.1739 19.6625 108.872 38.3253 110.92C56.9882 112.967 70.245 104.491 74.7672 92.8678C79.2895 81.245 84.0642 66.5907 80.3798 53.0575C76.6955 39.5243 74.2622 26.6775 54.8877 14.4141C45.7055 8.6027 26.4458 14.2539 26.4458 14.2539H26.4573Z" fill="white"/>
<path fill-rule="evenodd" clip-rule="evenodd" d="M82.6054 55.6997C85.4519 55.1162 88.218 54.5671 90.9842 53.9608C95.3113 53.0113 99.6269 52.0161 103.954 51.078C104.769 50.895 105.308 50.6662 105.343 49.7052C105.435 46.7767 107.133 45.2323 109.785 44.2714C114.261 42.6355 118.657 40.7822 123.122 39.1006C123.661 38.8947 124.396 39.1921 125.039 39.2608C124.947 39.9357 125.073 40.7708 124.729 41.2742C123.087 43.6422 121.24 45.8729 119.644 48.2753C119.174 48.9845 118.99 50.1743 119.219 50.9865C120.161 54.3269 121.848 57.2783 124.362 59.7608C124.729 60.1268 124.947 60.9619 124.786 61.431C124.671 61.7742 123.811 62.0945 123.306 62.0602C119.472 61.8314 115.638 61.5682 111.828 61.1679C111.105 61.0878 110.244 60.5043 109.785 59.898C108.43 58.1249 107.248 56.2259 105.882 54.2011C98.4333 55.7454 90.812 57.3355 83.0301 58.96C83.0301 59.4061 83.0186 59.8866 83.0301 60.3671C83.3056 69.5875 82.2037 78.6249 78.8522 87.2619C75.2137 96.6196 69.5208 104.364 60.4878 109.238C47.1277 116.445 30.3701 114.557 18.548 104.57C9.72164 97.1115 4.59108 87.4106 1.92824 76.4056C-2.70877 57.2669 1.06741 39.7069 12.7173 23.8286C15.4376 20.1107 18.6973 16.8846 22.5997 14.3565C25.297 12.6062 28.1549 11.405 31.4835 11.2105C34.6973 11.0161 37.8651 10.1123 41.0789 9.91785C47.6671 9.5289 53.383 12.1715 58.571 15.8665C71.5638 25.1213 79.2769 37.7622 82.1922 53.3545C82.2611 53.7435 82.3644 54.1324 82.4333 54.5214C82.4907 54.8531 82.5366 55.1963 82.6169 55.6882L82.6054 55.6997ZM79.7589 56.3288C79.7589 55.9285 79.7589 55.6882 79.7589 55.4365C79.7475 55.1849 79.7245 54.9332 79.6786 54.693C77.6929 42.7499 72.3443 32.4999 63.8622 23.8972C59.0416 19.0124 53.5208 15.1458 46.7948 13.2926C45.142 12.8464 43.4203 12.2401 41.7102 13.1553C38.9555 14.631 36.0631 15.9123 33.4806 17.6511C26.2037 22.5588 21.3945 29.5484 17.5265 37.2474C13.8651 44.5459 12.132 52.2792 12.6485 60.4357C13.0732 67.0593 14.7719 73.4312 16.8723 79.7002C21.8307 94.4689 31.3802 104.341 46.8407 108.311C52.0057 109.638 56.3902 108.986 60.8206 106.092C68.132 101.31 72.9412 94.6863 76.1434 86.7471C78.8522 80.032 79.9311 72.9851 80.3214 65.8124C80.4361 63.7532 80.3328 61.6826 80.3328 59.4405C76.8092 60.0811 73.6183 60.6645 70.7604 61.1907C70.2324 65.698 69.7618 69.8849 69.2568 74.0719C68.3156 81.7708 64.6657 88.097 59.076 93.3249C52.637 99.3422 40.1377 101.836 31.8737 93.8168C28.8206 90.854 26.6054 87.342 24.9526 83.4524C21.3945 75.0786 20.4304 66.2814 21.0961 57.2898C21.5323 51.4555 23.1162 45.8958 25.9053 40.6678C29.1879 34.5133 34.2496 30.3378 40.8034 28.5875C46.6112 27.0431 52.1894 28.862 56.8952 32.6143C62.0488 36.7326 65.4117 42.2122 67.7188 48.2867C68.9239 51.4555 69.6356 54.8074 70.5882 58.1363C73.4921 57.5529 76.5566 56.9466 79.7589 56.306V56.3288ZM50.9153 70.3768C50.6858 71.6123 50.812 72.905 50.2381 73.6715C47.713 77.0462 41.4806 79.0825 38.2209 73.2253C37.3142 71.6009 36.8551 69.5989 36.6485 67.7228C36.109 62.7237 37.6011 58.0791 39.8852 53.7091C41.0789 51.4326 42.9727 49.7624 45.8192 49.8425C48.6083 49.9226 50.2381 51.6729 51.3744 53.9837C51.7647 54.773 51.9828 55.6539 52.2697 56.4661C54.5997 56.0543 56.8723 55.6081 59.1678 55.2649C59.581 55.2078 60.0631 55.5052 60.4993 55.6425C60.3386 56.0657 60.2582 56.5691 59.9828 56.9123C59.0416 58.102 58.0315 59.246 56.7919 60.6988C60.4189 60.0353 63.6327 59.4405 66.8694 58.8456C66.8465 58.2622 66.8694 57.8732 66.8006 57.4843C65.6987 50.3344 62.7145 44.0311 58.1463 38.4371C55.1621 34.7764 51.4433 32.3855 46.703 31.7334C44.5452 31.436 42.4562 30.967 40.3558 32.3168C29.9799 38.9633 25.1937 48.7557 24.3902 60.6531C23.8163 69.0384 26.6284 76.7945 29.6585 84.4363C31.1391 88.1885 34.2267 90.648 37.1764 93.1419C38.2668 94.0685 39.6901 94.9608 41.0559 95.121C43.4892 95.407 46.0717 95.5099 48.4476 95.018C56.9182 93.2677 61.5437 87.0903 64.3787 79.6659C65.9168 75.6162 66.1578 71.0518 66.8809 66.7047C67.1449 65.126 67.076 63.4901 67.1678 61.7513C64.1148 62.186 61.3257 62.5749 58.2611 63.0097C59.0186 64.8171 59.6958 66.3958 60.3271 67.9859C60.7288 68.9926 61.3716 70.2396 60.35 71.0175C59.6499 71.5437 58.3988 71.578 57.4462 71.4636C55.231 71.2005 53.0502 70.72 50.9383 70.354L50.9153 70.3768ZM50.7891 62.4262C50.8005 62.2546 50.8235 62.083 50.835 61.9114C51.9254 61.6712 53.0272 61.4653 54.1061 61.1793C54.7948 60.9963 55.6786 60.8819 56.0918 60.4128C56.9871 59.3718 57.6298 58.1249 58.3873 56.9695C58.33 56.8208 58.2726 56.6835 58.2152 56.5348C56.0229 57.2898 53.8651 58.2393 51.6155 58.7426C48.6198 59.4176 46.1291 60.9734 43.6958 62.655C43.2482 62.9639 42.7202 63.6732 42.7891 64.1079C42.9498 65.0917 42.6858 66.4416 44.1549 66.7848C48.9641 67.9173 53.7733 69.027 58.9842 70.2396C57.9512 67.5741 57.1363 65.4577 56.264 63.2156C54.6226 63.044 52.5107 63.9363 50.812 62.4148L50.7891 62.4262ZM121.067 59.7951C119.656 57.061 118.301 54.4413 116.878 51.6843C113.859 52.3707 110.657 53.0914 107.237 53.8579C108.545 55.4709 109.659 56.9466 110.887 58.3079C111.311 58.7769 112.011 59.1888 112.62 59.246C115.443 59.4977 118.29 59.6235 121.067 59.7951ZM106.904 50.323C110.164 49.6252 113.354 48.9388 116.545 48.241C116.775 48.1952 117.062 48.1037 117.199 47.9321C118.726 45.9759 120.218 43.9968 121.733 42.0177C121.251 41.8805 120.976 41.9491 120.712 42.0635C117.268 43.4706 113.871 44.9577 110.393 46.2504C108.442 46.9711 107.179 48.0922 106.904 50.323ZM13.383 41.3085C10.5251 43.6765 7.77042 45.9644 5.00428 48.2295C3.1908 49.7167 2.14632 52.7368 2.52509 54.5214C4.68291 52.5652 7.00142 50.323 9.48061 48.2524C11.6384 46.4449 12.901 44.2256 13.383 41.3085ZM2.14632 63.9591C4.78621 60.8361 7.08176 57.919 9.58391 55.1849C11.099 53.5376 10.7546 51.6157 11.0072 49.7396C8.05737 52.6224 5.24532 55.5738 2.45622 58.5367C2.27258 58.7312 2.1578 59.0629 2.1578 59.3261C2.12337 60.7446 2.14632 62.1631 2.14632 63.9591ZM11.2711 67.0708C9.42322 70.5027 7.7819 73.9117 5.79625 77.092C4.59108 79.0253 5.26827 80.4552 6.11763 82.1712C7.72451 79.1168 9.10184 76.0738 10.8465 73.2711C12.1435 71.1891 12.2353 69.2557 11.2711 67.0708ZM11.1564 63.4215C10.9498 63.3643 10.7546 63.2956 10.548 63.2384C8.26397 66.2242 5.96842 69.21 3.69582 72.2072C3.5007 72.4589 3.32853 72.8593 3.38592 73.1452C3.69582 74.6324 4.08606 76.0967 4.5337 77.8813C4.93542 77.092 5.18793 76.6344 5.41748 76.1653C7.07028 72.8478 8.74603 69.5417 10.3414 66.1899C10.7546 65.3319 10.8809 64.3481 11.1449 63.4215H11.1564ZM21.4978 26.4711C17.5495 28.5074 13.9684 30.4178 10.3185 32.2139C8.28692 33.2206 8.16067 35.2225 7.38018 36.9042C10.7202 35.0166 13.8881 32.9346 17.1822 31.1042C19.0645 30.0632 20.3615 28.6561 21.5093 26.4597L21.4978 26.4711ZM17.802 87.5708C16.1033 90.179 14.5193 92.6157 12.8666 95.1439C13.4519 95.876 14.0488 96.631 14.6915 97.4432C16.5853 95.3955 18.3529 93.4851 20.0861 91.5975C19.3056 90.2248 18.6054 88.9778 17.802 87.5708ZM17.9282 32.5113C17.8135 32.3969 17.6987 32.294 17.5839 32.1796C17.2051 32.374 16.8264 32.5571 16.4591 32.7744C13.7962 34.3188 11.2252 36.0576 8.45909 37.3732C6.10615 38.4943 5.73886 40.4963 5.07315 42.7728C8.68865 40.2331 12.1549 37.8994 15.495 35.417C16.482 34.6849 17.1363 33.4951 17.9397 32.5113H17.9282ZM14.3357 25.0183C20.901 21.4949 27.4663 17.9714 34.0315 14.4594C33.1822 14.345 32.3902 14.4251 31.6901 14.7454C27.3859 16.6673 23.1506 18.7608 18.7891 20.5568C16.5853 21.472 15.4835 23.2337 14.3357 25.0297V25.0183ZM9.75608 90.0417C11.1334 87.2047 12.3845 84.3219 13.911 81.5763C14.7259 80.112 14.7374 78.8766 13.8651 77.4008C12.3501 80.5124 10.9383 83.6126 9.3314 86.5984C8.59682 87.9711 8.68865 88.9893 9.75608 90.0417ZM12.7288 73.3168C12.614 73.4198 12.4648 73.4884 12.4189 73.6143C10.8465 77.1377 9.34288 80.6955 7.69008 84.1846C7.13915 85.34 7.52939 86.095 8.17215 87.0903C9.68721 83.7728 11.0531 80.5582 12.637 77.4466C13.3716 76.0052 13.5437 74.7354 12.7403 73.3168H12.7288ZM10.8235 60.4014C10.6513 60.3213 10.4792 60.2412 10.3185 60.1612C8.28692 62.4491 6.34718 64.8286 4.20084 67.0021C2.7776 68.4435 2.34144 69.8506 3.30558 71.7153C5.50931 68.6952 7.72451 65.7209 9.85938 62.6893C10.33 62.0258 10.5136 61.1679 10.8235 60.4014ZM10.1693 30.5094C10.2726 30.6238 10.3644 30.7382 10.4677 30.8411C10.8579 30.6581 11.2482 30.4865 11.627 30.2806C15.2195 28.3816 18.8465 26.5398 22.3816 24.5493C23.5523 23.8972 24.505 22.8562 25.5495 21.9982C25.4577 21.8952 25.3658 21.7923 25.274 21.6893C20.9699 23.9315 16.6542 26.1394 12.3845 28.4617C11.5237 28.9307 10.8924 29.823 10.1463 30.5094H10.1693ZM20.5911 103.243C20.9928 102.397 21.3027 101.722 21.6241 101.07C21.9684 100.36 22.3242 99.6511 22.68 98.9533C23.4911 97.3517 23.2577 95.8493 21.9799 94.446C20.878 96.8255 19.7876 99.1821 18.6743 101.596C19.2826 102.122 19.868 102.625 20.5911 103.243ZM15.2884 98.3813C16.1836 99.205 17.01 99.9714 17.8135 100.715C18.8579 98.4499 19.9024 96.2649 20.8551 94.0456C21.0502 93.5995 20.878 92.9932 20.878 92.0551C18.8465 94.3431 17.1707 96.2421 15.2769 98.3813H15.2884ZM15.0014 37.8308C14.9325 37.7736 14.8522 37.7164 14.7833 37.6706C11.2941 40.5649 7.79338 43.4248 4.35005 46.3648C3.90242 46.7538 3.77616 47.5202 3.48922 48.1037C7.2654 45.2552 10.7776 42.258 14.2554 39.2264C14.6226 38.8947 14.7604 38.2998 15.0014 37.8308ZM24.5853 97.3746C23.3917 99.6054 22.3127 101.642 21.2109 103.712C21.8422 104.158 22.3587 104.524 22.9096 104.913C23.9541 102.843 24.9526 100.875 25.9053 98.999C25.4577 98.4499 25.0559 97.958 24.5853 97.3746ZM25.2855 106.401C26.3185 104.513 27.2711 102.786 28.2353 101.058C27.6499 100.509 27.1219 100.017 26.5251 99.4681C25.5495 101.493 24.6198 103.403 23.6556 105.394C24.1836 105.726 24.6886 106.034 25.2855 106.401ZM28.0975 107.831C28.9813 106.126 29.7733 104.57 30.6112 102.969C30.0373 102.522 29.5093 102.111 28.9354 101.665C27.9483 103.426 27.0301 105.085 26.066 106.801C26.7661 107.156 27.3744 107.464 28.0975 107.831ZM31.1391 109.077C31.8967 107.59 32.5853 106.252 33.3084 104.845C32.6083 104.376 31.9311 103.93 31.208 103.449C30.416 105.142 29.7159 106.641 28.9813 108.208C29.7389 108.517 30.3701 108.769 31.1391 109.077ZM43.5696 111.137C44.4189 109.913 44.109 109.375 42.8235 109.112C41.7331 108.883 40.6772 108.448 39.5294 108.082C39.1391 108.986 38.7833 109.821 38.3127 110.896C40.2295 110.988 41.9397 111.057 43.5696 111.137ZM11.8221 93.9312C12.0172 94.0113 12.2238 94.0914 12.4189 94.1715C13.8651 91.895 15.2769 89.5841 16.7805 87.342C17.4347 86.3696 17.1248 85.7061 16.4476 84.9053C14.8637 87.994 13.3486 90.9684 11.8221 93.9312ZM15.3113 81.1531C15.2195 81.1531 15.1277 81.1416 15.0244 81.1302C13.4749 84.2647 11.9139 87.3877 10.3988 90.5451C10.2611 90.8425 10.4562 91.2887 10.4907 91.6662C12.2812 88.6461 13.8192 85.6603 15.2769 82.6288C15.472 82.2284 15.2998 81.645 15.2998 81.1416L15.3113 81.1531ZM35.8106 106.355C35.2023 106 34.6513 105.68 34.0545 105.325C33.3429 106.675 32.6772 107.956 31.9311 109.375C32.8493 109.604 33.5839 109.787 34.3529 109.981C34.8579 108.746 35.2941 107.659 35.8221 106.366L35.8106 106.355ZM10.4447 55.4251C7.7819 57.633 2.27258 64.4854 2.42179 65.412C4.45335 63.7532 10.4103 56.3517 10.4447 55.4251ZM37.67 110.771C38.0832 109.787 38.4849 108.826 38.9096 107.808C38.0488 107.43 37.3486 107.121 36.5796 106.79C36.0401 107.956 35.5466 108.997 35.0072 110.176C35.9598 110.393 36.7632 110.565 37.67 110.771ZM12.3041 27.2147C12.373 27.3291 12.4534 27.455 12.5337 27.5808C18.0775 24.595 23.6212 21.6093 29.165 18.6349C29.0846 18.4862 28.9928 18.3375 28.9125 18.1773C23.3802 21.1974 17.8479 24.2061 12.3156 27.2262L12.3041 27.2147ZM16.1836 83.5211C16.0459 83.4639 15.8967 83.4067 15.7589 83.3495C14.198 86.4497 12.637 89.5498 11.076 92.65C11.2138 92.7186 11.3515 92.7873 11.4892 92.8445C13.0502 89.7329 14.6112 86.6213 16.1836 83.5211ZM8.92968 79.1511C6.47344 82.4114 6.2324 83.0406 7.04733 84.1732C7.69008 82.4458 8.32136 80.7984 8.92968 79.1511ZM1.96268 57.1296C2.11189 57.2326 2.27258 57.3355 2.42179 57.4385C3.34001 56.3632 4.26971 55.2764 5.18793 54.2011C5.08463 54.1095 4.96985 54.018 4.85507 53.9265C3.89094 54.9904 2.92681 56.0657 1.96268 57.1296Z" fill="#222222"/>
<path d="M79.7589 56.306V55.4365C79.7475 55.1849 79.7245 54.9332 79.6786 54.693C77.6929 42.7499 72.3443 32.4999 63.8622 23.8972C59.0416 19.0124 53.5208 15.1458 46.7948 13.2926C45.142 12.8464 43.4203 12.2401 41.7102 13.1553C38.9555 14.631 36.0631 15.9123 33.4806 17.6511C26.2037 22.5588 21.3945 29.5484 17.5265 37.2474C13.8651 44.5459 12.132 52.2792 12.6485 60.4357C13.0732 67.0593 14.7719 73.4312 16.8723 79.7002C21.8307 94.4689 31.3802 104.341 46.8407 108.311C52.0057 109.638 56.3902 108.986 60.8206 106.092C68.132 101.31 72.9412 94.6863 76.1434 86.7471C78.8522 80.032 79.9311 72.9851 80.3214 65.8124C80.4361 63.7532 80.3328 61.6826 80.3328 59.4405C76.8092 60.0811 73.6183 60.6645 70.7604 61.1907C70.2324 65.698 69.7618 69.8849 69.2568 74.0719C68.3156 81.7708 64.6657 88.097 59.076 93.3249C52.637 99.3422 40.1377 101.836 31.8737 93.8168C28.8206 90.854 26.6054 87.342 24.9526 83.4524C21.3945 75.0786 20.4304 66.2814 21.0961 57.2898C21.5323 51.4555 23.1162 45.8958 25.9053 40.6678C29.1879 34.5133 34.2496 30.3378 40.8034 28.5875C46.6112 27.0431 52.1894 28.862 56.8952 32.6143C62.0488 36.7326 65.4117 42.2122 67.7188 48.2867C68.9239 51.4555 69.6356 54.8074 70.5882 58.1363C73.4921 57.5529 76.5566 56.9466 79.7589 56.306Z" fill="white"/>
<path d="M50.9153 70.3768C50.6858 71.6123 50.812 72.905 50.2381 73.6715C47.713 77.0462 41.4806 79.0825 38.2209 73.2253C37.3142 71.6009 36.8551 69.5989 36.6485 67.7228C36.109 62.7237 37.6011 58.0791 39.8852 53.7091C41.0789 51.4326 42.9727 49.7624 45.8192 49.8425C48.6083 49.9226 50.2381 51.6729 51.3744 53.9837C51.7647 54.773 51.9828 55.6539 52.2697 56.4661C54.5997 56.0543 56.8723 55.6081 59.1678 55.2649C59.581 55.2078 60.0631 55.5052 60.4993 55.6425C60.3386 56.0657 60.2582 56.5691 59.9828 56.9123C59.0416 58.102 58.0315 59.246 56.7919 60.6988C60.4189 60.0353 63.6327 59.4405 66.8694 58.8456C66.8465 58.2622 66.8694 57.8732 66.8006 57.4843C65.6987 50.3344 62.7145 44.0311 58.1463 38.4371C55.1621 34.7764 51.4433 32.3855 46.703 31.7334C44.5452 31.436 42.4562 30.967 40.3558 32.3168C29.9799 38.9633 25.1937 48.7557 24.3902 60.6531C23.8163 69.0384 26.6284 76.7945 29.6585 84.4363C31.1391 88.1885 34.2267 90.648 37.1764 93.1419C38.2668 94.0685 39.6901 94.9608 41.0559 95.121C43.4892 95.407 46.0717 95.5099 48.4476 95.018C56.9182 93.2677 61.5437 87.0903 64.3787 79.6659C65.9168 75.6162 66.1578 71.0518 66.8809 66.7047C67.1449 65.126 67.076 63.4901 67.1678 61.7513C64.1148 62.186 61.3257 62.5749 58.2611 63.0097C59.0186 64.8171 59.6958 66.3958 60.3271 67.9859C60.7288 68.9926 61.3716 70.2396 60.35 71.0175C59.6499 71.5437 58.3988 71.578 57.4462 71.4636C55.231 71.2005 53.0502 70.72 50.9383 70.354L50.9153 70.3768Z" fill="white"/>
<path d="M121.067 59.7951C119.656 57.061 118.301 54.4413 116.878 51.6843C113.859 52.3707 110.657 53.0914 107.237 53.8579C108.545 55.4709 109.659 56.9466 110.887 58.3079C111.311 58.7769 112.011 59.1888 112.62 59.246C115.443 59.4977 118.29 59.6235 121.067 59.7951Z" fill="white"/>
<path d="M106.904 50.323C110.164 49.6252 113.354 48.9388 116.545 48.241C116.775 48.1952 117.062 48.1037 117.199 47.9321C118.726 45.9759 120.218 43.9968 121.733 42.0177C121.251 41.8805 120.976 41.9491 120.712 42.0635C117.268 43.4706 113.871 44.9577 110.393 46.2504C108.442 46.9711 107.179 48.0922 106.904 50.323Z" fill="white"/>
<path d="M50.7891 62.4262C50.8005 62.2546 50.8235 62.083 50.835 61.9114C51.9254 61.6712 53.0272 61.4653 54.1061 61.1793C54.7948 60.9963 55.6786 60.8819 56.0918 60.4128C56.9871 59.3718 57.6298 58.1249 58.3873 56.9695C58.33 56.8208 58.2726 56.6835 58.2152 56.5348C56.0229 57.2898 53.8651 58.2393 51.6155 58.7426C48.6198 59.4176 46.1291 60.9734 43.6958 62.655C43.2482 62.9639 42.7202 63.6732 42.7891 64.1079C42.9498 65.0917 42.6858 66.4416 44.1549 66.7848C48.9641 67.9173 53.7733 69.027 58.9842 70.2396C57.9512 67.5741 57.1363 65.4577 56.264 63.2156C54.6226 63.044 52.5107 63.9363 50.812 62.4148L50.7891 62.4262Z" fill="#EB5B31"/>
<path fill-rule="evenodd" clip-rule="evenodd" d="M101.671 33.118C100.478 32.8435 98.7791 32.5231 97.1033 32.0656C93.0861 30.9673 89.0689 29.8119 85.0517 28.6908C84.1105 28.4277 82.9283 28.0731 83.2267 26.9749C83.4563 26.1512 84.4204 25.1903 85.2583 24.9386C86.8537 24.4581 88.5868 24.3552 90.2626 24.2408C94.8767 23.9205 99.5022 23.6573 104.128 23.3942C105.964 23.2913 106.986 24.4124 106.618 26.1855C106.309 27.6841 105.964 29.1827 105.528 30.6585C105.034 32.3172 103.887 33.1066 101.671 33.1294V33.118Z" fill="#EB5B31"/>
<path fill-rule="evenodd" clip-rule="evenodd" d="M97.0433 21.8726C91.534 21.5637 86.5067 21.3235 81.491 20.946C80.8826 20.9002 80.3317 20.1452 79.7578 19.7219C80.2284 19.1728 80.6072 18.3034 81.1811 18.1318C87.3676 16.3358 93.577 14.6198 99.798 12.9382C101.956 12.3548 103.149 13.1899 103.448 15.3977C103.597 16.5188 103.7 17.6628 103.712 18.8068C103.712 20.3511 102.989 21.2434 101.462 21.4608C99.8439 21.6896 98.2026 21.7582 97.0433 21.8612V21.8726Z" fill="#EB5B31"/>
<path fill-rule="evenodd" clip-rule="evenodd" d="M76.7962 17.1938C75.8091 15.4778 76.5322 14.6542 77.4848 13.6589C79.0802 11.9773 80.4805 10.1011 81.8808 8.25935C83.568 6.04004 85.1635 3.76354 86.8392 1.53279C88.1132 -0.171731 89.2266 -0.411966 91.0975 0.61761C91.9698 1.09808 92.7962 1.65863 93.5996 2.25349C95.7804 3.84361 95.7345 5.26214 93.4389 6.74931C90.8909 8.39663 88.2854 9.97531 85.7603 11.6455C83.5221 13.1327 81.3758 14.7571 79.1376 16.2328C78.4375 16.7019 77.5537 16.8849 76.7962 17.1938Z" fill="#EB5B31"/>
<path fill-rule="evenodd" clip-rule="evenodd" d="M37.5663 117.349C44.1889 119.637 50.4328 118.756 56.4128 115.324C56.4128 115.37 56.4816 115.496 56.4472 115.519C52.8432 118.424 49.3424 121.685 44.2348 121.17C42.364 120.975 40.5275 120.198 38.76 119.465C38.1057 119.202 37.704 118.344 37.1875 117.761C37.3138 117.624 37.4285 117.475 37.5548 117.338L37.5663 117.349Z" fill="#222222"/>
<path fill-rule="evenodd" clip-rule="evenodd" d="M23.9688 10.2274C25.5412 5.86883 35.8482 3.69529 41.1854 6.47514C35.1481 6.2921 29.6502 8.20254 23.9688 10.2274Z" fill="#222222"/>
<path fill-rule="evenodd" clip-rule="evenodd" d="M50.157 122.302C53.3134 121.021 56.4698 119.739 59.6147 118.458C59.6721 118.538 59.7295 118.618 59.7869 118.698C57.3536 120.117 54.9547 121.627 52.4526 122.897C51.8328 123.205 50.8342 122.748 50.0078 122.634C50.0537 122.519 50.1111 122.416 50.1685 122.302H50.157Z" fill="#222222"/>
<path fill-rule="evenodd" clip-rule="evenodd" d="M32.0781 3.69484C36.3593 1.86448 40.4339 3.0199 44.4971 3.24869C44.4971 3.39741 44.4971 3.54612 44.4971 3.69484H32.0781Z" fill="#222222"/>
<path fill-rule="evenodd" clip-rule="evenodd" d="M125.303 38.2891C124.591 36.5502 123.34 35.6808 121.297 35.6351C122.272 34.7199 123.34 34.5941 124.212 35.1088C125.36 35.7838 125.371 37.0765 125.291 38.3005L125.303 38.2891Z" fill="#222222"/>
<path fill-rule="evenodd" clip-rule="evenodd" d="M128 36.8355C126.623 35.2339 125.486 33.9069 124.281 32.4999C126.393 32.3168 127.059 33.8726 128 36.8355Z" fill="#222222"/>
</g>
<defs>
<clipPath id="clip0_2680_27843">
<rect width="128" height="123" fill="white"/>
</clipPath>
</defs>
</svg>
