<svg width="107" height="96" viewBox="0 0 107 96" fill="none" xmlns="http://www.w3.org/2000/svg">
<path d="M94.3096 15.7238C91.14 11.8204 91.8226 9.19811 96.3439 7.86588C98.5416 4.54879 100.526 4.35664 102.265 7.27142C104.93 8.83619 106.157 12.1482 107.288 14.8466C109.576 20.4001 110.515 26.5772 110.42 32.5681C110.168 47.6709 102.629 61.4841 91.308 71.1999C83.8907 77.5714 73.3924 84.0876 63.3562 81.0764C57.7989 79.415 52.8501 74.3475 49.3774 69.8702C42.6149 61.1624 39.1404 50.1387 39.4136 39.1286C39.5188 34.584 39.6535 27.1334 42.6493 23.3839C49.2562 15.1477 59.5634 26.309 62.2868 31.4382C68.4064 42.9744 65.3698 56.0688 61.0786 67.6511C57.3915 77.5736 50.9636 87.6865 39.5763 89.678C33.5378 90.7379 27.0113 89.8935 21.5824 87.0234C16.7214 84.4547 12.9033 80.2453 10.6274 75.2649C9.7544 73.3643 6.83225 67.1465 8.26176 64.8619C12.6941 57.8159 16.9178 70.0862 17.797 73.1063C18.5963 75.8308 25.691 71.3973 25.0114 69.1165C23.146 62.9147 20.4986 56.0305 12.7871 56.3787C8.87318 56.5527 4.74731 59.1531 2.8807 62.5606C-5.21981 77.3083 12.6966 93.3421 25.9557 94.9328C39.076 96.5188 52.8605 90.1673 60.3916 79.381C69.1 66.9229 75.419 46.4215 70.1761 31.5919C65.9604 19.6843 50.9641 8.90098 40.1186 20.0642C30.2921 30.1643 32.2127 50.4128 36.8674 62.223C42.0606 75.4002 55.2555 90.4195 70.92 86.1727C86.4278 81.9523 101.233 68.4928 108.973 54.7204C116.38 41.4397 121.053 14.746 107.361 3.27187C97.8523 -4.69939 82.8264 7.55066 91.1114 17.9996C91.8346 18.9148 94.8579 16.755 94.3096 15.7238Z" fill="#CACACA"/>
</svg>
