<svg width="272" height="150" viewBox="0 0 272 150" fill="none" xmlns="http://www.w3.org/2000/svg">
<mask id="path-1-inside-1_2754_3270" fill="white">
<path fill-rule="evenodd" clip-rule="evenodd" d="M269.054 43.1086C262.612 58.2143 245.399 65.4288 230.187 59.6152L174.946 109.133C177.478 116.124 177.47 124.052 174.323 131.431C167.727 146.898 149.839 154.091 134.37 147.499C119.632 141.218 112.406 124.689 117.462 109.765L86.2724 77.6688C78.853 80.9124 70.164 81.2084 62.1277 77.7837C59.2246 76.5465 56.613 74.9117 54.3294 72.9698L17.0798 94.3695C17.8792 99.7427 17.2501 105.397 14.9625 110.761C8.36641 126.227 -9.52092 133.421 -24.9899 126.829C-40.4589 120.236 -47.6518 102.354 -41.0557 86.888C-34.4596 71.4217 -16.5722 64.2278 -1.10323 70.8201C1.25512 71.8252 3.42111 73.0926 5.37521 74.5739L43.7404 52.5333C43.2957 47.677 44.0146 42.6436 46.062 37.843C52.6581 22.3767 70.5454 15.1828 86.0144 21.7751C101.3 28.2893 108.505 45.8274 102.309 61.1651L132.586 92.3232C140.322 88.4208 149.663 87.8281 158.257 91.4906C158.688 91.6744 159.113 91.8669 159.531 92.068L213.349 43.8261C209.917 36.3115 209.539 27.4343 213.036 19.2359C219.632 3.76952 237.519 -3.4243 252.988 3.16799C268.457 9.76027 275.65 27.6423 269.054 43.1086Z"/>
</mask>
<path fill-rule="evenodd" clip-rule="evenodd" d="M269.054 43.1086C262.612 58.2143 245.399 65.4288 230.187 59.6152L174.946 109.133C177.478 116.124 177.47 124.052 174.323 131.431C167.727 146.898 149.839 154.091 134.37 147.499C119.632 141.218 112.406 124.689 117.462 109.765L86.2724 77.6688C78.853 80.9124 70.164 81.2084 62.1277 77.7837C59.2246 76.5465 56.613 74.9117 54.3294 72.9698L17.0798 94.3695C17.8792 99.7427 17.2501 105.397 14.9625 110.761C8.36641 126.227 -9.52092 133.421 -24.9899 126.829C-40.4589 120.236 -47.6518 102.354 -41.0557 86.888C-34.4596 71.4217 -16.5722 64.2278 -1.10323 70.8201C1.25512 71.8252 3.42111 73.0926 5.37521 74.5739L43.7404 52.5333C43.2957 47.677 44.0146 42.6436 46.062 37.843C52.6581 22.3767 70.5454 15.1828 86.0144 21.7751C101.3 28.2893 108.505 45.8274 102.309 61.1651L132.586 92.3232C140.322 88.4208 149.663 87.8281 158.257 91.4906C158.688 91.6744 159.113 91.8669 159.531 92.068L213.349 43.8261C209.917 36.3115 209.539 27.4343 213.036 19.2359C219.632 3.76952 237.519 -3.4243 252.988 3.16799C268.457 9.76027 275.65 27.6423 269.054 43.1086Z" fill="#F3F3F3"/>
<path d="M230.187 59.6152L232.44 53.7259L228.844 52.3519L225.978 54.9211L230.187 59.6152ZM269.054 43.1086L274.854 45.581L274.854 45.581L269.054 43.1086ZM174.946 109.133L170.737 104.439L167.568 107.28L169.017 111.281L174.946 109.133ZM174.323 131.431L168.522 128.959L174.323 131.431ZM134.37 147.499L136.844 141.699L136.844 141.699L134.37 147.499ZM117.462 109.765L123.434 111.787L124.671 108.135L121.985 105.371L117.462 109.765ZM86.2724 77.6688L90.7954 73.2749L87.7507 70.1416L83.7469 71.892L86.2724 77.6688ZM62.1277 77.7837L59.6545 83.5837L59.6545 83.5837L62.1277 77.7837ZM54.3294 72.9698L58.415 68.1667L55.0355 65.293L51.1884 67.5032L54.3294 72.9698ZM17.0798 94.3695L13.9389 88.9028L10.2099 91.0451L10.8426 95.298L17.0798 94.3695ZM14.9625 110.761L20.763 113.233L14.9625 110.761ZM-24.9899 126.829L-27.4632 132.629L-27.4632 132.629L-24.9899 126.829ZM-1.10323 70.8201L-3.57646 76.6202L-3.57646 76.6202L-1.10323 70.8201ZM5.37521 74.5739L1.56503 79.5983L4.89375 82.1216L8.51618 80.0405L5.37521 74.5739ZM43.7404 52.5333L46.8814 57.9999L50.3888 55.9849L50.02 51.9575L43.7404 52.5333ZM46.062 37.843L51.8624 40.3153L46.062 37.843ZM86.0144 21.7751L83.5412 27.5752L83.5412 27.5752L86.0144 21.7751ZM102.309 61.1651L96.4619 58.8047L94.9233 62.6133L97.7858 65.559L102.309 61.1651ZM132.586 92.3232L128.063 96.7171L131.291 100.038L135.426 97.9522L132.586 92.3232ZM158.257 91.4906L155.784 97.2906L155.784 97.2906L158.257 91.4906ZM159.531 92.068L156.799 97.7505L160.6 99.5774L163.74 96.7622L159.531 92.068ZM213.349 43.8261L217.558 48.5203L221.011 45.4247L219.085 41.2068L213.349 43.8261ZM213.036 19.2359L218.836 21.7082L213.036 19.2359ZM252.988 3.16799L250.515 8.96806L252.988 3.16799ZM227.935 65.5046C246.3 72.5235 267.077 63.8166 274.854 45.581L263.253 40.6363C258.146 52.612 244.497 58.3341 232.44 53.7259L227.935 65.5046ZM179.155 113.827L234.396 64.3094L225.978 54.9211L170.737 104.439L179.155 113.827ZM180.123 133.904C183.921 124.999 183.929 115.417 180.876 106.986L169.017 111.281C171.027 116.83 171.019 123.105 168.522 128.959L180.123 133.904ZM131.897 153.299C150.569 161.257 172.161 152.573 180.123 133.904L168.522 128.959C163.292 141.222 149.109 146.926 136.844 141.699L131.897 153.299ZM111.489 107.743C105.385 125.765 114.104 145.716 131.897 153.299L136.844 141.699C125.16 136.72 119.428 123.613 123.434 111.787L111.489 107.743ZM121.985 105.371L90.7954 73.2749L81.7494 82.0626L112.939 114.159L121.985 105.371ZM59.6545 83.5837C69.3545 87.7175 79.853 87.3561 88.798 83.4455L83.7469 71.892C77.853 74.4687 70.9735 74.6993 64.601 71.9836L59.6545 83.5837ZM50.2437 77.7729C53.006 80.1218 56.1601 82.0946 59.6545 83.5837L64.601 71.9836C62.2892 70.9984 60.2201 69.7016 58.415 68.1667L50.2437 77.7729ZM20.2208 99.8361L57.4703 78.4364L51.1884 67.5032L13.9389 88.9028L20.2208 99.8361ZM20.763 113.233C23.5205 106.767 24.283 99.9333 23.3171 93.4409L10.8426 95.298C11.4755 99.552 10.9797 104.026 9.16209 108.288L20.763 113.233ZM-27.4632 132.629C-8.79101 140.586 12.8007 131.903 20.763 113.233L9.16209 108.288C3.93215 120.551 -10.2508 126.256 -22.5167 121.029L-27.4632 132.629ZM-46.8561 84.4156C-54.8186 103.086 -46.1356 124.671 -27.4632 132.629L-22.5167 121.029C-34.7823 115.801 -40.4851 101.623 -35.2552 89.3603L-46.8561 84.4156ZM1.37 65.0201C-17.3021 57.0627 -38.8938 65.7459 -46.8561 84.4156L-35.2552 89.3603C-30.0253 77.0974 -15.8423 71.393 -3.57646 76.6202L1.37 65.0201ZM9.18539 69.5495C6.82248 67.7583 4.20795 66.2295 1.37 65.02L-3.57646 76.6202C-1.69771 77.4209 0.0197627 78.4269 1.56503 79.5983L9.18539 69.5495ZM40.5994 47.0667L2.23424 69.1073L8.51618 80.0405L46.8814 57.9999L40.5994 47.0667ZM40.2615 35.3706C37.7944 41.1555 36.9232 47.2386 37.4608 53.1091L50.02 51.9575C49.6681 48.1155 50.2348 44.1318 51.8624 40.3153L40.2615 35.3706ZM88.4877 15.9751C69.8155 8.01771 48.2238 16.7009 40.2615 35.3707L51.8624 40.3153C57.0924 28.0524 71.2753 22.348 83.5412 27.5752L88.4877 15.9751ZM108.156 63.5256C115.636 45.0085 106.94 23.8385 88.4876 15.9751L83.5412 27.5752C95.6609 32.7401 101.373 46.6462 96.4619 58.8047L108.156 63.5256ZM97.7858 65.559L128.063 96.7171L137.109 87.9293L106.832 56.7713L97.7858 65.559ZM160.73 85.6905C150.355 81.2689 139.071 81.9906 129.747 86.6942L135.426 97.9522C141.574 94.851 148.971 94.3873 155.784 97.2906L160.73 85.6905ZM162.264 86.3855C161.76 86.1433 161.249 85.9115 160.73 85.6905L155.784 97.2906C156.128 97.4372 156.466 97.5905 156.799 97.7505L162.264 86.3855ZM209.14 39.132L155.322 87.3738L163.74 96.7622L217.558 48.5203L209.14 39.132ZM207.235 16.7635C203.014 26.6602 203.476 37.3861 207.612 46.4454L219.085 41.2068C216.359 35.2369 216.064 28.2083 218.836 21.7082L207.235 16.7635ZM255.461 -2.63209C236.789 -10.5894 215.198 -1.90621 207.235 16.7635L218.836 21.7082C224.066 9.44525 238.249 3.74082 250.515 8.96806L255.461 -2.63209ZM274.854 45.581C282.817 26.911 274.134 5.32536 255.461 -2.63209L250.515 8.96806C262.781 14.1952 268.483 28.3736 263.253 40.6363L274.854 45.581Z" fill="white" mask="url(#path-1-inside-1_2754_3270)"/>
</svg>
