<svg width="102" height="102" viewBox="0 0 102 102" fill="none" xmlns="http://www.w3.org/2000/svg">
<g clip-path="url(#clip0_2680_28485)">
<path d="M77.6174 35.0996C71.6037 31.7351 65.3777 33.42 60.4091 36.9594C61.5048 31.6265 61.1758 25.6134 57.4739 21.7373C50.981 14.9348 43.263 16.4696 37.2338 22.3114C30.1818 29.1434 28.6082 41.2723 27.2235 50.5006C25.8725 59.527 24.3661 70.1551 27.2438 79.1983C27.5374 80.1201 28.3756 80.6041 29.2179 80.6731C29.2458 80.6766 29.2707 80.6909 29.3037 80.691C33.4937 80.8497 37.8927 79.0206 41.9314 78.1372C47.5084 76.9217 53.0307 75.6399 58.4331 73.8652C67.8396 70.7731 77.4323 65.0318 81.1522 55.6248C83.5389 49.5894 84.9965 39.224 77.6187 35.0972L77.6174 35.0996ZM64.3635 65.9716C54.1778 71.7404 41.8957 71.8287 31.0939 75.8097C30.1959 64.1475 31.795 52.2674 34.3302 41.0636C35.963 33.8469 38.7347 25.1917 46.4281 22.3498C58.5766 17.8628 54.5294 38.234 54.3049 42.7357C54.2355 44.1025 55.7107 44.8847 56.8923 44.6532C57.4688 44.7806 58.1051 44.6895 58.6912 44.2028C63.9283 39.8479 76.2467 32.8667 78.126 44.7824C79.5961 54.1036 71.6546 61.8446 64.3621 65.9739L64.3635 65.9716Z" fill="white"/>
<path d="M91.8796 45.2449C93.2003 45.1001 94.5947 44.9884 95.2909 43.7307C95.8088 42.7935 95.4395 41.6983 94.5192 41.1038C93.4662 40.4231 92.3104 40.6789 91.1839 40.8378C90.1431 40.9862 89.1095 41.145 88.0718 41.3109C87.1559 41.4555 86.532 42.4041 86.5554 43.2711C86.5874 44.4277 87.5645 45.2858 88.711 45.3565C89.7813 45.4213 90.8249 45.3599 91.8796 45.2449Z" fill="#2D2D2D"/>
<path d="M85.9848 38.3763C87.1413 39.2338 88.5412 38.8312 89.7701 38.3109C91.0379 37.7752 91.9357 37.0416 92.616 35.8632C93.5318 34.277 91.6027 32.414 89.9806 33.2763C89.2444 33.6669 88.5007 34.0531 87.7572 34.4332C87.1841 34.7251 86.537 34.8636 85.983 35.2488C84.6594 35.8123 84.7023 37.6738 85.9809 38.3773L85.9848 38.3763Z" fill="#2D2D2D"/>
<path d="M94.2906 47.8571C93.4143 46.8359 92.0038 46.9067 90.8009 46.9394C89.8683 46.9636 88.9304 46.928 87.9949 46.9284C86.2512 46.927 85.2717 49.5829 87.127 50.379C88.1953 50.8378 89.1923 51.1099 90.3337 51.2757C91.9622 51.5109 93.662 51.6514 94.64 50.1643C95.1269 49.4243 94.8422 48.5044 94.2892 47.8595L94.2906 47.8571Z" fill="#2D2D2D"/>
<path d="M34.6078 14.9542C34.1232 14.1908 33.5917 13.4571 33.0497 12.7301C32.5185 12.0187 31.746 11.5759 30.8437 11.7947C29.8681 12.0312 29.177 13.096 29.5213 14.0851C29.836 14.9876 30.2496 15.8681 30.7273 16.7066C31.2477 17.6204 31.7211 18.6903 32.4744 19.4477C33.1458 20.123 34.2226 20.28 35.0281 19.8441C35.9013 19.3714 36.1491 18.4712 35.9716 17.5436C35.7963 16.6236 35.1087 15.7524 34.605 14.959L34.6078 14.9542Z" fill="#2D2D2D"/>
<path d="M41.5285 15.1109C42.3013 13.9448 41.7949 12.4322 41.4341 11.1616C41.1087 10.019 40.617 8.90052 39.8923 7.93839C39.3609 7.23323 38.6036 6.79286 37.7026 7.00927C36.6961 7.25329 36.0993 8.28704 36.3912 9.28069C36.6742 10.2439 36.9222 11.2217 37.1859 12.1895C37.505 13.3601 37.5065 14.4833 38.4021 15.4366C39.3378 16.4352 40.8684 16.1049 41.5299 15.1085L41.5285 15.1109Z" fill="#2D2D2D"/>
<path d="M45.7152 10.7055C45.6708 11.5808 45.5316 12.4078 45.8224 13.2712C46.2266 14.4782 48.1404 15.3682 49.0612 14.1927C49.7618 13.301 49.9262 12.5107 49.9808 11.3821C50.0249 10.4844 50.0143 9.58362 50.0671 8.68786C50.2077 6.38221 46.646 6.04878 46.0683 8.11785C45.833 8.962 45.7596 9.8301 45.7152 10.7055Z" fill="#2D2D2D"/>
</g>
<defs>
<clipPath id="clip0_2680_28485">
<rect width="75" height="74" fill="white" transform="translate(37) rotate(30)"/>
</clipPath>
</defs>
</svg>
