<svg width="60" height="60" viewBox="0 0 60 60" fill="none" xmlns="http://www.w3.org/2000/svg">
<path d="M4.55469 17.4854H13.824C14.3094 17.4854 14.7029 17.092 14.7029 16.6064C14.7029 16.1209 14.3094 15.7275 13.824 15.7275H4.55469C4.0693 15.7275 3.67578 16.1209 3.67578 16.6064C3.67578 17.092 4.06918 17.4854 4.55469 17.4854Z" fill="black"/>
<path d="M13.5054 21.7168H9.84375C9.35836 21.7168 8.96484 22.1102 8.96484 22.5957C8.96484 23.0812 9.35836 23.4746 9.84375 23.4746H13.5054C13.9908 23.4746 14.3843 23.0812 14.3843 22.5957C14.3843 22.1102 13.9908 21.7168 13.5054 21.7168Z" fill="black"/>
<path d="M0.878906 27.812H9.84516C10.3305 27.812 10.7241 27.4186 10.7241 26.9331C10.7241 26.4476 10.3305 26.0542 9.84516 26.0542H0.878906C0.393516 26.0542 0 26.4476 0 26.9331C0 27.4186 0.393516 27.812 0.878906 27.812Z" fill="black"/>
<path d="M14.7029 43.3931C14.7029 42.9076 14.3094 42.5142 13.824 42.5142H4.55469C4.0693 42.5142 3.67578 42.9076 3.67578 43.3931C3.67578 43.8786 4.0693 44.272 4.55469 44.272H13.824C14.3094 44.272 14.7029 43.8786 14.7029 43.3931Z" fill="black"/>
<path d="M13.5054 36.5254H9.84375C9.35836 36.5254 8.96484 36.9188 8.96484 37.4043C8.96484 37.8898 9.35836 38.2832 9.84375 38.2832H13.5054C13.9908 38.2832 14.3843 37.8898 14.3843 37.4043C14.3843 36.9188 13.9908 36.5254 13.5054 36.5254Z" fill="black"/>
<path d="M10.7241 33.0674C10.7241 32.5819 10.3305 32.1885 9.84516 32.1885H0.878906C0.393516 32.1885 0 32.5819 0 33.0674C0 33.5529 0.393516 33.9463 0.878906 33.9463H9.84516C10.3305 33.9463 10.7241 33.5529 10.7241 33.0674Z" fill="black"/>
<path d="M37.4453 19.4334C37.9308 19.4334 38.3242 19.04 38.3242 18.5545V17.2129C38.3242 16.7274 37.9308 16.334 37.4453 16.334C36.9598 16.334 36.5664 16.7274 36.5664 17.2129V18.5545C36.5664 19.04 36.9598 19.4334 37.4453 19.4334Z" fill="black"/>
<path d="M47.1092 20.3364C46.7659 19.9933 46.2095 19.9933 45.8662 20.3364L44.9176 21.2851C44.5743 21.6284 44.5743 22.1848 44.9176 22.5281C45.2611 22.8713 45.8174 22.8712 46.1606 22.5281L47.1092 21.5795C47.4524 21.2362 47.4524 20.6798 47.1092 20.3364Z" fill="black"/>
<path d="M48.8906 29.1211C48.4051 29.1211 48.0117 29.5145 48.0117 30C48.0117 30.4855 48.4051 30.8789 48.8906 30.8789H50.2321C50.7176 30.8789 51.111 30.4855 51.111 30C51.111 29.5145 50.7176 29.1211 50.2321 29.1211H48.8906Z" fill="black"/>
<path d="M46.1606 37.4717C45.8172 37.1286 45.2608 37.1286 44.9176 37.4717C44.5743 37.8151 44.5743 38.3715 44.9176 38.7147L45.8662 39.6633C46.2097 40.0066 46.766 40.0065 47.1092 39.6633C47.4525 39.32 47.4525 38.7636 47.1092 38.4203L46.1606 37.4717Z" fill="black"/>
<path d="M36.5664 41.4458V42.7872C36.5664 43.2728 36.9598 43.6662 37.4453 43.6662C37.9308 43.6662 38.3242 43.2728 38.3242 42.7872V41.4458C38.3242 40.9603 37.9308 40.5669 37.4453 40.5669C36.9598 40.5669 36.5664 40.9604 36.5664 41.4458Z" fill="black"/>
<path d="M28.7295 37.4717L27.7809 38.4203C27.4376 38.7637 27.4376 39.3201 27.7809 39.6633C28.1242 40.0066 28.6806 40.0065 29.0238 39.6633L29.9724 38.7147C30.3156 38.3713 30.3156 37.8149 29.9724 37.4717C29.6293 37.1286 29.0727 37.1286 28.7295 37.4717Z" fill="black"/>
<path d="M24.6562 29.1211C24.1709 29.1211 23.7773 29.5145 23.7773 30C23.7773 30.4855 24.1709 30.8789 24.6562 30.8789H25.9978C26.4832 30.8789 26.8767 30.4855 26.8767 30C26.8767 29.5145 26.4832 29.1211 25.9978 29.1211H24.6562Z" fill="black"/>
<path d="M29.9724 21.2851L29.0238 20.3364C28.6805 19.9933 28.124 19.9933 27.7809 20.3364C27.4376 20.6798 27.4376 21.2362 27.7809 21.5795L28.7295 22.5281C29.0729 22.8713 29.6293 22.8712 29.9724 22.5281C30.3156 22.1848 30.3156 21.6284 29.9724 21.2851Z" fill="black"/>
<path d="M42.1715 30.0001C42.1715 29.5146 41.7781 29.1212 41.2926 29.1212H38.3242V22.5957C38.3242 22.1102 37.9308 21.7168 37.4453 21.7168C36.9598 21.7168 36.5664 22.1102 36.5664 22.5957V30.0001C36.5664 30.4856 36.9598 30.879 37.4453 30.879H41.2926C41.778 30.879 42.1715 30.4856 42.1715 30.0001Z" fill="black"/>
<path d="M54.1107 29.8548C54.5953 29.8253 54.9642 29.4088 54.9348 28.9243C54.3757 19.7013 46.6934 12.4766 37.4452 12.4766C27.7828 12.4766 19.9219 20.3375 19.9219 30C19.9219 39.6623 27.7828 47.5232 37.4452 47.5232C46.1017 47.5232 53.4881 41.1808 54.7731 32.622C54.8452 32.142 54.5145 31.6945 54.0343 31.6224C53.5555 31.5506 53.1068 31.8809 53.0347 32.3612C51.8804 40.0503 45.2411 45.7655 37.4452 45.7655C28.7521 45.7655 21.6797 38.6932 21.6797 30.0001C21.6797 21.307 28.7521 14.2345 37.4452 14.2345C45.7656 14.2345 52.6772 20.7338 53.1802 29.0309C53.2094 29.5152 53.6257 29.8829 54.1107 29.8548Z" fill="black"/>
<path d="M37.443 7.44482C34.3515 7.44482 31.3225 8.08619 28.5346 9.28561H13.0273C12.542 9.28561 12.1484 9.679 12.1484 10.1645C12.1484 10.65 12.542 11.0434 13.0273 11.0434H25.2281C23.5784 12.1051 22.0598 13.3858 20.7208 14.8642C20.395 15.2238 20.4225 15.7797 20.7822 16.1056C21.1421 16.4315 21.6977 16.4039 22.0237 16.0442C25.9614 11.6963 31.5816 9.20264 37.443 9.20264C48.9107 9.20264 58.2405 18.5323 58.2405 30C58.2405 41.4676 48.9109 50.7974 37.443 50.7974C25.9753 50.7974 16.6456 41.4678 16.6456 30C16.6456 25.9842 17.7928 22.0866 19.9629 18.7282C20.2263 18.3205 20.1093 17.7765 19.7016 17.5131C19.2939 17.2498 18.75 17.3665 18.4864 17.7743C16.1321 21.4174 14.8878 25.645 14.8878 30C14.8878 37.9413 19.0135 44.9365 25.2337 48.9566H13.0275C12.5421 48.9566 12.1486 49.35 12.1486 49.8355C12.1486 50.321 12.5421 50.7144 13.0275 50.7144H28.5226C31.2601 51.8979 34.2761 52.5552 37.4431 52.5552C49.88 52.5552 59.9983 42.437 59.9983 30C59.9983 17.563 49.88 7.44482 37.443 7.44482Z" fill="black"/>
</svg>
