<svg width="50" height="50" fill="none" xmlns="http://www.w3.org/2000/svg"><g id="Frame 47" clip-path="url(#clip0_610_1427)"><g id="Clip path group"><mask id="mask0_610_1427" style="mask-type:luminance" maskUnits="userSpaceOnUse" x="0" y="0" width="50" height="50"><g id="clip0_610_1317"><path id="Vector" d="M50 0H0v50h50V0z" fill="#fff"/></g></mask><g mask="url(#mask0_610_1427)"><g id="Group"><g id="Group_2" filter="url(#filter0_d_610_1427)"><path id="Vector_2" d="M25.033 44.928a20.01 20.01 0 01-5.032-.646A19.785 19.785 0 017.83 35.1a19.79 19.79 0 01-2.113-15.098A19.785 19.785 0 0114.9 7.832a19.788 19.788 0 0115.098-2.114 19.785 19.785 0 0112.17 9.183 19.79 19.79 0 012.113 15.098 19.785 19.785 0 01-9.182 12.17 19.804 19.804 0 01-10.066 2.759zm-.031-35.704c-7.015 0-13.433 4.72-15.273 11.818-2.183 8.42 2.892 17.047 11.312 19.229a15.673 15.673 0 0011.957-1.674 15.674 15.674 0 007.272-9.638A15.674 15.674 0 0038.597 17a15.675 15.675 0 00-9.638-7.272 15.758 15.758 0 00-3.956-.506h-.001z" fill="#FFCE00"/><path id="Vector_3" d="M48.728 43.102c-.77.063-1.481.203-2.074.333h-.005c-3.049.696-5.956.276-7.977-1.15-.844-.617-8.292-11.093-12.467-18.17-3.724-6.312-7.657-14.24-8.948-16.846a22.62 22.62 0 00-.396-.786c-1.688-2.838-3.977-4.568-6.622-5.004-2.63-.434-5.38.443-7.745 2.467A13.672 13.672 0 00.811 5.669L0 6.654l1.272-.103a15.49 15.49 0 002.078-.335c3.049-.695 5.956-.276 7.977 1.151.802.573 9.08 10.74 13.208 17.733 2.56 4.341 5.554 10.613 8.429 17.663.11.27.133.327.15.36 1.39 2.963 3.416 4.81 5.858 5.34a7.09 7.09 0 001.532.163c2.286 0 4.762-1.02 7-2.918l.012-.01c.702-.632 1.218-1.16 1.673-1.715L50 43l-1.272.103z" fill="#FFCE00"/><path id="Vector_4" d="M45.875 2.496l-.01-.012c-.632-.702-1.16-1.218-1.714-1.674L43.166 0l.103 1.271c.063.77.203 1.48.333 2.074v.005c.696 3.048.277 5.956-1.15 7.977-.617.844-11.093 8.292-18.168 12.467-6.312 3.724-14.241 7.657-16.847 8.949-.622.308-.737.365-.786.395-2.838 1.688-4.568 3.977-5.004 6.622-.433 2.63.444 5.38 2.467 7.745.518.604 1.08 1.155 1.722 1.684l.985.81-.103-1.271c-.063-.77-.204-1.48-.334-2.079-.695-3.048-.276-5.956 1.151-7.977.573-.802 10.739-9.08 17.733-13.208 4.339-2.56 10.611-5.553 17.66-8.428.273-.111.33-.134.362-.15 2.962-1.39 4.81-3.416 5.34-5.859.581-2.672-.423-5.78-2.756-8.53v-.001z" fill="#FFCE00"/><path id="Vector_5" d="M36.78 29.217c-.315-.075-.627-.155-.942-.221-.154-.033-.191-.107-.153-.253.067-.25.116-.505.18-.757.033-.125.012-.195-.127-.228a860.228 860.228 0 01-3.892-.912c-.137-.033-.19.017-.218.144-.052.247-.107.495-.174.737-.04.149-.004.22.152.25.254.051.504.122.758.174.14.03.186.095.148.237-.076.3-.144.6-.213.902-.031.138-.11.184-.245.151l-2.09-.488c-.137-.031-.184-.103-.15-.242.075-.293.134-.589.21-.88.037-.142-.003-.205-.145-.236-.466-.104-.928-.222-1.394-.322-.17-.036-.218-.11-.171-.277.069-.25.117-.505.18-.757.032-.123-.007-.182-.13-.208a16.24 16.24 0 01-.778-.183c-.135-.035-.192.012-.219.143-.054.253-.122.504-.175.759-.03.144-.089.197-.245.163-.441-.094-.447-.088-.569.36-.038.145-.108.175-.242.14-.252-.064-.506-.114-.757-.18-.137-.037-.21-.008-.239.14-.051.255-.112.508-.176.758-.034.13 0 .195.135.224.254.052.504.123.758.174.16.03.206.102.166.262-.116.463-.215.93-.332 1.392-.037.15 0 .218.154.249.282.056.559.134.84.192.137.028.186.084.165.228-.058.397-.176.78-.261 1.17-.069.316-.15.628-.22.944-.03.137-.099.187-.24.151a35.74 35.74 0 00-.922-.217c-.123-.027-.159-.092-.128-.212.064-.26.115-.52.185-.779.041-.152-.007-.217-.157-.246-.247-.049-.493-.11-.738-.172-.126-.032-.194-.007-.226.131a833.036 833.036 0 01-.913 3.893c-.033.14.021.19.147.216.254.054.504.122.758.175.148.03.197.097.159.248-.081.313-.148.628-.22.942l-.041.026c-.313-.074-.625-.153-.938-.22-.149-.032-.191-.097-.159-.25.098-.46.093-.46-.36-.566-.204-.048-.409-.09-.611-.146-.143-.04-.214-.012-.254.146-.114.463-.12.46-.593.35a76.844 76.844 0 00-.653-.151.922.922 0 00-.025-.042c.072-.307.153-.612.215-.922.035-.172.115-.213.279-.167.242.067.492.113.736.177.125.032.195.01.227-.13.301-1.297.606-2.595.912-3.892.028-.117.006-.186-.123-.213-.266-.058-.533-.12-.798-.187-.128-.033-.178.021-.203.138-.057.261-.125.519-.18.78-.03.138-.092.187-.235.15-.3-.077-.6-.146-.901-.211-.142-.03-.182-.106-.15-.242.167-.702.334-1.406.496-2.11.031-.134.1-.167.227-.135.279.07.562.124.839.202.174.048.253.012.291-.174.094-.453.213-.9.31-1.354.036-.165.103-.223.275-.175.25.07.506.117.757.18.12.03.184 0 .211-.126.056-.26.117-.52.183-.778.035-.131-.003-.194-.137-.222-.26-.055-.519-.126-.778-.18-.142-.03-.177-.096-.149-.238.091-.448.088-.454-.355-.57-.14-.038-.182-.1-.145-.24.067-.257.118-.519.185-.777.034-.132-.007-.194-.14-.221a13.748 13.748 0 01-.757-.178c-.144-.038-.204.011-.232.15-.05.248-.122.49-.169.739-.033.174-.115.209-.28.166-.442-.112-.89-.2-1.329-.32-.201-.053-.276.005-.31.201-.049.269-.126.533-.183.8-.033.146-.11.199-.256.163-.69-.163-1.378-.324-2.069-.482-.143-.033-.2-.1-.163-.253.077-.299.148-.599.212-.901.031-.146.104-.178.24-.143.25.065.507.116.757.181.135.036.21.011.24-.138.05-.255.112-.507.177-.758.033-.129.003-.193-.134-.225a832.134 832.134 0 01-3.89-.912c-.14-.034-.189.022-.215.147-.055.254-.123.505-.175.758-.03.15-.098.197-.249.158-.312-.08-.627-.148-.942-.22a.98.98 0 00-.025-.042c.074-.312.154-.624.22-.938.032-.148.098-.19.25-.157.458.097.459.092.565-.361.048-.204.09-.41.146-.612.039-.143.01-.214-.146-.252-.462-.115-.46-.12-.35-.595l.152-.653.04-.025c.314.075.627.154.942.221.154.033.192.106.153.253-.067.25-.116.506-.18.757-.032.124-.013.195.127.229 1.298.3 2.595.605 3.89.911.118.027.187.007.214-.122.057-.268.12-.534.187-.798.032-.129-.02-.178-.138-.205-.26-.056-.517-.125-.778-.18-.137-.029-.189-.09-.151-.234.076-.3.147-.6.21-.902.034-.156.119-.186.26-.151.688.165 1.377.328 2.066.488.147.034.195.11.157.258-.07.272-.12.549-.197.817-.05.174-.012.253.174.291.453.094.9.214 1.352.31.166.036.223.104.176.275-.07.25-.117.505-.181.757-.03.119 0 .184.126.21.261.056.52.117.779.184.131.034.194-.003.222-.138.054-.26.125-.518.18-.779.03-.141.096-.177.237-.149.447.091.453.088.571-.354.038-.14.101-.181.24-.146.258.067.52.119.777.185.134.035.193-.008.22-.14.054-.254.112-.508.178-.758.04-.146-.012-.204-.15-.233-.234-.047-.462-.12-.698-.157-.218-.035-.251-.134-.199-.333.113-.42.203-.846.302-1.268.04-.178-.03-.288-.213-.33-.26-.063-.517-.128-.778-.182-.153-.031-.193-.109-.159-.255.167-.695.332-1.391.491-2.089.034-.143.104-.18.241-.145.3.076.6.146.9.211.146.031.178.104.143.24-.065.251-.115.507-.18.758-.036.134-.012.21.138.24.253.05.506.111.758.176.128.033.193.003.225-.133.301-1.298.606-2.596.913-3.892.033-.14-.023-.189-.148-.215-.253-.055-.504-.122-.758-.175-.15-.03-.197-.098-.157-.248.08-.313.147-.628.22-.942l.04-.025c.313.074.624.153.938.22.148.032.191.097.159.25-.098.46-.092.46.36.566.204.048.409.09.611.146.143.04.214.013.254-.145.114-.463.12-.46.593-.35l.653.15.025.04c-.075.315-.154.627-.221.943-.033.153-.106.19-.253.152-.25-.066-.505-.116-.757-.18-.124-.033-.195-.012-.227.128a863.831 863.831 0 01-.913 3.892c-.032.137.016.19.145.218.246.052.493.107.737.174.147.04.219.005.25-.152.05-.254.121-.504.174-.759.03-.14.094-.186.236-.15.3.078.6.147.902.212.124.026.162.088.135.207-.022.102-.029.208-.052.31-.136.582-.273 1.16-.41 1.741-.061.259-.073.267-.324.21-.267-.062-.534-.119-.798-.19-.15-.04-.216.003-.249.155-.102.466-.22.928-.321 1.394-.036.161-.107.205-.265.162-.25-.067-.505-.116-.757-.18-.134-.035-.193.008-.222.139-.053.254-.11.507-.177.758-.04.145.012.204.15.232.234.048.463.12.698.158.218.035.25.133.199.333-.114.44-.143.38.304.477.192.041.262.113.201.313-.069.227-.106.465-.169.695-.04.147-.008.222.15.252.247.047.493.107.737.173.14.037.207 0 .236-.145.052-.254.122-.504.174-.759.03-.15.1-.193.25-.156.463.115.93.214 1.392.331.161.04.23 0 .262-.163.056-.282.134-.56.193-.84.03-.145.094-.207.248-.17.695.166 1.392.33 2.088.494.134.031.188.1.153.241a32 32 0 00-.217.922c-.027.124-.092.159-.211.13-.259-.065-.52-.116-.777-.185-.153-.042-.218.005-.247.156-.048.248-.109.494-.172.738-.032.127-.008.195.13.227 1.298.3 2.595.605 3.892.912.138.034.19-.019.217-.146.053-.247.121-.49.169-.738.032-.168.104-.221.275-.176.304.082.614.145.922.216l.025.04c-.074.313-.154.625-.22.94-.032.148-.097.19-.25.158-.458-.098-.46-.092-.566.36-.048.204-.09.41-.146.612-.039.142-.012.214.146.253.462.114.46.12.35.595-.05.217-.102.435-.151.654l-.04.025zM26.237 24.81c.074-.313.144-.628.222-.94.034-.132-.005-.193-.137-.223-.642-.147-1.283-.297-1.923-.451-.123-.03-.181.006-.21.13-.147.641-.297 1.283-.451 1.923-.032.132.005.192.137.222.635.145 1.27.293 1.902.447.142.034.205-.003.236-.146.067-.322.15-.642.224-.962z" fill="#2B94FC"/><path id="Vector_6" d="M11.954 25.99c-.348-.082-.695-.17-1.044-.245-.15-.033-.199-.104-.162-.252.167-.695.331-1.392.491-2.089.032-.14.098-.183.238-.15.353.086.71.164 1.065.245l.025.042-.573 2.424c-.013.008-.027.015-.04.024z" fill="#2B94FC"/><path id="Vector_7" d="M23.672 11.41c.08-.341.17-.68.24-1.024.037-.184.124-.223.296-.18.667.164 1.335.321 2.005.474.173.04.232.115.186.294-.088.338-.159.682-.237 1.024l-.04.024-2.425-.572-.025-.04z" fill="#2B94FC"/><path id="Vector_8" d="M29.73 12.835c.084-.347.173-.694.25-1.043.034-.16.108-.207.266-.17.688.167 1.377.33 2.067.49.148.034.19.112.153.259-.087.346-.163.696-.244 1.044l-.04.025-2.426-.564-.026-.04z" fill="#2B94FC"/><path id="Vector_9" d="M13.378 19.929c-.34-.082-.68-.17-1.023-.244-.163-.035-.226-.102-.184-.275.168-.688.33-1.377.486-2.068.036-.156.112-.186.256-.15.346.088.696.165 1.044.244l.025.04-.565 2.428a.744.744 0 00-.04.025z" fill="#2B94FC"/><path id="Vector_10" d="M26.526 37.71c-.08.334-.165.667-.235 1.003-.038.182-.117.246-.307.2a88.232 88.232 0 00-1.986-.462c-.2-.044-.245-.134-.193-.326.089-.331.155-.669.232-1.004l.04-.025 2.424.572.025.04v.002z" fill="#2B94FC"/><path id="Vector_11" d="M18.018 35.68l2.425.563.025.042c-.081.34-.17.68-.243 1.023-.038.178-.124.226-.3.184a112.19 112.19 0 00-2.005-.468c-.176-.04-.23-.117-.183-.295.089-.339.161-.683.24-1.024l.04-.026z" fill="#2B94FC"/><path id="Vector_12" d="M36.215 31.641l.565-2.426.04-.026c.334.08.664.172 1 .237.182.034.234.116.196.285-.113.49-.224.981-.338 1.473-.042.183-.094.365-.127.551-.031.176-.108.235-.29.187-.337-.089-.68-.16-1.02-.24l-.025-.042-.001.001z" fill="#2B94FC"/><path id="Vector_13" d="M38.245 23.132c.34.08.68.167 1.021.238.145.03.2.087.174.24-.076.464-.21.914-.308 1.371-.054.246-.118.49-.172.736-.03.139-.101.183-.24.149-.354-.086-.71-.164-1.064-.244l-.025-.04c.19-.809.382-1.616.573-2.425l.04-.024.001-.001z" fill="#2B94FC"/><path id="Vector_14" d="M26.762 36.55c-.341-.08-.68-.166-1.022-.24-.164-.033-.228-.102-.183-.274.08-.304.15-.611.217-.919.03-.135.088-.193.232-.156.306.078.612.148.92.216.132.03.168.095.137.224-.091.374-.175.75-.262 1.124l-.04.026z" fill="#2B94FC"/><path id="Vector_15" d="M35.056 31.406c-.367-.087-.734-.178-1.102-.258-.148-.033-.197-.098-.158-.25.076-.29.144-.583.206-.877.032-.147.101-.204.25-.166.312.078.625.152.938.223.15.035.185.117.15.261-.086.346-.163.694-.244 1.041a.989.989 0 00-.04.026z" fill="#2B94FC"/><path id="Vector_16" d="M13.111 26.226c.082-.347.17-.692.245-1.041.034-.162.114-.205.268-.167.305.077.61.15.917.22.148.033.192.11.155.257-.076.298-.145.598-.211.899-.03.133-.097.166-.226.135-.373-.09-.747-.175-1.122-.262l-.026-.041z" fill="#2B94FC"/><path id="Vector_17" d="M31.944 14.599c-.087.367-.18.733-.26 1.103-.032.15-.098.195-.249.157a24.674 24.674 0 00-.898-.212c-.132-.03-.173-.1-.143-.227.078-.326.158-.653.23-.98.03-.139.109-.159.231-.128.354.084.709.164 1.062.247l.026.042v-.002z" fill="#2B94FC"/><path id="Vector_18" d="M37.087 22.894c-.081.34-.167.679-.24 1.02-.038.18-.126.228-.299.183a24.883 24.883 0 00-.898-.21c-.135-.031-.188-.099-.153-.24.077-.305.148-.612.215-.919.03-.132.095-.169.225-.137.373.09.748.174 1.123.261l.025.04.002.002z" fill="#2B94FC"/><path id="Vector_19" d="M15.142 17.714c.366.087.733.178 1.102.259.149.032.196.098.157.248-.075.284-.142.57-.201.857-.035.165-.116.223-.282.181a23.029 23.029 0 00-.899-.208c-.158-.034-.2-.114-.162-.27.088-.346.164-.695.245-1.042l.04-.024v-.001z" fill="#2B94FC"/><path id="Vector_20" d="M23.436 12.57c.348.081.694.167 1.043.244.125.027.173.078.155.215-.046.349-.154.683-.23 1.024-.022.1-.092.132-.19.108-.321-.076-.64-.154-.962-.224-.148-.033-.14-.126-.113-.239.087-.368.172-.737.258-1.105l.039-.024z" fill="#2B94FC"/><path id="Vector_21" d="M18.254 34.522c.087-.368.179-.735.26-1.105.033-.152.103-.193.251-.154.291.076.585.143.88.207.114.026.163.07.147.2-.042.357-.152.698-.232 1.046-.032.134-.136.114-.237.09l-1.043-.242a.98.98 0 00-.025-.041l-.001-.002z" fill="#2B94FC"/><path id="Vector_22" d="M39.034 27.845c-.037.156-.078.312-.11.47-.025.129-.088.174-.22.141a23.55 23.55 0 00-.817-.191c-.134-.028-.167-.098-.136-.225.081-.326.157-.653.23-.98.027-.12.085-.165.209-.134.278.069.557.134.837.196.124.027.156.094.126.212-.044.169-.08.34-.12.51z" fill="#2B94FC"/><path id="Vector_23" d="M12.329 21.571c-.038.164-.08.326-.114.49-.025.12-.086.164-.208.134a32.887 32.887 0 00-.837-.197c-.125-.027-.156-.094-.127-.212.08-.326.157-.653.23-.98.028-.13.09-.175.222-.142.271.07.543.133.817.191.134.03.169.1.134.227-.043.162-.078.326-.116.49l-.001-.001z" fill="#2B94FC"/><path id="Vector_24" d="M21.822 38.5l-.51-.12c-.102-.022-.138-.08-.113-.182.07-.292.138-.585.206-.878.024-.107.09-.13.187-.108.34.081.68.161 1.02.239.113.025.15.086.122.197-.07.285-.137.571-.201.857-.026.116-.094.142-.201.115-.17-.042-.339-.08-.51-.12z" fill="#2B94FC"/><path id="Vector_25" d="M28.372 10.617c.164.039.327.08.49.114.12.026.164.085.134.209a33.87 33.87 0 00-.196.837c-.027.124-.094.155-.212.127a46.45 46.45 0 00-.98-.23c-.129-.028-.177-.088-.142-.22.069-.272.132-.545.192-.818.028-.133.098-.17.225-.135.162.043.327.078.49.116z" fill="#2B94FC"/><path id="Vector_26" d="M36.24 31.684c-.076.313-.157.625-.225.94-.032.146-.095.2-.247.16-.257-.07-.517-.13-.778-.183-.154-.03-.187-.107-.15-.252.079-.313.144-.628.216-.942.013-.008.027-.016.04-.026l1.118.262.026.04z" fill="#2B94FC"/><path id="Vector_27" d="M13.138 26.266c-.076.313-.157.625-.224.94-.033.146-.095.2-.248.16-.257-.07-.517-.13-.777-.183-.155-.03-.187-.107-.15-.252.078-.313.144-.628.215-.942.014-.008.028-.016.04-.026l1.119.262.025.04z" fill="#2B94FC"/><path id="Vector_28" d="M17.977 35.706c-.313-.076-.625-.155-.939-.224-.147-.032-.2-.095-.16-.248.069-.256.13-.516.182-.777.032-.155.107-.188.253-.152.312.078.628.145.94.217l.026.041-.262 1.119c-.013.008-.027.015-.04.024z" fill="#2B94FC"/><path id="Vector_29" d="M26.5 37.67l.263-1.119.04-.025c.313.076.625.156.94.225.147.032.2.095.16.247-.069.257-.13.517-.182.778-.031.154-.107.186-.253.15-.312-.079-.627-.144-.94-.216l-.026-.04H26.5z" fill="#2B94FC"/><path id="Vector_30" d="M37.06 22.854c.076-.314.157-.625.226-.94.032-.148.096-.2.248-.16.256.069.516.13.777.182.155.031.187.108.15.253-.078.313-.144.628-.216.942l-.04.025-1.12-.262-.025-.04z" fill="#2B94FC"/><path id="Vector_31" d="M13.957 17.436c.076-.314.157-.625.225-.94.033-.148.096-.2.248-.16.257.069.517.13.777.182.156.031.187.108.15.253-.078.313-.144.628-.215.942l-.04.025-1.12-.262-.025-.04z" fill="#2B94FC"/><path id="Vector_32" d="M32.221 13.415c.313.076.625.157.94.225.147.032.2.095.16.247-.069.257-.13.517-.182.777-.032.155-.107.187-.253.15-.312-.078-.628-.144-.94-.215l-.026-.04.263-1.12.04-.025-.002.001z" fill="#2B94FC"/><path id="Vector_33" d="M23.697 11.451l-.262 1.119-.04.024c-.313-.076-.625-.156-.94-.224-.146-.033-.2-.095-.159-.248.069-.257.13-.516.182-.777.031-.155.107-.188.253-.152.312.078.627.145.94.216l.026.042z" fill="#2B94FC"/></g></g></g></g></g><defs><clipPath id="clip0_610_1427"><path fill="#fff" d="M0 0h50v50H0z"/></clipPath><filter id="filter0_d_610_1427" x="-47.759" y="-39.269" width="145.519" height="145.519" filterUnits="userSpaceOnUse" color-interpolation-filters="sRGB"><feFlood flood-opacity="0" result="BackgroundImageFix"/><feColorMatrix in="SourceAlpha" values="0 0 0 0 0 0 0 0 0 0 0 0 0 0 0 0 0 0 127 0" result="hardAlpha"/><feOffset dy="8.491"/><feGaussianBlur stdDeviation="23.88"/><feComposite in2="hardAlpha" operator="out"/><feColorMatrix values="0 0 0 0 0.168627 0 0 0 0 0.580392 0 0 0 0 0.988235 0 0 0 0.25 0"/><feBlend in2="BackgroundImageFix" result="effect1_dropShadow_610_1427"/><feBlend in="SourceGraphic" in2="effect1_dropShadow_610_1427" result="shape"/></filter></defs></svg>