<svg width="146" height="142" fill="none" xmlns="http://www.w3.org/2000/svg"><g id="Frame 47" filter="url(#filter0_d_424_72)"><path id="Vector" d="M73.033 79.928c-1.678 0-3.365-.213-5.032-.646A19.785 19.785 0 0155.83 70.1a19.79 19.79 0 01-2.113-15.098 19.785 19.785 0 019.182-12.17 19.788 19.788 0 0115.098-2.114 19.785 19.785 0 0112.17 9.183 19.79 19.79 0 012.113 15.098 19.785 19.785 0 01-9.182 12.17 19.803 19.803 0 01-10.066 2.758v.001zm-.031-35.704c-7.015 0-13.433 4.72-15.273 11.818-2.183 8.42 2.892 17.046 11.312 19.229a15.674 15.674 0 0011.957-1.674 15.675 15.675 0 007.272-9.638A15.674 15.674 0 0086.597 52a15.675 15.675 0 00-9.638-7.272 15.758 15.758 0 00-3.956-.507l-.001.002z" fill="#FFCE00"/><path id="Vector_2" d="M96.728 78.102c-.77.063-1.481.203-2.074.333h-.005c-3.049.696-5.957.276-7.977-1.15-.844-.617-8.292-11.093-12.467-18.17-3.724-6.312-7.657-14.24-8.948-16.846a22.62 22.62 0 00-.396-.786c-1.688-2.838-3.977-4.569-6.622-5.004-2.63-.434-5.38.443-7.745 2.467a13.672 13.672 0 00-1.683 1.723l-.811.985 1.272-.103a15.49 15.49 0 002.078-.335c3.049-.695 5.956-.276 7.977 1.151.802.573 9.08 10.74 13.208 17.733 2.56 4.341 5.554 10.613 8.429 17.663.11.27.133.327.15.36 1.39 2.963 3.415 4.81 5.858 5.34a7.09 7.09 0 001.532.163c2.286 0 4.762-1.02 7-2.918l.012-.01c.702-.632 1.218-1.16 1.673-1.715L98 78l-1.271.103h-.001z" fill="#FFCE00"/><path id="Vector_3" d="M93.875 37.496l-.01-.012c-.632-.702-1.16-1.218-1.714-1.674l-.985-.81.103 1.271c.063.77.203 1.48.333 2.074v.005c.696 3.048.277 5.956-1.15 7.977-.617.843-11.093 8.291-18.168 12.467-6.312 3.724-14.241 7.657-16.847 8.949-.622.308-.736.366-.786.395-2.838 1.688-4.568 3.977-5.004 6.622-.432 2.63.444 5.38 2.467 7.745.518.605 1.08 1.155 1.722 1.684l.985.81-.103-1.271c-.063-.77-.204-1.48-.334-2.079-.695-3.048-.276-5.956 1.151-7.977.573-.802 10.739-9.08 17.733-13.208 4.339-2.56 10.611-5.553 17.66-8.428.273-.111.33-.134.362-.15 2.962-1.39 4.81-3.416 5.34-5.859.581-2.672-.423-5.78-2.756-8.53v-.001z" fill="#FFCE00"/><path id="Vector_4" d="M84.78 64.217c-.315-.075-.627-.155-.942-.221-.154-.033-.191-.107-.153-.253.067-.25.116-.506.18-.757.033-.124.012-.195-.127-.228a860.228 860.228 0 01-3.892-.912c-.137-.033-.19.017-.218.144a12.32 12.32 0 01-.174.737c-.04.149-.004.22.152.25.255.051.504.122.758.175.14.029.186.093.148.236-.076.3-.144.6-.213.902-.031.138-.11.184-.245.151l-2.09-.488c-.137-.031-.184-.103-.15-.242.075-.293.134-.589.21-.88.037-.142-.003-.205-.145-.236-.466-.103-.928-.222-1.394-.322-.17-.036-.218-.11-.171-.277.069-.25.117-.505.18-.757.032-.123-.007-.182-.13-.208-.26-.056-.52-.115-.778-.183-.135-.035-.192.012-.219.143-.054.253-.122.504-.175.759-.03.144-.089.197-.245.163-.441-.094-.447-.088-.569.36-.038.145-.108.175-.242.14-.252-.064-.506-.113-.757-.18-.136-.037-.21-.008-.239.14-.051.255-.112.508-.176.758-.034.13 0 .195.135.224.254.052.504.123.758.174.16.03.206.102.166.262-.116.463-.215.93-.332 1.392-.037.15 0 .218.154.249.282.056.559.134.84.192.137.028.186.084.165.228-.058.397-.176.78-.261 1.17-.069.316-.15.628-.22.944-.03.137-.099.187-.24.151a35.74 35.74 0 00-.922-.217c-.123-.027-.158-.092-.128-.212.065-.26.115-.52.185-.779.041-.152-.007-.217-.157-.246a14.35 14.35 0 01-.738-.172c-.126-.032-.194-.007-.226.131a833.036 833.036 0 01-.913 3.893c-.033.14.021.19.147.216.254.055.504.122.758.175.148.03.197.097.158.248-.08.313-.147.628-.22.942-.013.008-.027.016-.04.026-.313-.074-.625-.153-.938-.22-.149-.032-.191-.097-.159-.25.098-.46.093-.46-.36-.566-.204-.048-.409-.09-.611-.146-.143-.04-.214-.012-.254.146-.114.463-.12.46-.593.35a76.844 76.844 0 00-.653-.151.922.922 0 00-.025-.042c.073-.307.153-.612.215-.921.035-.173.115-.214.279-.168.243.068.492.113.736.177.125.032.195.01.227-.13.301-1.297.605-2.595.912-3.892.028-.117.006-.186-.123-.213-.266-.058-.533-.12-.798-.187-.128-.033-.178.021-.203.138-.057.261-.125.519-.18.78-.03.138-.092.188-.236.15a21.724 21.724 0 00-.9-.211c-.142-.03-.182-.106-.15-.242.167-.702.334-1.406.496-2.11.031-.133.1-.167.227-.135.279.07.562.124.839.202.174.048.253.012.291-.174.094-.453.213-.9.31-1.354.036-.165.103-.223.275-.175.25.07.505.117.757.18.12.03.184 0 .211-.126.056-.26.117-.52.183-.778.035-.132-.003-.194-.137-.222-.26-.055-.519-.126-.778-.18-.142-.03-.177-.096-.149-.238.091-.448.088-.454-.355-.57-.14-.038-.182-.1-.145-.24.067-.257.118-.519.185-.777.034-.132-.007-.194-.14-.221a13.748 13.748 0 01-.757-.178c-.144-.038-.204.011-.232.15-.05.248-.121.49-.169.738-.033.175-.115.21-.28.167-.442-.112-.89-.2-1.329-.32-.201-.053-.276.005-.31.201-.049.269-.126.533-.183.8-.033.146-.11.199-.256.163a308.93 308.93 0 00-2.069-.482c-.143-.033-.2-.1-.162-.253.076-.299.147-.599.21-.901.032-.146.105-.178.241-.143.25.065.507.116.757.181.135.036.21.011.24-.138.05-.255.112-.507.177-.758.033-.129.003-.193-.134-.225a832.134 832.134 0 01-3.89-.912c-.14-.034-.189.022-.215.147-.055.254-.122.505-.175.758-.03.15-.098.197-.249.158-.312-.08-.627-.148-.942-.22a.98.98 0 00-.025-.042c.074-.312.154-.624.22-.938.032-.148.099-.19.25-.157.458.097.459.092.565-.361.048-.204.09-.41.146-.612.039-.143.01-.214-.146-.252-.462-.115-.46-.12-.35-.595l.152-.653.04-.025c.314.075.627.154.942.221.154.033.192.106.153.253-.067.25-.116.505-.18.757-.032.125-.013.195.127.229 1.298.3 2.595.605 3.89.911.118.028.187.007.214-.122.057-.268.12-.534.187-.798.032-.129-.02-.178-.138-.205-.26-.056-.517-.125-.778-.18-.137-.029-.189-.09-.151-.234.076-.3.147-.6.21-.902.034-.156.119-.186.26-.151.688.164 1.377.328 2.066.488.147.034.195.11.157.258-.07.272-.12.548-.197.817-.05.174-.012.253.174.291.453.094.9.214 1.352.31.166.036.223.104.176.275-.07.25-.117.505-.181.757-.03.119 0 .184.126.21.261.056.52.117.779.184.131.034.194-.003.222-.138.055-.26.125-.518.18-.779.03-.141.096-.177.237-.148.447.09.453.087.571-.355.038-.14.102-.181.24-.146.258.067.52.118.777.185.134.035.193-.008.22-.14.054-.254.112-.508.178-.758.04-.146-.012-.205-.15-.233-.234-.047-.462-.12-.698-.158-.218-.034-.251-.133-.199-.332.112-.42.203-.846.301-1.268.042-.178-.03-.288-.212-.33-.26-.063-.517-.128-.778-.182-.153-.031-.193-.109-.159-.255.167-.695.332-1.391.492-2.089.033-.143.103-.18.24-.145.3.076.6.146.9.211.146.031.178.104.143.24-.065.251-.115.507-.18.758-.036.134-.012.21.138.24.253.05.506.111.758.176.128.033.193.003.225-.133.301-1.298.605-2.596.913-3.892.033-.14-.023-.189-.148-.215-.254-.054-.504-.122-.758-.175-.15-.03-.197-.098-.158-.248.08-.313.148-.628.22-.942l.041-.025c.313.074.624.153.938.22.148.032.191.097.159.25-.098.46-.092.46.36.566.204.048.409.09.611.146.143.04.214.013.254-.145.114-.463.12-.46.593-.35l.653.15.025.04c-.075.315-.154.627-.221.943-.032.153-.106.19-.253.152-.25-.066-.505-.116-.757-.18-.124-.033-.195-.012-.227.128a863.831 863.831 0 01-.913 3.892c-.032.137.016.19.145.218.246.052.493.107.736.174.148.04.22.005.251-.151.05-.255.121-.505.174-.76.03-.14.094-.186.236-.15.3.078.6.147.902.212.124.026.162.088.135.207-.022.102-.029.209-.052.31-.136.582-.273 1.16-.41 1.741-.061.259-.073.267-.324.21-.267-.062-.535-.119-.798-.19-.15-.04-.216.003-.249.155-.102.466-.22.928-.321 1.394-.036.161-.108.205-.265.162-.25-.067-.506-.116-.757-.18-.134-.035-.193.008-.222.139-.053.254-.11.507-.177.758-.04.145.012.204.15.232.234.048.463.12.698.158.218.035.25.133.199.333-.114.44-.143.38.304.477.192.041.262.113.201.313-.069.227-.106.465-.169.695-.04.147-.008.222.15.252.247.047.493.107.737.173.14.037.207 0 .236-.145.052-.254.122-.504.174-.759.03-.15.1-.193.25-.156.464.115.93.214 1.392.331.161.04.23 0 .262-.163.056-.282.133-.56.193-.84.03-.145.094-.207.248-.17.695.166 1.391.33 2.088.494.134.031.188.1.153.242a32 32 0 00-.217.921c-.027.124-.092.159-.211.13-.259-.065-.52-.116-.777-.185-.153-.042-.218.005-.247.156-.048.248-.109.494-.172.738-.032.127-.008.195.13.227 1.298.3 2.595.605 3.892.912.138.034.19-.019.217-.146.053-.247.121-.49.169-.738.032-.168.104-.221.275-.176.304.082.614.146.922.216l.025.04c-.074.313-.154.625-.22.94-.032.148-.098.19-.25.158-.458-.098-.46-.092-.566.36-.048.204-.09.41-.146.612-.039.142-.012.214.146.253.462.115.46.12.35.595-.05.217-.102.435-.151.654l-.04.025zM74.237 59.81c.074-.313.144-.629.222-.94.034-.132-.005-.193-.137-.223-.642-.147-1.283-.297-1.923-.451-.123-.03-.181.006-.21.13-.147.641-.297 1.283-.451 1.923-.032.132.005.192.137.222.635.145 1.27.293 1.902.447.142.034.205-.003.236-.146.067-.322.148-.642.223-.962h.001z" fill="#2B94FC"/><path id="Vector_5" d="M59.954 60.99c-.348-.083-.695-.17-1.044-.245-.15-.032-.198-.104-.162-.252.167-.695.331-1.392.491-2.089.032-.14.098-.183.238-.15.353.086.71.164 1.065.245l.025.041c-.19.809-.382 1.618-.573 2.425l-.04.025z" fill="#2B94FC"/><path id="Vector_6" d="M71.672 46.41c.08-.341.17-.68.24-1.024.037-.184.124-.223.295-.18.668.164 1.336.321 2.006.474.173.04.232.115.186.294-.088.339-.159.682-.237 1.024l-.04.024-2.425-.572-.025-.041z" fill="#2B94FC"/><path id="Vector_7" d="M77.73 47.836c.084-.348.173-.695.25-1.044.033-.16.108-.207.266-.17.688.167 1.377.33 2.067.49.148.034.19.112.153.259-.087.346-.163.696-.244 1.044l-.04.025-2.426-.564-.025-.04z" fill="#2B94FC"/><path id="Vector_8" d="M61.378 54.929c-.34-.082-.68-.17-1.023-.244-.163-.035-.226-.102-.184-.275.168-.688.33-1.377.486-2.068.036-.156.112-.186.256-.15.347.088.696.164 1.044.244l.025.04-.565 2.428-.04.025z" fill="#2B94FC"/><path id="Vector_9" d="M74.525 72.71c-.078.334-.164.667-.234 1.003-.038.182-.117.246-.307.2a88.23 88.23 0 00-1.986-.462c-.2-.044-.245-.134-.193-.326.089-.331.155-.669.232-1.004l.04-.025 2.424.572.025.04v.002z" fill="#2B94FC"/><path id="Vector_10" d="M66.018 70.68l2.425.563c.008.014.016.028.026.042-.082.34-.17.68-.244 1.023-.038.178-.124.226-.3.184a112.19 112.19 0 00-2.005-.468c-.176-.04-.23-.118-.183-.295.089-.339.161-.683.24-1.024.013-.008.027-.016.04-.026z" fill="#2B94FC"/><path id="Vector_11" d="M84.215 66.641l.565-2.426.04-.026c.334.08.664.172 1 .237.182.034.234.116.196.285l-.338 1.472c-.042.184-.094.366-.127.552-.031.176-.108.235-.29.187-.337-.089-.68-.16-1.02-.24l-.025-.042-.001.001z" fill="#2B94FC"/><path id="Vector_12" d="M86.245 58.132c.34.08.68.167 1.021.238.145.03.2.087.174.24-.076.464-.21.914-.308 1.371-.054.246-.119.49-.172.736-.03.139-.101.183-.24.149-.354-.086-.71-.164-1.064-.244l-.025-.04c.19-.809.382-1.616.573-2.425l.04-.024.001-.001z" fill="#2B94FC"/><path id="Vector_13" d="M74.761 71.55c-.34-.08-.679-.166-1.021-.24-.164-.033-.228-.102-.183-.274.08-.304.15-.611.217-.919.03-.135.088-.193.233-.156.305.078.611.148.918.216.133.03.169.095.138.224-.091.374-.175.75-.262 1.124l-.04.025z" fill="#2B94FC"/><path id="Vector_14" d="M83.055 66.406c-.366-.087-.733-.178-1.101-.258-.148-.033-.197-.097-.158-.25.076-.29.144-.583.206-.877.032-.147.101-.204.25-.166.312.078.625.152.938.223.15.035.185.117.15.261-.086.346-.163.694-.244 1.041l-.04.025v.001z" fill="#2B94FC"/><path id="Vector_15" d="M61.111 61.226c.082-.347.17-.693.245-1.041.034-.162.114-.205.268-.167.305.077.61.15.917.22.148.033.193.11.155.257a27 27 0 00-.211.899c-.03.133-.097.166-.225.135-.373-.09-.748-.175-1.123-.262l-.026-.041z" fill="#2B94FC"/><path id="Vector_16" d="M79.944 49.599c-.087.368-.18.733-.26 1.103-.031.15-.098.195-.249.157a24.469 24.469 0 00-.898-.212c-.132-.03-.173-.1-.143-.227.078-.326.158-.653.23-.98.03-.139.109-.159.231-.128.354.085.709.164 1.062.247l.026.042v-.002z" fill="#2B94FC"/><path id="Vector_17" d="M85.087 57.894c-.081.34-.167.68-.24 1.02-.038.18-.126.228-.299.183a24.883 24.883 0 00-.898-.21c-.135-.03-.188-.099-.153-.24.077-.305.148-.612.215-.919.03-.132.095-.169.225-.137.373.09.749.175 1.123.261l.025.04.002.002z" fill="#2B94FC"/><path id="Vector_18" d="M63.142 52.714c.366.087.733.178 1.102.259.149.032.196.098.157.248-.075.284-.142.57-.201.857-.035.165-.115.223-.282.181a23.213 23.213 0 00-.899-.208c-.158-.034-.2-.114-.161-.27.088-.346.163-.695.244-1.042l.04-.024v-.001z" fill="#2B94FC"/><path id="Vector_19" d="M71.436 47.57c.348.081.694.167 1.043.244.125.027.173.078.155.215-.046.349-.154.683-.23 1.024-.022.101-.092.132-.19.108-.321-.076-.64-.154-.962-.224-.148-.033-.14-.126-.113-.239.087-.368.172-.737.258-1.105l.04-.024h-.001z" fill="#2B94FC"/><path id="Vector_20" d="M66.254 69.521c.087-.368.179-.734.26-1.104.033-.152.103-.193.251-.154.291.076.585.143.88.207.114.026.163.07.147.2-.042.357-.152.698-.232 1.046-.032.134-.136.114-.237.09l-1.043-.242a.922.922 0 00-.025-.042h-.001z" fill="#2B94FC"/><path id="Vector_21" d="M87.034 62.845c-.037.156-.078.312-.11.47-.025.129-.088.174-.22.141a23.024 23.024 0 00-.817-.191c-.134-.028-.167-.098-.136-.225.081-.326.157-.653.23-.98.027-.12.086-.165.209-.134.278.069.557.134.837.196.124.027.156.094.126.212-.044.169-.08.34-.12.51z" fill="#2B94FC"/><path id="Vector_22" d="M60.329 56.571c-.038.164-.08.326-.114.49-.026.12-.086.164-.208.134a32.887 32.887 0 00-.837-.197c-.125-.027-.156-.093-.127-.212.08-.326.157-.653.23-.98.028-.13.09-.175.222-.142.271.07.543.133.817.191.134.03.169.1.134.227-.043.161-.078.326-.116.49l-.001-.001z" fill="#2B94FC"/><path id="Vector_23" d="M69.822 73.5l-.51-.12c-.102-.022-.138-.08-.113-.182.07-.292.138-.585.206-.878.024-.107.09-.13.187-.108.34.081.68.161 1.02.239.113.025.15.086.122.197-.07.285-.136.571-.201.857-.026.116-.094.142-.201.115-.17-.042-.34-.08-.51-.12z" fill="#2B94FC"/><path id="Vector_24" d="M76.373 45.617c.163.039.326.08.49.114.119.026.163.085.133.209-.069.278-.134.557-.196.837-.027.124-.094.155-.212.127a46.45 46.45 0 00-.98-.23c-.129-.028-.177-.088-.142-.22.069-.272.132-.545.192-.818.028-.133.098-.17.225-.135.162.044.327.078.49.116z" fill="#2B94FC"/><path id="Vector_25" d="M84.24 66.684c-.076.313-.157.625-.225.94-.032.146-.095.2-.247.16-.257-.07-.517-.13-.778-.183-.154-.031-.187-.107-.15-.252.079-.313.144-.628.216-.942.013-.008.027-.016.04-.026l1.118.262.026.042v-.001z" fill="#2B94FC"/><path id="Vector_26" d="M61.138 61.266c-.076.313-.157.625-.224.94-.033.146-.095.2-.248.16-.257-.07-.516-.13-.777-.182-.155-.032-.187-.108-.15-.253.078-.313.144-.628.216-.942l.04-.025 1.118.261.025.042v-.001z" fill="#2B94FC"/><path id="Vector_27" d="M65.977 70.706c-.313-.076-.625-.155-.939-.224-.147-.032-.2-.095-.16-.248.069-.256.13-.516.182-.777.031-.155.107-.188.253-.152.312.078.627.145.94.217l.026.041-.262 1.119-.04.025z" fill="#2B94FC"/><path id="Vector_28" d="M74.5 72.67l.263-1.118.04-.026c.314.076.625.156.94.225.147.032.2.095.16.247-.069.257-.13.517-.182.777-.031.155-.107.187-.253.151-.312-.079-.627-.145-.94-.216l-.026-.04H74.5z" fill="#2B94FC"/><path id="Vector_29" d="M85.06 57.853c.076-.313.157-.624.226-.94.032-.147.096-.2.248-.16.256.07.516.13.777.183.155.031.187.108.15.254-.079.312-.144.627-.216.942l-.04.024-1.12-.262-.024-.04z" fill="#2B94FC"/><path id="Vector_30" d="M61.957 52.436c.076-.314.157-.625.225-.94.033-.148.096-.2.248-.16.257.069.517.13.777.182.156.031.187.108.15.254-.078.312-.144.627-.215.942l-.04.024-1.12-.262-.025-.04z" fill="#2B94FC"/><path id="Vector_31" d="M80.221 48.415c.313.076.625.157.94.224.147.033.2.095.16.248-.069.257-.13.517-.182.777-.031.155-.107.187-.253.15-.312-.078-.627-.144-.94-.215l-.026-.04.263-1.12.04-.025-.002.001z" fill="#2B94FC"/><path id="Vector_32" d="M71.697 46.451l-.262 1.119-.04.024c-.313-.076-.625-.156-.94-.224-.146-.033-.2-.095-.159-.248.069-.257.13-.516.182-.777.032-.155.107-.188.253-.152.312.078.628.145.94.217l.026.041z" fill="#2B94FC"/></g><defs><filter id="filter0_d_424_72" x=".241" y="-4.269" width="145.519" height="145.519" filterUnits="userSpaceOnUse" color-interpolation-filters="sRGB"><feFlood flood-opacity="0" result="BackgroundImageFix"/><feColorMatrix in="SourceAlpha" values="0 0 0 0 0 0 0 0 0 0 0 0 0 0 0 0 0 0 127 0" result="hardAlpha"/><feOffset dy="8.491"/><feGaussianBlur stdDeviation="23.88"/><feComposite in2="hardAlpha" operator="out"/><feColorMatrix values="0 0 0 0 0.168627 0 0 0 0 0.580392 0 0 0 0 0.988235 0 0 0 0.25 0"/><feBlend in2="BackgroundImageFix" result="effect1_dropShadow_424_72"/><feBlend in="SourceGraphic" in2="effect1_dropShadow_424_72" result="shape"/></filter></defs></svg>