<svg width="66" height="66" fill="none" xmlns="http://www.w3.org/2000/svg"><path d="M33.045 59.304c-2.215 0-4.443-.281-6.643-.852-6.799-1.763-12.503-6.067-16.064-12.121-3.56-6.054-4.552-13.132-2.79-19.93 1.763-6.798 6.067-12.503 12.12-16.064 6.054-3.56 13.131-4.552 19.93-2.79C46.397 9.31 52.1 13.614 55.662 19.668c3.56 6.053 4.552 13.132 2.79 19.93-1.763 6.798-6.067 12.503-12.12 16.064-4.095 2.408-8.66 3.64-13.287 3.64v.002zm-.042-47.13c-9.26 0-17.731 6.23-20.16 15.6-2.88 11.116 3.817 22.502 14.933 25.382a20.69 20.69 0 0015.784-2.209 20.691 20.691 0 009.599-12.722 20.69 20.69 0 00-2.21-15.785 20.69 20.69 0 00-12.721-9.599 20.797 20.797 0 00-5.222-.668l-.002.001z" fill="#FFCE00"/><path d="M64.32 56.896c-1.016.083-1.954.268-2.737.44h-.007c-4.024.918-7.862.365-10.529-1.52-1.114-.813-10.945-14.641-16.456-23.982-4.916-8.333-10.107-18.798-11.812-22.237-.407-.822-.483-.973-.522-1.038-2.228-3.746-5.25-6.03-8.741-6.605-3.471-.573-7.102.584-10.223 3.256A18.044 18.044 0 001.07 7.485L0 8.785l1.678-.137c1.017-.082 1.955-.268 2.745-.441 4.023-.918 7.861-.364 10.528 1.52 1.06.756 11.987 14.175 17.435 23.407 3.38 5.73 7.332 14.008 11.126 23.314.146.358.176.432.198.476 1.835 3.91 4.509 6.35 7.733 7.05a9.508 9.508 0 002.023.213c3.016 0 6.285-1.344 9.239-3.851l.016-.014c.927-.834 1.607-1.531 2.209-2.262l1.07-1.3-1.678.136h-.002z" fill="#FFCE00"/><path d="M60.556 3.295l-.014-.016c-.834-.926-1.531-1.607-2.262-2.209L56.98 0l.136 1.678c.083 1.017.268 1.955.44 2.738v.007c.918 4.023.365 7.862-1.519 10.529-.814 1.114-14.642 10.945-23.982 16.456-8.332 4.917-18.798 10.108-22.237 11.813-.822.407-.973.483-1.038.522-3.746 2.227-6.03 5.25-6.605 8.74-.571 3.472.585 7.102 3.256 10.224a18.112 18.112 0 002.274 2.223l1.3 1.07-.137-1.678c-.083-1.017-.268-1.955-.44-2.745-.918-4.023-.364-7.862 1.52-10.529.756-1.059 14.174-11.987 23.406-17.434 5.728-3.38 14.007-7.331 23.311-11.126.36-.146.435-.177.478-.197 3.91-1.836 6.349-4.51 7.05-7.734.767-3.528-.56-7.631-3.639-11.26l.002-.002z" fill="#FFCE00"/><path d="M48.548 38.566c-.414-.099-.827-.204-1.243-.293-.203-.042-.252-.14-.201-.333.088-.33.153-.667.239-1 .042-.163.014-.257-.17-.3-1.713-.397-3.425-.799-5.136-1.204-.182-.043-.252.023-.288.19-.069.326-.142.653-.23.973-.053.196-.005.29.2.331.336.067.666.16 1 .23.186.038.246.124.197.312-.101.395-.19.792-.282 1.19-.04.183-.145.243-.324.2l-2.757-.645c-.182-.04-.244-.136-.198-.32.098-.385.176-.776.276-1.162.048-.187-.004-.27-.192-.31-.615-.137-1.224-.293-1.84-.425-.224-.048-.286-.145-.225-.365.09-.33.155-.667.239-1 .041-.162-.01-.24-.172-.274a22.514 22.514 0 01-1.028-.242c-.178-.047-.253.016-.29.188-.07.335-.16.666-.23 1.002-.04.19-.117.26-.324.216-.582-.124-.59-.117-.75.475-.05.19-.143.231-.32.186-.332-.086-.668-.151-1-.24-.18-.047-.275-.01-.314.186-.068.336-.148.67-.234 1-.044.173 0 .258.18.296.334.07.665.163 1 .23.21.04.272.134.218.346-.153.611-.284 1.226-.437 1.837-.05.199 0 .288.203.328.372.075.737.178 1.11.254.18.037.244.11.216.301-.076.525-.232 1.029-.344 1.545-.091.416-.198.829-.291 1.245-.04.181-.13.247-.316.2a47.63 47.63 0 00-1.217-.287c-.163-.036-.21-.121-.17-.28.086-.341.153-.687.245-1.027.054-.202-.01-.287-.207-.326a17.344 17.344 0 01-.974-.226c-.167-.043-.256-.01-.299.173-.397 1.714-.799 3.426-1.205 5.138-.044.184.028.25.194.285.335.072.666.162 1 .231.197.04.26.128.21.328-.107.413-.195.829-.291 1.244-.017.01-.036.021-.053.033-.413-.097-.825-.201-1.238-.29-.197-.042-.252-.127-.21-.329.13-.607.123-.608-.475-.748-.27-.063-.54-.12-.807-.193-.188-.052-.283-.016-.335.193-.15.61-.159.608-.783.461l-.862-.199a1.234 1.234 0 00-.033-.054c.096-.406.203-.809.284-1.217.047-.228.152-.282.368-.221.32.089.65.149.971.233.166.043.258.013.3-.17.398-1.714.8-3.427 1.204-5.139.037-.154.008-.245-.161-.281a28.792 28.792 0 01-1.054-.247c-.17-.043-.235.028-.268.183-.075.344-.166.684-.238 1.029-.039.182-.121.248-.31.198a30.69 30.69 0 00-1.19-.279c-.188-.04-.24-.14-.197-.318.22-.928.44-1.856.654-2.785.041-.177.132-.221.3-.179.368.092.742.163 1.107.266.23.064.334.016.384-.23.125-.597.282-1.188.41-1.786.047-.219.136-.295.363-.232.33.092.667.155 1 .239.158.04.242 0 .278-.167.073-.344.154-.687.242-1.027.045-.174-.005-.256-.182-.294-.344-.072-.684-.165-1.027-.237-.187-.039-.234-.127-.196-.314.12-.59.116-.599-.469-.754-.185-.049-.24-.13-.192-.315.088-.34.156-.685.244-1.025.046-.175-.009-.257-.184-.293a18.09 18.09 0 01-.999-.234c-.19-.051-.27.014-.307.198-.066.327-.16.647-.223.974-.044.231-.152.276-.37.22-.582-.148-1.173-.265-1.753-.421-.266-.07-.365.005-.41.264-.064.355-.166.703-.242 1.055-.042.194-.144.263-.337.216-.91-.214-1.82-.428-2.731-.636-.19-.044-.265-.132-.215-.334a27.8 27.8 0 00.28-1.19c.04-.192.136-.234.317-.188.33.086.668.152.999.24.177.046.277.014.316-.184.067-.336.148-.668.234-1 .043-.17.003-.255-.177-.296-1.713-.398-3.424-.8-5.135-1.205-.185-.044-.25.03-.284.195-.072.335-.161.665-.23 1-.04.198-.13.26-.329.208-.412-.105-.828-.194-1.243-.29a1.231 1.231 0 00-.034-.055c.098-.412.203-.825.291-1.238.042-.196.13-.251.329-.208.605.128.607.121.747-.477.062-.27.118-.54.192-.807.052-.19.014-.283-.192-.333-.61-.151-.607-.16-.462-.785l.2-.862a.584.584 0 00.053-.033c.414.099.828.203 1.244.292.203.043.253.139.201.334-.088.33-.153.667-.238.999-.042.164-.017.257.169.301 1.713.398 3.425.8 5.135 1.204.155.036.245.01.282-.162.076-.353.158-.704.246-1.054.043-.169-.026-.234-.181-.27-.343-.074-.683-.165-1.027-.237-.182-.038-.25-.12-.2-.31.1-.394.194-.79.278-1.19.044-.206.156-.245.342-.2.908.218 1.818.434 2.728.645.194.046.258.144.207.34-.092.36-.159.725-.26 1.08-.066.23-.016.333.23.384.597.124 1.188.281 1.784.41.219.046.295.136.232.361-.092.33-.154.667-.238 1-.04.157 0 .242.166.278.345.073.687.154 1.028.242.173.045.256-.004.293-.182.072-.344.166-.684.238-1.028.038-.187.126-.234.313-.197.59.12.598.117.754-.468.05-.185.133-.239.316-.192.34.088.686.156 1.026.244.176.046.255-.01.29-.185.072-.335.148-.67.236-1 .052-.193-.016-.27-.2-.308-.307-.062-.609-.159-.92-.208-.288-.045-.332-.176-.262-.439.148-.553.268-1.117.397-1.674.054-.234-.04-.38-.28-.436-.343-.082-.683-.168-1.027-.24-.202-.04-.255-.143-.21-.335.22-.918.438-1.837.649-2.758.044-.19.136-.238.317-.192.395.1.791.193 1.189.279.192.041.234.137.188.317-.085.331-.152.669-.239 1-.047.177-.015.277.183.316.335.066.668.148 1 .233.17.044.255.004.298-.176.398-1.713.799-3.426 1.205-5.136.044-.186-.031-.25-.195-.285-.335-.072-.666-.161-1-.23-.198-.04-.26-.13-.209-.329.105-.412.195-.828.29-1.243l.054-.032c.413.097.824.201 1.238.29.195.042.253.127.21.329-.13.607-.122.608.475.748.27.063.54.12.807.192.188.053.283.018.335-.19.15-.611.158-.609.783-.463l.862.199.033.053c-.099.415-.204.827-.292 1.243-.043.203-.14.253-.334.202-.33-.088-.667-.154-.999-.239-.164-.043-.257-.015-.3.17-.398 1.712-.8 3.426-1.205 5.137-.042.182.022.252.191.288.326.068.651.142.973.23.194.053.29.007.33-.2.066-.336.16-.666.23-1.002.039-.184.124-.246.312-.198.395.102.791.194 1.19.28.164.034.214.115.179.273-.03.134-.039.275-.07.41-.178.766-.36 1.53-.541 2.297-.08.341-.096.352-.427.276-.352-.082-.706-.156-1.054-.25-.199-.053-.284.004-.328.204-.135.616-.291 1.225-.424 1.84-.047.214-.142.271-.35.215-.33-.09-.667-.153-1-.239-.175-.045-.254.01-.291.184-.071.335-.147.67-.235 1.001-.052.192.016.27.199.307.308.063.61.159.92.208.288.045.33.176.263.439-.15.582-.188.502.401.63.254.054.346.149.266.413-.09.3-.14.614-.223.918-.052.194-.01.292.198.332.326.063.65.142.972.228.184.05.274 0 .312-.19.069-.337.162-.666.23-1.002.04-.2.132-.255.33-.207.612.152 1.227.283 1.838.438.212.053.303 0 .345-.215.074-.372.176-.74.255-1.11.04-.191.124-.273.327-.224.918.22 1.837.436 2.756.652.178.041.248.132.202.319-.102.404-.196.81-.286 1.217-.036.162-.121.209-.279.17-.341-.085-.687-.152-1.025-.244-.202-.054-.287.007-.326.207-.064.327-.144.651-.227.974-.043.167-.01.257.172.299 1.713.397 3.425.799 5.137 1.205.182.043.25-.026.287-.194.069-.325.16-.647.222-.974.043-.221.138-.292.363-.232.402.108.811.192 1.217.286.01.018.023.035.033.053-.097.412-.203.824-.29 1.24-.042.195-.129.251-.329.209-.605-.13-.608-.122-.748.475-.063.27-.119.54-.192.807-.052.188-.016.283.192.335.61.15.608.159.461.784-.066.287-.133.575-.198.863l-.054.034h.002zM34.632 32.75c.098-.413.19-.83.294-1.242.044-.173-.007-.253-.182-.293-.847-.194-1.693-.393-2.538-.595-.162-.04-.24.008-.277.17-.194.848-.392 1.695-.596 2.54-.041.174.007.253.182.293.837.19 1.675.387 2.51.59.187.045.271-.005.311-.193.09-.425.196-.847.295-1.27h.001z" fill="#2B94FC"/><path d="M15.779 34.306c-.46-.108-.917-.223-1.379-.323-.197-.042-.26-.137-.213-.332.22-.918.438-1.837.649-2.758.042-.185.129-.241.313-.197.467.113.938.216 1.406.323.01.017.021.036.034.054l-.757 3.201c-.017.01-.036.021-.053.033zM31.248 15.06c.107-.449.224-.897.316-1.35.05-.243.164-.294.39-.238.881.216 1.763.424 2.648.626.228.052.307.152.245.388-.116.447-.21.9-.312 1.351l-.053.032-3.2-.755-.034-.055v.002zm7.995 1.883c.11-.459.228-.917.328-1.377.046-.21.144-.273.352-.224.909.22 1.817.434 2.729.646.196.045.252.148.203.341-.115.458-.217.92-.323 1.378l-.054.034-3.202-.745-.033-.053zM17.66 26.308c-.45-.108-.898-.224-1.35-.322-.215-.047-.3-.134-.243-.363.221-.908.435-1.818.642-2.73.046-.206.148-.245.337-.197.458.115.92.216 1.378.322l.034.053-.746 3.203-.053.034zm17.353 23.471c-.104.441-.218.88-.31 1.324-.05.24-.155.325-.405.264-.872-.213-1.745-.417-2.622-.61-.263-.058-.323-.177-.255-.43.118-.438.206-.883.307-1.325.017-.01.036-.021.053-.033l3.2.755.033.053-.001.002zM23.782 47.1l3.202.744.033.055c-.108.45-.224.898-.321 1.35-.05.235-.164.299-.395.243-.88-.214-1.764-.42-2.648-.618-.232-.052-.303-.155-.242-.39.118-.447.214-.9.318-1.351.017-.01.036-.021.053-.033zm24.021-5.332l.746-3.203.053-.034c.44.106.877.227 1.32.312.24.046.309.154.258.377-.15.647-.296 1.295-.445 1.944-.056.242-.124.483-.168.728-.042.232-.143.31-.382.247-.446-.118-.898-.212-1.348-.318l-.033-.054h-.001zm2.68-11.233c.45.107.897.22 1.348.315.19.04.262.115.229.317-.1.612-.276 1.205-.407 1.81-.07.324-.156.645-.227.97-.04.184-.133.242-.317.197-.467-.113-.936-.216-1.404-.322l-.033-.053.756-3.2.054-.032.001-.002zM35.326 48.248c-.45-.107-.896-.22-1.349-.317-.216-.045-.3-.136-.241-.363.105-.401.199-.807.287-1.212.038-.18.116-.255.306-.207.403.103.808.196 1.213.285.175.04.223.126.182.297-.12.493-.231.988-.346 1.483l-.053.034h.001zm10.948-6.791c-.484-.114-.969-.235-1.454-.341-.195-.043-.26-.128-.208-.328.1-.385.19-.772.272-1.16.041-.193.133-.268.33-.219.412.103.824.202 1.237.295.2.045.245.155.198.344-.114.457-.215.917-.322 1.374l-.053.034v.001zM17.308 34.62c.108-.458.224-.914.323-1.375.045-.213.15-.27.353-.22.403.102.806.197 1.211.29.195.044.254.146.204.34-.1.393-.192.788-.278 1.186-.039.176-.128.22-.298.179-.492-.12-.987-.231-1.482-.346-.01-.019-.023-.036-.033-.055zm24.858-15.348c-.115.486-.236.969-.341 1.457-.043.197-.131.257-.33.207a32.31 32.31 0 00-1.186-.28c-.173-.04-.228-.133-.188-.3.103-.43.208-.861.303-1.294.04-.182.144-.209.305-.169.467.112.935.217 1.402.327l.034.055.001-.003zm6.788 10.951c-.107.45-.22.896-.316 1.347-.05.236-.167.3-.395.24-.392-.101-.79-.19-1.186-.277-.177-.04-.248-.13-.201-.316.101-.403.196-.807.284-1.213.038-.175.125-.223.296-.181.492.12.989.23 1.482.345l.034.053.002.002zm-28.966-6.84c.484.114.968.235 1.455.341.196.043.26.13.207.329a22.06 22.06 0 00-.265 1.13c-.046.218-.152.294-.373.24-.393-.1-.79-.191-1.186-.275-.21-.046-.265-.15-.213-.358.116-.456.216-.916.323-1.374l.053-.032-.001-.001zm10.948-6.791c.459.108.916.221 1.376.323.166.036.229.102.205.284-.06.46-.203.902-.303 1.351-.03.134-.122.175-.252.143-.423-.1-.845-.203-1.27-.296-.195-.043-.185-.165-.149-.315.115-.486.227-.973.34-1.458l.054-.032h-.001zm-6.84 28.978c.114-.486.236-.97.342-1.458.045-.2.137-.255.333-.203.384.1.772.188 1.16.274.151.033.216.092.195.264-.056.47-.201.92-.307 1.38-.041.177-.178.15-.312.12l-1.377-.32a1.179 1.179 0 00-.033-.056h-.001zm27.429-8.814c-.048.207-.103.412-.144.62-.034.171-.118.231-.292.187-.358-.09-.717-.175-1.078-.252-.176-.037-.22-.13-.18-.297.108-.43.208-.862.305-1.295.035-.157.112-.216.275-.176.367.091.735.178 1.105.26.164.035.206.123.166.28-.057.222-.106.448-.158.673zm-35.251-8.28c-.051.216-.106.431-.151.647-.034.16-.114.216-.275.176-.367-.09-.735-.177-1.105-.258-.164-.036-.205-.125-.166-.28.105-.431.206-.862.302-1.295.038-.17.12-.23.294-.187.357.091.716.175 1.078.253.177.038.223.13.177.299-.057.213-.102.43-.153.647l-.001-.002zm12.531 22.346c-.224-.052-.448-.107-.674-.158-.134-.03-.181-.107-.15-.241.093-.386.184-.773.273-1.16.032-.14.119-.172.247-.141.448.107.898.212 1.347.315.148.033.196.113.16.26-.092.376-.18.754-.265 1.131-.035.154-.124.187-.266.152-.224-.056-.448-.106-.673-.158h.001zm8.648-36.805c.216.05.43.106.647.15.157.034.216.113.176.276-.09.367-.178.735-.259 1.104-.036.164-.124.206-.28.168-.43-.105-.86-.206-1.294-.302-.17-.038-.232-.118-.187-.293.09-.357.175-.717.254-1.077.037-.177.129-.225.297-.18.213.058.43.103.646.154z" fill="#2B94FC"/><path d="M47.836 41.82c-.1.414-.207.827-.296 1.242-.043.193-.125.264-.327.21-.339-.09-.682-.17-1.026-.24-.204-.041-.247-.141-.199-.333.104-.413.191-.829.286-1.244.017-.01.036-.021.053-.033l1.476.345.033.055v-.001zM17.34 34.672c-.1.414-.206.826-.295 1.241-.043.194-.126.264-.327.21-.339-.09-.682-.17-1.026-.24-.204-.04-.247-.14-.199-.333.104-.412.19-.828.286-1.243l.053-.034 1.476.346c.01.019.022.036.033.055v-.002zm6.389 12.461c-.414-.1-.825-.206-1.24-.297-.193-.042-.264-.125-.21-.327.09-.338.17-.681.24-1.026.041-.204.141-.248.333-.2.413.103.829.191 1.242.286l.034.055-.346 1.476-.053.034v-.002zm11.251 2.592l.346-1.477c.017-.01.036-.021.053-.033.414.1.825.205 1.241.296.194.043.264.125.211.327-.09.339-.17.682-.24 1.026-.041.204-.142.247-.334.199-.412-.104-.828-.191-1.242-.286l-.033-.053-.003.001zm13.94-19.557c.1-.413.208-.824.298-1.24.043-.195.127-.265.327-.211.339.09.682.17 1.026.24.206.041.247.142.199.335-.104.412-.19.828-.286 1.243l-.053.032-1.477-.346c-.01-.017-.023-.035-.033-.053zm-30.496-7.152c.1-.414.207-.825.298-1.241.042-.195.126-.264.327-.21.338.09.681.17 1.026.24.205.04.246.142.198.334-.104.413-.19.829-.285 1.244l-.054.032-1.477-.346-.033-.053zm24.109-5.308c.414.1.825.207 1.24.297.194.042.265.125.212.326-.091.34-.171.682-.24 1.026-.042.204-.142.247-.334.2-.412-.105-.829-.192-1.242-.286l-.033-.054.346-1.477.054-.033-.003.001zm-11.252-2.592l-.345 1.477-.054.032c-.413-.1-.824-.206-1.24-.297-.193-.042-.263-.125-.21-.326.09-.34.17-.682.24-1.026.041-.205.142-.249.334-.2.412.102.828.19 1.242.285.01.019.022.036.033.055z" fill="#2B94FC"/></svg>