<svg width="34" height="24" viewBox="0 0 34 24" fill="none" xmlns="http://www.w3.org/2000/svg">
<g clip-path="url(#clip0_22_1416)">
<path d="M17.0016 0.805542C21.9182 0.805542 26.8349 0.805542 31.7516 0.805542C32.818 0.805542 33.6448 1.40291 33.8964 2.32254C33.9457 2.50464 33.9297 2.60813 33.7539 2.7221C28.2342 6.29059 22.7171 9.86301 17.2039 13.442C17.0428 13.5468 16.9417 13.5245 16.7952 13.4302C11.2901 9.85908 5.78229 6.2919 0.271833 2.72865C0.108078 2.62254 0.0614803 2.53084 0.114734 2.33564C0.339732 1.51557 1.08129 0.889383 1.95333 0.817332C2.10643 0.805542 2.2622 0.805542 2.41797 0.805542C7.27872 0.805542 12.1395 0.805542 17.0016 0.805542Z" fill="#ED863C"/>
<path d="M17.0035 23.8055C12.0988 23.8055 7.19408 23.8055 2.28806 23.8055C1.24827 23.8055 0.470763 23.2854 0.155234 22.4025C0.0686959 22.1588 0.0899974 22.0121 0.346948 21.8536C4.61659 19.2126 8.87957 16.5598 13.1386 13.9005C13.3489 13.7695 13.486 13.7695 13.6897 13.907C14.5405 14.4769 15.4098 15.0192 16.2606 15.5865C16.7731 15.9284 17.2551 15.9218 17.7663 15.5812C18.6264 15.0074 19.5037 14.4559 20.3665 13.8861C20.5342 13.7747 20.654 13.7616 20.8338 13.8743C25.122 16.5493 29.4116 19.2191 33.7092 21.8798C33.9276 22.0147 33.9462 22.1431 33.881 22.3527C33.6333 23.1427 32.8971 23.7308 32.0504 23.7964C31.8959 23.8081 31.7402 23.8068 31.5857 23.8068C26.725 23.8068 21.8642 23.8068 17.0035 23.8068V23.8055Z" fill="#ED863C"/>
<path d="M0 19.6043V5.05133C3.83562 7.53513 7.63129 9.99403 11.4656 12.4778C7.63795 14.8568 3.84627 17.2135 0 19.6043Z" fill="#ED863C"/>
<path d="M33.9978 19.5951C30.1702 17.2162 26.3785 14.8594 22.5469 12.4778C26.3758 9.99795 30.1675 7.54166 33.9978 5.06049V19.5951Z" fill="#ED863C"/>
</g>
<defs>
<clipPath id="clip0_22_1416">
<rect width="34" height="23" fill="white" transform="translate(0 0.805542)"/>
</clipPath>
</defs>
</svg>
