<svg width="21" height="22" viewBox="0 0 21 22" fill="none" xmlns="http://www.w3.org/2000/svg">
<path d="M6.00481 8.56584C7.92783 11.2753 10.2234 13.5685 12.9411 15.5022C13.1404 15.2157 13.3279 14.9468 13.5165 14.678C14.4562 13.3327 15.7838 13.0946 17.1268 14.0307C18.0346 14.6639 18.9425 15.2982 19.8504 15.9337C21.0129 16.7472 21.3124 17.9133 20.6651 19.1725C19.9093 20.6428 18.6383 21.3326 17.0407 21.4693C15.2096 21.6261 13.4918 21.151 11.8729 20.3587C7.01761 17.9864 3.3944 14.3644 1.06814 9.4796C0.322982 7.91619 -0.11916 6.25962 0.0282207 4.50167C0.176781 2.72013 0.989144 1.37483 2.6964 0.676839C3.65733 0.284216 4.74677 0.556576 5.36459 1.39134C6.1628 2.47017 6.93625 3.56904 7.67198 4.69149C8.33696 5.70547 8.07521 7.02836 7.11547 7.77116C6.76765 8.03999 6.39979 8.28405 6.00481 8.56584Z" fill="#ED863C"/>
</svg>
