<svg width="13" height="24" fill="none" xmlns="http://www.w3.org/2000/svg"><g clip-path="url(#clip0_311_8070)"><path d="M3.803 23.047V12.569H.258V8.473h3.549v-.29c.004-1.071-.027-2.144.021-3.213.066-1.446.53-2.743 1.665-3.725C6.298.55 7.258.205 8.306.101c1.152-.115 2.301-.025 3.45.069l.502.04v3.661h-.234c-.805.013-1.611.005-2.416.043-.953.046-1.501.59-1.533 1.544-.032.972-.012 1.947-.014 2.92 0 .02.01.041.021.087h4.043l-.532 4.1H8.066v10.482H3.803z" fill="#D3D3D3"/></g><defs><clipPath id="clip0_311_8070"><path transform="translate(.258 .046)" d="M0 0h12v23H0z"/></clipPath></defs></svg>