<svg width="54" height="52" viewBox="0 0 54 52" fill="none" xmlns="http://www.w3.org/2000/svg">
<g clip-path="url(#clip0_2255_44492)">
<path d="M5.54891 27.8673C6.46095 24.8164 11.4185 24.1993 12.6929 27.3133C13.4306 29.1143 12.9362 31.2618 11.1162 32.2497C9.6393 33.0515 7.46281 32.8078 6.39629 31.4401C6.12584 31.0892 5.93313 30.7122 5.79036 30.3239C5.43184 29.575 5.29486 28.7258 5.54891 27.8673Z" fill="#DEDEDE"/>
<path d="M18.704 36.882C20.3881 36.1229 22.2556 36.1363 23.8359 37.1535C25.6247 38.3043 26.5098 40.2442 27.1544 42.1834C27.4408 43.0351 27.2146 43.9302 26.7159 44.6548C26.4757 45.7526 25.911 46.7757 25.0209 47.45C21.7353 49.9383 15.9519 48.4519 15.1116 44.1627C14.5729 41.4017 16.0606 38.0701 18.7023 36.8789L18.704 36.882Z" fill="#DEDEDE"/>
<path d="M31.4714 4.46929C39.8223 4.06031 44.2505 11.2228 43.2742 18.0388C43.1404 19.7158 42.6492 21.4196 41.9286 22.8777C39.0959 28.5955 32.5006 30.6391 26.8347 28.1017C21.631 25.7672 18.5754 20.2123 19.2777 14.5642C20.0684 8.18728 25.4036 4.76554 31.4714 4.46929Z" fill="#DEDEDE"/>
</g>
<defs>
<clipPath id="clip0_2255_44492">
<rect width="41.4298" height="36.3308" fill="white" transform="matrix(-0.878854 0.477091 0.477091 0.878854 36.4102 0)"/>
</clipPath>
</defs>
</svg>
