<svg width="72" height="59" viewBox="0 0 72 59" fill="none" xmlns="http://www.w3.org/2000/svg">
<path d="M58.1006 9.60914C56.1374 7.19138 56.5602 5.56714 59.3607 4.74195C60.7219 2.68734 61.9509 2.56832 63.0281 4.37374C64.6788 5.34296 65.4392 7.39445 66.1396 9.06582C67.5568 12.5057 68.1381 16.3318 68.0791 20.0426C67.9231 29.3972 63.2537 37.9532 56.2414 43.9711C51.6471 47.9177 45.1444 51.9538 38.928 50.0887C35.4859 49.0596 32.4205 45.9208 30.2695 43.1476C26.0809 37.7539 23.9287 30.9258 24.098 24.1062C24.1631 21.2912 24.2465 16.6763 26.1021 14.3539C30.1945 9.25232 36.5788 16.1657 38.2656 19.3427C42.0561 26.4882 40.1752 34.5989 37.5173 41.773C35.2335 47.9191 31.252 54.183 24.1987 55.4166C20.4584 56.073 16.4159 55.55 13.0533 53.7723C10.0424 52.1812 7.67739 49.5739 6.26769 46.4891C5.72696 45.3118 3.91698 41.4605 4.80243 40.0454C7.5478 35.6811 10.164 43.2813 10.7086 45.152C11.2037 46.8395 15.5981 44.0934 15.1772 42.6807C14.0218 38.8393 12.382 34.5752 7.60545 34.7909C5.18114 34.8987 2.62556 36.5094 1.46938 38.62C-3.54809 47.7547 7.54934 57.6861 15.7621 58.6714C23.8888 59.6537 32.427 55.7196 37.0918 49.0386C42.4857 41.322 46.3998 28.6234 43.1523 19.4379C40.5411 12.0623 31.2523 5.38309 24.5346 12.2976C18.4481 18.5536 19.6377 31.0956 22.5208 38.4108C25.7375 46.5728 33.9104 55.8758 43.6131 53.2453C53.2186 50.6313 62.3888 42.2944 67.1829 33.7637C71.7711 25.5376 74.6655 9.00351 66.1849 1.89641C60.295 -3.041 50.9879 4.5467 56.1197 11.0188C56.5676 11.5857 58.4402 10.2479 58.1006 9.60914Z" fill="#CACACA"/>
</svg>
