<svg width="54" height="52" viewBox="0 0 54 52" fill="none" xmlns="http://www.w3.org/2000/svg">
<g clip-path="url(#clip0_2640_24771)">
<path d="M5.54891 27.8678C6.46095 24.8169 11.4185 24.1997 12.6929 27.3138C13.4306 29.1148 12.9362 31.2622 11.1162 32.2502C9.6393 33.052 7.46281 32.8083 6.39629 31.4405C6.12584 31.0897 5.93313 30.7126 5.79036 30.3244C5.43184 29.5755 5.29486 28.7263 5.54891 27.8678Z" fill="#DEDEDE"/>
<path d="M18.702 36.882C20.3862 36.1229 22.2536 36.1363 23.8339 37.1535C25.6228 38.3043 26.5079 40.2442 27.1525 42.1834C27.4388 43.0351 27.2127 43.9302 26.7139 44.6548C26.4738 45.7526 25.9091 46.7757 25.019 47.45C21.7333 49.9383 15.9499 48.4519 15.1096 44.1627C14.5709 41.4017 16.0587 38.0701 18.7003 36.8789L18.702 36.882Z" fill="#DEDEDE"/>
<path d="M31.4714 4.4688C39.8223 4.05982 44.2505 11.2223 43.2742 18.0383C43.1404 19.7153 42.6492 21.4191 41.9286 22.8772C39.0959 28.595 32.5006 30.6386 26.8347 28.1012C21.631 25.7667 18.5754 20.2118 19.2777 14.5637C20.0684 8.1868 25.4036 4.76505 31.4714 4.4688Z" fill="#DEDEDE"/>
</g>
<defs>
<clipPath id="clip0_2640_24771">
<rect width="41.4298" height="36.3308" fill="white" transform="matrix(-0.878854 0.477091 0.477091 0.878854 36.4102 0)"/>
</clipPath>
</defs>
</svg>
