<svg width="162" height="134" fill="none" xmlns="http://www.w3.org/2000/svg"><g clip-path="url(#clip0_2644_25153)" fill="#fff"><path d="M15.577 99.48c6.24 9.81 14.96 18.34 22.545 27.161 1.288 1.501 6.557-1.561 6.114-3.358a5732.68 5732.68 0 00-9.997-40.294l-6.143 3.373c10.438 10.475 18.215 22.715 25.884 35.268 1.13 1.86 6.36-1.735 6.257-3.441-1.383-22.685-2.746-45.402-4.677-68.04-.183-2.043-5.821.81-5.736 2.717.989 22.799 2.519 45.572 4.048 68.346l6.258-3.44c-7.747-12.489-15.647-24.677-25.998-35.201-1.356-1.386-6.599 1.488-6.143 3.374a5731.231 5731.231 0 0010.026 40.278l6.114-3.357c-7.719-8.821-15.014-18.634-23.877-26.314-1.194-1.038-5.596 1.465-4.675 2.928zm52.169-33.572c-.225 9.34 2.28 30.283 14.114 32.45 9.307 1.706 12.488-7.096 12.408-14.474-.088-8.986-2.003-27.412-14.53-26.262-7.103.647-15.517 8.556-10.79 15.746 1.008 1.548 5.455-1.442 5.329-2.923-.452-5.4 4.582-10.627 9.031-4.946 1.532 1.956 2.278 4.71 2.983 7.027 1.432 4.737 3.601 12.944 2.117 17.811-2.96 9.652-10.335-3.454-12.004-7.076-2.822-6.083-4.155-12.643-4.49-19.3-.075-1.49-4.129.62-4.166 1.984l-.002-.037zm13.316-28.274c8.29 13.594 18.243 26.152 26.578 39.758 1.115 1.832 6.524-1.751 5.929-3.71-4.101-13.845-8.4-27.633-12.515-41.47l-5.872 3.678c9.576 13.331 19.152 26.663 28.736 40.01 1.203 1.684 6.685-1.673 6.272-3.45-5.524-24.246-5.006-46.495-3.966-71.06.083-2.08-5.39.926-5.709 2.3-5.511 23.23-2.082 48.86 3.296 71.791l6.272-3.448-29.029-39.82c-1.282-1.755-6.458 1.732-5.872 3.677 4.219 13.815 8.24 27.687 12.458 41.502l5.929-3.71c-8.375-13.411-17.474-26.98-27.66-39.077-1.106-1.318-5.746 1.572-4.847 3.029z"/></g><defs><clipPath id="clip0_2644_25153"><path fill="#fff" transform="rotate(-30 135.287 36.25)" d="M0 0h145v71H0z"/></clipPath></defs></svg>