<svg width="338" height="62" viewBox="0 0 338 62" fill="none" xmlns="http://www.w3.org/2000/svg">
<g clip-path="url(#clip0_698_4391)">
<path d="M325.237 33.9715C326.126 32.848 326.227 31.5871 326.651 30.4596C327.536 28.0833 328.329 25.6667 329.101 23.2621C329.94 20.6798 330.863 18.1095 331.655 15.511C332.125 13.9672 332.1 13.9632 333.711 13.9632C334.689 13.9632 335.666 13.9955 336.648 13.9632C337.361 13.9308 337.487 14.1935 337.285 14.7957C335.716 19.0754 334.135 23.351 332.587 27.6388C331.416 30.892 330.321 34.1654 329.13 37.4106C328.71 38.5138 328.262 39.6009 327.918 40.7325C327.863 40.9912 327.735 41.2304 327.548 41.4235C326.424 42.3247 325.09 41.6256 323.861 41.8277C323.303 41.9206 323.047 41.5084 322.896 41.0841C321.981 38.4977 321.088 35.8991 320.169 33.3127C319.431 31.2315 318.663 29.1583 317.916 27.0771C317.446 25.7556 316.989 24.43 316.519 23.1085C316.456 22.9348 316.49 22.6761 316.205 22.6519C315.919 22.6276 315.785 22.8822 315.726 23.1005C314.908 25.3919 314.107 27.6832 313.289 29.9706C312.353 32.5772 311.405 35.1758 310.478 37.7864C310.134 38.7563 309.807 39.7343 309.509 40.7204C309.278 41.4801 308.884 41.9327 307.957 41.8479C307.298 41.769 306.631 41.769 305.973 41.8479C304.991 41.9812 304.584 41.4437 304.32 40.7082C302.012 34.3015 299.712 27.8947 297.419 21.488C296.58 19.1926 295.741 16.8971 294.901 14.6179C294.759 14.2137 294.813 13.9793 295.321 13.9834C296.752 13.9834 298.186 13.9834 299.617 13.9834C300.15 13.9834 300.334 14.2744 300.456 14.6946C301.714 18.5338 302.973 22.3717 304.232 26.2082C305.02 28.5723 305.847 30.9284 306.661 33.2844C306.715 33.4501 306.661 33.7371 306.979 33.6886C307.223 33.6562 307.302 33.4461 307.37 33.2561C308.066 31.2355 308.765 29.2149 309.467 27.1943C310.247 24.915 311.066 22.6479 311.842 20.3686C312.437 18.6187 313.138 16.8931 313.599 15.1149C313.822 14.2542 314.216 13.8137 315.168 13.9713C315.308 13.9834 315.448 13.9834 315.588 13.9713C318.525 13.9713 318.428 13.9915 319.305 16.6627C320.723 20.995 322.241 25.2949 323.731 29.5948C324.259 30.989 324.717 32.4156 325.237 33.9715Z" fill="#292425"/>
<path d="M277.299 41.9651C268.841 42.159 262.431 35.5677 262.418 27.8206C262.414 25.9219 262.801 24.0413 263.559 22.2886C264.317 20.5358 265.429 18.9458 266.832 17.6116C268.234 16.2773 269.898 15.2253 271.727 14.517C273.555 13.8088 275.512 13.4584 277.483 13.4863C286.054 13.5227 292.389 19.9523 292.372 27.756C292.381 29.6509 291.996 31.5285 291.238 33.277C290.479 35.0256 289.364 36.6096 287.958 37.935C286.552 39.2603 284.884 40.3 283.053 40.9923C281.222 41.6846 279.265 42.0154 277.299 41.9651ZM267.83 27.6671C267.83 28.3016 267.801 28.9401 267.83 29.5786C267.907 30.1019 268.057 30.6129 268.275 31.0981C269.026 33.3004 270.603 35.153 272.699 36.2924C274.795 37.4318 277.256 37.7758 279.602 37.257C284.116 36.2628 286.595 32.5206 287.023 28.9562C287.262 26.9104 286.858 24.8425 285.865 23.0196C284.886 21.1243 283.257 19.6133 281.254 18.7426C279.251 17.8718 276.997 17.695 274.874 18.2419C272.751 18.7889 270.889 20.026 269.605 21.7437C268.321 23.4614 267.692 25.554 267.826 27.6671H267.83Z" fill="#292425"/>
<path d="M213.414 27.764C213.414 23.5005 213.414 19.237 213.414 14.9694C213.414 14.2177 213.57 13.9348 214.438 13.9429C220.871 13.9779 227.303 13.9779 233.736 13.9429C234.6 13.9429 234.81 14.2056 234.751 14.9654C234.686 15.7724 234.686 16.5831 234.751 17.3901C234.814 18.162 234.579 18.4166 233.723 18.4085C229.079 18.3681 224.435 18.3883 219.791 18.4085C218.411 18.4085 218.411 18.4085 218.407 19.73C218.407 21.4435 218.457 23.157 218.407 24.8665C218.373 25.6747 218.675 25.8848 219.472 25.8808C223.558 25.8525 227.644 25.8808 231.73 25.8485C232.725 25.8485 233.039 26.1799 232.989 27.0609C232.947 27.7998 232.947 28.5405 232.989 29.2795C233.031 30.0878 232.637 30.3989 231.798 30.3949C227.783 30.3949 223.768 30.3949 219.749 30.3626C218.696 30.3626 218.386 30.6374 218.415 31.6719C218.495 34.5937 218.394 37.5156 218.469 40.4374C218.469 41.4033 218.159 41.6498 217.24 41.5609C216.334 41.4922 215.424 41.4922 214.518 41.5609C213.679 41.6215 213.456 41.3709 213.465 40.5708C213.414 36.2951 213.414 32.0316 213.414 27.764Z" fill="#292425"/>
<path d="M13.2375 15.6403C13.6036 17.8705 14.7491 19.9136 16.4846 21.4314C18.4018 23.2176 20.2602 25.0685 22.1732 26.8548C22.899 27.5175 22.899 27.9742 22.1732 28.6369C20.1302 30.5404 18.1752 32.5246 16.128 34.42C13.4347 36.9215 12.6963 40.0333 13.4137 43.3754C14.0598 46.4023 16.0902 48.6291 19.1108 49.7727C23.1507 51.3125 26.7586 50.5325 29.8462 47.5824C30.6139 46.8509 31.39 46.1316 32.1577 45.4041C32.2332 45.3031 32.3302 45.2188 32.4421 45.1567C32.5541 45.0945 32.6785 45.0561 32.8071 45.0438C32.9356 45.0316 33.0654 45.0459 33.1878 45.0857C33.3102 45.1255 33.4224 45.19 33.517 45.2748C34.2521 45.8369 35.0655 46.2967 35.9334 46.6408C36.4242 46.8024 36.441 47.15 36.0844 47.4935C33.2107 50.2981 30.551 53.3735 26.2425 54.2909C20.9818 55.4063 15.0792 53.8868 11.5594 49.211C9.80318 46.944 8.84484 44.1956 8.82419 41.3669C8.77385 37.3984 10.3219 34.0926 13.1872 31.3123C14.1395 30.3909 15.075 29.4533 16.0818 28.5925C16.8244 27.9621 16.7447 27.5498 16.0567 26.9154C14.689 25.6626 13.2669 24.4421 12.3188 22.8216C11.1441 20.801 10.9008 18.8086 12.1006 16.7597C12.3231 16.2641 12.7281 15.8654 13.2375 15.6403Z" fill="#FDB604"/>
<path d="M42.847 46.6449C38.0142 46.7378 34.4567 44.7819 31.4529 41.7348C30.744 41.0195 29.9762 40.3567 29.3176 39.601C28.7219 38.922 28.2856 39.0473 27.7318 39.6293C26.6208 40.8814 25.3685 42.0105 23.9981 42.9956C21.5733 44.6122 18.8171 44.6808 16.5894 43.2179C16.3167 43.0361 16.0021 42.8582 16.0692 42.5632C16.1363 42.2682 16.5433 42.3895 16.7992 42.3329C18.6008 41.9469 20.2467 41.0636 21.5355 39.7909C23.5912 37.8026 25.6636 35.8305 27.6857 33.8098C28.3024 33.1956 28.7009 33.1835 29.3637 33.8098C31.6921 36.0851 33.9029 38.4937 36.4955 40.5022C37.7033 41.4551 39.133 42.1115 40.662 42.415C42.191 42.7185 43.7736 42.6602 45.2741 42.2449C46.7745 41.8296 48.1479 41.0698 49.2765 40.0307C50.405 38.9916 51.2549 37.7042 51.7534 36.2791C53.0413 32.7672 52.2232 29.4736 49.5257 26.7094C48.6867 25.8607 47.8141 25.0565 46.9583 24.2321C46.5388 23.828 46.4003 23.4238 46.887 22.8904C47.3891 22.2766 47.8117 21.6062 48.1455 20.894C48.4518 20.2959 48.7329 20.0453 49.2992 20.6313C51.1199 22.5105 53.3182 24.0906 54.6271 26.3699C56.1709 29.0573 56.9302 31.8903 56.4058 35.0586C55.4703 40.6921 52.1016 44.2282 46.6898 46.1317C45.4616 46.565 44.1513 46.74 42.847 46.6449Z" fill="#292425"/>
<path d="M34.2385 4.95115C31.7424 5.10876 29.414 5.79981 27.5598 7.61838C26.7207 8.45088 25.8272 9.23489 24.9881 10.0755C24.4973 10.5645 24.1113 10.6655 23.4863 10.1927C22.7654 9.6929 21.9954 9.26244 21.1873 8.90754C20.6965 8.6691 20.5119 8.47514 20.9692 8.03868C22.7773 6.32519 24.3924 4.40153 26.5445 3.04771C28.4576 1.8256 30.6686 1.10545 32.959 0.958386C39.0839 0.554259 43.6273 2.91436 46.6394 8.01039C47.5184 9.53647 48.0423 11.2285 48.1749 12.969C48.6363 17.8509 46.7443 21.7426 43.0903 24.9837C42.2806 25.703 41.5423 26.4991 40.7368 27.2185C40.3173 27.6226 40.2837 27.8611 40.7368 28.2611C41.5465 28.9845 42.31 29.7564 43.0735 30.5243C44.8229 32.2822 45.9556 34.2624 45.6703 36.8165C45.509 37.7761 45.1184 38.6864 44.5292 39.4756C44.4244 39.6332 44.3447 39.8798 44.0762 39.8151C43.8077 39.7505 43.8035 39.5322 43.7573 39.3382C43.5736 38.5203 43.292 37.7256 42.9183 36.9701C41.8821 34.9494 40.0446 33.6401 38.4798 32.0842C37.2548 30.8637 35.9963 29.6729 34.7042 28.5117C34.0959 27.9702 34.1126 27.5903 34.7042 27.0447C36.7556 25.1292 38.7651 23.1772 40.7872 21.2374C45.3809 16.8284 45.0159 10.4392 39.8726 6.68889C38.27 5.51692 36.3277 5.04006 34.2385 4.95115Z" fill="#FDB604"/>
<path d="M0.622455 22.951C0.521771 16.2223 4.54076 11.0535 10.4769 9.3966C15.8677 7.89325 20.7341 9.15008 24.7867 12.9812C25.8438 13.9794 26.9178 14.9574 27.9163 16.0041C28.4071 16.5173 28.7217 16.4324 29.1748 16.0041C30.3327 14.9129 31.3983 13.7207 32.7155 12.771C35.3963 10.8717 38.3748 10.7181 40.6486 12.3669C40.8332 12.5003 41.1227 12.5851 41.0681 12.8761C41.0681 12.965 40.871 13.062 40.7535 13.0782C37.9889 13.4823 36.0591 15.1352 34.2342 17.0023C32.6862 18.5864 30.9997 20.0494 29.4643 21.6457C28.7301 22.4054 28.2896 22.2316 27.6394 21.5931C25.6341 19.6169 23.5575 17.7095 21.5522 15.7333C20.4474 14.6325 19.0791 13.8097 17.5674 13.3369C16.0556 12.864 14.4465 12.7557 12.8812 13.0214C11.3158 13.2871 9.84206 13.9186 8.58907 14.8607C7.33609 15.8027 6.34215 17.0266 5.69442 18.4248C4.04152 21.8235 4.61207 25.6223 7.51094 28.637C8.34997 29.518 9.23934 30.3829 10.1539 31.2033C10.6363 31.6397 10.7664 31.9388 10.3049 32.5126C9.7674 33.2444 9.29582 34.0191 8.89534 34.8283C8.65202 35.2728 8.42548 35.3698 8.0563 34.998C5.44271 32.4722 2.4935 30.2091 1.31886 26.6002C0.918397 25.4193 0.684175 24.1919 0.622455 22.951Z" fill="#292425"/>
<path d="M239.605 27.7843C239.605 23.5207 239.63 19.2572 239.605 14.9937C239.605 14.1329 239.873 13.8864 240.729 13.947C241.67 14.0197 242.616 14.0197 243.557 13.947C244.467 13.8702 244.643 14.2258 244.639 15.03C244.61 21.9002 244.639 28.7299 244.639 35.5798C244.639 37.1115 244.639 37.1115 246.191 37.1115C250.349 37.1115 254.502 37.1317 258.655 37.1115C259.46 37.1115 259.792 37.2893 259.725 38.1137C259.666 39.0181 259.666 39.9251 259.725 40.8295C259.754 41.4154 259.523 41.5609 258.944 41.5609C252.799 41.5609 246.653 41.5367 240.507 41.5609C239.668 41.5609 239.638 41.2012 239.638 40.587C239.613 36.3154 239.605 32.0518 239.605 27.7843Z" fill="#292425"/>
<path d="M126.234 27.7802C126.323 22.0861 128.794 17.7054 134.084 14.9735C136.752 13.5994 139.604 13.357 142.633 13.6964C144.551 13.8776 146.405 14.4627 148.062 15.4103C149.719 16.358 151.14 17.6451 152.224 19.1804C157.3 26.0506 155.408 36.4811 146.921 40.6678C144.17 42.0053 141.032 42.4138 138.01 41.8277C132.649 40.8537 128.936 37.8389 127.057 32.8035C126.473 31.1899 126.195 29.4885 126.234 27.7802ZM140.637 40.0131C142.786 40.131 144.919 39.5921 146.732 38.4734C150.193 36.4528 152.052 33.438 152.568 29.5826C153.067 26.4388 152.325 23.2288 150.487 20.5868C148.242 17.3538 145.125 15.6726 141.081 15.4948C137.956 15.3574 135.128 16.1131 132.817 18.1256C129.163 21.3102 127.913 25.3353 128.651 29.9989C129.511 35.3697 134.189 40.2031 140.637 40.0131Z" fill="#292425"/>
<path d="M121.888 41.3306C119.984 41.7993 118.834 41.4801 117.802 40.0858C115.419 36.8528 112.831 33.7896 110.339 30.6495C110.203 30.46 110.018 30.308 109.803 30.2087C109.587 30.1094 109.348 30.0663 109.11 30.0837C106.559 30.108 104.013 30.1161 101.462 30.0837C100.724 30.0837 100.518 30.31 100.527 31.0051C100.56 34.2382 100.527 37.4712 100.564 40.6759C100.564 41.5448 100.145 41.5649 99.4987 41.5488C98.8526 41.5326 98.4079 41.5973 98.4121 40.7001C98.4513 32.0788 98.4513 23.4466 98.4121 14.8037C98.4121 14.145 98.6009 13.947 99.2931 13.951C103.413 13.9874 107.541 13.8459 111.652 14.0278C114.924 14.1733 117.945 15.2402 119.682 18.162C121.779 21.69 120.861 26.9073 115.751 28.8754C114.953 29.2054 114.124 29.4599 113.276 29.6352C112.437 29.7847 112.5 29.9787 112.957 30.5404C115.692 33.9108 118.411 37.3135 121.116 40.692C121.293 40.8941 121.339 41.1972 121.888 41.3306ZM100.564 22.0578C100.564 23.7672 100.61 25.4807 100.543 27.1902C100.51 27.9984 100.812 28.2247 101.609 28.2126C104.608 28.1803 107.608 28.2126 110.612 28.2126C112.078 28.2292 113.531 27.9397 114.87 27.364C116.289 26.7841 117.425 25.7057 118.048 24.3479C118.672 22.9901 118.735 21.4546 118.226 20.0533C117.278 17.3214 114.471 16.1454 111.849 16.0121C108.372 15.8423 104.877 15.9716 101.387 15.9434C100.761 15.9434 100.547 16.105 100.547 16.7516C100.564 18.4974 100.564 20.2796 100.564 22.0578Z" fill="#292425"/>
<path d="M171.58 41.9529C167.415 42.0256 163.368 40.6219 160.207 38.0086C159.469 37.4186 160.01 37.1155 160.316 36.7275C160.622 36.3396 160.962 35.8102 161.629 36.3961C163.127 37.7015 164.784 38.8209 166.739 39.3422C170.061 40.2272 173.397 40.6031 176.447 38.4814C178.057 37.3661 178.615 35.7819 178.477 33.9229C178.334 31.975 177.08 30.8435 175.364 30.0877C173.581 29.3078 171.664 28.9481 169.764 28.544C167.557 28.0752 165.413 27.4609 163.509 26.2203C159.951 23.9006 159.842 18.6752 163.056 15.9716C165.967 13.5186 169.403 13.1912 173.09 13.8338C175.266 14.2664 177.324 15.1322 179.131 16.3758C179.639 16.6991 179.916 17.0749 179.383 17.5194C178.964 17.871 178.817 18.8813 177.814 18.1014C176.519 17.0744 175.014 16.321 173.398 15.8901C171.781 15.4591 170.088 15.3602 168.43 15.5998C165.417 16.0039 162.556 17.8347 163.051 21.6334C163.32 23.6864 164.826 24.6523 166.567 25.3958C168.471 26.2041 170.527 26.5193 172.541 26.9841C174.259 27.3737 175.915 27.9825 177.466 28.7945C181.934 31.1425 181.514 37.5721 177.713 40.0535C175.658 41.3992 173.409 42.0256 171.58 41.9529Z" fill="#292425"/>
<path d="M197.473 41.957C193.408 41.9875 189.469 40.6026 186.381 38.0572C185.827 37.6126 185.839 37.2813 186.322 36.8448C186.741 36.469 186.972 35.7092 187.769 36.4164C189.205 37.7743 190.957 38.7816 192.879 39.3544C196.235 40.2516 199.591 40.5668 202.67 38.4169C205.217 36.6306 205.729 31.7043 201.412 30.0434C199.096 29.1543 196.655 28.8067 194.28 28.1682C192.304 27.6307 190.366 27.0043 188.86 25.5818C185.986 22.862 186.284 18.0206 189.498 15.6807C192.434 13.555 195.711 13.1994 199.239 13.8419C201.386 14.2507 203.413 15.1118 205.175 16.3637C205.62 16.6668 206.115 16.9941 205.536 17.4912C205.116 17.8549 204.965 18.9137 203.891 18.0772C202.609 17.0582 201.117 16.3115 199.515 15.886C197.912 15.4605 196.234 15.3657 194.591 15.608C191.306 16.0323 188.47 18.0974 189.242 21.9932C189.607 23.836 191.054 24.7533 192.665 25.3797C194.677 26.1199 196.755 26.68 198.874 27.0528C201.011 27.3911 203.017 28.265 204.692 29.5867C208.019 32.3671 207.407 37.8349 203.476 40.3082C201.687 41.4149 199.599 41.9885 197.473 41.957Z" fill="#292425"/>
<path d="M81.3209 41.9651C75.1205 42.2116 69.9562 38.2188 68.0222 33.4784C65.5764 27.4569 67.2755 20.1827 72.6789 16.2626C76.3706 13.5994 80.4651 13.0013 84.9162 13.8864C87.6179 14.4239 89.8078 15.7817 91.8718 17.4427C92.4256 17.8872 92.2536 18.1054 91.8718 18.5298C91.209 19.2693 90.7223 19.4108 89.8791 18.651C86.7705 15.8222 82.9486 14.9088 78.8709 15.6443C74.5541 16.4243 71.5336 19.0026 70.0862 23.0115C68.3159 27.9257 69.0039 32.5408 72.6789 36.4972C73.6579 37.549 74.8448 38.4021 76.1702 39.0065C77.4957 39.6109 78.933 39.9545 80.398 40.0172C84.2324 40.2839 87.4375 39.0351 90.2315 36.6144C91.1041 35.8547 91.6452 35.9072 92.2451 36.869C92.4339 37.164 92.3584 37.3742 92.0732 37.6328C90.0133 39.4958 87.7395 40.9345 84.9414 41.5933C83.7505 41.8336 82.5376 41.9581 81.3209 41.9651Z" fill="#292425"/>
</g>
<defs>
<clipPath id="clip0_698_4391">
<rect width="336.755" height="60.6027" fill="white" transform="translate(0.622559 0.91394)"/>
</clipPath>
</defs>
</svg>
