<svg width="40" height="50" viewBox="0 0 40 50" fill="none" xmlns="http://www.w3.org/2000/svg">
<g id="film-editing 1">
<g id="Group">
<path id="Vector" d="M16.2885 41.1705C15.6421 40.8337 14.9188 40.625 14.1406 40.625C11.5554 40.625 9.45312 42.7273 9.45312 45.3125C9.45312 47.8977 11.5554 50 14.1406 50C16.7259 50 18.8281 47.8977 18.8281 45.3125C18.8281 44.3665 18.5416 43.4882 18.058 42.7509L19.9982 39.68L21.9411 42.7527C21.458 43.4898 21.1719 44.3672 21.1719 45.3125C21.1719 47.8977 23.2741 50 25.8594 50C28.4446 50 30.5469 47.8977 30.5469 45.3125C30.5469 42.7273 28.4446 40.625 25.8594 40.625C25.0815 40.625 24.3585 40.8336 23.712 41.1702L21.3838 37.4873L23.8438 33.5938H21.0781L20.0002 35.2989L18.9223 33.5938H21.0782L25.1798 27.0234L27.1484 28.2889L23.8438 33.5938L30.5469 33.593V10H9.45312V33.5938H16.1498L18.6142 37.4913L16.2885 41.1705ZM14.1406 47.6562C12.8486 47.6562 11.7969 46.6045 11.7969 45.3125C11.7969 44.0205 12.8486 42.9688 14.1406 42.9688C15.4327 42.9688 16.4844 44.0205 16.4844 45.3125C16.4844 46.6045 15.4327 47.6562 14.1406 47.6562ZM28.2031 45.3125C28.2031 46.6045 27.1514 47.6562 25.8594 47.6562C24.5673 47.6562 23.5156 46.6045 23.5156 45.3125C23.5156 44.0205 24.5673 42.9688 25.8594 42.9688C27.1514 42.9688 28.2031 44.0205 28.2031 45.3125ZM15.3125 16.3828L26.1406 21.7969L15.3125 27.2109V16.3828Z" fill="black"/>
<path id="Vector_2" d="M32.8906 18.6719H37.5781V24.9219H32.8906V18.6719Z" fill="black"/>
<path id="Vector_3" d="M32.8906 10H37.5781V16.3281H32.8906V10Z" fill="black"/>
<path id="Vector_4" d="M17.6562 20.1775V23.4162L20.8949 21.7969L17.6562 20.1775Z" fill="black"/>
<path id="Vector_5" d="M2.42188 18.6719H7.10938V24.9219H2.42188V18.6719Z" fill="black"/>
<path id="Vector_6" d="M2.42188 10H7.10938V16.3281H2.42188V10Z" fill="black"/>
<path id="Vector_7" d="M2.42188 27.2656H7.10938V33.5938H2.42188V27.2656Z" fill="black"/>
<path id="Vector_8" d="M32.8906 27.2656H37.5781V33.5938H32.8906V27.2656Z" fill="black"/>
</g>
</g>
</svg>
