<svg width="34" height="34" viewBox="0 0 34 34" fill="none" xmlns="http://www.w3.org/2000/svg">
<g id="video-camera-2 2" clip-path="url(#clip0_179_1146)">
<g id="Group">
<g id="Group_2">
<g id="Group_3">
<path id="Vector" d="M33.7957 17.4699C33.4279 16.8161 32.5697 16.5709 31.875 16.9796L27.2164 19.6767L26.0314 20.3714V26.828L27.1347 27.4818C27.1756 27.4818 27.1756 27.5227 27.2164 27.5227L31.7933 30.1789C31.9976 30.3424 32.2837 30.4241 32.5697 30.4241C33.3462 30.4241 33.9591 29.8111 33.9591 29.0347V23.5588L34 18.1647C34 17.9195 33.9591 17.6743 33.7957 17.4699Z" fill="#1C1C1C"/>
<path id="Vector_2" d="M6.57966 15.3858C10.2166 15.3858 13.1589 12.4435 13.1589 8.80654C13.1589 5.16957 10.2166 2.22729 6.57966 2.22729C2.94269 2.22729 0.000414905 5.16957 0.000414905 8.80654C-0.04045 12.4435 2.94269 15.3858 6.57966 15.3858ZM6.57966 6.10946C8.09166 6.10946 9.27675 7.33541 9.27675 8.80654C9.27675 10.3185 8.0508 11.5036 6.57966 11.5036C5.10853 11.5036 3.88258 10.2777 3.88258 8.80654C3.84172 7.29454 5.06766 6.10946 6.57966 6.10946Z" fill="#1C1C1C"/>
<path id="Vector_3" d="M23.2517 15.7536C22.1892 16.2849 21.0041 16.6118 19.7373 16.6118C18.1844 16.6118 16.7133 16.1623 15.4874 15.345H10.8288C9.60282 16.1623 8.13168 16.6118 6.57881 16.6118C5.312 16.6118 4.12692 16.3257 3.06443 15.7536C2.12454 16.2849 1.4707 17.3474 1.4707 18.4916V28.4626C1.4707 30.3015 2.9827 31.7727 4.78076 31.7727H21.5762C23.4151 31.7727 24.8863 30.2607 24.8863 28.4626V18.4916C24.8454 17.3474 24.1916 16.2849 23.2517 15.7536Z" fill="#1C1C1C"/>
<path id="Vector_4" d="M19.7375 15.3858C23.3744 15.3858 26.3167 12.4435 26.3167 8.80654C26.3167 5.16957 23.3744 2.22729 19.7375 2.22729C16.1005 2.22729 13.1582 5.16957 13.1582 8.80654C13.1582 12.4435 16.1005 15.3858 19.7375 15.3858ZM19.7375 6.10946C21.2495 6.10946 22.4345 7.33541 22.4345 8.80654C22.4345 10.3185 21.2086 11.5036 19.7375 11.5036C18.2663 11.5036 17.0404 10.2777 17.0404 8.80654C17.0404 7.29454 18.2254 6.10946 19.7375 6.10946Z" fill="#1C1C1C"/>
</g>
</g>
</g>
</g>
<defs>
<clipPath id="clip0_179_1146">
<rect width="34" height="34" fill="white"/>
</clipPath>
</defs>
</svg>
