<svg width="35" height="36" viewBox="0 0 35 36" fill="none" xmlns="http://www.w3.org/2000/svg">
<g id="film 1">
<path id="Vector" d="M33.9746 3.37109H1.02539C0.459023 3.37109 0 3.83012 0 4.39648V31.5656C0 32.132 0.459023 32.591 1.02539 32.591H33.9746C34.541 32.591 35 32.132 35 31.5656V4.39648C35 3.83012 34.541 3.37109 33.9746 3.37109ZM13.1621 21.4233V14.5388C13.1621 14.0464 13.443 13.5975 13.8951 13.3673C14.3544 13.1337 14.9133 13.1649 15.3384 13.4432L21.2056 16.8681C21.2355 16.8854 21.2643 16.9044 21.2923 16.9247C21.6392 17.1773 21.8382 17.5623 21.8382 17.981C21.8382 18.3997 21.6392 18.7848 21.2923 19.0374C21.2643 19.0577 21.2355 19.0767 21.2056 19.094L15.3384 22.5189C15.1034 22.6725 14.8281 22.7507 14.5509 22.7507C14.3264 22.7507 14.1007 22.6992 13.8951 22.5945C13.4428 22.3646 13.1621 21.9157 13.1621 21.4233ZM24.0783 7.20723V5.42188H27.5189V7.20723H24.0783ZM22.0275 7.20723H18.5865V5.42188H22.0275V7.20723ZM16.5358 7.20723H13.0951V5.42188H16.5358V7.20723ZM11.0443 7.20723H7.60365V5.42188H11.0443V7.20723ZM11.0443 28.7549V30.5402H7.60365V28.7549H11.0443ZM13.0951 28.7549H16.5358V30.5402H13.0951V28.7549ZM18.5865 28.7549H22.0275V30.5402H18.5865V28.7549ZM24.0783 28.7549H27.5189V30.5402H24.0783V28.7549ZM32.9492 7.20723H29.5697V5.42188H32.9492V7.20723ZM5.55286 5.42188V7.20723H2.05078V5.42188H5.55286ZM2.05078 28.7549H5.55286V30.5402H2.05078V28.7549ZM29.5697 30.5402V28.7549H32.9492V30.5402H29.5697Z" fill="#1C1C1C"/>
</g>
</svg>
