<svg width="113" height="37" viewBox="0 0 113 37" fill="none" xmlns="http://www.w3.org/2000/svg">
<path fill-rule="evenodd" clip-rule="evenodd" d="M112.784 3.63109V5.33484C112.784 5.6188 112.553 5.85264 112.263 5.85264H105.147V14.1083H111.422C111.708 14.1083 111.939 14.338 111.939 14.6261V16.3299C111.939 16.6138 111.708 16.8477 111.422 16.8477H105.147V24.6398H112.263C112.549 24.6398 112.784 24.8695 112.784 25.1576V26.8614C112.784 27.1453 112.553 27.375 112.263 27.375H102.915C102.629 27.375 102.393 27.1453 102.393 26.8614V3.63109C102.393 3.34713 102.624 3.11328 102.915 3.11328H112.263C112.553 3.11328 112.784 3.34713 112.784 3.63109ZM88.1729 26.8489V5.84847H84.4865C84.2007 5.84847 83.9653 5.6188 83.9653 5.33066V3.63109C83.9653 3.34713 84.1965 3.11328 84.4865 3.11328H94.6127C94.8985 3.11328 95.1339 3.34295 95.1339 3.63109V5.33484C95.1339 5.6188 94.9027 5.85264 94.6127 5.85264H90.9262V26.8489C90.9262 27.1328 90.695 27.3625 90.405 27.3625H88.6942C88.4083 27.3625 88.1729 27.1328 88.1729 26.8489ZM69.9719 19.6455H74.4822L72.2292 9.33948L69.9719 19.6455ZM65.5288 26.6943L70.8168 3.51834C70.8714 3.28032 71.0858 3.11746 71.3212 3.11746H73.1287C73.3893 3.11746 73.6037 3.30955 73.6415 3.5601L78.9295 26.7403C78.9926 27.0159 78.816 27.2915 78.5386 27.3541C78.5008 27.3625 78.4629 27.3667 78.4251 27.3667H76.647C76.3906 27.3667 76.1762 27.1787 76.1342 26.9324L75.0833 22.3807H69.3624L68.3031 26.9658C68.2485 27.2038 68.0341 27.3667 67.7987 27.3667H66.0248C65.739 27.3667 65.5036 27.137 65.5036 26.853C65.5036 26.7946 65.512 26.7445 65.5288 26.6943ZM49.5472 24.6315H52.456C52.952 24.6315 53.3934 24.5521 53.7759 24.3934C54.1542 24.2389 54.4947 24.0009 54.7848 23.6877C55.079 23.3704 55.3018 23.0029 55.4489 22.5853C55.6002 22.1552 55.6759 21.6708 55.6759 21.1196V9.35619C55.6759 8.28299 55.3774 7.42277 54.7848 6.78386C54.4947 6.47067 54.1584 6.23682 53.7759 6.08232C53.3892 5.92363 52.9478 5.84847 52.4518 5.84847H49.543V24.6315H49.5472ZM46.7939 26.8489V3.63109C46.7939 3.34713 47.0251 3.11328 47.3152 3.11328H52.456C53.3388 3.11328 54.1416 3.25526 54.8688 3.54339C55.6002 3.83153 56.2434 4.26582 56.794 4.84626L56.8192 4.87549C57.3573 5.44759 57.7566 6.10737 58.0256 6.85067C58.2946 7.59815 58.4292 8.4375 58.4292 9.35619V21.1196C58.4292 22.0341 58.2946 22.8693 58.0256 23.6167C57.7524 24.3726 57.3405 25.0449 56.794 25.6212C56.2434 26.2016 55.6044 26.6401 54.873 26.9282C54.15 27.2163 53.3472 27.3625 52.4602 27.3625H47.3194C47.0251 27.3625 46.7939 27.1328 46.7939 26.8489Z" fill="white"/>
<path fill-rule="evenodd" clip-rule="evenodd" d="M48.53 31.651H46.7939V31.0246H50.9806V31.651H49.2446V36.0565H48.53V31.651ZM51.9222 31.5132C51.7877 31.5132 51.6742 31.4714 51.5859 31.3837C51.4976 31.296 51.4514 31.1917 51.4514 31.0664C51.4514 30.9411 51.4976 30.8367 51.5859 30.7448C51.6742 30.6571 51.7877 30.6112 51.9222 30.6112C52.0567 30.6112 52.1702 30.653 52.2585 30.7365C52.3467 30.82 52.393 30.9244 52.393 31.0497C52.393 31.1791 52.3467 31.2877 52.2585 31.3754C52.1702 31.4714 52.0567 31.5132 51.9222 31.5132ZM51.5733 32.2481H52.2669V36.0565H51.5733V32.2481ZM58.3871 32.2106C58.8705 32.2106 59.253 32.3484 59.5347 32.6281C59.8163 32.9038 59.9592 33.3172 59.9592 33.8642V36.0565H59.2657V33.9435C59.2657 33.5761 59.1816 33.2963 59.0092 33.1084C58.8369 32.9205 58.5931 32.8286 58.2736 32.8286C57.9205 32.8286 57.6431 32.9372 57.4329 33.1543C57.227 33.3714 57.1219 33.6846 57.1219 34.0939V36.0565H56.4283V33.9435C56.4283 33.5761 56.3442 33.2963 56.1719 33.1084C55.9996 32.9205 55.7558 32.8286 55.4363 32.8286C55.0832 32.8286 54.8058 32.9372 54.5956 33.1543C54.3896 33.3714 54.2845 33.6846 54.2845 34.0939V36.0565H53.591V32.2481H54.2551V32.8161C54.3938 32.6198 54.5788 32.4695 54.8058 32.3651C55.0328 32.2607 55.2892 32.2106 55.5792 32.2106C55.8777 32.2106 56.1425 32.269 56.3737 32.3901C56.6049 32.5112 56.7856 32.6866 56.9075 32.9163C57.0504 32.695 57.2522 32.5237 57.5128 32.3985C57.7734 32.2732 58.0635 32.2106 58.3871 32.2106ZM62.826 32.791C62.4939 32.791 62.2165 32.8912 61.9895 33.0917C61.7667 33.2921 61.6322 33.5552 61.5944 33.8809H64.0534C64.0156 33.5594 63.8853 33.2963 63.6583 33.0958C63.4397 32.8954 63.1623 32.791 62.826 32.791ZM64.7218 34.1732C64.7218 34.2275 64.7176 34.2943 64.7092 34.382H61.5986C61.6406 34.7161 61.7919 34.9875 62.0442 35.1921C62.2964 35.3967 62.6116 35.497 62.9857 35.497C63.4439 35.497 63.8138 35.3425 64.0912 35.0376L64.4738 35.4844C64.3014 35.6849 64.0828 35.8394 63.8264 35.9438C63.57 36.0482 63.28 36.1025 62.9605 36.1025C62.557 36.1025 62.1955 36.0189 61.8844 35.8561C61.5734 35.6891 61.3296 35.4594 61.1572 35.1629C60.9849 34.8664 60.9008 34.5323 60.9008 34.1565C60.9008 33.789 60.9849 33.455 61.1488 33.1585C61.3127 32.862 61.5439 32.6323 61.834 32.4653C62.124 32.2983 62.4561 32.2189 62.8218 32.2189C63.1875 32.2189 63.5154 32.3024 63.8012 32.4653C64.087 32.6323 64.314 32.862 64.4738 33.1585C64.6419 33.4508 64.7218 33.789 64.7218 34.1732ZM68.1224 34.7328C67.9374 34.7328 67.7819 34.6701 67.6558 34.5449C67.5297 34.4196 67.4624 34.2609 67.4624 34.0688C67.4624 33.8851 67.5297 33.7306 67.6558 33.6053C67.7861 33.48 67.9416 33.4132 68.1182 33.4132C68.2947 33.4132 68.4502 33.4758 68.5763 33.6053C68.7025 33.7306 68.7655 33.8851 68.7655 34.0688C68.7655 34.2609 68.7025 34.4196 68.5763 34.5449C68.4544 34.6701 68.2989 34.7328 68.1224 34.7328ZM92.9019 34.7328C92.7169 34.7328 92.5614 34.6701 92.4353 34.5449C92.3092 34.4196 92.2419 34.2609 92.2419 34.0688C92.2419 33.8851 92.305 33.7306 92.4353 33.6053C92.5656 33.48 92.7211 33.4132 92.8977 33.4132C93.0742 33.4132 93.2297 33.4758 93.3558 33.6053C93.4819 33.7306 93.5492 33.8851 93.5492 34.0688C93.5492 34.2609 93.4819 34.4196 93.3558 34.5449C93.2339 34.6701 93.0826 34.7328 92.9019 34.7328ZM72.7 31.651V33.4049H75.2389V34.0229H72.7V36.0565H71.977V31.0246H75.5499V31.651H72.7ZM77.9879 35.4928C78.2359 35.4928 78.4545 35.4343 78.6479 35.3257C78.8412 35.213 78.9968 35.0543 79.1061 34.8497C79.2153 34.6451 79.2742 34.4112 79.2742 34.1482C79.2742 33.8851 79.2153 33.6512 79.1061 33.4466C78.9968 33.2462 78.8412 33.0833 78.6479 32.9747C78.4545 32.8662 78.2317 32.8077 77.9879 32.8077C77.7441 32.8077 77.5213 32.862 77.328 32.9747C77.1346 33.0833 76.9791 33.242 76.8656 33.4466C76.7521 33.6512 76.6975 33.8851 76.6975 34.1482C76.6975 34.4112 76.7563 34.6451 76.8656 34.8497C76.9791 35.0543 77.1346 35.213 77.328 35.3257C77.5213 35.4385 77.7441 35.4928 77.9879 35.4928ZM77.9879 36.0983C77.6054 36.0983 77.2649 36.0148 76.9623 35.8477C76.6596 35.6807 76.42 35.451 76.2519 35.1545C76.0795 34.8581 75.9955 34.524 75.9955 34.1523C75.9955 33.7807 76.0795 33.4466 76.2519 33.1501C76.4242 32.8536 76.6596 32.624 76.9623 32.4611C77.2649 32.2941 77.6096 32.2147 77.9879 32.2147C78.3704 32.2147 78.7109 32.2983 79.0094 32.4611C79.3078 32.624 79.5474 32.8578 79.7198 33.1501C79.8921 33.4466 79.9762 33.7807 79.9762 34.1523C79.9762 34.5282 79.8921 34.8581 79.7198 35.1545C79.5474 35.451 79.312 35.6807 79.0094 35.8477C78.7109 36.0148 78.3704 36.0983 77.9879 36.0983ZM82.5823 35.4928C82.8303 35.4928 83.0489 35.4343 83.2423 35.3257C83.4356 35.213 83.5912 35.0543 83.7005 34.8497C83.8097 34.6451 83.8686 34.4112 83.8686 34.1482C83.8686 33.8851 83.8097 33.6512 83.7005 33.4466C83.5912 33.2462 83.4356 33.0833 83.2423 32.9747C83.0489 32.8662 82.8261 32.8077 82.5823 32.8077C82.3385 32.8077 82.1157 32.862 81.9224 32.9747C81.729 33.0833 81.5735 33.242 81.46 33.4466C81.3465 33.6512 81.2919 33.8851 81.2919 34.1482C81.2919 34.4112 81.3507 34.6451 81.46 34.8497C81.5735 35.0543 81.729 35.213 81.9224 35.3257C82.1157 35.4385 82.3343 35.4928 82.5823 35.4928ZM82.5823 36.0983C82.1998 36.0983 81.8593 36.0148 81.5567 35.8477C81.254 35.6807 81.0144 35.4469 80.8463 35.1545C80.6782 34.8622 80.5899 34.524 80.5899 34.1523C80.5899 33.7807 80.6782 33.4424 80.8463 33.1501C81.0144 32.8578 81.254 32.624 81.5567 32.4611C81.8593 32.2941 82.204 32.2147 82.5823 32.2147C82.9648 32.2147 83.3053 32.2983 83.6038 32.4611C83.9022 32.624 84.1418 32.8578 84.3142 33.1501C84.4823 33.4424 84.5706 33.7807 84.5706 34.1523C84.5706 34.5282 84.4823 34.8622 84.3142 35.1545C84.146 35.4469 83.9064 35.6807 83.6038 35.8477C83.3053 36.0148 82.9606 36.0983 82.5823 36.0983ZM87.1725 35.4928C87.4121 35.4928 87.6349 35.4343 87.8325 35.3257C88.03 35.213 88.1856 35.0543 88.2948 34.8497C88.4041 34.6451 88.463 34.4112 88.463 34.1482C88.463 33.8851 88.4041 33.6512 88.2948 33.4466C88.1856 33.2462 88.03 33.0833 87.8325 32.9747C87.6349 32.8662 87.4163 32.8077 87.1725 32.8077C86.9287 32.8077 86.7059 32.862 86.5126 32.9747C86.3192 33.0833 86.1637 33.242 86.0502 33.4466C85.9367 33.6512 85.8821 33.8851 85.8821 34.1482C85.8821 34.4112 85.9367 34.6451 86.0502 34.8497C86.1637 35.0543 86.3192 35.213 86.5126 35.3257C86.7059 35.4385 86.9287 35.4928 87.1725 35.4928ZM89.1482 30.724V36.0565H88.484V35.451C88.3285 35.6598 88.1351 35.8227 87.8997 35.9313C87.6643 36.0398 87.4037 36.0983 87.1179 36.0983C86.748 36.0983 86.4159 36.0189 86.1174 35.8561C85.8232 35.6932 85.592 35.4636 85.4281 35.1712C85.2641 34.8789 85.1801 34.5365 85.1801 34.1523C85.1801 33.7682 85.2641 33.4299 85.4281 33.1376C85.592 32.8453 85.8274 32.6156 86.1174 32.4569C86.4117 32.2941 86.7438 32.2106 87.1179 32.2106C87.3911 32.2106 87.6475 32.2607 87.8787 32.3651C88.1099 32.4695 88.3033 32.6198 88.4588 32.8202V30.724H89.1482ZM96.7564 31.0246H97.4794V35.4301H100.22V36.0565H96.7564V31.0246ZM102.545 35.4928C102.793 35.4928 103.011 35.4385 103.205 35.3257C103.398 35.213 103.553 35.0543 103.663 34.8497C103.772 34.6493 103.831 34.4112 103.831 34.1482C103.831 33.8851 103.776 33.6512 103.663 33.4466C103.553 33.242 103.398 33.0875 103.205 32.9747C103.011 32.8662 102.788 32.8077 102.545 32.8077C102.301 32.8077 102.078 32.8662 101.885 32.9747C101.691 33.0833 101.532 33.242 101.422 33.4466C101.309 33.6471 101.254 33.8851 101.254 34.1482C101.254 34.4112 101.309 34.6451 101.422 34.8497C101.536 35.0543 101.691 35.213 101.885 35.3257C102.078 35.4343 102.297 35.4928 102.545 35.4928ZM102.545 36.0983C102.162 36.0983 101.822 36.0106 101.519 35.8477C101.216 35.6807 100.977 35.4469 100.804 35.1545C100.636 34.8622 100.548 34.524 100.548 34.1523C100.548 33.7807 100.636 33.4424 100.804 33.1501C100.973 32.8578 101.216 32.624 101.519 32.4611C101.822 32.2983 102.166 32.2147 102.545 32.2147C102.927 32.2147 103.268 32.2983 103.566 32.4611C103.865 32.624 104.104 32.8578 104.276 33.1501C104.445 33.4424 104.533 33.7807 104.533 34.1523C104.533 34.5282 104.445 34.8622 104.276 35.1545C104.108 35.4469 103.869 35.6807 103.566 35.8477C103.268 36.0106 102.927 36.0983 102.545 36.0983ZM108.778 32.2481L107.101 36.0565H106.391L104.714 32.2481H105.437L106.752 35.3007L108.097 32.2481H108.778ZM110.889 32.791C110.556 32.791 110.279 32.8912 110.052 33.0917C109.829 33.2921 109.695 33.5552 109.657 33.8809H112.116C112.078 33.5594 111.948 33.2963 111.721 33.0958C111.502 32.8954 111.225 32.791 110.889 32.791ZM112.784 34.1732C112.784 34.2275 112.78 34.2943 112.772 34.382H109.661C109.703 34.7161 109.854 34.9875 110.107 35.1921C110.359 35.3967 110.674 35.497 111.052 35.497C111.511 35.497 111.881 35.3425 112.158 35.0376L112.54 35.4844C112.368 35.6849 112.15 35.8394 111.893 35.9438C111.637 36.0482 111.347 36.1025 111.027 36.1025C110.624 36.1025 110.262 36.0189 109.951 35.8561C109.64 35.6932 109.392 35.4594 109.224 35.1629C109.056 34.8664 108.968 34.5323 108.968 34.1565C108.968 33.789 109.052 33.455 109.216 33.1585C109.379 32.862 109.611 32.6323 109.901 32.4653C110.191 32.2983 110.523 32.2189 110.889 32.2189C111.254 32.2189 111.582 32.3024 111.868 32.4653C112.154 32.6281 112.381 32.862 112.54 33.1585C112.704 33.4508 112.784 33.789 112.784 34.1732Z" fill="white"/>
<path fill-rule="evenodd" clip-rule="evenodd" d="M18.24 29.3716V28.1522C18.24 27.7472 17.9079 27.4173 17.5001 27.4173C17.0924 27.4173 16.7603 27.7472 16.7603 28.1522V29.3716C9.06798 26.4067 4.68796 21.1577 2.72494 16.3137H3.99859C4.40632 16.3137 4.7384 15.9838 4.7384 15.5787C4.7384 15.1737 4.40632 14.8438 3.99859 14.8438H2.2037C1.87583 13.7915 1.66146 12.7767 1.55217 11.8205C1.1108 7.91604 2.33401 4.63799 4.82667 3.04699C6.47023 1.99885 8.11379 1.46851 9.71952 1.46851C13.2 1.46851 15.7095 3.91557 16.7645 5.16832V6.55471C16.7645 6.95977 17.0966 7.28966 17.5044 7.28966C17.9121 7.28966 18.2442 6.95977 18.2442 6.55471V5.16832C19.2992 3.91557 21.8087 1.46851 25.2892 1.46851C26.8949 1.46851 28.5385 1.99885 30.182 3.04699C32.6747 4.63799 33.8979 7.92021 33.4565 11.8205C33.3514 12.7767 33.1329 13.7915 32.805 14.8438H31.0059C30.5982 14.8438 30.2661 15.1737 30.2661 15.5787C30.2661 15.9838 30.5982 16.3137 31.0059 16.3137H32.2796C30.3123 21.1577 25.9323 26.4026 18.24 29.3716ZM2.77958 2.79226C1.91366 3.63578 1.2327 4.69645 0.757709 5.91163C0.724081 5.99514 0.694657 6.08284 0.661029 6.16635L0.656826 6.17888L0.652622 6.19141C0.3836 6.97229 -0.280549 9.3066 0.131392 12.3884C0.278513 13.449 0.547536 14.5807 0.942662 15.7374C0.955272 15.7917 0.972086 15.8418 0.997307 15.8919C2.29618 19.6168 4.91915 23.6507 9.22351 26.8911C8.75692 27.7012 7.86999 29.2505 7.02509 30.8039C6.30209 32.1277 5.74723 33.1967 5.37312 33.9817C4.84769 35.0842 4.39371 36.0404 5.13773 36.4831C5.25122 36.5499 5.36051 36.6167 5.51604 36.6167C6.14236 36.6167 7.55473 35.5602 13.3135 29.4384C14.4358 30.0105 15.6338 30.5366 16.9201 31.0002C17.0041 31.0294 17.0882 31.0586 17.1723 31.0879L17.5086 31.2048L18.0928 31.0002C19.3791 30.5366 20.5771 30.0105 21.6994 29.4384C27.4582 35.5602 28.8705 36.6167 29.4969 36.6167C29.6524 36.6167 29.7617 36.5541 29.871 36.4831C30.615 36.0404 30.161 35.0842 29.6356 33.9817C29.2615 33.1967 28.7066 32.1277 27.9836 30.8039C27.1345 29.2505 26.2518 27.7012 25.7852 26.8911C30.0896 23.6507 32.7125 19.6168 34.0114 15.8919C34.0366 15.8418 34.0534 15.7917 34.066 15.7374C34.4612 14.5765 34.726 13.449 34.8731 12.3884C35.2808 9.32748 34.6251 7.00152 34.3561 6.20811C33.8937 4.89689 33.1917 3.75688 32.2754 2.84655C31.401 1.97797 30.1862 1.25972 29.0681 0.796201C24.8772 -0.928428 20.8083 0.186526 17.5001 3.77359C16.2853 2.45819 14.0449 0.537298 11.01 0.090481C9.32019 -0.155895 7.643 0.115536 6.05829 0.750266C4.92756 1.19708 3.66231 1.92786 2.77958 2.79226ZM27.744 33.5015C26.9369 31.9314 25.7558 29.8017 24.5746 27.7555C24.0828 28.0854 23.57 28.4028 23.0361 28.7118C24.7091 30.4782 26.4493 32.2529 27.744 33.5015ZM7.26048 33.5015C8.55515 32.2571 10.2954 30.4782 11.9642 28.7118C11.4303 28.4028 10.9175 28.0854 10.4257 27.7555C9.24873 29.8017 8.06755 31.9314 7.26048 33.5015Z" fill="white"/>
<path fill-rule="evenodd" clip-rule="evenodd" d="M17.7142 15.8369C17.504 15.8369 17.3023 15.8745 17.1173 15.9455C15.6083 15.1395 15.3602 15.0268 15.3602 15.0268C15.3602 15.0268 14.4439 14.4422 14.0446 13.6654C14.0319 13.6404 14.0109 13.6028 13.9983 13.5777V13.5736C13.9899 13.5443 13.9857 13.5109 13.9773 13.4817L13.9395 13.3063C13.9227 13.2395 13.889 13.1769 13.8344 13.1309L13.6662 12.9848C13.6284 12.9514 13.578 12.943 13.5317 12.9555C13.1786 12.6089 10.5767 10.07 4.99868 5.46406C4.95244 5.42648 4.88939 5.40977 4.83054 5.41812C4.7717 5.42647 4.72125 5.45571 4.69183 5.50164C4.51949 5.74802 4.51108 6.29923 5.46527 7.53528C6.66746 9.09288 9.05083 11.2936 12.5439 14.0705C12.5355 14.1164 12.5523 14.1665 12.5902 14.2L12.7583 14.3461C12.8087 14.392 12.876 14.4213 12.9433 14.4254C13.0357 14.4338 13.124 14.4422 13.2123 14.4547C13.8512 14.6301 14.3514 15.1061 14.8432 15.603C14.8432 15.603 15.0198 15.8452 16.0454 17.2817C16.037 17.3569 16.0286 17.4279 16.0286 17.5031C16.0286 18.4259 16.781 19.1776 17.7142 19.1776C18.6432 19.1776 19.3998 18.4301 19.3998 17.5031C19.3998 17.4696 19.3998 17.4404 19.3956 17.407C20.7659 15.6364 22.3548 14.1123 22.3548 14.1123C22.3548 14.1123 24.8643 11.8448 25.6756 11.636C25.6756 11.636 26.4028 12.1747 27.0501 11.6276L30.6231 8.6043C30.8837 8.38716 31.0981 8.1199 31.2578 7.82342C30.9383 7.93199 30.6399 8.09902 30.3793 8.32034L26.8862 11.2727C26.7979 11.3478 26.6634 11.3395 26.5877 11.2476C26.5121 11.1599 26.5205 11.0263 26.6129 10.9511L30.106 7.9988C30.3667 7.78166 30.581 7.5144 30.7408 7.21792C30.4213 7.32649 30.1229 7.4977 29.8622 7.71484L26.3691 10.6672C26.2809 10.7423 26.1422 10.734 26.0665 10.6421C25.9908 10.5503 25.9992 10.4166 26.0917 10.3415L29.5848 7.38913C29.8454 7.17198 30.0598 6.90473 30.2195 6.60824C29.9001 6.71681 29.6016 6.88803 29.341 7.10517L25.8479 10.0575C25.7596 10.1327 25.6251 10.1243 25.5495 10.0324C25.4738 9.94475 25.4822 9.81112 25.5747 9.73596L29.0678 6.78363C29.3284 6.56648 29.5428 6.29923 29.7025 6.00274C29.383 6.11132 29.0846 6.27835 28.824 6.49967L25.251 9.52299C24.6037 10.07 25.024 10.8718 25.024 10.8718C24.6836 11.636 22.0312 13.7323 22.0312 13.7323C22.0312 13.7323 20.4927 14.9015 18.5002 16.0206C18.2606 15.9079 17.9958 15.8369 17.7142 15.8369Z" fill="white"/>
</svg>
