<svg width="148" height="148" fill="none" xmlns="http://www.w3.org/2000/svg"><g clip-path="url(#clip0_2255_44481)" fill="#fff"><path d="M60.86 107.139c-1.072-6.407-3.102-12.565-3.998-19.036-.807-5.82-1.102-11.666-1.029-17.542l-2.552 1.302c4.663 3.425 9.334 6.846 14 10.279.695.508 2.876-.668 2.67-1.553-2.636-11.325-3.399-22.822-2.42-34.393l-2.677 1.174c5.636 9.16 11.264 18.322 16.907 27.477.498.806 2.712-.479 2.762-1.213.554-7.932 2.817-15.269 6.806-22.148l-2.715 1.013c3.49 11.253 7.141 22.45 11.01 33.573.83-.545 1.656-1.099 2.486-1.645-17.71-4.584-34.992 11.737-44.863 24.425-1.308 1.685 2.43.662 3.11-.225 8.783-11.574 23.614-26.416 39.617-22.344.667.166 2.806-.738 2.486-1.645-3.926-11.106-7.646-22.27-11.086-33.538-.29-.94-2.493.63-2.715 1.014-4.092 7.002-6.369 14.467-6.923 22.558.924-.403 1.837-.81 2.762-1.213a41426.428 41426.428 0 00-16.992-27.438c-.486-.782-2.624.467-2.677 1.174-.957 11.72-.126 23.324 2.327 34.818l2.669-1.553c-4.713-3.392-9.426-6.784-14.143-10.183-.617-.442-2.55.544-2.552 1.302-.039 11.683.797 25.763 6.108 36.392.255.507 1.714-.314 1.622-.832zm1.176-68.185c-1.63-5.419-3.838-11.418-6.576-16.367-.4-.72-2.657.454-2.44 1.241 1.545 5.44 4.168 11.245 6.833 16.238.346.642 2.391-.405 2.183-1.112zm24.551 1.563c2.295-3.277 3.416-7.389 4.953-11.068 1.667-4.003 3.408-7.965 5.15-11.946.51-1.154-2.428-.157-2.795.659-1.78 3.942-3.454 7.929-5.094 11.928-1.312 3.2-3.823 7.298-3.774 10.79.005.651 1.41-.144 1.575-.37l-.015.007zm25.38 32.958c6.169.62 12.851-.786 18.694-2.67.917-.296 2.437-2.23.55-1.686-5.99 1.728-11.869 2.45-18.047 3.153-.338.036-2.051 1.115-1.208 1.199l.011.004zm-5.675 23.695c1.554 2.23 4.277 3.66 6.459 5.232 2.591 1.868 5.173 3.757 7.831 5.528.823.542 3.664-1.204 2.783-1.849-2.434-1.772-4.955-3.429-7.463-5.101-2.535-1.688-5.063-3.78-7.95-4.78-.346-.12-2.032.433-1.66.97zm-23.399 8.408c-.251 3.632.844 7.383 1.463 10.955.69 3.987.984 8.244 2.285 12.077.27.8 2.647-.477 2.65-1.171.028-3.611-.864-7.327-1.54-10.862-.73-3.848-1.083-8.375-3.051-11.795-.308-.539-1.775.323-1.807.796zm-26.914 9.633c-2.654 1.845-4.37 4.721-6.175 7.366-2.01 2.947-4.357 6.07-5.571 9.44-.43 1.201 2.076.023 2.375-.378 2.058-2.745 3.664-5.794 5.566-8.652a163.295 163.295 0 013.294-4.743c.768-1.059 1.697-1.791 1.696-3.118.002-.515-1.008-.035-1.178.082l-.007.003zM44.29 88.236c-6.741 1.339-13.45 2.85-20.198 4.174-1.105.216-3.051 2.376-.968 1.872 6.826-1.66 13.685-3.147 20.517-4.79.68-.168 2.104-1.543.649-1.257zm.793-27.6c-1.535-1.789-4.544-2.61-6.651-3.6-2.597-1.22-5.214-2.42-7.774-3.722-1.234-.621-4.067 1.822-3.227 2.14 2.799 1.051 5.567 2.218 8.337 3.347 2.538 1.032 5.133 2.468 7.864 2.793.268.033 1.819-.53 1.451-.958zm59.337-4.533c5.436-3.638 11.325-7.085 16.33-11.307 1.206-1.02-.447-1.138-1.205-.7-5.729 3.25-11.062 7.448-16.423 11.266-1.72 1.223.175 1.498 1.302.748l-.004-.007z"/></g><defs><clipPath id="clip0_2255_44481"><path fill="#fff" transform="rotate(-25 107.586 22.691)" d="M0 0h110.834v110.41H0z"/></clipPath></defs></svg>