<svg width="239" height="193" viewBox="0 0 239 193" fill="none" xmlns="http://www.w3.org/2000/svg">
<path d="M34.9823 63.3741H1V34.4691L43.885 1H83.9471V179.827H34.9823V63.3741Z" stroke="url(#paint0_radial_1256_8181)" stroke-opacity="0.6"/>
<path d="M179.047 85.1816C197.431 85.1816 211.871 89.3471 222.366 97.6781C232.789 106.082 238 118.904 238 136.146C238 154.474 232.101 168.383 220.303 177.873C208.578 187.291 191.207 192 168.19 192C145.39 192 128.055 187.581 116.185 178.743C104.315 169.905 98.3796 157.263 98.3796 140.818H147.236C147.164 140.963 147.164 141.362 147.236 142.014C147.381 142.666 147.815 143.608 148.539 144.839C149.263 145.998 150.276 147.085 151.579 148.099C155.27 150.707 160.807 152.011 168.19 152.011C175.211 152.011 180.458 150.707 183.932 148.099C187.407 145.419 189.108 141.434 189.035 136.146C189.035 130.785 187.189 126.728 183.498 123.975C179.807 121.15 174.704 119.737 168.19 119.737C161.169 119.737 156.03 120.607 152.773 122.345C149.95 123.867 148.285 125.279 147.779 126.583L147.236 127.561H98.3796V34H227.36V71.9243H145.933V91.9188H147.019C147.67 91.3393 148.647 90.7235 149.95 90.0715C151.181 89.3471 154.582 88.3329 160.156 87.0289C165.874 85.7973 172.171 85.1816 179.047 85.1816Z" stroke="url(#paint1_radial_1256_8181)" stroke-opacity="0.6"/>
<defs>
<radialGradient id="paint0_radial_1256_8181" cx="0" cy="0" r="1" gradientUnits="userSpaceOnUse" gradientTransform="translate(0.999976 24) rotate(34.775) scale(227.052 340.578)">
<stop offset="0.246953" stop-color="#1A1A1A"/>
<stop offset="1" stop-color="#A0A747"/>
</radialGradient>
<radialGradient id="paint1_radial_1256_8181" cx="0" cy="0" r="1" gradientUnits="userSpaceOnUse" gradientTransform="translate(0.999976 24) rotate(34.775) scale(227.052 340.578)">
<stop offset="0.246953" stop-color="#1A1A1A"/>
<stop offset="1" stop-color="#A0A747"/>
</radialGradient>
</defs>
</svg>
