<svg width="41" height="41" viewBox="0 0 41 41" fill="none" xmlns="http://www.w3.org/2000/svg">
<rect width="41" height="41" rx="20.5" fill="#2D2D2D"/>
<path d="M29.5621 16.0077C28.419 16.0077 27.3642 15.629 26.5172 14.9901C25.5458 14.2578 24.8478 13.1834 24.6014 11.9452C24.5403 11.6393 24.5075 11.3235 24.5043 11H21.2388V19.9231L21.2348 24.8108C21.2348 26.1175 20.3839 27.2254 19.2044 27.6151C18.862 27.7282 18.4923 27.7818 18.1074 27.7606C17.616 27.7336 17.1555 27.5854 16.7553 27.3459C15.9036 26.8365 15.3261 25.9125 15.3105 24.8554C15.2858 23.2032 16.6215 21.8562 18.2725 21.8562C18.5984 21.8562 18.9113 21.9094 19.2044 22.006V19.5671V18.6904C18.8953 18.6446 18.5808 18.6207 18.2627 18.6207C16.4556 18.6207 14.7655 19.3719 13.5574 20.7252C12.6442 21.7478 12.0965 23.0526 12.012 24.4207C11.9013 26.218 12.559 27.9265 13.8344 29.187C14.0218 29.3721 14.2186 29.5438 14.4243 29.7023C15.5178 30.5438 16.8547 31 18.2627 31C18.5808 31 18.8953 30.9765 19.2044 30.9308C20.5197 30.7359 21.7333 30.1338 22.691 29.187C23.8678 28.0239 24.518 26.4797 24.5251 24.8362L24.5083 17.5374C25.0697 17.9705 25.6835 18.3289 26.3423 18.607C27.367 19.0394 28.4534 19.2584 29.5715 19.2581V16.8868V16.0069C29.5723 16.0077 29.5629 16.0077 29.5621 16.0077Z" fill="white"/>
</svg>
