<svg width="210" height="45" viewBox="0 0 210 45" fill="none" xmlns="http://www.w3.org/2000/svg">
<path d="M34.7089 10.066L33.5353 8.76194L21.2965 22.3579L7.50955 7.03906L6.33594 8.34308L20.1229 23.662L6.33594 38.9835L7.50955 40.2875L21.2965 24.966L32.274 37.1631L33.4476 35.8565L22.4702 23.662L34.7089 10.066Z" fill="url(#paint0_linear_207_1247)"/>
<path d="M48.411 20.2512C48.5263 20.2444 48.6415 20.2669 48.7477 20.317C48.8353 20.3691 48.9153 20.4357 48.9848 20.5146L52.8969 24.4978L56.9061 20.5146C56.9662 20.4333 57.0404 20.3661 57.1242 20.317C57.2313 20.267 57.3472 20.2445 57.4633 20.2512H59.7062C59.8911 20.2512 60.0002 20.3197 60.0334 20.4593C60.0489 20.5288 60.047 20.6016 60.0278 20.6699C60.0085 20.7382 59.9727 20.7993 59.9243 20.8466L54.6229 26.2497L60.076 31.7818C60.1192 31.8301 60.1509 31.8896 60.1683 31.9549C60.1857 32.0202 60.1882 32.0893 60.1756 32.1559C60.1472 32.2876 60.0429 32.3535 59.8579 32.3535H57.3424C57.2233 32.3596 57.1044 32.3372 56.9938 32.2876C56.9059 32.245 56.8256 32.1853 56.7567 32.1111L52.5483 27.8329L48.2214 32.1111C48.1578 32.1828 48.0841 32.2424 48.0032 32.2876C47.897 32.3378 47.7818 32.3603 47.6666 32.3535H45.4237C45.2387 32.3535 45.1297 32.2876 45.0965 32.1559C45.0807 32.0885 45.0827 32.0175 45.102 31.9512C45.1213 31.885 45.1572 31.8262 45.2055 31.7818L50.8128 26.0784L45.6916 20.8466C45.6429 20.7993 45.6063 20.7386 45.5855 20.6706C45.5647 20.6026 45.5604 20.5297 45.573 20.4593C45.5991 20.3197 45.7034 20.2512 45.8907 20.2512H48.411Z" fill="white"/>
<path d="M64.1479 15.7776C64.2071 15.7684 64.2674 15.7746 64.3241 15.7957C64.3808 15.8168 64.4324 15.8522 64.4746 15.8992C64.5169 15.9462 64.5488 16.0034 64.5678 16.0664C64.5868 16.1294 64.5924 16.1965 64.5841 16.2623V18.3698C64.5841 18.707 64.4371 18.8756 64.1479 18.8756H62.2013C62.1395 18.8852 62.0765 18.8788 62.0173 18.8568C61.9582 18.8348 61.9044 18.7978 61.8602 18.7488C61.8161 18.6997 61.7828 18.64 61.763 18.5742C61.7432 18.5085 61.7374 18.4385 61.7461 18.3698V16.2623C61.7461 15.9383 61.8978 15.7776 62.2013 15.7776H64.1479ZM64.1479 20.256C64.4371 20.256 64.5841 20.4246 64.5841 20.7618V31.8762C64.5924 31.942 64.5868 32.0091 64.5678 32.0721C64.5488 32.1351 64.5169 32.1923 64.4746 32.2393C64.4324 32.2863 64.3808 32.3217 64.3241 32.3429C64.2674 32.364 64.2071 32.3702 64.1479 32.361H62.2013C62.142 32.3707 62.0815 32.3649 62.0245 32.344C61.9676 32.3231 61.9158 32.2877 61.8734 32.2406C61.831 32.1935 61.7991 32.136 61.7803 32.0727C61.7615 32.0094 61.7563 31.9421 61.7651 31.8762V20.7592C61.7651 20.422 61.9097 20.2534 62.2013 20.2534L64.1479 20.256Z" fill="white"/>
<path d="M70.8123 20.2513C71.0591 20.2469 71.3056 20.2725 71.5473 20.3277C71.737 20.3752 71.916 20.4648 72.0737 20.5912C72.2381 20.7308 72.3787 20.9021 72.4886 21.097C72.6143 21.3104 72.7565 21.587 72.9154 21.9242L76.211 29.1792C76.2354 29.2382 76.2745 29.2881 76.3237 29.3231C76.3728 29.3581 76.43 29.3767 76.4884 29.3768H76.8179C76.877 29.3807 76.9357 29.3637 76.9856 29.3282C77.0354 29.2927 77.0739 29.2405 77.0953 29.1792L80.3743 21.9268C80.5332 21.5896 80.6754 21.313 80.8011 21.0996C80.911 20.9048 81.0516 20.7335 81.216 20.5938C81.3737 20.4675 81.5527 20.3779 81.7424 20.3304C81.9841 20.2752 82.2306 20.2496 82.4774 20.254H84.4618C84.7503 20.2452 85.0382 20.2861 85.3154 20.3752C85.5256 20.4455 85.7122 20.584 85.8512 20.773C85.9951 20.983 86.0903 21.229 86.1286 21.4895C86.1865 21.8458 86.2135 22.2075 86.2092 22.5696V31.8742C86.2176 31.9403 86.212 32.0076 86.1929 32.0708C86.1737 32.134 86.1416 32.1915 86.099 32.2385C86.0565 32.2855 86.0046 32.3209 85.9476 32.3418C85.8906 32.3627 85.83 32.3686 85.7706 32.3589H83.8122C83.7529 32.3687 83.6923 32.3629 83.6354 32.342C83.5784 32.3211 83.5267 32.2857 83.4843 32.2385C83.4419 32.1914 83.41 32.1339 83.3912 32.0707C83.3724 32.0074 83.3671 31.9401 83.3759 31.8742V23.0965C83.3759 22.9489 83.3214 22.8752 83.2171 22.8752H83.0369C82.9793 22.8707 82.9216 22.8815 82.8686 22.9068C82.8267 22.9445 82.7954 22.9948 82.7785 23.0517L79.5255 30.1961C79.3406 30.5939 79.1699 30.9285 79.0182 31.1998C78.8826 31.4488 78.7158 31.675 78.5226 31.8716C78.3467 32.0473 78.1365 32.1753 77.9086 32.2456C77.6394 32.3246 77.3618 32.3618 77.0835 32.3563H76.211C75.9327 32.3618 75.655 32.3246 75.3859 32.2456C75.1579 32.1753 74.9478 32.0473 74.7718 31.8716C74.5768 31.6735 74.4062 31.4476 74.2644 31.1998C74.0817 30.8763 73.9162 30.5412 73.7689 30.1961L70.5136 23.0517C70.494 22.9971 70.4601 22.9504 70.4164 22.9173C70.3634 22.8921 70.3056 22.8812 70.2481 22.8857H70.0679C69.9636 22.8857 69.909 22.9595 69.909 23.107V31.8742C69.9178 31.9401 69.9126 32.0074 69.8938 32.0707C69.875 32.1339 69.8431 32.1914 69.8007 32.2385C69.7583 32.2857 69.7065 32.3211 69.6496 32.342C69.5926 32.3629 69.5321 32.3687 69.4728 32.3589H67.5286C67.2228 32.3589 67.071 32.1982 67.071 31.8742V22.567C67.0655 22.2048 67.0925 21.843 67.1516 21.4869C67.1899 21.2264 67.2852 20.9803 67.429 20.7703C67.568 20.5814 67.7546 20.4429 67.9649 20.3725C68.2484 20.2827 68.5427 20.2418 68.8374 20.2513H70.8123Z" fill="white"/>
<path d="M94.2165 23.5867C94.265 23.5788 94.3144 23.5836 94.3609 23.6006C94.4074 23.6176 94.4497 23.6465 94.4845 23.6848C94.5192 23.7232 94.5455 23.77 94.5611 23.8215C94.5767 23.8731 94.5813 23.928 94.5746 23.9819V25.5625C94.5812 25.6165 94.5766 25.6714 94.5609 25.7231C94.5453 25.7747 94.5191 25.8217 94.4845 25.8602C94.4498 25.8987 94.4076 25.9278 94.3611 25.9452C94.3146 25.9625 94.2651 25.9677 94.2165 25.9603H88.2418C88.1933 25.9678 88.1439 25.9627 88.0975 25.9453C88.0511 25.9279 88.0089 25.8988 87.9744 25.8602C87.9399 25.8216 87.914 25.7746 87.8987 25.7229C87.8833 25.6713 87.879 25.6163 87.8861 25.5625V23.9766C87.8795 23.923 87.884 23.8683 87.8996 23.817C87.9151 23.7657 87.9411 23.719 87.9755 23.6807C88.01 23.6425 88.052 23.6136 88.0982 23.5963C88.1443 23.5791 88.1935 23.574 88.2418 23.5814L94.2165 23.5867Z" fill="white"/>
<path d="M109.135 20.2578C109.808 20.2578 110.283 20.408 110.558 20.7083C110.833 21.0086 110.972 21.4828 110.975 22.1309V31.878C110.975 32.2021 110.823 32.3628 110.52 32.3628H108.587C108.528 32.3725 108.468 32.3667 108.411 32.3458C108.354 32.3249 108.302 32.2895 108.259 32.2424C108.217 32.1953 108.185 32.1378 108.166 32.0745C108.148 32.0112 108.142 31.9439 108.151 31.878V23.5218C108.16 23.4588 108.155 23.3944 108.136 23.3339C108.118 23.2734 108.088 23.2184 108.047 23.1734C108.007 23.1283 107.957 23.0944 107.903 23.0744C107.848 23.0544 107.791 23.0488 107.734 23.0582H99.5091C99.4532 23.0511 99.3967 23.0583 99.3438 23.0793C99.2909 23.1003 99.243 23.1345 99.2038 23.1793C99.1647 23.2241 99.1353 23.2782 99.1179 23.3376C99.1005 23.397 99.0957 23.46 99.1036 23.5218V31.8807C99.1124 31.9466 99.1072 32.0139 99.0884 32.0771C99.0696 32.1404 99.0377 32.1979 98.9953 32.245C98.9529 32.2921 98.9011 32.3276 98.8442 32.3485C98.7873 32.3694 98.7267 32.3752 98.6674 32.3654H96.7232C96.4174 32.3654 96.2656 32.2047 96.2656 31.8807V22.1335C96.2656 21.4889 96.4047 21.0148 96.6829 20.7109C96.9611 20.4071 97.4353 20.2569 98.1055 20.2604L109.135 20.2578Z" fill="white"/>
<path d="M122.273 20.2511C123.027 20.2389 123.78 20.3273 124.515 20.5145C125.052 20.6436 125.552 20.9147 125.974 21.3049C126.346 21.679 126.618 22.1605 126.758 22.6958C126.929 23.3585 127.008 24.0458 126.995 24.7348V30.6016C127 30.8932 126.977 31.1846 126.927 31.4709C126.891 31.6669 126.809 31.8488 126.69 31.9978C126.569 32.1374 126.414 32.2338 126.244 32.2744C126.01 32.3315 125.772 32.3572 125.533 32.3508H116.08C115.588 32.3637 115.097 32.3008 114.622 32.1637C114.269 32.0657 113.943 31.8731 113.673 31.6026C113.426 31.3373 113.25 31.0007 113.166 30.6305C113.059 30.1704 113.009 29.6963 113.016 29.2212V28.1674C113.011 27.7531 113.062 27.3403 113.166 26.9424C113.26 26.5934 113.435 26.2781 113.673 26.0283C113.944 25.7579 114.269 25.5645 114.622 25.4645C115.098 25.3323 115.589 25.273 116.08 25.288H124.157V24.8586C124.163 24.5537 124.129 24.2495 124.058 23.955C124.001 23.7209 123.884 23.5103 123.721 23.3491C123.531 23.1775 123.307 23.0599 123.067 23.0067C122.715 22.9247 122.355 22.8876 121.995 22.896H113.697C113.648 22.9039 113.599 22.8992 113.552 22.8821C113.506 22.8651 113.464 22.8363 113.429 22.7979C113.394 22.7596 113.368 22.7128 113.352 22.6612C113.337 22.6097 113.332 22.5548 113.339 22.5009V20.6568C113.332 20.6029 113.337 20.548 113.352 20.4965C113.368 20.4449 113.394 20.3981 113.429 20.3597C113.464 20.3214 113.506 20.2926 113.552 20.2755C113.599 20.2585 113.648 20.2538 113.697 20.2616L122.273 20.2511ZM123.581 29.9324C123.662 29.942 123.744 29.9322 123.822 29.9036C123.899 29.8749 123.97 29.8282 124.029 29.7665C124.13 29.5933 124.176 29.3871 124.157 29.1816V27.2401H116.886C116.578 27.2011 116.268 27.2954 116.02 27.5035C115.935 27.6134 115.87 27.741 115.829 27.8789C115.789 28.0168 115.773 28.1623 115.783 28.307V28.7707C115.756 29.0846 115.841 29.3979 116.02 29.6427C116.268 29.8508 116.578 29.9451 116.886 29.9061L123.581 29.9324Z" fill="white"/>
<path d="M139.344 20.2592C140.098 20.247 140.85 20.3355 141.585 20.5227C142.122 20.6517 142.623 20.9228 143.045 21.313C143.416 21.6881 143.687 22.1693 143.828 22.7039C143.998 23.3666 144.078 24.0539 144.065 24.7429V27.9042C144.078 28.5941 143.998 29.2823 143.828 29.9458C143.687 30.4798 143.416 30.9602 143.045 31.3341C142.625 31.7286 142.123 32.0002 141.585 32.1245C140.849 32.3014 140.097 32.3827 139.344 32.3668H131.902V36.7557C131.91 36.8215 131.905 36.8885 131.886 36.9515C131.867 37.0145 131.835 37.0718 131.792 37.1188C131.75 37.1658 131.699 37.2012 131.642 37.2223C131.585 37.2434 131.525 37.2496 131.466 37.2404H129.519C129.216 37.2404 129.064 37.0797 129.064 36.7557V24.735C129.051 24.046 129.131 23.3587 129.301 22.696C129.442 22.1607 129.713 21.6792 130.086 21.3051C130.504 20.916 131.001 20.6449 131.534 20.5148C132.273 20.3263 133.029 20.2379 133.787 20.2513L139.344 20.2592ZM131.902 29.7193H139.064C139.424 29.7279 139.784 29.6907 140.136 29.6086C140.389 29.5515 140.62 29.4131 140.802 29.2108C140.976 29.0008 141.096 28.7422 141.149 28.4627C141.222 28.0783 141.255 27.6858 141.248 27.293V25.3304C141.254 24.942 141.221 24.554 141.149 24.1739C141.099 23.8924 140.979 23.6321 140.802 23.4231C140.617 23.2262 140.386 23.0887 140.136 23.0253C139.785 22.9364 139.425 22.8957 139.064 22.9041H134.064C133.71 22.8966 133.357 22.9373 133.011 23.0253C132.762 23.0891 132.533 23.2266 132.348 23.4231C132.17 23.6319 132.049 23.8921 131.999 24.1739C131.928 24.5541 131.895 24.9421 131.902 25.3304V29.7193Z" fill="white"/>
<path d="M148.791 20.2547C149.082 20.2547 149.227 20.4233 149.227 20.7605V29.2432C149.227 29.3908 149.279 29.4619 149.386 29.4619H149.564C149.615 29.4663 149.667 29.4543 149.713 29.4273C149.759 29.4002 149.796 29.3592 149.822 29.3091L155.773 21.5561C155.92 21.3469 156.078 21.148 156.247 20.9608C156.393 20.804 156.557 20.6702 156.736 20.563C156.926 20.4531 157.13 20.375 157.34 20.3311C157.625 20.2756 157.914 20.25 158.203 20.2547H159.329C159.936 20.2547 160.386 20.4163 160.679 20.7395C160.97 21.0635 161.115 21.672 161.115 22.5835V31.8776C161.115 32.2016 160.963 32.3623 160.66 32.3623H158.713C158.654 32.3721 158.593 32.3663 158.536 32.3454C158.479 32.3245 158.427 32.2891 158.385 32.2419C158.343 32.1948 158.311 32.1373 158.292 32.0741C158.273 32.0108 158.268 31.9435 158.277 31.8776V23.3844C158.277 23.2395 158.225 23.1657 158.118 23.1657H157.94C157.889 23.1681 157.84 23.1831 157.795 23.2095C157.751 23.236 157.712 23.2732 157.682 23.3185L151.707 31.0583C151.522 31.2954 151.356 31.4982 151.211 31.6668C151.074 31.8294 150.914 31.9663 150.737 32.0725C150.551 32.1822 150.35 32.257 150.142 32.2938C149.86 32.3429 149.574 32.3649 149.289 32.3597H148.217C147.607 32.3597 147.154 32.2016 146.858 31.8855C146.563 31.5694 146.413 30.9635 146.41 30.0678V20.7605C146.401 20.6916 146.407 20.6214 146.427 20.5554C146.447 20.4894 146.481 20.4294 146.525 20.3803C146.569 20.3313 146.624 20.2943 146.683 20.2725C146.743 20.2507 146.806 20.2446 146.868 20.2547H148.791Z" fill="white"/>
<path d="M177.704 20.2537C177.752 20.2458 177.801 20.2506 177.848 20.2676C177.894 20.2846 177.937 20.3135 177.972 20.3518C178.006 20.3901 178.032 20.437 178.048 20.4885C178.064 20.5401 178.068 20.595 178.062 20.6489V22.4929C178.068 22.5468 178.064 22.6017 178.048 22.6533C178.032 22.7048 178.006 22.7516 177.972 22.79C177.937 22.8283 177.894 22.8571 177.848 22.8742C177.801 22.8912 177.752 22.896 177.704 22.8881H171.85V31.8766C171.858 31.9424 171.852 32.0094 171.833 32.0724C171.814 32.1354 171.783 32.1927 171.74 32.2396C171.698 32.2866 171.646 32.3221 171.59 32.3432C171.533 32.3643 171.473 32.3705 171.413 32.3613H169.467C169.163 32.3613 169.012 32.2006 169.012 31.8766V22.8986H163.156C163.107 22.906 163.058 22.9009 163.012 22.8837C162.966 22.8665 162.924 22.8376 162.889 22.7993C162.855 22.761 162.829 22.7144 162.813 22.663C162.798 22.6117 162.793 22.5571 162.8 22.5035V20.6594C162.793 20.6058 162.798 20.5511 162.813 20.4998C162.829 20.4485 162.855 20.4018 162.889 20.3635C162.924 20.3253 162.966 20.2964 163.012 20.2791C163.058 20.2619 163.107 20.2568 163.156 20.2642L177.704 20.2537Z" fill="white"/>
<path d="M189.675 20.2515C190.24 20.2388 190.803 20.3016 191.354 20.4386C191.748 20.534 192.111 20.7472 192.404 21.055C192.676 21.3676 192.865 21.7565 192.952 22.1799C193.066 22.7336 193.119 23.3006 193.111 23.8685V25.976C193.111 26.4449 193.016 26.7663 192.831 26.956C192.585 27.1567 192.281 27.2504 191.978 27.2194H181.951V27.7463C181.951 28.4365 182.1 28.9362 182.399 29.2453C182.698 29.5544 183.276 29.7089 184.135 29.7089H192.411C192.46 29.7015 192.509 29.7066 192.555 29.7238C192.601 29.741 192.643 29.7699 192.678 29.8082C192.712 29.8465 192.738 29.8932 192.754 29.9445C192.769 29.9958 192.774 30.0504 192.767 30.1041V31.9481C192.774 32.0018 192.769 32.0564 192.754 32.1077C192.738 32.1591 192.712 32.2057 192.678 32.244C192.643 32.2823 192.601 32.3112 192.555 32.3284C192.509 32.3456 192.46 32.3507 192.411 32.3433H183.857C183.1 32.3605 182.344 32.2791 181.605 32.1009C181.07 31.9757 180.572 31.704 180.156 31.3106C179.784 30.9375 179.512 30.4569 179.371 29.9223C179.201 29.2587 179.121 28.5705 179.134 27.8807V24.7194C179.121 24.0304 179.201 23.3431 179.371 22.6804C179.512 22.1451 179.784 21.6636 180.156 21.2895C180.575 20.9004 181.072 20.6293 181.605 20.4991C182.343 20.3107 183.1 20.2222 183.857 20.2357L189.675 20.2515ZM181.956 25.2568H189.993C190.039 25.2643 190.086 25.2597 190.13 25.2436C190.174 25.2275 190.214 25.2002 190.247 25.1639C190.28 25.1276 190.304 25.0833 190.319 25.0345C190.334 24.9857 190.339 24.9338 190.332 24.8827V23.9554C190.363 23.6072 190.27 23.2594 190.074 22.986C189.901 22.7937 189.583 22.6988 189.125 22.6988H184.146C183.285 22.6988 182.706 22.8499 182.411 23.152C182.115 23.454 181.966 23.9572 181.963 24.6615L181.956 25.2568Z" fill="white"/>
<path d="M209.339 20.2533C209.387 20.2459 209.436 20.251 209.482 20.2682C209.529 20.2854 209.571 20.3143 209.605 20.3526C209.64 20.3909 209.666 20.4375 209.681 20.4889C209.697 20.5402 209.701 20.5948 209.694 20.6485V22.4925C209.701 22.5462 209.697 22.6008 209.681 22.6521C209.666 22.7035 209.64 22.7501 209.605 22.7884C209.571 22.8267 209.529 22.8556 209.482 22.8728C209.436 22.89 209.387 22.8951 209.339 22.8877H203.483V31.8762C203.491 31.9421 203.486 32.0094 203.467 32.0726C203.449 32.1359 203.417 32.1934 203.374 32.2405C203.332 32.2876 203.28 32.3231 203.223 32.344C203.166 32.3649 203.106 32.3707 203.046 32.3609H201.102C200.796 32.3609 200.645 32.2002 200.645 31.8762V22.8982H194.791C194.742 22.9061 194.693 22.9014 194.646 22.8843C194.6 22.8673 194.558 22.8385 194.523 22.8001C194.488 22.7618 194.462 22.715 194.446 22.6634C194.431 22.6119 194.426 22.557 194.433 22.5031V20.659C194.426 20.6051 194.431 20.5502 194.446 20.4987C194.462 20.4471 194.488 20.4003 194.523 20.362C194.558 20.3236 194.6 20.2948 194.646 20.2778C194.693 20.2607 194.742 20.256 194.791 20.2639L209.339 20.2533Z" fill="white"/>
<path d="M28.5938 9.41416C28.5938 10.6288 28.9179 11.8161 29.5253 12.826C30.1327 13.8359 30.996 14.623 32.006 15.0877C33.016 15.5524 34.1273 15.6739 35.1995 15.4367C36.2716 15.1995 37.2564 14.6144 38.0292 13.7554C38.802 12.8963 39.3282 11.8019 39.5412 10.6105C39.7541 9.41919 39.6443 8.18441 39.2257 7.06238C38.807 5.94036 38.0983 4.98149 37.1891 4.30706C36.28 3.63262 35.2112 3.27292 34.118 3.27344C32.6531 3.27553 31.2487 3.92325 30.213 5.07449C29.1774 6.22572 28.595 7.78643 28.5938 9.41416Z" fill="url(#paint1_linear_207_1247)"/>
<path d="M13.8415 7.68974C13.8415 6.16885 13.4356 4.68212 12.6752 3.41755C11.9147 2.15298 10.8338 1.16737 9.56923 0.58535C8.30462 0.00333186 6.91309 -0.148951 5.57059 0.14776C4.2281 0.44447 2.99493 1.17685 2.02705 2.25227C1.05916 3.3277 0.400023 4.69788 0.132984 6.18955C-0.134056 7.68121 0.00299867 9.22736 0.526815 10.6325C1.05063 12.0376 1.93768 13.2386 3.0758 14.0835C4.21391 14.9285 5.55197 15.3795 6.92077 15.3795C8.75569 15.3774 10.5149 14.5665 11.8124 13.1249C13.1099 11.6832 13.8396 9.72854 13.8415 7.68974Z" fill="url(#paint2_linear_207_1247)"/>
<path d="M10.9342 39.6319C10.9342 38.7498 10.6988 37.8875 10.2578 37.154C9.8167 36.4206 9.1898 35.8489 8.45634 35.5114C7.72287 35.1738 6.91579 35.0855 6.13716 35.2576C5.35852 35.4297 4.64329 35.8544 4.08192 36.4782C3.52056 37.1019 3.13826 37.8966 2.98338 38.7618C2.8285 39.6269 2.90799 40.5237 3.2118 41.3386C3.51561 42.1536 4.03009 42.8502 4.69019 43.3402C5.35029 43.8303 6.12635 44.0919 6.92025 44.0919C7.98444 44.0905 9.00469 43.6201 9.75718 42.784C10.5097 41.9479 10.933 40.8143 10.9342 39.6319Z" fill="url(#paint3_linear_207_1247)"/>
<path d="M29.125 36.5085C29.125 37.3291 29.344 38.1313 29.7543 38.8137C30.1647 39.496 30.7479 40.0278 31.4302 40.3418C32.1125 40.6559 32.8634 40.738 33.5877 40.5779C34.3121 40.4178 34.9775 40.0227 35.4997 39.4424C36.022 38.8621 36.3776 38.1228 36.5217 37.318C36.6658 36.5131 36.5918 35.6789 36.3092 34.9207C36.0266 34.1626 35.5479 33.5145 34.9338 33.0586C34.3198 32.6027 33.5978 32.3594 32.8592 32.3594C31.8692 32.3608 30.9201 32.7984 30.2201 33.5762C29.5201 34.354 29.1263 35.4085 29.125 36.5085Z" fill="url(#paint4_linear_207_1247)"/>
<path d="M21.2958 28.555C20.4246 28.555 19.5729 28.2679 18.8484 27.7301C18.124 27.1922 17.5594 26.4278 17.226 25.5334C16.8925 24.639 16.8053 23.6549 16.9753 22.7054C17.1452 21.7559 17.5648 20.8838 18.1809 20.1992C18.797 19.5147 19.5819 19.0485 20.4364 18.8597C21.2909 18.6708 22.1767 18.7677 22.9816 19.1382C23.7866 19.5087 24.4746 20.136 24.9586 20.941C25.4427 21.7459 25.701 22.6922 25.701 23.6603C25.7013 24.3032 25.5876 24.9398 25.3663 25.5338C25.1451 26.1278 24.8206 26.6675 24.4115 27.1221C24.0023 27.5767 23.5166 27.9372 22.982 28.1831C22.4474 28.4289 21.8744 28.5553 21.2958 28.555Z" fill="url(#paint5_linear_207_1247)"/>
<defs>
<linearGradient id="paint0_linear_207_1247" x1="6.33594" y1="23.662" x2="34.7089" y2="23.662" gradientUnits="userSpaceOnUse">
<stop offset="0.21" stop-color="#304CBC"/>
<stop offset="0.3" stop-color="#365ED0"/>
<stop offset="0.41" stop-color="#3C6FE3"/>
<stop offset="0.54" stop-color="#417CF1"/>
<stop offset="0.7" stop-color="#4383F9"/>
<stop offset="1" stop-color="#4485FB"/>
</linearGradient>
<linearGradient id="paint1_linear_207_1247" x1="15.2691" y1="-18.3732" x2="59.4755" y2="34.4123" gradientUnits="userSpaceOnUse">
<stop offset="0.21" stop-color="#304CBC"/>
<stop offset="0.3" stop-color="#365ED0"/>
<stop offset="0.41" stop-color="#3C6FE3"/>
<stop offset="0.54" stop-color="#417CF1"/>
<stop offset="0.7" stop-color="#4383F9"/>
<stop offset="1" stop-color="#4485FB"/>
</linearGradient>
<linearGradient id="paint2_linear_207_1247" x1="-1.33009" y1="-4.47316" x2="42.8764" y2="48.3124" gradientUnits="userSpaceOnUse">
<stop stop-color="#31DDA4"/>
<stop offset="0.4" stop-color="#30DBA3"/>
<stop offset="0.61" stop-color="#2CD3A0"/>
<stop offset="0.78" stop-color="#26C59B"/>
<stop offset="0.93" stop-color="#1DB293"/>
<stop offset="1" stop-color="#17A58E"/>
</linearGradient>
<linearGradient id="paint3_linear_207_1247" x1="-15.1484" y1="7.09736" x2="29.0556" y2="59.8832" gradientUnits="userSpaceOnUse">
<stop offset="0.21" stop-color="#304CBC"/>
<stop offset="0.3" stop-color="#365ED0"/>
<stop offset="0.41" stop-color="#3C6FE3"/>
<stop offset="0.54" stop-color="#417CF1"/>
<stop offset="0.7" stop-color="#4383F9"/>
<stop offset="1" stop-color="#4485FB"/>
</linearGradient>
<linearGradient id="paint4_linear_207_1247" x1="2.74596" y1="-7.88596" x2="46.95" y2="44.8999" gradientUnits="userSpaceOnUse">
<stop offset="0.21" stop-color="#304CBC"/>
<stop offset="0.3" stop-color="#365ED0"/>
<stop offset="0.41" stop-color="#3C6FE3"/>
<stop offset="0.54" stop-color="#417CF1"/>
<stop offset="0.7" stop-color="#4383F9"/>
<stop offset="1" stop-color="#4485FB"/>
</linearGradient>
<linearGradient id="paint5_linear_207_1247" x1="0.929484" y1="-6.36629" x2="45.1337" y2="46.4222" gradientUnits="userSpaceOnUse">
<stop offset="0.21" stop-color="#304CBC"/>
<stop offset="0.3" stop-color="#365ED0"/>
<stop offset="0.41" stop-color="#3C6FE3"/>
<stop offset="0.54" stop-color="#417CF1"/>
<stop offset="0.7" stop-color="#4383F9"/>
<stop offset="1" stop-color="#4485FB"/>
</linearGradient>
</defs>
</svg>
