<svg width="494" height="318" fill="none" xmlns="http://www.w3.org/2000/svg"><g opacity=".05" fill="#031C77"><path d="M157.692 312.919c-42.094 0-81.688-15.739-111.487-44.313C16.41 240.03 0 202.058 0 161.685 0 121.32 16.41 83.348 46.205 54.769l46.448-44.54c14.224-13.638 37.288-13.638 51.513 0 14.224 13.641 14.224 35.76 0 49.402l-46.448 44.542c-16.035 15.382-24.87 35.806-24.87 57.512 0 21.713 8.835 42.138 24.87 57.518 16.039 15.381 37.336 23.852 59.974 23.852 22.634 0 43.93-8.471 59.969-23.852l93.437-89.61c14.224-13.642 37.288-13.642 51.513 0 14.224 13.642 14.224 35.761 0 49.403l-93.437 89.61c-29.799 28.574-69.388 44.313-111.482 44.313z"/><path d="M375.158 317.685c-9.367 0-18.726-3.412-25.873-10.234-14.289-13.646-14.289-35.773 0-49.419l46.658-44.555c33.217-31.724 33.217-83.346-.004-115.068-33.217-31.727-87.266-31.723-120.487 0l-93.856 89.638c-14.289 13.647-37.458 13.647-51.747 0-14.289-13.647-14.289-35.773 0-49.419l93.861-89.634c61.752-58.97 162.228-58.974 223.976 0 61.752 58.97 61.752 154.927.004 213.901l-46.663 44.556c-7.142 6.822-16.505 10.234-25.869 10.234z"/></g></svg>