<svg width="227" height="227" fill="none" xmlns="http://www.w3.org/2000/svg"><path opacity=".06" d="M143.41 226.001l-57.323-33.096a24.186 24.186 0 0012.463-7.028 24.26 24.26 0 006.328-12.85 24.143 24.143 0 00-2.032-14.157 24.002 24.002 0 00-9.677-10.49 24 24 0 00-13.923-3.136 24.15 24.15 0 00-13.276 5.319 24.254 24.254 0 00-7.965 11.905 24.183 24.183 0 00.145 14.308L.827 143.681l31.87-55.2A23.984 23.984 0 019.238 78.233a24.1 24.1 0 01-4.14-12.685 24.24 24.24 0 013.234-12.972 24.237 24.237 0 019.617-9.286 24.101 24.101 0 0113.055-2.757 23.983 23.983 0 0120.604 15.192l31.87-55.2L140.8 33.622a24.184 24.184 0 00-12.464 7.028 24.254 24.254 0 00-6.328 12.85 24.151 24.151 0 002.032 14.157 23.995 23.995 0 0023.6 13.626 24.146 24.146 0 0013.276-5.32 24.257 24.257 0 007.965-11.904 24.187 24.187 0 00-.145-14.308l57.323 33.095-82.658 143.167" fill="#fff"/></svg>