<svg width="154" height="300" fill="none" xmlns="http://www.w3.org/2000/svg"><g opacity=".05" fill="#fff"><path d="M8.379 171.683l19.577 3.209a120.58 120.58 0 0017.44 42.032l-11.593 16.18a9.153 9.153 0 00.102 10.973 133.947 133.947 0 009.306 10.246c3.305 3.311 6.712 6.362 10.22 9.311a9.154 9.154 0 0010.984.102l16.17-11.599a120.331 120.331 0 0042.002 17.451l3.203 19.593a9.061 9.061 0 007.831 7.627c2.786.315 5.593.508 8.461.651a5.118 5.118 0 005.37-5.075v-40.75a5.116 5.116 0 00-4.943-5.085c-51.385-2.664-91.683-45.105-91.683-96.56 0-51.454 40.298-93.895 91.683-96.56a5.116 5.116 0 004.943-5.084V7.63a5.116 5.116 0 00-5.355-5.085 144.6 144.6 0 00-8.477.6 9.178 9.178 0 00-7.83 7.688l-3.204 19.592a120.457 120.457 0 00-42.001 17.457l-16.17-11.604a9.152 9.152 0 00-10.984.102 135.278 135.278 0 00-10.22 9.31 117.249 117.249 0 00-9.306 10.246 9.152 9.152 0 00-.102 10.994l11.593 16.18a120.577 120.577 0 00-17.441 42.016L8.378 128.33a9.066 9.066 0 00-7.627 7.836 125.91 125.91 0 000 27.458 9.194 9.194 0 007.628 8.059z"/><path d="M142.592 73.887c-40.172 2.545-71.451 35.868-71.451 76.121 0 40.252 31.28 73.576 71.451 76.121a4.669 4.669 0 004.861-4.709V78.595a4.667 4.667 0 00-4.861-4.709z"/></g></svg>