<svg width="71" height="71" fill="none" xmlns="http://www.w3.org/2000/svg"><path d="M69.366 14.831a2.5 2.5 0 00-3.991-.625l-9.6 9.607a2.519 2.519 0 01-3.536 0l-4.15-4.157a2.5 2.5 0 010-3.536l9.56-9.56a2.499 2.499 0 00-.748-4.05C49.681-.72 40.67.965 34.986 6.605c-4.828 4.794-6.267 12.285-3.945 20.552a2.483 2.483 0 01-.702 2.5L4.327 53.416a10.026 10.026 0 1014.156 14.162l24.012-26.07a2.484 2.484 0 012.464-.714c2.354.645 4.782.98 7.222.995 5.219 0 9.799-1.689 13.102-4.944 6.117-6.026 7.05-16.248 4.083-22.014zM11.544 65.867a5 5 0 11-1.086-9.94 5 5 0 011.086 9.94z" fill="#B4BCD1"/></svg>