<svg width="149" height="300" viewBox="0 0 149 300" fill="none" xmlns="http://www.w3.org/2000/svg">
<g opacity="0.05">
<path d="M32.0415 78.8192H6.61719V88.9888H32.0415C40.4563 88.9637 47.2711 82.1489 47.2962 73.7341V42.2892C54.301 39.8129 58.5027 32.6501 57.2464 25.3274C55.99 18.0046 49.6412 12.6523 42.2112 12.6523C34.7816 12.6523 28.4323 18.0046 27.1759 25.3274C25.9196 32.6501 30.1213 39.8129 37.1261 42.2892V73.7341C37.1261 76.5426 34.8495 78.8192 32.0415 78.8192Z" fill="white"/>
<path d="M6.61719 109.326H57.4663C60.2749 109.326 62.5514 107.05 62.5514 104.241C62.5514 101.433 60.2749 99.1562 57.4663 99.1562H6.61719V109.326Z" fill="white"/>
<path d="M6.61719 221.193H32.0415C34.85 221.193 37.1266 223.47 37.1266 226.278V257.723C30.1218 260.199 25.9201 267.362 27.1764 274.685C28.4328 282.008 34.7816 287.36 42.2116 287.36C49.6412 287.36 55.9905 282.008 57.2469 274.685C58.5032 267.362 54.3015 260.199 47.2967 257.723V226.278C47.2716 217.863 40.4568 211.049 32.042 211.023H6.61768V221.193H6.61719Z" fill="white"/>
<path d="M82.8907 170.348H6.61719V180.517H82.8907C85.6992 180.517 87.9757 182.794 87.9757 185.602V211.963C80.9709 214.439 76.7692 221.602 78.0256 228.925C79.282 236.247 85.6308 241.6 93.0608 241.6C100.49 241.6 106.84 236.247 108.096 228.925C109.352 221.602 105.151 214.439 98.1459 211.963V185.602C98.1203 177.188 91.3054 170.373 82.8907 170.348Z" fill="white"/>
<path d="M133.74 134.75C127.298 134.777 121.568 138.846 119.421 144.92H6.61719V155.089H119.421C122.019 162.384 129.678 166.567 137.22 164.812C144.762 163.056 149.786 155.92 148.895 148.228C148.005 140.536 141.483 134.736 133.74 134.75Z" fill="white"/>
<path d="M62.5514 195.773C62.5514 192.964 60.2749 190.688 57.4663 190.688H6.61719V200.857H57.4663C60.2749 200.858 62.5514 198.581 62.5514 195.773Z" fill="white"/>
<path d="M98.1459 114.411V88.0509C105.151 85.5746 109.352 78.4118 108.096 71.0891C106.84 63.7663 100.491 58.4141 93.0608 58.4141C85.6313 58.4141 79.282 63.7663 78.0256 71.0891C76.7692 78.4118 80.9709 85.5746 87.9757 88.0509V114.411C87.9757 117.22 85.6992 119.496 82.8907 119.496H6.61719V129.666H82.8907C91.3059 129.64 98.1208 122.826 98.1459 114.411Z" fill="white"/>
</g>
</svg>
