<svg width="225" height="22" fill="none" xmlns="http://www.w3.org/2000/svg"><path d="M52.294 18.93c-.717.329-1.978.494-3.339.494-4.056 0-6.603-2.264-6.603-5.944 0-3.303 2.399-6.134 7.147-6.134.866 0 1.93.117 2.795.4l-.618 3.115c-.42-.166-1.014-.283-1.93-.283-1.656 0-2.843 1.085-2.819 2.76 0 1.887 1.36 2.784 2.943 2.784.767 0 1.386-.095 1.954-.307l.47 3.114zm1.832-7.432c0-1.84-.024-2.949-.099-3.916h3.81l.172 2.1h.1c.642-1.77 2.176-2.36 3.24-2.36.395 0 .568 0 .89.07v3.988a5.064 5.064 0 00-1.138-.118c-1.31 0-2.201.519-2.448 1.462-.025.19-.05.449-.05.732v5.733h-4.477v-7.691zm16.991.495c0-.66-.322-1.888-1.732-1.888-1.31 0-1.83 1.157-1.904 1.888h3.636zm-3.587 2.878c.148.92 1.558 1.44 3.141 1.44 1.138 0 2.226-.119 3.314-.45l.57 2.832c-1.46.543-3.043.731-4.552.731-4.278 0-6.702-2.24-6.702-5.92 0-2.69 1.83-6.182 6.307-6.182 3.932 0 5.614 2.76 5.614 5.945 0 .684-.099 1.321-.173 1.604H67.53zm17.566-2.265c0-.165 0-.377-.025-.542-.173-.826-.816-1.486-1.756-1.486-1.484 0-2.152 1.274-2.152 2.784 0 1.792.915 2.713 2.127 2.713.915 0 1.583-.614 1.731-1.393.075-.235.075-.495.075-.778v-1.298zm4.476-10.191v13.117c0 1.439.05 2.878.099 3.656h-3.982l-.173-1.557h-.05c-.79 1.298-2.275 1.817-3.66 1.817-2.82 0-5.17-2.336-5.17-5.969-.024-3.916 2.573-6.157 5.442-6.157 1.336 0 2.424.377 2.968 1.132h.05v-6.04h4.476zm2.746 16.774V7.582h4.477v11.607h-4.477zm2.226-12.81c-1.385 0-2.251-.897-2.251-2.006 0-1.18.89-2.029 2.276-2.029 1.385 0 2.25.85 2.275 2.029 0 1.109-.89 2.005-2.275 2.005h-.025zm9.896-2.1v3.303h2.522v3.113h-2.522v3.327c0 1.368.321 1.934 1.409 1.934.52 0 .693 0 1.064-.094v3.232c-.519.189-1.509.33-2.646.33-1.311 0-2.399-.448-3.043-1.061-.742-.708-1.137-1.84-1.137-3.61v-4.058h-1.509V7.582h1.509v-2.17l4.353-1.133zm10.436 12.173c1.212 0 1.855-1.203 1.855-3.067 0-1.604-.544-3.067-1.855-3.067-1.484 0-1.979 1.534-1.979 3.067 0 1.746.594 3.067 1.954 3.067h.025zm-.124 2.996c-3.636 0-6.455-2.194-6.455-5.969 0-3.703 2.547-6.157 6.702-6.157 3.809 0 6.332 2.454 6.332 5.945 0 4.223-3.166 6.181-6.554 6.181h-.025zm8.707-7.95c0-1.84-.025-2.949-.1-3.916h3.809l.174 2.1h.098c.644-1.77 2.177-2.36 3.241-2.36.395 0 .569 0 .89.07v3.988a5.064 5.064 0 00-1.138-.118c-1.311 0-2.201.519-2.448 1.462a5.67 5.67 0 00-.05.732v5.733h-4.476v-7.691z" fill="#1F2E76"/><path d="M133.574 17.065c.668.378 1.806.802 2.894.802 1.558 0 2.3-.731 2.3-1.698 0-.991-.618-1.51-2.201-2.077-2.176-.754-3.191-1.887-3.191-3.231 0-1.84 1.583-3.35 4.131-3.35 1.212 0 2.275.306 2.918.707l-.519 1.487c-.47-.26-1.336-.66-2.449-.66-1.286 0-1.978.707-1.978 1.556 0 .944.692 1.368 2.251 1.958 2.052.732 3.14 1.723 3.14 3.421 0 2.029-1.657 3.444-4.451 3.444-1.311 0-2.523-.33-3.364-.802l.519-1.557zm15.068.825c2.077 0 3.636-1.863 3.636-4.458 0-1.935-1.014-4.364-3.587-4.364-2.547 0-3.66 2.264-3.66 4.435 0 2.5 1.484 4.388 3.586 4.388h.025zm-.099 1.558c-3.215 0-5.738-2.265-5.738-5.874 0-3.822 2.646-6.064 5.936-6.064 3.437 0 5.762 2.383 5.762 5.851 0 4.247-3.091 6.087-5.936 6.087h-.024zm8.703-17.01h2.177v16.75h-2.177V2.439zm15.857 13.612c0 1.204.025 2.242.099 3.138h-1.929l-.124-1.863h-.05c-.543.92-1.83 2.123-3.957 2.123-1.88 0-4.13-1.015-4.13-5.001V7.77h2.176v6.3c0 2.17.718 3.656 2.671 3.656 1.459 0 2.474-.967 2.869-1.911.124-.283.198-.66.198-1.061V7.77h2.177v8.28zm6.234-11.017V7.77h3.117v1.581h-3.117v6.134c0 1.415.421 2.217 1.633 2.217.593 0 .939-.047 1.261-.141l.099 1.58c-.421.142-1.088.283-1.929.283-1.014 0-1.83-.33-2.35-.872-.594-.638-.841-1.652-.841-2.996V9.35h-1.855V7.77h1.855v-2.1l2.127-.638zm5.564 14.156V7.77h2.177v11.42h-2.177zm1.039-13.353c-.791 0-1.311-.59-1.311-1.274 0-.732.544-1.298 1.36-1.298.791 0 1.336.566 1.336 1.298 0 .684-.52 1.274-1.36 1.274h-.025zm9.725 12.054c2.078 0 3.636-1.863 3.636-4.458 0-1.935-1.014-4.364-3.586-4.364-2.548 0-3.661 2.264-3.661 4.435 0 2.5 1.484 4.388 3.587 4.388h.024zm-.099 1.558c-3.215 0-5.738-2.265-5.738-5.874 0-3.822 2.647-6.064 5.936-6.064 3.438 0 5.763 2.383 5.763 5.851 0 4.247-3.091 6.087-5.936 6.087h-.025zm8.704-8.588c0-1.202-.024-2.146-.098-3.09h1.929l.124 1.864h.049c.593-1.061 1.979-2.123 3.957-2.123 1.658 0 4.23.943 4.23 4.86v6.818h-2.177v-6.582c0-1.84-.717-3.397-2.77-3.397-1.409 0-2.522.967-2.918 2.122-.099.26-.149.637-.149.968v6.889h-2.177V10.86zm13.433 6.205c.668.378 1.805.802 2.894.802 1.558 0 2.3-.731 2.3-1.698 0-.991-.618-1.51-2.201-2.077-2.177-.754-3.191-1.887-3.191-3.231 0-1.84 1.583-3.35 4.13-3.35 1.212 0 2.276.306 2.919.707l-.519 1.487c-.47-.26-1.336-.66-2.449-.66-1.286 0-1.979.707-1.979 1.556 0 .944.693 1.368 2.251 1.958 2.053.732 3.141 1.723 3.141 3.421 0 2.029-1.657 3.444-4.452 3.444-1.311 0-2.523-.33-3.363-.802l.519-1.557z" fill="#7B7979"/><path d="M10.986 21.684c-2.932 0-5.69-1.09-7.767-3.07C1.143 16.632 0 14.001 0 11.203c0-2.797 1.143-5.428 3.22-7.409L6.454.71a2.626 2.626 0 013.59 0 2.343 2.343 0 010 3.423L6.807 7.22C5.691 8.285 5.075 9.7 5.075 11.204c0 1.505.616 2.92 1.733 3.986a6.018 6.018 0 004.178 1.653 6.016 6.016 0 004.178-1.653l6.51-6.21a2.625 2.625 0 013.59 0 2.343 2.343 0 010 3.424l-6.51 6.21c-2.077 1.98-4.835 3.07-7.768 3.07z" fill="#1F2E76"/><path d="M26.097 22c-.65 0-1.3-.236-1.795-.709a2.343 2.343 0 010-3.423l3.236-3.087c2.304-2.197 2.304-5.773 0-7.97-2.304-2.199-6.052-2.198-8.357 0l-6.509 6.209a2.625 2.625 0 01-3.589 0 2.343 2.343 0 010-3.424l6.51-6.209c4.283-4.085 11.251-4.085 15.534 0 4.283 4.085 4.283 10.732 0 14.818l-3.236 3.086a2.593 2.593 0 01-1.794.709z" fill="#7B7979"/></svg>