<svg width="34" height="34" fill="none" xmlns="http://www.w3.org/2000/svg"><g id="001-facebook" opacity=".6" filter="url(#filter0_b_172_3972)"><g id="_x30_1._Facebook"><path id="Icon_11_" d="M13.736 18.768H10.37c-.544 0-.714-.204-.714-.714V13.94c0-.544.204-.714.714-.714h3.366v-2.992c0-1.36.238-2.652.918-3.842.714-1.224 1.734-2.04 3.026-2.516.85-.306 1.7-.442 2.618-.442h3.332c.476 0 .68.204.68.68V7.99c0 .476-.204.68-.68.68-.918 0-1.836 0-2.754.034-.918 0-1.394.442-1.394 1.394-.034 1.02 0 2.006 0 3.06h3.944c.544 0 .748.204.748.748v4.114c0 .544-.17.714-.748.714h-3.944v11.084c0 .578-.17.782-.782.782h-4.25c-.51 0-.714-.204-.714-.714V18.768z" fill="#828282"/></g></g><defs><filter id="filter0_b_172_3972" x="-4" y="-4" width="42" height="42" filterUnits="userSpaceOnUse" color-interpolation-filters="sRGB"><feFlood flood-opacity="0" result="BackgroundImageFix"/><feGaussianBlur in="BackgroundImageFix" stdDeviation="2"/><feComposite in2="SourceAlpha" operator="in" result="effect1_backgroundBlur_172_3972"/><feBlend in="SourceGraphic" in2="effect1_backgroundBlur_172_3972" result="shape"/></filter></defs></svg>