<svg width="34" height="34" fill="none" xmlns="http://www.w3.org/2000/svg"><g id="instagram-2 1" opacity=".6" filter="url(#filter0_b_172_3967)"><g id="Group 1" fill="#828282"><path id="Vector" d="M23.056 3.5H10.444C6.339 3.5 3 6.84 3 10.944v12.612C3 27.661 6.34 31 10.444 31h12.612c4.105 0 7.444-3.34 7.444-7.444V10.944c0-4.105-3.34-7.444-7.444-7.444zM16.75 24.77c-4.146 0-7.52-3.374-7.52-7.52 0-4.146 3.374-7.52 7.52-7.52 4.146 0 7.52 3.374 7.52 7.52 0 4.146-3.374 7.52-7.52 7.52zm7.7-13.266a2.224 2.224 0 01-2.223-2.222c0-1.225.997-2.222 2.222-2.222s2.222.997 2.222 2.222a2.224 2.224 0 01-2.222 2.222z"/><path id="Vector_2" d="M16.75 11.343a5.914 5.914 0 00-5.907 5.907 5.914 5.914 0 005.907 5.907 5.914 5.914 0 005.907-5.907 5.914 5.914 0 00-5.907-5.907z"/><path id="Vector_3" d="M24.45 8.672a.61.61 0 10.001 1.221.61.61 0 00-.002-1.22z"/></g></g><defs><filter id="filter0_b_172_3967" x="-4" y="-4" width="42" height="42" filterUnits="userSpaceOnUse" color-interpolation-filters="sRGB"><feFlood flood-opacity="0" result="BackgroundImageFix"/><feGaussianBlur in="BackgroundImageFix" stdDeviation="2"/><feComposite in2="SourceAlpha" operator="in" result="effect1_backgroundBlur_172_3967"/><feBlend in="SourceGraphic" in2="effect1_backgroundBlur_172_3967" result="shape"/></filter></defs></svg>