<svg width="34" height="34" fill="none" xmlns="http://www.w3.org/2000/svg"><g id="003-twitter" opacity=".6" filter="url(#filter0_b_172_3975)"><path id="_x30_4.Twitter" d="M30.566 8.568c-1.02.442-2.074.748-3.196.884a5.44 5.44 0 002.448-3.094c-1.088.646-2.278 1.088-3.536 1.36a5.58 5.58 0 00-9.656 3.808c0 .442.034.85.136 1.258-4.624-.204-8.704-2.448-11.458-5.814-1.972 3.536.238 6.46 1.7 7.446-.884 0-1.768-.272-2.516-.68 0 2.754 1.938 5.032 4.454 5.542-.544.17-1.768.272-2.516.102.714 2.21 2.788 3.842 5.202 3.876-1.904 1.496-4.692 2.686-8.262 2.312a15.73 15.73 0 008.568 2.516c10.268 0 15.844-8.5 15.844-15.844 0-.238 0-.476-.034-.714 1.156-.85 2.108-1.836 2.822-2.958z" fill="#828282"/></g><defs><filter id="filter0_b_172_3975" x="-4" y="-4" width="42" height="42" filterUnits="userSpaceOnUse" color-interpolation-filters="sRGB"><feFlood flood-opacity="0" result="BackgroundImageFix"/><feGaussianBlur in="BackgroundImageFix" stdDeviation="2"/><feComposite in2="SourceAlpha" operator="in" result="effect1_backgroundBlur_172_3975"/><feBlend in="SourceGraphic" in2="effect1_backgroundBlur_172_3975" result="shape"/></filter></defs></svg>