<svg width="824" height="345" viewBox="0 0 824 345" fill="none" xmlns="http://www.w3.org/2000/svg">
<path d="M-233.129 213.907C-273.728 246.261 -181.746 303.04 -155.325 306.004C-122.219 309.717 -62.7276 273.466 -36.5498 255.819C7.61203 226.047 48.3429 198.58 84.6118 158.822C106.759 134.543 138.987 86.6229 137.546 51.4742C136.799 33.2755 131.522 -4.25558 105.491 1.28954C30.8962 17.1795 24.3061 118.567 64.3451 168.809C91.9726 203.476 132.07 222.769 176.98 219.94C241.351 215.884 302.357 207.041 367.345 210.888C502.782 218.904 451.292 366.674 418.115 447.811C364.702 578.438 548.887 478.808 593.769 464.572C644.382 448.517 714.953 441.809 760.177 476.372C789.461 498.752 801.057 525.455 823.059 553.064" stroke="white" stroke-opacity="0.11"/>
</svg>
