<svg width="23" height="23" fill="none" xmlns="http://www.w3.org/2000/svg"><path d="M21.257 2.329h-3.703a1.08 1.08 0 01-1.08-1.08.536.536 0 00-.531-.54.536.536 0 00-.532.54v.017a1.063 1.063 0 01-2.125 0v-.018a.536.536 0 00-.532-.54.536.536 0 00-.531.54v.018a1.063 1.063 0 01-2.126 0v-.018a.536.536 0 00-.531-.54.536.536 0 00-.532.54v.018a1.063 1.063 0 01-2.125 0v-.018a.536.536 0 00-.532-.54.536.536 0 00-.531.54 1.08 1.08 0 01-1.08 1.08H1.063a1.06 1.06 0 00-.752.317A1.09 1.09 0 000 3.409v17.824c0 .287.112.561.311.764.2.203.47.317.752.317h20.194c.282 0 .552-.114.752-.317a1.09 1.09 0 00.31-.764V3.41a1.09 1.09 0 00-.31-.764c-.2-.202-.47-.316-.752-.316zM4.766 3.409c.596 0 1.08.484 1.08 1.08 0 .298.238.54.531.54a.536.536 0 00.532-.54v-.017a1.063 1.063 0 012.125 0v.017c0 .298.238.54.532.54a.536.536 0 00.531-.54v-.017a1.063 1.063 0 112.126 0v.017c0 .298.238.54.531.54a.536.536 0 00.532-.54v-.017a1.063 1.063 0 012.125 0v.017c0 .298.238.54.532.54a.536.536 0 00.531-.54c0-.597.484-1.08 1.08-1.08h1.813a1.89 1.89 0 010 3.78H2.953a1.89 1.89 0 010-3.78h1.813zm2.779 17.824a6.481 6.481 0 110-12.963h7.23a6.481 6.481 0 110 12.963h-7.23z" fill="#272727"/><path d="M19.53 9.805H2.79a.547.547 0 00-.558.535v8.027c0 .142.059.278.163.378a.57.57 0 00.395.157h16.74a.57.57 0 00.394-.157.525.525 0 00.164-.378V10.34a.525.525 0 00-.164-.378.57.57 0 00-.394-.157zm-.558 2.618a1.395 1.395 0 01-2.79 0v-.153a1.395 1.395 0 112.79 0v.153zm-3.906-.076c0 .812-.66 1.471-1.472 1.471h-.405a1.472 1.472 0 010-2.943h.405c.813 0 1.472.659 1.472 1.472zM9.13 10.875a1.472 1.472 0 010 2.943h-.405a1.472 1.472 0 010-2.943h.405zm-4.387 0c.77 0 1.395.625 1.395 1.395v.154a1.395 1.395 0 01-2.79 0v-.154c0-.77.624-1.395 1.395-1.395zm-1.395 5.409a1.395 1.395 0 012.79 0v.153a1.395 1.395 0 11-2.79 0v-.153zm3.906.076a1.47 1.47 0 011.471-1.471h.405a1.472 1.472 0 110 2.943h-.405a1.472 1.472 0 01-1.471-1.472zm5.935 1.472a1.472 1.472 0 110-2.943h.405a1.472 1.472 0 010 2.943h-.405zm4.388 0c-.77 0-1.395-.625-1.395-1.395v-.153a1.395 1.395 0 112.79 0v.153c0 .77-.625 1.395-1.395 1.395z" fill="#272727"/></svg>