<svg width="24" height="26" fill="none" xmlns="http://www.w3.org/2000/svg"><path d="M17.406 2.335a1.943 1.943 0 00-.698-1.25 1.621 1.621 0 00-1.295-.34 1.713 1.713 0 00-1.134.77 2.06 2.06 0 00-.308 1.429l3.031 20.799c.074.506.322.95.698 1.25.377.3.837.421 1.295.34a1.713 1.713 0 001.134-.77 2.06 2.06 0 00.307-1.429l-3.03-20.8zm-.92 7.639c-.254.114-.647-.006-.687-.282-.08-.545.256-1.057.75-1.145.494-.087.959.283 1.038.828.041.284-.304.521-.59.504a1.07 1.07 0 00-.51.095zm.624 2.418c-.376.066-.931-.092-.986-.47l-.002-.013a.37.37 0 01.1-.323c.144-.14.4-.341.712-.397.303-.054.593.041.77.122a.375.375 0 01.208.295l.003.02c.056.38-.427.699-.805.766zm.441 3.03c-.494.087-.958-.284-1.038-.828a.765.765 0 01.624-.864l.327-.058a.72.72 0 01.837.604c.08.545-.256 1.058-.75 1.146zM8.766.745a1.592 1.592 0 00-1.295.34c-.376.3-.624.744-.698 1.25l-3.03 20.799a2.06 2.06 0 00.307 1.429c.272.415.675.689 1.134.77.458.081.918-.04 1.295-.34.376-.3.624-.744.698-1.25l3.03-20.799A2.06 2.06 0 009.9 1.515a1.713 1.713 0 00-1.134-.77zm-1.1 13.849c-.08.545-.544.915-1.038.828-.494-.088-.83-.6-.75-1.145a.72.72 0 01.837-.605l.327.058a.765.765 0 01.624.864zm.389-2.672c-.055.378-.61.536-.986.47-.378-.067-.86-.387-.805-.767l.003-.019a.375.375 0 01.207-.295c.178-.08.468-.176.77-.122.314.055.569.258.713.397a.37.37 0 01.1.323l-.002.013zm.325-2.23c-.04.276-.433.396-.687.282a1.07 1.07 0 00-.51-.095c-.287.017-.633-.22-.591-.504.079-.545.544-.916 1.037-.828.494.088.83.6.75 1.145zM4.649 3.2c.01-.1-.113-.222-.33-.327-.263-.127-.624-.214-1.017-.246a3.887 3.887 0 00-.304-.012c-.278 0-.536.032-.746.094-.235.07-.382.17-.392.27-.015.14.253.346.738.472.245.064.474-.122.5-.374.008-.076.084-.131.17-.124.087.006.15.073.142.148-.026.249.165.471.413.448.505-.047.811-.208.826-.35zM2.203 16.831a.773.773 0 00-.06-.002c-.329 0-.61.221-.641.515l-.57 5.501a.518.518 0 00.147.414c.11.116.266.187.437.201.355.028.669-.202.701-.512l.57-5.502a.518.518 0 00-.147-.413.673.673 0 00-.437-.202zm21.043 6.015l-.57-5.502c-.03-.294-.312-.515-.642-.515a.673.673 0 00-.496.203.518.518 0 00-.146.414l.57 5.502c.032.31.345.54.7.512a.673.673 0 00.437-.201.518.518 0 00.147-.413zM20.91 2.953c.086-.007.163.048.17.124.027.252.256.438.5.374.486-.126.753-.331.739-.473-.01-.1-.157-.2-.392-.27a2.703 2.703 0 00-.746-.093c-.1 0-.201.004-.305.012-.393.032-.754.119-1.016.246-.217.105-.34.227-.33.327.015.141.32.302.826.349.248.023.438-.2.413-.448-.008-.075.055-.142.141-.148z" fill="#272727"/><path d="M2.676 4.511c-.068-.01-.13.07-.135.18L1.86 16.613c-.006.109.044.206.113.215l.011.001c.064 0 .118-.077.124-.18l.68-11.923c.007-.109-.043-.205-.112-.215zM22.195 16.83l.011-.002c.068-.01.119-.113.112-.23l-.682-12.842c-.006-.117-.066-.204-.134-.192-.069.01-.119.113-.113.23l.682 12.843c.006.11.06.192.124.192z" fill="#272727"/></svg>