<svg width="25" height="31" fill="none" xmlns="http://www.w3.org/2000/svg"><path d="M5.885 6.226c-.971.114-1.67 1.03-1.558 2.042l.734 6.672c.023.204.078.396.159.572.202.44.504.86.906 1.132a8.54 8.54 0 013.708 7.042v.649c0 .705.547 1.274 1.224 1.274.675 0 1.22-.57 1.22-1.274v-6.5l-.002-.027a1.593 1.593 0 00-.677-1.329l-1.757-1.204a3.363 3.363 0 011.902-6.137h1.338c.55 0 .994-.466.994-1.036 0-.571-.445-1.036-.994-1.036h-3.52c-1.236 0-2.449-.99-3.677-.84zm9.048.946l3.944-4.565a.476.476 0 10-.72-.622L14.888 5.77c-.301.348-.236.876-.016 1.281.021.04.042.08.06.121zm-5.4 5.456c.197.185.508.17.686-.035l1.358-1.562a.476.476 0 00-.718-.625L9.5 11.97a.476.476 0 00.033.659zm14.585 9.027l-.275.068c-.317.077-.499.403-.559.723-.096.511-.466.943-.976 1.074L.431 29.311a.457.457 0 00.233.883l21.85-5.781c1.171-.295 1.887-1.53 1.604-2.758zM6.593 20.277c.257.213.63.167.834-.101a.634.634 0 00-.095-.868l-3.843-3.176a.58.58 0 00-.833.101.636.636 0 00.095.87l3.842 3.174zM5.811 5.695c1.247-.014 2.253-1.09 2.251-2.404 0-1.314-1.019-2.365-2.266-2.352-1.248.01-2.262 1.085-2.255 2.4.004 1.312 1.016 2.365 2.27 2.356z" fill="#272727"/></svg>