<svg width="103" height="95" viewBox="0 0 103 95" fill="none" xmlns="http://www.w3.org/2000/svg">
<path d="M8.72357 30.5888C8.44493 30.2312 8.22623 30.1718 7.96756 29.9136C7.72886 29.7548 7.49013 29.596 7.27141 29.5366C6.83396 29.4177 6.33759 30.0344 6.09939 30.3925C6.01999 30.5118 6.02002 30.5118 6.03999 30.6112C6.05997 30.7106 6.07994 30.81 6.09991 30.9093L4.80656 29.6185L4.58783 29.5591C2.69922 29.4217 2.66072 30.7735 2.80054 31.4691C2.82052 31.5685 2.82051 31.5685 2.84049 31.6679L6.16331 34.8254C6.30263 35.0042 6.54129 35.163 6.68062 35.3418L6.70059 35.4411C7.06012 37.2298 7.61844 38.9786 8.15675 40.6281C8.43589 41.5025 8.71506 42.3768 9.09357 43.2312C9.13352 43.43 9.27282 43.6088 9.33275 43.9069L9.71127 44.7613L10.2691 45.9933C10.4084 46.1721 10.4683 46.4702 10.5877 46.5496L11.1839 46.4297L13.3502 45.8909L14.622 45.5319C15.4964 45.2527 16.3908 45.073 17.2652 44.7938C18.1396 44.5147 19.014 44.2355 19.8684 43.857C20.7228 43.4785 21.6567 42.9806 22.4512 42.304C23.345 41.6074 23.9602 40.5532 24.2374 39.3602C24.5345 38.2666 24.4342 37.2529 24.3338 36.2392C24.153 34.3111 23.6941 32.5424 23.2552 30.873L21.8385 25.3679C22.1561 24.8905 22.3543 24.3337 22.6719 23.8564L23.426 22.4641L24.1206 21.2906C24.1206 21.2906 25.0135 19.5603 25.9263 17.9294C26.8392 16.2984 27.7521 14.6675 27.6727 14.7868C29.2008 12.1017 29.815 10.0139 26.4592 13.8934C25.4465 15.0275 24.2749 16.4003 23.4809 17.5938C22.5876 18.8072 22.0318 19.6427 22.0318 19.6427C21.5554 20.3588 21.1983 21.1542 20.7219 21.8703C20.2855 22.7852 19.7297 23.6206 19.2933 24.5355L18.9751 24.496C18.4583 24.4965 18.0608 24.5764 17.5439 24.5769C17.5439 24.5769 17.0471 24.6768 16.2521 24.8366C15.4571 24.9964 14.4833 25.2955 13.6089 25.5746C11.7608 26.1529 9.97248 27.0293 10.1712 26.9893C8.76051 27.6864 7.68791 28.5224 7.54908 28.8604C7.41025 29.1985 8.2252 29.1381 10.6696 28.44C12.0409 28.061 13.8296 27.7014 15.1415 27.5411C16.4533 27.3808 17.467 27.2805 17.467 27.2805C17.5664 27.2605 17.6658 27.2405 17.7652 27.2206C16.5946 29.627 15.5435 32.1129 14.5917 34.5787C14.3934 35.1355 14.1951 35.6923 13.9969 36.2491L13.6004 37.3627L13.3617 37.2039C12.0089 36.1317 10.6361 34.9602 9.36275 33.7687C9.12306 32.5763 9.00273 31.4631 8.90236 30.4494C8.76353 30.7875 8.74355 30.6881 8.72357 30.5888ZM10.6202 38.9956C10.8788 39.2538 11.1175 39.4126 11.3762 39.6708L11.7542 40.0084L12.4903 40.5841C12.9876 41.0011 13.5644 41.2987 14.0618 41.7157L14.4198 41.9539L14.6585 42.1127L14.7778 42.1921L14.8573 42.0727L15.1944 41.1779L16.225 38.0758C16.6016 36.8629 17.0775 35.6299 17.5733 34.4964C18.2675 32.806 19.061 31.0957 19.8545 29.3853L20.3334 31.2535C20.7923 33.0222 21.2312 34.6916 21.4714 36.401C21.5319 37.2159 21.5922 38.0309 21.5133 38.6671C21.4344 39.3033 21.1368 39.8801 20.6999 40.2781C19.7466 41.1934 18.1172 41.8311 16.4677 42.3694C15.6927 42.6285 14.8183 42.9077 13.9239 43.0875L12.0558 43.5664C11.9564 43.5863 11.9564 43.5863 11.9564 43.5863L11.7971 43.3082C11.7572 43.1094 11.6179 42.9306 11.5779 42.7319C11.3188 41.9569 10.9402 41.1025 10.6611 40.2281C10.5812 39.8306 10.382 39.3537 10.3021 38.9562C10.5008 38.9162 10.5008 38.9162 10.6202 38.9956Z" fill="white"/>
<path d="M10.0554 54.7203C9.97598 54.8397 9.976 54.8397 9.99598 54.939C10.2956 56.4297 10.7146 57.9997 11.1136 59.4703C11.5725 61.2391 12.1308 62.9879 12.689 64.7367L13.6857 67.638L14.1442 68.8899L14.2041 69.188L14.244 69.3868C14.3434 69.3668 14.3434 69.3668 14.4428 69.3468L15.1384 69.207L17.3047 68.6682C19.0735 68.2093 20.7628 67.8697 22.6309 67.3908C23.5053 67.1117 24.3997 66.9319 25.3535 66.5334C26.2079 66.1549 27.1617 65.7564 28.0556 65.0598C28.9495 64.3632 29.6441 63.1897 29.9213 61.9967C30.099 60.8237 30.098 59.79 29.8983 58.7962C29.5982 56.7888 28.9405 55.06 28.2828 53.3312C28.0037 52.4568 27.6252 51.6024 27.2467 50.7479L26.4297 48.741L26.2105 48.1647C26.1905 48.0653 26.0912 48.0853 26.0912 48.0853L25.8924 48.1252L25.5943 48.1851L24.3024 48.4448L23.0105 48.7045L22.3149 48.8443L21.043 49.2034C21.043 49.2034 19.0955 49.8016 17.3866 50.5586C15.5784 51.3356 13.8696 52.0927 14.0683 52.0527C13.0351 52.5705 12.2207 53.1478 11.7637 53.4465C10.7301 53.4475 10.2536 54.1635 10.0554 54.7203ZM14.2886 53.6627C15.7592 53.2637 17.4486 52.9241 18.8198 52.5451C20.2111 52.2655 21.2048 52.0657 21.2048 52.0657L22.4767 51.7067L23.1723 51.5669L23.9673 51.4071L24.4642 51.3072C24.4642 51.3072 24.4642 51.3072 24.4842 51.4066L24.5241 51.6053L24.9226 52.5591L25.381 53.8111C26.0187 55.4405 26.577 57.1893 26.8965 58.7793C27.0563 59.5743 27.1168 60.3892 27.0379 61.0254C26.959 61.6616 26.7607 62.2184 26.2244 62.6364C25.2711 63.5517 23.5223 64.11 21.8529 64.5489C20.1835 64.9879 18.4148 65.4468 16.626 65.8063L15.9304 65.9462L15.1929 63.8198C14.6346 62.071 14.0763 60.3223 13.6373 58.6529C13.2384 57.1822 12.8394 55.7116 12.5397 54.221C12.5198 54.1216 12.4004 54.0422 12.4004 54.0422C12.9967 53.9223 13.593 53.8025 14.2886 53.6627Z" fill="white"/>
<path d="M18.6799 89.3803L19.1393 91.6659C19.1593 91.7653 19.1793 91.8647 19.1993 91.964L19.5174 92.0035L20.233 91.9631L21.5847 92.0015C22.5191 92.0205 23.5527 92.0195 24.4671 91.9391C26.4151 91.8577 28.3432 91.6769 30.4301 91.2575C31.4238 91.0577 32.477 90.6393 33.4902 90.0221C34.5034 89.4048 35.4367 88.3901 35.9126 87.1572C36.3885 85.9243 36.3675 84.7912 36.2672 83.7775C36.1468 82.6644 35.9671 81.77 35.7674 80.7763C35.2685 78.8087 34.7102 77.06 34.0325 75.2318L33.0359 72.3305L32.5774 71.0785L32.3382 70.4029L32.2982 70.2041C32.2982 70.2041 32.1989 70.2241 32.0995 70.2441L31.702 70.324L30.3108 70.6036L29.6152 70.7434L29.2177 70.8233L28.2439 71.1225L27.5682 71.3617C27.0714 71.4615 26.6939 71.6408 26.2964 71.7207C26.2964 71.7207 24.4882 72.4977 22.6999 73.3741C20.9117 74.2505 19.3621 75.2856 19.4615 75.2657C18.0907 76.1615 17.1374 77.0769 17.098 77.395C17.0785 77.8124 17.7541 77.5732 20.1586 76.6764C21.5099 76.198 23.2587 75.6397 24.5106 75.1813C25.8818 74.8023 26.8556 74.5032 26.8556 74.5032C27.2332 74.3239 27.73 74.224 28.1075 74.0448L28.6839 73.8255L28.982 73.7656L29.4788 73.6658L30.1745 73.5259L30.4726 73.466L31.1901 75.4929C31.7684 77.3411 32.446 79.1693 32.9049 80.9381C33.1841 81.8125 33.3638 82.7068 33.4442 83.6212C33.5047 84.4361 33.5651 85.2511 33.3868 85.9073C33.2085 86.5634 32.891 87.0408 32.2553 87.4788C31.7189 87.8968 30.8446 88.1759 30.0695 88.4351C28.4002 88.874 26.4721 89.0548 24.6234 89.1162C23.7091 89.1966 22.7748 89.1776 21.7411 89.1786L21.423 89.1391L21.3431 88.7416L20.0058 83.1172C19.7062 81.6266 19.4065 80.136 19.2263 78.7248C19.2063 78.6254 19.087 78.546 19.087 78.546C18.4503 77.9503 17.8935 77.752 17.4166 77.9513C16.9197 78.0511 16.7015 78.5086 16.4633 78.8666C16.3839 78.986 16.3839 78.986 16.4038 79.0853C16.5247 80.7153 16.8443 82.3053 17.2433 83.7759L18.6799 89.3803Z" fill="white"/>
<path d="M34.661 27.9599C33.886 28.2191 33.2304 28.5577 32.4753 28.9162C32.3759 28.9362 32.2965 29.0556 32.3165 29.1549C31.4036 30.7859 32.6566 31.3611 33.4121 31.5194C33.5115 31.4995 33.5115 31.4995 33.6109 31.4795C34.2865 31.2403 34.9422 30.9017 35.7172 30.6425L37.8235 29.8056C44.7787 27.3737 51.9332 25.4187 59.1276 23.6625L69.9589 20.9684L78.4252 18.8532C78.4252 18.8532 80.2734 18.2749 82.1016 17.5973C83.9298 16.9196 85.6786 16.3613 85.4798 16.4013C88.4406 15.1858 90.0695 14.0313 85.1802 14.9107C82.2584 15.2912 78.0847 16.1301 78.0847 16.1301L69.8171 18.2054L58.787 20.9394C51.4139 22.835 44.1401 24.7106 36.9067 27.3018L34.661 27.9599Z" fill="white"/>
<path d="M82.2384 37.8338C79.3166 38.2143 75.1228 38.9539 75.1228 38.9539L72.6585 39.5526C63.6159 41.8871 54.5534 44.1222 45.3715 46.2779L40.9396 47.3755C40.8402 47.3955 40.7608 47.5149 40.7608 47.5149C39.6093 48.987 40.7034 49.801 41.3795 50.0786C41.4988 50.158 41.4989 50.158 41.5982 50.138L46.0301 49.0405L61.3133 45.3482L68.8852 43.4127L75.4634 41.6769C75.4634 41.6769 77.3116 41.0987 79.1398 40.421C80.9879 39.8428 82.7168 39.1851 82.518 39.225C85.5187 38.2083 87.267 37.1332 82.2384 37.8338Z" fill="white"/>
<path d="M96.3164 60.5415C93.3746 60.8226 89.1609 61.4628 89.1609 61.4628L70.9759 65.6349C64.1591 67.2119 57.2627 68.9082 50.4658 70.5845L45.9346 71.7021C45.8352 71.7221 45.7558 71.8415 45.7558 71.8415C44.6242 73.413 45.7977 74.1076 46.4739 74.3852C46.5932 74.4646 46.5932 74.4646 46.6926 74.4446L51.1045 73.2477C57.7821 71.4919 64.4996 69.935 71.2171 68.378L89.4021 64.2058C89.4021 64.2058 96.8147 61.9921 96.5166 62.052C99.5173 61.0353 101.266 59.9602 96.3164 60.5415Z" fill="white"/>
<path d="M64.0817 28.7668C61.1399 29.0479 56.9062 29.5887 56.9062 29.5887L54.4219 30.0881C49.95 30.9869 45.4187 32.1045 40.9873 33.7189C39.5367 34.2173 38.0066 34.835 36.5959 35.5321C36.4965 35.5521 36.4171 35.6714 36.4371 35.7708C35.6436 37.4811 36.8765 37.957 37.6321 38.1153C37.7315 38.0954 37.7315 38.0954 37.8308 38.0754C39.1422 37.3983 40.5928 36.8999 41.9242 36.3221C46.0574 34.7676 50.5093 33.7694 54.9811 32.8706L57.1674 32.4311C57.1674 32.4311 59.0355 31.9522 60.8837 31.374C62.7518 30.8951 64.5006 30.3368 64.4013 30.3568C67.2627 29.1613 69.0109 28.0862 64.0817 28.7668Z" fill="white"/>
<path d="M91.0545 68.319C88.0927 68.5008 83.8591 69.0416 83.8591 69.0416L77.1217 70.4992C74.4385 71.0385 71.7754 71.6772 69.0129 72.3358C63.6866 73.6132 58.281 75.0099 53.0346 76.6848C51.5839 77.1831 50.1133 77.5821 48.6626 78.0805C48.5633 78.1005 48.4838 78.2198 48.4838 78.2198C47.4716 79.8707 48.6251 80.466 49.3807 80.6243C49.5 80.7037 49.5 80.7037 49.5794 80.5843C51.0301 80.0859 52.4808 79.5876 53.9514 79.1886C59.1184 77.6331 64.3053 76.177 69.5322 74.9196C72.1954 74.2809 74.7591 73.6622 77.4422 73.1229L84.1797 71.6652C84.1797 71.6652 86.0478 71.1864 87.896 70.6081C89.7641 70.1292 91.5129 69.5709 91.3142 69.6109C94.176 68.9322 96.0437 67.9365 91.0545 68.319Z" fill="white"/>
<path d="M79.7044 45.7879C76.7426 45.9697 72.509 46.5105 72.509 46.5105L70.0246 47.0099C62.8896 48.5474 55.6553 50.1049 48.8 53.0336C48.025 53.2928 47.3892 53.7308 46.6342 54.0893C45.8791 54.4479 45.2235 54.7864 44.5878 55.2243C44.4884 55.2443 44.409 55.3637 44.429 55.4631C43.7548 57.2528 45.0671 57.6093 45.8027 57.6683C45.9021 57.6483 45.9021 57.6483 46.0015 57.6283C46.6571 57.2898 47.2929 56.8518 47.9685 56.6126C48.6242 56.274 49.2798 55.9355 49.9555 55.6963C56.4133 52.8474 63.5483 51.3099 70.5839 49.7924L72.7701 49.3529C72.7701 49.3529 74.6383 48.874 76.5064 48.3951C78.3745 47.9162 80.1234 47.358 80.024 47.3779C82.9253 46.3812 84.6736 45.3061 79.7044 45.7879Z" fill="white"/>
</svg>
