<svg width="117" height="155" viewBox="0 0 117 155" fill="none" xmlns="http://www.w3.org/2000/svg">
<path d="M3.33203 142.89V151.973H82.1719L113.662 120.483V36.3287M113.662 12.11V3.02734H3.33203V118.671" stroke="white" stroke-width="6.05469" stroke-miterlimit="22.926" stroke-linecap="round" stroke-linejoin="round"/>
<path d="M82.1719 151.973V120.483H113.662L82.1719 151.973Z" stroke="white" stroke-width="6.05469" stroke-miterlimit="22.926" stroke-linecap="round" stroke-linejoin="round"/>
<path d="M26.9258 52.7767L44.8894 34.8128M72.0971 52.7767L90.061 34.8128M44.8894 52.7767L26.9258 34.8128M90.061 52.7767L72.0971 34.8128M90.061 91.1226C82.2263 84.8099 70.9836 80.8538 58.4931 80.8538C46.0032 80.8538 34.7605 84.8099 26.9258 91.1223" stroke="white" stroke-width="6.05469" stroke-miterlimit="22.926" stroke-linecap="round" stroke-linejoin="round"/>
<path fill-rule="evenodd" clip-rule="evenodd" d="M3.33203 133.808C4.99949 133.808 6.35937 132.448 6.35937 130.781C6.35937 129.113 4.99949 127.753 3.33203 127.753C1.66457 127.753 0.304688 129.113 0.304688 130.781C0.304688 132.448 1.66457 133.808 3.33203 133.808Z" fill="white"/>
<path fill-rule="evenodd" clip-rule="evenodd" d="M113.664 27.2466C115.332 27.2466 116.692 25.8867 116.692 24.2192C116.692 22.5518 115.332 21.1919 113.664 21.1919C111.997 21.1919 110.637 22.5518 110.637 24.2192C110.637 25.8867 111.997 27.2466 113.664 27.2466Z" fill="white"/>
</svg>
