<svg width="217" height="196" viewBox="0 0 217 196" fill="none" xmlns="http://www.w3.org/2000/svg">
<g clip-path="url(#clip0_2644_25914)">
<path d="M98.1592 125.743C105.831 80.5922 116.591 37.3725 130.841 -6.18292L122.65 -3.49745C136.681 35.3269 152.178 72.7894 172.073 109.007C174.982 107.674 177.891 106.34 180.822 104.999C148.798 87.8058 116.774 70.6129 84.7869 53.3812L78.7123 58.3661C110.163 54.4882 141.328 49.1494 172.327 42.6148C170.957 41.9973 169.61 41.3719 168.24 40.7544C143.256 70.792 114.422 97.3236 89.4456 127.384C86.8206 130.537 97.7572 128.522 99.8585 125.988C124.455 96.0108 152.892 69.5168 177.458 39.5246C179.513 37.0073 174.131 37.4983 173.371 37.6642C143.195 44.1387 112.773 49.1897 82.1623 53.0529C81.1566 53.1773 73.2824 56.5444 76.0877 58.0378C108.24 75.1597 140.371 92.2896 172.494 109.473C174.197 110.383 182.757 108.233 181.243 105.465C161.35 69.3997 145.226 31.9022 130.871 -6.67972C129.861 -9.3955 123.259 -5.76046 122.679 -3.99425C108.798 38.8676 95.5358 82.6119 91.1221 127.637C90.8889 130.023 97.8684 127.894 98.2355 125.742L98.1592 125.743Z" fill="white"/>
<path d="M165.99 10.139C170.794 4.52733 174.544 -1.96695 178.76 -8.01124C183.192 -14.3876 188.142 -20.3836 192.542 -26.7747C194.136 -29.0778 187.691 -27.3925 186.799 -26.4378C177.15 -15.8397 166.69 -2.67738 160.75 10.4519C159.61 12.9532 165.272 11.0067 166.013 10.131L165.99 10.139Z" fill="white"/>
<path d="M184.552 71.5304C198.71 76.4676 213.185 82.9568 227.649 86.6594C229.061 87.0318 235.355 84.1198 233.421 83.1381C219.854 76.1749 203.398 72.5605 188.715 68.6022C187.327 68.2218 182.363 70.7669 184.552 71.5304Z" fill="white"/>
<path d="M133.322 120.045C133.011 135.924 133.388 153.608 136.166 169.242C136.479 171.001 142.267 168.83 142.338 167.218C143.228 151.314 141.792 133.747 139.631 117.973C139.387 116.267 133.353 118.319 133.322 120.045Z" fill="white"/>
<path d="M98.5291 20.7082C89.0025 9.01703 79.571 -3.34769 69.2249 -14.3145C68.1122 -15.5091 62.4811 -13.1126 63.3848 -11.6395C71.1852 1.32632 81.6049 13.8799 93.3091 23.4716C94.5717 24.5109 99.8707 22.334 98.5211 20.6854L98.5291 20.7082Z" fill="white"/>
<path d="M40.0022 108.556C53.2226 99.5911 66.2875 90.9109 80.1198 82.8816C84.0275 80.6069 80.0598 79.8821 77.5302 81.0562C62.5049 88.0985 48.5426 97.428 35.8243 108.034C33.3709 110.077 39.0058 109.215 40.0022 108.556Z" fill="white"/>
</g>
<defs>
<clipPath id="clip0_2644_25914">
<rect width="195.686" height="197.617" fill="white" transform="translate(0 9.11133) rotate(-19.4348)"/>
</clipPath>
</defs>
</svg>
