<svg width="125" height="90" viewBox="0 0 125 90" fill="none" xmlns="http://www.w3.org/2000/svg">
<g clip-path="url(#clip0_2644_25946)">
<path d="M8.02363 60.1145C11.3789 68.4643 16.8061 76.1921 21.3272 83.9804C22.0947 85.3054 26.5418 83.7226 26.4599 82.2922C25.8744 71.5876 25.2404 60.9002 24.5779 50.2091C22.8548 50.7762 21.1439 51.3389 19.4209 51.906C25.8789 61.3568 30.0594 71.7749 34.1137 82.4149C34.7107 83.9909 39.2034 81.9966 39.3676 80.6838C41.5402 63.2232 43.7328 45.7419 45.4816 28.2398C45.633 26.6588 40.9341 28.0304 40.7278 29.4943C38.2385 46.9849 36.165 64.5333 34.0916 82.0817C35.8389 81.5061 37.5983 80.9262 39.3455 80.3506C35.2228 69.7485 30.9409 59.3525 24.5558 49.876C23.7204 48.6295 19.3198 50.0731 19.3988 51.5728C19.9965 62.2731 20.6304 72.9605 21.3051 83.6473C23.016 83.0845 24.7269 82.5218 26.4378 81.959C21.8147 74.1521 17.6553 65.6496 11.9991 58.5482C11.2379 57.5892 7.53004 58.8702 8.02363 60.1145Z" fill="white"/>
<path d="M52.5176 41.9595C51.018 49.0353 49.9477 65.3295 58.65 68.6557C65.4931 71.2739 69.1672 65.0266 70.1552 59.3998C71.3658 52.5487 72.5279 38.2542 62.8265 37.3537C57.3259 36.8395 49.7951 41.6653 52.3715 47.8076C52.9193 49.1282 56.7307 47.4834 56.8449 46.3383C57.2684 42.1654 61.8447 38.9004 64.4248 43.8548C65.3128 45.56 65.4896 47.7617 65.697 49.6252C66.1133 53.4336 66.5979 59.9866 64.7754 63.4802C61.1498 70.406 57.3981 59.3865 56.6421 56.3935C55.3583 51.3636 55.2761 46.1826 55.9678 41.0694C56.1228 39.9236 52.736 40.955 52.514 41.988L52.5176 41.9595Z" fill="white"/>
<path d="M66.6775 22.3302C71.0563 33.8513 76.8492 44.8189 81.2608 56.3557C81.8492 57.9075 86.4768 55.9473 86.3029 54.372C85.1488 43.2543 83.8364 32.1516 82.6702 21.0382C81.0057 21.6937 79.3411 22.3492 77.6766 23.0047C83.0721 34.508 88.4675 46.0114 93.8672 57.5269C94.5434 58.9795 99.1945 57.202 99.1333 55.7915C98.3745 36.5556 101.933 19.6972 106.218 1.1502C106.577 -0.422194 101.982 1.08989 101.544 2.0901C94.0448 18.9888 93.0106 38.9801 93.8451 57.1937C95.6046 56.6138 97.364 56.0339 99.1112 55.4583C93.6309 43.985 88.1505 32.5116 82.6702 21.0382C81.944 19.5213 77.507 21.4415 77.6766 23.0047C78.9241 34.1167 80.0133 45.2437 81.2608 56.3557C82.9374 55.6959 84.6262 55.0318 86.3029 54.372C81.8328 42.9786 76.834 31.3626 70.7985 20.7125C70.1437 19.5524 66.2003 21.0937 66.6775 22.3302Z" fill="white"/>
</g>
<defs>
<clipPath id="clip0_2644_25946">
<rect width="112.322" height="54.9585" fill="white" transform="translate(0 37.373) rotate(-19.4348)"/>
</clipPath>
</defs>
</svg>
