<svg width="78" height="78" viewBox="0 0 78 78" fill="none" xmlns="http://www.w3.org/2000/svg">
<g clip-path="url(#clip0_6130_19618)">
<path d="M77.9958 38.9982C77.9958 60.4372 60.4468 77.9657 38.9941 77.9863C28.6646 77.9917 18.7554 73.8964 11.4436 66.6C4.13185 59.3036 0.0156017 49.4031 -0.000732422 39.0736C-0.000732422 17.549 17.5586 -0.0171696 39.0832 -4.85304e-05C49.4141 0.0135659 59.3168 4.12941 66.6138 11.4425C73.9109 18.7556 78.0049 28.6673 77.9958 38.9982ZM15.5041 67.3267C28.6359 78.969 52.2492 79.9278 66.7953 63.3204C81.2728 46.7917 77.0336 23.9728 65.1448 13.1352L15.5041 67.3267ZM19.9556 19.1447L23.3798 16.5252C23.0031 15.5904 22.6299 14.7583 22.3354 13.8988C21.993 12.9332 22.1196 12.0189 23.1949 11.632C24.2221 11.2656 24.9515 11.7176 25.3624 12.7243C25.7219 13.6009 26.1191 14.4604 26.465 15.2514L30.7384 14.5152C30.7897 13.6009 30.6425 12.625 30.9472 11.8203C31.1938 11.1663 31.9095 10.3719 32.5429 10.2418C33.6318 10.0192 34.1283 10.9266 34.166 11.9539C34.1968 12.9092 34.166 13.8646 34.166 14.8234L37.9943 16.015C38.5387 15.111 39.0387 14.3029 39.542 13.4605C40.1036 12.536 40.8329 11.9265 41.939 12.5771C43.045 13.2277 42.9662 14.1214 42.3773 15.087C41.8568 15.9533 41.35 16.8197 41.0795 17.2614L43.8771 20.4767C44.7297 19.7919 45.62 19.0865 46.5 18.3743C47.38 17.662 48.284 17.4258 49.0476 18.3982C49.8112 19.3707 49.4448 20.2028 48.558 20.9116C47.5307 21.7231 46.5411 22.5518 45.4351 23.4558C46.4418 25.072 47.3903 26.5958 48.4552 28.3113L63.7238 11.6423C50.2974 -1.03073 26.5951 -2.09223 11.7888 14.0015C-2.88733 29.9549 -0.110299 53.5888 13.9187 66.005C17.7287 61.8434 21.5398 57.6807 25.3521 53.5169C25.5747 53.2738 25.7767 53.0101 26.0369 52.6848L23.1024 49.3188C22.308 50.1988 21.7704 51.1097 20.9725 51.5719C20.3904 51.9143 19.4659 51.6541 18.692 51.661C18.6524 50.8958 18.673 50.1287 18.7537 49.3668C18.8084 49.0415 19.2673 48.7812 19.5446 48.4936C21.3424 46.6513 21.3458 46.6514 20.0172 44.4873C19.8557 44.2556 19.6819 44.0327 19.4967 43.8195C18.4489 44.3469 17.473 44.8057 16.5279 45.3227C15.5007 45.8946 14.3981 46.2439 13.7235 44.9803C13.0489 43.7168 13.8776 42.9772 14.9768 42.4464C16.004 41.9568 16.9902 41.4192 18.0585 40.8542C17.5346 39.6214 17.0552 38.4846 16.5279 37.2416C15.2952 37.4779 14.131 37.7142 12.9667 37.9265C11.8676 38.1216 10.9739 37.8203 10.765 36.6218C10.5766 35.5158 11.2615 34.944 12.2853 34.7317C13.3092 34.5194 14.3638 34.3002 15.4116 34.0845C15.3192 32.3724 15.237 30.8486 15.1514 29.2153C14.0899 28.9687 13.0489 28.7119 12.0045 28.4825C10.9602 28.2531 10.3609 27.6333 10.5629 26.541C10.765 25.4487 11.6347 25.1439 12.6483 25.3185C13.6619 25.4932 14.7439 25.7363 15.7814 25.9486L17.8017 21.6752L15.7643 19.7919C14.9973 19.0762 14.6994 18.2475 15.4561 17.3949C16.2643 16.4738 17.1682 16.6724 17.9935 17.436C18.6372 18.001 19.2844 18.5592 19.959 19.155L19.9556 19.1447ZM46.9417 29.9344C45.7706 27.9449 44.6509 26.1677 43.6476 24.3187C40.0317 17.6791 32.4299 14.9227 25.6842 17.8401C18.8838 20.7815 15.6342 28.3798 18.151 35.5295C19.7979 40.2766 22.2285 44.7141 25.3418 48.6579C26.0027 49.49 26.7389 50.2639 27.5162 51.1507L30.8069 47.5314C29.1632 45.1344 27.4922 43.032 26.1808 40.7172C24.8675 38.3871 23.7497 35.9521 22.8387 33.4373C21.089 28.6434 23.4825 23.74 28.1805 22.1066C32.3615 20.6548 36.6383 22.4491 38.912 26.4759C40.2816 28.9174 41.8294 31.2698 43.3908 33.8208C44.7845 32.3108 45.846 31.1226 46.9451 29.9446L46.9417 29.9344ZM41.9321 35.4131C40.1481 32.4683 38.4771 29.7015 36.7958 26.9416C35.9789 25.5522 34.6852 24.5068 33.1553 23.9998C31.6254 23.4927 29.9634 23.5586 28.4784 24.1851C25.3179 25.4932 23.5852 28.866 24.5988 32.1601C26.1717 37.2291 28.8221 41.8979 32.3683 45.8467L41.9321 35.4131Z" fill="#4F4F4F"/>
<path d="M49.7668 33.0026L51.1536 31.4412C52.311 32.3349 53.4444 33.1738 54.5299 34.0641C55.2592 34.6634 55.879 34.6839 56.6426 34.0847C57.5843 33.3519 58.6047 32.715 59.6148 32.0781C60.4948 31.5199 61.3954 31.4891 62.0117 32.4205C62.6281 33.3519 62.2788 34.1668 61.4159 34.7695C60.4435 35.4543 59.4504 36.1049 58.4232 36.7966C59.3032 38.0978 60.0668 39.3545 60.9742 40.5016C61.1628 40.6693 61.3849 40.7948 61.6258 40.8698C61.8667 40.9448 62.1209 40.9675 62.3713 40.9365C63.265 40.8201 64.1416 40.2859 65.0079 40.3236C65.6346 40.3509 66.6105 40.916 66.744 41.4227C66.8775 41.9295 66.3502 42.967 65.8229 43.2718C64.8675 43.8197 63.7033 43.9943 62.563 44.347C62.7034 45.9632 62.837 47.4836 62.9876 49.1854C63.9498 49.4354 64.9771 49.7059 66.0078 49.9661C67.1035 50.2435 67.7541 50.8872 67.4494 52.0617C67.1652 53.1609 66.3262 53.38 65.299 53.1369C64.3642 52.9144 63.4259 52.7192 62.498 52.5172C61.6454 54.2498 60.827 55.9208 59.9504 57.7048C60.666 58.2493 61.5871 58.7115 62.1419 59.4477C62.5562 60.0059 62.8267 61.0537 62.5836 61.6324C62.1521 62.6357 61.1215 62.574 60.2517 61.9954C59.382 61.4167 58.5944 60.7969 57.7692 60.1908L52.3247 63.4575C52.5609 64.3341 52.8041 65.3682 53.1225 66.3749C53.4821 67.5118 53.1225 68.4979 52.0336 68.6109C51.407 68.6726 50.4482 67.9261 50.0613 67.2892C49.5237 66.3955 49.3764 65.2655 49.0717 64.2314C47.4212 64.1458 45.8427 64.0191 44.2778 64.0225C44.0551 64.0548 43.8424 64.1368 43.6557 64.2625C43.469 64.3882 43.313 64.5542 43.1992 64.7484C42.8293 65.5052 42.8122 66.4845 42.326 67.1283C41.9356 67.6487 40.9734 68.1726 40.4427 68.0288C39.9119 67.885 39.3435 66.8714 39.3777 66.2756C39.4462 65.173 39.9462 64.0944 40.3091 62.8685L36.1179 60.725C35.6248 61.355 35.1523 61.9714 34.6695 62.5809C33.8785 63.5739 33.1834 65.1525 31.5877 64.0499C29.992 62.9473 31.2453 61.7659 31.978 60.7216C32.3684 60.16 32.7759 59.6155 33.2381 58.9786L29.0229 55.6126L30.1221 54.4176C33.7381 56.568 37.0733 58.8691 40.6755 60.6188C47.5924 63.9814 55.3722 61.468 59.0087 54.9997C62.6452 48.5314 60.6729 40.731 54.3004 36.3686C52.8143 35.3448 51.3899 34.2045 49.7668 33.0026Z" fill="#4F4F4F"/>
<path d="M44.6885 38.2381C45.4452 37.5533 45.8562 37.1664 46.2123 36.8445C48.438 38.4778 50.5918 39.9674 52.6429 41.5904C54.2128 42.856 55.2958 44.6263 55.7079 46.6002C56.1199 48.5741 55.8354 50.6299 54.9029 52.4178C52.9956 56.1056 48.7393 58.0608 44.7775 56.8179C40.7027 55.5406 37.2443 53.154 33.957 50.329L34.5323 49.562C34.7069 49.336 34.8747 49.1134 35.111 48.8189C36.7854 50.0003 38.3024 51.1816 39.9289 52.1849C41.3805 53.0921 42.9009 53.8844 44.4762 54.5545C46.0103 55.2219 47.7393 55.2882 49.32 54.7402C50.9007 54.1921 52.2176 53.0698 53.0093 51.5959C54.6427 48.5998 53.814 45.0112 50.9993 42.9122C48.9927 41.4192 46.9861 39.94 44.6885 38.2381Z" fill="#4F4F4F"/>
<path d="M51.0781 47.9971C51.0847 48.9154 50.8041 49.8128 50.2754 50.5637C49.7468 51.3146 48.9966 51.8815 48.1299 52.1849C47.2582 52.4709 46.3212 52.4914 45.4378 52.2439C44.5544 51.9964 43.7644 51.492 43.1682 50.7947C42.6234 50.1828 41.9799 49.6666 41.2644 49.2675C39.6961 48.4012 38.9804 46.6788 39.6447 45.0694C40.3296 43.3779 42.1204 42.6725 43.8976 43.234C44.6179 43.4756 45.3795 43.5699 46.137 43.5114C46.763 43.4486 47.3952 43.5179 47.9926 43.715C48.5901 43.912 49.1395 44.2323 49.6053 44.6552C50.0711 45.0781 50.4429 45.5941 50.6966 46.1697C50.9504 46.7454 51.0803 47.368 51.0781 47.9971ZM49.2393 48.634C49.2154 46.3467 47.6745 45.066 46.0754 45.5522C45.0173 45.8673 44.1989 46.0693 43.336 45.1756C43.11 44.9393 42.2608 44.9701 41.9835 45.2098C41.7959 45.3948 41.6508 45.6183 41.558 45.8648C41.4651 46.1113 41.4269 46.375 41.4458 46.6377C41.5205 46.8638 41.652 47.0669 41.8277 47.2276C42.0033 47.3883 42.2173 47.5011 42.4491 47.5554C43.5689 47.5554 43.9832 48.1101 44.3804 49.0552C44.8974 50.2845 46.0411 50.9522 47.2841 50.4009C48.171 49.9969 48.8182 49.0312 49.2393 48.634Z" fill="#4F4F4F"/>
<path d="M30.9335 34.2626C30.392 34.2673 29.855 34.1634 29.3543 33.9569C28.8537 33.7505 28.3995 33.4458 28.0186 33.0608C27.6378 32.6757 27.338 32.2183 27.137 31.7154C26.936 31.2125 26.8379 30.6745 26.8484 30.133C26.8673 29.0683 27.2955 28.0517 28.044 27.2942C28.7925 26.5368 29.804 26.0966 30.8685 26.0651C31.4106 26.0583 31.9488 26.1589 32.4519 26.3611C32.9551 26.5632 33.4132 26.863 33.8 27.2431C34.1867 27.6231 34.4944 28.076 34.7053 28.5755C34.9162 29.075 35.0262 29.6114 35.0289 30.1536C35.0395 30.695 34.941 31.2329 34.7391 31.7354C34.5372 32.2378 34.2362 32.6945 33.854 33.078C33.4717 33.4615 33.0161 33.7641 32.5143 33.9676C32.0126 34.1711 31.4749 34.2715 30.9335 34.2626ZM33.1764 30.2324C33.0325 28.9791 32.4333 28.1265 31.0807 28.0203C30.7851 27.9928 30.487 28.027 30.2053 28.1205C29.9236 28.2141 29.6643 28.3651 29.4439 28.564C29.2234 28.7628 29.0466 29.0053 28.9247 29.2759C28.8027 29.5466 28.7382 29.8396 28.7352 30.1365C28.7078 31.3589 29.7624 32.4957 30.9677 32.4067C32.2621 32.3143 32.9915 31.5438 33.1764 30.2324Z" fill="#4F4F4F"/>
</g>
<defs>
<clipPath id="clip0_6130_19618">
<rect width="78" height="78" fill="white" transform="translate(-0.000732422)"/>
</clipPath>
</defs>
</svg>
