<svg width="73" height="64" viewBox="0 0 73 64" fill="none" xmlns="http://www.w3.org/2000/svg">
<g clip-path="url(#clip0_6130_19636)">
<path d="M36.6553 63.5417C27.3794 63.5417 18.1034 63.5417 8.82746 63.5417C3.41132 63.5417 0.687744 60.8821 0.687744 55.618V8.33561C0.687744 3.25643 3.45361 0.552686 8.68085 0.549927C27.3737 0.549927 46.0666 0.549927 64.7595 0.549927C69.9021 0.549927 72.6849 3.27574 72.6849 8.27491C72.6849 24.1277 72.6849 39.9805 72.6849 55.8332C72.6849 60.8214 69.9021 63.5444 64.7651 63.5582C55.3933 63.5564 46.0234 63.5509 36.6553 63.5417ZM36.6553 3.30885C27.2891 3.30885 17.9211 3.30885 8.55116 3.30885C5.04378 3.30885 3.50155 4.83178 3.50155 8.25284C3.50155 24.0596 3.50155 39.8655 3.50155 55.6705C3.50155 59.3012 4.98175 60.7745 8.66957 60.7745C27.3606 60.7745 46.0516 60.7745 64.7426 60.7745C68.3402 60.7745 69.8627 59.2736 69.8627 55.7587V8.48459C69.8627 4.7628 68.3994 3.31161 64.6213 3.31161L36.6553 3.30885Z" fill="#4F4F4F"/>
<path d="M10.3189 9.911V28.9117C10.4609 28.966 10.6083 29.0058 10.7587 29.0303C13.8404 29.1379 13.8375 29.1352 15.1204 26.3597C15.814 24.8588 16.5076 23.358 17.2124 21.8626C17.5761 21.0874 17.7763 20.1328 18.952 20.1632C20.2236 20.1935 20.3222 21.2667 20.6127 22.0944C21.7968 25.4658 22.9471 28.851 24.2103 32.5314C24.4725 31.8113 24.7234 31.3754 24.7741 30.9147C24.9715 29.3531 25.8794 28.8593 27.4019 28.9834C28.6114 29.08 29.8322 29.0027 31.1855 29.0027C31.5041 27.9985 31.8284 27.0136 32.1244 26.0231C33.1789 22.4641 34.2268 18.9023 35.2681 15.3378C35.5106 14.5101 35.7925 13.6824 36.8498 13.699C37.9071 13.7155 38.1636 14.5487 38.361 15.3957C39.6636 20.9724 40.9746 26.5473 42.2941 32.1203C42.3787 32.4707 42.4887 32.8156 42.6719 33.4639C43.2358 32.181 43.7264 31.1768 44.107 30.1339C44.4877 29.091 45.1925 28.5255 46.3344 28.7241C48.3757 29.0772 49.6867 28.313 50.4592 26.448C50.7806 25.6833 51.223 24.9729 51.7703 24.3429C52.1537 23.9043 52.8134 23.3745 53.2871 23.427C53.7608 23.4794 54.3811 24.1222 54.5756 24.6354C55.3284 26.6052 55.9374 28.6275 56.6028 30.6278C56.7156 30.9726 56.8537 31.3092 56.9608 31.5989C57.6601 30.5422 58.1253 29.1159 59.1036 28.5641C60.1243 27.9985 61.6411 28.2882 63.0255 28.2109V9.911H61.3733C55.6103 9.911 49.8465 9.911 44.0817 9.911C43.5685 9.911 42.968 9.98548 42.5704 9.75649C42.1729 9.5275 41.7049 8.95916 41.702 8.53705C41.6992 8.11493 42.1532 7.55211 42.5648 7.31485C42.9764 7.07758 43.5629 7.16035 44.0732 7.16035C50.541 7.16035 57.0088 7.16035 63.4766 7.16035C65.6616 7.16035 65.9323 7.43624 65.9323 9.51095V43.603C65.9323 45.6391 65.6504 45.937 63.6006 45.937C45.6521 45.937 27.7017 45.937 9.74936 45.937C7.71654 45.937 7.42896 45.6363 7.42896 43.5919V9.49164C7.42896 7.44728 7.7109 7.15207 9.75218 7.15207C16.3121 7.15207 22.8729 7.15207 29.4347 7.15207C29.8548 7.15207 30.3792 7.06102 30.6696 7.26518C31.1066 7.57418 31.6507 8.10666 31.6479 8.53981C31.6451 8.97296 31.084 9.51647 30.647 9.79512C30.3002 10.0076 29.7364 9.90547 29.2711 9.90823H10.3104L10.3189 9.911ZM52.8106 28.1778C52.5597 28.4537 52.399 28.5641 52.3398 28.7103C51.4517 30.9174 49.8728 31.8775 47.4171 31.5051C47.0759 31.4527 46.4528 31.9603 46.2695 32.3466C45.3504 34.2999 44.5525 36.3056 43.67 38.2755C43.1484 39.4425 42.0911 39.815 41.3722 39.0535C41.0066 38.5876 40.7636 38.0409 40.6645 37.4616C39.4832 32.5149 38.3385 27.5598 37.1769 22.6076C37.0584 22.1082 36.8949 21.6226 36.613 20.7343C35.6064 24.1498 34.7014 27.1294 33.8584 30.1146C33.5341 31.2623 32.9026 31.8031 31.6536 31.7479C30.2636 31.6844 28.868 31.7341 27.478 31.7341C26.9141 33.7784 26.4545 35.7014 25.8061 37.5582C25.6256 38.0796 24.9095 38.6866 24.3963 38.7445C23.9819 38.7859 23.3109 38.1265 23.0543 37.6409C22.5975 36.7526 22.3692 35.7483 22.0393 34.7965C20.982 31.7424 19.9191 28.6882 18.7405 25.292C17.8806 27.135 17.1053 28.6303 16.485 30.1863C16.0085 31.3809 15.298 31.9355 13.9475 31.8224C12.7577 31.7203 11.5538 31.8003 10.3555 31.8003V43.1119H63.0339V31.1823C60.6036 30.8733 60.6064 30.8733 59.7126 32.868C59.301 33.7895 58.8668 34.7054 58.4721 35.6269C58.1394 36.4077 57.7644 37.3954 56.7804 37.1195C56.1517 36.9429 55.5314 36.107 55.272 35.431C54.3839 33.1025 53.6536 30.7078 52.8106 28.1778Z" fill="#4F4F4F"/>
<path d="M49.0776 48.9747C50.262 48.9768 51.3976 49.4367 52.2371 50.2541C53.0767 51.0715 53.5524 52.1804 53.5605 53.3393C53.5633 53.9258 53.4461 54.5069 53.2157 55.0484C52.9854 55.5899 52.6466 56.0808 52.2194 56.4922C51.7922 56.9036 51.2851 57.2271 50.7281 57.4438C50.1711 57.6604 49.5754 57.7657 48.9761 57.7536C47.7913 57.7347 46.6623 57.2578 45.8356 56.4271C45.0089 55.5965 44.5516 54.4794 44.5637 53.32C44.5764 52.1589 45.0583 51.05 45.9042 50.2357C46.7501 49.4215 47.8911 48.9681 49.0776 48.9747ZM49.0184 54.9753C50.0588 54.9008 50.7101 54.3711 50.7101 53.3586C50.7269 53.1518 50.6989 52.9439 50.6279 52.7485C50.5569 52.5531 50.4445 52.3745 50.2981 52.2245C50.1518 52.0745 49.9747 51.9564 49.7784 51.878C49.5822 51.7996 49.3713 51.7626 49.1594 51.7695C48.1218 51.7198 47.4536 52.2826 47.4057 53.2924C47.3578 54.3022 48.0034 54.8512 49.0184 54.9753Z" fill="#4F4F4F"/>
<path d="M65.9323 53.4137C65.9152 54.5711 65.4316 55.6751 64.5867 56.4853C63.7418 57.2955 62.6041 57.7463 61.4212 57.7397C60.8226 57.738 60.2303 57.6193 59.6793 57.3903C59.1284 57.1614 58.6297 56.8269 58.2128 56.4066C57.7959 55.9863 57.4691 55.4886 57.2517 54.9429C57.0342 54.3972 56.9305 53.8144 56.9467 53.2288C56.9836 52.0704 57.4866 50.9731 58.3463 50.1758C59.2059 49.3785 60.3526 48.9458 61.5368 48.9718C62.7198 48.9957 63.8454 49.4759 64.6685 50.3077C65.4917 51.1395 65.9459 52.2558 65.9323 53.4137ZM61.5086 54.978C62.4587 54.8483 63.1156 54.3324 63.0874 53.3088C63.0977 53.102 63.0634 52.8953 62.9865 52.7024C62.9097 52.5094 62.7922 52.3344 62.6416 52.1889C62.491 52.0434 62.3108 51.9305 62.1126 51.8578C61.9145 51.785 61.7029 51.7539 61.4916 51.7666C60.4456 51.7445 59.8 52.3184 59.7831 53.3364C59.7661 54.3545 60.4203 54.8842 61.5086 54.9807V54.978Z" fill="#4F4F4F"/>
<path d="M12.7379 54.7352C11.5669 54.7352 10.3968 54.7352 9.22771 54.7352C8.2832 54.7352 7.49375 54.4345 7.4712 53.3889C7.44864 52.3432 8.20143 51.9873 9.16286 51.9846C11.644 51.9846 14.1241 51.9846 16.6034 51.9846C17.5084 51.9846 18.1992 52.346 18.2133 53.3199C18.2274 54.3765 17.4915 54.7242 16.5216 54.7297C15.2641 54.7407 14.001 54.7352 12.7379 54.7352Z" fill="#4F4F4F"/>
<path d="M30.4977 51.9873C31.7608 51.9873 33.0352 51.968 34.2871 51.9873C35.1893 52.0066 35.8575 52.3873 35.849 53.3667C35.8406 54.3462 35.1526 54.7131 34.256 54.7186C31.7298 54.7352 29.2036 54.7352 26.6774 54.7186C25.7724 54.7186 25.1098 54.3213 25.1182 53.3392C25.1267 52.357 25.809 52.0011 26.7084 51.9873C27.9687 51.9707 29.2346 51.9873 30.4977 51.9873Z" fill="#4F4F4F"/>
<path d="M38.2766 8.9205C37.7127 9.23502 37.0952 9.83646 36.568 9.77577C36.0971 9.72059 35.4402 8.97292 35.3584 8.46252C35.2429 7.63484 35.9618 7.05546 36.8048 7.24307C37.3687 7.36722 37.8029 7.94384 38.2963 8.31905L38.2766 8.9205Z" fill="#4F4F4F"/>
</g>
<defs>
<clipPath id="clip0_6130_19636">
<rect width="72" height="63" fill="white" transform="translate(0.687744 0.544434)"/>
</clipPath>
</defs>
</svg>
