<svg width="64" height="74" viewBox="0 0 64 74" fill="none" xmlns="http://www.w3.org/2000/svg">
<g clip-path="url(#clip0_6130_19625)">
<path d="M27.8532 15.0326C26.7563 15.0326 25.8675 15.0696 24.9815 15.0326C22.8946 14.9215 21.8089 12.8459 23.0774 11.1717C25.5272 7.93728 28.0754 4.77971 30.6518 1.64491C31.6503 0.431993 33.1832 0.454771 34.1985 1.68477C36.7299 4.7854 39.2613 7.90881 41.6604 11.1233C42.0992 11.7099 42.2426 12.9541 41.9192 13.5748C41.5648 14.2581 40.5663 14.7535 39.7506 14.9984C38.935 15.2433 38.004 15.0496 36.9549 15.0496V23.523C36.9549 26.8514 36.0914 27.7198 32.795 27.7255H31.5293C28.8883 27.697 27.8729 26.672 27.8561 24.0241C27.8476 21.0829 27.8532 18.1645 27.8532 15.0326ZM30.6659 24.7416H34.0916C34.1141 24.3601 34.1451 24.0839 34.1451 23.8077C34.1451 20.5875 34.1451 17.3644 34.1451 14.1414C34.1451 12.658 34.626 12.2081 36.0886 12.1853C36.9549 12.1711 37.8184 12.1853 38.98 12.1853L32.4041 3.92839L25.8535 12.1853H27.5776C30.6349 12.1853 30.6715 12.2309 30.6715 15.3999L30.6659 24.7416Z" fill="#4F4F4F"/>
<path d="M36.9548 59.4493C38.0658 59.4493 38.9574 59.4094 39.8406 59.4493C41.9247 59.566 42.9935 61.6445 41.7222 63.3244C39.2696 66.5673 36.7214 69.7278 34.1422 72.8569C33.1465 74.0669 31.6108 74.0242 30.5983 72.7885C28.0669 69.6879 25.5356 66.5673 23.1392 63.35C22.7032 62.7805 22.5767 61.5135 22.8945 60.8985C23.2545 60.218 24.2586 59.734 25.0743 59.5005C25.89 59.2671 26.8181 59.4493 27.8532 59.4493C27.8532 56.4768 27.8532 53.6466 27.8532 50.8136C27.8532 47.6988 28.7729 46.7791 31.8893 46.7734C36.4514 46.7734 36.952 47.2745 36.952 51.8984L36.9548 59.4493ZM25.8253 62.2965L32.418 70.5535C34.6428 67.7518 36.7186 65.1437 38.9518 62.3136C37.8014 62.3136 37.0083 62.3136 36.2123 62.3136C34.5838 62.2994 34.1478 61.8694 34.1394 60.2009C34.1253 57.6384 34.1394 55.0759 34.1394 52.5134V49.7687H30.7164C30.6939 50.1645 30.6658 50.4435 30.6658 50.7225C30.6658 53.8545 30.6658 56.9864 30.6658 60.1184C30.6658 61.8922 30.2467 62.3107 28.5366 62.325C27.7547 62.2965 26.9672 62.2965 25.8253 62.2965Z" fill="#4F4F4F"/>
<path d="M11.1404 44.3221C13.8124 42.7589 16.3185 41.2869 18.8301 39.8263C20.9902 38.5735 22.4866 38.9721 23.7522 41.1503C24.1544 41.845 24.5707 42.5312 24.9448 43.2401C25.8701 44.9969 25.4651 46.5942 23.7663 47.622C21.5612 48.9602 19.3139 50.2301 17.0891 51.5341C16.6532 51.7903 16.2453 52.0751 15.7362 52.3883C16.2144 53.2424 16.6419 54.0226 17.0807 54.7942C17.601 55.7024 17.7276 56.7388 16.9738 57.4193C16.3522 57.9888 15.3284 58.5098 14.5606 58.4158C10.7579 57.9461 6.96649 57.277 3.19194 56.6449C1.23717 56.3174 0.489008 55.0134 1.18654 53.1428C2.50285 49.6008 3.86697 46.076 5.20859 42.5426C5.60236 41.5033 6.21833 40.7374 7.41088 40.6406C8.60344 40.5438 9.34034 41.1617 9.88317 42.1553C10.2629 42.8529 10.682 43.5334 11.1404 44.3221ZM14.2343 55.5231C13.6718 54.5123 13.2414 53.7293 12.783 52.9606C12.1192 51.8558 12.3048 51.0045 13.4383 50.361C14.9037 49.5268 16.355 48.6527 17.812 47.7985C19.4152 46.8618 21.0155 45.9194 22.6778 44.9513C22.059 43.8665 21.5303 42.9383 20.9565 41.9389C20.4418 42.2237 20.0283 42.4116 19.6345 42.6422C17.0413 44.1512 14.4565 45.6774 11.8576 47.1778C10.381 48.032 9.93099 47.8896 9.04502 46.3806C8.63437 45.6745 8.22654 44.957 7.67245 44.0146L3.92322 53.8745L14.2343 55.5231Z" fill="#4F4F4F"/>
<path d="M53.6703 30.1656C51.0152 31.7144 48.5092 33.1922 45.9919 34.6442C43.8149 35.9056 42.3186 35.4984 41.0642 33.3459C38.4372 28.8359 38.5806 28.2864 43.0864 25.6584L49.1055 22.1364C48.5851 21.2167 47.9495 20.4508 47.716 19.5739C47.5079 18.7909 47.4348 17.6549 47.8623 17.0996C48.1583 16.7634 48.5234 16.4969 48.9321 16.3188C49.3408 16.1407 49.783 16.0555 50.2277 16.069C54.0332 16.5387 57.8218 17.2078 61.5963 17.8399C63.627 18.1844 64.3274 19.4828 63.5877 21.4616C62.277 24.958 60.9354 28.4373 59.6078 31.9251C59.214 32.9644 58.6065 33.7417 57.414 33.847C56.1567 33.9552 55.4142 33.2776 54.8657 32.2241C54.5141 31.5465 54.1119 30.9201 53.6703 30.1656ZM42.1133 29.5221L43.9246 32.5572L51.9912 27.8451C54.7167 26.2478 54.7167 26.2506 56.2692 28.9526C56.5111 29.374 56.7755 29.7783 57.158 30.399C58.4518 26.9966 59.6472 23.8504 60.8875 20.5818L50.5877 18.9617C51.0659 19.8159 51.4062 20.4252 51.7493 21.0345C52.8097 22.9023 52.7 23.3322 50.8746 24.3999C48.0085 26.0798 45.1397 27.754 42.1133 29.5221Z" fill="#4F4F4F"/>
<path d="M49.094 52.3511C46.4699 50.8108 43.9638 49.3445 41.4634 47.8725C39.2302 46.5599 38.8336 45.0736 40.1049 42.8101C40.4733 42.1495 40.8362 41.4861 41.2299 40.8398C42.3016 39.0831 43.8823 38.6389 45.6711 39.6582C48.3178 41.1672 50.9391 42.7218 53.6617 44.3077C54.1399 43.4963 54.4662 42.5994 55.0681 42.0072C55.67 41.4149 56.5813 40.6974 57.3182 40.7373C58.0551 40.7772 59.0957 41.5345 59.3939 42.2406C60.9493 45.942 62.3471 49.7061 63.7281 53.4758C63.8645 53.7955 63.9253 54.1431 63.9057 54.4908C63.886 54.8385 63.7865 55.1767 63.615 55.4786C63.4434 55.7805 63.2047 56.0378 62.9177 56.2298C62.6307 56.4219 62.3034 56.5435 61.9618 56.585C57.996 57.2711 54.0246 57.9232 50.0419 58.4869C48.1124 58.7716 46.7933 56.7786 47.6399 54.982C48.0421 54.1307 48.5484 53.3306 49.094 52.3511ZM50.5679 55.5315L60.893 53.8915C59.633 50.5887 58.432 47.4397 57.2169 44.2593C57.0172 44.3931 56.9188 44.4216 56.8794 44.4871C56.4941 45.1363 56.1228 45.794 55.7543 46.4431C54.8909 47.9095 54.4183 48.0347 52.9192 47.172C51.8223 46.5428 50.7366 45.8879 49.6425 45.2502C47.7524 44.1511 45.8595 43.0578 43.8822 41.9104L42.1609 44.9825C45.3223 46.8304 48.3234 48.5672 51.3048 50.3325C52.593 51.0955 52.7308 51.6849 52.0079 53.0089C51.572 53.7833 51.1276 54.5464 50.5679 55.5315Z" fill="#4F4F4F"/>
<path d="M11.1405 30.1656C10.6118 31.0653 10.2967 31.9736 9.67234 32.5686C9.04794 33.1637 8.13103 33.7787 7.37443 33.7388C6.68252 33.7047 5.70373 32.9473 5.40559 32.264C3.85865 28.5626 2.48327 24.7843 1.0629 21.0288C0.663505 19.9725 0.925071 18.9959 1.82792 18.3923C2.07533 18.2505 2.3507 18.166 2.63424 18.1448C2.91777 18.1236 3.20241 18.1663 3.46769 18.2699C3.82489 18.4521 3.97678 19.1753 4.08929 19.6935C4.23554 20.354 4.1174 21.0943 4.34241 21.715C5.36902 24.5451 6.47719 27.3468 7.66412 30.4418C8.20977 29.4993 8.61762 28.7904 9.03107 28.0842C9.91424 26.5752 10.3643 26.4357 11.8437 27.2927C14.8054 29.0011 17.7502 30.7407 20.8722 32.5572L22.6582 29.5306C20.7288 28.3917 18.8865 27.3013 17.033 26.2165C15.8207 25.5047 14.6057 24.7929 13.3766 24.0953C12.319 23.4917 12.0743 22.6717 12.7015 21.6097C13.0616 21.0004 13.4075 20.3825 13.7591 19.7675C14.1107 19.1525 14.5185 18.6286 13.9728 17.8542C13.7844 17.5694 13.9925 16.7836 14.2822 16.4847C14.4729 16.3295 14.6935 16.2165 14.9299 16.1527C15.1662 16.089 15.4132 16.076 15.6548 16.1145C17.0358 16.3651 17.8036 17.9823 17.2017 19.3347C16.7995 20.2373 16.268 21.0801 15.7026 22.1165C16.2511 22.4496 16.7911 22.7827 17.3367 23.1045C19.359 24.2917 21.3897 25.4648 23.4092 26.6606C25.5412 27.9277 25.9237 29.4452 24.689 31.649C24.3683 32.2184 24.0364 32.7879 23.7017 33.3573C22.4754 35.4586 20.965 35.8885 18.8893 34.6898C16.372 33.2235 13.8153 31.7258 11.1405 30.1656Z" fill="#4F4F4F"/>
<path d="M10.6257 18.5489C10.1307 18.9447 9.6807 19.5597 9.12661 19.6878C8.2997 19.8643 7.55997 19.2949 7.69779 18.4094C7.78217 17.877 8.43752 17.1025 8.89879 17.057C9.43319 17.0029 10.0238 17.6264 10.6089 17.951L10.6257 18.5489Z" fill="#4F4F4F"/>
</g>
<defs>
<clipPath id="clip0_6130_19625">
<rect width="63" height="73" fill="white" transform="translate(0.896973 0.739502)"/>
</clipPath>
</defs>
</svg>
