<svg width="62" height="62" fill="none" xmlns="http://www.w3.org/2000/svg"><g clip-path="url(#clip0_807_9678)" fill="#031C77"><path fill-rule="evenodd" clip-rule="evenodd" d="M35.8 23.253a5.522 5.522 0 01-.896 2.998 5.238 5.238 0 01-2.359 1.97 4.953 4.953 0 01-2.008.386 5.052 5.052 0 01-2.849-.948 5.331 5.331 0 01-1.866-2.424 5.54 5.54 0 01-.259-3.088 5.418 5.418 0 011.435-2.72 5.119 5.119 0 012.648-1.442 5.004 5.004 0 012.977.318 5.219 5.219 0 012.309 1.971c.565.879.867 1.91.869 2.966m-4.129 11.875h-1.619v1.516h1.619v-1.516z"/><path fill-rule="evenodd" clip-rule="evenodd" d="M33.65 30.463h-6.073a5.256 5.256 0 00-3.748 1.619 5.64 5.64 0 00-1.57 3.878v8.012c0 .433.166.848.462 1.155a1.55 1.55 0 001.115.478h13.549a1.562 1.562 0 001.115-.48c.296-.306.464-.72.468-1.153V35.96a5.629 5.629 0 00-1.567-3.882 5.244 5.244 0 00-3.751-1.615zm.773 11.322a1.1 1.1 0 01-.308.76c-.195.202-.46.315-.735.315h-5.036a1.025 1.025 0 01-.732-.317 1.1 1.1 0 01-.305-.758v-4.068a1.1 1.1 0 01.305-.757c.195-.202.458-.315.732-.317h.21v-1.981a1.213 1.213 0 01.42-.826 1.151 1.151 0 01.863-.267h2.05a1.125 1.125 0 01.867.265c.12.101.22.227.292.37.072.142.117.298.13.458v1.981h.204c.276 0 .54.113.735.314a1.1 1.1 0 01.308.76v4.068z"/><path fill-rule="evenodd" clip-rule="evenodd" d="M31.742 39.233a.944.944 0 00-.23-.694.856.856 0 00-1.297 0 .921.921 0 00-.23.694.917.917 0 00.165.53.86.86 0 00.435.327v.789c0 .074.028.145.079.198a.265.265 0 00.382 0 .284.284 0 00.079-.198v-.789a.87.87 0 00.445-.323.922.922 0 00.172-.534z"/><path d="M30.609 12.316a3.714 3.714 0 01-2.116-.665 3.917 3.917 0 01-1.401-1.77 4.075 4.075 0 01-.217-2.278 3.989 3.989 0 011.042-2.02 3.768 3.768 0 011.949-1.079 3.684 3.684 0 012.2.225 3.84 3.84 0 011.708 1.452 4.05 4.05 0 01.642 2.191 4.023 4.023 0 01-1.117 2.787 3.748 3.748 0 01-2.69 1.157zm0-5.46c-.29 0-.573.09-.813.256-.24.167-.428.403-.539.68-.11.277-.14.582-.083.876.056.294.196.564.4.776.205.212.465.356.75.415.283.058.577.028.844-.087a1.47 1.47 0 00.657-.558 1.555 1.555 0 00-.182-1.911 1.454 1.454 0 00-.475-.327 1.414 1.414 0 00-.56-.113v-.006zm0 51.822a3.713 3.713 0 01-2.116-.664 3.917 3.917 0 01-1.401-1.77 4.075 4.075 0 01-.217-2.279 3.988 3.988 0 011.042-2.019 3.768 3.768 0 011.949-1.08 3.684 3.684 0 012.2.225 3.84 3.84 0 011.708 1.453c.418.648.642 1.41.642 2.19a4.023 4.023 0 01-1.117 2.788 3.747 3.747 0 01-2.69 1.157zm0-5.453c-.288.002-.57.091-.808.258a1.5 1.5 0 00-.534.678 1.56 1.56 0 00-.08.872c.056.292.196.56.4.771.204.21.463.354.746.411a1.4 1.4 0 00.84-.087 1.46 1.46 0 00.653-.555 1.547 1.547 0 00-.183-1.908 1.455 1.455 0 00-.475-.326 1.415 1.415 0 00-.56-.114zm22.383-17.73a3.714 3.714 0 01-2.115-.665 3.918 3.918 0 01-1.402-1.77 4.075 4.075 0 01-.217-2.279 3.99 3.99 0 011.042-2.019 3.768 3.768 0 011.95-1.08 3.684 3.684 0 012.2.225 3.84 3.84 0 011.707 1.453c.419.648.642 1.41.642 2.19 0 1.047-.4 2.05-1.115 2.79a3.741 3.741 0 01-2.692 1.155zm0-5.453a1.427 1.427 0 00-.815.252c-.241.166-.43.403-.541.68a1.567 1.567 0 00-.085.877c.056.295.196.565.4.778a1.422 1.422 0 001.598.327c.267-.116.496-.31.656-.561.16-.25.245-.544.244-.844 0-.4-.154-.784-.427-1.067a1.432 1.432 0 00-1.03-.442zM8.236 35.495a3.714 3.714 0 01-2.115-.665 3.918 3.918 0 01-1.402-1.77 4.075 4.075 0 01-.217-2.279 3.99 3.99 0 011.042-2.019 3.768 3.768 0 011.95-1.08 3.684 3.684 0 012.2.225 3.84 3.84 0 011.708 1.453c.418.648.641 1.41.641 2.19 0 1.047-.4 2.05-1.115 2.79a3.741 3.741 0 01-2.692 1.155zm0-5.453a1.427 1.427 0 00-.815.252c-.241.166-.43.403-.541.68-.112.277-.14.583-.085.877.057.295.196.565.4.778a1.422 1.422 0 001.598.327c.267-.116.496-.31.656-.561a1.554 1.554 0 00-.184-1.91 1.437 1.437 0 00-1.029-.443zm38.202-10.938c-.88 0-1.734-.316-2.415-.895a3.972 3.972 0 01-1.319-2.279 4.069 4.069 0 01.377-2.628 3.858 3.858 0 011.9-1.785 3.683 3.683 0 012.562-.13 3.816 3.816 0 012.06 1.582 4.054 4.054 0 01-.473 4.98 3.772 3.772 0 01-1.234.858c-.462.198-.957.3-1.458.297zm0-5.453a1.42 1.42 0 00-.923.344 1.52 1.52 0 00-.504.873c-.065.343-.014.698.145 1.006.16.307.417.548.729.682.311.133.657.15.98.048.322-.101.6-.316.788-.606a1.551 1.551 0 00-.183-1.906 1.45 1.45 0 00-1.032-.44zM14.781 51.89c-.88 0-1.734-.316-2.415-.895a3.972 3.972 0 01-1.319-2.279 4.07 4.07 0 01.377-2.628 3.859 3.859 0 011.9-1.785 3.684 3.684 0 012.562-.13 3.822 3.822 0 012.06 1.583 4.054 4.054 0 01-.473 4.98 3.775 3.775 0 01-1.234.857c-.462.198-.957.3-1.458.297zm0-5.453a1.393 1.393 0 00-.558.113 1.436 1.436 0 00-.473.328 1.558 1.558 0 00-.186 1.914c.188.292.467.508.791.61.324.103.672.085.985-.048.313-.134.572-.376.732-.686.16-.309.21-.666.145-1.01a1.526 1.526 0 00-.507-.877 1.432 1.432 0 00-.929-.343zm31.657 5.453c-.88 0-1.734-.316-2.415-.895a3.971 3.971 0 01-1.319-2.279 4.07 4.07 0 01.377-2.628 3.859 3.859 0 011.9-1.785 3.684 3.684 0 012.562-.13 3.818 3.818 0 012.06 1.583 4.054 4.054 0 01-.473 4.98 3.786 3.786 0 01-1.234.857c-.462.198-.957.3-1.458.297zm0-5.453a1.382 1.382 0 00-.559.112 1.426 1.426 0 00-.472.33 1.558 1.558 0 00-.186 1.914c.188.291.467.507.79.61.325.102.673.084.986-.05a1.47 1.47 0 00.731-.685 1.56 1.56 0 00.146-1.01 1.526 1.526 0 00-.507-.877 1.432 1.432 0 00-.929-.343zM14.781 19.104c-.88 0-1.734-.316-2.415-.895a3.972 3.972 0 01-1.319-2.279 4.069 4.069 0 01.377-2.628 3.858 3.858 0 011.9-1.785 3.683 3.683 0 012.562-.13 3.821 3.821 0 012.06 1.582 4.054 4.054 0 01-.473 4.98 3.771 3.771 0 01-1.234.858c-.462.198-.957.3-1.458.297zm0-5.453a1.42 1.42 0 00-.923.344 1.52 1.52 0 00-.504.873c-.065.343-.014.698.146 1.006.159.307.416.548.728.682.311.133.658.15.98.048.323-.101.6-.316.788-.606a1.551 1.551 0 00-.183-1.906 1.438 1.438 0 00-1.032-.44z"/><path d="M30.61 15.067c-.318 0-.623-.13-.848-.364a1.265 1.265 0 01-.351-.878v-2.757a1.25 1.25 0 01.416-.715 1.174 1.174 0 011.518 0c.214.181.361.434.416.715v2.757c0 .321-.12.63-.334.861a1.18 1.18 0 01-.817.381zm0 37.755a.7.7 0 01-.504-.216.753.753 0 01-.209-.523v-2.757a.77.77 0 01.185-.57.698.698 0 011.063 0 .75.75 0 01.185.57v2.757a.763.763 0 01-.21.525.713.713 0 01-.51.214zm19.766-20.029H47.72a1.158 1.158 0 01-.997-.256 1.236 1.236 0 01-.325-.43 1.279 1.279 0 01.325-1.493 1.159 1.159 0 01.997-.256h2.656c.271.057.515.21.69.432.175.222.27.5.27.786 0 .286-.095.564-.27.786a1.193 1.193 0 01-.69.43zm-36.869 0h-2.662a1.158 1.158 0 01-.998-.256 1.237 1.237 0 01-.324-.43 1.28 1.28 0 010-1.064 1.192 1.192 0 01.795-.673c.173-.044.353-.048.527-.012h2.662c.27.057.514.21.69.432a1.277 1.277 0 010 1.572 1.192 1.192 0 01-.69.43zM42.706 20.26a1.172 1.172 0 01-.633-.225 1.236 1.236 0 01-.418-.54 1.284 1.284 0 01.218-1.31l1.883-1.95a1.21 1.21 0 01.38-.38 1.17 1.17 0 011.47.184 1.285 1.285 0 01.177 1.523 1.223 1.223 0 01-.367.393l-1.858 1.95a1.18 1.18 0 01-.852.354zM16.635 47.27a1.173 1.173 0 01-.63-.226 1.236 1.236 0 01-.417-.54 1.284 1.284 0 01.22-1.308l1.876-1.95a1.167 1.167 0 011.507.159 1.277 1.277 0 01.154 1.561l-1.883 1.95a1.178 1.178 0 01-.827.354zm27.955 0a1.178 1.178 0 01-.833-.354l-1.882-1.95a1.278 1.278 0 01.154-1.561 1.167 1.167 0 011.507-.16l1.882 1.95a1.282 1.282 0 01.22 1.308 1.226 1.226 0 01-.417.54 1.173 1.173 0 01-.63.227zM18.517 20.26a1.178 1.178 0 01-.833-.355l-1.877-1.95a1.278 1.278 0 01.157-1.552 1.166 1.166 0 011.498-.168l1.883 1.95a1.284 1.284 0 01.22 1.308 1.235 1.235 0 01-.417.54 1.172 1.172 0 01-.63.226z"/></g><defs><clipPath id="clip0_807_9678"><path fill="#fff" d="M0 0h62v62H0z"/></clipPath></defs></svg>