<svg width="24" height="24" viewBox="0 0 24 24" fill="none" xmlns="http://www.w3.org/2000/svg">
<g id="credit-card-payment 1" clip-path="url(#clip0_3457_7503)">
<g id="Group">
<path id="Vector" d="M3.51562 12.0469H6.79688V13.4531H3.51562V12.0469Z" fill="#EB5B31"/>
<path id="Vector_2" d="M18.0469 8.53125H2.10938C0.946266 8.53125 0 9.47752 0 10.6406V21.8906C0 23.0537 0.946266 24 2.10938 24H18.0469C19.21 24 20.1562 23.0537 20.1562 21.8906V10.6406C20.1562 9.47752 19.21 8.53125 18.0469 8.53125ZM2.10938 11.3438C2.10938 10.9554 2.42419 10.6406 2.8125 10.6406H7.5C7.88831 10.6406 8.20312 10.9554 8.20312 11.3438V14.1562C8.20312 14.5446 7.88831 14.8594 7.5 14.8594H2.8125C2.42419 14.8594 2.10938 14.5446 2.10938 14.1562V11.3438ZM2.8125 17.6719H4.21875C4.60706 17.6719 4.92188 17.9867 4.92188 18.375C4.92188 18.7633 4.60706 19.0781 4.21875 19.0781H2.8125C2.42419 19.0781 2.10938 18.7633 2.10938 18.375C2.10938 17.9867 2.42419 17.6719 2.8125 17.6719ZM7.5 21.8906H2.8125C2.42419 21.8906 2.10938 21.5758 2.10938 21.1875C2.10938 20.7992 2.42419 20.4844 2.8125 20.4844H7.5C7.88831 20.4844 8.20312 20.7992 8.20312 21.1875C8.20312 21.5758 7.88831 21.8906 7.5 21.8906ZM8.4375 19.0781H7.03125C6.64294 19.0781 6.32812 18.7633 6.32812 18.375C6.32812 17.9867 6.64294 17.6719 7.03125 17.6719H8.4375C8.82581 17.6719 9.14062 17.9867 9.14062 18.375C9.14062 18.7633 8.82581 19.0781 8.4375 19.0781ZM12.6562 19.0781H11.25C10.8617 19.0781 10.5469 18.7633 10.5469 18.375C10.5469 17.9867 10.8617 17.6719 11.25 17.6719H12.6562C13.0446 17.6719 13.3594 17.9867 13.3594 18.375C13.3594 18.7633 13.0446 19.0781 12.6562 19.0781ZM17.3438 14.8594H15C14.6117 14.8594 14.2969 14.5446 14.2969 14.1562C14.2969 13.7679 14.6117 13.4531 15 13.4531H17.3438C17.7321 13.4531 18.0469 13.7679 18.0469 14.1562C18.0469 14.5446 17.7321 14.8594 17.3438 14.8594ZM17.3438 12.0469H15C14.6117 12.0469 14.2969 11.7321 14.2969 11.3438C14.2969 10.9554 14.6117 10.6406 15 10.6406H17.3438C17.7321 10.6406 18.0469 10.9554 18.0469 11.3438C18.0469 11.7321 17.7321 12.0469 17.3438 12.0469Z" fill="#EB5B31"/>
<path id="Vector_3" d="M23.9266 12.4303L22.5314 7.22339L20.1836 7.8525C21.0204 8.49572 21.5612 9.50592 21.5612 10.6406V15.2479L22.435 15.0137C23.5585 14.7127 24.2276 13.5538 23.9266 12.4303Z" fill="#EB5B31"/>
<path id="Vector_4" d="M17.4685 7.12504L22.1704 5.86518L21.8064 4.50684L12.0352 7.12504H17.4685Z" fill="#EB5B31"/>
<path id="Vector_5" d="M1.64097 7.12499H6.60218L21.4428 3.14844L21.0181 1.56365C20.7171 0.440193 19.5582 -0.228948 18.4347 0.0721301L3.04024 4.19704C1.91674 4.49807 1.24765 5.657 1.54868 6.78051L1.64097 7.12499Z" fill="#EB5B31"/>
</g>
</g>
<defs>
<clipPath id="clip0_3457_7503">
<rect width="24" height="24" fill="white"/>
</clipPath>
</defs>
</svg>
