<svg width="69" height="69" viewBox="0 0 69 69" fill="none" xmlns="http://www.w3.org/2000/svg">
<g id="Property 1=problem-solved 2" clip-path="url(#clip0_3467_54793)">
<path id="Vector" d="M37.1594 50.8369L36.3538 48.7651C35.8934 48.8992 35.4303 49.0143 34.9699 49.1104C34.9254 49.1202 34.8771 49.1294 34.8325 49.1359C33.6436 49.3759 32.4193 49.497 31.2043 49.497C21.0834 49.497 12.8491 41.2627 12.8491 31.1418C12.8491 21.0214 21.0834 12.7866 31.2043 12.7866C41.3246 12.7866 49.5589 21.0209 49.5589 31.1418C49.5589 32.1901 49.4699 33.2325 49.294 34.2429C49.2907 34.2782 49.2842 34.3129 49.2777 34.3482C49.1566 35.0453 48.9938 35.7353 48.7885 36.4129L50.8158 37.212C52.8234 38.002 54.3349 39.6128 55.0385 41.5634C55.4983 40.5238 55.8854 39.4466 56.2052 38.3407C56.3903 37.6979 56.8958 37.2028 57.5381 37.0296L60.9394 36.1284C61.7673 35.908 62.3455 35.1566 62.3455 34.2999V27.9837C62.3455 27.127 61.7673 26.3756 60.9394 26.1552L57.5381 25.2539C56.8925 25.0813 56.3903 24.5824 56.2052 23.9401C55.6808 22.1181 54.9614 20.3786 54.07 18.7455C53.7534 18.1608 53.7567 17.4572 54.089 16.8817L55.892 13.7812C56.3236 13.0363 56.1992 12.0993 55.595 11.4923L51.129 7.02686C50.5215 6.41935 49.5817 6.29774 48.8401 6.72609L45.8194 8.48132C45.2374 8.81955 44.5245 8.81955 43.9398 8.49055C42.2291 7.53503 40.4039 6.76464 38.483 6.21142C37.8435 6.02574 37.3484 5.52084 37.1757 4.87803L36.2555 1.40993C36.0345 0.57874 35.2831 0 34.4264 0H28.1102C27.2535 0 26.5021 0.57874 26.2817 1.40993L25.361 4.87803C25.1916 5.52409 24.6932 6.02574 24.0504 6.21142C22.2409 6.73261 20.5149 7.44816 18.8944 8.32767C18.3091 8.6469 17.6055 8.64093 17.0338 8.30867L13.8437 6.45464C13.0988 6.02574 12.1618 6.14735 11.5542 6.75487L7.08882 11.2203C6.48131 11.8245 6.3597 12.7643 6.78805 13.5092L8.59431 16.6168C8.92982 17.195 8.93308 17.9078 8.60408 18.4958C7.65779 20.1902 6.89337 22.0057 6.34069 23.9081C6.15556 24.5471 5.65337 25.046 5.01111 25.2154L1.47189 26.1552C0.64124 26.3756 0.0625 27.127 0.0625 27.9837V34.2999C0.0625 35.1566 0.64124 35.908 1.47189 36.1284L5.01111 37.0687C5.65337 37.2381 6.15828 37.7397 6.34395 38.3793C6.85537 40.1503 7.55192 41.8414 8.40918 43.4332C8.72189 44.0152 8.71918 44.715 8.38637 45.2873L6.5166 48.5062C6.08824 49.2478 6.20985 50.1875 6.81682 50.7951L11.2828 55.2605C11.8898 55.8647 12.8263 55.9896 13.5711 55.558L16.656 53.768C17.238 53.4293 17.9508 53.4293 18.5393 53.7583C20.2652 54.7333 22.1127 55.5135 24.0536 56.0759C24.6926 56.2584 25.1916 56.7633 25.361 57.4055L26.2812 60.8774C26.5016 61.7054 27.253 62.2835 28.1097 62.2835H34.4264C35.2831 62.2835 36.0345 61.7054 36.255 60.8774L37.1757 57.4055C37.3484 56.7633 37.8468 56.2584 38.489 56.0727C39.4033 55.8105 40.2985 55.4945 41.1677 55.1296C41.2416 55.1009 41.3116 55.0721 41.3854 55.0401C39.4869 54.305 37.9201 52.793 37.1594 50.8369Z" fill="#EB5B31"/>
<path id="Vector_2" d="M60.2269 46.1192C59.8827 46.2495 59.8827 46.7381 60.2269 46.869C61.5847 47.3847 62.1971 47.9966 62.7129 49.3544C62.8437 49.6992 63.3323 49.6992 63.4626 49.3544C63.9784 47.9966 64.5903 47.3847 65.9486 46.869C66.2923 46.7381 66.2923 46.2495 65.9486 46.1192C64.5908 45.6034 63.9784 44.9916 63.4626 43.6332C63.3323 43.2896 62.8437 43.2896 62.7129 43.6332C62.1971 44.9916 61.5847 45.6034 60.2269 46.1192Z" fill="#EB5B31"/>
<path id="Vector_3" d="M67.9897 63.3869L53.9599 49.3565C53.557 48.9542 53.3426 48.3977 53.3713 47.8287L53.557 44.3025C53.5603 44.2515 53.5603 44.2005 53.5603 44.1494C53.5918 41.8861 52.2204 39.8273 50.1106 38.9962L48.1415 38.216L47.2495 37.8647L46.358 37.5135L43.7401 36.4776C43.5832 36.4168 43.4171 36.3848 43.251 36.3848C42.8959 36.3848 42.5604 36.5221 42.3107 36.7751L42.2629 36.8191C41.745 37.3376 41.745 38.1818 42.2629 38.6992L45.3602 41.2503L47.173 42.7428C47.2365 42.8068 47.2462 42.8839 47.2462 42.9219C47.2462 42.9632 47.2365 43.037 47.173 43.1043L43.1451 47.1354C43.0816 47.1995 43.0045 47.2082 42.9627 47.2082C42.9247 47.2082 42.8481 47.1995 42.7841 47.1354L41.2466 45.3482L38.6699 42.353C38.4077 42.0907 38.0467 41.9403 37.6824 41.9403C37.4267 41.9403 37.1775 42.0136 36.9695 42.1548C36.4391 42.5028 36.2312 43.1581 36.4581 43.7466L37.4712 46.3515L37.8132 47.2337L38.165 48.1355L38.9452 50.1399C39.7536 52.2209 41.7965 53.621 44.0273 53.621C44.1039 53.621 44.181 53.6178 44.2575 53.6145L44.6061 53.595L47.7772 53.4229C47.812 53.4229 47.8505 53.4196 47.8858 53.4196C48.4227 53.4196 48.9276 53.6308 49.3082 54.0108L63.3353 68.038C63.9586 68.658 64.7838 69 65.6628 69C66.5418 69 67.3664 68.658 67.9897 68.038C69.2715 66.7562 69.2715 64.6687 67.9897 63.3869Z" fill="#EB5B31"/>
<path id="Vector_4" d="M28.8125 21.7534L29.6795 33.5497H32.7399L33.6075 21.7534H28.8125Z" fill="#EB5B31"/>
<path id="Vector_5" d="M29.6094 36.2148H32.806V39.9311H29.6094V36.2148Z" fill="#EB5B31"/>
</g>
<defs>
<clipPath id="clip0_3467_54793">
<rect width="69" height="69" fill="white"/>
</clipPath>
</defs>
</svg>
