<svg width="69" height="70" viewBox="0 0 69 70" fill="none" xmlns="http://www.w3.org/2000/svg">
<g id="deadline 1">
<g id="Layer 2">
<path id="Vector" d="M44.5625 14.1562C40.44 14.1563 36.4101 15.3787 32.9823 17.6691C29.5546 19.9594 26.883 23.2147 25.3054 27.0234C23.7278 30.8321 23.315 35.0231 24.1193 39.0664C24.9235 43.1097 26.9087 46.8237 29.8238 49.7388C32.7388 52.6538 36.4528 54.639 40.4961 55.4432C44.5394 56.2475 48.7304 55.8347 52.5391 54.2571C56.3478 52.6795 59.6031 50.0079 61.8935 46.5802C64.1838 43.1524 65.4063 39.1225 65.4063 35C65.3987 29.4742 63.2002 24.177 59.2929 20.2696C55.3856 16.3623 50.0883 14.1639 44.5625 14.1562ZM51.1175 41.555C50.7132 41.9588 50.1652 42.1856 49.5938 42.1856C49.0224 42.1856 48.4743 41.9588 48.07 41.555L43.125 36.5238C42.7205 36.1198 42.493 35.5717 42.4925 35V26.375C42.4925 25.8031 42.7197 25.2547 43.1241 24.8503C43.5284 24.4459 44.0769 24.2188 44.6488 24.2188C45.2206 24.2188 45.7691 24.4459 46.1735 24.8503C46.5778 25.2547 46.805 25.8031 46.805 26.375V34.1088L51.2038 38.5075C51.5963 38.9231 51.8078 39.4776 51.7916 40.0491C51.7754 40.6206 51.533 41.1623 51.1175 41.555Z" fill="#EB5B31"/>
<path id="Vector_2" d="M18.6875 37.1562H5.75C5.17813 37.1562 4.62968 36.9291 4.2253 36.5247C3.82093 36.1203 3.59375 35.5719 3.59375 35C3.59375 34.4281 3.82093 33.8797 4.2253 33.4753C4.62968 33.0709 5.17813 32.8438 5.75 32.8438H18.6875C19.2594 32.8438 19.8078 33.0709 20.2122 33.4753C20.6166 33.8797 20.8438 34.4281 20.8438 35C20.8438 35.5719 20.6166 36.1203 20.2122 36.5247C19.8078 36.9291 19.2594 37.1562 18.6875 37.1562Z" fill="#EB5B31"/>
<path id="Vector_3" d="M21.5625 25.6562H14.375C13.8031 25.6562 13.2547 25.4291 12.8503 25.0247C12.4459 24.6203 12.2188 24.0719 12.2188 23.5C12.2188 22.9281 12.4459 22.3797 12.8503 21.9753C13.2547 21.5709 13.8031 21.3438 14.375 21.3438H21.5625C22.1344 21.3438 22.6828 21.5709 23.0872 21.9753C23.4916 22.3797 23.7188 22.9281 23.7188 23.5C23.7188 24.0719 23.4916 24.6203 23.0872 25.0247C22.6828 25.4291 22.1344 25.6562 21.5625 25.6562Z" fill="#EB5B31"/>
<path id="Vector_4" d="M21.5625 48.6562H14.375C13.8031 48.6562 13.2547 48.4291 12.8503 48.0247C12.4459 47.6203 12.2188 47.0719 12.2188 46.5C12.2188 45.9281 12.4459 45.3797 12.8503 44.9753C13.2547 44.5709 13.8031 44.3438 14.375 44.3438H21.5625C22.1344 44.3438 22.6828 44.5709 23.0872 44.9753C23.4916 45.3797 23.7188 45.9281 23.7188 46.5C23.7188 47.0719 23.4916 47.6203 23.0872 48.0247C22.6828 48.4291 22.1344 48.6562 21.5625 48.6562Z" fill="#EB5B31"/>
</g>
</g>
</svg>
