<svg width="15" height="16" viewBox="0 0 15 16" fill="none" xmlns="http://www.w3.org/2000/svg">
<path id="Union" fill-rule="evenodd" clip-rule="evenodd" d="M7.5 0.257812C6.93909 0.257812 6.48438 0.712523 6.48438 1.27344V6.74219H1.01562C0.454711 6.74219 0 7.1969 0 7.75781C0 8.31873 0.454711 8.77344 1.01562 8.77344H6.48438V14.2422C6.48438 14.8031 6.93909 15.2578 7.5 15.2578C8.06091 15.2578 8.51562 14.8031 8.51562 14.2422V8.77344H13.9844C14.5453 8.77344 15 8.31873 15 7.75781C15 7.1969 14.5453 6.74219 13.9844 6.74219H8.51562V1.27344C8.51562 0.712523 8.06091 0.257812 7.5 0.257812Z" fill="#EB5B31"/>
</svg>
