<svg width="30" height="27" viewBox="0 0 30 27" fill="none" xmlns="http://www.w3.org/2000/svg">
<g clip-path="url(#clip0_2255_45623)">
<path d="M4.79223 3.60187C8.41673 14.6412 16.6764 21.1337 28.1394 22.6826C29.0022 22.7993 28.8389 24.2208 27.9801 24.199C16.6844 23.8978 5.43394 15.4256 3.41542 4.02629C3.25765 3.13558 4.49495 2.69611 4.7911 3.60191L4.79223 3.60187Z" fill="#DEDEDE"/>
<path d="M25.3481 20.0459C26.1226 20.311 26.8601 20.9289 27.5155 21.4102C28.2438 21.9458 28.9852 22.5047 29.4664 23.284C29.6696 23.6137 29.4872 23.9787 29.1566 24.1152C27.6601 24.7343 26.046 25.6542 24.3889 25.6653C24.0871 25.6676 23.991 25.2917 24.2246 25.123C25.5693 24.1558 27.2949 23.6361 28.8273 23.0454C28.7236 23.3221 28.6211 23.5987 28.5175 23.8766C27.6844 22.4464 25.7877 21.9287 24.993 20.5347C24.863 20.3068 25.0579 19.9449 25.3469 20.0448L25.3481 20.0459Z" fill="#DEDEDE"/>
<path d="M5.54446 8.37277C2.8972 7.78711 1.99872 6.77721 1.94998 6.69727C1.80265 6.45859 0.807085 3.82694 0.400631 2.78651C0.267175 2.44453 1.81441 2.27505 3.86067 3.10367C5.31669 0.449613 5.65416 0.278983 5.98026 1.2031C6.38813 2.36673 6.78375 3.53637 7.21179 4.69374C7.54016 5.58048 7.13964 6.5919 5.95079 8.23626C5.85852 8.36452 5.70156 8.40878 5.54333 8.37281L5.54446 8.37277Z" fill="#DEDEDE"/>
<path d="M4.16188 10.8702C5.17061 12.5427 6.02573 14.1825 7.30084 15.6888C8.63106 17.2612 10.2586 18.3794 11.884 19.6129C11.9395 19.6542 11.8727 19.7274 11.8177 19.7042C8.49046 18.3067 5.06897 14.3999 4.06817 10.9126C4.0518 10.8565 4.13095 10.8191 4.16188 10.8702Z" fill="#DEDEDE"/>
<path d="M12.4333 19.9661C12.8937 20.2361 13.3859 20.478 13.8288 20.7723C13.8669 20.7983 13.855 20.854 13.8077 20.8589C13.2947 20.9081 12.6188 20.4953 12.3183 20.0893C12.2665 20.0185 12.3609 19.9241 12.4333 19.9661Z" fill="#DEDEDE"/>
<path d="M14.1646 15.0706C15.3994 16.0965 16.5916 17.0976 17.9732 17.9314C19.3272 18.7479 20.7943 19.3033 22.2217 19.9661C22.2825 19.9948 22.2422 20.0853 22.1808 20.0724C19.3752 19.4859 15.8045 17.4716 14.1349 15.0953C14.1219 15.0764 14.1485 15.0587 14.1635 15.0718L14.1646 15.0706Z" fill="#DEDEDE"/>
</g>
<defs>
<clipPath id="clip0_2255_45623">
<rect width="25.523" height="28.5245" fill="white" transform="matrix(0.0298759 0.999554 0.999554 -0.0298759 0.335938 0.852051)"/>
</clipPath>
</defs>
</svg>
