<svg width="54" height="49" viewBox="0 0 54 49" fill="none" xmlns="http://www.w3.org/2000/svg">
<g clip-path="url(#clip0_2255_44425)">
<path d="M45.0802 7.47536C38.5591 27.3369 23.6985 39.0182 3.07462 41.8049C1.52241 42.0148 1.81618 44.5723 3.36126 44.5331C23.6841 43.9912 43.9257 28.7483 47.5573 8.23897C47.8412 6.63642 45.6151 5.84574 45.0823 7.47542L45.0802 7.47536Z" fill="#DEDEDE"/>
<path d="M8.09527 37.0608C6.70188 37.5379 5.37495 38.6495 4.19572 39.5154C2.88541 40.4791 1.55148 41.4847 0.685752 42.8868C0.320186 43.48 0.648392 44.1367 1.24315 44.3823C3.93559 45.4961 6.83967 47.1512 9.82111 47.1712C10.3641 47.1752 10.5369 46.4989 10.1167 46.1955C7.69729 44.4552 4.59268 43.5203 1.83566 42.4574C2.02216 42.9552 2.20663 43.453 2.39307 43.9529C3.89183 41.3798 7.30445 40.4484 8.73415 37.9404C8.96812 37.5304 8.61737 36.8791 8.09737 37.0589L8.09527 37.0608Z" fill="#DEDEDE"/>
<path d="M43.7266 16.0593C48.4895 15.0056 50.106 13.1886 50.1937 13.0448C50.4588 12.6154 52.25 7.88055 52.9813 6.00864C53.2214 5.39337 50.4376 5.08845 46.7561 6.57927C44.1364 1.80417 43.5293 1.49717 42.9426 3.15983C42.2087 5.25339 41.4969 7.35777 40.7268 9.44008C40.136 11.0355 40.8566 12.8552 42.9956 15.8137C43.1616 16.0444 43.444 16.1241 43.7287 16.0593L43.7266 16.0593Z" fill="#DEDEDE"/>
<path d="M46.2153 20.5518C44.4005 23.5609 42.8619 26.5112 40.5678 29.2212C38.1745 32.0504 35.2463 34.0621 32.322 36.2814C32.2221 36.3557 32.3423 36.4874 32.4412 36.4456C38.4275 33.9314 44.5833 26.9023 46.3839 20.628C46.4134 20.5272 46.271 20.4598 46.2153 20.5518Z" fill="#DEDEDE"/>
<path d="M31.3318 36.9169C30.5036 37.4027 29.618 37.838 28.8211 38.3675C28.7525 38.4143 28.7739 38.5146 28.8591 38.5232C29.782 38.6118 30.9982 37.8691 31.5388 37.1387C31.6321 37.0113 31.4622 36.8415 31.3318 36.9169Z" fill="#DEDEDE"/>
<path d="M28.2166 28.1099C25.9951 29.9556 23.8501 31.7568 21.3643 33.2569C18.9283 34.726 16.2887 35.7252 13.7205 36.9177C13.6112 36.9694 13.6836 37.1322 13.7941 37.1091C18.8418 36.0537 25.2661 32.4297 28.2702 28.1543C28.2936 28.1204 28.2457 28.0884 28.2185 28.112L28.2166 28.1099Z" fill="#DEDEDE"/>
</g>
<defs>
<clipPath id="clip0_2255_44425">
<rect width="45.9203" height="51.3205" fill="white" transform="translate(53.0977 2.52783) rotate(91.712)"/>
</clipPath>
</defs>
</svg>
