<svg width="54" height="52" fill="none" xmlns="http://www.w3.org/2000/svg"><g clip-path="url(#clip0_2265_29210)" fill="#DEDEDE"><path d="M5.67 27.867c.912-3.05 5.87-3.668 7.144-.554.738 1.801.243 3.949-1.577 4.937-1.477.801-3.653.558-4.72-.81a4.158 4.158 0 01-.606-1.116c-.358-.749-.495-1.598-.241-2.457zm13.155 9.015c1.684-.76 3.552-.746 5.132.272 1.789 1.15 2.674 3.09 3.319 5.03.286.851.06 1.746-.439 2.47-.24 1.099-.805 2.122-1.695 2.796-3.286 2.488-9.069 1.002-9.91-3.287-.538-2.761.95-6.093 3.591-7.284l.002.003zM31.593 4.47c8.35-.41 12.779 6.753 11.802 13.569a13.591 13.591 0 01-1.345 4.839c-2.833 5.718-9.428 7.761-15.094 5.224-5.204-2.335-8.26-7.89-7.557-13.538.79-6.377 6.126-9.798 12.194-10.095z"/></g><defs><clipPath id="clip0_2265_29210"><path fill="#fff" transform="scale(-1 1) rotate(28.496 -18.266 -71.933)" d="M0 0h41.43v36.331H0z"/></clipPath></defs></svg>