<svg width="1055" height="741" fill="none" xmlns="http://www.w3.org/2000/svg"><g style="mix-blend-mode:multiply" stroke-miterlimit="10"><path d="M-338.055 173.374a1322.467 1322.467 0 01132.529-85.911c20.38-11.528 41.603-22.626 64.792-26.044 59.237-8.51 112.743 35.355 151.315 81.147a696.931 696.931 0 0190.592 137.841c24.364 48.913 43.458 101.446 78.538 143.323 35.079 41.876 92.189 71.518 144.3 55.178 31.009-9.729 55.741-34.462 71.249-63.034 15.507-28.572 22.757-60.876 27.627-93.029 5.553-36.808 8.974-75.994 30.82-106.085 22.597-31.095 64.148-47.303 101.954-39.419 53.639 11.219 87.682 62.008 122.281 104.502 43.97 53.998 99.907 101.641 167.323 119.07 67.417 17.428 147.24-1.582 187.395-58.522" stroke="#8A8A8A"/><path d="M-335.539 189.151a1218.445 1218.445 0 01130.482-84.015c20.098-11.204 41.005-22.023 63.794-25.292 45.747-6.597 88.171 17.818 122.912 49.963a363.627 363.627 0 0126.625 27.471 679.124 679.124 0 0191.07 132.919c24.721 47.238 44.112 98.409 79.064 139.108 19.606 22.817 45.237 42.373 73.1 53.352 24.307 9.556 50.485 12.55 75.588 5.018a100.33 100.33 0 0013.02-4.917c26.085-11.869 46.801-34.321 60.824-59.623a212.133 212.133 0 0011.781-25.132c8.909-22.422 14.527-46.152 19.162-69.709 7.396-37.289 13.7-75.881 36.908-105.516 23.207-29.634 63.074-45.2 99.95-37.696 52.432 10.802 86.239 59.098 120.516 99.289a510.089 510.089 0 008.239 9.435c42.172 47.039 94.188 86.969 155.427 101.275 65.279 15.25 142.025-4.561 180.287-60.504" stroke="#909090"/><path d="M-333.044 204.927a1131.673 1131.673 0 01128.419-82.141c19.813-10.861 40.411-21.3 62.797-24.542 44.854-6.512 86.758 16.675 121.255 47.307a358.49 358.49 0 0126.601 26.267 660.826 660.826 0 0191.533 127.955c25.067 45.662 44.814 95.318 79.613 134.876 20.469 23.27 46.711 43.505 75.319 55.221 24.887 10.172 51.897 13.694 77.774 6.362a98.603 98.603 0 0013.537-4.89c27.035-11.945 48.322-35.104 63.038-61.117a237.622 237.622 0 0012.441-25.747c9.475-22.929 16.113-47.127 21.798-70.908 9.238-37.771 18.335-75.68 42.99-104.907 23.39-27.65 61.923-43.108 97.945-35.955 51.256 10.149 84.736 56.181 118.751 94.077a501.135 501.135 0 008.153 8.863c41.732 44.26 92.595 81.198 151.915 93.494 63.067 13.021 136.674-7.576 173.075-62.6" stroke="#959595"/><path d="M-330.551 220.721a1047.838 1047.838 0 01126.434-80.256c19.511-10.54 39.8-20.599 61.799-23.79 44.121-6.408 85.332 15.488 119.595 44.689a361.712 361.712 0 0126.456 25.067 644.256 644.256 0 0192.09 122.884c25.417 44.046 45.537 92.209 80.143 130.642 21.367 23.746 48.221 44.661 77.534 57.109 25.451 10.765 53.279 14.914 79.98 7.709a107.232 107.232 0 0013.995-4.871c27.987-12.042 49.827-35.91 65.215-62.636a253.373 253.373 0 0013.115-26.32c10.103-23.448 17.597-48.075 24.454-72.105 10.961-38.248 22.907-75.607 49.051-104.281 23.631-25.957 60.752-41.019 95.943-34.254 50.063 9.635 83.352 53.28 116.987 88.865a392.968 392.968 0 008.064 8.311c41.27 41.499 91.003 75.428 148.288 85.678 61.056 10.94 131.538-10.423 166.068-64.389" stroke="#9B9B9B"/><path d="M-328.114 236.489a972.767 972.767 0 01124.398-78.439c19.224-10.177 39.206-19.875 60.801-23.039 43.338-6.389 83.92 14.345 117.928 42.112a349.278 349.278 0 0126.354 23.852A626.579 626.579 0 0193.87 318.829c25.765 42.43 46.302 89.086 80.669 126.427 22.27 24.183 49.717 45.776 79.753 58.977 26.03 11.382 54.688 16.079 82.168 9.034a106.573 106.573 0 0014.45-4.831c28.937-12.119 51.332-36.716 67.412-64.153a273.32 273.32 0 0013.783-26.994c10.744-23.925 19.137-48.996 27.107-73.282 12.883-38.719 27.427-75.442 55.133-103.672 23.793-24.275 59.581-38.929 93.937-32.513 48.833 9.095 81.909 50.371 115.186 83.628a447.358 447.358 0 007.973 7.779c40.813 38.697 89.413 69.637 144.719 77.87 58.879 8.755 126.3-13.364 158.94-66.355" stroke="#A0A0A0"/><path d="M-325.548 252.333a902.002 902.002 0 01122.268-76.514c18.942-9.853 38.617-19.19 59.801-22.268 42.518-6.235 82.51 13.182 116.248 39.493A344.938 344.938 0 01-.946 215.726a609.908 609.908 0 0193.002 112.775c26.097 40.792 47.071 85.923 81.178 122.189 23.193 24.624 51.21 46.911 81.99 60.85 26.592 11.994 56.054 17.276 84.335 10.375a104.724 104.724 0 0014.91-4.832c29.9-12.134 52.871-37.477 69.627-65.646a302.923 302.923 0 0014.443-27.609c11.349-24.428 20.62-49.946 29.762-74.479 14.608-39.216 31.77-75.299 61.177-103.069 23.878-22.623 58.446-36.814 92.012-30.781 47.698 8.587 80.463 47.482 113.44 78.418 2.618 2.341 5.251 4.864 7.905 7.229 40.351 35.935 87.74 63.877 141.15 70.062 56.817 6.607 121.085-16.322 151.825-68.277" stroke="#A6A6A6"/><path d="M-323.047 268.069a836.836 836.836 0 01120.222-74.618c18.667-9.588 38.006-18.489 58.805-21.536 41.706-6.14 81.104 11.998 114.587 36.875 9.125 6.768 17.942 14.055 26.21 21.412a594.86 594.86 0 0193.465 107.811c26.467 39.179 47.882 82.766 81.727 117.958 24.087 25.139 52.682 48.061 84.187 62.735 27.152 12.607 57.46 18.459 86.501 11.717a107.164 107.164 0 0015.368-4.812c30.858-12.271 54.376-38.283 71.824-67.164 5.565-9.285 10.54-18.648 15.122-28.221 11.975-24.927 22.143-50.889 32.399-75.678 16.43-39.7 36.247-75.119 67.298-102.456 23.858-20.924 57.275-34.724 89.927-29.049 46.53 8.035 79.043 44.555 111.696 73.208 2.578 2.335 5.181 4.474 7.816 6.677 39.886 33.193 86.229 58.097 137.582 62.254 54.718 4.433 115.841-19.224 144.721-70.24" stroke="#ABABAB"/><path d="M-320.552 283.844a778.516 778.516 0 01118.178-72.741c18.373-9.166 37.412-17.766 57.808-20.785 40.795-6.058 79.672 10.852 112.923 34.278 9.17 6.413 17.842 13.281 26.095 20.296a578.146 578.146 0 0193.953 102.81c26.825 37.504 48.716 79.572 82.257 113.723 25.019 25.501 54.174 49.196 86.404 64.604 27.733 13.223 58.848 19.64 88.71 13.045a109.326 109.326 0 0015.842-4.771c31.811-12.368 55.881-39.088 74.019-68.66 5.763-9.42 10.963-19.134 15.745-28.861 12.6-25.427 23.666-51.832 35.055-76.875 18.254-40.185 40.553-75.001 73.322-101.855 23.79-19.472 56.101-32.615 87.923-27.327 45.333 7.539 77.597 41.665 109.931 67.995a330.227 330.227 0 007.747 6.128c39.413 30.369 84.617 52.323 133.994 54.443 52.595 2.297 110.596-22.146 137.616-72.222" stroke="#B1B1B1"/><path d="M-318.059 299.638a724.271 724.271 0 01116.134-70.864c18.071-8.845 36.801-17.064 56.811-20.033 40.081-5.951 78.215 9.742 111.259 31.68 9.062 6.018 17.767 12.471 26.01 19.104a562.257 562.257 0 0194.427 97.768c27.169 35.927 49.592 76.363 82.782 109.508 25.988 25.907 55.688 50.333 88.624 66.473 28.214 13.826 60.249 20.862 90.896 14.388a108.047 108.047 0 0016.302-4.771c32.758-12.424 57.403-39.871 76.216-70.176 5.97-9.634 11.398-19.558 16.444-29.471 13.224-25.926 25.208-52.773 37.711-78.072 20.077-40.668 44.799-74.89 79.404-101.246 23.638-17.99 54.93-30.525 85.92-25.606 44.139 7.025 76.153 38.757 108.166 62.783a305.263 305.263 0 007.659 5.576c38.972 27.591 83.039 46.595 130.42 46.674 50.476.121 105.274-25.097 130.504-74.145" stroke="#B7B7B7"/><path d="M-315.563 315.413a674.565 674.565 0 01114.191-68.994c17.767-8.504 36.128-16.351 55.793-19.285 39.288-5.854 76.804 8.598 109.576 29.08 9.012 5.632 17.69 11.681 25.944 17.915a546.185 546.185 0 0194.896 92.765c27.56 34.297 50.529 73.142 83.314 105.254 26.933 26.329 57.184 51.447 90.836 68.381 28.896 14.434 61.642 22.003 93.105 15.715a111.011 111.011 0 0016.74-4.754c33.731-12.519 58.925-40.655 78.41-71.673 6.198-9.844 11.834-19.982 17.125-30.083 13.849-26.426 26.749-53.714 40.287-79.279 21.925-41.19 48.975-74.85 85.484-100.618 23.452-16.553 53.7-28.443 83.917-23.884 42.951 6.47 74.71 35.847 106.404 57.55a192.466 192.466 0 007.575 4.985c38.513 24.809 81.452 40.785 126.837 38.824 48.276-2.046 100.149-28.003 123.409-76.065" stroke="#BCBCBC"/><path d="M-313.051 331.211a623.786 623.786 0 01112.047-67.112c17.482-8.16 35.579-15.661 54.796-18.533 38.475-5.759 75.394 7.435 107.914 26.463 8.973 5.166 17.593 10.887 25.839 16.72a530.85 530.85 0 0195.387 87.745c27.87 32.676 51.349 69.906 83.873 100.943 27.883 26.713 58.652 52.619 93.035 70.247 29.456 15.048 63.004 23.221 95.293 17.041a109.973 109.973 0 0017.196-4.716c34.681-12.595 60.429-41.46 80.627-73.187 6.385-10.06 12.251-20.427 17.786-30.718 14.472-26.904 28.27-54.637 43.005-80.487 23.721-41.617 53.077-74.858 91.547-100.012 23.194-15.186 52.608-26.343 81.913-22.162 41.757 5.955 73.264 32.958 104.617 52.355a445.241 445.241 0 007.423 4.465c38.053 22.027 79.859 35.014 123.265 31.035 46.276-4.207 94.918-30.944 116.308-78.028" stroke="#C2C2C2"/><path d="M-310.556 346.986a580.706 580.706 0 01110.001-65.215c17.192-7.778 34.987-14.958 53.798-17.782 37.666-5.684 73.984 6.271 106.261 23.786 8.895 4.836 17.498 10.075 25.756 15.509a517.778 517.778 0 0195.858 82.722c28.22 31.06 52.25 66.66 84.387 96.827 28.873 27.101 60.135 53.832 95.253 72.116 29.977 15.656 64.436 24.367 97.48 18.385a113.573 113.573 0 0017.672-4.694c35.654-12.689 61.934-42.266 82.805-74.706 6.593-10.273 12.706-20.849 18.466-31.33 15.096-27.405 29.812-55.579 45.635-81.648 25.564-42.098 57.151-74.95 97.633-99.422 22.92-13.841 51.434-24.234 79.906-20.422 40.567 5.421 71.824 30.029 102.855 47.123a303.951 303.951 0 007.489 3.953c37.516 19.236 78.231 29.219 119.697 23.227 44.158-6.382 89.674-33.885 109.184-79.911" stroke="#C7C7C7"/><path d="M-308.05 362.682a542.3 542.3 0 01107.957-63.338c16.974-7.486 34.393-14.234 52.8-17.031 36.853-5.589 72.573 5.127 104.588 21.268 8.825 4.447 17.42 9.284 25.667 14.336a502.749 502.749 0 0196.378 77.786c28.57 29.444 53.177 63.378 84.919 92.572 29.866 27.471 61.656 54.91 97.469 74.005 30.619 16.259 65.835 25.61 99.666 19.729a114.762 114.762 0 0018.132-4.694c36.584-12.769 63.456-43.05 85-76.203 6.82-10.484 13.121-21.275 19.145-31.943 15.633-27.995 31.33-56.482 48.292-82.844 27.512-42.466 61.137-75.153 103.692-98.797 22.594-12.561 50.263-22.143 77.903-18.699 39.373 4.905 70.378 27.139 101.09 41.91a267.464 267.464 0 007.322 3.391c37.135 16.464 76.678 23.453 116.129 15.419 42.039-8.559 84.431-36.807 102.081-81.913" stroke="#CDCDCD"/><path d="M-305.567 378.556a503.297 503.297 0 01105.992-61.452c16.613-7.172 33.775-13.634 51.802-16.28 36.041-5.494 71.166 3.945 102.907 18.648 8.795 4.063 17.343 8.494 25.582 13.145a490.64 490.64 0 0196.83 72.601c28.927 27.769 54.103 60.095 85.446 88.357 30.88 27.822 63.149 56.044 99.687 75.874 31.18 16.872 67.23 26.731 101.855 21.053a113.106 113.106 0 0018.607-4.652c37.554-12.844 64.978-43.833 87.216-77.717 7.009-10.7 13.537-21.702 19.786-32.56 16.346-28.403 32.931-57.416 50.908-84.046 29.301-42.995 65.095-75.441 109.775-98.189 22.253-11.325 49.111-20.051 75.896-16.958 38.202 4.374 68.876 24.223 99.267 36.69 2.395.971 4.812 1.925 7.236 2.82 36.692 13.704 75.078 17.741 112.557 7.63 39.936-10.693 79.178-39.77 94.898-83.885" stroke="#D2D2D2"/><path d="M-303.052 394.333a468.577 468.577 0 01103.751-59.6c16.327-6.81 33.189-12.81 50.792-15.43 35.234-5.439 69.655 2.787 101.243 16.05 8.726 3.674 17.246 7.701 25.497 11.953a477.728 477.728 0 0197.25 67.671c29.251 26.19 55.03 56.793 85.974 84.123 31.898 28.154 64.606 57.154 101.945 77.747 31.74 17.486 68.627 27.993 104.04 22.398a115.633 115.633 0 0019.046-4.635c38.517-13.019 66.502-44.636 89.413-79.233 7.236-10.911 13.982-22.205 20.465-33.173 16.971-28.903 34.474-58.357 53.603-85.238 31.124-43.479 68.993-75.876 115.838-97.582 21.901-10.15 47.938-17.942 73.991-15.224 37.009 3.858 67.492 21.321 97.562 31.485 2.358.786 4.759 1.558 7.145 2.287 36.232 10.923 73.493 11.912 108.991-.197 37.815-12.85 73.966-42.647 87.846-85.821" stroke="#D8D8D8"/><path d="M-300.616 410.101a435.924 435.924 0 01101.804-57.692c16.044-6.486 32.58-12.127 49.807-14.777 34.436-5.302 68.327 1.615 99.58 13.453 8.678 3.267 17.111 6.883 25.41 10.761a464.778 464.778 0 0197.773 62.715c29.601 24.574 55.978 53.493 86.503 79.888 32.935 28.489 66.116 58.311 104.112 79.55 32.328 18.202 70.024 29.095 106.222 23.781a117.564 117.564 0 0019.505-4.636c39.462-12.896 68.005-45.422 91.605-80.71 7.434-11.045 14.41-22.569 21.15-33.824 17.594-29.382 35.991-59.261 56.237-86.417 32.947-43.964 72.866-76.435 121.898-96.957 21.557-9.034 46.799-15.948 71.912-13.532 35.817 3.323 66.046 18.431 95.796 26.272a174.56 174.56 0 007.057 1.736c35.773 8.141 71.92 6.144 105.42-7.986 35.696-15.026 68.725-45.589 80.735-87.783" stroke="#DEDEDE"/><path d="M-298.064 425.903a404.426 404.426 0 0199.76-55.815 232.577 232.577 0 0148.832-14.043c33.603-5.21 66.897.449 97.896 10.853a355.724 355.724 0 0125.306 9.566 454.768 454.768 0 0198.273 57.617c29.951 22.958 56.949 50.176 87.03 75.673 33.977 28.784 67.629 59.447 106.32 81.497 32.921 18.72 71.416 30.397 108.433 25.089a119.616 119.616 0 0019.963-4.617c40.407-13.093 69.509-46.227 93.802-82.226 7.654-11.357 14.847-23.013 21.81-34.44 18.199-29.884 37.533-60.201 58.873-87.616 34.787-44.425 76.72-77.156 127.981-96.348 21.214-7.937 45.634-13.757 69.905-11.791 34.626 2.789 64.605 15.503 94.014 21.038 2.316.447 4.645.849 6.986 1.206 35.313 5.36 70.33.353 101.854-15.814 33.576-17.182 63.486-48.51 73.646-89.704" stroke="#E3E3E3"/><path d="M-295.568 441.678a376.696 376.696 0 0197.715-53.938 243.513 243.513 0 0147.891-13.265c32.791-5.115 65.488-.714 96.216 8.234a361.062 361.062 0 0125.24 8.376 443.386 443.386 0 0198.675 52.665c30.303 21.323 57.941 46.843 87.564 71.4 35.061 29.064 69.12 60.601 108.536 83.385 33.501 19.335 72.803 31.577 110.609 26.352a120.941 120.941 0 0020.419-4.578c41.377-13.168 71.034-47.03 95.999-83.742 7.862-11.57 15.282-23.438 22.556-35.104 18.843-30.381 39.076-61.142 61.528-88.813 36.592-44.912 80.54-78.062 134.044-95.742 20.899-6.897 44.463-11.667 67.882-10.072 33.445 2.336 63.179 12.616 92.267 15.848 2.302.298 4.602.456 6.899.634a162.811 162.811 0 0098.284-23.602c31.474-19.336 58.264-51.449 66.524-91.669" stroke="#E9E9E9"/><path d="M-293.055 457.475a349.3 349.3 0 0195.652-52.064 254.82 254.82 0 0146.834-12.521c31.981-5.039 64.109-1.954 94.554 5.617a330.872 330.872 0 0125.066 7.253 434.314 434.314 0 0199.233 47.593c30.672 19.709 58.877 43.482 88.108 67.207 36.107 29.32 70.593 61.733 110.754 85.254 34.042 19.946 74.188 32.778 112.788 27.756a121.722 121.722 0 0020.876-4.559c42.329-13.265 72.556-47.814 98.226-85.335 8.069-11.783 15.697-23.864 23.13-35.67 19.468-30.88 40.598-62.085 64.184-90.01 38.431-45.374 84.279-79.138 140.126-95.133a202.242 202.242 0 0165.876-8.33c32.261 1.741 61.736 9.706 90.505 10.615 2.271.074 4.547.109 6.811.082a160.651 160.651 0 0094.773-31.403c29.349-21.492 53.059-54.365 59.409-93.611" stroke="#EEE"/><path d="M-290.56 473.25a324.529 324.529 0 0193.601-50.128 269.828 269.828 0 0145.837-11.77c31.166-4.925 62.676-3.101 92.888 3.039a348.489 348.489 0 0125.049 5.99 423.755 423.755 0 0199.81 42.524c31.03 18.034 59.853 40.126 88.638 62.972 37.218 29.545 72.086 62.868 112.971 87.123 34.63 20.503 75.615 33.964 114.975 29.1a123.115 123.115 0 0021.336-4.559c43.299-13.339 74.077-48.597 100.41-86.753 8.278-11.997 16.133-24.288 23.81-36.282 20.078-31.422 42.177-63.001 66.84-91.207 40.234-45.86 88.185-80.413 146.287-94.514a233.66 233.66 0 0163.872-6.609c31.068 1.227 60.293 6.798 88.74 5.403a203.35 203.35 0 006.72-.45 160.12 160.12 0 0091.107-39.224c27.239-23.668 47.779-57.311 52.399-95.541" stroke="#F4F4F4"/><path d="M-288.064 489.025a301.382 301.382 0 0191.503-48.299 290.075 290.075 0 0144.839-11.018 292.155 292.155 0 0191.227.421 368.155 368.155 0 0124.963 4.799 415.802 415.802 0 01100.176 37.548c31.374 16.457 60.847 36.772 89.166 58.737 38.333 29.749 73.597 64.024 115.19 88.992 35.267 21.146 76.983 35.141 117.166 30.405a124.71 124.71 0 0021.811-4.517c44.23-13.419 75.582-49.403 102.588-88.273 8.504-12.207 16.567-24.712 24.484-36.855 20.695-31.862 43.658-63.93 69.473-92.386 42.019-46.35 92.039-81.895 152.213-93.927a284.537 284.537 0 0161.865-4.867c29.917.697 58.85 3.888 86.976.19 2.219-.293 4.425-.647 6.634-1.021a160.692 160.692 0 0087.695-47.012c25.135-25.842 42.545-60.252 45.195-97.516" stroke="#F9F9F9"/><path d="M-285.572 504.82c62.021-48.64 144.58-67.456 222.926-58.878 78.346 8.579 152.455 43.047 215.218 90.655 39.471 29.916 75.09 65.158 117.403 90.9 42.313 25.742 94.173 41.413 141.621 27.251 59.393-17.737 95.815-75.541 129.928-127.259 56.11-85.133 129.782-171.17 230.481-186.874 50.166-7.825 102.48 2.962 151.619-9.741 68.16-17.621 120.606-83.875 122.036-154.302" stroke="#fff"/></g></svg>