<svg width="1058" height="1284" fill="none" xmlns="http://www.w3.org/2000/svg"><g style="mix-blend-mode:multiply" stroke-miterlimit="10"><path d="M1019.03 393.084a1317.771 1317.771 0 01-64.128 144.357c-10.7 20.809-22.439 41.763-40.047 57.213-44.873 39.515-113.745 31.925-171.069 14.725a695.808 695.808 0 01-151.174-66.038c-47.107-27.644-91.783-61.238-144.033-77.14-52.251-15.903-116.252-9.531-150.99 32.659-20.676 25.08-27.876 59.312-25.276 91.713 2.6 32.401 14.152 63.341 27.616 93.107 15.411 33.882 33.954 68.451 32.1 105.738-1.912 38.501-28.014 74.726-63.898 88.726-51.054 19.92-107.318-3.909-159.496-20.682-66.326-21.21-139.194-30.539-205.151-8.309-65.958 22.23-122.48 81.85-125.044 151.447" stroke="#fff"/><path d="M1008.32 381.247a1244.81 1244.81 0 01-62.887 140.976c-10.632 20.277-22.103 40.706-39.251 55.855-43.848 38.707-110.539 32.501-166.398 16.811a682.983 682.983 0 01-39.422-12.397 675.182 675.182 0 01-108.352-48.856c-46.16-26.001-90.059-57.713-141.192-72.669-51.133-14.957-111.962-7.593-147.892 31.14a128.845 128.845 0 00-29.295 49.12 143.487 143.487 0 00-6.5 38.867c-.164 6.146.013 12.296.531 18.422 2.09 24.769 10.167 49.795 19.438 73.794a570.64 570.64 0 002.799 7.108c14.583 36.877 30.129 74.659 26.243 113.264-3.744 37.202-28.193 72.401-63.19 86.196-49.766 19.706-104.496-2.382-155.154-17.297a492.214 492.214 0 00-12.061-3.406c-60.994-16.355-126.357-21.388-185.475.087-62.986 22.916-116.585 81.434-118.01 149.198" stroke="#F9F9F9"/><path d="M997.621 369.372a1168.034 1168.034 0 01-61.672 137.591c-10.445 19.761-21.743 39.632-38.472 54.475-42.725 37.912-107.325 33.018-161.747 18.895a649.77 649.77 0 01-38.434-11.228 656.306 656.306 0 01-105.905-45.196c-45.231-24.219-88.349-54.088-138.369-68.22-50.019-14.132-107.979-5.756-144.777 29.642-14.836 14.288-27.319 28.641-35.24 46.068a135.797 135.797 0 00-11.055 38.196 140.456 140.456 0 00-1.277 18.948c-.017 25.897 7.706 53.038 16.506 78.978.866 2.574 1.755 5.131 2.624 7.685 13.762 39.813 26.414 80.623 20.353 120.727-5.347 35.834-28.334 69.941-62.419 83.654-48.538 19.485-101.709-.739-150.852-13.917a525.908 525.908 0 00-11.618-2.968c-59.104-14.269-121.87-17.424-178.23 4.69-60.065 23.534-110.529 81.018-111.072 146.918" stroke="#F4F4F4"/><path d="M986.916 357.516a1097.423 1097.423 0 01-60.454 134.206c-10.257 19.245-21.405 38.575-37.68 53.157-41.624 37.134-104.112 33.534-157.079 21.002a617.485 617.485 0 01-37.443-10.079 633.207 633.207 0 01-103.496-41.562c-44.294-22.496-86.63-50.523-135.507-63.746-48.878-13.223-104.356-4.085-141.682 28.142-16.242 14.026-31.052 26.416-41.164 42.998a129.438 129.438 0 00-15.629 37.523 127.167 127.167 0 00-3.088 19.495c-2.124 27.024 5.252 56.382 13.57 84.18l2.462 8.325c12.906 42.865 22.796 86.459 14.545 128.34-6.729 34.454-28.505 67.557-61.69 81.107-47.187 19.1-98.826.795-146.496-10.63-3.75-.913-7.52-1.769-11.31-2.568-57.211-12.202-117.405-13.443-170.982 9.272-57.15 24.193-104.477 80.622-103.956 144.632" stroke="#EEE"/><path d="M976.191 345.657a1030.866 1030.866 0 01-59.195 130.827c-10.107 18.704-21.066 37.498-36.913 51.715-40.481 36.342-100.798 34.045-152.412 23.109a611.22 611.22 0 01-36.451-8.93 611.37 611.37 0 01-101.106-37.929c-43.318-20.769-84.915-46.938-132.692-59.238-47.777-12.3-100.991-2.568-138.567 26.645-17.781 13.706-34.804 24.188-47.087 39.928a124.593 124.593 0 00-20.2 36.83 115.808 115.808 0 00-4.845 20.087c-4.231 28.153 2.783 59.685 10.607 89.441l2.336 8.829c12.058 45.856 19.17 92.212 8.685 135.886-7.919 32.999-28.673 65.153-60.939 78.562-45.925 19.084-96.135 2.565-142.192-7.11a510.827 510.827 0 00-10.945-2.14c-55.3-10.133-112.917-9.478-163.715 13.857-54.157 24.721-98.521 80.053-96.931 142.304" stroke="#E9E9E9"/><path d="M965.485 333.801a962.774 962.774 0 01-57.973 127.423c-9.926 18.227-20.73 36.441-36.12 50.377-39.357 35.547-97.66 34.531-147.738 25.175a550.714 550.714 0 01-35.463-7.761 592.163 592.163 0 01-98.638-34.286c-42.418-19.071-83.199-43.353-129.818-54.862-46.619-11.51-97.865-1.222-135.449 25.127-19.336 13.505-38.559 21.98-53.036 36.896a121.876 121.876 0 00-24.695 36.166 108.091 108.091 0 00-6.671 20.591c-6.327 29.202.337 62.971 7.742 94.574.73 3.11 1.458 6.24 2.183 9.389 11.209 48.849 15.713 97.889 2.828 143.413-8.945 31.645-28.844 62.769-60.209 76.015-44.639 18.89-93.328 4.21-137.855-3.686a479.826 479.826 0 00-10.577-1.731c-53.41-8.047-108.431-5.515-156.428 18.444-51.32 25.509-92.549 79.807-89.934 140.175" stroke="#E3E3E3"/><path d="M954.779 321.945a902.365 902.365 0 01-56.754 124.038c-9.755 17.689-20.353 35.389-35.321 49-38.234 34.751-94.446 35.048-143.09 27.279a573.557 573.557 0 01-34.473-6.592 575.268 575.268 0 01-96.185-30.686c-41.475-17.387-81.481-39.787-127.004-50.334-45.524-10.546-94.971-.086-132.332 23.61-20.988 13.291-42.291 19.755-58.962 33.846a120.643 120.643 0 00-29.345 35.463 104.508 104.508 0 00-8.521 21.132c-8.444 30.408-2.13 66.253 4.749 99.749.691 3.312 1.36 6.641 2.031 9.951 10.376 51.883 12.357 103.558-3.012 150.962-9.925 30.256-29.035 60.382-59.54 73.479-43.371 18.674-90.54 5.853-133.535-.283l-10.21-1.324c-51.498-5.977-103.954-1.471-149.22 23.022-48.266 26.185-86.555 79.403-82.9 137.923" stroke="#DEDEDE"/><path d="M944.015 310.082a844.302 844.302 0 01-55.535 120.653c-9.588 17.17-19.993 34.315-34.514 47.563-37.111 33.957-91.233 35.565-138.423 29.386a537.465 537.465 0 01-33.502-5.445 557.187 557.187 0 01-93.76-27.01c-40.541-15.644-79.763-36.222-124.085-45.852-44.322-9.63-96.59-5.34-129.237 22.11-24.668 8.81-46.045 17.547-64.904 30.773a122.313 122.313 0 00-33.919 34.791 101.257 101.257 0 00-10.313 21.68c-10.551 31.536-4.579 69.558 1.814 104.952l1.878 10.512c9.528 54.875 9.117 109.262-8.871 158.508-10.546 28.874-29.184 57.981-58.751 70.939-42.081 18.442-87.733 7.498-129.192 3.103-3.266-.424-6.558-.651-9.886-.902-49.627-3.893-99.476 2.412-141.994 27.621-45.309 26.829-80.561 79-75.886 135.666" stroke="#D8D8D8"/><path d="M933.366 298.253a789.194 789.194 0 01-54.294 117.252c-9.421 16.651-19.654 33.238-33.743 46.242-35.99 33.181-88.018 36.082-133.771 31.47-10.861-1.089-21.68-2.511-32.501-4.215a537.374 537.374 0 01-91.285-23.426c-39.604-13.922-78.047-32.637-121.322-41.391-43.276-8.754-93.769-4.733-126.122 20.613-26.431 7.901-49.778 15.321-70.831 27.723a123.943 123.943 0 00-38.43 34.105 100.248 100.248 0 00-12.125 22.226c-12.657 32.664-7.045 72.841-1.138 110.134.6 3.7 1.161 7.396 1.723 11.091 8.699 57.87 6.029 114.867-14.709 166.038-11.153 27.535-29.355 55.597-58.001 68.395-40.795 18.247-84.947 9.159-124.875 6.524a299.233 299.233 0 00-9.44-.484c-47.773-1.832-94.989 6.377-134.724 32.187-42.374 27.49-74.587 78.593-68.872 133.413" stroke="#D2D2D2"/><path d="M922.64 286.394a736.061 736.061 0 01-53.052 113.851c-9.256 16.152-19.299 32.203-32.969 44.901-34.844 32.369-84.763 36.584-129.081 33.559a496.31 496.31 0 01-31.601-3.137 518.216 518.216 0 01-88.905-19.715c-38.645-12.216-76.25-29.062-118.459-36.937-42.209-7.875-90.966-4.13-123.024 19.093-28.179 7.034-53.508 13.077-76.757 24.673a127.778 127.778 0 00-43.063 33.425 99.749 99.749 0 00-13.916 22.773c-14.784 33.79-9.533 76.142-4.093 115.336.538 3.872.995 7.754 1.569 11.652 7.852 60.862 3.061 120.486-20.494 173.473-11.682 26.225-29.525 53.213-57.272 65.867-39.508 18.034-82.158 10.783-120.556 9.927a296.32 296.32 0 00-9.072-.076c-45.825.262-90.494 10.282-127.477 36.769-39.419 28.153-68.612 78.192-61.839 131.162" stroke="#CDCDCD"/><path d="M911.935 274.539a686.321 686.321 0 01-51.833 110.465c-9.089 15.634-18.94 31.129-32.17 43.524-33.731 31.653-81.569 37.098-124.433 35.663-10.197-.348-20.368-1-30.513-1.955a501.441 501.441 0 01-86.476-16.078c-37.729-10.496-74.712-25.499-115.619-32.465-40.906-6.966-88.161-3.546-119.909 17.596-29.961 6.122-57.285 10.885-82.702 21.619-17.392 7.312-34.33 17.905-47.635 32.732a100.51 100.51 0 00-15.727 23.32c-16.891 34.917-11.98 79.426-7.028 120.538.492 4.067.946 8.129 1.419 12.193 7.004 63.855.231 126.264-26.426 181.11-12.114 24.929-29.694 50.811-56.52 63.304-38.32 17.828-79.372 12.444-116.235 13.328a311.34 311.34 0 00-8.708.352c-43.91 2.312-86.014 14.305-120.229 41.352-36.464 28.816-62.619 77.783-54.737 129.003" stroke="#C7C7C7"/><path d="M901.23 262.683a637.86 637.86 0 01-50.595 107.083c-8.919 15.096-18.603 30.072-31.469 42.134-32.601 30.798-78.353 37.595-119.782 37.747-9.85.057-19.691-.212-29.523-.806a483.857 483.857 0 01-84.047-12.44c-36.771-8.771-72.897-21.902-112.777-27.994-39.88-6.092-85.339-2.94-116.795 16.098-31.731 5.272-61.017 8.66-88.623 18.53-18.878 6.739-37.517 17.032-52.169 32.064a101.232 101.232 0 00-17.538 23.866c-18.995 36.025-14.446 82.709-9.959 125.702.451 4.242.896 8.523 1.262 12.793 6.155 66.848-2.444 132.082-32.283 188.637-12.492 23.679-29.865 48.426-55.797 60.815-36.954 17.625-76.565 14.09-111.896 16.734-2.786.199-5.56.459-8.338.74-42.022 4.418-81.55 18.286-112.986 45.974-33.505 29.44-56.623 77.36-47.79 126.64" stroke="#C2C2C2"/><path d="M890.524 250.827a592.878 592.878 0 01-49.452 103.669c-8.751 14.576-18.243 28.997-30.592 40.766-31.469 29.944-75.138 38.112-115.192 39.843-9.51.422-19.026.522-28.546.302a470.346 470.346 0 01-81.596-8.82c-35.854-7.051-71.179-18.337-109.936-23.522-38.757-5.186-82.537-2.337-113.699 14.598-33.497 4.383-64.848 6.422-94.572 15.497-20.386 6.183-40.65 16.205-56.782 31.386a103.435 103.435 0 00-19.33 24.413c-21.101 37.153-16.892 85.995-12.972 130.896.385 4.433.846 8.896 1.109 13.354 5.326 69.842-4.952 138-38.143 196.183-12.795 22.459-29.972 46.01-55.042 58.231-35.683 17.389-73.777 15.732-107.568 20.076-2.664.336-5.336.73-7.97 1.149-40.114 6.507-77.064 22.251-105.72 50.558-30.565 30.062-50.649 76.954-40.796 124.384" stroke="#BCBCBC"/><path d="M879.818 238.971a549.514 549.514 0 01-48.153 100.294c-8.568 14.081-17.887 27.943-29.799 39.428-30.354 29.209-71.922 38.61-110.46 41.919a417.82 417.82 0 01-27.545 1.531 456.04 456.04 0 01-79.189-5.164c-34.896-5.346-69.462-14.772-107.093-19.071-37.632-4.3-77.617 3.845-110.582 13.081-34.111 9.587-68.563 4.219-100.5 12.467-21.892 5.607-43.798 15.336-61.353 30.692a105.893 105.893 0 00-21.22 24.949c-23.188 38.284-19.361 89.298-15.841 136.048.361 4.624.686 9.263.976 13.917 4.555 72.865-7.315 144.039-43.983 203.732-13.082 21.281-30.202 43.619-54.331 55.681-34.38 17.218-70.97 17.377-103.236 23.541a290.983 290.983 0 00-7.606 1.576c-38.22 8.573-72.576 26.215-98.472 55.141-27.615 30.764-44.655 76.547-33.841 122.127" stroke="#B7B7B7"/><path d="M869.096 227.092a507.105 507.105 0 01-46.918 96.933c-8.419 13.559-17.49 26.893-28.94 38.058-29.233 28.433-68.709 39.126-105.734 44.032a418.814 418.814 0 01-26.573 2.679 440.677 440.677 0 01-76.741-1.525c-33.978-3.625-67.745-11.187-104.251-14.599-36.507-3.413-75.27 3.949-107.526 11.575-36.119 8.567-72.276 1.997-106.424 9.397-23.37 4.976-46.929 14.49-65.907 30.023a108.615 108.615 0 00-22.952 25.505c-25.296 39.411-21.808 92.582-18.782 141.291.298 4.802.57 9.641.804 14.474 3.647 75.849-9.48 150.243-49.82 211.262-13.335 20.147-30.373 41.235-53.577 53.097-33.112 17.002-68.201 19.017-98.916 26.943-2.441.624-4.859 1.371-7.239 1.983-36.31 10.663-68.088 30.18-91.224 59.724-24.64 31.426-38.661 76.146-26.748 119.886" stroke="#B1B1B1"/><path d="M858.388 215.256a468.301 468.301 0 01-45.676 93.531c-8.24 12.942-17.188 25.792-28.241 36.668-28.09 27.64-65.462 39.547-101.124 46.131a402.719 402.719 0 01-25.563 3.83 426.745 426.745 0 01-74.291 2.115c-33.022-1.9-66.03-7.601-101.411-10.128-35.381-2.526-72.873 3.981-104.352 10.086-38.146 7.383-75.989-.226-112.369 6.345-24.887 4.478-50.08 13.64-70.499 29.326a112.185 112.185 0 00-24.763 26.051c-27.394 40.48-24.276 95.885-21.714 146.475a976.7 976.7 0 01.648 15.055c2.8 78.841-11.449 156.633-55.68 218.808-13.551 19.038-30.541 38.831-52.853 50.608-31.824 16.789-65.394 20.662-94.594 30.326a248.307 248.307 0 00-6.854 2.413c-34.419 12.73-63.602 34.145-83.957 64.309-21.703 32.075-32.697 75.815-19.722 117.535" stroke="#ABABAB"/><path d="M847.683 203.4a430.854 430.854 0 01-44.458 90.146 207.978 207.978 0 01-27.441 35.291c-26.957 26.767-62.267 40.201-96.513 48.21a362.742 362.742 0 01-24.653 4.989 414.899 414.899 0 01-71.904 5.767c-32.087-.158-64.29-4.053-98.548-5.673-34.258-1.621-70.528 3.944-101.257 8.585-40.13 6.025-79.701-2.449-118.292 3.275-26.395 3.923-53.231 12.792-75.073 28.653a115.13 115.13 0 00-26.571 26.577c-29.411 41.68-26.743 99.168-24.65 151.679.21 5.171.372 10.396.496 15.615 1.951 81.834-13.158 163.177-61.537 226.335-13.756 17.991-30.732 36.445-52.104 48.064-30.555 16.573-62.609 22.324-90.276 33.747a179.2 179.2 0 00-6.487 2.822c-32.529 14.816-59.115 38.108-76.71 68.891-18.748 32.737-26.693 75.337-12.701 115.377" stroke="#A6A6A6"/><path d="M836.977 191.544a396.46 396.46 0 01-43.255 86.74 219.437 219.437 0 01-26.668 33.949c-25.843 26.051-59.045 40.66-91.803 50.302a362.724 362.724 0 01-23.602 6.146 404.84 404.84 0 01-69.456 9.408c-31.145 1.525-62.574-.469-95.726-1.205-33.153-.737-67.956 3.857-98.14 7.068-42.099 4.549-83.416-4.652-124.24.242-27.879 3.33-56.36 11.926-79.644 27.961a118.52 118.52 0 00-28.366 27.144c-31.556 42.803-29.191 102.474-27.602 156.86.159 5.358.279 10.758.36 16.199 1.101 84.845-14.857 169.961-67.394 233.861-13.945 16.985-30.858 34.026-51.375 45.536-29.248 16.363-59.8 23.95-85.937 37.152a729.698 729.698 0 00-6.118 3.21 163.055 163.055 0 00-69.54 73.463c-15.678 33.43-20.604 74.97-5.557 113.2" stroke="#A0A0A0"/><path d="M826.269 179.708a363.986 363.986 0 01-41.995 83.34 231.923 231.923 0 01-25.868 32.572c-24.72 25.256-55.829 41.157-87.135 52.409a373.92 373.92 0 01-22.611 7.295 394.616 394.616 0 01-67.047 13.042c-30.188 3.251-60.858 3.117-92.865 3.269-32.008.153-65.331 3.818-95.045 5.569-44.01 2.779-87.227-6.888-130.159-2.868-29.367 2.777-59.453 11.105-84.217 27.288a122.137 122.137 0 00-30.162 27.732c-33.706 43.945-31.717 105.749-30.558 162.061.12 5.56.175 11.151.208 16.759.272 87.841-16.271 177.003-73.313 241.4-14.079 16.007-31.032 31.662-50.623 42.972-27.982 16.166-57.014 25.611-81.617 40.554-1.934 1.191-3.872 2.4-5.755 3.657a160.962 160.962 0 00-62.128 78.011c-12.839 34.06-14.725 74.52 1.346 110.87" stroke="#9B9B9B"/><path d="M815.544 167.849a331.358 331.358 0 01-40.756 79.959 246.26 246.26 0 01-25.07 31.194c-23.599 24.481-52.615 41.674-82.484 54.493a308.84 308.84 0 01-21.625 8.484 386.562 386.562 0 01-64.595 16.662c-29.271 4.971-59.143 6.702-90.047 7.758-30.904 1.056-62.77 3.509-91.932 4.091-45.882.855-90.96-9.113-136.09-5.878-30.873 2.201-62.641 10.23-88.778 26.516a125.966 125.966 0 00-31.969 28.238c-35.851 45.068-34.144 109.037-33.49 167.245.055 5.751.087 11.52.055 17.32-.578 90.852-17.543 184.343-79.114 248.953a239.67 239.67 0 01-49.895 40.445c-26.694 15.953-54.226 27.254-77.284 44.018a155.237 155.237 0 00-5.389 4.065 160.115 160.115 0 00-54.946 82.638c-9.907 34.75-8.752 74.12 8.34 108.62" stroke="#959595"/><path d="M804.838 155.993a302.782 302.782 0 01-39.536 76.574 268.26 268.26 0 01-24.291 29.815c-22.456 23.688-49.48 42.18-77.796 56.601a348.694 348.694 0 01-20.654 9.631 382.126 382.126 0 01-62.169 20.32 529.676 529.676 0 01-87.105 12.222c-29.596 1.926-60.059 3.28-88.804 2.495-47.691-1.241-94.732-11.344-142.036-8.931-32.378 1.625-65.789 9.362-93.382 25.919a129.176 129.176 0 00-33.738 28.77c-37.997 46.19-36.573 112.344-36.366 172.455a1203.19 1203.19 0 01-.117 17.878c-1.412 93.887-18.615 191.991-84.934 256.505a290.526 290.526 0 01-49.165 37.898c-25.426 15.737-51.438 28.896-72.957 47.361a151.634 151.634 0 00-5.021 4.473 160.702 160.702 0 00-47.699 87.221c-6.947 35.37-2.755 73.7 15.373 106.37" stroke="#909090"/><path d="M794.133 144.137c-25.401 74.624-84.287 135.499-154.6 171.115-70.314 35.615-151.201 47.243-229.797 41.674-49.4-3.483-98.469-13.529-147.962-11.981-49.492 1.548-101.516 16.758-133.524 54.559-40.144 47.313-39 115.632-39.36 177.652-.545 102.005-15.271 214.18-91.054 282.411-37.751 33.953-87.458 53.507-121.709 91.017-47.49 51.986-55.243 136.146-18.044 195.926" stroke="#8A8A8A"/></g><g style="mix-blend-mode:multiply" stroke-miterlimit="10"><path d="M-338.055 199.374a1322.393 1322.393 0 01132.529-85.911c20.38-11.528 41.603-22.626 64.792-26.044 59.237-8.51 112.743 35.355 151.315 81.147a696.931 696.931 0 0190.592 137.841c24.364 48.913 43.458 101.446 78.538 143.323 35.079 41.876 92.189 71.518 144.3 55.178 31.009-9.729 55.741-34.462 71.249-63.034 15.507-28.572 22.757-60.876 27.627-93.029 5.553-36.808 8.974-75.994 30.82-106.085 22.597-31.095 64.148-47.303 101.954-39.419 53.639 11.219 87.682 62.008 122.281 104.502 43.97 53.998 99.907 101.641 167.323 119.07 67.417 17.428 147.24-1.582 187.395-58.522" stroke="#8A8A8A"/><path d="M-335.539 215.151a1218.445 1218.445 0 01130.482-84.015c20.098-11.204 41.005-22.023 63.794-25.292 45.747-6.597 88.171 17.818 122.912 49.963a363.627 363.627 0 0126.625 27.471 679.124 679.124 0 0191.07 132.919c24.721 47.238 44.112 98.409 79.064 139.108 19.606 22.817 45.237 42.373 73.1 53.352 24.307 9.556 50.485 12.55 75.588 5.018a100.33 100.33 0 0013.02-4.917c26.085-11.869 46.801-34.321 60.824-59.623a212.133 212.133 0 0011.781-25.132c8.909-22.422 14.527-46.152 19.162-69.709 7.396-37.289 13.7-75.881 36.908-105.516 23.207-29.634 63.074-45.2 99.95-37.696 52.432 10.802 86.239 59.098 120.516 99.289a510.089 510.089 0 008.239 9.435c42.172 47.039 94.188 86.969 155.427 101.275 65.279 15.25 142.025-4.561 180.287-60.504" stroke="#909090"/><path d="M-333.044 230.927a1131.673 1131.673 0 01128.419-82.141c19.813-10.861 40.411-21.3 62.797-24.542 44.854-6.512 86.758 16.675 121.255 47.307a358.49 358.49 0 0126.601 26.267 660.826 660.826 0 0191.533 127.955c25.067 45.662 44.814 95.318 79.613 134.876 20.469 23.27 46.711 43.505 75.319 55.221 24.887 10.172 51.897 13.694 77.774 6.362a98.603 98.603 0 0013.537-4.89c27.035-11.945 48.322-35.104 63.038-61.117a237.622 237.622 0 0012.441-25.747c9.475-22.929 16.113-47.127 21.798-70.908 9.238-37.771 18.335-75.68 42.99-104.907 23.39-27.65 61.923-43.108 97.945-35.955 51.256 10.149 84.736 56.181 118.751 94.077a501.135 501.135 0 008.153 8.863c41.732 44.26 92.595 81.198 151.915 93.494 63.067 13.021 136.674-7.576 173.075-62.6" stroke="#959595"/><path d="M-330.551 246.721a1047.838 1047.838 0 01126.434-80.256c19.511-10.54 39.8-20.599 61.799-23.79 44.121-6.408 85.332 15.488 119.595 44.689a361.712 361.712 0 0126.456 25.067 644.256 644.256 0 0192.09 122.884c25.417 44.046 45.537 92.209 80.143 130.642 21.367 23.746 48.221 44.661 77.534 57.109 25.451 10.765 53.279 14.914 79.98 7.709a107.232 107.232 0 0013.995-4.871c27.987-12.042 49.827-35.91 65.215-62.636a253.373 253.373 0 0013.115-26.32c10.103-23.448 17.597-48.075 24.454-72.105 10.961-38.248 22.907-75.607 49.051-104.281 23.631-25.957 60.752-41.019 95.943-34.254 50.063 9.635 83.352 53.28 116.987 88.865a392.968 392.968 0 008.064 8.311c41.27 41.499 91.003 75.428 148.288 85.678 61.056 10.94 131.538-10.423 166.068-64.389" stroke="#9B9B9B"/><path d="M-328.114 262.489a972.767 972.767 0 01124.398-78.439c19.224-10.177 39.206-19.875 60.801-23.039 43.338-6.389 83.92 14.345 117.928 42.112a349.278 349.278 0 0126.354 23.852A626.579 626.579 0 0193.87 344.829c25.765 42.43 46.302 89.086 80.669 126.427 22.27 24.183 49.717 45.776 79.753 58.977 26.03 11.382 54.688 16.079 82.168 9.034a106.573 106.573 0 0014.45-4.831c28.937-12.119 51.332-36.716 67.412-64.153a273.32 273.32 0 0013.783-26.994c10.744-23.925 19.137-48.996 27.107-73.282 12.883-38.719 27.427-75.442 55.133-103.672 23.793-24.275 59.581-38.929 93.937-32.513 48.833 9.095 81.909 50.371 115.186 83.628a447.358 447.358 0 007.973 7.779c40.813 38.697 89.413 69.637 144.719 77.87 58.879 8.755 126.3-13.364 158.94-66.355" stroke="#A0A0A0"/><path d="M-325.548 278.333a902.002 902.002 0 01122.268-76.514c18.942-9.853 38.617-19.19 59.801-22.268 42.518-6.235 82.51 13.182 116.248 39.493A344.938 344.938 0 01-.946 241.726a609.908 609.908 0 0193.002 112.775c26.097 40.792 47.071 85.923 81.178 122.189 23.193 24.624 51.21 46.911 81.99 60.85 26.592 11.994 56.054 17.276 84.335 10.375a104.724 104.724 0 0014.91-4.832c29.9-12.134 52.871-37.477 69.627-65.646a302.923 302.923 0 0014.443-27.609c11.349-24.428 20.62-49.946 29.762-74.479 14.608-39.216 31.77-75.299 61.177-103.069 23.878-22.623 58.446-36.814 92.012-30.781 47.698 8.587 80.463 47.482 113.44 78.418 2.618 2.341 5.251 4.864 7.905 7.229 40.351 35.935 87.74 63.877 141.15 70.062 56.817 6.607 121.085-16.322 151.825-68.277" stroke="#A6A6A6"/><path d="M-323.047 294.069a836.836 836.836 0 01120.222-74.618c18.667-9.588 38.006-18.489 58.805-21.536 41.706-6.14 81.104 11.998 114.587 36.875 9.125 6.768 17.942 14.055 26.21 21.412a594.86 594.86 0 0193.465 107.811c26.467 39.179 47.882 82.766 81.727 117.958 24.087 25.139 52.682 48.061 84.187 62.735 27.152 12.607 57.46 18.459 86.501 11.717a107.164 107.164 0 0015.368-4.812c30.858-12.271 54.376-38.283 71.824-67.164 5.565-9.285 10.54-18.648 15.122-28.221 11.975-24.927 22.143-50.889 32.399-75.678 16.43-39.7 36.247-75.119 67.298-102.456 23.858-20.924 57.275-34.724 89.927-29.049 46.53 8.035 79.043 44.555 111.696 73.208 2.578 2.335 5.181 4.474 7.816 6.677 39.886 33.193 86.229 58.097 137.582 62.254 54.718 4.433 115.841-19.224 144.721-70.24" stroke="#ABABAB"/><path d="M-320.552 309.844a778.516 778.516 0 01118.178-72.741c18.373-9.166 37.412-17.766 57.808-20.785 40.795-6.058 79.672 10.852 112.923 34.278 9.17 6.413 17.842 13.281 26.095 20.296a578.146 578.146 0 0193.953 102.81c26.825 37.504 48.716 79.572 82.257 113.723 25.019 25.501 54.174 49.196 86.404 64.604 27.733 13.223 58.848 19.64 88.71 13.045a109.326 109.326 0 0015.842-4.771c31.811-12.368 55.881-39.088 74.019-68.66 5.763-9.42 10.963-19.134 15.745-28.861 12.6-25.427 23.666-51.832 35.055-76.875 18.254-40.185 40.553-75.001 73.322-101.855 23.79-19.472 56.101-32.615 87.923-27.327 45.333 7.539 77.597 41.665 109.931 67.995a330.227 330.227 0 007.747 6.128c39.413 30.369 84.617 52.323 133.994 54.443 52.595 2.297 110.596-22.146 137.616-72.222" stroke="#B1B1B1"/><path d="M-318.059 325.638a724.271 724.271 0 01116.134-70.864c18.071-8.845 36.801-17.064 56.811-20.033 40.081-5.951 78.215 9.742 111.259 31.68 9.062 6.018 17.767 12.471 26.01 19.104a562.257 562.257 0 0194.427 97.768c27.169 35.927 49.592 76.363 82.782 109.508 25.988 25.907 55.688 50.333 88.624 66.473 28.214 13.826 60.249 20.862 90.896 14.388a108.047 108.047 0 0016.302-4.771c32.758-12.424 57.403-39.871 76.216-70.176 5.97-9.634 11.398-19.558 16.444-29.471 13.224-25.926 25.208-52.773 37.711-78.072 20.077-40.668 44.799-74.89 79.404-101.246 23.638-17.99 54.93-30.525 85.92-25.606 44.139 7.025 76.153 38.757 108.166 62.783a305.263 305.263 0 007.659 5.576c38.972 27.591 83.039 46.595 130.42 46.674 50.476.121 105.274-25.097 130.504-74.145" stroke="#B7B7B7"/><path d="M-315.563 341.413a674.565 674.565 0 01114.191-68.994c17.767-8.504 36.128-16.351 55.793-19.285 39.288-5.854 76.804 8.598 109.576 29.08 9.012 5.632 17.69 11.681 25.944 17.915a546.185 546.185 0 0194.896 92.765c27.56 34.297 50.529 73.142 83.314 105.254 26.933 26.329 57.184 51.447 90.836 68.381 28.896 14.434 61.642 22.003 93.105 15.715a111.011 111.011 0 0016.74-4.754c33.731-12.519 58.925-40.655 78.41-71.673 6.198-9.844 11.834-19.982 17.125-30.083 13.849-26.426 26.749-53.714 40.287-79.279 21.925-41.19 48.975-74.85 85.484-100.618 23.452-16.553 53.7-28.443 83.917-23.884 42.951 6.47 74.71 35.847 106.404 57.55a192.466 192.466 0 007.575 4.985c38.513 24.809 81.452 40.785 126.837 38.824 48.276-2.046 100.149-28.003 123.409-76.065" stroke="#BCBCBC"/><path d="M-313.051 357.211a623.786 623.786 0 01112.047-67.112c17.482-8.16 35.579-15.661 54.796-18.533 38.475-5.759 75.394 7.435 107.914 26.463 8.973 5.166 17.593 10.887 25.839 16.72a530.85 530.85 0 0195.387 87.745c27.87 32.676 51.349 69.906 83.873 100.943 27.883 26.713 58.652 52.619 93.035 70.247 29.456 15.048 63.004 23.221 95.293 17.041a109.973 109.973 0 0017.196-4.716c34.681-12.595 60.429-41.46 80.627-73.187 6.385-10.06 12.251-20.427 17.786-30.718 14.472-26.904 28.27-54.637 43.005-80.487 23.721-41.617 53.077-74.858 91.547-100.012 23.194-15.186 52.608-26.343 81.913-22.162 41.757 5.955 73.264 32.958 104.617 52.355a445.241 445.241 0 007.423 4.465c38.053 22.027 79.859 35.014 123.265 31.035 46.276-4.207 94.918-30.944 116.308-78.028" stroke="#C2C2C2"/><path d="M-310.556 372.986a580.706 580.706 0 01110.001-65.215c17.192-7.778 34.987-14.958 53.798-17.782 37.666-5.684 73.984 6.271 106.261 23.786 8.895 4.836 17.498 10.075 25.756 15.509a517.778 517.778 0 0195.858 82.722c28.22 31.06 52.25 66.66 84.387 96.827 28.873 27.101 60.135 53.832 95.253 72.116 29.977 15.656 64.436 24.367 97.48 18.385a113.573 113.573 0 0017.672-4.694c35.654-12.689 61.934-42.266 82.805-74.706 6.593-10.273 12.706-20.849 18.466-31.33 15.096-27.405 29.812-55.579 45.635-81.648 25.564-42.098 57.151-74.95 97.633-99.422 22.92-13.841 51.434-24.234 79.906-20.422 40.567 5.421 71.824 30.029 102.855 47.123a303.951 303.951 0 007.489 3.953c37.516 19.236 78.231 29.219 119.697 23.227 44.158-6.382 89.674-33.885 109.184-79.911" stroke="#C7C7C7"/><path d="M-308.05 388.682a542.3 542.3 0 01107.957-63.338c16.974-7.486 34.393-14.234 52.8-17.031 36.853-5.589 72.573 5.127 104.588 21.268 8.825 4.447 17.42 9.284 25.667 14.336a502.749 502.749 0 0196.378 77.786c28.57 29.444 53.177 63.378 84.919 92.572 29.866 27.471 61.656 54.91 97.469 74.005 30.619 16.259 65.835 25.61 99.666 19.729a114.762 114.762 0 0018.132-4.694c36.584-12.769 63.456-43.05 85-76.203 6.82-10.484 13.121-21.275 19.145-31.943 15.633-27.995 31.33-56.482 48.292-82.844 27.512-42.466 61.137-75.153 103.692-98.797 22.594-12.561 50.263-22.143 77.903-18.699 39.373 4.905 70.378 27.139 101.09 41.91a267.464 267.464 0 007.322 3.391c37.135 16.464 76.678 23.453 116.129 15.419 42.039-8.559 84.431-36.807 102.081-81.913" stroke="#CDCDCD"/><path d="M-305.567 404.556a503.297 503.297 0 01105.992-61.452c16.613-7.172 33.775-13.634 51.802-16.28 36.041-5.494 71.166 3.945 102.907 18.648 8.795 4.063 17.343 8.494 25.582 13.145a490.64 490.64 0 0196.83 72.601c28.927 27.769 54.103 60.095 85.446 88.357 30.88 27.822 63.149 56.044 99.687 75.874 31.18 16.872 67.23 26.731 101.855 21.053a113.106 113.106 0 0018.607-4.652c37.554-12.844 64.978-43.833 87.216-77.717 7.009-10.7 13.537-21.702 19.786-32.56 16.346-28.403 32.931-57.416 50.908-84.046 29.301-42.995 65.095-75.441 109.775-98.189 22.253-11.325 49.111-20.051 75.896-16.958 38.202 4.374 68.876 24.223 99.267 36.69 2.395.971 4.812 1.925 7.236 2.82 36.692 13.704 75.078 17.741 112.557 7.63 39.936-10.693 79.178-39.77 94.898-83.885" stroke="#D2D2D2"/><path d="M-303.052 420.333a468.577 468.577 0 01103.751-59.6c16.327-6.81 33.189-12.81 50.792-15.43 35.234-5.439 69.655 2.787 101.243 16.05 8.726 3.674 17.246 7.701 25.497 11.953a477.728 477.728 0 0197.25 67.671c29.251 26.19 55.03 56.793 85.974 84.123 31.898 28.154 64.606 57.154 101.945 77.747 31.74 17.486 68.627 27.993 104.04 22.398a115.633 115.633 0 0019.046-4.635c38.517-13.019 66.502-44.636 89.413-79.233 7.236-10.911 13.982-22.205 20.465-33.173 16.971-28.903 34.474-58.357 53.603-85.238 31.124-43.479 68.993-75.876 115.838-97.582 21.901-10.15 47.938-17.942 73.991-15.224 37.009 3.858 67.492 21.321 97.562 31.485 2.358.786 4.759 1.558 7.145 2.287 36.232 10.923 73.493 11.912 108.991-.197 37.815-12.85 73.966-42.647 87.846-85.821" stroke="#D8D8D8"/><path d="M-300.616 436.101a435.924 435.924 0 01101.804-57.692c16.044-6.486 32.58-12.127 49.807-14.777 34.436-5.302 68.327 1.615 99.58 13.453 8.678 3.267 17.111 6.883 25.41 10.761a464.778 464.778 0 0197.773 62.715c29.601 24.574 55.978 53.493 86.503 79.888 32.935 28.489 66.116 58.311 104.112 79.55 32.328 18.202 70.024 29.095 106.222 23.781a117.564 117.564 0 0019.505-4.636c39.462-12.896 68.005-45.422 91.605-80.71 7.434-11.045 14.41-22.569 21.15-33.824 17.594-29.382 35.991-59.261 56.237-86.417 32.947-43.964 72.866-76.435 121.898-96.957 21.557-9.034 46.799-15.948 71.912-13.532 35.817 3.323 66.046 18.431 95.796 26.272a174.56 174.56 0 007.057 1.736c35.773 8.141 71.92 6.144 105.42-7.986 35.696-15.026 68.725-45.589 80.735-87.783" stroke="#DEDEDE"/><path d="M-298.064 451.903a404.426 404.426 0 0199.76-55.815 232.577 232.577 0 0148.832-14.043c33.603-5.21 66.897.449 97.896 10.853a355.724 355.724 0 0125.306 9.566 454.768 454.768 0 0198.273 57.617c29.951 22.958 56.949 50.176 87.03 75.673 33.977 28.784 67.629 59.447 106.32 81.497 32.921 18.72 71.416 30.397 108.433 25.089a119.616 119.616 0 0019.963-4.617c40.407-13.093 69.509-46.227 93.802-82.226 7.654-11.357 14.847-23.013 21.81-34.44 18.199-29.884 37.533-60.201 58.873-87.616 34.787-44.425 76.72-77.156 127.981-96.348 21.214-7.937 45.634-13.757 69.905-11.791 34.626 2.789 64.605 15.503 94.014 21.038 2.316.447 4.645.849 6.986 1.206 35.313 5.36 70.33.353 101.854-15.814 33.576-17.182 63.486-48.51 73.646-89.704" stroke="#E3E3E3"/><path d="M-295.568 467.678a376.696 376.696 0 0197.715-53.938 243.513 243.513 0 0147.891-13.265c32.791-5.115 65.488-.714 96.216 8.234a361.062 361.062 0 0125.24 8.376 443.386 443.386 0 0198.675 52.665c30.303 21.323 57.941 46.843 87.564 71.4 35.061 29.064 69.12 60.601 108.536 83.385 33.501 19.335 72.803 31.577 110.609 26.352a120.941 120.941 0 0020.419-4.578c41.377-13.168 71.034-47.03 95.999-83.742 7.862-11.57 15.282-23.438 22.556-35.104 18.843-30.381 39.076-61.142 61.528-88.813 36.592-44.912 80.54-78.062 134.044-95.742 20.899-6.897 44.463-11.667 67.882-10.072 33.445 2.336 63.179 12.616 92.267 15.848 2.302.298 4.602.456 6.899.634a162.811 162.811 0 0098.284-23.602c31.474-19.336 58.264-51.449 66.524-91.669" stroke="#E9E9E9"/><path d="M-293.055 483.475a349.3 349.3 0 0195.652-52.064 254.82 254.82 0 0146.834-12.521c31.981-5.039 64.109-1.954 94.554 5.617a330.872 330.872 0 0125.066 7.253 434.314 434.314 0 0199.233 47.593c30.672 19.709 58.877 43.482 88.108 67.207 36.107 29.32 70.593 61.733 110.754 85.254 34.042 19.946 74.188 32.778 112.788 27.756a121.722 121.722 0 0020.876-4.559c42.329-13.265 72.556-47.814 98.226-85.335 8.069-11.783 15.697-23.864 23.13-35.67 19.468-30.88 40.598-62.085 64.184-90.01 38.431-45.374 84.279-79.138 140.126-95.133a202.242 202.242 0 0165.876-8.33c32.261 1.741 61.736 9.706 90.505 10.615 2.271.074 4.547.109 6.811.082a160.651 160.651 0 0094.773-31.403c29.349-21.492 53.059-54.365 59.409-93.611" stroke="#EEE"/><path d="M-290.56 499.25a324.529 324.529 0 0193.601-50.128 269.828 269.828 0 0145.837-11.77c31.166-4.925 62.676-3.101 92.888 3.039a348.489 348.489 0 0125.049 5.99 423.755 423.755 0 0199.81 42.524c31.03 18.034 59.853 40.126 88.638 62.972 37.218 29.545 72.086 62.868 112.971 87.123 34.63 20.503 75.615 33.964 114.975 29.1a123.115 123.115 0 0021.336-4.559c43.299-13.339 74.077-48.597 100.41-86.753 8.278-11.997 16.133-24.288 23.81-36.282 20.078-31.422 42.177-63.001 66.84-91.207 40.234-45.86 88.185-80.413 146.287-94.514a233.66 233.66 0 0163.872-6.609c31.068 1.227 60.293 6.798 88.74 5.403a203.35 203.35 0 006.72-.45 160.12 160.12 0 0091.107-39.224c27.239-23.668 47.779-57.311 52.399-95.541" stroke="#F4F4F4"/><path d="M-288.064 515.025a301.382 301.382 0 0191.503-48.299 290.075 290.075 0 0144.839-11.018 292.155 292.155 0 0191.227.421 368.155 368.155 0 0124.963 4.799 415.802 415.802 0 01100.176 37.548c31.374 16.457 60.847 36.772 89.166 58.737 38.333 29.749 73.597 64.024 115.19 88.992 35.267 21.146 76.983 35.141 117.166 30.405a124.71 124.71 0 0021.811-4.517c44.23-13.419 75.582-49.403 102.588-88.273 8.504-12.207 16.567-24.712 24.484-36.855 20.695-31.862 43.658-63.93 69.473-92.386 42.019-46.35 92.039-81.895 152.213-93.927a284.537 284.537 0 0161.865-4.867c29.917.697 58.85 3.888 86.976.19 2.219-.293 4.425-.647 6.634-1.021a160.692 160.692 0 0087.695-47.012c25.135-25.842 42.545-60.252 45.195-97.516" stroke="#F9F9F9"/><path d="M-285.572 530.82c62.021-48.64 144.58-67.456 222.926-58.878 78.346 8.579 152.455 43.047 215.218 90.655 39.471 29.916 75.09 65.158 117.403 90.9 42.313 25.742 94.173 41.413 141.621 27.251 59.393-17.737 95.815-75.541 129.928-127.259 56.11-85.133 129.782-171.17 230.481-186.874 50.166-7.825 102.48 2.962 151.619-9.741 68.16-17.621 120.606-83.875 122.036-154.302" stroke="#fff"/></g></svg>