<svg width="326" height="246" fill="none" xmlns="http://www.w3.org/2000/svg"><path d="M104.866 125.676c3.043 19.001 12.565 36.408 26.989 49.339 15.935 15.218 31.382 30.987 47.282 46.206 6.033 5.646 6.033 9.537 0 15.183-16.981 16.217-33.23 33.123-50.246 49.271-22.386 21.312-28.523 47.824-22.56 76.298 5.37 25.788 22.246 44.76 47.352 54.503 33.579 13.119 63.566 6.473 89.23-18.661 6.381-6.232 12.832-12.361 19.213-18.558a7.521 7.521 0 012.363-2.108 7.642 7.642 0 018.934 1.006 83.518 83.518 0 0020.085 11.638c4.079 1.377 4.219 4.338 1.255 7.265-23.885 23.895-45.992 50.096-81.803 57.912-43.725 9.503-92.786-3.443-122.041-43.279-14.598-19.315-22.563-42.73-22.735-66.83-.418-33.811 12.448-61.975 36.264-85.663 7.915-7.851 15.691-15.838 24.06-23.172 6.171-5.371 5.509-8.883-.21-14.289-11.367-10.673-23.188-21.071-31.068-34.878-9.763-17.215-11.786-34.19-1.813-51.646a18.741 18.741 0 019.449-9.537z" fill="#fff" fill-opacity=".1"/><path d="M350.971 389.827c-40.169.792-69.738-15.873-94.704-41.833-5.893-6.094-12.274-11.741-17.748-18.18-4.952-5.784-8.578-4.717-13.181.241a190.505 190.505 0 01-31.033 28.681c-20.155 13.772-43.064 14.358-61.579 1.894-2.266-1.55-4.882-3.065-4.324-5.578.558-2.513 3.94-1.481 6.068-1.963 14.974-3.288 28.654-10.814 39.367-21.656 17.085-16.94 34.311-33.743 51.118-50.958 5.125-5.233 8.438-5.337 13.947 0 19.352 19.385 37.728 39.905 59.278 57.017a80.628 80.628 0 0034.63 16.297 81.19 81.19 0 0038.334-1.449 80.467 80.467 0 0033.267-18.865 79.076 79.076 0 0020.587-31.963c10.705-29.92 3.905-57.981-18.515-81.531-6.974-7.231-14.227-14.082-21.34-21.106-3.487-3.443-4.638-6.886-.593-11.431a81.83 81.83 0 0010.461-17.009c2.545-5.096 4.881-7.23 9.589-2.238 15.133 16.01 33.404 29.473 44.283 48.892 12.832 22.896 19.143 47.032 14.785 74.025-7.776 47.997-35.776 78.123-80.757 94.34a77.053 77.053 0 01-31.94 4.373z" fill="#fff" fill-opacity=".1"/><path d="M279.42 34.606c-20.747 1.343-40.099 7.23-55.511 22.724-6.974 7.093-14.401 13.772-21.375 20.934-4.08 4.166-7.288 5.027-12.483.999a113.237 113.237 0 00-19.108-10.95c-4.08-2.03-5.614-3.684-1.814-7.402 15.029-14.599 28.453-30.988 46.341-42.522C231.371 7.977 249.748 1.841 268.785.59c50.909-3.443 88.672 16.664 113.708 60.081a101.594 101.594 0 0112.762 42.246c3.835 41.592-11.891 74.749-42.261 102.362-6.73 6.129-12.867 12.912-19.562 19.04-3.487 3.443-3.766 5.475 0 8.884 6.73 6.163 13.076 12.739 19.422 19.281 14.54 14.977 23.955 31.848 21.584 53.608a53.087 53.087 0 01-9.484 22.655c-.872 1.343-1.535 3.444-3.766 2.893-2.232-.551-2.267-2.41-2.65-4.063a91.541 91.541 0 00-6.974-20.177c-8.613-17.215-23.885-28.37-36.891-41.626a848.485 848.485 0 00-31.383-30.437c-5.056-4.613-4.916-7.85 0-12.498 17.051-16.32 33.754-32.95 50.561-49.477 38.181-37.564 35.147-91.998-7.602-123.95-13.32-9.985-29.464-14.047-46.829-14.805z" fill="#fff" fill-opacity=".1"/><path d="M.015 187.961C-.82 130.634 32.583 86.598 81.923 72.481c44.806-12.808 85.254-2.1 118.938 30.54 8.787 8.505 17.713 16.837 26.012 25.754 4.08 4.373 6.695 3.65 10.461 0 9.624-9.296 18.48-19.453 29.429-27.544 22.281-16.183 47.038-17.491 65.937-3.443 1.535 1.136 3.941 1.859 3.487 4.338 0 .757-1.639 1.584-2.615 1.721-22.979 3.444-39.018 17.526-54.186 33.433-12.867 13.496-26.884 25.96-39.646 39.56-6.102 6.473-9.764 4.993-15.168-.447-16.668-16.837-33.928-33.088-50.595-49.925-9.183-9.378-20.556-16.388-33.121-20.417a81.735 81.735 0 00-38.95-2.687 81.254 81.254 0 00-35.675 15.67c-10.414 8.026-18.675 18.453-24.059 30.365-13.738 28.956-8.996 61.321 15.098 87.006a396.213 396.213 0 0021.968 21.864c4.01 3.718 5.09 6.266 1.255 11.155a133.623 133.623 0 00-11.716 19.729c-2.022 3.787-3.905 4.614-6.974 1.446-21.723-21.519-46.236-40.8-56-71.547a117.038 117.038 0 01-5.788-31.091z" fill="#fff" fill-opacity=".1"/></svg>