<svg width="181" height="34" fill="none" xmlns="http://www.w3.org/2000/svg"><g clip-path="url(#clip0_206_1838)"><path d="M174.452 18.514c.477-.617.531-1.31.757-1.929a92.039 92.039 0 001.313-3.951c.449-1.418.944-2.83 1.368-4.256.252-.848.238-.85 1.101-.85.524 0 1.047.018 1.573 0 .382-.018.45.127.342.457-.841 2.35-1.688 4.697-2.517 7.052-.627 1.786-1.213 3.583-1.852 5.365-.224.605-.465 1.202-.649 1.824a.782.782 0 01-.198.38c-.602.494-1.316.11-1.975.22-.299.052-.436-.174-.517-.407-.49-1.42-.968-2.847-1.46-4.267-.396-1.143-.807-2.281-1.207-3.424-.252-.725-.497-1.453-.748-2.179-.034-.095-.016-.237-.169-.25-.153-.014-.225.126-.256.246-.438 1.258-.867 2.516-1.306 3.772-.501 1.431-1.009 2.858-1.505 4.291-.184.533-.36 1.07-.519 1.611-.124.417-.335.666-.832.619a4.367 4.367 0 00-1.062 0c-.526.073-.744-.222-.886-.626a5519.514 5519.514 0 01-3.696-10.553c-.45-1.26-.899-2.52-1.349-3.772-.076-.221-.047-.35.225-.348h2.301c.286 0 .384.16.45.39l2.022 6.322c.422 1.298.865 2.592 1.301 3.885.029.091 0 .249.171.222.13-.018.173-.133.209-.237.373-1.11.747-2.22 1.123-3.328.418-1.252.856-2.497 1.272-3.748.319-.96.695-1.908.942-2.885.119-.472.33-.714.84-.628.075.007.15.007.225 0 1.573 0 1.521.012 1.991 1.478.759 2.379 1.573 4.74 2.37 7.1.284.766.529 1.55.807 2.404zm-25.677 4.388c-4.531.107-7.964-3.512-7.971-7.766a7.774 7.774 0 01.611-3.037 7.852 7.852 0 011.753-2.568 7.967 7.967 0 012.622-1.7 8.044 8.044 0 013.083-.565c4.591.02 7.984 3.55 7.975 7.835a7.668 7.668 0 01-.607 3.031 7.763 7.763 0 01-1.757 2.557 7.873 7.873 0 01-2.627 1.68 7.955 7.955 0 01-3.082.533zm-5.072-7.85c0 .348-.016.699 0 1.05.041.287.121.567.238.834a5.115 5.115 0 002.37 2.852 5.225 5.225 0 003.697.53c2.418-.547 3.746-2.601 3.975-4.558a5.593 5.593 0 00-.62-3.26 5.074 5.074 0 00-2.47-2.348 5.162 5.162 0 00-3.417-.275c-1.137.3-2.134.98-2.822 1.923a4.992 4.992 0 00-.953 3.252h.002zm-29.147.053V8.08c0-.412.083-.568.548-.563 3.446.019 6.891.019 10.337 0 .463 0 .575.144.544.561a8.453 8.453 0 000 1.331c.033.424-.093.564-.551.56a530.448 530.448 0 00-7.463 0c-.739 0-.739 0-.741.725 0 .94.027 1.882 0 2.82-.018.444.144.56.571.557 2.188-.015 4.377 0 6.566-.018.532 0 .701.182.674.666a10.76 10.76 0 000 1.218c.022.444-.189.615-.638.613-2.151 0-4.301 0-6.454-.018-.564 0-.73.15-.715.719.043 1.604-.011 3.208.03 4.812 0 .53-.167.666-.659.617a9.387 9.387 0 00-1.458 0c-.45.034-.569-.104-.564-.543-.027-2.348-.027-4.689-.027-7.032z" fill="#fff"/><path d="M7.334 8.449a5.423 5.423 0 001.739 3.18c1.027.98 2.022 1.996 3.047 2.977.389.364.389.615 0 .979-1.095 1.045-2.142 2.134-3.238 3.175-1.443 1.373-1.838 3.082-1.454 4.917.346 1.662 1.434 2.884 3.051 3.512 2.164.845 4.097.417 5.75-1.203.412-.401.828-.796 1.239-1.195a.485.485 0 01.348-.198.493.493 0 01.38.127c.394.308.83.56 1.294.75.263.088.272.279.081.468-1.54 1.54-2.964 3.228-5.272 3.732-2.817.612-5.979-.222-7.864-2.79a7.227 7.227 0 01-1.465-4.306c-.027-2.179.802-3.994 2.337-5.52.51-.506 1.01-1.021 1.55-1.494.398-.346.355-.572-.013-.92-.733-.689-1.495-1.359-2.003-2.248-.629-1.11-.76-2.204-.116-3.329.119-.272.336-.49.609-.614z" fill="#FDB604"/><path d="M23.194 25.472c-2.59.05-4.495-1.023-6.104-2.696-.38-.393-.79-.757-1.143-1.172-.32-.372-.553-.304-.85.016a12.275 12.275 0 01-2 1.848c-1.299.888-2.775.925-3.968.122-.146-.1-.315-.197-.279-.36.036-.161.254-.095.391-.126a5.105 5.105 0 002.537-1.395c1.101-1.092 2.211-2.175 3.294-3.284.33-.338.544-.344.9 0 1.246 1.249 2.43 2.571 3.82 3.674a5.196 5.196 0 002.231 1.05 5.232 5.232 0 002.47-.093 5.185 5.185 0 002.144-1.216 5.094 5.094 0 001.327-2.06c.69-1.928.252-3.736-1.193-5.254-.45-.466-.917-.907-1.375-1.36-.225-.222-.3-.444-.039-.736a5.27 5.27 0 00.675-1.097c.164-.328.314-.466.617-.144.976 1.032 2.153 1.9 2.854 3.15.827 1.476 1.234 3.032.953 4.771-.501 3.093-2.305 5.035-5.204 6.08a4.964 4.964 0 01-2.058.282z" fill="#fff"/><path d="M18.582 2.58c-1.337.086-2.584.466-3.577 1.464-.45.457-.928.888-1.377 1.35-.263.268-.47.323-.805.064a7.292 7.292 0 00-1.231-.706c-.263-.13-.362-.237-.117-.477.968-.94 1.834-1.997 2.986-2.74A7.127 7.127 0 0117.897.388c3.28-.222 5.714 1.074 7.328 3.872a6.55 6.55 0 01.822 2.722c.247 2.68-.766 4.817-2.723 6.597-.434.395-.83.832-1.26 1.227-.226.222-.244.352 0 .572.433.397.842.821 1.25 1.243.938.965 1.545 2.052 1.392 3.454a3.42 3.42 0 01-.611 1.46c-.057.087-.1.222-.243.187-.144-.036-.146-.155-.17-.262a5.893 5.893 0 00-.45-1.3c-.555-1.11-1.54-1.829-2.378-2.683a54.678 54.678 0 00-2.022-1.961c-.326-.298-.317-.506 0-.806 1.099-1.052 2.175-2.123 3.258-3.188 2.46-2.421 2.265-5.929-.49-7.988-.858-.644-1.899-.905-3.018-.954z" fill="#FDB604"/><path d="M.576 12.462C.523 8.768 2.676 5.93 5.855 5.02c2.887-.825 5.494-.135 7.665 1.969.566.548 1.141 1.085 1.676 1.66.263.281.431.234.674 0 .62-.6 1.191-1.254 1.897-1.776 1.436-1.043 3.031-1.127 4.249-.222.099.073.254.12.225.28 0 .049-.106.102-.169.11-1.48.223-2.514 1.13-3.492 2.155-.829.87-1.732 1.673-2.555 2.55-.393.417-.629.322-.977-.03-1.074-1.084-2.187-2.131-3.26-3.216a5.214 5.214 0 00-2.135-1.316 5.268 5.268 0 00-4.81.836 5.149 5.149 0 00-1.55 1.957c-.885 1.866-.58 3.952.973 5.607.45.484.926.959 1.416 1.41.258.239.328.403.08.718-.287.402-.54.827-.754 1.272-.13.244-.252.297-.45.093-1.4-1.387-2.98-2.63-3.608-4.611a7.543 7.543 0 01-.374-2.004zm128.008 2.655c0-2.341.014-4.682 0-7.023 0-.473.144-.608.603-.575.504.04 1.01.04 1.514 0 .488-.042.582.153.58.595-.016 3.772 0 7.522 0 11.283 0 .84 0 .84.831.84 2.227 0 4.452.012 6.677 0 .431 0 .608.098.573.551a11.59 11.59 0 000 1.491c.015.322-.108.402-.418.402-3.292 0-6.584-.014-9.876 0-.45 0-.466-.198-.466-.535-.013-2.345-.018-4.686-.018-7.03zm-60.725-.003c.047-3.126 1.37-5.531 4.204-7.031 1.43-.755 2.957-.888 4.58-.702 1.027.1 2.02.421 2.908.941a7.007 7.007 0 012.229 2.07c2.719 3.772 1.705 9.5-2.84 11.798a7.45 7.45 0 01-4.773.637c-2.872-.535-4.86-2.19-5.868-4.955a7.758 7.758 0 01-.44-2.758zm7.714 6.716a5.53 5.53 0 003.265-.845c1.854-1.11 2.85-2.764 3.126-4.881a6.906 6.906 0 00-1.115-4.94c-1.202-1.775-2.871-2.698-5.038-2.795-1.674-.076-3.188.34-4.426 1.444-1.958 1.749-2.627 3.959-2.232 6.52.46 2.948 2.966 5.602 6.42 5.498zm-10.042.724c-1.02.257-1.636.082-2.189-.683-1.276-1.775-2.663-3.457-3.997-5.181a.73.73 0 00-.659-.311c-1.366.013-2.73.018-4.096 0-.396 0-.506.124-.501.506.018 1.775 0 3.55.02 5.31 0 .477-.225.488-.57.479-.347-.01-.585.026-.583-.466.021-4.734.021-9.473 0-14.218 0-.362.101-.47.472-.469 2.207.02 4.418-.057 6.62.042 1.753.08 3.37.666 4.301 2.27 1.124 1.937.632 4.802-2.106 5.883-.427.18-.87.32-1.325.417-.45.082-.416.188-.171.497 1.465 1.85 2.921 3.719 4.37 5.573.095.111.12.278.414.351zM54.109 11.972c0 .939.025 1.88-.011 2.818-.018.444.144.568.57.562 1.607-.018 3.214 0 4.823 0a5.5 5.5 0 002.28-.466 3.23 3.23 0 001.703-1.656 3.171 3.171 0 00.095-2.358c-.508-1.5-2.01-2.146-3.415-2.22-1.863-.092-3.735-.021-5.605-.037-.334 0-.449.089-.449.444.009.959.009 1.937.009 2.913zm38.039 10.924a9.171 9.171 0 01-6.092-2.166c-.395-.324-.106-.49.058-.703.164-.213.346-.504.704-.182.802.716 1.69 1.331 2.737 1.617 1.78.486 3.566.693 5.2-.472.862-.613 1.161-1.482 1.087-2.503-.076-1.07-.748-1.69-1.667-2.106-.955-.428-1.982-.626-3-.847-1.182-.258-2.33-.595-3.35-1.276-1.906-1.274-1.965-4.143-.243-5.627 1.56-1.347 3.4-1.527 5.375-1.174a8.594 8.594 0 013.236 1.396c.272.177.42.384.135.628-.225.193-.304.747-.841.32a6.441 6.441 0 00-2.366-1.215 6.492 6.492 0 00-2.66-.16c-1.614.223-3.147 1.228-2.882 3.313.144 1.127.951 1.658 1.884 2.066 1.02.444 2.12.617 3.2.872.92.214 1.807.548 2.638.994 2.393 1.29 2.168 4.82.132 6.182-1.101.739-2.305 1.083-3.285 1.043zm13.869.002a9.098 9.098 0 01-5.941-2.141c-.297-.244-.29-.426-.032-.666.225-.206.348-.623.775-.235a6.779 6.779 0 002.737 1.613c1.798.493 3.596.666 5.245-.515 1.364-.98 1.638-3.685-.674-4.597-1.24-.488-2.548-.68-3.82-1.03-1.059-.295-2.097-.639-2.903-1.42-1.54-1.493-1.38-4.151.341-5.436 1.573-1.167 3.328-1.362 5.218-1.01a8.009 8.009 0 013.18 1.385c.238.167.503.346.193.62-.225.199-.306.78-.881.32a6.357 6.357 0 00-2.344-1.202 6.407 6.407 0 00-2.638-.153c-1.759.233-3.278 1.367-2.865 3.506.196 1.012.971 1.515 1.834 1.86 1.077.406 2.191.713 3.325.918a6.649 6.649 0 013.117 1.391c1.782 1.527 1.454 4.529-.651 5.887a5.843 5.843 0 01-3.216.905zm-62.215.004c-3.322.135-6.088-2.057-7.124-4.66-1.31-3.306-.4-7.3 2.495-9.452 1.977-1.462 4.17-1.79 6.554-1.304 1.448.295 2.62 1.04 3.726 1.952.297.244.204.364 0 .597-.355.406-.616.484-1.067.067-1.666-1.554-3.713-2.055-5.897-1.651-2.312.428-3.93 1.844-4.705 4.045-.948 2.698-.58 5.232 1.389 7.404a5.899 5.899 0 001.87 1.378c.71.332 1.48.52 2.264.555 2.054.146 3.77-.54 5.267-1.869.468-.417.758-.388 1.079.14.101.162.06.277-.092.42-1.103 1.022-2.321 1.812-3.82 2.174-.638.132-1.288.2-1.94.204z" fill="#fff"/></g><defs><clipPath id="clip0_206_1838"><path fill="#fff" transform="translate(.576 .363)" d="M0 0h180.379v33.274H0z"/></clipPath></defs></svg>