<svg width="181" height="34" fill="none" xmlns="http://www.w3.org/2000/svg"><g clip-path="url(#clip0_206_1838)"><path d="M174.452 18.514c.477-.617.531-1.31.757-1.929a92.039 92.039 0 001.313-3.951c.449-1.418.944-2.83 1.368-4.256.252-.848.238-.85 1.101-.85.524 0 1.047.018 1.573 0 .382-.018.45.127.342.457-.841 2.35-1.688 4.697-2.517 7.052-.627 1.786-1.213 3.583-1.852 5.365-.224.605-.465 1.202-.649 1.824a.782.782 0 01-.198.38c-.602.494-1.316.11-1.975.22-.299.052-.436-.174-.517-.407-.49-1.42-.968-2.847-1.46-4.267-.396-1.143-.807-2.281-1.207-3.424-.252-.725-.497-1.453-.748-2.179-.034-.095-.016-.237-.169-.25-.153-.014-.225.126-.256.246-.438 1.258-.867 2.516-1.306 3.772-.501 1.431-1.009 2.858-1.505 4.291-.184.533-.36 1.07-.519 1.611-.124.417-.335.666-.832.619a4.367 4.367 0 00-1.062 0c-.526.073-.744-.222-.886-.626a5519.514 5519.514 0 01-3.696-10.553c-.45-1.26-.899-2.52-1.349-3.772-.076-.221-.047-.35.225-.348h2.301c.286 0 .384.16.45.39l2.022 6.322c.422 1.298.865 2.592 1.301 3.885.029.091 0 .249.171.222.13-.018.173-.133.209-.237.373-1.11.747-2.22 1.123-3.328.418-1.252.856-2.497 1.272-3.748.319-.96.695-1.908.942-2.885.119-.472.33-.714.84-.628.075.007.15.007.225 0 1.573 0 1.521.012 1.991 1.478.759 2.379 1.573 4.74 2.37 7.1.284.766.529 1.55.807 2.404zm-25.677 4.388c-4.531.107-7.964-3.512-7.971-7.766a7.774 7.774 0 01.611-3.037 7.852 7.852 0 011.753-2.568 7.967 7.967 0 012.622-1.7 8.044 8.044 0 013.083-.565c4.591.02 7.984 3.55 7.975 7.835a7.668 7.668 0 01-.607 3.031 7.763 7.763 0 01-1.757 2.557 7.873 7.873 0 01-2.627 1.68 7.955 7.955 0 01-3.082.533zm-5.072-7.85c0 .348-.016.699 0 1.05.041.287.121.567.238.834a5.115 5.115 0 002.37 2.852 5.225 5.225 0 003.697.53c2.418-.547 3.746-2.601 3.975-4.558a5.593 5.593 0 00-.62-3.26 5.074 5.074 0 00-2.47-2.348 5.162 5.162 0 00-3.417-.275c-1.137.3-2.134.98-2.822 1.923a4.992 4.992 0 00-.953 3.252h.002zm-29.147.053V8.08c0-.412.083-.568.548-.563 3.446.019 6.891.019 10.337 0 .463 0 .575.144.544.561a8.453 8.453 0 000 1.331c.033.424-.093.564-.551.56a530.448 530.448 0 00-7.463 0c-.739 0-.739 0-.741.725 0 .94.027 1.882 0 2.82-.018.444.144.56.571.557 2.188-.015 4.377 0 6.566-.018.532 0 .701.182.674.666a10.76 10.76 0 000 1.218c.022.444-.189.615-.638.613-2.151 0-4.301 0-6.454-.018-.564 0-.73.15-.715.719.043 1.604-.011 3.208.03 4.812 0 .53-.167.666-.659.617a9.387 9.387 0 00-1.458 0c-.45.034-.569-.104-.564-.543-.027-2.348-.027-4.689-.027-7.032z" fill="#fff"/><path d="M7.334 8.449a5.423 5.423 0 001.739 3.18c1.027.98 2.022 1.996 3.047 2.977.389.364.389.615 0 .979-1.095 1.045-2.142 2.134-3.238 3.175-1.443 1.373-1.838 3.082-1.454 4.917.346 1.662 1.434 2.884 3.051 3.512 2.164.845 4.097.417 5.75-1.203.412-.401.828-.796 1.239-1.195a.485.485 0 01.348-.198.493.493 0 01.38.127c.394.308.83.56 1.294.75.263.088.272.279.081.468-1.54 1.54-2.964 3.228-5.272 3.732-2.817.612-5.979-.222-7.864-2.79a7.227 7.227 0 01-1.465-4.306c-.027-2.179.802-3.994 2.337-5.52.51-.506 1.01-1.021 1.55-1.494.398-.346.355-.572-.013-.92-.733-.689-1.495-1.359-2.003-2.248-.629-1.11-.76-2.204-.116-3.329.119-.272.336-.49.609-.614z" fill="#FDB604"/><path d="M23.194 25.472c-2.59.05-4.495-1.023-6.104-2.696-.38-.393-.79-.757-1.143-1.172-.32-.372-.553-.304-.85.016a12.275 12.275 0 01-2 1.848c-1.299.888-2.775.925-3.968.122-.146-.1-.315-.197-.279-.36.036-.161.254-.095.391-.126a5.105 5.105 0 002.537-1.395c1.101-1.092 2.211-2.175 3.294-3.284.33-.338.544-.344.9 0 1.246 1.249 2.43 2.571 3.82 3.674a5.196 5.196 0 002.231 1.05 5.232 5.232 0 002.47-.093 5.185 5.185 0 002.144-1.216 5.094 5.094 0 001.327-2.06c.69-1.928.252-3.736-1.193-5.254-.45-.466-.917-.907-1.375-1.36-.225-.222-.3-.444-.039-.736a5.27 5.27 0 00.675-1.097c.164-.328.314-.466.617-.144.976 1.032 2.153 1.9 2.854 3.15.827 1.476 1.234 3.032.953 4.771-.501 3.093-2.305 5.035-5.204 6.08a4.964 4.964 0 01-2.058.282z" fill="#fff"/><path d="M18.582 2.58c-1.337.086-2.584.466-3.577 1.464-.45.457-.928.888-1.377 1.35-.263.268-.47.323-.805.064a7.292 7.292 0 00-1.231-.706c-.263-.13-.362-.237-.117-.477.968-.94 1.834-1.997 2.986-2.74A7.127 7.127 0 0117.897.388c3.28-.222 5.714 1.074 7.328 3.872a6.55 6.55 0 01.822 2.722c.247 2.68-.766 4.817-2.723 6.597-.434.395-.83.832-1.26 1.227-.226.222-.244.352 0 .572.433.397.842.821 1.25 1.243.938.965 1.545 2.052 1.392 3.454a3.42 3.42 0 01-.611 1.46c-.057.087-.1.222-.243.187-.144-.036-.146-.155-.17-.262a5.893 5.893 0 00-.45-1.3c-.555-1.11-1.54-1.829-2.378-2.683a54.678 54.678 0 00-2.022-1.961c-.326-.298-.317-.506 0-.806 1.099-1.052 2.175-2.123 3.258-3.188 2.46-2.421 2.265-5.929-.49-7.988-.858-.644-1.899-.905-3.018-.954z" fill="#FDB604"/><path d="M.576 12.462C.523 8.768 2.676 5.93 5.855 5.02c2.887-.825 5.494-.135 7.665 1.969.566.548 1.141 1.085 1.676 1.66.263.281.431.234.674 0 .62-.6 1.191-1.254 1.897-1.776 1.436-1.043 3.031-1.127 4.249-.222.099.073.254.12.225.28 0 .049-.106.102-.169.11-1.48.223-2.514 1.13-3.492 2.155-.829.87-1.732 1.673-2.555 2.55-.393.417-.629.322-.977-.03-1.074-1.084-2.187-2.131-3.26-3.216a5.214 5.214 0 00-2.135-1.316 5.268 5.268 0 00-4.81.836 5.149 5.149 0 00-1.55 1.957c-.885 1.866-.58 3.952.973 5.607.45.484.926.959 1.416 1.41.258.239.328.403.08.718-.287.402-.54.827-.754 1.272-.13.244-.252.297-.45.093-1.4-1.387-2.98-2.63-3.608-4.611a7.543 7.543 0 01-.374-2.004zm128.008 2.655c0-2.341.014-4.682 0-7.023 0-.473.144-.608.603-.575.504.04 1.01.04 1.514 0 .488-.042.582.153.58.595-.016 3.772 0 7.522 0 11.283 0 .84 0 .84.831.84 2.227 0 4.452.012 6.677 0 .431 0 .608.098.573.551a11.59 11.59 0 000 1.491c.015.322-.108.402-.418.402-3.292 0-6.584-.014-9.876 0-.45 0-.466-.198-.466-.535-.013-2.345-.018-4.686-.018-7.03zm-60.725-.003c.047-3.126 1.37-5.531 4.204-7.031 1.43-.755 2.957-.888 4.58-.702 1.027.1 2.02.421 2.908.941a7.007 7.007 0 012.229 2.07c2.719 3.772 1.705 9.5-2.84 11.798a7.45 7.45 0 01-4.773.637c-2.872-.535-4.86-2.19-5.868-4.955a7.758 7.758 0 01-.44-2.758zm7.714 6.716a5.53 5.53 0 003.265-.845c1.854-1.11 2.85-2.764 3.126-4.881a6.906 6.906 0 00-1.115-4.94c-1.202-1.775-2.871-2.698-5.038-2.795-1.674-.076-3.188.34-4.426 1.444-1.958 1.749-2.627 3.959-2.232 6.52.46 2.948 2.966 5.602 6.42 5.498zm-10.042.724c-1.02.257-1.636.082-2.189-.683-1.276-1.775-2.663-3.457-3.997-5.181a.73.73 0 00-.659-.311c-1.366.013-2.73.018-4.096 0-.396 0-.506.124-.501.506.018 1.775 0 3.55.02 5.31 0 .477-.225.488-.57.479-.347-.01-.585.026-.583-.466.021-4.734.021-9.473 0-14.218 0-.362.101-.47.472-.469 2.207.02 4.418-.057 6.62.042 1.753.08 3.37.666 4.301 2.27 1.124 1.937.632 4.802-2.106 5.883-.427.18-.87.32-1.325.417-.45.082-.416.188-.171.497 1.465 1.85 2.921 3.719 4.37 5.573.095.111.12.278.414.351zM54.109 11.972c0 .939.025 1.88-.011 2.818-.018.444.144.568.57.562 1.607-.018 3.214 0 4.823 0a5.5 5.5 0 002.28-.466 3.23 3.23 0 001.703-1.656 3.171 3.171 0 00.095-2.358c-.508-1.5-2.01-2.146-3.415-2.22-1.863-.092-3.735-.021-5.605-.037-.334 0-.449.089-.449.444.009.959.009 1.937.009 2.913zm38.039 10.924a9.171 9.171 0 01-6.092-2.166c-.395-.324-.106-.49.058-.703.164-.213.346-.504.704-.182.802.716 1.69 1.331 2.737 1.617 1.78.486 3.566.693 5.2-.472.862-.613 1.161-1.482 1.087-2.503-.076-1.07-.748-1.69-1.667-2.106-.955-.428-1.982-.626-3-.847-1.182-.258-2.33-.595-3.35-1.276-1.906-1.274-1.965-4.143-.243-5.627 1.56-1.347 3.4-1.527 5.375-1.174a8.594 8.594 0 013.236 1.396c.272.177.42.384.135.628-.225.193-.304.747-.841.32a6.441 6.441 0 00-2.366-1.215 6.492 6.492 0 00-2.66-.16c-1.614.223-3.147 1.228-2.882 3.313.144 1.127.951 1.658 1.884 2.066 1.02.444 2.12.617 3.2.872.92.214 1.807.548 2.638.994 2.393 1.29 2.168 4.82.132 6.182-1.101.739-2.305 1.083-3.285 1.043zm13.869.002a9.098 9.098 0 01-5.941-2.141c-.297-.244-.29-.426-.032-.666.225-.206.348-.623.775-.235a6.779 6.779 0 002.737 1.613c1.798.493 3.596.666 5.245-.515 1.364-.98 1.638-3.685-.674-4.597-1.24-.488-2.548-.68-3.82-1.03-1.059-.295-2.097-.639-2.903-1.42-1.54-1.493-1.38-4.151.341-5.436 1.573-1.167 3.328-1.362 5.218-1.01a8.009 8.009 0 013.18 1.385c.238.167.503.346.193.62-.225.199-.306.78-.881.32a6.357 6.357 0 00-2.344-1.202 6.407 6.407 0 00-2.638-.153c-1.759.233-3.278 1.367-2.865 3.506.196 1.012.971 1.515 1.834 1.86 1.077.406 2.191.713 3.325.918a6.649 6.649 0 013.117 1.391c1.782 1.527 1.454 4.529-.651 5.887a5.843 5.843 0 01-3.216.905zm-62.215.004c-3.322.135-6.088-2.057-7.124-4.66-1.31-3.306-.4-7.3 2.495-9.452 1.977-1.462 4.17-1.79 6.554-1.304 1.448.295 2.62 1.04 3.726 1.952.297.244.204.364 0 .597-.355.406-.616.484-1.067.067-1.666-1.554-3.713-2.055-5.897-1.651-2.312.428-3.93 1.844-4.705 4.045-.948 2.698-.58 5.232 1.389 7.404a5.899 5.899 0 001.87 1.378c.71.332 1.48.52 2.264.555 2.054.146 3.77-.54 5.267-1.869.468-.417.758-.388 1.079.14.101.162.06.277-.092.42-1.103 1.022-2.321 1.812-3.82 2.174-.638.132-1.288.2-1.94.204zm28.306 8.465c.474-.206.416-.666.557-.994.302-.686.49-1.418.729-2.13.03-.087.068-.17.114-.25a.336.336 0 01.413-.2c.248.08.151.26.1.41-.403 1.12-.8 2.241-1.214 3.355a3.521 3.521 0 01-.288.77c-.087.13-.139.266-.323.235a.412.412 0 01-.337-.253c-.315-.925-.627-1.848-.92-2.78a1.013 1.013 0 00-.35-.522c-.375 1.076-.735 2.11-1.103 3.14-.063.18-.081.43-.369.41-.251-.015-.303-.206-.377-.41-.477-1.318-.973-2.627-1.456-3.94-.054-.145-.155-.36.099-.407.204-.037.418-.037.516.267.358 1.091.751 2.172 1.142 3.284.45-.222.4-.666.53-.992.286-.713.488-1.46.706-2.2a.475.475 0 01.407-.394c.224-.036.254.166.31.317.228.53.42 1.074.577 1.629.126.566.414 1.067.537 1.655zm56.876-2.483a9.221 9.221 0 00-1.433 1.924c-.283.444-.468.28-.674 0-.427-.602-.825-1.223-1.25-1.86-.224.189-.144.402-.146.586v2.599c0 .192 0 .392-.269.394-.27.003-.355-.155-.355-.397v-3.98a.314.314 0 01.258-.364.51.51 0 01.566.255c.432.621.883 1.231 1.272 1.88.225.372.36.261.533 0 .406-.592.807-1.188 1.204-1.787.151-.222.317-.444.62-.35.304.093.207.359.207.57v3.772c-.02.184-.029.401-.281.406-.252.004-.256-.222-.258-.404v-2.219l.006-1.025zm-33.461 1.937v1.11c.047 1.18-.795 1.606-1.643 1.7a2.758 2.758 0 01-1.348-.28c-.177-.071-.436-.164-.288-.444.124-.222.338-.107.495-.024.437.219.937.28 1.415.175a.857.857 0 00.472-.218.837.837 0 00.254-.448c.038-.153.171-.335 0-.444-.17-.108-.312.02-.45.096A1.687 1.687 0 0192.794 32a1.658 1.658 0 01-.592-.598 1.632 1.632 0 01.577-2.221 1.685 1.685 0 011.637-.062c.254.122.472.415.75-.07.138-.24.378.02.383.286v1.493l-.025-.007zm-1.775.923c.696 0 1.314-.574 1.294-1.194-.02-.619-.674-1.158-1.326-1.147a1.18 1.18 0 00-.85.351 1.15 1.15 0 00-.327.852 1.11 1.11 0 00.352.83 1.14 1.14 0 00.857.308zm54.557-.465v-1.88c0-.162-.027-.346.198-.404.162-.04.341 0 .384.142.128.424.308.149.474.056a1.617 1.617 0 012.009.182c.557.499.724 1.469.382 2.252a1.77 1.77 0 01-.718.742 1.793 1.793 0 01-1.014.219 1.412 1.412 0 01-.715-.282c-.4-.313-.371-.036-.375.222v.665c0 .222-.039.415-.313.429-.274.013-.319-.193-.312-.41v-1.936.003zm.616-.504c-.043.856.534 1.269 1.206 1.311.672.042 1.241-.559 1.236-1.331-.004-.772-.575-1.365-1.258-1.345-.683.02-1.191.593-1.184 1.365zm-50.398-.624a2.2 2.2 0 01.282-1.284c.224-.39.562-.704.97-.901.867-.478 1.752-.393 2.588.124.196.122.485.244.281.537-.173.246-.371.084-.571-.042-1.036-.65-2.229-.378-2.77.619-.364.665-.138 1.921.427 2.44.521.477 1.692.555 2.332.083.045-.032.088-.067.128-.105a.31.31 0 01.485-.026c.108.142.027.297-.15.443a2.517 2.517 0 01-3.055.081 2.466 2.466 0 01-.713-.81 2.833 2.833 0 01-.234-1.159zm39.225-.141v-1.882c0-.222-.121-.553.277-.535.397.018.258.344.26.561.014.701 0 1.403 0 2.104 0 .133-.049.306.146.375.196.069.225-.113.299-.191.409-.382.805-.781 1.205-1.174a1.47 1.47 0 01.287-.246c.133-.078.335-.107.418 0 .083.106-.034.237-.148.346-.274.257-.51.557-.787.814-.276.258-.294.444-.027.73.331.354.632.734.899 1.136.083.122.335.304.124.462a.404.404 0 01-.544-.131c-.245-.31-.494-.617-.753-.914-.146-.169-.224-.513-.526-.38a.963.963 0 00-.586.743c-.045.258.15.717-.299.689-.449-.03-.225-.475-.24-.737-.025-.59-.005-1.18-.005-1.77zm-17.765 1.213v.994a.291.291 0 01-.2.3.259.259 0 01-.34-.114c-.117-.266-.209-.157-.4-.05-.854.48-1.797.246-2.123-.498a1.043 1.043 0 01.356-1.247c.127-.093.273-.156.428-.186a2.853 2.853 0 011.218-.029c.142.036.359.129.449-.082a.495.495 0 00-.125-.515c-.288-.324-.675-.366-1.075-.322-.224.023-.438.083-.66.116-.122.018-.27.062-.301-.136-.032-.197.038-.25.211-.317 1.153-.444 2.714-.248 2.575 1.644v.444l-.013-.002zm-1.504-.433l-.463.045c-.292.028-.53.135-.595.443a.63.63 0 00.045.45c.07.139.189.248.335.307.507.28.921.082 1.319-.193a.734.734 0 00.276-.785c-.07-.333-.398-.171-.604-.238a1.495 1.495 0 00-.313-.029zm15.298.462c0 .313.018.626 0 .939-.017.312-.285.512-.449.26-.252-.365-.391-.132-.591-.036-.786.37-1.622.168-1.98-.482a1.046 1.046 0 01.288-1.297c.126-.1.274-.171.431-.207.437-.103.891-.11 1.331-.025.467.102.467-.18.321-.474-.211-.429-.629-.482-1.052-.462-.24 0-.478.082-.719.115-.134.018-.307.105-.339-.142-.025-.177.054-.246.225-.31 1.123-.444 2.667-.251 2.559 1.624-.011.164 0 .33 0 .497h-.025zm-1.492-.46c-.143.014-.33.027-.512.05a.568.568 0 00-.372.137.554.554 0 00-.187.346.6.6 0 00.325.681 1.204 1.204 0 001.412-.19.777.777 0 00.224-.8c-.078-.272-.382-.135-.579-.192a1.69 1.69 0 00-.311-.031zm25.415.431v.94a.314.314 0 01-.209.349.273.273 0 01-.375-.144c-.119-.287-.205-.105-.351-.023-.809.444-1.741.28-2.11-.379a1.052 1.052 0 01.271-1.326c.129-.103.28-.176.442-.212.416-.108.852-.12 1.274-.033.132.033.334.111.409-.051a.497.497 0 00-.09-.52c-.295-.356-.699-.388-1.124-.35-.204.02-.404.078-.607.111-.125.022-.276.071-.319-.113-.042-.184 0-.255.189-.337 1.398-.633 2.587.088 2.593 1.59l.007.498zm-.616 0c0-.158.036-.333-.224-.362a3.417 3.417 0 00-1.333 0 .617.617 0 00-.414.402.614.614 0 00.106.563.98.98 0 001.124.269c.391-.145.78-.338.73-.875l.011.003zM60.29 31.19v.994c0 .18-.053.341-.269.352-.216.011-.245-.181-.247-.348 0-.588.018-1.178-.02-1.775-.03-.444-.225-.823-.715-.936a1.058 1.058 0 00-1.123.404.756.756 0 00-.133.517c-.014.57-.018 1.14 0 1.71 0 .235-.067.41-.326.417-.258.007-.303-.204-.303-.423v-4.139c0-.222.024-.372.278-.375.254-.002.369.1.353.369-.022.368 0 .736 0 1.11 0 .152.012.28.252.177 1.51-.666 2.26-.171 2.272 1.444v.497l-.018.005zm24.829-2.157c-.287.413-.63.787-1.018 1.11-.324.299-.297.525-.03.83.32.365.603.76.9 1.146.09.118.312.242.105.395a.397.397 0 01-.514-.08c-.268-.299-.495-.63-.755-.934-.156-.177-.225-.548-.558-.415a.96.96 0 00-.593.737c-.05.258.153.732-.294.699-.447-.033-.225-.51-.225-.777a106.42 106.42 0 010-3.705c0-.175-.11-.444.243-.444.3 0 .278.235.278.444 0 .737 0 1.476.014 2.219 0 .137-.038.317.14.386.177.069.253-.124.347-.222.398-.384.778-.781 1.162-1.178a.675.675 0 01.798-.211zm58.2 1.981h-.953c-.139 0-.321-.049-.384.138-.05.148.038.27.125.397a1.272 1.272 0 00.832.532 1.29 1.29 0 00.966-.217c.193-.122.387-.242.528-.049.142.193-.103.329-.247.444a1.879 1.879 0 01-2.346-.153 1.981 1.981 0 01-.094-2.574 1.67 1.67 0 012.157-.362c.589.349.717.939.795 1.536.025.195-.17.306-.384.306h-.995v.002zm-.295-.42h.785c.294 0 .382-.166.28-.39-.184-.408-.462-.767-.946-.823-.483-.055-.813.209-1.058.59-.245.382-.153.608.326.622.195.009.4.002.604.002h.009zm-79.821.422h-.899c-.45 0-.45.222-.28.524.334.572 1.163.745 1.824.353.191-.116.389-.269.521-.078.178.255-.13.39-.292.502a1.873 1.873 0 01-2.128-.094 2.01 2.01 0 01-.624-.973 1.99 1.99 0 01.017-1.152c.129-.366.377-.678.706-.889.33-.21.72-.305 1.11-.272.418.055.8.263 1.069.584.269.32.406.73.383 1.145a.335.335 0 01-.115.27.345.345 0 01-.285.08H63.2h.003zm-.301-.421h.505c.225-.011.493.077.567-.222a.658.658 0 00-.225-.641c-.515-.515-1.177-.473-1.636.104a.588.588 0 00-.146.606c.092.222.32.133.492.146.173.013.295.007.443.007zm101.539.42h-.84c-.142 0-.33-.052-.4.113a.51.51 0 00.119.51 1.334 1.334 0 001.76.235c.195-.117.393-.246.523-.05.13.194-.108.36-.27.463a1.778 1.778 0 01-1.901.1 1.614 1.614 0 01-.669-.609 1.576 1.576 0 01-.229-.869c-.018-1.247.674-2.028 1.797-1.977.43.04.828.241 1.11.563.283.323.429.74.407 1.166-.025.26-.146.357-.393.352-.34-.002-.674 0-1.014.003zm-.294-.42h.562c.521-.013.656-.266.38-.708a1.067 1.067 0 00-.854-.494 1.076 1.076 0 00-.897.412.667.667 0 00-.166.602c.074.261.33.18.528.188.15.007.292 0 .449 0h-.002zm-57.445.539v1.11c0 .124-.04.262-.204.293-.101.017-.209 0-.225-.1-.09-.315-.207-.206-.42-.093-.526.28-1.074.373-1.647.069a1.007 1.007 0 01-.506-.48.991.991 0 01-.07-.69 1.023 1.023 0 01.852-.819c.437-.1.891-.104 1.33-.015.385.073.468-.093.317-.43-.2-.444-.6-.51-1.018-.542-.108 0-.224.055-.328.047-.245-.018-.609.34-.712-.051-.103-.39.389-.366.627-.444a1.819 1.819 0 011.308.113 1.053 1.053 0 01.674.927c.018.366.045.735.067 1.11l-.045-.005zm-1.436-.348c-.101 0-.249.024-.397.031-.418.022-.645.222-.654.648-.009.426.276.595.636.681a1.185 1.185 0 00.898-.206.807.807 0 00.436-.888c-.071-.357-.429-.166-.649-.248a1.14 1.14 0 00-.27-.011v-.007zm-28.807 1.808a1.805 1.805 0 01-1.328-.51 1.762 1.762 0 01-.526-1.307 1.754 1.754 0 01.516-1.321 1.798 1.798 0 011.33-.528c.49.002.958.192 1.307.529s.551.796.563 1.278a1.865 1.865 0 01-.549 1.302 1.913 1.913 0 01-1.313.557zm1.278-1.775a1.365 1.365 0 00-.344-.962 1.4 1.4 0 00-.92-.463c-.657-.028-1.297.593-1.35 1.296.007.348.14.681.373.94.235.26.555.428.904.474.347 0 .681-.132.93-.37a1.31 1.31 0 00.407-.906v-.01zm30.765-1.325c1.059-.732 1.89-.736 2.535-.017a2.029 2.029 0 01.016 2.534c-.675.756-1.43.77-2.623-.014v1.127c0 .182.092.466-.224.475-.364 0-.254-.304-.254-.497a175.05 175.05 0 010-3.55c0-.197-.119-.495.195-.557.391-.066.2.364.355.5zm-.076 1.252a1.32 1.32 0 00.363.937c.24.254.571.405.922.42.674 0 1.189-.56 1.202-1.315.014-.754-.539-1.382-1.213-1.378a1.375 1.375 0 00-.902.422 1.342 1.342 0 00-.372.914zm-20.561.002v-1.38c0-.146 0-.31.182-.364.182-.053.31-.04.37.14.095.273.205.138.362.051 1.124-.619 2.1-.146 2.248 1.11.039.606.046 1.214.02 1.821 0 .222-.077.41-.346.404-.27-.007-.225-.24-.225-.41v-1.658c0-.626-.407-1.036-.98-1.03a1.029 1.029 0 00-.726.297 1.004 1.004 0 00-.296.72c-.018.57 0 1.14 0 1.71 0 .209-.05.378-.303.364-.214 0-.272-.162-.272-.346l-.034-1.429zm-33.79-.375c0-.57-.013-1.14 0-1.71 0-.296-.103-.393-.388-.38-.286.013-.598 0-.9 0-.159 0-.31-.02-.33-.222a.249.249 0 01.158-.272.256.256 0 01.112-.016h3.252a.24.24 0 01.257.171c.01.036.011.074.003.11 0 .167-.108.222-.258.222H55.7c-1.04.014-1.04.014-1.04 1.017V32c0 .244 0 .525-.335.525s-.245-.31-.25-.503c-.009-.544 0-1.096 0-1.649zm104.524.404c-.01-.327.072-.65.237-.934a1.79 1.79 0 01.695-.675 1.764 1.764 0 011.908.05c.162.101.425.199.283.443-.161.29-.361.102-.557 0-.658-.37-1.247-.295-1.66.197a1.538 1.538 0 000 1.776 1.283 1.283 0 001.698.222c.207-.138.425-.267.571-.052.146.216-.13.329-.285.444a1.69 1.69 0 01-1.886.144 1.762 1.762 0 01-.743-.661 1.73 1.73 0 01-.261-.954zm-42.92 1.245c.187-.016.353-.115.391.129.02.08.008.164-.034.236a.326.326 0 01-.19.148 1.034 1.034 0 01-.806-.033 1.02 1.02 0 01-.529-.602c-.151-.521-.065-1.06-.085-1.591a1.236 1.236 0 010-.384c.13-.428-.641-.406-.432-.772.148-.257.517-.38.436-.788a.328.328 0 01.31-.432c.303 0 .277.27.252.443-.077.533.204.626.651.586.191-.018.45-.069.45.249 0 .317-.263.31-.477.284-.487-.06-.674.115-.631.61a8.74 8.74 0 010 1.211c-.004.535.223.775.694.706zm30.071-1.332a2.687 2.687 0 010-.716c.13-.46-.533-.404-.476-.763.047-.287.584-.262.476-.701-.063-.251-.027-.577.342-.558.314.016.254.329.224.53-.051.456.187.522.567.505.195 0 .496-.116.514.24.018.396-.308.308-.521.288-.45-.045-.589.144-.56.568.025.443.025.888 0 1.33-.018.491.225.667.69.629.144 0 .346-.147.382.142.036.288-.15.353-.364.4-.674.152-1.231-.278-1.287-1.004-.023-.292 0-.588 0-.887l.013-.002zm-65.8-1.08c.246-.29.564-.51.924-.64.148-.041.36-.1.373.17 0 .17.056.341-.213.425-.913.291-1.124.606-1.153 1.554v.991c0 .222-.031.422-.306.444-.274.022-.299-.21-.299-.421V29.65c0-.222-.139-.573.243-.64.382-.066.346.282.432.6zm54.98 1.14v-1.433c0-.122-.022-.268.144-.324a.284.284 0 01.371.158c.15.332.33.281.575.086.162-.122.343-.215.537-.275.133-.044.321-.064.344.155.016.156.074.382-.148.418-1.171.18-1.225 1.033-1.227 1.925v.666c0 .222-.099.41-.351.415-.252.004-.225-.233-.238-.408-.011-.464-.007-.923-.007-1.383zm18.62-.71v2.102c0 .2-.014.39-.272.39-.259 0-.353-.149-.353-.395v-4.202c0-.251.13-.324.335-.342.256-.024.296.129.294.346-.011.701-.004 1.4-.004 2.101zm-31.792.01v2.04c0 .262-.068.455-.358.444-.289-.01-.269-.248-.267-.443v-4.087c0-.233.029-.409.315-.393.285.015.323.166.316.408-.017.675-.006 1.34-.006 2.03zm-35.673.678v-1.382c0-.164-.018-.349.225-.362a.292.292 0 01.316.164c.017.038.026.08.025.122.01.994.01 1.99 0 2.987a.274.274 0 01-.103.222.282.282 0 01-.24.055c-.203-.017-.225-.153-.225-.313.004-.497.004-.996.002-1.493zm26.484-.002v-1.431c0-.145 0-.309.225-.311.225-.002.252.13.252.29v2.976c0 .162-.056.295-.256.284-.2-.011-.225-.17-.225-.32.002-.494.004-.991.004-1.488zm.234-2.448c-.225.023-.308-.133-.312-.3-.005-.166.078-.348.335-.332.256.015.321.162.316.36-.004.197-.148.279-.339.272zm-26.417-.002c-.213.027-.321-.05-.31-.27 0-.183-.027-.375.27-.364.224 0 .357.053.362.301.004.249-.084.349-.322.333z" fill="#fff"/></g><defs><clipPath id="clip0_206_1838"><path fill="#fff" transform="translate(.576 .363)" d="M0 0h180.379v33.274H0z"/></clipPath></defs></svg>