<svg width="401" height="423" fill="none" xmlns="http://www.w3.org/2000/svg"><path d="M104.868 90.315c3.043 19.002 12.564 36.408 26.988 49.339 15.936 15.219 31.383 30.988 47.283 46.206 6.032 5.647 6.032 9.537 0 15.184-16.981 16.217-33.23 33.122-50.246 49.27-22.386 21.313-28.523 47.824-22.561 76.298 5.37 25.789 22.247 44.76 47.352 54.504 33.579 13.118 63.567 6.473 89.23-18.661 6.381-6.232 12.832-12.361 19.213-18.559a7.526 7.526 0 012.364-2.108 7.666 7.666 0 016.198-.605 7.6 7.6 0 012.736 1.612 83.49 83.49 0 0020.084 11.637c4.08 1.377 4.219 4.339 1.255 7.265-23.885 23.895-45.992 50.097-81.802 57.912-43.726 9.503-92.787-3.443-122.042-43.279-14.597-19.315-22.563-42.73-22.734-66.83-.419-33.811 12.448-61.975 36.263-85.663 7.916-7.85 15.691-15.838 24.06-23.172 6.172-5.371 5.509-8.883-.209-14.289-11.368-10.673-23.188-21.071-31.069-34.878-9.763-17.215-11.785-34.189-1.813-51.645a18.738 18.738 0 019.45-9.538z" fill="#fff" fill-opacity=".1"/><path d="M350.973 354.466c-40.169.792-69.738-15.872-94.704-41.833-5.893-6.094-12.274-11.741-17.748-18.179-4.952-5.785-8.578-4.717-13.181.241a190.499 190.499 0 01-31.033 28.68c-20.155 13.773-43.064 14.358-61.579 1.894-2.266-1.549-4.882-3.064-4.324-5.578.558-2.513 3.94-1.48 6.067-1.962 14.975-3.289 28.655-10.814 39.368-21.657 17.085-16.94 34.311-33.742 51.118-50.957 5.125-5.234 8.438-5.337 13.947 0 19.352 19.384 37.728 39.905 59.277 57.017a80.649 80.649 0 0034.631 16.297 81.19 81.19 0 0038.334-1.45 80.454 80.454 0 0033.267-18.864A79.076 79.076 0 00425 266.152c10.705-29.92 3.905-57.981-18.515-81.532-6.974-7.23-14.227-14.082-21.34-21.106-3.487-3.443-4.638-6.886-.593-11.431a81.823 81.823 0 0010.461-17.008c2.545-5.096 4.881-7.231 9.589-2.238 15.133 16.01 33.404 29.472 44.283 48.891 12.832 22.896 19.143 47.032 14.785 74.026-7.776 47.996-35.776 78.123-80.757 94.34a77.036 77.036 0 01-31.94 4.372z" fill="#fff" fill-opacity=".1"/><path d="M279.419-.754c-20.748 1.342-40.1 7.23-55.512 22.724-6.974 7.092-14.401 13.772-21.375 20.934-4.079 4.166-7.287 5.027-12.483.998a113.172 113.172 0 00-19.108-10.949c-4.08-2.031-5.614-3.684-1.813-7.402 15.028-14.599 28.453-30.988 46.341-42.522 15.901-10.412 34.277-16.548 53.315-17.8 50.908-3.444 88.671 16.664 113.707 60.08a101.58 101.58 0 0112.762 42.247c3.836 41.592-11.89 74.749-42.261 102.362-6.73 6.129-12.867 12.911-19.561 19.04-3.487 3.443-3.766 5.475 0 8.883 6.729 6.163 13.075 12.74 19.422 19.281 14.54 14.978 23.955 31.849 21.583 53.609a53.062 53.062 0 01-9.484 22.655c-.872 1.343-1.534 3.443-3.766 2.892-2.231-.551-2.266-2.41-2.65-4.062a91.438 91.438 0 00-6.974-20.177c-8.612-17.215-23.885-28.371-36.891-41.626a848.456 848.456 0 00-31.382-30.437c-5.056-4.614-4.917-7.85 0-12.498 17.051-16.321 33.753-32.95 50.56-49.477 38.182-37.564 35.148-91.999-7.601-123.95C312.928 4.066 296.783.003 279.419-.754z" fill="#fff" fill-opacity=".1"/><path d="M.015 152.601C-.82 95.274 32.583 51.237 81.923 37.121c44.806-12.809 85.254-2.1 118.938 30.54 8.787 8.504 17.713 16.836 26.012 25.754 4.08 4.372 6.695 3.65 10.461 0 9.624-9.297 18.48-19.454 29.429-27.545 22.281-16.182 47.038-17.49 65.937-3.443 1.535 1.136 3.941 1.86 3.487 4.338 0 .758-1.639 1.584-2.615 1.722-22.979 3.443-39.018 17.525-54.186 33.432-12.867 13.497-26.884 25.961-39.646 39.561-6.102 6.473-9.764 4.992-15.168-.448-16.668-16.836-33.928-33.088-50.595-49.924a80.897 80.897 0 00-33.121-20.417 81.74 81.74 0 00-38.95-2.688 81.259 81.259 0 00-35.675 15.67C55.817 91.7 47.556 102.126 42.172 114.04c-13.738 28.956-8.996 61.32 15.098 87.006a396.196 396.196 0 0021.968 21.863c4.01 3.719 5.09 6.266 1.255 11.156a133.562 133.562 0 00-11.716 19.728c-2.022 3.788-3.905 4.614-6.974 1.446-21.723-21.519-46.236-40.8-56-71.546a117.053 117.053 0 01-5.788-31.091z" fill="#fff" fill-opacity=".1"/></svg>