<svg width="18" height="18" fill="none" xmlns="http://www.w3.org/2000/svg"><path d="M14.227 12.736c.328.323.649.637.967.955.826.824 1.654 1.646 2.474 2.476.346.35.42.802.226 1.218a1.065 1.065 0 01-1.03.614c-.308-.019-.55-.166-.764-.38-1.058-1.061-2.12-2.12-3.18-3.182-.064-.064-.11-.147-.16-.215-3.677 2.814-8.74 1.802-11.23-1.589C-.8 9.456-.436 4.948 2.405 2.235c2.937-2.805 7.4-2.99 10.537-.437 3.186 2.594 3.952 7.375 1.286 10.938zm-6.315.977a5.771 5.771 0 005.794-5.772 5.771 5.771 0 00-5.794-5.797 5.768 5.768 0 00-5.78 5.784 5.768 5.768 0 005.78 5.785z" fill="#000"/></svg>