<svg width="72" height="72" fill="none" xmlns="http://www.w3.org/2000/svg"><g filter="url(#filter0_d_2206_313)"><circle cx="36" cy="32" r="20" fill="#fff"/></g><path d="M35.527 38.74c-1.067 0-2-.207-2.8-.62-.8-.427-1.407-.993-1.82-1.7l1.66-2.22c.907 1.027 1.827 1.54 2.76 1.54.56 0 .993-.127 1.3-.38.307-.253.46-.58.46-.98 0-1.027-.793-1.54-2.38-1.54h-.88v-3h.8c.573 0 1.033-.12 1.38-.36.36-.253.54-.6.54-1.04 0-.347-.107-.627-.32-.84-.213-.227-.533-.34-.96-.34-.933 0-1.74.42-2.42 1.26l-1.64-2.16c.853-1.4 2.3-2.1 4.34-2.1 1.24 0 2.247.327 3.02.98.787.64 1.18 1.507 1.18 2.6 0 1.56-.693 2.653-2.08 3.28v.06c.827.16 1.467.54 1.92 1.14.467.587.7 1.313.7 2.18 0 1.28-.453 2.313-1.36 3.1-.893.76-2.027 1.14-3.4 1.14z" fill="#7E9BFA"/><defs><filter id="filter0_d_2206_313" x="0" y="0" width="72" height="72" filterUnits="userSpaceOnUse" color-interpolation-filters="sRGB"><feFlood flood-opacity="0" result="BackgroundImageFix"/><feColorMatrix in="SourceAlpha" values="0 0 0 0 0 0 0 0 0 0 0 0 0 0 0 0 0 0 127 0" result="hardAlpha"/><feOffset dy="4"/><feGaussianBlur stdDeviation="8"/><feColorMatrix values="0 0 0 0 0.1375 0 0 0 0 0.233899 0 0 0 0 0.55 0 0 0 0.15 0"/><feBlend in2="BackgroundImageFix" result="effect1_dropShadow_2206_313"/><feBlend in="SourceGraphic" in2="effect1_dropShadow_2206_313" result="shape"/></filter></defs></svg>