<svg width="25" height="24" viewBox="0 0 25 24" fill="none" xmlns="http://www.w3.org/2000/svg">
<path d="M9.18387 13.3419C9.38616 12.9381 9.5 12.4824 9.5 12C9.5 11.5176 9.38616 11.0619 9.18387 10.6581M9.18387 13.3419C8.69134 14.3251 7.67449 15 6.5 15C4.84315 15 3.5 13.6569 3.5 12C3.5 10.3431 4.84315 9 6.5 9C7.67449 9 8.69134 9.67492 9.18387 10.6581M9.18387 13.3419L15.8161 16.6581M9.18387 10.6581L15.8161 7.34193M15.8161 16.6581C15.6138 17.0619 15.5 17.5176 15.5 18C15.5 19.6569 16.8431 21 18.5 21C20.1569 21 21.5 19.6569 21.5 18C21.5 16.3431 20.1569 15 18.5 15C17.3255 15 16.3087 15.6749 15.8161 16.6581ZM15.8161 7.34193C16.3087 8.32508 17.3255 9 18.5 9C20.1569 9 21.5 7.65685 21.5 6C21.5 4.34315 20.1569 3 18.5 3C16.8431 3 15.5 4.34315 15.5 6C15.5 6.48237 15.6138 6.93815 15.8161 7.34193Z" stroke="#031C77" stroke-width="2" stroke-linecap="round" stroke-linejoin="round"/>
</svg>
