<svg width="165" height="35" fill="none" xmlns="http://www.w3.org/2000/svg"><g clip-path="url(#clip0_524_5353)" fill="#B9B9B9"><path d="M31.317 9.53l1.123-.876-.85-1.28c.325-.014.602-.029.88-.036 1.12-.026 2.24-.049 3.361-.073.118-.002.237 0 .4 0l-1.51 4.38-1.08-1.355-1.455 1.154c1.69 5.022 1.418 9.878-1.154 14.504-2.043 3.676-5.061 6.23-8.972 7.607-8.024 2.829-16.685-.89-20.367-8.606C-1.971 17.27.465 8.016 7.53 3.269 10.16 1.5 13.06.583 16.21.504c3.137-.079 6.07.683 8.782 2.302C27.71 4.43 29.8 6.682 31.317 9.529zm-2.373 1.846c-.033-.074-.053-.122-.077-.169a13.918 13.918 0 00-2.566-3.62c-2.23-2.255-4.898-3.594-8.012-3.997-1.5-.194-2.99-.134-4.466.19-3.14.69-5.751 2.297-7.784 4.84-2.296 2.874-3.288 6.19-3.075 9.888.005.087.028.172.038.239l4.628-4.053 2.472 2.293a2.06 2.06 0 00.049-.027V9.727c.333-.06 3.295-.045 3.47.013.002.007.007.016.007.024l.007 4.493c0 .018.004.035.008.052a.034.034 0 00.011.02c.007.005.017.006.04.016l4.376-3.389c.072.091.127.17.191.24.728.801 1.46 1.6 2.183 2.406a.426.426 0 00.354.16c.796-.006 1.592-.002 2.389-.002h.304c0 .32-.005.608 0 .894.005.291-.022.584.023.917 1.828-1.413 3.62-2.799 5.43-4.196zm-5.452 18.24c1.805-1.085 3.261-2.462 4.41-4.174 1.68-2.502 2.467-5.28 2.42-8.313-.018-1.177-.378-3.321-.636-3.692-.054.042-.109.082-.163.125-1.939 1.542-3.877 3.087-5.821 4.623-.162.128-.215.258-.215.46.006 3.539.004 7.078.004 10.616v.355zm-3.488 1.47v-4.117c0-3.468 0-6.935.003-10.404a.605.605 0 00-.174-.465c-.41-.423-.8-.864-1.2-1.297-.285-.31-.574-.617-.866-.929-.066.045-.117.076-.166.112-1.273.962-2.544 1.928-3.821 2.886-.123.092-.148.192-.148.33.003.964.002 1.927.002 2.89v11.096l1.478.246v-9.966c0-.82 0-1.638.002-2.453.449-.059 3.285-.037 3.473.026v8.217c0 .683-.003 1.366 0 2.05.003.677-.013 1.355.01 2.067l1.406-.288h.001zM3.344 20.871c.903 4.032 3.84 7.445 6.792 8.926V19.67l-.187.069-2.495-2.369-4.109 3.502-.001-.001zM89.05 1.517l3.129 8.107L95.15 1.66h2.044c-.033.094-.059.174-.089.252l-3.344 8.69c-.444 1.155-.89 2.31-1.337 3.466-.095.246-.097.246-.346.246h-1.004l-2.56-6.354c-.82 2.147-1.61 4.27-2.488 6.358h-1.33c-1.652-4.194-3.357-8.378-4.915-12.656h2.858l3.282 7.936c.53-1.354 1.03-2.702 1.542-4.045.513-1.341 1.02-2.686 1.53-4.03l.057-.005h-.001zm9.69 12.469c-.004-.104-.011-.19-.011-.275V1.727c.005-.221.011-.229.24-.233l.872-.011c1.001-.014 2.003-.042 3.004-.04 1.252.004 2.494.123 3.705.478 1.009.296 1.93.763 2.701 1.505 1.018.98 1.617 2.18 1.759 3.607.174 1.736-.306 3.272-1.395 4.607-.702.86-1.595 1.447-2.616 1.838a8.226 8.226 0 01-2.963.549c-.538 0-1.078.024-1.616.02-1.113-.007-2.225-.027-3.338-.042-.11-.001-.218-.012-.343-.02l.001.001zm3.085-1.34c.074.015.123.032.174.035.633.03 1.264.058 1.896-.026 1.531-.206 2.6-1.05 3.236-2.471.503-1.124.604-2.306.404-3.518-.149-.907-.488-1.727-1.084-2.427-.642-.754-1.425-1.238-2.403-1.387-.614-.093-1.227-.071-1.84-.011-.126.012-.25.033-.383.051v9.754zm50.854 1.324V1.81c0-.351 0-.35.341-.352 1.301-.009 2.601-.029 3.902-.026 1.236.002 2.459.133 3.649.493 1.208.364 2.265.98 3.088 1.972.752.907 1.18 1.953 1.308 3.137.259 2.424-.995 5.017-3.464 6.186a8.22 8.22 0 01-3.478.793c-1.053.01-2.105.01-3.158.012-.598 0-1.198-.005-1.797-.012-.125-.001-.249-.028-.391-.043v-.001zm3.095-1.334a8.49 8.49 0 001.966.013c1.475-.17 2.577-.911 3.234-2.273.794-1.647.825-3.345.122-5.028-.466-1.114-1.264-1.926-2.401-2.342-.622-.228-1.271-.265-1.924-.233-.33.016-.66.058-.997.089v9.774zM77.037 32.53V20.371c0-.365 0-.362.347-.366.718-.005 1.438-.012 2.156-.02.453-.005.907-.024 1.36-.021.985.006 1.966.064 2.936.25 1.069.204 2.09.545 2.997 1.174 1.417.983 2.272 2.325 2.453 4.087.174 1.695-.215 3.233-1.258 4.575-.717.923-1.655 1.53-2.728 1.936a8.32 8.32 0 01-3.015.535c-1.241-.007-2.482.005-3.724.008-.495.002-.99 0-1.524 0zm3.063-1.35a6.204 6.204 0 002.166.015c1.276-.228 2.277-.878 2.934-2.037.406-.714.624-1.49.697-2.312.103-1.134-.056-2.223-.588-3.227-.545-1.03-1.335-1.792-2.462-2.125-.709-.21-1.435-.215-2.163-.15-.193.018-.386.042-.583.064v9.773zm-8.276-16.84c-2.133-.008-3.938-.804-5.373-2.418-.897-1.01-1.366-2.227-1.497-3.582-.143-1.48.158-2.855.951-4.104.801-1.26 1.941-2.075 3.31-2.57A7.737 7.737 0 0172.19 1.2c.996.04 1.976.2 2.901.6 2.097.904 3.409 2.51 3.823 4.786.388 2.131-.224 4.02-1.673 5.605-.991 1.085-2.233 1.711-3.655 1.975a9.298 9.298 0 01-1.76.175zm3.737-6.655a8.848 8.848 0 00-.109-1.72c-.128-.75-.36-1.458-.763-2.1-.792-1.259-2.184-1.84-3.555-1.466-.937.256-1.608.865-2.073 1.722-.38.698-.578 1.453-.669 2.243-.124 1.075-.142 2.148.073 3.214.175.865.479 1.68 1.017 2.383 1.168 1.525 3.172 1.701 4.57.4.6-.558.954-1.272 1.193-2.051.264-.853.339-1.73.316-2.625zM53.376 1.503h.292c.959.003 1.918-.007 2.876.012.88.017 1.763.04 2.641.105.984.071 1.863.467 2.613 1.111 1.092.94 1.243 2.61.382 3.797a3.195 3.195 0 01-.867.81c-.34.219-.689.424-1.034.635l-.28.179 4.282 5.9c-.173.011-.298.026-.422.024-.873-.004-1.747-.014-2.62-.015a.479.479 0 01-.385-.17c-.101-.118-.204-.236-.296-.361-1.133-1.561-2.271-3.117-3.39-4.688-.223-.312-.481-.342-.82-.28v5.48h-2.963c-.057-.181-.072-12.213-.01-12.54h.001zM56.36 7.22c.066.018.115.043.163.04.358-.016.718-.019 1.074-.063.423-.052.815-.21 1.138-.502.864-.779 1.169-2.086.242-3.262a1.663 1.663 0 00-.988-.615c-.516-.109-1.039-.066-1.558-.023-.023.002-.042.026-.07.045v4.38zm53.735 19.439l4.298 5.923h-.333c-.864-.003-1.729-.015-2.593-.007a.734.734 0 01-.657-.327c-.579-.803-1.164-1.602-1.745-2.404-.602-.83-1.216-1.65-1.798-2.493-.218-.316-.48-.344-.821-.283v5.478h-2.964c-.059-.189-.07-12.244-.009-12.518.028-.005.06-.018.092-.018 1.121.002 2.244-.007 3.365.01.717.012 1.435.06 2.152.091 1.036.046 1.956.43 2.756 1.082 1.302 1.063 1.316 3.127.055 4.274-.393.358-.85.617-1.3.887-.161.096-.319.195-.499.305h.001zm-3.633-.89c.252 0 .474.008.695-.002.455-.023.903-.09 1.314-.312 1.012-.549 1.755-2.149.551-3.572a1.593 1.593 0 00-.814-.522c-.565-.155-1.135-.113-1.706-.043-.012.001-.024.02-.04.035v4.416zm41.196-16.443V1.57h1.89c.052.186.074 12.15.021 12.64-.034.008-.073.023-.112.023-.393.01-.787.01-1.18.03-.173.009-.284-.055-.393-.186a578.908 578.908 0 00-3.168-3.798c-1.212-1.44-2.432-2.872-3.65-4.307-.083-.099-.176-.19-.275-.298-.077.102-.045.21-.045.306-.002 2.584-.002 5.168-.002 7.752v.328h-1.863c-.053-.186-.066-12.232-.012-12.52.021-.007.045-.024.068-.024.496.004.993.02 1.489.013.239-.003.405.108.553.278.572.652 1.145 1.301 1.717 1.952l4.748 5.418c.05.057.096.12.143.178l.072-.03h-.001zM45.502 20.05a9.884 9.884 0 011.71-.002c.19.013.308.141.422.27.421.474.839.949 1.255 1.425l5.143 5.868c.073.083.151.163.273.295.005-.15.009-.239.009-.328v-7.494h1.916V32.7c-.015.013-.028.031-.042.031-.462.016-.923.025-1.385.044-.115.004-.166-.074-.226-.145-.55-.66-1.097-1.321-1.65-1.978-1.721-2.044-3.446-4.085-5.168-6.126-.098-.116-.206-.223-.31-.334l-.049.023v8.355h-1.898V20.05zm5.504-15.52l-1.337.963c-.141-.158-.28-.309-.415-.465-.438-.504-.876-1.008-1.409-1.413-.789-.6-1.664-.965-2.656-.838-1.567.2-2.76.989-3.36 2.523-.647 1.655-.681 3.34.07 4.973.62 1.348 1.685 2.174 3.13 2.405 1.19.19 2.244-.196 3.108-1.038.469-.457.864-.992 1.292-1.491.061-.072.12-.146.193-.234.43.326.846.642 1.27.966a8.33 8.33 0 01-.855 1.17c-.902 1.045-1.987 1.805-3.334 2.086-2.425.505-4.663.095-6.605-1.562-1.14-.973-1.889-2.195-2.072-3.718-.23-1.914.12-3.7 1.307-5.247.706-.92 1.643-1.52 2.714-1.908 1.19-.43 2.415-.656 3.678-.557 1.687.132 3.107.852 4.25 2.127.357.398.68.827 1.031 1.258zm73.785-3.017h3.003c.003.11.008.21.008.312v7.384c0 .555.041 1.103.219 1.631.334.994.939 1.73 1.951 2.03 1.996.592 3.776-.683 4.008-2.68.023-.2.035-.402.036-.603.005-1.62.009-3.24.01-4.861 0-.963-.006-1.927-.008-2.89v-.283c.191-.06 1.393-.08 1.922-.033.008.062.023.127.023.193.001 2.523.007 5.046-.005 7.568-.002.522-.023 1.054-.118 1.566-.232 1.246-.959 2.128-2.06 2.685-1.129.57-2.323.882-3.59.841-1.254-.04-2.436-.367-3.51-1.037-1.097-.687-1.742-1.694-1.859-3.013-.056-.635-.047-1.277-.062-1.915a55.192 55.192 0 01-.022-1.522c.007-1.751.021-3.503.034-5.254 0-.033.011-.067.019-.12h.001zM58.747 29.206h.223c.522 0 1.045.01 1.566-.006.19-.005.277.07.348.231.105.24.213.48.342.705.345.607.824 1.051 1.51 1.213a3.23 3.23 0 001.625-.049 1.64 1.64 0 00.769-.455c.401-.425.505-.92.318-1.476-.118-.349-.336-.627-.595-.876-.53-.508-1.15-.88-1.78-1.237-.71-.402-1.44-.77-2.148-1.177a6.861 6.861 0 01-.93-.651c-1.474-1.212-1.28-3.586.14-4.638.693-.513 1.468-.825 2.3-.988.976-.191 1.941-.104 2.893.175 1.286.377 2.17 1.218 2.715 2.451.088.2.158.407.234.61.012.032.01.068.015.113h-1.88c-.085-.177-.174-.354-.257-.534a3.42 3.42 0 00-.684-1.01c-.574-.562-1.27-.728-2.038-.642a3.062 3.062 0 00-1.152.34c-.817.448-1.014 1.484-.387 2.18.26.287.564.537.872.77.654.498 1.368.895 2.09 1.277.6.318 1.199.641 1.77 1.006.33.21.64.48.9.775 1.143 1.295 1.015 3.09-.28 4.25-.668.6-1.456.947-2.324 1.094a7.95 7.95 0 01-3.01-.046c-.93-.2-1.737-.64-2.358-1.391-.448-.543-.68-1.187-.81-1.876-.006-.033 0-.07 0-.14l.003.002zm33.039 3.339V20.06c.19-.055 8.598-.079 9.086-.027.061.172.075.678.025 1.06-.659.024-1.322.007-1.986.01-.668.004-1.336 0-2.004 0h-2.02v4.05h4.951v1.135c-.328.023-.658.007-.988.01-.326.003-.651 0-.976 0h-2.989v4.93h5.99c.058.215.068 1.009.02 1.317h-9.109zm24.756-18.555h-3.025c-.051-.182-.067-12.113-.014-12.48h8.75c.003.171.008.342.01.513.002.166 0 .33 0 .526h-5.674v4.093h4.972v1.122h-5c-.036.366-.012.705-.017 1.042-.004.35 0 .701 0 1.051v4.134h-.002zM42.333 32.54H39.42c-.013-.01-.022-.014-.027-.02-.006-.007-.012-.015-.012-.022-.007-4.064-.012-8.129-.017-12.192v-.28h2.969v12.516-.002zm31.524.013h-2.9c-.054-.198-.076-12.042-.024-12.473.187-.052 2.62-.063 2.924-.01v12.483z"/></g><defs><clipPath id="clip0_524_5353"><path fill="#fff" transform="translate(0 .5)" d="M0 0h165v34H0z"/></clipPath></defs></svg>