<svg width="132" height="41" fill="none" xmlns="http://www.w3.org/2000/svg"><g clip-path="url(#clip0_524_5414)"><path d="M32.859 37.682c-9.871 6.284-23.624 3.52-29.726-7.259-5.905-10.43-1.55-23.654 9.759-28.612 10.783-4.726 22.44.338 26.902 8.988-.524 0-1.011-.011-1.498.004-.345.011-.414-.266-.554-.463-2.897-4.085-6.83-6.642-11.814-7.563-7.271-1.344-14.82 1.992-18.654 8.177C.79 21.416 6.54 34.83 18.724 37.597c4.04.917 7.962.448 11.715-1.273.411-.19.642-.158.95.127.455.422.95.8 1.471 1.232l-.001-.001z" fill="#ACA9A9"/><path d="M8.778 11.06c.58.683.696 1.255.266 2.097-4.218 8.242.899 18.206 10.17 19.892 7.881 1.432 15.503-3.723 16.708-11.44.84-5.396-.983-9.892-5.327-13.343-.528-.421-.374-.814-.267-1.287.24-1.057.25-1.081 1.187-.453 4.255 2.85 6.777 6.756 7.362 11.795.968 8.34-4.803 16.027-13.219 17.653-8.744 1.691-17.383-3.841-19.299-12.383-.985-4.39-.166-8.485 2.233-12.296.045-.07.105-.132.187-.234h-.001z" fill="#B9B9B9"/><path d="M73.767 12.513c0-2.77.016-5.347-.013-7.922-.005-.533.082-.758.69-.702.69.064 1.392.027 2.087.009.301-.008.411.065.41.385a2618.9 2618.9 0 000 12.845c0 .34-.114.47-.45.426-.043-.005-.087 0-.13 0-.845-.013-1.808.215-2.5-.11-.666-.312-1.06-1.192-1.558-1.832-1.643-2.11-3.28-4.223-4.927-6.347-.205.174-.11.377-.112.548-.008 2.364-.023 4.729.01 7.093.007.547-.164.694-.695.658a18.302 18.302 0 00-2.02-.003c-.414.02-.512-.13-.51-.512.011-4.239.011-8.478 0-12.717 0-.331.085-.447.435-.435.738.024 1.48.036 2.216-.004.396-.022.529.237.705.463a6449.96 6449.96 0 016.034 7.767c.062.08.128.154.33.39h-.002z" fill="#ACA9A9"/><path d="M100.157 28.887c3.427 1.059 3.211 4.743 1.253 6.207-.873.653-1.903.84-2.943.866-2.084.053-4.171.013-6.256.035-.418.004-.507-.153-.505-.525.01-4.194.01-8.387 0-12.582 0-.413.137-.567.564-.556 2.04.046 4.085-.114 6.118.119 1.952.223 3.38 1.052 3.641 3.175.179 1.454-.385 2.575-1.872 3.26v.002zm-3.589 4.45c.753-.03 1.476.072 2.164-.187.592-.222.945-.76.88-1.414-.062-.611-.331-1.08-1.009-1.25-.834-.21-1.68-.141-2.522-.15-1.254-.01-1.27-.002-1.246 1.245.01.564-.264 1.287.133 1.651.362.332 1.08.058 1.599.105h.001zm-.216-5.501c.406-.028.905.027 1.396-.104.769-.204 1.093-.572 1.091-1.284 0-.77-.326-1.143-1.104-1.347-.472-.123-.946-.11-1.42-.117-1.485-.019-1.485-.014-1.485 1.459 0 .927.508 1.391 1.523 1.391l-.001.002zm-8.322 1.277c-.003 3.998-3.124 7.004-7.272 7.003-4.158 0-7.35-3.06-7.324-7.049.028-4.148 3.45-7.094 7.502-7.016 3.98.077 7.098 3.117 7.095 7.062zm-3.248-.04c0-.212.014-.425-.002-.637-.182-2.55-2.837-4.288-5.304-3.475-1.818.6-2.943 2.462-2.794 4.63.175 2.56 2.656 4.358 5.132 3.708 1.622-.426 3.136-2.156 2.967-4.225h.001zm-63.299 2.531c.295-.464.364-.948 1.08-.979 4.825-.207 9.102-3.935 10.032-8.59 1.202-6.012-2.835-11.812-8.97-12.842-5.875-.986-11.497 2.754-12.699 8.557-.056.27-.136.546-.124.817.018.442-.173.62-.598.748-1.002.302-1.008.328-.95-.69.339-6.025 4.774-10.84 10.708-11.809 6.744-1.102 13.498 3.322 14.682 10.437 1.09 6.536-3.508 12.91-10.2 14.151-.957.177-1.91.299-2.963.2h.002zm110.005-20.926c0 2.087-.017 4.174.013 6.261.008.516-.154.668-.663.636a16.018 16.018 0 00-1.89 0c-.499.026-.631-.168-.622-.633.026-1.384-.006-2.768.019-4.152.007-.433-.097-.593-.571-.584-1.456.03-2.913.023-4.369.003-.4-.006-.522.115-.516.506.021 1.427-.008 2.854.018 4.28.008.45-.139.6-.594.58a25.868 25.868 0 00-2.02-.003c-.412.012-.575-.119-.574-.547.013-4.216.013-8.434 0-12.65 0-.408.152-.507.533-.494.717.023 1.436.029 2.151-.001.42-.017.507.153.503.523-.016 1.513.015 3.025-.018 4.536-.011.494.15.607.628.596a96.29 96.29 0 014.173 0c.492.01.678-.096.663-.624-.039-1.469.003-2.939-.023-4.408-.008-.451.082-.66.601-.626a17.91 17.91 0 002.02.003c.429-.02.553.12.55.539-.02 2.087-.009 4.174-.009 6.26h-.003zm-39.171-.018c0-2.044.013-4.089-.01-6.132-.006-.475.088-.66.632-.654 2.933.028 5.867.024 8.8.002.509-.004.697.125.654.638a11.79 11.79 0 00-.002 1.66c.026.434-.156.538-.567.534-1.89-.016-3.781.012-5.671-.019-.529-.009-.75.112-.694.662.049.485.038.98.002 1.467-.034.443.108.583.573.575 1.673-.027 3.346.004 5.019-.02.451-.007.622.114.589.57a11.8 11.8 0 000 1.595c.028.435-.154.541-.568.537-1.65-.018-3.303.01-4.954-.018-.496-.008-.712.105-.66.63.046.485.049.983 0 1.467-.057.54.182.625.666.619 1.932-.023 3.867.004 5.801-.02.475-.006.667.11.631.602-.042.572-.025 1.15-.004 1.724.012.351-.105.491-.481.49-3.085-.01-6.17-.014-9.256.004-.488.002-.504-.234-.503-.593.01-2.107.006-4.215.006-6.324l-.003.003zm12.213 25.327l2.275-5.151c1.162-2.636 2.334-5.267 3.475-7.91.19-.438.425-.64.919-.592.773.076 1.713-.294 2.283.153.529.414.696 1.285.996 1.966 1.603 3.63 3.197 7.264 4.796 10.895.281.64.286.64-.438.64-.673.002-1.35-.03-2.02.012-.474.03-.696-.145-.853-.57-.243-.659-.565-1.289-.832-1.94-.129-.317-.309-.454-.678-.45-1.607.02-3.217.02-4.826 0-.37-.004-.547.137-.675.452-.281.692-.586 1.373-.883 2.058-.103.24-.2.451-.544.445-.954-.02-1.908-.007-2.992-.007h-.003zm9.197-5.658l-1.678-3.822a8913.93 8913.93 0 01-1.689 3.822h3.367zm-55.31 1.17c0 .532-.038 1.069.01 1.597.055.589-.156.993-.61 1.375-3.096 2.603-9.784 2.563-11.853-2.708-.943-2.404-.704-4.8.936-6.894 1.748-2.228 4.11-3.088 6.954-2.72 1.35.175 2.534.698 3.617 1.485.335.242.447.448.14.814-.37.443-.71.918-1.003 1.414-.247.417-.432.38-.789.107-2.074-1.576-4.528-1.417-6.14.352-1.42 1.558-1.517 5.372 1.277 6.658 1.317.607 2.659.444 3.98-.06.306-.117.339-.336.335-.61-.01-.937.012-1.875-.01-2.811-.01-.387.118-.53.52-.516.716.025 1.434.02 2.15 0 .365-.01.503.107.49.475-.023.681-.007 1.362-.007 2.045l.003-.003zm46.012-20.794c-.117-4.23 3.493-7.016 6.779-7.113 2.302-.068 4.256.575 5.906 2.152.329.315.325.52.009.826-.385.373-.767.762-1.076 1.195-.363.51-.601.525-1.061.057-1.267-1.29-3.266-1.651-4.871-.931-1.491.668-2.324 1.789-2.402 3.427-.084 1.74.478 3.172 2.104 4.003 1.518.776 3.029.56 4.447-.324.272-.17.534-.38.738-.622.272-.325.466-.357.759-.022.409.468.849.912 1.299 1.343.281.268.265.454-.001.736-2.034 2.147-5.288 2.849-8.216 1.748-2.717-1.02-4.403-3.494-4.415-6.475h.001z" fill="#B9B9B9"/><path d="M45.5 10.738c0-2.108.013-4.217-.01-6.324-.006-.42.113-.522.535-.52 2.825.02 5.65.02 8.474 0 .42-.002.575.094.533.52-.07.712.307 1.672-.145 2.073-.399.352-1.361.098-2.076.101-1.238.005-2.477.013-3.715-.006-.349-.006-.5.06-.48.443.033.658.034 1.322 0 1.98-.02.405.122.496.515.49 1.65-.02 3.303.009 4.954-.018.484-.008.714.08.662.618-.052.549-.033 1.107-.004 1.66.02.374-.128.461-.487.459-1.695-.016-3.39.011-5.085-.02-.474-.008-.565.137-.556.569.029 1.383-.017 2.768.025 4.15.017.548-.165.69-.692.652a15.516 15.516 0 00-1.954 0c-.417.023-.503-.12-.5-.503.018-2.107.009-4.215.009-6.323l-.003-.002z" fill="#ACA9A9"/><path d="M83.055 12.004c0-1.638-.012-3.278.009-4.916.005-.392-.11-.515-.512-.504-.955.027-1.911-.006-2.866.016-.406.008-.598-.086-.572-.528.034-.572.026-1.149.001-1.722-.015-.368.13-.47.49-.469 3.344.01 6.689.013 10.032-.002.413-.001.534.137.5.516-.062.711.302 1.625-.158 2.084-.4.399-1.322.08-2.011.114-.56.028-1.276-.227-1.637.103-.367.336-.116 1.046-.118 1.59-.013 2.83-.03 5.66.011 8.49.01.67-.207.861-.85.8a7.894 7.894 0 00-1.497 0c-.632.061-.868-.102-.842-.787.06-1.593.02-3.191.02-4.787v.002zM62.23 29.157c0-2.065.011-4.132-.01-6.197-.005-.467.133-.655.628-.628.629.034 1.262.038 1.89-.002.5-.03.622.147.618.617-.02 3.174.004 6.347-.023 9.52-.006.575.135.769.75.75 1.543-.043 3.087 0 4.63-.022.46-.007.616.152.595.594a25.444 25.444 0 00-.004 1.788c.006.297-.102.414-.416.413a925.741 925.741 0 00-8.215.003c-.482.003-.445-.269-.445-.578.003-2.087.001-4.174.001-6.26v.002zm59.99.032c0-2.064.014-4.128-.009-6.192-.005-.488.119-.7.653-.665.627.04 1.262.04 1.889 0 .505-.034.615.157.612.622-.018 3.17.004 6.341-.022 9.51-.005.568.123.776.746.756 1.519-.046 3.04 0 4.559-.024.46-.008.612.14.586.582a12.927 12.927 0 000 1.659c.032.468-.161.563-.599.56a480.524 480.524 0 00-7.818.003c-.505.005-.612-.158-.607-.62.024-2.063.01-4.127.01-6.191z" fill="#B9B9B9"/><path d="M57.59 10.613c0-2.063.01-4.126-.009-6.189-.004-.404.085-.554.526-.531.715.038 1.433.03 2.149.002.386-.015.513.071.512.483-.017 4.21-.018 8.422 0 12.633.002.468-.154.573-.593.552a19.237 19.237 0 00-2.018 0c-.462.025-.581-.129-.577-.57.022-2.127.01-4.253.01-6.38z" fill="#ACA9A9"/></g><defs><clipPath id="clip0_524_5414"><path fill="#fff" transform="translate(.5)" d="M0 0h131v41H0z"/></clipPath></defs></svg>