<svg width="59" height="43" fill="none" xmlns="http://www.w3.org/2000/svg"><g clip-path="url(#clip0_524_5520)" fill="#B9B9B9"><path d="M37.583.5h10.674l.006 1.276-10.486.002c-.066 0-.138.017-.194-.037V.5z"/><path d="M48.263 1.776L48.257.5h.09c-.001.353.002.706-.008 1.058-.005.149.058.189.202.187.544-.005 1.09.004 1.634-.006.196-.004.265.054.262.249-.01.89.002 1.779-.008 2.668-.002.203.06.266.27.265 1.642-.007 3.284-.004 4.926-.003.303 0 .304 0 .304.293v7.3c0 .102.009.204.013.307a1.82 1.82 0 00-.034.048l-.064-.031c.002-.089.006-.176.006-.265V5.296c0-.201-.1-.302-.302-.302l-5.151-.006c-.056-.052-.127-.038-.194-.038l-1.764.003c-.016 0-.032 0-.048-.002l-.084-.016-.006-2.481c0-.227.019-.455-.039-.678h.001zM4.318 42.496c-1.106 0-2.21-.003-3.316.004-.174 0-.243-.041-.229-.22.018-.206.01-.413.002-.619-.004-.125.044-.181.172-.21.413-.09.822-.2 1.234-.291.172-.04.241-.11.241-.298-.006-3.831-.006-7.662 0-11.494 0-.191-.05-.257-.252-.25-.439.014-.879-.006-1.317.008-.188.007-.237-.06-.228-.228a5.135 5.135 0 000-.595c-.009-.144.05-.209.187-.25.928-.269 1.853-.544 2.779-.817.369-.11.738-.215 1.106-.327.415-.127.84-.04 1.262-.059.127-.005.103.103.104.18.002.33 0 .662.002.993.001.222.02.232.224.116.585-.337 1.172-.67 1.802-.927 2.008-.82 4.129-.093 5.152 1.78.748 1.367.902 2.82.612 4.325-.28 1.462-1.038 2.637-2.317 3.47-1.03.67-2.188.943-3.414.98-.606.02-1.21-.03-1.814-.067-.182-.011-.252.027-.25.222.01.978.011 1.957-.002 2.934-.003.204.08.267.259.304.45.092.898.202 1.35.29.15.03.204.092.197.237a5 5 0 00.002.618c.015.187-.087.196-.234.196-1.105-.004-2.21-.002-3.315-.002v-.003zm1.745-9.65c0 1.116.003 2.233-.003 3.349-.001.163.047.224.218.214.294-.016.59.002.883-.026.95-.09 1.746-.46 2.281-1.259.332-.495.504-1.048.58-1.63.118-.912.127-1.819-.19-2.698-.311-.861-.91-1.421-1.847-1.612-.598-.122-1.188-.046-1.778.06-.162.03-.144.14-.144.25v3.351zm17.277-1.607c-.248.393-.497.785-.742 1.179-1.075 1.72-2.151 3.44-3.221 5.163-.085.136-.177.194-.344.192a93.587 93.587 0 00-2.248 0c-.217.004-.284-.057-.284-.272.008-2.684.005-5.368.005-8.052 0-.298 0-.295-.31-.32-.543-.046-1.085-.1-1.627-.14-.163-.012-.235-.068-.216-.23.01-.08.002-.162.002-.242 0-.374.184-.602.55-.684 1.105-.247 2.207-.51 3.318-.728.473-.093.966-.02 1.45-.025.084 0 .12.05.121.13v.198c0 2.066 0 4.132.003 6.199 0 .084-.027.175.032.255.079.002.098-.063.126-.108l3.194-5.128c.29-.465.585-.927.869-1.395.072-.12.159-.156.293-.155.727.004 1.454.008 2.18-.003.21-.003.251.072.25.257-.005 2.464-.003 4.927-.002 7.39 0 .108-.022.22.026.333.1-.01.13-.092.175-.152.8-1.042 1.595-2.088 2.397-3.128a.583.583 0 00.13-.384c-.005-1.213.006-2.427-.01-3.64-.003-.262.096-.42.299-.567 1.015-.735 2.449-.458 3.008.595.318.6.273 1.21.012 1.812-.321.74-.837 1.36-1.337 1.988-1.607 2.014-3.22 4.024-4.827 6.04-.095.119-.198.158-.346.157-.863-.005-1.726-.01-2.588.002-.22.004-.264-.07-.264-.266.006-1.992.004-3.985.004-5.978v-.274l-.078-.016v-.003zm16.534-1.835c0-.405-.006-.81.003-1.213.004-.191-.065-.221-.245-.177-1.143.28-1.922.96-2.27 2.045-.433 1.344-.439 2.697.13 4.014.631 1.46 2.098 2.142 3.681 1.757.823-.2 1.567-.575 2.327-.92.26-.117.263-.117.264.149 0 .485-.01.97.005 1.456.005.179-.071.26-.227.328-1.044.458-2.109.864-3.254.998-1.416.164-2.829.184-4.171-.393-1.058-.455-1.81-1.242-2.378-2.195-.67-1.124-.83-2.35-.661-3.623.34-2.558 2.29-4.242 4.729-4.71.938-.18 1.882-.217 2.82-.06 1.068.18 2.043.56 2.686 1.479.565.809.492 1.88-.179 2.515-.456.433-1.032.56-1.653.52-.533-.036-1.003-.26-1.473-.48-.116-.054-.135-.144-.134-.255.003-.412 0-.823 0-1.235zM37.537 5.09a.136.136 0 01.005-.132c3.48 0 6.96.001 10.44-.008.244 0 .28.077.28.288-.007 2.426-.004 4.851-.004 7.276 0 .102-.013.207.045.3v.043l-4.038-.007a.594.594 0 00-.004-.04c0-.787-.006-1.574.005-2.36.003-.195-.053-.248-.254-.247-2.142.007-4.283.005-6.425.006 0-1.624 0-3.247-.004-4.87 0-.085.037-.178-.045-.25h-.001z"/><path d="M44.26 12.81l.004.04c.014.093.04.187.04.28v4.886c-.062.009-.129-.015-.18.037l-5.696.004c-.28 0-.56-.006-.84-.01-.001-1.616-.002-3.232-.006-4.849 0-.085.03-.176-.033-.255l-.033-.093.02-.041c.016 0 .033 0 .049.002l6.675-.001zm4.042.004c-.057-.094-.045-.199-.045-.3 0-2.426-.003-4.851.004-7.275 0-.212-.036-.289-.28-.289-3.48.01-6.96.008-10.44.008-.004-.672-.01-1.344-.012-2.016-.001-.402.005-.804.009-1.206l.045.004c.056.055.128.038.194.038l10.486-.002c.058.223.04.45.04.678l.005 2.481c.038.106.04.215.04.326v7.224c0 .188.1.281.298.281.484 0 .967-.001 1.45.002.076 0 .175-.037.209.078-.398.003-.797.011-1.195.006-.27-.003-.541.036-.807-.038zm-21.534 7.869c-.046-.056-.037-.124-.037-.189v-2.213c0-.066-.003-.132.039-.19.09.004.18.011.27.011h10.142c.214 0 .32.107.32.32l.006 2.247-.011.009c-.03-.003-.06-.007-.09-.007H26.972c-.067 0-.135.007-.202.01l-.002.002zm29.141-7.817l.034-.048c.816 0 1.632.004 2.448-.004.174-.002.235.041.234.22-.006 1.614-.005 3.23-.003 4.844 0 .128 0 .225-.184.222-.838-.01-1.677-.009-2.516-.011l-.023-.073c.004-.022.012-.043.012-.064 0-1.696-.002-3.39-.004-5.086h.002zm-51.497-2.59l.514-1.411c.12-.333.246-.663.355-.998.044-.133.106-.184.254-.183.503.003.502-.003.673.468.237.649.472 1.3.717 1.946.056.15.045.201-.138.198-.405-.007-.418.005-.524-.376-.055-.2-.15-.285-.36-.247-.044.008-.09 0-.136.002-.181.004-.403-.05-.53.032-.113.074-.128.298-.175.459-.03.106-.093.13-.197.129a21.51 21.51 0 00-.926 0c-.116.003-.18-.04-.236-.13-.155-.253-.326-.496-.473-.752-.072-.126-.174-.129-.287-.112-.144.021-.077.14-.08.215a9.753 9.753 0 00-.002.64c.003.104-.035.135-.143.14-.43.02-.43.025-.43-.389 0-.676.004-1.353-.004-2.029-.002-.145.042-.192.19-.183.333.017.667-.025.997.04.31.06.553.202.634.522.086.34-.02.633-.325.824-.127.08-.12.126-.045.23.225.312.442.63.676.966l.001-.001zM2.845 8.487c.086.116-.14.37.2.36.344-.01.518-.13.51-.364-.007-.225-.19-.339-.538-.334-.304.003-.081.237-.172.34v-.002zm2.852-.348c-.077.239-.137.422-.194.608-.099.318.024.47.368.459.016 0 .03-.002.046 0 .098.008.119-.038.092-.12a195.7 195.7 0 01-.312-.947zm15.78 5.257c0 .618-.011 1.183.005 1.746.007.227-.133.179-.259.18-.128 0-.264.046-.26-.18.013-.741.01-1.483.001-2.225-.002-.16.056-.178.206-.198.38-.053.601.077.773.418.251.498.566.965.851 1.443.084-.016.055-.07.052-.106-.043-.521-.006-1.042-.027-1.564-.009-.195.097-.2.235-.183.121.014.294-.08.29.174-.014.749-.008 1.498-.003 2.248.001.129-.03.164-.172.18-.382.042-.633-.049-.812-.424-.242-.508-.567-.98-.88-1.508zM3.852 18.98c.368.219.458.397.4.767-.042.275-.279.498-.618.565-.41.082-.828.025-1.243.04-.1.004-.101-.06-.101-.13v-2.334c0-.07 0-.136.101-.132.437.016.878-.048 1.308.067.42.113.593.43.462.829-.05.154-.168.246-.308.328zm-.992.58c.038.126-.119.355.225.337.445-.025.59-.09.586-.35-.002-.24-.155-.306-.586-.328-.312-.016-.207.184-.225.341zm.001-1.058c.005.143-.059.306.219.288.41-.027.531-.072.531-.294 0-.205-.157-.27-.54-.293-.284-.017-.198.163-.21.299zm3.23-4.438c-.002-.554.123-1.005.645-1.254.905-.432 1.839.104 1.877 1.078.003.058.003.117.002.176-.011.956-.682 1.468-1.645 1.252-.483-.108-.811-.49-.866-1.008-.01-.094-.01-.19-.014-.244h.001zm1.93-.028a1.56 1.56 0 00-.047-.414c-.092-.315-.275-.461-.597-.469-.335-.007-.541.136-.638.45-.085.281-.084.566.003.847.095.304.291.438.623.435.322-.002.514-.15.607-.457.04-.13.047-.26.048-.393v.001zm3.539-5.049c0-.374.007-.749-.003-1.124-.004-.14.043-.177.18-.17.346.018.695-.026 1.04.038.546.1.898.455.98.988.14.927-.368 1.53-1.331 1.569-.234.01-.47-.004-.703.006-.13.005-.168-.036-.165-.16.007-.382.002-.764.002-1.147zm.58-.005c0 .235-.002.47.001.704 0 .052-.028.113.061.142.282.089.729-.08.87-.34a1.06 1.06 0 00.107-.684c-.076-.487-.436-.733-.938-.66-.1.014-.1.064-.1.133v.704l-.001.001zm18.476 5.042c0-.374.005-.75-.003-1.124-.003-.13.03-.179.175-.178.397 0 .395-.007.398.377 0 .204-.07.476.036.595.124.14.412.039.628.044.377.008.377.003.377-.362 0-.14.016-.282-.004-.419-.03-.208.064-.244.253-.235.383.018.327-.043.329.314.003.698-.004 1.397.005 2.095.001.156-.046.198-.204.195-.38-.007-.38 0-.38-.37 0-.199-.003-.397.003-.596.002-.102-.01-.161-.143-.155-.25.01-.5.008-.75 0-.117-.003-.156.035-.154.15.009.265-.004.53.006.794.004.132-.03.177-.175.177-.397 0-.397.006-.397-.376v-.925zm-14.348.023c-.026.317-.023.635-.195.921-.172.288-.44.39-.763.386-.318-.006-.584-.127-.716-.418a2.203 2.203 0 01-.015-1.819c.139-.332.447-.438.8-.427.388.014.63.221.767.557.105.257.108.531.123.8h-.001zm-.568-.01c-.006-.227.006-.455-.08-.672-.053-.132-.135-.233-.295-.227-.16.005-.247.105-.282.243a2.68 2.68 0 00-.003 1.282c.032.14.12.237.28.243.17.006.256-.098.308-.24.074-.206.066-.419.072-.63zm-6.529-.013c0-.373.004-.748-.002-1.122-.002-.126.022-.188.172-.179.331.02.665-.027.995.033.435.078.667.339.677.753.01.44-.219.749-.635.845a1.034 1.034 0 01-.358.042c-.253-.033-.305.076-.282.292.016.16-.003.322.005.483.006.113-.032.15-.153.155-.418.013-.418.018-.418-.376v-.925zm.747-.847c-.147-.046-.191.04-.18.2.01.146.001.292.003.438 0 .048-.012.1.054.128.268.118.639-.115.635-.4-.005-.254-.14-.358-.512-.366zm16.228.831c0-.368.005-.735-.003-1.103-.002-.125.022-.185.172-.182.401.01.802.012 1.203 0 .248-.008.15.16.17.27.023.137-.021.2-.18.19-.21-.014-.423.002-.635-.006-.12-.005-.148.037-.15.15-.01.418-.015.418.415.418.075 0 .152.01.226-.001.227-.037.282.058.27.266-.009.15-.043.217-.204.196-.068-.009-.137-.002-.204-.002-.52 0-.516 0-.504.509.003.112.028.155.15.15.22-.01.44.004.659-.005.232-.01.145.154.155.259.01.108.03.217-.16.21-.4-.014-.802-.01-1.203 0-.137.002-.183-.034-.18-.172.01-.382.004-.764.004-1.147h-.001zM9.471 8.988c0-.374.007-.749-.003-1.123-.004-.138.042-.175.18-.172.4.008.8.012 1.202 0 .23-.007.154.145.163.254.01.111.024.219-.162.206-.218-.016-.438 0-.657-.006-.105-.003-.14.027-.145.135-.022.433-.027.432.423.432h.182c.323 0 .318 0 .301.319-.005.102-.037.144-.146.142-.203-.005-.408.002-.611-.003-.1-.002-.143.017-.149.13-.027.528-.031.528.508.528.075 0 .152.01.226-.001.191-.028.235.05.24.23.006.197-.054.249-.253.24a17.15 17.15 0 00-1.134-.002c-.13.003-.17-.036-.166-.162.007-.381.002-.763.002-1.145v-.002zm18.653 5.052c.006-.469.123-.891.557-1.16.442-.274.905-.224 1.37-.05.08.03.101.073.064.151a1.827 1.827 0 00-.08.206c-.035.102-.082.14-.198.085-.718-.335-1.148.078-1.12.778.003.058.004.118.008.176.033.472.28.686.764.657.09-.005.18-.024.268-.042.308-.064.3-.065.303.235.002.12-.047.17-.152.198-1.023.268-1.79-.117-1.784-1.234zm-10.435-.015c0-.375.004-.75-.003-1.124-.003-.132.035-.181.177-.178.393.009.787.014 1.18-.002.214-.008.18.118.18.24.001.116.031.237-.17.22-.203-.016-.409.003-.613-.005-.137-.005-.199.023-.2.179-.001.487-.009.486.489.486h.113c.318 0 .312 0 .308.307-.002.112-.03.156-.152.151-.204-.008-.408.002-.612-.003-.11-.003-.145.036-.143.141.007.242-.003.485.005.727.003.12-.027.163-.16.164-.4.002-.4.008-.4-.377v-.926zM4.471 17.773l.085-.016c.377-.073.625.048.747.424.07.212.206.405.326.633.156-.298.307-.56.432-.834.077-.17.173-.259.373-.227.103.016.21.003.358.003-.173.314-.31.614-.496.884-.315.459-.458.948-.384 1.494.023.168-.032.25-.219.22a.826.826 0 00-.203 0c-.106.01-.166-.029-.145-.135.163-.813-.32-1.428-.676-2.082l-.197-.363v-.001zm19.991-3.529c0-.302-.005-.602.001-.902.003-.113-.03-.163-.152-.153-.09.008-.181.002-.272.002-.292 0-.375-.11-.3-.384.022-.079.073-.08.135-.08.582 0 1.164.001 1.745-.002.1 0 .123.038.13.129.024.337.028.337-.324.337-.264 0-.395.125-.395.375 0 .521-.006 1.042.003 1.563.003.151-.038.202-.2.198-.373-.008-.373 0-.373-.356v-.726l.002-.001zm-19.947.016c0-.28-.016-.56.005-.838.017-.208-.065-.26-.255-.234-.075.01-.153-.007-.226.003-.199.03-.259-.04-.255-.238.004-.183.054-.236.243-.23.529.011 1.06.016 1.589-.002.23-.008.184.122.194.251.009.143-.004.226-.198.224-.534-.006-.534.003-.534.523 0 .47-.007.94.003 1.41.003.151-.032.202-.196.198-.368-.01-.368 0-.368-.361v-.706h-.002zm3.566-6.564c.28 0 .56.007.84-.003.241-.009.132.162.147.26.014.103.04.22-.155.21-.177-.008-.413-.083-.52.034-.115.124-.034.351-.036.533-.006.456-.008.911.002 1.367.002.15-.036.202-.2.198-.373-.009-.374 0-.374-.358 0-.53-.006-1.058.004-1.587.002-.159-.053-.21-.207-.193-.09.01-.183-.008-.272.003-.19.024-.259-.027-.259-.234 0-.206.068-.247.258-.236.257.016.514.004.771.004l.001.002zm5.028 5.655c-.12.095-.217.162-.302.24-.117.11-.197.123-.318-.018-.122-.146-.11-.216.043-.319.205-.137.393-.298.587-.45a.317.317 0 01.178-.08c.389-.032.389-.034.389.342 0 .683-.005 1.366.004 2.049.001.157-.03.218-.209.213-.374-.012-.374-.001-.374-.355v-1.62l.002-.002zm6.63.696c0-.375.006-.75-.004-1.123-.003-.15.035-.204.2-.202.377.007.377-.002.377.356 0 .676-.006 1.351.003 2.027.003.17-.037.248-.223.22a.623.623 0 00-.18 0c-.146.019-.179-.045-.176-.176.008-.367.003-.735.003-1.102zM3.221 12.735c.231-.055.271.042.24.232a4.09 4.09 0 00-.043.568c-.005.174-.131.12-.225.127-.098.01-.172 0-.173-.131a4.017 4.017 0 00-.042-.547c-.03-.204.012-.321.243-.25zm-.764-.001c.214-.05.275.031.24.228a3.804 3.804 0 00-.043.5c-.005.133-.028.21-.202.208-.165-.002-.202-.063-.203-.204 0-.16-.01-.321-.036-.48-.034-.204.006-.319.244-.252zm31.413.17c-.02.208-.04.375-.051.544-.009.116.015.22-.178.223-.183.003-.211-.071-.218-.215a5.73 5.73 0 00-.053-.569c-.018-.128.024-.178.155-.161a.473.473 0 00.113 0c.172-.02.293.006.232.18v-.002zm.518-.169c.224-.057.273.04.244.227-.024.158-.029.32-.042.48-.009.11.026.226-.175.227-.188.002-.228-.07-.23-.225a3.227 3.227 0 00-.035-.459c-.033-.2-.002-.325.238-.251zm16.01-7.747l5.15.006c.203 0 .303.1.303.302v7.274c0 .089-.003.176-.006.264-.09.005-.18.013-.27.013h-4.11c-.325 0-.65-.007-.975-.012-.013-.063.008-.147-.095-.161 0-2.563.002-5.124.003-7.686z"/><path d="M50.49 12.836c.326.004.65.01.976.012h4.108c.09 0 .181-.008.271-.013l.064.031.004 5.086c0 .021-.008.043-.012.064-.106.007-.212.017-.317.017l-4.309.001c-.294 0-.588.005-.883.009a.79.79 0 00.047-.301 1718.39 1718.39 0 010-4.541c0-.118-.013-.233-.048-.346v-.019h.1z"/><path d="M50.398 4.988c0 2.563-.002 5.124-.003 7.686l-.004.162v.019l-.086-.008c-.034-.115-.133-.077-.208-.078-.484-.003-.968-.002-1.451-.002-.199 0-.298-.094-.298-.282V5.261c0-.11-.001-.22-.04-.325l.084.016c.015.034.03.036.047.002.589 0 1.177-.003 1.765-.003.066 0 .137-.013.194.038z"/><path d="M48.442 4.953c-.017.037-.035.035-.05-.002l.05.002zm-4.14 13.064c0-1.629.002-3.257 0-4.886 0-.093-.025-.187-.039-.28l4.038.007v5.158l-3.95.004-.048-.003zm-6.717-5.206v-2.603c2.143 0 4.285.003 6.426-.005.201 0 .257.052.254.247-.01.786-.005 1.573-.005 2.36h-6.675v.001zm10.716 5.205v-5.201c.266.075.538.035.807.039.398.004.796-.004 1.195-.006l.088.008c.034.113.047.227.047.346-.003 1.514-.002 3.027 0 4.54a.787.787 0 01-.047.302l-2.089.004v-.032z"/><path d="M44.302 18.017c.017 0 .033.002.048.003 0 .012.001.024.004.035l-.231-.001c.051-.053.12-.029.18-.037zm.053.037a.223.223 0 01-.004-.035l3.95-.004c.001.01.002.02 0 .032-.574.004-1.149.01-1.723.012-.741 0-1.483-.004-2.224-.006l.001.001zm6.036-5.218l.004-.161c.103.014.082.097.095.161h-.099z"/></g><defs><clipPath id="clip0_524_5520"><path fill="#fff" transform="translate(.625 .5)" d="M0 0h58v42H0z"/></clipPath></defs></svg>