<svg width="24" height="14" fill="none" xmlns="http://www.w3.org/2000/svg"><path d="M22.957 10.884c-.523-.627-1.117-1.19-1.691-1.733a55.652 55.652 0 01-.619-.592c-.584-.572-.605-.786-.143-1.435.32-.447.66-.895.988-1.329.297-.393.605-.799.9-1.207l.06-.084c.565-.78 1.148-1.587 1.458-2.56.08-.257.166-.634-.028-.95-.193-.316-.568-.412-.834-.457a2.279 2.279 0 00-.382-.026L18.973.51h-.03c-.56 0-.935.262-1.151.804a22.188 22.188 0 01-.69 1.592c-.514 1.043-1.166 2.244-2.11 3.246l-.04.042c-.11.12-.237.256-.33.256a.158.158 0 01-.046-.009c-.196-.076-.327-.549-.32-.77v-.008l-.003-4.268a.343.343 0 00-.003-.045C14.156.656 13.948.224 13.16.07a.325.325 0 00-.063-.006h-3.84c-.626 0-.97.255-1.294.635-.088.102-.27.314-.18.57.092.262.39.317.486.335.48.092.751.386.828.9.134.89.15 1.842.052 2.994-.028.32-.082.567-.172.778-.02.05-.094.21-.17.21-.024 0-.093-.009-.219-.096-.298-.204-.515-.495-.77-.855-.864-1.221-1.59-2.567-2.218-4.114C5.368.85 4.933.53 4.376.522 3.763.512 3.207.508 2.677.508c-.579 0-1.115.005-1.64.016C.59.532.28.666.116.924c-.163.258-.153.597.032 1.007C1.624 5.215 2.964 7.604 4.49 9.675c1.07 1.449 2.142 2.452 3.376 3.156 1.3.744 2.756 1.105 4.453 1.105.192 0 .39-.004.591-.014.986-.048 1.352-.405 1.398-1.364.022-.49.076-1.005.317-1.444.152-.276.294-.276.34-.276a.63.63 0 01.321.119c.215.14.399.327.55.491.142.156.282.313.423.47.303.34.616.691.944 1.024.717.73 1.506 1.05 2.414.98h3.408a.987.987 0 00.802-.513c.213-.377.208-.857-.012-1.286-.25-.484-.574-.898-.858-1.24z"/></svg>