<svg width="24" height="20" xmlns="http://www.w3.org/2000/svg"><path d="M22.469.671c-.036.016-3.585 1.49-10.47 1.49C5.117 2.16 1.608.703 1.535.67L1.4.613a1 1 0 00-1.4.916V18.6a1 1 0 001.325.945l.13-.044A36.1 36.1 0 0112 17.968a36.116 36.116 0 0110.545 1.519l.122.043A1 1 0 0024 18.587V1.532a1 1 0 00-1.39-.92l-.141.06zm-.649 16.41a40.2 40.2 0 00-19.64 0V3.105c1.762.492 5.039 1.16 9.82 1.16 4.78 0 8.058-.668 9.82-1.16v13.976z"/><path d="M13.06 11.774l-2.556-3.337-3.876 5.247h10.744l-2.836-3.424-1.476 1.514zm2.214-3.945c0 .836-.701 1.513-1.566 1.513-.865 0-1.567-.677-1.567-1.513 0-.836.702-1.513 1.567-1.513s1.566.677 1.566 1.513z"/></svg>