<svg width="22" height="22" viewBox="0 0 22 22" fill="none" xmlns="http://www.w3.org/2000/svg">
<path fill-rule="evenodd" clip-rule="evenodd" d="M3.39003 0H18.61C20.4822 0 22 1.51778 22 3.39003V18.61C22 20.4822 20.4822 22 18.61 22H3.39003C1.51778 22 0 20.4822 0 18.61V3.39003C0 1.51778 1.51778 0 3.39003 0Z" fill="#EB4545"/>
<path fill-rule="evenodd" clip-rule="evenodd" d="M10.8152 15.4008H11.7151C11.7151 15.4008 11.9869 15.3708 12.1259 15.2213C12.2536 15.0839 12.2495 14.826 12.2495 14.826C12.2495 14.826 12.2319 13.6185 12.7922 13.4407C13.3448 13.2654 14.0543 14.6077 14.8062 15.1239C15.3748 15.5144 15.8069 15.4289 15.8069 15.4289L17.8175 15.4008C17.8175 15.4008 18.8693 15.3359 18.3706 14.5089C18.3297 14.4414 18.08 13.8972 16.8755 12.7792C15.6147 11.609 15.7837 11.7983 17.3024 9.77417C18.2273 8.54147 18.5969 7.78894 18.4814 7.46665C18.3714 7.15957 17.691 7.24069 17.691 7.24069L15.4272 7.25468C15.4272 7.25468 15.2592 7.23183 15.1349 7.30627C15.0132 7.37906 14.9351 7.54914 14.9351 7.54914C14.9351 7.54914 14.5766 8.50297 14.099 9.3143C13.0909 11.026 12.6877 11.1166 12.523 11.0102C12.1396 10.7624 12.2354 10.0151 12.2354 9.48401C12.2354 7.8251 12.487 7.13343 11.7454 6.95439C11.4994 6.89501 11.3181 6.85573 10.6887 6.84931C9.8809 6.84109 9.19735 6.8518 8.81021 7.04145C8.55266 7.16758 8.35395 7.44857 8.47504 7.46474C8.62471 7.48467 8.96349 7.55619 9.14311 7.8006C9.37517 8.11632 9.36705 8.82505 9.36705 8.82505C9.36705 8.82505 9.50039 10.7778 9.05574 11.0203C8.75062 11.1867 8.332 10.8471 7.43325 9.2941C6.97285 8.49863 6.62511 7.61923 6.62511 7.61923C6.62511 7.61923 6.55815 7.45493 6.43854 7.36697C6.29348 7.26041 6.0908 7.22664 6.0908 7.22664L3.93946 7.24069C3.93946 7.24069 3.61659 7.2497 3.49793 7.39014C3.39238 7.51516 3.48951 7.7734 3.48951 7.7734C3.48951 7.7734 5.17365 11.7138 7.08079 13.6995C8.82967 15.5203 10.8152 15.4008 10.8152 15.4008Z" fill="#131311"/>
</svg>
