<svg width="23" height="24" viewBox="0 0 23 24" fill="none" xmlns="http://www.w3.org/2000/svg">
<path d="M11.4163 23.0084C8.80898 23.0084 6.20077 23.011 3.5934 23.0075C2.17566 23.0058 1.00124 22.0353 0.699614 20.6172C0.653144 20.4013 0.632867 20.174 0.632867 19.9529C0.628642 14.6007 0.627797 9.24772 0.630332 3.89558C0.631177 2.18005 1.92726 0.845266 3.59594 0.844399C8.81828 0.84093 14.0406 0.84093 19.263 0.844399C20.9215 0.845266 22.2243 2.17745 22.2252 3.8765C22.2294 9.24339 22.2294 14.6103 22.2252 19.9772C22.2235 21.6745 20.9198 23.0041 19.2596 23.0075C16.6446 23.0119 14.0305 23.0084 11.4155 23.0084H11.4163ZM12.1328 10.6354C12.1328 10.442 12.137 10.2486 12.132 10.0552C12.1227 9.73255 11.9723 9.5773 11.6597 9.57557C11.0268 9.5721 10.394 9.5721 9.76119 9.57557C9.42407 9.5773 9.2779 9.73255 9.2779 10.0838C9.27706 12.8332 9.2779 15.5817 9.2779 18.331C9.2779 18.6996 9.42999 18.8514 9.79667 18.8514C10.3729 18.8523 10.95 18.8514 11.5262 18.8514C12.0019 18.8514 12.1235 18.7274 12.1235 18.2373C12.1235 16.8523 12.121 15.4663 12.1252 14.0812C12.1269 13.5522 12.2376 13.0491 12.5223 12.6007C12.8696 12.0543 13.3799 11.8852 13.9857 11.9685C14.54 12.0448 14.9126 12.3787 15.0427 12.919C15.1508 13.3683 15.1998 13.8418 15.2074 14.305C15.2277 15.6398 15.2116 16.9746 15.2125 18.3093C15.2125 18.7014 15.3553 18.8471 15.733 18.8479C16.359 18.8488 16.9843 18.8497 17.6103 18.8479C17.9855 18.8479 18.1342 18.6944 18.1342 18.3085C18.1342 16.8002 18.1511 15.292 18.1206 13.7846C18.108 13.1471 18.0438 12.5001 17.9128 11.8774C17.672 10.7291 17.0502 9.87912 15.8876 9.56602C15.1542 9.36828 14.4124 9.38042 13.6765 9.57123C13.0445 9.73428 12.5502 10.1064 12.1328 10.6363V10.6354ZM5.14211 14.2217C5.14211 15.5704 5.14211 16.9182 5.14211 18.2668C5.14211 18.6901 5.30095 18.8505 5.71833 18.8514C6.28019 18.8514 6.8429 18.8514 7.40475 18.8514C7.83312 18.8514 7.99281 18.6918 7.99281 18.2547C7.99365 15.5582 7.99365 12.8609 7.99281 10.1645C7.99281 9.73255 7.83819 9.5721 7.42419 9.57036C6.85472 9.56776 6.28611 9.56776 5.71664 9.57036C5.29588 9.5721 5.14211 9.72995 5.14211 10.1558C5.14211 11.5114 5.14211 12.867 5.14211 14.2226V14.2217ZM8.40174 6.89125C8.4085 5.86176 7.59655 5.01094 6.59703 4.99879C5.57301 4.98665 4.73233 5.82707 4.72473 6.87131C4.71712 7.91121 5.53583 8.7655 6.54464 8.77157C7.57796 8.77764 8.39413 7.9511 8.40089 6.89212L8.40174 6.89125Z" fill="#8F8F8F"/>
</svg>
