<svg width="27" height="18" viewBox="0 0 27 18" fill="none" xmlns="http://www.w3.org/2000/svg">
<g clip-path="url(#clip0_2387_1473)">
<path d="M11.6176 8.17721C13.6928 9.58486 14.3127 11.0469 13.7413 13.21C13.2077 15.2154 11.5422 16.6122 9.28913 16.6829C6.44855 16.7753 3.60259 16.7046 0.675781 16.7046V0.693309C1.17706 0.693309 1.68912 0.693309 2.20656 0.693309C4.49196 0.704178 6.77735 0.633524 9.05735 0.742223C12.0488 0.883531 13.6659 2.76402 13.3479 5.5304C13.2347 6.49782 13.0244 6.82391 11.623 8.17177L11.6176 8.17721ZM3.88288 13.8839C5.54302 13.8839 7.09536 13.9491 8.64232 13.8621C9.77962 13.7969 10.3887 13.0306 10.4588 11.8675C10.5235 10.786 9.98984 9.9653 8.83097 9.86747C7.20317 9.7316 5.55919 9.83486 3.87749 9.83486V13.8839H3.88288ZM3.90983 3.65535V6.9C5.5538 6.9 7.1277 6.95978 8.69622 6.87826C9.5748 6.82935 10.13 6.26411 10.13 5.2967C10.13 4.36189 9.71494 3.71513 8.76629 3.67709C7.16543 3.61187 5.56458 3.66078 3.90983 3.66078V3.65535Z" fill="#8F8F8F"/>
<path d="M26.7368 11.7324H18.1397C18.2151 12.9879 18.614 13.9553 19.8106 14.3792C21.0503 14.814 22.2092 14.7379 23.1848 13.6999C23.368 13.5042 23.6537 13.314 23.9017 13.3031C24.7856 13.2542 25.675 13.2868 26.5697 13.2868C26.2571 15.8738 23.3626 17.5097 19.9399 17.113C16.4849 16.7162 14.5175 13.8412 14.9972 9.90083C15.4284 6.36269 18.0426 4.28655 21.4007 4.56373C25.5564 4.90613 27.2219 8.37362 26.7368 11.7324ZM23.3842 9.60735C23.3896 8.06383 22.3924 7.15076 20.77 7.16163C19.3632 7.1725 18.3822 8.16166 18.3768 9.60735H23.3842Z" fill="#8F8F8F"/>
<path d="M24.2566 3.45008C23.8793 3.46638 23.5613 3.49356 23.2433 3.49356C21.3083 3.49356 19.3786 3.49356 17.3789 3.49356V1.54785H24.262V3.45551L24.2566 3.45008Z" fill="#8F8F8F"/>
</g>
<defs>
<clipPath id="clip0_2387_1473">
<rect width="26.1473" height="16.4841" fill="white" transform="translate(0.669922 0.683594)"/>
</clipPath>
</defs>
</svg>
