<svg width="25" height="26" viewBox="0 0 25 26" fill="none" xmlns="http://www.w3.org/2000/svg">
<g clip-path="url(#clip0_2387_1470)">
<path d="M24.6704 4.82823C23.1661 6.02415 21.6963 7.18664 20.1404 8.42341C18.1849 6.69639 15.6234 5.85702 12.6235 6.26927C10.8484 6.5144 9.30549 7.20521 8.14507 8.43827C5.6523 11.0789 5.8457 15.3686 8.56196 17.7716C11.6135 20.468 15.834 20.3083 20.1662 17.4002C21.6619 18.637 23.1446 19.8663 24.6274 21.0957C19.6935 26.1393 10.2252 26.5404 4.56923 21.9388C-1.17702 17.2628 -1.2286 8.5274 4.46179 3.89601C10.092 -0.683384 19.6849 -0.297126 24.6704 4.82823Z" fill="#8F8F8F"/>
<path d="M13.916 16.9944C11.3287 17.0092 9.26144 15.2153 9.24425 12.9386C9.22706 10.6619 11.2814 8.81979 13.8473 8.80864C16.4217 8.7975 18.5062 10.6137 18.5191 12.8792C18.5277 15.1708 16.5077 16.9795 13.916 16.9944Z" fill="#8F8F8F"/>
</g>
<defs>
<clipPath id="clip0_2387_1470">
<rect width="24.442" height="24.442" fill="white" transform="translate(0.228516 0.705078)"/>
</clipPath>
</defs>
</svg>
