<svg width="55" height="55" fill="none" xmlns="http://www.w3.org/2000/svg"><circle cx="27.5" cy="27.5" r="27" fill="#DE596D" stroke="#fff"/><path d="M14.483 15.734a2.695 2.695 0 002.687-2.703 2.695 2.695 0 00-2.687-2.704 2.695 2.695 0 00-2.688 2.704 2.695 2.695 0 002.688 2.703z" fill="#FFFEF6"/><path d="M14.512 18.583c-.754 0-1.789-.039-2.223-.039-.223 0-.503.272-.503.554v24.915c0 .496.406.759 1.024.759h12.731c7.82 0 15.834-8.636 15.834-16.367 0-7.731-6.167-12.01-11.822-11.358 5.461 3.316 6.437 7.595 6.35 11.358-.096 4.172-3.18 11.008-13.088 11.008h-5.171c-.223 0-.426-.126-.426-.66v-19.13c0-.262.078-.66-.193-.953-.27-.291-1.76-.087-2.513-.087z" fill="#FFFEFF"/><path d="M21.153 38.247c-.754 0-1.789.039-2.224.039-.222 0-.502-.272-.502-.554V11.086c0-.496.406-.759 1.024-.759.619 0 4.031-.253 13.011 0 7.817.22 15.554 8.295 15.554 16.367 0 7.731-5.124 17.68-16.714 17.971 12.219-6.875 11.242-15.88 11.242-17.971 0-4.173-2.638-11.008-13.088-11.008h-5.171c-.223 0-.426.126-.426.66v20.86c0 .263.078.662-.193.953-.27.292-1.76.088-2.513.088z" fill="#DA9096"/></svg>