<svg width="93" height="87" viewBox="0 0 93 87" fill="none" xmlns="http://www.w3.org/2000/svg">
<g clip-path="url(#clip0_2255_44449)">
<path d="M73.2766 55.3861C74.9138 52.7367 76.5867 52.6014 78.2874 54.9745C80.6755 55.5839 81.1923 56.7053 79.8419 58.3166C79.4697 60.1942 77.7827 61.5874 76.4349 62.7987C73.6529 65.2688 70.2311 67.0767 66.7075 68.242C57.8224 71.1728 48.2065 69.5787 40.2163 64.937C34.9778 61.8971 29.0268 57.0846 28.7426 50.6007C28.5817 47.0116 30.5371 43.0841 32.4482 40.1404C36.1632 34.4102 41.9029 30.1312 48.3985 28.047C51.0782 27.1823 55.4636 25.7426 58.2672 26.7307C64.4313 28.9165 60.0036 37.2201 57.5585 39.8584C52.0581 45.789 43.7802 46.6816 36.131 46.5323C29.5757 46.398 22.3505 44.6993 18.8648 38.4447C17.0142 35.1287 16.1779 31.1392 16.7502 27.3788C17.2619 24.012 18.9459 20.9208 21.3951 18.5746C22.3289 17.6766 25.3702 14.7002 26.9978 15.0707C32.0225 16.2271 25.7063 21.1985 24.1189 22.3283C22.6883 23.351 26.7274 26.5972 27.923 25.7349C31.1703 23.3798 34.6574 20.4282 32.882 15.9887C31.9826 13.7348 29.6206 11.8515 27.2472 11.4542C16.9701 9.72186 11.2433 23.4692 13.0152 31.5488C14.7616 39.5462 21.2861 46.3145 29.13 48.5211C38.1917 51.0757 51.4711 50.5933 59.0766 44.5043C65.1823 39.6116 68.4331 28.6423 59.6932 24.5739C51.7828 20.8847 40.3307 26.1349 34.3715 31.2646C27.7224 36.9878 21.6267 47.7667 27.3033 56.0635C32.9324 64.274 43.8225 70.1904 53.4556 71.9106C62.7333 73.5365 79.2991 70.8293 83.22 60.4824C85.9444 53.2958 75.7168 47.0037 71.2937 53.9793C70.9057 54.5888 72.7852 55.917 73.2766 55.3861Z" fill="#CACACA"/>
</g>
<defs>
<clipPath id="clip0_2255_44449">
<rect width="80.29" height="46.47" fill="white" transform="translate(64.3672 86.1592) rotate(-142.76)"/>
</clipPath>
</defs>
</svg>
