<svg width="79" height="79" fill="none" xmlns="http://www.w3.org/2000/svg"><g clip-path="url(#clip0_6424_29491)" fill="#4F4F4F"><path d="M78.337 39.214c0 21.439-17.549 38.967-39.002 38.988A38.974 38.974 0 01.341 39.289C.34 17.765 17.9.2 39.425.216a38.964 38.964 0 0138.912 38.998zM15.845 67.542c13.132 11.643 36.745 12.601 51.292-4.006 14.477-16.529 10.238-39.348-1.65-50.185L15.844 67.542zm4.452-48.182l3.424-2.62c-.377-.934-.75-1.766-1.044-2.626-.343-.965-.216-1.88.86-2.266 1.026-.367 1.756.085 2.167 1.092.36.877.756 1.736 1.102 2.527l4.274-.736c.051-.915-.096-1.89.209-2.695.246-.654.962-1.448 1.595-1.579 1.09-.222 1.586.685 1.623 1.712.031.956 0 1.911 0 2.87l3.829 1.191c.544-.903 1.044-1.712 1.547-2.554.562-.925 1.291-1.534 2.397-.883 1.106.65 1.027 1.544.439 2.51-.52.866-1.028 1.732-1.298 2.174l2.797 3.215c.853-.685 1.743-1.39 2.623-2.102.88-.712 1.784-.949 2.548.024.764.972.397 1.804-.49 2.513-1.027.812-2.017 1.64-3.123 2.544a3601.74 3601.74 0 013.02 4.856l15.27-16.67C50.638-.814 26.935-1.876 12.13 14.218-2.546 30.171.231 53.804 14.26 66.221l11.433-12.489c.223-.243.425-.506.685-.832l-2.934-3.366c-.795.88-1.332 1.791-2.13 2.254-.582.342-1.507.082-2.28.089-.04-.766-.02-1.533.061-2.295.055-.325.514-.585.791-.873 1.798-1.842 1.801-1.842.473-4.006a7.968 7.968 0 00-.521-.668c-1.048.527-2.024.986-2.969 1.503-1.027.572-2.13.921-2.804-.342-.675-1.264.154-2.003 1.253-2.534 1.027-.49 2.013-1.027 3.082-1.592-.524-1.233-1.003-2.37-1.53-3.613-1.234.236-2.398.473-3.562.685-1.1.195-1.993-.106-2.202-1.305-.188-1.106.497-1.677 1.52-1.89l3.127-.647c-.092-1.712-.175-3.236-.26-4.87-1.062-.246-2.103-.503-3.147-.732-1.044-.23-1.644-.85-1.442-1.941.202-1.093 1.072-1.398 2.086-1.223 1.013.175 2.095.418 3.133.63l2.02-4.273-2.037-1.884c-.767-.715-1.065-1.544-.309-2.397.809-.92 1.713-.722 2.538.042.643.565 1.29 1.123 1.965 1.718l-.003-.01zm26.986 10.79c-1.171-1.99-2.29-3.767-3.294-5.616-3.616-6.64-11.218-9.396-17.963-6.478-6.8 2.941-10.05 10.54-7.534 17.69a44.984 44.984 0 007.191 13.127c.661.833 1.397 1.607 2.175 2.493l3.29-3.62c-1.643-2.396-3.314-4.498-4.626-6.813a48.4 48.4 0 01-3.342-7.28c-1.75-4.794.644-9.697 5.342-11.33 4.18-1.453 8.458.342 10.731 4.369 1.37 2.441 2.918 4.793 4.48 7.344 1.393-1.51 2.454-2.698 3.553-3.876l-.003-.01zm-5.01 5.479c-1.784-2.945-3.455-5.712-5.136-8.472a6.65 6.65 0 00-8.317-2.756c-3.16 1.308-4.893 4.68-3.88 7.975a36.81 36.81 0 007.77 13.686l9.563-10.433z"/><path d="M50.108 33.218l1.387-1.561c1.157.893 2.29 1.732 3.376 2.623.73.599 1.35.62 2.113.02.942-.732 1.962-1.37 2.972-2.006.88-.558 1.78-.59 2.397.342.616.931.267 1.746-.596 2.35-.972.684-1.965 1.335-2.992 2.026.88 1.301 1.643 2.558 2.55 3.705a1.774 1.774 0 001.398.435c.893-.116 1.77-.65 2.636-.613.627.027 1.603.593 1.736 1.1.134.506-.393 1.544-.92 1.848-.956.548-2.12.723-3.26 1.076.14 1.616.273 3.136.424 4.838.962.25 1.99.52 3.02.78 1.096.278 1.746.922 1.442 2.096-.284 1.1-1.123 1.319-2.15 1.075-.936-.222-1.874-.417-2.802-.62-.852 1.733-1.67 3.404-2.547 5.188.715.545 1.636 1.007 2.191 1.743.415.559.685 1.606.442 2.185-.431 1.003-1.462.942-2.332.363-.87-.579-1.657-1.198-2.483-1.805l-5.444 3.267c.236.877.48 1.91.798 2.918.36 1.136 0 2.123-1.09 2.236-.626.061-1.585-.685-1.971-1.322-.538-.894-.685-2.024-.99-3.058-1.65-.086-3.229-.212-4.794-.209a1.5 1.5 0 00-1.078.726c-.37.757-.387 1.736-.874 2.38-.39.52-1.352 1.044-1.883.9-.53-.143-1.1-1.157-1.065-1.753.069-1.102.569-2.181.931-3.407l-4.19-2.143c-.494.63-.966 1.246-1.45 1.855-.79.993-1.485 2.572-3.081 1.47-1.596-1.103-.342-2.285.39-3.329.39-.561.798-1.106 1.26-1.743l-4.215-3.366 1.1-1.195c3.615 2.15 6.95 4.452 10.553 6.201 6.917 3.363 14.697.85 18.333-5.619 3.636-6.468 1.664-14.268-4.708-18.63-1.486-1.025-2.91-2.165-4.534-3.367z"/><path d="M45.03 38.454c.757-.685 1.167-1.072 1.524-1.394 2.225 1.633 4.38 3.123 6.43 4.746a8.725 8.725 0 012.26 10.827c-1.907 3.688-6.163 5.643-10.125 4.4-4.075-1.277-7.533-3.663-10.82-6.488l.575-.767c.174-.227.342-.449.578-.743 1.675 1.18 3.192 2.362 4.818 3.366a32.866 32.866 0 004.547 2.369 6.667 6.667 0 008.534-2.959c1.633-2.996.804-6.584-2.01-8.683-2.007-1.493-4.014-2.972-6.311-4.674z"/><path d="M51.42 48.213a4.404 4.404 0 01-2.95 4.187 4.63 4.63 0 01-4.961-1.39 7.33 7.33 0 00-1.904-1.528c-1.569-.866-2.284-2.589-1.62-4.198.685-1.692 2.476-2.397 4.253-1.835a5.67 5.67 0 002.24.277 4.494 4.494 0 014.94 4.486zm-1.84.637c-.023-2.288-1.564-3.568-3.163-3.082-1.058.315-1.877.517-2.74-.377-.226-.236-1.075-.205-1.352.034a1.82 1.82 0 00-.538 1.428 1.39 1.39 0 001.003.918c1.12 0 1.535.555 1.932 1.5.517 1.23 1.66 1.897 2.903 1.346.887-.405 1.535-1.37 1.956-1.767zM31.275 34.478a4.052 4.052 0 01-4.085-4.13 4.144 4.144 0 014.02-4.067 4.11 4.11 0 014.16 4.088 4.031 4.031 0 01-4.095 4.11zm2.243-4.03c-.144-1.253-.743-2.106-2.096-2.212a2.147 2.147 0 00-2.346 2.116c-.027 1.223 1.028 2.36 2.233 2.27 1.294-.092 2.024-.863 2.209-2.174z"/></g><defs><clipPath id="clip0_6424_29491"><path fill="#fff" transform="translate(.34 .216)" d="M0 0h78v78H0z"/></clipPath></defs></svg>