<svg width="24" height="24" viewBox="0 0 24 24" fill="none" xmlns="http://www.w3.org/2000/svg">
<path d="M11 3.75C8.92893 3.75 7.25 5.42893 7.25 7.5C7.25 9.57107 8.92893 11.25 11 11.25C13.0711 11.25 14.75 9.57107 14.75 7.5C14.75 5.42893 13.0711 3.75 11 3.75ZM7 13.25C4.92893 13.25 3.25 14.9289 3.25 17V18.1883C3.25 18.9415 3.79588 19.5837 4.53927 19.7051C8.8181 20.4037 13.1819 20.4037 17.4607 19.7051C18.2041 19.5837 18.75 18.9415 18.75 18.1883V17C18.75 14.9289 17.0711 13.25 15 13.25H14.6591C14.4746 13.25 14.2913 13.2792 14.1159 13.3364L13.2504 13.6191C11.7881 14.0965 10.2119 14.0965 8.74959 13.6191L7.88407 13.3364C7.70869 13.2792 7.52536 13.25 7.34087 13.25H7Z" fill="#031C77"/>
<path d="M16.3003 6.51436C16.2166 6.51436 16.1456 6.48842 16.0874 6.43652C16.0291 6.38091 16 6.31603 16 6.24189V5.71362C16 5.63948 16.0291 5.57646 16.0874 5.52456C16.1456 5.47266 16.2166 5.44671 16.3003 5.44671H18.4513V3.30584C18.4513 3.22057 18.4768 3.14829 18.5278 3.08897C18.5823 3.02966 18.646 3 18.7188 3H19.2866C19.3594 3 19.4213 3.02966 19.4722 3.08897C19.5232 3.14829 19.5487 3.22057 19.5487 3.30584V5.44671H21.6943C21.778 5.44671 21.849 5.47451 21.9072 5.53012C21.9691 5.58573 22 5.65616 22 5.74143V6.20853C22 6.3012 21.9691 6.37535 21.9072 6.43095C21.849 6.48656 21.778 6.51436 21.6943 6.51436H19.5487V8.6886C19.5487 8.77386 19.5214 8.84801 19.4668 8.91103C19.4122 8.97034 19.343 9 19.2593 9H18.7516C18.6606 9 18.5878 8.97034 18.5332 8.91103C18.4786 8.84801 18.4513 8.77386 18.4513 8.6886V6.51436H16.3003Z" fill="#031C77"/>
</svg>
