<svg width="180" height="40" viewBox="0 0 180 40" fill="none" xmlns="http://www.w3.org/2000/svg">
<path d="M9.79859 39.4895C9.09179 39.814 7.84877 39.9766 6.50817 39.9766C2.51072 39.9766 0 37.7489 0 34.1288C0 30.8797 2.36435 28.095 7.04427 28.095C7.89744 28.095 8.94542 28.2108 9.79859 28.4893L9.18936 31.5527C8.77495 31.3901 8.18994 31.2742 7.2881 31.2742C5.65512 31.2742 4.48499 32.3418 4.50945 33.9896C4.50945 35.846 5.84993 36.728 7.4099 36.728C8.16549 36.728 8.77495 36.6349 9.33562 36.426L9.79859 39.4895Z" fill="#1F2E76"/>
<path d="M11.6054 32.179C11.6054 30.3691 11.5809 29.2786 11.5078 28.327H15.2617L15.4321 30.3925H15.5297C16.1635 28.6517 17.6746 28.0716 18.7228 28.0716C19.1128 28.0716 19.2835 28.0716 19.6002 28.1412V32.0633C19.2835 31.9936 18.9422 31.9471 18.479 31.9471C17.187 31.9471 16.3098 32.4575 16.0659 33.3858C16.0417 33.5718 16.0173 33.8269 16.0173 34.1054V39.7446H11.6054V32.179Z" fill="#1F2E76"/>
<path d="M28.351 32.6667C28.351 32.0167 28.034 30.8097 26.6447 30.8097C25.3528 30.8097 24.8409 31.9471 24.7678 32.6667H28.351ZM24.8167 35.4979C24.9627 36.403 26.3522 36.9134 27.9122 36.9134C29.0334 36.9134 30.106 36.7973 31.1783 36.4723L31.7391 39.2575C30.3008 39.7911 28.7408 39.9766 27.254 39.9766C23.0374 39.9766 20.6484 37.7724 20.6484 34.152C20.6484 31.5063 22.4522 28.0716 26.8641 28.0716C30.7396 28.0716 32.3972 30.7869 32.3972 33.9196C32.3972 34.5924 32.2995 35.2194 32.2264 35.4979H24.8167Z" fill="#1F2E76"/>
<path d="M42.1253 33.2699C42.1253 33.1073 42.1253 32.8988 42.101 32.736C41.9304 31.924 41.2966 31.2742 40.3705 31.2742C38.9077 31.2742 38.2496 32.5275 38.2496 34.0127C38.2496 35.7764 39.1517 36.6815 40.346 36.6815C41.2477 36.6815 41.9059 36.0779 42.0521 35.3121C42.1253 35.0801 42.1253 34.825 42.1253 34.5465V33.2699ZM46.5371 23.2443V36.1475C46.5371 37.5632 46.5859 38.979 46.6345 39.7446H42.7103L42.5397 38.2129H42.4909C41.7111 39.4895 40.2486 40 38.8835 40C36.105 40 33.7892 37.7024 33.7892 34.1288C33.765 30.2761 36.3243 28.0716 39.1517 28.0716C40.4679 28.0716 41.5403 28.4429 42.0764 29.1852H42.1253V23.2443H46.5371Z" fill="#1F2E76"/>
<path d="M49.2433 39.7446V28.327H53.6551V39.7446H49.2433ZM51.4368 27.1434C50.072 27.1434 49.2188 26.2614 49.2188 25.1706C49.2188 24.0104 50.0963 23.1749 51.4614 23.1749C52.8265 23.1749 53.6794 24.0104 53.7037 25.1706C53.7037 26.2614 52.8265 27.1434 51.4614 27.1434H51.4368Z" fill="#1F2E76"/>
<path d="M61.1829 25.0779V28.327H63.6691V31.3901H61.1829V34.6624C61.1829 36.0083 61.5 36.5653 62.5723 36.5653C63.0841 36.5653 63.255 36.5653 63.6206 36.4723V39.6519C63.1087 39.8374 62.1335 39.9766 61.0123 39.9766C59.7207 39.9766 58.6481 39.536 58.0142 38.9325C57.2829 38.236 56.893 37.122 56.893 35.382V31.3901H55.4062V28.327H56.893V26.1919L61.1829 25.0779Z" fill="#1F2E76"/>
<path d="M71.4758 37.0526C72.6701 37.0526 73.3039 35.8691 73.3039 34.0361C73.3039 32.4575 72.7678 31.0189 71.4758 31.0189C70.0133 31.0189 69.5257 32.5275 69.5257 34.0361C69.5257 35.7533 70.1107 37.0526 71.4512 37.0526H71.4758ZM71.3541 40C67.771 40 64.9922 37.8417 64.9922 34.1288C64.9922 30.4853 67.5027 28.0716 71.5975 28.0716C75.3511 28.0716 77.8374 30.4853 77.8374 33.9196C77.8374 38.0736 74.7176 40 71.3781 40H71.3541Z" fill="#1F2E76"/>
<path d="M79.9336 32.179C79.9336 30.3691 79.9094 29.2786 79.8359 28.327H83.5896L83.7604 30.3925H83.8578C84.4917 28.6517 86.0028 28.0716 87.0511 28.0716C87.441 28.0716 87.6118 28.0716 87.9286 28.1412V32.0633C87.6118 31.9936 87.2702 31.9471 86.8074 31.9471C85.5155 31.9471 84.6379 32.4575 84.3943 33.3858C84.37 33.5718 84.3454 33.8269 84.3454 34.1054V39.7446H79.9336V32.179Z" fill="#1F2E76"/>
<path d="M89.9028 37.6559C90.5609 38.0274 91.6821 38.4451 92.7544 38.4451C94.2903 38.4451 95.021 37.7255 95.021 36.7742C95.021 35.7994 94.412 35.289 92.8521 34.7317C90.7072 33.9896 89.7077 32.8752 89.7077 31.5527C89.7077 29.7422 91.2676 28.257 93.7782 28.257C94.9727 28.257 96.0205 28.5589 96.6543 28.9533L96.1427 30.4154C95.6794 30.1599 94.8265 29.7657 93.7296 29.7657C92.4619 29.7657 91.7795 30.4619 91.7795 31.2974C91.7795 32.2256 92.4619 32.6433 93.9978 33.2237C96.0205 33.9428 97.0931 34.9178 97.0931 36.5888C97.0931 38.5844 95.46 39.9766 92.7058 39.9766C91.4139 39.9766 90.2193 39.6519 89.3906 39.1876L89.9028 37.6559Z" fill="#7B7979"/>
<path d="M104.753 38.468C106.8 38.468 108.336 36.6349 108.336 34.082C108.336 32.179 107.336 29.7891 104.801 29.7891C102.291 29.7891 101.194 32.0167 101.194 34.152C101.194 36.6115 102.656 38.468 104.728 38.468H104.753ZM104.655 40C101.486 40 99 37.7724 99 34.2216C99 30.4619 101.608 28.257 104.85 28.257C108.238 28.257 110.529 30.6012 110.529 34.0127C110.529 38.1901 107.483 40 104.679 40H104.655Z" fill="#7B7979"/>
<path d="M113.234 23.2676H115.379V39.7446H113.234V23.2676Z" fill="#7B7979"/>
<path d="M128.859 36.6581C128.859 37.8417 128.883 38.8629 128.956 39.7446H127.055L126.933 37.9116H126.884C126.349 38.8164 125.081 40 122.985 40C121.132 40 118.914 39.0019 118.914 35.0801V28.5125H121.059V34.709C121.059 36.8436 121.766 38.3059 123.691 38.3059C125.129 38.3059 126.129 37.3543 126.519 36.426C126.641 36.1475 126.714 35.7764 126.714 35.382V28.5125H128.859V36.6581Z" fill="#7B7979"/>
<path d="M135.002 25.8203V28.5125H138.074V30.0676H135.002V36.1011C135.002 37.4939 135.417 38.2828 136.611 38.2828C137.196 38.2828 137.537 38.236 137.854 38.1436L137.951 39.6981C137.537 39.8374 136.879 39.9766 136.05 39.9766C135.051 39.9766 134.247 39.6519 133.735 39.1183C133.15 38.4913 132.906 37.4939 132.906 36.171V30.0676H131.078V28.5125H132.906V26.4472L135.002 25.8203Z" fill="#7B7979"/>
<path d="M140.487 39.7446V28.5125H142.632V39.7446H140.487ZM141.51 26.6097C140.731 26.6097 140.219 26.0294 140.219 25.3564C140.219 24.6369 140.755 24.0799 141.56 24.0799C142.339 24.0799 142.876 24.6369 142.876 25.3564C142.876 26.0294 142.364 26.6097 141.535 26.6097H141.51Z" fill="#7B7979"/>
<path d="M151.089 38.468C153.136 38.468 154.672 36.6349 154.672 34.082C154.672 32.179 153.673 29.7891 151.137 29.7891C148.627 29.7891 147.53 32.0167 147.53 34.152C147.53 36.6115 148.993 38.468 151.064 38.468H151.089ZM150.991 40C147.822 40 145.336 37.7724 145.336 34.2216C145.336 30.4619 147.944 28.257 151.186 28.257C154.574 28.257 156.865 30.6012 156.865 34.0127C156.865 38.1901 153.819 40 151.015 40H150.991Z" fill="#7B7979"/>
<path d="M159.574 31.5527C159.574 30.3691 159.55 29.441 159.477 28.5125H161.378L161.5 30.3461H161.549C162.133 29.3017 163.498 28.257 165.448 28.257C167.082 28.257 169.616 29.1852 169.616 33.038V39.7446H167.472V33.2699C167.472 31.4601 166.765 29.9283 164.741 29.9283C163.352 29.9283 162.255 30.8797 161.865 32.0167C161.768 32.2721 161.719 32.6433 161.719 32.968V39.7446H159.574V31.5527Z" fill="#7B7979"/>
<path d="M172.809 37.6559C173.467 38.0274 174.588 38.4451 175.66 38.4451C177.196 38.4451 177.927 37.7255 177.927 36.7742C177.927 35.7994 177.318 35.289 175.758 34.7317C173.613 33.9896 172.614 32.8752 172.614 31.5527C172.614 29.7422 174.174 28.257 176.684 28.257C177.879 28.257 178.926 28.5589 179.561 28.9533L179.049 30.4154C178.585 30.1599 177.732 29.7657 176.636 29.7657C175.368 29.7657 174.685 30.4619 174.685 31.2974C174.685 32.2256 175.368 32.6433 176.904 33.2237C178.926 33.9428 179.999 34.9178 179.999 36.5888C179.999 38.5844 178.366 39.9766 175.612 39.9766C174.32 39.9766 173.126 39.6519 172.297 39.1876L172.809 37.6559Z" fill="#7B7979"/>
<path d="M83.9054 21.3302C81.0152 21.3302 78.2967 20.2573 76.2506 18.3096C74.2048 16.3617 73.0781 13.7733 73.0781 11.0214C73.0781 8.26986 74.2048 5.68154 76.2506 3.73348L79.4398 0.697348C80.4164 -0.232264 82 -0.232264 82.9767 0.697348C83.9534 1.62724 83.9534 3.135 82.9767 4.06489L79.7875 7.10103C78.6866 8.14955 78.0799 9.54174 78.0799 11.0214C78.0799 12.5014 78.6866 13.8936 79.7875 14.942C80.8888 15.9905 82.351 16.5679 83.9054 16.5679C85.4595 16.5679 86.9217 15.9905 88.0229 14.942L94.4384 8.83381C95.4151 7.90392 96.9987 7.90392 97.9753 8.83381C98.952 9.7637 98.952 11.2715 97.9753 12.2014L91.5599 18.3096C89.5138 20.2573 86.7956 21.3302 83.9054 21.3302Z" fill="#1F2E76"/>
<path d="M98.7965 21.6413C98.1562 21.6413 97.5165 21.4088 97.028 20.944C96.0513 20.0141 96.0513 18.5063 97.028 17.5764L100.217 14.5403C102.488 12.3785 102.488 8.86082 100.217 6.69915C97.9465 4.53721 94.2522 4.53749 91.9815 6.69915L85.5663 12.8074C84.5896 13.7373 83.006 13.7373 82.0294 12.8074C81.0527 11.8775 81.0527 10.3697 82.0294 9.43981L88.4448 3.33189C92.6656 -0.686491 99.5333 -0.686771 103.754 3.33189C107.975 7.35027 107.975 13.8891 103.754 17.9078L100.565 20.944C100.076 21.4088 99.4365 21.6413 98.7965 21.6413Z" fill="#7B7979"/>
</svg>
