<svg width="65" height="76" viewBox="0 0 65 76" fill="none" xmlns="http://www.w3.org/2000/svg">
<g clip-path="url(#clip0_2293_22024)">
<path d="M45.9058 43.1285C41.12 44.9251 37.8386 49.7928 38.0388 54.9035C38.1993 59.0007 40.7426 62.1668 44.149 63.7806C44.3622 63.9628 44.5562 64.1617 44.7873 64.3331C47.4636 66.2637 50.8927 65.6811 53.6634 64.3439C59.7448 61.4096 62.4175 52.9605 58.0768 47.5346C55.1277 43.8452 50.6496 41.343 45.9001 43.1271L45.9058 43.1285Z" fill="#DEDEDE"/>
<path d="M19.1588 39.7185C24.5517 41.6212 30.7133 41.3421 35.265 37.6173C40.6673 33.1954 41.9732 24.5293 39.528 18.2782C36.6731 10.9752 28.7106 6.70679 21.0466 7.46989C12.9609 8.26995 6.7651 15.3953 6.0437 23.3362C5.58507 28.3989 7.89539 32.3789 11.4104 34.9108C13.5117 36.9715 16.1604 38.6559 19.1602 39.7128L19.1588 39.7185Z" fill="#DEDEDE"/>
</g>
<defs>
<clipPath id="clip0_2293_22024">
<rect width="34.5145" height="67.1116" fill="white" transform="translate(0.103516 18.4194) rotate(-31.2777)"/>
</clipPath>
</defs>
</svg>
