<svg width="12" height="16" viewBox="0 0 12 16" fill="none" xmlns="http://www.w3.org/2000/svg">
<path d="M5.9974 15.5031C4.94481 14.6053 3.96922 13.621 3.08073 12.5606C1.7474 10.9681 0.164063 8.59644 0.164063 6.33643C0.16288 3.97605 1.58427 1.84759 3.76495 0.944261C5.94565 0.0409281 8.45581 0.540794 10.1241 2.21059C11.2211 3.30277 11.8356 4.78842 11.8307 6.33643C11.8307 8.59644 10.2474 10.9681 8.91406 12.5606C8.02556 13.621 7.04998 14.6053 5.9974 15.5031ZM5.9974 3.83643C5.10423 3.83643 4.27891 4.31293 3.83234 5.08643C3.38575 5.85993 3.38575 6.81294 3.83234 7.58644C4.27891 8.35994 5.10423 8.83644 5.9974 8.83644C7.37815 8.83644 8.4974 7.7171 8.4974 6.33643C8.4974 4.95571 7.37815 3.83643 5.9974 3.83643Z" fill="white"/>
</svg>
