<svg width="92" height="40" viewBox="0 0 92 40" fill="none" xmlns="http://www.w3.org/2000/svg">
<g opacity="0.75">
<path d="M32.2866 17.4579C32.685 17.4231 33.0156 17.346 33.2782 17.2266C33.5408 17.1073 33.7448 16.961 33.8902 16.7876C34.041 16.6138 34.1416 16.4176 34.1921 16.1991C34.2479 15.98 34.2653 15.751 34.2444 15.5119C34.2225 15.2622 34.1632 15.0425 34.0663 14.8529C33.9689 14.658 33.8292 14.4989 33.6471 14.3756C33.4645 14.2471 33.2345 14.1574 32.957 14.1067C32.6849 14.0556 32.3602 14.0465 31.983 14.0795L29.8232 14.2685L30.1188 17.6476L32.2866 17.4579ZM29.4021 9.45488L29.6935 12.7862L31.399 12.6369C32.1322 12.5728 32.6731 12.3916 33.0218 12.0934C33.3758 11.7948 33.5274 11.3559 33.4768 10.7768C33.4243 10.1764 33.2168 9.76358 32.8545 9.5383C32.4921 9.31303 31.9497 9.232 31.2271 9.29521L29.4021 9.45488ZM31.0821 7.63755C31.8365 7.57154 32.4883 7.58679 33.0375 7.68329C33.5867 7.7798 34.0429 7.946 34.4062 8.1819C34.7747 8.41734 35.0552 8.7167 35.2476 9.07998C35.44 9.44326 35.5569 9.86133 35.5983 10.3342C35.622 10.6052 35.6049 10.869 35.5471 11.1257C35.4888 11.377 35.3841 11.6191 35.2332 11.8518C35.087 12.0787 34.8915 12.2912 34.6465 12.4893C34.4068 12.687 34.1143 12.8625 33.769 13.0158C35.3835 13.2333 36.2499 14.0194 36.3685 15.3742C36.4112 15.863 36.3578 16.3228 36.2081 16.7535C36.0584 17.1842 35.8188 17.5665 35.4893 17.9005C35.1594 18.2292 34.7415 18.5013 34.2357 18.7168C33.7299 18.9324 33.1423 19.0695 32.4728 19.1281L28.1214 19.5088L27.1132 7.98477L31.0821 7.63755ZM41.3676 16.9927C41.782 16.9564 42.0999 16.8269 42.3213 16.6041C42.5481 16.3808 42.6461 16.0939 42.6154 15.7432C42.6024 15.5944 42.5691 15.4581 42.5154 15.3344C42.4666 15.2048 42.3875 15.0966 42.2782 15.0098C42.1689 14.923 42.0242 14.8607 41.8443 14.8229C41.6696 14.7846 41.4494 14.7771 41.1838 14.8004L39.7094 14.9294L39.9012 17.121L41.3676 16.9927ZM39.4159 11.5742L39.6034 13.718L40.8945 13.605C41.0858 13.5883 41.2588 13.5464 41.4135 13.4793C41.5678 13.4069 41.699 13.3152 41.807 13.204C41.9146 13.0875 41.9942 12.9574 42.0459 12.8137C42.0971 12.6646 42.1153 12.5051 42.1004 12.3351C42.0897 12.2129 42.058 12.0952 42.0053 11.9821C41.9521 11.8636 41.8711 11.7636 41.7622 11.6821C41.6529 11.5953 41.5109 11.5328 41.3362 11.4945C41.1664 11.4505 40.9567 11.4394 40.7069 11.4612L39.4159 11.5742ZM40.6505 10.1733C41.1658 10.1282 41.6139 10.1398 41.9946 10.2082C42.3807 10.2762 42.7036 10.3871 42.9633 10.5411C43.2231 10.695 43.4221 10.8891 43.5603 11.1233C43.6982 11.3521 43.7794 11.6073 43.804 11.8889C43.8193 12.0643 43.8115 12.2497 43.7804 12.4451C43.7542 12.6348 43.6903 12.8224 43.5887 13.008C43.4925 13.193 43.3524 13.3659 43.1683 13.5266C42.9843 13.6872 42.7443 13.8206 42.4485 13.9268C42.7245 13.9616 42.9788 14.0223 43.2112 14.109C43.4432 14.1905 43.6459 14.3039 43.8192 14.4494C43.9921 14.5895 44.1303 14.7621 44.2339 14.9672C44.3424 15.1665 44.408 15.3963 44.4308 15.6566C44.467 16.0711 44.4107 16.4374 44.2619 16.7555C44.1184 17.0733 43.9091 17.3432 43.6341 17.5653C43.3644 17.787 43.0424 17.9624 42.6683 18.0915C42.2994 18.2202 41.9078 18.3026 41.4934 18.3389L38.1462 18.6317L37.4308 10.4549L40.6505 10.1733ZM50.9903 12.4407C50.968 12.1857 50.9099 11.9498 50.816 11.7332C50.7269 11.5108 50.6032 11.3208 50.4449 11.1634C50.2866 11.0059 50.0917 10.8891 49.8602 10.813C49.6335 10.7311 49.374 10.703 49.0818 10.7285C48.5133 10.7783 48.0786 10.9796 47.7775 11.3325C47.4818 11.685 47.3148 12.1627 47.2765 12.7656L50.9903 12.4407ZM47.3405 13.9566C47.4091 14.3735 47.5154 14.7309 47.6592 15.0289C47.8026 15.3215 47.9788 15.5604 48.1877 15.7455C48.3962 15.9254 48.635 16.0544 48.9041 16.1326C49.1782 16.205 49.4746 16.2272 49.7934 16.1993C50.1121 16.1714 50.3825 16.1103 50.6045 16.0159C50.8317 15.9211 51.0264 15.8211 51.1885 15.7159C51.356 15.6102 51.5002 15.5146 51.6212 15.4291C51.7475 15.3431 51.8718 15.2947 51.994 15.2841C52.1587 15.2696 52.2862 15.3201 52.3766 15.4353L53.0052 16.103C52.8097 16.3771 52.5841 16.6137 52.3285 16.8127C52.0724 17.0064 51.8002 17.1694 51.512 17.3017C51.2286 17.4283 50.9347 17.5262 50.6302 17.5957C50.3311 17.6647 50.0381 17.7118 49.7512 17.7369C49.1827 17.7866 48.6459 17.7399 48.1408 17.5967C47.6353 17.4482 47.1859 17.2064 46.7925 16.8714C46.3987 16.5311 46.0745 16.0991 45.8198 15.5753C45.5648 15.0462 45.4058 14.423 45.3431 13.7057C45.2943 13.1478 45.3388 12.6166 45.4767 12.112C45.6141 11.6021 45.8344 11.1518 46.1375 10.7613C46.4454 10.3649 46.8319 10.0393 47.2968 9.78451C47.767 9.52923 48.3076 9.37485 48.9186 9.3214C49.4339 9.27631 49.9167 9.31706 50.3667 9.44365C50.8168 9.57024 51.2125 9.77921 51.5539 10.0706C51.8948 10.3566 52.1731 10.7231 52.3889 11.17C52.6095 11.6111 52.7456 12.1265 52.7972 12.7163C52.8232 13.0138 52.809 13.2185 52.7546 13.3303C52.6996 13.4369 52.5819 13.498 52.4012 13.5138L47.3405 13.9566ZM59.9741 15.3086L59.5132 10.0408L57.5049 10.2165C57.5117 10.9065 57.4995 11.5313 57.4681 12.0908C57.4363 12.645 57.3861 13.1419 57.3175 13.5816C57.2488 14.0213 57.1647 14.406 57.0651 14.736C56.9708 15.0655 56.8619 15.3507 56.7384 15.5917L59.9741 15.3086ZM63.3802 14.9544L63.696 18.5646C63.7118 18.7453 63.6713 18.8934 63.5743 19.0089C63.4826 19.124 63.3545 19.1888 63.1898 19.2032L61.9624 19.3106L61.7226 16.569L55.602 17.1045L55.793 19.2882C55.8051 19.4263 55.7711 19.5578 55.691 19.6826C55.6162 19.8069 55.4859 19.8772 55.2999 19.8935L54.0566 20.0022L53.6941 15.8581L53.9252 15.8378C54.1111 15.8216 54.2897 15.7819 54.4608 15.7187C54.6315 15.6502 54.7896 15.5293 54.935 15.356C55.0858 15.1822 55.2199 14.9403 55.3373 14.6302C55.4596 14.3143 55.5573 13.9016 55.6305 13.3919C55.7032 12.8769 55.75 12.2491 55.7709 11.5085C55.7971 10.7674 55.7919 9.88182 55.7553 8.85175L61.2941 8.36717L61.8819 15.0855L63.3802 14.9544ZM71.3802 7.48475L72.0956 15.6615L70.1271 15.8337L69.7095 11.06C69.6988 10.9378 69.6925 10.8045 69.6905 10.6601C69.6935 10.5099 69.699 10.3595 69.7073 10.2089C69.6224 10.4626 69.5243 10.688 69.4131 10.8851C69.4034 10.8967 69.3568 10.9757 69.2732 11.1222C69.1892 11.2634 69.0795 11.447 68.944 11.673C68.8138 11.8986 68.6649 12.1552 68.4974 12.4429C68.3293 12.7253 68.1591 13.0132 67.9867 13.3067C67.5817 14.0006 67.1229 14.7849 66.6106 15.6596C66.5459 15.7776 66.4572 15.8952 66.3443 16.0121C66.2367 16.1286 66.1058 16.1936 65.9518 16.2071L64.7484 16.3123L64.033 8.13558L66.0015 7.96336L66.4191 12.7371C66.4298 12.8593 66.4337 12.9955 66.4308 13.1457C66.4327 13.29 66.4295 13.4375 66.4213 13.5882C66.5154 13.3176 66.6135 13.0922 66.7155 12.912C66.7199 12.9009 66.7641 12.8247 66.8481 12.6835C66.9321 12.5423 67.0392 12.359 67.1694 12.1334C67.3048 11.9074 67.4566 11.6532 67.6246 11.3709C67.7922 11.0832 67.9619 10.7899 68.1339 10.4911C68.5389 9.79718 69.0003 9.01265 69.518 8.13753C69.5822 8.01414 69.6709 7.89662 69.7843 7.78498C69.8972 7.66803 70.0307 7.60282 70.1848 7.58934L71.3802 7.48475ZM80.4657 8.15946L77.5489 8.41465L78.1366 15.133L76.1682 15.3052L75.5804 8.58687L72.6715 8.84137L72.5439 7.38294L80.3381 6.70103L80.4657 8.15946ZM86.8066 9.30718C86.7843 9.05216 86.7262 8.81632 86.6323 8.59968C86.5432 8.37727 86.4196 8.18732 86.2612 8.02986C86.1029 7.87239 85.908 7.7556 85.6765 7.67949C85.4498 7.5976 85.1904 7.56944 84.8981 7.595C84.3296 7.64474 83.8949 7.84607 83.5938 8.19898C83.2981 8.55143 83.1311 9.02914 83.0928 9.6321L86.8066 9.30718ZM83.1569 10.823C83.2255 11.24 83.3317 11.5974 83.4755 11.8954C83.6189 12.188 83.7951 12.4269 84.004 12.612C84.2125 12.7919 84.4513 12.9209 84.7205 12.9991C84.9945 13.0714 85.2909 13.0937 85.6097 13.0658C85.9284 13.0379 86.1988 12.9768 86.4208 12.8824C86.648 12.7876 86.8427 12.6876 87.0048 12.5824C87.1723 12.4767 87.3165 12.3811 87.4375 12.2956C87.5638 12.2096 87.6881 12.1612 87.8103 12.1505C87.975 12.1361 88.1025 12.1865 88.1929 12.3018L88.8215 12.9695C88.626 13.2436 88.4004 13.4802 88.1448 13.6792C87.8887 13.8729 87.6165 14.0359 87.3283 14.1682C87.0449 14.2947 86.751 14.3927 86.4465 14.4622C86.1474 14.5312 85.8544 14.5782 85.5675 14.6033C84.999 14.6531 84.4622 14.6063 83.9572 14.4632C83.4516 14.3146 83.0022 14.0729 82.6088 13.7379C82.215 13.3976 81.8908 12.9655 81.6362 12.4417C81.3811 11.9126 81.2221 11.2894 81.1594 10.5722C81.1106 10.0143 81.1551 9.48308 81.293 8.97848C81.4304 8.46856 81.6507 8.01832 81.9538 7.62774C82.2618 7.2314 82.6482 6.90581 83.1131 6.65099C83.5833 6.3957 84.1239 6.24133 84.7349 6.18788C85.2502 6.14279 85.733 6.18354 86.183 6.31013C86.6331 6.43672 87.0288 6.64569 87.3702 6.93705C87.7111 7.22309 87.9894 7.58956 88.2052 8.03645C88.4258 8.47757 88.5619 8.993 88.6135 9.58275C88.6396 9.88028 88.6253 10.085 88.5709 10.1968C88.516 10.3033 88.3982 10.3645 88.2175 10.3803L83.1569 10.823ZM33.2192 31.6065C32.6531 31.6828 32.1793 31.7751 31.798 31.8834C31.4161 31.9864 31.1132 32.1039 30.8892 32.236C30.6652 32.368 30.5092 32.5128 30.4213 32.6704C30.3334 32.828 30.2971 32.9945 30.3124 33.1698C30.3426 33.5151 30.4652 33.7534 30.6801 33.8845C30.9003 34.0151 31.1751 34.066 31.5046 34.0372C31.9083 34.0019 32.2501 33.8997 32.5297 33.7307C32.8143 33.5559 33.0843 33.3074 33.3399 32.9852L33.2192 31.6065ZM28.3982 28.4547C29.2633 27.5117 30.3573 26.9823 31.6803 26.8666C32.1584 26.8247 32.5931 26.867 32.9843 26.9934C33.375 27.1145 33.7128 27.3044 33.9978 27.5632C34.2823 27.8167 34.5079 28.1316 34.6747 28.5078C34.8468 28.8836 34.953 29.3026 34.9935 29.7648L35.4453 34.9291L34.5527 35.0072C34.3667 35.0235 34.221 35.0095 34.1154 34.9652C34.0093 34.9156 33.9196 34.8083 33.8463 34.6434L33.6194 34.069C33.4284 34.2731 33.2409 34.4554 33.0569 34.6161C32.8724 34.7714 32.6781 34.9062 32.4739 35.0204C32.2698 35.1347 32.0476 35.2264 31.8074 35.2956C31.5729 35.3696 31.3096 35.4194 31.0174 35.445C30.6721 35.4752 30.3493 35.4579 30.0492 35.3932C29.7486 35.3231 29.4839 35.2044 29.2551 35.037C29.0263 34.8697 28.8414 34.653 28.7004 34.3869C28.5593 34.1209 28.4727 33.8045 28.4407 33.4379C28.4225 33.2307 28.4392 33.0232 28.4906 32.8152C28.5415 32.602 28.6359 32.3956 28.7737 32.1962C28.9168 31.9963 29.106 31.8031 29.3413 31.6165C29.5766 31.43 29.8696 31.2598 30.2202 31.106C30.5761 30.9517 30.9925 30.8162 31.4695 30.6995C31.946 30.5775 32.4944 30.4814 33.1146 30.4111L33.0728 29.9329C33.0249 29.3856 32.8727 28.9921 32.6162 28.7522C32.3592 28.507 32.0102 28.4037 31.5692 28.4423C31.2504 28.4701 30.988 28.5306 30.782 28.6236C30.5813 28.7161 30.4054 28.8171 30.2544 28.9267C30.1029 29.031 29.964 29.1261 29.8377 29.2121C29.7167 29.2976 29.5765 29.3474 29.4171 29.3613C29.2789 29.3734 29.159 29.3491 29.0574 29.2884C28.9552 29.2224 28.8707 29.1441 28.8039 29.0536L28.3982 28.4547ZM42.6277 32.8874L42.1668 27.6195L40.1585 27.7952C40.1653 28.4852 40.153 29.11 40.1217 29.6695C40.0899 30.2237 40.0396 30.7207 39.971 31.1603C39.9024 31.6 39.8183 31.9848 39.7187 32.3147C39.6244 32.6442 39.5155 32.9294 39.392 33.1704L42.6277 32.8874ZM46.0338 32.5332L46.3496 36.1434C46.3654 36.324 46.3248 36.4721 46.2279 36.5877C46.1362 36.7028 46.008 36.7675 45.8433 36.7819L44.616 36.8893L44.3762 34.1478L38.2556 34.6833L38.4466 36.8669C38.4587 37.005 38.4247 37.1365 38.3446 37.2613C38.2698 37.3856 38.1394 37.4559 37.9535 37.4722L36.7102 37.581L36.3477 33.4368L36.5788 33.4166C36.7647 33.4003 36.9433 33.3606 37.1144 33.2974C37.2851 33.229 37.4432 33.1081 37.5886 32.9347C37.7394 32.7609 37.8735 32.519 37.9909 32.2089C38.1132 31.893 38.2109 31.4803 38.2841 30.9706C38.3568 30.4557 38.4036 29.8279 38.4245 29.0872C38.4506 28.3461 38.4454 27.4606 38.4089 26.4305L43.9477 25.9459L44.5355 32.6642L46.0338 32.5332ZM49.1843 31.591C49.4311 31.8424 49.6896 32.0125 49.9597 32.1013C50.2351 32.1897 50.5269 32.2204 50.835 32.1934C51.1326 32.1674 51.396 32.0881 51.6253 31.9556C51.8546 31.8231 52.0417 31.6354 52.1864 31.3926C52.3364 31.1492 52.4415 30.8509 52.5016 30.4977C52.5612 30.1391 52.5704 29.7234 52.529 29.2506C52.4872 28.7724 52.412 28.3721 52.3035 28.0497C52.1998 27.7214 52.0672 27.46 51.9056 27.2653C51.744 27.0707 51.5554 26.9346 51.3399 26.8571C51.1296 26.7791 50.8943 26.7515 50.634 26.7743C50.2249 26.8101 49.8845 26.9282 49.613 27.1286C49.3409 27.3238 49.0911 27.5892 48.8635 27.925L49.1843 31.591ZM48.6484 26.6589C48.9501 26.2524 49.3032 25.9137 49.7078 25.6427C50.1124 25.3718 50.6016 25.2112 51.1754 25.161C51.6217 25.1219 52.0363 25.1793 52.4192 25.3332C52.8073 25.4867 53.1498 25.7297 53.4466 26.0625C53.7483 26.3894 53.9936 26.807 54.1826 27.3151C54.3765 27.8174 54.5027 28.4033 54.5612 29.0728C54.6147 29.6838 54.5818 30.2568 54.4627 30.7919C54.3435 31.327 54.1466 31.7993 53.8719 32.2088C53.6026 32.6178 53.2596 32.9503 52.843 33.2063C52.4312 33.4564 51.957 33.605 51.4204 33.6519C50.9635 33.6919 50.5669 33.657 50.2307 33.5472C49.8941 33.4321 49.5873 33.2609 49.3105 33.0335L49.6033 36.3807L47.6348 36.5529L46.6859 25.7063L47.8893 25.6011C48.1443 25.5787 48.3221 25.6836 48.4227 25.9158L48.6484 26.6589ZM61.2727 27.6022C61.2504 27.3472 61.1923 27.1114 61.0984 26.8947C61.0094 26.6723 60.8857 26.4824 60.7273 26.3249C60.569 26.1674 60.3741 26.0506 60.1426 25.9745C59.9159 25.8926 59.6565 25.8645 59.3642 25.89C58.7958 25.9398 58.361 26.1411 58.0599 26.494C57.7642 26.8465 57.5972 27.3242 57.5589 27.9271L61.2727 27.6022ZM57.623 29.1181C57.6916 29.535 57.7978 29.8925 57.9416 30.1904C58.085 30.483 58.2612 30.7219 58.4701 30.9071C58.6786 31.0869 58.9174 31.2159 59.1866 31.2941C59.4606 31.3665 59.757 31.3887 60.0758 31.3609C60.3945 31.333 60.6649 31.2718 60.8869 31.1775C61.1141 31.0826 61.3088 30.9826 61.4709 30.8774C61.6384 30.7718 61.7826 30.6762 61.9036 30.5906C62.0299 30.5046 62.1542 30.4563 62.2764 30.4456C62.4411 30.4312 62.5686 30.4816 62.659 30.5968L63.2876 31.2646C63.0921 31.5386 62.8665 31.7752 62.6109 31.9742C62.3548 32.168 62.0826 32.331 61.7944 32.4633C61.511 32.5898 61.2171 32.6878 60.9127 32.7572C60.6135 32.8262 60.3205 32.8733 60.0336 32.8984C59.4651 32.9481 58.9283 32.9014 58.4233 32.7582C57.9177 32.6097 57.4683 32.3679 57.0749 32.033C56.6811 31.6926 56.3569 31.2606 56.1023 30.7368C55.8472 30.2077 55.6883 29.5845 55.6255 28.8672C55.5767 28.3094 55.6212 27.7781 55.7591 27.2735C55.8965 26.7636 56.1168 26.3134 56.4199 25.9228C56.7279 25.5264 57.1143 25.2009 57.5792 24.946C58.0494 24.6907 58.59 24.5364 59.201 24.4829C59.7164 24.4378 60.1991 24.4786 60.6492 24.6052C61.0992 24.7318 61.495 24.9407 61.8363 25.2321C62.1772 25.5181 62.4555 25.8846 62.6713 26.3315C62.8919 26.7726 63.028 27.288 63.0796 27.8778C63.1057 28.1753 63.0914 28.38 63.037 28.4918C62.9821 28.5984 62.8643 28.6595 62.6836 28.6753L57.623 29.1181ZM70.2527 25.3871C70.2008 25.4666 70.1475 25.5302 70.0927 25.5778C70.0433 25.625 69.9655 25.6532 69.8592 25.6625C69.7583 25.6713 69.6574 25.6507 69.5567 25.6006C69.4555 25.5452 69.3352 25.4862 69.1959 25.4234C69.0561 25.3553 68.8906 25.3002 68.6996 25.258C68.5133 25.2101 68.2847 25.1979 68.0138 25.2216C67.6684 25.2519 67.3712 25.3421 67.122 25.4924C66.8723 25.6374 66.6701 25.8344 66.5152 26.0835C66.3656 26.3322 66.263 26.6276 66.2073 26.9697C66.1511 27.3066 66.1413 27.6849 66.1781 28.1046C66.2162 28.5403 66.2953 28.9242 66.4153 29.2563C66.5407 29.588 66.7013 29.863 66.8971 30.0815C67.0924 30.2946 67.3203 30.4513 67.5807 30.5517C67.8406 30.6467 68.1273 30.6805 68.4408 30.6531C68.7543 30.6257 69.0034 30.5664 69.1881 30.4753C69.3777 30.3784 69.535 30.279 69.6599 30.177C69.7844 30.0698 69.8912 29.9748 69.9803 29.892C70.0743 29.8035 70.1824 29.7539 70.3046 29.7432C70.464 29.7293 70.5889 29.7799 70.6792 29.8951L71.3078 30.5629C71.1123 30.837 70.8947 31.0728 70.655 31.2705C70.4149 31.4628 70.1613 31.6242 69.8943 31.7546C69.6322 31.8793 69.3569 31.9756 69.0684 32.0437C68.7852 32.1113 68.5001 32.1577 68.2132 32.1828C67.7085 32.2269 67.2248 32.1755 66.7623 32.0286C66.2993 31.8764 65.8846 31.6343 65.5182 31.3023C65.1519 30.9703 64.8477 30.5525 64.6055 30.0491C64.3683 29.5398 64.2203 28.9505 64.1618 28.281C64.1092 27.6806 64.1457 27.118 64.2711 26.5931C64.4013 26.0624 64.6175 25.5964 64.9197 25.1952C65.2214 24.7887 65.61 24.4576 66.0856 24.2018C66.5611 23.9461 67.1203 23.7901 67.7632 23.7338C68.3742 23.6804 68.9167 23.7319 69.3908 23.8886C69.8703 24.0447 70.3093 24.29 70.708 24.6246L70.2527 25.3871Z" fill="white"/>
<path d="M18.7574 21.281C19.2869 21.1241 19.5889 20.5676 19.4319 20.0381C19.275 19.5086 18.7185 19.2065 18.189 19.3635L18.7574 21.281ZM6.16593 37.9917C6.49812 38.4329 7.12508 38.5213 7.5663 38.1891L14.7563 32.7758C15.1975 32.4436 15.2859 31.8167 14.9537 31.3754C14.6215 30.9342 13.9945 30.8458 13.5533 31.178L7.16223 35.9899L2.35039 29.5988C2.0182 29.1576 1.39123 29.0692 0.950018 29.4014C0.508805 29.7335 0.420422 30.3605 0.75261 30.8017L6.16593 37.9917ZM18.189 19.3635C13.7806 20.6702 7.55517 26.0385 5.97461 37.2507L7.95503 37.5298C9.44483 26.9615 15.2194 22.3298 18.7574 21.281L18.189 19.3635Z" fill="white"/>
</g>
</svg>
