<svg width="271" height="36" viewBox="0 0 271 36" fill="none" xmlns="http://www.w3.org/2000/svg">
<path d="M65.0682 25.0673V33.32H60.5992V29H45.8814V33.32H41.4125L41.4423 25.0673H42.2765C43.5278 25.0276 44.4116 24.1139 44.9281 22.3263C45.4445 20.5388 45.7623 17.9865 45.8814 14.6695L46.1198 8.14483H62.1485V25.0673H65.0682ZM50.1419 15.1164C50.0425 17.5992 49.834 19.6847 49.5162 21.373C49.1984 23.0414 48.7118 24.2728 48.0563 25.0673H57.3816V12.0775H50.2312L50.1419 15.1164ZM83.2096 24.531H73.5269L71.6797 29H66.734L76.0295 8.14483H80.7964L90.1216 29H85.0568L83.2096 24.531ZM81.6902 20.8665L78.3832 12.8819L75.0761 20.8665H81.6902ZM108.375 12.0775H101.701V29H96.9345V12.0775H90.2906V8.14483H108.375V12.0775ZM125.076 24.531H115.393L113.546 29H108.6L117.896 8.14483H122.663L131.988 29H126.923L125.076 24.531ZM123.556 20.8665L120.249 12.8819L116.942 20.8665H123.556Z" fill="white"/>
<path d="M155.182 8.14483V29H153.007V10.0516H142.937L142.699 17.0232C142.6 19.9032 142.361 22.227 141.984 23.9948C141.626 25.7426 141.07 27.0535 140.316 27.9274C139.561 28.7815 138.558 29.2086 137.306 29.2086C136.77 29.2086 136.214 29.139 135.638 29L135.817 27.0337C136.154 27.1131 136.482 27.1528 136.8 27.1528C137.674 27.1528 138.379 26.8052 138.915 26.1101C139.471 25.4149 139.889 24.3423 140.167 22.8924C140.445 21.4226 140.633 19.4861 140.733 17.0828L141.031 8.14483H155.182ZM162.814 8.14483H164.989V25.4248L178.336 8.14483H180.332V29H178.157V11.7498L164.81 29H162.814V8.14483ZM201.611 10.0516H194.282V29H192.107V10.0516H184.778V8.14483H201.611V10.0516ZM206.077 8.14483H208.252V25.4248L221.599 8.14483H223.595V29H221.42V11.7498L208.073 29H206.077V8.14483ZM238.141 19.4364H233.374V29H231.229V8.14483H233.374V17.4999H238.141L245.202 8.14483H247.585L239.839 18.2745L248.032 29H245.5L238.141 19.4364ZM261.104 29.1788C259.038 29.1788 257.171 28.7219 255.503 27.8083C253.854 26.8946 252.553 25.6334 251.6 24.0246C250.666 22.3959 250.2 20.5785 250.2 18.5724C250.2 16.5663 250.666 14.7589 251.6 13.1501C252.553 11.5214 253.864 10.2502 255.533 9.33655C257.201 8.4229 259.068 7.96607 261.134 7.96607C262.683 7.96607 264.113 8.22428 265.424 8.74069C266.735 9.2571 267.847 10.0119 268.761 11.005L267.361 12.4052C265.732 10.7567 263.676 9.93241 261.193 9.93241C259.545 9.93241 258.045 10.3098 256.695 11.0646C255.344 11.8193 254.281 12.8521 253.507 14.163C252.752 15.4739 252.375 16.9437 252.375 18.5724C252.375 20.2011 252.752 21.6709 253.507 22.9818C254.281 24.2927 255.344 25.3255 256.695 26.0803C258.045 26.835 259.545 27.2124 261.193 27.2124C263.696 27.2124 265.752 26.3782 267.361 24.7098L268.761 26.1101C267.847 27.1032 266.725 27.8679 265.394 28.4041C264.083 28.9206 262.653 29.1788 261.104 29.1788Z" fill="white"/>
<rect y="12.9103" width="3.72414" height="15.6414" rx="1.24138" fill="white" fill-opacity="0.5"/>
<rect x="6.20679" y="9.55862" width="3.72414" height="18.9931" rx="1.24138" fill="white" fill-opacity="0.5"/>
<path d="M6.20679 24.0827H9.93092V27.3103C9.93092 27.9959 9.37514 28.5517 8.68955 28.5517H7.44817C6.76257 28.5517 6.20679 27.9959 6.20679 27.3103V24.0827Z" fill="white"/>
<rect x="12.4138" y="14.0276" width="3.72414" height="14.5241" rx="1.24138" fill="white" fill-opacity="0.5"/>
<path d="M12.4138 19.6138H16.138V27.3104C16.138 27.9959 15.5822 28.5517 14.8966 28.5517H13.6552C12.9696 28.5517 12.4138 27.9959 12.4138 27.3104V19.6138Z" fill="white"/>
<rect x="18.6206" y="6.20689" width="3.72414" height="22.3448" rx="1.24138" fill="white"/>
<rect x="24.8276" y="12.9103" width="3.72414" height="15.6414" rx="1.24138" fill="white"/>
</svg>
