<svg width="22" height="23" viewBox="0 0 22 23" fill="none" xmlns="http://www.w3.org/2000/svg">
<path d="M18.7773 0.939453H3.22266C1.44583 0.939453 0 2.38528 0 4.16211V19.7168C0 21.4936 1.44583 22.9395 3.22266 22.9395H18.7773C20.5542 22.9395 22 21.4936 22 19.7168V4.16211C22 2.38528 20.5542 0.939453 18.7773 0.939453ZM7.77734 18.3848H5.19922V9.36133H7.77734V18.3848ZM7.77734 8.07227H5.19922V5.49414H7.77734V8.07227ZM16.8008 18.3848H14.2227V13.2285C14.2227 12.5179 13.6443 11.9395 12.9336 11.9395C12.2229 11.9395 11.6445 12.5179 11.6445 13.2285V18.3848H9.06641V9.36133H11.6445V9.84724C12.3199 9.63727 12.7587 9.36133 13.5781 9.36133C15.3266 9.36317 16.8008 10.9317 16.8008 12.7854V18.3848Z" />
</svg>
