<svg width="225" height="451" viewBox="0 0 225 451" fill="none" xmlns="http://www.w3.org/2000/svg">
<path d="M-158 450.463C-156.093 390.377 -166.924 283.966 -92.2427 258.025C-71.0047 250.647 -46.62 247.011 -24.3497 243.974C-11.5578 242.229 14.3855 241.803 25.1088 233.633C60.0439 207.015 67.5122 162.032 68.7222 120.89C70.1013 74.0016 104.514 50.646 149.205 48.1632C166.752 47.1883 193.307 55.2573 205.52 38.8335C215.067 25.9938 215.265 15.7396 211.14 0.615601C206.764 -15.4302 200.997 -17.6881 188.209 -27.7106C176.936 -36.5467 175.185 -55.4083 172.248 -68.6263C170.204 -77.8225 216.548 -74.6944 224.404 -73.5721" stroke="black" stroke-opacity="0.11" stroke-linecap="round"/>
</svg>
