<svg width="180" height="1004" viewBox="0 0 180 1004" fill="none" xmlns="http://www.w3.org/2000/svg">
<path d="M232.276 0.340092C236.033 23.3508 236.112 48.8656 218.453 66.7945C201.919 83.5821 174.31 86.6935 156.617 102.931C123.504 133.321 153.292 200.547 162.559 234.44C170.746 264.385 170.502 277.593 140.015 290.669C123.098 297.925 103.673 297.104 86.0828 302.047C62.6858 308.622 24.0219 318.388 9.85474 340.587C-4.64287 363.302 2.42198 400.226 7.89483 424.47C16.4679 462.448 34.6381 498.222 50.8285 533.275C71.877 578.845 93.5604 624.017 118.717 667.499C163.254 744.478 1.63247 848.344 57.3402 917.843C109.768 973.806 168.786 1000.32 182.225 1003.26" stroke="black" stroke-opacity="0.11"/>
</svg>
