<svg width="40" height="32" fill="none" xmlns="http://www.w3.org/2000/svg"><g clip-path="url(#clip0_2114_21418)" fill="#fff"><path d="M33.33 13.961c-.678-.698-1.34-1.378-1.997-2.056l-1.301.835c.041-.74-.032-1.37-.529-1.883.116-.09.205-.16.296-.227 1.785-1.314 2.453-3.617 1.619-5.593-.835-1.975-2.938-3.213-5.097-2.998-2.263.224-4.126 1.864-4.43 4.015-.095.68.046 1.397.134 2.09.027.22.012.343-.157.481-.436.358-.861.73-1.296 1.102-1.46-2.579-.65-6.146 1.806-8.067a7.131 7.131 0 018.925.085c2.478 2.026 3.354 5.74 1.236 8.822l2.054 2.073c.629-.34.745-.324 1.25.146 1.136 1.062 2.274 2.122 3.411 3.186.49.459.496.712.03 1.176-.383.38-.76.765-1.15 1.139-.343.33-.68.34-1.03.014a700.693 700.693 0 01-3.665-3.425c-.341-.32-.345-.51-.107-.92l-.001.005z"/><path d="M28.752 27.931h-3.937c-.008-.14-.02-.274-.02-.409V12.435c0-.762.268-1.015 1.063-1.017.681 0 1.362-.009 2.043.003.575.01.874.3.874.849.004 5.13.002 10.26 0 15.388 0 .085-.015.17-.025.272l.002.001zm-13.075 3.205H1.337c-.646 0-.713-.066-.713-.697 0-.29-.004-.58.004-.87.006-.255.146-.394.415-.405.104-.004.21-.003.315-.003H30c.72 0 .747.028.747.73 0 .266-.002.53 0 .795.001.294-.148.444-.452.45H15.677zM9.99 27.92V17.488c0-.796.246-1.028 1.083-1.028.68 0 1.362-.006 2.043.002.55.006.866.294.866.813.004 3.514 0 7.027 0 10.54 0 .025-.011.05-.024.105H9.99zm11.37.013h-3.948c-.008-.135-.02-.267-.02-.4 0-2.484-.002-4.965 0-7.449 0-.757.272-1.016 1.064-1.02.655 0 1.31-.004 1.965 0 .678.007.962.278.962.922v7.6c0 .109-.013.22-.02.347h-.002zm-14.777.003H2.617c-.008-.129-.02-.25-.02-.37 0-1.233-.002-2.466 0-3.7 0-.665.284-.945.972-.95a93.642 93.642 0 012.12.002c.53.008.88.262.888.718.023 1.42.008 2.84.008 4.3h-.002zM2.889 17.22c.003-.905.755-1.632 1.69-1.64.945-.006 1.717.741 1.714 1.66-.005.9-.76 1.632-1.694 1.638-.948.006-1.715-.736-1.71-1.659zM26.77 8.455c-.934-.009-1.692-.742-1.692-1.64 0-.914.773-1.646 1.73-1.638.94.007 1.692.735 1.692 1.638 0 .912-.778 1.65-1.73 1.64zm-13.079 3.239c-.003.905-.75 1.628-1.69 1.635-.952.008-1.717-.73-1.714-1.651.003-.905.756-1.63 1.691-1.635.954-.005 1.715.73 1.712 1.653l.001-.002zm5.669 3.124c-.938-.01-1.68-.74-1.676-1.645.003-.918.77-1.638 1.733-1.629.939.01 1.68.738 1.675 1.645-.004.923-.766 1.64-1.732 1.63zm4.816-6.564l.837.898-3.012 2.593-.831-.899 3.004-2.59.002-.002zM7.3 15.964c-.264-.325-.503-.62-.773-.949.909-.68 1.832-1.371 2.751-2.062l.773.95c-.916.686-1.837 1.377-2.752 2.06H7.3zm7.7-4.28l1.637.324-.26 1.179-1.633-.33.255-1.173z"/></g><defs><clipPath id="clip0_2114_21418"><path fill="#fff" transform="translate(.625 .136)" d="M0 0h39v31H0z"/></clipPath></defs></svg>