<svg width="31" height="27" fill="none" xmlns="http://www.w3.org/2000/svg"><g clip-path="url(#clip0_2114_21435)" fill="#fff"><path d="M7.78 5.15c2.18 0 4.36-.022 6.54.016.59.01.851-.18 1.067-.736 1.105-2.822 3.751-4.182 6.604-3.355 1.689.489 2.896 1.61 3.48 3.314.2.584.478.824 1.111.78.905-.063 1.817.013 2.722-.025.593-.025.827.167.827.802 0 1.54.028 1.54-1.504 1.54-.26 0-.525.032-.778-.006-1.33-.183-2.15.126-2.812 1.575-.964 2.122-2.946 2.936-5.259 2.68-2.063-.23-3.52-1.382-4.276-3.302-.312-.795-.708-.972-1.479-.966-4.254.035-8.508.022-12.765.007-.356 0-.99-.114-1.018-.266C.128 6.605.172 5.965.246 5.35c.013-.095.497-.183.762-.186 2.257-.016 4.513-.01 6.77-.01l.003-.003zm9.657 1.137c0 1.815 1.23 3.103 2.972 3.115 1.77.013 3.105-1.32 3.108-3.103a3.08 3.08 0 00-3.049-3.1c-1.657-.025-3.22 1.534-3.027 3.088h-.004zm5.116 16.252c-2.231 0-4.46.019-6.691-.013-.531-.006-.787.17-.959.666-1.485 4.24-6.875 4.827-9.338 1.516-.306-.414-.59-.881-.736-1.367-.197-.647-.537-.85-1.183-.812-.905.054-1.817-.003-2.722.02-.546.012-.805-.155-.793-.761.044-1.778-.187-1.57 1.517-1.588.674-.007 1.352-.044 2.023.012.611.05.895-.157 1.126-.754 1.102-2.835 3.799-4.17 6.683-3.302 1.604.483 2.762 1.569 3.336 3.16.262.726.63.903 1.345.896 4.332-.031 8.664-.022 12.993 0 .313 0 .871.18.89.329.072.609.006 1.24-.084 1.853-.013.085-.465.142-.715.142-2.232.01-4.46.006-6.692.006v-.003zm-15.74-1.187c0 1.809 1.233 3.084 2.997 3.1 1.77.016 3.083-1.31 3.087-3.116a3.049 3.049 0 00-3.065-3.065c-1.73 0-3.018 1.316-3.018 3.08z"/></g><defs><clipPath id="clip0_2114_21435"><path fill="#fff" transform="translate(.13 .835)" d="M0 0h30v26H0z"/></clipPath></defs></svg>