<svg width="24" height="25" viewBox="0 0 24 25" fill="none" xmlns="http://www.w3.org/2000/svg">
<g clip-path="url(#clip0_2607_24270)">
<path d="M11.9884 24.0441C9.9847 23.9551 7.9661 23.9601 5.97726 23.7525C2.62946 23.3966 0.263678 21.0639 0.124806 17.7278C-0.038864 13.8678 -0.0339043 9.99301 0.124806 6.1281C0.263678 2.82662 2.71377 0.330737 6.03181 0.182466C10.0095 -0.000400063 14.007 -0.0053424 17.9847 0.182466C21.3027 0.340621 23.7181 2.84145 23.8669 6.1627C24.0306 9.90405 24.0554 13.6602 23.9115 17.4016C23.7479 21.5927 20.9208 23.7821 16.7497 23.9156C15.1676 23.965 13.5854 23.9255 11.9983 23.9255V24.049L11.9884 24.0441ZM11.9735 18.0688C15.3114 18.0787 18.1583 15.2566 18.1434 11.9403C18.1285 8.59927 15.3015 5.78708 11.9735 5.81179C8.60094 5.8365 5.81359 8.60915 5.80863 11.9452C5.80863 15.2912 8.59102 18.054 11.9735 18.0639V18.0688ZM19.8297 5.5795C19.8495 4.84803 19.2097 4.18082 18.4608 4.15611C17.7268 4.1314 17.0324 4.77884 17.0176 5.51031C16.9977 6.27143 17.5978 6.93864 18.3418 6.98313C19.1056 7.03255 19.8099 6.37028 19.8297 5.5795Z" fill="#EB5B31"/>
<path d="M11.9576 16.3238C9.51244 16.309 7.56824 14.3469 7.59799 11.9202C7.62279 9.55779 9.60171 7.61051 11.9774 7.60062C14.3829 7.59074 16.3866 9.58744 16.3816 11.9894C16.3816 14.4062 14.4077 16.3387 11.9526 16.3238H11.9576Z" fill="#EB5B31"/>
</g>
<defs>
<clipPath id="clip0_2607_24270">
<rect width="24" height="24" fill="white" transform="translate(0 0.0444336)"/>
</clipPath>
</defs>
</svg>
