<svg width="92" height="40" fill="none" xmlns="http://www.w3.org/2000/svg"><path d="M32.287 17.458c.398-.035.729-.112.991-.231.263-.12.467-.266.612-.44a1.34 1.34 0 00.302-.588c.056-.219.073-.448.052-.687a1.777 1.777 0 00-.178-.66 1.234 1.234 0 00-.419-.476 1.724 1.724 0 00-.69-.27 3.631 3.631 0 00-.974-.027l-2.16.19.296 3.379 2.168-.19zm-2.885-8.003l.291 3.331 1.706-.15c.733-.063 1.274-.244 1.623-.543.354-.298.505-.737.455-1.316-.053-.6-.26-1.013-.622-1.239-.363-.225-.905-.306-1.628-.243l-1.825.16zm1.68-1.817c.755-.066 1.406-.051 1.956.045.549.097 1.005.263 1.368.499.369.235.65.535.842.898.192.363.309.781.35 1.254.024.271.007.535-.05.792a2.274 2.274 0 01-.315.726c-.146.227-.341.44-.586.637-.24.198-.533.373-.878.527 1.614.217 2.48 1.003 2.6 2.358.042.489-.011.949-.16 1.38-.15.43-.39.813-.72 1.146-.33.33-.747.601-1.253.817-.506.215-1.094.353-1.763.411l-4.352.38-1.008-11.523 3.97-.347zm10.286 9.355c.414-.037.732-.166.953-.389.227-.223.325-.51.294-.86a1.305 1.305 0 00-.1-.41.741.741 0 00-.237-.324 1.029 1.029 0 00-.434-.187 2.241 2.241 0 00-.66-.023l-1.475.13.192 2.191 1.467-.128zm-1.952-5.419l.187 2.144 1.291-.113a1.66 1.66 0 00.52-.126c.154-.072.285-.164.393-.275a1.14 1.14 0 00.239-.39 1.149 1.149 0 00-.04-.832.759.759 0 00-.244-.3 1.03 1.03 0 00-.426-.188 1.89 1.89 0 00-.63-.033l-1.29.113zm1.235-1.4a5.129 5.129 0 011.344.034c.386.068.709.18.968.333.26.154.46.348.597.582.138.23.22.484.244.766.015.175.008.36-.024.556a1.79 1.79 0 01-.612 1.082 2.23 2.23 0 01-.72.4c.276.035.53.095.763.182.232.082.435.195.608.34.173.14.311.313.415.518.108.2.174.43.197.69.036.414-.02.78-.17 1.099a2.183 2.183 0 01-.627.81c-.27.221-.592.396-.966.526-.369.128-.76.21-1.175.247l-3.347.293-.715-8.177 3.22-.282zm10.34 2.267a2.262 2.262 0 00-.175-.708 1.666 1.666 0 00-.371-.57 1.46 1.46 0 00-.585-.35 1.812 1.812 0 00-.778-.085c-.569.05-1.003.252-1.304.604-.296.353-.463.83-.502 1.434l3.714-.325zm-3.65 1.516c.068.416.174.774.318 1.072.144.293.32.531.529.716.208.18.447.31.716.388.274.072.57.094.89.066.318-.028.589-.089.81-.183.228-.095.422-.195.584-.3.168-.106.312-.201.433-.287a.786.786 0 01.373-.145c.165-.014.292.036.383.151l.628.668a3.38 3.38 0 01-.677.71 4.378 4.378 0 01-.816.489 4.745 4.745 0 01-.882.294 6.212 6.212 0 01-.879.14 4.441 4.441 0 01-1.61-.14 3.635 3.635 0 01-1.349-.725 3.992 3.992 0 01-.972-1.296c-.255-.529-.414-1.152-.477-1.87a4.51 4.51 0 01.134-1.593c.137-.51.357-.96.66-1.35a3.696 3.696 0 011.16-.977c.47-.256 1.01-.41 1.622-.464a4.018 4.018 0 011.448.123c.45.126.846.335 1.187.627.34.286.62.652.835 1.099.22.441.357.957.408 1.546.026.298.012.503-.042.614-.055.107-.173.168-.354.184l-5.06.443zm12.633 1.352l-.46-5.268-2.01.175c.008.69-.005 1.315-.036 1.875a15.514 15.514 0 01-.15 1.49c-.07.44-.153.825-.253 1.155-.094.33-.203.615-.327.856l3.236-.283zm3.406-.355l.316 3.61a.583.583 0 01-.122.445.526.526 0 01-.384.194l-1.228.108-.24-2.742-6.12.536.191 2.183a.615.615 0 01-.102.395c-.075.124-.205.194-.391.21l-1.243.11-.363-4.145.231-.02c.186-.016.365-.056.536-.12.17-.068.329-.189.474-.362a2.42 2.42 0 00.402-.726c.123-.316.22-.728.293-1.238.073-.515.12-1.143.14-1.883.027-.742.022-1.627-.015-2.657l5.54-.485.587 6.718 1.498-.13zm8-7.47l.716 8.178-1.969.172-.417-4.774a5.476 5.476 0 01-.02-.4c.004-.15.009-.3.017-.451a3.89 3.89 0 01-.294.676 193.065 193.065 0 01-.47.788c-.13.226-.278.482-.446.77-.168.282-.338.57-.51.864L66.61 15.66a1.666 1.666 0 01-.267.352.588.588 0 01-.392.195l-1.204.105-.715-8.176L66 7.963l.418 4.774c.01.122.015.258.012.409.002.144-.001.291-.01.442a4.166 4.166 0 01.427-.904 63.3 63.3 0 00.321-.55l.456-.763.509-.88c.405-.694.866-1.478 1.384-2.353.064-.124.153-.241.266-.353a.617.617 0 01.4-.196l1.196-.104zm9.086.675l-2.917.256.588 6.718-1.969.172-.588-6.718-2.909.254-.127-1.458 7.794-.682.128 1.458zm6.34 1.148a2.263 2.263 0 00-.174-.707 1.665 1.665 0 00-.37-.57 1.461 1.461 0 00-.585-.35 1.81 1.81 0 00-.779-.085c-.568.05-1.003.251-1.304.604-.296.352-.463.83-.501 1.433l3.714-.325zm-3.65 1.516c.07.417.176.774.32 1.072.143.293.32.532.528.717.209.18.447.309.716.387.275.072.57.095.89.067.318-.028.589-.09.81-.184.228-.094.423-.194.585-.3.167-.105.312-.2.433-.286a.787.787 0 01.372-.146c.165-.014.293.037.383.152l.629.668a3.38 3.38 0 01-.677.71 4.378 4.378 0 01-.817.488 4.752 4.752 0 01-.882.294c-.299.07-.592.116-.879.141a4.44 4.44 0 01-1.61-.14 3.637 3.637 0 01-1.348-.725 3.99 3.99 0 01-.973-1.296c-.255-.53-.414-1.153-.477-1.87a4.51 4.51 0 01.134-1.594c.137-.51.358-.96.66-1.35a3.698 3.698 0 011.16-.977c.47-.255 1.01-.41 1.622-.463a4.018 4.018 0 011.448.122c.45.127.846.336 1.187.627.341.286.62.653.835 1.1.22.44.357.956.409 1.546.026.297.011.502-.043.614-.055.106-.173.168-.353.183l-5.061.443zM33.22 31.607a10.4 10.4 0 00-1.421.276c-.382.103-.685.22-.909.353-.224.132-.38.277-.468.434a.852.852 0 00-.109.5c.03.345.153.583.368.715.22.13.495.181.825.152.403-.035.745-.137 1.025-.306a3.17 3.17 0 00.81-.746l-.12-1.378zm-4.82-3.152c.864-.943 1.958-1.473 3.281-1.588.478-.042.913 0 1.304.126.391.122.729.311 1.014.57.284.254.51.569.677.945.172.376.278.795.319 1.257l.451 5.164-.892.078c-.186.017-.332.003-.438-.042-.106-.05-.195-.157-.269-.322l-.227-.574a7.82 7.82 0 01-.562.547c-.185.155-.379.29-.583.404a3.134 3.134 0 01-.667.276 3.7 3.7 0 01-.79.149 3.24 3.24 0 01-.968-.052c-.3-.07-.565-.189-.794-.356a1.884 1.884 0 01-.555-.65 2.467 2.467 0 01-.26-.95 1.89 1.89 0 01.334-1.24c.143-.2.332-.394.567-.58.236-.187.529-.357.88-.511.355-.154.771-.29 1.248-.407a12.248 12.248 0 011.646-.288l-.042-.478c-.048-.547-.2-.94-.457-1.18-.257-.246-.606-.35-1.047-.31a2.446 2.446 0 00-.787.18 3.12 3.12 0 00-.528.304c-.151.104-.29.2-.416.285a.841.841 0 01-.42.15.585.585 0 01-.36-.074.954.954 0 01-.254-.234l-.406-.6zm14.229 4.432l-.461-5.268-2.009.176c.007.69-.005 1.315-.036 1.874a15.508 15.508 0 01-.151 1.491c-.069.44-.153.825-.252 1.155-.095.33-.203.614-.327.855l3.236-.283zm3.406-.354l.316 3.61a.584.584 0 01-.122.445.526.526 0 01-.385.194l-1.227.107-.24-2.741-6.12.535.19 2.184a.615.615 0 01-.101.394c-.075.125-.206.195-.392.211l-1.243.109-.362-4.144.23-.02c.187-.017.365-.056.536-.12.171-.068.33-.189.475-.362a2.42 2.42 0 00.402-.726c.122-.316.22-.729.293-1.238.073-.515.12-1.143.14-1.884.027-.74.021-1.626-.015-2.657l5.539-.484.587 6.718 1.499-.13zm3.15-.942c.247.251.506.422.776.51.275.089.567.12.875.092a1.89 1.89 0 00.79-.237c.23-.133.417-.32.561-.563.15-.244.255-.542.316-.895.06-.359.068-.775.027-1.247a5.256 5.256 0 00-.226-1.201c-.103-.329-.236-.59-.397-.785a1.305 1.305 0 00-.566-.408 1.607 1.607 0 00-.706-.083c-.41.036-.75.154-1.021.355-.272.195-.522.46-.75.796l.321 3.666zm-.536-4.932a4.281 4.281 0 011.06-1.016c.404-.271.894-.432 1.467-.482.447-.04.861.018 1.244.172.388.154.73.397 1.028.73.301.326.547.744.736 1.252.194.502.32 1.088.378 1.758.054.61.02 1.184-.098 1.719a4.127 4.127 0 01-.591 1.417c-.27.409-.612.741-1.029.997-.412.25-.886.399-1.423.446-.456.04-.853.005-1.19-.105a2.934 2.934 0 01-.92-.514l.293 3.348-1.968.172-.95-10.847 1.204-.105c.255-.022.433.083.534.315l.225.743zm12.625.943a2.263 2.263 0 00-.175-.707 1.664 1.664 0 00-.37-.57 1.46 1.46 0 00-.585-.35 1.812 1.812 0 00-.779-.085c-.568.05-1.003.251-1.304.604-.296.352-.463.83-.501 1.433l3.714-.325zm-3.65 1.516c.069.417.175.774.319 1.072.143.293.32.532.528.717.209.18.447.309.717.387.274.072.57.095.889.067.319-.028.589-.09.81-.184.228-.094.423-.194.585-.3a9.91 9.91 0 00.433-.286.787.787 0 01.372-.145c.165-.015.293.036.383.15l.629.669c-.196.274-.421.51-.677.71a4.373 4.373 0 01-.817.488 4.746 4.746 0 01-.881.294 6.39 6.39 0 01-.88.141 4.44 4.44 0 01-1.61-.14 3.636 3.636 0 01-1.348-.725 3.992 3.992 0 01-.973-1.296c-.255-.53-.414-1.152-.476-1.87a4.51 4.51 0 01.133-1.594 3.8 3.8 0 01.66-1.35 3.698 3.698 0 011.16-.977 4.11 4.11 0 011.622-.463 4.018 4.018 0 011.448.122c.45.127.846.336 1.187.627.341.286.62.653.835 1.1.22.44.357.956.409 1.546.026.297.011.502-.043.614-.055.106-.173.168-.353.183l-5.061.443zm12.63-3.73a.909.909 0 01-.16.19c-.05.047-.127.075-.234.085a.56.56 0 01-.302-.062 5.28 5.28 0 00-.361-.178 2.238 2.238 0 00-.496-.165 2.067 2.067 0 00-.686-.036 2.05 2.05 0 00-.892.27c-.25.145-.452.342-.607.591-.15.25-.252.545-.308.887a4.523 4.523 0 00-.029 1.135c.038.435.117.82.237 1.151.126.332.286.607.482.825.195.214.423.37.684.47.26.096.546.13.86.102.313-.027.562-.087.747-.178.19-.097.347-.196.472-.298.124-.107.231-.202.32-.285a.53.53 0 01.325-.149.401.401 0 01.374.152l.629.668a3.68 3.68 0 01-.653.707c-.24.193-.494.354-.76.485a4.119 4.119 0 01-.827.289 5.89 5.89 0 01-.855.139 3.687 3.687 0 01-1.45-.154 3.43 3.43 0 01-1.245-.727 4.015 4.015 0 01-.912-1.253c-.238-.51-.386-1.098-.444-1.768a5.255 5.255 0 01.11-1.688c.13-.53.346-.997.648-1.398a3.48 3.48 0 011.166-.993c.475-.256 1.034-.412 1.677-.468.611-.054 1.154-.002 1.628.155.48.156.918.401 1.317.736l-.455.762zm-51.497-4.107a1 1 0 10-.568-1.918l.568 1.918zM6.166 37.991a1 1 0 001.4.198l7.19-5.413a1 1 0 00-1.203-1.598l-6.39 4.812-4.813-6.391a1 1 0 00-1.597 1.203l5.413 7.19zm12.023-18.628C13.781 20.67 7.555 26.038 5.975 37.252l1.98.279c1.49-10.569 7.264-15.2 10.802-16.249l-.568-1.918z" opacity=".75" fill="#fff"/></svg>