<svg width="24" height="24" fill="none" xmlns="http://www.w3.org/2000/svg"><path d="M16.274 2.47H7.372a5.26 5.26 0 00-5.255 5.255v8.903a5.26 5.26 0 005.255 5.255h8.902a5.26 5.26 0 005.255-5.255V7.725a5.26 5.26 0 00-5.255-5.254zm-4.45 15.014a5.314 5.314 0 01-5.309-5.307 5.314 5.314 0 015.308-5.308 5.314 5.314 0 015.308 5.308 5.314 5.314 0 01-5.308 5.307zm5.434-9.363a1.57 1.57 0 01-1.569-1.569 1.57 1.57 0 011.569-1.568 1.57 1.57 0 011.568 1.568 1.57 1.57 0 01-1.568 1.569z" fill="#fff"/><path d="M11.823 8.007a4.175 4.175 0 00-4.17 4.17 4.175 4.175 0 004.17 4.17c2.3 0 4.17-1.871 4.17-4.17 0-2.3-1.87-4.17-4.17-4.17zm5.435-1.885a.43.43 0 100 .862.43.43 0 000-.862z" fill="#fff"/></svg>