<svg width="18" height="18" viewBox="0 0 18 18" fill="none" xmlns="http://www.w3.org/2000/svg">
<path fill-rule="evenodd" clip-rule="evenodd" d="M9 18C4.02944 18 0 13.9706 0 9C0 4.02944 4.02944 0 9 0C13.9706 0 18 4.02944 18 9C18 13.9706 13.9706 18 9 18ZM7.84629 10.38L5.82854 8.36227C5.52462 8.05835 5.03186 8.05835 4.72794 8.36227C4.42402 8.66619 4.42402 9.15894 4.72794 9.46286L7.296 12.0309C7.59992 12.3348 8.09267 12.3348 8.39659 12.0309L12.799 7.62854C13.1029 7.32462 13.1029 6.83186 12.799 6.52794C12.4951 6.22402 12.0023 6.22402 11.6984 6.52794L7.84629 10.38Z" fill="white"/>
</svg>
