<svg width="55" height="54" viewBox="0 0 55 54" fill="none" xmlns="http://www.w3.org/2000/svg">
<circle cx="27.5" cy="27" r="27" fill="#031C77"/>
<path d="M36.0742 35.6699V39.2734H19.0586V36.25C19.5391 35.1602 20.1426 34.1348 20.8691 33.1738C21.6074 32.2129 22.4453 31.2871 23.3828 30.3965C24.3203 29.5059 25.3457 28.6152 26.459 27.7246C27.1973 27.127 27.8359 26.5762 28.375 26.0723C28.9258 25.5684 29.377 25.0996 29.7285 24.666C30.209 24.127 30.584 23.5762 30.8535 23.0137C31.123 22.4395 31.2578 21.8418 31.2578 21.2207C31.2578 20.0488 30.9414 19.1582 30.3086 18.5488C29.6875 17.9395 28.7793 17.6348 27.584 17.6348C26.4355 17.6348 25.5273 17.9453 24.8594 18.5664C24.2031 19.1875 23.793 20.0957 23.6289 21.291L19.2344 21.0098C19.5039 18.8184 20.3594 17.125 21.8008 15.9297C23.2422 14.7344 25.1641 14.1367 27.5664 14.1367C30.1797 14.1367 32.1836 14.7402 33.5781 15.9473C34.9844 17.1543 35.6875 18.8535 35.6875 21.0449C35.6875 22.1934 35.4414 23.2539 34.9492 24.2266C34.457 25.1992 33.8008 26.1191 32.9805 26.9863C32.4062 27.6191 31.7031 28.2754 30.8711 28.9551C30.0391 29.623 29.166 30.3262 28.252 31.0645C27.2559 31.873 26.4004 32.6465 25.6855 33.3848C24.9707 34.123 24.4434 34.8848 24.1035 35.6699H36.0742Z" fill="white"/>
</svg>
