<svg width="56" height="65" viewBox="0 0 56 65" fill="none" xmlns="http://www.w3.org/2000/svg">
<g clip-path="url(#clip0_2255_44388)">
<path d="M37.965 29.2047C37.9465 28.8861 37.9257 28.5699 37.9026 28.2699C37.8149 27.1467 37.0019 26.5351 36.1496 26.4445C32.6181 22.7796 27.6847 23.0586 22.9822 25.4957C16.7161 28.7443 15.0023 36.9507 17.5037 43.0805C19.9658 49.1172 26.9341 50.5427 32.207 47.4569C34.355 46.1989 35.7477 44.106 36.637 41.6759C37.8911 44.3687 39.6926 46.6267 42.2448 47.7918C49.4833 51.0985 52.7769 37.5413 53.4767 33.2044C56.5347 14.2779 38.2491 -0.983819 20.5155 6.17846C6.78918 11.7222 1.08893 29.3931 5.00843 42.8875C9.5192 58.4189 32.4657 66.9253 44.8686 55.4935C46.2221 54.2448 44.4321 51.8659 42.8984 52.9216C32.1678 60.2978 16.208 56.2819 10.0204 44.9501C4.9761 35.7159 7.90475 23.2377 14.3118 15.5173C23.0261 5.01343 39.6557 6.31333 46.9011 17.7916C51.3842 24.8957 50.3494 34.1741 46.9681 41.4248C42.7668 50.4381 38.5216 34.1834 37.9696 29.207L37.965 29.2047ZM22.384 43.6455C14.4203 36.9274 26.6592 21.8146 34.1102 29.1559C34.1148 29.5791 34.1287 30.014 34.1518 30.4604C34.0039 37.5344 31.3224 51.1892 22.3863 43.6455H22.384Z" fill="white"/>
<path d="M55.3455 18.1684C55.0914 17.5871 54.8559 17.0127 54.5556 16.4546C54.4817 16.3151 54.2992 16.4174 54.3223 16.5523C54.4239 17.1918 54.6364 17.7708 54.8743 18.3684C55.0914 18.9172 55.2577 19.6079 55.7635 19.9474C55.8421 19.9985 55.9345 19.9288 55.9391 19.8451C55.9783 19.2544 55.5765 18.6917 55.3455 18.1684Z" fill="#2D2D2D"/>
<path d="M32.9629 63.5164C23.3662 64.521 15.5596 62.1607 8.21485 55.8542C8.16865 55.8146 8.09474 55.8635 8.12708 55.9216C12.0004 62.8537 25.9669 67.2743 33.0322 63.7769C33.1523 63.7187 33.0992 63.5025 32.9629 63.5164Z" fill="#2D2D2D"/>
<path d="M38.3981 60.7581C36.98 61.3767 35.5388 62.0999 34.3123 63.0533C34.2731 63.0835 34.2777 63.1649 34.34 63.158C35.9753 62.9882 37.5482 62.3185 38.5737 60.9883C38.6753 60.8535 38.5529 60.693 38.3981 60.7581Z" fill="#2D2D2D"/>
<path d="M42.5469 3.77624C47.3602 6.25746 50.3558 10.5013 53.2498 14.9289C53.3353 15.0592 53.5732 14.9778 53.5131 14.815C49.8616 4.90872 38.3571 -1.60012 27.9821 0.34393C27.869 0.367184 27.9105 0.520661 28.0075 0.529963C33.1488 1.12992 37.8328 1.34851 42.5469 3.77624Z" fill="#2D2D2D"/>
<path d="M9.53184 8.71539C3.84545 11.3757 -0.0832882 22.0284 1.17779 27.9187C1.20781 28.0559 1.3949 28.0117 1.40644 27.8884C2.15477 20.3332 4.78317 14.5685 9.58265 8.78748C9.61498 8.74795 9.57572 8.69446 9.52953 8.71539H9.53184Z" fill="#2D2D2D"/>
<path d="M54.8915 39.7504C53.8175 41.1666 53.3417 42.9571 52.5957 44.5524C51.7758 46.3127 50.6417 47.6847 49.4176 49.166C49.3437 49.2544 49.4338 49.3753 49.54 49.3241C52.6488 47.8382 54.8707 43.1339 55.1202 39.8109C55.1294 39.676 54.9585 39.662 54.8915 39.7504Z" fill="#2D2D2D"/>
</g>
<defs>
<clipPath id="clip0_2255_44388">
<rect width="55" height="65" fill="white" transform="translate(0.941406)"/>
</clipPath>
</defs>
</svg>
