<svg width="83" height="63" viewBox="0 0 83 63" fill="none" xmlns="http://www.w3.org/2000/svg">
<g clip-path="url(#clip0_2255_44374)">
<path d="M42.5331 6.74811C38.2527 7.71861 30.677 11.3859 26.8911 8.20784C23.858 5.66026 20.7128 3.15643 17.4154 0.954893C16.8328 0.565099 16.2102 0.720221 15.7637 1.09808C15.7157 1.13388 15.6777 1.17763 15.6336 1.21741C15.5675 1.28701 15.5095 1.35463 15.4554 1.43418C15.4034 1.50776 15.3553 1.58334 15.3173 1.67084C15.2472 1.81801 15.2052 1.97114 15.1872 2.13024C15.1872 2.14615 15.1771 2.15609 15.1751 2.17399C15.1751 2.18593 15.1731 2.19985 15.1711 2.21178C15.1711 2.23962 15.1631 2.26746 15.1611 2.29531C14.7907 6.60889 14.2522 10.9125 13.7357 15.2082C13.3252 18.6209 4.08782 22.2603 1.31498 23.8951C-0.1365 24.7502 0.269915 26.6236 1.69337 27.2063C4.60835 28.4016 13.8598 30.6051 15.043 33.7055C16.5746 37.7109 17.3273 42.1776 18.3003 46.35C18.6026 47.6506 20.3945 48.2174 21.3454 47.2131C23.6858 44.7451 28.8251 36.6151 32.5429 36.7105C36.8693 36.8199 41.1837 37.0665 45.5141 37.0864C46.8195 37.0944 47.9286 35.5909 47.1478 34.3956C44.7453 30.7304 41.7263 26.7449 40.2287 22.6083C39.1256 19.5656 43.5481 12.07 44.6813 8.96953C45.1598 7.66094 43.7884 6.45974 42.5371 6.74413L42.5331 6.74811ZM18.0361 34.8809C18.014 34.9982 17.8339 34.9803 17.8098 34.8749C17.5355 33.7374 16.7888 32.4825 15.978 31.6412C15.2192 30.8537 14.3203 30.4679 13.4734 29.8354C13.3913 29.7778 13.3993 29.6525 13.5054 29.6246C14.6726 29.3084 16.036 30.5872 16.7187 31.3827C17.5936 32.3989 18.2823 33.5007 18.0361 34.8809ZM16.2622 17.4635C15.1912 19.4065 13.2672 20.5142 11.2451 21.2978C11.145 21.3355 11.089 21.1943 11.151 21.1307C12.5885 19.6531 14.8448 18.8317 15.5916 16.7455C16.2102 15.0213 15.988 13.1857 16.1561 11.3918C16.1722 11.2367 16.3684 11.2248 16.4204 11.364C17.1311 13.2692 17.2813 15.6199 16.2622 17.4655V17.4635ZM16.3183 10.5327C16.2843 10.5784 16.2122 10.5844 16.1822 10.5327C15.8739 9.99175 15.982 9.42495 16.018 8.82833C16.062 8.11039 16.0721 7.39445 16.1001 6.67651C16.1041 6.58304 16.2342 6.5194 16.3003 6.59895C17.1291 7.58537 17.0611 9.50252 16.3183 10.5347V10.5327ZM36.0465 34.9167C33.7201 34.69 31.3557 34.2445 29.2976 35.7002C27.6819 36.8438 26.6248 38.3373 25.2054 39.6638C25.1613 39.7056 25.0853 39.6638 25.1053 39.6042C26.4967 35.1891 31.8682 31.8142 36.1345 34.6184C36.2587 34.7039 36.2166 34.9346 36.0465 34.9167ZM26.2284 10.2483C26.1964 10.2085 26.2264 10.1548 26.2785 10.1668C27.4737 10.4492 28.4807 11.1313 29.744 11.177C30.7931 11.2148 31.8662 11.0577 32.9133 11.0279C33.0114 11.0259 33.0494 11.1711 32.9593 11.2148C30.8451 12.2172 27.8321 12.2967 26.2304 10.2483H26.2284ZM40.4329 35.4258C39.9104 35.6247 39.4399 35.5372 38.8934 35.4954C38.3888 35.4576 37.8563 35.5014 37.3818 35.3045C37.2597 35.2528 37.2056 35.0718 37.3478 35.0002C37.8343 34.7556 38.3788 34.8133 38.9114 34.8431C39.482 34.8729 39.9885 34.8869 40.461 35.2309C40.541 35.2906 40.519 35.392 40.4329 35.4238V35.4258ZM39.3518 15.1883C38.8313 16.2861 38.3428 17.3978 37.516 18.3067C37.4199 18.4101 37.2657 18.2948 37.2937 18.1734C37.602 16.8708 38.1987 15.6418 38.8053 14.4525C39.2237 13.6331 39.7402 12.4578 40.6271 12.0481C40.7052 12.0103 40.7773 12.074 40.7653 12.1555C40.5911 13.1916 39.8023 14.2377 39.3518 15.1863V15.1883Z" fill="white"/>
</g>
<g clip-path="url(#clip1_2255_44374)">
<path d="M79.9398 11.5272C78.0273 11.9609 74.6424 13.5994 72.9508 12.1794C71.5956 11.0412 70.1903 9.92243 68.717 8.93877C68.4567 8.7646 68.1785 8.83391 67.979 9.00275C67.9576 9.01874 67.9406 9.03829 67.9209 9.05606C67.8914 9.08716 67.8654 9.11737 67.8413 9.15292C67.818 9.1858 67.7966 9.21956 67.7796 9.25866C67.7483 9.32441 67.7295 9.39284 67.7214 9.46392C67.7214 9.47103 67.7169 9.47547 67.7161 9.48347C67.7161 9.4888 67.7152 9.49502 67.7143 9.50036C67.7143 9.5128 67.7107 9.52524 67.7098 9.53768C67.5443 11.465 67.3037 13.3879 67.0729 15.3073C66.8895 16.8321 62.7621 18.4582 61.5232 19.1886C60.8747 19.5707 61.0563 20.4078 61.6923 20.6681C62.9947 21.2022 67.1283 22.1867 67.657 23.572C68.3413 25.3617 68.6777 27.3574 69.1124 29.2217C69.2475 29.8028 70.0481 30.0561 70.473 29.6073C71.5187 28.5046 73.815 24.872 75.4761 24.9147C77.4092 24.9636 79.3369 25.0737 81.2718 25.0826C81.855 25.0862 82.3506 24.4144 82.0017 23.8804C80.9283 22.2427 79.5793 20.462 78.9102 18.6137C78.4173 17.2542 80.3933 13.9051 80.8996 12.5198C81.1134 11.9351 80.5007 11.3984 79.9416 11.5254L79.9398 11.5272ZM68.9943 24.0972C68.9845 24.1496 68.904 24.1416 68.8933 24.0945C68.7707 23.5863 68.437 23.0256 68.0748 22.6497C67.7357 22.2978 67.3341 22.1254 66.9557 21.8428C66.919 21.8171 66.9226 21.7611 66.97 21.7487C67.4915 21.6074 68.1007 22.1787 68.4057 22.5342C68.7966 22.9882 69.1044 23.4805 68.9943 24.0972ZM68.2018 16.3149C67.7232 17.1831 66.8636 17.678 65.9601 18.0281C65.9154 18.045 65.8903 17.9819 65.918 17.9535C66.5603 17.2933 67.5685 16.9263 67.9021 15.9942C68.1785 15.2238 68.0792 14.4036 68.1544 13.6021C68.1615 13.5328 68.2492 13.5274 68.2725 13.5896C68.59 14.4409 68.6571 15.4912 68.2018 16.3158V16.3149ZM68.2268 13.2182C68.2116 13.2386 68.1794 13.2413 68.166 13.2182C68.0282 12.9765 68.0765 12.7233 68.0927 12.4567C68.1123 12.1359 68.1168 11.816 68.1293 11.4952C68.1311 11.4535 68.1893 11.425 68.2188 11.4606C68.5891 11.9013 68.5587 12.7579 68.2268 13.2191V13.2182ZM77.0415 24.1132C76.0021 24.0119 74.9456 23.8128 74.0261 24.4633C73.3042 24.9742 72.8319 25.6416 72.1977 26.2342C72.178 26.2529 72.144 26.2342 72.1529 26.2076C72.7746 24.2349 75.1747 22.727 77.0809 23.9799C77.1364 24.0181 77.1176 24.1212 77.0415 24.1132ZM72.6548 13.0911C72.6404 13.0734 72.6539 13.0494 72.6771 13.0547C73.2112 13.1809 73.6611 13.4857 74.2256 13.5061C74.6943 13.523 75.1738 13.4528 75.6416 13.4395C75.6854 13.4386 75.7024 13.5034 75.6622 13.523C74.7175 13.9708 73.3713 14.0064 72.6557 13.0911H72.6548ZM79.0015 24.3407C78.768 24.4295 78.5578 24.3904 78.3136 24.3718C78.0881 24.3549 77.8502 24.3744 77.6382 24.2865C77.5836 24.2634 77.5595 24.1825 77.623 24.1505C77.8404 24.0412 78.0837 24.067 78.3216 24.0803C78.5765 24.0936 78.8029 24.0999 79.014 24.2536C79.0498 24.2802 79.0399 24.3256 79.0015 24.3398V24.3407ZM78.5184 15.2984C78.2858 15.7889 78.0676 16.2856 77.6981 16.6917C77.6552 16.7379 77.5863 16.6864 77.5988 16.6322C77.7366 16.0501 78.0032 15.501 78.2742 14.9696C78.4612 14.6035 78.6919 14.0784 79.0882 13.8953C79.1231 13.8784 79.1553 13.9069 79.1499 13.9433C79.0721 14.4062 78.7197 14.8736 78.5184 15.2975V15.2984Z" fill="white"/>
</g>
<g clip-path="url(#clip2_2255_44374)">
<path d="M66.2289 44.5272C64.3164 44.9609 60.9315 46.5994 59.2399 45.1794C57.8847 44.0412 56.4794 42.9224 55.0061 41.9388C54.7458 41.7646 54.4676 41.8339 54.2681 42.0027C54.2466 42.0187 54.2296 42.0383 54.21 42.0561C54.1804 42.0872 54.1545 42.1174 54.1303 42.1529C54.1071 42.1858 54.0856 42.2196 54.0686 42.2587C54.0373 42.3244 54.0185 42.3928 54.0105 42.4639C54.0105 42.471 54.006 42.4755 54.0051 42.4835C54.0051 42.4888 54.0042 42.495 54.0033 42.5004C54.0033 42.5128 53.9997 42.5252 53.9989 42.5377C53.8334 44.465 53.5927 46.3879 53.3619 48.3073C53.1786 49.8321 49.0512 51.4582 47.8123 52.1886C47.1637 52.5707 47.3453 53.4078 47.9813 53.6681C49.2838 54.2022 53.4174 55.1867 53.9461 56.572C54.6304 58.3617 54.9667 60.3574 55.4015 62.2217C55.5366 62.8028 56.3372 63.0561 56.7621 62.6073C57.8078 61.5046 60.104 57.872 61.7652 57.9147C63.6982 57.9636 65.626 58.0737 67.5608 58.0826C68.1441 58.0862 68.6396 57.4144 68.2908 56.8804C67.2173 55.2427 65.8684 53.462 65.1993 51.6137C64.7064 50.2542 66.6824 46.9051 67.1887 45.5198C67.4025 44.9351 66.7897 44.3984 66.2307 44.5254L66.2289 44.5272ZM55.2834 57.0972C55.2736 57.1496 55.1931 57.1416 55.1823 57.0945C55.0598 56.5863 54.7261 56.0256 54.3638 55.6497C54.0248 55.2978 53.6232 55.1254 53.2448 54.8428C53.2081 54.8171 53.2117 54.7611 53.2591 54.7487C53.7806 54.6074 54.3898 55.1787 54.6948 55.5342C55.0857 55.9882 55.3934 56.4805 55.2834 57.0972ZM54.4908 49.3149C54.0123 50.1831 53.1526 50.678 52.2492 51.0281C52.2044 51.045 52.1794 50.9819 52.2071 50.9535C52.8494 50.2933 53.8575 49.9263 54.1912 48.9942C54.4676 48.2238 54.3683 47.4036 54.4434 46.6021C54.4506 46.5328 54.5383 46.5274 54.5615 46.5896C54.8791 47.4409 54.9462 48.4912 54.4908 49.3158V49.3149ZM54.5159 46.2182C54.5007 46.2386 54.4685 46.2413 54.4551 46.2182C54.3173 45.9765 54.3656 45.7233 54.3817 45.4567C54.4014 45.1359 54.4059 44.816 54.4184 44.4952C54.4202 44.4535 54.4783 44.425 54.5078 44.4606C54.8782 44.9013 54.8478 45.7579 54.5159 46.2191V46.2182ZM63.3306 57.1132C62.2912 57.0119 61.2347 56.8128 60.3151 57.4633C59.5932 57.9742 59.1209 58.6416 58.4867 59.2342C58.467 59.2529 58.433 59.2342 58.442 59.2076C59.0637 57.2349 61.4637 55.727 63.37 56.9799C63.4254 57.0181 63.4066 57.1212 63.3306 57.1132ZM58.9438 46.0911C58.9295 46.0734 58.9429 46.0494 58.9662 46.0547C59.5002 46.1809 59.9502 46.4857 60.5146 46.5061C60.9833 46.523 61.4628 46.4528 61.9307 46.4395C61.9745 46.4386 61.9915 46.5034 61.9512 46.523C61.0066 46.9708 59.6603 47.0064 58.9447 46.0911H58.9438ZM65.2905 57.3407C65.057 57.4295 64.8468 57.3904 64.6026 57.3718C64.3772 57.3549 64.1393 57.3744 63.9272 57.2865C63.8727 57.2634 63.8485 57.1825 63.912 57.1505C64.1294 57.0412 64.3727 57.067 64.6107 57.0803C64.8656 57.0936 65.0919 57.0999 65.303 57.2536C65.3388 57.2802 65.329 57.3256 65.2905 57.3398V57.3407ZM64.8075 48.2984C64.5749 48.7889 64.3566 49.2856 63.9872 49.6917C63.9442 49.7379 63.8754 49.6864 63.8879 49.6322C64.0256 49.0501 64.2922 48.501 64.5633 47.9696C64.7502 47.6035 64.981 47.0784 65.3773 46.8953C65.4122 46.8784 65.4444 46.9069 65.439 46.9433C65.3612 47.4062 65.0087 47.8736 64.8075 48.2975V48.2984Z" fill="white"/>
</g>
<defs>
<clipPath id="clip0_2255_44374">
<rect width="47" height="47" fill="white" transform="translate(0.40625 0.728516)"/>
</clipPath>
<clipPath id="clip1_2255_44374">
<rect width="21" height="21" fill="white" transform="translate(61.1172 8.83789)"/>
</clipPath>
<clipPath id="clip2_2255_44374">
<rect width="21" height="21" fill="white" transform="translate(47.4062 41.8379)"/>
</clipPath>
</defs>
</svg>
