<svg width="44" height="49" viewBox="0 0 44 49" fill="none" xmlns="http://www.w3.org/2000/svg">
<g clip-path="url(#clip0_2255_44381)">
<path d="M21.3219 36.4154C22.1041 42.477 18.532 48.2683 12.3755 48.8125C6.05315 49.3755 0.837397 44.0683 0.444503 37.684C0.242649 34.3737 1.68446 30.8606 4.21845 28.8751C5.95944 27.1561 8.17983 25.9889 10.6489 25.865C16.254 25.5835 20.6191 31.007 21.3219 36.4154Z" fill="white"/>
</g>
<g clip-path="url(#clip1_2255_44381)">
<path d="M43.3714 31.3641C43.7811 34.5266 41.91 37.5482 38.6852 37.8321C35.3735 38.1258 32.6414 35.3569 32.4356 32.026C32.3299 30.2988 33.0851 28.4659 34.4124 27.43C35.3244 26.5331 36.4874 25.9241 37.7808 25.8595C40.7167 25.7127 43.0032 28.5423 43.3714 31.3641Z" fill="white"/>
</g>
<g clip-path="url(#clip2_2255_44381)">
<path d="M37.8467 9.11937C38.4426 13.8632 35.721 18.3955 31.0303 18.8214C26.2133 19.262 22.2394 15.1086 21.94 10.1122C21.7863 7.52146 22.8848 4.77211 24.8154 3.21826C26.1419 1.87296 27.8336 0.959452 29.7148 0.862518C33.9854 0.64222 37.3111 4.88667 37.8467 9.11937Z" fill="white"/>
</g>
<defs>
<clipPath id="clip0_2255_44381">
<rect width="21" height="23" fill="white" transform="matrix(1 0 0 -1 0.425781 48.8535)"/>
</clipPath>
<clipPath id="clip1_2255_44381">
<rect width="11" height="12" fill="white" transform="matrix(1 0 0 -1 32.4258 37.8535)"/>
</clipPath>
<clipPath id="clip2_2255_44381">
<rect width="16" height="18" fill="white" transform="matrix(1 0 0 -1 21.9258 18.8535)"/>
</clipPath>
</defs>
</svg>
