<svg width="54" height="54" fill="none" xmlns="http://www.w3.org/2000/svg"><path d="M27.037 25.259h-.118a8.5 8.5 0 01-8.33-8.32 8.448 8.448 0 0116.896-.118v.047a8.443 8.443 0 01-8.448 8.391zm0-15.014a6.613 6.613 0 00-6.114 4.125 6.57 6.57 0 006.02 9.027 6.811 6.811 0 002.55-.475 6.567 6.567 0 004.13-6.101v-.038a6.585 6.585 0 00-6.586-6.538z" fill="#031C77"/><path fill-rule="evenodd" clip-rule="evenodd" d="M22.785 26.793c-.045.073-.08.152-.105.233l-3.943 14.087a.95.95 0 00.665 1.178l.95.271a.95.95 0 001.178-.66l3.944-14.087a.882.882 0 00.033-.247c.5.074 1.005.11 1.51.109.333 0 .657 0 .984-.047l.233-.029c.257-.028.508-.066.76-.114l.205-.043c.275-.057.541-.123.807-.2l.124-.033a10.832 10.832 0 10-7.36-.418h.015zM18.18 14.388a9.202 9.202 0 018.841-6.718 9.198 9.198 0 01.029 18.396 9.198 9.198 0 01-8.87-11.678z" fill="#031C77"/><path d="M36.853 49H17.216A3.222 3.222 0 0114 45.788V34.58a8.661 8.661 0 016.98-8.457.922.922 0 01.64.11l1.279.698a.95.95 0 11-.85 1.653c-.124-.061-.67-.36-1.036-.56a6.785 6.785 0 00-5.15 6.556v11.208a1.354 1.354 0 001.354 1.354h19.636c.356-.004.697-.147.95-.399a1.335 1.335 0 00.394-.95V34.585a6.775 6.775 0 00-5.15-6.556 12.672 12.672 0 01-6.024 1.534c-.205 0-.884-.043-1.9-.119h-.238a.95.95 0 11.123-1.857h.247c.395 0 1.602.109 1.787.109a10.823 10.823 0 005.411-1.463.922.922 0 01.642-.11 8.642 8.642 0 016.984 8.457v11.208A3.212 3.212 0 0136.862 49h-.01z" fill="#031C77"/></svg>