<svg width="54" height="54" fill="none" xmlns="http://www.w3.org/2000/svg"><path d="M36.263 44.368a14.5 14.5 0 01-5.587-1.119.982.982 0 11.737-1.777 12.537 12.537 0 10-6.966-15.802.982.982 0 01-1.812-.648 14.452 14.452 0 1113.628 19.346z" fill="#031C77"/><path d="M36.052 41.236c-.295 0-.59 0-.884-.034a.982.982 0 01.142-1.92 9.695 9.695 0 009.082-14.594.981.981 0 111.655-.982 11.507 11.507 0 011.58 6.78 11.64 11.64 0 01-11.575 10.75zM16.13 38.57a2.734 2.734 0 11-.005-5.468 2.734 2.734 0 01.005 5.469zm19.877-5.615a3.008 3.008 0 01-2.996-2.83 2.994 2.994 0 015.892-.906 3 3 0 01-2.896 3.736zm0-4.757c-.15 0-.298.02-.442.059a1.762 1.762 0 101.518.315 1.777 1.777 0 00-1.076-.374z" fill="#031C77"/><path d="M36.625 28.281a.598.598 0 01-.157 0 .619.619 0 01-.437-.75l1.542-5.744a.614.614 0 011.183.319l-1.537 5.738a.613.613 0 01-.594.437zm-2.005 7.511a.608.608 0 01-.594-.775l.765-2.867a.615.615 0 011.188.319l-.77 2.867a.614.614 0 01-.59.456zm5.409-24.987h-6.613v2.587h6.613v-2.587z" fill="#031C77"/><path d="M40.027 14.354H33.41a.982.982 0 01-.982-.982V10.8a.982.982 0 01.982-.982h6.617a.982.982 0 01.982.982v2.587a.981.981 0 01-.982.967zm-5.655-1.924h4.693v-.648h-4.693v.648zM10.46 28.12H3.849a.613.613 0 01-.613-.614v-2.587a.614.614 0 01.613-.614h6.613a.614.614 0 01.613.614v2.572a.613.613 0 01-.613.628zm-5.998-1.228h5.4v-1.365h-5.4v1.365zm5.998-3.019H3.849a.614.614 0 01-.613-.614v-2.587a.614.614 0 01.613-.613h6.613a.613.613 0 01.613.613v2.587a.614.614 0 01-.613.614zm-5.998-1.232h5.4v-1.355h-5.4v1.355zm14.256 5.479H12.1a.613.613 0 01-.594-.629v-2.587a.614.614 0 01.614-.614h6.617a.613.613 0 01.614.614v2.587a.616.616 0 01-.633.628zm-6-1.228h5.4v-1.365h-5.4v1.365zm6-3.019H12.1a.614.614 0 01-.614-.614v-2.587a.614.614 0 01.614-.613h6.618a.614.614 0 01.613.613v2.587a.614.614 0 01-.613.614zm-6-1.232h5.4v-1.355h-5.4v1.355zm-2.258-3.005H3.849a.613.613 0 01-.613-.613V16.44a.614.614 0 01.613-.619h6.613a.612.612 0 01.613.619v2.582a.614.614 0 01-.613.613zM4.463 18.41h5.4v-1.355h-5.4v1.355z" fill="#031C77"/><path d="M28.453 43.917H3.805a.856.856 0 01-.86-.854V28.55a.854.854 0 01.86-.854h24.648a.854.854 0 01.86.854v14.512a.854.854 0 01-.86.854zm-23.79-1.714h22.931V29.41H4.664v12.793z" fill="#031C77"/><path d="M26.155 41.315H6.108a.612.612 0 01-.619-.614v-9.774a.614.614 0 01.619-.613H26.16a.615.615 0 01.619.613v9.79a.613.613 0 01-.623.598zm-19.44-1.232h18.827v-8.557H6.715v8.557z" fill="#031C77"/></svg>