<svg width="54" height="54" fill="none" xmlns="http://www.w3.org/2000/svg"><path d="M35.744 25.253h-.09a6.646 6.646 0 01-4.014-1.398 1.055 1.055 0 111.26-1.636 4.68 4.68 0 004.6.633 4.685 4.685 0 001.536-1.012 4.458 4.458 0 001.055-1.52 4.669 4.669 0 00-1.002-5.106 4.748 4.748 0 00-4.638-1.182c-.138.075-.291.12-.449.128-.157.008.476-.347.33-.408-.145-.06-.355-.264-.46-.381-.106-.118-.328.28-.372.129-.044-.151-.621-.408-.596-.563a1.055 1.055 0 01.967-.883 6.827 6.827 0 016.679 1.698A6.737 6.737 0 0142 21.138a6.624 6.624 0 01-1.487 2.2 6.737 6.737 0 01-4.748 1.941l-.021-.026z" fill="#031C77"/><path d="M43.21 43.306h-3.75a1.055 1.055 0 010-2.068h3.75a.703.703 0 00.707-.702v-8.52a4.821 4.821 0 00-4.827-4.817l-6.52-.306a1.055 1.055 0 01.095-2.062l6.478.3a6.89 6.89 0 016.858 6.885v8.52a2.775 2.775 0 01-2.775 2.77h-.015zM21.167 24.119h-.121a8.561 8.561 0 01-7.83-11.754 8.578 8.578 0 0114.34-2.512 8.5 8.5 0 012.184 5.703 8.59 8.59 0 01-.665 3.303 8.441 8.441 0 01-1.889 2.79 8.55 8.55 0 01-2.03 1.483 8.24 8.24 0 01-.792.37 8.639 8.639 0 01-3.197.617zm0-15.057a6.495 6.495 0 102.427 12.519c.202-.082.399-.176.59-.28a6.467 6.467 0 002.976-3.234 6.478 6.478 0 00-1.15-6.858c-.074-.09-.153-.168-.232-.248a6.484 6.484 0 00-4.606-1.899h-.005z" fill="#031C77"/><path d="M28.692 24.614a7.56 7.56 0 01-4.643-1.583 1.053 1.053 0 01-.565-1.169c.033-.152.42-.238.515-.362.096-.124.344-.038.483-.109.14-.071.088.005.244 0s.068-.335.21-.273c.093.273.271.156.374.273a5.503 5.503 0 003.313 1.156 6.057 6.057 0 002.19-.407 5.66 5.66 0 003.545-5.212 5.635 5.635 0 00-1.657-3.983 5.671 5.671 0 00-3.988-1.651 5.463 5.463 0 00-1.625.242 1.055 1.055 0 01-.602-1.978 7.681 7.681 0 017.676 1.926c.196.195.349.364.486.527a7.702 7.702 0 011.777 4.912 7.555 7.555 0 01-.6 2.975 7.671 7.671 0 01-1.705 2.517 7.572 7.572 0 01-1.298 1.055 7.734 7.734 0 01-4.125 1.181l-.005-.037zM37.423 45.7h-4.12a1.055 1.055 0 010-2.067h4.12a.993.993 0 001.002-.992v-9.955a5.803 5.803 0 00-5.803-5.803h-5.106a1.056 1.056 0 010-2.068h5.106a7.882 7.882 0 017.877 7.86v9.945a3.06 3.06 0 01-.902 2.163c-.575.58-1.357.91-2.174.918z" fill="#031C77"/><path d="M31.012 47.922H11.329A3.335 3.335 0 018 44.598V33.361a8.757 8.757 0 018.757-8.741h2.912a1.055 1.055 0 01.845.438 1.055 1.055 0 01.126.939l-2.374 6.69h.48a1.055 1.055 0 01.976 1.381l-1.018 2.865h4.933l-1.018-2.865a1.056 1.056 0 01.976-1.382h.48l-2.374-6.69a1.055 1.055 0 01.126-.938 1.056 1.056 0 01.844-.438h2.912a8.763 8.763 0 018.758 8.741v11.237a3.334 3.334 0 01-3.33 3.324zM16.768 26.688a6.69 6.69 0 00-6.69 6.673v11.237a1.26 1.26 0 001.261 1.256h19.683a1.261 1.261 0 001.261-1.256V33.361a6.688 6.688 0 00-6.69-6.673h-1.445l2.053 5.803a1.709 1.709 0 01-.211 1.55c-.23.324-.563.558-.945.666l.723 2.03a1.705 1.705 0 01-1.583 2.274H18.23a1.71 1.71 0 01-1.609-2.273l.723-2.031a1.741 1.741 0 01-.944-.665 1.708 1.708 0 01-.211-1.551l2.052-5.803h-1.472z" fill="#031C77"/></svg>