<svg width="42" height="41" fill="none" xmlns="http://www.w3.org/2000/svg"><path d="M2.992 19.84H2.86l-1.35-.21a1.35 1.35 0 01-1.083-1.684l4.4-16.084A1.353 1.353 0 016.354.89l31.829 4.98a1.363 1.363 0 01.92.6 1.339 1.339 0 01.168 1.084l-.951 3.464a.866.866 0 01-1.614.23.865.865 0 01-.05-.688l.835-3.052L6.425 2.651 2.23 17.983l.915.142a.865.865 0 01-.132 1.72l-.02-.005z" fill="#031C77"/><path d="M5.733 17.322h-.096l-.967-.153a.945.945 0 01-.656-.427.967.967 0 01-.122-.773L7.05 4.442a.961.961 0 011.073-.697l26.88 4.12a.967.967 0 01.782 1.206l-.295 1.078a.62.62 0 01-1.195-.325l.214-.779L8.18 5.006 5.169 15.994l.656.102a.621.621 0 01-.092 1.236v-.01zM4.253 21.9h-.097l-1.287-.198a1.133 1.133 0 01-.914-.937 1.109 1.109 0 01.024-.457l.3-1.094a1.099 1.099 0 011.231-.793l1.389.218a.618.618 0 11-.188 1.221l-1.272-.198-.224.819 1.135.178a.62.62 0 01-.097 1.23v.01zm35.089-10.21a.63.63 0 01-.167 0 .625.625 0 01-.433-.763l.356-1.286-.64-.102-.392 1.424a.62.62 0 01-1.196-.325l.422-1.527a1.099 1.099 0 011.231-.798l.921.147a1.1 1.1 0 01.89 1.374l-.397 1.44a.62.62 0 01-.595.417z" fill="#031C77"/><path d="M36.152 28.925h-.173l-31.833-4.98a1.1 1.1 0 01-.748-.509 1.084 1.084 0 01-.137-.885l.28-1.017a1.099 1.099 0 011.23-.794l30.013 4.69 3.86-14.106a1.094 1.094 0 011.227-.793l.864.137a1.089 1.089 0 01.89 1.373l-4.404 16.08a1.094 1.094 0 01-1.069.804zm-31.655-6.19l31.538 4.933 4.33-15.81-.586-.091-3.86 14.11a1.094 1.094 0 01-1.227.794L4.68 21.976l-.183.758z" fill="#031C77"/><path d="M33.554 24.616a1.45 1.45 0 01-.209 0L2.86 19.845a.865.865 0 11.265-1.71l30.145 4.721 3.367-12.29a.865.865 0 111.664.458l-3.454 12.62a1.338 1.338 0 01-1.292.972z" fill="#031C77"/><path fill-rule="evenodd" clip-rule="evenodd" d="M22.154 15.51a2.02 2.02 0 01-.834.59 1.907 1.907 0 01-1.018.098l-.508-.082-.285 1.7a.712.712 0 01-.3.477.707.707 0 01-.55.128.713.713 0 01-.478-.3.706.706 0 01-.127-.55l.285-1.699-1.094-.183a.735.735 0 01-.509-.3.733.733 0 01.728-1.145l3.052.509a.474.474 0 00.366-.082.51.51 0 00.196-.512.473.473 0 00-.079-.174.509.509 0 00-.32-.199l-2.432-.412a1.979 1.979 0 01-1.526-1.251 1.968 1.968 0 01.326-1.938c.22-.268.508-.472.834-.59a1.959 1.959 0 011.017-.102l.51.081.284-1.694a.737.737 0 01.707-.645.738.738 0 01.748.864l-.285 1.694 1.094.188a.747.747 0 01.508.295.743.743 0 01-.727 1.16l-3.052-.508a.508.508 0 00-.366.086.51.51 0 00-.196.512c.014.063.04.122.078.175a.51.51 0 00.321.198l2.431.407c.34.062.659.209.926.427a1.944 1.944 0 01.692 1.842c-.057.34-.203.66-.422.926l.005.01z" fill="#031C77"/><path d="M20.236 24.489a11.578 11.578 0 1111.15-8.454 11.567 11.567 0 01-11.15 8.454zm0-21.42a9.843 9.843 0 00-2.656 19.33 9.848 9.848 0 0012.133-6.827 9.848 9.848 0 00-9.477-12.499v-.005z" fill="#031C77"/><path d="M17.957 23.308l-1.039-.29a1.022 1.022 0 00-1.26.709l-4.22 15.083a1.022 1.022 0 00.71 1.26l1.038.29a1.022 1.022 0 001.26-.708l4.22-15.084a1.023 1.023 0 00-.71-1.26z" fill="#031C77"/></svg>