<svg width="44" height="34" fill="none" xmlns="http://www.w3.org/2000/svg"><g clip-path="url(#clip0_2297_23981)" fill="#fff"><path d="M25.94.047c1.302.01 2.208 1.277 1.845 2.637-.981 3.679-1.98 7.35-2.975 11.024-1.58 5.835-3.17 11.666-4.741 17.503-.227.845-.62 1.51-1.458 1.755-1.471.43-2.8-.949-2.392-2.517.684-2.63 1.41-5.25 2.12-7.876l5.666-20.88C24.293.63 24.992.04 25.94.047zm12.812 16.535c-.13-.145-.242-.274-.358-.395-2.017-2.128-4.037-4.25-6.05-6.383-.617-.652-.769-1.52-.44-2.307.318-.768 1.076-1.325 1.86-1.208.454.068.977.27 1.296.6a763.84 763.84 0 017.846 8.243c.79.839.793 2.063 0 2.903-2.6 2.762-5.212 5.512-7.833 8.255-.796.834-1.99.816-2.757.014-.778-.816-.78-2.085.026-2.94 2.01-2.133 4.033-4.255 6.049-6.383.117-.123.227-.25.357-.397l.004-.002zm-33.519.008c2.135 2.249 4.224 4.458 6.322 6.659.47.491.752 1.056.686 1.763-.079.842-.502 1.444-1.25 1.747-.755.305-1.453.143-2.035-.436-.686-.685-1.342-1.404-2.012-2.108-1.898-2-3.798-4-5.697-6.005-.994-1.047-.996-2.207-.007-3.25 2.546-2.685 5.09-5.368 7.64-8.05.593-.624 1.305-.825 2.097-.51.752.296 1.178.898 1.26 1.74.07.705-.207 1.272-.676 1.766-1.99 2.087-3.973 4.182-5.958 6.275-.117.123-.227.25-.372.41l.002-.001z"/></g><defs><clipPath id="clip0_2297_23981"><path fill="#fff" transform="translate(.5 .047)" d="M0 0h43v33H0z"/></clipPath></defs></svg>