<svg width="44" height="27" fill="none" xmlns="http://www.w3.org/2000/svg"><g clip-path="url(#clip0_2297_23994)" fill="#F3F3F3"><path d="M16.685 23.856c-1.018.294-1.977.647-2.967.845-6.243 1.25-12.506-3.195-13.55-9.59C-.872 8.736 2.998 2.858 9.18 1.424c6.382-1.48 12.928 3.028 13.93 9.62.154 1.006.142 2.037.252 3.052.52 4.752 4.573 8.328 9.243 8.172 4.697-.156 8.413-3.78 8.804-8.585.374-4.594-2.83-8.844-7.364-9.735a8.773 8.773 0 00-4.66.35c-.105.037-.205.091-.373.168.173.055.285.092.397.125.727.218 1.142.88.977 1.563-.181.746-.84 1.156-1.62.98-.769-.172-1.533-.369-2.298-.555-.389-.095-.783-.177-1.167-.29-.656-.19-1.047-.725-.966-1.41.151-1.275.327-2.548.534-3.815.115-.704.787-1.129 1.48-1.015.653.107 1.113.727 1.058 1.432-.021.256-.062.512-.092.75.889-.276 1.734-.605 2.607-.801C36.647-.092 43.25 4.8 43.941 11.796c.648 6.539-3.98 12.366-10.37 13.053-6.777.729-12.8-4.686-12.841-11.64-.03-4.736-3.255-8.42-7.348-9.262C8.282 2.9 3.21 6.65 2.645 11.922c-.55 5.132 2.851 9.581 7.886 10.28 1.44.2 2.858.023 4.227-.494.062-.022.119-.063.226-.12l-.367-.111c-.756-.225-1.173-.889-.997-1.59.186-.74.854-1.138 1.634-.959.768.176 1.533.37 2.297.555.39.095.784.18 1.168.292.618.18 1.02.699.948 1.336a74.312 74.312 0 01-.544 3.901c-.12.715-.79 1.117-1.49.994-.631-.11-1.087-.72-1.04-1.405.02-.258.064-.514.094-.748l-.002.003z"/><path d="M15.41 10.36c.088.22.168.423.248.62 1.35.166 1.842.537 1.828 1.37-.015.837-.566 1.244-1.782 1.311-.28.374-.33.68.076 1.06.54.503.489 1.33-.024 1.838-.49.485-1.252.476-1.793.002-.17-.15-.248-.448-.621-.313-.367.133-.415.35-.42.685-.01.676-.359 1.13-.946 1.305-.503.15-1.086-.021-1.358-.49a2.134 2.134 0 01-.255-.945c-.012-.31-.145-.411-.386-.534-.267-.135-.386.004-.544.162-.618.62-1.409.656-1.94.098-.528-.553-.509-1.35.122-1.934.389-.36.086-.614.001-.916-1.344-.162-1.842-.538-1.827-1.372.016-.84.563-1.244 1.784-1.31.278-.374.334-.682-.075-1.061-.53-.492-.491-1.298-.007-1.807.489-.513 1.27-.517 1.823-.034.17.15.25.471.62.311.312-.133.42-.288.424-.64.01-1.1 1.002-1.734 1.892-1.235.49.275.697.723.673 1.275-.014.309.092.453.374.583.3.138.415-.037.575-.195.594-.587 1.388-.617 1.911-.07.517.539.484 1.317-.08 1.916-.099.103-.195.209-.295.316l.002.003zm-3.758 3.642c.901-.006 1.633-.757 1.633-1.674 0-.917-.735-1.665-1.636-1.668a1.661 1.661 0 00-1.653 1.694c.017.922.754 1.653 1.656 1.648zm24.775.958c-.28.403-.33.703.067 1.07.544.502.496 1.33-.012 1.839-.5.499-1.278.485-1.822-.021-.172-.16-.275-.427-.632-.27-.308.135-.38.301-.386.618-.019 1.083-.964 1.72-1.852 1.264-.515-.265-.739-.722-.717-1.293.012-.303-.08-.456-.366-.586-.298-.135-.415.03-.576.19-.595.59-1.387.62-1.91.075-.531-.551-.493-1.33.106-1.94.172-.176.284-.308.158-.594-.119-.267-.235-.364-.527-.362-.864.009-1.453-.55-1.444-1.324.01-.76.59-1.29 1.43-1.298h.336c.347-.43.293-.741-.082-1.105-.513-.5-.457-1.308.041-1.805.49-.49 1.25-.485 1.793-.014.163.14.384.31.571.302.319-.014.488-.218.48-.617-.016-.83.536-1.403 1.268-1.408.75-.006 1.286.57 1.295 1.433.003.3.065.478.37.583.226.077.345.044.52-.112.23-.204.498-.41.784-.494.556-.163 1.114.123 1.384.622.284.525.2 1.1-.21 1.577-.152.176-.44.274-.277.64.129.294.255.415.585.408.827-.019 1.412.554 1.404 1.316-.007.746-.58 1.289-1.383 1.305-.143.003-.284 0-.396 0v.002zm-4.085.355c.904.007 1.641-.722 1.662-1.644.019-.911-.708-1.68-1.606-1.696a1.657 1.657 0 00-1.683 1.663c-.005.915.729 1.67 1.627 1.677z"/></g><defs><clipPath id="clip0_2297_23994"><path fill="#fff" transform="translate(0 .032)" d="M0 0h44v26H0z"/></clipPath></defs></svg>