<svg width="105" height="15" viewBox="0 0 105 15" fill="none" xmlns="http://www.w3.org/2000/svg">
<g clip-path="url(#clip0_1394_1004)">
<path d="M73.6271 3.21946C73.6275 3.22185 73.6279 3.22416 73.6282 3.22652C73.6293 3.23411 73.6311 3.24159 73.6328 3.24897C73.6332 3.25133 73.6339 3.25364 73.6346 3.25596C73.6371 3.26462 73.64 3.27311 73.6432 3.28131C73.6435 3.28206 73.6435 3.28284 73.6439 3.28355C73.6478 3.29289 73.6525 3.30195 73.6574 3.31068C73.6574 3.31115 73.6578 3.31164 73.6578 3.31211L80.0486 14.4466C80.0496 14.4485 80.0507 14.4502 80.0521 14.4521C80.0546 14.4565 80.0571 14.4608 80.0603 14.4649C80.0625 14.468 80.0646 14.4709 80.0667 14.4739C80.0692 14.4771 80.0717 14.4803 80.0746 14.4834C80.0771 14.4867 80.0803 14.4899 80.0831 14.493C80.0856 14.4955 80.0878 14.498 80.0903 14.5003C80.0935 14.5035 80.097 14.5065 80.1002 14.5095C80.1031 14.5117 80.1056 14.5138 80.1081 14.5159C80.1113 14.5187 80.1149 14.5212 80.1184 14.5237C80.1213 14.5259 80.1245 14.5279 80.1273 14.5299C80.1309 14.532 80.1341 14.534 80.1373 14.5359C80.1409 14.538 80.1448 14.5401 80.1484 14.542C80.1512 14.5435 80.1544 14.5449 80.1573 14.5463C80.1616 14.5482 80.1658 14.5501 80.1701 14.5518C80.173 14.5529 80.1758 14.5538 80.1787 14.5548C80.1829 14.5564 80.1876 14.5579 80.1922 14.5592C80.1954 14.56 80.1983 14.5608 80.2011 14.5615C80.2058 14.5625 80.2104 14.5636 80.215 14.5644C80.2186 14.5651 80.2222 14.5655 80.2257 14.566C80.2296 14.5666 80.2336 14.5671 80.2378 14.5675C80.2421 14.5678 80.2468 14.5679 80.2514 14.568C80.2539 14.5681 80.2564 14.5684 80.2589 14.5684L82.082 14.5546C82.083 14.5546 82.0841 14.5544 82.0852 14.5544C82.0934 14.5542 82.1019 14.5536 82.1101 14.5525C82.1123 14.5522 82.114 14.552 82.1162 14.5517C82.1354 14.5487 82.154 14.5435 82.1718 14.5361C82.1739 14.5352 82.1761 14.5343 82.1779 14.5333C82.1853 14.5301 82.1925 14.5264 82.1992 14.5225C82.2007 14.5216 82.2025 14.5208 82.2039 14.5199C82.2203 14.5099 82.2356 14.4978 82.2499 14.4837C82.2513 14.4822 82.2527 14.4805 82.2541 14.4789C82.2595 14.4733 82.2645 14.4675 82.2691 14.4614C82.2709 14.4594 82.2723 14.4574 82.2737 14.4553C82.2795 14.4476 82.2848 14.4396 82.2898 14.431C82.2898 14.4308 82.2898 14.4306 82.2901 14.4305C82.2901 14.4304 82.2901 14.4304 82.2901 14.4303L88.5661 3.20063C88.6085 3.12449 88.6078 3.03105 88.5643 2.95551L87.6407 1.35984C87.6403 1.3593 87.64 1.35884 87.6396 1.35834C87.6346 1.34957 87.6289 1.34105 87.6228 1.33292C87.6228 1.33289 87.6228 1.33289 87.6228 1.33289C87.6168 1.32519 87.6104 1.31795 87.6032 1.311C87.6018 1.30954 87.6004 1.30815 87.599 1.30672C87.5933 1.30116 87.5872 1.29585 87.5808 1.29079C87.5794 1.28957 87.5779 1.28829 87.5761 1.28715C87.5683 1.28127 87.5605 1.27571 87.5515 1.27072C87.543 1.2658 87.5344 1.26166 87.5255 1.25792C87.5248 1.25763 87.5241 1.25724 87.5234 1.25696C87.4934 1.24448 87.4621 1.23856 87.4311 1.23878C87.4303 1.23878 87.43 1.23888 87.4296 1.23888L74.7643 1.33439C74.6781 1.33503 74.5986 1.38237 74.5561 1.45851L73.6567 3.06784C73.6564 3.06845 73.656 3.06909 73.6557 3.0697C73.651 3.07843 73.6464 3.08745 73.6428 3.09683C73.6425 3.09722 73.6425 3.09768 73.6425 3.09811C73.6389 3.10663 73.636 3.11543 73.6339 3.12438C73.6332 3.12681 73.6325 3.12919 73.6321 3.13162C73.6303 3.13885 73.6289 3.14616 73.6279 3.15361C73.6275 3.15618 73.6271 3.15871 73.6268 3.16124C73.6257 3.17037 73.625 3.1796 73.625 3.18898C73.6254 3.18944 73.625 3.1899 73.625 3.19037C73.625 3.19044 73.625 3.19055 73.625 3.19065C73.6254 3.20042 73.6261 3.20997 73.6271 3.21946ZM87.4364 1.97421L88.0774 3.08175L82.0763 13.8193L76.9792 5.01309L78.2444 5.00354L81.8477 11.2286C81.8481 11.2294 81.8488 11.2301 81.8492 11.2308C81.8517 11.2353 81.8545 11.2396 81.8577 11.2439C81.8592 11.2463 81.8609 11.2489 81.8627 11.2513C81.8656 11.255 81.8684 11.2586 81.8713 11.2622C81.8738 11.265 81.8759 11.2677 81.878 11.2703C81.8809 11.2732 81.8834 11.2758 81.8862 11.2786C81.8895 11.2816 81.8923 11.2847 81.8955 11.2876C81.8977 11.2897 81.9002 11.2916 81.9026 11.2935C81.9066 11.2968 81.9105 11.3 81.9144 11.303C81.9165 11.3046 81.919 11.3061 81.9212 11.3076C81.9255 11.3106 81.9301 11.3136 81.9347 11.3163C81.9354 11.3167 81.9362 11.3173 81.9369 11.3176C81.9386 11.3188 81.9408 11.3196 81.9426 11.3207C81.9468 11.323 81.9511 11.3252 81.9558 11.3273C81.959 11.3289 81.9625 11.3303 81.9661 11.3317C81.9697 11.3332 81.9732 11.3347 81.9772 11.336C81.9811 11.3374 81.9854 11.3387 81.9896 11.3399C81.9928 11.3409 81.9957 11.3418 81.9989 11.3426C82.0035 11.3437 82.0082 11.3446 82.0128 11.3455C82.0156 11.346 82.0189 11.3466 82.0221 11.347C82.0263 11.3477 82.031 11.3482 82.0356 11.3486C82.0388 11.3489 82.0424 11.3491 82.0456 11.3492C82.0499 11.3494 82.0541 11.3495 82.0581 11.3494C82.062 11.3494 82.0656 11.3493 82.0695 11.3491C82.0734 11.3489 82.077 11.3486 82.0809 11.3482C82.0848 11.3477 82.0891 11.3472 82.093 11.3466C82.0966 11.346 82.1001 11.3453 82.1033 11.3446C82.1076 11.3438 82.1119 11.3429 82.1162 11.3418C82.1197 11.3409 82.123 11.3398 82.1265 11.3387C82.1304 11.3375 82.1344 11.3363 82.1379 11.3349C82.1422 11.3334 82.1458 11.3318 82.1497 11.3301C82.1529 11.3287 82.1561 11.3274 82.1593 11.3258C82.164 11.3237 82.1686 11.3212 82.1729 11.3187C82.1746 11.3177 82.1764 11.3169 82.1782 11.3159C82.1789 11.3155 82.1796 11.315 82.1803 11.3146C82.185 11.3117 82.1896 11.3085 82.1943 11.3053C82.196 11.3039 82.1982 11.3025 82.2003 11.3009C82.2046 11.2978 82.2085 11.2944 82.2124 11.291C82.2146 11.2891 82.2171 11.2872 82.2192 11.2852C82.2221 11.2822 82.2253 11.279 82.2285 11.2758C82.231 11.2731 82.2335 11.2704 82.236 11.2677C82.2385 11.265 82.2406 11.2622 82.2427 11.2594C82.2456 11.2558 82.2488 11.2522 82.2513 11.2484C82.2531 11.246 82.2545 11.2434 82.2563 11.2409C82.2591 11.2365 82.262 11.2322 82.2645 11.2277C82.2648 11.227 82.2655 11.2263 82.2659 11.2255L87.4364 1.97421ZM78.8023 4.99929L83.3942 4.96468L81.1287 9.01862L78.8023 4.99929ZM74.9073 1.82352L87.0161 1.73223L82.0524 10.6143L81.411 9.5068L84.92 3.22812C84.941 3.19069 84.952 3.14823 84.9517 3.10524C84.9506 2.96981 84.8415 2.8609 84.7082 2.86194L83.1101 2.87398C82.9767 2.87498 82.8694 2.98549 82.8705 3.12092C82.8712 3.25632 82.9803 3.36522 83.1136 3.36423L84.2936 3.35531L83.6694 4.47233L78.3805 4.51222C78.3802 4.51222 78.3802 4.51219 78.3798 4.51219L78.3795 4.51222L76.6965 4.52491L76.0555 3.41741L82.1479 3.3715C82.2812 3.3705 82.3885 3.25995 82.3875 3.12456C82.3864 2.98917 82.2773 2.88026 82.144 2.88126L75.6338 2.93035L75.6335 2.93031C75.6331 2.93031 75.6331 2.93035 75.6331 2.93035L74.2831 2.94051L74.9073 1.82352ZM75.498 3.42162L81.6599 14.0676L80.3954 14.0771L74.2849 3.43078L75.498 3.42162Z" fill="#F9C0AC"/>
<path d="M2.41016 1.44988H5.07547V14.509H2.41016V1.44988ZM8.46766 1.44988H11.1163L15.862 6.21234L20.6077 1.44988H23.2563V14.509H20.6077V5.11778L15.862 9.6881L11.1163 5.11778V14.509H8.46766V1.44988ZM26.9744 1.44988H33.8591C34.8617 1.44988 35.7306 1.5585 36.4659 1.77571C37.201 1.99295 37.811 2.30766 38.2958 2.71987C38.7802 3.12647 39.1396 3.62502 39.3734 4.21544C39.613 4.80585 39.7328 5.47149 39.7328 6.21234C39.7328 6.9086 39.6158 7.55195 39.382 8.14236C39.1478 8.73282 38.7884 9.24527 38.304 9.67972C37.8249 10.1086 37.2178 10.4456 36.4826 10.6907C35.7473 10.9302 34.8784 11.05 33.8758 11.05L29.623 11.0416V14.509H26.9744V1.44988ZM33.9259 8.75232C34.4272 8.75232 34.8645 8.69382 35.2377 8.57685C35.6165 8.45429 35.9312 8.28443 36.1818 8.06718C36.438 7.84438 36.6274 7.57701 36.75 7.26508C36.878 6.9476 36.9422 6.59667 36.9422 6.21234C36.9422 5.43808 36.6887 4.83651 36.1818 4.40762C35.6805 3.97313 34.9285 3.75589 33.9259 3.75589H29.623V8.75232H33.9259ZM42.6321 1.44988H49.2745C50.277 1.44988 51.1461 1.55572 51.8812 1.76737C52.6166 1.97345 53.2262 2.27426 53.711 2.66974C54.1955 3.06519 54.5548 3.54702 54.7887 4.11519C55.0282 4.68333 55.148 5.32668 55.148 6.04522C55.148 6.52983 55.0896 6.99216 54.9726 7.43217C54.8557 7.86666 54.6746 8.26771 54.4297 8.63532C54.1901 9.00296 53.8864 9.33161 53.5189 9.62125C53.1513 9.9053 52.7196 10.142 52.2238 10.3314L55.0646 14.509H51.8227L49.3661 10.7993H49.2909L45.2804 10.791V14.509H42.6321V1.44988ZM49.3412 8.50163C49.8424 8.50163 50.2798 8.44317 50.6531 8.32617C51.0317 8.20921 51.3464 8.0449 51.597 7.83322C51.8534 7.62157 52.0427 7.36533 52.1653 7.06456C52.2933 6.75819 52.3574 6.41843 52.3574 6.04522C52.3574 5.31552 52.1068 4.75295 51.6056 4.35746C51.104 3.95641 50.3493 3.75589 49.3412 3.75589H45.2804V8.50163H49.3412ZM57.5208 7.94184C57.5208 6.95594 57.7019 6.05356 58.0641 5.23478C58.4259 4.41596 58.9328 3.71415 59.5845 3.12926C60.2419 2.53884 61.0272 2.08207 61.9409 1.75902C62.8599 1.43594 63.8766 1.27441 64.9903 1.27441C66.099 1.27441 67.1128 1.43594 68.0318 1.75902C68.9509 2.08207 69.7362 2.53884 70.3879 3.12926C71.0452 3.71415 71.555 4.41596 71.9168 5.23478C72.279 6.05356 72.4601 6.95594 72.4601 7.94184C72.4601 8.93334 72.279 9.84406 71.9168 10.674C71.555 11.4984 71.0452 12.2086 70.3879 12.8046C69.7362 13.4006 68.9509 13.8657 68.0318 14.1999C67.1128 14.5285 66.099 14.6928 64.9903 14.6928C63.8766 14.6928 62.8599 14.5285 61.9409 14.1999C61.0272 13.8657 60.2419 13.4006 59.5845 12.8046C58.9328 12.2086 58.4259 11.4984 58.0641 10.674C57.7019 9.84406 57.5208 8.93334 57.5208 7.94184ZM60.1695 7.94184C60.1695 8.61585 60.2893 9.22299 60.5288 9.76328C60.7738 10.3036 61.111 10.7659 61.5398 11.1502C61.9744 11.529 62.4838 11.8214 63.0688 12.0275C63.6592 12.2336 64.2998 12.3367 64.9903 12.3367C65.6812 12.3367 66.3189 12.2336 66.9039 12.0275C67.4943 11.8214 68.004 11.529 68.4329 11.1502C68.8617 10.7659 69.1986 10.3036 69.4439 9.76328C69.6888 9.22299 69.8114 8.61585 69.8114 7.94184C69.8114 7.26787 69.6888 6.66351 69.4439 6.12878C69.1986 5.59405 68.8617 5.14288 68.4329 4.77523C68.004 4.40202 67.4943 4.11797 66.9039 3.92301C66.3189 3.72805 65.6812 3.63058 64.9903 3.63058C64.2998 3.63058 63.6592 3.72805 63.0688 3.92301C62.4838 4.11797 61.9744 4.40202 61.5398 4.77523C61.111 5.14288 60.7738 5.59405 60.5288 6.12878C60.2893 6.66351 60.1695 7.26787 60.1695 7.94184Z" fill="#F9C0AC"/>
<path d="M90.6933 10.6238C91.1667 10.8912 91.6458 11.1335 92.1303 11.3507C92.6205 11.5624 93.1274 11.7434 93.6511 11.8938C94.1748 12.0386 94.7234 12.15 95.297 12.228C95.8763 12.306 96.4919 12.345 97.1436 12.345C97.9289 12.345 98.5973 12.2949 99.1488 12.1946C99.7003 12.0888 100.149 11.9467 100.494 11.7685C100.845 11.5847 101.098 11.3674 101.254 11.1168C101.416 10.8661 101.497 10.5932 101.497 10.298C101.497 9.82452 101.299 9.45131 100.903 9.17838C100.508 8.89986 99.8978 8.76062 99.0736 8.76062C98.7114 8.76062 98.33 8.78568 97.9289 8.8358C97.5279 8.88036 97.1211 8.93052 96.709 8.9862C96.3023 9.04192 95.8987 9.09482 95.4977 9.14494C95.102 9.18951 94.7287 9.21179 94.378 9.21179C93.793 9.21179 93.2304 9.1366 92.6903 8.9862C92.1556 8.8358 91.6793 8.61021 91.2615 8.30944C90.8494 8.00864 90.5208 7.63265 90.2755 7.18148C90.0306 6.73031 89.908 6.20392 89.908 5.60235C89.908 5.24586 89.9554 4.89215 90.0498 4.54126C90.1504 4.19034 90.3062 3.85613 90.5179 3.53864C90.735 3.21556 91.0134 2.91757 91.3535 2.64464C91.6932 2.36612 92.1025 2.12659 92.5816 1.92607C93.0661 1.72554 93.6233 1.56958 94.2525 1.45818C94.8877 1.34121 95.6089 1.28271 96.4167 1.28271C97.0013 1.28271 97.5892 1.31615 98.1795 1.38299C98.7699 1.44427 99.3438 1.5334 99.9007 1.65036C100.463 1.76732 101.004 1.90935 101.522 2.07647C102.04 2.23799 102.522 2.41902 102.967 2.61954L101.806 4.75847C101.438 4.59695 101.042 4.44932 100.619 4.31564C100.196 4.1764 99.7531 4.05665 99.2907 3.95637C98.8283 3.85613 98.3496 3.77813 97.8537 3.72245C97.3635 3.66117 96.8623 3.63054 96.3497 3.63054C95.62 3.63054 95.0186 3.68345 94.5451 3.78929C94.0771 3.89513 93.7038 4.03159 93.4254 4.19868C93.147 4.3602 92.952 4.54404 92.8408 4.75013C92.7349 4.95065 92.6818 5.15118 92.6818 5.3517C92.6818 5.74159 92.8572 6.0619 93.2083 6.31254C93.5591 6.55763 94.0938 6.68019 94.8125 6.68019C95.102 6.68019 95.4335 6.66069 95.8068 6.62169C96.1853 6.57713 96.581 6.52979 96.9931 6.47966C97.411 6.42951 97.8341 6.38495 98.263 6.34598C98.6975 6.30142 99.1182 6.27914 99.5249 6.27914C100.294 6.27914 100.973 6.36545 101.563 6.53813C102.159 6.71081 102.658 6.95868 103.059 7.28176C103.46 7.59925 103.764 7.98636 103.97 8.44313C104.176 8.8943 104.279 9.40119 104.279 9.96376C104.279 10.7157 104.103 11.3869 103.753 11.9773C103.407 12.5622 102.912 13.058 102.265 13.4646C101.625 13.8656 100.85 14.172 99.9424 14.3836C99.0344 14.5898 98.0238 14.6928 96.9097 14.6928C96.1743 14.6928 95.4556 14.6454 94.754 14.5508C94.0521 14.4616 93.378 14.3335 92.732 14.1664C92.0914 13.9937 91.4786 13.7904 90.894 13.5565C90.3147 13.317 89.7771 13.0552 89.2812 12.7711L90.6933 10.6238Z" fill="#F9C0AC"/>
</g>
<defs>
<clipPath id="clip0_1394_1004">
<rect width="104.109" height="13.9743" fill="white" transform="translate(0.890625 0.891113)"/>
</clipPath>
</defs>
</svg>
