<svg width="291" height="198" viewBox="0 0 291 198" fill="none" xmlns="http://www.w3.org/2000/svg">
<path d="M156.979 15.3155C160.875 23.934 169.494 32.3484 179.958 34.1946C186.322 47.1269 188.373 55.9495 190.627 65.5885C192.881 75.2367 195.627 82.7512 202.632 85.0056C207.168 86.4714 211.176 86.5456 215.249 85.0798C219.711 85.3859 222.225 85.488 225.305 84.8757C228.385 84.2634 229.944 81.7678 229.823 80.1536C234.953 78.3075 236.419 75.7655 235.983 72.5649C230.24 72.9731 226.335 71.9526 222.642 68.8726C218.95 65.7926 216.742 56.8401 216.334 49.4555C215.926 42.0709 213.152 29.3148 209.256 22.7558C205.359 16.1876 200.563 9.74921 192.863 6.98462C186.61 4.73954 181.786 4.60038 178.316 5.06423C174.605 5.55592 175.004 7.30004 178.928 8.14426C183.892 9.21113 191.091 11.9757 195.757 16.1505C198.939 18.9985 201.166 22.997 202.121 26.0028C203.198 29.4168 200.47 29.4539 197.808 26.0028C193.781 20.7705 185.469 15.0001 181.238 13.3859C177.518 11.9664 174.002 11.2336 169.698 10.612C165.384 9.9997 160.003 11.0759 157.535 11.6881C155.578 12.1798 151.895 13.7662 149.297 16.6885C146.189 20.1953 144.065 27.7655 144.223 35.1594C144.362 41.7276 144.223 52.4706 147.117 65.607C149.538 76.5726 154.288 84.1614 158.686 88.7999C162.916 93.2623 167.434 98.4482 174.615 97.8266C180.357 94.1343 184.671 91.88 188.567 90.8502C186.721 87.362 184.254 83.8738 181.999 82.2317C177.277 85.1077 171.72 86.0075 168.148 84.3376C164.688 82.7234 161.691 76.3129 159.224 73.0009C156.608 69.4849 153.936 65.9132 152.915 63.1022C151.886 60.282 151.162 57.4338 150.605 53.5096C150.299 51.3295 147.729 47.3496 147.525 42.4327C147.321 37.5065 146.913 28.888 148.759 24.5834C150.624 20.2417 153.695 16.1319 156.979 15.3155Z" fill="#D44B4B"/>
<path d="M1.84595 113.199L65.3574 113.403L90.2852 188.511L31.1247 184.485L1.84595 113.199Z" fill="#D44B4B"/>
<path d="M265.447 193.827C265.419 193.827 265.382 193.827 265.355 193.827C264.742 193.771 264.288 193.233 264.343 192.621C264.436 191.526 264.538 190.218 264.649 188.734C265.132 182.369 265.855 172.749 267.479 162.739C269.91 147.784 269.845 139.416 268.954 130.761C268.221 123.645 266.644 117.513 264.278 112.522C264.019 111.965 264.251 111.306 264.807 111.037C265.364 110.768 266.022 111.009 266.292 111.566C268.769 116.789 270.411 123.172 271.171 130.529C272.247 140.965 271.849 149.788 269.678 163.091C268.063 173.009 267.34 182.564 266.867 188.891C266.755 190.385 266.653 191.702 266.561 192.806C266.505 193.391 266.022 193.827 265.447 193.827Z" fill="#475658"/>
<path d="M234.99 111.186C234.758 111.186 234.517 111.112 234.313 110.954C233.822 110.583 233.738 109.878 234.109 109.395C237.607 104.849 247.032 101.63 253.164 102.892C253.767 103.013 254.157 103.606 254.027 104.209C253.907 104.812 253.322 105.202 252.71 105.072C247.478 103.996 238.822 106.918 235.872 110.75C235.649 111.037 235.324 111.186 234.99 111.186Z" fill="#475658"/>
<path d="M230.278 116.678C229.749 116.372 229.062 116.548 228.756 117.086C226.233 121.446 222.847 131.66 220.379 139.119C219.284 142.431 218.338 145.298 217.828 146.513C217.067 148.331 216.659 150.539 216.251 152.664C215.787 155.113 215.314 157.655 214.386 158.731C212.67 160.735 213.699 162.581 214.377 163.806C214.748 164.474 215.1 165.114 215.1 165.708C215.1 166.515 214.469 167.183 213.838 167.489C213.616 167.591 212.846 167.906 212.298 167.47C210.443 165.986 207.678 166.422 203.856 167.034L202.548 167.238C198.058 167.934 181.582 169.511 176.173 168.88C170.616 168.231 168.798 167.906 167.666 167.6C166.293 167.229 164.243 167.739 163.241 168.917C159.697 168.379 155.457 167.739 154.743 167.674C154.158 167.619 153.203 167.702 152.646 168.723C152.015 168.686 151.329 168.639 150.605 168.602C147.433 168.407 143.49 168.175 140.688 167.897C137.552 167.582 132.32 166.014 128.498 164.873C127.125 164.464 125.928 164.103 125.056 163.871C124.425 163.704 123.841 163.555 123.275 163.407C124.592 163.036 126.067 162.637 127.524 162.238C132.088 160.986 136.393 159.798 137.571 159.343C141.031 158.008 142.877 156.365 143.054 154.454C143.184 153.072 144.909 150.066 146.941 148.897C149.464 147.45 150.169 146.393 150.587 144.945C150.698 144.574 150.763 144.157 150.847 143.684C151.032 142.561 151.273 141.169 152.117 139.796C153.027 138.312 159.335 125.936 163.937 116.891C166.163 112.522 167.916 109.08 168.445 108.069C169.772 105.545 171.507 102.576 173.195 102.02C173.78 101.825 174.095 101.194 173.9 100.61C173.705 100.025 173.075 99.7098 172.49 99.9046C170.078 100.712 168.176 103.801 166.479 107.029C165.94 108.059 164.178 111.51 161.951 115.88C157.619 124.378 151.078 137.217 150.216 138.628C149.139 140.372 148.861 142.069 148.648 143.313C148.583 143.721 148.518 144.083 148.444 144.333C148.23 145.066 148.054 145.697 145.837 146.968C143.221 148.461 141.041 152.052 140.836 154.25C140.753 155.206 139.269 156.301 136.773 157.265C135.697 157.683 131.04 158.963 126.93 160.086C123.154 161.125 119.582 162.108 118.284 162.544C117.606 162.498 116.92 162.488 116.168 162.516C115.417 162.544 114.508 162.618 113.534 162.711C113.515 162.702 113.506 162.692 113.487 162.683C113.228 162.6 112.921 162.572 109.183 162.359C106.863 162.229 104.229 162.08 103.273 161.969C102.262 161.848 101.483 162.006 100.833 162.294C100.648 162.052 100.379 161.885 100.045 161.858C96.7142 161.589 95.4154 163.11 94.9052 164.483L94.6269 164.502C92.1127 164.659 90.582 164.761 89.1997 166.431L69.6805 107.735C69.5321 107.28 69.1054 106.974 68.6322 106.974L4.04463 106.426H4.03534C3.42305 106.426 2.93137 106.918 2.9221 107.53C2.91282 108.143 3.41376 108.644 4.02605 108.653L67.8159 109.191L91.018 178.946C91.0273 179.02 91.0644 179.076 91.083 179.141L92.7529 184.169C92.9013 184.624 93.3281 184.93 93.8105 184.93H131.698C133.981 185.125 136.346 185.153 138.406 185.153C138.833 185.153 139.25 185.153 139.649 185.153H151.978C152.201 185.153 152.396 185.069 152.563 184.958C152.628 184.986 152.693 185.004 152.758 185.023L165.05 187.323C165.115 187.333 165.189 187.342 165.254 187.342C165.282 187.342 165.31 187.333 165.337 187.323C165.263 187.5 165.198 187.676 165.124 187.834C165.078 187.926 165.068 188.028 165.05 188.13H92.4096L31.8483 183.408L2.14279 111.436C1.91086 110.87 1.2522 110.601 0.686296 110.833C0.120388 111.065 -0.148672 111.714 0.0832572 112.29L30.0485 184.893C30.2062 185.282 30.5773 185.542 30.9948 185.579L92.3261 190.357H166.247C166.859 190.357 167.36 189.856 167.36 189.244C167.36 189.03 167.286 188.854 167.184 188.687C169.15 184.41 170.06 174.233 168.937 170.151C170.291 170.393 172.342 170.671 175.886 171.088C176.85 171.2 178.103 171.246 179.559 171.246C186.935 171.246 199.283 169.984 202.854 169.437L204.172 169.233C207.437 168.713 209.794 168.342 210.879 169.205C211.918 170.04 213.412 170.142 214.766 169.493C216.306 168.75 217.29 167.266 217.29 165.708C217.29 164.529 216.751 163.565 216.278 162.72C215.518 161.357 215.397 160.921 216.037 160.178C217.345 158.648 217.855 155.939 218.403 153.072C218.783 151.059 219.173 148.972 219.841 147.367C220.379 146.068 221.297 143.312 222.448 139.815C224.888 132.449 228.227 122.355 230.639 118.19C230.992 117.67 230.816 116.984 230.278 116.678ZM97.0111 165.309C97.1781 164.836 97.5213 164.325 98.4676 164.13C98.0223 164.585 97.3822 165.383 96.6864 166.283C96.7977 165.93 96.909 165.596 97.0111 165.309ZM92.456 170.003L92.2519 170.355C91.955 170.856 91.5654 171.497 91.1293 172.118L90.0625 168.917C90.2295 168.825 90.3872 168.695 90.4893 168.519C91.3521 167.099 91.8994 166.923 94.2187 166.765C94.0424 167.387 93.8569 168.036 93.6713 168.686C93.5971 168.955 93.5229 169.224 93.4486 169.474C93.059 169.456 92.6694 169.632 92.456 170.003ZM94.6454 182.713L94.5155 182.332C94.6176 182.434 94.7289 182.536 94.8495 182.638C94.8866 182.666 94.933 182.694 94.9701 182.722H94.6454V182.713ZM95.3319 175.959C94.998 176.831 94.7104 177.888 94.4599 178.816C94.2929 179.438 94.1352 180.032 94.0053 180.356C93.9775 180.43 93.9589 180.514 93.9404 180.597L93.3002 178.659C93.3652 178.334 93.4301 177.972 93.5044 177.555C93.7641 176.089 94.2094 173.621 94.6732 172.888C95.536 171.534 99.2654 166.376 100.184 165.541L100.462 165.29C101.381 164.455 101.835 164.028 103.041 164.168C103.292 164.195 103.644 164.233 104.062 164.26C103.533 164.613 103.153 165.077 102.772 165.559C102.466 165.94 102.114 166.376 101.613 166.886C99.6458 168.853 97.4842 171.617 97.243 171.933C96.473 172.925 96.0184 174.131 95.536 175.412L95.3319 175.959ZM98.8202 182.713C98.9964 182.573 99.1078 182.379 99.1727 182.184C99.3304 182.258 99.4974 182.314 99.6644 182.314C99.887 182.314 100.1 182.239 100.286 182.1C100.332 182.323 100.407 182.527 100.518 182.713H98.8202ZM108.403 182.713C108.997 182.36 109.572 181.924 110.064 181.386C110.658 181.191 111.298 181.006 111.966 180.811C113.775 180.291 115.64 179.753 117.05 178.816C117.384 179.039 117.718 179.262 118.061 179.484C119.777 180.625 121.521 181.776 123.358 182.713H108.403ZM152.294 182.917C152.117 182.796 151.913 182.713 151.681 182.713H131.884C130.594 182.601 129.342 182.444 128.219 182.193C125.112 181.507 122.152 179.54 119.286 177.638C118.72 177.258 118.163 176.887 117.606 176.534C117.189 176.265 116.642 176.302 116.271 176.636C115.185 177.582 113.237 178.139 111.354 178.686C110.584 178.909 109.795 179.132 109.062 179.391C108.877 179.456 108.7 179.577 108.58 179.725C106.687 181.98 103.292 181.878 102.448 181.572C102.475 181.265 102.809 180.495 103.561 179.874L109.146 175.217C110.185 174.345 110.5 174.085 111.483 173.834C112.782 173.51 116.243 172.647 118.794 172.331C119.026 172.304 119.211 172.192 119.369 172.053C120.399 172.025 121.336 172.016 122.059 172.016C122.672 172.016 123.173 171.515 123.173 170.903C123.173 170.291 122.672 169.79 122.059 169.79C120.25 169.79 117.161 169.892 114.443 169.975C112.17 170.049 110.027 170.114 108.997 170.114C108.691 170.114 108.403 170.244 108.19 170.467C106.288 172.48 103.477 173.983 102.392 174.345C102.039 174.465 101.77 174.753 101.668 175.105C100.945 177.749 100.11 179.373 98.9408 180.365C98.7738 180.505 98.681 180.69 98.6253 180.885C98.2635 180.699 97.8089 180.718 97.4657 180.978C97.243 181.145 96.9647 181.136 96.7699 181.108C96.5287 181.061 96.3246 180.959 96.204 180.876C96.3339 180.477 96.4638 179.985 96.6215 179.419C96.8627 178.538 97.1224 177.545 97.4193 176.785L97.6327 176.228C98.0687 175.068 98.449 174.057 99.0149 173.333C99.2469 173.037 101.334 170.365 103.208 168.5C103.802 167.906 104.201 167.396 104.535 166.988C105.156 166.209 105.305 166.042 105.871 165.958L106.214 165.912C108.005 165.652 113.469 164.863 116.289 164.761C119.174 164.659 121.197 165.151 124.527 166.042C125.381 166.264 126.55 166.617 127.904 167.025C131.81 168.194 137.153 169.799 140.512 170.133C143.351 170.42 147.321 170.652 150.512 170.847C151.765 170.921 152.906 170.986 153.806 171.051C153.815 173.853 153.5 180.393 152.294 182.917ZM103.375 177.1C103.477 176.794 103.57 176.497 103.654 176.209C104.238 175.959 104.971 175.588 105.75 175.124L103.375 177.1ZM166.015 185.412C165.866 185.282 165.699 185.18 165.504 185.143L154.622 183.102C156.042 179.122 156.06 171.617 155.995 170.086C158.843 170.495 164.846 171.413 167.054 171.766C167.545 174.994 167.128 181.238 166.015 185.412Z" fill="#475658"/>
<path d="M170.895 166.83C170.394 166.83 169.939 166.496 169.818 165.986C169.586 165.049 169.327 163.964 168.965 162.442C168.557 160.744 168.019 158.49 167.239 155.28C166.785 153.434 166.191 151.56 165.616 149.751C164.308 145.65 162.944 141.401 163.315 137.301C163.946 130.371 165.05 120.621 166.08 115.973C166.21 115.37 166.803 114.999 167.406 115.129C168.009 115.258 168.38 115.852 168.251 116.455C167.239 121.001 166.154 130.631 165.532 137.496C165.198 141.142 166.432 144.992 167.731 149.064C168.325 150.911 168.928 152.822 169.401 154.751C170.18 157.97 170.718 160.225 171.126 161.923C171.488 163.435 171.748 164.511 171.98 165.448C172.128 166.042 171.767 166.645 171.173 166.802C171.071 166.821 170.978 166.83 170.895 166.83Z" fill="#475658"/>
<path d="M237.783 193.502C237.273 193.502 236.818 193.149 236.697 192.639C236.558 192.036 236.939 191.442 237.532 191.303C240.575 190.607 243.219 188.4 245.381 184.744C247.181 181.692 254.89 167.591 259.139 157.071C263.026 147.432 266.653 133.655 265.16 123.905C264.937 122.43 264.603 120.982 264.167 119.581C263.982 118.997 264.316 118.366 264.9 118.19C265.485 118.004 266.115 118.338 266.292 118.923C266.755 120.426 267.117 121.984 267.358 123.571C268.917 133.766 265.197 147.988 261.198 157.905C257.181 167.869 249.723 181.757 247.292 185.876C244.806 190.088 241.689 192.639 238.015 193.474C237.95 193.493 237.866 193.502 237.783 193.502Z" fill="#475658"/>
<path d="M229.099 193.873C225.5 193.873 220.75 193.521 216.13 193.177C211.556 192.834 207.242 192.519 204.042 192.519C196.62 192.519 171.08 190.691 169.373 190.543C168.761 190.487 168.306 189.949 168.362 189.337C168.417 188.724 168.974 188.288 169.568 188.325C171.219 188.474 196.861 190.292 204.042 190.292C207.326 190.292 211.686 190.617 216.297 190.96C221.761 191.368 227.411 191.786 230.983 191.609C231.549 191.582 232.114 192.055 232.152 192.667C232.179 193.279 231.706 193.799 231.094 193.836C230.482 193.855 229.814 193.873 229.099 193.873Z" fill="#475658"/>
<path d="M24.5935 181.952C24.575 181.952 24.5471 181.952 24.5286 181.952L8.39555 180.987C7.78326 180.95 7.31015 180.421 7.34726 179.809C7.38437 179.197 7.91315 178.733 8.52545 178.761L24.6585 179.725C25.2707 179.763 25.7439 180.291 25.7068 180.904C25.6697 181.497 25.178 181.952 24.5935 181.952Z" fill="#475658"/>
<path d="M288.993 197.779C288.974 197.779 288.946 197.779 288.928 197.779L242.802 195.014C242.19 194.977 241.716 194.448 241.754 193.836C241.791 193.224 242.329 192.76 242.932 192.788L289.058 195.552C289.67 195.589 290.143 196.118 290.106 196.73C290.06 197.324 289.577 197.779 288.993 197.779Z" fill="#475658"/>
<path d="M235.018 73.4462C230.37 73.4462 225.658 70.4868 223.329 68.1675C220.379 65.2174 218.496 59.1223 218.032 51.0326C217.781 46.7094 216.557 31.7917 211.157 21.2436C206.751 12.6344 199.672 6.92892 194.625 5.09204C194.05 4.87866 193.753 4.23856 193.957 3.66337C194.171 3.08819 194.802 2.79132 195.386 2.99542C200.451 4.83229 208.133 10.4542 213.143 20.2324C218.746 31.1609 219.998 46.4775 220.258 50.9027C220.685 58.343 222.383 64.067 224.906 66.5904C227.17 68.854 232.411 72.0546 236.809 71.0156C237.412 70.8764 238.005 71.2475 238.154 71.8413C238.293 72.4443 237.931 73.038 237.328 73.1865C236.567 73.3627 235.797 73.4462 235.018 73.4462Z" fill="#475658"/>
<path d="M196.769 57.4894C196.258 57.4894 195.804 57.1369 195.683 56.6266C195.349 55.1608 195.015 53.6486 194.672 52.0994L194.375 50.7542C191.898 39.6216 186.703 26.0398 179.532 21.3363C179.021 21.0023 178.873 20.3065 179.216 19.7963C179.55 19.286 180.246 19.1376 180.756 19.4808C190.479 25.8635 195.303 44.6683 196.546 50.2718L196.843 51.617C197.186 53.1662 197.52 54.6784 197.854 56.1349C197.993 56.7379 197.613 57.3317 197.019 57.4708C196.936 57.4801 196.852 57.4894 196.769 57.4894Z" fill="#475658"/>
<path d="M189.106 0.908038C184.662 0.165865 177.769 -0.270162 170.124 1.83575C164.066 3.50564 154.029 8.55243 153.11 11.6139C153.064 11.7809 153.064 11.9479 153.082 12.1056C152.823 12.0035 152.535 11.9942 152.257 12.0963C150.448 12.8199 147.85 15.1578 146.403 18.2192C145.178 20.8076 143.323 24.7225 142.998 30.2053C142.692 35.3634 142.775 39.6309 142.989 44.4551C143.416 54.2425 144.464 62.4528 146.004 68.2046C149.576 81.5452 159.317 94.1436 169.16 98.142C169.299 98.1977 169.438 98.2255 169.577 98.2255C170.013 98.2255 170.431 97.9657 170.607 97.5297C170.839 96.9638 170.56 96.3144 169.995 96.0825C160.745 92.3252 151.561 80.3577 148.147 67.6294C146.644 62.0353 145.633 53.992 145.206 44.3623C145.002 39.6031 144.918 35.4005 145.215 30.3352C145.512 25.2792 147.182 21.7445 148.407 19.1655C149.668 16.4937 151.895 14.629 153.073 14.1558C153.574 13.9517 153.825 13.4322 153.732 12.922C153.769 12.9405 153.797 12.9683 153.843 12.9776C153.954 13.0054 154.056 13.024 154.158 13.024C154.641 13.024 155.077 12.7086 155.225 12.2262C155.68 10.7047 163.816 5.85278 170.7 3.96023C177.945 1.95637 184.504 2.37383 188.716 3.07889C189.319 3.18094 189.894 2.77275 189.996 2.16046C190.117 1.58528 189.709 1.01009 189.106 0.908038Z" fill="#475658"/>
<path d="M159.79 40.6143C159.558 40.6143 159.317 40.5401 159.113 40.3823C158.621 40.0113 158.528 39.3155 158.899 38.8238C161.608 35.2614 166.961 32.9421 171.34 33.4338C171.952 33.4987 172.388 34.0553 172.323 34.6676C172.258 35.2799 171.693 35.7159 171.09 35.651C167.499 35.2521 162.907 37.2374 160.671 40.1782C160.458 40.4658 160.124 40.6143 159.79 40.6143Z" fill="#475658"/>
<path d="M159.196 66.9058C159.15 66.9058 159.103 66.9058 159.057 66.8965C158.445 66.8223 158.018 66.2657 158.092 65.6534C158.361 63.5289 158.111 59.9201 157.257 57.7863C157.025 57.2111 157.303 56.571 157.879 56.3391C158.445 56.1072 159.094 56.3855 159.326 56.9607C160.365 59.549 160.606 63.5196 160.3 65.9317C160.235 66.4976 159.753 66.9058 159.196 66.9058Z" fill="#475658"/>
<path d="M166.126 50.9954C167.33 50.9954 168.306 50.0194 168.306 48.8153C168.306 47.6112 167.33 46.6352 166.126 46.6352C164.922 46.6352 163.946 47.6112 163.946 48.8153C163.946 50.0194 164.922 50.9954 166.126 50.9954Z" fill="#475658"/>
<path d="M187.139 76.7024C186.693 76.2757 185.988 76.285 185.562 76.7303C181.665 80.7751 178.891 82.3059 175.672 83.4748C172.722 84.5509 169.429 84.1799 167.286 82.5378C165.523 81.1833 164.178 78.8084 163.092 76.8973L162.777 76.3407C162.666 76.1366 162.517 75.9046 162.378 75.682C165.356 74.6708 170.106 72.1474 171.887 69.4663C172.23 68.956 172.091 68.2602 171.581 67.9263C171.071 67.583 170.375 67.7222 170.041 68.2324C168.51 70.5239 163.64 73.0194 161.144 73.743C159.706 71.5815 157.906 69.0488 156.737 67.4346C154.706 64.6143 153.648 62.7496 153.156 59.7252C153.036 58.9831 152.906 58.2502 152.767 57.5358C152.878 57.5544 152.999 57.5729 153.119 57.5729C154.195 57.5729 155.077 56.7009 155.077 55.6155C155.077 54.5393 154.205 53.658 153.119 53.658C152.711 53.658 152.331 53.7878 152.015 54.0012C151.774 52.9622 151.542 52.118 151.375 51.6077C151.097 50.7821 150.735 49.808 150.364 48.806C150.16 48.268 149.956 47.7206 149.761 47.1825C150.41 46.83 150.856 46.8021 151.839 47.0526C152.433 47.2011 153.036 46.8393 153.184 46.2455C153.333 45.6518 152.971 45.0488 152.377 44.8911C151.171 44.5942 150.206 44.52 149.037 45.058C148.499 43.2026 148.286 38.6661 148.36 35.2706C148.434 31.8845 149.204 26.7449 150.531 23.4886C151.876 20.2045 153.936 17.6811 155.652 17.2265C156.246 17.0688 156.598 16.4565 156.441 15.8628C156.283 15.2691 155.671 14.9165 155.077 15.0742C152.173 15.8535 149.761 19.4902 148.472 22.6444C146.969 26.3182 146.208 31.736 146.134 35.2242C146.059 38.8238 146.273 43.6665 146.931 45.8002C147.284 46.9413 147.785 48.2865 148.267 49.5853C148.629 50.5594 148.982 51.5057 149.251 52.3128C149.65 53.5003 150.41 56.8122 150.939 60.0871C151.552 63.8629 153.036 66.145 154.91 68.7427C156.589 71.0619 159.586 75.283 160.829 77.4539L161.144 78.0013C162.322 80.0886 163.797 82.6862 165.922 84.3097C167.638 85.6271 169.902 86.3136 172.249 86.3136C173.64 86.3136 175.069 86.0724 176.424 85.5807C179.838 84.3376 182.973 82.6213 187.157 78.2889C187.593 77.8343 187.575 77.1292 187.139 76.7024Z" fill="#475658"/>
<path d="M263.36 106.055C262.275 103.152 259.083 99.6727 256.467 97.372C253.944 95.164 237.282 83.4934 231.827 80.1721C233.042 79.6062 234.258 78.8177 235.464 77.723C235.918 77.3055 235.955 76.6097 235.538 76.1459C235.12 75.6913 234.415 75.6542 233.961 76.0716C227.374 82.0461 220.268 77.6766 214.534 74.142C208.857 70.6538 203.55 60.2262 201.027 52.0159C200.851 51.4315 200.229 51.0975 199.635 51.283C199.051 51.4593 198.717 52.0902 198.902 52.6746C201.639 61.5621 207.168 72.2309 213.393 76.0623C217.197 78.4002 221.891 81.2947 226.817 81.2947C227.587 81.2947 228.367 81.2205 229.137 81.0627C229.239 81.2112 229.369 81.3411 229.536 81.4338C232.634 82.9831 252.413 96.8061 254.983 99.0604C257.284 101.074 260.317 104.33 261.254 106.844C261.421 107.289 261.848 107.568 262.293 107.568C262.423 107.568 262.553 107.549 262.683 107.493C263.286 107.271 263.574 106.631 263.36 106.055Z" fill="#475658"/>
<path d="M227.968 82.3708C227.402 82.612 227.133 83.2614 227.374 83.8273C228.914 87.4732 227.04 98.8563 225.379 103.105L216.019 105.814C215.546 105.953 215.221 106.38 215.212 106.872C215.202 107.363 215.527 107.799 215.991 107.948L222.327 109.943C217.818 117.448 212.493 124.86 208.18 130.881C206.352 133.432 204.766 135.64 203.55 137.431C199.144 143.925 193.893 157.21 191.759 165.55C191.601 166.144 191.963 166.756 192.557 166.904C192.65 166.932 192.742 166.941 192.835 166.941C193.336 166.941 193.781 166.607 193.911 166.106C195.961 158.119 201.175 144.899 205.387 138.692C206.584 136.93 208.161 134.731 209.979 132.189C214.553 125.806 220.249 117.874 224.962 109.878C225.138 109.581 225.166 109.228 225.045 108.913C224.925 108.597 224.665 108.356 224.34 108.254L220.184 106.946L226.511 105.118C226.827 105.026 227.086 104.803 227.216 104.497C229.072 100.322 231.307 87.4547 229.424 82.9831C229.192 82.3986 228.543 82.1388 227.968 82.3708Z" fill="#475658"/>
<path d="M227.42 84.4396C227.226 83.8552 226.585 83.549 226.01 83.7438C217.67 86.6012 209.228 80.3205 205.545 76.1644C202.641 72.8803 201.324 69.4384 199.765 63.8536C199.598 63.2598 198.986 62.9166 198.392 63.0836C197.798 63.2505 197.455 63.8629 197.622 64.4566C199.264 70.3754 200.684 74.0306 203.875 77.6487C205.981 80.033 209.525 83.0295 213.783 84.9035C209.089 86.1559 202.873 85.692 198.466 81.7214C194.561 78.2146 193.021 71.9247 190.887 63.2227C190.071 59.8922 189.143 56.1071 187.965 52.0066C186.091 45.4941 183.966 40.1226 181.294 35.1222C182.63 35.2799 183.994 35.3634 185.404 35.3634C186.016 35.3634 186.517 34.8624 186.517 34.2501C186.517 33.6378 186.016 33.1369 185.404 33.1369C181.341 33.1369 177.667 32.4411 174.179 31.0217C168.297 28.6189 163.436 24.1473 159.716 17.7461C159.409 17.2173 158.723 17.0317 158.194 17.3379C157.665 17.644 157.48 18.3305 157.786 18.8593C161.757 25.6966 166.989 30.4743 173.325 33.0719C175.255 33.8605 177.231 34.4357 179.281 34.816C179.059 35.15 179.012 35.5861 179.216 35.9571C181.869 40.874 183.966 46.1713 185.822 52.6189C186.99 56.673 187.909 60.4303 188.725 63.7422C190.952 72.8339 192.566 79.4021 196.982 83.3635C200.461 86.4899 204.895 87.7237 209.052 87.7237C211.825 87.7237 214.488 87.1764 216.65 86.2672C216.789 86.2115 216.909 86.1281 217.002 86.026C217.605 86.193 218.217 86.3322 218.839 86.4342C218.459 86.5455 218.152 86.8517 218.06 87.2599C217.382 90.6367 216.353 94.2085 215.175 97.307C213.755 101.027 210.573 107.234 207.103 113.737C206.955 113.765 206.816 113.82 206.686 113.913C194.347 122.587 186.87 125.946 183.14 124.461C181.461 123.793 180.385 122.068 179.773 119.053C179.717 118.802 179.578 118.598 179.392 118.44C181.628 110.332 185.005 100.452 188.605 95.2289C188.614 95.2939 188.633 95.3681 188.642 95.433C188.716 95.832 188.79 96.2309 188.874 96.6576C188.976 97.1864 189.449 97.5482 189.968 97.5482C190.043 97.5482 190.117 97.539 190.191 97.5297C190.794 97.4091 191.184 96.8246 191.063 96.2216C190.98 95.8134 190.915 95.4238 190.841 95.0341C190.516 93.2622 190.21 91.5923 189.152 89.5977C187.955 87.3526 185.58 83.3449 183.076 81.675C182.565 81.3318 181.869 81.4709 181.535 81.9811C181.192 82.4914 181.331 83.1872 181.842 83.5212C183.28 84.4767 185.079 86.8238 186.833 89.9966C186.48 90.1543 186.081 90.3306 185.617 90.5347C177.528 94.1435 174.754 95.6928 174.216 96.9174C173.965 97.4833 174.207 98.1698 174.763 98.4203C174.921 98.4852 175.079 98.5224 175.236 98.5224C175.654 98.5224 176.034 98.2904 176.22 97.8822C176.637 97.2978 179.021 96.0639 181.461 94.895C178.799 97.3163 175.784 101.38 173.91 104.283C173.715 104.58 173.678 104.951 173.808 105.285C173.938 105.619 174.216 105.87 174.55 105.963L176.452 106.482L172.62 108.273C172.314 108.412 172.091 108.69 172.008 109.015C169.253 120.24 168.464 132.273 168.909 139.203C169.429 147.348 170.551 154.955 171.915 159.538C172.064 160.021 172.5 160.336 172.982 160.336C173.084 160.336 173.195 160.318 173.297 160.29C173.882 160.113 174.225 159.492 174.049 158.907C172.731 154.473 171.637 147.06 171.127 139.073C170.7 132.412 171.451 120.927 174.049 110.072L180.153 107.224C180.58 107.03 180.83 106.584 180.793 106.12C180.756 105.656 180.432 105.267 179.977 105.137L176.637 104.228C178.66 101.25 181.35 97.8637 183.474 96.0917C183.948 95.7021 184.012 94.997 183.614 94.5239C183.456 94.3291 183.243 94.227 183.02 94.1714C184.449 93.5127 185.757 92.9282 186.536 92.5757C187.018 92.3623 187.445 92.1675 187.816 92.0005C187.946 92.353 188.057 92.6963 188.159 93.0395C187.779 92.9932 187.38 93.1323 187.13 93.4756C180.933 101.964 175.821 122.42 174.754 128.515C173.529 135.501 174.318 146.764 174.735 152.822C174.875 154.835 174.995 156.532 175.106 158.008C175.375 161.718 175.533 163.963 175.617 166.06C175.635 166.663 176.136 167.136 176.73 167.136C176.748 167.136 176.758 167.136 176.767 167.136C177.379 167.118 177.862 166.598 177.843 165.986C177.76 163.843 177.602 161.589 177.333 157.85C177.231 156.375 177.101 154.677 176.962 152.664C176.544 146.708 175.774 135.612 176.943 128.896C177.231 127.272 177.732 124.944 178.409 122.226C179.281 124.406 180.571 125.825 182.333 126.521C183.15 126.846 184.068 127.013 185.098 127.013C189.393 127.013 195.637 124.099 204.905 117.847C204.181 119.192 203.448 120.537 202.734 121.854C200.09 126.725 197.604 131.317 195.971 134.573C191.341 143.823 188.15 157.126 187.139 165.559C187.065 166.171 187.501 166.719 188.113 166.793C188.159 166.802 188.206 166.802 188.243 166.802C188.8 166.802 189.282 166.385 189.347 165.819C190.34 157.562 193.457 144.574 197.965 135.566C199.57 132.347 202.057 127.764 204.691 122.912C209.627 113.811 215.212 103.504 217.271 98.0863C218.486 94.8764 219.553 91.1841 220.258 87.6866C220.351 87.2228 220.138 86.7775 219.767 86.5362C220.398 86.6105 221.038 86.6568 221.687 86.6568C223.348 86.6568 225.045 86.4064 226.743 85.8219C227.309 85.6549 227.615 85.0241 227.42 84.4396Z" fill="#475658"/>
</svg>
