<svg width="614" height="447" fill="none" xmlns="http://www.w3.org/2000/svg"><path d="M613.813 281.634c.02-.277.049-.531.031-.798-.015-.148-.015-.296-.032-.434-.045-.24-.142-.449-.218-.663a5.503 5.503 0 00-.271-.78c-.073-.133-.114-.258-.194-.383-.126-.197-.301-.358-.445-.54-.176-.211-.332-.421-.555-.604a4.521 4.521 0 00-.371-.317c-.055-.035-.082-.101-.132-.135-.164-.108-.357-.125-.527-.21-.16-.088-.287-.225-.462-.292l-44.697-17.376 21.678-2.376c.032-.006.051-.021.076-.024.393-.043.747-.221 1.11-.356.267-.092.558-.143.806-.274.21-.122.371-.331.57-.486.316-.256.662-.475.914-.789.119-.146.173-.349.272-.516.256-.401.5-.811.633-1.27 0 0 .025-.038.031-.061l15.588-58.177c.016-.06-.002-.119.012-.174.077-.341.063-.677.065-1.017.007-.231.09-.446.066-.69.003-.029-.021-.051-.024-.076-.01-.072-.033-.137-.044-.205-.052-.306-.198-.592-.303-.883-.095-.273-.142-.577-.284-.823-.034-.059-.091-.104-.12-.161-.035-.054-.037-.124-.074-.168l-37.694-55.826c-.129-.183-.327-.295-.472-.458-.254-.286-.499-.574-.814-.802-.258-.183-.531-.291-.807-.424-.315-.154-.61-.307-.945-.387-.348-.088-.688-.075-1.039-.095-.244-.011-.478-.099-.734-.068l-62.802 6.811-49.049-36.02 11.143-41.587c.016-.06-.004-.115.01-.166.062-.25.048-.492.067-.749.022-.286.05-.556.032-.838-.013-.137-.01-.28-.033-.414-.047-.23-.143-.444-.214-.661a5.001 5.001 0 00-.29-.8c-.065-.127-.1-.255-.177-.374-.116-.195-.298-.348-.447-.53-.175-.216-.342-.44-.564-.627a4.353 4.353 0 00-.358-.309c-.055-.034-.075-.09-.124-.127-.168-.114-.368-.143-.547-.23-.16-.088-.282-.225-.457-.292L376.354 22.48c-.143-.058-.298-.03-.44-.073a4.886 4.886 0 00-1.053-.173 5.546 5.546 0 00-.867-.015 5.48 5.48 0 00-1.08.245 4.85 4.85 0 00-.774.303c-.32.161-.595.374-.883.6a4.697 4.697 0 00-.685.672c-.101.12-.244.192-.336.33L347.418 57.8l-83.965-12.09-28.616-42.685c-.13-.183-.327-.296-.465-.466-.254-.286-.499-.574-.813-.807-.248-.18-.526-.29-.802-.423-.315-.153-.618-.314-.957-.4-.338-.085-.696-.077-1.038-.095-.245-.01-.466-.09-.72-.064l-81.249 8.446c-.029-.002-.05.022-.077.03-.086.006-.156.027-.244.043-.292.055-.561.19-.85.291a.871.871 0 01-.122.047c-.231.087-.489.126-.703.242-.076.044-.126.1-.197.145-.055.04-.124.037-.168.074-.194.131-.305.344-.478.49-.215.19-.469.345-.642.566-.065.077-.092.158-.143.239-.189.26-.294.544-.431.834-.113.237-.27.453-.339.711l-.042.083-15.589 58.176c-.011.042.007.086-.004.127-.1.394-.065.78-.081 1.171.004.279-.051.56-.014.828.041.288.186.545.284.823.117.358.216.726.41 1.055.025.037.025.091.05.128l.962 1.49-11.857 5.76-65.044-25.782c-.144-.054-.3-.03-.438-.068a5.048 5.048 0 00-1.224-.194c-.197-.004-.388-.01-.585.001-.478.03-.921.135-1.385.297-.177.067-.341.127-.512.21a5.303 5.303 0 00-1.032.693c-.228.186-.43.39-.621.62-.115.133-.267.22-.365.363l-30.506 45.588c-.108.164-.13.356-.22.525-.087.16-.224.282-.292.461-.031.101-.013.18-.054.278-.027.101-.1.166-.125.263L.457 164.258c-.065.245-.017.49-.048.735-.04.35-.09.683-.067 1.026.029.334.124.627.218.939.08.328.161.637.32.932.139.294.347.533.543.799.206.263.384.523.638.74.267.22.57.38.884.558.214.127.376.299.613.392l44.918 17.44-21.659 2.376c-.031.007-.05.022-.076.025-.072.01-.137.032-.207.053-.295.049-.561.191-.846.293-.022.009-.046.007-.06.019-.257.094-.545.135-.796.276-.057.029-.102.087-.16.116-.053.035-.122.031-.168.073-.2.14-.32.345-.497.51-.217.2-.471.334-.646.565-.063.067-.084.145-.13.222-.188.261-.296.554-.435.849-.11.247-.27.452-.342.724 0 0-.025.038-.031.061L6.834 252.158c-.016.06.003.119-.012.174-.084.369-.064.74-.07 1.115.003.298-.047.596-.002.87.052.306.193.576.293.866.125.345.234.696.425.999.034.059.036.124.07.167l37.694 55.826c.057.08.13.119.19.195.204.272.433.507.687.723.119.111.208.219.335.318.08.055.137.1.217.152.455.315.957.563 1.507.71.596.16 1.233.217 1.886.144l62.803-6.811 48.794 35.937-11.147 41.6c-.064.24-.013.472-.045.72-.042.36-.091.693-.062 1.028.026.328.115.624.203.94.083.319.171.635.32.932.15.288.337.531.536.787.205.268.397.532.655.75.254.216.542.377.837.551.215.121.38.299.626.4l84.175 33.357c.193.072.374.135.568.187l.005.001c.014.004.02.001.033.004a5.15 5.15 0 001.688.131c.081-.008.151-.009.223-.02.154-.023.299-.083.459-.124.33-.07.65-.157.962-.287.134-.058.255-.1.376-.166.134-.073.235-.155.36-.235.242-.163.469-.345.687-.549.143-.129.283-.265.419-.422.08-.092.161-.174.235-.283.045-.057.11-.099.15-.153l22.628-33.699 84.072 12.63 29.03 42.305c.051.068.119.111.171.174.196.266.428.491.677.706.118.116.218.222.344.325.071.049.131.099.202.148.463.307.965.556 1.51.702a5.117 5.117 0 001.871.145l80.983-8.508c.029.003.054-.02.086-.026.424-.05.807-.224 1.198-.372.231-.087.49-.131.706-.251.287-.166.501-.411.752-.63.251-.215.545-.389.741-.638.159-.19.233-.447.346-.664.216-.363.439-.714.564-1.126 0 0 .027-.047.035-.075l15.588-58.176.004-.127c.086-.339.053-.679.074-1.015.011-.244.092-.47.064-.72-.006-.031-.019-.055-.026-.086a1.512 1.512 0 00-.024-.17c-.041-.288-.185-.545-.284-.823a1.946 1.946 0 00-.089-.257c-.086-.216-.108-.449-.224-.644-.029-.057-.067-.102-.102-.156-.024-.036-.025-.091-.05-.127l-.961-1.49 11.856-5.76 65.052 25.754c.189.071.37.134.56.185l.004.001c.014.004.02 0 .034.004a5.14 5.14 0 001.687.13c.081-.008.151-.009.232-.017.155-.023.29-.085.455-.125.328-.061.649-.153.961-.282.135-.063.261-.108.389-.178.133-.073.235-.155.355-.236.238-.149.458-.323.667-.529.155-.137.301-.276.44-.427.083-.106.165-.188.239-.297.035-.06.103-.091.138-.146l30.506-45.589c.163-.238.203-.519.32-.77.117-.251.293-.466.37-.752l15.657-58.435c.018-.065 0-.129.007-.191.068-.254.055-.5.083-.755l.001.002zm-37.664 39.399l-63.197-25.292c-.045-.017-.097-.006-.142-.023-.091-.03-.179-.053-.271-.078-.063-.022-.109-.074-.169-.09-.259-.069-.514-.019-.769-.047-.061-.012-.126-.029-.185-.03-.177-.003-.359-.082-.535-.074-.113-.001-.214.026-.323.042-.341.037-.643.149-.964.237-.226.068-.462.083-.672.181-.049.016-.099.018-.137.032l-60.557 29.5c-.125.06-.193.166-.307.239-.109.055-.231.067-.334.138-.18.12-.282.316-.448.454-.261.237-.52.464-.726.751-.2.268-.338.543-.481.836-.15.301-.285.582-.372.91a5.423 5.423 0 00-.13.964c-.019.327-.03.646.002.971.043.338.148.648.256.984.076.214.061.437.17.639.054.114.16.177.223.278.067.117.081.249.15.362l25.34 37.204-69.598 7.312-28.569-41.622c-.036-.054-.09-.074-.118-.116-.01-.017-.024-.021-.034-.039-.107-.137-.249-.215-.354-.342-.253-.275-.486-.551-.796-.758-.275-.192-.577-.303-.893-.437-.238-.108-.444-.282-.712-.354-.073-.02-.149.005-.214-.013-.089-.019-.157-.042-.245-.065-.042-.007-.07-.034-.104-.033l-89.508-13.458c-.247-.037-.47.037-.726.033-.298.004-.597-.046-.897.002-.098.018-.189.044-.282.058-.276.07-.51.205-.77.304-.256.109-.528.18-.772.317-.086.061-.171.103-.252.165-.226.158-.398.374-.596.578-.213.205-.433.379-.607.624-.035.055-.101.082-.134.128l-22.128 32.961-74.341-29.465 21.007-30.773c.198-.293.266-.621.397-.928.124-.293.3-.563.366-.867.076-.336.033-.674.043-1.008.003-.325.054-.643 0-.96-.057-.322-.213-.611-.326-.908-.114-.313-.19-.64-.372-.922-.185-.306-.475-.533-.721-.797-.205-.213-.348-.474-.598-.65l-.132-.099-65.549-47.929-.004-.001-.125-.088c-.192-.151-.426-.184-.642-.301-.33-.173-.63-.382-.985-.482-.027-.007-.047-.027-.074-.034-.028-.008-.05.001-.078-.006-.38-.097-.751-.058-1.128-.075-.231-.007-.446-.09-.685-.065l-61.705 6.685-31.194-46.2 34.074-3.741.005.001 2.994-.262c.02.001.04-.019.06-.018.029.002.047.007.077.006l18.868-2.155c.333-.039.593-.197.896-.294.317-.094.648-.148.93-.295.3-.162.526-.394.779-.598.254-.209.533-.382.745-.637.215-.249.327-.556.487-.84.161-.288.355-.548.451-.873.112-.342.105-.705.14-1.056.027-.285.129-.555.11-.852l-3.625-54.734c-.003-.065-.038-.119-.053-.172-.03-.315-.138-.577-.212-.873-.078-.264-.116-.526-.23-.785-.039-.094-.087-.172-.126-.266-.133-.244-.339-.437-.516-.663-.16-.211-.298-.456-.5-.644-.08-.07-.155-.14-.237-.206-.202-.169-.449-.264-.676-.394-.083-.042-.145-.089-.225-.14-.169-.09-.295-.228-.475-.295l-.147-.06-.06-.016-61.062-23.918 24.644-36.825 63.294 25.06c.189.07.37.134.559.185h.005c.046.013.095-.003.141.01a5.12 5.12 0 001.687.13c.443-.045.856-.202 1.268-.354.166-.064.328-.06.476-.134l.036-.02s.022-.01.032-.012l19.015-9.24h.02l41.705-20.145c.136-.063.213-.186.336-.257.102-.066.217-.07.317-.128.18-.12.275-.307.442-.45.271-.235.52-.465.723-.742.205-.266.345-.546.488-.839.147-.292.284-.582.36-.903.087-.323.121-.636.139-.962a5.39 5.39 0 00.002-.985c-.044-.333-.143-.632-.247-.962-.075-.218-.06-.441-.168-.648-.064-.131-.175-.196-.243-.313-.067-.117-.07-.236-.14-.344L158.396 18.55l69.61-7.23 28.16 41.988.02.035c.071.104.173.166.256.262.302.388.614.758 1.017 1.044.47.334.99.572 1.536.734.046.012.08.05.126.063l.005.001c.194.052.396.092.599.127l89.388 12.87c.129.016.24-.029.366-.02a4.93 4.93 0 001.298-.078c.194-.042.386-.055.564-.11a5.58 5.58 0 001.458-.694c.044-.038.108-.055.152-.088a5.03 5.03 0 001.153-1.2l22.319-32.693 74.456 29.259-21.175 31.283-.005.018s-.021.024-.027.027c-.227.35-.308.725-.442 1.094-.1.266-.262.5-.317.762-.071.391-.013.768.001 1.158.012.27-.038.549.008.819.068.34.254.642.383.953.119.295.185.604.362.864.199.311.511.533.781.799.222.207.372.46.631.639l.018.005c.013.008.015.018.027.027l12.611 8.322 53.389 39.202c.046.032.107.043.157.077.473.324.985.59 1.553.742.563.151 1.146.174 1.717.129.055 0 .112.025.165.014l61.704-6.685 31.193 46.185-56.314 6.11c-.306.032-.559.182-.844.269-.349.1-.701.159-1.006.319-.283.152-.497.377-.74.584-.27.21-.565.388-.786.66-.194.225-.282.499-.435.755-.183.312-.393.617-.505.963-.092.287-.077.598-.113.9-.043.345-.158.665-.126 1.025l3.952 54.544c.025.349.144.662.228.977.051.162.057.322.116.471.219.569.516 1.084.91 1.536.09.108.21.175.305.265.349.341.73.636 1.159.864.083.042.129.129.218.168l2.705 1.279c.098.041.181.063.279.104.028.008.038.025.06.036l58.296 22.657-24.823 37.292z" fill="#181816"/></svg>