<svg width="315" height="596" fill="none" xmlns="http://www.w3.org/2000/svg"><path d="M666.773 37.498c42.26 9.32-5.755 85.571-24.445 97.484-23.417 14.927-81.249 9.622-107.318 6.018-43.98-6.081-84.546-11.695-126.282-28.146-25.486-10.046-67.193-34.09-79.011-60.928C323.598 38.03 313.777 8 335.297 2.6c61.665-15.477 103.8 57.994 92.265 110.293-7.959 36.086-30.893 65.24-65.547 79.601-49.671 20.584-98.579 36.349-145.812 63.074-98.435 55.697-5.673 147.411 48.932 195.969 87.911 78.178-86.511 71.186-125.33 76.998-43.775 6.554-99.06 27.427-120.229 69.893C5.87 625.924 6.987 650.167.65 678.906" stroke="#fff" stroke-opacity=".11"/></svg>