<svg width="96" height="125" fill="none" xmlns="http://www.w3.org/2000/svg"><path d="M41.051 7.647c.106 0 .22 0 .326.017a49.78 49.78 0 011.9.115c2.928.213 5.76.647 8.434 1.275V2.212c-2.736-.7-5.664-1.169-8.707-1.39a62.074 62.074 0 00-3.527-.168h-1.011c-5.717 0-11.592.761-17.476 2.257-6.683 1.69-13.086 4.302-18.574 7.56v67.786c5.356-2.947 11.407-5.31 17.695-6.904 4.969-1.257 9.973-2.027 14.872-2.284h.185a59.99 59.99 0 012.541-.08v-6.94c-6.323.063-12.814.93-19.295 2.568a87.183 87.183 0 00-6.71 1.991l-2.393.824V14.569l1.029-.496c3.852-1.85 8.003-3.346 12.33-4.443 4.283-1.09 8.557-1.744 12.709-1.966.088 0 .158-.008.21-.008a62.664 62.664 0 013.914-.062h.044c.502.008 1.003.026 1.504.053z" fill="url(#paint0_linear_260_1224)"/><path d="M58.06 14.808c-1.583 0-3.157-.053-4.67-.168a56.455 56.455 0 01-5.426-.656 56.84 56.84 0 01-3.157-.637v67.026c4.045 1.035 8.495 1.566 13.253 1.566 5.708 0 11.592-.76 17.484-2.248 6.675-1.7 13.078-4.302 18.575-7.56v-66.6c-5.356 2.948-11.407 5.311-17.686 6.904C70.25 14.002 64.067 14.8 58.069 14.8l-.009.009zm26.763 1.16l2.392-.815v52.871l-1.03.496c-3.842 1.841-7.993 3.337-12.338 4.435C68.509 74.309 63.197 75 58.06 75c-1.592 0-3.175-.071-4.705-.204l-1.653-.142v-6.4h.009V20.27l1.926.124c1.398.089 2.849.133 4.423.133 6.579 0 13.324-.868 20.052-2.576a91.61 91.61 0 006.72-1.992l-.01.01z" fill="url(#paint1_linear_260_1224)"/><path d="M7.094 101.422c-.686-.726-1.583-1.089-2.682-1.089-.563 0-1.082.098-1.548.293a3.67 3.67 0 00-1.205.796 3.609 3.609 0 00-.783 1.204c-.185.46-.272.965-.272 1.505v9.055c0 .753.114 1.372.351 1.859.238.487.537.885.906 1.186.37.31.783.523 1.24.646a5.2 5.2 0 001.355.186c.518 0 1.002-.106 1.46-.309a3.742 3.742 0 001.178-.841 4.14 4.14 0 00.792-1.213c.193-.452.29-.938.29-1.443v-1.018h-2.34v.806c0 .327-.044.593-.14.805a1.37 1.37 0 01-.343.505c-.15.124-.317.212-.493.265a1.73 1.73 0 01-.492.08c-.537 0-.906-.159-1.117-.487-.211-.327-.308-.726-.308-1.204V104.6c0-.558.097-1.009.29-1.372.194-.363.58-.54 1.161-.54.44 0 .792.168 1.055.505.264.336.387.743.387 1.203v.788h2.34v-.92c0-.567-.097-1.098-.29-1.585a3.906 3.906 0 00-.792-1.257z" fill="url(#paint2_linear_260_1224)"/><path d="M21.139 101.325a4.297 4.297 0 00-1.275-.744 4.167 4.167 0 00-1.416-.256c-.475 0-.941.088-1.416.256a3.82 3.82 0 00-1.249.744c-.387.336-.686.761-.915 1.275-.228.504-.343 1.097-.343 1.752v8.684c0 .69.115 1.283.343 1.779a3.5 3.5 0 00.915 1.222c.37.336.783.593 1.249.761.466.168.94.257 1.416.257.475 0 .94-.089 1.416-.257a4.011 4.011 0 001.275-.761c.37-.328.668-.735.897-1.222.229-.496.343-1.089.343-1.779v-8.684c0-.664-.114-1.248-.343-1.752a3.948 3.948 0 00-.897-1.275zm-1.1 11.711c0 .566-.158.991-.474 1.257a1.689 1.689 0 01-1.117.407c-.431 0-.8-.133-1.117-.407-.317-.266-.466-.691-.466-1.257v-8.684c0-.566.158-.991.466-1.257a1.689 1.689 0 011.117-.407c.43 0 .8.133 1.117.407.316.266.475.691.475 1.257v8.684z" fill="url(#paint3_linear_260_1224)"/><path d="M39.59 116.922v-16.456h-2.268l-2.982 8.71h-.052l-3.008-8.71h-2.243v16.456h2.34v-10.003h.044l2.295 7.064h1.17l2.321-7.064h.044v10.003h2.34z" fill="url(#paint4_linear_260_1224)"/><path d="M52.933 101.626a3.237 3.237 0 00-1.328-.903 5.232 5.232 0 00-1.697-.257h-3.51v16.447h2.34v-6.427h1.196c.87 0 1.574-.15 2.11-.451a3.377 3.377 0 001.285-1.257c.272-.443.457-.921.536-1.434.088-.505.123-1.133.123-1.868 0-.982-.079-1.77-.228-2.346a3.545 3.545 0 00-.827-1.513v.009zm-1.178 5.01a2.235 2.235 0 01-.22.858 1.29 1.29 0 01-.572.576c-.264.141-.624.203-1.1.203h-1.125v-5.594h1.214c.457 0 .809.071 1.055.204.246.141.43.336.554.602.123.265.193.566.202.911.018.345.027.708.027 1.098 0 .416-.01.797-.035 1.133v.009z" fill="url(#paint5_linear_260_1224)"/><path d="M64.014 100.466h-1.952l-3.65 16.447h2.34l.685-3.532h3.193l.686 3.532h2.34l-3.65-16.447h.008zm-2.154 10.693l1.143-5.957h.044l1.152 5.957h-2.34z" fill="url(#paint6_linear_260_1224)"/><path d="M79.141 110.38h-.044l-3.535-9.914h-2.251v16.456h2.339v-9.888h.053l3.58 9.888h2.198v-16.456h-2.34v9.914z" fill="url(#paint7_linear_260_1224)"/><path d="M93.442 100.466l-1.882 6.542h-.044l-1.882-6.542h-2.48l3.21 9.498v6.958h2.349v-6.958l3.21-9.498h-2.48z" fill="url(#paint8_linear_260_1224)"/><path d="M.56 121.56h1.135v3.178h.765v-3.178h1.117v-.646H.561v.646z" fill="url(#paint9_linear_260_1224)"/><path d="M10.05 120.914l-1.478 3.815h.81l.316-.867h1.521l.326.867h.835l-1.521-3.815h-.81zm-.123 2.31l.518-1.416.52 1.416H9.926z" fill="url(#paint10_linear_260_1224)"/><path d="M19.425 123.331h.88v.486c-.273.213-.58.319-.906.319-.352 0-.625-.124-.81-.363-.184-.239-.28-.575-.28-.991 0-.85.368-1.275 1.098-1.275.458 0 .74.204.862.611l.757-.142c-.159-.752-.704-1.124-1.619-1.124-.527 0-.967.168-1.336.496-.37.327-.546.814-.546 1.469 0 .584.168 1.062.493 1.434.325.372.809.558 1.442.558.633 0 1.196-.195 1.618-.593v-1.523h-1.653v.638z" fill="url(#paint11_linear_260_1224)"/><path d="M30.207 120.914h-.773v3.824h2.673v-.646h-1.9v-3.178z" fill="url(#paint12_linear_260_1224)"/><path d="M38.3 120.914h-.775v3.815h.774v-3.815z" fill="url(#paint13_linear_260_1224)"/><path d="M46.213 123.463l-1.565-2.549H43.9v3.824h.722v-2.496l1.53 2.496h.765v-3.824h-.704v2.549z" fill="url(#paint14_linear_260_1224)"/><path d="M53.373 123.047h1.9v-.646h-1.9v-.841h2.04v-.646H52.6v3.824h2.893v-.646h-2.12v-1.045z" fill="url(#paint15_linear_260_1224)"/><path d="M69.511 122.419h-1.504v-1.505h-.765v3.824h.765v-1.673h1.504v1.673h.765v-3.824h-.765v1.505z" fill="url(#paint16_linear_260_1224)"/><path d="M76.713 123.047h1.9v-.646h-1.9v-.841h2.05v-.646h-2.824v3.824h2.894v-.646h-2.12v-1.045z" fill="url(#paint17_linear_260_1224)"/><path d="M86.467 123.047c.669-.097 1.003-.451 1.003-1.062 0-.416-.123-.699-.37-.85-.246-.15-.615-.221-1.116-.221h-1.619v3.815h.765v-1.593h.15c.22 0 .378.026.475.088a.808.808 0 01.273.275l.826 1.23h.915l-.466-.743c-.308-.487-.59-.806-.845-.939h.01zm-.774-.522h-.571v-.965h.598c.413 0 .668.036.782.098.115.062.167.186.167.38 0 .204-.07.337-.202.399s-.396.097-.783.097l.01-.009z" fill="url(#paint18_linear_260_1224)"/><path d="M93.828 123.047h1.9v-.646h-1.9v-.841h2.049v-.646h-2.814v3.824h2.893v-.646h-2.128v-1.045z" fill="url(#paint19_linear_260_1224)"/><defs><linearGradient id="paint0_linear_260_1224" x1="2.398" y1="39.451" x2="51.711" y2="39.451" gradientUnits="userSpaceOnUse"><stop/><stop offset=".33"/><stop offset=".52"/><stop offset=".73"/><stop offset="1"/></linearGradient><linearGradient id="paint1_linear_260_1224" x1="44.807" y1="43.735" x2="94.11" y2="43.735" gradientUnits="userSpaceOnUse"><stop/><stop offset=".33"/><stop offset=".52"/><stop offset=".73"/><stop offset="1"/></linearGradient><linearGradient id="paint2_linear_260_1224" x1="4.385" y1="117.055" x2="4.385" y2="100.333" gradientUnits="userSpaceOnUse"><stop/><stop offset=".33"/><stop offset=".52"/><stop offset=".73"/><stop offset="1"/></linearGradient><linearGradient id="paint3_linear_260_1224" x1="18.457" y1="117.055" x2="18.457" y2="100.334" gradientUnits="userSpaceOnUse"><stop/><stop offset=".33"/><stop offset=".52"/><stop offset=".73"/><stop offset="1"/></linearGradient><linearGradient id="paint4_linear_260_1224" x1="34.314" y1="116.922" x2="34.314" y2="100.466" gradientUnits="userSpaceOnUse"><stop/><stop offset=".33"/><stop offset=".52"/><stop offset=".73"/><stop offset="1"/></linearGradient><linearGradient id="paint5_linear_260_1224" x1="50.189" y1="116.922" x2="50.189" y2="100.466" gradientUnits="userSpaceOnUse"><stop/><stop offset=".33"/><stop offset=".52"/><stop offset=".73"/><stop offset="1"/></linearGradient><linearGradient id="paint6_linear_260_1224" x1="63.038" y1="116.922" x2="63.038" y2="100.466" gradientUnits="userSpaceOnUse"><stop/><stop offset=".33"/><stop offset=".52"/><stop offset=".73"/><stop offset="1"/></linearGradient><linearGradient id="paint7_linear_260_1224" x1="77.4" y1="116.922" x2="77.4" y2="100.466" gradientUnits="userSpaceOnUse"><stop/><stop offset=".33"/><stop offset=".52"/><stop offset=".73"/><stop offset="1"/></linearGradient><linearGradient id="paint8_linear_260_1224" x1="91.534" y1="116.922" x2="91.534" y2="100.466" gradientUnits="userSpaceOnUse"><stop/><stop offset=".33"/><stop offset=".52"/><stop offset=".73"/><stop offset="1"/></linearGradient><linearGradient id="paint9_linear_260_1224" x1="2.073" y1="124.738" x2="2.073" y2="120.914" gradientUnits="userSpaceOnUse"><stop/><stop offset=".33"/><stop offset=".52"/><stop offset=".73"/><stop offset="1"/></linearGradient><linearGradient id="paint10_linear_260_1224" x1="10.472" y1="124.738" x2="10.472" y2="120.914" gradientUnits="userSpaceOnUse"><stop/><stop offset=".33"/><stop offset=".52"/><stop offset=".73"/><stop offset="1"/></linearGradient><linearGradient id="paint11_linear_260_1224" x1="19.293" y1="124.8" x2="19.293" y2="120.852" gradientUnits="userSpaceOnUse"><stop/><stop offset=".33"/><stop offset=".52"/><stop offset=".73"/><stop offset="1"/></linearGradient><linearGradient id="paint12_linear_260_1224" x1="30.77" y1="124.738" x2="30.77" y2="120.914" gradientUnits="userSpaceOnUse"><stop/><stop offset=".33"/><stop offset=".52"/><stop offset=".73"/><stop offset="1"/></linearGradient><linearGradient id="paint13_linear_260_1224" x1="37.912" y1="124.738" x2="37.912" y2="120.914" gradientUnits="userSpaceOnUse"><stop/><stop offset=".33"/><stop offset=".52"/><stop offset=".73"/><stop offset="1"/></linearGradient><linearGradient id="paint14_linear_260_1224" x1="45.413" y1="124.738" x2="45.413" y2="120.914" gradientUnits="userSpaceOnUse"><stop/><stop offset=".33"/><stop offset=".52"/><stop offset=".73"/><stop offset="1"/></linearGradient><linearGradient id="paint15_linear_260_1224" x1="54.042" y1="124.738" x2="54.042" y2="120.914" gradientUnits="userSpaceOnUse"><stop/><stop offset=".33"/><stop offset=".52"/><stop offset=".73"/><stop offset="1"/></linearGradient><linearGradient id="paint16_linear_260_1224" x1="68.764" y1="124.738" x2="68.764" y2="120.914" gradientUnits="userSpaceOnUse"><stop/><stop offset=".33"/><stop offset=".52"/><stop offset=".73"/><stop offset="1"/></linearGradient><linearGradient id="paint17_linear_260_1224" x1="77.382" y1="124.738" x2="77.382" y2="120.914" gradientUnits="userSpaceOnUse"><stop/><stop offset=".33"/><stop offset=".52"/><stop offset=".73"/><stop offset="1"/></linearGradient><linearGradient id="paint18_linear_260_1224" x1="86.071" y1="124.738" x2="86.071" y2="120.914" gradientUnits="userSpaceOnUse"><stop/><stop offset=".33"/><stop offset=".52"/><stop offset=".73"/><stop offset="1"/></linearGradient><linearGradient id="paint19_linear_260_1224" x1="94.505" y1="124.738" x2="94.505" y2="120.914" gradientUnits="userSpaceOnUse"><stop/><stop offset=".33"/><stop offset=".52"/><stop offset=".73"/><stop offset="1"/></linearGradient></defs></svg>