<svg width="14" height="14" viewBox="0 0 14 14" fill="none" xmlns="http://www.w3.org/2000/svg">
<path fill-rule="evenodd" clip-rule="evenodd" d="M8.93775 9.87958C8.03462 10.5816 6.89979 10.9997 5.66732 10.9997C2.7218 10.9997 0.333984 8.61186 0.333984 5.66634C0.333984 2.72082 2.7218 0.333008 5.66732 0.333008C8.61284 0.333008 11.0007 2.72082 11.0007 5.66634C11.0007 6.89882 10.5826 8.03365 9.88056 8.93677L13.4721 12.5283C13.7324 12.7886 13.7324 13.2107 13.4721 13.4711C13.2117 13.7314 12.7896 13.7314 12.5292 13.4711L8.93775 9.87958ZM9.66732 5.66634C9.66732 7.87548 7.87646 9.66634 5.66732 9.66634C3.45818 9.66634 1.66732 7.87548 1.66732 5.66634C1.66732 3.4572 3.45818 1.66634 5.66732 1.66634C7.87646 1.66634 9.66732 3.4572 9.66732 5.66634Z" fill="#FCFCFD"/>
</svg>
