<svg width="61" height="67" viewBox="0 0 61 67" fill="none" xmlns="http://www.w3.org/2000/svg">
<g id="Group">
<path id="Vector" d="M31.4395 17.8184C31.4395 19.9093 29.6622 21.6866 27.5713 21.6866C25.4804 21.6866 23.7031 19.9093 23.7031 17.8184C23.7031 15.7275 25.3759 13.9502 27.5713 13.9502C29.7668 13.9502 31.4395 15.6229 31.4395 17.8184Z" fill="#EB5B31"/>
<path id="Vector_2" d="M54.755 35.3818C51.2005 32.1409 46.6005 30.3636 41.6869 30.5727C36.8778 30.7818 32.3823 32.8727 29.0369 36.4273C25.6914 40.0864 24.0187 45 24.3323 49.9136L18.3732 52.3182C18.0596 52.4227 17.7459 52.7364 17.7459 53.1546C17.6414 53.4682 17.8505 53.8864 18.1641 54.0955C21.5096 56.8136 24.855 58.8 28.305 60.0546C28.8278 60.7864 29.5596 61.5182 30.1869 62.1455C33.5323 65.2818 37.9232 66.9546 42.4187 66.9546H43.255C48.0641 66.7455 52.5596 64.6546 55.905 61.1C62.7005 53.6773 62.1778 42.1773 54.755 35.3818ZM47.0187 58.4864C46.6005 59.1136 46.0778 59.7409 45.555 60.3682C45.4505 60.4727 45.3459 60.4727 45.3459 60.5773H45.2414C45.1369 60.5773 45.0323 60.6818 44.9278 60.6818C44.8232 60.6818 44.7187 60.6818 44.6141 60.5773C44.5096 60.4727 44.5096 60.5773 44.5096 60.4727C44.405 60.4727 44.405 60.3682 44.3005 60.3682C44.1959 60.3682 44.1959 60.2636 44.1959 60.1591L44.0914 60.0546C44.0914 59.95 44.0914 59.95 44.0914 59.8455C44.0914 59.7409 44.0914 59.7409 44.0914 59.6364C44.0914 59.6364 44.0914 59.5318 44.0914 59.4273C44.0914 59.3227 44.0914 59.3227 44.0914 59.2182C46.0778 54.4091 44.5096 48.8682 40.4323 45.6273L39.0732 47.7182C38.8641 48.0318 38.5505 48.2409 38.2369 48.2409C38.1323 48.2409 38.1323 48.2409 38.0278 48.2409C37.6096 48.1364 37.2959 47.8227 37.1914 47.4046L35.4141 39.4591C35.3096 38.9364 35.6232 38.3091 36.2505 38.2046L44.0914 36.4273C44.5096 36.3227 44.9278 36.5318 45.1369 36.8455C45.3459 37.1591 45.3459 37.6818 45.1369 37.9955L43.8823 39.9818C49.4232 44.4773 50.8869 52.5273 47.0187 58.4864Z" fill="#EB5B31"/>
<path id="Vector_3" d="M33.1114 7.3636C30.1841 3.49542 26.0023 0.881785 21.1932 0.254512C16.3841 -0.37276 11.5751 0.77724 7.70687 3.59997C-0.343125 9.55906 -2.01585 20.9545 3.94324 29.0045C4.46597 29.7363 5.09324 30.4682 5.82506 31.0954C6.66142 34.7545 8.33415 38.2045 10.6341 41.8636C10.8432 42.1772 11.1569 42.3863 11.4705 42.3863H11.5751C11.9932 42.3863 12.3069 42.1772 12.4114 41.8636L15.4432 36.1136C16.4887 36.3227 17.5341 36.4272 18.4751 36.4272C22.3432 36.4272 26.1069 35.1727 29.3478 32.8727C37.2932 26.9136 39.0705 15.4136 33.1114 7.3636ZM28.0932 31.2C24.3296 33.9182 19.6251 34.9636 15.1296 34.0227C15.0251 34.0227 15.0251 34.0227 14.9205 34.0227C14.816 34.0227 14.816 34.0227 14.7114 34.0227C14.6069 34.0227 14.6069 34.0227 14.5023 34.1272C14.3978 34.1272 14.3978 34.2318 14.2932 34.2318L14.1887 34.3363C14.0841 34.3363 14.0841 34.4409 13.9796 34.5454L11.4705 39.3545C9.69324 36.4272 8.43869 33.5 7.81142 30.4682V30.3636C7.81142 30.3636 7.81142 30.2591 7.70687 30.2591C7.70687 30.1545 7.60233 30.1545 7.60233 30.05C7.60233 30.05 7.60233 30.05 7.49778 29.9454C6.87051 29.3182 6.24324 28.5863 5.61597 27.8545C0.284147 20.7454 1.85233 10.6045 8.96142 5.27269C12.4114 2.65906 16.5932 1.6136 20.8796 2.24088C25.166 2.86815 28.8251 5.16815 31.4387 8.61815C36.666 15.7272 35.2023 25.8682 28.0932 31.2Z" fill="#EB5B31"/>
<path id="Vector_4" d="M10.0088 21.6866C12.1451 21.6866 13.877 19.9547 13.877 17.8184C13.877 15.682 12.1451 13.9502 10.0088 13.9502C7.87247 13.9502 6.14062 15.682 6.14062 17.8184C6.14062 19.9547 7.87247 21.6866 10.0088 21.6866Z" fill="#EB5B31"/>
<path id="Vector_5" d="M22.8662 17.8184C22.8662 19.9093 21.1935 21.6866 18.998 21.6866C16.8026 21.6866 15.2344 19.9093 15.2344 17.8184C15.2344 15.7275 17.0116 13.9502 19.1026 13.9502C21.1935 13.9502 22.8662 15.6229 22.8662 17.8184Z" fill="#EB5B31"/>
</g>
</svg>
