<svg width="25" height="24" viewBox="0 0 25 24" fill="none" xmlns="http://www.w3.org/2000/svg">
<g id="search">
<path id="Vector" fill-rule="evenodd" clip-rule="evenodd" d="M11.7031 5C8.38942 5 5.70312 7.68629 5.70312 11C5.70312 14.3137 8.38942 17 11.7031 17C15.0168 17 17.7031 14.3137 17.7031 11C17.7031 7.68629 15.0168 5 11.7031 5ZM3.70312 11C3.70312 6.58172 7.28485 3 11.7031 3C16.1214 3 19.7031 6.58172 19.7031 11C19.7031 12.8487 19.076 14.551 18.023 15.9056L21.4102 19.2929C21.8008 19.6834 21.8008 20.3166 21.4102 20.7071C21.0197 21.0976 20.3865 21.0976 19.996 20.7071L16.6088 17.3199C15.2541 18.3729 13.5518 19 11.7031 19C7.28485 19 3.70312 15.4183 3.70312 11Z" fill="#0F1729"/>
</g>
</svg>
