<svg width="315" height="596" viewBox="0 0 315 596" fill="none" xmlns="http://www.w3.org/2000/svg">
<path d="M666.773 37.4976C709.033 46.8182 661.018 123.069 642.328 134.982C618.911 149.909 561.079 144.604 535.01 141C491.03 134.919 450.464 129.305 408.728 112.854C383.242 102.808 341.535 78.7639 329.717 51.9257C323.598 38.0298 313.777 8.00092 335.297 2.59996C396.962 -12.8769 439.097 60.5945 427.562 112.893C419.603 148.979 396.669 178.133 362.015 192.494C312.344 213.078 263.436 228.843 216.203 255.568C117.768 311.265 210.53 402.979 265.135 451.537C353.046 529.715 178.624 522.723 139.805 528.535C96.0302 535.089 40.7454 555.962 19.5764 598.428C5.86927 625.924 6.98735 650.167 0.648971 678.906" stroke="white" stroke-opacity="0.11"/>
</svg>
