<svg width="30" height="30" fill="none" xmlns="http://www.w3.org/2000/svg"><path d="M10 4H4v6h6V4zm0 8H4v6h6v-6zm8 0h-6v6h6v-6zm-8 8H4v6h6v-6zm8-16h-6v6h6V4zm8 0h-6v6h6V4z" fill="#DE596D"/><path d="M23 29.5a6.5 6.5 0 100-13 6.5 6.5 0 000 13z" stroke="#DE596D"/><path fill-rule="evenodd" clip-rule="evenodd" d="M26 12h-6v4.674A6.973 6.973 0 0123 16c1.074 0 2.09.242 3 .674V12zm-9.326 8H12v6h4.674A6.973 6.973 0 0116 23c0-1.074.242-2.09.674-3z" fill="#DE596D"/><path d="M21 25l2-2v-4" stroke="#DE596D"/></svg>