<svg width="21" height="24" fill="none" xmlns="http://www.w3.org/2000/svg"><path fill-rule="evenodd" clip-rule="evenodd" d="M1.371.639c-.288.113-.465.387-.465.717 0 .249.114.458.34.623.121.088.204.097 1.037.11l.905.014v2.32c.002 2.511.016 2.687.256 3.204.067.142.203.365.304.497.102.132 1.015.947 2.065 1.841 2.094 1.785 2.126 1.82 2.125 2.338-.001.528-.014.542-2.104 2.321-1.036.883-1.951 1.685-2.034 1.783a3.14 3.14 0 00-.312.498c-.286.569-.298.7-.3 3.282v2.32l-.905.014c-.833.013-.915.022-1.036.11-.463.337-.463.937 0 1.273l.131.096h18.244l.131-.096c.462-.336.462-.936 0-1.273-.12-.088-.204-.097-1.036-.11l-.905-.014V20.37c-.002-2.309-.019-2.51-.254-3.016a3.333 3.333 0 00-.292-.486c-.1-.134-1.046-.982-2.224-1.994-1.128-.97-2.084-1.805-2.125-1.857a1.143 1.143 0 01.015-1.447c.033-.04.983-.865 2.11-1.835 1.17-1.005 2.126-1.862 2.225-1.994.095-.128.226-.346.29-.485.236-.506.253-.707.254-3.016l.001-2.137.905-.014c.832-.013.915-.022 1.036-.11.462-.337.462-.936 0-1.273L19.622.61 10.555.601C4.594.596 1.448.608 1.37.64zm14.894 3.644l-.013 2.186-.117.206c-.087.153-.626.644-2.096 1.909-1.088.936-2.088 1.816-2.22 1.955-.41.43-.712 1.178-.712 1.766 0 .604.304 1.342.736 1.79.145.15 1.133 1.019 2.195 1.93 1.063.912 1.98 1.728 2.037 1.813.058.085.127.23.153.32.028.1.047.999.047 2.26v2.095H4.722l.013-2.37c.013-2.33.015-2.37.114-2.551.133-.242.277-.372 2.135-1.942 1.702-1.44 1.807-1.537 2.074-1.939.617-.924.534-2.211-.199-3.085-.11-.13-.932-.86-1.829-1.62-1.903-1.613-2.047-1.744-2.18-1.988-.1-.18-.102-.22-.115-2.551l-.013-2.37h11.557l-.014 2.186zm-6.045 8.24c-.002.513-.285 1.238-.656 1.683-.105.125-1.01.928-2.013 1.784-1.002.856-1.87 1.627-1.928 1.712l-.106.155v1.837c0 1.588.01 1.85.072 1.939l.072.101h9.677l.073-.101c.062-.088.072-.333.072-1.756 0-1.642 0-1.655-.105-1.81-.058-.085-.986-.91-2.061-1.834-1.076-.923-2.066-1.798-2.202-1.945-.42-.454-.751-1.25-.754-1.811 0-.122-.021-.172-.07-.172-.053 0-.07.055-.071.218z" fill="#DE596D"/></svg>