<svg width="88" height="88" fill="none" xmlns="http://www.w3.org/2000/svg"><circle cx="44" cy="44" r="44" fill="#FFF4F8"/><path d="M39 33h-6v6h6v-6zm0 8h-6v6h6v-6zm8 0h-6v6h6v-6zm-8 8h-6v6h6v-6zm8-16h-6v6h6v-6zm8 0h-6v6h6v-6z" fill="#DE596D"/><path d="M52 58.5a6.5 6.5 0 100-13 6.5 6.5 0 000 13z" stroke="#DE596D"/><path fill-rule="evenodd" clip-rule="evenodd" d="M55 41h-6v4.674A6.973 6.973 0 0152 45c1.074 0 2.09.242 3 .674V41zm-9.326 8H41v6h4.674A6.973 6.973 0 0145 52c0-1.074.242-2.09.674-3z" fill="#DE596D"/><path d="M50 54l2-2v-4" stroke="#DE596D"/></svg>