<svg width="78" height="79" fill="none" xmlns="http://www.w3.org/2000/svg"><g clip-path="url(#clip0_2255_44435)" fill="#DEDEDE"><path d="M29.313 10.46a1.107 1.107 0 00-.367.315c-6.808 3.952-15.834 10.954-18.033 18.828-2.044 7.32 1.288 14.777 3.97 21.563 2.458 6.22 5.338 11.79 12.068 13.813 6.172 1.855 15.234 5.27 21.697 3.244 8.66-2.714 13.38-11.92 17.129-19.565 1.136-2.32 2.728-5.377 2.28-8.064-.51-3.058-1.803-6.086-2.852-8.983-2.155-5.963-4.54-15.483-10.759-18.624-6.813-3.439-17.993-6.283-25.133-2.526zm.607 1.972c.054-.017.104-.014.161-.04 6.421-3.052 15.865.05 22.073 2.425.16.061.306.146.46.216 2.147 3.428-3.9 9.054-5.825 11.454-2.879 3.594-6.198 6.97-10.34 9.074-3.112 1.581-6.315 1.331-9.593.592-4.075-.918-12.577-2.44-12.583-7.657 1.71-3.513 4.952-6.514 7.623-9.077 2.552-2.449 5.116-4.961 8.023-6.987zM17.088 49.155c-2.035-5.125-4.648-11.023-3.992-16.64 1.416 1.806 3.984 2.942 6.579 3.908 4.822 1.8 9.908 3.32 14.951 2.241 1.483 1.458 2.574 3.38 3.46 5.43.204.623.426 1.22.646 1.776a.85.85 0 00.152.233c.597 1.61 1.113 3.222 1.635 4.678 1.801 5.025 3.299 10.299 5.674 15.09-5.463.895-12.558-1.904-17.687-3.32-6.672-1.84-9.03-7.383-11.418-13.396zm45.217-17.547c.975 2.637 1.9 5.295 2.695 7.992.752 2.551-.253 4.637-1.297 6.99-3.08 6.941-7.91 16.304-15.602 18.82-1.703-5.97-4.13-11.844-6.285-17.67-.467-1.263-.969-2.722-1.571-4.18-.507-2.385-.971-4.55-.31-7.106 4.3-2.705 7.79-7.155 10.712-10.964 1.922-2.503 4.659-5.446 4.927-8.273 3.503 3.735 5.184 10.212 6.729 14.389l.002.002z"/><path d="M49.443 43.577c.934-.69 1.403-1.876 1.336-3.013-.074-1.304-1.227-2.602-2.531-2.742-1.331-.144-2.585.824-2.957 2.082a3.38 3.38 0 00.067 2.03c.18.655.534 1.275.936 1.64.913.824 2.207.7 3.148.004h.001zm6.292-7.294c.935-.691 1.403-1.876 1.337-3.014-.074-1.304-1.225-2.603-2.53-2.742-1.333-.143-2.585.825-2.958 2.082a3.377 3.377 0 00.07 2.04c.18.65.533 1.266.935 1.629.913.825 2.207.702 3.146.005zm-2.377 11.701c-1.33-.143-2.585.824-2.958 2.082a3.38 3.38 0 00.069 2.037c.18.65.533 1.268.936 1.632.913.824 2.207.702 3.148.005.933-.693 1.402-1.877 1.336-3.014-.075-1.304-1.226-2.603-2.531-2.742zm6.136-7.427c-1.33-.143-2.585.824-2.957 2.083-.19.64-.16 1.378.068 2.034.18.652.533 1.271.936 1.634.913.824 2.206.702 3.148.005.933-.693 1.402-1.877 1.337-3.015-.076-1.303-1.225-2.602-2.53-2.742h-.002zm-31.406 5.161c-1.904.036-2.93 1.827-3.087 3.53-.516 2.136 1.24 4.246 3.445 4.82 1.225.32 2.562.077 3.448-.868 1.12-1.195.877-2.96.497-4.397-.503-1.905-2.407-3.12-4.303-3.085zm1.356 4.755l-.019-.008-.001-.003c.025.006.028.006.022.012h-.002zm-6.728-20.754c.901 0 1.825-.558 2.329-1.324.012-.013.025-.021.037-.034.485-.527.843-1.443.689-2.156-.494-2.283-3.451-1.954-4.678-.502-.502.594-.796 1.515-.644 2.286.225 1.162 1.13 1.73 2.267 1.73zm10.018-3.984c.901 0 1.823-.557 2.328-1.323.013-.014.025-.022.038-.035.486-.527.842-1.442.689-2.155-.494-2.283-3.452-1.954-4.678-.503-.502.595-.795 1.515-.645 2.287.226 1.162 1.131 1.73 2.269 1.729h-.001zm10.017-3.983c.902 0 1.823-.557 2.329-1.324.012-.013.025-.021.037-.034.486-.527.843-1.443.69-2.155-.495-2.283-3.452-1.955-4.678-.503-.502.594-.795 1.515-.645 2.286.226 1.162 1.131 1.731 2.269 1.73h-.002zM52.884 9.847c-.078-.022-.098.084-.054.127 2.346 2.288 5.373 3.185 7.425 5.945 1.818 2.445 2.774 5.53 3.857 8.344.046.12.235.074.22-.055-.82-6.733-4.775-12.46-11.448-14.36zm11.541 15.49c.091.723.316 1.426.435 2.15.03.184.265.173.312.006.21-.763-.102-1.615-.554-2.233-.062-.086-.204-.03-.191.076h-.002zM19.883 62.446c-2.397-2.2-3.583-5.055-5.397-7.654-.048-.07-.163-.021-.154.062.691 5.646 7.495 12.74 13.407 12.6.208-.005.215-.289.055-.368-2.855-1.42-5.503-2.431-7.911-4.64zm-5.789-8.649c.116-.548-.172-1.127-.353-1.635-.195-.546-.501-1.046-.967-1.395-.068-.05-.194 0-.173.096.118.532.3 1.048.52 1.545.217.496.35 1.124.812 1.453.063.046.146.011.162-.064h-.002z"/></g><defs><clipPath id="clip0_2255_44435"><path fill="#fff" transform="rotate(-21.684 57.095 8.726)" d="M0 0h58.766v60.94H0z"/></clipPath></defs></svg>