<svg width="54" height="44" fill="none" xmlns="http://www.w3.org/2000/svg"><path fill-rule="evenodd" clip-rule="evenodd" d="M23.582 37.332l.13-2.793c7.01-.3 10.42-3.885 10.42-9.953 0-7.331-6.194-9.74-10.265-8.885.491-1.436 2.61-12.165-6.349-12.165-8.632 0-6.81 8.654-6.489 10.326-6.469 0-7.676 5.62-7.676 8.29 0 3.546 3.135 7.298 9.76 7.298v3.039c-15.978 0-16.624-17.835-5.89-21.322C6.254 4.52 10.895 0 17.494 0c6.009 0 10.836 4.391 10.155 12.19L36.16 0l11.26 14.52-3.795 1.545 6.825 7.779-5.563 2.046L54 36.708l-30.418.624zM9.062 20.018l.916-1.932 6.138 3.526.266-9.029 3.324-.604.972 13.886 7.62-5.38 1.222 2.538-8.512 8.36L21.845 44l-6.37-.3.501-16.37-6.915-7.312zm32.235 19.414l.44 4.302h-8.832L33.351 39l7.946.433z" fill="#fff"/></svg>