<svg width="721" height="354" viewBox="0 0 721 354" fill="none" xmlns="http://www.w3.org/2000/svg">
<path d="M715.989 357.536C724.559 354.679 717.556 337.201 714.719 332.662C694.376 300.114 652.002 294.669 617.66 288.737C594.706 284.772 577.125 291.768 556.377 300.803C530.877 311.908 502.283 313.65 474.454 311.388C457.406 310.002 440.153 306.775 423.649 302.285C413.855 299.621 395.85 294.945 390.52 285.35C386.056 277.316 383.398 269.514 379.723 261.43C367.624 234.812 331.806 237.828 308.491 242.166C266.71 249.939 225.785 261.084 182.854 262.17C159.691 262.757 136.604 262.073 113.526 261.218C100.686 260.742 70.8584 258.802 67.802 243.859C65.803 234.087 38.0863 238.252 34.0469 229.5C30.1102 220.971 37.6459 206.298 34.0469 197.5C28.6031 184.193 -13.1411 177.628 -21.4531 165C-28.8906 153.701 -11.8404 90.8258 -21.4531 81.5C-57.788 46.2497 -59.7317 42.9242 -88 1.26562" stroke="white" stroke-opacity="0.15"/>
</svg>
