<svg width="35" height="36" fill="none" xmlns="http://www.w3.org/2000/svg"><path d="M30.064 22.845c.872.89 1.758 1.793 2.643 2.698.584.598 1.161 1.203 1.751 1.796.468.47.69 1 .433 1.66-.267.687-.724.99-1.49.99-1.57.004-3.137.009-4.707-.006-.292-.003-.49.092-.693.302-1.675 1.738-3.36 3.466-5.045 5.194-.56.576-1.094.662-1.807.317-.41-.199-.628-.539-.696-.98-.034-.214-.034-.436-.034-.655-.002-2.2 0-4.4 0-6.6v-.52c-.577-.057-1.128-.092-1.675-.17-3.157-.455-5.813-1.912-8.013-4.27-.145-.155-.262-.238-.506-.198-4.673.747-9.116-2.388-10.043-7.071C-.935 9.702 3.234 4.483 8.836 4.506c.476.002.952.089 1.43.089.165 0 .37-.105.489-.232 1.865-1.989 4.09-3.334 6.7-3.99 7.007-1.757 14.207 2.84 15.749 10.086.952 4.476-.123 8.465-2.888 12.01-.067.085-.136.167-.201.252-.016.022-.02.05-.05.122l-.001.002zM13.457 5.86c2.56 1.866 4.022 4.376 4.025 7.635.003 3.27-1.468 5.786-4.036 7.657 1.636 1.716 4.899 3.035 6.971 2.805v-6.54c0-.314-.008-.63.005-.943.032-.75.3-1.107.981-1.37.617-.238 1.112-.04 1.552.413 1.361 1.402 2.726 2.8 4.086 4.203.26.27.51.548.765.823 3.718-3.918 3.8-10.312-.078-14.394-4.053-4.265-10.538-4.014-14.271-.289zm1.114 7.646c-.016-3.152-2.092-5.916-5.82-5.99-3.194-.062-5.84 2.69-5.843 5.982-.002 3.28 2.61 6.011 5.794 5.987 3.73-.03 5.858-2.824 5.869-5.977v-.002zm8.783 6.736v10.609c.128-.12.216-.197.297-.281.95-.974 1.912-1.937 2.84-2.932.428-.458.898-.675 1.518-.64.64.036 1.285.008 1.93.008l-6.585-6.764z" fill="#F3F3F3"/></svg>