<svg width="38" height="38" fill="none" xmlns="http://www.w3.org/2000/svg"><g clip-path="url(#clip0_2297_23987)" fill="#F3F3F3"><path d="M17.852 3.013c-1.164.05-2.315.24-3.417.62-1 .348-1.96.812-2.953 1.189-.335.126-.713.216-1.067.2-.492-.021-.883-.458-.976-.951-.098-.524.093-.984.556-1.244C12.078 1.666 14.3.917 16.67.64A21.571 21.571 0 0118.857.5c.292-.005.62.077.872.225a3021.95 3021.95 0 0114.844 8.752c.29.173.56.465.72.765 1.71 3.19 2.45 6.595 2.138 10.207-.479 5.539-2.969 9.982-7.36 13.368-.623.48-1.294.42-1.739-.126-.44-.54-.358-1.349.241-1.815 1.45-1.131 2.728-2.42 3.742-3.956 2.042-3.092 2.939-6.486 2.66-10.19a16.086 16.086 0 00-1.371-5.374c-.114-.258-.232-.323-.517-.27-2.245.415-4.499.61-6.77.215-4.09-.712-6.722-3.07-7.924-7.03-.22-.72-.354-1.466-.54-2.258zm2.779 1.1c.498 1.892 1.344 3.446 2.91 4.525 1.466 1.014 3.143 1.338 4.882 1.397.666.023 1.333-.027 2-.044l.009-.102-9.8-5.776h-.001zM19.006 37.5c-8.848.007-16.539-6.298-18.158-15.011-1.074-5.777.336-10.966 4.081-15.505.467-.564 1.126-.652 1.67-.246.533.399.661 1.183.263 1.76-.255.369-.557.705-.82 1.07a15.894 15.894 0 00-3.004 8.118c-.558 6.642 3.08 12.822 8.867 15.677 2.635 1.299 5.423 1.867 8.353 1.592 1.016-.096 2.024-.309 3.026-.514 1.03-.21 1.88.53 1.657 1.492-.11.474-.429.742-.884.868a18.808 18.808 0 01-5.051.698z"/></g><defs><clipPath id="clip0_2297_23987"><path fill="#fff" transform="translate(.5 .5)" d="M0 0h37v37H0z"/></clipPath></defs></svg>