<svg width="182" height="183" fill="none" xmlns="http://www.w3.org/2000/svg"><g clip-path="url(#clip0_2297_24050)" fill="#EB5B31"><path d="M75.808 131.668c2.294-31.747 6.853-62.365 13.805-93.447l-5.488 2.404c12.299 25.922 25.519 50.804 41.7 74.532 1.924-1.117 3.847-2.234 5.785-3.357-23.302-9.757-46.604-19.513-69.882-29.299l-3.87 3.854c21.499-4.782 42.703-10.556 63.712-17.145-.989-.336-1.962-.679-2.951-1.014-15.28 22.447-33.457 42.726-48.73 65.189-1.605 2.357 5.827.232 7.111-1.661 15.016-22.38 32.92-42.606 47.913-64.994 1.254-1.88-2.436-1.18-2.951-1.015-20.444 6.493-41.153 12.018-62.072 16.734-.687.153-5.91 3.008-3.87 3.854a40576.766 40576.766 0 0170.127 29.148c1.239.515 7.018-1.543 5.785-3.357-16.169-23.622-29.825-48.486-42.332-74.219-.88-1.811-5.204 1.144-5.487 2.405-6.743 30.578-12.998 61.725-13.047 93.168-.002 1.666 4.685-.273 4.795-1.786l-.053.006zm39.21-84.502c2.949-4.203 5.11-8.946 7.623-13.408 2.64-4.707 5.664-9.186 8.282-13.9.949-1.7-3.397-.104-3.95.616-5.968 7.975-12.326 17.78-15.559 27.258-.622 1.807 3.165.082 3.619-.573l-.015.007zm16.941 41.232c10.124 2.47 20.571 5.993 30.825 7.59 1.001.163 5.161-2.272 3.757-2.822-9.85-3.912-21.475-5.314-31.897-7.072-.986-.17-4.251 1.922-2.685 2.304z"/><path d="M99.752 125.379c.845 11.006 2.286 23.215 5.251 33.845.334 1.195 4.193-.692 4.135-1.812-.446-11.062-2.612-23.119-5.16-33.887-.282-1.164-4.32.658-4.226 1.854zM69.054 58.98c-7.371-7.451-14.721-15.375-22.61-22.272-.85-.752-4.586 1.282-3.862 2.24 6.261 8.45 14.308 16.439 23.045 22.293.943.635 4.463-1.225 3.42-2.275l.007.015zm-34.626 64.68c8.548-7.085 17.007-13.961 26.04-20.439 2.552-1.835-.241-2.071-1.913-1.09-9.924 5.874-18.96 13.26-27.052 21.446-1.56 1.578 2.28.605 2.925.083z"/></g><defs><clipPath id="clip0_2297_24050"><path fill="#fff" transform="rotate(-24.945 130.112 28.502)" d="M0 0h136.005v137.345H0z"/></clipPath></defs></svg>