<svg width="198" height="175" fill="none" xmlns="http://www.w3.org/2000/svg"><g clip-path="url(#clip0_2297_24043)"><path d="M98.881 62c-.75-2.722-1.629-2.997-3.787-1.141-1.708 1.485-3.001 3.24-4.134 5.12l.018-.084c-3.597 6.149-5.884 12.756-7.31 19.722-.235 1.148-.561 2.271-.703 3.438-.578 3.736-.885 7.533-.352 11.319.2 1.325.502 2.583 1.107 3.719.487.834 1.111.962 1.955.489.862-.558 1.561-1.237 2.268-1.921 1.566-1.699 2.785-3.563 3.85-5.553 4.511-8.354 7.087-17.287 7.726-26.8.201-2.807.111-5.579-.638-8.307z" fill="#EB5B31"/><path d="M25.476 43.294C36.562 35.78 46.644 29.08 59.694 25.03c12.568-3.895 26.31-4.936 39.412-5.963.523-.038.622-.898.064-.942-24.407-1.876-58.977 3.407-74.014 24.814-.145.204.074.52.32.356zm84.035-25.617c.179-.21.083-.559-.209-.612-1.618-.312-3.196.282-4.796.36-.345.018-.445.504-.133.65 1.693.79 3.774 1.202 5.137-.392l.001-.006z" fill="#2D2D2D"/><path d="M164.487 40.244c-34.177-22.322-92-20.71-125.861.502C25.85 48.742 13.379 63.34 12.929 78.947c-.618 21.339 14.592 35.697 31.168 47.379 32.308 22.762 92.629 37.121 128.957 16.478 35.76-20.323 23.319-85.005-8.568-102.555l.001-.006zm-85.24 13.973c-1.082 2.075-2.251 4.133-3.42 6.191-3.31 5.657-6.943 11.071-10.482 16.498-.68 1.056-.897 2.113-.773 3.335 1.014 8.295 1.653 16.601 2.953 24.854.089.48.16 1.045.052 1.573a3.271 3.271 0 01-2.623 2.773c-1.363.272-2.726-.374-3.499-1.634-.63-1.046-.772-2.176-.913-3.313-.589-4.898-1.177-9.796-1.76-14.693-.071-.565-.056-1.113-.411-1.641-.554.437-.773 1.038-1.165 1.597-2.444 3.727-4.3 7.758-6.496 11.624-.435.74-.863 1.481-1.365 2.106-1.1 1.25-2.728 1.461-4.166.711-1.343-.737-1.933-2.421-1.43-3.969.177-.42.36-.844.543-1.263 3.724-6.768 7.449-13.542 11.837-19.903 1.041-1.438 1.435-2.92 1.246-4.706-.962-7.639-1.633-15.313-2.115-23.03-.092-.937-.178-1.872-.09-2.772a2.993 2.993 0 012.802-2.736c1.42-.077 2.71.922 2.941 2.532.231 1.61.265 3.269.479 4.964l-.112.072c.57 4.521 1.143 9.056 1.694 13.668.95-.078 1.077-.698 1.346-1.104 2.843-4.285 5.933-8.43 8.528-12.86.433-.734.862-1.476 1.458-2.088 1.203-1.316 2.839-1.532 4.147-.619 1.22.895 1.575 2.341.806 3.835l-.013-.002zm17.567 47.601c-1.279 2.124-2.72 4.127-4.494 5.966-.952 1.001-1.979 1.892-3.148 2.57-4.476 2.666-9.072 1.358-11.488-3.269-1.274-2.463-1.751-5.136-1.953-7.835-.408-5.779.301-11.513 1.722-17.1 1.753-7.179 4.272-14.01 8.264-20.262 1.225-1.863 2.518-3.617 4.067-5.236 1.185-1.226 2.513-2.238 4.06-2.934 3.722-1.72 7.434-.687 9.749 2.64 1.506 2.239 2.189 4.853 2.487 7.49l-.075-.105c.699 5.744-.08 11.375-1.112 16.859-1.731 7.543-4.126 14.679-8.087 21.221l.008-.005zm39.618-35.897c-1.082 2.076-2.251 4.133-3.42 6.191-3.309 5.658-6.943 11.071-10.482 16.498-.687 1.055-.903 2.112-.773 3.335 1.015 8.295 1.653 16.602 2.96 24.855.088.48.159 1.045.051 1.574a3.272 3.272 0 01-2.622 2.773c-1.364.271-2.726-.375-3.499-1.634-.63-1.047-.773-2.177-.914-3.313-.588-4.898-1.177-9.797-1.76-14.694-.071-.565-.056-1.112-.411-1.64-.554.437-.773 1.037-1.165 1.596-2.444 3.727-4.3 7.758-6.496 11.624-.434.74-.863 1.482-1.365 2.107-1.099 1.249-2.728 1.46-4.165.71-1.344-.737-1.934-2.421-1.43-3.969.176-.42.36-.844.542-1.262 3.724-6.769 7.449-13.543 11.837-19.903 1.041-1.439 1.441-2.92 1.246-4.707-.962-7.638-1.633-15.313-2.115-23.03-.092-.937-.177-1.872-.09-2.772a2.994 2.994 0 012.802-2.736c1.42-.076 2.711.922 2.941 2.532.231 1.61.266 3.27.479 4.965l-.111.072c.569 4.52 1.142 9.055 1.693 13.667.95-.078 1.077-.697 1.347-1.104 2.842-4.285 5.932-8.43 8.527-12.86.433-.734.862-1.475 1.458-2.087 1.203-1.317 2.839-1.533 4.147-.62 1.221.896 1.576 2.342.806 3.836l-.018-.004zm17.567 47.601c-1.279 2.124-2.72 4.127-4.494 5.966-.952 1.001-1.979 1.892-3.148 2.57-4.476 2.666-9.072 1.358-11.488-3.269-1.274-2.463-1.751-5.136-1.953-7.835-.408-5.779.301-11.512 1.722-17.1 1.746-7.18 4.272-14.01 8.264-20.262 1.225-1.862 2.518-3.617 4.061-5.237 1.185-1.226 2.513-2.239 4.06-2.934 3.721-1.72 7.434-.688 9.748 2.64 1.507 2.239 2.19 4.853 2.488 7.49l-.076-.105c.7 5.744-.079 11.375-1.111 16.859-1.731 7.543-4.126 14.678-8.087 21.221l.014-.004z" fill="#EB5B31"/><path d="M175.954 148.24c-12.426 6.132-24.705 9.998-38.704 10.657-13.271.626-26.109-3.128-39.217-3.109-.193-.002-.252.29-.075.364 11.863 4.966 26.743 5.638 39.487 5.443 13.992-.212 28.198-3.708 39.019-12.606.45-.37.02-1.008-.504-.748l-.006-.001z" fill="#2D2D2D"/><path d="M156.059 73.704c-.751-2.723-1.629-2.998-3.787-1.142-1.708 1.485-3.001 3.239-4.134 5.12l.018-.084c-3.598 6.149-5.884 12.756-7.31 19.722-.235 1.148-.561 2.27-.703 3.438-.578 3.735-.885 7.533-.352 11.319.199 1.325.502 2.583 1.107 3.719.486.834 1.111.962 1.955.489.862-.558 1.561-1.237 2.262-1.923 1.565-1.698 2.784-3.562 3.849-5.553 4.512-8.353 7.094-17.285 7.727-26.8.201-2.807.117-5.577-.638-8.307l.006.002z" fill="#EB5B31"/></g><defs><clipPath id="clip0_2297_24043"><path fill="#fff" transform="rotate(11.567 11.648 140.965)" d="M0 0h184.15v139.598H0z"/></clipPath></defs></svg>