<svg width="170" height="116" fill="none" xmlns="http://www.w3.org/2000/svg"><path d="M43.68 88.176l.161-.097.477-3.067-.771.743c-.77.742-2.395 1.082-3.517 1.16 2.953-12.087 6.438-29.525 11.251-56.28l.161-.897-5.96 3.667-.106.633c-1.042 6.24-2.12 12.693-3.527 17.692-1.526 5.423-3.225 8.337-5.19 8.902-.132-.113-.498-.703-.709-3.78-.166-2.42-.197-5.632-.23-9.033-.04-4.16-.082-8.462-.376-11.77-.364-4.106-1.056-5.936-2.24-5.936-.87 0-2.327.692-3.9 1.851l-3.463 2.541a6.49 6.49 0 00.054-.813c0-2.025-.858-3.494-2.042-3.494-1.89 0-4.442 1.182-7 3.244-2.618 2.111-5.156 5.047-7.41 8.56 2.321-11.944 4.807-25.82 4.807-32.637 0-2.761-.332-4.6-1.954-4.6-1.483 0-2.837.756-4.145 1.487-.252.14-.511.286-.77.424l-.045.024-4.717 4.678 5.086-2.194c.477.611.786 1.542.786 3.668 0 7.336-3.085 23.503-5.563 36.493C1.56 55.985.467 61.72.102 64.678L0 65.513l5.888-3.622.044-.175a88.175 88.175 0 012.783-9.003c2.81.685 5.044 6.867 7.62 13.991 1.455 4.025 3.054 8.445 4.963 12.393a24.343 24.343 0 00-2.652 4.95c-1.48 3.716-2.228 8.067-2.228 12.931 0 9.41 3.237 17.359 7.07 17.359 1.316 0 3.264-.784 5.209-2.097 2.05-1.362 3.95-4.034 5.81-8.17 1.571-3.489 3.085-7.959 4.61-13.607 1.354-.506 2.844-1.256 4.563-2.287zm-20.113-4.913c3.067 4.924 6.439 7.54 10.272 7.961-2.695 10.583-4.663 16.916-5.853 18.84-1.479-.127-2.885-1.857-3.975-4.906-1.11-3.105-1.747-7.234-1.747-11.326 0-3.665.46-7.38 1.303-10.569zm3.434-47.16l1.71-1.256c.42.723.728 2.433.914 5.097.196 2.81.238 6.373.28 9.82.113 9.447.277 15.238 2.14 15.238 1.861 0 5.972-2.242 8.49-4.484-2.075 10.665-3.777 18.729-5.336 25.253-2.175-1.218-4.215-3.397-6.164-6.573a44.145 44.145 0 01-1.84-3.342 5.98 5.98 0 01.955-.778c.704-.374 1.674-.63 3.052-.808l.089-.012 5.637-4.456-1.382.121c-2.46.216-5.162 1.29-8.264 3.284l-.008.006a24.44 24.44 0 00-1 .719c-1.605-3.493-3.012-7.286-4.309-10.776-1.45-3.907-2.819-7.596-4.237-10.287-1.635-3.106-3.17-4.552-4.826-4.552a8.47 8.47 0 00-2.657.417c.955-2.247 2.5-5.504 4.053-8.242 2.999-5.287 4.403-5.857 4.867-5.857.32 0 .781.815.781 2.29 0 2.429-1.763 5.58-4.718 8.428l-1.423 1.372 5.175-1.838.053-.047c2.166-1.928 3.933-4.017 5.11-6.044.609-1.048 1.055-2.066 1.33-3.02l1.528.328zm43.593-1.89c-1.244-2.606-2.82-4.101-4.322-4.101-1.618 0-3.82 1.116-6.041 3.063-5.331 4.704-8.123 21.43-11.078 39.135l-.03.177c-2.89 17.14-5.878 34.865-10.389 41.138l-1.039 1.445 6.398-3.365.054-.078c4.924-7.033 8.067-25.767 10.84-42.299.267-1.63.538-3.326.805-5.017l.526.304c.546.315 1.448.384 1.75.384 1.306 0 3.075-.703 4.855-1.927 2.871-1.86 5.304-4.915 7.036-8.832 1.613-3.646 2.5-7.832 2.5-11.79 0-2.711-.697-5.79-1.866-8.239l.001.002zM55.811 64.198l.35-2.221c1.032-6.548 2.099-13.32 3.199-18.454 1.397-6.524 2.443-8.405 3.103-8.77 1.91 1.123 4.15 6.093 4.15 10.847 0 5.11-1.876 11.492-4.383 14.958-.206-.02-.394-.083-.67-.216l-.17-.082-5.578 3.938h-.001zM108.897 30.6l6.205-3.273.053-.072c2.08-2.806 3.09-5.376 3.09-7.854 0-2.102-.852-3.892-1.675-5.623-.772-1.623-1.501-3.155-1.501-4.84 0-1.294 0-2.9 1.569-4.373.927-.316 1.94-.47 3.093-.47 1.991 0 4.068.48 5.699 1.315 1.284.659 2.915 1.854 3.388 3.816l.126.522 5.739-3.721-.033-.293c-.182-1.623-1.503-3.115-3.719-4.201C128.945.558 126.438 0 124.053 0c-3.15 0-6.775 1.268-9.697 3.392-3.255 2.366-5.048 5.332-5.048 8.353 0 2.293.838 4.032 1.647 5.714.786 1.631 1.529 3.172 1.529 5.174 0 2.002-.886 4.177-2.561 6.527l-1.027 1.44h.001z" fill="#fff"/><path d="M120.342 60.494c-.248.08-.482.156-.698.156-1.821 0-2.633-1.835-2.633-5.948 0-7.35 2.862-20.276 4.12-23.998l.363-1.074-6.05 3.685-.038.193c-.588 2.953-2.429 8.884-4.812 14.504-2.507 5.912-4.95 9.954-6.958 11.533.187-2.396 1.116-6.803 2.093-11.438 1.163-5.517 2.365-11.222 2.548-14.557v-.028c0-1.192 0-3.409-1.512-3.409-1.905 0-5.771 2.987-6.91 3.903l-.856.687 2.905.28.328-.211c.197.565.197 1.6.197 1.982 0 3.638-1.42 10.013-2.673 15.637-1.074 4.822-2.002 8.987-2.002 11.072l.003.059c.113.98.532 1.479 1.245 1.479 3.038 0 6.105-2.862 8.144-5.262a37.926 37.926 0 004.262-6.238 41.832 41.832 0 00-.245 4.349c0 2.248.26 3.915.794 5.094.617 1.365 1.601 2.057 2.925 2.057a5.16 5.16 0 002.154-.45l.043-.019 4.073-3.272-.579-.837-.23.073-.001-.002z" fill="#fff"/><path d="M169.321 59.988l-.392.183c-.09.042-.195.044-.36.044-.933 0-2.496-.734-2.496-5.65 0-2.825.426-5.056.928-6.706 1.168-3.84 1.429-7.88.626-11.802-.685-3.35-1.837-6.294-3.793-6.294-1.338 0-2.936.435-4.827 1.32 0 0-12.307 6.174-12.702 28.585l-.161.078c-.104.051-.248.127-.414.215-.38.201-.893.473-1.246.598-1.373-.18-2.07-1.865-2.07-5.006 0-4.93 1.519-12.039 2.738-17.751.639-2.99 1.19-5.572 1.404-7.28l.106-.845-5.835 3.652-.024.22c-.138 1.245-.58 3.214-1.092 5.495-.432 1.923-.918 4.09-1.322 6.266-.93.187-1.954.283-3.046.283-.814 0-1.644-.062-2.459-.132.879-4.514 1.325-8.072 1.325-10.58 0-2.307-.158-4.769-2.042-4.769l-.046.004c-1.346.2-4.226 2.072-6.333 3.727l-.122.096-.577 3.058 2.892-2.168c.171.34.379 1.278.379 3.287 0 1.837-.29 4.117-.731 6.956-.099-.005-.209-.013-.328-.02a17.523 17.523 0 00-1.134-.052h-.11l-5.696 4.435h1.219c1.023 0 2.013.089 2.97.174.793.071 1.55.14 2.313.16-1.095 6.007-2.529 12.493-3.243 14.643l-.355 1.072 6.179-3.801v-.262c0-.794.604-3.276 1.303-6.15.401-1.65.854-3.509 1.264-5.343a21.773 21.773 0 004.741-.846l.07-.02.971-.838c-.65 3.77-1.23 7.326-1.23 10.391 0 1.862.237 3.34.703 4.39.548 1.232 1.406 1.903 2.549 1.995h.025c1.392.001 5.505-2.402 5.546-2.426l.093-.056.816-1.574c.053 2.99 1.485 3.625 2.693 3.625 3.592 0 7.29-2.069 11.004-6.153.094 1.74.314 2.967.694 3.902.607 1.493 1.664 2.251 3.145 2.251 1.611 0 4.049-1.693 5.36-2.603.212-.147.394-.274.526-.36l.282-.185-.681-1.432.003-.001zm-6.958-16.864c-.285 2.722-1.528 6.76-3.203 10.34-1.933 4.125-4.016 6.71-5.44 6.75-1.08-.004-1.308-1.5-1.308-2.757 0-6.142 0-17.92 6.595-23.342 2.342-1.925 3.56 4.328 3.588 6.438 0 0-.052 1.337-.231 2.57h-.001zM94.96 60.173c-.09.042-.195.044-.36.044-.932 0-2.496-.734-2.496-5.65 0-2.825.426-5.057.928-6.706 1.168-3.84 1.428-7.88.626-11.802-.686-3.35-1.838-6.294-3.793-6.294-1.338 0-2.936.435-4.827 1.32 0 0-12.712 6.376-12.712 29.692 0 3.135 1.465 3.793 2.695 3.793 3.592 0 7.29-2.069 11.004-6.153.094 1.74.314 2.967.694 3.902.607 1.493 1.664 2.251 3.145 2.251 1.611 0 4.05-1.693 5.36-2.603.212-.147.395-.274.526-.36l.282-.184-.681-1.433-.392.183zm-6.566-17.047c-.285 2.722-1.528 6.76-3.204 10.34-1.932 4.125-4.015 6.71-5.439 6.75-1.08-.004-1.308-1.501-1.308-2.757 0-6.142 0-17.92 6.595-23.342 2.342-1.925 3.56 4.328 3.588 6.439 0 0-.053 1.336-.231 2.57z" fill="#fff"/></svg>