<svg width="34" height="34" viewBox="0 0 34 34" fill="none" xmlns="http://www.w3.org/2000/svg">
<g id="001-facebook" opacity="0.6" filter="url(#filter0_b_172_3972)">
<g id="_x30_1._Facebook">
<path id="Icon_11_" d="M13.736 18.7678C13.634 18.7678 11.39 18.7678 10.37 18.7678C9.82601 18.7678 9.65601 18.5638 9.65601 18.0538C9.65601 16.6938 9.65601 15.2998 9.65601 13.9398C9.65601 13.3958 9.86001 13.2258 10.37 13.2258H13.736C13.736 13.1238 13.736 11.1518 13.736 10.2338C13.736 8.87384 13.974 7.58184 14.654 6.39184C15.368 5.16784 16.388 4.35184 17.68 3.87584C18.53 3.56984 19.38 3.43384 20.298 3.43384H23.63C24.106 3.43384 24.31 3.63784 24.31 4.11384V7.98984C24.31 8.46584 24.106 8.66984 23.63 8.66984C22.712 8.66984 21.794 8.66984 20.876 8.70384C19.958 8.70384 19.482 9.14584 19.482 10.0978C19.448 11.1178 19.482 12.1038 19.482 13.1578H23.426C23.97 13.1578 24.174 13.3618 24.174 13.9058V18.0198C24.174 18.5638 24.004 18.7338 23.426 18.7338C22.202 18.7338 19.584 18.7338 19.482 18.7338V29.8178C19.482 30.3958 19.312 30.5998 18.7 30.5998C17.272 30.5998 15.878 30.5998 14.45 30.5998C13.94 30.5998 13.736 30.3958 13.736 29.8858C13.736 26.3158 13.736 18.8698 13.736 18.7678Z" fill="#828282"/>
</g>
</g>
<defs>
<filter id="filter0_b_172_3972" x="-4" y="-4" width="42" height="42" filterUnits="userSpaceOnUse" color-interpolation-filters="sRGB">
<feFlood flood-opacity="0" result="BackgroundImageFix"/>
<feGaussianBlur in="BackgroundImageFix" stdDeviation="2"/>
<feComposite in2="SourceAlpha" operator="in" result="effect1_backgroundBlur_172_3972"/>
<feBlend mode="normal" in="SourceGraphic" in2="effect1_backgroundBlur_172_3972" result="shape"/>
</filter>
</defs>
</svg>
