<svg width="211" height="821" viewBox="0 0 211 821" fill="none" xmlns="http://www.w3.org/2000/svg">
<path d="M-33.8425 862.223C-67.7653 883.855 -86.3737 801.994 -81.9245 781.85C-76.3497 756.61 -34.8303 722.094 -15.3156 707.334C17.6054 682.434 47.9751 659.471 86.2461 642.888C109.616 632.761 152.864 621.205 178.298 631.14C191.467 636.284 217.687 649.636 207.091 667.345C176.728 718.09 100.669 697.323 73.8357 655.243C55.3202 626.207 51.214 591.9 64.5502 559.647C83.6653 513.418 105.451 470.868 118.921 422.19C146.993 320.744 25.6379 321.224 -42.2253 325.088C-151.482 331.308 -32.1872 221.262 -10.4866 191.911C13.985 158.812 36.6015 108.701 22.5745 66.7738C13.4919 39.6257 -3.19797 24.3691 -17.9432 1.24566" stroke="white" stroke-opacity="0.11"/>
</svg>
