<svg width="208" height="867" viewBox="0 0 208 867" fill="none" xmlns="http://www.w3.org/2000/svg">
<path d="M244.561 862.223C278.484 883.855 297.092 801.994 292.643 781.85C287.068 756.61 245.549 722.094 226.034 707.334C193.113 682.434 162.744 659.471 124.473 642.888C101.102 632.761 57.8543 621.205 32.4206 631.14C19.252 636.284 -6.96843 649.636 3.62744 667.345C33.9908 718.09 110.05 697.323 136.883 655.243C155.399 626.207 159.505 591.9 146.169 559.647C127.053 513.418 105.268 470.868 91.7978 422.19C63.7254 320.744 185.081 321.224 252.944 325.088C362.201 331.308 242.906 221.262 221.205 191.911C196.734 158.812 174.117 108.701 188.144 66.7738C197.227 39.6257 213.917 24.3691 228.662 1.24566" stroke="white" stroke-opacity="0.21"/>
</svg>
