<svg width="86" height="105" viewBox="0 0 86 105" fill="none" xmlns="http://www.w3.org/2000/svg">
<path fill-rule="evenodd" clip-rule="evenodd" d="M85.6641 62.0681V64.2971C85.6641 64.6686 85.364 64.9746 84.9875 64.9746H75.7494V75.7757H83.8962C84.2672 75.7757 84.5673 76.0762 84.5673 76.4531V78.6822C84.5673 79.0537 84.2672 79.3596 83.8962 79.3596H75.7494V89.5543H84.9875C85.3586 89.5543 85.6641 89.8548 85.6641 90.2318V92.4608C85.6641 92.8323 85.364 93.1328 84.9875 93.1328H72.8519C72.4809 93.1328 72.1753 92.8323 72.1753 92.4608V62.0681C72.1753 61.6966 72.4754 61.3906 72.8519 61.3906H84.9875C85.364 61.3906 85.6641 61.6966 85.6641 62.0681ZM53.7154 92.4444V64.9691H48.9299C48.5588 64.9691 48.2533 64.6686 48.2533 64.2917V62.0681C48.2533 61.6966 48.5534 61.3906 48.9299 61.3906H62.075C62.446 61.3906 62.7516 61.6911 62.7516 62.0681V64.2971C62.7516 64.6686 62.4515 64.9746 62.075 64.9746H57.2895V92.4444C57.2895 92.8159 56.9894 93.1164 56.6129 93.1164H54.392C54.021 93.1164 53.7154 92.8159 53.7154 92.4444ZM30.088 83.0201H35.943L33.0183 69.5365L30.088 83.0201ZM24.3203 92.2423L31.1848 61.9206C31.2558 61.6092 31.534 61.3961 31.8396 61.3961H34.186C34.5243 61.3961 34.8026 61.6474 34.8517 61.9752L41.7162 92.3024C41.798 92.6629 41.5689 93.0235 41.2087 93.1055C41.1596 93.1164 41.1105 93.1219 41.0614 93.1219H38.7532C38.4204 93.1219 38.1421 92.876 38.0875 92.5537L36.7233 86.5986H29.2968L27.9217 92.5974C27.8508 92.9088 27.5725 93.1219 27.2669 93.1219H24.9642C24.5932 93.1219 24.2876 92.8214 24.2876 92.4499C24.2876 92.3734 24.2985 92.3078 24.3203 92.2423ZM3.57412 89.5434H7.35012C7.99401 89.5434 8.56696 89.4396 9.06352 89.232C9.55462 89.0298 9.99661 88.7184 10.3731 88.3086C10.7551 87.8934 11.0443 87.4127 11.2353 86.8663C11.4317 86.3036 11.5299 85.6698 11.5299 84.9487V69.5584C11.5299 68.1543 11.1425 67.0288 10.3731 66.1929C9.99661 65.7832 9.56007 65.4772 9.06352 65.2751C8.5615 65.0675 7.98855 64.9691 7.34467 64.9691H3.56866V89.5434H3.57412ZM0 92.4444V62.0681C0 61.6966 0.300115 61.3906 0.676625 61.3906H7.35012C8.49602 61.3906 9.53825 61.5764 10.4822 61.9534C11.4317 62.3303 12.2666 62.8985 12.9814 63.6579L13.0141 63.6962C13.7126 64.4446 14.231 65.3079 14.5802 66.2803C14.9294 67.2583 15.104 68.3564 15.104 69.5584V84.9487C15.104 86.1452 14.9294 87.2378 14.5802 88.2158C14.2255 89.2046 13.6908 90.0842 12.9814 90.8382C12.2666 91.5976 11.4372 92.1712 10.4877 92.5482C9.54916 92.9252 8.50694 93.1164 7.35558 93.1164H0.682083C0.300116 93.1164 0 92.8159 0 92.4444Z" fill="white"/>
<path fill-rule="evenodd" clip-rule="evenodd" d="M2.2536 98.7276H0V97.9081H5.43483V98.7276H3.18124V104.491H2.2536V98.7276ZM6.65713 98.5473C6.48251 98.5473 6.33519 98.4926 6.2206 98.3779C6.10601 98.2632 6.04598 98.1266 6.04598 97.9627C6.04598 97.7988 6.10601 97.6622 6.2206 97.542C6.33519 97.4273 6.48251 97.3672 6.65713 97.3672C6.83174 97.3672 6.97907 97.4218 7.09366 97.5311C7.20825 97.6404 7.26827 97.7769 7.26827 97.9408C7.26827 98.1102 7.20825 98.2523 7.09366 98.367C6.97907 98.4926 6.83174 98.5473 6.65713 98.5473ZM6.20423 99.5088H7.10457V104.491H6.20423V99.5088ZM15.0495 99.4597C15.677 99.4597 16.1735 99.6399 16.5391 100.006C16.9047 100.367 17.0903 100.907 17.0903 101.623V104.491H16.1899V101.727C16.1899 101.246 16.0808 100.88 15.8571 100.634C15.6333 100.388 15.3169 100.268 14.9021 100.268C14.4438 100.268 14.0836 100.41 13.8108 100.694C13.5434 100.978 13.407 101.388 13.407 101.924V104.491H12.5067V101.727C12.5067 101.246 12.3975 100.88 12.1738 100.634C11.9501 100.388 11.6336 100.268 11.2189 100.268C10.7605 100.268 10.4004 100.41 10.1276 100.694C9.86019 100.978 9.72377 101.388 9.72377 101.924V104.491H8.82342V99.5088H9.68558V100.252C9.86565 99.9951 10.1057 99.7984 10.4004 99.6618C10.6951 99.5252 11.0279 99.4597 11.4044 99.4597C11.7918 99.4597 12.1356 99.5361 12.4357 99.6946C12.7359 99.853 12.9705 100.082 13.1287 100.383C13.3143 100.093 13.5762 99.8694 13.9145 99.7055C14.2528 99.5416 14.6293 99.4597 15.0495 99.4597ZM20.8117 100.219C20.3806 100.219 20.0205 100.35 19.7258 100.612C19.4366 100.875 19.262 101.219 19.2129 101.645H22.4051C22.3559 101.224 22.1868 100.88 21.8921 100.618C21.6084 100.356 21.2482 100.219 20.8117 100.219ZM23.2727 102.027C23.2727 102.098 23.2672 102.186 23.2563 102.301H19.2184C19.2729 102.738 19.4694 103.093 19.7968 103.361C20.1242 103.628 20.5334 103.759 21.0191 103.759C21.6138 103.759 22.094 103.557 22.4542 103.158L22.9507 103.743C22.727 104.005 22.4433 104.207 22.1104 104.344C21.7775 104.48 21.401 104.552 20.9863 104.552C20.4625 104.552 19.9932 104.442 19.5894 104.229C19.1856 104.011 18.8691 103.71 18.6454 103.322C18.4217 102.934 18.3126 102.497 18.3126 102.006C18.3126 101.525 18.4217 101.088 18.6345 100.7C18.8473 100.312 19.1474 100.011 19.5239 99.7929C19.9004 99.5744 20.3315 99.4706 20.8063 99.4706C21.281 99.4706 21.7066 99.5799 22.0777 99.7929C22.4487 100.011 22.7434 100.312 22.9507 100.7C23.169 101.082 23.2727 101.525 23.2727 102.027ZM27.6871 102.76C27.447 102.76 27.2451 102.678 27.0814 102.514C26.9177 102.35 26.8304 102.142 26.8304 101.891C26.8304 101.65 26.9177 101.448 27.0814 101.284C27.2506 101.121 27.4525 101.033 27.6816 101.033C27.9108 101.033 28.1127 101.115 28.2764 101.284C28.4401 101.448 28.522 101.65 28.522 101.891C28.522 102.142 28.4401 102.35 28.2764 102.514C28.1182 102.678 27.9163 102.76 27.6871 102.76ZM59.8541 102.76C59.614 102.76 59.4121 102.678 59.2484 102.514C59.0847 102.35 58.9974 102.142 58.9974 101.891C58.9974 101.65 59.0793 101.448 59.2484 101.284C59.4176 101.121 59.6195 101.033 59.8487 101.033C60.0779 101.033 60.2797 101.115 60.4434 101.284C60.6071 101.448 60.6945 101.65 60.6945 101.891C60.6945 102.142 60.6071 102.35 60.4434 102.514C60.2852 102.678 60.0888 102.76 59.8541 102.76ZM33.6294 98.7276V101.022H36.9252V101.831H33.6294V104.491H32.6909V97.9081H37.329V98.7276H33.6294ZM40.4939 103.754C40.8158 103.754 41.0996 103.677 41.3506 103.535C41.6016 103.388 41.8035 103.18 41.9454 102.913C42.0872 102.645 42.1636 102.339 42.1636 101.995C42.1636 101.65 42.0872 101.345 41.9454 101.077C41.8035 100.815 41.6016 100.602 41.3506 100.459C41.0996 100.317 40.8104 100.241 40.4939 100.241C40.1774 100.241 39.8882 100.312 39.6372 100.459C39.3862 100.602 39.1843 100.809 39.037 101.077C38.8896 101.345 38.8187 101.65 38.8187 101.995C38.8187 102.339 38.8951 102.645 39.037 102.913C39.1843 103.18 39.3862 103.388 39.6372 103.535C39.8882 103.683 40.1774 103.754 40.4939 103.754ZM40.4939 104.546C39.9973 104.546 39.5553 104.437 39.1625 104.218C38.7696 104 38.4586 103.699 38.2403 103.311C38.0166 102.923 37.9074 102.486 37.9074 102C37.9074 101.514 38.0166 101.077 38.2403 100.689C38.464 100.301 38.7696 100.001 39.1625 99.7875C39.5553 99.5689 40.0028 99.4651 40.4939 99.4651C40.9904 99.4651 41.4324 99.5744 41.8199 99.7875C42.2073 100.001 42.5183 100.306 42.742 100.689C42.9658 101.077 43.0749 101.514 43.0749 102C43.0749 102.492 42.9658 102.923 42.742 103.311C42.5183 103.699 42.2127 104 41.8199 104.218C41.4324 104.437 40.9904 104.546 40.4939 104.546ZM46.458 103.754C46.78 103.754 47.0637 103.677 47.3147 103.535C47.5657 103.388 47.7676 103.18 47.9095 102.913C48.0514 102.645 48.1278 102.339 48.1278 101.995C48.1278 101.65 48.0514 101.345 47.9095 101.077C47.7676 100.815 47.5657 100.602 47.3147 100.459C47.0637 100.317 46.7745 100.241 46.458 100.241C46.1415 100.241 45.8523 100.312 45.6013 100.459C45.3503 100.602 45.1484 100.809 45.0011 101.077C44.8538 101.345 44.7828 101.65 44.7828 101.995C44.7828 102.339 44.8592 102.645 45.0011 102.913C45.1484 103.18 45.3503 103.388 45.6013 103.535C45.8523 103.683 46.1361 103.754 46.458 103.754ZM46.458 104.546C45.9615 104.546 45.5195 104.437 45.1266 104.218C44.7337 104 44.4227 103.694 44.2044 103.311C43.9862 102.929 43.8716 102.486 43.8716 102C43.8716 101.514 43.9862 101.071 44.2044 100.689C44.4227 100.306 44.7337 100.001 45.1266 99.7875C45.5195 99.5689 45.9669 99.4651 46.458 99.4651C46.9546 99.4651 47.3966 99.5744 47.784 99.7875C48.1714 100.001 48.4824 100.306 48.7062 100.689C48.9244 101.071 49.039 101.514 49.039 102C49.039 102.492 48.9244 102.929 48.7062 103.311C48.4879 103.694 48.1769 104 47.784 104.218C47.3966 104.437 46.9491 104.546 46.458 104.546ZM52.4167 103.754C52.7277 103.754 53.0169 103.677 53.2734 103.535C53.5299 103.388 53.7318 103.18 53.8736 102.913C54.0155 102.645 54.0919 102.339 54.0919 101.995C54.0919 101.65 54.0155 101.345 53.8736 101.077C53.7318 100.815 53.5299 100.602 53.2734 100.459C53.0169 100.317 52.7332 100.241 52.4167 100.241C52.1002 100.241 51.811 100.312 51.56 100.459C51.309 100.602 51.1071 100.809 50.9598 101.077C50.8124 101.345 50.7415 101.65 50.7415 101.995C50.7415 102.339 50.8124 102.645 50.9598 102.913C51.1071 103.18 51.309 103.388 51.56 103.535C51.811 103.683 52.1002 103.754 52.4167 103.754ZM54.9813 97.5147V104.491H54.1192V103.699C53.9173 103.972 53.6663 104.185 53.3607 104.328C53.0551 104.47 52.7168 104.546 52.3458 104.546C51.8656 104.546 51.4345 104.442 51.0471 104.229C50.6651 104.016 50.365 103.716 50.1522 103.333C49.9394 102.951 49.8302 102.503 49.8302 102C49.8302 101.497 49.9394 101.055 50.1522 100.673C50.365 100.29 50.6706 99.9896 51.0471 99.782C51.429 99.5689 51.8601 99.4597 52.3458 99.4597C52.7004 99.4597 53.0333 99.5252 53.3334 99.6618C53.6335 99.7984 53.8845 99.9951 54.0864 100.257V97.5147H54.9813ZM64.8579 97.9081H65.7964V103.672H69.3542V104.491H64.8579V97.9081ZM72.3717 103.754C72.6937 103.754 72.9774 103.683 73.2284 103.535C73.4794 103.388 73.6813 103.18 73.8232 102.913C73.9651 102.65 74.0415 102.339 74.0415 101.995C74.0415 101.65 73.9705 101.345 73.8232 101.077C73.6813 100.809 73.4794 100.607 73.2284 100.459C72.9774 100.317 72.6882 100.241 72.3717 100.241C72.0552 100.241 71.766 100.317 71.515 100.459C71.264 100.602 71.0566 100.809 70.9148 101.077C70.7674 101.339 70.6965 101.65 70.6965 101.995C70.6965 102.339 70.7674 102.645 70.9148 102.913C71.0621 103.18 71.264 103.388 71.515 103.535C71.766 103.677 72.0498 103.754 72.3717 103.754ZM72.3717 104.546C71.8752 104.546 71.4332 104.431 71.0403 104.218C70.6474 104 70.3364 103.694 70.1126 103.311C69.8944 102.929 69.7798 102.486 69.7798 102C69.7798 101.514 69.8944 101.071 70.1126 100.689C70.3309 100.306 70.6474 100.001 71.0403 99.7875C71.4332 99.5744 71.8806 99.4651 72.3717 99.4651C72.8683 99.4651 73.3103 99.5744 73.6977 99.7875C74.0851 100.001 74.3961 100.306 74.6199 100.689C74.8381 101.071 74.9527 101.514 74.9527 102C74.9527 102.492 74.8381 102.929 74.6199 103.311C74.4016 103.694 74.0906 104 73.6977 104.218C73.3103 104.431 72.8683 104.546 72.3717 104.546ZM80.4639 99.5088L78.2867 104.491H77.3646L75.1874 99.5088H76.1259L77.8338 103.503L79.58 99.5088H80.4639ZM83.2032 100.219C82.7721 100.219 82.412 100.35 82.1173 100.612C81.8281 100.875 81.6535 101.219 81.6044 101.645H84.7965C84.7474 101.224 84.5783 100.88 84.2836 100.618C83.9999 100.356 83.6397 100.219 83.2032 100.219ZM85.6641 102.027C85.6641 102.098 85.6587 102.186 85.6478 102.301H81.6098C81.6644 102.738 81.8608 103.093 82.1882 103.361C82.5156 103.628 82.9249 103.759 83.416 103.759C84.0108 103.759 84.491 103.557 84.8511 103.158L85.3477 103.743C85.1239 104.005 84.8402 104.207 84.5073 104.344C84.1745 104.48 83.798 104.552 83.3833 104.552C82.8594 104.552 82.3901 104.442 81.9864 104.229C81.5826 104.016 81.2606 103.71 81.0423 103.322C80.8241 102.934 80.7095 102.497 80.7095 102.006C80.7095 101.525 80.8186 101.088 81.0314 100.7C81.2442 100.312 81.5444 100.011 81.9209 99.7929C82.2974 99.5744 82.7284 99.4706 83.2032 99.4706C83.6779 99.4706 84.1035 99.5799 84.4746 99.7929C84.8456 100.006 85.1403 100.312 85.3477 100.7C85.5605 101.082 85.6641 101.525 85.6641 102.027Z" fill="white"/>
<path fill-rule="evenodd" clip-rule="evenodd" d="M43.7501 38.4275V36.8322C43.7501 36.3023 43.3191 35.8707 42.7898 35.8707C42.2605 35.8707 41.8294 36.3023 41.8294 36.8322V38.4275C31.8437 34.5485 26.1579 27.6811 23.6096 21.3436H25.263C25.7923 21.3436 26.2233 20.912 26.2233 20.382C26.2233 19.8521 25.7923 19.4205 25.263 19.4205H22.933C22.5073 18.0437 22.2291 16.7161 22.0872 15.465C21.5142 10.3567 23.1021 6.06799 26.3379 3.98644C28.4715 2.61514 30.605 1.92129 32.6895 1.92129C37.2076 1.92129 40.4652 5.12282 41.8348 6.76183V8.57567C41.8348 9.10562 42.2659 9.53722 42.7952 9.53722C43.3245 9.53722 43.7556 9.10562 43.7556 8.57567V6.76183C45.1252 5.12282 48.3828 1.92129 52.901 1.92129C54.9854 1.92129 57.119 2.61514 59.2525 3.98644C62.4883 6.06799 64.0762 10.3622 63.5032 15.465C63.3668 16.7161 63.0831 18.0437 62.6575 19.4205H60.322C59.7927 19.4205 59.3616 19.8521 59.3616 20.382C59.3616 20.912 59.7927 21.3436 60.322 21.3436H61.9754C59.4217 27.6811 53.7358 34.5431 43.7501 38.4275ZM23.6805 3.65318C22.5565 4.75678 21.6725 6.14447 21.0559 7.73431C21.0122 7.84358 20.974 7.95831 20.9304 8.06758L20.9249 8.08397L20.9195 8.10036C20.5702 9.12201 19.7081 12.176 20.2428 16.208C20.4338 17.5957 20.783 19.0763 21.296 20.5896C21.3123 20.6606 21.3342 20.7262 21.3669 20.7918C23.053 25.6651 26.458 30.9427 32.0456 35.1823C31.4399 36.2422 30.2885 38.2691 29.1918 40.3014C28.2532 42.0333 27.5329 43.432 27.0473 44.4591C26.3652 45.9014 25.7759 47.1525 26.7417 47.7316C26.889 47.819 27.0309 47.9065 27.2328 47.9065C28.0459 47.9065 29.8793 46.5242 37.3549 38.5149C38.8119 39.2634 40.367 39.9518 42.0367 40.5582C42.1459 40.5965 42.255 40.6347 42.3641 40.673L42.8007 40.8259L43.5591 40.5582C45.2289 39.9518 46.784 39.2634 48.241 38.5149C55.7166 46.5242 57.55 47.9065 58.3631 47.9065C58.565 47.9065 58.7068 47.8245 58.8487 47.7316C59.8145 47.1525 59.2252 45.9014 58.5431 44.4591C58.0575 43.432 57.3372 42.0333 56.3987 40.3014C55.2964 38.2691 54.1505 36.2422 53.5448 35.1823C59.1325 30.9427 62.5374 25.6651 64.2235 20.7918C64.2563 20.7262 64.2781 20.6606 64.2945 20.5896C64.8074 19.0708 65.1512 17.5957 65.3421 16.208C65.8714 12.2033 65.0202 9.16025 64.671 8.12221C64.0707 6.40671 63.1595 4.91522 61.9699 3.7242C60.8349 2.58782 59.258 1.64812 57.8065 1.04169C52.3662 -1.21468 47.0842 0.244036 42.7898 4.93707C41.2128 3.21611 38.3044 0.702959 34.3647 0.118378C32.1711 -0.20396 29.9939 0.151159 27.9367 0.981591C26.4689 1.56617 24.8264 2.52226 23.6805 3.65318ZM56.0876 43.8308C55.04 41.7766 53.5066 38.9902 51.9733 36.3132C51.3349 36.7448 50.6692 37.16 49.9762 37.5643C52.1479 39.8753 54.407 42.1972 56.0876 43.8308ZM29.4973 43.8308C31.178 42.2027 33.437 39.8753 35.6033 37.5643C34.9103 37.16 34.2446 36.7448 33.6062 36.3132C32.0783 38.9902 30.545 41.7766 29.4973 43.8308Z" fill="white"/>
<path fill-rule="evenodd" clip-rule="evenodd" d="M43.0675 20.7198C42.7947 20.7198 42.5328 20.769 42.2927 20.8618C40.3337 19.8074 40.0118 19.6599 40.0118 19.6599C40.0118 19.6599 38.8222 18.895 38.3039 17.8788C38.2875 17.8461 38.2602 17.7969 38.2438 17.7641V17.7587C38.2329 17.7204 38.2275 17.6767 38.2166 17.6385L38.1674 17.409C38.1456 17.3216 38.102 17.2396 38.031 17.1795L37.8128 16.9883C37.7636 16.9446 37.6982 16.9337 37.6381 16.9501C37.1798 16.4966 33.8021 13.1749 26.5611 7.14879C26.5011 7.09962 26.4192 7.07777 26.3429 7.08869C26.2665 7.09962 26.201 7.13787 26.1628 7.19796C25.9391 7.5203 25.9281 8.24147 27.1668 9.85862C28.7274 11.8965 31.8213 14.7757 36.3558 18.4088C36.3449 18.4689 36.3667 18.5345 36.4159 18.5782L36.6341 18.7694C36.6996 18.8295 36.7869 18.8677 36.8742 18.8732C36.9943 18.8841 37.1089 18.895 37.2234 18.9114C38.0529 19.1409 38.7022 19.7637 39.3406 20.4138C39.3406 20.4138 39.5698 20.7307 40.9012 22.6101C40.8903 22.7085 40.8794 22.8013 40.8794 22.8997C40.8794 24.1071 41.8561 25.0905 43.0675 25.0905C44.2734 25.0905 45.2556 24.1125 45.2556 22.8997C45.2556 22.856 45.2556 22.8177 45.2502 22.774C47.0291 20.4576 49.0917 18.4634 49.0917 18.4634C49.0917 18.4634 52.3493 15.4968 53.4024 15.2237C53.4024 15.2237 54.3464 15.9284 55.1868 15.2127L59.8249 11.2572C60.1632 10.9732 60.4415 10.6235 60.6489 10.2356C60.2342 10.3776 59.8468 10.5962 59.5084 10.8857L54.974 14.7483C54.8594 14.8467 54.6848 14.8358 54.5865 14.7156C54.4883 14.6008 54.4992 14.426 54.6193 14.3277L59.1538 10.4651C59.4921 10.181 59.7704 9.83131 59.9777 9.44341C59.563 9.58546 59.1756 9.80945 58.8373 10.0935L54.3028 13.9561C54.1882 14.0545 54.0081 14.0436 53.9099 13.9234C53.8117 13.8032 53.8226 13.6283 53.9427 13.53L58.4771 9.66741C58.8155 9.38331 59.0937 9.03365 59.3011 8.64576C58.8864 8.7878 58.499 9.0118 58.1607 9.2959L53.6262 13.1585C53.5116 13.2568 53.337 13.2459 53.2387 13.1257C53.1405 13.011 53.1514 12.8362 53.2715 12.7378L57.806 8.87522C58.1443 8.59112 58.4226 8.24147 58.6299 7.85357C58.2152 7.99561 57.8278 8.21415 57.4895 8.50371L52.8513 12.4592C52.011 13.1749 52.5567 14.2239 52.5567 14.2239C52.1147 15.2237 48.6715 17.9663 48.6715 17.9663C48.6715 17.9663 46.6744 19.496 44.0879 20.9602C43.7769 20.8127 43.4331 20.7198 43.0675 20.7198Z" fill="white"/>
</svg>
