<svg width="74" height="73" viewBox="0 0 74 73" fill="none" xmlns="http://www.w3.org/2000/svg">
<path d="M43.1328 14.7921C40.2707 14.1786 38.1242 12.5435 36.4884 10.09C35.6706 8.86351 34.6484 7.73862 33.5241 6.92139C31.4797 5.49001 29.3327 4.26351 27.0841 3.13927C20.2354 -0.132115 13.1815 -0.949337 5.92406 1.40139C5.8219 1.40139 5.61757 1.50356 5.5154 1.60573C4.69756 2.32139 5.10673 3.54785 6.23106 3.6501H6.53756C9.60405 3.34361 12.5689 3.54793 15.4311 4.97871C20.6446 7.73871 21.8711 12.3387 18.5997 17.2452C17.9862 18.1652 17.3732 18.9831 16.7597 19.9031C16.351 20.5166 16.351 21.1296 16.5553 21.7431C16.7597 22.1517 16.7597 22.5609 16.4532 22.8674C11.4435 30.2279 6.43477 37.4862 1.42564 44.7437C1.42564 44.8459 1.32347 44.8459 1.32347 44.948C0.50563 45.9702 0.607803 47.2994 1.42564 48.2194C2.65213 49.548 3.98126 50.6729 5.71914 51.2859C6.94564 51.6946 7.66126 51.5924 8.58126 50.3659C13.6927 42.9038 18.9056 35.4422 24.0175 27.9797C24.2219 27.6732 24.5289 27.4683 24.9376 27.4683C25.3462 27.4683 25.7554 27.264 26.0619 26.957C26.9819 26.037 27.9019 25.117 28.924 24.6056C30.3554 23.7878 32.0926 23.1742 33.6261 23.3791C34.6483 23.4813 35.5682 24.2991 36.4882 25.117C37.1017 25.6283 37.9196 25.5257 38.4304 24.8105L44.0525 16.837C44.4617 16.1219 44.053 14.9975 43.133 14.7932L43.1328 14.7921Z" fill="#3F4D34"/>
<path d="M46.8132 16.1209C47.2219 15.5074 48.0397 15.4052 48.6532 15.8144C48.9597 16.0187 49.2667 16.2231 49.5732 16.4279C50.6976 17.3479 51.0046 18.4723 50.1867 19.6993C47.9381 22.9707 45.7911 26.1393 43.4403 29.3079C42.3159 30.8414 41.1916 30.7393 39.2489 29.2058C38.7375 28.7971 38.6354 27.9793 39.0445 27.4679L46.8132 16.1209Z" fill="#3F4D34"/>
<path d="M70.7329 53.5347H53.1504C51.719 53.5347 50.5947 52.4103 50.5947 50.979V43.2104C50.5947 41.779 51.7191 40.6548 53.1504 40.6548H70.7329C72.1643 40.6548 73.2885 41.7791 73.2885 43.2104V50.979C73.288 52.4104 72.1637 53.5347 70.7329 53.5347Z" fill="#3F4D34"/>
<path d="M42.519 53.5347H24.9365C23.5051 53.5347 22.3809 52.4103 22.3809 50.979V43.2104C22.3809 41.779 23.5052 40.6548 24.9365 40.6548H42.519C43.9504 40.6548 45.0746 41.7791 45.0746 43.2104V50.979C45.0746 52.4104 43.9503 53.5347 42.519 53.5347Z" fill="#3F4D34"/>
<path d="M54.9907 72.0372H37.4082C35.9768 72.0372 34.8525 70.9129 34.8525 69.4816V61.713C34.8525 60.2816 35.9769 59.1573 37.4082 59.1573H54.9907C56.4221 59.1573 57.5463 60.2817 57.5463 61.713V69.4816C57.5463 70.913 56.422 72.0372 54.9912 72.0372H54.9907Z" fill="#3F4D34"/>
<path d="M27.9018 72.0372H10.3193C8.88791 72.0372 7.76367 70.9129 7.76367 69.4816V61.713C7.76367 60.2816 8.888 59.1573 10.3193 59.1573H27.9018C29.3332 59.1573 30.4574 60.2817 30.4574 61.713V69.4816C30.4574 70.913 29.3331 72.0372 27.9018 72.0372Z" fill="#3F4D34"/>
</svg>
