<svg width="35" height="33" fill="none" xmlns="http://www.w3.org/2000/svg"><path d="M17.348 32.59H8.984c-5.168-.013-8.967-3.564-8.977-8.4-.01-5.261-.01-10.522 0-15.783.01-4.837 3.809-8.4 8.977-8.4a5586.51 5586.51 0 0116.865 0c5.168.008 8.976 3.563 8.976 8.4.011 5.26.011 10.522 0 15.783-.01 4.836-3.808 8.387-8.976 8.4-2.835.008-5.668 0-8.5 0zM5.761 9.934c.165.567.272 1.159.508 1.696 3.064 6.893 8.423 11.62 15.713 14.51.67.265 1.36.445 2.107.206 1.439-.464 2.528-1.304 3.201-2.583.466-.88.342-1.615-.473-2.218a45.009 45.009 0 00-3.464-2.341c-1.015-.614-1.95-.538-2.697.081-.229.205-.44.427-.631.662-.597.685-1.157.848-2.04.554a8.377 8.377 0 01-.928-.39c-2.085-.997-3.672-2.455-4.652-4.456-.58-1.182-.387-1.864.724-2.64.09-.063.188-.119.272-.185.816-.61.969-1.193.512-2.063a12.156 12.156 0 00-3.08-3.84 2.329 2.329 0 00-1.34-.496c-1.87-.006-3.637 1.731-3.732 3.503zm21.595 5.473c-.11-4.024-2.978-7.63-6.961-8.782-1.042-.302-2.176-.364-3.264-.463-.195-.018-.426.325-.64.509.187.166.347.422.568.482.496.127 1.025.155 1.537.255 3.69.678 6.282 2.516 7.192 6.071.21.82.28 1.672.477 2.497.047.204.341.355.522.531.19-.188.445-.35.551-.574.091-.209.018-.474.018-.526zm-2.673-1.012a9.364 9.364 0 00-.15-.991c-.669-2.673-3.479-4.777-6.475-4.86-.391-.011-.68.09-.748.476-.08.425.236.541.588.637.849.212 1.713.382 2.539.662a4.07 4.07 0 011.594.94c.444.427.774.947.962 1.516.212.6.36 1.22.516 1.837.101.4-.082 1.018.68.93.724-.08.395-.677.494-1.147zM18.76 10.96c-.117.093-.521.254-.62.522-.173.472.337.523.673.581 1.24.22 1.964.882 2.15 2.06.054.346.16.7.649.664.529-.04.544-.435.555-.802.01-1.37-1.688-2.997-3.407-3.019v-.006z" fill="#D9D9D9"/></svg>