<svg width="1058" height="1284" viewBox="0 0 1058 1284" fill="none" xmlns="http://www.w3.org/2000/svg">
<g style="mix-blend-mode:multiply">
<g style="mix-blend-mode:multiply">
<path d="M1019.03 393.084C1000.56 442.442 979.145 490.648 954.902 537.441C944.202 558.25 932.463 579.204 914.855 594.654C869.982 634.169 801.11 626.579 743.786 609.379C690.956 593.44 640.208 571.271 592.612 543.341C545.505 515.697 500.829 482.103 448.579 466.201C396.328 450.298 332.327 456.67 297.589 498.86C276.913 523.94 269.713 558.172 272.313 590.573C274.913 622.974 286.465 653.914 299.929 683.68C315.34 717.562 333.883 752.131 332.029 789.418C330.117 827.919 304.015 864.144 268.131 878.144C217.077 898.064 160.813 874.235 108.635 857.462C42.3089 836.252 -30.5589 826.923 -96.5163 849.153C-162.474 871.383 -218.996 931.003 -221.56 1000.6" stroke="white" stroke-miterlimit="10"/>
</g>
<g style="mix-blend-mode:multiply">
<path d="M1008.32 381.247C990.295 429.495 969.291 476.577 945.433 522.223C934.801 542.5 923.33 562.929 906.182 578.078C862.334 616.785 795.643 610.579 739.784 594.889C726.518 591.154 713.377 587.022 700.362 582.492C662.879 569.424 626.622 553.075 592.01 533.636C545.85 507.635 501.951 475.923 450.818 460.967C399.685 446.01 338.856 453.374 302.926 492.107C289.605 506.077 279.594 522.865 273.631 541.227C269.687 553.822 267.5 566.901 267.131 580.094C266.967 586.24 267.144 592.39 267.662 598.516C269.752 623.285 277.829 648.311 287.1 672.31C288.014 674.67 288.946 677.052 289.899 679.418C304.482 716.295 320.028 754.077 316.142 792.682C312.398 829.884 287.949 865.083 252.952 878.878C203.186 898.584 148.456 876.496 97.7982 861.581C93.7911 860.394 89.7706 859.259 85.7368 858.175C24.7428 841.82 -40.62 836.787 -99.7381 858.262C-162.724 881.178 -216.323 939.696 -217.748 1007.46" stroke="#F9F9F9" stroke-miterlimit="10"/>
</g>
<g style="mix-blend-mode:multiply">
<path d="M997.621 369.372C980.048 416.517 959.448 462.476 935.949 506.963C925.504 526.724 914.206 546.595 897.477 561.438C854.752 599.35 790.152 594.456 735.73 580.333C722.826 576.992 710.015 573.249 697.296 569.105C660.739 557.172 625.301 542.048 591.391 523.909C546.16 499.69 503.042 469.821 453.022 455.689C403.003 441.557 345.043 449.933 308.245 485.331C293.409 499.619 280.926 513.972 273.005 531.399C267.466 543.519 263.741 556.389 261.95 569.595C261.097 575.875 260.671 582.206 260.673 588.543C260.656 614.44 268.379 641.581 277.179 667.521C278.045 670.095 278.934 672.652 279.803 675.206C293.565 715.019 306.217 755.829 300.156 795.933C294.809 831.767 271.822 865.874 237.737 879.587C189.199 899.072 136.028 878.848 86.8852 865.67C83.0185 864.635 79.1459 863.646 75.2672 862.702C16.1632 848.433 -46.6025 845.278 -102.963 867.392C-163.028 890.926 -213.492 948.41 -214.035 1014.31" stroke="#F4F4F4" stroke-miterlimit="10"/>
</g>
<g style="mix-blend-mode:multiply">
<path d="M986.916 357.516C969.79 403.555 949.594 448.391 926.462 491.722C916.205 510.967 905.057 530.297 888.782 544.879C847.158 582.013 784.67 578.413 731.703 565.881C719.124 562.915 706.643 559.556 694.26 555.802C658.607 545.019 623.974 531.112 590.764 514.24C546.47 491.744 504.134 463.717 455.257 450.494C406.379 437.271 350.901 446.409 313.575 478.636C297.333 492.662 282.523 505.052 272.411 521.634C265.258 533.24 259.983 545.904 256.782 559.157C255.249 565.565 254.217 572.083 253.694 578.652C251.57 605.676 258.946 635.034 267.264 662.832L269.726 671.157C282.632 714.022 292.522 757.616 284.271 799.497C277.542 833.951 255.766 867.054 222.581 880.604C175.394 899.704 123.755 881.399 76.085 869.974C72.3358 869.061 68.5659 868.205 64.7752 867.406C7.56362 855.204 -52.6297 853.963 -106.207 876.678C-163.357 900.871 -210.684 957.3 -210.163 1021.31" stroke="#EEEEEE" stroke-miterlimit="10"/>
</g>
<g style="mix-blend-mode:multiply">
<path d="M976.191 345.657C959.524 390.59 939.744 434.305 916.996 476.484C906.889 495.188 895.93 513.982 880.083 528.199C839.602 564.541 779.285 562.244 727.671 551.308C715.445 548.708 703.295 545.732 691.22 542.378C656.466 532.742 622.632 520.05 590.114 504.449C546.796 483.68 505.199 457.511 457.422 445.211C409.645 432.911 356.431 442.643 318.855 471.856C301.074 485.562 284.051 496.044 271.768 511.784C262.999 522.828 256.169 535.282 251.568 548.614C249.358 555.152 247.736 561.874 246.723 568.701C242.492 596.854 249.506 628.386 257.33 658.142L259.666 666.971C271.724 712.827 278.836 759.183 268.351 802.857C260.432 835.856 239.678 868.01 207.412 881.419C161.487 900.503 111.277 883.984 65.2204 874.309C61.5968 873.559 57.9485 872.846 54.2753 872.169C-1.02407 862.036 -58.6425 862.691 -109.44 886.026C-163.597 910.747 -207.961 966.079 -206.371 1028.33" stroke="#E9E9E9" stroke-miterlimit="10"/>
</g>
<g style="mix-blend-mode:multiply">
<path d="M965.485 333.801C949.278 377.627 929.902 420.214 907.512 461.224C897.586 479.451 886.782 497.665 871.392 511.601C832.035 547.148 773.732 546.132 723.654 536.776C711.749 534.579 699.928 531.992 688.191 529.015C654.367 520.514 621.359 509.04 589.553 494.729C547.135 475.658 506.354 451.376 459.735 439.867C413.116 428.357 361.87 438.645 324.286 464.994C304.95 478.499 285.727 486.974 271.25 501.89C260.903 512.354 252.536 524.608 246.555 538.056C243.648 544.679 241.413 551.578 239.884 558.647C233.557 587.849 240.221 621.618 247.626 653.221C248.356 656.331 249.084 659.461 249.809 662.61C261.018 711.459 265.522 760.499 252.637 806.023C243.692 837.668 223.793 868.792 192.428 882.038C147.789 900.928 99.1004 886.248 54.5735 878.352C51.0526 877.736 47.5463 877.161 43.9956 876.621C-9.41382 868.574 -64.4351 871.106 -112.432 895.065C-163.752 920.574 -204.981 974.872 -202.366 1035.24" stroke="#E3E3E3" stroke-miterlimit="10"/>
</g>
<g style="mix-blend-mode:multiply">
<path d="M954.779 321.945C939.017 364.665 920.045 406.129 898.025 445.983C888.27 463.672 877.672 481.372 862.704 494.983C824.47 529.734 768.258 530.031 719.614 522.262C708.07 520.425 696.554 518.211 685.141 515.67C652.242 508.28 620.057 498.012 588.956 484.984C547.481 467.597 507.475 445.197 461.952 434.65C416.428 424.104 366.981 434.564 329.62 458.26C308.632 471.551 287.329 478.015 270.658 492.106C258.692 501.933 248.729 513.973 241.313 527.569C237.711 534.281 234.854 541.367 232.792 548.701C224.348 579.109 230.662 614.954 237.541 648.45C238.232 651.762 238.901 655.091 239.572 658.401C249.948 710.284 251.929 761.959 236.56 809.363C226.635 839.619 207.525 869.745 177.02 882.842C133.649 901.516 86.4801 888.695 43.4854 882.559C40.0818 882.118 36.6782 881.676 33.2746 881.235C-18.2226 875.258 -70.6792 879.764 -115.945 904.257C-164.211 930.442 -202.5 983.66 -198.845 1042.18" stroke="#DEDEDE" stroke-miterlimit="10"/>
</g>
<g style="mix-blend-mode:multiply">
<path d="M944.015 310.082C928.7 351.696 910.131 392.039 888.48 430.735C878.892 447.905 868.487 465.05 853.966 478.298C816.855 512.255 762.733 513.863 715.543 507.684C704.329 506.23 693.144 504.399 682.041 502.239C650.059 495.995 618.685 486.957 588.281 475.229C547.74 459.585 508.518 439.007 464.196 429.377C419.874 419.747 367.606 424.037 334.959 451.487C310.291 460.297 288.914 469.034 270.055 482.26C256.537 491.471 245.003 503.301 236.136 517.051C231.851 523.843 228.389 531.12 225.823 538.731C215.272 570.267 221.244 608.289 227.637 643.683L229.515 654.195C239.043 709.07 238.632 763.457 220.644 812.703C210.098 841.577 191.46 870.684 161.893 883.642C119.812 902.084 74.1604 891.14 32.7005 886.745C29.4347 886.321 26.1433 886.094 22.8151 885.843C-26.8118 881.95 -76.6609 888.255 -119.179 913.464C-164.488 940.293 -199.74 992.464 -195.065 1049.13" stroke="#D8D8D8" stroke-miterlimit="10"/>
</g>
<g style="mix-blend-mode:multiply">
<path d="M933.366 298.253C918.503 338.756 900.344 377.972 879.072 415.505C869.651 432.156 859.418 448.743 845.329 461.747C809.339 494.928 757.311 497.829 711.558 493.217C700.697 492.128 689.878 490.706 679.057 489.002C648.002 483.882 617.456 476.043 587.772 465.576C548.168 451.654 509.725 432.939 466.45 424.185C423.174 415.431 372.681 419.452 340.328 444.798C313.897 452.699 290.55 460.119 269.497 472.521C254.447 481.079 241.355 492.697 231.067 506.626C226.102 513.492 222.029 520.96 218.942 528.852C206.285 561.516 211.897 601.693 217.804 638.986C218.404 642.686 218.965 646.382 219.527 650.077C228.226 707.947 225.556 764.944 204.818 816.115C193.665 843.65 175.463 871.712 146.817 884.51C106.022 902.757 61.8696 893.669 21.9419 891.034C18.8079 890.827 15.6492 890.658 12.5024 890.55C-35.2714 888.718 -82.4867 896.927 -122.222 922.737C-164.596 950.227 -196.809 1001.33 -191.094 1056.15" stroke="#D2D2D2" stroke-miterlimit="10"/>
</g>
<g style="mix-blend-mode:multiply">
<path d="M922.64 286.394C908.232 325.788 890.483 363.876 869.588 400.245C860.332 416.397 850.289 432.448 836.619 445.146C801.775 477.515 751.856 481.73 707.538 478.705C697.007 478 686.48 476.955 675.937 475.568C645.781 471.618 616.032 465.021 587.032 455.853C548.387 443.637 510.782 426.791 468.573 418.916C426.364 411.041 377.607 414.786 345.549 438.009C317.37 445.043 292.041 451.086 268.792 462.682C252.202 470.595 237.514 481.996 225.729 496.107C220.091 503.04 215.411 510.7 211.813 518.88C197.029 552.67 202.28 595.022 207.72 634.216C208.258 638.088 208.715 641.97 209.289 645.868C217.141 706.73 212.35 766.354 188.795 819.341C177.113 845.566 159.27 872.554 131.523 885.208C92.0153 903.242 49.3654 895.991 10.9674 895.135C7.95577 895.064 4.97841 895.038 1.89502 895.059C-43.9298 895.321 -88.5992 905.341 -125.582 931.828C-165.001 959.981 -194.194 1010.02 -187.421 1062.99" stroke="#CDCDCD" stroke-miterlimit="10"/>
</g>
<g style="mix-blend-mode:multiply">
<path d="M911.935 274.539C897.971 312.827 880.625 349.795 860.102 385.004C851.013 400.638 841.162 416.133 827.932 428.528C794.201 460.181 746.363 465.626 703.499 464.191C693.302 463.843 683.131 463.191 672.986 462.236C643.745 459.42 614.809 454.04 586.51 446.158C548.781 435.662 511.798 420.659 470.891 413.693C429.985 406.727 382.73 410.147 350.982 431.289C321.021 437.411 293.697 442.174 268.28 452.908C250.888 460.22 233.95 470.813 220.645 485.64C214.336 492.637 209.042 500.487 204.918 508.96C188.027 543.877 192.938 588.386 197.89 629.498C198.382 633.565 198.836 637.627 199.309 641.691C206.313 705.546 199.54 767.955 172.883 822.801C160.769 847.73 143.189 873.612 116.363 886.105C78.0431 903.933 36.9913 898.549 0.128049 899.433C-2.78337 899.516 -5.67766 899.621 -8.57961 899.785C-52.4897 902.097 -94.5944 914.09 -128.809 941.137C-165.273 969.953 -191.428 1018.92 -183.546 1070.14" stroke="#C7C7C7" stroke-miterlimit="10"/>
</g>
<g style="mix-blend-mode:multiply">
<path d="M901.23 262.683C887.722 299.87 870.784 335.719 850.635 369.766C841.716 384.862 832.032 399.838 819.166 411.9C786.565 442.698 740.813 449.495 699.384 449.647C689.534 449.704 679.693 449.435 669.861 448.841C641.535 447.167 613.411 443.004 585.814 436.401C549.043 427.63 512.917 414.499 473.037 408.407C433.157 402.315 387.698 405.467 356.242 424.505C324.511 429.777 295.225 433.165 267.619 443.035C248.741 449.774 230.102 460.067 215.45 475.099C208.466 482.151 202.557 490.192 197.912 498.965C178.917 534.99 183.466 581.674 187.953 624.667C188.404 628.909 188.849 633.19 189.215 637.46C195.37 704.308 186.771 769.542 156.932 826.097C144.44 849.776 127.067 874.523 101.135 886.912C64.1813 904.537 24.5704 901.002 -10.7607 903.646C-13.5472 903.845 -16.3217 904.105 -19.0987 904.386C-61.1213 908.804 -100.649 922.672 -132.085 950.36C-165.59 979.8 -188.708 1027.72 -179.875 1077" stroke="#C2C2C2" stroke-miterlimit="10"/>
</g>
<g style="mix-blend-mode:multiply">
<path d="M890.524 250.827C877.434 286.903 860.872 321.622 841.072 354.496C832.321 369.072 822.829 383.493 810.48 395.262C779.011 425.206 735.342 433.374 695.288 435.105C685.778 435.527 676.262 435.627 666.742 435.407C639.338 434.85 612.036 431.899 585.146 426.587C549.292 419.536 513.967 408.25 475.21 403.065C436.453 397.879 392.673 400.728 361.511 417.663C328.014 422.046 296.663 424.085 266.939 433.16C246.553 439.343 226.289 449.365 210.157 464.546C202.519 471.661 196.002 479.892 190.827 488.959C169.726 526.112 173.935 574.954 177.855 619.855C178.24 624.288 178.701 628.751 178.964 633.209C184.29 703.051 174.012 771.209 140.821 829.392C128.026 851.851 110.849 875.402 85.779 887.623C50.0962 905.012 12.0021 903.355 -21.7891 907.699C-24.4532 908.035 -27.1249 908.429 -29.7598 908.848C-69.8728 915.355 -106.823 931.099 -135.479 959.406C-166.044 989.468 -186.128 1036.36 -176.275 1083.79" stroke="#BCBCBC" stroke-miterlimit="10"/>
</g>
<g style="mix-blend-mode:multiply">
<path d="M879.818 238.971C867.201 273.946 851.067 307.55 831.665 339.265C823.097 353.346 813.778 367.208 801.866 378.693C771.512 407.902 729.944 417.303 691.406 420.612C682.245 421.425 673.063 421.936 663.861 422.143C637.364 422.726 610.868 420.998 584.672 416.979C549.776 411.633 515.21 402.207 477.579 397.908C439.947 393.608 399.962 401.753 366.997 410.989C332.886 420.576 298.434 415.208 266.497 423.456C244.605 429.063 222.699 438.792 205.144 454.148C196.82 461.313 189.661 469.73 183.924 479.097C160.736 517.381 164.563 568.395 168.083 615.145C168.444 619.769 168.769 624.408 169.059 629.062C173.614 701.927 161.744 773.101 125.076 832.794C111.994 854.075 94.8743 876.413 70.7448 888.475C36.3646 905.693 -0.224599 905.852 -32.4912 912.016C-35.0355 912.507 -37.5848 913.037 -40.0973 913.592C-78.3179 922.165 -112.673 939.807 -138.569 968.733C-166.184 999.497 -183.224 1045.28 -172.41 1090.86" stroke="#B7B7B7" stroke-miterlimit="10"/>
</g>
<g style="mix-blend-mode:multiply">
<path d="M869.096 227.092C856.941 260.978 841.213 293.472 822.178 324.025C813.759 337.584 804.688 350.918 793.238 362.083C764.005 390.516 724.529 401.209 687.504 406.115C678.67 407.291 669.812 408.184 660.931 408.794C635.355 410.519 609.677 410.008 584.19 407.269C550.212 403.644 516.445 396.082 479.939 392.67C443.432 389.257 404.669 396.619 372.413 404.245C336.294 412.812 300.137 406.242 265.989 413.642C242.619 418.618 219.06 428.132 200.082 443.665C191.129 450.896 183.382 459.505 177.13 469.17C151.834 508.581 155.322 561.752 158.348 610.461C158.646 615.263 158.918 620.102 159.152 624.935C162.799 700.784 149.672 775.178 109.332 836.197C95.9965 856.344 78.9587 877.432 55.7554 889.294C22.6434 906.296 -12.446 908.311 -43.1608 916.237C-45.6023 916.861 -48.0198 917.608 -50.3997 918.22C-86.7106 928.883 -118.488 948.4 -141.624 977.944C-166.264 1009.37 -180.285 1054.09 -168.372 1097.83" stroke="#B1B1B1" stroke-miterlimit="10"/>
</g>
<g style="mix-blend-mode:multiply">
<path d="M858.388 215.256C846.685 248.035 831.365 279.405 812.712 308.787C804.472 321.729 795.524 334.579 784.471 345.455C756.381 373.095 719.009 385.002 683.347 391.586C674.865 393.128 666.335 394.423 657.784 395.416C633.129 398.28 608.271 398.988 583.493 397.531C550.471 395.631 517.463 389.93 482.082 387.403C446.701 384.877 409.209 391.384 377.73 397.489C339.584 404.872 301.741 397.263 265.361 403.834C240.474 408.312 215.281 417.474 194.862 433.16C185.262 440.456 176.9 449.252 170.099 459.211C142.705 499.691 145.823 555.096 148.385 605.686C148.637 610.682 148.859 615.755 149.033 620.741C151.833 699.582 137.584 777.374 93.3533 839.549C79.802 858.587 62.812 878.38 40.4999 890.157C8.67588 906.946 -24.8941 910.819 -54.0938 920.483C-56.3958 921.265 -58.6781 922.05 -60.9484 922.896C-95.3668 935.626 -124.55 957.041 -144.905 987.205C-166.608 1019.28 -177.602 1063.02 -164.627 1104.74" stroke="#ABABAB" stroke-miterlimit="10"/>
</g>
<g style="mix-blend-mode:multiply">
<path d="M847.683 203.4C836.431 235.081 821.51 265.336 803.225 293.546C795.372 306.262 786.172 318.094 775.784 328.837C748.827 355.604 713.517 369.038 679.271 377.047C671.123 378.992 662.906 380.656 654.618 382.036C630.863 386.042 606.804 387.972 582.714 387.803C550.627 387.645 518.424 383.75 484.166 382.13C449.908 380.509 413.638 386.074 382.909 390.715C342.779 396.74 303.208 388.266 264.617 393.99C238.222 397.913 211.386 406.782 189.544 422.643C179.292 429.986 170.315 438.965 162.973 449.22C133.562 490.9 136.23 548.388 138.323 600.899C138.533 606.07 138.695 611.295 138.819 616.514C140.77 698.348 125.661 779.691 77.2817 842.849C63.5261 860.84 46.5497 879.294 25.1783 890.913C-5.37746 907.486 -37.4306 913.237 -65.098 924.66C-67.2676 925.553 -69.4301 926.494 -71.5853 927.482C-104.114 942.298 -130.7 965.59 -148.295 996.373C-167.043 1029.11 -174.988 1071.71 -160.996 1111.75" stroke="#A6A6A6" stroke-miterlimit="10"/>
</g>
<g style="mix-blend-mode:multiply">
<path d="M836.977 191.544C826.16 222.119 811.633 251.25 793.722 278.284C785.97 290.45 777.037 301.821 767.054 312.233C741.211 338.284 708.009 352.893 675.251 362.535C667.457 364.847 659.589 366.896 651.649 368.681C628.812 373.819 605.573 376.967 582.193 378.089C551.048 379.614 519.619 377.62 486.467 376.884C453.314 376.147 418.511 380.741 388.327 383.952C346.228 388.501 304.911 379.3 264.087 384.194C236.208 387.524 207.727 396.12 184.443 412.155C173.545 419.562 163.959 428.736 156.077 439.299C124.521 482.102 126.886 541.773 128.475 596.159C128.634 601.517 128.754 606.917 128.835 612.358C129.936 697.203 113.978 782.319 61.4412 846.219C47.4959 863.204 30.5826 880.245 10.0656 891.755C-19.1825 908.118 -49.7333 915.705 -75.8711 928.907C-77.9299 929.975 -79.9691 931.045 -81.9886 932.117C-112.367 948.61 -136.72 974.336 -151.529 1005.58C-167.207 1039.01 -172.133 1080.55 -157.086 1118.78" stroke="#A0A0A0" stroke-miterlimit="10"/>
</g>
<g style="mix-blend-mode:multiply">
<path d="M826.269 179.708C815.904 209.176 801.79 237.186 784.274 263.048C776.644 274.659 767.986 285.56 758.406 295.62C733.686 320.876 702.577 336.777 671.271 348.029C663.802 350.703 656.265 353.135 648.66 355.324C626.729 361.601 604.296 365.965 581.613 368.366C551.425 371.617 520.755 371.483 488.748 371.635C456.74 371.788 423.417 375.453 393.703 377.204C349.693 379.983 306.476 370.316 263.544 374.336C234.177 377.113 204.091 385.441 179.327 401.624C167.784 409.103 157.586 418.479 149.165 429.356C115.459 473.301 117.448 535.105 118.607 591.417C118.727 596.977 118.782 602.568 118.815 608.176C119.087 696.017 102.544 785.179 45.502 849.576C31.4235 865.583 14.4699 881.238 -5.12095 892.548C-33.1033 908.714 -62.1346 918.159 -86.7377 933.102C-88.6724 934.293 -90.6098 935.502 -92.4932 936.759C-120.935 955.525 -142.689 982.84 -154.621 1014.77C-167.46 1048.83 -169.346 1089.29 -153.275 1125.64" stroke="#9B9B9B" stroke-miterlimit="10"/>
</g>
<g style="mix-blend-mode:multiply">
<path d="M815.544 167.849C805.647 196.228 791.936 223.128 774.788 247.808C767.291 258.869 758.907 269.302 749.718 279.002C726.119 303.483 697.103 320.676 667.234 333.495C660.166 336.581 652.957 339.409 645.609 341.979C624.597 349.384 602.985 354.959 581.014 358.641C551.743 363.612 521.871 365.343 490.967 366.399C460.063 367.455 428.197 369.908 399.035 370.49C353.153 371.345 308.075 361.377 262.945 364.612C232.072 366.813 200.304 374.842 174.167 391.128C161.984 398.654 151.172 408.204 142.198 419.366C106.347 464.434 108.054 528.403 108.708 586.611C108.763 592.362 108.795 598.131 108.763 603.931C108.185 694.783 91.2201 788.274 29.6495 852.884C14.9067 868.544 -1.87563 882.148 -20.2456 893.329C-46.94 909.282 -74.4715 920.583 -97.5304 937.347C-99.3624 938.671 -101.158 940.019 -102.919 941.412C-129.522 962.441 -148.763 991.379 -157.865 1024.05C-167.772 1058.8 -166.617 1098.17 -149.525 1132.67" stroke="#959595" stroke-miterlimit="10"/>
</g>
<g style="mix-blend-mode:multiply">
<path d="M804.838 155.993C795.377 183.274 782.063 209.06 765.302 232.567C757.928 243.074 749.811 253.038 741.011 262.382C718.555 286.07 691.531 304.562 663.215 318.983C656.42 322.425 649.536 325.636 642.561 328.614C622.456 337.152 601.657 343.95 580.392 348.934C551.746 355.416 522.61 359.504 493.287 361.156C463.691 363.082 433.228 364.436 404.483 363.651C356.792 362.41 309.751 352.307 262.447 354.72C230.069 356.345 196.658 364.082 169.065 380.639C156.246 388.212 144.832 397.945 135.327 409.409C97.3303 455.599 98.7543 521.753 98.9614 581.864C98.9666 587.789 98.9273 593.749 98.8436 599.742C97.4316 693.629 80.2292 791.733 13.9098 856.247C-1.07878 870.6 -17.5611 883.305 -35.2549 894.145C-60.681 909.882 -86.6931 923.041 -108.212 941.506C-109.922 942.966 -111.595 944.45 -113.233 945.979C-137.95 969.277 -154.65 999.815 -160.932 1033.2C-167.879 1068.57 -163.687 1106.9 -145.559 1139.57" stroke="#909090" stroke-miterlimit="10"/>
</g>
<g style="mix-blend-mode:multiply">
<path d="M794.133 144.137C768.732 218.761 709.846 279.636 639.533 315.252C569.219 350.867 488.332 362.495 409.736 356.926C360.336 353.443 311.267 343.397 261.774 344.945C212.282 346.493 160.258 361.703 128.25 399.504C88.1065 446.817 89.2498 515.136 88.8894 577.156C88.3451 679.161 73.619 791.336 -2.16439 859.567C-39.9151 893.52 -89.6218 913.074 -123.873 950.584C-171.363 1002.57 -179.116 1086.73 -141.917 1146.51" stroke="#8A8A8A" stroke-miterlimit="10"/>
</g>
</g>
<g style="mix-blend-mode:multiply">
<g style="mix-blend-mode:multiply">
<path d="M-338.055 199.374C-295.628 168.121 -251.373 139.433 -205.526 113.463C-185.146 101.935 -163.923 90.8367 -140.734 87.4188C-81.4969 78.9083 -27.9911 122.774 10.5814 168.566C46.1266 210.762 76.5367 257.033 101.173 306.407C125.537 355.32 144.631 407.853 179.711 449.73C214.79 491.606 271.9 521.248 324.011 504.908C355.02 495.179 379.752 470.446 395.26 441.874C410.767 413.302 418.017 380.998 422.887 348.845C428.44 312.037 431.861 272.851 453.707 242.76C476.304 211.665 517.855 195.457 555.661 203.341C609.3 214.56 643.343 265.349 677.942 307.843C721.912 361.841 777.849 409.484 845.265 426.913C912.682 444.341 992.505 425.331 1032.66 368.391" stroke="#8A8A8A" stroke-miterlimit="10"/>
</g>
<g style="mix-blend-mode:multiply">
<path d="M-335.539 215.151C-293.873 184.401 -250.291 156.339 -205.057 131.136C-184.959 119.932 -164.052 109.113 -141.263 105.844C-95.5165 99.2466 -53.0918 123.662 -18.351 155.807C-9.00045 164.49 -0.113178 173.66 8.27394 183.278C43.7956 223.811 74.3673 268.431 99.3435 316.197C124.065 363.435 143.456 414.606 178.408 455.305C198.014 478.122 223.645 497.678 251.508 508.657C275.815 518.213 301.993 521.207 327.096 513.675C331.544 512.339 335.895 510.697 340.116 508.758C366.201 496.889 386.917 474.437 400.94 449.135C405.411 441.024 409.347 432.629 412.721 424.003C421.63 401.581 427.248 377.851 431.883 354.294C439.279 317.005 445.583 278.413 468.791 248.778C491.998 219.144 531.865 203.578 568.741 211.082C621.173 221.884 654.98 270.18 689.257 310.371C691.966 313.551 694.712 316.696 697.496 319.806C739.668 366.845 791.684 406.775 852.923 421.081C918.202 436.331 994.948 416.52 1033.21 360.577" stroke="#909090" stroke-miterlimit="10"/>
</g>
<g style="mix-blend-mode:multiply">
<path d="M-333.044 230.927C-292.131 200.69 -249.227 173.248 -204.625 148.786C-184.812 137.925 -164.214 127.486 -141.828 124.244C-96.9736 117.732 -55.0696 140.919 -20.5728 171.551C-11.2553 179.838 -2.37633 188.605 6.0282 197.818C41.5237 236.67 72.2525 279.626 97.5614 325.773C122.628 371.435 142.375 421.091 177.174 460.649C197.643 483.919 223.885 504.154 252.493 515.87C277.38 526.042 304.39 529.564 330.267 522.232C334.892 520.934 339.416 519.3 343.804 517.342C370.839 505.397 392.126 482.238 406.842 456.225C411.502 447.901 415.656 439.303 419.283 430.478C428.758 407.549 435.396 383.351 441.081 359.57C450.319 321.799 459.416 283.89 484.071 254.663C507.461 227.013 545.994 211.555 582.016 218.708C633.272 228.857 666.752 274.889 700.767 312.785C703.443 315.754 706.158 318.728 708.92 321.648C750.652 365.908 801.515 402.846 860.835 415.142C923.902 428.163 997.509 407.566 1033.91 352.542" stroke="#959595" stroke-miterlimit="10"/>
</g>
<g style="mix-blend-mode:multiply">
<path d="M-330.551 246.721C-290.373 216.987 -248.12 190.166 -204.117 166.465C-184.606 155.925 -164.317 145.866 -142.318 142.675C-98.1969 136.267 -56.9859 158.163 -22.7235 187.364C-13.489 195.27 -4.65885 203.636 3.73305 212.431C39.2174 249.572 70.1339 290.826 95.8238 335.315C121.24 379.361 141.36 427.524 175.966 465.957C197.333 489.703 224.187 510.618 253.5 523.066C278.951 533.831 306.779 537.98 333.48 530.775C338.251 529.476 342.927 527.849 347.475 525.904C375.462 513.862 397.302 489.994 412.69 463.268C417.567 454.756 421.947 445.968 425.805 436.948C435.908 413.5 443.402 388.873 450.259 364.843C461.22 326.595 473.166 289.236 499.31 260.562C522.941 234.605 560.062 219.543 595.253 226.308C645.316 235.943 678.605 279.588 712.24 315.173C714.889 317.985 717.578 320.756 720.304 323.484C761.574 364.983 811.307 398.912 868.592 409.162C929.648 420.102 1000.13 398.739 1034.66 344.773" stroke="#9B9B9B" stroke-miterlimit="10"/>
</g>
<g style="mix-blend-mode:multiply">
<path d="M-328.114 262.489C-288.685 233.24 -247.1 207.019 -203.716 184.05C-184.492 173.873 -164.51 164.175 -142.915 161.011C-99.5766 154.622 -58.995 175.356 -24.9868 203.123C-15.8033 210.621 -7.00723 218.582 1.36711 226.975C36.8022 262.416 67.8585 301.984 93.8701 344.829C119.635 387.259 140.172 433.915 174.539 471.256C196.809 495.439 224.256 517.032 254.292 530.233C280.322 541.615 308.98 546.312 336.46 539.267C341.385 538.004 346.214 536.389 350.91 534.436C379.847 522.317 402.242 497.72 418.322 470.283C423.412 461.547 428.013 452.536 432.105 443.289C442.849 419.364 451.242 394.293 459.212 370.007C472.095 331.288 486.639 294.565 514.345 266.335C538.138 242.06 573.926 227.406 608.282 233.822C657.115 242.917 690.191 284.193 723.468 317.45C726.088 320.071 728.746 322.664 731.441 325.229C772.254 363.926 820.854 394.866 876.16 403.099C935.039 411.854 1002.46 389.735 1035.1 336.744" stroke="#A0A0A0" stroke-miterlimit="10"/>
</g>
<g style="mix-blend-mode:multiply">
<path d="M-325.548 278.333C-286.898 249.604 -246.011 224.018 -203.28 201.819C-184.338 191.966 -164.663 182.629 -143.479 179.551C-100.961 173.316 -60.9684 192.733 -27.2314 219.044C-18.0947 226.158 -9.32179 233.729 -0.945941 241.726C34.4618 275.451 65.6865 313.315 92.0556 354.501C118.153 395.293 139.127 440.424 173.234 476.69C196.427 501.314 224.444 523.601 255.224 537.54C281.816 549.534 311.278 554.816 339.559 547.915C344.643 546.679 349.626 545.064 354.469 543.083C384.369 530.949 407.34 505.606 424.096 477.437C429.381 468.488 434.201 459.273 438.539 449.828C449.888 425.4 459.159 399.882 468.301 375.349C482.909 336.133 500.071 300.05 529.478 272.28C553.356 249.657 587.924 235.466 621.49 241.499C669.188 250.086 701.953 288.981 734.93 319.917C737.548 322.258 740.181 324.781 742.835 327.146C783.186 363.081 830.575 391.023 883.985 397.208C940.802 403.815 1005.07 380.886 1035.81 328.931" stroke="#A6A6A6" stroke-miterlimit="10"/>
</g>
<g style="mix-blend-mode:multiply">
<path d="M-323.047 294.069C-285.15 265.846 -244.932 240.884 -202.825 219.451C-184.158 209.863 -164.819 200.962 -144.02 197.915C-102.314 191.775 -62.9159 209.913 -29.4331 234.79C-20.3083 241.558 -11.4911 248.845 -3.2229 256.202C32.1432 288.257 63.5239 324.454 90.2423 364.013C116.709 403.192 138.124 446.779 171.969 481.971C196.056 507.11 224.651 530.032 256.156 544.706C283.308 557.313 313.616 563.165 342.657 556.423C347.893 555.207 353.03 553.598 358.025 551.611C388.883 539.34 412.401 513.328 429.849 484.447C435.414 475.162 440.389 465.799 444.971 456.226C456.946 431.299 467.114 405.337 477.37 380.548C493.8 340.848 513.617 305.429 544.668 278.092C568.526 257.168 601.943 243.368 634.595 249.043C681.125 257.078 713.638 293.598 746.291 322.251C748.869 324.586 751.472 326.725 754.107 328.928C793.993 362.121 840.336 387.025 891.689 391.182C946.407 395.615 1007.53 371.958 1036.41 320.942" stroke="#ABABAB" stroke-miterlimit="10"/>
</g>
<g style="mix-blend-mode:multiply">
<path d="M-320.552 309.844C-283.401 282.126 -243.852 257.783 -202.374 237.103C-184.001 227.937 -164.962 219.337 -144.566 216.318C-103.771 210.26 -64.8938 227.17 -31.643 250.596C-22.4723 257.009 -13.8007 263.877 -5.5481 270.892C29.7963 301.249 61.343 335.769 88.4054 373.702C115.23 411.206 137.121 453.274 170.662 487.425C195.681 512.926 224.836 536.621 257.066 552.029C284.799 565.252 315.914 571.669 345.776 565.074C351.17 563.886 356.466 562.291 361.618 560.303C393.429 547.935 417.499 521.215 435.637 491.643C441.4 482.223 446.6 472.509 451.382 462.782C463.982 437.355 475.048 410.95 486.437 385.907C504.691 345.722 526.99 310.906 559.759 284.052C583.549 264.58 615.86 251.437 647.682 256.725C693.015 264.264 725.279 298.39 757.613 324.72C760.165 326.792 762.739 328.847 765.36 330.848C804.773 361.217 849.977 383.171 899.354 385.291C951.949 387.588 1009.95 363.145 1036.97 313.069" stroke="#B1B1B1" stroke-miterlimit="10"/>
</g>
<g style="mix-blend-mode:multiply">
<path d="M-318.059 325.638C-281.655 298.424 -242.772 274.698 -201.925 254.774C-183.854 245.929 -165.124 237.71 -145.114 234.741C-105.033 228.79 -66.8987 244.483 -33.855 266.421C-24.7932 272.439 -16.0876 278.892 -7.84559 285.525C27.4662 314.174 59.1736 347.003 86.5818 383.293C113.751 419.22 136.174 459.656 169.364 492.801C195.352 518.708 225.052 543.134 257.988 559.274C286.202 573.1 318.237 580.136 348.884 573.662C354.434 572.502 359.885 570.907 365.186 568.891C397.944 556.467 422.589 529.02 441.402 498.715C447.372 489.081 452.8 479.157 457.846 469.244C471.07 443.318 483.054 416.471 495.557 391.172C515.634 350.504 540.356 316.282 574.961 289.926C598.599 271.936 629.891 259.401 660.881 264.32C705.02 271.345 737.034 303.077 769.047 327.103C771.563 328.99 774.121 330.863 776.706 332.679C815.678 360.27 859.745 379.274 907.126 379.353C957.602 379.474 1012.4 354.256 1037.63 305.208" stroke="#B7B7B7" stroke-miterlimit="10"/>
</g>
<g style="mix-blend-mode:multiply">
<path d="M-315.563 341.413C-279.871 314.697 -241.62 291.586 -201.372 272.419C-183.605 263.915 -165.244 256.068 -145.579 253.134C-106.291 247.28 -68.7753 261.732 -36.0029 282.214C-26.9909 287.846 -18.313 293.895 -10.0593 300.129C25.2236 327.077 57.0908 358.228 84.8368 392.894C112.397 427.191 135.366 466.036 168.151 498.148C195.084 524.477 225.335 549.595 258.987 566.529C287.883 580.963 320.629 588.532 352.092 582.244C357.788 581.1 363.385 579.51 368.832 577.49C402.563 564.971 427.757 536.835 447.242 505.817C453.44 495.973 459.076 485.835 464.367 475.734C478.216 449.308 491.116 422.02 504.654 396.455C526.579 355.265 553.629 321.605 590.138 295.837C613.59 279.284 643.838 267.394 674.055 271.953C717.006 278.423 748.765 307.8 780.459 329.503C782.956 331.228 785.48 332.896 788.034 334.488C826.547 359.297 869.486 375.273 914.871 373.312C963.147 371.266 1015.02 345.309 1038.28 297.247" stroke="#BCBCBC" stroke-miterlimit="10"/>
</g>
<g style="mix-blend-mode:multiply">
<path d="M-313.051 357.211C-278.151 330.98 -240.597 308.486 -201.004 290.099C-183.522 281.939 -165.425 274.438 -146.208 271.566C-107.733 265.807 -70.8145 279.001 -38.2937 298.029C-29.3213 303.195 -20.701 308.916 -12.4553 314.749C22.8033 339.99 54.8376 369.458 82.9317 402.494C110.802 435.17 134.281 472.4 166.805 503.437C194.688 530.15 225.457 556.056 259.84 573.684C289.296 588.732 322.844 596.905 355.133 590.725C360.983 589.621 366.734 588.044 372.329 586.009C407.01 573.414 432.758 544.549 452.956 512.822C459.341 502.762 465.207 492.395 470.742 482.104C485.214 455.2 499.012 427.467 513.747 401.617C537.468 360 566.824 326.759 605.294 301.605C628.488 286.419 657.902 275.262 687.207 279.443C728.964 285.398 760.471 312.401 791.824 331.798C794.307 333.32 796.793 334.824 799.247 336.263C837.3 358.29 879.106 371.277 922.512 367.298C968.788 363.091 1017.43 336.354 1038.82 289.27" stroke="#C2C2C2" stroke-miterlimit="10"/>
</g>
<g style="mix-blend-mode:multiply">
<path d="M-310.556 372.986C-276.399 347.263 -239.509 325.392 -200.555 307.771C-183.363 299.993 -165.568 292.813 -146.757 289.989C-109.091 284.305 -72.7728 296.26 -40.496 313.775C-31.6008 318.611 -22.9979 323.85 -14.7404 329.284C20.4745 352.831 52.6678 380.613 81.1178 412.006C109.338 443.066 133.368 478.666 165.505 508.833C194.378 535.934 225.64 562.665 260.758 580.949C290.735 596.605 325.194 605.316 358.238 599.334C364.245 598.247 370.155 596.677 375.91 594.64C411.564 581.951 437.844 552.374 458.715 519.934C465.308 509.661 471.421 499.085 477.181 488.604C492.277 461.199 506.993 433.025 522.816 406.956C548.38 364.858 579.967 332.006 620.449 307.534C643.369 293.693 671.883 283.3 700.355 287.112C740.922 292.533 772.179 317.141 803.21 334.235C805.657 335.573 808.129 336.874 810.699 338.188C848.215 357.424 888.93 367.407 930.396 361.415C974.554 355.033 1020.07 327.53 1039.58 281.504" stroke="#C7C7C7" stroke-miterlimit="10"/>
</g>
<g style="mix-blend-mode:multiply">
<path d="M-308.05 388.682C-274.627 363.472 -238.401 342.218 -200.093 325.344C-183.119 317.858 -165.7 311.11 -147.293 308.313C-110.44 302.724 -74.7204 313.44 -42.7053 329.581C-33.8798 334.028 -25.2849 338.865 -17.0379 343.917C18.1699 365.773 50.5415 391.9 79.3404 421.703C107.91 451.147 132.517 485.081 164.259 514.275C194.125 541.746 225.915 569.185 261.728 588.28C292.347 604.539 327.563 613.89 361.394 608.009C367.556 606.941 373.62 605.371 379.526 603.315C416.11 590.546 442.982 560.265 464.526 527.112C471.346 516.628 477.647 505.837 483.671 495.169C499.304 467.174 515.001 438.687 531.963 412.325C559.475 369.859 593.1 337.172 635.655 313.528C658.249 300.967 685.918 291.385 713.558 294.829C752.931 299.734 783.936 321.968 814.648 336.739C817.077 337.914 819.512 339.031 821.97 340.13C859.105 356.594 898.648 363.583 938.099 355.549C980.138 346.99 1022.53 318.742 1040.18 273.636" stroke="#CDCDCD" stroke-miterlimit="10"/>
</g>
<g style="mix-blend-mode:multiply">
<path d="M-305.567 404.556C-272.869 379.831 -237.274 359.194 -199.575 343.104C-182.962 335.932 -165.8 329.47 -147.773 326.824C-111.732 321.33 -76.6073 330.769 -44.866 345.472C-36.0707 349.535 -27.5231 353.966 -19.2841 358.617C15.8635 378.727 48.3876 403.113 77.5466 431.218C106.473 458.987 131.649 491.313 162.992 519.575C193.872 547.397 226.141 575.619 262.679 595.449C293.859 612.321 329.909 622.18 364.534 616.502C370.856 615.481 377.081 613.925 383.141 611.85C420.695 599.006 448.119 568.017 470.357 534.133C477.366 523.433 483.894 512.431 490.143 501.573C506.489 473.17 523.074 444.157 541.051 417.527C570.352 374.532 606.146 342.086 650.826 319.338C673.079 308.013 699.937 299.287 726.722 302.38C764.924 306.754 795.598 326.603 825.989 339.07C828.384 340.041 830.801 340.995 833.225 341.89C869.917 355.594 908.303 359.631 945.782 349.52C985.718 338.827 1024.96 309.75 1040.68 265.635" stroke="#D2D2D2" stroke-miterlimit="10"/>
</g>
<g style="mix-blend-mode:multiply">
<path d="M-303.052 420.333C-271.155 396.113 -236.287 376.083 -199.301 360.733C-182.974 353.923 -166.112 347.923 -148.509 345.303C-113.275 339.864 -78.8536 348.09 -47.2656 361.353C-38.5398 365.027 -30.0198 369.054 -21.7692 373.306C13.3281 391.739 45.9957 414.471 75.4807 440.977C104.732 467.167 130.511 497.77 161.455 525.1C193.353 553.254 226.061 582.254 263.4 602.847C295.14 620.333 332.027 630.84 367.44 625.245C373.909 624.242 380.28 622.691 386.486 620.61C425.003 607.591 452.988 575.974 475.899 541.377C483.135 530.466 489.881 519.172 496.364 508.204C513.335 479.301 530.838 449.847 549.967 422.966C581.091 379.487 618.96 347.09 665.805 325.384C687.706 315.234 713.743 307.442 739.796 310.16C776.805 314.018 807.288 331.481 837.358 341.645C839.716 342.431 842.117 343.203 844.503 343.932C880.735 354.855 917.996 355.844 953.494 343.735C991.309 330.885 1027.46 301.088 1041.34 257.914" stroke="#D8D8D8" stroke-miterlimit="10"/>
</g>
<g style="mix-blend-mode:multiply">
<path d="M-300.616 436.101C-269.426 412.381 -235.183 392.976 -198.812 378.409C-182.768 371.923 -166.232 366.282 -149.005 363.632C-114.569 358.33 -80.6782 365.247 -49.4256 377.085C-40.7471 380.352 -32.3137 383.968 -24.0146 387.846C11.0692 404.579 43.9163 425.649 73.7578 450.561C103.359 475.135 129.736 504.054 160.261 530.449C193.196 558.938 226.377 588.76 264.373 609.999C296.701 628.201 334.397 639.094 370.595 633.78C377.216 632.793 383.742 631.242 390.1 629.144C429.562 616.248 458.105 583.722 481.705 548.434C489.139 537.389 496.115 525.865 502.855 514.61C520.449 485.228 538.846 455.349 559.092 428.193C592.039 384.229 631.958 351.758 680.99 331.236C702.547 322.202 727.789 315.288 752.902 317.704C788.719 321.027 818.948 336.135 848.698 343.976C851.038 344.6 853.383 345.184 855.755 345.712C891.528 353.853 927.675 351.856 961.175 337.726C996.871 322.7 1029.9 292.137 1041.91 249.943" stroke="#DEDEDE" stroke-miterlimit="10"/>
</g>
<g style="mix-blend-mode:multiply">
<path d="M-298.064 451.903C-267.619 428.667 -234.03 409.875 -198.304 396.088C-182.588 389.638 -166.213 384.928 -149.472 382.045C-115.869 376.835 -82.5746 382.494 -51.5761 392.898C-42.9672 395.776 -34.5025 398.995 -26.2704 402.464C8.77154 417.474 41.7882 436.831 72.0032 460.081C101.954 483.039 128.952 510.257 159.033 535.754C193.01 564.538 226.662 595.201 265.353 617.251C298.274 635.971 336.769 647.648 373.786 642.34C380.56 641.375 387.239 639.83 393.749 637.723C434.156 624.63 463.258 591.496 487.551 555.497C495.205 544.14 502.398 532.484 509.361 521.057C527.56 491.173 546.894 460.856 568.234 433.441C603.021 389.016 644.954 356.285 696.215 337.093C717.429 329.156 741.849 323.336 766.12 325.302C800.746 328.091 830.725 340.805 860.134 346.34C862.45 346.787 864.779 347.189 867.12 347.546C902.433 352.906 937.45 347.899 968.974 331.732C1002.55 314.55 1032.46 283.222 1042.62 242.028" stroke="#E3E3E3" stroke-miterlimit="10"/>
</g>
<g style="mix-blend-mode:multiply">
<path d="M-295.568 467.678C-265.853 444.945 -232.92 426.766 -197.853 413.74C-182.382 407.696 -166.335 403.252 -149.962 400.475C-117.171 395.36 -84.4735 399.761 -53.7464 408.709C-45.1676 411.202 -36.7503 414.015 -28.5064 417.085C6.47558 430.404 39.631 448.099 70.1692 469.75C100.472 491.073 128.11 516.593 157.733 541.15C192.794 570.214 226.853 601.751 266.269 624.535C299.77 643.87 339.072 656.112 376.878 650.887C383.804 649.954 390.635 648.422 397.297 646.309C438.674 633.141 468.331 599.279 493.296 562.567C501.158 550.997 508.578 539.129 515.852 527.463C534.695 497.082 554.928 466.321 577.38 438.65C613.972 393.738 657.92 360.588 711.424 342.908C732.323 336.011 755.887 331.241 779.306 332.836C812.751 335.172 842.485 345.452 871.573 348.684C873.875 348.982 876.175 349.14 878.472 349.318C912.905 352.078 947.324 343.812 976.756 325.716C1008.23 306.38 1035.02 274.267 1043.28 234.047" stroke="#E9E9E9" stroke-miterlimit="10"/>
</g>
<g style="mix-blend-mode:multiply">
<path d="M-293.055 483.475C-264.087 461.225 -231.811 443.657 -197.403 431.411C-182.225 425.758 -166.542 421.566 -150.569 418.89C-118.588 413.851 -86.4603 416.936 -56.0146 424.507C-47.5119 426.61 -39.1568 429.028 -30.9491 431.76C4.01187 443.352 37.3571 459.344 68.2841 479.353C98.9562 499.062 127.161 522.835 156.392 546.56C192.499 575.88 226.985 608.293 267.146 631.814C301.188 651.76 341.334 664.592 379.934 659.57C387.013 658.665 393.998 657.14 400.81 655.011C443.139 641.746 473.366 607.197 499.036 569.676C507.105 557.893 514.733 545.812 522.166 534.006C541.634 503.126 562.764 471.921 586.35 443.996C624.781 398.622 670.629 364.858 726.476 348.863C747.827 342.476 770.085 339.661 792.352 340.533C824.613 342.274 854.088 350.239 882.857 351.148C885.128 351.222 887.404 351.257 889.668 351.23C923.789 351.095 956.982 340.096 984.441 319.827C1013.79 298.335 1037.5 265.462 1043.85 226.216" stroke="#EEEEEE" stroke-miterlimit="10"/>
</g>
<g style="mix-blend-mode:multiply">
<path d="M-290.56 499.25C-262.321 477.514 -230.697 460.578 -196.959 449.122C-182.054 443.864 -166.716 439.925 -151.122 437.352C-119.956 432.427 -88.4456 434.251 -58.2344 440.391C-49.7725 442.088 -41.4227 444.085 -33.185 446.381C1.76885 456.22 35.3137 470.512 66.6255 488.905C97.6548 506.939 126.478 529.031 155.263 551.877C192.481 581.422 227.349 614.745 268.234 639C302.864 659.503 343.849 672.964 383.209 668.1C390.441 667.215 397.582 665.689 404.545 663.541C447.844 650.202 478.622 614.944 504.955 576.788C513.233 564.791 521.088 552.5 528.765 540.506C548.843 509.084 570.942 477.505 595.605 449.299C635.839 403.439 683.79 368.886 741.892 354.785C762.778 349.653 784.271 347.429 805.764 348.176C836.832 349.403 866.057 354.974 894.504 353.579C896.733 353.467 898.973 353.317 901.224 353.129C934.975 350.029 966.875 336.296 992.331 313.905C1019.57 290.237 1040.11 256.594 1044.73 218.364" stroke="#F4F4F4" stroke-miterlimit="10"/>
</g>
<g style="mix-blend-mode:multiply">
<path d="M-288.064 515.025C-260.573 493.77 -229.616 477.429 -196.561 466.726C-181.931 461.868 -166.937 458.183 -151.722 455.708C-121.478 451.07 -90.6942 451.213 -60.4953 456.129C-52.1038 457.444 -43.7826 459.044 -35.5315 460.928C-0.662997 469.078 33.0073 481.698 64.6442 498.476C96.018 514.933 125.491 535.248 153.81 557.213C192.143 586.962 227.407 621.237 269 646.205C304.267 667.351 345.983 681.346 386.166 676.61C393.557 675.758 400.856 674.246 407.977 672.093C452.207 658.674 483.559 622.69 510.565 583.82C519.069 571.613 527.132 559.108 535.049 546.965C555.744 515.103 578.707 483.035 604.522 454.579C646.541 408.229 696.561 372.684 756.735 360.652C777.118 356.779 797.863 355.147 818.6 355.785C848.517 356.482 877.45 359.673 905.576 355.975C907.795 355.682 910.001 355.328 912.21 354.954C945.675 348.958 976.379 332.499 999.905 307.942C1025.04 282.1 1042.45 247.69 1045.1 210.426" stroke="#F9F9F9" stroke-miterlimit="10"/>
</g>
<g style="mix-blend-mode:multiply">
<path d="M-285.572 530.82C-223.551 482.18 -140.992 463.364 -62.646 471.942C15.7004 480.521 89.8092 514.989 152.572 562.597C192.043 592.513 227.662 627.755 269.975 653.497C312.288 679.239 364.148 694.91 411.596 680.748C470.989 663.011 507.411 605.207 541.524 553.489C597.634 468.356 671.306 382.319 772.005 366.615C822.171 358.79 874.485 369.577 923.624 356.874C991.784 339.253 1044.23 272.999 1045.66 202.572" stroke="white" stroke-miterlimit="10"/>
</g>
</g>
</svg>
