<svg width="64" height="74" fill="none" xmlns="http://www.w3.org/2000/svg"><g clip-path="url(#clip0_6130_19625)" fill="#4F4F4F"><path d="M27.853 15.033c-1.097 0-1.986.037-2.872 0-2.086-.111-3.172-2.187-1.904-3.861 2.45-3.235 4.998-6.392 7.575-9.527.998-1.213 2.531-1.19 3.547.04 2.53 3.1 5.062 6.224 7.461 9.438.44.587.583 1.831.26 2.452-.355.683-1.354 1.179-2.17 1.423-.815.245-1.746.052-2.795.052v8.473c0 3.328-.864 4.197-4.16 4.203h-1.266c-2.64-.029-3.656-1.054-3.673-3.702-.008-2.941-.003-5.86-.003-8.991zm2.813 9.709h3.426c.022-.382.053-.658.053-.934V14.14c0-1.483.481-1.933 1.944-1.956.866-.014 1.73 0 2.891 0l-6.576-8.257-6.55 8.257h1.724c3.057 0 3.094.046 3.094 3.215l-.006 9.342zm6.289 34.708c1.11 0 2.002-.04 2.886 0 2.084.116 3.152 2.194 1.881 3.874-2.452 3.243-5 6.404-7.58 9.533-.995 1.21-2.531 1.167-3.544-.069-2.531-3.1-5.062-6.22-7.459-9.438-.436-.57-.562-1.837-.244-2.452.36-.68 1.364-1.164 2.18-1.398.815-.233 1.743-.05 2.778-.05v-8.636c0-3.115.92-4.035 4.036-4.04 4.562 0 5.063.5 5.063 5.124l.003 7.551zm-11.13 2.846l6.593 8.258c2.225-2.802 4.3-5.41 6.534-8.24h-2.74c-1.628-.015-2.064-.445-2.073-2.113-.014-2.563 0-5.125 0-7.688V49.77h-3.423c-.022.395-.05.675-.05.953v9.396c0 1.774-.42 2.193-2.13 2.207-.781-.029-1.569-.029-2.71-.029zM11.14 44.322c2.672-1.563 5.178-3.035 7.69-4.496 2.16-1.252 3.657-.854 4.922 1.324.402.695.819 1.381 1.193 2.09.925 1.757.52 3.354-1.179 4.382-2.205 1.338-4.452 2.608-6.677 3.912-.436.256-.844.541-1.353.854.478.854.906 1.635 1.345 2.406.52.908.647 1.945-.107 2.625-.622.57-1.646 1.09-2.413.997-3.803-.47-7.595-1.139-11.37-1.771-1.954-.328-2.702-1.632-2.004-3.502 1.316-3.542 2.68-7.067 4.022-10.6.393-1.04 1.01-1.806 2.202-1.902 1.192-.097 1.93.52 2.472 1.514.38.698.799 1.378 1.257 2.167zm3.094 11.201c-.562-1.01-.993-1.794-1.451-2.562-.664-1.105-.478-1.956.655-2.6 1.466-.834 2.917-1.708 4.374-2.563 1.603-.936 3.203-1.879 4.866-2.847-.619-1.084-1.148-2.013-1.722-3.012-.514.285-.928.473-1.322.703-2.593 1.51-5.178 3.035-7.776 4.536-1.477.854-1.927.712-2.813-.797-.41-.706-.818-1.424-1.373-2.366l-3.749 9.86 10.311 1.648zM53.67 30.166c-2.655 1.548-5.16 3.026-7.678 4.478-2.177 1.262-3.673.854-4.928-1.298-2.627-4.51-2.483-5.06 2.022-7.688l6.02-3.522c-.52-.92-1.157-1.685-1.39-2.562-.208-.783-.281-1.92.146-2.474a3.048 3.048 0 011.07-.781 3.01 3.01 0 011.296-.25c3.805.47 7.594 1.139 11.368 1.77 2.031.345 2.731 1.644 1.992 3.623-1.311 3.496-2.653 6.975-3.98 10.463-.394 1.04-1.002 1.817-2.194 1.922-1.257.108-2-.57-2.548-1.623-.352-.677-.754-1.304-1.196-2.058zm-11.557-.644l1.812 3.035 8.066-4.712c2.726-1.597 2.726-1.594 4.278 1.108.242.421.507.825.889 1.446 1.294-3.402 2.49-6.549 3.73-9.817l-10.3-1.62c.478.854.818 1.463 1.161 2.073 1.06 1.867.951 2.297-.874 3.365-2.867 1.68-5.735 3.354-8.762 5.122zm6.981 22.829c-2.624-1.54-5.13-3.007-7.63-4.478-2.234-1.313-2.63-2.8-1.36-5.063.37-.66.732-1.324 1.126-1.97 1.072-1.757 2.652-2.201 4.441-1.182 2.647 1.51 5.268 3.064 7.99 4.65.479-.812.805-1.709 1.407-2.3.602-.593 1.513-1.31 2.25-1.27.737.04 1.778.797 2.076 1.503 1.555 3.701 2.953 7.465 4.334 11.235a2.263 2.263 0 01-.113 2.003c-.172.302-.41.559-.697.75a2.194 2.194 0 01-.956.356c-3.966.686-7.937 1.338-11.92 1.902-1.93.285-3.249-1.708-2.402-3.505.402-.851.908-1.651 1.454-2.63zm1.474 3.18l10.325-1.64-3.676-9.632c-.2.134-.298.163-.338.228-.385.65-.756 1.307-1.125 1.956-.863 1.467-1.336 1.592-2.835.729-1.097-.63-2.182-1.284-3.276-1.922-1.89-1.099-3.784-2.192-5.76-3.34l-1.722 3.073c3.161 1.847 6.162 3.584 9.144 5.35 1.288.763 1.426 1.352.703 2.676-.436.774-.88 1.537-1.44 2.523zM11.14 30.166c-.528.9-.843 1.808-1.468 2.403-.624.595-1.541 1.21-2.298 1.17-.691-.034-1.67-.792-1.968-1.475-1.547-3.701-2.923-7.48-4.343-11.235-.4-1.056-.138-2.033.765-2.637a1.907 1.907 0 011.64-.122c.357.182.509.905.621 1.424.147.66.028 1.4.253 2.021 1.027 2.83 2.135 5.632 3.322 8.727.546-.943.954-1.652 1.367-2.358.883-1.509 1.333-1.648 2.813-.791 2.961 1.708 5.906 3.448 9.028 5.264l1.786-3.026c-1.93-1.14-3.771-2.23-5.625-3.314a287.564 287.564 0 00-3.656-2.122c-1.058-.603-1.303-1.423-.676-2.485.36-.61.707-1.227 1.058-1.843.352-.614.76-1.138.214-1.913-.189-.285.02-1.07.31-1.37a1.747 1.747 0 011.372-.37c1.38.251 2.149 1.868 1.547 3.22-.403.903-.934 1.746-1.5 2.782.55.334 1.09.667 1.635.989 2.022 1.187 4.053 2.36 6.072 3.556 2.132 1.267 2.515 2.784 1.28 4.988-.32.57-.653 1.139-.987 1.708-1.227 2.102-2.737 2.532-4.813 1.333-2.517-1.466-5.074-2.964-7.748-4.524z"/><path d="M10.626 18.549c-.495.396-.945 1.01-1.5 1.139-.826.176-1.566-.393-1.428-1.279.084-.532.74-1.306 1.2-1.352.535-.054 1.126.57 1.71.894l.018.598z"/></g><defs><clipPath id="clip0_6130_19625"><path fill="#fff" transform="translate(.897 .74)" d="M0 0h63v73H0z"/></clipPath></defs></svg>