<svg width="33" height="33" viewBox="0 0 33 33" fill="none" xmlns="http://www.w3.org/2000/svg">
<g clip-path="url(#clip0_227_670)">
<path d="M17.0912 25.1714C15.8538 26.5851 14.6453 28.0033 13.3966 29.3689C13.0678 29.7298 12.6173 29.9299 12.2232 30.2021L12.0676 30.0246C12.1065 29.211 12.1404 28.3988 12.1931 27.5867C12.3023 25.6873 12.434 23.7878 12.5231 21.8868C12.5257 21.6533 12.5704 21.4233 12.6543 21.2124C12.7381 21.0016 12.8591 20.8151 13.0088 20.6656C17.2916 16.0726 21.5694 11.4711 25.8421 6.86108C26.0806 6.6024 26.2977 6.31665 26.5587 6.00233C26.0178 5.52108 25.6414 5.84141 25.2849 6.1061C23.0327 7.78449 20.7834 9.4704 18.537 11.1638C15.3318 13.5701 12.1278 15.9764 8.92514 18.3827C8.58128 18.6414 8.28887 18.7226 7.88603 18.5677C5.6823 17.7164 3.46602 16.9058 1.25476 16.0696C0.69881 15.8591 0.0198705 15.6831 -0.000209033 14.8289C-0.0215435 14.0062 0.613472 13.6679 1.1506 13.4152C3.96675 12.0872 6.79797 10.7954 9.61914 9.49747C16.2847 6.43546 22.9507 3.37647 29.6171 0.320487C29.8296 0.216378 30.0481 0.13093 30.2709 0.0648189C31.2486 -0.207392 31.989 0.397187 32.0718 1.60334C32.0968 2.12799 32.0588 2.65423 31.9589 3.16592C30.3743 12.1263 28.7813 21.0847 27.18 30.0411C27.1235 30.3596 27.0394 30.6701 26.929 30.9676C26.565 31.9436 25.925 32.3031 25.0904 31.9511C24.7207 31.7823 24.3732 31.5503 24.0588 31.2623C21.9103 29.3945 19.7731 27.5025 17.6309 25.6301C17.4627 25.4827 17.292 25.3414 17.0912 25.1714Z" fill="#D9D9D9"/>
</g>
<defs>
<clipPath id="clip0_227_670">
<rect width="32.0833" height="32.0833" fill="white"/>
</clipPath>
</defs>
</svg>
