<svg width="35" height="33" viewBox="0 0 35 33" fill="none" xmlns="http://www.w3.org/2000/svg">
<path d="M17.3483 32.5901C14.5602 32.5901 11.7721 32.5901 8.98392 32.5901C3.81567 32.5773 0.0170008 29.0262 0.00748036 24.1896C-0.00249345 18.9287 -0.00249345 13.6678 0.00748036 8.40685C0.0170008 3.57021 3.81567 0.00636401 8.98392 0.00636401C14.6055 -0.00212134 20.2271 -0.00212134 25.8487 0.00636401C31.017 0.0152736 34.8252 3.57021 34.8252 8.40685C34.8361 13.6678 34.8361 18.9287 34.8252 24.1896C34.8157 29.0262 31.017 32.5773 25.8487 32.5901C23.0144 32.5977 20.1813 32.5901 17.3483 32.5901ZM5.76056 9.93421C5.92649 10.5006 6.03257 11.0925 6.26922 11.6296C9.33345 18.5231 14.6921 23.2503 21.9821 26.1395C22.6526 26.4055 23.3421 26.585 24.0888 26.3457C25.5278 25.8824 26.6172 25.0424 27.2904 23.7632C27.7555 22.8824 27.6318 22.148 26.8171 21.5447C25.7005 20.7187 24.5485 19.927 23.353 19.204C22.3384 18.5905 21.4027 18.6656 20.656 19.2855C20.4273 19.4902 20.2163 19.7115 20.0249 19.9473C19.4279 20.6321 18.8675 20.795 17.9848 20.501C17.6672 20.3891 17.3574 20.2586 17.0573 20.1103C14.9723 19.1137 13.3851 17.6563 12.4045 15.6555C11.8251 14.473 12.0182 13.7908 13.1294 13.0157C13.2192 12.952 13.3171 12.896 13.4014 12.8298C14.2175 12.2202 14.3698 11.6372 13.9128 10.7666C13.1715 9.30662 12.1238 8.00112 10.8322 6.92786C10.4566 6.62918 9.98623 6.45471 9.49394 6.43147C7.62385 6.4251 5.85576 8.16248 5.76056 9.93421ZM27.3557 15.4073C27.2469 11.3827 24.3785 7.77682 20.3949 6.62493C19.3531 6.32328 18.2188 6.26091 17.1307 6.16163C16.9362 6.14381 16.705 6.48747 16.4901 6.67075C16.6778 6.83749 16.8383 7.09332 17.0586 7.15314C17.5551 7.28042 18.0841 7.30843 18.5955 7.4077C22.2867 8.08611 24.8776 9.92403 25.7875 13.479C25.9983 14.2999 26.0677 15.1514 26.2649 15.9762C26.3125 16.1799 26.6063 16.3313 26.7872 16.507C26.9776 16.3186 27.2319 16.1569 27.338 15.9329C27.4291 15.7242 27.3557 15.4594 27.3557 15.4073ZM24.6832 14.3954C24.6511 14.0627 24.6012 13.7318 24.5336 13.4039C23.8644 10.731 21.0545 8.62705 18.0583 8.54432C17.6666 8.53286 17.3782 8.63341 17.3102 9.02034C17.23 9.44546 17.5455 9.56128 17.8978 9.65674C18.7465 9.8693 19.6115 10.0386 20.437 10.3186C21.0404 10.5095 21.5867 10.8318 22.0309 11.2588C22.4752 11.6859 22.8048 12.2056 22.9926 12.7751C23.2048 13.3746 23.353 13.9957 23.5094 14.6118C23.6101 15.0114 23.4265 15.63 24.1895 15.5422C24.913 15.462 24.5839 14.865 24.6832 14.3954ZM18.7587 10.9588C18.6417 11.0517 18.2378 11.2134 18.1399 11.4807C17.9658 11.9529 18.4758 12.0038 18.8118 12.0623C20.0521 12.2813 20.7757 12.9444 20.962 14.1217C21.0164 14.4679 21.1211 14.8218 21.6108 14.7861C22.1398 14.7467 22.1548 14.3508 22.1657 13.9843C22.1766 12.6135 20.4778 10.9868 18.7587 10.9652V10.9588Z" fill="#D9D9D9"/>
</svg>
