<svg width="38" height="27" viewBox="0 0 38 27" fill="none" xmlns="http://www.w3.org/2000/svg">
<g clip-path="url(#clip0_227_678)">
<path d="M18.7694 26.5834C13.9458 26.2314 9.14124 25.907 4.34259 25.5172C2.20235 25.3426 0.734427 23.8808 0.495155 21.7746C-0.128508 16.4268 -0.160503 11.0275 0.39974 5.67277C0.4702 5.02404 0.476072 4.34477 0.693325 3.73968C1.27462 2.05531 2.49594 1.02549 4.30002 0.87276C7.92727 0.573123 11.5604 0.251668 15.1979 0.0902132C21.2164 -0.180333 27.2246 0.183304 33.2123 0.853851C35.3981 1.09967 36.8733 2.55131 37.1141 4.72004C37.7431 10.362 37.7431 16.0555 37.1141 21.6975C36.8748 23.8401 35.4186 25.3339 33.2578 25.5157C28.4313 25.9085 23.6018 26.2314 18.7694 26.5834ZM15.7352 7.04005V19.3455L25.0521 13.1899L15.7352 7.04005Z" fill="#D9D9D9"/>
</g>
<defs>
<clipPath id="clip0_227_678">
<rect width="37.5833" height="26.5833" fill="white"/>
</clipPath>
</defs>
</svg>
