<svg width="80" height="80" viewBox="0 0 80 80" fill="none" xmlns="http://www.w3.org/2000/svg">
<rect width="80" height="80" rx="40" fill="#0CC689"/>
<path fill-rule="evenodd" clip-rule="evenodd" d="M33.8165 34.03V34.4995H31.8623C31.2801 34.4995 30.786 34.9159 30.7016 35.4776L30.4169 37.3722C29.861 41.072 29.861 44.831 30.4169 48.5309C30.666 50.1887 32.0369 51.4702 33.7459 51.6431L34.5645 51.7259C38.1785 52.0914 41.8215 52.0914 45.4355 51.7259L46.2541 51.6431C47.9631 51.4702 49.3341 50.1887 49.5831 48.5309C50.139 44.831 50.139 41.072 49.5831 37.3722L49.2984 35.4776C49.214 34.9159 48.7199 34.4995 48.1377 34.4995H46.1836V34.03C46.1836 31.2781 44.273 28.8753 41.54 28.19C40.5298 27.9367 39.4703 27.9367 38.4601 28.19C35.727 28.8753 33.8165 31.2781 33.8165 34.03ZM41.0537 30.0342C40.3624 29.8609 39.6376 29.8609 38.9463 30.0342C37.0764 30.5031 35.7692 32.1471 35.7692 34.03V34.4995H44.2309V34.03C44.2309 32.1471 42.9237 30.5031 41.0537 30.0342ZM35.7692 36.4037C35.7692 35.8779 35.332 35.4516 34.7928 35.4516C34.2536 35.4516 33.8165 35.8779 33.8165 36.4037V38.9427C33.8165 39.4685 34.2536 39.8948 34.7928 39.8948C35.332 39.8948 35.7692 39.4685 35.7692 38.9427V36.4037ZM46.1836 36.4037C46.1836 35.8779 45.7464 35.4516 45.2072 35.4516C44.668 35.4516 44.2309 35.8779 44.2309 36.4037V38.9427C44.2309 39.4685 44.668 39.8948 45.2072 39.8948C45.7464 39.8948 46.1836 39.4685 46.1836 38.9427V36.4037Z" fill="#EBF5FB"/>
</svg>
