<svg width="80" height="80" viewBox="0 0 80 80" fill="none" xmlns="http://www.w3.org/2000/svg">
<rect width="80" height="80" rx="40" fill="#0CC689"/>
<path fill-rule="evenodd" clip-rule="evenodd" d="M43.2581 28.3077C43.2581 28.1378 43.1209 28 42.9516 28H34.371C32.5092 28 31 29.5153 31 31.3846V48.6154C31 50.4847 32.5092 52 34.371 52H46.629C48.4908 52 50 50.4847 50 48.6154V36.4887C50 36.3188 49.8628 36.181 49.6935 36.181H44.1774C43.6697 36.181 43.2581 35.7677 43.2581 35.2579V28.3077ZM44.1774 40.3077C44.6851 40.3077 45.0968 40.721 45.0968 41.2308C45.0968 41.7406 44.6851 42.1538 44.1774 42.1538H36.8226C36.3148 42.1538 35.9032 41.7406 35.9032 41.2308C35.9032 40.721 36.3148 40.3077 36.8226 40.3077H44.1774ZM44.1774 45.2308C44.6851 45.2308 45.0968 45.6441 45.0968 46.1538C45.0968 46.6636 44.6851 47.0769 44.1774 47.0769H36.8226C36.3148 47.0769 35.9032 46.6636 35.9032 46.1538C35.9032 45.6441 36.3148 45.2308 36.8226 45.2308H44.1774Z" fill="white"/>
<path d="M45 29.2414C45 29.0494 45.2604 28.9275 45.4546 29.0481C45.618 29.1496 45.765 29.2686 45.8904 29.4031L49.9645 33.7715C50.0572 33.8709 49.9568 34 49.7976 34H45.338C45.1513 34 45 33.8835 45 33.7398V29.2414Z" fill="white"/>
</svg>
