<svg width="80" height="80" viewBox="0 0 80 80" fill="none" xmlns="http://www.w3.org/2000/svg">
<rect width="80" height="80" rx="40" fill="#0CC689"/>
<path d="M48.5497 45.6628C48.5497 46.502 48.0003 47.0816 47.1379 47.1743C45.4501 47.3598 43.7602 47.5522 42.0705 47.7377C41.4515 47.8072 40.828 47.8628 40.2159 47.9231H39.9517V47.9393C39.6155 47.9115 39.2956 47.8953 38.9758 47.8581C37.7912 47.7283 36.6067 47.5915 35.422 47.4571C34.4948 47.3528 33.5674 47.253 32.6541 47.1395H32.6539C32.3223 47.0857 32.0201 46.9167 31.8006 46.6625C31.581 46.4081 31.458 46.0846 31.4531 45.7487V42.7489V39.355H31.6523H35.6513C36.0663 39.3675 36.476 39.2604 36.832 39.0467C37.1879 38.8331 37.4749 38.5216 37.6589 38.1495C38.3962 36.7841 39.1125 35.4072 39.8381 34.0323C39.8637 33.9837 39.8937 33.935 39.9424 33.8516V33.8771L40.042 34.044C40.7792 35.4186 41.5071 36.798 42.2537 38.1657V38.1658C42.4442 38.5386 42.7365 38.8495 43.0968 39.0625C43.4572 39.2756 43.8707 39.3819 44.2891 39.3689H48.3343H48.5476V39.5822C48.5506 41.6098 48.5514 43.6368 48.55 45.663L48.5497 45.6628Z" fill="white"/>
<path d="M47.8132 38.5043H44.5676C44.32 38.5119 44.0758 38.446 43.8658 38.3148C43.6557 38.1835 43.4893 37.993 43.3876 37.7672C42.5283 36.0672 41.6706 34.3741 40.8144 32.6878L40.7936 32.6461C40.7049 32.5178 40.6943 32.3511 40.7657 32.2125C40.8633 32.0867 41.0279 32.0334 41.1807 32.0782L44.4261 32.4931L47.7504 32.9242L47.7506 32.9243C48.259 32.9749 48.7129 33.265 48.9723 33.7055C49.8091 35.0779 50.6367 36.4573 51.4668 37.8342H51.4666C51.4997 37.8874 51.5285 37.9432 51.5525 38.0011C51.6048 38.1008 51.6039 38.2202 51.5499 38.319C51.4957 38.4178 51.3958 38.4829 51.2835 38.4926C51.2067 38.5036 51.1291 38.5075 51.0517 38.5041L47.8132 38.5043Z" fill="white"/>
<path d="M32.1861 38.5054H29.0194H28.8803C28.7121 38.5331 28.5433 38.4597 28.449 38.3177C28.3831 38.1617 28.4119 37.9817 28.5233 37.8541C29.3601 36.4631 30.1901 35.0723 31.0362 33.7C31.292 33.2695 31.7365 32.9857 32.2347 32.9349C33.4325 32.7804 34.6317 32.6259 35.8325 32.4713C36.827 32.3439 37.8239 32.2141 38.8207 32.0889V32.0887C38.912 32.0807 39.0042 32.09 39.092 32.1166C39.2291 32.1589 39.3072 32.303 39.2681 32.4411C39.2489 32.5275 39.2185 32.6107 39.1777 32.6892C38.3131 34.3955 37.4483 36.1086 36.579 37.817C36.4823 38.027 36.3269 38.2044 36.1314 38.3278C35.936 38.4512 35.709 38.5154 35.4779 38.5125C34.3791 38.5125 33.2757 38.5055 32.1861 38.5055L32.1861 38.5054Z" fill="white"/>
</svg>
