<svg width="108" height="39" viewBox="0 0 108 39" fill="none" xmlns="http://www.w3.org/2000/svg">
<path d="M50.0012 10.6037L47.382 6.8142V10.6037H45.5117V2.41357H47.382V5.97251L49.8859 2.41357H52.0135L49.2523 6.40297L52.1288 10.6037H50.0012Z" fill="white"/>
<path d="M55.5896 7.91341H54.7025V10.6038H52.8322V2.41358H56.1042C56.4732 2.41257 56.8387 2.48455 57.1797 2.62538C57.5208 2.76621 57.8307 2.97311 58.0916 3.2342C58.3525 3.49529 58.5592 3.80541 58.6999 4.14673C58.8407 4.48805 58.9126 4.85384 58.9116 5.22307C58.9037 5.71984 58.7585 6.20471 58.4921 6.62396C58.2257 7.0432 57.8485 7.38042 57.4023 7.59826L59.142 10.6038H57.1296L55.5896 7.91341ZM54.7025 6.27615H56.1042C56.2351 6.26929 56.3633 6.23653 56.4814 6.17975C56.5996 6.12297 56.7053 6.0433 56.7924 5.94536C56.8796 5.84742 56.9464 5.73315 56.9891 5.60917C57.0319 5.48518 57.0496 5.35395 57.0413 5.22307C57.0496 5.09219 57.0319 4.96095 56.9891 4.83697C56.9464 4.71299 56.8796 4.59872 56.7924 4.50078C56.7053 4.40284 56.5996 4.32317 56.4814 4.26639C56.3633 4.20961 56.2351 4.17685 56.1042 4.16999H54.7025V6.27615Z" fill="white"/>
<path d="M59.5529 6.51062C59.5529 5.38122 60.0012 4.29807 60.7992 3.49946C61.5972 2.70085 62.6795 2.2522 63.808 2.2522C64.9366 2.2522 66.0189 2.70085 66.8169 3.49946C67.6149 4.29807 68.0632 5.38122 68.0632 6.51062C68.0632 7.64003 67.6149 8.72317 66.8169 9.52178C66.0189 10.3204 64.9366 10.769 63.808 10.769C62.6795 10.769 61.5972 10.3204 60.7992 9.52178C60.0012 8.72317 59.5529 7.64003 59.5529 6.51062ZM66.1929 6.51062C66.1929 6.19719 66.1313 5.88683 66.0114 5.59726C65.8916 5.30769 65.7159 5.04459 65.4944 4.82296C65.273 4.60133 65.0101 4.42553 64.7207 4.30558C64.4314 4.18564 64.1212 4.12391 63.808 4.12391C63.4949 4.12391 63.1847 4.18564 62.8954 4.30558C62.606 4.42553 62.3431 4.60133 62.1217 4.82296C61.9002 5.04459 61.7246 5.30769 61.6047 5.59726C61.4848 5.88683 61.4232 6.19719 61.4232 6.51062C61.4232 6.82405 61.4848 7.13441 61.6047 7.42398C61.7246 7.71355 61.9002 7.97666 62.1217 8.19829C62.3431 8.41991 62.606 8.59572 62.8954 8.71566C63.1847 8.8356 63.4949 8.89734 63.808 8.89734C64.1212 8.89734 64.4314 8.8356 64.7207 8.71566C65.0101 8.59572 65.273 8.41991 65.4944 8.19829C65.7159 7.97666 65.8916 7.71355 66.0114 7.42398C66.1313 7.13441 66.1929 6.82405 66.1929 6.51062Z" fill="white"/>
<path d="M68.7671 6.51059C68.7523 5.94733 68.8522 5.38696 69.0608 4.86361C69.2694 4.34026 69.5823 3.8649 69.9804 3.46648C70.3786 3.06806 70.8536 2.75492 71.3765 2.54616C71.8995 2.33739 72.4594 2.23736 73.0222 2.25217C73.7197 2.24187 74.4083 2.41063 75.0221 2.74233C75.6359 3.07403 76.1545 3.55761 76.5285 4.14693L74.9156 5.08471C74.7182 4.76332 74.4386 4.50052 74.1058 4.32349C73.7729 4.14646 73.3988 4.06162 73.0222 4.07775C71.5706 4.07775 70.6373 5.05012 70.6373 6.51059C70.6373 7.97106 71.5744 8.94342 73.0222 8.94342C73.3991 8.96119 73.7738 8.87707 74.1069 8.69988C74.4401 8.5227 74.7194 8.25899 74.9156 7.93647L76.5285 8.87424C76.1558 9.46421 75.6372 9.9479 75.023 10.2785C74.4087 10.6091 73.7196 10.7754 73.0222 10.7613C72.4601 10.7761 71.9008 10.6763 71.3784 10.468C70.8559 10.2597 70.3813 9.94725 69.9833 9.54966C69.5853 9.15207 69.2722 8.67763 69.0631 8.15519C68.8541 7.63274 68.7533 7.07321 68.7671 6.51059Z" fill="white"/>
<path d="M81.8957 10.6037L79.2765 6.8142V10.6037H77.4062V2.41357H79.2765V5.97251L81.7805 2.41357H83.9081L81.1468 6.40297L84.0233 10.6037H81.8957Z" fill="white"/>
<path d="M52.7603 19.2167C52.7752 19.7488 52.683 20.2785 52.4891 20.7742C52.2952 21.2699 52.0035 21.7214 51.6315 22.102C51.2596 22.4825 50.8148 22.7842 50.3239 22.989C49.833 23.1939 49.3058 23.2978 48.7739 23.2945H45.498V15.1043H48.7739C49.3088 15.1009 49.8389 15.2058 50.3322 15.4128C50.8255 15.6198 51.2719 15.9246 51.6443 16.3089C52.0168 16.6931 52.3077 17.1488 52.4995 17.6486C52.6913 18.1483 52.78 18.6817 52.7603 19.2167ZM50.9591 19.2167C50.9591 17.8139 50.072 16.9107 48.7854 16.9107H47.3837V21.492H48.7739C50.072 21.492 50.9591 20.6042 50.9591 19.2167Z" fill="white"/>
<path d="M55.6847 15.1042V23.2944H53.8145V15.1042H55.6847Z" fill="white"/>
<path d="M65.1872 19.4319C65.1872 21.9377 63.4436 23.4558 61.1547 23.4558C58.5817 23.4558 56.7344 21.5611 56.7344 19.2089C56.7313 18.6454 56.8404 18.0869 57.0551 17.5659C57.2699 17.0449 57.5861 16.572 57.9854 16.1745C58.3847 15.7771 58.859 15.4632 59.3807 15.2511C59.9024 15.039 60.4611 14.9329 61.0242 14.939C61.7301 14.9236 62.4284 15.0871 63.0542 15.4143C63.68 15.7416 64.213 16.2219 64.6034 16.8107L63.0135 17.7254C62.7013 17.3177 62.2694 17.018 61.7784 16.8684C61.2873 16.7188 60.7618 16.7268 60.2756 16.8913C59.7893 17.0558 59.3667 17.3684 59.0671 17.7855C58.7674 18.2025 58.6057 18.703 58.6047 19.2166C58.6047 20.6079 59.5879 21.6264 61.1778 21.6264C62.2646 21.6264 62.9789 21.146 63.2708 20.3619H61.0856V18.7324H65.191L65.1872 19.4319Z" fill="white"/>
<path d="M68.1086 15.1042V23.2944H66.2383V15.1042H68.1086Z" fill="white"/>
<path d="M75.0112 16.9106H72.9067V23.2944H71.0479V16.9106H68.9434V15.1042H75.0227L75.0112 16.9106Z" fill="white"/>
<path d="M80.0386 22.0069H76.997L76.5861 23.2944H74.543L77.3273 15.1042H79.7122L82.4964 23.2944H80.4495L80.0386 22.0069ZM79.4779 20.2505L78.5178 17.245L77.5769 20.2505H79.4779Z" fill="white"/>
<path d="M87.9881 21.4919V23.2944H83.1914V15.1042H85.0617V21.4919H87.9881Z" fill="white"/>
<path d="M45.1018 34.125L46.7148 33.1872C46.8365 33.5409 47.0706 33.8451 47.3812 34.0533C47.6919 34.2615 48.0621 34.3622 48.4353 34.3402C49.3224 34.3402 49.5452 33.9904 49.5452 33.6714C49.5452 33.168 49.0766 32.9681 47.8515 32.6299C46.6264 32.2917 45.4436 31.7036 45.4436 30.1394C45.4436 28.5752 46.7762 27.6451 48.1895 27.6451C48.8147 27.6242 49.4321 27.7884 49.9643 28.1173C50.4965 28.4462 50.9198 28.925 51.1812 29.4937L49.6028 30.42C49.4996 30.1313 49.3067 29.8833 49.0523 29.7125C48.7979 29.5416 48.4955 29.4569 48.1895 29.4707C47.6058 29.4707 47.3139 29.7628 47.3139 30.0894C47.3139 30.4161 47.5136 30.7198 48.7886 31.1079C50.0636 31.4961 51.4193 31.915 51.4193 33.6484C51.4193 35.228 50.1558 36.1658 48.3777 36.1658C46.6572 36.1465 45.5588 35.3279 45.1018 34.125Z" fill="white"/>
<path d="M51.9415 31.8995C51.9415 31.0573 52.1911 30.234 52.6587 29.5337C53.1262 28.8334 53.7908 28.2876 54.5683 27.9653C55.3459 27.643 56.2014 27.5586 57.0269 27.7229C57.8523 27.8873 58.6105 28.2928 59.2056 28.8884C59.8007 29.4839 60.2059 30.2427 60.3701 31.0688C60.5343 31.8948 60.45 32.751 60.128 33.5292C59.8059 34.3073 59.2605 34.9724 58.5608 35.4403C57.861 35.9082 57.0383 36.158 56.1967 36.158C55.6368 36.162 55.0816 36.0547 54.5635 35.8421C54.0454 35.6296 53.5747 35.3161 53.1787 34.9198C52.7828 34.5236 52.4695 34.0525 52.2571 33.534C52.0447 33.0155 51.9375 32.4599 51.9415 31.8995ZM58.5816 31.8995C58.5725 31.4296 58.425 30.9727 58.1575 30.5863C57.89 30.2 57.5144 29.9012 57.0779 29.7277C56.6414 29.5541 56.1634 29.5133 55.7038 29.6106C55.2443 29.7078 54.8237 29.9387 54.4947 30.2742C54.1658 30.6098 53.9432 31.0351 53.8548 31.4967C53.7665 31.9584 53.8163 32.4359 53.9981 32.8693C54.1799 33.3028 54.4855 33.6728 54.8767 33.9331C55.2678 34.1934 55.727 34.3323 56.1967 34.3324C56.5161 34.3406 56.8337 34.2829 57.1298 34.163C57.426 34.043 57.6943 33.8634 57.918 33.6351C58.1417 33.4069 58.3161 33.135 58.4303 32.8364C58.5444 32.5378 58.5959 32.2189 58.5816 31.8995Z" fill="white"/>
<path d="M66.3006 34.1827V35.9853H61.5039V27.7913H63.3665V34.1827H66.3006Z" fill="white"/>
<path d="M66.9414 33.341V27.7913H68.8117V33.1719C68.8117 33.7907 69.1036 34.3249 70.0982 34.3249C71.0929 34.3249 71.3848 33.7984 71.3848 33.1719V27.7913H73.2551V33.341C73.2551 35.0975 71.8994 36.1505 70.0982 36.1505C68.2971 36.1505 66.9414 35.0936 66.9414 33.341Z" fill="white"/>
<path d="M80.095 29.5938H77.9905V35.9853H76.1202V29.5938H74.0156V27.7913H80.095V29.5938Z" fill="white"/>
<path d="M82.7843 27.7913V35.9853H80.9141V27.7913H82.7843Z" fill="white"/>
<path d="M83.836 31.8995C83.836 31.0573 84.0855 30.234 84.5531 29.5337C85.0206 28.8334 85.6852 28.2876 86.4627 27.9653C87.2403 27.643 88.0959 27.5586 88.9213 27.7229C89.7467 27.8873 90.5049 28.2928 91.1 28.8884C91.6951 29.4839 92.1004 30.2427 92.2645 31.0688C92.4287 31.8948 92.3445 32.751 92.0224 33.5292C91.7003 34.3073 91.1549 34.9724 90.4552 35.4403C89.7554 35.9082 88.9327 36.158 88.0911 36.158C87.5312 36.162 86.976 36.0547 86.4579 35.8421C85.9398 35.6296 85.4691 35.3161 85.0732 34.9198C84.6772 34.5236 84.3639 34.0525 84.1515 33.534C83.9391 33.0155 83.8319 32.4599 83.836 31.8995ZM90.476 31.8995C90.467 31.4296 90.3194 30.9727 90.0519 30.5863C89.7844 30.2 89.4088 29.9012 88.9723 29.7277C88.5358 29.5541 88.0578 29.5133 87.5983 29.6106C87.1387 29.7078 86.7181 29.9387 86.3891 30.2742C86.0602 30.6098 85.8376 31.0351 85.7492 31.4967C85.6609 31.9584 85.7107 32.4359 85.8925 32.8693C86.0743 33.3028 86.3799 33.6728 86.7711 33.9331C87.1622 34.1934 87.6214 34.3323 88.0911 34.3324C88.4105 34.3406 88.7281 34.2829 89.0243 34.163C89.3204 34.043 89.5887 33.8634 89.8124 33.6351C90.0361 33.4069 90.2105 33.135 90.3247 32.8364C90.4388 32.5378 90.4904 32.2189 90.476 31.8995Z" fill="white"/>
<path d="M99.8311 27.7913V35.9853H98.4294L95.2726 31.5385V35.9853H93.3984V27.7913H94.8002L97.957 32.238V27.7913H99.8311Z" fill="white"/>
<path d="M100.707 34.125L102.32 33.1872C102.442 33.5409 102.676 33.8451 102.987 34.0533C103.297 34.2615 103.667 34.3622 104.041 34.3402C104.928 34.3402 105.15 33.9904 105.15 33.6714C105.15 33.168 104.682 32.9681 103.457 32.6299C102.232 32.2917 101.049 31.7036 101.049 30.1394C101.049 28.5752 102.382 27.6451 103.795 27.6451C104.42 27.6242 105.037 27.7884 105.57 28.1173C106.102 28.4462 106.525 28.925 106.786 29.4937L105.208 30.42C105.104 30.1316 104.911 29.884 104.657 29.7133C104.403 29.5425 104.101 29.4575 103.795 29.4707C103.211 29.4707 102.919 29.7628 102.919 30.0894C102.919 30.4161 103.119 30.7198 104.394 31.1079C105.669 31.4961 107.025 31.915 107.025 33.6484C107.025 35.228 105.761 36.1658 103.983 36.1658C102.262 36.1465 101.16 35.3279 100.707 34.125Z" fill="white"/>
<path d="M34.4945 0H4.13612C3.03915 0 1.98711 0.436102 1.21144 1.21237C0.435769 1.98863 0 3.04148 0 4.13928L0 34.5209C0 35.6187 0.435769 36.6716 1.21144 37.4478C1.98711 38.2241 3.03915 38.6602 4.13612 38.6602H34.4945C35.5915 38.6602 36.6436 38.2241 37.4192 37.4478C38.1949 36.6716 38.6307 35.6187 38.6307 34.5209V4.13928C38.6307 3.04148 38.1949 1.98863 37.4192 1.21237C36.6436 0.436102 35.5915 0 34.4945 0V0ZM30.5697 14.3972C30.335 14.4582 30.0939 14.4904 29.8515 14.4932L26.4988 20.9578C27.0132 21.3569 27.3839 21.9127 27.5549 22.5412C27.6586 22.9253 27.6856 23.3261 27.6345 23.7206C27.5834 24.1151 27.4551 24.4957 27.257 24.8407C27.0589 25.1856 26.7948 25.4881 26.4799 25.7309C26.165 25.9737 25.8054 26.1521 25.4216 26.2558C25.0378 26.3595 24.6373 26.3866 24.2431 26.3354C23.8489 26.2843 23.4685 26.1559 23.1239 25.9576C22.4278 25.5572 21.9191 24.8965 21.7098 24.1208C21.6342 23.8248 21.6044 23.5189 21.6215 23.2138L17.5161 21.5842C17.1241 22.0351 16.6071 22.3592 16.0306 22.5152C15.4541 22.6713 14.8443 22.6522 14.2786 22.4605L11.5673 25.9195C11.7368 26.1737 11.8663 26.4523 11.9514 26.7458C12.1317 27.3985 12.0889 28.0927 11.8297 28.7182C11.5706 29.3437 11.1099 29.8646 10.5209 30.198C9.932 30.5314 9.24859 30.6582 8.57937 30.5582C7.91015 30.4582 7.29353 30.1373 6.82752 29.6463C6.36152 29.1554 6.07288 28.5226 6.00749 27.8486C5.94211 27.1746 6.10373 26.4981 6.46666 25.9266C6.82959 25.3551 7.37301 24.9215 8.01052 24.6945C8.64803 24.4676 9.34304 24.4605 9.98506 24.6743L12.6964 21.2153C12.5269 20.9611 12.3974 20.6824 12.3124 20.3889C12.1015 19.6122 12.2076 18.7835 12.6073 18.0851C13.0071 17.3866 13.6677 16.8757 14.4438 16.6647C15.2199 16.4537 16.048 16.5599 16.7459 16.96C17.4438 17.36 17.9543 18.0211 18.1651 18.7978C18.2408 19.0938 18.2706 19.3997 18.2535 19.7048L22.3435 21.3344C22.6159 21.0161 22.9532 20.7599 23.3327 20.5829C23.7123 20.4059 24.1253 20.3122 24.5441 20.3082L27.9121 13.836C27.3977 13.4369 27.027 12.8811 26.856 12.2526C26.6999 11.6744 26.7186 11.063 26.9097 10.4955C27.1008 9.92797 27.4558 9.42991 27.9297 9.06424C28.4036 8.69858 28.9752 8.48173 29.5722 8.44111C30.1692 8.40048 30.7649 8.53791 31.2839 8.83601C31.8029 9.13411 32.2219 9.57951 32.488 10.1159C32.7541 10.6523 32.8554 11.2556 32.7789 11.8496C32.7025 12.4435 32.4518 13.0015 32.0586 13.4529C31.6653 13.9043 31.1472 14.2289 30.5697 14.3856V14.3972Z" fill="white"/>
</svg>
