<svg width="60" height="60" fill="none" xmlns="http://www.w3.org/2000/svg"><rect width="60" height="60" rx="10" fill="#0B0A06"/><path fill-rule="evenodd" clip-rule="evenodd" d="M31.253 43.492V42.06a.864.864 0 00-.862-.863.864.864 0 00-.862.863v1.432c-8.963-3.482-14.067-9.646-16.354-15.334h1.484a.864.864 0 000-1.727h-2.091a19.506 19.506 0 01-.76-3.55c-.514-4.585.912-8.434 3.816-10.303 1.915-1.23 3.83-1.853 5.701-1.853 4.055 0 6.98 2.873 8.209 4.344v1.628c0 .476.387.863.862.863a.864.864 0 00.862-.863V15.07c1.23-1.47 4.153-4.345 8.209-4.345 1.87 0 3.785.623 5.7 1.854 2.905 1.869 4.33 5.723 3.816 10.303a19.102 19.102 0 01-.76 3.55h-2.096a.864.864 0 000 1.727h1.484c-2.292 5.688-7.395 11.847-16.358 15.334zM13.239 12.279c-1.01.99-1.803 2.236-2.356 3.663-.04.098-.074.201-.113.3l-.005.014-.005.015c-.313.917-1.087 3.658-.607 7.277.171 1.246.485 2.575.945 3.933a.803.803 0 00.064.181c1.513 4.374 4.57 9.112 9.585 12.917-.544.951-1.577 2.77-2.561 4.595-.843 1.554-1.49 2.81-1.925 3.732-.613 1.294-1.141 2.417-.275 2.937.133.078.26.157.441.157.73 0 2.376-1.24 9.086-8.43a36.3 36.3 0 004.202 1.834l.294.103.392.138.68-.24a36.3 36.3 0 004.203-1.835c6.71 7.19 8.355 8.43 9.085 8.43.181 0 .309-.074.436-.157.867-.52.338-1.643-.274-2.937-.436-.922-1.083-2.178-1.925-3.732a252.505 252.505 0 00-2.562-4.595c5.016-3.805 8.072-8.543 9.585-12.917a.798.798 0 00.064-.181c.46-1.363.769-2.687.94-3.933.475-3.595-.289-6.326-.602-7.258-.539-1.54-1.357-2.878-2.424-3.947-1.02-1.02-2.435-1.864-3.737-2.408-4.883-2.025-9.625-.716-13.48 3.496-1.415-1.544-4.025-3.8-7.561-4.325-1.97-.29-3.924.03-5.77.775-1.318.525-2.792 1.383-3.82 2.398zm29.088 36.063c-.94-1.844-2.317-4.345-3.693-6.748-.573.387-1.17.76-1.793 1.123 1.95 2.074 3.977 4.159 5.486 5.625zm-23.867 0c1.508-1.462 3.536-3.55 5.48-5.625a31.928 31.928 0 01-1.792-1.123c-1.372 2.403-2.748 4.904-3.688 6.748z" fill="#F9C0AC"/><path fill-rule="evenodd" clip-rule="evenodd" d="M30.64 27.598c-.245 0-.48.044-.695.127-1.759-.946-2.047-1.079-2.047-1.079s-1.068-.686-1.534-1.598c-.014-.03-.039-.074-.053-.103v-.005c-.01-.035-.015-.074-.025-.108l-.044-.206a.39.39 0 00-.122-.206l-.196-.172a.167.167 0 00-.157-.034c-.412-.407-3.443-3.389-9.943-8.797a.257.257 0 00-.195-.054.225.225 0 00-.162.098c-.201.289-.21.936.901 2.388 1.4 1.829 4.178 4.413 8.248 7.674-.01.054.01.113.054.152l.196.172a.358.358 0 00.215.093c.108.01.21.02.314.034.744.206 1.327.765 1.9 1.349 0 0 .206.284 1.4 1.971-.009.089-.019.172-.019.26a1.965 1.965 0 103.928 0c0-.039 0-.073-.005-.112 1.597-2.08 3.448-3.87 3.448-3.87s2.924-2.662 3.87-2.908c0 0 .847.633 1.601-.01l4.163-3.55c.304-.255.554-.569.74-.917a3.15 3.15 0 00-1.024.584l-4.07 3.467a.243.243 0 01-.347-.03.244.244 0 01.029-.348l4.07-3.467c.304-.255.553-.569.74-.917-.373.128-.72.329-1.024.584l-4.07 3.467a.249.249 0 01-.353-.03.25.25 0 01.03-.353l4.07-3.467a3.14 3.14 0 00.74-.917c-.373.128-.72.329-1.024.584l-4.07 3.467a.243.243 0 01-.348-.03.244.244 0 01.03-.348l4.07-3.467c.303-.255.553-.569.739-.917a3.14 3.14 0 00-1.024.584l-4.163 3.55c-.754.642-.264 1.584-.264 1.584-.397.897-3.488 3.36-3.488 3.36s-1.792 1.372-4.114 2.686a2.132 2.132 0 00-.916-.215z" fill="#F9C0AC"/></svg>