<svg width="35" height="30" fill="none" xmlns="http://www.w3.org/2000/svg"><g clip-path="url(#clip0_2514_1859)" fill="#F3F3F3"><path d="M17.357 11.504c3.81.013 7.197 1.284 10.244 3.518 2.75 2.014 4.961 4.514 6.571 7.533.449.842.07 1.756-.8 1.991-.613.166-1.208-.113-1.542-.743-.93-1.749-2.122-3.3-3.529-4.688-1.985-1.959-4.249-3.48-6.924-4.319-3.337-1.046-6.605-.788-9.764.671-3.81 1.759-6.657 4.562-8.66 8.244-.368.675-.911.984-1.527.854-.88-.186-1.322-1.124-.904-1.948a19.966 19.966 0 012.535-3.818c2.554-3.037 5.643-5.298 9.434-6.534a16.195 16.195 0 014.866-.763v.002z"/><path d="M17.364 29.815c-3.6 0-6.516-2.93-6.52-6.55-.004-3.64 2.917-6.57 6.538-6.562 3.603.007 6.508 2.939 6.504 6.563-.005 3.621-2.92 6.55-6.522 6.55zm-.04-2.67c2.11.03 3.87-1.686 3.902-3.806.032-2.162-1.65-3.934-3.77-3.968a3.866 3.866 0 00-3.954 3.817c-.026 2.172 1.67 3.928 3.821 3.957zM4.68 13.213c-.28-.137-.607-.22-.834-.419a126.603 126.603 0 01-2.986-2.69 1.306 1.306 0 01-.09-1.857c.485-.545 1.286-.623 1.846-.13 1.024.9 2.03 1.818 3.029 2.744.42.389.514.958.297 1.468-.213.502-.682.81-1.263.885l.001-.001zm25.371-.015c-.573-.055-1.05-.357-1.258-.858-.223-.534-.155-1.052.262-1.443a103.11 103.11 0 013.102-2.81c.536-.467 1.32-.37 1.793.15.469.516.486 1.323-.029 1.809a106.82 106.82 0 01-3.107 2.805c-.202.176-.507.235-.764.347h.001zM18.694 4.144c0 .644.004 1.288 0 1.933-.005.807-.572 1.404-1.326 1.405-.755.002-1.327-.596-1.33-1.401a621.903 621.903 0 010-3.864c.002-.812.563-1.402 1.324-1.402.761 0 1.326.587 1.33 1.398.005.644 0 1.288 0 1.933l.002-.002z"/></g><defs><clipPath id="clip0_2514_1859"><path fill="#fff" transform="translate(.363 .815)" d="M0 0h34v29H0z"/></clipPath></defs></svg>