<svg width="45" height="38" viewBox="0 0 45 38" fill="none" xmlns="http://www.w3.org/2000/svg">
<path d="M16.8825 19.0418H21.0416C23.3291 19.0418 25.5229 19.9505 27.1404 21.568C28.7579 23.1855 29.6666 25.3793 29.6666 27.6668H16.248L16.25 29.5835H31.5833V27.6668C31.5772 25.6274 30.988 23.6323 29.8851 21.9168H35.4166C37.2284 21.9163 39.0032 22.4294 40.5351 23.3966C42.0671 24.3637 43.2936 25.7454 44.0723 27.3812C39.5394 33.3632 32.2005 37.2502 23.9166 37.2502C18.6247 37.2502 14.1416 36.1193 10.5 34.1356V16.3029C12.8318 16.6369 15.0338 17.5819 16.8825 19.0418ZM8.58329 33.4168C8.58329 33.9252 8.38136 34.4127 8.02191 34.7721C7.66247 35.1316 7.17496 35.3335 6.66663 35.3335H2.83329C2.32496 35.3335 1.83745 35.1316 1.478 34.7721C1.11856 34.4127 0.916626 33.9252 0.916626 33.4168V16.1668C0.916626 15.6585 1.11856 15.171 1.478 14.8115C1.83745 14.4521 2.32496 14.2502 2.83329 14.2502H6.66663C7.17496 14.2502 7.66247 14.4521 8.02191 14.8115C8.38136 15.171 8.58329 15.6585 8.58329 16.1668V33.4168ZM33.5 6.5835C35.025 6.5835 36.4875 7.1893 37.5658 8.26763C38.6442 9.34597 39.25 10.8085 39.25 12.3335C39.25 13.8585 38.6442 15.321 37.5658 16.3994C36.4875 17.4777 35.025 18.0835 33.5 18.0835C31.975 18.0835 30.5124 17.4777 29.4341 16.3994C28.3558 15.321 27.75 13.8585 27.75 12.3335C27.75 10.8085 28.3558 9.34597 29.4341 8.26763C30.5124 7.1893 31.975 6.5835 33.5 6.5835ZM20.0833 0.833496C21.6083 0.833496 23.0708 1.4393 24.1492 2.51763C25.2275 3.59597 25.8333 5.0585 25.8333 6.5835C25.8333 8.10849 25.2275 9.57103 24.1492 10.6494C23.0708 11.7277 21.6083 12.3335 20.0833 12.3335C18.5583 12.3335 17.0958 11.7277 16.0174 10.6494C14.9391 9.57103 14.3333 8.10849 14.3333 6.5835C14.3333 5.0585 14.9391 3.59597 16.0174 2.51763C17.0958 1.4393 18.5583 0.833496 20.0833 0.833496Z" fill="#EB4545"/>
</svg>
