<svg width="40" height="40" viewBox="0 0 40 40" fill="none" xmlns="http://www.w3.org/2000/svg">
<path d="M20 18.0835C22.5417 18.0835 24.9793 19.0932 26.7765 20.8904C28.5737 22.6876 29.5834 25.1252 29.5834 27.6668V39.1668H10.4167V27.6668C10.4167 25.1252 11.4264 22.6876 13.2236 20.8904C15.0208 19.0932 17.4584 18.0835 20 18.0835ZM7.13537 23.845C6.83035 24.8738 6.65017 25.9356 6.59871 27.0075L6.58337 27.6668V39.1668H0.833374V30.5418C0.832997 28.8888 1.44293 27.2939 2.54617 26.063C3.64942 24.832 5.1683 24.0518 6.81146 23.8718L7.13729 23.845H7.13537ZM32.8647 23.845C34.5704 23.949 36.1721 24.6997 37.3432 25.9442C38.5143 27.1886 39.1665 28.833 39.1667 30.5418V39.1668H33.4167V27.6668C33.4167 26.3386 33.225 25.0563 32.8647 23.845ZM7.54171 12.3335C8.81254 12.3335 10.0313 12.8383 10.9299 13.7369C11.8285 14.6356 12.3334 15.8543 12.3334 17.1252C12.3334 18.396 11.8285 19.6148 10.9299 20.5134C10.0313 21.412 8.81254 21.9168 7.54171 21.9168C6.27088 21.9168 5.0521 21.412 4.15349 20.5134C3.25488 19.6148 2.75004 18.396 2.75004 17.1252C2.75004 15.8543 3.25488 14.6356 4.15349 13.7369C5.0521 12.8383 6.27088 12.3335 7.54171 12.3335ZM32.4584 12.3335C33.7292 12.3335 34.948 12.8383 35.8466 13.7369C36.7452 14.6356 37.25 15.8543 37.25 17.1252C37.25 18.396 36.7452 19.6148 35.8466 20.5134C34.948 21.412 33.7292 21.9168 32.4584 21.9168C31.1875 21.9168 29.9688 21.412 29.0702 20.5134C28.1715 19.6148 27.6667 18.396 27.6667 17.1252C27.6667 15.8543 28.1715 14.6356 29.0702 13.7369C29.9688 12.8383 31.1875 12.3335 32.4584 12.3335ZM20 0.833496C22.0334 0.833496 23.9834 1.64123 25.4212 3.07901C26.859 4.51679 27.6667 6.46684 27.6667 8.50016C27.6667 10.5335 26.859 12.4835 25.4212 13.9213C23.9834 15.3591 22.0334 16.1668 20 16.1668C17.9667 16.1668 16.0167 15.3591 14.5789 13.9213C13.1411 12.4835 12.3334 10.5335 12.3334 8.50016C12.3334 6.46684 13.1411 4.51679 14.5789 3.07901C16.0167 1.64123 17.9667 0.833496 20 0.833496Z" fill="#EB4545"/>
</svg>
