<svg width="44" height="43" viewBox="0 0 44 43" fill="none" xmlns="http://www.w3.org/2000/svg">
<path d="M23.9167 0.416504L23.9186 6.28534C27.2962 6.71236 30.4358 8.25075 32.8429 10.6582C35.25 13.0657 36.788 16.2055 37.2145 19.5832H43.0834V23.4165L37.2145 23.4184C36.7876 26.7957 35.2495 29.9351 32.8424 32.3422C30.4353 34.7493 27.2959 36.2874 23.9186 36.7143L23.9167 42.5832H20.0834V36.7143C16.7057 36.2878 13.5659 34.7499 11.1584 32.3427C8.75093 29.9356 7.21254 26.796 6.78552 23.4184L0.916687 23.4165V19.5832H6.78552C7.21214 16.2052 8.75036 13.0652 11.1579 10.6577C13.5654 8.25018 16.7054 6.71196 20.0834 6.28534V0.416504H23.9167ZM22 17.6665C20.9834 17.6665 20.0083 18.0704 19.2894 18.7893C18.5706 19.5082 18.1667 20.4832 18.1667 21.4998C18.1667 22.5165 18.5706 23.4915 19.2894 24.2104C20.0083 24.9293 20.9834 25.3332 22 25.3332C23.0167 25.3332 23.9917 24.9293 24.7106 24.2104C25.4295 23.4915 25.8334 22.5165 25.8334 21.4998C25.8334 20.4832 25.4295 19.5082 24.7106 18.7893C23.9917 18.0704 23.0167 17.6665 22 17.6665Z" fill="#EB4545"/>
</svg>
