<svg width="46" height="47" viewBox="0 0 46 47" fill="none" xmlns="http://www.w3.org/2000/svg">
<g clip-path="url(#clip0_91_6235)">
<path d="M10.0154 24.8108H13.1989C10.141 20.8503 10.1412 14.5217 13.199 10.5614H10.3759C15.7903 0.70668 30.2346 0.713426 35.6462 10.5614H32.8227C35.8807 14.5219 35.8804 20.8506 32.8227 24.8108H36.0061C38.3424 24.8108 40.243 22.9101 40.243 20.574V14.7983C40.243 13.8193 39.9083 12.9175 39.3486 12.1992C33.9455 -3.38629 12.0958 -3.41327 6.67278 12.1995C6.11321 12.9177 5.77856 13.8194 5.77856 14.7982V20.5739C5.77856 22.9101 7.67922 24.8108 10.0154 24.8108Z" fill="#EB4545"/>
<path d="M42.0103 42.4187C40.3692 34.8749 33.4787 27.1202 23.0103 27.1191C12.9678 27.1191 5.75395 34.4289 3.99395 42.3965C3.5441 44.5113 5.16039 46.5008 7.31673 46.5C14.1048 46.5 32.1367 46.5 38.704 46.4791C40.8442 46.4791 42.4436 44.5146 42.0103 42.4187Z" fill="#EB4545"/>
<path d="M25.8986 20.669H31.9602C34.0487 14.7346 29.3296 8.13859 23.0107 8.25343C17.8094 8.25334 13.5778 12.4849 13.5778 17.6862C13.5973 26.7315 25.1788 30.5056 30.5363 23.3671H25.8986C24.1114 23.301 24.1115 20.735 25.8986 20.669Z" fill="#EB4545"/>
</g>
<defs>
<clipPath id="clip0_91_6235">
<rect width="46" height="46" fill="white" transform="translate(0 0.5)"/>
</clipPath>
</defs>
</svg>
