<svg width="16" height="16" fill="none" xmlns="http://www.w3.org/2000/svg"><path d="M8 4a2.626 2.626 0 00-2.623 2.623h1.334a1.29 1.29 0 012.579 0c0 .398-.321.688-.811 1.084-.16.125-.314.258-.46.399-.666.665-.686 1.37-.686 1.45V10h1.334v-.422c0-.01.021-.257.293-.529.1-.1.226-.2.357-.305.52-.42 1.305-1.056 1.305-2.121A2.624 2.624 0 008 4zm-.667 6.667h1.334V12H7.333v-1.333z" fill="#2285E0"/><path d="M8 1.332a6.674 6.674 0 00-6.667 6.667A6.674 6.674 0 008 14.665 6.674 6.674 0 0014.667 8 6.674 6.674 0 008 1.332zm0 12a5.34 5.34 0 01-5.333-5.333A5.34 5.34 0 018 2.665 5.34 5.34 0 0113.334 8 5.34 5.34 0 018 13.332z" fill="#2285E0"/></svg>