<svg width="189" height="60" fill="none" xmlns="http://www.w3.org/2000/svg"><path d="M6 25.498c.39.39.51.945.375 1.47a12.12 12.12 0 00.15 6.57c1.32 4.366 5.16 7.65 9.66 8.326 8.28 1.215 15.285-6.09 13.545-14.43-.975-4.696-4.845-8.416-9.555-9.24a12.253 12.253 0 00-5.19.195c-.525.134-1.095 0-1.47-.375-.84-.84-.42-2.236.705-2.535 2.205-.57 4.59-.66 7.05-.135 5.97 1.29 10.635 6.27 11.55 12.3 1.56 10.215-7.23 18.87-17.46 17.13-6.015-1.035-10.89-5.79-12.06-11.776a15.4 15.4 0 01.18-6.794c.3-1.126 1.695-1.53 2.52-.706zm4.5-5.25a2.247 2.247 0 01-2.25 2.25A2.247 2.247 0 016 20.248a2.247 2.247 0 012.25-2.25 2.247 2.247 0 012.25 2.25zm7.545 5.235h-.105l-1.74 4.965h3.585l-1.74-4.965zM18 38.998c4.965 0 9-4.034 9-9 0-4.965-4.035-9-9-9s-9 4.035-9 9c0 4.966 4.035 9 9 9zm-5.085-5.054l3.645-9.69A1.54 1.54 0 0118 23.247c.645 0 1.23.405 1.455 1.005l3.645 9.69a.962.962 0 01-.9 1.306.97.97 0 01-.915-.646l-.84-2.415H15.6l-.855 2.43a.956.956 0 01-.915.645.981.981 0 01-.915-1.32z" fill="#2285E0"/><path d="M62.037 39.5h-3.36l-1.116-3.6h-6.504l-1.092 3.6h-3.36l5.28-17.28h4.872l5.28 17.28zm-7.752-14.22l-2.304 7.572h4.644l-2.34-7.572zm20.367 5.136c.784.328 1.384.84 1.8 1.536.416.688.624 1.46.624 2.316 0 1.048-.196 1.964-.588 2.748a4.173 4.173 0 01-1.752 1.836c-.776.432-1.74.648-2.892.648h-7.656V22.22H71.1c1.168 0 2.14.236 2.916.708.776.472 1.348 1.076 1.716 1.812.368.736.552 1.512.552 2.328 0 .776-.144 1.448-.432 2.016a3.176 3.176 0 01-1.2 1.332zM67.5 25.268v3.696h3.552c.584 0 1.048-.152 1.392-.456.352-.304.528-.76.528-1.368 0-.544-.168-.992-.504-1.344-.336-.352-.808-.528-1.416-.528H67.5zm4.008 11.16c.44 0 .832-.092 1.176-.276.344-.192.612-.46.804-.804.2-.344.3-.744.3-1.2 0-.64-.196-1.156-.588-1.548-.392-.392-.956-.588-1.692-.588H67.5v4.416h4.008zM86.272 39.5h-3.264V25.268H77.56V22.22h14.16v3.048h-5.448V39.5zm14.793.36c-1.704 0-3.188-.372-4.452-1.116-1.264-.752-2.236-1.808-2.916-3.168-.672-1.36-1.008-2.932-1.008-4.716 0-1.784.336-3.356 1.008-4.716.68-1.36 1.652-2.412 2.916-3.156 1.264-.752 2.748-1.128 4.452-1.128 1.704 0 3.188.376 4.452 1.128 1.264.744 2.232 1.796 2.904 3.156.68 1.36 1.02 2.932 1.02 4.716 0 1.784-.34 3.356-1.02 4.716-.672 1.36-1.64 2.416-2.904 3.168-1.264.744-2.748 1.116-4.452 1.116zm.096-3.072c1.056 0 1.944-.244 2.664-.732.72-.488 1.26-1.176 1.62-2.064.36-.888.54-1.932.54-3.132 0-1.856-.424-3.308-1.272-4.356-.848-1.048-2.096-1.572-3.744-1.572-1.056 0-1.944.244-2.664.732-.72.488-1.26 1.176-1.62 2.064-.36.888-.54 1.932-.54 3.132 0 1.856.424 3.308 1.272 4.356.848 1.048 2.096 1.572 3.744 1.572zm18.091 3.072c-1.704 0-3.188-.372-4.452-1.116-1.264-.752-2.236-1.808-2.916-3.168-.672-1.36-1.008-2.932-1.008-4.716 0-1.784.336-3.356 1.008-4.716.68-1.36 1.652-2.412 2.916-3.156 1.264-.752 2.748-1.128 4.452-1.128 1.304 0 2.48.22 3.528.66a7.244 7.244 0 012.664 1.896c.736.816 1.288 1.788 1.656 2.916l-3.288.912c-.328-1.064-.876-1.88-1.644-2.448-.768-.576-1.74-.864-2.916-.864-1.08 0-1.988.244-2.724.732-.736.48-1.292 1.164-1.668 2.052-.368.88-.552 1.928-.552 3.144 0 1.216.184 2.268.552 3.156.376.88.932 1.564 1.668 2.052.736.48 1.644.72 2.724.72 1.176 0 2.148-.284 2.916-.852.768-.576 1.316-1.396 1.644-2.46l3.288.912c-.368 1.128-.92 2.104-1.656 2.928a7.308 7.308 0 01-2.664 1.884c-1.048.44-2.224.66-3.528.66zm13.755-.36h-3.264V22.22h3.264v7.968l6.576-7.968h3.984l-7.224 8.52 7.68 8.76h-4.128l-6.888-7.872V39.5zm19.152.36c-1.704 0-3.188-.372-4.452-1.116-1.264-.752-2.236-1.808-2.916-3.168-.672-1.36-1.008-2.932-1.008-4.716 0-1.784.336-3.356 1.008-4.716.68-1.36 1.652-2.412 2.916-3.156 1.264-.752 2.748-1.128 4.452-1.128 1.704 0 3.188.376 4.452 1.128 1.264.744 2.232 1.796 2.904 3.156.68 1.36 1.02 2.932 1.02 4.716 0 1.784-.34 3.356-1.02 4.716-.672 1.36-1.64 2.416-2.904 3.168-1.264.744-2.748 1.116-4.452 1.116zm.096-3.072c1.056 0 1.944-.244 2.664-.732.72-.488 1.26-1.176 1.62-2.064.36-.888.54-1.932.54-3.132 0-1.856-.424-3.308-1.272-4.356-.848-1.048-2.096-1.572-3.744-1.572-1.056 0-1.944.244-2.665.732-.719.488-1.259 1.176-1.619 2.064-.36.888-.54 1.932-.54 3.132 0 1.856.424 3.308 1.272 4.356.848 1.048 2.096 1.572 3.744 1.572zm13.939 2.712h-3.264V22.22h14.256V39.5h-3.264V25.268h-7.728V39.5z" fill="#3E3E3E"/></svg>