<svg width="34" height="34" viewBox="0 0 34 34" fill="none" xmlns="http://www.w3.org/2000/svg">
<g id="instagram-2 1" opacity="0.6" filter="url(#filter0_b_172_3967)">
<g id="Group 1">
<path id="Vector" d="M23.056 3.5H10.444C6.33931 3.5 3 6.83931 3 10.944V23.5562C3 27.6607 6.33931 31 10.444 31H23.0562C27.1607 31 30.5 27.6607 30.5 23.5562V10.944C30.5 6.83931 27.1607 3.5 23.056 3.5ZM16.75 24.7693C12.6038 24.7693 9.23068 21.3962 9.23068 17.25C9.23068 13.1038 12.6038 9.73068 16.75 9.73068C20.8962 9.73068 24.2693 13.1038 24.2693 17.25C24.2693 21.3962 20.8962 24.7693 16.75 24.7693ZM24.4491 11.504C23.2238 11.504 22.2273 10.5074 22.2273 9.28211C22.2273 8.05683 23.2238 7.06003 24.4491 7.06003C25.6744 7.06003 26.6712 8.05683 26.6712 9.28211C26.6712 10.5074 25.6744 11.504 24.4491 11.504Z" fill="#828282"/>
<path id="Vector_2" d="M16.7501 11.3428C13.493 11.3428 10.8429 13.9927 10.8429 17.2499C10.8429 20.507 13.493 23.1571 16.7501 23.1571C20.0073 23.1571 22.6572 20.507 22.6572 17.2499C22.6572 13.9927 20.0073 11.3428 16.7501 11.3428Z" fill="#828282"/>
<path id="Vector_3" d="M24.4495 8.67236C24.1134 8.67236 23.8398 8.94595 23.8398 9.28207C23.8398 9.61818 24.1134 9.89177 24.4495 9.89177C24.7859 9.89177 25.0595 9.61839 25.0595 9.28207C25.0595 8.94574 24.7859 8.67236 24.4495 8.67236Z" fill="#828282"/>
</g>
</g>
<defs>
<filter id="filter0_b_172_3967" x="-4" y="-4" width="42" height="42" filterUnits="userSpaceOnUse" color-interpolation-filters="sRGB">
<feFlood flood-opacity="0" result="BackgroundImageFix"/>
<feGaussianBlur in="BackgroundImageFix" stdDeviation="2"/>
<feComposite in2="SourceAlpha" operator="in" result="effect1_backgroundBlur_172_3967"/>
<feBlend mode="normal" in="SourceGraphic" in2="effect1_backgroundBlur_172_3967" result="shape"/>
</filter>
</defs>
</svg>
