<svg width="34" height="34" viewBox="0 0 34 34" fill="none" xmlns="http://www.w3.org/2000/svg">
<g id="003-twitter" opacity="0.6" filter="url(#filter0_b_172_3975)">
<path id="_x30_4.Twitter" d="M30.566 8.56795C29.546 9.00995 28.492 9.31595 27.37 9.45195C28.526 8.77195 29.41 7.68395 29.818 6.35795C28.73 7.00395 27.54 7.44595 26.282 7.71795C25.262 6.62995 23.8 5.94995 22.202 5.94995C19.108 5.94995 16.626 8.46595 16.626 11.526C16.626 11.968 16.66 12.376 16.762 12.784C12.138 12.58 8.05797 10.336 5.30397 6.96995C3.33197 10.506 5.54197 13.43 7.00397 14.416C6.11997 14.416 5.23597 14.144 4.48797 13.736C4.48797 16.49 6.42597 18.768 8.94197 19.278C8.39797 19.448 7.17397 19.55 6.42597 19.38C7.13997 21.59 9.21397 23.222 11.628 23.256C9.72397 24.752 6.93597 25.942 3.36597 25.568C5.84797 27.166 8.77197 28.084 11.934 28.084C22.202 28.084 27.778 19.584 27.778 12.24C27.778 12.002 27.778 11.764 27.744 11.526C28.9 10.676 29.852 9.68995 30.566 8.56795Z" fill="#828282"/>
</g>
<defs>
<filter id="filter0_b_172_3975" x="-4" y="-4" width="42" height="42" filterUnits="userSpaceOnUse" color-interpolation-filters="sRGB">
<feFlood flood-opacity="0" result="BackgroundImageFix"/>
<feGaussianBlur in="BackgroundImageFix" stdDeviation="2"/>
<feComposite in2="SourceAlpha" operator="in" result="effect1_backgroundBlur_172_3975"/>
<feBlend mode="normal" in="SourceGraphic" in2="effect1_backgroundBlur_172_3975" result="shape"/>
</filter>
</defs>
</svg>
