<svg width="23" height="22" viewBox="0 0 23 22" fill="none" xmlns="http://www.w3.org/2000/svg">
<g clip-path="url(#clip0_2387_1477)">
<path d="M10.2839 21.6864C7.98733 21.6864 5.73069 21.7619 3.48292 21.6597C1.96667 21.593 0.831694 20.1264 0.827261 18.4597C0.813961 14.322 0.818394 10.1842 0.818394 6.05088C0.818394 5.20644 0.809527 4.362 0.818394 3.522C0.840561 1.47312 2.13514 0.153126 4.20114 0.139793C7.27797 0.11757 10.3548 0.135348 13.4316 0.130904C15.2538 0.130904 17.0804 0.122015 18.9026 0.130904C21.1149 0.144237 22.4094 1.43312 22.4094 3.63311C22.4139 8.5042 22.4139 13.3753 22.4094 18.2464C22.4094 20.4286 21.1548 21.6953 18.9779 21.7175C17.404 21.7308 15.8257 21.7175 14.1809 21.7175V14.1042H17.3154C17.5282 12.8197 17.7277 11.6242 17.9449 10.3175H14.1676V7.73087H17.9139V3.89978C16.2779 3.97978 14.6376 3.89978 13.0592 4.17978C11.4055 4.47311 10.4124 6.0331 10.3548 7.90421C10.3326 8.65976 10.3548 9.41976 10.3548 10.2775H7.91196V14.0242H10.2794V21.6775L10.2839 21.6864Z" fill="#8F8F8F"/>
</g>
<defs>
<clipPath id="clip0_2387_1477">
<rect width="21.5999" height="21.5999" fill="white" transform="translate(0.818359 0.125977)"/>
</clipPath>
</defs>
</svg>
