<svg width="22" height="22" viewBox="0 0 22 22" fill="none" xmlns="http://www.w3.org/2000/svg">
<g clip-path="url(#clip0_2387_1479)">
<path d="M11.1701 21.7255C9.3731 21.6454 7.56273 21.6499 5.77905 21.463C2.77659 21.1428 0.65485 19.0433 0.530304 16.0408C0.383517 12.5669 0.387965 9.07956 0.530304 5.60116C0.65485 2.62984 2.85221 0.383551 5.82798 0.250108C9.39534 0.0855288 12.9805 0.0810807 16.5479 0.250108C19.5236 0.392447 21.6899 2.64318 21.8233 5.63229C21.9701 8.9995 21.9923 12.38 21.8633 15.7472C21.7165 19.5192 19.1811 21.4897 15.4403 21.6098C14.0214 21.6543 12.6024 21.6187 11.179 21.6187V21.7299L11.1701 21.7255ZM11.1568 16.3477C14.1503 16.3566 16.7036 13.8168 16.6902 10.8321C16.6769 7.8252 14.1415 5.29424 11.1568 5.31648C8.13208 5.33872 5.63226 7.8341 5.62781 10.8366C5.62781 13.8479 8.12319 16.3344 11.1568 16.3433V16.3477ZM18.2026 5.10742C18.2203 4.4491 17.6465 3.84861 16.9749 3.82637C16.3166 3.80413 15.6938 4.38683 15.6805 5.04515C15.6627 5.73015 16.2009 6.33064 16.8681 6.37068C17.5531 6.41516 18.1848 5.81911 18.2026 5.10742Z" fill="#8F8F8F"/>
<path d="M11.1426 14.7777C8.94969 14.7643 7.20604 12.9984 7.23272 10.8144C7.25496 8.68823 9.02975 6.93569 11.1604 6.92679C13.3177 6.91789 15.1147 8.71492 15.1103 10.8767C15.1103 13.0518 13.3399 14.791 11.1381 14.7777H11.1426Z" fill="#8F8F8F"/>
</g>
<defs>
<clipPath id="clip0_2387_1479">
<rect width="21.5243" height="21.5999" fill="white" transform="translate(0.417969 0.125977)"/>
</clipPath>
</defs>
</svg>
