<svg width="48" height="50" fill="none" xmlns="http://www.w3.org/2000/svg"><path d="M2.834 14.864c-1.215 6.145 2.562 12.172 7.715 15.278 5.684 3.438 12.757 3.607 19.186 2.957a78.469 78.469 0 0012.908-2.392c1.136-.315.667-2.086-.469-1.77a79.529 79.529 0 01-10.845 2.136c-3.21.407-6.447.618-9.678.4-5.799-.395-11.701-2.516-15.054-7.512-1.67-2.524-2.597-5.603-1.984-8.593.103-.485-.141-.982-.644-1.117-.472-.153-1.032.128-1.135.613z" fill="#3772FF"/><path d="M40.9 37.412a481.59 481.59 0 013.85-7.624.93.93 0 00-.792-1.371 8.286 8.286 0 01-2.826-.623c-1.016-.434-1.933-1.138-2.962-1.521-.458-.204-1.027.21-1.117.644-.134.503.206.945.645 1.116 1.048.416 1.983 1.152 3.031 1.568 1.048.415 2.132.598 3.224.648l-.792-1.372c-1.3 2.537-2.581 5.105-3.85 7.623-.547 1.04 1.06 1.983 1.59.912z" fill="#3772FF"/></svg>