<svg width="285" height="374" fill="none" xmlns="http://www.w3.org/2000/svg"><path d="M321.876 372.898c6.608 3.304 12.665-10.853 13.649-15.118 7.058-30.585-14.297-58.238-30.726-81.527-10.98-15.566-25.192-21.688-42.416-28.461-21.167-8.324-38.709-23.851-53.494-41.253-9.057-10.66-17.168-22.502-24.116-34.643-4.122-7.204-11.83-20.319-9.364-28.95 2.065-7.228 5.04-13.276 7.59-20.076 8.395-22.389-14.062-41.358-30.053-52.332-28.655-19.665-58.766-36.886-84.22-61.084C54.993-3.6 42.038-17.347 29.186-31.186c-7.15-7.7-23.276-26.072-16.403-36.48 4.496-6.807-13.94-20.426-11.216-27.823 2.656-7.209 15.499-11.336 18.505-18.505 4.547-10.843-15.796-38.779-13.3-50.888 2.233-10.835 48.451-37.334 48.286-48.285-.628-41.396.171-44.443 7.915-84.88" stroke="#fff" stroke-opacity=".15"/></svg>