<svg width="81" height="704" fill="none" xmlns="http://www.w3.org/2000/svg"><path d="M87.1 702.7c-17.927-19.26-35.948-38.426-54.028-57.542-7.268-7.685-15.158-15.167-20.205-24.598-4.185-7.819-7.13-17.115-8.785-25.805-4.197-22.034-5.17-43.17 3.953-64.021 12.652-28.919 32.83-54.034 45.462-82.908 13.361-30.539 19.16-65.591 9.883-98.062-5.313-18.596-16.848-33.504-21.852-52.271-5.654-21.2-12.697-41.762-15.264-63.691-3.485-29.77-3.901-71.065 16.472-95.866 8.296-10.1 28.697-10.401 40.41-12.848 40.005-8.359 75.701-32.71 107.617-57.761C212.019 50.64 233.662 27.65 241.276 1" stroke="#fff" stroke-opacity=".15" stroke-linecap="round"/></svg>