<svg width="76" height="76" fill="none" xmlns="http://www.w3.org/2000/svg"><path fill="#ED863C" d="M0 .101h75.383v75.383H0z"/><g clip-path="url(#clip0_9_682)" fill="#fff"><path d="M45.057 27.792c.526.49 1.014.944 1.5 1.399.37.347.423.71.154 1.002-.269.293-.644.272-1.01-.066-.734-.68-1.463-1.368-2.199-2.047-.098-.09-.223-.153-.426-.29v1.687c0 .628-.218.94-.646.928-.415-.012-.623-.316-.623-.92v-1.67c-.19.122-.322.183-.425.277-.736.678-1.46 1.372-2.207 2.038-.152.137-.399.27-.578.245-.193-.028-.409-.212-.524-.389-.16-.246-.04-.504.163-.698.429-.41.864-.814 1.3-1.217.09-.082.19-.149.32-.25-.342-.121-.592-.232-.851-.29-.122-.027-.284.022-.397.087-1.987 1.149-3.626 2.689-5.025 4.494-.083.107-.16.223-.251.32-.25.268-.597.3-.867.091-.272-.21-.341-.56-.122-.857.337-.457.708-.889 1.057-1.338.071-.093.159-.21.16-.315.01-1.37.008-2.742.008-4.176a7.98 7.98 0 01-3.464.765c-1.206 0-2.35-.23-3.47-.765v4.48c.783.165 1.534.298 2.272.487.33.083.646.25.944.42.8.457 1.217 1.102 1.205 2.081-.039 2.892-.013 5.785-.013 8.678v.417c.779.038 1.52.047 2.253.121a5.396 5.396 0 012.306.753c.76.464 1.173 1.093 1.16 2.038a341.57 341.57 0 00-.005 7.602c.008.783-.312 1.352-.923 1.79-.796.572-1.712.815-2.664.937-1.63.208-3.208.049-4.694-.733-.648 1.29-1.84 1.7-3.121 1.927-1.665.294-3.305.21-4.857-.53-.37-.177-.704-.455-1.009-.737-.34-.305-.485-.725-.48-1.197.008-.94.027-1.88-.007-2.819-.028-.804.315-1.396.96-1.804.476-.3 1.006-.513 1.577-.797v-.354c0-5.105.012-10.212-.01-15.317-.005-.908.374-1.533 1.107-1.994.703-.442 1.484-.66 2.297-.785.122-.018.242-.039.404-.065v-.41c0-1.903.012-3.807-.006-5.712-.007-.749.3-1.308.883-1.738.737-.542 1.584-.797 2.473-.93 1.467-.217 2.914-.149 4.304.404.397.158.774.39 1.115.646.5.375.747.89.738 1.54-.02 1.384-.006 2.768-.006 4.154v.374l2.844-2.156a7.038 7.038 0 01-1.474-2.206c-.545-1.283-.763-2.63-.753-4.013.008-.978.964-1.558 1.836-1.125.306.152.59.362.855.579.694.568 1.551.578 2.236.001 1.334-1.124 2.766-1.129 4.084-.01.698.592 1.55.581 2.262-.01.245-.202.51-.394.794-.54.937-.481 1.91.136 1.894 1.192-.006.419-.043.837-.065 1.244 2.591 1.258 3.114 3.15 1.397 5.16l.455.132c.998.287 1.925.706 2.682 1.439.098.095.195.193.27.304.19.276.147.63-.089.841-.255.227-.638.243-.863-.038-.784-.98-2.77-1.58-4.171-1.62.053.062.087.11.13.146 3.963 3.328 6.263 7.635 7.39 12.62.369 1.633.547 3.283.4 4.967-.324 3.717-2.632 6.414-6.284 7.215a13.06 13.06 0 01-2.607.295c-2.832.036-5.664.015-8.496.012a1.64 1.64 0 01-.475-.047c-.313-.094-.457-.33-.427-.652.03-.325.221-.514.545-.557.133-.018.271-.01.408-.01 2.82 0 5.64.005 8.459-.002 1.324-.003 2.604-.24 3.819-.787 2.138-.964 3.324-2.646 3.709-4.925.337-2.005.04-3.965-.448-5.907-.98-3.9-2.76-7.363-5.645-10.213a16.854 16.854 0 00-3.089-2.417c-.257-.155-.484-.26-.78-.08-.152.094-.348.119-.578.192l-.005.004zM27.243 49.44v-.361c0-1.322.012-2.644-.004-3.966-.007-.633.22-1.16.72-1.506.47-.325 1.002-.57 1.527-.802.217-.097.293-.183.293-.419-.01-2.458-.006-4.916-.008-7.375 0-.089-.02-.178-.03-.283-2.324 1.024-4.619 1-6.915 0v14.008c.759.034 1.505 0 2.228.117.733.118 1.443.38 2.19.588v-.002zm1.267-2.702c0 2.007.038 3.96-.02 5.91-.022.74.312 1.087.909 1.334.967.4 1.981.52 3.014.463.88-.049 1.744-.196 2.526-.644.357-.203.556-.465.55-.92-.023-1.915-.01-3.83-.01-5.746v-.393c-2.334 1.021-4.629 1.031-6.968-.004h-.002zm19.62-26.375c-.236.17-.418.287-.584.425-1.226 1.022-2.737 1.012-3.95-.03-.754-.648-1.593-.648-2.34-.001-1.206 1.044-2.72 1.053-3.949.032-.164-.136-.35-.25-.585-.417.02 1.66.287 3.168 1.185 4.488.326.481.767.9 1.215 1.28.383.321.873.462 1.439.431-.088-.17-.158-.283-.21-.407-.35-.84-.709-1.679-1.034-2.53-.135-.354.065-.679.41-.791.317-.104.636.052.779.388.043.103.058.217.105.316.442.935.874 1.876 1.343 2.796.202.394.738.378.983.008a11.558 11.558 0 001.374-2.902c.167-.522.456-.728.844-.608.406.126.555.476.35 1.005-.31.804-.665 1.591-1.004 2.384-.046.108-.105.212-.18.359a2.647 2.647 0 001.703-.65 5.232 5.232 0 001.376-1.863c.521-1.153.727-2.367.73-3.708v-.005zm-16.12 25.96c.77-.155 1.552-.274 2.308-.48.353-.096.678-.341.982-.564.241-.176.232-.445.002-.635-.226-.185-.473-.372-.742-.473-1.709-.645-3.429-.644-5.14-.001a2.475 2.475 0 00-.664.396c-.33.267-.334.526.002.795.218.175.472.316.73.426.797.338 1.643.43 2.52.538l.002-.003zm-8.25 6.227c1.071 0 2.044-.184 2.738-.539.316-.162.722-.314.72-.72 0-.406-.398-.584-.723-.719-1.82-.752-3.655-.754-5.477 0-.325.135-.72.313-.72.72 0 .405.403.563.722.718.864.416 1.79.54 2.738.538l.002.002zm6.311-27.22c.948.001 1.876-.113 2.738-.532.327-.158.744-.308.734-.743-.01-.41-.408-.577-.73-.709-1.81-.742-3.631-.743-5.44 0-.334.136-.75.31-.738.742.012.402.412.558.733.71.852.41 1.766.532 2.702.532h.001zm-3.78 8.878c.914-.027 1.834-.123 2.689-.529.34-.161.78-.32.767-.76-.012-.413-.427-.588-.765-.723-1.789-.718-3.588-.72-5.375 0-.349.14-.782.317-.77.756.01.411.435.572.767.729.843.398 1.75.5 2.688.528l-.001-.001zM20.275 53.07c0 .36.033.686-.008 1.002-.065.518.19.819.609 1.032.197.101.4.193.61.265a6.823 6.823 0 003.584.23c.596-.122 1.173-.363 1.731-.612a.843.843 0 00.42-.556c.064-.432.02-.881.02-1.358-2.323 1.024-4.62 1.026-6.968-.001l.002-.002zm27.013-26.583c.967.306 2.257-.08 2.835-.818.72-.917.164-2.357-1.03-2.605a7.693 7.693 0 01-1.806 3.421l.001.002z"/><path d="M43.093 43.082c-.08.5.163 1.229-.66 1.218-.801-.009-.581-.727-.645-1.196-.303-.07-.585-.11-.85-.204a2.514 2.514 0 01-1.662-2.21c-.023-.446.189-.741.558-.778.403-.04.652.197.706.67.08.724.555 1.183 1.242 1.183v-2.466c-1.65-.301-2.554-1.267-2.507-2.662.044-1.316 1.023-2.286 2.528-2.452 0-.184-.008-.377.001-.568.02-.416.269-.674.637-.674.374 0 .611.252.626.674.006.182 0 .366 0 .55.242.045.449.07.649.12 1.064.27 1.84 1.227 1.877 2.307.017.454-.194.733-.574.758-.381.026-.632-.215-.689-.661-.096-.757-.516-1.175-1.233-1.199v2.486c.816.064 1.518.374 2.017 1.058.365.499.515 1.058.477 1.675-.08 1.278-.994 2.159-2.503 2.371h.005zm-.004-3.804v2.478a1.184 1.184 0 001.238-1.117c.05-.744-.424-1.285-1.237-1.36zm-1.306-3.788c-.712.029-1.235.558-1.242 1.23-.007.681.523 1.227 1.242 1.257v-2.486zm6.635 15.188c-.48.005-.79-.239-.803-.632-.013-.383.284-.661.767-.678.848-.027 1.661-.18 2.44-.525 1.513-.665 2.151-1.911 2.328-3.467.018-.159.004-.324.033-.48.068-.369.374-.617.697-.583a.655.655 0 01.592.692c-.11 2.147-.89 3.905-2.913 4.921-.868.436-2.182.745-3.14.754v-.002z"/></g><defs><clipPath id="clip0_9_682"><path fill="#fff" transform="translate(19 19)" d="M0 0h38v38H0z"/></clipPath></defs></svg>