<svg width="76" height="76" fill="none" xmlns="http://www.w3.org/2000/svg"><path fill="#ED863C" d="M0 .609h75.383v75.383H0z"/><g clip-path="url(#clip0_9_670)" fill="#fff"><path d="M37.84 19a18.808 18.808 0 00-7.755 1.745c-.245.112-.45.127-.699.026-1.459-.586-2.983-.88-4.55-.942-2.933-.116-4.977 1.902-4.994 4.932-.01 1.59.378 3.107.929 4.586.096.258.1.474-.02.736C15.85 40.745 21.66 53.203 33 56.307c4.395 1.203 8.69.83 12.845-1.038.294-.133.536-.15.84-.038 1.455.544 2.95.93 4.515.908a6.925 6.925 0 001.719-.234c1.825-.498 3-1.995 3.194-3.94.18-1.818-.242-3.536-.843-5.221a1.183 1.183 0 01.041-.978c4.341-9.428 0-20.88-9.49-25.084-2.51-1.112-5.132-1.678-7.981-1.682zm6.183 35.644c.748-4.607-2.394-8.48-6.46-9.13-1.892-.303-3.678.03-5.307 1.037-2.348 1.452-3.563 3.61-3.772 6.34-.052-.004-.066 0-.075-.005a1.282 1.282 0 01-.129-.073c-4.976-3.4-7.7-8.106-7.989-14.121-.22-4.586 1.266-8.65 4.2-12.18.512-.616.869-.686 1.58-.328 5.048 2.53 9.54 5.824 13.551 9.797 4.156 4.117 7.595 8.742 10.211 13.975.322.644.269 1.05-.267 1.468-.7.547-1.407 1.092-2.15 1.58a14.945 14.945 0 01-3.392 1.639h-.001zm3.775-.358l.247-.18c.777-.567 1.574-1.11 2.328-1.708.98-.775 1.192-1.833.624-2.942-5.527-10.79-13.689-18.95-24.486-24.471-1.068-.546-2.146-.337-2.89.6-.605.762-1.157 1.569-1.733 2.355-.052.071-.11.141-.188.24-.409-1.344-.683-2.65-.548-4.02.157-1.593 1.092-2.644 2.661-2.948 1.143-.221 2.266-.068 3.377.21 2.816.702 5.347 2.035 7.754 3.609 5.466 3.574 10.116 8.025 14.062 13.216 2.034 2.673 3.815 5.501 4.986 8.672.581 1.574 1.01 3.176.856 4.882-.145 1.601-1.07 2.663-2.637 2.968-1.5.29-2.936-.045-4.413-.484v.001zm6.667-9.756c-5.38-9.961-13.053-17.625-23.022-23.005 2.8-1.095 5.713-1.498 8.756-1.108-1.444 2.79-.065 5.523 2.066 6.53 2.212 1.047 5.529.152 6.464-3.026 6.208 4.537 8.777 13.222 5.736 20.61zM37.901 55.72a17.84 17.84 0 01-7.853-1.879c-.202-.1-.309-.21-.288-.445.042-.442.024-.893.101-1.328.646-3.645 4.178-6.002 7.835-5.243 3.559.74 5.84 4.396 4.97 7.954-.06.25-.182.36-.429.42a18.87 18.87 0 01-4.338.52h.002zm2.975-32.941c-.012-.662.18-1.261.518-1.828.143-.239.291-.304.566-.238a18.808 18.808 0 015.231 2.12c.315.185.358.375.287.682-.382 1.63-1.965 2.778-3.578 2.588-1.753-.206-3.016-1.594-3.022-3.324h-.002z"/><path d="M37.635 39.102a3.027 3.027 0 00-3.026-3.01 3.034 3.034 0 00-3.025 3.051 3.023 3.023 0 003.03 3.005 3.014 3.014 0 003.02-3.046h.001zm-4.776.022a1.74 1.74 0 011.77-1.754 1.75 1.75 0 011.74 1.752c0 .962-.778 1.75-1.738 1.76a1.75 1.75 0 01-1.772-1.758zm-7.853-6.178a2.216 2.216 0 00-2.221 2.24 2.226 2.226 0 002.212 2.215 2.231 2.231 0 002.245-2.224 2.221 2.221 0 00-2.236-2.23v-.001zM25 36.134a.96.96 0 11.974-.961.971.971 0 01-.974.96v.001zm23.76-3.194a2.23 2.23 0 002.238 2.202 2.232 2.232 0 00-.02-4.462 2.229 2.229 0 00-2.217 2.26h-.001zm3.19-.038a.957.957 0 01-.956.967.967.967 0 01-.966-.962.96.96 0 01.94-.946.952.952 0 01.981.94h.002zM40.526 52.959c-.067-2.23-2.047-4.174-4.282-4.205-.466-.006-.757.226-.769.613-.011.392.244.623.728.654 1.692.111 2.974 1.368 3.057 2.998.028.54.254.806.67.787.415-.018.612-.298.596-.849v.002z"/></g><defs><clipPath id="clip0_9_670"><path fill="#fff" transform="matrix(1 0 0 -1 19 57)" d="M0 0h38v38H0z"/></clipPath></defs></svg>