<svg width="76" height="76" fill="none" xmlns="http://www.w3.org/2000/svg"><path fill="#ED863C" d="M0 .101h75.383v75.383H0z"/><g clip-path="url(#clip0_9_651)" fill="#fff"><path d="M39.521 18.65c.701-.045 1.308.39 1.917.826.155.112.372.289.506.25.391-.114.797-.269 1.115-.515.154-.12.134-.476.175-.728.273-1.687 1.194-2.48 2.89-2.48.415 0 .83-.008 1.245.004 1.242.034 2.206.831 2.477 2.045.038.166.088.336.088.506.004.521.246.79.74.988.454.183.774.18 1.15-.134 1.395-1.161 2.917-.994 4.085.363.205.239.447.443.663.672.93.977 1.038 2.213.296 3.335-.04.06-.076.125-.125.173-.53.494-.524 1.023-.18 1.63.14.248.265.398.56.425.324.033.649.105.967.19 1.118.297 1.855 1.214 1.896 2.367.02.558.02 1.117.002 1.675-.036 1.19-.802 2.13-1.952 2.418-.18.045-.364.098-.548.1-.579.003-.862.3-1.065.834-.158.416-.14.696.134 1.035.464.574.823 1.2.792 1.986-.022.596-.196 1.132-.598 1.569-.434.474-.885.938-1.362 1.37-.839.754-1.97.853-2.947.293-.161-.093-.333-.18-.464-.308-.441-.438-.877-.453-1.45-.192-.417.19-.49.46-.589.828-.15.559-.288 1.145-.577 1.633-.381.644-1.041.972-1.8 1.005-.63.027-1.26.03-1.889.005-1.15-.048-2.061-.814-2.334-1.931-.048-.194-.098-.392-.105-.591-.02-.533-.296-.784-.777-1.02-.572-.278-.9-.005-1.297.274-1.388.972-2.56.866-3.757-.332-.344-.343-.698-.68-1.012-1.051-.687-.81-.778-1.916-.258-2.846.091-.161.179-.335.306-.464.464-.469.509-.951.18-1.529-.16-.28-.285-.467-.642-.51-.785-.093-1.557-.251-2.127-.888-.395-.444-.646-.945-.665-1.542a28.662 28.662 0 01-.008-1.802c.04-1.237.824-2.162 2.032-2.433.182-.041.366-.09.55-.093.486-.008.702-.263.93-.692.314-.591.06-.944-.25-1.375-.965-1.35-.854-2.551.318-3.723.343-.344.685-.693 1.046-1.017.454-.41.998-.602 1.715-.602l.003-.002zm15.62 3.61c-.082-.116-.144-.226-.23-.315-.278-.289-.572-.562-.845-.854-.217-.232-.424-.239-.675-.055-.426.313-.864.61-1.3.914-.411.289-.832.308-1.294.1a40.384 40.384 0 00-2.016-.835c-.474-.184-.742-.507-.823-1.004-.082-.508-.178-1.013-.26-1.52-.049-.294-.18-.466-.51-.456-.413.014-.83.009-1.245.002-.276-.003-.42.126-.465.395-.083.509-.183 1.014-.26 1.523-.084.55-.385.891-.907 1.086-.654.244-1.302.508-1.936.8-.48.22-.907.191-1.332-.111-.419-.3-.85-.583-1.26-.892-.272-.205-.485-.172-.71.069-.263.281-.538.555-.82.82-.23.216-.239.429-.056.678.309.43.61.864.912 1.299.285.41.314.83.103 1.294a31.436 31.436 0 00-.821 1.974c-.186.488-.504.78-1.019.862-.508.083-1.014.18-1.52.263-.298.048-.46.186-.445.512.017.4.012.803 0 1.203-.01.314.12.47.436.515.495.071.984.177 1.48.255.547.086.892.381 1.088.905.244.655.512 1.301.803 1.937.22.48.184.91-.115 1.333-.289.409-.562.83-.866 1.227-.229.299-.2.53.077.777s.536.515.79.788c.218.234.43.232.677.052.404-.296.823-.573 1.227-.866.447-.327.897-.368 1.407-.13.618.29 1.254.55 1.895.788.543.2.837.56.919 1.125.072.495.177.985.254 1.48.043.27.18.403.459.398.414-.007.83-.013 1.246.004.323.012.469-.141.517-.44.08-.493.185-.983.254-1.48.077-.556.383-.891.902-1.087.639-.243 1.275-.5 1.895-.787.508-.237.959-.201 1.407.127.404.295.825.567 1.228.864.27.2.485.177.71-.069.25-.273.514-.539.788-.788.267-.242.263-.468.052-.744-.285-.375-.534-.778-.818-1.157-.357-.472-.388-.945-.134-1.482.287-.605.541-1.227.77-1.858.197-.544.56-.836 1.123-.92.481-.073.956-.181 1.437-.246.342-.047.462-.222.45-.55a12.72 12.72 0 010-1.115c.02-.361-.146-.52-.485-.57-.495-.076-.984-.18-1.479-.255-.517-.08-.842-.364-1.029-.852a35.427 35.427 0 00-.818-1.976c-.218-.48-.189-.91.112-1.334.297-.419.593-.841.885-1.266.07-.103.12-.22.194-.355h-.004z"/><path d="M23.784 29.904c.586-.023 1.23.2 1.74.658.753.677 1.468.897 2.415.326.42-.254.759-.415.776-.957.01-.324.093-.65.167-.97.14-.614.692-1.01 1.256-.916.596.096 1.013.65.922 1.29-.11.778-.252 1.552-.397 2.325-.086.46-.383.74-.817.912-.875.347-1.748.7-2.608 1.08-.48.21-.907.19-1.334-.112-.56-.4-1.122-.794-1.687-1.183-.488-.336-.747-.31-1.171.109-.389.381-.773.764-1.153 1.154-.376.385-.399.657-.091 1.105.364.531.723 1.067 1.115 1.578.405.529.414 1.037.123 1.634a18.922 18.922 0 00-.93 2.252c-.214.634-.597.973-1.248 1.067-.636.091-1.27.211-1.9.333-.543.105-.708.306-.713.844a91.722 91.722 0 000 1.675c.005.53.198.755.715.847.661.119 1.323.24 1.986.346.582.09.927.407 1.13.969.294.818.63 1.622.998 2.41.251.54.236 1.007-.113 1.485-.397.543-.78 1.096-1.16 1.651-.307.447-.285.717.091 1.103.378.39.765.774 1.153 1.155.428.42.68.443 1.168.108a84.006 84.006 0 001.651-1.16c.468-.338.925-.34 1.447-.1a31.9 31.9 0 002.45 1.016c.546.2.847.545.938 1.107.106.663.227 1.325.345 1.986.095.526.315.718.839.725.572.007 1.145.007 1.718 0 .49-.007.71-.18.802-.658.125-.63.25-1.263.338-1.9.097-.705.452-1.107 1.146-1.325.76-.237 1.493-.572 2.21-.921.563-.275 1.054-.271 1.56.105.527.393 1.072.764 1.613 1.137.47.323.725.3 1.135-.105.399-.391.794-.785 1.184-1.185.352-.361.378-.651.091-1.07a63.73 63.73 0 00-1.184-1.686c-.35-.481-.348-.95-.094-1.486a24.77 24.77 0 00.986-2.37c.204-.582.553-.904 1.154-.995.595-.089 1.182-.208 1.775-.309.169-.03.34-.057.51-.06.55-.012 1.045.399 1.131.924.088.533-.273 1.115-.816 1.248-.47.115-.96.158-1.43.278-.16.041-.328.19-.413.337-.143.244-.174.558-.334.785-.4.569-.25 1.014.157 1.51.517.633.963 1.315.979 2.191.014.78-.196 1.478-.729 2.048-.527.564-1.063 1.126-1.64 1.636-1.045.924-2.344 1.012-3.527.275-.4-.25-.787-.522-1.164-.808-.207-.158-.386-.194-.618-.063-.223.125-.457.268-.703.312-.713.128-.962.566-1.008 1.243a4.264 4.264 0 01-.287 1.292c-.47 1.154-1.362 1.776-2.606 1.847-.627.036-1.26.012-1.89.01-1.667-.007-2.864-.931-3.072-2.574-.132-1.051-.443-1.754-1.56-2.029-.438-.108-.728-.172-1.106.12-.595.46-1.19.94-1.974 1.078-.887.154-1.696-.017-2.366-.605a20.731 20.731 0 01-1.768-1.751c-.862-.962-.967-2.27-.302-3.383.278-.466.623-.892.909-1.352a.622.622 0 00.04-.456c-.095-.297-.3-.567-.36-.867-.129-.645-.529-.85-1.134-.908a4.868 4.868 0 01-1.374-.309c-1.158-.467-1.773-1.366-1.84-2.61-.036-.656-.016-1.316-.009-1.976.017-1.572.988-2.711 2.54-2.991.309-.055.618-.15.929-.155.48-.01.725-.244.818-.69.025-.124.06-.262.134-.36.501-.668.29-1.208-.188-1.81a4.81 4.81 0 01-.804-1.585c-.254-.859-.029-1.696.559-2.366.572-.655 1.207-1.26 1.848-1.85.502-.463 1.13-.659 1.936-.657l-.005-.003z"/><path d="M32.715 50.753c-4.416-.043-7.812-3.796-7.419-8.215.332-3.736 3.65-6.765 7.379-6.739.63.005 1.146.48 1.172 1.079a1.1 1.1 0 01-1.052 1.136c-1.312.067-2.498.438-3.501 1.316-1.656 1.448-2.223 3.735-1.436 5.823.756 2.008 2.72 3.347 4.896 3.337a5.196 5.196 0 005.185-4.837c.034-.442.033-.897.417-1.215.35-.288.746-.378 1.16-.187.44.2.674.564.686 1.053.079 3.497-2.792 6.863-6.25 7.323-.411.055-.823.084-1.236.126h-.002zM46.58 34.748a5.317 5.317 0 01-5.329-5.317 5.331 5.331 0 015.348-5.347c2.933.01 5.321 2.413 5.316 5.346a5.332 5.332 0 01-5.333 5.32l-.002-.002zm.004-2.24a3.108 3.108 0 003.092-3.084c.005-1.699-1.415-3.111-3.126-3.106-1.68.005-3.07 1.42-3.062 3.117a3.087 3.087 0 003.094 3.074h.002z"/></g><defs><clipPath id="clip0_9_651"><path fill="#fff" transform="translate(16 16)" d="M0 0h44v44H0z"/></clipPath></defs></svg>