<svg width="76" height="76" fill="none" xmlns="http://www.w3.org/2000/svg"><path fill="#ED863C" d="M0 .593h75.383v75.383H0z"/><g clip-path="url(#clip0_9_662)"><path d="M43.067 48.419c-.31 1.583.836 3.167 2.408 3.241 1.702.08 3.412.033 5.117.049.308.003.627.001.92.076 1.182.3 1.883 1.063 2.111 2.241.14.718-.08.971-.82.971H23.346c-.123 0-.248.005-.371-.003-.448-.028-.641-.238-.63-.68.033-1.308 1.136-2.502 2.473-2.578 1.122-.062 2.25-.023 3.376-.032.79-.007 1.585.022 2.371-.042 1.549-.129 2.683-1.683 2.37-3.243H22.084c-.6 0-1.184-.069-1.707-.39-.88-.534-1.369-1.31-1.37-2.324-.01-7.334-.01-14.667-.002-22.001.003-1.444 1.137-2.593 2.598-2.694.123-.009.246-.01.37-.01H54.03c1.418 0 2.477.72 2.842 1.95.082.277.123.575.123.863.006 7.261.008 14.521.003 21.782 0 1.562-1.088 2.702-2.675 2.803-.553.035-1.111.018-1.668.018h-9.588v.003zm12.818-5.508V23.97c0-1.229-.648-1.87-1.893-1.87H22.015c-1.249 0-1.899.64-1.899 1.865v18.947h35.77v-.001zm-35.764 1.137c0 .616-.023 1.189.006 1.758.034.683.55 1.29 1.221 1.445.261.06.54.065.81.065 10.561.003 21.123.003 31.684.002.172 0 .347-.003.518-.02.761-.072 1.383-.571 1.475-1.315.079-.632.016-1.28.016-1.936h-35.73v.001zm32.317 9.83c-.076-.144-.12-.252-.185-.347-.375-.547-.917-.73-1.567-.729-3.722.008-7.445.003-11.169.003-.148 0-.298.005-.444-.016-.33-.044-.53-.263-.506-.564.024-.313.206-.486.523-.512.11-.01.222-.006.333-.006h3.192c.118 0 .237-.011.43-.022-.911-.933-1.213-2.019-1.152-3.233h-7.795c.079 1.232-.248 2.306-1.16 3.255h3.622c.149 0 .299-.004.444.022.264.048.408.224.425.483.017.274-.109.48-.383.55-.165.043-.343.042-.515.042-3.7.001-7.396 0-11.095.003-.21 0-.422 0-.63.032-.59.088-1.125.567-1.17 1.038H52.44h-.002z" fill="#fff"/></g><defs><clipPath id="clip0_9_662"><path fill="#fff" transform="translate(19 21)" d="M0 0h38v34H0z"/></clipPath></defs></svg>