<svg width="76" height="76" fill="none" xmlns="http://www.w3.org/2000/svg"><path fill="#ED863C" d="M0 .593h75.383v75.383H0z"/><g clip-path="url(#clip0_9_692)" fill="#fff"><path d="M19.35 57.591c.248.772.733 1.114 1.56 1.115 3.015.002 6.03 0 9.046 0H44.15c.157 0 .319-.015.47.02.31.07.502.269.514.599.012.35-.179.567-.506.65-.136.035-.285.021-.427.021H20.96c-1.804 0-2.955-1.137-2.958-2.94-.007-3.794-.002-7.59 0-11.383 0-.129-.004-.26.02-.385.059-.302.249-.478.556-.505.324-.028.564.113.656.428.052.173.054.367.054.551.003 3.265.001 6.529.001 9.793v.583c4.65-2.558 9.224-5.077 13.736-7.56L19.348 34.794c-.021.258-.055.488-.057.718-.003 2.22-.002 4.438-.002 6.658 0 .115.005.23-.001.343-.026.466-.282.74-.67.729-.374-.012-.613-.277-.613-.73-.003-2.449-.003-4.897.005-7.345.004-.77.323-1.412.864-1.947.743-.733 1.499-1.455 2.224-2.206a1 1 0 00.257-.625c.02-1.718.009-3.436.012-5.154.004-1.82 1.15-2.966 2.978-2.97 1.744-.006 3.487-.01 5.23.004a.962.962 0 00.752-.302c1.683-1.674 3.38-3.335 5.073-5 1.313-1.29 2.889-1.29 4.202 0 1.692 1.665 3.39 3.326 5.073 5a.953.953 0 00.75.3c1.745-.013 3.488-.01 5.232-.005 1.826.005 2.967 1.15 2.974 2.974 0 .43.007.86-.003 1.289-.01.417-.245.673-.61.687-.376.016-.656-.254-.67-.68-.016-.457 0-.916-.006-1.375-.009-1.003-.598-1.6-1.603-1.603-3.701-.005-7.403-.001-11.106-.001H24.455c-1.269 0-1.804.53-1.804 1.792 0 3.479.004 6.958-.005 10.437 0 .28.082.476.28.673 3.716 3.708 7.43 7.42 11.135 11.139.216.216.37.228.619.08a28.68 28.68 0 011.538-.847c.828-.43 1.675-.444 2.51-.024.56.282 1.11.588 1.652.906.215.125.34.096.513-.076 3.748-3.757 7.504-7.506 11.248-11.269.129-.128.192-.376.194-.568.014-2.048.009-4.095.009-6.142 0-.143-.012-.29.017-.428.077-.35.3-.559.667-.536.361.022.58.237.595.606.017.371-.023.748.019 1.115.022.205.106.445.245.588a87.44 87.44 0 002.163 2.144c.645.62.947 1.366.947 2.263-.007 7.23 0 14.46-.007 21.69-.002 1.751-1.17 2.895-2.916 2.897-2.173.003-4.345 0-6.517 0-.129 0-.262.012-.384-.019-.326-.086-.516-.299-.506-.651.01-.332.204-.53.513-.601.135-.033.284-.017.427-.017 2.172 0 4.344.001 6.516-.002.787 0 1.272-.356 1.52-1.115-.224-.13-.455-.263-.69-.392-5.48-3.019-10.964-6.029-16.435-9.061-.713-.395-1.33-.395-2.047.003-5.558 3.083-11.128 6.139-16.696 9.204-.138.076-.271.155-.43.248l.004.001zm36.313-22.833l-13.704 13.81 13.704 7.542V34.758zM43.055 22.252c-.048-.09-.06-.132-.088-.16-1.476-1.453-2.943-2.914-4.433-4.352-.641-.618-1.463-.594-2.104.031-1.442 1.406-2.873 2.821-4.308 4.235-.062.06-.101.143-.172.246h11.105zM20.32 33.674l1.006 1.12v-2.132l-1.006 1.012zm33.349-.992v2.062l1.05-.996c-.349-.352-.692-.703-1.05-1.066z"/><path d="M37.498 27.922h9.517c.158 0 .316-.006.471.012.345.037.55.237.571.584.023.367-.168.598-.528.668-.139.028-.284.024-.427.024H27.898c-.142 0-.288.004-.426-.024-.359-.07-.55-.299-.529-.668.021-.349.223-.547.57-.586.156-.017.313-.012.471-.012H37.5l-.002.002zm.004 9.86h9.56c.17 0 .346-.004.51.03.32.07.487.288.485.616 0 .328-.171.543-.49.611-.15.033-.312.031-.468.031H27.896c-.143 0-.288 0-.427-.024-.341-.062-.527-.275-.527-.625s.192-.562.532-.62c.152-.028.314-.02.47-.02h9.56-.002zm-.047-3.644H27.94c-.13 0-.258.007-.386-.004-.372-.032-.616-.29-.616-.64 0-.351.242-.605.617-.641.114-.01.229-.006.343-.006h19.206c.128 0 .26-.012.385.01.353.06.571.267.57.638 0 .371-.217.578-.572.636-.125.02-.257.007-.385.007h-9.646z"/></g><defs><clipPath id="clip0_9_692"><path fill="#fff" transform="translate(18 16)" d="M0 0h39v44H0z"/></clipPath></defs></svg>