<svg width="62" height="62" fill="none" xmlns="http://www.w3.org/2000/svg"><g clip-path="url(#clip0_1277_23860)" fill="#fff"><path d="M30.843 26.493h-.15a10.354 10.354 0 01-4.947-1.336 10.79 10.79 0 01-3.776-3.572 11.278 11.278 0 01-1.731-4.983 11.387 11.387 0 01.712-5.245c.922-2.38 2.616-4.353 4.79-5.581a10.337 10.337 0 017.123-1.147c2.431.486 4.623 1.834 6.2 3.812a11.288 11.288 0 012.438 7.028v.056c-.016 2.917-1.146 5.71-3.143 7.766-1.998 2.056-4.7 3.21-7.516 3.208v-.006zm0-19.626a8.119 8.119 0 00-4.654 1.473 8.568 8.568 0 00-3.062 3.918 8.873 8.873 0 00-.558 4.09 8.788 8.788 0 001.35 3.887 8.407 8.407 0 002.945 2.784 8.067 8.067 0 003.859 1.04 8.515 8.515 0 003.22-.622 8.348 8.348 0 003.786-3.16 8.803 8.803 0 001.423-4.815v-.05a8.763 8.763 0 00-2.444-6.064c-1.558-1.606-3.667-2.508-5.865-2.506v.025zM43.23 57.528H18.457a3.994 3.994 0 01-2.87-1.23 4.288 4.288 0 01-1.194-2.969V38.68c.004-2.991 1.154-5.857 3.196-7.97 2.043-2.114 4.81-3.302 7.697-3.303h11.11c2.886.002 5.654 1.19 7.696 3.303s3.192 4.979 3.197 7.97v14.65a4.33 4.33 0 01-.31 1.608 4.21 4.21 0 01-.88 1.363c-.377.39-.824.7-1.316.91-.493.21-1.02.319-1.553.318zM25.286 29.822c-2.264 0-4.435.93-6.037 2.588-1.602 1.657-2.503 3.905-2.506 6.25v14.65a1.818 1.818 0 00.504 1.25c.16.164.349.294.556.382.208.088.43.133.654.132H43.23c.449-.003.88-.188 1.199-.515a1.76 1.76 0 00.369-.57 1.8 1.8 0 00.128-.672V38.666c-.004-2.345-.906-4.592-2.508-6.248-1.601-1.657-3.771-2.588-6.035-2.59l-11.097-.006z"/><path d="M35.048 41.852c-.318 0-.623-.13-.848-.364a1.265 1.265 0 01-.351-.878v-4.968a.996.996 0 00-.264 0h-5.54a.996.996 0 00-.263 0v4.968a1.25 1.25 0 01-.416.715c-.215.18-.483.28-.76.28-.276 0-.544-.1-.758-.28a1.251 1.251 0 01-.416-.715v-5.341c0-1.186 1.12-2.075 2.614-2.075h5.54c1.486 0 2.613.889 2.613 2.075v5.341c0 .321-.12.63-.334.861a1.181 1.181 0 01-.817.381z"/><path fill-rule="evenodd" clip-rule="evenodd" d="M37.635 40.635H24.044a2.758 2.758 0 00-1.978.85 2.96 2.96 0 00-.822 2.05v10.974c.002.77.297 1.507.822 2.051a2.764 2.764 0 001.978.856h13.591a2.77 2.77 0 001.98-.855 2.973 2.973 0 00.826-2.052V43.535a2.967 2.967 0 00-.826-2.05 2.763 2.763 0 00-1.98-.85zm-6.061 9.316v2.117a.773.773 0 01-.214.536.719.719 0 01-.517.222.719.719 0 01-.518-.222.772.772 0 01-.214-.535V49.95a2.413 2.413 0 01-1.31-1.06 2.559 2.559 0 01-.328-1.689 2.509 2.509 0 01.81-1.504 2.35 2.35 0 011.56-.597 2.35 2.35 0 011.559.597c.434.386.721.919.81 1.504a2.558 2.558 0 01-.329 1.688c-.3.505-.765.88-1.31 1.061z"/></g><defs><clipPath id="clip0_1277_23860"><path fill="#fff" d="M0 0h62v62H0z"/></clipPath></defs></svg>