<svg width="160" height="46" fill="none" xmlns="http://www.w3.org/2000/svg"><g clip-path="url(#clip0_436:172)"><path d="M36.723 33.864a18.12 18.12 0 01-2.164 3.033l.022.023-.766.768a17.914 17.914 0 01-12.79 5.323 17.918 17.918 0 01-12.752-5.283 17.918 17.918 0 01-5.284-12.753c0-.356.01-.717.032-1.076.003-.049.005-.098.01-.15v-.014l.007-.099v-.017c.005-.073.013-.15.02-.223.005-.062.01-.126.017-.192l.03-.29c.007-.056.012-.12.022-.182l.032-.258.022-.147a6.12 6.12 0 01.04-.26c.006-.047.016-.1.024-.152a11.228 11.228 0 01.059-.32l.034-.18c.015-.07.027-.14.044-.213.103-.491.231-.985.376-1.466l.005-.012c.017-.064.037-.128.059-.19l.051-.164c.104-.315.217-.634.337-.94.017-.043.034-.09.052-.133.02-.047.036-.096.058-.148l.08-.191c.019-.05.043-.106.068-.16l.01-.025c.034-.073.066-.15.1-.223a17.783 17.783 0 011.714-2.984l.104-.14c.071-.099.142-.197.216-.29.035-.044.071-.094.108-.14.079-.104.16-.204.238-.302.047-.057.094-.118.143-.175l.142-.17c.047-.056.099-.115.148-.171l.17-.194-2.118-2.12A20.892 20.892 0 000 24.972 20.884 20.884 0 006.158 39.84a20.884 20.884 0 0014.867 6.158 20.881 20.881 0 0014.902-6.195 21.084 21.084 0 002.977-3.76l-2.181-2.179z" fill="#1D2A38"/><path d="M9.813 36.188a15.758 15.758 0 0011.212 4.644 17.532 17.532 0 00.595-.01h.01l.292-.014.233-.015.106-.008.054-.004c.071-.005.142-.013.216-.02a5.02 5.02 0 00.184-.017l.12-.013.082-.01.157-.019c.196-.025.388-.052.577-.084.054-.01.106-.02.157-.026l.017-.003.123-.022.02-.005c.054-.01.108-.02.162-.032.142-.027.282-.056.42-.088.093-.02.187-.045.28-.067l.012-.002a.769.769 0 00.072-.017c.068-.017.13-.035.194-.05.053-.014.105-.026.154-.041.044-.013.084-.022.12-.035.037-.01.067-.017.094-.027l.022-.007a3.794 3.794 0 00.297-.09 18.345 18.345 0 00.526-.174l.105-.038.027-.01.128-.047.182-.068.135-.052c.081-.032.155-.061.229-.093l.22-.094c.07-.03.138-.059.202-.088l.106-.047.031-.014.163-.077c.334-.16.663-.329.98-.51.034-.02.066-.04.1-.057.074-.042.148-.086.219-.128l.364-.223c.16-.103.326-.211.505-.334l.148-.103.02-.015.11-.079.01-.007.08-.06.01-.006c.047-.032.092-.067.136-.101.051-.037.1-.076.147-.113.035-.027.062-.05.091-.071l.035-.027.15-.12c.05-.043.102-.084.152-.123l.012-.01c.096-.079.189-.16.285-.241.03-.025.056-.05.086-.076l-2.12-2.122a12.819 12.819 0 01-8.336 3.063c-7.094 0-12.866-5.773-12.866-12.866a12.78 12.78 0 013.807-9.137 12.979 12.979 0 014.023-2.705l-2.25-2.25a15.923 15.923 0 00-3.895 2.845 15.731 15.731 0 00-4.684 11.244c0 4.237 1.65 8.219 4.645 11.215z" fill="#fff"/><path d="M39.02 21.025a20.884 20.884 0 00-6.158-14.867A20.89 20.89 0 0017.992 0c-5.635 0-10.928 2.198-14.9 6.195a21.12 21.12 0 00-2.979 3.76l2.184 2.184A18.118 18.118 0 014.46 9.105l-.022-.022.766-.769a17.91 17.91 0 0112.79-5.322c4.816 0 9.345 1.876 12.752 5.283a17.914 17.914 0 015.284 12.753c0 .356-.01.72-.032 1.076-.003.046-.005.098-.01.15l-.008.11v.017c-.005.074-.012.15-.02.224-.004.061-.01.127-.017.194l-.029.29c-.007.056-.012.117-.022.181l-.032.258-.022.145c-.01.084-.025.172-.04.263-.007.047-.017.1-.024.152l-.024.133a10.738 10.738 0 01-.072.366 17.599 17.599 0 01-.42 1.68c-.02.066-.039.135-.064.204l-.051.164c-.103.317-.216.634-.337.94l-.051.131-.06.148-.078.191a3.93 3.93 0 01-.069.16l-.01.024-.1.224-.076.164a17.782 17.782 0 01-1.639 2.82l-.1.14a17.423 17.423 0 01-.325.43c-.078.103-.16.204-.238.302-.046.056-.093.118-.142.174a6.42 6.42 0 01-.133.16l-.01.01c-.049.056-.098.115-.15.172l-.169.194 2.117 2.12a20.89 20.89 0 005.446-14.114z" fill="#fff"/><path d="M23.026 32.87l2.25 2.25a15.923 15.923 0 003.896-2.845c3.019-3 4.68-6.993 4.68-11.247 0-4.235-1.651-8.219-4.646-11.213a15.755 15.755 0 00-11.613-4.642c-.066 0-.13.002-.196.005h-.007l-.293.015-.233.014-.106.008-.054.005a6.941 6.941 0 00-.213.02c-.064.007-.123.011-.185.019-.044.005-.083.01-.12.012l-.061.008-.02.002a19.154 19.154 0 00-.732.103c-.054.01-.106.017-.157.027l-.017.003a11.06 11.06 0 00-.12.022l-.028.005-.157.03a9.2 9.2 0 00-.425.088c-.093.02-.187.044-.28.066l-.012.002a.744.744 0 00-.071.017c-.07.018-.13.035-.194.05l-.155.041c-.044.013-.084.022-.123.035l-.093.027-.023.007a3.995 3.995 0 00-.297.09 3.647 3.647 0 01-.13.04 18.75 18.75 0 00-.395.135l-.104.037-.029.01c-.044.017-.084.03-.123.047a3.79 3.79 0 00-.186.071l-.136.054a7.15 7.15 0 00-.228.093l-.221.094-.201.088a3.61 3.61 0 01-.106.047l-.032.015c-.054.024-.108.051-.162.076-.334.16-.663.329-.98.51l-.1.057-.207.12-.229.14c-.046.03-.095.062-.144.091-.163.103-.327.212-.504.334-.047.032-.09.064-.135.094l-.03.02-.115.083-.015.01c-.024.02-.049.036-.076.056l-.01.008c-.046.031-.09.066-.135.1-.051.037-.098.076-.147.113l-.091.071-.034.027c-.05.04-.101.079-.15.12-.057.045-.11.092-.165.136a12.364 12.364 0 00-.37.317l2.121 2.122a12.821 12.821 0 018.337-3.065c7.093 0 12.866 5.772 12.866 12.865a12.78 12.78 0 01-3.808 9.137 13.014 13.014 0 01-4.02 2.702z" fill="#1D2A38"/></g><g clip-path="url(#clip1_436:172)" fill="#fff"><path d="M57.92 30.235l-.614 1.855h1.24l-.614-1.855h-.013zm.888-10.485c-.21.933-.608 1.645-1.182 2.135-.588.47-1.3.711-2.148.711a3.84 3.84 0 01-1.94-.522c-.587-.346-1.024-.881-1.299-1.593-.3-.712-.437-1.56-.437-2.514 0-.744.124-1.475.366-2.167a3.346 3.346 0 011.234-1.665c.587-.398 1.331-.607 2.2-.607.764 0 1.384.176 1.887.555.503.365.881.953 1.142 1.769l.033.085 1.737-.398-.033-.105c-.327-1.077-.901-1.926-1.717-2.533-.816-.588-1.822-.881-3.017-.881-1.038 0-2.01.228-2.898.692a4.982 4.982 0 00-2.024 2.082c-.47.901-.712 1.972-.712 3.173 0 1.11.209 2.168.627 3.121.418.973 1.038 1.737 1.854 2.24.797.522 1.854.783 3.14.783 1.234 0 2.292-.346 3.154-1.005.868-.66 1.456-1.646 1.789-2.912l.032-.105-1.75-.43-.038.09zm15.884-6.966C73.804 12.26 72.8 12 71.71 12c-1.685 0-3.069.555-4.127 1.645-1.057 1.09-1.593 2.638-1.593 4.558 0 1.025.229 1.99.692 2.911.45.921 1.13 1.646 2.011 2.188.882.535 1.894.796 2.997.796a5.877 5.877 0 002.892-.731c.901-.47 1.593-1.195 2.096-2.135.483-.92.731-1.991.731-3.173 0-1.162-.241-2.2-.692-3.121a5.193 5.193 0 00-2.024-2.155zm-.189 8.63c-.731.778-1.684 1.182-2.807 1.182-1.11 0-2.044-.398-2.795-1.162-.731-.783-1.11-1.854-1.11-3.205 0-1.685.398-2.912 1.162-3.624a3.934 3.934 0 012.756-1.077c.763 0 1.436.19 2.043.555a3.613 3.613 0 011.371 1.58c.314.679.47 1.488.47 2.409 0 1.436-.365 2.566-1.09 3.343zm18.066-8.911l-2.795 7.959c-.228.64-.398 1.142-.522 1.54l-.47-1.384-2.788-8.22h-.19v4.25l2.586 7.457h1.541l2.638-7.443v-4.16zm-7.391-.105h-1.697v11.707h1.697V12.398zm9.696 0H93.19v11.707h1.684V12.398zm7.821 0h-1.75v11.707h1.75V12.398zm7.039 1.822c-.261-.483-.575-.882-.986-1.143-.398-.28-.901-.47-1.476-.555-.418-.085-1.025-.124-1.802-.124h-2.148v1.56h2.272c.692 0 1.163.033 1.424.105.378.104.692.313.92.64.242.326.346.712.346 1.182 0 .626-.189 1.11-.587 1.456-.399.346-1.091.522-2.063.522h-2.305v1.58h2.291c1.665 0 2.86-.366 3.5-1.058.659-.692.986-1.54.986-2.546a3.683 3.683 0 00-.372-1.62zm11.007-1.822l-4.577 11.707h1.854l.523-1.371h-.02l1.319-3.552.281-.731.972-2.586h.02c.209-.574.379-1.162.522-1.736.177.554.418 1.234.712 1.99l1.182 3.05h-2.997l-.535 1.436h4.093l1.371 3.487h1.992l-4.891-11.707h-1.821v.013zm14.227 0h-1.632v11.707h1.632V12.398zm6.098 8.795l-.033-.053v2.965h1.73V12.398h-1.697v8.795zm-5.478-5.047l4.818 7.07V20.22l-4.818-7.058v2.984zm22.33-3.748l-2.305 3.434c-.451.68-.849 1.32-1.195 1.874v-.02l-.973 1.476v4.943h1.77v-4.943l4.766-6.764h-2.063zm-3.865 4.682l-.725-1.163-2.344-3.519h-2.148l4.231 6.21.986-1.529zM50 29.942h1.162v3.669h.647v-3.67h1.162v-.574H50v.575z"/><path d="M57.658 29.367l-1.54 4.244h.678l.327-.947h1.612l.327.947h.679L58.2 29.367h-.542zm-.352 2.723l.613-1.855h.013l.614 1.855h-1.24zm7.731-.21h.861v.223c-.006.267-.084.483-.248.646a.827.827 0 01-.62.255.759.759 0 01-.392-.098.676.676 0 01-.267-.216.679.679 0 01-.164-.359c-.032-.15-.045-.43-.045-.849 0-.418.013-.698.045-.855a.737.737 0 01.164-.352.736.736 0 01.267-.216.91.91 0 01.392-.091.882.882 0 01.522.176.935.935 0 01.288.437h.679a1.582 1.582 0 00-.49-.894c-.261-.242-.594-.36-.999-.366-.333.007-.614.085-.836.242-.228.15-.391.326-.496.522a1.168 1.168 0 00-.144.405c-.026.17-.045.496-.045.992 0 .483.013.816.045.986.014.092.033.17.06.229.025.058.052.117.084.183.105.195.268.365.496.515.222.157.503.235.836.242a1.52 1.52 0 001.077-.438c.281-.287.431-.64.438-1.07v-.862h-1.508v.614zm6.476-2.513h-.64v4.244h2.71v-.607h-2.07v-3.637zm6.894 0h-.64v4.244h.64v-4.244zm7.006 3.016h-.006l-1.926-3.016h-.601v4.244h.64v-3.017h.013l1.92 3.017h.606v-4.244h-.646v3.016zm5.119 1.227h2.71v-.606h-2.063v-1.247h1.762v-.569H91.18v-1.214h2.063v-.607h-2.71v4.244zm13.273-1.73h.862v.223c-.007.267-.085.483-.248.646a.826.826 0 01-.62.255.757.757 0 01-.392-.098.675.675 0 01-.268-.216.677.677 0 01-.163-.359c-.033-.15-.046-.43-.046-.849 0-.418.013-.698.046-.855a.739.739 0 01.163-.352.735.735 0 01.268-.216.866.866 0 01.914.085.934.934 0 01.287.437h.679a1.58 1.58 0 00-.489-.894c-.255-.242-.595-.36-.999-.366-.333.007-.614.085-.836.242-.229.15-.392.326-.496.522a1.162 1.162 0 00-.144.405c-.026.17-.046.496-.046.992 0 .483.013.816.046.986.013.092.033.17.059.229.026.058.052.117.085.183.104.195.267.365.496.515.222.157.503.235.836.242a1.52 1.52 0 001.077-.438 1.5 1.5 0 00.437-1.07v-.862h-1.508v.614zm8.534-1.788a1.4 1.4 0 00-.483-.522c-.229-.157-.51-.236-.843-.242-.333.006-.613.085-.835.242-.229.15-.392.326-.496.522a1.162 1.162 0 00-.144.405c-.026.17-.046.496-.046.992 0 .483.013.816.046.986.013.091.033.17.059.228a1.418 1.418 0 00.581.699c.222.157.502.235.835.242.34-.007.621-.092.843-.242.222-.15.385-.32.483-.516a.981.981 0 00.15-.411c.026-.17.039-.496.039-.986s-.013-.823-.039-.992a.984.984 0 00-.15-.405zm-.503 2.246a.798.798 0 01-.17.359.827.827 0 01-.254.215.784.784 0 01-.399.098.756.756 0 01-.391-.098.675.675 0 01-.268-.215.677.677 0 01-.163-.36c-.033-.15-.046-.43-.046-.848s.013-.699.046-.855a.739.739 0 01.163-.353.735.735 0 01.268-.215.91.91 0 01.391-.092.943.943 0 01.399.092c.104.058.189.13.254.215a.686.686 0 01.17.353c.026.15.046.437.046.855s-.013.699-.046.849zm5.014 1.272h2.709v-.606h-2.063v-1.247h1.763v-.569h-1.763v-1.214h2.063v-.607h-2.709v4.244zm8.475-2.421c-.203-.026-.36-.046-.477-.066-.209-.039-.359-.11-.457-.209a.456.456 0 01-.144-.333c.007-.202.072-.359.216-.456.13-.099.3-.15.496-.15.385.006.731.117 1.051.326l.359-.53a2.356 2.356 0 00-1.377-.437c-.438.007-.777.118-1.019.346-.248.229-.372.53-.372.895 0 .307.098.568.294.784.189.208.47.345.835.404.203.026.392.052.562.079.372.065.555.254.555.568-.007.385-.287.58-.836.587a1.88 1.88 0 01-1.208-.424l-.424.483c.45.385.992.581 1.619.581.973-.013 1.469-.424 1.489-1.234 0-.3-.092-.561-.281-.79-.189-.222-.483-.366-.881-.424zm12.744 0h-1.678v-1.822h-.646v4.244h.646v-1.854h1.678v1.854h.647v-4.244h-.647v1.822zm5.119 2.421h2.709v-.606h-2.07v-1.247h1.763v-.569h-1.763v-1.214h2.07v-.607h-2.709v4.244zm9.833-3.061c-.013-.392-.15-.692-.425-.908-.222-.189-.509-.28-.861-.28h-1.659v4.243h.647V31.79h.822l.875 1.815h.764l-.986-1.88c.542-.202.816-.594.823-1.175zm-2.298.679v-1.286h1.005c.202 0 .366.045.47.13.137.098.209.261.216.483a.65.65 0 01-.177.464c-.117.137-.3.209-.542.209h-.972zm6.567 2.382H160v-.606h-2.07v-1.247h1.763v-.569h-1.763v-1.214H160v-.607h-2.71v4.244z"/></g><defs><clipPath id="clip0_436:172"><path fill="#fff" d="M0 0h39.019v46H0z"/></clipPath><clipPath id="clip1_436:172"><path fill="#fff" transform="translate(50 12)" d="M0 0h110v21.643H0z"/></clipPath></defs></svg>