<svg width="186" height="301" viewBox="0 0 186 301" fill="none" xmlns="http://www.w3.org/2000/svg">
<path d="M183.913 0.519598C186.893 18.7697 186.955 39.0058 172.95 53.2254C159.837 66.5398 137.94 69.0075 123.907 81.8859C97.645 105.988 121.27 159.306 128.62 186.187C135.113 209.937 134.919 220.412 110.74 230.783C97.323 236.538 81.9165 235.886 67.9659 239.807C49.4094 245.021 18.7446 252.768 7.50846 270.373C-3.98977 288.389 1.61345 317.674 5.95403 336.902C12.7535 367.023 27.1645 395.396 40.0052 423.196C56.699 459.339 73.8964 495.165 93.8485 529.651C129.171 590.704 167.074 652.5 211.257 707.62C216.292 713.903 232.612 737.471 243.271 739.799C246.472 740.498 251.087 738.465 254.22 738.011C264.617 736.507 275.119 735.693 285.557 734.518C329.666 729.556 363.28 700.955 395.49 672.306" stroke="black" stroke-opacity="0.11"/>
</svg>
