<svg width="1422" height="861" viewBox="0 0 1422 861" fill="none" xmlns="http://www.w3.org/2000/svg">
<path d="M735.868 432.032C562.144 335.611 228.285 126.642 62.9576 168.028C-140.534 218.966 17.7675 369.59 147.302 416.134C312.398 475.456 358.806 577.154 312.398 633.438C278.275 674.823 149.972 658.269 62.9576 613.573C-24.0567 568.877 -113.971 534.113 -180.682 560.6C-247.393 587.086 -167.543 756.392 202.181 742.695C553.158 729.692 595.229 795.849 685.144 845.511C775.059 895.173 1452.29 1012.53 1420.38 777.459C1388.48 542.39 1358.64 368.597 1129.5 335.489C941.501 270.5 1098.5 194 1109.5 135.5C1117.5 69 801.501 63 801.501 0.5" stroke="white" stroke-opacity="0.15"/>
</svg>
