<svg width="61" height="61" viewBox="0 0 61 61" fill="none" xmlns="http://www.w3.org/2000/svg">
<g clip-path="url(#clip0_6159_19451)">
<path d="M38.0966 60.3639C35.8822 60.3897 33.4336 59.4591 31.0529 58.2026C18.0388 51.3273 8.39884 41.1843 1.84725 28.0573C-0.751363 22.8557 0.274962 16.625 4.34042 12.3798C5.16522 11.5195 6.01112 10.6803 6.86405 9.84819C8.30746 8.44172 10.3038 8.44172 11.7309 9.84819C14.8192 12.9159 17.8974 15.9952 20.9654 19.0863C22.4041 20.535 22.3854 22.5298 20.9443 24.009C19.7259 25.249 18.4863 26.468 17.2608 27.701C16.1712 28.798 16.0611 29.8271 16.914 31.107C17.4553 31.918 18.027 32.7103 18.5918 33.505C19.1119 34.2364 19.0768 34.9302 18.484 35.3615C17.8911 35.7929 17.2186 35.596 16.7242 34.9209C16.0752 34.0184 15.4237 33.1135 14.8169 32.1829C13.5422 30.2279 13.7812 27.9026 15.4191 26.2312C16.6493 24.9771 17.9028 23.7441 19.1424 22.4994C19.8618 21.7774 19.8688 21.3273 19.1635 20.6077C16.183 17.6213 13.2008 14.638 10.2172 11.6578C9.53294 10.9734 9.0643 10.9827 8.37306 11.6696C7.62558 12.4127 6.87106 13.151 6.13763 13.9082C2.56659 17.5838 1.80039 22.8158 4.11079 27.3751C7.89974 34.8576 12.8298 41.468 19.0768 47.0657C23.4627 51.0185 28.3912 54.3236 33.7124 56.8805C35.8041 57.8831 38.1502 58.2285 40.4419 57.8711C42.7336 57.5138 44.8634 56.4705 46.5508 54.8787C47.4483 54.0371 48.3059 53.1534 49.1682 52.2767C49.7282 51.7071 49.7259 51.1679 49.1541 50.5936C46.122 47.5509 43.0845 44.513 40.0414 41.4797C39.4673 40.9054 38.9401 40.9171 38.3637 41.4797C37.1148 42.7174 35.8799 43.9691 34.6333 45.2068C32.8197 47.0024 30.5233 47.2439 28.4098 45.8069C27.1023 44.9208 25.8323 43.9668 24.574 43.0221C23.8991 42.5158 23.7679 41.8032 24.1967 41.2476C24.6255 40.6921 25.3097 40.6546 26.0056 41.1679C27.2475 42.0798 28.4848 43.001 29.7548 43.8801C30.8701 44.656 31.9574 44.5481 32.9322 43.5917C34.1741 42.3751 35.3925 41.1351 36.6227 39.9091C38.2395 38.2987 40.1797 38.2847 41.7777 39.8833C44.777 42.876 47.7724 45.8733 50.7639 48.8754C52.3385 50.453 52.3409 52.4197 50.7639 53.9996C49.7727 54.9959 48.798 56.0155 47.7459 56.9438C45.2316 59.1637 41.9582 60.3639 38.0966 60.3639Z" fill="#EC008C"/>
<path d="M35.3272 0.354641C45.3561 0.539827 54.8015 7.10804 58.5248 16.4892C59.7428 19.5191 60.3833 22.7501 60.4135 26.0157C60.4135 26.8431 59.9308 27.3846 59.2137 27.3659C58.5436 27.3495 58.082 26.8455 58.0726 26.0719C58.084 23.883 57.7608 21.7051 57.1142 19.6139C54.1243 10.4976 47.9359 4.9374 38.5139 3.05741C37.3165 2.823 36.0746 2.79018 34.8515 2.71048C33.9447 2.64953 33.4128 2.24165 33.4104 1.52435C33.4081 0.807054 33.9657 0.352295 34.9077 0.352295L35.3272 0.354641Z" fill="#EC008C"/>
<path d="M35.1021 7.41982C44.2054 7.61907 51.9731 14.5694 53.1798 23.5942C53.2853 24.3865 53.3439 25.1859 53.3743 25.9852C53.4071 26.8197 52.9057 27.3659 52.2027 27.3612C51.4998 27.3565 51.0733 26.8479 51.0311 26.0298C50.7453 19.4428 47.7085 14.5694 41.8926 11.4728C39.7838 10.3453 37.4781 9.83191 35.0974 9.74518C34.9029 9.74518 34.706 9.74517 34.5116 9.72408C34.2263 9.7068 33.9577 9.58395 33.758 9.37943C33.5583 9.1749 33.4419 8.90336 33.4313 8.61766C33.416 8.33154 33.5078 8.04997 33.689 7.82801C33.8701 7.60605 34.1275 7.45966 34.4108 7.41748C34.6409 7.39883 34.8721 7.39961 35.1021 7.41982Z" fill="#EC008C"/>
<path d="M46.3286 25.889C46.3637 27.0142 45.5131 27.694 44.6321 27.2439C44.1119 26.979 44.0065 26.5102 43.9784 25.9687C43.8167 22.6612 42.3615 20.0756 39.5895 18.2566C38.1527 17.3361 36.4895 16.8307 34.7836 16.7962C33.9073 16.761 33.4082 16.3274 33.4199 15.6077C33.4316 14.8881 33.9916 14.4357 34.8797 14.4568C37.8865 14.5393 40.7477 15.7696 42.8765 17.8954C45.0054 20.0212 46.2405 22.8812 46.3286 25.889Z" fill="#EC008C"/>
<path d="M39.2636 25.9945C39.2988 26.7728 38.8934 27.2979 38.2139 27.3612C37.5343 27.4244 37.0423 26.9861 36.9392 26.2102C36.7236 24.6865 36.1027 24.0606 34.596 23.8497C33.8157 23.7395 33.3752 23.2613 33.4244 22.5838C33.4736 21.9064 34.0055 21.4915 34.7788 21.522C35.9516 21.5664 37.0647 22.0514 37.8959 22.8804C38.7272 23.7094 39.2155 24.8213 39.2636 25.9945Z" fill="#EC008C"/>
<path d="M22.3834 38.43C22.3785 38.7376 22.2529 39.0309 22.0337 39.2467C21.8145 39.4625 21.5193 39.5834 21.2118 39.5833C21.0549 39.5816 20.9 39.5483 20.7562 39.4855C20.6124 39.4228 20.4826 39.3317 20.3746 39.2178C20.2667 39.1039 20.1827 38.9694 20.1277 38.8224C20.0726 38.6754 20.0477 38.5189 20.0543 38.3621C20.0594 38.2104 20.0945 38.0612 20.1576 37.9232C20.2207 37.7851 20.3105 37.661 20.4218 37.5579C20.5332 37.4548 20.6638 37.3748 20.8063 37.3225C20.9487 37.2702 21.1001 37.2467 21.2516 37.2533C21.4042 37.2528 21.5553 37.2833 21.6957 37.3429C21.8362 37.4024 21.9631 37.4898 22.0688 37.5998C22.1746 37.7097 22.257 37.84 22.3111 37.9827C22.3651 38.1254 22.3897 38.2776 22.3834 38.43Z" fill="#EC008C"/>
</g>
<defs>
<clipPath id="clip0_6159_19451">
<rect width="60" height="60" fill="white" transform="translate(0.422852 0.356934)"/>
</clipPath>
</defs>
</svg>
