<svg width="275" height="687" viewBox="0 0 275 687" fill="none" xmlns="http://www.w3.org/2000/svg">
<path d="M255.507 710.427C263.587 714.467 270.993 697.156 272.197 691.941C280.828 654.541 254.715 620.728 234.626 592.25C221.199 573.216 203.82 565.73 182.76 557.448C156.877 547.27 135.426 528.283 117.347 507.004C106.273 493.97 96.3546 479.489 87.8591 464.643C82.818 455.834 73.3927 439.796 76.4081 429.243C78.9332 420.405 82.5707 413.009 85.6887 404.694C95.955 377.317 68.4942 354.122 48.9408 340.703C13.9013 316.657 -22.9177 295.598 -54.0429 266.01C-70.8363 250.046 -86.6772 233.238 -102.391 216.315C-111.134 206.899 -130.854 184.435 -122.449 171.708C-116.952 163.384 -139.496 146.731 -136.164 137.686C-132.916 128.871 -117.213 123.825 -113.537 115.059C-107.976 101.8 -132.852 67.6402 -129.8 52.8334C-127.069 39.5846 -70.5537 7.18156 -70.7566 -6.20998C-71.5236 -56.8284 -70.5465 -60.5542 -61.0781 -110" stroke="white" stroke-opacity="0.15"/>
</svg>
