<svg width="63" height="823" viewBox="0 0 63 823" fill="none" xmlns="http://www.w3.org/2000/svg">
<path d="M393.506 821.427C401.586 825.467 408.992 808.156 410.196 802.941C418.827 765.541 392.714 731.728 372.625 703.25C359.198 684.216 341.819 676.73 320.759 668.448C294.876 658.27 273.425 639.283 255.346 618.004C244.272 604.97 234.354 590.489 225.858 575.643C220.817 566.834 211.392 550.796 214.407 540.243C216.932 531.405 220.57 524.009 223.688 515.694C233.954 488.317 206.493 465.122 186.94 451.703C151.9 427.657 115.081 406.598 83.9561 377.01C67.1628 361.046 51.3218 344.238 35.6077 327.315C26.8645 317.899 7.14516 295.435 15.5498 282.708C21.0467 274.384 -1.49736 257.731 1.835 248.686C5.08258 239.871 20.7864 234.825 24.4624 226.059C30.0226 212.8 5.14718 178.64 8.19896 163.833C10.9296 150.585 67.4453 118.182 67.2424 104.79C66.4754 54.1716 67.4526 50.4458 76.9209 1" stroke="white" stroke-opacity="0.15"/>
</svg>
