<svg width="285" height="374" viewBox="0 0 285 374" fill="none" xmlns="http://www.w3.org/2000/svg">
<path d="M321.876 372.898C328.484 376.202 334.541 362.045 335.525 357.78C342.583 327.195 321.228 299.542 304.799 276.253C293.819 260.687 279.607 254.565 262.383 247.792C241.216 239.468 223.674 223.941 208.889 206.539C199.832 195.879 191.721 184.037 184.773 171.896C180.651 164.692 172.943 151.577 175.409 142.946C177.474 135.718 180.449 129.67 182.999 122.87C191.394 100.481 168.937 81.5125 152.946 70.5384C124.291 50.873 94.1802 33.6515 68.7261 9.45436C54.9925 -3.60105 42.0377 -17.3471 29.1867 -31.1867C22.0366 -38.8869 5.91006 -57.2576 12.7834 -67.6658C17.2788 -74.4731 -1.15779 -88.0921 1.56741 -95.4891C4.22328 -102.698 17.0659 -106.825 20.0721 -113.994C24.6192 -124.837 4.27611 -152.773 6.77186 -164.882C9.00501 -175.717 55.2235 -202.216 55.0576 -213.167C54.4304 -254.563 55.2294 -257.61 62.9727 -298.047" stroke="white" stroke-opacity="0.15"/>
</svg>
