<svg width="22" height="23" viewBox="0 0 22 23" fill="none" xmlns="http://www.w3.org/2000/svg">
<path d="M10.9997 19.7461C9.84183 18.7585 8.76868 17.6758 7.79134 16.5093C6.32468 14.7576 4.58301 12.1488 4.58301 9.66275C4.58171 7.06633 6.14524 4.72502 8.54399 3.73136C10.9427 2.7377 13.7039 3.28755 15.539 5.12433C16.7458 6.32572 17.4218 7.95994 17.4163 9.66275C17.4163 12.1488 15.6747 14.7576 14.208 16.5093C13.2307 17.6758 12.1575 18.7585 10.9997 19.7461ZM10.9997 6.91275C10.0172 6.91275 9.10934 7.4369 8.61811 8.28775C8.12687 9.1386 8.12687 10.1869 8.61811 11.0378C9.10934 11.8886 10.0172 12.4128 10.9997 12.4128C12.5185 12.4128 13.7497 11.1815 13.7497 9.66275C13.7497 8.14396 12.5185 6.91275 10.9997 6.91275Z" fill="#F9C0AC"/>
</svg>
