<svg width="81" height="704" viewBox="0 0 81 704" fill="none" xmlns="http://www.w3.org/2000/svg">
<path d="M87.0998 702.7C69.1731 683.44 51.1523 664.274 33.0722 645.158C25.8036 637.473 17.914 629.991 12.8668 620.56C8.68177 612.741 5.7371 603.445 4.08182 594.755C-0.114991 572.721 -1.08714 551.585 8.03506 530.734C20.6873 501.815 40.8647 476.7 53.4973 447.826C66.8582 417.287 72.6579 382.235 63.3804 349.764C58.0674 331.168 46.5323 316.26 41.5278 297.493C35.8745 276.293 28.8312 255.731 26.2639 233.802C22.7787 204.032 22.3629 162.737 42.7357 137.936C51.0322 127.836 71.4326 127.535 83.1466 125.088C123.151 116.729 158.847 92.3784 190.763 67.3266C212.019 50.6414 233.662 27.6504 241.276 1" stroke="white" stroke-opacity="0.15" stroke-linecap="round"/>
</svg>
