<svg width="105" height="15" fill="none" xmlns="http://www.w3.org/2000/svg"><g clip-path="url(#clip0_398_1383)"><path d="M73.63 3.22v.007a.212.212 0 00.005.022.294.294 0 00.01.032v.003l.014.027v.001l6.391 11.135a.043.043 0 00.004.005.292.292 0 00.022.031l.01.01.006.007.01.01a.3.3 0 01.018.014l.01.006.01.006.01.006.01.004.012.006.009.003a.167.167 0 00.013.004l.01.003.013.002.01.002a.2.2 0 00.013.002h.02l1.823-.013h.003l.025-.002.006-.001a.24.24 0 00.083-.03l.005-.002a.25.25 0 00.086-.089L88.568 3.2a.25.25 0 00-.002-.245l-.923-1.596-.001-.002a.231.231 0 00-.036-.047l-.005-.004a.233.233 0 00-.018-.016l-.005-.004a.216.216 0 00-.05-.03h-.003a.235.235 0 00-.092-.018h-.001l-12.666.095a.24.24 0 00-.208.125l-.9 1.609v.002a.236.236 0 00-.013.027v.001a.174.174 0 00-.01.026v.008a.23.23 0 00-.005.022l-.001.007a.254.254 0 00-.002.028v.001l.002.03zm13.808-1.246l.641 1.108-6 10.737-5.098-8.806 1.265-.01 3.604 6.226.001.002a.118.118 0 00.009.013.08.08 0 00.005.007l.008.011a.21.21 0 01.007.008l.008.009.01.009a.258.258 0 00.019.015l.006.005a.186.186 0 00.014.008l.002.002.006.003a.232.232 0 00.013.006l.01.005a.14.14 0 00.024.008l.009.003.014.002.009.002a.181.181 0 00.036.002.217.217 0 00.023 0l.012-.002a.236.236 0 00.023-.005l.01-.003a.17.17 0 00.012-.004l.012-.005.01-.004a.157.157 0 00.013-.007l.005-.003.002-.001a.374.374 0 00.014-.01l.006-.004a.193.193 0 00.012-.01l.007-.006a.395.395 0 01.01-.01l.007-.007.007-.009.008-.01.005-.008a.205.205 0 00.008-.013l.002-.002 5.17-9.252zM78.804 5l4.592-.034-2.265 4.054L78.804 5zM74.91 1.824l12.11-.092-4.965 8.882-.641-1.107 3.509-6.279a.247.247 0 00.032-.123.243.243 0 00-.244-.243l-1.598.012a.243.243 0 00-.24.247c.001.135.11.244.244.243l1.18-.009-.625 1.117-5.289.04-1.684.013-.64-1.108 6.092-.045a.243.243 0 00.24-.247.243.243 0 00-.244-.244l-6.51.05h-.001l-1.35.01.624-1.117zm.59 1.598l6.163 10.646-1.265.01-6.11-10.647 1.213-.01z" fill="#31DCA4"/><path d="M2.41 1.45h2.665v13.059H2.41V1.449zm6.058 0h2.648l4.746 4.762 4.746-4.762h2.648v13.059h-2.648V5.118l-4.746 4.57-4.746-4.57v9.391H8.468V1.449zm18.506 0h6.885c1.003 0 1.872.109 2.607.326.735.217 1.345.532 1.83.944.484.406.844.905 1.077 1.495.24.59.36 1.256.36 1.997 0 .697-.117 1.34-.351 1.93a4.047 4.047 0 01-1.078 1.538c-.48.429-1.086.766-1.821 1.01-.736.24-1.605.36-2.607.36l-4.253-.008v3.467h-2.649V1.449zm6.952 7.302a4.4 4.4 0 001.312-.175c.379-.123.693-.293.944-.51.256-.223.445-.49.568-.802.128-.317.192-.668.192-1.053 0-.774-.253-1.375-.76-1.804-.502-.435-1.254-.652-2.256-.652h-4.303v4.996h4.303zm8.706-7.302h6.643c1.002 0 1.871.106 2.606.317.736.206 1.345.507 1.83.903a3.62 3.62 0 011.078 1.445c.24.568.359 1.212.359 1.93 0 .485-.058.947-.175 1.387a4.055 4.055 0 01-.543 1.203c-.24.368-.544.697-.911.986-.368.284-.8.521-1.295.71l2.84 4.178h-3.241l-2.457-3.71h-.075l-4.01-.008v3.718h-2.649V1.449zm6.71 7.052a4.4 4.4 0 001.311-.176 2.66 2.66 0 00.944-.493c.256-.211.446-.468.568-.768a2.62 2.62 0 00.192-1.02c0-.73-.25-1.292-.751-1.688-.502-.4-1.257-.601-2.265-.601h-4.06v4.746h4.06zm8.179-.56c0-.986.18-1.888.543-2.707a6.114 6.114 0 011.52-2.106c.658-.59 1.443-1.047 2.357-1.37.919-.323 1.936-.485 3.05-.485 1.108 0 2.122.162 3.04.485.92.323 1.705.78 2.357 1.37a6.064 6.064 0 011.529 2.106c.362.819.543 1.72.543 2.707 0 .991-.181 1.902-.543 2.732a6.212 6.212 0 01-1.53 2.13c-.65.597-1.436 1.062-2.355 1.396-.92.329-1.933.493-3.042.493-1.113 0-2.13-.165-3.05-.493a7.097 7.097 0 01-2.355-1.395 6.264 6.264 0 01-1.52-2.131c-.363-.83-.544-1.74-.544-2.732zm2.648 0c0 .674.12 1.281.36 1.821.245.54.582 1.003 1.01 1.387.435.379.945.671 1.53.877.59.207 1.23.31 1.921.31a5.7 5.7 0 001.914-.31 4.54 4.54 0 001.529-.877 4.133 4.133 0 001.01-1.387c.246-.54.368-1.147.368-1.821 0-.674-.122-1.278-.367-1.813a3.898 3.898 0 00-1.011-1.354 4.4 4.4 0 00-1.53-.852 6.019 6.019 0 00-1.913-.292c-.69 0-1.33.097-1.921.292a4.503 4.503 0 00-1.53.852 3.894 3.894 0 00-1.01 1.354c-.24.535-.36 1.139-.36 1.813z" fill="#4078EC"/><path d="M90.695 10.624c.474.267.953.51 1.437.727.49.211.997.392 1.521.543.524.145 1.072.256 1.646.334.58.078 1.195.117 1.846.117.786 0 1.454-.05 2.006-.15.551-.106 1-.248 1.345-.427.351-.183.604-.4.76-.651a1.48 1.48 0 00.243-.819c0-.473-.198-.847-.594-1.12-.395-.278-1.005-.417-1.83-.417-.362 0-.743.025-1.144.075-.401.044-.808.095-1.22.15-.407.056-.81.109-1.211.159-.396.045-.77.067-1.12.067a6.262 6.262 0 01-1.688-.226 4.514 4.514 0 01-1.428-.677 3.36 3.36 0 01-.987-1.128c-.245-.45-.367-.977-.367-1.579 0-.356.047-.71.142-1.06.1-.352.256-.686.468-1.003.217-.323.495-.621.836-.894.34-.279.748-.518 1.228-.719a8.04 8.04 0 011.67-.468 12.028 12.028 0 012.165-.175c.584 0 1.172.033 1.763.1a16.818 16.818 0 013.342.693c.518.162 1 .343 1.445.544l-1.161 2.138a11.81 11.81 0 00-1.187-.442 13.19 13.19 0 00-1.328-.36c-.463-.1-.942-.178-1.437-.234-.49-.06-.992-.091-1.504-.091-.73 0-1.332.052-1.805.158-.468.106-.841.243-1.12.41-.278.161-.473.345-.584.551a1.28 1.28 0 00-.16.602c0 .39.176.71.527.96.351.246.886.368 1.605.368.289 0 .62-.02.994-.058l1.186-.142c.418-.05.841-.095 1.27-.134.434-.045.855-.067 1.262-.067.768 0 1.448.086 2.038.26.596.172 1.095.42 1.496.743.401.317.705.704.911 1.161.206.451.309.958.309 1.52 0 .753-.176 1.424-.527 2.014-.345.585-.84 1.081-1.487 1.488-.64.4-1.415.707-2.323.919-.908.206-1.918.309-3.032.309-.736 0-1.454-.048-2.156-.142a16.25 16.25 0 01-2.022-.385 16.52 16.52 0 01-1.838-.61c-.58-.239-1.117-.5-1.613-.785l1.412-2.147z" fill="#4078ED"/></g><defs><clipPath id="clip0_398_1383"><path fill="#fff" transform="translate(.89 .891)" d="M0 0h104.109v13.974H0z"/></clipPath></defs></svg>