<svg width="80" height="80" viewBox="0 0 80 80" fill="none" xmlns="http://www.w3.org/2000/svg">
<g clip-path="url(#clip0_449_923963)">
<path d="M77.7125 10.9367C76.5357 9.75781 74.6261 9.75578 73.4492 10.9317L37.2785 47.007L24.2282 32.8331C23.1005 31.6091 21.1939 31.5297 19.9678 32.6572C18.7427 33.7848 18.6643 35.6923 19.7919 36.9175L34.9678 53.3989C35.5236 54.003 36.3014 54.3537 37.1216 54.3708C37.1436 54.3717 37.1649 54.3717 37.186 54.3717C37.983 54.3717 38.7497 54.0552 39.3146 53.4923L77.7066 15.2009C78.8864 14.0252 78.8885 12.1156 77.7125 10.9367Z" fill="#2D2D2D"/>
<path d="M76.9848 36.9848C75.3195 36.9848 73.9698 38.3345 73.9698 40C73.9698 58.7317 58.7317 73.9698 40 73.9698C21.2694 73.9698 6.03016 58.7317 6.03016 40C6.03016 21.2694 21.2694 6.03016 40 6.03016C41.6653 6.03016 43.0152 4.68047 43.0152 3.01516C43.0152 1.34969 41.6653 0 40 0C17.9437 0 0 17.9437 0 40C0 62.0553 17.9437 80 40 80C62.0553 80 80 62.0553 80 40C80 38.3347 78.6503 36.9848 76.9848 36.9848Z" fill="#2D2D2D"/>
</g>
<defs>
<clipPath id="clip0_449_923963">
<rect width="80" height="80" fill="white"/>
</clipPath>
</defs>
</svg>
