<svg width="161" height="17" viewBox="0 0 161 17" fill="none" xmlns="http://www.w3.org/2000/svg">
<g id="Group">
<path id="Vector" d="M0.196381 0.633793C0.196381 0.84128 2.47875 2.50119 5.27985 4.36858C8.18468 6.13223 12.5419 9.76328 15.2393 12.2531L19.9078 16.9216L24.0575 12.7719C26.3399 10.4895 30.6972 6.96219 33.9132 4.8873C37.0256 2.81242 39.5154 0.84128 39.3079 0.737537C39.1005 0.530048 35.4694 1.46375 31.2159 2.91616C24.0575 5.40602 23.4351 5.40602 22.2939 3.74612C21.5677 2.81242 20.9452 1.46375 20.9452 0.945025C20.8415 0.322559 19.804 1.04877 18.5591 2.60493L16.2767 5.40602L8.49592 2.81242C0.300125 0.115072 0.196381 0.115072 0.196381 0.633793Z" fill="#E3E3E3"/>
<path id="Vector_2" d="M47.9193 8.62234V16.9219H52.5878H57.2563V8.62234V0.322802H52.5878H47.9193V8.62234Z" fill="#E3E3E3"/>
<path id="Vector_3" d="M62.4422 8.62234V16.9219H74.8915C88.897 16.9219 93.8767 15.5732 95.8478 11.3197C96.6778 9.2448 96.6778 7.99987 95.8478 5.92499C93.8767 1.67148 88.897 0.322802 74.8915 0.322802H62.4422V8.62234ZM85.3697 5.61376C87.9633 6.96243 87.8595 10.2822 85.3697 11.7347C84.2285 12.2534 80.7012 12.7721 77.5889 12.7721H71.7792V7.99987V3.1239L77.5889 3.8501C80.8049 4.16134 84.3322 4.99129 85.3697 5.61376Z" fill="#E3E3E3"/>
<path id="Vector_4" d="M101.866 2.39769C101.866 3.43513 102.592 4.7838 103.526 5.30252C104.875 6.02873 104.564 6.75494 101.451 9.86727C94.8116 16.5069 95.4341 16.9219 114.316 16.9219H130.915V12.2534C130.915 7.99987 130.707 7.5849 128.321 7.5849C126.661 7.5849 125.727 8.20736 125.727 9.14106C125.727 9.97101 125.52 10.6972 125.209 10.6972C124.068 10.6972 113.278 4.99129 113.278 4.36883C113.278 3.95385 115.975 3.74636 119.192 3.74636C124.068 3.8501 125.312 3.53887 125.52 2.08645C125.831 0.530291 124.586 0.322802 113.901 0.322802C102.696 0.322802 101.866 0.426546 101.866 2.39769ZM114.316 11.2159C116.909 12.6684 116.805 12.6684 112.344 12.7721C108.506 12.7721 107.987 12.5646 109.128 11.2159C110.685 9.34855 110.996 9.34855 114.316 11.2159Z" fill="#E3E3E3"/>
<path id="Vector_5" d="M129.461 2.08662C129.876 3.64278 130.914 3.85027 135.063 3.64278L140.147 3.22781L140.458 9.86744L140.769 16.4033H145.438H150.106L150.21 11.9423C150.521 2.81283 150.106 3.4353 155.812 3.95402C160.377 4.26525 160.999 4.1615 160.999 2.29411C160.999 0.426713 160.169 0.322969 145.023 0.322969C130.291 0.322969 129.046 0.426713 129.461 2.08662Z" fill="#E3E3E3"/>
</g>
</svg>
