<svg width="31" height="33" fill="none" xmlns="http://www.w3.org/2000/svg"><circle cx="16.68" cy="4.664" r="3.278" stroke="#000"/><path d="M16.791 8.22h-5.065a4 4 0 00-2.828 1.172l-3.76 3.758a1.947 1.947 0 000 2.75v0c.76.76 1.991.76 2.75 0l3.404-3.402m5.5-4.278l6.847 6.847c.698.698.698 1.83 0 2.528v0a1.787 1.787 0 01-2.528 0l-5.097-5.097m.777-4.278l-.777 4.278m-4.722 0h1.889m-1.89 0v5.277m4.723-5.277v3.12a4 4 0 001.171 2.829l1.824 1.823a4 4 0 011.171 2.83v3.954a1 1 0 01-1 1h-2.166a1 1 0 01-1-1v-2.899a4 4 0 00-1.172-2.828l-.8-.8m-2.75-2.75l-4.347 8.836a1 1 0 00.897 1.441h1.83a1 1 0 00.896-.554l3.474-6.974m-2.75-2.75l2.75 2.75" stroke="#000" stroke-linecap="round" stroke-linejoin="round"/><path stroke="#000" stroke-linecap="round" d="M24.014 17.387v10.444M.57 31.762h29.11M.57 28.237h29.11"/></svg>