<svg width="127" height="51" fill="none" xmlns="http://www.w3.org/2000/svg"><path d="M55.237 50.031c-2.166 0-4.062-.88-5.688-2.64-1.625-1.76-2.437-4.537-2.437-8.329 0-2.844.542-6.026 1.625-9.547 1.219-3.657 2.776-7.313 4.672-10.97 1.896-3.656 3.86-6.906 5.891-9.75-2.708 1.49-5.959 3.86-9.75 7.11-3.657 3.25-7.178 6.838-10.564 10.766-3.385 3.792-6.026 7.38-7.922 10.766-.677 1.219-1.828 2.099-3.453 2.64-1.49.407-2.1.34-1.828-.202.135-.136.677-1.287 1.625-3.454a361.816 361.816 0 003.25-7.11c1.083-2.437 1.76-4.062 2.031-4.875 1.084-2.708 1.828-4.943 2.235-6.703.541-1.896.812-3.318.812-4.266 0-1.49-.541-2.235-1.625-2.235-1.219 0-2.98.948-5.281 2.844-2.167 1.76-4.334 3.792-6.5 6.094-2.032 2.167-3.522 3.86-4.47 5.079-1.354 1.625-2.979 3.724-4.875 6.297a145.918 145.918 0 00-5.078 7.516c-1.49 2.573-2.506 4.875-3.047 6.907a19.7 19.7 0 01-.407 1.422l-.406.812c-.542.948-1.286.88-2.234-.203C.729 46.781.187 44.818.187 42.11c0-2.845.474-6.027 1.422-9.548 1.084-3.657 2.303-6.975 3.657-9.954a440.41 440.41 0 013.656-7.516c1.22-2.167 2.032-3.521 2.438-4.063 1.49-1.896 3.047-3.453 4.672-4.672 1.625-1.219 3.25-1.828 4.875-1.828.813 0 1.422.203 1.829.61.541.406.609.744.203 1.015-1.084.542-2.506 2.031-4.266 4.469-1.76 2.302-3.589 5.01-5.485 8.125-1.219 2.167-2.776 5.079-4.672 8.735-1.896 3.657-2.98 6.771-3.25 9.345 0 1.083.27 1.557.812 1.421a262.174 262.174 0 014.673-7.516 112.402 112.402 0 015.484-7.11c2.032-2.437 4.334-4.942 6.907-7.515 2.573-2.709 5.078-4.943 7.516-6.704 2.573-1.896 4.604-2.776 6.094-2.64 1.76.135 2.98.677 3.656 1.624.678.948 1.016 2.1 1.016 3.454 0 2.167-.474 4.401-1.422 6.703a177.72 177.72 0 01-2.438 5.688l-.812 2.031c2.031-2.708 4.537-5.552 7.516-8.531 2.98-2.98 6.026-5.62 9.141-7.923 3.115-2.437 5.823-4.062 8.126-4.875 1.354-.542 2.64-.812 3.86-.812 1.218 0 1.827.406 1.827 1.218 0 .271-.338.948-1.015 2.032a121.247 121.247 0 00-8.329 12.797c-2.438 4.334-4.063 9.21-4.875 14.626l-.407 2.438v2.031c0 2.167.34 4.063 1.016 5.688.677 1.49 1.896 2.234 3.657 2.234 2.573 0 5.214-1.15 7.922-3.453 2.709-2.438 5.417-5.485 8.125-9.141a575.796 575.796 0 007.923-11.376c.27-.406.474-.609.61-.609.405 0 .608.339.608 1.016 0 .812-.338 1.76-1.015 2.844a161.93 161.93 0 01-7.72 10.766c-2.708 3.656-5.62 6.703-8.734 9.14-3.115 2.438-6.365 3.657-9.75 3.657zm39.007-.406c-5.552 0-9.615-1.219-12.188-3.656-2.573-2.573-3.86-5.959-3.86-10.157 0-1.084.068-2.167.204-3.25l.812-3.657c.677-2.437 1.76-5.281 3.25-8.532 1.625-3.25 3.589-6.432 5.891-9.547s4.808-5.688 7.516-7.72c2.709-2.03 5.553-3.046 8.532-3.046 2.438 0 4.266.88 5.485 2.64 1.354 1.761 2.031 3.86 2.031 6.298 0 2.573-.813 5.214-2.438 7.922-1.489 2.573-3.521 4.672-6.094 6.297-2.979 2.032-6.365 3.047-10.157 3.047-2.437 0-4.672-.473-6.703-1.421-2.031 4.062-3.047 8.057-3.047 11.985 0 2.843.813 5.281 2.438 7.312 1.625 2.032 4.333 3.047 8.125 3.047 4.605 0 8.667-1.083 12.188-3.25C109.75 41.635 113 38.656 115.98 35a134.455 134.455 0 008.938-11.782c.406-.406.677-.609.812-.609.407 0 .61.339.61 1.016s-.203 1.354-.61 2.031c-2.437 3.792-5.214 7.516-8.328 11.172-2.98 3.657-6.365 6.704-10.157 9.142-3.792 2.437-8.126 3.656-13 3.656zm-3.047-26.204c3.521 0 6.84-1.22 9.954-3.657a17.395 17.395 0 003.859-3.86c1.084-1.49 1.829-2.979 2.235-4.469.406-1.49.609-2.776.609-3.86 0-3.114-1.151-4.671-3.453-4.671-1.49 0-3.182.88-5.078 2.64-1.625 1.49-3.318 3.386-5.079 5.688a77.894 77.894 0 00-4.266 6.704c-1.218 2.031-2.031 3.52-2.437 4.469.948.677 2.166 1.015 3.656 1.015z" fill="#FD9800"/></svg>