<svg width="26" height="26" fill="none" xmlns="http://www.w3.org/2000/svg"><g id="phone-receiver-silhouette 1"><g id="Group"><path id="Vector" d="M21.19 16.928c-1.259-1.075-2.535-1.727-3.777-.653l-.742.65c-.543.47-1.552 2.672-5.454-1.816-3.9-4.482-1.58-5.18-1.036-5.648l.746-.65c1.236-1.076.77-2.431-.122-3.826l-.537-.845c-.896-1.392-1.87-2.306-3.11-1.231l-.67.585c-.547.399-2.078 1.695-2.45 4.159-.446 2.956.964 6.34 4.193 10.055 3.226 3.715 6.384 5.581 9.376 5.549 2.486-.027 3.988-1.361 4.457-1.846l.672-.586c1.236-1.074.468-2.168-.79-3.246l-.757-.65z" fill="#828282"/></g></g></svg>