<svg width="22" height="23" fill="none" xmlns="http://www.w3.org/2000/svg"><path d="M19.643.94H2.357A2.358 2.358 0 000 3.296v17.285a2.358 2.358 0 002.357 2.357h17.286A2.358 2.358 0 0022 20.582V3.297A2.358 2.358 0 0019.643.939zM17.24 8.737c.01.137.01.28.01.417 0 4.258-3.24 9.164-9.163 9.164a9.121 9.121 0 01-4.945-1.444c.26.03.51.039.776.039 1.507 0 2.892-.51 3.997-1.375a3.225 3.225 0 01-3.01-2.234c.496.073.943.073 1.453-.06a3.221 3.221 0 01-2.578-3.162v-.04c.427.242.928.389 1.454.409A3.214 3.214 0 013.8 7.77c0-.599.157-1.149.437-1.625a9.145 9.145 0 006.64 3.369c-.457-2.186 1.178-3.958 3.142-3.958a3.21 3.21 0 012.352 1.016 6.312 6.312 0 002.043-.776A3.212 3.212 0 0117 7.569a6.408 6.408 0 001.856-.501 6.778 6.778 0 01-1.616 1.67z"/></svg>