<svg width="52" height="60" fill="none" xmlns="http://www.w3.org/2000/svg"><path d="M41.98 4.008l6.464 4.93c.551.42.976.982 1.229 1.622a.876.876 0 101.63-.642 5.54 5.54 0 00-1.796-2.372l-.882-.673.856-1.122a2.96 2.96 0 00-.558-4.143 2.937 2.937 0 00-2.187-.58 2.937 2.937 0 00-1.956 1.138l-.856 1.122-.882-.673a5.553 5.553 0 00-5.817-.563l-.216-.228A5.88 5.88 0 0032.762 0h-13.2a5.88 5.88 0 00-4.247 1.825l-.216.227a5.553 5.553 0 00-5.817.563l-.882.673-.855-1.123a2.96 2.96 0 00-4.143-.557 2.937 2.937 0 00-1.137 1.956c-.106.782.1 1.559.579 2.187L3.7 6.873l-.882.672A5.554 5.554 0 001.77 15.32l1.115 1.463c.237.31.58.51.966.561.382.052.77-.049 1.08-.286l5.787-4.413 1.263 1.657c-6.054 4.399-9.998 11.532-9.998 19.571 0 6.755 2.784 12.87 7.265 17.26l-1.527 4.432a3.339 3.339 0 001.543 4.015 3.337 3.337 0 004.221-.826l2.414-2.991a24.033 24.033 0 0010.262 2.29 24.13 24.13 0 0010.265-2.288l2.412 2.99a3.338 3.338 0 004.221.825 3.338 3.338 0 001.543-4.015l-1.524-4.423a24.326 24.326 0 004.403-5.87.876.876 0 10-1.544-.828C42.013 51.757 34.435 56.3 26.162 56.3c-12.366 0-22.427-10.06-22.427-22.426 0-12.367 10.06-22.427 22.427-22.427 12.366 0 22.427 10.06 22.427 22.427 0 2.416-.384 4.795-1.141 7.07a.876.876 0 001.662.553 24.086 24.086 0 001.231-7.623c0-8.04-3.945-15.173-9.999-19.572l1.264-1.656 5.786 4.412c.616.49 1.582.358 2.046-.275l1.115-1.463c.16-.21.306-.43.433-.658a.876.876 0 10-1.529-.855 3.902 3.902 0 01-.297.451l-.938 1.23-12.5-9.534.938-1.23a3.8 3.8 0 015.32-.716zm4.193-.78A1.206 1.206 0 0147.86 3c.527.402.63 1.16.227 1.687l-.856 1.123-1.915-1.461.856-1.122zm-3.227 52.908a1.59 1.59 0 01-.734 1.912 1.59 1.59 0 01-2.01-.394l-2.186-2.709a24.182 24.182 0 003.65-2.524l1.28 3.715zm-30.823 1.518a1.59 1.59 0 01-2.01.394 1.59 1.59 0 01-.735-1.912l1.283-3.722a24.285 24.285 0 003.65 2.528l-2.188 2.712zM4.237 4.69A1.196 1.196 0 014 3.798a1.206 1.206 0 012.151-.57l.855 1.122-1.914 1.46-.856-1.121zm-.135 10.8l-.938-1.23a3.8 3.8 0 01.716-5.32l6.465-4.931a3.775 3.775 0 012.297-.776c1.144 0 2.276.514 3.022 1.492l.939 1.23-12.5 9.534zm29.764-9.285c.052.387.251.73.561.966l5.786 4.413-1.327 1.74a24.021 24.021 0 00-11.848-3.61V7.605h3.042a.876.876 0 100-1.752h-7.836a.876.876 0 000 1.752h3.042v2.107a24.02 24.02 0 00-11.848 3.61l-1.327-1.74 5.786-4.413c.31-.236.51-.58.562-.966a1.45 1.45 0 00-.287-1.08l-1.115-1.462a5.559 5.559 0 00-.516-.585l.045-.046a4.121 4.121 0 012.976-1.28h13.2a4.12 4.12 0 012.977 1.28l.044.046a5.58 5.58 0 00-.516.585l-1.115 1.462a1.45 1.45 0 00-.286 1.08z" fill="#000"/><path d="M11.762 20.443a.876.876 0 00-1.235.098 20.55 20.55 0 00-4.922 13.333c0 11.336 9.223 20.558 20.559 20.558s20.558-9.222 20.558-20.558S37.5 13.315 26.164 13.315A20.347 20.347 0 0013.616 17.6a.876.876 0 001.07 1.386 18.61 18.61 0 0111.478-3.918c10.37 0 18.807 8.437 18.807 18.807S36.534 52.68 26.164 52.68 7.357 44.244 7.357 33.874c0-4.465 1.599-8.796 4.502-12.196a.876.876 0 00-.097-1.235z" fill="#000"/><path d="M26.16 19.232a.876.876 0 00-.875.876v9.673a4.197 4.197 0 00-3.216 3.217h-4.474a.876.876 0 000 1.751h4.474a4.192 4.192 0 004.092 3.31 4.19 4.19 0 004.185-4.185 4.192 4.192 0 00-3.31-4.093v-9.673a.876.876 0 00-.875-.876zm2.434 14.642a2.436 2.436 0 01-2.433 2.433 2.436 2.436 0 01-2.433-2.433 2.436 2.436 0 012.433-2.434 2.436 2.436 0 012.433 2.434z" fill="#000"/><path d="M20.83 27.49a.876.876 0 00-1.155.446 1.527 1.527 0 01-2.79 0 .876.876 0 10-1.603.71 3.28 3.28 0 002.997 1.951 3.28 3.28 0 002.997-1.952.876.876 0 00-.446-1.155zm13.215 3.107a3.28 3.28 0 002.997-1.951.876.876 0 00-1.602-.71 1.526 1.526 0 01-2.79 0 .876.876 0 00-1.602.71 3.28 3.28 0 002.997 1.951zm-17.071 6.465a.875.875 0 10-1.602.709 11.809 11.809 0 0010.79 7.027c4.664 0 8.899-2.758 10.789-7.027a.876.876 0 00-1.602-.71 10.056 10.056 0 01-9.188 5.985 10.055 10.055 0 01-9.187-5.984z" fill="#000"/></svg>