<svg width="54" height="52" fill="none" xmlns="http://www.w3.org/2000/svg"><g clip-path="url(#clip0_2640_24771)" fill="#DEDEDE"><path d="M5.549 27.868c.912-3.051 5.87-3.668 7.144-.554.738 1.8.243 3.948-1.577 4.936-1.477.802-3.653.558-4.72-.81a4.157 4.157 0 01-.606-1.116c-.358-.748-.495-1.598-.241-2.456zm13.153 9.014c1.684-.76 3.552-.746 5.132.272 1.789 1.15 2.674 3.09 3.319 5.03.286.851.06 1.746-.44 2.47-.24 1.099-.804 2.122-1.694 2.796-3.286 2.488-9.07 1.002-9.91-3.287-.538-2.761.95-6.093 3.591-7.284l.002.003zM31.471 4.469c8.351-.41 12.78 6.753 11.803 13.57a13.591 13.591 0 01-1.345 4.838c-2.833 5.718-9.428 7.762-15.094 5.224-5.204-2.334-8.26-7.89-7.557-13.537.79-6.377 6.126-9.799 12.193-10.095z"/></g><defs><clipPath id="clip0_2640_24771"><path fill="#fff" transform="scale(-1 1) rotate(28.496 -18.205 -71.694)" d="M0 0h41.43v36.331H0z"/></clipPath></defs></svg>