<svg width="70" height="65" viewBox="0 0 70 65" fill="none" xmlns="http://www.w3.org/2000/svg">
<g clip-path="url(#clip0_6159_19490)">
<path d="M34.3423 28.2513C33.3999 26.5593 32.4468 24.9746 31.6178 23.3255C29.995 20.0917 28.9474 16.6542 28.5909 13.0664C28.3155 10.3046 29.2147 7.75454 30.9077 5.56919C34.1506 1.39155 38.4627 -0.171719 43.6471 0.911572C48.3642 1.89833 52.0257 5.88292 52.9086 10.7068C53.2948 12.8171 52.7952 14.8281 52.3146 16.8392C51.3695 20.7755 49.7251 24.4115 47.4354 27.7606C47.349 27.8866 47.2734 28.0207 47.1438 28.2298C48.5776 28.6186 49.9492 29.0986 51.3614 29.3399C52.8303 29.592 53.5756 30.375 54.1966 31.6888C59.0947 42.015 64.0738 52.3009 69.0286 62.6002C69.1528 62.8603 69.304 63.1231 69.3526 63.4019C69.4957 64.2064 68.7343 64.7668 67.8378 64.5174C65.81 63.9543 63.7876 63.3724 61.7652 62.7986C56.724 61.3694 51.6881 59.9322 46.6415 58.5218C46.2608 58.4145 45.7964 58.4172 45.4157 58.5218C38.4357 60.4792 31.4639 62.4688 24.4813 64.4236C24.0142 64.5549 23.4471 64.5576 22.98 64.4262C15.8219 62.4205 8.67453 60.388 1.5245 58.3555C0.331025 58.0177 0.0907101 57.4626 0.668545 56.3766C5.80156 46.7343 10.9373 37.0946 16.073 27.4549C16.5509 26.5566 16.8236 26.436 17.7984 26.6961C21.368 27.6453 24.9322 28.6052 28.5072 29.541C28.8124 29.6215 29.1742 29.6161 29.482 29.5384C31.1048 29.1308 32.7195 28.6857 34.3423 28.254V28.2513ZM27.7674 31.6004C27.6216 31.5414 27.5433 31.4985 27.4596 31.477C24.3679 30.6458 21.2762 29.8253 18.1899 28.9726C17.7282 28.8439 17.6175 29.0772 17.4501 29.3882C12.7302 38.2664 8.00489 47.1392 3.2823 56.0146C3.1932 56.1809 3.12569 56.3579 3.02849 56.5804C9.66279 58.4601 16.2323 60.3237 22.8477 62.198C24.4921 51.9603 26.1257 41.8085 27.7647 31.6004H27.7674ZM37.1532 32.2573C36.74 31.654 36.3161 31.1043 35.9705 30.5063C35.7518 30.1256 35.5007 30.1149 35.1442 30.2141C33.57 30.6511 31.9959 31.0882 30.4136 31.4931C30.0571 31.5843 29.9059 31.7157 29.8465 32.0911C29.2444 35.9174 28.6179 39.7385 27.9996 43.5621C27.2058 48.4852 26.4146 53.4083 25.6262 58.3314C25.4291 59.5514 25.2427 60.7741 25.0375 62.08C31.6691 60.1976 38.2035 58.3421 44.7919 56.4705C43.8631 51.2149 42.945 46.0317 42.0351 40.8861C41.2952 40.8861 40.6445 40.9156 39.9991 40.8807C37.758 40.7574 35.6546 40.2211 33.8995 38.741C32.4792 37.5451 32.1498 35.9791 33.1218 34.743C33.5376 34.2121 34.1047 33.7562 34.6879 33.4103C35.4494 32.9598 36.2972 32.6488 37.1559 32.2573H37.1532ZM66.2717 61.8628C66.1853 61.6429 66.1448 61.5223 66.0908 61.407C61.3898 51.6332 56.6916 41.8621 51.9771 32.0964C51.8772 31.8873 51.645 31.6594 51.4289 31.5977C49.7305 31.1097 48.024 30.6511 46.3094 30.2168C46.1285 30.1712 45.8099 30.2757 45.6992 30.4205C45.2537 31.0024 44.8621 31.6245 44.4247 32.2761C44.6488 32.3485 44.8459 32.3833 45.016 32.4691C45.9314 32.9223 46.9359 33.2655 47.7324 33.8742C49.4254 35.1666 49.5172 37.2528 47.9349 38.6659C47.2086 39.3175 46.2446 39.7197 45.3617 40.1809C44.9998 40.3713 44.5624 40.4222 44.1601 40.5375C44.1736 40.7252 44.1682 40.8593 44.1925 40.988C45.0728 45.9137 45.9692 50.8395 46.8198 55.7706C46.9089 56.2935 47.1357 56.4517 47.592 56.5804C52.5684 57.9801 57.5394 59.4013 62.5104 60.8117C63.7309 61.1576 64.9541 61.4954 66.2663 61.8601L66.2717 61.8628ZM40.7714 33.6168C41.3222 32.874 41.8083 32.2412 42.2727 31.5923C45.1646 27.5327 47.8323 23.3389 49.6306 18.6706C50.5487 16.2868 51.2075 13.8467 50.8025 11.2431C50.1167 6.82409 46.5362 3.31144 42.1377 2.76711C37.5879 2.20401 33.2703 4.66555 31.4774 8.81906C30.2758 11.6024 30.5486 14.3857 31.4423 17.1663C32.8167 21.4485 35.074 25.2856 37.5474 29.0074C38.5681 30.5412 39.6589 32.0294 40.7741 33.6168H40.7714ZM40.8146 38.9233C40.8281 38.867 40.8443 38.8107 40.8578 38.7544C41.4383 38.7061 42.0243 38.6847 42.6021 38.6015C43.8685 38.4192 45.1376 38.202 46.2095 37.4378C47.1627 36.7594 47.1816 35.8692 46.1636 35.3168C45.3131 34.8583 44.3464 34.6009 43.4121 34.3086C43.2366 34.255 42.9207 34.3971 42.7749 34.5472C42.3591 34.9816 42.027 35.4965 41.6057 35.9228C41.009 36.5261 40.5284 36.5208 39.9343 35.9013C39.5347 35.483 39.2242 34.9816 38.8273 34.5606C38.6842 34.4078 38.3844 34.271 38.1954 34.3113C37.5636 34.448 36.9345 34.625 36.3377 34.8663C35.6303 35.1506 34.8094 35.475 34.8094 36.3679C34.8094 37.2501 35.6033 37.6738 36.3242 37.8776C37.7985 38.2985 39.316 38.5828 40.8146 38.9233Z" fill="#EC008C"/>
<path d="M40.7876 18.9736C37.3746 18.9736 34.6124 16.2493 34.6043 12.8761C34.5962 9.46802 37.3692 6.73298 40.82 6.74639C44.2466 6.75979 46.9899 9.52165 46.9791 12.9458C46.9683 16.2547 44.1736 18.9763 40.7876 18.9736ZM40.7876 16.673C42.9883 16.673 44.846 14.8791 44.8352 12.7662C44.8244 10.6398 42.9721 8.84862 40.7903 8.84862C38.5843 8.84862 36.7482 10.6291 36.7536 12.7581C36.759 14.8925 38.5924 16.6703 40.7876 16.673Z" fill="#EC008C"/>
</g>
<defs>
<clipPath id="clip0_6159_19490">
<rect width="69" height="64" fill="white" transform="translate(0.368896 0.579102)"/>
</clipPath>
</defs>
</svg>
