<svg width="25" height="28" fill="none" xmlns="http://www.w3.org/2000/svg"><circle cx="12.5" cy="15.5" r="12" fill="#fff" stroke="#A8D0FB"/><path d="M9.729 10.255c.186-.174.39-.339.612-.495a4.41 4.41 0 011.602-.693 4.477 4.477 0 011.008-.108c.474 0 .912.069 1.314.207.408.138.759.333 1.053.585.294.252.525.558.693.918.168.36.252.765.252 1.215 0 .456-.069.849-.207 1.179a3.22 3.22 0 01-.513.873 4.046 4.046 0 01-.675.648l-.684.513a4.63 4.63 0 00-.558.486.952.952 0 00-.261.54l-.162 1.377h-1.098l-.108-1.494c-.024-.27.027-.504.153-.702.126-.204.291-.393.495-.567a6.9 6.9 0 01.675-.522c.246-.174.474-.366.684-.576a2.97 2.97 0 00.54-.711c.144-.27.216-.591.216-.963a1.57 1.57 0 00-.567-1.233 1.782 1.782 0 00-.621-.342 2.376 2.376 0 00-.756-.117 2.94 2.94 0 00-.945.135c-.258.09-.477.189-.657.297-.18.108-.327.207-.441.297-.108.09-.198.135-.27.135a.392.392 0 01-.351-.207l-.423-.675zm1.755 10.755a1.2 1.2 0 01.081-.441c.06-.138.138-.258.234-.36.102-.102.222-.183.36-.243.138-.06.285-.09.441-.09.156 0 .303.03.441.09a1.154 1.154 0 01.603.603c.06.138.09.285.09.441 0 .162-.03.312-.09.45-.06.132-.141.249-.243.351-.102.102-.222.18-.36.234-.138.06-.285.09-.441.09-.156 0-.303-.03-.441-.09a1.038 1.038 0 01-.36-.234 1.282 1.282 0 01-.234-.351 1.224 1.224 0 01-.081-.45z"/></svg>