<svg width="300" height="295" fill="none" xmlns="http://www.w3.org/2000/svg"><g clip-path="url(#clip0_214_904)" fill="#fff"><path d="M126.353 141.926L150 165.601l-23.647 23.657-70.941-70.99 23.647-23.657 23.647 23.657 23.647-23.657L150 118.268l-23.647 23.658zm118.235-23.658l-70.941 70.99L150 165.601l23.647-23.675L150 118.268l23.647-23.657 23.629 23.657 23.665-23.657 23.647 23.657zm0-47.314L220.941 94.61l-23.665-23.657-23.629 23.657L150 70.954l23.647-23.64L150 23.658 173.647 0l70.941 70.954zM126.353 47.315L150 70.954 126.353 94.61l-23.647-23.657L79.059 94.61 55.412 70.954 126.353 0 150 23.657l-23.647 23.658zM29.554 229.304c-1.177-1.578-2.627-2.756-4.349-3.554a12.943 12.943 0 00-5.4-1.178c-2.156 0-4.149.435-5.961 1.323-1.812.889-3.388 2.067-4.711 3.554a16.104 16.104 0 00-3.08 5.166c-.744 1.958-1.106 4.006-1.106 6.146 0 2.284.362 4.405 1.105 6.363.725 1.957 1.758 3.661 3.063 5.112 1.304 1.45 2.863 2.592 4.675 3.444 1.812.852 3.823 1.269 6.034 1.269 2.392 0 4.512-.471 6.378-1.396 1.866-.943 3.497-2.284 4.892-4.042l3.462 2.918c-1.758 2.357-3.878 4.079-6.36 5.185-2.483 1.106-5.274 1.65-8.39 1.65-2.791 0-5.4-.508-7.81-1.541-2.428-1.034-4.53-2.448-6.306-4.26-1.776-1.813-3.171-3.971-4.186-6.472-1.015-2.502-1.522-5.221-1.522-8.194 0-2.973.49-5.547 1.45-8.031.978-2.502 2.337-4.659 4.095-6.49 1.757-1.831 3.86-3.281 6.27-4.351 2.428-1.069 5.073-1.595 7.972-1.595 2.646 0 5.183.471 7.629 1.432 2.446.961 4.476 2.52 6.143 4.677l-4.023 2.919.036-.054zm33.668 31.923c-2.972 0-5.69-.507-8.172-1.541-2.483-1.033-4.621-2.447-6.433-4.26-1.812-1.813-3.225-3.988-4.24-6.49-1.015-2.52-1.522-5.239-1.522-8.176 0-2.936.507-5.656 1.522-8.175 1.014-2.52 2.428-4.677 4.24-6.49 1.812-1.813 3.968-3.245 6.433-4.26 2.482-1.034 5.2-1.541 8.172-1.541 2.972 0 5.69.507 8.172 1.541 2.483 1.033 4.62 2.447 6.433 4.26 1.812 1.813 3.225 3.988 4.24 6.49 1.015 2.519 1.522 5.239 1.522 8.175 0 2.937-.507 5.656-1.522 8.176-1.015 2.52-2.428 4.677-4.24 6.49-1.812 1.813-3.968 3.245-6.433 4.26-2.482 1.034-5.2 1.541-8.172 1.541zm0-4.296c2.283 0 4.349-.417 6.251-1.269 1.885-.852 3.516-1.994 4.875-3.463 1.359-1.468 2.41-3.19 3.17-5.148.744-1.958 1.124-4.061 1.124-6.309s-.38-4.332-1.123-6.308c-.761-1.958-1.812-3.68-3.171-5.149a14.662 14.662 0 00-4.875-3.462c-1.884-.852-3.968-1.269-6.251-1.269-2.283 0-4.349.417-6.252 1.269-1.884.852-3.515 1.994-4.874 3.462-1.359 1.469-2.41 3.191-3.171 5.149-.761 1.958-1.123 4.06-1.123 6.308s.38 4.333 1.123 6.309a15.738 15.738 0 003.171 5.148 14.47 14.47 0 004.874 3.463c1.885.852 3.969 1.269 6.252 1.269zm31.928-35.677h6.886l13.209 30.546h.109l13.319-30.546h6.704v38.976h-4.621v-32.703h-.108l-13.971 32.703h-2.809l-13.97-32.703h-.11v32.703h-4.62v-38.976h-.018zm54.035 0h11.56c1.794 0 3.516.182 5.147.526 1.63.345 3.08.943 4.348 1.759a8.968 8.968 0 013.026 3.299c.743 1.378 1.124 3.082 1.124 5.094 0 2.121-.399 3.897-1.214 5.293-.816 1.396-1.848 2.502-3.117 3.3a12.495 12.495 0 01-4.149 1.704c-1.504.326-2.936.489-4.295.489h-7.81v17.512h-4.62v-38.976zm4.62 17.186h7.81c2.32 0 4.186-.526 5.636-1.577 1.449-1.052 2.174-2.665 2.174-4.877 0-2.211-.725-3.825-2.174-4.876-1.45-1.052-3.335-1.559-5.636-1.559h-7.81v12.889zm40.717-17.186h4.348l16.562 38.976h-5.399l-3.969-9.572h-19.479l-4.023 9.572h-5.237l17.178-38.976h.019zm2.083 5.946h-.108l-8.082 19.162h15.91l-7.701-19.162h-.019zm28.123-5.946h5.835l22.56 32.377h.109v-32.377h4.62v38.976h-5.835l-22.559-32.377h-.109v32.377h-4.621v-38.976zm56.137 22.189l-14.532-22.189h5.889l10.944 17.621 11.289-17.621h5.563l-14.532 22.189v16.787h-4.621v-16.787zM95.259 279.12a4.536 4.536 0 00-1.522-1.342c-.617-.344-1.378-.507-2.266-.507-.453 0-.906.072-1.377.199a3.633 3.633 0 00-1.268.634c-.38.29-.689.653-.924 1.07-.236.435-.345.943-.345 1.541s.11 1.069.345 1.45c.217.381.525.707.888.979.362.272.797.489 1.268.671.471.181.978.344 1.486.526a40.56 40.56 0 011.92.67 6.674 6.674 0 011.74.943c.526.381.943.888 1.269 1.486.326.599.489 1.36.489 2.266 0 .907-.181 1.704-.526 2.375a4.85 4.85 0 01-1.359 1.65 5.484 5.484 0 01-1.92.961 8.195 8.195 0 01-2.175.308 8.72 8.72 0 01-1.667-.163 7.282 7.282 0 01-1.576-.508 6.089 6.089 0 01-1.396-.852 5.947 5.947 0 01-1.141-1.196l1.612-1.197c.4.653.96 1.215 1.668 1.65.724.435 1.558.671 2.536.671.472 0 .943-.073 1.432-.218.49-.145.924-.381 1.305-.671.38-.308.706-.67.96-1.124.254-.435.38-.96.38-1.541 0-.634-.126-1.178-.38-1.595a3.495 3.495 0 00-.997-1.069 5.544 5.544 0 00-1.431-.707c-.544-.182-1.106-.381-1.685-.58a17.976 17.976 0 01-1.794-.653 5.969 5.969 0 01-1.577-.943 4.228 4.228 0 01-1.123-1.45c-.29-.58-.435-1.269-.435-2.103 0-.888.181-1.65.525-2.284a4.866 4.866 0 011.396-1.577 5.602 5.602 0 011.902-.907 7.364 7.364 0 012.048-.29c1.25 0 2.301.218 3.19.653.887.435 1.54.961 1.992 1.577l-1.486 1.197h.019zm12.792 13.759h8.571v1.668h-10.437v-18.382h1.866v16.732-.018zm33.94-7.541c0 1.395-.236 2.683-.725 3.861a9.303 9.303 0 01-2.011 3.045 9.307 9.307 0 01-3.045 2.013c-1.159.489-2.428.725-3.805.725-1.377 0-2.627-.236-3.805-.725a9.697 9.697 0 01-3.044-2.013 9.305 9.305 0 01-2.012-3.045c-.489-1.178-.724-2.466-.724-3.861 0-1.396.235-2.683.724-3.862a9.305 9.305 0 012.012-3.045 9.293 9.293 0 013.044-2.013c1.16-.489 2.428-.725 3.805-.725 1.377 0 2.628.236 3.805.725a9.701 9.701 0 013.045 2.013 9.303 9.303 0 012.011 3.045c.489 1.179.725 2.466.725 3.862zm-1.975 0a9.13 9.13 0 00-.526-3.064 7.85 7.85 0 00-1.504-2.556 7.065 7.065 0 00-2.392-1.759c-.942-.435-2.011-.652-3.171-.652-1.159 0-2.228.217-3.171.652a7.085 7.085 0 00-2.392 1.759 7.885 7.885 0 00-1.504 2.556 9.077 9.077 0 00-.525 3.064c0 1.069.181 2.084.525 3.063a7.618 7.618 0 001.504 2.538 7.284 7.284 0 002.392 1.74c.943.436 1.994.653 3.171.653 1.178 0 2.229-.217 3.171-.653a7.263 7.263 0 002.392-1.74 7.585 7.585 0 001.504-2.538 9.052 9.052 0 00.526-3.063zm25.006-5.856a6.796 6.796 0 00-2.283-1.577c-.888-.381-1.903-.562-3.045-.562-1.141 0-2.228.218-3.171.653-.942.435-1.739 1.015-2.392 1.758a8.264 8.264 0 00-1.522 2.556c-.362.961-.525 1.994-.525 3.064 0 1.069.181 2.085.525 3.064.363.96.852 1.812 1.522 2.538a7.284 7.284 0 002.392 1.74c.943.435 2.012.652 3.171.652 1.033 0 1.994-.108 2.863-.344.87-.218 1.559-.508 2.102-.852v-5.583h-4.276v-1.668h6.143v8.302c-.997.617-2.084 1.052-3.244 1.36a14.77 14.77 0 01-3.606.435c-1.377 0-2.663-.236-3.841-.725a9.29 9.29 0 01-3.045-2.012c-.851-.852-1.503-1.867-1.993-3.046-.471-1.178-.706-2.465-.706-3.861 0-1.396.235-2.683.724-3.861a9.299 9.299 0 012.012-3.046 9.274 9.274 0 013.044-2.012c1.16-.49 2.428-.725 3.805-.725 1.468 0 2.755.217 3.842.652a8.291 8.291 0 012.808 1.831l-1.304 1.306v-.037zm11.343 15.046h-2.048l7.937-18.382h1.812l7.882 18.382h-2.083l-2.03-4.822h-9.495l-1.993 4.822h.018zm2.7-6.544h8.1l-4.041-9.771-4.041 9.771h-.018zm33.813 3.825h.054v-15.663h1.866v18.382h-2.337l-10.691-15.807h-.054v15.807h-1.867v-18.382h2.338l10.691 15.663z"/></g><defs><clipPath id="clip0_214_904"><path fill="#fff" d="M0 0h300v295H0z"/></clipPath></defs></svg>