<svg width="125" height="136" viewBox="0 0 125 136" fill="none" xmlns="http://www.w3.org/2000/svg">
<g clip-path="url(#clip0_2640_24922)">
<path d="M24.1749 62.2516C21.8038 51.1339 19.8258 39.9366 17.348 28.8379C17.2197 28.2602 17.4531 27.794 17.8455 27.4791C18.0813 27.2378 18.4089 27.0678 18.8386 27.026C28.8566 26.0708 38.9394 25.4822 48.9911 25.2682C56.1028 25.1171 63.2201 25.2804 70.2994 25.9153C73.4981 26.2011 73.6681 27.3306 75.135 29.8879C88.6544 53.4484 101.988 77.1405 114.814 101.087C115.692 102.724 113.586 103.891 112.261 103.494C92.6681 97.6381 73.0766 91.7842 53.4851 85.9302C45.3429 83.4957 37.205 81.046 29.066 78.6031C25.8586 77.6406 24.8389 65.3754 24.172 62.2476L24.1749 62.2516ZM30.4757 74.6171C34.7401 71.9379 40.9488 69.8714 44.3928 66.3196C44.4529 66.2577 44.5144 66.1978 44.5745 66.1358C36.3205 56.3157 28.7956 45.1709 21.9523 34.2766C23.689 42.0685 25.2986 49.8852 26.891 57.7081C27.4904 60.6489 28.4874 71.3871 30.4751 74.6206L30.4757 74.6171ZM47.0164 63.6469C49.3586 61.2548 51.7071 58.8672 54.0527 56.4756C56.4151 54.0688 58.7796 51.6605 61.1399 49.2552C49.5869 43.9752 37.7832 39.2014 26.2155 33.9565C33.5537 43.5183 39.9046 53.9119 47.0149 63.6449L47.0164 63.6469ZM64.5294 51.0444C62.3328 53.2667 60.1397 55.4896 57.9432 57.7119C55.0658 60.6266 52.1869 63.5393 49.3115 66.4526C59.4476 72.6703 70.3917 77.8556 80.9027 83.3975C89.0567 87.6977 97.199 92.429 105.557 96.5204C91.5714 81.683 79.5699 64.7345 64.5329 51.0449L64.5294 51.0444ZM47.2035 28.8818C40.0493 28.9658 32.8901 29.2432 25.7499 29.7642C38.5178 34.6969 51.537 40.0234 63.4684 46.5544C66.4872 42.0152 68.159 34.2406 69.7019 29.2026C67.7846 29.241 62.3328 29.0839 61.6707 29.0521C56.856 28.8071 52.0243 28.8284 47.205 28.8838L47.2035 28.8818ZM73.494 34.654C73.0601 33.8933 72.6304 33.1297 72.1966 32.369C71.5764 34.368 70.9394 36.3609 70.2641 38.3478C69.3761 40.9573 68.3246 45.6976 66.6298 48.5487C80.7747 60.7469 92.2346 76.0786 104.615 90.2261C94.4338 71.5972 83.9866 53.1122 73.4934 34.6575L73.494 34.654ZM57.7326 83.3214C69.2327 86.7471 80.7327 90.1727 92.2313 93.5964C87.9409 91.2839 83.6869 88.9236 79.4399 86.6838C68.5664 80.9483 57.1973 75.5472 46.9132 68.7843C43.2407 72.076 38.4139 74.0172 33.9731 76.2698C41.8942 78.6164 49.8153 80.9629 57.7346 83.3199L57.7326 83.3214Z" fill="white"/>
<path d="M38.0629 85.4058C56.8549 91.7074 75.9319 97.1623 95.4071 101.015C95.5055 101.036 95.483 101.184 95.3821 101.168C85.8714 99.7891 76.5322 97.3644 67.2728 94.8666C57.3964 92.2033 47.4887 89.3604 37.9809 85.5908C37.8567 85.543 37.9417 85.362 38.0629 85.4058Z" fill="white"/>
<path d="M32.9578 83.4198C34.1505 83.7445 35.4403 83.9774 36.4403 84.7266C36.5022 84.7737 36.4491 84.8581 36.3838 84.8533C35.1284 84.7916 33.88 84.3602 32.882 83.5881C32.8108 83.5325 32.862 83.3942 32.9578 83.4198Z" fill="white"/>
<path d="M69.881 22.2614C61.9712 21.8054 54.1723 21.4683 46.2443 21.9077C39.6344 22.2742 33.0543 23.1336 26.4321 23.3129C26.2635 23.3187 26.2375 23.0741 26.407 23.0523C40.5181 21.1929 55.858 19.1843 69.9023 22.1203C69.9937 22.1399 69.9711 22.2665 69.8789 22.2628L69.881 22.2614Z" fill="white"/>
<path d="M85.332 41.1594C91.3684 49.8023 96.4082 59.1489 101.429 68.4053C105.723 76.3226 109.928 84.3045 113.663 92.5052C113.713 92.6128 113.547 92.6689 113.493 92.5697C104.324 75.3119 95.3748 57.9528 85.1862 41.265C85.1274 41.1668 85.2656 41.0636 85.332 41.1594Z" fill="white"/>
<path d="M20.8426 60.8398C18.9255 54.2904 16.6415 47.192 16.1466 40.3472C16.142 40.2556 16.2825 40.215 16.31 40.3084C18.1321 46.9696 20.0105 53.9514 21.019 60.7978C21.0329 60.8979 20.873 60.9372 20.8446 60.8383L20.8426 60.8398Z" fill="white"/>
<path d="M22.4104 66.9594C21.5956 65.8432 21.1726 64.0998 21.1972 62.7185C21.2005 62.5568 21.4256 62.4795 21.487 62.6495C21.9784 63.9971 22.3072 65.4869 22.5854 66.8939C22.6034 66.9912 22.4643 67.0337 22.4104 66.9594Z" fill="white"/>
</g>
<defs>
<clipPath id="clip0_2640_24922">
<rect width="67.9283" height="117.852" fill="white" transform="matrix(-0.809799 0.586707 0.586707 0.809799 55.5898 0.109375)"/>
</clipPath>
</defs>
</svg>
