<svg width="162" height="134" viewBox="0 0 162 134" fill="none" xmlns="http://www.w3.org/2000/svg">
<g clip-path="url(#clip0_2644_25153)">
<path d="M15.5774 99.4804C21.8161 109.29 30.5369 117.82 38.1221 126.641C39.4104 128.142 44.6793 125.08 44.2361 123.283C40.9545 109.829 37.6153 96.4076 34.2391 82.9885C32.1867 84.1159 30.1487 85.235 28.0963 86.3624C38.534 96.8365 46.3106 109.077 53.9795 121.63C55.1109 123.49 60.3402 119.895 60.2373 118.189C58.854 95.5038 57.4912 72.7872 55.5603 50.1492C55.3775 48.1058 49.7389 50.9584 49.8242 52.8661C50.8125 75.6646 52.3425 98.4382 53.8724 121.212C55.9536 120.068 58.0491 118.916 60.1303 117.772C52.3834 105.283 44.4835 93.0946 34.132 82.5706C32.7762 81.1853 27.5332 84.0589 27.9892 85.9445C31.2853 99.3907 34.6244 112.812 38.015 126.223C40.053 125.104 42.0911 123.985 44.1291 122.866C36.41 114.045 29.1146 104.232 20.2516 96.5515C19.0581 95.5138 14.6559 98.0171 15.5774 99.4804Z" fill="white"/>
<path d="M67.7461 65.9076C67.5209 75.2472 70.0267 96.191 81.8604 98.3573C91.1667 100.064 94.3483 91.2625 94.2678 83.8838C94.1796 74.8979 92.2646 56.4717 79.7381 57.6218C72.6348 58.2694 64.221 66.1777 68.9476 73.3682C69.9561 74.9157 74.4034 71.9259 74.2769 70.4448C73.8247 65.0459 78.8587 59.8179 83.3083 65.4992C84.8398 67.4545 85.5863 70.2085 86.2915 72.5258C87.723 77.2634 89.892 85.47 88.4075 90.3371C85.4482 99.9888 78.0733 86.883 76.404 83.2612C73.5819 77.1776 72.2488 70.6181 71.9142 63.9617C71.8391 62.4701 67.7851 64.5804 67.7484 65.9447L67.7461 65.9076Z" fill="white"/>
<path d="M81.0621 37.6339C89.3519 51.2284 99.3052 63.7857 107.64 77.3924C108.755 79.2238 114.164 75.6407 113.569 73.6815C109.468 59.8368 105.169 46.0486 101.054 32.2122C99.0965 33.4381 97.1394 34.664 95.1822 35.8899C104.758 49.2215 114.334 62.5532 123.918 75.8992C125.121 77.5839 130.603 74.2272 130.19 72.4506C124.666 48.2037 125.184 25.9554 126.224 1.39078C126.307 -0.690762 120.834 2.31561 120.515 3.68929C115.004 26.9206 118.433 52.5506 123.811 75.4813C125.907 74.3291 128.002 73.1768 130.083 72.0328C120.407 58.7592 110.73 45.4857 101.054 32.2122C99.7724 30.4577 94.5962 33.9451 95.1822 35.8899C99.4007 49.7053 103.422 63.5771 107.64 77.3924C109.612 76.1582 111.598 74.9157 113.569 73.6815C105.194 60.2707 96.0948 46.7022 85.9089 34.6053C84.8027 33.287 80.1633 36.1766 81.0621 37.6339Z" fill="white"/>
</g>
<defs>
<clipPath id="clip0_2644_25153">
<rect width="145" height="71" fill="white" transform="translate(0 72.5) rotate(-30)"/>
</clipPath>
</defs>
</svg>
