<svg width="126" height="54" fill="none" xmlns="http://www.w3.org/2000/svg"><g id="Group" fill="#E3E3E3"><path id="Vector" fill-rule="evenodd" clip-rule="evenodd" d="M5.343 5.846H.6v23.948h13.92v-4.556H5.346c-.002-6.476-.002-12.917-.002-19.392z"/><path id="Vector_2" fill-rule="evenodd" clip-rule="evenodd" d="M100.668 29.76h4.435V5.365c0-.205 0-.376.034-.584h-4.469V29.76z"/><path id="Vector_3" d="M54.608 13.247v-.55h-4.333v1.988c-.102-.069-.136-.069-.17-.103-2.013-2.33-4.572-2.81-7.404-2.124-3.857.925-6.415 4.283-6.483 8.36-.102 5.242 4.095 9.25 9.315 8.873 1.742-.136 3.242-.857 4.402-2.158.102-.103.102-.274.17-.41l.17.17c0 .687.034 1.336 0 2.022-.068 1.37-.615 2.535-1.843 3.255-2.32 1.336-5.561.584-7.027-1.61-.034-.033-.068-.102-.136-.17-1.228.72-2.456 1.404-3.752 2.124.717 1.302 1.639 2.261 2.9 2.913 2.559 1.37 5.255 1.575 8.051.891 2.082-.478 3.786-1.54 4.982-3.357.922-1.438 1.228-3.015 1.228-4.693-.07-5.076-.07-10.247-.07-15.421zm-9.21 12.4c-2.765 0-4.776-1.987-4.776-4.692s2.047-4.659 4.81-4.659c2.762 0 4.809 1.988 4.843 4.659 0 2.74-2.045 4.693-4.878 4.693z"/><path id="Vector_4" d="M85.384 13.144c-.65.376-1.194.891-1.81 1.404V5.88h-4.4v23.914h4.4v-1.817c.65.479 1.195 1.028 1.844 1.404 2.866 1.643 6.754 1.097 9.21-1.233 3.684-3.46 3.925-9.525.511-13.258-2.524-2.774-6.687-3.528-9.755-1.746zm2.932 12.917c-2.799 0-4.741-1.988-4.741-4.796 0-2.808 1.945-4.83 4.741-4.83 2.765 0 4.776 1.988 4.81 4.796.002 2.808-1.977 4.83-4.81 4.83z"/><path id="Vector_5" d="M24.823 12.219c-5.084 0-9.074 3.94-9.108 9.01 0 5.07 3.992 9.044 9.04 9.078 5.119 0 9.143-3.975 9.143-9.044.036-5.07-3.99-9.044-9.075-9.044zm.137 13.74c-2.765.067-4.742-1.852-4.81-4.66-.068-2.67 1.877-4.727 4.571-4.795 2.66-.069 4.708 1.92 4.776 4.659.07 2.67-1.909 4.724-4.537 4.795z"/><path id="Vector_6" d="M66.858 12.219c-5.085-.035-9.109 3.94-9.109 9.01 0 5.068 3.959 9.078 9.04 9.078 5.119 0 9.143-3.976 9.143-9.044.034-5.07-3.958-9.044-9.074-9.044zm-.034 13.739c-2.66 0-4.64-1.988-4.64-4.693 0-2.705 1.946-4.727 4.64-4.727 2.66-.034 4.707 1.988 4.707 4.727 0 2.671-1.98 4.693-4.707 4.693z"/><path id="Vector_7" fill-rule="evenodd" clip-rule="evenodd" d="M120.864 12.663c-.375 0-.477.137-.581.445a396.291 396.291 0 01-2.218 6.714c-.477 1.404-.921 2.776-1.432 4.283-.102-.24-.17-.376-.238-.513-1.364-3.494-2.731-7.022-4.095-10.519-.068-.17-.238-.41-.374-.41-1.501-.034-3.037-.034-4.64-.034a20 20 0 01.238.584c2.218 5.174 4.402 10.345 6.619 15.519.068.17.17.41.136.584-.544 1.54-1.432 2.776-3.207 3.05-.408.068-.785.102-1.228.136v4.078c2.116.102 4.061-.308 5.697-1.644 1.534-1.233 2.49-2.879 3.139-4.659 2.15-5.755 4.231-11.51 6.346-17.301.035-.103.034-.205.069-.342-1.399.03-2.833.063-4.231.03z"/><path id="Vector_8" d="M64.708 35.79l4.23 1.576C65.324 46.925 56.077 53.4 45.639 53.4c-10.543 0-19.822-6.578-23.37-16.24l4.232-1.54c2.9 7.913 10.508 13.292 19.14 13.292 8.56.034 16.1-5.276 19.068-13.121z"/><path id="Vector_9" d="M18.001 8.175l-3.343-3.152c5.458-5.926 14.329-5.926 19.787 0l-3.343 3.152c-3.65-3.972-9.485-3.972-13.101 0z"/><path id="Vector_10" d="M60.1 8.175l-3.343-3.152c5.458-5.926 14.328-5.926 19.787 0l-3.343 3.152c-3.65-3.972-9.449-3.972-13.101 0z"/></g></svg>