<svg width="622" height="500" fill="none" xmlns="http://www.w3.org/2000/svg"><path d="M578.422 300.964c.017-.242.042-.465.026-.698-.013-.129-.013-.259-.028-.38-.039-.209-.124-.392-.191-.578a4.704 4.704 0 00-.236-.682c-.064-.117-.1-.226-.17-.336-.109-.172-.262-.312-.388-.472-.153-.184-.29-.368-.484-.528a4.094 4.094 0 00-.323-.277c-.048-.031-.072-.089-.116-.118-.143-.095-.311-.11-.459-.184-.14-.077-.25-.197-.403-.256l-38.968-15.215 18.892-2.061c.028-.006.044-.019.066-.022.342-.037.651-.192.967-.31.233-.08.486-.124.702-.239.184-.106.323-.289.497-.424.276-.224.577-.415.797-.689.103-.128.15-.305.236-.45.223-.351.435-.709.551-1.11 0 0 .021-.033.027-.054l13.547-50.829c.014-.052-.003-.104.01-.152.067-.298.054-.591.056-.889.006-.202.078-.39.057-.603.003-.025-.018-.044-.021-.066-.009-.063-.028-.12-.039-.179-.045-.267-.172-.518-.264-.772-.083-.238-.124-.505-.248-.72-.03-.051-.08-.09-.105-.14-.031-.047-.032-.108-.065-.147l-32.891-48.812c-.112-.16-.284-.258-.411-.4-.222-.25-.435-.502-.71-.702-.225-.16-.463-.254-.703-.371-.275-.134-.533-.269-.825-.339-.303-.077-.599-.066-.905-.084-.213-.009-.417-.086-.64-.06l-54.732 5.91-42.774-31.512 9.684-36.335c.014-.052-.003-.1.008-.145.055-.219.042-.43.058-.654.02-.25.044-.486.027-.732-.011-.12-.008-.245-.028-.363-.041-.201-.125-.388-.187-.577a4.396 4.396 0 00-.254-.7c-.056-.11-.087-.222-.154-.327-.101-.17-.26-.303-.39-.464-.152-.188-.299-.383-.492-.547a3.66 3.66 0 00-.312-.27c-.048-.031-.066-.079-.109-.112-.146-.1-.32-.125-.476-.202-.14-.076-.246-.196-.399-.254l-73.446-29.004c-.124-.05-.26-.027-.384-.065a4.245 4.245 0 00-.917-.152 4.825 4.825 0 00-.756-.013 4.758 4.758 0 00-.941.213c-.236.075-.454.15-.674.264-.28.141-.519.327-.77.524-.215.175-.411.36-.596.587-.089.106-.213.167-.293.289l-19.865 29.199-73.19-10.625-24.97-37.321c-.113-.16-.285-.259-.405-.408-.222-.25-.436-.502-.709-.705-.217-.158-.459-.254-.7-.37-.274-.135-.539-.275-.834-.35-.295-.076-.607-.069-.905-.084-.213-.01-.406-.08-.628-.057l-70.808 7.325c-.025-.002-.044.019-.067.026-.075.005-.136.024-.213.037-.255.049-.489.167-.741.255a.737.737 0 01-.106.04c-.201.076-.426.11-.612.212-.067.038-.11.087-.172.126-.048.035-.108.032-.147.065-.168.114-.265.3-.416.428-.186.166-.408.3-.559.494-.056.067-.08.138-.124.208-.165.228-.256.476-.376.73-.098.206-.234.394-.295.62l-.036.072-13.547 50.829c-.01.037.006.075-.004.112-.087.344-.056.681-.07 1.023.004.243-.044.49-.011.723.036.252.162.476.248.72.102.313.189.635.358.922.022.032.022.08.044.111l.839 1.303-10.33 5.026-56.709-22.576c-.126-.046-.26-.026-.381-.059a4.399 4.399 0 00-1.067-.171c-.172-.003-.339-.009-.51.001a4.405 4.405 0 00-1.207.259c-.154.058-.297.11-.446.182a4.602 4.602 0 00-.9.606 3.807 3.807 0 00-.54.541c-.1.116-.233.193-.318.317l-26.557 39.818c-.094.143-.113.311-.191.459-.077.139-.195.246-.255.403-.027.087-.011.156-.047.242-.023.089-.086.145-.109.23l-13.607 51.055c-.057.214-.015.429-.042.642-.034.306-.077.597-.057.897.025.292.108.548.19.821.07.287.141.556.28.814.12.258.302.467.474.699.18.23.335.457.556.647.233.192.498.333.772.489.186.11.327.261.534.342l39.16 15.272-18.875 2.062c-.028.005-.044.018-.066.021-.063.009-.12.028-.18.046-.258.043-.49.167-.738.256-.019.007-.04.006-.051.016-.225.082-.476.118-.694.241-.05.025-.09.075-.14.101-.046.03-.106.027-.146.064-.175.122-.279.301-.434.445-.188.174-.41.292-.562.493-.055.059-.073.127-.112.195-.165.228-.259.483-.38.741-.096.216-.234.395-.297.633 0 0-.022.033-.028.053l-13.547 50.829c-.014.052.003.104-.01.153-.073.322-.056.646-.061.973.004.261-.04.522 0 .761.045.268.168.504.255.757.11.302.205.608.372.874.029.051.031.108.06.146l32.89 48.811c.051.07.115.105.167.17.178.239.378.444.6.633.103.097.181.192.292.278.069.049.119.088.189.133.396.275.835.493 1.314.622.519.14 1.075.19 1.644.127l54.732-5.909 42.552 31.438-9.687 36.347c-.056.209-.011.412-.039.629-.036.315-.079.606-.053.898.022.287.1.546.177.822.073.279.15.555.279.814.132.252.295.465.468.689.18.234.347.465.572.655.221.189.473.331.73.482.187.107.331.262.545.35l73.388 29.209c.168.063.326.118.495.164l.004.001c.012.003.017 0 .03.003a4.48 4.48 0 001.47.115c.071-.006.132-.007.194-.016.135-.02.261-.073.4-.109.288-.061.567-.137.839-.25.117-.05.222-.087.328-.145.116-.064.204-.135.313-.205.211-.142.408-.301.598-.479.125-.113.247-.232.366-.368.069-.081.14-.153.204-.248.039-.05.096-.086.13-.133l19.7-29.434 73.284 11.095 25.33 36.99c.045.059.104.097.149.152.171.232.373.429.591.618.102.101.19.193.299.284.062.042.115.087.177.129.403.269.841.486 1.316.614.519.14 1.067.188 1.631.128l70.577-7.379c.025.003.047-.017.075-.023.369-.043.703-.195 1.044-.324.201-.075.427-.114.615-.219.25-.144.436-.358.655-.55.219-.187.475-.339.645-.557.139-.165.203-.39.301-.58.188-.317.382-.623.491-.983 0 0 .024-.041.03-.066l13.547-50.829.004-.111c.075-.295.046-.593.064-.886.009-.214.079-.411.055-.63-.005-.027-.017-.048-.023-.075a1.146 1.146 0 00-.021-.148c-.036-.252-.162-.476-.248-.72a1.599 1.599 0 00-.078-.224c-.075-.189-.094-.393-.195-.563-.026-.05-.058-.089-.089-.136-.022-.032-.022-.08-.044-.112l-.839-1.302 10.33-5.026 56.715 22.551c.165.062.323.117.488.162l.004.001c.012.003.017 0 .029.003.484.126.982.152 1.471.115.071-.006.131-.007.202-.014.135-.02.253-.075.396-.11.286-.052.566-.133.838-.245.118-.055.228-.095.339-.155.116-.064.204-.136.309-.207.207-.13.399-.282.581-.462.135-.119.262-.24.384-.372.072-.093.143-.165.207-.26.031-.052.09-.079.12-.127l26.558-39.819c.141-.208.177-.453.278-.673.102-.219.255-.406.322-.657l13.607-51.055c.015-.056 0-.112.006-.167.059-.222.047-.437.072-.659l.001.002zm-32.801 34.404l-55.097-22.146c-.039-.015-.085-.005-.124-.02a3.989 3.989 0 00-.237-.068c-.055-.02-.095-.065-.147-.079-.225-.061-.448-.017-.67-.042-.054-.01-.11-.025-.162-.026-.154-.003-.313-.072-.465-.065-.099-.001-.188.023-.282.036-.298.033-.561.13-.84.206-.197.06-.403.073-.586.158-.042.015-.086.016-.119.028l-52.76 25.738c-.109.053-.168.145-.267.209-.095.048-.202.058-.291.121-.158.104-.246.275-.391.396-.227.207-.453.406-.632.656a4.428 4.428 0 00-.419.73c-.13.263-.247.508-.324.795-.07.279-.093.558-.112.843-.016.285-.025.564.002.848.038.295.13.567.224.86.067.187.054.382.149.559.047.099.14.154.194.242.059.103.071.219.131.317l22.111 32.53-60.655 6.342-24.928-36.393c-.031-.047-.078-.064-.103-.101-.009-.016-.021-.019-.029-.034-.094-.12-.218-.188-.309-.3-.22-.24-.424-.481-.695-.662-.24-.169-.503-.266-.778-.383-.208-.095-.387-.247-.62-.31-.065-.017-.131.004-.187-.011-.078-.017-.137-.037-.214-.058-.037-.005-.061-.029-.091-.029l-78.021-11.822c-.216-.032-.41.033-.633.029-.26.003-.52-.041-.782.001-.086.016-.165.038-.246.05-.241.061-.445.179-.67.265-.224.096-.461.157-.674.277-.074.054-.149.09-.219.144-.197.138-.346.326-.519.505-.185.179-.377.331-.529.545-.03.048-.088.071-.116.111l-19.265 28.79-64.813-25.801 18.289-26.878c.172-.256.231-.543.345-.81.108-.257.261-.492.319-.758.065-.293.027-.589.036-.88.003-.285.047-.563-.001-.839-.05-.282-.185-.535-.284-.795-.1-.273-.166-.559-.325-.805-.161-.268-.415-.466-.629-.697-.179-.187-.304-.415-.522-.569l-.114-.087-57.163-41.929-.004-.001-.109-.077c-.168-.132-.372-.161-.56-.264-.288-.151-.55-.333-.858-.421-.025-.007-.041-.024-.066-.031-.024-.006-.043.002-.067-.005-.331-.085-.655-.051-.983-.066-.201-.006-.389-.079-.598-.057l-53.775 5.8-27.22-40.396 29.696-3.246.004.001 2.61-.226c.017 0 .034-.017.052-.017.025.003.041.007.067.006l16.444-1.87c.289-.034.516-.172.78-.257.276-.081.565-.129.811-.257.262-.141.458-.344.678-.522.221-.183.464-.333.649-.556.187-.218.284-.485.424-.733.14-.252.308-.479.393-.763.097-.299.09-.616.121-.923.023-.249.111-.485.094-.744l-3.196-47.834c-.002-.057-.033-.104-.046-.151-.026-.275-.12-.504-.185-.763-.068-.231-.102-.46-.201-.686-.034-.082-.076-.15-.111-.233-.115-.213-.295-.382-.449-.579-.141-.185-.26-.399-.437-.563-.069-.062-.135-.123-.206-.181-.177-.147-.391-.231-.59-.345-.072-.037-.126-.077-.196-.122-.147-.078-.257-.199-.414-.258l-.129-.052-.052-.015-53.235-20.943 21.454-32.165 55.182 21.944c.165.062.322.117.487.162l.004.001c.041.01.083-.004.124.007.478.116.97.162 1.47.115.386-.039.746-.175 1.105-.308.144-.056.285-.052.415-.117l.03-.018s.02-.008.029-.009l16.566-8.063a.136.136 0 00.018.001l36.336-17.576c.118-.055.185-.162.292-.224.089-.059.189-.062.276-.112.157-.105.24-.268.385-.393a4.01 4.01 0 00.63-.648c.179-.233.3-.477.424-.733.128-.255.248-.508.314-.789.075-.282.105-.555.12-.841a4.66 4.66 0 00.001-.86c-.039-.292-.125-.552-.216-.841-.066-.19-.052-.386-.146-.567-.056-.114-.153-.171-.212-.273-.059-.102-.062-.207-.123-.301l-22.148-32.6 60.665-6.27 24.572 36.713.017.03c.063.091.152.145.224.229.264.339.535.663.887.914.41.291.863.5 1.339.641.04.011.07.045.11.056l.004.001c.169.046.346.08.523.111l77.916 11.309c.113.013.21-.026.32-.018.38.029.753.005 1.13-.067.17-.036.337-.048.492-.097a4.853 4.853 0 001.27-.604c.039-.033.095-.048.133-.077a4.398 4.398 0 001.004-1.048l19.43-28.555 64.914 25.62-18.434 27.324-.005.016s-.018.021-.023.024c-.198.305-.268.632-.384.955-.088.232-.229.436-.277.665-.061.343-.011.672.002 1.013.01.236-.033.479.008.715.059.297.221.561.334.834.104.257.161.528.317.755.173.272.445.466.681.698.193.182.324.403.55.559l.016.004c.011.008.012.017.023.024l10.998 7.282 46.558 34.295c.04.028.093.038.137.067.412.284.859.517 1.354.65.491.132.999.152 1.497.113.047 0 .098.022.143.013l53.776-5.8 27.218 40.383-49.078 5.3c-.267.028-.487.159-.736.235-.303.086-.61.138-.876.278-.247.132-.433.329-.645.509-.234.184-.492.339-.684.577-.169.197-.246.435-.379.659-.159.273-.342.539-.44.841-.08.251-.066.523-.097.787-.037.301-.138.581-.11.896l3.482 47.668c.022.304.126.579.199.854.044.141.05.281.102.412.191.497.45.947.794 1.342.078.095.183.153.266.232.304.298.637.556 1.011.756.072.037.112.113.189.147l2.359 1.119c.086.036.158.056.243.092.024.006.033.022.052.031l50.825 19.84-21.61 32.572z" fill="#181816"/></svg>