<svg width="46" height="47" fill="none" xmlns="http://www.w3.org/2000/svg"><g clip-path="url(#clip0_91_6235)" fill="#EB4545"><path d="M10.015 24.81H13.2c-3.058-3.96-3.058-10.288 0-14.249h-2.823c5.414-9.854 19.859-9.848 25.27 0h-2.823c3.058 3.96 3.057 10.29 0 14.25h3.183c2.336 0 4.237-1.9 4.237-4.237v-5.776a4.22 4.22 0 00-.894-2.599c-5.403-15.585-27.253-15.612-32.676 0a4.215 4.215 0 00-.894 2.6v5.775c0 2.336 1.9 4.237 4.236 4.237zM42.01 42.419c-1.64-7.544-8.531-15.299-19-15.3-10.042 0-17.256 7.31-19.016 15.278A3.398 3.398 0 007.317 46.5c6.788 0 24.82 0 31.387-.02 2.14 0 3.74-1.965 3.306-4.061z"/><path d="M25.899 20.669h6.061c2.089-5.934-2.63-12.53-8.95-12.416-5.2 0-9.432 4.232-9.432 9.433.02 9.046 11.6 12.82 16.958 5.681H25.9c-1.788-.066-1.788-2.632 0-2.698z"/></g><defs><clipPath id="clip0_91_6235"><path fill="#fff" transform="translate(0 .5)" d="M0 0h46v46H0z"/></clipPath></defs></svg>