<svg width="23" height="22" fill="none" xmlns="http://www.w3.org/2000/svg"><g clip-path="url(#clip0_2387_1477)"><path d="M10.284 21.686c-2.297 0-4.553.076-6.801-.026-1.516-.067-2.651-1.534-2.656-3.2C.814 14.322.818 10.184.818 6.05c0-.844-.008-1.688 0-2.528C.841 1.473 2.135.153 4.201.14c3.077-.022 6.154-.005 9.23-.01 1.823 0 3.65-.008 5.472 0 2.212.014 3.506 1.303 3.506 3.503.005 4.871.005 9.742 0 14.613 0 2.183-1.254 3.45-3.431 3.472-1.574.013-3.152 0-4.797 0v-7.614h3.134l.63-3.786h-3.777V7.73h3.746V3.9c-1.636.08-3.276 0-4.855.28-1.653.293-2.647 1.853-2.704 3.724-.022.756 0 1.516 0 2.373H7.912v3.747h2.367v7.653l.005.01z" fill="#8F8F8F"/></g><defs><clipPath id="clip0_2387_1477"><path fill="#fff" transform="translate(.818 .126)" d="M0 0h21.6v21.6H0z"/></clipPath></defs></svg>