<svg width="22" height="22" fill="none" xmlns="http://www.w3.org/2000/svg"><g clip-path="url(#clip0_2387_1479)" fill="#8F8F8F"><path d="M11.17 21.726c-1.797-.08-3.607-.076-5.391-.263-3.002-.32-5.124-2.42-5.249-5.422a125.704 125.704 0 010-10.44C.655 2.63 2.852.384 5.828.251a114.41 114.41 0 0110.72 0c2.976.141 5.142 2.392 5.275 5.381.147 3.367.17 6.748.04 10.115-.146 3.772-2.682 5.743-6.423 5.863-1.419.044-2.838.009-4.261.009v.11l-.009-.003zm-.013-5.378c2.993.009 5.547-2.531 5.533-5.516-.013-3.007-2.549-5.538-5.533-5.516-3.025.023-5.525 2.518-5.53 5.52 0 3.012 2.496 5.498 5.53 5.507v.005zm7.046-11.24c.017-.659-.556-1.26-1.228-1.282-.658-.022-1.281.56-1.295 1.22-.017.684.52 1.285 1.188 1.325.685.044 1.317-.552 1.335-1.264z"/><path d="M11.143 14.778a3.91 3.91 0 01-3.91-3.964c.022-2.126 1.797-3.878 3.927-3.887 2.158-.01 3.955 1.788 3.95 3.95 0 2.175-1.77 3.914-3.972 3.9h.005z"/></g><defs><clipPath id="clip0_2387_1479"><path fill="#fff" transform="translate(.418 .126)" d="M0 0h21.524v21.6H0z"/></clipPath></defs></svg>