<svg width="23" height="24" fill="none" xmlns="http://www.w3.org/2000/svg"><path d="M11.416 23.008c-2.607 0-5.215.003-7.823 0-1.417-.002-2.592-.973-2.893-2.39a3.187 3.187 0 01-.067-.665C.629 14.6.628 9.248.63 3.896.631 2.18 1.927.846 3.596.844 8.818.841 14.04.841 19.263.844c1.659.001 2.961 1.333 2.962 3.032.004 5.367.004 10.734 0 16.101-.002 1.697-1.305 3.027-2.965 3.03-2.615.005-5.23.001-7.845.001h.001zm.717-12.373c0-.193.004-.386-.001-.58-.01-.322-.16-.478-.472-.48a173.12 173.12 0 00-1.899 0c-.337.002-.483.158-.483.509v8.247c0 .369.152.52.519.52h1.73c.475 0 .597-.124.597-.614 0-1.385-.003-2.77.001-4.156.002-.529.113-1.032.397-1.48.348-.547.858-.716 1.464-.633.554.077.927.41 1.057.951.108.45.157.923.164 1.386.02 1.335.005 2.67.005 4.004 0 .392.143.538.521.539.626 0 1.251.002 1.877 0 .375 0 .524-.154.524-.54 0-1.508.017-3.016-.013-4.523a10.306 10.306 0 00-.208-1.908c-.241-1.148-.863-1.998-2.025-2.311a4.267 4.267 0 00-2.211.005c-.633.163-1.127.535-1.544 1.065zm-6.99 3.587v4.045c0 .423.158.584.575.584h1.687c.428 0 .588-.16.588-.596v-8.09c0-.432-.155-.593-.569-.595-.57-.002-1.138-.002-1.707 0-.421.002-.575.16-.575.586v4.067-.001zm3.259-7.33c.007-1.03-.805-1.881-1.805-1.893-1.024-.012-1.865.828-1.872 1.872-.008 1.04.81 1.894 1.82 1.9 1.033.007 1.85-.82 1.856-1.879z" fill="#8F8F8F"/></svg>