<svg width="54" height="54" fill="none" xmlns="http://www.w3.org/2000/svg"><mask id="mask0_1247_20892" style="mask-type:luminance" maskUnits="userSpaceOnUse" x="0" y="0" width="54" height="54"><path d="M0 0h54v54H0V0z" fill="#fff"/></mask><g mask="url(#mask0_1247_20892)" stroke="#031C77" stroke-width="1.4" stroke-miterlimit="10" stroke-linecap="round" stroke-linejoin="round"><path d="M44.14 41.467L12.532 9.86A22.338 22.338 0 0127 4.57c12.388 0 22.43 10.041 22.43 22.43a22.34 22.34 0 01-5.29 14.467zM4.57 27a22.34 22.34 0 015.29-14.467L41.468 44.14A22.339 22.339 0 0127 49.43C14.612 49.43 4.57 39.389 4.57 27z"/><path d="M43.832 6.908A26.103 26.103 0 0027 .789C12.525.79.791 12.523.791 26.998a26.104 26.104 0 006.113 16.826M9.48 46.49A26.112 26.112 0 0027 53.207c14.475 0 26.209-11.734 26.209-26.209 0-6.736-2.54-12.878-6.717-17.52"/></g></svg>