<svg xmlns="http://www.w3.org/2000/svg" viewBox="0 0 494 317.68"><defs><style>.cls-2{fill:#fff}</style></defs><g id="Слой_2" data-name="Слой 2"><g opacity=".05" id="Слой_1-2" data-name="Слой 1"><path class="cls-2" d="M157.69 312.92c-42.09 0-81.69-15.74-111.48-44.31S0 202.06 0 161.68 16.41 83.35 46.21 54.77l46.44-44.54a37.55 37.55 0 0151.52 0 33.93 33.93 0 010 49.4l-46.45 44.54a78.94 78.94 0 000 115 87.32 87.32 0 00119.94 0l93.44-89.61a37.54 37.54 0 0151.51 0 33.93 33.93 0 010 49.41l-93.44 89.61c-29.8 28.6-69.38 44.34-111.48 44.34z"/><path class="cls-2" d="M375.16 317.68a37.36 37.36 0 01-25.87-10.23 33.84 33.84 0 010-49.42l46.65-44.55c33.22-31.73 33.22-83.35 0-115.07s-87.27-31.72-120.49 0l-93.85 89.64a37.84 37.84 0 01-51.75 0 33.84 33.84 0 010-49.42L223.71 49c61.75-59 162.23-59 224 0s61.75 154.93 0 213.9L401 307.45a37.39 37.39 0 01-25.84 10.23z"/></g></g></svg>