<svg width="54" height="54" fill="none" xmlns="http://www.w3.org/2000/svg"><g clip-path="url(#clip0_1247_20866)"><path d="M32.112 19.422c1.363.819 2.245 2.123 2.245 3.591m2.245-.001v-3.309m-15.713-5.67v-4.49h15.713v7.798m-15.713-3.308a4.49 4.49 0 004.49-4.49m11.223 4.49a4.49 4.49 0 01-4.49-4.49" stroke="#031C77" stroke-miterlimit="10" stroke-linecap="round" stroke-linejoin="round"/><path d="M16.4 23.01v-8.979h15.713v8.98" stroke="#031C77" stroke-miterlimit="10" stroke-linecap="round" stroke-linejoin="round"/><path d="M24.256 19.643a1.122 1.122 0 100-2.245 1.122 1.122 0 000 2.245zM16.4 18.52a4.49 4.49 0 004.489-4.489m11.223 4.489a4.49 4.49 0 01-4.489-4.489M14.172 30.877v-7.865h24.657v17.957l-6.332 2.306M14.172 33.238v7.73l12.328 4.49 3.776-1.375" stroke="#031C77" stroke-miterlimit="10" stroke-linecap="round" stroke-linejoin="round"/><path d="M17.414 39.68l-1.015-.381v-1.084" stroke="#031C77" stroke-linecap="round" stroke-linejoin="round"/><path d="M16.4 35.843v-8.3" stroke="#031C77" stroke-linecap="round" stroke-linejoin="round" stroke-dasharray="32.82 32.82"/><path d="M16.4 26.357v-1.084h1.083" stroke="#031C77" stroke-linecap="round" stroke-linejoin="round"/><path d="M19.487 25.273h15.03" stroke="#031C77" stroke-linecap="round" stroke-linejoin="round" stroke-dasharray="27.73 27.73"/><path d="M35.519 25.273h1.084v1.084" stroke="#031C77" stroke-linecap="round" stroke-linejoin="round"/><path d="M36.602 28.73v8.3" stroke="#031C77" stroke-linecap="round" stroke-linejoin="round" stroke-dasharray="32.82 32.82"/><path d="M36.602 38.215v1.084l-1.015.381" stroke="#031C77" stroke-linecap="round" stroke-linejoin="round"/><path d="M33.568 40.438l-7.067 2.654-8.077-3.033" stroke="#031C77" stroke-linecap="round" stroke-linejoin="round" stroke-dasharray="29.85 29.85"/><path fill="#F2F4F8" d="M10 12.707l2.669-2.708 30.186 29.748-2.67 2.708z"/><mask id="mask0_1247_20866" style="mask-type:luminance" maskUnits="userSpaceOnUse" x="0" y="0" width="54" height="54"><path d="M0 0h54v54H0V0z" fill="#fff"/></mask><g mask="url(#mask0_1247_20866)" stroke="#031C77" stroke-width="1.4" stroke-miterlimit="10" stroke-linecap="round" stroke-linejoin="round"><path d="M44.14 41.467L12.532 9.86A22.338 22.338 0 0127 4.57c12.388 0 22.43 10.041 22.43 22.43a22.34 22.34 0 01-5.29 14.467zM4.57 27a22.34 22.34 0 015.29-14.467L41.468 44.14A22.339 22.339 0 0127 49.43C14.612 49.43 4.57 39.389 4.57 27z"/><path d="M43.832 6.908A26.103 26.103 0 0027 .789C12.525.79.791 12.523.791 26.998a26.104 26.104 0 006.113 16.826M9.48 46.49A26.112 26.112 0 0027 53.207c14.475 0 26.209-11.734 26.209-26.209 0-6.736-2.54-12.878-6.717-17.52"/></g></g><defs><clipPath id="clip0_1247_20866"><path fill="#fff" d="M0 0h54v54H0z"/></clipPath></defs></svg>