<svg width="250" height="250" fill="none" xmlns="http://www.w3.org/2000/svg"><g opacity=".03" fill-rule="evenodd" clip-rule="evenodd" fill="#031C77"><path d="M172.949 150.879H77.051c-3.814 0-6.918-3.102-6.918-6.917V6.929A6.925 6.925 0 0177.05.012h68.111a7.862 7.862 0 00-.552 2.93v24.512c0 4.311 3.5 7.812 7.812 7.812h24.555a8.018 8.018 0 002.892-.521v109.217c0 3.813-3.105 6.917-6.92 6.917zM125 97.345c-15.723 0-28.516-12.792-28.516-28.516 0-15.724 12.793-28.516 28.516-28.516 15.724 0 28.518 12.792 28.518 28.516 0 15.724-12.794 28.516-28.518 28.516zm0-51.172c-12.493 0-22.657 10.165-22.657 22.657 0 12.494 10.165 22.657 22.657 22.657s22.657-10.164 22.657-22.657c0-12.492-10.165-22.657-22.657-22.657zm28.77 68.362H96.23c-3.856 0-3.856-5.859 0-5.859h57.54c3.855 0 3.857 5.859 0 5.859zm0 19.349H96.23c-3.855 0-3.855-5.859 0-5.859h57.54c3.855 0 3.857 5.859 0 5.859zm-36.415-56.298c-2.695 0-4.679-5.115-7.12-9.28-1.95-3.328 3.104-6.287 5.053-2.962l3.109 5.306 17.36-10.17c3.325-1.946 6.29 3.105 2.959 5.057-2.825 1.656-19.618 12.05-21.361 12.05v-.001z"/><path d="M176.976 30.382h-24.555a2.931 2.931 0 01-2.93-2.93V2.94c0-2.598 3.161-3.914 5.003-2.07l24.243 24.242c2.433 2.116.726 5.271-1.761 5.271zm37.951 171.228H35.072c-7.049 0-12.784-5.735-12.784-12.787V55.78c0-7.049 5.735-12.784 12.784-12.784H65.25v17.58H43.785a2.93 2.93 0 00-2.93 2.93V169.67a2.932 2.932 0 002.93 2.93h162.431a2.932 2.932 0 002.93-2.931V63.504a2.931 2.931 0 00-2.93-2.93H184.75V42.998h30.177c7.051 0 12.784 5.734 12.784 12.783v133.044c0 7.052-5.735 12.786-12.784 12.786v-.001z"/><path d="M164.972 232.594H85.03c-3.45 0-5.37-3.502-5.37-6.578v-32.01c0-3.078 1.918-6.58 5.37-6.58h79.944c3.453 0 5.371 3.503 5.371 6.58v32.01c0 3.077-1.921 6.578-5.373 6.578zm-74.573-13.162H159.6v-18.848l-69.201.002v18.846z"/><path d="M183.575 249.997H66.424a2.932 2.932 0 01-2.93-2.93V221.34a2.931 2.931 0 012.93-2.93h117.151a2.932 2.932 0 012.93 2.93v25.727a2.932 2.932 0 01-2.93 2.93zm-45.335-62.892h-26.477c-3.856 0-3.856-5.859 0-5.859h26.477c3.855 0 3.857 5.859 0 5.859z"/></g></svg>