<svg width="230" height="112" fill="none" xmlns="http://www.w3.org/2000/svg"><g clip-path="url(#clip0_1185_37739)"><mask id="mask0_1185_37739" style="mask-type:luminance" maskUnits="userSpaceOnUse" x="182" y="21" width="48" height="48"><path d="M230 21.458h-47.238v47.238H230V21.458z" fill="#fff"/></mask><g mask="url(#mask0_1185_37739)"><path d="M206.412 63.904a18.9 18.9 0 01-4.754-.61 18.694 18.694 0 01-11.498-8.675 18.696 18.696 0 01-1.996-14.264 18.688 18.688 0 018.675-11.498 18.693 18.693 0 0114.263-1.997 18.695 18.695 0 0111.498 8.675 18.7 18.7 0 011.997 14.265 18.695 18.695 0 01-8.675 11.497 18.715 18.715 0 01-9.51 2.607zm-.03-33.732c-6.627 0-12.691 4.46-14.429 11.165-2.062 7.955 2.732 16.105 10.687 18.167a14.81 14.81 0 0011.297-1.581 14.81 14.81 0 006.871-9.106 14.81 14.81 0 00-1.582-11.297 14.806 14.806 0 00-9.105-6.87 14.89 14.89 0 00-3.738-.479h-.001z" fill="#FFCE00"/><path d="M228.798 62.18c-.728.058-1.399.191-1.96.313h-.005c-2.88.658-5.627.262-7.535-1.086-.798-.583-7.834-10.48-11.779-17.165-3.518-5.964-7.234-13.454-8.454-15.916a23.317 23.317 0 00-.373-.743c-1.595-2.681-3.758-4.316-6.257-4.728-2.484-.41-5.082.419-7.317 2.331a12.967 12.967 0 00-1.591 1.628l-.765.93 1.201-.097a14.64 14.64 0 001.964-.316c2.88-.657 5.627-.26 7.536 1.088.758.54 8.579 10.145 12.478 16.753 2.42 4.101 5.248 10.026 7.964 16.686.104.256.126.31.141.341 1.314 2.8 3.227 4.545 5.535 5.046.47.102.954.153 1.448.153 2.159 0 4.498-.963 6.612-2.757l.012-.01c.663-.596 1.15-1.096 1.581-1.62l.766-.93-1.202.098z" fill="#FFCE00"/><path d="M226.103 23.816l-.01-.011c-.597-.663-1.096-1.151-1.619-1.582l-.93-.765.097 1.2c.059.728.192 1.4.314 1.96v.005c.658 2.88.262 5.627-1.087 7.536-.582.797-10.479 7.834-17.164 11.778-5.963 3.52-13.454 7.235-15.916 8.455-.588.291-.696.346-.743.373-2.681 1.595-4.316 3.758-4.727 6.257-.409 2.484.419 5.083 2.331 7.317a12.97 12.97 0 001.627 1.59l.93.766-.098-1.2a14.809 14.809 0 00-.315-1.965c-.657-2.88-.26-5.627 1.088-7.536.541-.758 10.145-8.58 16.753-12.478 4.099-2.419 10.025-5.247 16.684-7.963.258-.105.312-.127.342-.141 2.799-1.314 4.544-3.228 5.046-5.536.549-2.524-.401-5.462-2.604-8.059h.001z" fill="#FFCE00"/><path d="M217.51 49.061c-.297-.07-.592-.146-.89-.209-.145-.03-.181-.1-.144-.238.063-.237.109-.478.17-.716.031-.117.011-.184-.121-.215a808.858 808.858 0 01-3.676-.862c-.13-.03-.18.016-.206.137-.049.233-.101.467-.165.696-.038.14-.003.207.144.237.24.047.476.114.716.164.133.028.176.089.14.223-.072.283-.136.568-.201.852-.03.13-.104.174-.232.143a740.36 740.36 0 00-1.974-.46c-.13-.03-.175-.098-.141-.23.069-.276.126-.556.197-.832.035-.133-.002-.193-.137-.222-.44-.098-.877-.21-1.317-.304-.16-.034-.205-.104-.161-.262.065-.235.111-.477.171-.715.029-.116-.008-.172-.123-.196a16.305 16.305 0 01-.736-.173c-.128-.034-.181.011-.207.134-.051.24-.116.477-.165.718-.029.136-.084.186-.232.154-.417-.089-.422-.084-.537.34-.036.137-.102.165-.229.133-.238-.061-.478-.108-.715-.171-.129-.034-.198-.008-.225.133-.049.24-.106.479-.168.716-.031.123 0 .184.128.21.24.05.477.117.716.165.151.03.195.096.157.248-.11.438-.203.878-.313 1.315-.035.143 0 .206.145.235.266.053.528.127.794.182.129.026.175.079.155.215-.054.376-.166.736-.246 1.106-.065.298-.142.593-.208.891-.029.13-.093.177-.227.143-.289-.072-.579-.14-.871-.205-.116-.026-.149-.087-.121-.2.061-.245.109-.492.175-.736.039-.144-.007-.205-.148-.233a12.525 12.525 0 01-.697-.162c-.119-.03-.183-.007-.214.124a896.925 896.925 0 01-.862 3.677c-.032.132.02.18.138.204.24.052.477.116.716.166.141.028.187.091.15.235-.076.295-.139.593-.208.89l-.038.023c-.295-.07-.59-.144-.886-.208-.141-.03-.181-.09-.15-.235.093-.434.088-.435-.34-.535-.193-.045-.387-.085-.578-.138-.134-.037-.202-.011-.239.138-.108.437-.114.435-.561.33l-.617-.142a.414.414 0 00-.024-.04c.069-.29.146-.578.204-.87.033-.163.109-.202.263-.159.229.064.465.107.695.167.119.031.185.01.215-.122.285-1.226.572-2.452.862-3.677.026-.11.005-.176-.116-.201a20.6 20.6 0 01-.754-.177c-.122-.03-.168.02-.192.13-.054.247-.119.49-.17.737-.028.13-.087.177-.223.142a21.628 21.628 0 00-.85-.2c-.135-.028-.172-.1-.142-.228.158-.663.315-1.328.468-1.993.03-.127.095-.158.215-.127.264.065.531.116.793.19.164.045.238.011.275-.165.088-.428.201-.85.293-1.278.033-.157.097-.211.259-.166.236.065.478.11.716.17.113.03.173 0 .199-.119.053-.246.11-.492.173-.735.032-.124-.003-.183-.13-.21-.246-.052-.49-.119-.735-.17-.134-.028-.167-.09-.141-.225.086-.423.084-.428-.335-.54-.132-.034-.172-.093-.137-.224.063-.244.112-.491.175-.735.032-.125-.007-.183-.132-.209-.24-.05-.48-.105-.715-.168-.137-.036-.193.01-.22.142-.048.234-.115.463-.159.697-.032.166-.109.198-.265.158-.417-.106-.84-.19-1.256-.302-.19-.05-.26.004-.293.19-.046.253-.118.503-.173.755-.03.138-.103.188-.241.154-.651-.153-1.303-.306-1.955-.455-.135-.032-.19-.095-.153-.239.072-.283.139-.566.199-.852.03-.137.098-.168.227-.134.237.06.479.109.716.17.127.034.198.011.226-.13.048-.24.106-.479.167-.716.031-.122.003-.183-.126-.212a790.811 790.811 0 01-3.675-.863c-.133-.031-.179.022-.204.14-.051.24-.115.476-.165.716-.029.141-.093.186-.235.149-.295-.075-.593-.14-.89-.208a.425.425 0 00-.024-.04c.07-.294.145-.59.208-.885.03-.14.093-.18.235-.15.434.092.435.087.535-.34.045-.193.085-.387.138-.578.037-.136.01-.203-.138-.239-.436-.108-.434-.113-.33-.561l.143-.617c.012-.008.026-.015.038-.024.296.07.592.145.89.21.145.03.182.099.144.238-.063.237-.11.477-.171.715-.029.117-.011.184.122.216 1.226.284 2.451.572 3.675.861.111.026.176.007.201-.115.055-.253.114-.505.177-.755.031-.121-.019-.168-.13-.193-.245-.053-.489-.118-.735-.17-.13-.027-.179-.086-.143-.221.072-.283.139-.566.199-.852.032-.148.112-.176.245-.143.65.155 1.301.31 1.952.461.139.033.185.103.148.244-.065.257-.113.518-.186.772-.047.164-.011.239.164.275.428.089.851.202 1.278.293.157.034.211.098.166.259-.066.236-.111.478-.171.715-.028.113 0 .174.12.2.246.052.491.11.735.173.124.032.183-.003.21-.13.051-.247.118-.49.17-.736.028-.134.091-.168.224-.14.422.085.428.082.54-.336.035-.133.095-.17.226-.137.244.063.491.111.734.174.126.033.183-.007.209-.133.05-.24.105-.479.168-.716.037-.137-.012-.193-.143-.22-.22-.044-.436-.113-.659-.148-.206-.033-.237-.126-.188-.314.106-.397.192-.8.285-1.199.039-.167-.028-.271-.201-.312-.245-.058-.488-.12-.735-.17-.144-.03-.182-.104-.15-.242.158-.656.313-1.314.464-1.973.032-.136.098-.17.228-.138.282.072.566.139.85.2.138.03.168.098.135.227-.061.237-.109.478-.171.715-.033.127-.01.199.131.227.239.047.478.106.716.167.121.031.182.002.213-.126.284-1.226.572-2.453.862-3.677.032-.132-.022-.178-.139-.203-.24-.052-.477-.116-.716-.165-.142-.029-.187-.093-.149-.235.075-.295.139-.593.208-.89l.038-.023c.295.07.589.144.886.208.14.03.181.09.15.235-.093.435-.087.436.34.536.193.045.387.085.578.137.134.038.202.013.239-.136.108-.438.114-.436.561-.332l.617.143.024.038c-.071.297-.147.592-.21.89-.03.145-.1.18-.238.144-.237-.063-.478-.11-.715-.171-.118-.03-.185-.01-.215.121a780.54 780.54 0 01-.863 3.677c-.03.13.016.181.137.207.233.048.466.101.696.164.139.038.207.005.237-.143.047-.24.114-.477.164-.717.028-.132.089-.176.224-.142.282.073.566.139.851.2.118.025.153.083.128.196-.021.096-.027.196-.049.293-.128.549-.258 1.096-.388 1.644-.057.245-.069.252-.306.198-.252-.058-.505-.112-.754-.179-.142-.038-.203.003-.235.146-.096.44-.208.877-.304 1.317-.033.153-.101.194-.25.154-.236-.064-.477-.11-.715-.171-.126-.033-.182.008-.209.132-.051.24-.105.48-.168.716-.037.137.011.193.142.22.221.044.438.113.659.148.206.033.236.127.188.315-.107.416-.134.359.288.45.181.04.247.107.19.296-.065.215-.101.44-.16.657-.037.139-.007.21.141.238.234.045.466.101.697.163.131.036.195 0 .223-.136.049-.24.116-.477.164-.717.029-.143.095-.183.237-.148.437.108.878.202 1.315.313.152.038.217 0 .247-.154.053-.266.126-.529.183-.794.028-.137.088-.195.234-.16.656.157 1.314.312 1.972.466.127.03.178.095.144.228-.072.29-.14.58-.204.871-.026.117-.087.15-.199.122-.245-.06-.492-.108-.735-.174-.144-.04-.205.005-.233.148-.046.234-.103.466-.162.697-.031.12-.008.184.123.214 1.226.284 2.451.572 3.676.862.131.032.18-.018.206-.139.049-.232.114-.463.159-.697.031-.158.098-.209.26-.166.287.078.58.138.871.205.007.013.016.025.024.038-.07.295-.146.59-.209.887-.029.14-.091.18-.235.15-.433-.093-.435-.087-.535.34-.045.193-.085.387-.138.577-.037.135-.011.203.138.24.436.108.435.114.33.562l-.142.617-.037.024zm-9.96-4.162c.069-.296.135-.594.21-.889.031-.124-.005-.181-.13-.21a159.66 159.66 0 01-1.817-.426c-.116-.028-.171.006-.198.122-.139.607-.281 1.213-.427 1.817-.029.125.005.182.13.21.6.137 1.199.277 1.797.423.134.032.194-.003.223-.138.064-.305.141-.606.212-.91z" fill="#2B94FC"/><path d="M194.055 46.012c-.328-.078-.656-.16-.986-.231-.142-.031-.187-.099-.153-.238.157-.657.313-1.315.464-1.974.031-.133.093-.173.224-.141.335.08.672.154 1.007.23a.57.57 0 00.024.04l-.542 2.29-.038.024zm11.071-13.775c.076-.322.16-.643.226-.967.035-.174.117-.21.28-.17.63.154 1.261.303 1.894.448.164.037.22.109.176.278-.083.32-.15.644-.224.967l-.038.023-2.29-.54-.024-.039zm5.724 1.348c.079-.328.163-.656.235-.985.032-.151.103-.196.252-.16.65.157 1.3.31 1.953.461.14.033.18.106.145.245-.082.327-.155.658-.231.986l-.039.024-2.291-.533-.024-.038zm-15.45 6.7c-.321-.077-.642-.16-.966-.23-.154-.033-.214-.096-.174-.26.159-.65.312-1.301.46-1.953.033-.148.106-.176.241-.142.328.082.658.155.987.23l.023.039-.533 2.292a.79.79 0 00-.038.024zm12.422 16.8c-.074.316-.156.63-.221.948-.037.172-.111.232-.291.19a82.837 82.837 0 00-1.876-.438c-.188-.041-.231-.126-.182-.308.084-.313.147-.632.219-.948a.303.303 0 00.038-.024l2.29.54.024.039-.001.001zm-8.038-1.919l2.292.533a.595.595 0 00.024.04c-.078.32-.161.642-.23.965-.037.168-.118.214-.283.174-.63-.153-1.262-.3-1.896-.442-.166-.037-.216-.11-.172-.279.084-.32.152-.644.227-.967.012-.008.026-.015.038-.024zm17.192-3.815l.534-2.292.038-.024c.315.075.627.162.945.223.171.033.221.11.184.27l-.319 1.39c-.04.175-.088.346-.12.522-.029.166-.102.222-.273.177-.319-.084-.643-.152-.964-.227-.008-.014-.017-.026-.024-.04l-.001.001zm1.918-8.039c.322.076.642.158.965.225.136.03.188.083.164.228-.072.437-.198.862-.291 1.294-.051.233-.112.463-.163.696-.028.13-.095.172-.227.14-.334-.081-.669-.155-1.004-.23l-.024-.038.541-2.291.038-.023.001-.001zM208.045 55.99c-.322-.077-.642-.158-.966-.227-.154-.033-.214-.097-.172-.26.075-.287.142-.578.205-.868.028-.128.083-.182.219-.148.289.074.578.14.868.204.125.028.16.09.13.212-.086.354-.165.708-.247 1.062l-.037.024zm7.835-4.86c-.346-.083-.693-.169-1.04-.245-.14-.03-.186-.092-.149-.235a21.3 21.3 0 00.195-.83c.029-.139.095-.192.235-.157.295.074.59.145.886.212.143.032.175.11.142.246-.081.326-.154.656-.23.983l-.039.025zm-20.731-4.894c.077-.328.16-.655.231-.984.032-.153.108-.194.253-.158.288.073.577.142.867.208.139.031.181.105.146.243-.072.282-.137.564-.199.849-.028.126-.092.157-.213.128-.353-.086-.707-.165-1.061-.247-.008-.014-.017-.026-.024-.04zm17.792-10.986c-.082.348-.169.694-.245 1.043-.03.142-.093.184-.236.148-.28-.073-.565-.137-.848-.2-.125-.028-.164-.095-.135-.214.073-.309.149-.617.217-.926.028-.131.103-.15.218-.122.335.08.67.156 1.004.234l.024.04.001-.002zm4.859 7.836c-.076.322-.158.642-.226.965-.037.169-.12.215-.283.172a24.325 24.325 0 00-.849-.199c-.127-.029-.177-.093-.144-.226.073-.288.14-.578.203-.868.028-.125.09-.16.212-.13.353.086.708.165 1.061.247l.024.039h.002zm-20.733-4.892c.346.082.693.168 1.042.244.14.03.185.093.148.235a16.13 16.13 0 00-.191.81c-.032.156-.108.21-.266.17a21.724 21.724 0 00-.849-.196c-.15-.032-.19-.108-.153-.256.084-.326.155-.656.231-.983l.039-.023-.001-.001zm7.836-4.861c.328.077.656.158.985.23.119.026.164.074.146.204-.042.33-.145.645-.216.967-.021.096-.087.125-.181.102-.302-.071-.604-.145-.908-.212-.14-.03-.133-.118-.107-.225l.244-1.044.037-.022zm-4.896 20.74c.083-.348.169-.694.246-1.044.031-.143.097-.182.238-.145.275.072.552.135.83.196.108.023.155.066.14.189-.04.337-.144.659-.22.987-.029.127-.128.108-.223.086l-.986-.23a.425.425 0 00-.024-.038l-.001-.001zm19.632-6.309c-.034.148-.073.295-.103.444-.024.123-.084.166-.209.134a21.537 21.537 0 00-.771-.18c-.127-.027-.158-.093-.128-.213.076-.308.148-.617.217-.926.025-.113.08-.155.197-.127.263.065.526.127.791.186.117.026.148.088.119.2-.041.16-.076.321-.113.482zm-25.229-5.926c-.037.154-.076.308-.108.463-.024.113-.082.154-.197.126a31.09 31.09 0 00-.791-.185c-.117-.026-.147-.09-.119-.201.075-.308.148-.617.217-.926.026-.122.085-.165.21-.134.256.065.513.125.771.18.127.028.16.094.127.215-.041.152-.073.308-.11.463v-.001zm8.969 15.994c-.161-.038-.321-.077-.483-.113-.096-.022-.129-.076-.107-.173.066-.276.131-.553.195-.83.023-.1.085-.123.177-.101.321.076.642.152.964.225.106.024.141.082.115.187-.066.269-.129.54-.19.81-.025.11-.089.133-.19.108-.161-.04-.32-.076-.481-.113zm6.188-26.344c.155.037.308.076.463.108.113.024.155.08.126.197-.065.263-.127.526-.185.79-.026.118-.089.148-.201.121a42.404 42.404 0 00-.926-.217c-.121-.026-.166-.084-.134-.209.065-.256.126-.514.182-.771.027-.126.093-.16.213-.128.153.04.308.073.462.11zm7.432 19.904c-.071.295-.148.59-.212.887-.03.139-.089.19-.234.151a12.06 12.06 0 00-.734-.172c-.146-.03-.176-.1-.142-.238.074-.295.136-.593.204-.89.013-.008.026-.015.038-.024l1.056.247.024.038z" fill="#2B94FC"/><path d="M195.174 46.273c-.072.296-.148.59-.212.888-.031.138-.09.189-.234.15a12.162 12.162 0 00-.734-.171c-.147-.03-.177-.101-.143-.239.075-.295.137-.593.205-.89l.038-.024 1.056.248.024.038zm4.571 8.919c-.296-.072-.59-.147-.887-.212-.138-.03-.189-.09-.15-.234.064-.243.122-.488.171-.735.03-.146.102-.177.239-.143.295.074.593.137.889.204l.024.04-.247 1.057a.397.397 0 00-.039.023zm8.053 1.855l.248-1.057a.487.487 0 00.038-.024c.296.072.59.147.888.212.139.03.189.09.151.234a12.24 12.24 0 00-.172.735c-.029.146-.101.176-.238.142-.295-.075-.593-.137-.889-.205-.008-.012-.017-.025-.024-.038l-.002.001zm9.977-13.998c.072-.296.148-.59.213-.888.031-.14.091-.19.234-.151.243.065.488.122.734.172.147.03.177.102.143.24-.075.295-.137.593-.205.89l-.038.022-1.057-.247-.024-.038zm-21.827-5.119c.071-.295.148-.59.213-.887.03-.14.09-.19.234-.151.242.065.487.122.734.172.147.03.176.102.142.24-.074.294-.136.592-.204.89l-.038.022-1.057-.247-.024-.038zm17.255-3.797c.296.071.59.148.888.212.138.03.189.09.151.234-.065.242-.122.488-.172.734-.03.146-.101.177-.239.142-.295-.074-.593-.136-.889-.204l-.024-.038.249-1.057.038-.024h-.002zm-8.053-1.856l-.248 1.057-.038.023c-.296-.072-.59-.147-.887-.212-.138-.03-.189-.09-.151-.234.065-.243.122-.488.172-.735.03-.146.101-.177.239-.143.295.074.593.137.889.204.007.014.016.026.024.04z" fill="#2B94FC"/></g></g><path d="M42.168 85.125l.156-.094.461-2.96-.745.717c-.743.716-2.312 1.044-3.395 1.12 2.85-11.67 6.215-28.504 10.862-54.334l.155-.865-5.754 3.54-.102.61c-1.006 6.025-2.046 12.255-3.404 17.08-1.474 5.236-3.114 8.05-5.012 8.595-.127-.11-.48-.678-.684-3.649-.16-2.337-.19-5.438-.222-8.721-.039-4.017-.079-8.169-.363-11.364-.351-3.962-1.019-5.73-2.163-5.73-.839 0-2.246.669-3.764 1.788L24.85 33.31a6.3 6.3 0 00.053-.785c0-1.955-.83-3.373-1.972-3.373-1.825 0-4.288 1.141-6.757 3.132-2.528 2.038-4.978 4.872-7.155 8.264 2.242-11.532 4.642-24.928 4.642-31.508 0-2.666-.32-4.44-1.886-4.44-1.433 0-2.74.728-4.003 1.434-.243.136-.493.276-.742.41l-.044.023-4.554 4.516 4.91-2.118c.46.59.758 1.488.758 3.541 0 7.082-2.977 22.69-5.37 35.23C1.507 54.048.45 59.584.1 62.44l-.1.806 5.685-3.496.042-.17a85.117 85.117 0 012.686-8.691c2.712.66 4.87 6.63 7.357 13.507 1.404 3.886 2.948 8.153 4.791 11.964a23.504 23.504 0 00-2.56 4.778c-1.428 3.588-2.152 7.788-2.152 12.485 0 9.084 3.126 16.758 6.826 16.758 1.27 0 3.151-.757 5.029-2.025 1.979-1.315 3.814-3.894 5.61-7.887 1.516-3.368 2.977-7.683 4.449-13.136 1.308-.488 2.746-1.213 4.406-2.208h-.001zm-19.416-4.743c2.96 4.753 6.216 7.28 9.917 7.685-2.603 10.217-4.502 16.331-5.65 18.189-1.43-.123-2.787-1.793-3.839-4.737-1.071-2.997-1.686-6.983-1.686-10.934 0-3.538.445-7.124 1.257-10.203h.001zm3.314-45.528l1.652-1.213c.406.698.702 2.349.881 4.92.19 2.713.23 6.153.271 9.48.11 9.121.268 14.712 2.066 14.712 1.797 0 5.766-2.165 8.196-4.33-2.003 10.297-3.646 18.081-5.151 24.38-2.1-1.175-4.07-3.28-5.95-6.346a42.608 42.608 0 01-1.776-3.226c.297-.295.605-.546.92-.75.68-.362 1.617-.61 2.947-.78l.086-.012 5.442-4.302-1.334.116c-2.374.209-4.984 1.246-7.978 3.17l-.008.006c-.329.224-.65.456-.965.694-1.55-3.372-2.908-7.033-4.16-10.402-1.4-3.772-2.721-7.334-4.09-9.931-1.58-2.999-3.06-4.395-4.66-4.395-.882 0-1.667.12-2.564.402.921-2.17 2.414-5.313 3.912-7.956 2.896-5.105 4.25-5.655 4.7-5.655.307 0 .753.787.753 2.211 0 2.345-1.702 5.386-4.554 8.136l-1.375 1.325 4.997-1.775.05-.044c2.092-1.862 3.797-3.879 4.933-5.835.588-1.013 1.02-1.995 1.284-2.916l1.475.317v-.001zm42.086-1.824c-1.202-2.517-2.723-3.96-4.173-3.96-1.562 0-3.688 1.077-5.832 2.957-5.147 4.541-7.842 20.688-10.695 37.78l-.03.172c-2.789 16.547-5.673 33.659-10.028 39.715l-1.003 1.394 6.176-3.248.053-.076c4.753-6.789 7.787-24.875 10.464-40.835.258-1.573.52-3.21.778-4.843l.508.293c.526.304 1.397.371 1.688.371 1.261 0 2.97-.678 4.688-1.86 2.772-1.797 5.12-4.745 6.792-8.527 1.557-3.52 2.415-7.561 2.415-11.381 0-2.618-.674-5.592-1.803-7.955l.002.002zM53.88 61.976l.338-2.145c.996-6.321 2.026-12.858 3.088-17.815 1.349-6.299 2.358-8.114 2.995-8.466 1.845 1.083 4.007 5.882 4.007 10.471 0 4.933-1.811 11.094-4.231 14.44-.199-.02-.38-.08-.647-.209l-.163-.078-5.387 3.802zm51.249-32.434l5.99-3.16.051-.07c2.007-2.71 2.983-5.19 2.983-7.583 0-2.029-.822-3.756-1.617-5.428-.745-1.566-1.449-3.046-1.449-4.673 0-1.249 0-2.8 1.514-4.22.895-.306 1.873-.454 2.987-.454 1.922 0 3.927.463 5.501 1.27 1.24.635 2.815 1.789 3.271 3.683l.121.503 5.541-3.592-.032-.282c-.176-1.567-1.451-3.007-3.59-4.056C124.483.54 122.063 0 119.76 0c-3.041 0-6.541 1.224-9.362 3.275-3.142 2.284-4.873 5.147-4.873 8.064 0 2.214.809 3.892 1.59 5.516.759 1.575 1.476 3.062 1.476 4.995 0 1.933-.855 4.033-2.472 6.301l-.991 1.39.001.001z" fill="#fff"/><path d="M116.178 58.401c-.239.077-.465.15-.673.15-1.759 0-2.542-1.771-2.542-5.742 0-7.096 2.762-19.574 3.977-23.167l.35-1.037-5.84 3.557-.037.187c-.567 2.85-2.345 8.576-4.645 14.002-2.42 5.707-4.779 9.61-6.717 11.133.18-2.313 1.077-6.566 2.02-11.041 1.123-5.327 2.284-10.835 2.46-14.054v-.027c0-1.15 0-3.29-1.46-3.29-1.839 0-5.571 2.883-6.671 3.767l-.826.663 2.804.27.317-.203c.19.545.19 1.544.19 1.913 0 3.512-1.37 9.667-2.58 15.096-1.037 4.656-1.933 8.676-1.933 10.69l.003.056c.11.947.514 1.428 1.202 1.428 2.932 0 5.894-2.763 7.862-5.08a36.629 36.629 0 004.115-6.022 40.225 40.225 0 00-.237 4.198c0 2.171.251 3.78.766 4.918.596 1.318 1.547 1.986 2.825 1.986.745 0 1.367-.13 2.079-.435l.042-.018 3.931-3.159-.559-.808-.221.071-.002-.002z" fill="#fff"/><path d="M163.463 57.912l-.378.177c-.087.04-.188.042-.348.042-.9 0-2.409-.708-2.409-5.453 0-2.728.411-4.883.896-6.475 1.128-3.708 1.379-7.608.604-11.394-.662-3.234-1.774-6.076-3.662-6.076-1.291 0-2.834.42-4.66 1.274 0 0-11.881 5.96-12.262 27.596l-.155.076c-.101.049-.24.122-.4.207-.367.194-.862.456-1.203.577-1.326-.174-1.999-1.8-1.999-4.833 0-4.758 1.466-11.622 2.644-17.137.616-2.886 1.149-5.379 1.355-7.027l.102-.816-5.632 3.526-.024.213c-.133 1.2-.56 3.102-1.054 5.303-.417 1.857-.887 3.95-1.276 6.05a14.99 14.99 0 01-2.941.273c-.785 0-1.587-.06-2.374-.127.849-4.358 1.279-7.793 1.279-10.213 0-2.228-.152-4.605-1.971-4.605l-.044.004c-1.3.193-4.081 2-6.114 3.598l-.118.093-.557 2.952 2.792-2.093c.165.328.366 1.234.366 3.173 0 1.774-.28 3.975-.706 6.716-.096-.006-.202-.014-.317-.02-.348-.024-.745-.05-1.094-.05h-.106l-5.499 4.281h1.176c.988 0 1.943.086 2.868.169.765.068 1.495.134 2.232.154-1.056 5.799-2.441 12.06-3.13 14.136l-.343 1.035 5.965-3.67v-.252c0-.767.583-3.163 1.258-5.938.388-1.593.825-3.387 1.22-5.158 1.544-.1 3.006-.362 4.577-.817l.068-.019.937-.809c-.627 3.64-1.187 7.073-1.187 10.032 0 1.797.228 3.224.679 4.238.529 1.19 1.357 1.837 2.461 1.926h.024c1.343.001 5.314-2.319 5.353-2.343l.09-.053.788-1.52c.051 2.886 1.434 3.5 2.6 3.5 3.467 0 7.038-1.998 10.623-5.94.091 1.68.304 2.864.67 3.766.586 1.442 1.607 2.174 3.037 2.174 1.555 0 3.909-1.635 5.174-2.513.205-.142.381-.265.508-.348l.272-.178-.658-1.383h.003zm-6.717-16.28c-.275 2.627-1.475 6.526-3.092 9.981-1.866 3.983-3.877 6.48-5.252 6.518-1.042-.004-1.262-1.45-1.262-2.662 0-5.93 0-17.3 6.366-22.534 2.261-1.86 3.437 4.177 3.464 6.215 0 0-.05 1.29-.223 2.482h-.001zM91.674 58.091c-.086.04-.187.042-.347.042-.9 0-2.41-.708-2.41-5.453 0-2.728.411-4.883.896-6.475 1.128-3.708 1.38-7.608.605-11.394-.662-3.234-1.775-6.076-3.662-6.076-1.292 0-2.834.42-4.66 1.274 0 0-12.272 6.156-12.272 28.665 0 3.027 1.414 3.662 2.601 3.662 3.468 0 7.039-1.997 10.624-5.94.09 1.68.303 2.864.67 3.766.586 1.442 1.606 2.174 3.036 2.174 1.555 0 3.91-1.634 5.175-2.513.204-.142.38-.264.507-.348l.273-.178-.658-1.383-.379.177zm-6.338-16.457c-.275 2.627-1.475 6.526-3.093 9.981-1.865 3.983-3.877 6.48-5.251 6.518-1.043-.004-1.263-1.45-1.263-2.662 0-5.93 0-17.3 6.367-22.534 2.26-1.86 3.436 4.177 3.464 6.215 0 0-.051 1.29-.224 2.482z" fill="#fff"/><defs><clipPath id="clip0_1185_37739"><path fill="#fff" transform="translate(182.762 21.458)" d="M0 0h47.238v47.238H0z"/></clipPath></defs></svg>