<svg width="108" height="40" fill="none" xmlns="http://www.w3.org/2000/svg"><path d="M50.107 11.274l-2.62-3.79v3.79h-1.87v-8.19h1.87v3.558l2.504-3.559h2.128l-2.761 3.99 2.876 4.2h-2.127zm5.588-2.691h-.887v2.69h-1.87v-8.19h3.271a2.797 2.797 0 012.808 2.81 2.692 2.692 0 01-1.51 2.375l1.74 3.006h-2.012l-1.54-2.69zm-.887-1.637h1.401a.99.99 0 00.938-1.053.991.991 0 00-.938-1.053h-1.401v2.106zm4.85.234a4.26 4.26 0 014.255-4.258 4.253 4.253 0 014.255 4.259 4.26 4.26 0 01-4.255 4.258 4.254 4.254 0 01-4.255-4.258zm6.64 0a2.387 2.387 0 00-3.297-2.204 2.386 2.386 0 00-.774 3.892 2.386 2.386 0 004.071-1.687zm2.575 0a4.154 4.154 0 012.609-3.964 4.144 4.144 0 011.646-.294 4.08 4.08 0 013.506 1.895l-1.613.938a2.116 2.116 0 00-1.893-1.007c-1.452 0-2.385.972-2.385 2.433 0 1.46.937 2.432 2.385 2.432a2.1 2.1 0 001.893-1.007l1.613.938a4.053 4.053 0 01-3.506 1.887 4.144 4.144 0 01-3.96-2.606 4.154 4.154 0 01-.296-1.644zm13.128 4.094l-2.619-3.79v3.79h-1.87v-8.19h1.87v3.558l2.504-3.559h2.127l-2.76 3.99 2.876 4.2H82zm-29.135 8.613a3.967 3.967 0 01-3.987 4.077h-3.276v-8.19h3.276a3.96 3.96 0 013.726 2.545c.192.5.28 1.033.26 1.568zm-1.801 0c0-1.403-.888-2.306-2.174-2.306h-1.402v4.58h1.39c1.298 0 2.186-.887 2.186-2.274zm4.725-4.113v8.19h-1.87v-8.19h1.87zm9.503 4.328c0 2.506-1.744 4.024-4.033 4.024-2.573 0-4.42-1.895-4.42-4.247a4.25 4.25 0 012.646-3.958 4.242 4.242 0 011.644-.312 4.184 4.184 0 013.579 1.872l-1.59.914a2.458 2.458 0 00-4.409 1.492c0 1.39.983 2.41 2.573 2.41 1.087 0 1.801-.481 2.093-1.265h-2.185v-1.63h4.105l-.003.7zm2.921-4.328v8.19h-1.87v-8.19h1.87zm6.903 1.806h-2.105v6.384h-1.859v-6.383H69.05v-1.807h6.08l-.012 1.807zm5.027 5.097h-3.041l-.411 1.287h-2.044l2.785-8.19h2.385l2.784 8.19h-2.047l-.41-1.287zm-.56-1.757l-.96-3.005-.942 3.005h1.901zm8.51 1.242v1.802h-4.797v-8.19h1.87v6.388h2.927zM45.207 34.795l1.613-.938a1.713 1.713 0 001.72 1.153c.888 0 1.11-.35 1.11-.669 0-.503-.468-.703-1.693-1.041-1.225-.338-2.408-.926-2.408-2.49 0-1.565 1.333-2.495 2.746-2.495a3.175 3.175 0 012.991 1.849l-1.578.926a1.433 1.433 0 00-1.413-.95c-.584 0-.876.293-.876.62 0 .326.2.63 1.475 1.018 1.275.388 2.63.807 2.63 2.54 0 1.58-1.263 2.518-3.041 2.518-1.72-.02-2.819-.838-3.276-2.041zm6.84-2.225a4.26 4.26 0 012.627-3.935 4.251 4.251 0 014.637.923 4.26 4.26 0 01-3.009 7.27 4.223 4.223 0 01-4.255-4.259zm6.64 0a2.387 2.387 0 00-2.878-2.29 2.384 2.384 0 00-1.705 3.26 2.385 2.385 0 002.198 1.462 2.326 2.326 0 002.385-2.433zm7.719 2.283v1.802h-4.797v-8.194h1.863v6.392h2.934zm.641-.842v-5.55h1.87v5.38c0 .62.292 1.154 1.287 1.154.994 0 1.286-.527 1.286-1.153v-5.38h1.87v5.549c0 1.756-1.355 2.81-3.156 2.81-1.801 0-3.157-1.057-3.157-2.81zM80.2 30.264h-2.104v6.391h-1.87v-6.391H74.12V28.46h6.08v1.803zm2.69-1.803v8.194h-1.87v-8.194h1.87zm1.052 4.109a4.261 4.261 0 012.626-3.935 4.251 4.251 0 014.638.923 4.26 4.26 0 01-3.01 7.27 4.223 4.223 0 01-4.254-4.259zm6.64 0a2.388 2.388 0 00-2.878-2.29 2.384 2.384 0 00-1.706 3.26 2.386 2.386 0 002.199 1.462 2.325 2.325 0 002.385-2.433zm9.355-4.109v8.194h-1.402l-3.157-4.447v4.447h-1.874v-8.194h1.402l3.156 4.447V28.46h1.875zm.875 6.334l1.613-.938a1.714 1.714 0 001.721 1.153c.887 0 1.11-.35 1.11-.669 0-.503-.469-.703-1.694-1.041-1.225-.338-2.408-.926-2.408-2.49 0-1.565 1.333-2.495 2.746-2.495a3.176 3.176 0 012.992 1.849l-1.579.926a1.434 1.434 0 00-1.413-.95c-.584 0-.875.293-.875.62 0 .326.199.63 1.474 1.018s2.631.807 2.631 2.54c0 1.58-1.264 2.518-3.042 2.518-1.72-.02-2.822-.838-3.276-2.041z" fill="#222"/><path d="M34.6.67H4.242A4.134 4.134 0 00.105 4.81v30.38a4.14 4.14 0 004.137 4.14H34.6a4.134 4.134 0 004.136-4.14V4.81A4.14 4.14 0 0034.6.67zm-3.925 14.397a2.996 2.996 0 01-.718.096l-3.353 6.465a3.001 3.001 0 011.136 2.762 3.032 3.032 0 01-2.213 2.536 3.025 3.025 0 01-3.712-2.135 2.99 2.99 0 01-.088-.907l-4.105-1.63a3.012 3.012 0 01-3.238.876l-2.711 3.46c.17.254.299.532.384.826a3.038 3.038 0 01-1.43 3.452 3.032 3.032 0 01-4.514-2.35 3.038 3.038 0 012.003-3.154 3.031 3.031 0 011.975-.02l2.71-3.459a3.001 3.001 0 01-.383-.826 3.037 3.037 0 012.131-3.724 3.03 3.03 0 013.722 2.133c.075.296.105.602.088.907l4.09 1.63a2.934 2.934 0 012.2-1.027l3.369-6.472a3.003 3.003 0 01-1.003-3.34 3.028 3.028 0 014.374-1.66 3.028 3.028 0 01.775 4.617 3.026 3.026 0 01-1.489.933v.011z" fill="#EB5B31"/></svg>