<svg width="78" height="78" fill="none" xmlns="http://www.w3.org/2000/svg"><g clip-path="url(#clip0_6130_19618)" fill="#4F4F4F"><path d="M77.996 38.998c0 21.44-17.55 38.968-39.002 38.988A38.975 38.975 0 010 39.074C0 17.549 17.56-.017 39.083 0a38.964 38.964 0 0138.913 38.998zM15.504 67.327c13.132 11.642 36.745 12.6 51.291-4.007 14.478-16.528 10.239-39.347-1.65-50.185l-49.64 54.192zm4.452-48.182l3.424-2.62c-.377-.935-.75-1.767-1.045-2.626-.342-.966-.215-1.88.86-2.267 1.027-.366 1.756.086 2.167 1.092.36.877.757 1.736 1.103 2.527l4.273-.736c.052-.914-.096-1.89.21-2.695.246-.654.962-1.448 1.595-1.578 1.089-.223 1.585.685 1.623 1.712.03.955 0 1.91 0 2.87l3.828 1.191c.545-.904 1.045-1.712 1.548-2.555.562-.924 1.29-1.534 2.397-.883 1.106.65 1.027 1.544.438 2.51-.52.866-1.027 1.733-1.297 2.174l2.797 3.216c.853-.685 1.743-1.39 2.623-2.103.88-.712 1.784-.948 2.548.024.763.973.397 1.805-.49 2.514-1.027.811-2.017 1.64-3.123 2.544a3582.05 3582.05 0 013.02 4.855l15.269-16.669C50.297-1.03 26.595-2.092 11.789 14.002c-14.676 15.953-11.9 39.587 2.13 52.003l11.433-12.488c.223-.243.425-.507.685-.832l-2.935-3.366c-.794.88-1.332 1.79-2.13 2.253-.582.342-1.506.082-2.28.089-.04-.765-.019-1.532.062-2.294.054-.325.513-.586.79-.873 1.798-1.843 1.802-1.843.473-4.007a7.954 7.954 0 00-.52-.668c-1.048.528-2.024.987-2.97 1.504-1.026.572-2.129.92-2.804-.343-.674-1.263.155-2.003 1.254-2.534 1.027-.49 2.013-1.027 3.081-1.592l-1.53-3.612c-1.233.236-2.397.472-3.561.684-1.1.196-1.993-.106-2.202-1.304-.188-1.106.496-1.678 1.52-1.89 1.024-.213 2.079-.432 3.127-.648-.093-1.712-.175-3.235-.26-4.869-1.062-.246-2.103-.503-3.147-.732-1.045-.23-1.644-.85-1.442-1.942.202-1.092 1.072-1.397 2.085-1.223 1.014.175 2.096.418 3.133.63l2.02-4.273-2.037-1.883c-.767-.716-1.065-1.545-.308-2.397.808-.921 1.712-.723 2.538.041.643.565 1.29 1.123 1.965 1.719l-.003-.01zm26.986 10.79c-1.171-1.99-2.291-3.767-3.294-5.616-3.616-6.64-11.218-9.396-17.964-6.479-6.8 2.942-10.05 10.54-7.533 17.69a44.983 44.983 0 007.19 13.128c.662.832 1.398 1.606 2.175 2.493l3.29-3.62c-1.643-2.397-3.314-4.499-4.625-6.814a48.4 48.4 0 01-3.342-7.28c-1.75-4.794.644-9.697 5.341-11.33 4.181-1.452 8.458.342 10.732 4.369 1.37 2.441 2.917 4.794 4.479 7.345 1.394-1.51 2.455-2.698 3.554-3.876l-.003-.01zm-5.01 5.478c-1.784-2.945-3.455-5.711-5.136-8.471a6.65 6.65 0 00-8.318-2.757c-3.16 1.308-4.893 4.681-3.88 7.975a36.811 36.811 0 007.77 13.687l9.564-10.434z"/><path d="M49.767 33.003l1.387-1.562c1.157.894 2.29 1.733 3.376 2.623.73.6 1.349.62 2.113.02.941-.732 1.962-1.369 2.972-2.006.88-.558 1.78-.589 2.397.342.616.932.267 1.747-.596 2.35-.972.684-1.966 1.335-2.993 2.027.88 1.3 1.644 2.558 2.551 3.705a1.774 1.774 0 001.397.434c.894-.116 1.77-.65 2.637-.612.627.027 1.603.592 1.736 1.099.133.506-.394 1.544-.921 1.849-.955.548-2.12.722-3.26 1.075.14 1.616.274 3.137.425 4.838.962.25 1.99.52 3.02.781 1.096.277 1.746.921 1.441 2.096-.284 1.099-1.123 1.318-2.15 1.075-.935-.223-1.873-.418-2.801-.62-.853 1.733-1.671 3.404-2.548 5.188.716.544 1.637 1.007 2.192 1.743.414.558.685 1.606.442 2.184-.432 1.004-1.463.942-2.332.363-.87-.578-1.658-1.198-2.483-1.804l-5.444 3.267c.236.876.48 1.91.797 2.917.36 1.137 0 2.123-1.088 2.236-.627.062-1.586-.685-1.973-1.322-.537-.894-.685-2.023-.99-3.058-1.65-.085-3.228-.212-4.793-.209a1.5 1.5 0 00-1.079.726c-.37.757-.387 1.736-.873 2.38-.39.52-1.353 1.045-1.883.9-.531-.143-1.1-1.157-1.065-1.752.068-1.103.568-2.182.931-3.407l-4.191-2.144c-.493.63-.966 1.246-1.449 1.856-.79.993-1.486 2.572-3.081 1.469-1.596-1.103-.343-2.284.39-3.328.39-.562.798-1.107 1.26-1.743l-4.215-3.366 1.1-1.195c3.615 2.15 6.95 4.451 10.552 6.2 6.917 3.363 14.697.85 18.334-5.618 3.636-6.469 1.664-14.269-4.709-18.631-1.486-1.024-2.91-2.164-4.533-3.366z"/><path d="M44.688 38.238c.757-.685 1.168-1.072 1.524-1.394 2.226 1.634 4.38 3.123 6.43 4.746a8.725 8.725 0 012.26 10.828c-1.906 3.688-6.163 5.643-10.124 4.4-4.075-1.277-7.534-3.664-10.821-6.489l.575-.767c.175-.226.343-.449.579-.743 1.674 1.181 3.191 2.363 4.818 3.366 1.451.907 2.972 1.7 4.547 2.37a6.668 6.668 0 008.533-2.96c1.634-2.995.805-6.584-2.01-8.683-2.006-1.493-4.013-2.972-6.31-4.674z"/><path d="M51.078 47.997a4.403 4.403 0 01-2.948 4.188 4.63 4.63 0 01-4.962-1.39 7.33 7.33 0 00-1.904-1.528c-1.568-.866-2.284-2.588-1.62-4.198.686-1.691 2.476-2.397 4.254-1.835a5.67 5.67 0 002.239.277 4.491 4.491 0 014.941 4.486zm-1.839.637c-.024-2.287-1.564-3.568-3.164-3.082-1.058.315-1.876.517-2.739-.376-.226-.237-1.075-.206-1.352.034a1.82 1.82 0 00-.538 1.428 1.39 1.39 0 001.003.917c1.12 0 1.534.555 1.931 1.5.517 1.23 1.661 1.897 2.904 1.346.887-.404 1.534-1.37 1.955-1.767zM30.933 34.263a4.05 4.05 0 01-4.085-4.13 4.144 4.144 0 014.02-4.068 4.108 4.108 0 014.16 4.089 4.03 4.03 0 01-4.095 4.109zm2.243-4.03c-.144-1.254-.743-2.107-2.095-2.213a2.148 2.148 0 00-2.346 2.117c-.027 1.222 1.027 2.359 2.233 2.27 1.294-.093 2.024-.863 2.208-2.175z"/></g><defs><clipPath id="clip0_6130_19618"><path fill="#fff" d="M0 0h78v78H0z"/></clipPath></defs></svg>