<svg width="73" height="64" fill="none" xmlns="http://www.w3.org/2000/svg"><g clip-path="url(#clip0_6130_19636)" fill="#4F4F4F"><path d="M36.655 63.542H8.827c-5.416 0-8.14-2.66-8.14-7.924V8.336C.688 3.256 3.455.553 8.682.55H64.76c5.142 0 7.925 2.726 7.925 7.725v47.558c0 4.988-2.783 7.711-7.92 7.725-9.372-.002-18.742-.007-28.11-.016zm0-60.233H8.551c-3.507 0-5.05 1.523-5.05 4.944V55.67c0 3.631 1.48 5.105 5.169 5.105h56.073c3.597 0 5.12-1.501 5.12-5.016V8.485c0-3.722-1.464-5.173-5.242-5.173l-27.966-.003z"/><path d="M10.319 9.911v19c.142.055.29.095.44.12 3.081.107 3.079.104 4.361-2.671a707.025 707.025 0 012.092-4.497c.364-.776.564-1.73 1.74-1.7 1.272.03 1.37 1.104 1.66 1.931 1.185 3.372 2.335 6.757 3.598 10.437.262-.72.513-1.156.564-1.616.197-1.562 1.105-2.056 2.628-1.932 1.21.097 2.43.02 3.784.02.318-1.005.642-1.99.938-2.98 1.055-3.559 2.103-7.12 3.144-10.685.243-.828.524-1.656 1.582-1.639 1.057.017 1.314.85 1.511 1.697a5688.091 5688.091 0 003.933 16.724c.085.35.195.696.378 1.344.564-1.283 1.054-2.287 1.435-3.33.38-1.043 1.086-1.608 2.227-1.41 2.042.353 3.353-.411 4.125-2.276a7.846 7.846 0 011.311-2.105c.384-.439 1.043-.968 1.517-.916.474.052 1.094.695 1.289 1.208.752 1.97 1.361 3.992 2.027 5.993.113.345.25.681.358.97.7-1.056 1.164-2.482 2.143-3.034 1.02-.566 2.537-.276 3.922-.353V9.91H44.082c-.514 0-1.114.074-1.512-.155-.397-.229-.865-.797-.868-1.219-.003-.422.451-.985.863-1.222.411-.237.998-.155 1.508-.155h19.404c2.185 0 2.455.276 2.455 2.35v34.093c0 2.036-.282 2.334-2.331 2.334H9.749c-2.032 0-2.32-.3-2.32-2.345v-34.1c0-2.045.282-2.34 2.323-2.34h19.683c.42 0 .944-.091 1.235.113.437.31.98.842.978 1.275-.003.433-.564.976-1.001 1.255-.347.213-.91.11-1.376.113h-18.96l.008.003zM52.81 28.178c-.251.276-.412.386-.471.532-.888 2.207-2.467 3.168-4.923 2.795-.341-.052-.964.455-1.148.842-.919 1.953-1.716 3.959-2.599 5.928-.522 1.168-1.579 1.54-2.298.779a3.548 3.548 0 01-.708-1.592c-1.18-4.947-2.325-9.902-3.487-14.854-.119-.5-.282-.985-.564-1.874-1.007 3.416-1.912 6.395-2.755 9.38-.324 1.148-.955 1.69-2.204 1.634-1.39-.064-2.786-.014-4.176-.014-.564 2.044-1.024 3.967-1.672 5.824-.18.522-.896 1.129-1.41 1.187-.414.04-1.085-.618-1.342-1.104-.456-.888-.685-1.893-1.015-2.844-1.057-3.055-2.12-6.109-3.299-9.505-.86 1.843-1.635 3.338-2.255 4.894-.476 1.195-1.187 1.75-2.537 1.636-1.19-.102-2.394-.022-3.593-.022v11.312h52.679v-11.93c-2.43-.309-2.428-.309-3.321 1.686-.412.921-.846 1.837-1.24 2.759-.334.78-.709 1.768-1.693 1.492-.628-.176-1.249-1.012-1.508-1.688-.888-2.328-1.618-4.723-2.461-7.253zm-3.732 20.797a4.542 4.542 0 013.16 1.28 4.348 4.348 0 011.322 3.084 4.311 4.311 0 01-.344 1.71 4.391 4.391 0 01-.997 1.443 4.503 4.503 0 01-1.49.952 4.58 4.58 0 01-1.753.31 4.533 4.533 0 01-3.14-1.327 4.34 4.34 0 01-1.272-3.107 4.347 4.347 0 011.34-3.084 4.54 4.54 0 013.174-1.261zm-.06 6c1.04-.074 1.692-.604 1.692-1.616a1.443 1.443 0 00-.412-1.135 1.534 1.534 0 00-1.139-.455c-1.037-.05-1.705.514-1.753 1.523-.048 1.01.597 1.56 1.612 1.683zm16.914-1.561a4.345 4.345 0 01-1.345 3.071 4.538 4.538 0 01-3.166 1.255 4.574 4.574 0 01-1.742-.35 4.493 4.493 0 01-1.466-.983 4.382 4.382 0 01-.961-1.464 4.306 4.306 0 01-.305-1.714 4.353 4.353 0 011.4-3.053 4.546 4.546 0 013.19-1.204 4.535 4.535 0 013.131 1.336 4.342 4.342 0 011.264 3.106zm-4.423 1.564c.95-.13 1.607-.646 1.578-1.67a1.443 1.443 0 00-.445-1.12 1.534 1.534 0 00-1.15-.422c-1.046-.021-1.692.552-1.709 1.57-.017 1.019.637 1.548 1.726 1.645v-.003zm-48.771-.243h-3.51c-.945 0-1.734-.3-1.757-1.346-.022-1.046.73-1.402 1.692-1.404h7.44c.905 0 1.596.361 1.61 1.335.014 1.056-.722 1.404-1.691 1.41-1.258.01-2.521.005-3.784.005zm17.76-2.748c1.263 0 2.537-.019 3.79 0 .901.02 1.57.4 1.561 1.38-.008.98-.696 1.346-1.593 1.352-2.526.016-5.052.016-7.579 0-.905 0-1.567-.398-1.559-1.38.009-.982.691-1.338 1.59-1.352 1.26-.016 2.527 0 3.79 0z"/><path d="M38.277 8.92c-.564.315-1.182.916-1.709.856-.47-.055-1.128-.803-1.21-1.313-.115-.828.604-1.408 1.447-1.22.564.124.998.7 1.491 1.076l-.02.601z"/></g><defs><clipPath id="clip0_6130_19636"><path fill="#fff" transform="translate(.688 .544)" d="M0 0h72v63H0z"/></clipPath></defs></svg>