<svg width="75" height="75" fill="none" xmlns="http://www.w3.org/2000/svg"><g clip-path="url(#clip0_6130_19645)" fill="#4F4F4F"><path d="M52.821 70.055c-2.028-.75-3.616.46-5.216 2.144-2.932 3.08-3.074 3.137-6.882 1.289-2.144-1.04-3.918-1.046-6.068 0-3.816 1.857-3.984 1.816-6.873-1.283-1.62-1.739-3.257-2.405-5.65-2.2-4.252.363-4.403.256-5.973-3.675-.901-2.251-2.231-3.477-4.576-4.175-4.08-1.2-4.175-1.353-4.164-5.643 0-2.344-.77-3.902-2.608-5.325-3.836-2.963-3.46-2.847-1.941-6.979.814-2.216.559-3.934-.615-5.91-2.17-3.64-2.173-3.806.632-6.978 1.617-1.828 2.318-3.627 1.603-5.97-.928-3.04.087-5.128 3.106-6.226 2.28-.829 3.556-2.437 3.732-4.896.085-.62.223-1.232.412-1.828.47-1.831 1.098-2.607 2.947-2.607 3.732 0 6.352-1.539 7.974-4.925.774-1.608 2.18-2.188 3.872-1.504 3.477 1.405 6.473.745 9.191-1.773 1.232-1.141 2.67-1.159 3.91-.017 2.764 2.546 5.795 3.221 9.327 1.77 1.66-.684 3.011-.023 3.736 1.506 1.61 3.404 4.26 4.876 7.968 4.925 1.878.026 2.724.748 2.916 2.607.397 3.804 2.216 6.284 5.795 7.718 1.762.707 2.18 1.683 1.698 3.5-.924 3.499-.38 6.454 2.44 8.913 1.449 1.26 1.582 2.851.4 4.384-2.17 2.818-2.365 5.698-.87 8.942 1.003 2.196.76 2.915-1.234 4.308-2.72 1.904-4.346 4.154-3.891 7.648.29 2.266-.907 3.537-3.127 4.096-2.469.623-4.587 1.487-5.596 4.41-1.425 4.003-1.695 3.905-6.375 3.754zm-.434-2.178c.797 0 1.298-.09 1.756.014 1.573.362 2.251-.397 2.868-1.77 2.542-5.649.965-4.085 7.117-6.298 1.206-.434 1.6-.982 1.629-2.233.127-5.232.13-5.279 4.242-8.668 1.125-.924 1.278-1.718.85-3.05-1.937-6-2.105-3.874.837-9.329.704-1.31.652-2.103-.29-3.268-3.938-4.852-3.327-2.842-2.536-9.024.177-1.373-.127-2.12-1.396-2.845-5.538-3.169-4.162-1.448-5.671-7.46-.383-1.532-1.046-2.01-2.536-2.242-5.862-.912-4.291.192-7.548-4.594-1.009-1.483-1.916-1.825-3.629-1.414-5.546 1.333-3.801 1.48-8.452-1.512-2.376-1.53-1.658-1.692-3.906.07-2.556 2.001-5.043 2.639-8.247 1.61-2.872-.921-2.319-1.196-3.834 1.469-1.69 2.95-4.005 4.4-7.308 4.38-1.808 0-2.484.835-2.88 2.558-1.296 5.591-.308 4.056-5.217 6.988-1.987 1.182-2.147 1.19-1.61 3.456.747 3.154.356 5.875-2.212 8.076-.416.332-.75.755-.973 1.238a2.83 2.83 0 00-.16 1.64 5.17 5.17 0 00.925 1.778c1.788 2.338 1.831 4.716.718 7.41-1.139 2.755-.97 2.825 1.365 4.812.658.56 1.42 1.043 1.944 1.712a5.616 5.616 0 011.087 2.234c.248 1.13.329 2.29.24 3.444-.165 1.773.63 2.44 2.24 2.987 5.474 1.863 4.118.646 6.425 5.86.727 1.649 1.55 2.08 3.31 2.028 5.745-.21 3.934-.782 8.026 3.089 2.028 1.903 1.203 1.776 3.895.675 5.09-2.086 3.28-2.12 8.47 0 2.555 1.048 1.8 1.33 3.874-.727 1.933-1.898 3.657-4.17 6.587-3.094z"/><path d="M38.225 18.744c0 1.628.064 3.16 0 4.684-.27 5.357-2.756 9.27-7.71 11.707 0 4.186-.027 8.47.043 12.747 0 .39.559 1.057.933 1.115 2.457.377 4.926.64 7.406.898.721.042 1.444.042 2.165 0 .797 0 1.629.197 1.449 1.107-.084.446-.968 1.043-1.501 1.057-3.51.096-7.039.238-10.583-1.083-.747 2.05-2.434 2.21-4.26 2.112-.912-.05-1.83.017-2.744-.018-1.738-.063-2.964-1.144-3.007-2.868a183.01 183.01 0 01.02-9.82c.014-.458.736-.896 1.133-1.342.342.498.97.985.985 1.492.096 2.932.09 5.872.03 8.81-.027 1.179.367 1.642 1.57 1.62 5.016-.102 4.167.622 4.213-4.184.043-4.383-.026-8.766.032-13.146.02-1.29-.34-1.892-1.713-1.765a24.64 24.64 0 01-2.898.015c-.854-.026-1.24.336-1.2 1.205.073.67.049 1.345-.072 2.008a1.382 1.382 0 01-.927.883c-.348.038-1.075-.431-1.07-.657.053-1.449-.115-3.091.5-4.314 1.06-2.112 7.702-1.967 8.982.026.269.503.501 1.025.696 1.561 3.03-1.95 4.865-4.606 5.216-8.192.168-1.675.203-3.364.29-5.047.1-2.19 1.396-3.204 3.555-2.763 2.37.48 3.915 2.416 3.9 5.014a94.78 94.78 0 01-.194 6.353c-.084 1.28.235 1.8 1.646 1.739 2.837-.114 5.683-.018 8.525-.041 1.577 0 2.855.536 3.6 1.953.71 1.35.538 2.673-.337 3.945a1.332 1.332 0 00-.064 1.104c.751 1.657.432 3.062-.77 4.377a1.54 1.54 0 00-.29 1.205 3.983 3.983 0 01-.892 3.766 1.717 1.717 0 00-.253 1.33c.58 2.448-.78 4.525-3.291 4.728a27.113 27.113 0 01-4.472 0c-.47-.04-.886-.66-1.327-1.017.46-.38.884-1.01 1.391-1.086 1.13-.165 2.304-.076 3.46-.047 1.095.03 2.185-.084 2.185-1.448 0-1.249-1.003-1.448-2.07-1.448a1.888 1.888 0 01-1.158-.383 1.079 1.079 0 01-.191-1.011 1.518 1.518 0 01.973-.678c.756-.116 1.603.116 2.284-.139.553-.209 1.266-.918 1.266-1.402 0-.484-.77-1.133-1.33-1.318-.852-.29-2.229.153-2.107-1.286.119-1.374 1.449-.913 2.342-.988.336-.03.759.118.993-.038.537-.36 1.255-.78 1.4-1.31.238-.869-.438-1.396-1.318-1.523-.881-.128-2.113.319-2.098-1.078.014-1.518 1.359-.982 2.225-1.066.988-.098 1.739-.478 1.695-1.55-.046-.988-.768-1.347-1.718-1.341-2.987.011-5.973.011-8.96 0-2.567 0-3.477-.936-3.44-3.497.03-2.317.096-4.635.087-6.932-.003-1.776-.976-2.683-3.225-2.735z"/><path d="M9.509 37.571c.385-9.748 4.456-17.483 12.437-23.12a3.648 3.648 0 011.408-.658 1.075 1.075 0 01.916.484 1.491 1.491 0 01-.09 1.188c-.206.339-.66.536-1.017.776-8.859 5.977-13.255 17.092-10.789 27.287 2.547 10.536 11.632 18.749 22.287 19.855 7.882.82 14.845-1.471 20.69-6.918.29-.26.519-.675.846-.764.481-.134 1.029-.041 1.548-.044-.024.519.168 1.243-.102 1.524a28.152 28.152 0 01-3.445 3.068C37.158 72.81 12.867 62.566 9.862 41.592c-.194-1.332-.238-2.68-.353-4.02zM37.556 9.35c21.53.318 35.063 23.7 24.361 42.295-.049.081-.098.165-.153.243-.496.713-.832 1.92-2.029 1.185-1.066-.663-.29-1.512.128-2.242 6.065-10.386 4.407-23.42-4.32-31.667-7.396-6.987-16.144-8.934-25.939-6.057-.89.258-2.115 1.132-2.541-.38-.377-1.338 1.043-1.474 1.887-1.666 2.86-.651 5.74-1.156 8.606-1.712z"/></g><defs><clipPath id="clip0_6130_19645"><path fill="#fff" transform="translate(.688 .74)" d="M0 0h74v74H0z"/></clipPath></defs></svg>