<svg width="28" height="29" fill="none" xmlns="http://www.w3.org/2000/svg"><path fill-rule="evenodd" clip-rule="evenodd" d="M7.998 3.5c-.556.007-1 .465-.99 1.021v.998h-.997A3.03 3.03 0 003 8.529v.998h22.04V8.53a3.029 3.029 0 00-3.008-3.011h-.998v-.998a1.002 1.002 0 10-2.005 0v.998h-4.006v-.998a1.002 1.002 0 10-2.005 0v.998H9.01v-.998a1.002 1.002 0 00-1.013-1.02zM3 11.53v11.018a3.029 3.029 0 003.01 3.008h16.022a3.027 3.027 0 003.009-3.008V11.53H3zm5.012 4.007a1.002 1.002 0 110 2.003 1.002 1.002 0 010-2.003zm4.006 0a1.002 1.002 0 110 2.003 1.002 1.002 0 010-2.003zm4.006 0a1.002 1.002 0 110 2.003 1.002 1.002 0 010-2.003zm4.007 0a1.002 1.002 0 110 2.003 1.002 1.002 0 010-2.003zM8.01 19.543a1.002 1.002 0 110 2.003 1.002 1.002 0 010-2.003zm4.007 0a1.002 1.002 0 110 2.003 1.002 1.002 0 010-2.003zm4.006 0a1.002 1.002 0 110 2.003 1.002 1.002 0 010-2.003zm4.007 0a1.002 1.002 0 110 2.003 1.002 1.002 0 010-2.003z" fill="#7A7A7A"/></svg>