<svg width="41" height="41" fill="none" xmlns="http://www.w3.org/2000/svg"><rect width="41" height="41" rx="20.5" fill="#fff" fill-opacity=".7"/><path d="M25.274 11.47h-8.902a5.26 5.26 0 00-5.255 5.255v8.903a5.26 5.26 0 005.255 5.254h8.902a5.26 5.26 0 005.255-5.254v-8.903a5.26 5.26 0 00-5.255-5.254zm-4.45 15.014a5.314 5.314 0 01-5.309-5.308 5.314 5.314 0 015.308-5.307 5.314 5.314 0 015.308 5.308 5.314 5.314 0 01-5.308 5.307zm5.434-9.364a1.57 1.57 0 01-1.569-1.568 1.57 1.57 0 011.569-1.569 1.57 1.57 0 011.568 1.57 1.57 1.57 0 01-1.568 1.567z" fill="#2D2D2D"/><path d="M20.823 17.007a4.175 4.175 0 00-4.17 4.17 4.175 4.175 0 004.17 4.17c2.3 0 4.17-1.872 4.17-4.17 0-2.3-1.87-4.17-4.17-4.17zm5.435-1.885a.431.431 0 100 .862.431.431 0 000-.862z" fill="#2D2D2D"/></svg>