<svg width="88" height="88" fill="none" xmlns="http://www.w3.org/2000/svg"><rect width="88" height="88" rx="44" fill="#F8C62A"/><path d="M60.7 60.05L26.95 26.3a1.873 1.873 0 00-2.65 0 1.873 1.873 0 000 2.65l7.55 7.551c-.373.636-.6 1.444-.6 2.374v11.25a3.754 3.754 0 003.75 3.75h6.724l8.825 8.826a1.876 1.876 0 003.201-1.326v-2.974l4.3 4.3a1.87 1.87 0 002.65 0 1.873 1.873 0 000-2.652zm-6.95-32.425V48.25L40.625 35.125h1.106l8.813-8.831c.544-.525 1.35-.694 2.044-.394a1.851 1.851 0 011.162 1.725z" fill="#000"/></svg>