<svg width="60" height="54" viewBox="0 0 60 54" fill="none" xmlns="http://www.w3.org/2000/svg">
<path d="M12.3054 24.6223C12.4208 24.6223 12.538 24.5995 12.6506 24.5514C20.8176 21.0605 32.3793 15.4451 41.0773 8.5173C43.8444 6.31317 45.6334 4.52469 46.7201 3.3052L46.8808 5.07034C46.9225 5.52673 47.3056 5.8696 47.7551 5.8696C47.7821 5.8696 47.8087 5.86868 47.8362 5.86593C48.3195 5.82199 48.6757 5.39444 48.6317 4.91104L48.2802 1.04934C48.2816 0.756375 48.1374 0.469357 47.8719 0.301358C47.8311 0.275723 47.789 0.254666 47.746 0.236356C47.7419 0.234524 47.7377 0.232693 47.7336 0.230862C47.7158 0.223538 47.6974 0.217129 47.6791 0.211178C47.6672 0.207059 47.6553 0.202939 47.643 0.199734C47.6324 0.19653 47.6215 0.193783 47.6105 0.191037C47.5903 0.186001 47.5697 0.181424 47.5491 0.177762C47.5468 0.177304 47.5441 0.176846 47.5418 0.176846C47.4681 0.164487 47.3926 0.160367 47.317 0.167691L43.3693 0.527035C42.8859 0.570981 42.5293 0.998532 42.5737 1.48193C42.6176 1.96533 43.0438 2.32147 43.5286 2.27752L45.432 2.10449C44.397 3.26904 42.6318 5.04333 39.8527 7.24518C31.3177 14.0073 19.9734 19.51 11.9594 22.9355C11.5131 23.1259 11.3061 23.6427 11.4966 24.0891C11.6394 24.4223 11.964 24.6223 12.3054 24.6223Z" fill="black"/>
<path d="M6.79733 44.916H4.21875C3.73352 44.916 3.33984 45.3092 3.33984 45.7949C3.33984 46.2806 3.73352 46.6738 4.21875 46.6738H6.79733C7.28256 46.6738 7.67624 46.2806 7.67624 45.7949C7.67624 45.3092 7.28256 44.916 6.79733 44.916Z" fill="black"/>
<path d="M59.3912 35.6888C58.3026 34.0894 56.1108 33.6659 54.5059 34.744L51.2169 36.9453V11.9295C51.2169 11.2492 50.6635 10.6958 49.9832 10.6958H46.0954C45.4147 10.6958 44.8613 11.2492 44.8613 11.9295V18.2118C44.8613 18.6971 45.255 19.0907 45.7402 19.0907C46.2259 19.0907 46.6191 18.6971 46.6191 18.2118V12.4536H49.4591V38.1218L46.6191 40.0224V22.301C46.6191 21.8158 46.2259 21.4221 45.7402 21.4221C45.255 21.4221 44.8613 21.8158 44.8613 22.301V41.1989L43.5388 42.0842L41.6542 41.9785V16.6426C41.6542 15.9624 41.1008 15.4085 40.4201 15.4085H36.5327C35.8521 15.4085 35.2986 15.9624 35.2986 16.6426V36.629L32.0915 36.2596V22.2452C32.0915 21.5645 31.5376 21.011 30.8574 21.011H26.9696C26.2894 21.011 25.7359 21.5649 25.7359 22.2452V35.3207C24.6213 34.9989 23.5487 34.549 22.5288 33.9754V28.6269C22.5288 27.9466 21.9749 27.3932 21.2947 27.3932H17.4065C16.7262 27.3932 16.1728 27.9466 16.1728 28.6269V31.7044C15.3731 31.5886 14.5642 31.5277 13.7512 31.5277H11.1369V31.1281C11.1369 30.1132 10.3116 29.2874 9.29627 29.2874H1.09451C0.49118 29.2874 0 29.7786 0 30.3819V49.6021C0 50.2058 0.49118 50.6966 1.09451 50.6966H9.29627C10.3088 50.6966 11.1328 49.8749 11.1365 48.8632L24.045 53.7512C24.0688 53.7604 24.093 53.7682 24.1177 53.775C24.6346 53.9211 25.1514 53.9943 25.6586 53.9943C25.9309 53.9943 26.2006 53.9732 26.4661 53.9311L43.6528 51.4537C43.6569 51.4528 43.6615 51.4523 43.6656 51.4514C45.1405 51.2161 46.5312 50.5931 47.688 49.6492C47.6912 49.6469 47.6944 49.6442 47.6976 49.6414L58.7979 40.3296C58.8043 40.3246 58.8107 40.3191 58.8167 40.3136C60.1392 39.1389 60.3859 37.1509 59.3912 35.6888ZM37.0564 17.1667H39.8964V38.4578C39.1672 37.6453 38.1812 37.0676 37.0564 36.8474V17.1667ZM27.4933 22.7689H30.3333V36.0573L27.8197 35.768C27.7107 35.7524 27.6018 35.7355 27.4933 35.7176V22.7689ZM17.9306 29.151H20.7706V33.0525C19.8541 32.6355 18.9034 32.3027 17.9306 32.0546V29.151ZM57.6576 38.9915L46.572 48.291C45.6578 49.0353 44.5592 49.5274 43.3946 49.7147L26.2276 52.1889L26.2029 52.193C25.6952 52.2731 25.1665 52.2397 24.6304 52.0927L11.1369 46.9832V39.7382C11.1369 39.2525 10.7437 38.8593 10.258 38.8593C9.7728 38.8593 9.37912 39.2525 9.37912 39.7382V48.8559C9.37912 48.9017 9.34204 48.9388 9.29627 48.9388H1.75781V31.0452H9.29627C9.34204 31.0452 9.37912 31.0823 9.37912 31.1281V35.6485C9.37912 36.1337 9.7728 36.5274 10.258 36.5274C10.7437 36.5274 11.1369 36.1337 11.1369 35.6485V33.2855H13.7517C16.3701 33.2855 18.9487 33.9681 21.2251 35.2571C21.2279 35.2589 21.2306 35.2603 21.2334 35.2617C21.292 35.2951 21.3515 35.3272 21.4096 35.361C23.318 36.4775 25.3954 37.2003 27.5844 37.5102C27.5922 37.5111 27.5995 37.5121 27.6073 37.513L36.5479 38.5425C38.0946 38.7659 39.2816 40.0064 39.4359 41.5623L39.4766 41.9698L23.681 42.9443C23.6714 42.9439 23.6618 42.9434 23.6531 42.9425C23.1505 42.8967 22.6959 42.6587 22.3732 42.2723C22.0624 41.8997 21.508 41.8494 21.1354 42.1602C20.7628 42.4715 20.7124 43.0254 21.0237 43.3984C21.6467 44.1455 22.5243 44.6051 23.4966 44.6935C23.5373 44.6971 23.5785 44.6994 23.6124 44.7008C23.6385 44.7022 23.6646 44.7031 23.6906 44.7031C23.7012 44.7031 23.7209 44.7026 23.7314 44.7022C23.7392 44.7017 23.747 44.7017 23.7547 44.7008L40.4439 43.6708L43.7338 43.8557C43.9256 43.8667 44.1133 43.8145 44.2722 43.7083L46.2318 42.3969L55.4855 36.2038C56.2917 35.6622 57.3917 35.8746 57.9378 36.6776C58.4349 37.4086 58.3141 38.401 57.6576 38.9915Z" fill="black"/>
</svg>
