<svg width="52" height="60" viewBox="0 0 52 60" fill="none" xmlns="http://www.w3.org/2000/svg">
<path d="M41.9796 4.00781L48.4444 8.93848C48.9955 9.35883 49.4203 9.91969 49.6728 10.5604C49.8501 11.0105 50.359 11.2317 50.8088 11.0541C51.2588 10.8768 51.4798 10.3682 51.3025 9.91805C50.9329 8.98008 50.312 8.15977 49.5068 7.54559L48.6248 6.87281L49.4807 5.75074C50.4691 4.45477 50.2189 2.59617 48.9229 1.60781C48.2951 1.12898 47.518 0.923203 46.7358 1.02867C45.9534 1.13402 45.2587 1.53773 44.7798 2.16551L43.924 3.28758L43.0421 2.61492C41.3142 1.29727 39.0544 1.15371 37.2252 2.05207L37.0092 1.82449C35.9087 0.665039 34.3606 0 32.762 0H19.5624C17.9637 0 16.4155 0.665039 15.315 1.82461L15.0992 2.05207C13.2699 1.15359 11.01 1.29727 9.28234 2.61492L8.40038 3.28758L7.54456 2.16539C6.55597 0.869531 4.69749 0.619336 3.40151 1.60781C2.77374 2.08664 2.36991 2.78133 2.26456 3.56379C2.15921 4.34637 2.36499 5.12297 2.84382 5.75074L3.69964 6.87281L2.81769 7.54547C0.385576 9.40043 -0.0838768 12.8883 1.77108 15.3203L2.88648 16.7827C3.12284 17.0929 3.46597 17.2922 3.85245 17.3442C4.23448 17.3965 4.62273 17.2952 4.93257 17.0582L10.7185 12.6452L11.9822 14.302C5.92808 18.7005 1.98355 25.8345 1.98355 33.8734C1.98355 40.6275 4.76839 46.7425 9.2487 51.1336L7.72198 55.565C7.19183 57.1037 7.84069 58.7924 9.26464 59.5802C9.77628 59.8634 10.3332 59.9999 10.8843 59.9998C11.867 59.9998 12.8311 59.5656 13.486 58.7541L15.8996 55.7626C19.0166 57.2299 22.495 58.0521 26.1623 58.0521C29.7778 58.0521 33.2703 57.2473 36.4269 55.7651L38.8387 58.7541C39.4935 59.5656 40.4576 59.9998 41.4403 59.9998C41.9914 59.9998 42.5485 59.8632 43.06 59.5802C44.4839 58.7924 45.1328 57.1038 44.6026 55.565L43.0787 51.142C44.8077 49.4466 46.2988 47.4762 47.4818 45.2722C47.7106 44.846 47.5505 44.315 47.1243 44.0863C46.698 43.8574 46.1672 44.0176 45.9384 44.4438C42.0129 51.7574 34.4352 56.3006 26.1624 56.3006C13.796 56.3006 3.73538 46.24 3.73538 33.8736C3.73538 21.5073 13.7959 11.4466 26.1621 11.4466C38.5284 11.4466 48.5891 21.5073 48.5891 33.8736C48.5891 36.2904 48.2051 38.6688 47.4477 40.9432C47.2949 41.4022 47.5431 41.8982 48.0021 42.051C48.4612 42.2037 48.9571 41.9556 49.1099 41.4967C49.9267 39.0435 50.341 36.4787 50.341 33.8736C50.341 25.8347 46.3964 18.7008 40.3423 14.3023L41.6059 12.6455L47.3918 17.0584C48.0085 17.548 48.9742 17.4163 49.4378 16.783L50.5535 15.3203C50.7132 15.1109 50.8586 14.8895 50.9857 14.6623C51.222 14.2402 51.0715 13.7065 50.6494 13.4701C50.2269 13.2339 49.6936 13.3846 49.4573 13.8066C49.3699 13.9622 49.2701 14.1143 49.1605 14.2582L48.2221 15.4886L35.7217 5.9543L36.6601 4.72395C37.9293 3.05988 40.3157 2.73855 41.9796 4.00781ZM46.1726 3.22781C46.5754 2.69977 47.3324 2.59805 47.8605 3.00059C48.3884 3.40324 48.4903 4.16039 48.0878 4.68832L47.2319 5.81051L45.3169 4.35L46.1726 3.22781ZM42.9464 56.1359C43.1989 56.8685 42.8898 57.6725 42.2119 58.0477C41.5339 58.4227 40.6886 58.2573 40.2019 57.6543L38.0161 54.9452C39.3054 54.2188 40.5276 53.3742 41.6665 52.421L42.9464 56.1359ZM12.1225 57.6543C11.6358 58.2573 10.7907 58.4225 10.1126 58.0477C9.43456 57.6725 9.12565 56.8685 9.37808 56.1359L10.6605 52.4137C11.794 53.3631 13.0156 54.2105 14.311 54.9421L12.1225 57.6543ZM4.23659 4.68855C4.04147 4.43285 3.95769 4.11633 4.00058 3.79758C4.04347 3.47883 4.208 3.19582 4.4637 3.0007C4.9914 2.59816 5.74866 2.69988 6.15155 3.22793L7.00737 4.35012L5.09253 5.81062L4.23659 4.68855ZM4.1023 15.4884L3.16386 14.2581C1.8946 12.594 2.21593 10.2076 3.87999 8.93848L10.3446 4.00781C11.0308 3.48445 11.8392 3.23168 12.642 3.23168C13.7862 3.23168 14.9184 3.7459 15.6642 4.72395L16.6026 5.9543L4.1023 15.4884ZM33.8658 6.20414C33.9178 6.59062 34.1172 6.93363 34.4271 7.17L40.213 11.5829L38.8861 13.3226C35.4203 11.1689 31.3729 9.86754 27.038 9.71227V7.60559H30.0797C30.5635 7.60559 30.9556 7.21348 30.9556 6.72973C30.9556 6.24598 30.5635 5.85387 30.0797 5.85387H22.2444C21.7607 5.85387 21.3686 6.24598 21.3686 6.72973C21.3686 7.21348 21.7607 7.60559 22.2444 7.60559H25.2863V9.7125C20.9514 9.86766 16.904 11.1691 13.4382 13.3228L12.1112 11.5832L17.897 7.17023C18.2072 6.93387 18.4066 6.59074 18.4586 6.20426C18.5106 5.81777 18.409 5.43422 18.1725 5.12414L17.0571 3.66164C16.8971 3.45176 16.7241 3.25758 16.5414 3.07711L16.5856 3.03059C17.3569 2.21789 18.4418 1.75184 19.5623 1.75184H32.7619C33.8823 1.75184 34.9673 2.21789 35.7385 3.03059L35.7828 3.07723C35.6002 3.2577 35.4272 3.45176 35.2671 3.66164L34.1516 5.12414C33.9153 5.4341 33.8137 5.81766 33.8658 6.20414Z" fill="black"/>
<path d="M11.7617 20.4431C11.3939 20.1291 10.8411 20.1727 10.5269 20.5405C7.3532 24.2572 5.60547 28.9924 5.60547 33.8739C5.60547 45.2099 14.8279 54.4323 26.1639 54.4323C37.4999 54.4323 46.7223 45.2099 46.7223 33.8739C46.7223 22.5379 37.4999 13.3154 26.1639 13.3154C21.5814 13.3154 17.2423 14.7966 13.6158 17.5989C13.2331 17.8946 13.1625 18.4447 13.4583 18.8275C13.754 19.2101 14.3041 19.2809 14.6869 18.985C18.0038 16.422 21.9726 15.0671 26.1639 15.0671C36.5339 15.0671 44.9706 23.5038 44.9706 33.8739C44.9706 44.2439 36.5339 52.6806 26.1639 52.6806C15.7939 52.6806 7.35719 44.2439 7.35719 33.8739C7.35719 29.4091 8.95598 25.0779 11.8589 21.678C12.1731 21.3102 12.1295 20.7573 11.7617 20.4431Z" fill="black"/>
<path d="M26.1609 19.2319C25.6771 19.2319 25.285 19.624 25.285 20.1078V29.7814C23.6792 30.1247 22.4122 31.3918 22.0688 32.9976H17.5946C17.1109 32.9976 16.7188 33.3897 16.7188 33.8735C16.7188 34.3572 17.1109 34.7493 17.5946 34.7493H22.0688C22.4727 36.6378 24.1537 38.0585 26.1609 38.0585C28.4686 38.0585 30.3459 36.181 30.3459 33.8735C30.3459 31.8663 28.9252 30.1852 27.0368 29.7814V20.1078C27.0368 19.624 26.6448 19.2319 26.1609 19.2319ZM28.5942 33.8736C28.5942 35.2153 27.5027 36.3069 26.1609 36.3069C24.8192 36.3069 23.7276 35.2153 23.7276 33.8736C23.7276 32.5319 24.8192 31.4403 26.1609 31.4403C27.5027 31.4403 28.5942 32.5319 28.5942 33.8736Z" fill="black"/>
<path d="M20.8301 27.4898C20.3879 27.2942 19.8706 27.4938 19.6746 27.9361C19.4301 28.4884 18.8825 28.8453 18.2793 28.8453C17.6763 28.8453 17.1285 28.4884 16.8841 27.9361C16.6882 27.4936 16.1707 27.2939 15.7286 27.4898C15.2862 27.6856 15.0864 28.2029 15.2822 28.6452C15.8071 29.8309 16.9836 30.597 18.2793 30.597C19.575 30.597 20.7515 29.8309 21.2764 28.6452C21.4722 28.2029 21.2724 27.6856 20.8301 27.4898Z" fill="black"/>
<path d="M34.0447 30.5974C35.3404 30.5974 36.5169 29.8314 37.0419 28.6457C37.2377 28.2033 37.0378 27.686 36.5955 27.4902C36.1532 27.2945 35.636 27.4942 35.44 27.9366C35.1955 28.4889 34.6478 28.8457 34.0448 28.8457C33.4417 28.8457 32.894 28.4889 32.6497 27.9367C32.454 27.4943 31.9366 27.2945 31.4943 27.4902C31.0519 27.6859 30.852 28.2033 31.0478 28.6455C31.5724 29.8312 32.7487 30.5974 34.0447 30.5974Z" fill="black"/>
<path d="M16.9738 37.0617C16.778 36.6192 16.2605 36.4193 15.8184 36.6154C15.3761 36.8111 15.1763 37.3284 15.3721 37.7707C17.2616 42.0396 21.4968 44.798 26.1613 44.798C30.8258 44.798 35.0609 42.0396 36.9506 37.7707C37.1464 37.3283 36.9465 36.8111 36.5043 36.6152C36.062 36.4195 35.5447 36.6192 35.3488 37.0616C33.7395 40.6971 30.1331 43.0463 26.1613 43.0463C22.1893 43.0463 18.583 40.6972 16.9738 37.0617Z" fill="black"/>
</svg>
