<svg width="60" height="60" viewBox="0 0 60 60" fill="none" xmlns="http://www.w3.org/2000/svg">
<path d="M52.7643 10.7354C55.3021 10.7354 57.3717 8.6657 57.3717 6.12766C57.3717 3.59301 55.3021 1.52336 52.7643 1.52336C50.2297 1.52336 48.1602 3.59301 48.1602 6.12766C48.1602 8.6657 50.2297 10.7354 52.7643 10.7354Z" stroke="black" stroke-width="1.75781" stroke-miterlimit="10" stroke-linecap="round" stroke-linejoin="round"/>
<path d="M56.1312 9.27703C57.8851 10.0345 59.1241 11.7819 59.1241 13.805V16.6886C59.1241 17.4061 58.5361 17.9941 57.8186 17.9941H47.7203C47.0027 17.9941 46.418 17.4061 46.418 16.6886V13.805C46.418 11.7819 47.6537 10.0345 49.4109 9.27703" stroke="black" stroke-width="1.75781" stroke-miterlimit="10" stroke-linecap="round" stroke-linejoin="round"/>
<path d="M52.7643 50.8062C55.3021 50.8062 57.3717 48.7366 57.3717 46.1986C57.3717 43.6638 55.3021 41.5942 52.7643 41.5942C50.2297 41.5942 48.1602 43.6638 48.1602 46.1986C48.1602 48.7366 50.2297 50.8062 52.7643 50.8062Z" stroke="black" stroke-width="1.75781" stroke-miterlimit="10" stroke-linecap="round" stroke-linejoin="round"/>
<path d="M56.1312 49.3475C57.8851 50.1048 59.1241 51.8522 59.1241 53.8755V56.7589C59.1241 57.4764 58.5361 58.0645 57.8186 58.0645H47.7203C47.0027 58.0645 46.418 57.4764 46.418 56.7589V53.8755C46.418 51.8522 47.6537 50.1048 49.4109 49.3475" stroke="black" stroke-width="1.75781" stroke-miterlimit="10" stroke-linecap="round" stroke-linejoin="round"/>
<path d="M7.22906 10.7354C9.76699 10.7354 11.8365 8.6657 11.8365 6.12766C11.8365 3.59301 9.76699 1.52336 7.22906 1.52336C4.69125 1.52336 2.625 3.59301 2.625 6.12766C2.625 8.6657 4.69125 10.7354 7.22906 10.7354Z" stroke="black" stroke-width="1.75781" stroke-miterlimit="10" stroke-linecap="round" stroke-linejoin="round"/>
<path d="M3.87187 9.27703C2.11465 10.0345 0.878906 11.7819 0.878906 13.805V16.6886C0.878906 17.4061 1.46355 17.9941 2.18109 17.9941H12.2795C12.997 17.9941 13.5851 17.4061 13.5851 16.6886V13.805C13.5851 11.7819 12.3461 10.0345 10.5921 9.27703" stroke="black" stroke-width="1.75781" stroke-miterlimit="10" stroke-linecap="round" stroke-linejoin="round"/>
<path d="M7.22906 50.8062C9.76699 50.8062 11.8365 48.7366 11.8365 46.1986C11.8365 43.6638 9.76699 41.5942 7.22906 41.5942C4.69125 41.5942 2.625 43.6638 2.625 46.1986C2.625 48.7366 4.69125 50.8062 7.22906 50.8062Z" stroke="black" stroke-width="1.75781" stroke-miterlimit="10" stroke-linecap="round" stroke-linejoin="round"/>
<path d="M3.87187 49.3475C2.11465 50.1048 0.878906 51.8522 0.878906 53.8755V56.7589C0.878906 57.4764 1.46355 58.0645 2.18109 58.0645H12.2795C12.997 58.0645 13.5851 57.4764 13.5851 56.7589V53.8755C13.5851 51.8522 12.3461 50.1048 10.5921 49.3475" stroke="black" stroke-width="1.75781" stroke-miterlimit="10" stroke-linecap="round" stroke-linejoin="round"/>
<path d="M27.9019 2.81567C21.6136 3.27739 15.9067 5.82211 11.4653 9.76547M4.68867 42.358C3.02438 38.7867 2.09766 34.8069 2.09766 30.6079C2.09766 26.0666 3.18387 21.7813 5.11055 17.994M46.4843 53.0517C41.8602 56.4601 36.1466 58.4766 29.9613 58.4766C23.8125 58.4766 18.1323 56.4833 13.5214 53.1114M54.8155 17.994C56.7422 21.7813 57.8285 26.0666 57.8285 30.6079C57.8285 34.7937 56.9082 38.7602 55.254 42.3214M32.0542 2.81895C38.3425 3.28407 44.0527 5.84204 48.4907 9.79536" stroke="black" stroke-width="1.75781" stroke-miterlimit="10" stroke-linecap="round" stroke-linejoin="round"/>
<path d="M33.2615 45.2212C34.9557 44.8426 36.5402 44.1747 37.9619 43.2746L38.9818 44.2911C39.5132 44.826 40.3902 44.826 40.9251 44.2911L43.6456 41.5704C44.1804 41.0355 44.1804 40.1585 43.6456 39.6269L42.6292 38.6072C43.5293 37.1853 44.197 35.6006 44.5757 33.9063H46.0141C46.7682 33.9063 47.386 33.2885 47.386 32.5344V28.6842C47.386 27.93 46.7682 27.3122 46.0141 27.3122H44.5757C44.197 25.6179 43.5293 24.0333 42.6292 22.6081L43.6456 21.5915C44.1804 21.0567 44.1804 20.1831 43.6456 19.6481L40.9251 16.9275C40.3902 16.3925 39.5132 16.3925 38.9818 16.9275L37.9619 17.944C36.5402 17.0437 34.9557 16.376 33.2615 15.9972V14.5589C33.2615 13.8047 32.6437 13.1869 31.8896 13.1869H28.0395C27.2855 13.1869 26.6676 13.8047 26.6676 14.5589V15.9972C24.9734 16.376 23.3889 17.0437 21.9638 17.944L20.9473 16.9275C20.4125 16.3925 19.5388 16.3925 19.0041 16.9275L16.2835 19.6481C15.7486 20.1831 15.7486 21.0567 16.2835 21.5915L17.3 22.6081C16.3996 24.0333 15.732 25.6179 15.3534 27.3122H13.9149C13.1609 27.3122 12.543 27.93 12.543 28.6842V32.5344C12.543 33.2885 13.1609 33.9063 13.9149 33.9063H15.3534C15.732 35.6006 16.3996 37.1853 17.3 38.6072L16.2835 39.6269C15.7486 40.1585 15.7486 41.0355 16.2835 41.5704L19.0041 44.2911C19.5388 44.826 20.4125 44.826 20.9473 44.2911L21.9638 43.2746C23.3889 44.1747 24.9734 44.8426 26.6676 45.2212V46.6597C26.6676 47.4138 27.2855 48.0317 28.0395 48.0317H31.8896C32.6437 48.0317 33.2615 47.4138 33.2615 46.6597V45.2212Z" stroke="black" stroke-width="1.75781" stroke-miterlimit="10" stroke-linecap="round" stroke-linejoin="round"/>
<path d="M29.9585 35.7202C29.8822 35.7169 29.8057 35.6504 29.6496 35.5274L26.0553 31.9663L25.567 31.4813C24.3579 30.2289 24.3579 28.1791 25.567 26.9301C26.6633 25.794 28.4372 26.0763 29.6096 27.1327C29.8256 27.3288 29.9021 27.4251 29.9585 27.4251C30.0184 27.4251 30.0947 27.3288 30.3106 27.1327C31.4833 26.0763 33.2571 25.794 34.3534 26.9301C35.5591 28.1791 35.5591 30.2289 34.3534 31.4813L33.8618 31.9663L30.2708 35.5274C30.1146 35.6504 30.0383 35.7169 29.9585 35.7202Z" stroke="black" stroke-width="1.75781" stroke-miterlimit="10" stroke-linecap="round" stroke-linejoin="round"/>
<path d="M32.0251 20.5693C36.6956 21.5228 40.2102 25.6554 40.2102 30.6086C40.2102 36.2694 35.6194 40.8604 29.9589 40.8604C24.3018 40.8604 19.7109 36.2694 19.7109 30.6086C19.7109 25.6488 23.2387 21.5094 27.9226 20.5627" stroke="black" stroke-width="1.75781" stroke-miterlimit="10" stroke-linecap="round" stroke-linejoin="round"/>
</svg>
