<svg width="60" height="40" viewBox="0 0 60 40" fill="none" xmlns="http://www.w3.org/2000/svg">
<path d="M16.2812 20.9839H56.9038C58.0946 20.9839 59.0598 21.9491 59.0598 23.1399C59.0598 24.3306 58.0946 25.2959 56.9038 25.2959H49.075" stroke="black" stroke-width="1.75781" stroke-miterlimit="10" stroke-linecap="round" stroke-linejoin="round"/>
<path d="M45.5619 25.2959H3.09352C1.90277 25.2959 0.9375 24.3306 0.9375 23.1399C0.9375 21.9491 1.90277 20.9839 3.09352 20.9839H12.7682" stroke="black" stroke-width="1.75781" stroke-miterlimit="10" stroke-linecap="round" stroke-linejoin="round"/>
<path d="M38.0426 36.4546L30.9791 25.8193C30.5155 25.1212 29.4903 25.1212 29.0267 25.8193L21.9633 36.4546C21.446 37.2335 22.0044 38.2749 22.9394 38.2749H37.0664C38.0014 38.2749 38.5598 37.2335 38.0426 36.4546Z" stroke="black" stroke-width="1.75781" stroke-miterlimit="10" stroke-linecap="round" stroke-linejoin="round"/>
<path d="M22.9268 12.8301H7.12836C6.89645 12.8301 6.67355 12.7398 6.50703 12.5785L4.62711 10.7574C4.45344 10.5892 4.35547 10.3578 4.35547 10.116V6.20559C4.35547 5.58414 4.85926 5.08047 5.48059 5.08047H24.5745C25.1959 5.08047 25.6996 5.58414 25.6996 6.20559V10.116C25.6996 10.3578 25.6017 10.5892 25.428 10.7574L23.5481 12.5785C23.3816 12.7398 23.1587 12.8301 22.9268 12.8301Z" stroke="black" stroke-width="1.75781" stroke-miterlimit="10" stroke-linecap="round" stroke-linejoin="round"/>
<path d="M24.0234 20.9839C24.6448 20.9839 25.1486 20.4802 25.1486 19.8588V11.028" stroke="black" stroke-width="1.75781" stroke-miterlimit="10" stroke-linecap="round" stroke-linejoin="round"/>
<path d="M4.91016 11.028V19.8587C4.91016 20.4801 5.41395 20.9839 6.03539 20.9839" stroke="black" stroke-width="1.75781" stroke-miterlimit="10" stroke-linecap="round" stroke-linejoin="round"/>
<path d="M18.5216 5.08057V3.15037C18.5216 2.37377 17.8921 1.74436 17.1156 1.74436H12.9489C12.1724 1.74436 11.543 2.37377 11.543 3.15037V5.08057" stroke="black" stroke-width="1.75781" stroke-miterlimit="10" stroke-linecap="round" stroke-linejoin="round"/>
<path d="M13.0117 12.8304V14.5831C13.0117 15.6973 13.915 16.6006 15.0293 16.6006C16.1436 16.6006 17.0468 15.6973 17.0468 14.5831V12.8304" stroke="black" stroke-width="1.75781" stroke-miterlimit="10" stroke-linecap="round" stroke-linejoin="round"/>
<path d="M37.3216 7.32732L33.9163 10.2583C32.9067 11.1274 33.5212 12.7836 34.8535 12.7836H36.149V20.9839" stroke="black" stroke-width="1.75781" stroke-miterlimit="10" stroke-linecap="round" stroke-linejoin="round"/>
<path d="M53.1868 20.9839V12.7836H54.4823C55.8145 12.7836 56.4292 11.1275 55.4195 10.2584L46.1409 2.27209C45.2932 1.54248 44.0393 1.54248 43.1917 2.27209L39.9844 5.03268" stroke="black" stroke-width="1.75781" stroke-miterlimit="10" stroke-linecap="round" stroke-linejoin="round"/>
<path d="M47.3174 20.9839V16.956C47.3174 15.4908 46.1297 14.3031 44.6645 14.3031C43.1994 14.3031 42.0117 15.4908 42.0117 16.956V20.9839" stroke="black" stroke-width="1.75781" stroke-miterlimit="10" stroke-linecap="round" stroke-linejoin="round"/>
</svg>
