<svg width="74" height="91" viewBox="0 0 74 91" fill="none" xmlns="http://www.w3.org/2000/svg">
<g clip-path="url(#clip0_2640_24943)">
<path d="M58.5392 46.5248C56.9573 45.9305 55.3755 45.3362 53.7936 44.7419C54.7635 44.2754 55.7256 43.7935 56.6979 43.3301C57.5883 42.9063 57.9738 41.4093 56.8303 40.9783C55.6002 40.5175 54.3715 40.0535 53.1414 39.5926C58.7478 34.1882 64.4292 28.862 69.8783 23.296C70.3701 22.7932 70.1833 21.776 69.5155 21.5223C68.2791 21.0546 67.0516 20.5642 65.8227 20.0809C66.6024 19.3025 67.3953 18.5363 68.1664 17.7481C68.5034 17.4057 68.5471 17.0231 68.4213 16.6959C68.3653 16.3983 68.1849 16.1296 67.8044 15.9805C59.8104 12.8512 51.8194 9.71956 43.8269 6.59102C43.3566 6.40668 42.8252 6.46982 42.4799 6.87741C34.7648 15.9699 27.2776 25.2674 19.415 34.2337C18.9029 34.819 19.024 35.9816 19.8293 36.2626C20.9436 36.6508 22.0586 37.0336 23.1744 37.4226C22.4935 38.2097 21.8149 38.9998 21.1269 39.7817C20.6117 40.3655 20.7367 41.528 21.5405 41.8083C23.0056 42.3199 24.4744 42.8276 25.941 43.3361C18.5798 51.3527 10.9514 59.1187 3.66826 67.2071C2.60261 68.3926 4.14422 69.7573 5.36603 69.1306C7.49691 68.0372 9.62929 66.9406 11.7586 65.8463C9.61296 68.1316 7.47667 70.4252 5.3771 72.7536C4.3099 73.9383 5.85307 75.3038 7.07487 74.6771C24.1058 65.9313 41.1264 57.1113 58.4091 48.8796C59.2995 48.4558 59.6834 46.9581 58.5415 46.5279L58.5392 46.5248ZM21.7446 64.2634C21.7192 63.6903 21.6807 63.1166 21.6723 62.5439C21.6653 61.968 21.6583 61.3844 21.5721 60.8149C22.1119 60.5387 22.6532 60.2632 23.1938 59.9893C23.1123 60.5709 23.1096 61.1748 23.0984 61.669C23.0883 62.0811 23.0082 62.9189 23.1653 63.5396C22.6913 63.7819 22.218 64.0227 21.7439 64.265L21.7446 64.2634ZM17.1012 66.635C17.0576 66.1319 17.0355 65.6276 17.0343 65.1275C17.0327 64.8116 17.0857 64.3816 17.0712 63.977C17.4793 63.5456 17.8843 63.1128 18.294 62.6821C18.2737 63.1912 18.2921 63.7034 18.3159 64.2239C18.3411 64.7297 18.2382 65.4317 18.3948 65.9696C17.9629 66.1916 17.5309 66.4137 17.0996 66.6342L17.1012 66.635ZM16.0808 65.3559C16.0451 65.9614 16.0431 66.556 16.1042 67.1462C14.8067 67.8116 13.5084 68.4787 12.2102 69.1457C13.4994 67.7635 14.7949 66.3881 16.0928 65.0158C16.0908 65.1397 16.0863 65.2567 16.0808 65.3559ZM19.273 64.1393C19.2022 63.4618 19.1031 62.8074 18.918 62.1657C19.4884 61.8733 20.0612 61.584 20.6323 61.2901C20.5859 61.7982 20.5618 62.3073 20.5322 62.812C20.4915 63.4957 20.457 64.1862 20.5724 64.8581C20.1932 65.0535 19.8117 65.2458 19.4309 65.4405C19.4188 64.9871 19.31 64.5047 19.273 64.1393ZM24.2074 62.2199C24.1616 61.4142 24.289 60.3857 24.1717 59.4862C24.8721 59.1292 25.5748 58.7713 26.2752 58.4142C26.1752 59.0543 26.1285 59.7025 26.1052 60.3657C26.0865 60.8717 26.0279 61.493 26.1871 61.9975C25.5524 62.3207 24.9178 62.6438 24.2831 62.967C24.2588 62.623 24.2119 62.3182 24.2059 62.2192L24.2074 62.2199ZM27.0338 60.2849C27.0158 59.5289 27.0465 58.7904 26.9809 58.054C27.6935 57.6912 28.4061 57.3246 29.1203 56.9626C29.0818 57.486 29.0974 58.0238 29.0853 58.504C29.0713 59.0757 28.9666 59.8614 29.1079 60.5072C28.4488 60.8417 27.7927 61.1777 27.1352 61.5129C27.1213 61.0951 27.0433 60.664 27.033 60.2826L27.0338 60.2849ZM30.0321 58.7681C30.0089 58.0826 30.08 57.2675 29.9491 56.5402C30.6006 56.2097 31.2506 55.8824 31.9036 55.5526C31.8763 55.9488 31.8822 56.3474 31.876 56.7075C31.8639 57.403 31.7886 58.3027 32.0143 59.0349C31.3919 59.3485 30.7695 59.666 30.1463 59.9812C30.1178 59.566 30.0461 59.1456 30.0336 58.7688L30.0321 58.7681ZM32.8791 56.9735C32.8403 56.3844 32.886 55.7184 32.8458 55.0805C33.5286 54.7362 34.2139 54.3988 34.8959 54.0522C34.8753 54.6341 34.8792 55.2162 34.8655 55.7995C34.8542 56.3417 34.7656 57.0179 34.8759 57.6008C34.258 57.9128 33.6378 58.2178 33.0206 58.5282C33.0098 58.0004 32.9093 57.4529 32.8783 56.9712L32.8791 56.9735ZM35.8288 55.7179C35.7833 55.0352 35.7309 54.3589 35.6156 53.6948C36.2052 53.3981 36.7963 53.1022 37.3874 52.8063C37.3894 53.1493 37.4045 53.4927 37.404 53.8248C37.4022 54.5426 37.2187 55.573 37.4722 56.307C36.9614 56.5625 36.4497 56.8157 35.9404 57.0719C35.9343 56.6021 35.8563 56.1191 35.8295 55.7163L35.8288 55.7179ZM38.2777 54.4613C38.2677 53.8359 38.2707 53.0996 38.1736 52.4134C38.7922 52.1038 39.4116 51.7926 40.0318 51.4837C40.0298 51.9188 40.0493 52.3566 40.0758 52.7958C40.1075 53.3719 40.116 54.2117 40.3277 54.8815C39.6471 55.2211 38.9665 55.5607 38.2859 55.9003C38.3544 55.4297 38.2858 54.907 38.2785 54.4597L38.2777 54.4613ZM40.9137 52.7215C40.8342 52.1897 40.8024 51.6539 40.7522 51.1208C41.5077 50.744 42.2601 50.3618 43.0173 49.9857C42.9758 50.5154 42.9597 51.0476 42.9383 51.5792C42.9166 52.1432 42.8729 52.889 43.0012 53.542C42.4146 53.8324 41.8311 54.1281 41.2438 54.42C41.1704 53.8278 40.9863 53.2077 40.9121 52.7207L40.9137 52.7215ZM43.8362 51.5028C43.8022 50.8679 43.8052 50.2392 43.7583 49.6154C44.364 49.3169 44.9745 49.0283 45.5795 48.7314C45.5655 49.2953 45.5807 49.8617 45.6024 50.4388C45.6235 50.981 45.5745 51.634 45.6222 52.2523C45.0868 52.5153 44.5483 52.7729 44.0137 53.0382C43.9619 52.5043 43.8615 51.9645 43.8362 51.5028ZM46.4464 50.3675C46.3935 49.7043 46.3369 49.0529 46.2511 48.4067C46.9172 48.0774 47.5881 47.7582 48.2566 47.432C48.2131 48.0856 48.2817 48.7677 48.3242 49.3529C48.3525 49.7526 48.3726 50.3367 48.4853 50.8708C47.8642 51.1735 47.2392 51.4686 46.6174 51.7729C46.5677 51.2823 46.4796 50.7926 46.4457 50.369L46.4464 50.3675ZM49.1821 49.2766C49.0862 48.5757 49.0711 47.8096 48.9794 47.0799C49.5393 46.8056 50.1007 46.5358 50.6621 46.2623C50.7915 46.3106 50.9232 46.362 51.0541 46.4111C50.9892 46.9142 50.9744 47.4278 50.9795 47.9278C50.985 48.4069 50.9166 49.0966 51.1051 49.6036C50.5467 49.8748 49.9883 50.1421 49.4322 50.4125C49.3438 50.0071 49.2293 49.6085 49.1836 49.2774L49.1821 49.2766ZM51.8958 47.8487C51.8756 47.4721 51.8592 47.0877 51.8304 46.7051C52.815 47.0775 53.7997 47.4499 54.7835 47.8239C53.8633 48.2622 52.9485 48.7129 52.0283 49.1551C52.0232 48.7031 51.9128 48.2161 51.8942 47.848L51.8958 47.8487ZM63.6961 22.1985C63.7826 22.8873 63.9484 23.5813 64.0409 24.2134C64.0684 24.4033 64.0353 25.1348 64.1202 25.7191C63.5725 26.2432 63.0239 26.7651 62.4731 27.2877C62.4273 27.0526 62.3793 26.8298 62.3449 26.6386C62.1898 25.7825 61.9915 24.9289 61.7657 24.0852C62.4113 23.4599 63.0545 22.8276 63.6961 22.1985ZM64.4727 21.9932C65.3049 22.3177 66.1355 22.6454 66.967 22.9715C66.3579 23.5643 65.7449 24.1533 65.1326 24.7407C65.0312 23.8719 64.7509 22.835 64.4727 21.9932ZM61.196 24.6353C61.249 25.1986 61.3428 25.7602 61.4229 26.3306C61.5072 26.932 61.5562 27.5317 61.5797 28.1366C61.0593 28.6315 60.5389 29.1264 60.0177 29.6191C59.9731 29.2058 59.9178 28.799 59.8783 28.4189C59.8029 27.6951 59.7344 26.9169 59.6207 26.1536C60.1479 25.6485 60.6735 25.1427 61.1976 24.6361L61.196 24.6353ZM58.8938 26.8535C58.9267 27.2553 58.9619 27.6564 58.9853 28.0422C59.0332 28.8355 59.0075 29.7032 59.0415 30.5456C58.6213 30.9424 58.2004 31.3407 57.7795 31.7391C57.7369 31.4133 57.6822 31.097 57.6412 30.8238C57.5277 30.0241 57.408 29.2215 57.2676 28.4224C57.8115 27.9022 58.3507 27.376 58.8946 26.8558L58.8938 26.8535ZM56.6925 28.9719C56.6915 29.3768 56.7207 29.7865 56.7607 30.2014C56.8154 30.7771 56.867 31.3512 56.8956 31.9297C56.9057 32.1439 56.8981 32.3593 56.892 32.5716C56.4627 32.9755 56.0342 33.3818 55.6049 33.7857C55.584 33.574 55.5603 33.3763 55.5464 33.2179C55.4703 32.2882 55.3707 31.3318 55.1983 30.4003C55.6966 29.9236 56.1911 29.4471 56.6909 28.9712L56.6925 28.9719ZM54.567 31.0075C54.5842 31.6458 54.6645 32.2875 54.7008 32.9215C54.7355 33.4953 54.7278 34.0737 54.6939 34.6474C54.1894 35.1249 53.6858 35.6048 53.1813 36.0823C53.1393 35.7395 53.0734 35.4025 53.0429 35.1113C52.9607 34.3381 52.8697 33.5511 52.7105 32.7834C53.328 32.1888 53.9456 31.5982 54.5655 31.0067L54.567 31.0075ZM52.1157 33.3542C52.1306 33.8455 52.1733 34.3385 52.2137 34.8285C52.2594 35.419 52.1623 36.2526 52.294 36.9264C51.81 37.385 51.3253 37.845 50.8421 38.3059C50.7484 37.9556 50.6216 37.6107 50.5598 37.3371C50.4049 36.656 50.3059 35.9498 50.1632 35.2591C50.8163 34.6259 51.4617 33.9851 52.118 33.3534L52.1157 33.3542ZM49.5146 35.8907C49.5636 36.3387 49.6464 36.7836 49.7327 37.2053C49.7943 37.5113 49.837 37.9564 49.9243 38.3881C49.2101 38.1198 48.4974 37.8524 47.7831 37.5842C48.3587 37.0176 48.9359 36.4557 49.5138 35.8922L49.5146 35.8907ZM42.8946 8.67017C43.8376 9.03804 44.7798 9.40747 45.722 9.7769C52.2345 12.3252 58.7478 14.872 65.2612 17.4226C58.4005 24.0722 51.3458 30.5176 44.5557 37.2431C44.0014 37.7929 44.2269 38.9285 44.9567 39.2042C47.6627 40.2298 50.3679 41.2532 53.0747 42.2774C38.746 49.1249 24.5932 56.3619 10.4616 63.6186C17.8371 55.6838 25.4219 47.9412 32.6084 39.8276C33.1259 39.243 32.9985 38.0736 32.194 37.7949C29.0007 36.6882 25.8074 35.5814 22.6134 34.4802C27.1061 29.2566 31.4531 23.9153 35.793 18.5649C36.5352 17.6495 43.7345 8.99842 42.8946 8.67017ZM27.311 41.0587C27.2283 40.5139 27.1394 39.9739 27.0859 39.4238C27.0641 39.202 27.0493 38.9817 27.0429 38.7596C27.8149 39.0266 28.5862 39.2952 29.3566 39.5614C28.8541 40.1225 28.3525 40.6859 27.8461 41.2433C27.668 41.1812 27.4876 41.12 27.3095 41.058L27.311 41.0587ZM26.3182 38.5095C26.299 38.7731 26.3013 39.0355 26.2934 39.2354C26.2731 39.7329 26.3043 40.2339 26.3594 40.729C25.6819 40.4956 25.0044 40.2622 24.326 40.0266C24.8154 39.4611 25.3047 38.8956 25.7901 38.3263C25.9651 38.3869 26.1416 38.4482 26.3182 38.5095Z" fill="#EB5B31"/>
<path d="M53.6647 52.7174C46.3656 55.8087 39.3528 59.8688 32.2323 63.3682C25.6916 66.5836 19.0771 69.662 12.638 73.0835C12.5509 73.1303 12.627 73.2781 12.715 73.2375C19.3496 70.2686 25.8589 67.0113 32.3859 63.8086C39.4751 60.3268 47.0684 57.1301 53.7346 52.8583C53.8086 52.8111 53.7474 52.6839 53.664 52.7189L53.6647 52.7174Z" fill="#2D2D2D"/>
<path d="M20.8038 29.9323C23.8975 26.4207 26.8373 22.7723 29.7788 19.1323C32.8541 15.3238 36.5278 11.392 38.772 7.01735C38.799 6.96491 38.7259 6.92233 38.6911 6.96333C35.3338 10.616 32.5631 14.9677 29.4424 18.8391C26.5025 22.4837 23.4116 26.0215 20.704 29.8462C20.6557 29.9153 20.7471 29.9993 20.8054 29.9331L20.8038 29.9323Z" fill="#2D2D2D"/>
<path d="M19.9369 30.8076C19.5982 31.1895 19.1708 31.6692 19.0093 32.1589C18.9909 32.2173 19.0425 32.2689 19.0998 32.2367C19.5697 31.9712 19.9455 31.3919 20.0664 30.8675C20.0831 30.7929 19.9862 30.7523 19.9377 30.806L19.9369 30.8076Z" fill="#2D2D2D"/>
<path d="M22.1755 44.2988C16.185 50.0327 10.6168 56.3544 5.09133 62.539C5.03977 62.5951 5.12557 62.6668 5.17874 62.6154C11.1325 56.8429 16.75 50.5735 22.2419 44.3594C22.2828 44.3136 22.2158 44.2585 22.1748 44.3004L22.1755 44.2988Z" fill="#2D2D2D"/>
<path d="M57.17 38.3165C61.6668 34.8239 66.5488 30.868 70.2189 26.4887C70.2522 26.4508 70.2012 26.3861 70.1594 26.4218C65.7021 30.135 61.1018 34.0238 57.0619 38.1957C56.9967 38.2644 57.0962 38.3754 57.1708 38.3188L57.17 38.3165Z" fill="#2D2D2D"/>
</g>
<defs>
<clipPath id="clip0_2640_24943">
<rect width="43.7753" height="79.7102" fill="white" transform="translate(34.3594) rotate(25.5353)"/>
</clipPath>
</defs>
</svg>
