<svg width="145" height="182" viewBox="0 0 145 182" fill="none" xmlns="http://www.w3.org/2000/svg">
<g clip-path="url(#clip0_2640_24818)">
<path d="M75.6911 131.494C77.9851 99.7472 82.5442 69.1299 89.4959 38.0472L84.0083 40.4518C96.3064 66.3737 109.527 91.2558 125.708 114.983C127.631 113.866 129.555 112.75 131.493 111.626C108.191 101.87 84.8893 92.1132 61.6107 82.3274L57.7409 86.1814C79.2396 81.3995 100.444 75.6259 121.453 69.0362C120.464 68.7005 119.49 68.3577 118.501 68.022C103.222 90.4695 85.0453 110.748 69.7724 133.211C68.167 135.568 75.5984 133.443 76.883 131.551C91.8983 109.171 109.803 88.9441 124.796 66.556C126.05 64.6773 122.36 65.3762 121.844 65.5418C101.401 72.0349 80.6919 77.5597 59.7731 82.2754C59.0856 82.4287 53.863 85.2836 55.9033 86.1294C79.2895 95.8282 102.66 105.534 126.03 115.277C127.269 115.793 133.047 113.734 131.815 111.92C115.646 88.2986 101.989 63.4342 89.4832 37.7016C88.6036 35.8902 84.2789 38.8455 83.9955 40.1061C77.2532 70.6843 70.9977 101.832 70.9492 133.275C70.9471 134.941 75.6334 133.002 75.7438 131.488L75.6911 131.494Z" fill="#EB5B31"/>
<path d="M114.901 46.9926C117.85 42.7898 120.01 38.0468 122.524 33.584C125.164 28.877 128.188 24.3986 130.806 19.6835C131.755 17.9839 127.409 19.58 126.855 20.3C120.887 28.2757 114.53 38.0795 111.297 47.5588C110.675 49.3653 114.462 47.6408 114.916 46.9855L114.901 46.9926Z" fill="#EB5B31"/>
<path d="M131.84 88.2241C141.964 90.6946 152.411 94.2176 162.664 95.8136C163.666 95.977 167.826 93.5424 166.422 92.9923C156.572 89.0808 144.946 87.6788 134.525 85.9204C133.539 85.7499 130.274 87.842 131.84 88.2241Z" fill="#EB5B31"/>
<path d="M99.6349 125.206C100.48 136.211 101.921 148.42 104.886 159.05C105.22 160.246 109.079 158.358 109.02 157.238C108.575 146.176 106.409 134.12 103.861 123.351C103.579 122.187 99.5411 124.01 99.6349 125.206Z" fill="#EB5B31"/>
<path d="M68.9364 58.8073C61.5656 51.3553 54.2157 43.4309 46.3263 36.5347C45.4768 35.7826 41.7411 37.8163 42.4646 38.7751C48.7263 47.2241 56.7725 55.2132 65.5096 61.0674C66.4525 61.7021 69.9731 59.8425 68.9294 58.7921L68.9364 58.8073Z" fill="#EB5B31"/>
<path d="M34.3113 123.487C42.8589 116.402 51.318 109.525 60.3513 103.047C62.9029 101.213 60.1096 100.976 58.438 101.957C48.5134 107.832 39.4769 115.218 31.3861 123.404C29.8252 124.981 33.666 124.009 34.3113 123.487Z" fill="#EB5B31"/>
</g>
<defs>
<clipPath id="clip0_2640_24818">
<rect width="136.005" height="137.345" fill="white" transform="translate(0 57.3611) rotate(-24.9455)"/>
</clipPath>
</defs>
</svg>
