<svg width="33" height="37" fill="none" xmlns="http://www.w3.org/2000/svg"><path fill-rule="evenodd" clip-rule="evenodd" d="M22.135 17.4L33 17.509l-5.513 8.485-5.352-8.592zm5.349-12.117l5.512 8.485-10.864.107 5.352-8.592zM14.048 16.826l-3.01-2.38.614 22.378s-2.778.93-3.124-1.484c-.306-2.12-1.162-11.194-1.162-11.194l-1.159.053s-.856 8.266-1.234 10.936c-.385 2.71-3.302 1.588-3.302 1.588l.888-16.44S-.47 17.559.063 15.18c.467-2.088 1.102-5.39 1.102-5.39 2.45-2.462 8.055-2.602 10.822-.069v.025l3.402 3.752s1.555.252 2.927.413c2.1.252 1.452 2.516 1.452 2.516l-5.72.399zM3.814 3.379c-.51-4.04 5.99-4.834 5.99-.306 0 4.596-5.508 4.194-5.99.306z" fill="#773844"/></svg>