<svg width="210" height="45" fill="none" xmlns="http://www.w3.org/2000/svg"><path d="M34.709 10.066l-1.174-1.304-12.238 13.596L7.51 7.039 6.336 8.343l13.787 15.319L6.336 38.984l1.174 1.303 13.787-15.321 10.977 12.197 1.174-1.306L22.47 23.661l12.24-13.595z" fill="url(#paint0_linear_207_1247)"/><path d="M48.411 20.251a.692.692 0 01.337.066.993.993 0 01.237.198l3.912 3.983 4.01-3.983a.733.733 0 01.217-.198.704.704 0 01.34-.066h2.242c.185 0 .294.069.327.208a.433.433 0 01-.005.21.398.398 0 01-.104.178l-5.301 5.403 5.453 5.532a.423.423 0 01.092.173.45.45 0 01.008.2c-.029.133-.133.198-.318.198h-2.516a.756.756 0 01-.348-.065.8.8 0 01-.237-.177l-4.209-4.278-4.327 4.278a.84.84 0 01-.218.177.69.69 0 01-.336.066h-2.243c-.185 0-.294-.066-.328-.198a.405.405 0 01.006-.205.37.37 0 01.104-.17l5.607-5.703-5.121-5.231a.414.414 0 01-.106-.176.452.452 0 01-.013-.212c.026-.14.13-.208.318-.208h2.52zm15.737-4.473a.35.35 0 01.176.018.382.382 0 01.15.103.44.44 0 01.094.167.48.48 0 01.016.196v2.108c0 .337-.147.506-.436.506H62.2a.366.366 0 01-.184-.02.4.4 0 01-.157-.107.459.459 0 01-.097-.175.495.495 0 01-.017-.204v-2.108c0-.324.152-.484.455-.484h1.947zm0 4.478c.29 0 .436.169.436.506v11.114a.475.475 0 01-.016.196.44.44 0 01-.093.167.383.383 0 01-.15.104.35.35 0 01-.177.018H62.2a.349.349 0 01-.176-.017.38.38 0 01-.152-.103.436.436 0 01-.093-.168.472.472 0 01-.015-.197V20.76c0-.337.145-.506.436-.506l1.947.003zm6.664-.005a3.03 3.03 0 01.735.077c.19.047.369.137.527.263.164.14.305.311.415.506.125.213.267.49.426.827l3.296 7.255a.33.33 0 00.113.144.282.282 0 00.164.054h.33a.26.26 0 00.168-.049.306.306 0 00.11-.149l3.278-7.252c.16-.337.301-.614.427-.827.11-.195.25-.367.415-.506.158-.127.337-.216.526-.264a3.09 3.09 0 01.735-.076h1.985c.288-.009.576.032.853.121.21.07.397.209.536.398.144.21.24.456.278.716.057.357.084.718.08 1.08v9.305a.474.474 0 01-.016.197.44.44 0 01-.094.168.382.382 0 01-.151.103.35.35 0 01-.177.017h-1.959a.347.347 0 01-.177-.017.379.379 0 01-.15-.103.437.437 0 01-.094-.168.472.472 0 01-.015-.197v-8.777c0-.148-.055-.222-.159-.222h-.18a.33.33 0 00-.168.032.315.315 0 00-.09.145l-3.254 7.144c-.184.398-.355.732-.507 1.004a3.014 3.014 0 01-.495.672 1.494 1.494 0 01-.614.374c-.27.079-.547.116-.826.11h-.872a2.735 2.735 0 01-.825-.11 1.494 1.494 0 01-.614-.374 3.276 3.276 0 01-.508-.672 10.12 10.12 0 01-.495-1.004l-3.255-7.144a.291.291 0 00-.098-.135.331.331 0 00-.168-.031h-.18c-.104 0-.159.073-.159.221v8.767a.472.472 0 01-.015.197.437.437 0 01-.093.168.38.38 0 01-.151.103.347.347 0 01-.177.017h-1.944c-.306 0-.458-.16-.458-.485v-9.307a6.04 6.04 0 01.08-1.08 1.71 1.71 0 01.278-.717 1.11 1.11 0 01.536-.398c.283-.09.578-.13.872-.12h1.975zm23.404 3.336a.286.286 0 01.145.014.313.313 0 01.123.084.36.36 0 01.077.137.39.39 0 01.014.16v1.58a.39.39 0 01-.014.161.362.362 0 01-.077.137.315.315 0 01-.123.085.289.289 0 01-.145.015h-5.974a.285.285 0 01-.145-.015.313.313 0 01-.123-.085.386.386 0 01-.088-.298v-1.585a.387.387 0 01.014-.16.36.36 0 01.075-.136.314.314 0 01.123-.085.286.286 0 01.144-.015l5.974.006zm14.919-3.329c.673 0 1.148.15 1.423.45.275.3.414.775.417 1.423v9.747c0 .324-.152.485-.455.485h-1.933a.346.346 0 01-.176-.017.387.387 0 01-.152-.104.444.444 0 01-.093-.167.482.482 0 01-.015-.197v-8.356a.427.427 0 00-.015-.188.411.411 0 00-.089-.16.361.361 0 00-.144-.1.332.332 0 00-.169-.016h-8.225a.333.333 0 00-.165.021.366.366 0 00-.14.1.42.42 0 00-.086.159.453.453 0 00-.014.184v8.359a.472.472 0 01-.016.196.436.436 0 01-.093.168.38.38 0 01-.15.104.347.347 0 01-.178.016h-1.944c-.306 0-.457-.16-.457-.484v-9.747c0-.645.139-1.12.417-1.423.278-.304.752-.454 1.422-.45l11.03-.003zm13.138-.007a8.52 8.52 0 012.242.264 3.28 3.28 0 011.459.79c.372.374.644.855.784 1.39.171.663.25 1.35.237 2.04v5.867c.005.291-.018.583-.068.869a1.19 1.19 0 01-.237.527.855.855 0 01-.446.276 2.689 2.689 0 01-.711.077h-9.453a4.8 4.8 0 01-1.458-.187 2.16 2.16 0 01-.949-.561 2.112 2.112 0 01-.507-.973 5.846 5.846 0 01-.15-1.409v-1.054a4.628 4.628 0 01.15-1.225c.094-.349.269-.664.507-.914.271-.27.596-.463.949-.563a4.888 4.888 0 011.458-.177h8.077v-.43a3.56 3.56 0 00-.099-.903 1.275 1.275 0 00-.337-.606 1.442 1.442 0 00-.654-.342 4.283 4.283 0 00-1.072-.111h-8.298a.287.287 0 01-.145-.014.315.315 0 01-.123-.084.36.36 0 01-.077-.137.394.394 0 01-.013-.16v-1.844a.394.394 0 01.013-.16.36.36 0 01.077-.137.317.317 0 01.123-.084.289.289 0 01.145-.014l8.576-.01zm1.308 9.681a.52.52 0 00.241-.028.556.556 0 00.207-.137.986.986 0 00.128-.585V27.24h-7.271a1.123 1.123 0 00-.866.264c-.085.11-.15.237-.191.375-.04.138-.056.283-.046.428v.464c-.027.314.058.627.237.872.248.208.558.302.866.263l6.695.026zm15.763-9.672a8.513 8.513 0 012.241.263c.537.129 1.038.4 1.46.79a3.1 3.1 0 01.783 1.39c.17.664.25 1.35.237 2.04v3.161a7.653 7.653 0 01-.237 2.042 3.087 3.087 0 01-.783 1.388c-.42.395-.922.666-1.46.79a8.788 8.788 0 01-2.241.243h-7.442v4.389a.48.48 0 01-.016.196.432.432 0 01-.094.167.377.377 0 01-.15.103.35.35 0 01-.176.018h-1.947c-.303 0-.455-.16-.455-.484V24.735a7.635 7.635 0 01.237-2.039 3.075 3.075 0 01.785-1.39c.418-.39.915-.661 1.448-.791a8.498 8.498 0 012.253-.264l5.557.008zm-7.442 9.46h7.162c.36.008.72-.03 1.072-.111.253-.058.484-.196.666-.398.174-.21.294-.469.347-.748.073-.385.106-.777.099-1.17V25.33a5.741 5.741 0 00-.099-1.156 1.592 1.592 0 00-.347-.75 1.383 1.383 0 00-.666-.399 3.985 3.985 0 00-1.072-.12h-5a3.928 3.928 0 00-1.053.12 1.385 1.385 0 00-.663.398 1.583 1.583 0 00-.349.75c-.071.381-.104.77-.097 1.157v4.39zm16.889-9.465c.291 0 .436.168.436.506v8.482c0 .148.052.219.159.219h.178a.252.252 0 00.149-.035.29.29 0 00.109-.118l5.951-7.753a6.25 6.25 0 01.474-.595c.146-.157.31-.29.489-.398.19-.11.394-.188.604-.232a4.16 4.16 0 01.863-.076h1.126c.607 0 1.057.161 1.35.485.291.324.436.932.436 1.844v9.294c0 .324-.152.484-.455.484h-1.947a.348.348 0 01-.177-.017.376.376 0 01-.151-.103.445.445 0 01-.108-.364v-8.494c0-.145-.052-.218-.159-.218h-.178a.314.314 0 00-.145.043.358.358 0 00-.113.11l-5.975 7.74c-.185.236-.351.44-.496.608a1.782 1.782 0 01-1.069.627c-.282.049-.568.07-.853.066h-1.072c-.61 0-1.063-.158-1.359-.474-.295-.317-.445-.922-.448-1.818V20.76a.49.49 0 01.115-.38.4.4 0 01.158-.107.366.366 0 01.185-.018h1.923zm28.913-.001a.285.285 0 01.144.014.319.319 0 01.124.084.372.372 0 01.09.297v1.844a.373.373 0 01-.09.297.32.32 0 01-.124.084.285.285 0 01-.144.014h-5.854v8.989a.48.48 0 01-.017.195.429.429 0 01-.093.168.384.384 0 01-.15.103.352.352 0 01-.177.018h-1.946c-.304 0-.455-.16-.455-.484v-8.978h-5.856a.287.287 0 01-.144-.015.318.318 0 01-.123-.085.371.371 0 01-.089-.296V20.66a.372.372 0 01.089-.296.32.32 0 01.123-.084.287.287 0 01.144-.015l14.548-.01zm11.971-.002a6.357 6.357 0 011.679.187c.394.095.757.308 1.05.616.272.313.461.701.548 1.125a7.83 7.83 0 01.159 1.689v2.107c0 .469-.095.79-.28.98-.246.2-.55.294-.853.263h-10.027v.527c0 .69.149 1.19.448 1.5.299.308.877.463 1.736.463h8.276a.287.287 0 01.144.015.318.318 0 01.123.084.372.372 0 01.089.296v1.844a.371.371 0 01-.089.296.318.318 0 01-.123.084.287.287 0 01-.144.015h-8.554a8.753 8.753 0 01-2.252-.242 3.16 3.16 0 01-1.449-.79 3.074 3.074 0 01-.785-1.389 7.654 7.654 0 01-.237-2.041v-3.162a7.635 7.635 0 01.237-2.039 3.084 3.084 0 01.785-1.39c.419-.39.916-.66 1.449-.79a8.49 8.49 0 012.252-.264l5.818.015zm-7.719 5.005h8.037a.271.271 0 00.137-.013.296.296 0 00.117-.08.354.354 0 00.085-.281v-.928a1.45 1.45 0 00-.258-.969c-.173-.192-.491-.287-.949-.287h-4.979c-.861 0-1.44.15-1.735.453-.296.302-.445.805-.448 1.51l-.007.595zm27.383-5.004a.284.284 0 01.143.015.304.304 0 01.123.085.374.374 0 01.089.296v1.843a.374.374 0 01-.089.296.304.304 0 01-.123.085.284.284 0 01-.143.015h-5.856v8.988a.482.482 0 01-.016.197.419.419 0 01-.093.167.377.377 0 01-.151.104.347.347 0 01-.177.017h-1.944c-.306 0-.457-.16-.457-.485v-8.978h-5.854a.287.287 0 01-.145-.014.315.315 0 01-.123-.084.36.36 0 01-.077-.137.394.394 0 01-.013-.16V20.66a.394.394 0 01.013-.16.36.36 0 01.077-.137.315.315 0 01.123-.084.287.287 0 01.145-.014l14.548-.01z" fill="#fff"/><path d="M28.594 9.414c0 1.215.324 2.402.931 3.412.608 1.01 1.471 1.797 2.481 2.262a5.015 5.015 0 003.194.349c1.072-.237 2.056-.823 2.83-1.682a6.38 6.38 0 001.511-3.145 6.778 6.778 0 00-.315-3.548c-.419-1.122-1.128-2.08-2.037-2.755a5.142 5.142 0 00-3.071-1.034c-1.465.003-2.87.65-3.905 1.801-1.036 1.152-1.618 2.712-1.62 4.34z" fill="url(#paint1_linear_207_1247)"/><path d="M13.841 7.69a8.31 8.31 0 00-1.166-4.272c-.76-1.265-1.841-2.25-3.106-2.833A6.28 6.28 0 005.571.148C4.228.444 2.995 1.177 2.027 2.252 1.059 3.328.4 4.698.133 6.19a8.486 8.486 0 00.394 4.442c.524 1.406 1.41 2.607 2.549 3.452 1.138.845 2.476 1.296 3.845 1.296 1.835-.003 3.594-.814 4.891-2.255 1.298-1.442 2.028-3.396 2.03-5.435z" fill="url(#paint2_linear_207_1247)"/><path d="M10.934 39.632a4.82 4.82 0 00-.676-2.478 4.138 4.138 0 00-1.802-1.643 3.642 3.642 0 00-2.319-.253 3.907 3.907 0 00-2.055 1.22 4.632 4.632 0 00-1.099 2.284 4.922 4.922 0 00.229 2.577A4.392 4.392 0 004.69 43.34c.66.49 1.436.752 2.23.752 1.064-.002 2.085-.472 2.837-1.308.753-.836 1.176-1.97 1.177-3.152z" fill="url(#paint3_linear_207_1247)"/><path d="M29.125 36.508c0 .821.219 1.623.63 2.306a3.85 3.85 0 001.675 1.528 3.388 3.388 0 002.158.236 3.635 3.635 0 001.912-1.136 4.31 4.31 0 001.022-2.124 4.58 4.58 0 00-.213-2.397 4.086 4.086 0 00-1.375-1.862 3.474 3.474 0 00-2.075-.7c-.99.002-1.939.44-2.639 1.217-.7.778-1.094 1.832-1.095 2.932z" fill="url(#paint4_linear_207_1247)"/><path d="M21.296 28.555a4.1 4.1 0 01-2.448-.825 4.82 4.82 0 01-1.622-2.197 5.4 5.4 0 01-.25-2.828c.17-.95.589-1.821 1.205-2.506a4.288 4.288 0 012.255-1.34 3.997 3.997 0 012.546.28 4.54 4.54 0 011.977 1.802 5.29 5.29 0 01.742 2.72 5.36 5.36 0 01-.335 1.873 4.96 4.96 0 01-.954 1.588c-.41.455-.895.815-1.43 1.061a4.025 4.025 0 01-1.686.372z" fill="url(#paint5_linear_207_1247)"/><defs><linearGradient id="paint0_linear_207_1247" x1="6.336" y1="23.662" x2="34.709" y2="23.662" gradientUnits="userSpaceOnUse"><stop offset=".21" stop-color="#304CBC"/><stop offset=".3" stop-color="#365ED0"/><stop offset=".41" stop-color="#3C6FE3"/><stop offset=".54" stop-color="#417CF1"/><stop offset=".7" stop-color="#4383F9"/><stop offset="1" stop-color="#4485FB"/></linearGradient><linearGradient id="paint1_linear_207_1247" x1="15.269" y1="-18.373" x2="59.475" y2="34.412" gradientUnits="userSpaceOnUse"><stop offset=".21" stop-color="#304CBC"/><stop offset=".3" stop-color="#365ED0"/><stop offset=".41" stop-color="#3C6FE3"/><stop offset=".54" stop-color="#417CF1"/><stop offset=".7" stop-color="#4383F9"/><stop offset="1" stop-color="#4485FB"/></linearGradient><linearGradient id="paint2_linear_207_1247" x1="-1.33" y1="-4.473" x2="42.876" y2="48.312" gradientUnits="userSpaceOnUse"><stop stop-color="#31DDA4"/><stop offset=".4" stop-color="#30DBA3"/><stop offset=".61" stop-color="#2CD3A0"/><stop offset=".78" stop-color="#26C59B"/><stop offset=".93" stop-color="#1DB293"/><stop offset="1" stop-color="#17A58E"/></linearGradient><linearGradient id="paint3_linear_207_1247" x1="-15.148" y1="7.097" x2="29.056" y2="59.883" gradientUnits="userSpaceOnUse"><stop offset=".21" stop-color="#304CBC"/><stop offset=".3" stop-color="#365ED0"/><stop offset=".41" stop-color="#3C6FE3"/><stop offset=".54" stop-color="#417CF1"/><stop offset=".7" stop-color="#4383F9"/><stop offset="1" stop-color="#4485FB"/></linearGradient><linearGradient id="paint4_linear_207_1247" x1="2.746" y1="-7.886" x2="46.95" y2="44.9" gradientUnits="userSpaceOnUse"><stop offset=".21" stop-color="#304CBC"/><stop offset=".3" stop-color="#365ED0"/><stop offset=".41" stop-color="#3C6FE3"/><stop offset=".54" stop-color="#417CF1"/><stop offset=".7" stop-color="#4383F9"/><stop offset="1" stop-color="#4485FB"/></linearGradient><linearGradient id="paint5_linear_207_1247" x1=".929" y1="-6.366" x2="45.134" y2="46.422" gradientUnits="userSpaceOnUse"><stop offset=".21" stop-color="#304CBC"/><stop offset=".3" stop-color="#365ED0"/><stop offset=".41" stop-color="#3C6FE3"/><stop offset=".54" stop-color="#417CF1"/><stop offset=".7" stop-color="#4383F9"/><stop offset="1" stop-color="#4485FB"/></linearGradient></defs></svg>