<svg width="24" height="24" fill="none" xmlns="http://www.w3.org/2000/svg"><path d="M12 2.4A9.597 9.597 0 002.4 12c0 5.304 4.296 9.6 9.6 9.6 5.304 0 9.6-4.296 9.6-9.6 0-5.304-4.296-9.6-9.6-9.6zm3.552 13.224c-.096.192-.312.288-.504.288a.639.639 0 01-.288-.072c-1.512-.888-3.288-1.032-4.488-1.008a11.513 11.513 0 00-2.328.312c-.312.096-.624-.096-.72-.408-.096-.312.096-.624.408-.72.048-.024 1.104-.312 2.568-.36.864-.024 1.704.024 2.472.168a8.611 8.611 0 012.664.984c.264.192.36.528.216.816zm1.056-2.232a.684.684 0 01-.6.336.551.551 0 01-.336-.096c-1.8-1.056-3.888-1.224-5.328-1.176-1.584.048-2.76.36-2.76.36a.69.69 0 01-.84-.48.69.69 0 01.48-.84c.048-.024 1.296-.36 3.048-.408a12.88 12.88 0 012.928.192c1.176.216 2.232.6 3.168 1.152.336.192.432.624.24.96zM18 10.92a.844.844 0 01-.72.408.978.978 0 01-.432-.12C12.552 8.688 6.984 10.2 6.936 10.2a.837.837 0 01-1.032-.6.837.837 0 01.6-1.032c.072-.024 1.608-.432 3.744-.504a16.008 16.008 0 013.6.264c1.44.264 2.736.744 3.888 1.416.36.264.504.792.264 1.176z" fill="#fff"/></svg>