<svg width="80" height="80" fill="none" xmlns="http://www.w3.org/2000/svg"><rect width="80" height="80" rx="40" fill="#0CC689"/><path fill-rule="evenodd" clip-rule="evenodd" d="M33.816 34.03v.47h-1.954c-.582 0-1.076.416-1.16.978l-.285 1.894a37.54 37.54 0 000 11.159c.249 1.658 1.62 2.94 3.329 3.112l.819.083a54.09 54.09 0 0010.87 0l.82-.083c1.708-.173 3.08-1.454 3.328-3.112a37.54 37.54 0 000-11.159l-.285-1.894a1.164 1.164 0 00-1.16-.979h-1.954v-.469c0-2.752-1.911-5.155-4.644-5.84a6.336 6.336 0 00-3.08 0c-2.733.685-4.644 3.088-4.644 5.84zm7.238-3.996a4.336 4.336 0 00-2.108 0c-1.87.47-3.177 2.113-3.177 3.996v.47h8.462v-.47c0-1.883-1.307-3.527-3.177-3.996zm-5.285 6.37a.965.965 0 00-.976-.952.964.964 0 00-.977.952v2.539c0 .526.438.952.977.952a.965.965 0 00.976-.952v-2.54zm10.415 0a.965.965 0 00-.977-.952.964.964 0 00-.976.952v2.539c0 .526.437.952.976.952.54 0 .977-.427.977-.952v-2.54z" fill="#EBF5FB"/></svg>