<svg width="80" height="80" fill="none" xmlns="http://www.w3.org/2000/svg"><rect width="80" height="80" rx="40" fill="#0CC689"/><path fill-rule="evenodd" clip-rule="evenodd" d="M43.258 28.308a.307.307 0 00-.306-.308H34.37A3.378 3.378 0 0031 31.385v17.23C31 50.485 32.51 52 34.371 52h12.258A3.378 3.378 0 0050 48.615V36.49a.307.307 0 00-.306-.308h-5.517a.921.921 0 01-.919-.923v-6.95zm.92 12c.507 0 .919.413.919.923s-.412.923-.92.923h-7.354a.921.921 0 01-.92-.923c0-.51.412-.923.92-.923h7.354zm0 4.923c.507 0 .919.413.919.923s-.412.923-.92.923h-7.354a.921.921 0 01-.92-.923c0-.51.412-.923.92-.923h7.354z" fill="#fff"/><path d="M45 29.241c0-.192.26-.314.455-.193.163.102.31.22.435.355l4.075 4.369c.092.099-.008.228-.167.228h-4.46c-.187 0-.338-.117-.338-.26v-4.5z" fill="#fff"/></svg>