<svg width="22" height="22" fill="none" xmlns="http://www.w3.org/2000/svg"><path fill-rule="evenodd" clip-rule="evenodd" d="M3.39 0h15.22A3.39 3.39 0 0122 3.39v15.22A3.39 3.39 0 0118.61 22H3.39A3.39 3.39 0 010 18.61V3.39A3.39 3.39 0 013.39 0z" fill="#EB4545"/><path fill-rule="evenodd" clip-rule="evenodd" d="M10.815 15.4h.9s.272-.03.41-.179c.129-.137.124-.395.124-.395s-.017-1.208.543-1.385c.553-.176 1.262 1.167 2.014 1.683.569.39 1 .305 1 .305l2.011-.028s1.052-.065.554-.892c-.041-.068-.291-.612-1.495-1.73-1.261-1.17-1.092-.98.426-3.005.925-1.233 1.295-1.985 1.18-2.307-.11-.307-.791-.226-.791-.226l-2.264.014s-.168-.023-.292.051c-.122.073-.2.243-.2.243s-.358.954-.836 1.765c-1.008 1.712-1.411 1.803-1.576 1.696-.383-.248-.288-.995-.288-1.526 0-1.659.252-2.35-.49-2.53-.246-.059-.427-.098-1.056-.105-.808-.008-1.492.003-1.879.192-.257.127-.456.408-.335.424.15.02.488.091.668.336.232.315.224 1.024.224 1.024s.133 1.953-.311 2.195c-.305.167-.724-.173-1.623-1.726-.46-.795-.808-1.675-.808-1.675s-.067-.164-.186-.252c-.146-.107-.348-.14-.348-.14l-2.152.014s-.322.009-.441.15c-.106.124-.008.382-.008.382s1.684 3.94 3.59 5.927c1.75 1.82 3.735 1.7 3.735 1.7z" fill="#131311"/></svg>