<svg width="54" height="54" viewBox="0 0 54 54" fill="none" xmlns="http://www.w3.org/2000/svg">
<g clip-path="url(#clip0_1247_20866)">
<path d="M32.1123 19.4219C33.4752 20.2406 34.3569 21.545 34.3569 23.0135" stroke="#031C77" stroke-miterlimit="10" stroke-linecap="round" stroke-linejoin="round"/>
<path d="M36.6016 23.0122V19.7031" stroke="#031C77" stroke-miterlimit="10" stroke-linecap="round" stroke-linejoin="round"/>
<path d="M20.8887 14.0328V9.54297H36.6021V17.3412" stroke="#031C77" stroke-miterlimit="10" stroke-linecap="round" stroke-linejoin="round"/>
<path d="M20.8887 14.0326C23.3681 14.0326 25.3782 12.0226 25.3782 9.54321" stroke="#031C77" stroke-miterlimit="10" stroke-linecap="round" stroke-linejoin="round"/>
<path d="M36.6018 14.0326C34.1224 14.0326 32.1123 12.0226 32.1123 9.54321" stroke="#031C77" stroke-miterlimit="10" stroke-linecap="round" stroke-linejoin="round"/>
<path d="M16.3994 23.0103V14.0312H32.1129V23.0103" stroke="#031C77" stroke-miterlimit="10" stroke-linecap="round" stroke-linejoin="round"/>
<path d="M24.2561 19.6432C24.876 19.6432 25.3785 19.1407 25.3785 18.5208C25.3785 17.9009 24.876 17.3984 24.2561 17.3984C23.6363 17.3984 23.1338 17.9009 23.1338 18.5208C23.1338 19.1407 23.6363 19.6432 24.2561 19.6432Z" stroke="#031C77" stroke-miterlimit="10" stroke-linecap="round" stroke-linejoin="round"/>
<path d="M16.3994 18.5207C18.8788 18.5207 20.8889 16.5107 20.8889 14.0312" stroke="#031C77" stroke-miterlimit="10" stroke-linecap="round" stroke-linejoin="round"/>
<path d="M32.1125 18.5207C29.6331 18.5207 27.623 16.5107 27.623 14.0312" stroke="#031C77" stroke-miterlimit="10" stroke-linecap="round" stroke-linejoin="round"/>
<path d="M14.1719 30.8772V23.0118H38.8289V40.9691L32.497 43.2751" stroke="#031C77" stroke-miterlimit="10" stroke-linecap="round" stroke-linejoin="round"/>
<path d="M14.1719 33.2383V40.9685L26.5004 45.4584L30.2763 44.0832" stroke="#031C77" stroke-miterlimit="10" stroke-linecap="round" stroke-linejoin="round"/>
<path d="M17.4142 39.6799L16.3994 39.2988V38.2148" stroke="#031C77" stroke-linecap="round" stroke-linejoin="round"/>
<path d="M16.3994 35.8434V27.5432" stroke="#031C77" stroke-linecap="round" stroke-linejoin="round" stroke-dasharray="32.82 32.82"/>
<path d="M16.3994 26.3574V25.2734H17.4834" stroke="#031C77" stroke-linecap="round" stroke-linejoin="round"/>
<path d="M19.4873 25.2734H34.5162" stroke="#031C77" stroke-linecap="round" stroke-linejoin="round" stroke-dasharray="27.73 27.73"/>
<path d="M35.5186 25.2734H36.6025V26.3574" stroke="#031C77" stroke-linecap="round" stroke-linejoin="round"/>
<path d="M36.6025 28.7305V37.0307" stroke="#031C77" stroke-linecap="round" stroke-linejoin="round" stroke-dasharray="32.82 32.82"/>
<path d="M36.6017 38.2148V39.2988L35.5869 39.68" stroke="#031C77" stroke-linecap="round" stroke-linejoin="round"/>
<path d="M33.568 40.4378L26.5007 43.0919L18.4238 40.0586" stroke="#031C77" stroke-linecap="round" stroke-linejoin="round" stroke-dasharray="29.85 29.85"/>
<rect x="10" y="12.707" width="3.80158" height="42.3809" transform="rotate(-45.4183 10 12.707)" fill="#F2F4F8"/>
<mask id="mask0_1247_20866" style="mask-type:luminance" maskUnits="userSpaceOnUse" x="0" y="0" width="54" height="54">
<path d="M0 3.8147e-06H54V54H0V3.8147e-06Z" fill="white"/>
</mask>
<g mask="url(#mask0_1247_20866)">
<path d="M44.1391 41.4668L12.5331 9.86077C16.4387 6.56076 21.4864 4.57024 26.9999 4.57024C39.3875 4.57024 49.4296 14.6123 49.4296 27C49.4296 32.5133 47.4391 37.5612 44.1391 41.4668ZM4.57031 27C4.57031 21.4866 6.56082 16.4387 9.86073 12.5331L41.4668 44.1392C37.5611 47.4392 32.5134 49.4297 26.9999 49.4297C14.6123 49.4297 4.57031 39.3876 4.57031 27Z" stroke="#031C77" stroke-width="1.4" stroke-miterlimit="10" stroke-linecap="round" stroke-linejoin="round"/>
<path d="M43.8324 6.90794C39.279 3.08881 33.4081 0.789066 27 0.789066C12.5253 0.789066 0.791016 12.5233 0.791016 26.998C0.791016 33.403 3.08855 39.2712 6.9042 43.8238M9.47964 46.4906C14.1222 50.6662 20.2643 53.207 27 53.207C41.4748 53.207 53.209 41.4729 53.209 26.998C53.209 20.2624 50.6681 14.1202 46.4925 9.47758" stroke="#031C77" stroke-width="1.4" stroke-miterlimit="10" stroke-linecap="round" stroke-linejoin="round"/>
</g>
</g>
<defs>
<clipPath id="clip0_1247_20866">
<rect width="54" height="54" fill="white"/>
</clipPath>
</defs>
</svg>
