<svg width="250" height="278" viewBox="0 0 250 278" fill="none" xmlns="http://www.w3.org/2000/svg">
<g clip-path="url(#clip0_1498_24185)">
<g opacity="0.05">
<path d="M-86.3082 272.918C-128.402 272.918 -167.996 257.179 -197.795 228.605C-227.59 200.028 -244 162.056 -244 121.684C-244 81.3185 -227.59 43.347 -197.795 14.7683L-151.347 -29.7729C-137.123 -43.4107 -114.059 -43.4107 -99.834 -29.7729C-85.6096 -16.1311 -85.6096 5.98833 -99.834 19.6301L-146.282 64.1713C-162.317 79.5536 -171.152 99.9775 -171.152 121.684C-171.152 143.397 -162.317 163.821 -146.282 179.201C-130.243 194.583 -108.946 203.054 -86.3082 203.054C-63.6744 203.054 -42.3781 194.583 -26.3389 179.201L67.0977 89.5919C81.3222 75.9501 104.386 75.9501 118.611 89.5919C132.835 103.234 132.835 125.353 118.611 138.995L25.1742 228.605C-4.6252 257.179 -44.2142 272.918 -86.3082 272.918Z" fill="white"/>
<path d="M131.158 277.684C121.791 277.684 112.432 274.272 105.285 267.45C90.9962 253.804 90.9962 231.678 105.285 218.031L151.944 173.476C185.16 141.752 185.16 90.1302 151.939 58.4078C118.723 26.6813 64.6735 26.6854 31.4524 58.4078L-62.4038 148.046C-76.6928 161.693 -99.8615 161.693 -114.15 148.046C-128.439 134.399 -128.439 112.273 -114.15 98.6269L-20.29 8.99321C41.462 -49.9765 141.938 -49.9806 203.686 8.99321C265.438 67.9629 265.438 163.92 203.69 222.894L157.028 267.45C149.885 274.272 140.522 277.684 131.158 277.684Z" fill="white"/>
</g>
</g>
<defs>
<clipPath id="clip0_1498_24185">
<rect width="250" height="278" fill="white"/>
</clipPath>
</defs>
</svg>
