<svg width="250" height="250" viewBox="0 0 250 250" fill="none" xmlns="http://www.w3.org/2000/svg">
<g opacity="0.03">
<path fill-rule="evenodd" clip-rule="evenodd" d="M172.949 150.879H77.0513C73.2368 150.879 70.1328 147.777 70.1328 143.962V6.92874C70.1328 3.11427 73.2354 0.0117188 77.0513 0.0117188H145.162C144.809 0.896488 144.61 1.87794 144.61 2.94142V27.4542C144.61 31.7653 148.11 35.2663 152.422 35.2663H176.977C178.032 35.2663 179 35.0788 179.869 34.7448V143.962C179.869 147.775 176.764 150.879 172.949 150.879ZM125 97.3451C109.277 97.3451 96.484 84.5526 96.484 68.8289C96.484 53.1052 109.277 40.3127 125 40.3127C140.724 40.3127 153.518 53.1052 153.518 68.8289C153.518 84.5526 140.724 97.3451 125 97.3451ZM125 46.1735C112.507 46.1735 102.343 56.3381 102.343 68.8303C102.343 81.324 112.508 91.4872 125 91.4872C137.492 91.4872 147.657 81.3226 147.657 68.8303C147.657 56.3381 137.492 46.1735 125 46.1735ZM153.77 114.535H96.2306C92.3736 114.535 92.3736 108.676 96.2306 108.676H153.77C157.625 108.676 157.627 114.535 153.77 114.535ZM153.77 133.884H96.2306C92.3751 133.884 92.3751 128.025 96.2306 128.025H153.77C157.625 128.025 157.627 133.884 153.77 133.884ZM117.355 77.5857C114.66 77.5857 112.676 72.4705 110.235 68.3059C108.285 64.9778 113.339 62.0188 115.288 65.344L118.397 70.6497L135.757 60.4792C139.082 58.5339 142.047 63.5847 138.716 65.5374C135.891 67.1926 119.098 77.5872 117.355 77.5872V77.5857Z" fill="#031C77"/>
<path fill-rule="evenodd" clip-rule="evenodd" d="M176.976 30.382H152.421C150.804 30.382 149.491 29.0695 149.491 27.4523V2.93947C149.491 0.340826 152.652 -0.974609 154.494 0.868172L178.737 25.1114C181.17 27.2267 179.463 30.382 176.976 30.382Z" fill="#031C77"/>
<path fill-rule="evenodd" clip-rule="evenodd" d="M214.927 201.61H35.0718C28.023 201.61 22.2881 195.875 22.2881 188.823V55.7798C22.2881 48.731 28.023 42.9961 35.0718 42.9961H65.2507V60.5757H43.7848C42.1676 60.5757 40.8551 61.8883 40.8551 63.5054V169.67C40.8551 171.286 42.1676 172.6 43.7848 172.6H206.216C207.833 172.6 209.146 171.286 209.146 169.669V63.504C209.146 61.8868 207.833 60.5743 206.216 60.5743H184.75V42.9976H214.927C221.978 42.9976 227.711 48.7324 227.711 55.7813V188.825C227.711 195.877 221.976 201.611 214.927 201.611V201.61Z" fill="#031C77"/>
<path fill-rule="evenodd" clip-rule="evenodd" d="M164.972 232.594H85.0303C81.5791 232.594 79.6602 229.092 79.6602 226.016V194.006C79.6602 190.928 81.5776 187.426 85.0303 187.426H164.974C168.427 187.426 170.345 190.929 170.345 194.006V226.016C170.345 229.093 168.424 232.594 164.972 232.594ZM90.399 219.432H159.6V200.584L90.399 200.586V219.432Z" fill="#031C77"/>
<path fill-rule="evenodd" clip-rule="evenodd" d="M183.575 249.997H66.4238C64.8066 249.997 63.4941 248.683 63.4941 247.067V221.34C63.4941 219.723 64.8066 218.41 66.4238 218.41H183.575C185.192 218.41 186.505 219.724 186.505 221.34V247.067C186.505 248.684 185.192 249.997 183.575 249.997Z" fill="#031C77"/>
<path fill-rule="evenodd" clip-rule="evenodd" d="M138.24 187.105H111.763C107.907 187.105 107.907 181.246 111.763 181.246H138.24C142.095 181.246 142.097 187.105 138.24 187.105Z" fill="#031C77"/>
</g>
</svg>
