<svg width="65" height="64" viewBox="0 0 65 64" fill="none" xmlns="http://www.w3.org/2000/svg">
<circle opacity="0.7" cx="32.5" cy="32" r="31.5" stroke="#031C77" stroke-dasharray="5 5"/>
<circle cx="32.5" cy="32" r="27" fill="#EAEEFC"/>
<path d="M41.5742 40.6699V44.2734H24.5586V41.25C25.0391 40.1602 25.6426 39.1348 26.3691 38.1738C27.1074 37.2129 27.9453 36.2871 28.8828 35.3965C29.8203 34.5059 30.8457 33.6152 31.959 32.7246C32.6973 32.127 33.3359 31.5762 33.875 31.0723C34.4258 30.5684 34.877 30.0996 35.2285 29.666C35.709 29.127 36.084 28.5762 36.3535 28.0137C36.623 27.4395 36.7578 26.8418 36.7578 26.2207C36.7578 25.0488 36.4414 24.1582 35.8086 23.5488C35.1875 22.9395 34.2793 22.6348 33.084 22.6348C31.9355 22.6348 31.0273 22.9453 30.3594 23.5664C29.7031 24.1875 29.293 25.0957 29.1289 26.291L24.7344 26.0098C25.0039 23.8184 25.8594 22.125 27.3008 20.9297C28.7422 19.7344 30.6641 19.1367 33.0664 19.1367C35.6797 19.1367 37.6836 19.7402 39.0781 20.9473C40.4844 22.1543 41.1875 23.8535 41.1875 26.0449C41.1875 27.1934 40.9414 28.2539 40.4492 29.2266C39.957 30.1992 39.3008 31.1191 38.4805 31.9863C37.9062 32.6191 37.2031 33.2754 36.3711 33.9551C35.5391 34.623 34.666 35.3262 33.752 36.0645C32.7559 36.873 31.9004 37.6465 31.1855 38.3848C30.4707 39.123 29.9434 39.8848 29.6035 40.6699H41.5742Z" fill="#031C77"/>
</svg>
