<svg width="65" height="64" viewBox="0 0 65 64" fill="none" xmlns="http://www.w3.org/2000/svg">
<circle opacity="0.7" cx="32.5" cy="32" r="31.5" stroke="#031C77" stroke-dasharray="5 5"/>
<circle cx="32.5" cy="32" r="27" fill="#EAEEFC"/>
<path d="M41.6289 37.418C41.6289 39.7266 40.8789 41.5137 39.3789 42.7793C37.8789 44.0332 35.7402 44.6602 32.9629 44.6602C30.3496 44.6602 28.2695 44.0625 26.7227 42.8672C25.1875 41.6719 24.2793 39.9375 23.998 37.6641L28.4453 37.2773C28.7969 39.832 30.2969 41.1094 32.9453 41.1094C34.2695 41.1094 35.3008 40.7871 36.0391 40.1426C36.7773 39.4863 37.1465 38.4961 37.1465 37.1719C37.1465 35.9883 36.707 35.0801 35.8281 34.4473C34.9609 33.8027 33.6777 33.4805 31.9785 33.4805H30.2207V29.8945H31.873C33.3965 29.8945 34.5566 29.5781 35.3535 28.9453C36.1504 28.3008 36.5488 27.3984 36.5488 26.2383C36.5488 25.1133 36.2266 24.2344 35.582 23.6016C34.9492 22.957 34.0117 22.6348 32.7695 22.6348C31.6328 22.6348 30.707 22.9395 29.9922 23.5488C29.2891 24.1582 28.8848 25.0254 28.7793 26.1504L24.4199 25.834C24.6777 23.7363 25.5508 22.0957 27.0391 20.9121C28.5273 19.7285 30.4609 19.1367 32.8398 19.1367C35.3945 19.1367 37.3867 19.7168 38.8164 20.877C40.2578 22.0371 40.9785 23.6484 40.9785 25.7109C40.9785 27.2695 40.5273 28.5469 39.625 29.543C38.7227 30.5391 37.4219 31.207 35.7227 31.5469V31.6172C37.5977 31.8281 39.0508 32.4492 40.082 33.4805C41.1133 34.5117 41.6289 35.8242 41.6289 37.418Z" fill="#031C77"/>
</svg>
