<svg width="72" height="72" viewBox="0 0 72 72" fill="none" xmlns="http://www.w3.org/2000/svg">
<g filter="url(#filter0_d_2206_313)">
<circle cx="36" cy="32" r="20" fill="white"/>
</g>
<path d="M35.527 38.74C34.4604 38.74 33.527 38.5333 32.727 38.12C31.927 37.6933 31.3204 37.1267 30.907 36.42L32.567 34.2C33.4737 35.2267 34.3937 35.74 35.327 35.74C35.887 35.74 36.3204 35.6133 36.627 35.36C36.9337 35.1067 37.087 34.78 37.087 34.38C37.087 33.3533 36.2937 32.84 34.707 32.84H33.827V29.84H34.627C35.2004 29.84 35.6604 29.72 36.007 29.48C36.367 29.2267 36.547 28.88 36.547 28.44C36.547 28.0933 36.4404 27.8133 36.227 27.6C36.0137 27.3733 35.6937 27.26 35.267 27.26C34.3337 27.26 33.527 27.68 32.847 28.52L31.207 26.36C32.0604 24.96 33.507 24.26 35.547 24.26C36.787 24.26 37.7937 24.5867 38.567 25.24C39.3537 25.88 39.747 26.7467 39.747 27.84C39.747 29.4 39.0537 30.4933 37.667 31.12V31.18C38.4937 31.34 39.1337 31.72 39.587 32.32C40.0537 32.9067 40.287 33.6333 40.287 34.5C40.287 35.78 39.8337 36.8133 38.927 37.6C38.0337 38.36 36.9004 38.74 35.527 38.74Z" fill="#7E9BFA"/>
<defs>
<filter id="filter0_d_2206_313" x="0" y="0" width="72" height="72" filterUnits="userSpaceOnUse" color-interpolation-filters="sRGB">
<feFlood flood-opacity="0" result="BackgroundImageFix"/>
<feColorMatrix in="SourceAlpha" type="matrix" values="0 0 0 0 0 0 0 0 0 0 0 0 0 0 0 0 0 0 127 0" result="hardAlpha"/>
<feOffset dy="4"/>
<feGaussianBlur stdDeviation="8"/>
<feColorMatrix type="matrix" values="0 0 0 0 0.1375 0 0 0 0 0.233899 0 0 0 0 0.55 0 0 0 0.15 0"/>
<feBlend mode="normal" in2="BackgroundImageFix" result="effect1_dropShadow_2206_313"/>
<feBlend mode="normal" in="SourceGraphic" in2="effect1_dropShadow_2206_313" result="shape"/>
</filter>
</defs>
</svg>
