<svg width="75" height="21" viewBox="0 0 75 21" fill="none" xmlns="http://www.w3.org/2000/svg">
<path d="M74.437 14.5697C74.6746 15.3633 74.2239 16.1993 73.4303 16.437L60.4977 20.3098C59.7041 20.5474 58.8681 20.0967 58.6305 19.3031C58.3928 18.5095 58.8435 17.6735 59.6371 17.4359L71.1327 13.9934L67.6902 2.49774C67.4526 1.70414 67.9033 0.868135 68.6969 0.63048C69.4905 0.392825 70.3265 0.843513 70.5641 1.63712L74.437 14.5697ZM0.173171 13.7485C13.1264 5.19089 23.8035 0.908637 35.2078 0.977607C46.568 1.04631 58.4177 5.4346 73.7118 13.6796L72.2882 16.3204C57.1038 8.13447 45.791 4.04167 35.1896 3.97755C24.6323 3.9137 14.5486 7.84691 1.82683 16.2515L0.173171 13.7485Z" fill="#E2E7F8"/>
</svg>
