<svg width="101" height="116" fill="none" xmlns="http://www.w3.org/2000/svg"><path d="M80.764 7.77a13.877 13.877 0 00-9.853-4.091A13.877 13.877 0 0061.06 7.77L50.306 18.548 40.104 8.32a13.877 13.877 0 00-9.854-4.09 13.877 13.877 0 00-9.853 4.091c-4.026 3.664-4.084 9.814-4.084 9.814l-.026 40.803c0 2.719 1.553 4.337 4.162 4.337h12.203c3.03 0 4.13-2.233 4.13-3.729V44.21c4.46 4.247 9.561 9.115 10.5 10.06.88.887 1.845 1.755 3.114 1.794.032 0 1.269.317 3.47-1.884 1.061-1.068 5.852-5.846 10.35-10.339v15.705c0 1.502 1.101 3.73 4.124 3.73h12.203c2.602 0 4.162-1.626 4.162-4.338l.026-41.347c.013-3.592-1.236-7.082-3.968-9.82z" fill="#fff"/><path d="M80.764 7.77a13.877 13.877 0 00-9.853-4.091A13.877 13.877 0 0061.06 7.77L50.306 18.548 40.104 8.32a13.877 13.877 0 00-9.854-4.09 13.877 13.877 0 00-9.853 4.091c-4.026 3.664-4.084 9.814-4.084 9.814l-.026 40.803c0 2.719 1.553 4.337 4.162 4.337h12.203c3.03 0 4.13-2.233 4.13-3.729V44.21c4.46 4.247 9.561 9.115 10.5 10.06.88.887 1.845 1.755 3.114 1.794.032 0 1.269.317 3.47-1.884 1.061-1.068 5.852-5.846 10.35-10.339v15.705c0 1.502 1.101 3.73 4.124 3.73h12.203c2.602 0 4.162-1.626 4.162-4.338l.026-41.347c.013-3.592-1.236-7.082-3.968-9.82z" stroke="#fff" stroke-width="6.7" stroke-miterlimit="10"/><path d="M81.502 20.717c.058-.2.117-.408.162-.615v-.006.006c-.046.207-.104.408-.162.615zm-2.887-10.681c-.2-.2-.415-.388-.628-.57.213.188.427.37.628.57a11.062 11.062 0 013.262 7.872c0 .162-.025.323-.045.485.02-.162.045-.317.045-.485a11.06 11.06 0 00-3.262-7.872z" fill="#475658"/><path d="M78.7 25.682c-.033.032-.06.065-.091.097l-3.91 3.91a11 11 0 01-6.513 2.15c-.64 0-1.269-.078-1.884-.188a10.635 10.635 0 01-3.69-1.392c-.077-.046-.168-.084-.246-.13-.414-.265-.79-.576-1.165-.9-.24-.2-.492-.369-.718-.589l-.356-.356-1.431-1.43-6.338-6.338 10.494-10.493a11.062 11.062 0 017.872-3.263c4.79 0 7.677 3.062 7.878 3.263a11.074 11.074 0 012.253 3.262 11.07 11.07 0 011.01 4.61c.006.18.297 4.33-3.166 7.787zm3.08 32.827c0 1.444-.543 1.716-1.547 1.716H68.205c-1.216 0-1.495-.622-1.514-1.114V41.374h-.007L80.097 27.96c.66-.66 1.205-1.347 1.677-2.033v32.581h.007zm-29.642-6.48c-1.01 1.01-1.379 1.12-1.534 1.107-.227-.006-.635-.395-1.34-1.016C43.658 47.232 22.8 26.33 22.8 26.33c-6.104-7.05-2.104-13.647 0-15.75a11.066 11.066 0 017.878-3.263 11.04 11.04 0 017.872 3.262l20.01 20.01c3.237 3.237 7.768 4.68 10.403 4.68a9275.042 9275.042 0 00-16.825 16.76zm-17.582 7.076c0 .259-.11 1.113-1.515 1.113H21.013c-1.003 0-1.547-.272-1.547-1.715V26.329c.04.046.072.078.072.078.433.608.88 1.204 1.43 1.748l9.257 9.257-.039.039c.026.026.602.57 1.528 1.444l2.849 2.848v17.362h-.007zM80.447 8.203a13.69 13.69 0 00-9.71-4.02 13.7 13.7 0 00-9.71 4.02L50.428 18.801 40.376 8.747a13.69 13.69 0 00-9.71-4.02 13.69 13.69 0 00-9.71 4.02c-3.97 3.606-4.02 9.652-4.02 9.652h-.027v40.11c0 2.674 1.534 4.266 4.098 4.266h12.028c2.984 0 4.065-2.194 4.065-3.67V44.028c4.396 4.175 9.42 8.966 10.351 9.892.868.867 1.82 1.721 3.069 1.76.032 0 1.256.318 3.418-1.851 1.048-1.049 5.761-5.749 10.202-10.17v15.446c0 1.476 1.081 3.67 4.066 3.67h12.027c2.57 0 4.098-1.592 4.098-4.266l.026-40.647c.013-3.535-1.217-6.966-3.91-9.659z" fill="#475658"/><path d="M80.868 13.298zM58.702 26.867l1.437 1.431-7.768-7.768 6.33 6.337z" fill="#D44B4B"/><path d="M81.87 17.908a11.037 11.037 0 00-1.01-4.61 11.072 11.072 0 00-2.252-3.262c-.2-.2-3.101-3.263-7.872-3.263a11.066 11.066 0 00-7.878 3.263L52.37 20.529l7.768 7.769.356.356c.22.22.479.388.719.589.375.317.757.634 1.165.893.077.052.168.084.246.13 1.14.68 2.376 1.165 3.69 1.392.621.11 1.243.18 1.883.18a11 11 0 006.513-2.149s3.968-3.974 3.994-4.007c3.457-3.456 3.166-7.606 3.166-7.774z" fill="#D44B4B"/><path d="M70.736 6.773c.343 0 .343 0 0 0a11.066 11.066 0 00-7.878 3.263L52.37 20.529l10.493-10.493a11.062 11.062 0 017.872-3.263zm7.879 19.012c.032-.032.057-.064.09-.096-.039.025-.065.064-.09.096z" fill="#475658"/><path d="M77.52 9.09c-.077-.058-.155-.11-.233-.168a11.051 11.051 0 012.195 6.623c0 .24.013 1.897-.712 3.832a11.182 11.182 0 01-2.55 4.046l-3.91 3.91a10.956 10.956 0 01-6.513 2.15c-.641 0-1.269-.078-1.884-.182-1.314-.226-2.55-.712-3.69-1.392-.078-.045-.168-.084-.246-.13-.414-.265-.79-.575-1.165-.899-.175-.142-.35-.278-.524-.42l.414.413 1.43 1.431.357.356c.22.22.479.389.718.59.376.317.758.634 1.165.9.078.05.169.083.246.129 1.14.68 2.376 1.165 3.69 1.391.622.11 1.243.182 1.884.182a11 11 0 006.513-2.15l3.91-3.91c3.566-3.567 3.262-7.632 3.262-7.871 0-2.972-1.159-5.768-3.262-7.872a10.18 10.18 0 00-1.094-.958z" fill="#D44B4B"/><path d="M15.161 95.622h-2.104c-.324 0-.492-.142-.492-.427v-9.102c0-.097-.045-.097-.142 0L11.25 89.2l-2.084 5.393a1.279 1.279 0 01-.26.369c-.097.097-.239.142-.427.142H7.166c-.194 0-.343-.02-.46-.058-.116-.039-.22-.162-.317-.369l-2.026-5.334-1.14-3.192a.267.267 0 00-.07-.045c-.033-.006-.046.007-.046.045v9.044c0 .285-.174.427-.511.427H.51c-.343 0-.511-.162-.511-.485V78.59c0-.382.2-.57.602-.57H2.37c.227 0 .408.02.531.059.123.039.246.181.356.427.058.149.169.434.33.842.162.407.35.887.557 1.424.207.544.434 1.12.673 1.728.24.609.453 1.185.654 1.722.2.544.382 1.017.544 1.425.162.407.272.686.33.841l1.398 3.735c.078.188.162.188.26 0 .038-.136.122-.382.258-.744.13-.363.279-.745.428-1.14.155-.4.297-.776.427-1.139.13-.362.226-.608.285-.744L12.48 78.5c.155-.324.453-.486.893-.486h1.703c.401 0 .602.188.602.57V95.13c0 .33-.175.492-.518.492zM24.78 85.07l-.686-3.281c-.02-.078-.051-.117-.097-.13-.045-.013-.084.032-.097.13l-.654 3.223-.886 4.079c-.02.097-.02.162 0 .2.019.04.084.059.2.059h2.965c.188 0 .246-.097.168-.285l-.912-3.994zm5.704 9.95a.63.63 0 01.013.37c-.033.148-.175.226-.44.226h-2.312c-.304 0-.492-.123-.57-.369l-.653-2.855c-.039-.149-.084-.259-.13-.31-.045-.059-.129-.085-.245-.085h-4.221c-.156 0-.246.04-.285.117a3.37 3.37 0 00-.117.259c-.039.149-.084.356-.142.615-.058.259-.117.53-.188.828-.064.298-.13.577-.188.842-.058.265-.103.466-.142.602a.447.447 0 01-.214.285.66.66 0 01-.33.084h-2.194c-.266 0-.421-.058-.473-.175a.643.643 0 01-.013-.401l4.163-16.63c.097-.266.297-.402.602-.402h3.25c.129 0 .245.013.343.045.097.033.161.136.2.33l4.286 16.624zm12.352-14.287h-6.364c-.188 0-.31.04-.369.117a.505.505 0 00-.084.31v14.01c0 .304-.155.453-.453.453h-2.201c-.305 0-.453-.143-.453-.428V78.481c0-.305.148-.46.453-.46h9.477c.117 0 .22.032.31.097.098.065.143.175.143.33V80.3c-.006.291-.155.433-.46.433zm8.273 4.337l-.687-3.281c-.019-.078-.051-.117-.097-.13-.045-.013-.084.032-.097.13l-.654 3.223-.886 4.079c-.02.097-.02.162 0 .2.019.04.084.059.2.059h2.965c.188 0 .246-.097.169-.285l-.913-3.994zm5.703 9.95a.63.63 0 01.013.37c-.026.148-.175.226-.44.226h-2.311c-.305 0-.492-.123-.57-.369l-.654-2.855c-.039-.149-.084-.259-.13-.31-.045-.059-.129-.085-.245-.085h-4.221c-.155 0-.246.04-.285.117a3.37 3.37 0 00-.117.259c-.038.149-.084.356-.142.615-.058.259-.116.53-.188.828-.064.298-.13.577-.187.842a12.02 12.02 0 01-.143.602.447.447 0 01-.213.285.66.66 0 01-.33.084h-2.195c-.266 0-.42-.058-.473-.175a.643.643 0 01-.013-.401l4.163-16.63c.097-.266.298-.402.602-.402h3.25c.136 0 .246.013.343.045.097.026.162.136.2.33l4.286 16.624zm7.36-17.284c.893 0 1.69.116 2.382.356.693.24 1.275.563 1.742.97a4.07 4.07 0 011.068 1.483 4.81 4.81 0 01.369 1.897c0 .777-.208 1.508-.628 2.182-.421.673-.958 1.145-1.625 1.41-.039.02-.065.046-.071.085-.013.039.006.078.045.117.706.226 1.314.692 1.838 1.398.525.706.784 1.54.784 2.512 0 .893-.156 1.69-.46 2.382a5.013 5.013 0 01-1.282 1.767 5.748 5.748 0 01-1.955 1.114 7.522 7.522 0 01-2.466.388c-.55 0-1.1-.039-1.65-.117a6.565 6.565 0 01-1.567-.414c-.499-.2-.959-.46-1.386-.783a4.338 4.338 0 01-1.1-1.256c-.078-.149-.11-.278-.097-.388.006-.104.09-.214.24-.33l1.514-1.114c.168-.117.31-.162.414-.142.104.019.233.116.389.284.285.382.712.706 1.281.971.57.266 1.179.402 1.826.402.874 0 1.586-.24 2.123-.712.544-.473.816-1.114.816-1.91 0-.874-.278-1.547-.829-2.026-.55-.473-1.255-.712-2.11-.712h-1.826c-.304 0-.46-.162-.46-.486v-1.657c0-.168.027-.298.085-.382.058-.084.181-.13.369-.13h2.136c.686 0 1.25-.2 1.696-.602.447-.4.674-.932.674-1.598 0-.531-.208-1.01-.615-1.425-.408-.42-1.069-.627-1.981-.627-.402 0-.855.09-1.366.271a3.92 3.92 0 00-1.424.9 4.086 4.086 0 01-.415.298c-.162.104-.317.09-.472-.045l-1.314-1.198c-.169-.117-.253-.233-.246-.356a.614.614 0 01.129-.33c.667-.894 1.463-1.528 2.395-1.897a8.34 8.34 0 013.03-.55zm9.043.771c0-.324.182-.486.544-.486h2.11c.344 0 .512.162.512.486V89.2c0 .058.013.084.045.071.033-.007.052-.032.071-.071.99-1.767 1.962-3.541 2.913-5.322.952-1.78 1.91-3.54 2.881-5.288.11-.188.233-.33.37-.428.129-.097.316-.142.562-.142h1.586c.337 0 .512.162.512.486v16.63c0 .324-.168.486-.512.486h-2.09c-.337 0-.512-.162-.512-.486V84.443c0-.058-.013-.084-.026-.084h-.026l-.026.058c-.97 1.787-1.948 3.573-2.926 5.36-.977 1.787-1.955 3.573-2.926 5.36-.136.227-.259.369-.369.414-.116.046-.297.072-.543.072h-1.6c-.362 0-.543-.162-.543-.486v-16.63h-.007zm24.561-.059c0-.285.162-.427.486-.427h2.194c.363 0 .544.136.544.401v16.747c0 .304-.168.453-.511.453h-2.195c-.343 0-.511-.142-.511-.427v-6.707c0-.323-.162-.485-.486-.485H92.65c-.207 0-.343.045-.401.13-.058.084-.084.207-.084.355v6.675c0 .304-.175.453-.512.453h-2.194c-.363 0-.544-.143-.544-.427V78.44c0-.284.181-.427.544-.427h2.194c.156 0 .279.026.37.084.096.059.142.162.142.317v6.247c0 .208.026.35.071.415.045.064.155.097.33.097h4.765c.168 0 .291-.033.356-.097.064-.065.097-.207.097-.415v-6.214h-.007zm-71.96 33.119h-1.1c-.194 0-.291-.097-.291-.292l-.104-1.929a3.615 3.615 0 00-.117-.757 1.785 1.785 0 00-.31-.641 1.405 1.405 0 00-.59-.434c-.245-.103-.563-.155-.931-.155-.648 0-1.146.194-1.483.582a2.05 2.05 0 00-.505 1.392v2.033c0 .136-.071.207-.207.207h-1.262c-.136 0-.207-.065-.207-.188v-8.726c0-.136.064-.207.187-.207h1.288c.123 0 .188.065.188.188v3.256c0 .155.033.239.104.272.071.026.136.006.207-.059l3.21-3.502a.397.397 0 01.292-.103h1.534c.156 0 .227.064.227.187a.142.142 0 01-.033.091.506.506 0 01-.07.091l-2.739 2.945c-.084.097-.058.168.084.207.136.013.266.026.382.039.117.013.233.033.343.065.389.097.712.246.978.447.259.2.472.44.634.725.155.284.279.595.35.945.077.343.13.712.155 1.1l.084 1.884c-.013.22-.11.337-.298.337zm8.04-2.706c0-.369-.13-.687-.382-.959-.252-.265-.64-.401-1.165-.401h-2.246c-.052 0-.084.039-.084.123v2.408c0 .071.032.104.103.104h2.292c.466 0 .828-.117 1.094-.363.259-.233.388-.543.388-.912zm-.272-3.833c0-.343-.13-.621-.382-.828-.252-.214-.615-.318-1.08-.318h-2.02c-.072 0-.104.02-.11.065a.896.896 0 00-.014.143v2.013c0 .097.04.142.123.142h2.04c.466 0 .822-.123 1.068-.356a1.16 1.16 0 00.375-.861zm1.871 3.858c0 .816-.272 1.47-.81 1.955-.536.486-1.28.726-2.239.726h-3.774c-.207 0-.31-.091-.31-.272v-8.539c0-.071.019-.129.051-.188.032-.058.117-.084.24-.084h3.586c.939 0 1.67.22 2.195.654.524.434.79 1.042.79 1.832 0 .317-.085.641-.26.971-.175.33-.42.596-.738.783a.102.102 0 00-.051.052c-.007.02.019.045.07.071.44.195.758.479.952.861.201.389.298.777.298 1.178zm3.833-.407c0 .511.148.945.453 1.295.304.349.776.531 1.41.531.57 0 1.017-.175 1.347-.518.33-.343.499-.777.499-1.308 0-.511-.149-.945-.447-1.295-.298-.349-.77-.53-1.417-.53-.57 0-1.017.174-1.347.517-.33.35-.498.784-.498 1.308zm-1.554.039c0-.44.071-.855.22-1.243.142-.388.356-.725.64-1.003a3.12 3.12 0 011.05-.674c.414-.168.9-.246 1.45-.246.608 0 1.152.13 1.637.395a.33.33 0 00.26.052c.077-.019.116-.091.116-.22v-.188c0-.55-.142-.958-.427-1.223-.285-.259-.758-.395-1.418-.395-.123 0-.285.013-.48.039-.193.026-.387.064-.588.103-.2.039-.402.091-.59.156a3.51 3.51 0 00-.478.194c-.156.071-.26.026-.311-.123l-.35-.913c-.038-.136-.006-.227.104-.272a5.297 5.297 0 011.346-.453 7.47 7.47 0 011.535-.168c.634 0 1.165.077 1.599.226.427.149.77.376 1.029.667.252.291.434.641.537 1.049.104.408.156.861.156 1.359v5.723c0 .136-.065.207-.188.207h-1.14c-.122 0-.187-.058-.187-.168v-.376c0-.097-.026-.155-.084-.168-.059-.013-.117.013-.188.084a2.27 2.27 0 01-.945.583 3.77 3.77 0 01-1.127.168c-1.035 0-1.825-.291-2.362-.874-.55-.576-.816-1.34-.816-2.298zm15.543-2.7c0-.576-.168-1.055-.505-1.437-.336-.376-.835-.57-1.482-.57-.583 0-1.055.188-1.43.57-.376.382-.557.848-.557 1.418v2.44c0 .563.18 1.049.55 1.444.369.401.848.602 1.443.602.609 0 1.094-.195 1.45-.589.356-.395.538-.881.538-1.457v-2.421h-.007zm1.657 2.415c0 .485-.084.938-.245 1.359-.162.421-.395.79-.693 1.107-.298.317-.648.57-1.055.744a3.22 3.22 0 01-1.334.272c-.537 0-.951-.064-1.25-.194a2.464 2.464 0 01-.711-.447c-.11-.097-.195-.123-.26-.071a.234.234 0 00-.09.194v3.917c0 .136-.065.207-.188.207H47.82c-.123 0-.188-.065-.188-.188v-12.455c0-.123.065-.187.188-.187h1.14c.135 0 .206.064.206.187v.434c0 .084.033.123.104.117.071-.007.143-.052.227-.136.181-.149.446-.305.796-.467.35-.155.79-.239 1.314-.239.99 0 1.793.291 2.408.88s.92 1.425.92 2.519v2.447zm8.416-4.357h-2.26c-.058 0-.09.019-.116.065a.29.29 0 00-.032.123v7.211c0 .11-.02.188-.052.227-.032.039-.104.065-.214.065H59.59c-.207 0-.304-.091-.304-.272v-7.238c0-.123-.052-.187-.169-.187h-2.175a.457.457 0 01-.24-.052c-.051-.033-.07-.11-.07-.22v-.848c0-.182.103-.272.31-.272h6.402c.208 0 .311.084.311.252v.874c.013.181-.09.272-.304.272zm2.2-1.178c0-.136.091-.207.273-.207h1.12c.11 0 .174.019.194.065a.38.38 0 01.032.168v5.93c0 .168.039.194.123.084l1.12-1.845 2.55-4.085a1.15 1.15 0 01.195-.239c.065-.052.168-.072.324-.072h.932c.11 0 .181.02.213.065a.261.261 0 01.052.168v8.623c0 .149-.078.227-.226.227h-1.185c-.097 0-.162-.013-.194-.039-.033-.026-.052-.097-.052-.207v-5.995c0-.071-.013-.097-.032-.09a.216.216 0 00-.072.051l-1.055 1.761-2.654 4.273c-.084.149-.155.233-.207.239a1.495 1.495 0 01-.188.013h-.997c-.11 0-.181-.013-.213-.039-.033-.025-.052-.097-.052-.207v-8.642zm15.57 3.12c0-.576-.169-1.055-.505-1.437-.337-.376-.835-.57-1.483-.57-.582 0-1.055.188-1.43.57-.376.382-.557.848-.557 1.418v2.44c0 .563.181 1.049.55 1.444.369.401.848.602 1.444.602.608 0 1.094-.195 1.45-.589.356-.395.537-.881.537-1.457v-2.421h-.007zm1.657 2.415c0 .485-.084.938-.246 1.359-.169.421-.395.79-.693 1.107-.298.317-.647.57-1.055.744a3.22 3.22 0 01-1.334.272c-.537 0-.951-.064-1.249-.194a2.464 2.464 0 01-.712-.447c-.11-.097-.194-.123-.259-.071a.234.234 0 00-.09.194v3.917c0 .136-.065.207-.188.207h-1.289c-.123 0-.187-.065-.187-.188v-12.455c0-.123.064-.187.187-.187h1.14c.136 0 .207.064.207.187v.434c0 .084.032.123.103.117.072-.007.143-.052.227-.136.181-.149.447-.305.796-.467.35-.155.79-.239 1.314-.239.99 0 1.794.291 2.409.88.614.589.919 1.425.919 2.519v2.447z" fill="#fff"/></svg>