<svg width="24" height="24" viewBox="0 0 24 24" fill="none" xmlns="http://www.w3.org/2000/svg">
<path d="M12.0004 2.3999C6.69639 2.3999 2.40039 6.6959 2.40039 11.9999C2.40039 17.3039 6.69639 21.5999 12.0004 21.5999C17.3044 21.5999 21.6004 17.3039 21.6004 11.9999C21.6004 6.6959 17.3044 2.3999 12.0004 2.3999ZM15.5524 15.6239C15.4564 15.8159 15.2404 15.9119 15.0484 15.9119C14.9524 15.9119 14.8564 15.8879 14.7604 15.8399C13.2484 14.9519 11.4724 14.8079 10.2724 14.8319C8.92839 14.8799 7.94439 15.1439 7.94439 15.1439C7.63239 15.2399 7.32039 15.0479 7.22439 14.7359C7.12839 14.4239 7.32039 14.1119 7.63239 14.0159C7.68039 13.9919 8.73639 13.7039 10.2004 13.6559C11.0644 13.6319 11.9044 13.6799 12.6724 13.8239C13.6564 14.0159 14.5444 14.3519 15.3364 14.8079C15.6004 14.9999 15.6964 15.3359 15.5524 15.6239ZM16.6084 13.3919C16.4884 13.6079 16.2484 13.7279 16.0084 13.7279C15.8884 13.7279 15.7684 13.7039 15.6724 13.6319C13.8724 12.5759 11.7844 12.4079 10.3444 12.4559C8.76039 12.5039 7.58439 12.8159 7.58439 12.8159C7.22439 12.9119 6.84039 12.6959 6.74439 12.3359C6.64839 11.9759 6.86439 11.5919 7.22439 11.4959C7.27239 11.4719 8.52039 11.1359 10.2724 11.0879C11.3044 11.0399 12.2884 11.1119 13.2004 11.2799C14.3764 11.4959 15.4324 11.8799 16.3684 12.4319C16.7044 12.6239 16.8004 13.0559 16.6084 13.3919ZM18.0004 10.9199C17.8324 11.1839 17.5684 11.3279 17.2804 11.3279C17.1364 11.3279 16.9924 11.2799 16.8484 11.2079C12.5524 8.6879 6.98439 10.1999 6.93639 10.1999C6.48039 10.3199 6.02439 10.0559 5.90439 9.5999C5.78439 9.1439 6.04839 8.6879 6.50439 8.5679C6.57639 8.5439 8.11239 8.1359 10.2484 8.0639C11.4964 8.0159 12.7204 8.1119 13.8484 8.3279C15.2884 8.5919 16.5844 9.0719 17.7364 9.7439C18.0964 10.0079 18.2404 10.5359 18.0004 10.9199Z" fill="white"/>
</svg>
