<svg width="173" height="707" fill="none" xmlns="http://www.w3.org/2000/svg"><path d="M175.781.392c2.846 17.426 2.905 36.749-10.468 50.327-12.521 12.713-33.43 15.07-46.829 27.366-25.077 23.015-2.518 73.927 4.499 99.594 6.2 22.678 6.016 32.68-17.073 42.583-12.81 5.496-27.522 4.873-40.843 8.617-17.719 4.979-47 12.375-57.729 29.186-10.979 17.203-5.629 45.166-1.484 63.527 6.493 28.761 20.253 55.853 32.514 82.399 15.94 34.511 32.362 68.72 51.413 101.65C123.51 563.938 1.111 642.598 43.3 695.23c39.704 42.382 84.399 62.464 94.577 64.688" stroke="#fff" stroke-opacity=".11"/></svg>