<svg width="22" height="23" fill="none" xmlns="http://www.w3.org/2000/svg"><path fill-rule="evenodd" clip-rule="evenodd" d="M6.284 2.857a.787.787 0 00-.778.803v.783h-.784A2.381 2.381 0 002.357 6.81v.784h17.317V6.81a2.38 2.38 0 00-2.363-2.366h-.784V3.66a.787.787 0 10-1.576 0v.783h-3.148V3.66a.787.787 0 10-1.575 0v.783H7.08V3.66a.787.787 0 00-.796-.803zm-3.927 6.31v8.656a2.38 2.38 0 002.365 2.364h12.589a2.378 2.378 0 002.363-2.364V9.167H2.357zm3.938 3.148a.787.787 0 110 1.574.787.787 0 010-1.574zm3.148 0a.787.787 0 110 1.573.787.787 0 010-1.573zm3.147 0a.787.787 0 110 1.573.787.787 0 010-1.573zm3.148 0a.787.787 0 110 1.573.787.787 0 010-1.573zm-9.443 3.147a.787.787 0 110 1.574.787.787 0 010-1.574zm3.148 0a.787.787 0 110 1.574.787.787 0 010-1.574zm3.147 0a.787.787 0 110 1.574.787.787 0 010-1.574zm3.148 0a.787.787 0 110 1.574.787.787 0 010-1.574z" fill="#D3D3D3"/></svg>