<svg width="186" height="301" fill="none" xmlns="http://www.w3.org/2000/svg"><path d="M183.913.52c2.98 18.25 3.042 38.486-10.963 52.705-13.113 13.315-35.01 15.782-49.043 28.66-26.262 24.103-2.637 77.421 4.713 104.302 6.493 23.75 6.299 34.225-17.88 44.596-13.417 5.755-28.823 5.103-42.774 9.024-18.557 5.214-49.221 12.961-60.458 30.566-11.498 18.016-5.895 47.301-1.554 66.529 6.8 30.121 21.21 58.494 34.051 86.294 16.694 36.143 33.891 71.969 53.843 106.455 35.323 61.053 73.226 122.849 117.409 177.969 5.035 6.283 21.355 29.851 32.014 32.179 3.201.699 7.816-1.334 10.949-1.788 10.397-1.504 20.899-2.318 31.337-3.493 44.109-4.962 77.723-33.563 109.933-62.212" stroke="#000" stroke-opacity=".11"/></svg>