<svg width="191" height="215" fill="none" xmlns="http://www.w3.org/2000/svg"><g clip-path="url(#clip0_803_4019)" fill="#FDB604"><path d="M160.423 163.974c-15.878 9.162-31.681 18.307-47.534 27.385-1.254.715-.875 1.447-.656 2.414 2.071 9.263-3.351 18.299-12.36 20.663-9.058 2.364-18.319-2.894-20.946-11.888-1.01-3.466-.85-6.899.253-10.508-16.249-9.372-32.472-18.728-48.762-28.125-.581.53-1.086.992-1.6 1.447-5.279 4.745-12.847 5.822-19.187 2.734-6.44-3.155-10.094-9.65-9.58-17.037.463-6.671 5.245-12.746 11.93-14.773 1.708-.522 2.07-1.271 2.062-2.903a7094.505 7094.505 0 010-51.867c0-1.708-.488-2.356-2.13-2.86C5.245 76.601.48 70.527.043 63.847c-.48-7.387 3.182-13.84 9.639-16.986 6.314-3.08 13.992-2.037 19.136 2.843 1.313 1.245 2.113 1.12 3.528.295 14.935-8.691 29.92-17.306 44.898-25.938a57.373 57.373 0 001.364-.816c0-3.366-.43-6.47.075-9.423C80.274 4.568 89.401-1.456 98.687.303c9.311 1.766 15.575 10.71 13.647 19.889-.489 2.33.118 3.197 2.046 4.299 15.381 8.758 30.686 17.642 45.588 26.249 3.174-1.75 5.91-3.853 9-4.846 8.924-2.877 18.353 2.314 21.207 11.265 2.846 8.918-1.936 18.484-10.869 21.404-1.86.605-2.408 1.38-2.399 3.314.084 17.222.076 34.436.017 51.658 0 1.581.412 2.221 1.995 2.742 6.802 2.238 10.936 7.034 11.887 14.101.935 6.974-1.767 12.603-7.577 16.641-1.751 1.22-3.586.917-4.647-.564-1.094-1.531-.732-3.197.994-4.543.168-.126.345-.235.513-.361 4.176-3.139 5.675-8.178 3.831-12.881-1.819-4.627-6.323-7.328-11.374-6.823-4.883.496-8.756 4.105-9.564 9.17-.674 4.24.909 7.665 4.226 10.34.649.522 1.659 1.026 1.777 1.674.21 1.178.252 2.684-.329 3.635-.858 1.405-2.525 1.481-3.923.589-1.456-.934-2.778-2.087-4.31-3.265v-.016zM82.287 28.462C66.375 37.632 50.556 46.76 34.71 55.847c-1.12.64-1.077 1.312-.816 2.398 2.155 9.069-2.905 17.945-11.812 20.553-1.482.438-1.793 1.052-1.793 2.448.042 17.5.042 34.999 0 52.499 0 1.422.353 2.011 1.81 2.44 8.84 2.633 13.975 11.45 11.828 20.36-.387 1.607.093 2.204 1.339 2.911 13.05 7.479 26.082 15.009 39.114 22.522 2.652 1.531 5.304 3.045 8.007 4.594 3.611-3.879 7.913-5.965 13.091-5.982 5.27-.017 9.581 2.221 13.159 5.982 15.954-9.205 31.773-18.333 47.609-27.419 1.145-.656 1.002-1.338.758-2.398-2.105-9.053 3.005-17.971 11.862-20.562 1.482-.429 1.801-1.043 1.793-2.44-.042-17.499-.042-34.999 0-52.498 0-1.405-.32-2.011-1.802-2.44-8.806-2.575-13.975-11.45-11.837-20.352.388-1.615-.092-2.204-1.33-2.91-11.837-6.782-23.649-13.613-35.469-20.428-3.864-2.23-7.728-4.442-11.542-6.646-7.619 7.858-18.631 7.942-26.393 0v-.017zm12.906-.362c6.036.135 11.096-4.686 11.197-10.676.109-5.94-4.63-10.954-10.532-11.131-6.045-.185-11.147 4.593-11.298 10.567-.152 6.04 4.647 11.105 10.633 11.24zm.244 180.598c6.019.017 10.961-4.913 10.953-10.928-.008-5.932-4.858-10.828-10.785-10.887-6.036-.068-11.02 4.812-11.054 10.819-.033 6.024 4.866 10.979 10.886 10.996zm89.207-146.272c.034-6.108-4.748-10.937-10.844-10.98-6.019-.033-10.995 4.889-10.986 10.896 0 5.923 4.84 10.794 10.801 10.87 6.095.075 11.004-4.72 11.029-10.786zM6.314 152.607c-.017 6.091 4.816 10.912 10.911 10.904 6.037-.009 10.97-4.956 10.92-10.963-.051-5.939-4.9-10.752-10.87-10.794-6.095-.042-10.944 4.762-10.96 10.853zm0-90.206c.026 6.074 4.917 10.886 11.004 10.81 5.969-.067 10.81-4.913 10.827-10.835.016-6.016-4.9-10.92-10.962-10.92-6.087 0-10.902 4.845-10.869 10.936v.009z"/><path d="M141.808 84.435c-3.645 2.103-6.878 3.887-10.018 5.847-.522.329-.825 1.38-.834 2.095-.067 5.805-.126 11.619 0 17.424.068 3.248-1.221 5.435-4.075 6.941-2.904 1.531-5.682 3.306-8.562 4.905-3.805 2.112-7.316.076-7.358-4.274-.05-4.888-.008-9.776-.008-15.135-2.627 1.506-4.841 3.138-7.308 4.105-4.21 1.658-5.236 4.4-5.118 8.826.345 13.638.126 27.292.126 40.947v2.902c.985-.504 1.641-.816 2.273-1.177 12.788-7.37 25.568-14.782 38.39-22.102 1.793-1.026 2.61-2.229 2.543-4.341-.135-4.055-.085-8.119-.009-12.174.042-2.12 1.381-3.399 3.242-3.357 1.852.042 2.963 1.329 3.039 3.534v.631c0 3.987-.059 7.984.017 11.972.084 4.055-1.709 6.907-5.186 8.901-12.561 7.202-25.106 14.462-37.65 21.698-1.818 1.051-3.612 2.145-5.472 3.121-2.938 1.548-5.944 1.581-8.832-.076a12623.335 12623.335 0 01-43.643-25.172c-2.947-1.708-4.504-4.333-4.504-7.783V82.298c0-3.45 1.549-6.074 4.504-7.782a13976.05 13976.05 0 0143.643-25.164c2.888-1.657 5.944-1.725 8.823-.076a9951.468 9951.468 0 0144.006 25.383c2.879 1.674 4.294 4.333 4.294 7.69 0 7.143.025 14.277 0 21.42 0 2.263-1.288 3.693-3.14 3.676-1.853-.016-3.141-1.455-3.158-3.718-.042-5.528-.016-11.064-.016-16.591v-2.692l-.009-.009zm-49.739 74.44c.118-.488.227-.74.227-1.001.009-15.808.034-31.617-.033-47.425 0-.631-.648-1.506-1.23-1.843-13.116-7.63-26.266-15.202-39.417-22.783-.707-.403-1.43-.774-2.357-1.27-.042.883-.101 1.498-.101 2.103 0 14.9.025 29.8-.042 44.7-.009 2.078.682 3.315 2.5 4.349 12.881 7.345 25.703 14.782 38.55 22.186.581.337 1.188.623 1.903.993v-.009zM52.568 78.781c.26.32.328.463.437.522 13.614 7.867 27.227 15.741 40.883 23.532.774.437 2.163.522 2.93.126 3.645-1.901 7.164-4.021 10.75-6.074-.143-.177-.176-.253-.227-.286-13.959-8.11-27.909-16.221-41.892-24.28-.43-.245-1.246-.228-1.684.016-3.713 2.078-7.384 4.24-11.197 6.444zM84.905 60.13c.202.236.27.379.379.446 13.857 8.035 27.715 16.07 41.589 24.07.413.236 1.128.37 1.499.169 3.342-1.851 6.642-3.786 10.279-5.881-2.223-1.287-4.134-2.398-6.045-3.5-11.576-6.68-23.126-13.385-34.753-19.981-1.027-.58-2.72-1.002-3.654-.556-3.199 1.515-6.205 3.45-9.303 5.233h.009zm36.353 28.833c-.202-.236-.245-.312-.295-.345-13.9-8.069-27.8-16.137-41.707-24.18-.37-.219-1.01-.395-1.33-.219-2.282 1.22-4.505 2.541-6.972 3.954 14.27 8.245 28.179 16.297 42.112 24.298.497.286 1.381.362 1.869.11 2.096-1.086 4.117-2.34 6.331-3.618h-.008zm-3.983 25.946c2.114-1.195 3.882-2.272 5.717-3.189 1.212-.605 1.675-1.388 1.642-2.776-.101-4.181-.026-8.371-.043-12.561 0-.572-.101-1.136-.176-1.918-2.24 1.295-4.252 2.414-6.205 3.61-.413.252-.892.807-.901 1.219-.059 5.073-.042 10.146-.042 15.615h.008z"/></g><defs><clipPath id="clip0_803_4019"><path fill="#fff" d="M0 0h191v215H0z"/></clipPath></defs></svg>