<svg width="199" height="104" fill="none" xmlns="http://www.w3.org/2000/svg"><path d="M23.977 34.43c-1.92-.538-2.584-1.995-2.428-4.05.157-2.054 1.375-3.28 3.25-3.482" stroke="#1A1D22" stroke-width="1.996" stroke-miterlimit="10" stroke-linecap="round" stroke-linejoin="round"/><path d="M68.496 102.148c10.16-16.677 17.727-36.007 16.995-40.34-.994-5.896-2.308-7.45-2.264-7.637.53-2.735-.97-5.066-1.352-8.824-.53-5.26-5.251-12.717-6.327-15.273-1.248-2.966 1.195-6.515 3.9-3.534 3.794 4.177 6.64 9.25 8.321 13.905-.104-1.472-.261-2.899-.5-4.191-1.293-7.099-4.46-14.57-5.7-17.051-1.225-2.451 1.77-6.224 4.833-2.698 1.48 1.704 5.536 10.663 7.097 15.938a165.19 165.19 0 011.98 7.33c.014-2.51-.127-5.066-.546-7.308-1.606-8.667-2.906-12.448-4.235-15.13-1.278-2.578 2.21-6.86 5.356-2.54 1.442 1.98 3.989 6.702 6.051 13.083 1.247 3.863 2.166 7.77 2.831 11.267.157-1.95.179-3.93-.045-5.768-.979-7.958-1.569-10.498-3.093-12.755-1.516-2.241 2.092-5.275 5.05-1.957 1.502 1.688 3.407 5.611 4.908 11.551.852 3.363 1.352 6.65 1.636 9.61l1.838-.838s.949 6.165.545 9.362c-.366 2.922.927-3.511-1.352-.642-2.495 3.153-8.919 7.173-8.919 7.173 0 20.234-6.514 47.26-6.514 47.26" fill="#fff"/><path d="M68.496 102.148c10.16-16.677 17.727-36.007 16.995-40.34-.994-5.896-2.308-7.45-2.264-7.637.53-2.735-.97-5.066-1.352-8.824-.53-5.26-5.251-12.717-6.327-15.273-1.248-2.966 1.195-6.515 3.9-3.534 3.794 4.177 6.64 9.25 8.321 13.905-.104-1.472-.261-2.899-.5-4.191-1.293-7.099-4.46-14.57-5.7-17.051-1.225-2.451 1.77-6.224 4.833-2.698 1.48 1.704 5.536 10.663 7.097 15.938a165.19 165.19 0 011.98 7.33c.014-2.51-.127-5.066-.546-7.308-1.606-8.667-2.906-12.448-4.235-15.13-1.278-2.578 2.21-6.86 5.356-2.54 1.442 1.98 3.989 6.702 6.051 13.083 1.247 3.863 2.166 7.77 2.831 11.267.157-1.95.179-3.93-.045-5.768-.979-7.958-1.569-10.498-3.093-12.755-1.516-2.241 2.092-5.275 5.05-1.957 1.502 1.688 3.407 5.611 4.908 11.551.852 3.363 1.352 6.65 1.636 9.61l1.838-.838s.949 6.165.545 9.362c-.366 2.922.927-3.511-1.352-.642-2.495 3.153-8.919 7.173-8.919 7.173 0 20.234-6.514 47.26-6.514 47.26" stroke="#1A1D22" stroke-width="1.996" stroke-miterlimit="10" stroke-linecap="round" stroke-linejoin="round"/><path d="M158.473 66.731l-78.594-31.92 2.196-13.053 84.802-18.672-8.404 63.645z" fill="#fff"/><path d="M158.473 66.731l-78.594-31.92 2.196-13.053 84.802-18.672-8.404 63.645z" stroke="#1A1D22" stroke-width="1.996" stroke-miterlimit="10"/><path d="M195.403 38.695c1.967-18.304-7.997-34.385-22.257-35.919-14.259-1.533-27.413 12.062-29.38 30.366-1.968 18.304 7.996 34.385 22.256 35.919 14.259 1.533 27.413-12.062 29.381-30.366z" fill="#fff"/><path d="M195.403 38.695c1.967-18.304-7.997-34.385-22.257-35.919-14.259-1.533-27.413 12.062-29.38 30.366-1.968 18.304 7.996 34.385 22.256 35.919 14.259 1.533 27.413-12.062 29.381-30.366z" stroke="#1A1D22" stroke-width="1.996" stroke-miterlimit="10" stroke-linecap="round" stroke-linejoin="round"/><path d="M192.321 38.164c1.657-15.415-6.737-28.959-18.748-30.25-12.011-1.292-23.092 10.157-24.749 25.573-1.657 15.415 6.737 28.959 18.748 30.25 12.012 1.292 23.092-10.158 24.749-25.573z" fill="#EB5B31"/><path d="M192.321 38.164c1.657-15.415-6.737-28.959-18.748-30.25-12.011-1.292-23.092 10.157-24.749 25.573-1.657 15.415 6.737 28.959 18.748 30.25 12.012 1.292 23.092-10.158 24.749-25.573z" stroke="#1A1D22" stroke-width="1.996" stroke-miterlimit="10"/><path d="M161.117 14.264c.299-.254.598-.5.904-.74l-.904.74z" fill="#fff"/><path d="M161.117 14.264c.299-.254.598-.5.904-.74" stroke="#1A1D22" stroke-width="1.996" stroke-miterlimit="10" stroke-linecap="round" stroke-linejoin="round"/><path d="M155.367 20.764a33.038 33.038 0 013.788-4.67l-3.788 4.67z" fill="#fff"/><path d="M155.367 20.764a33.038 33.038 0 013.788-4.67" stroke="#1A1D22" stroke-width="1.996" stroke-miterlimit="10" stroke-linecap="round" stroke-linejoin="round"/><path d="M106.652 29.154c.408-3.788-1.654-7.115-4.603-7.432-2.95-.317-5.67 2.496-6.078 6.283-.407 3.787 1.654 7.114 4.604 7.432 2.949.317 5.67-2.496 6.077-6.283z" fill="#735A13"/><path d="M27.173 23.693L104.76 6.709l-8.172 63.57-70.923-32.644" fill="#fff"/><path d="M27.173 23.693L104.76 6.709l-8.172 63.57-70.923-32.644" stroke="#1A1D22" stroke-width="1.996" stroke-miterlimit="10" stroke-linecap="round" stroke-linejoin="round"/><path d="M127.509 44.816c2.39-2.772 8.471-4.438 12.423-3.46-.844-5.499-.411-10.064-.411-10.064-2.293-.837-9.166-.762-12.244 3.452" fill="#fff"/><path d="M127.509 44.95c2.391-2.772 8.397-4.356 12.364-3.593.806-.688 1.277-9.624-.344-10.065-2.293-.837-9.166-.762-12.244 3.452" stroke="#1A1D22" stroke-width="1.996" stroke-miterlimit="10" stroke-linecap="round" stroke-linejoin="round"/><path d="M137.375 37.54c.601-.04 1.049-.691 1-1.457-.049-.766-.576-1.356-1.177-1.318-.601.039-1.049.69-1 1.457.049.766.576 1.356 1.177 1.317z" fill="#fff" stroke="#1A1D22" stroke-width="1.996" stroke-miterlimit="10" stroke-linecap="round" stroke-linejoin="round"/><path d="M83.66 40.22c4.153 2.033-8.202.397-9.554 2.519l9.554-2.518z" fill="#fff"/><path d="M83.66 40.22c4.153 2.033-8.202.397-9.554 2.519" stroke="#1A1D22" stroke-width="1.996" stroke-miterlimit="10" stroke-linecap="round" stroke-linejoin="round"/><path d="M84.353 34.535c-2.024-.15-10.256-1.622-12.497 1.763l12.497-1.763z" fill="#fff"/><path d="M84.353 34.535c-2.024-.15-10.256-1.622-12.497 1.763" stroke="#1A1D22" stroke-width="1.996" stroke-miterlimit="10" stroke-linecap="round" stroke-linejoin="round"/><path d="M76.53 39.581c.563-.201.81-.948.554-1.666-.258-.719-.923-1.138-1.486-.937-.563.202-.811.948-.554 1.667.257.719.922 1.138 1.486.936z" fill="#fff"/><path d="M76.53 39.581c.563-.201.81-.948.554-1.666-.258-.719-.923-1.138-1.486-.937-.563.202-.811.948-.554 1.667.257.719.922 1.138 1.486.936z" stroke="#1A1D22" stroke-width="1.996" stroke-miterlimit="10" stroke-linecap="round" stroke-linejoin="round"/><path d="M71.856 36.298s1.284 2.735 2.248 6.44c0 0 1.165.905 9.054-1.075" stroke="#1A1D22" stroke-width="1.996" stroke-miterlimit="10" stroke-linecap="round" stroke-linejoin="round"/><path d="M172.749 45.122c9.762-.625 17.404-5.391 17.068-10.646-.336-5.255-8.523-9.009-18.285-8.384-9.762.624-17.404 5.39-17.068 10.646.336 5.255 8.522 9.008 18.285 8.384z" fill="#fff" stroke="#1A1D22" stroke-width="1.996" stroke-miterlimit="10"/><path d="M154.965 29.005l2.42 2.57m2.9-6.149l1.666 3.123m3.987-5.2l.821 3.444m21.724.337l-2.077 2.862m-3.203-5.664l-1.441 3.228m-4.513-4.76l-.628 3.482m-5.168-3.781l.247 3.534M155.949 44.42l2.077-2.861m3.662 5.731l1.247-3.303m4.624 4.64l.366-3.512m21.515-3.101l-2.428-2.578m-2.467 6.024l-1.838-3.02m-3.869 5.298l-1.068-3.37m-4.646 4.401l-.194-3.527" stroke="#1A1D22" stroke-width="1.552" stroke-miterlimit="10" stroke-linecap="round" stroke-linejoin="round"/><path d="M175.337 41.288c3.668-.343 6.397-3.24 6.095-6.468-.302-3.23-3.521-5.57-7.189-5.226-3.668.343-6.396 3.24-6.094 6.469.302 3.23 3.52 5.569 7.188 5.225z" fill="#1A1D22"/><path d="M167.862 33.1l2.652 1.24-3.198 1.136.546-2.376zm-34.338 9.146c1.967-18.304-7.997-34.385-22.256-35.919-14.26-1.533-27.414 12.062-29.381 30.366-1.968 18.304 7.997 34.385 22.256 35.918 14.259 1.534 27.413-12.061 29.381-30.365z" fill="#fff"/><path d="M133.524 42.246c1.967-18.304-7.997-34.385-22.256-35.919-14.26-1.533-27.414 12.062-29.381 30.366-1.968 18.304 7.997 34.385 22.256 35.918 14.259 1.534 27.413-12.061 29.381-30.365z" stroke="#1A1D22" stroke-width="1.996" stroke-miterlimit="10"/><path d="M130.355 41.904c1.635-15.219-6.649-28.59-18.504-29.864-11.856-1.275-22.792 10.028-24.428 25.247-1.636 15.218 6.649 28.589 18.504 29.863 11.855 1.275 22.792-10.028 24.428-25.247z" fill="#EB5B31"/><path d="M130.355 41.904c1.635-15.219-6.649-28.59-18.504-29.864-11.856-1.275-22.792 10.028-24.428 25.247-1.636 15.218 6.649 28.589 18.504 29.863 11.855 1.275 22.792-10.028 24.428-25.247z" stroke="#1A1D22" stroke-width="1.996" stroke-miterlimit="10"/><path d="M110.932 47.715c9.763-.625 17.405-5.391 17.069-10.646-.336-5.255-8.523-9.009-18.285-8.384-9.763.624-17.404 5.39-17.069 10.646.337 5.255 8.523 9.008 18.285 8.384z" fill="#fff" stroke="#1A1D22" stroke-width="1.996" stroke-miterlimit="10"/><path d="M93.144 31.598l2.428 2.57m2.901-6.148l1.666 3.123m3.986-5.193l.814 3.436m21.731.337l-2.076 2.861m-3.211-5.664l-1.442 3.229m-4.513-4.759l-.627 3.482m-5.168-3.774l.254 3.526M94.129 47.013l2.077-2.862m3.661 5.732l1.255-3.303m4.616 4.64l.374-3.512m21.508-3.101l-2.421-2.578m-2.467 6.023l-1.837-3.019m-3.87 5.297l-1.068-3.37m-4.646 4.41l-.202-3.535" stroke="#1A1D22" stroke-width="1.552" stroke-miterlimit="10" stroke-linecap="round" stroke-linejoin="round"/><path d="M113.388 43.612c3.668-.343 6.397-3.24 6.095-6.468-.303-3.23-3.521-5.569-7.189-5.226-3.668.344-6.397 3.24-6.095 6.47.303 3.228 3.521 5.568 7.189 5.224z" fill="#1A1D22"/><path d="M105.931 35.356l2.637 1.27-3.197 1.107.56-2.377zm-80.266 2.28c-1.92-.815-3.197-3.55-2.794-7.338.411-3.788 2.361-6.06 4.303-6.605" fill="#fff"/><path d="M25.665 37.636c-1.92-.815-3.197-3.55-2.794-7.338.411-3.788 2.361-6.06 4.303-6.605" stroke="#1A1D22" stroke-width="1.996" stroke-miterlimit="10" stroke-linecap="round" stroke-linejoin="round"/><path d="M29.071 39.204c-2.248-.956-4.564-4.102-4.086-8.54.478-4.438 3.593-7.136 5.864-7.778" stroke="#1A1D22" stroke-width="1.996" stroke-miterlimit="10" stroke-linecap="round" stroke-linejoin="round"/><path d="M36.177 102.589c10.877-10.991 25.578-37.248 26.789-41.477.896-3.13.552-6.142.5-6.328-.53-2.735-.993-5.238-.612-9.004.53-5.26 5.251-12.717 6.327-15.273 1.247-2.966-1.195-6.515-3.9-3.534-3.795 4.177-6.64 9.25-8.321 13.906.104-1.472.261-2.9.5-4.192 1.292-7.099 4.632-14.369 5.872-16.85 1.225-2.45-1.943-6.425-5.005-2.898-1.48 1.703-5.536 10.662-7.097 15.937a165.012 165.012 0 00-1.98 7.33c-.015-2.51.127-5.066.546-7.308 1.606-8.667 2.906-12.448 4.235-15.13 1.278-2.578-2.697-6.157-5.841-1.838-1.442 1.98-3.504 6-5.573 12.38-1.248 3.864-2.167 7.771-2.831 11.268-.157-1.95-.18-3.93.044-5.768.979-7.95 1.86-10.289 3.093-12.74 1.21-2.413-2.092-5.275-5.05-1.957-1.501 1.689-3.406 5.611-4.908 11.551a63.984 63.984 0 00-1.643 9.572l-1.084-.5s-.41 4.849-.007 8.047c.366 2.921 1.06 6.186 3.34 9.055 2.494 3.154 6.349 6.815 6.349 6.815C39.92 68.808 1 102.58 1 102.58" fill="#fff"/><path d="M36.177 102.589c10.877-10.991 25.578-37.248 26.789-41.477.896-3.13.552-6.142.5-6.328-.53-2.735-.993-5.238-.612-9.004.53-5.26 5.251-12.717 6.327-15.273 1.247-2.966-1.195-6.515-3.9-3.534-3.795 4.177-6.64 9.25-8.321 13.906.104-1.472.261-2.9.5-4.192 1.292-7.099 4.632-14.369 5.872-16.85 1.225-2.45-1.943-6.425-5.005-2.898-1.48 1.703-5.536 10.662-7.097 15.937a164.875 164.875 0 00-1.98 7.33c-.015-2.51.127-5.066.546-7.308 1.606-8.667 2.906-12.448 4.235-15.13 1.278-2.578-2.697-6.157-5.841-1.838-1.442 1.98-3.504 6-5.573 12.38-1.248 3.864-2.167 7.771-2.831 11.268-.157-1.95-.18-3.93.044-5.768.979-7.95 1.86-10.289 3.093-12.74 1.21-2.413-2.092-5.275-5.05-1.957-1.501 1.689-3.406 5.611-4.908 11.551a63.984 63.984 0 00-1.643 9.572l-1.084-.5s-.41 4.849-.007 8.047c.366 2.921 1.06 6.186 3.34 9.055 2.494 3.154 6.349 6.815 6.349 6.815C39.92 68.808 1 102.58 1 102.58" stroke="#1A1D22" stroke-width="1.996" stroke-miterlimit="10" stroke-linecap="round" stroke-linejoin="round"/><path d="M100.098 17.416c.313-.261.627-.523.941-.77l-.941.77z" fill="#fff"/><path d="M100.098 17.416c.313-.261.627-.523.941-.77" stroke="#1A1D22" stroke-width="1.996" stroke-miterlimit="10" stroke-linecap="round" stroke-linejoin="round"/><path d="M94.348 23.917a32.997 32.997 0 013.787-4.67l-3.787 4.67z" fill="#fff"/><path d="M94.348 23.917a32.997 32.997 0 013.787-4.67" stroke="#1A1D22" stroke-width="1.996" stroke-miterlimit="10" stroke-linecap="round" stroke-linejoin="round"/></svg>