<svg width="107" height="96" fill="none" xmlns="http://www.w3.org/2000/svg"><path d="M94.31 15.724c-3.17-3.904-2.487-6.526 2.034-7.858 2.198-3.317 4.182-3.51 5.921-.595 2.665 1.565 3.892 4.877 5.023 7.576 2.288 5.553 3.227 11.73 3.132 17.721-.252 15.103-7.791 28.916-19.112 38.632-7.417 6.371-17.916 12.888-27.952 9.876C57.8 79.415 52.85 74.348 49.377 69.87c-6.762-8.708-10.237-19.73-9.963-30.74.105-4.545.24-11.996 3.235-15.745 6.607-8.236 16.914 2.925 19.638 8.054 6.12 11.536 3.083 24.63-1.208 36.213-3.688 9.923-10.115 20.035-21.503 22.027-6.038 1.06-12.565.216-17.994-2.655-4.86-2.568-8.679-6.778-10.955-11.758-.873-1.9-3.795-8.118-2.365-10.403 4.432-7.046 8.656 5.224 9.535 8.244.8 2.725 7.894-1.709 7.214-3.99-1.865-6.201-4.512-13.085-12.224-12.737-3.914.174-8.04 2.774-9.906 6.182-8.1 14.747 9.816 30.781 23.075 32.372 13.12 1.586 26.905-4.766 34.436-15.552 8.708-12.458 15.027-32.96 9.784-47.79C65.96 19.685 50.964 8.902 40.12 20.065c-9.827 10.1-7.906 30.349-3.252 42.159C42.061 75.4 55.256 90.42 70.92 86.173c15.508-4.22 30.313-17.68 38.053-31.453 7.407-13.28 12.08-39.974-1.612-51.448C97.852-4.7 82.826 7.55 91.111 18c.724.915 3.747-1.245 3.199-2.276z" fill="#CACACA"/></svg>