<svg width="216" height="327" fill="none" xmlns="http://www.w3.org/2000/svg"><g clip-path="url(#clip0_2680_28149)" fill="#F3F3F3"><path d="M118.595 43.534a4.614 4.614 0 00-1.53 1.307C88.732 61.29 51.169 90.43 42.02 123.2c-8.51 30.467 5.359 61.496 16.524 89.741 10.226 25.884 22.211 49.067 50.219 57.482 25.69 7.721 63.402 21.937 90.299 13.504 36.036-11.295 55.687-49.612 71.284-81.427 4.729-9.657 11.353-22.377 9.489-33.557-2.121-12.728-7.504-25.33-11.866-37.387-8.969-24.814-18.896-64.436-44.777-77.509-28.357-14.31-74.882-26.147-104.597-10.513zm2.524 8.204c.225-.07.435-.06.672-.167 26.722-12.702 66.025.21 91.863 10.094.666.254 1.271.606 1.913.896 8.934 14.27-16.231 37.682-24.24 47.672-11.982 14.957-25.796 29.005-43.036 37.763-12.951 6.58-26.278 5.539-39.922 2.462-16.96-3.82-52.344-10.155-52.368-31.866 7.12-14.62 20.608-27.108 31.727-37.776 10.618-10.19 21.289-20.647 33.391-29.078zm-53.397 152.83c-8.468-21.328-19.346-45.875-16.612-69.249 5.89 7.518 16.576 12.243 27.376 16.264 20.069 7.488 41.238 13.813 62.226 9.326 6.171 6.068 10.71 14.069 14.394 22.597a128.936 128.936 0 002.693 7.391c.155.391.391.683.633.973 2.483 6.696 4.632 13.406 6.803 19.468 7.496 20.91 13.729 42.86 23.614 62.799-22.735 3.725-52.262-7.925-73.61-13.813-27.767-7.66-37.579-30.728-47.517-55.756zm188.181-73.024c4.057 10.974 7.904 22.037 11.216 33.261 3.131 10.617-1.054 19.299-5.397 29.09-12.822 28.888-32.92 67.855-64.935 78.323-7.085-24.845-17.184-49.289-26.154-73.538-1.943-5.254-4.032-11.329-6.539-17.398-2.11-9.925-4.041-18.93-1.293-29.569 17.896-11.261 32.427-29.778 44.585-45.63 7.998-10.418 19.388-22.665 20.504-34.431 14.577 15.545 21.576 42.5 28.002 59.883l.011.009z"/><path d="M202.373 181.358c3.886-2.876 5.836-7.81 5.558-12.542-.308-5.426-5.105-10.83-10.532-11.413-5.54-.598-10.757 3.433-12.308 8.666-.785 2.661-.67 5.728.28 8.451.75 2.722 2.222 5.304 3.896 6.82 3.8 3.432 9.185 2.921 13.101.02l.005-.002zm26.184-30.357c3.892-2.878 5.836-7.809 5.563-12.544-.308-5.426-5.098-10.832-10.532-11.412-5.545-.596-10.756 3.432-12.307 8.666-.795 2.67-.672 5.755.288 8.487.751 2.708 2.222 5.27 3.893 6.781 3.8 3.432 9.185 2.921 13.095.022zm-9.895 48.694c-5.538-.592-10.756 3.432-12.308 8.666-.788 2.669-.676 5.744.284 8.476.751 2.708 2.218 5.278 3.898 6.792 3.8 3.433 9.185 2.921 13.101.02 3.883-2.881 5.836-7.809 5.557-12.541-.308-5.426-5.099-10.832-10.532-11.413zm-105.165-9.428c-7.923.15-12.192 7.602-12.847 14.688-2.146 8.89 5.164 17.672 14.338 20.065 5.1 1.332 10.664.317 14.349-3.617 4.662-4.973 3.652-12.315 2.071-18.3-2.095-7.928-10.018-12.98-17.911-12.836zm5.647 19.789l-.081-.035-.004-.011c.103.025.117.026.093.049l-.008-.003zm-28.003-86.375c3.752-.001 7.593-2.32 9.691-5.509.052-.054.105-.089.157-.142 2.015-2.192 3.506-6.005 2.866-8.971-2.055-9.5-14.364-8.132-19.466-2.092-2.09 2.474-3.313 6.307-2.683 9.516.938 4.836 4.707 7.203 9.435 7.198zm41.688-16.578c3.751-.001 7.587-2.318 9.691-5.51.051-.053.104-.088.156-.142 2.022-2.194 3.507-6.004 2.867-8.97-2.055-9.5-14.364-8.132-19.467-2.092-2.089 2.474-3.307 6.305-2.682 9.516.938 4.836 4.706 7.202 9.441 7.196l-.006.002zm41.691-16.577c3.752-.002 7.587-2.319 9.691-5.51.052-.054.105-.088.157-.142 2.021-2.194 3.506-6.005 2.866-8.97-2.055-9.501-14.364-8.133-19.466-2.093-2.09 2.475-3.308 6.305-2.683 9.516.938 4.836 4.707 7.203 9.441 7.196l-.006.003zM79.35 259.881c-9.973-9.153-14.91-21.034-22.458-31.851-.203-.292-.68-.089-.643.256 2.877 23.498 31.194 53.019 55.799 52.442.862-.023.891-1.205.228-1.534-11.882-5.906-22.904-10.119-32.926-19.313zM55.255 223.89c.484-2.281-.714-4.692-1.469-6.807-.81-2.272-2.084-4.354-4.024-5.804-.282-.207-.805 0-.72.399.494 2.212 1.248 4.36 2.165 6.431.906 2.061 1.46 4.675 3.382 6.046.261.189.604.046.672-.267l-.006.002z"/></g><defs><clipPath id="clip0_2680_28149"><path fill="#fff" transform="rotate(-21.684 235.917 45.184)" d="M0 0h244.57v253.614H0z"/></clipPath></defs></svg>