<svg width="272" height="150" fill="none" xmlns="http://www.w3.org/2000/svg"><mask id="path-1-inside-1_2754_3270" fill="#fff"><path fill-rule="evenodd" clip-rule="evenodd" d="M269.054 43.109c-6.442 15.105-23.655 22.32-38.867 16.506l-55.241 49.518a30.327 30.327 0 01-.623 22.298c-6.596 15.467-24.484 22.66-39.953 16.068-14.738-6.281-21.964-22.81-16.908-37.734l-31.19-32.096c-7.419 3.243-16.108 3.54-24.144.115a30.432 30.432 0 01-7.799-4.814l-37.25 21.4c.8 5.373.171 11.027-2.117 16.391-6.596 15.466-24.483 22.66-39.952 16.068-15.469-6.593-22.662-24.475-16.066-39.941 6.596-15.466 24.484-22.66 39.953-16.068a30.512 30.512 0 016.478 3.754l38.365-22.04a30.303 30.303 0 012.322-14.691c6.596-15.466 24.483-22.66 39.952-16.068 15.286 6.514 22.491 24.052 16.295 39.39l30.277 31.158c7.736-3.902 17.077-4.495 25.671-.832.431.183.856.376 1.274.577l53.818-48.242c-3.432-7.514-3.81-16.392-.313-24.59 6.596-15.466 24.483-22.66 39.952-16.068 15.469 6.592 22.662 24.474 16.066 39.94z"/></mask><path fill-rule="evenodd" clip-rule="evenodd" d="M269.054 43.109c-6.442 15.105-23.655 22.32-38.867 16.506l-55.241 49.518a30.327 30.327 0 01-.623 22.298c-6.596 15.467-24.484 22.66-39.953 16.068-14.738-6.281-21.964-22.81-16.908-37.734l-31.19-32.096c-7.419 3.243-16.108 3.54-24.144.115a30.432 30.432 0 01-7.799-4.814l-37.25 21.4c.8 5.373.171 11.027-2.117 16.391-6.596 15.466-24.483 22.66-39.952 16.068-15.469-6.593-22.662-24.475-16.066-39.941 6.596-15.466 24.484-22.66 39.953-16.068a30.512 30.512 0 016.478 3.754l38.365-22.04a30.303 30.303 0 012.322-14.691c6.596-15.466 24.483-22.66 39.952-16.068 15.286 6.514 22.491 24.052 16.295 39.39l30.277 31.158c7.736-3.902 17.077-4.495 25.671-.832.431.183.856.376 1.274.577l53.818-48.242c-3.432-7.514-3.81-16.392-.313-24.59 6.596-15.466 24.483-22.66 39.952-16.068 15.469 6.592 22.662 24.474 16.066 39.94z" fill="#F3F3F3"/><path d="M230.187 59.615l2.253-5.89-3.596-1.373-2.866 2.57 4.209 4.693zm38.867-16.506l5.8 2.472-5.8-2.472zm-94.108 66.024l-4.209-4.694-3.169 2.841 1.449 4.001 5.929-2.148zm-.623 22.298l-5.801-2.472 5.801 2.472zm-39.953 16.068l2.474-5.8-2.474 5.8zm-16.908-37.734l5.972 2.022 1.237-3.652-2.686-2.764-4.523 4.394zm-31.19-32.096l4.523-4.394-3.044-3.133-4.004 1.75 2.525 5.777zm-24.144.115l-2.474 5.8 2.474-5.8zm-7.799-4.814l4.086-4.803-3.38-2.874-3.847 2.21 3.141 5.467zm-37.25 21.4l-3.14-5.467-3.73 2.142.634 4.253 6.237-.928zm-2.117 16.391l5.801 2.472-5.8-2.472zm-39.952 16.068l-2.473 5.8 2.473-5.8zM-1.103 70.82l-2.473 5.8 2.473-5.8zm6.478 3.754l-3.81 5.024 3.329 2.524 3.622-2.082-3.14-5.466zm38.365-22.04L46.881 58l3.508-2.015-.369-4.027-6.28.575zm2.322-14.691l5.8 2.472-5.8-2.472zm39.952-16.068l-2.473 5.8 2.473-5.8zm16.295 39.39l-5.847-2.36-1.539 3.808 2.863 2.946 4.523-4.394zm30.277 31.158l-4.523 4.394 3.228 3.321 4.135-2.086-2.84-5.629zm25.671-.832l-2.473 5.8 2.473-5.8zm1.274.577l-2.732 5.683 3.801 1.826 3.14-2.815-4.209-4.694zm53.818-48.242l4.209 4.694 3.453-3.095-1.926-4.218-5.736 2.62zm-.313-24.59l5.8 2.472-5.8-2.472zm39.952-16.068l-2.473 5.8 2.473-5.8zm-25.053 62.337c18.365 7.019 39.142-1.688 46.919-19.924l-11.601-4.945c-5.107 11.976-18.756 17.698-30.813 13.09l-4.505 11.779zm-48.78 48.322l55.241-49.518-8.418-9.388-55.241 49.518 8.418 9.388zm.968 20.077a36.634 36.634 0 00.753-26.918l-11.859 4.295a24.02 24.02 0 01-.495 17.678l11.601 4.945zm-48.226 19.395c18.672 7.958 40.264-.726 48.226-19.395l-11.601-4.945c-5.23 12.263-19.413 17.967-31.678 12.74l-4.947 11.6zm-20.408-45.556c-6.104 18.022 2.615 37.973 20.408 45.556l4.947-11.6c-11.684-4.979-17.416-18.086-13.41-29.912l-11.945-4.044zm10.496-2.372l-31.19-32.096-9.046 8.788 31.19 32.096 9.046-8.788zm-62.33-21.787c9.7 4.133 20.198 3.772 29.143-.139l-5.051-11.553c-5.894 2.577-12.773 2.807-19.146.092l-4.947 11.6zm-9.411-5.811a36.735 36.735 0 009.41 5.81l4.947-11.6a24.13 24.13 0 01-6.186-3.816l-8.171 9.606zM20.22 99.836l37.25-21.4-6.283-10.933-37.25 21.4 6.283 10.933zm.542 13.397a36.599 36.599 0 002.554-19.792l-12.474 1.857a23.99 23.99 0 01-1.68 12.99l11.6 4.945zm-48.226 19.396c18.672 7.957 40.264-.726 48.226-19.396l-11.6-4.945c-5.23 12.263-19.414 17.968-31.68 12.741l-4.946 11.6zm-19.393-48.213c-7.963 18.67.72 40.255 19.393 48.213l4.946-11.6c-12.265-5.228-17.968-19.406-12.738-31.669l-11.601-4.944zM1.37 65.02c-18.672-7.957-40.264.726-48.226 19.396l11.6 4.944c5.23-12.263 19.414-17.967 31.68-12.74l4.946-11.6zm7.815 4.53a36.817 36.817 0 00-7.815-4.53l-4.946 11.6c1.878.8 3.596 1.807 5.141 2.978l7.62-10.049zM40.6 47.066L2.234 69.107 8.516 80.04 46.881 58 40.6 47.067zm-.337-11.696a36.608 36.608 0 00-2.801 17.738l12.559-1.151a23.998 23.998 0 011.842-11.643l-11.6-4.944zm48.226-19.396C69.817 8.017 48.225 16.7 40.262 35.37l11.601 4.944c5.23-12.263 19.413-17.967 31.68-12.74l4.946-11.6zm19.668 47.55c7.48-18.517-1.216-39.687-19.668-47.55l-4.947 11.6c12.12 5.165 17.832 19.071 12.92 31.23l11.695 4.72zm-10.37 2.034l30.277 31.158 9.046-8.788-30.277-31.158-9.046 8.788zm62.944 20.132c-10.375-4.422-21.659-3.7-30.983 1.003l5.679 11.258c6.148-3.101 13.545-3.565 20.358-.661l4.946-11.6zm1.534.694a37.078 37.078 0 00-1.534-.695l-4.946 11.6c.344.147.682.3 1.015.46l5.465-11.365zm46.876-47.253l-53.818 48.242 8.418 9.388 53.818-48.242-8.418-9.388zm-1.905-22.368c-4.221 9.896-3.759 20.622.377 29.681l11.473-5.238c-2.726-5.97-3.021-12.999-.249-19.499l-11.601-4.944zm48.226-19.396c-18.672-7.957-40.263.726-48.226 19.396l11.601 4.944c5.23-12.263 19.413-17.967 31.679-12.74l4.946-11.6zm19.393 48.213c7.963-18.67-.72-40.256-19.393-48.213l-4.946 11.6c12.266 5.227 17.968 19.406 12.738 31.668l11.601 4.945z" fill="#fff" mask="url(#path-1-inside-1_2754_3270)"/></svg>