<svg width="102" height="102" fill="none" xmlns="http://www.w3.org/2000/svg"><g clip-path="url(#clip0_2680_28485)"><path d="M77.617 35.1c-6.013-3.365-12.24-1.68-17.208 1.86 1.096-5.334.767-11.347-2.935-15.223-6.493-6.802-14.211-5.267-20.24.574-7.052 6.832-8.626 18.961-10.01 28.19-1.352 9.026-2.858 19.654.02 28.697.293.922 1.132 1.406 1.974 1.475.028.004.053.018.086.018 4.19.159 8.589-1.67 12.627-2.554 5.577-1.215 11.1-2.497 16.502-4.272 9.407-3.092 19-8.833 22.72-18.24 2.386-6.036 3.843-16.401-3.534-20.528l-.002.003zM64.363 65.972c-10.185 5.768-22.467 5.857-33.27 9.838-.897-11.663.702-23.543 3.237-34.746 1.633-7.217 4.405-15.872 12.098-18.714 12.149-4.487 8.101 15.884 7.877 20.386-.07 1.367 1.406 2.149 2.587 1.917.577.128 1.213.037 1.8-.45 5.236-4.355 17.555-11.336 19.434.58 1.47 9.32-6.471 17.062-13.764 21.19l.002-.001z" fill="#fff"/><path d="M91.88 45.245c1.32-.145 2.715-.257 3.41-1.514.519-.938.15-2.033-.77-2.627-1.054-.68-2.21-.425-3.336-.266-1.04.148-2.075.307-3.112.473-.916.145-1.54 1.093-1.517 1.96.032 1.157 1.01 2.015 2.156 2.085 1.07.065 2.114.004 3.169-.111zm-5.895-6.869c1.156.858 2.556.455 3.785-.065 1.268-.536 2.166-1.27 2.846-2.448.916-1.586-1.013-3.449-2.635-2.587-.737.39-1.48.777-2.224 1.157-.573.292-1.22.43-1.774.816-1.324.563-1.28 2.425-.002 3.128h.004zm8.305 9.481c-.876-1.021-2.286-.95-3.49-.918-.932.025-1.87-.011-2.805-.01-1.744-.002-2.723 2.654-.868 3.45a12.3 12.3 0 003.207.897c1.628.235 3.328.375 4.306-1.112.487-.74.202-1.66-.35-2.305v-.002zM34.608 14.954a36.216 36.216 0 00-1.558-2.224c-.531-.711-1.304-1.154-2.206-.935-.976.236-1.667 1.301-1.323 2.29.315.903.729 1.783 1.206 2.622.52.913.994 1.983 1.747 2.74.672.676 1.749.833 2.554.397.873-.473 1.121-1.373.944-2.3-.176-.92-.863-1.792-1.367-2.585l.003-.005zm6.921.156c.772-1.165.266-2.678-.095-3.948-.325-1.143-.817-2.261-1.542-3.224-.531-.705-1.288-1.145-2.19-.929a1.81 1.81 0 00-1.31 2.272c.282.963.53 1.94.794 2.909.319 1.17.32 2.293 1.216 3.247.936.998 2.466.668 3.128-.329l-.002.003zm4.186-4.404c-.044.875-.183 1.702.107 2.565.405 1.207 2.318 2.097 3.24.922.7-.892.864-1.682.919-2.81.044-.899.033-1.8.086-2.695.14-2.306-3.421-2.64-3.999-.57-.235.844-.308 1.712-.353 2.588z" fill="#2D2D2D"/></g><defs><clipPath id="clip0_2680_28485"><path fill="#fff" transform="rotate(30 18.5 69.043)" d="M0 0h75v74H0z"/></clipPath></defs></svg>