<svg width="60" height="60" fill="none" xmlns="http://www.w3.org/2000/svg"><path d="M42.244 33.119a.626.626 0 01.18-.555l8.506-8.29c.653-.637.883-1.57.602-2.437a2.362 2.362 0 00-1.92-1.618l-11.754-1.708a.626.626 0 01-.471-.342L32.13 7.517A2.362 2.362 0 0030 6.192c-.912 0-1.728.508-2.132 1.325l-2.648 5.365a.875.875 0 001.57.775l2.648-5.365a.61.61 0 01.562-.35.61.61 0 01.561.35l5.257 10.652a2.377 2.377 0 001.79 1.3l11.754 1.708a.61.61 0 01.506.426.61.61 0 01-.159.642l-8.505 8.29a2.376 2.376 0 00-.684 2.104l2.008 11.708a.61.61 0 01-.25.612.61.61 0 01-.659.048l-4.252-2.236a.875.875 0 00-.815 1.55l4.253 2.235a2.369 2.369 0 002.503-.18 2.363 2.363 0 00.945-2.325l-2.008-11.707zm-8.206 8.677l-2.933-1.542a2.376 2.376 0 00-2.213 0L18.38 45.782a.61.61 0 01-.66-.048.61.61 0 01-.249-.613l2.008-11.707a2.376 2.376 0 00-.683-2.103L10.29 23.02a.61.61 0 01-.158-.642.61.61 0 01.505-.427l11.755-1.708a2.376 2.376 0 001.79-1.3l.947-1.919a.875.875 0 00-1.57-.775l-.948 1.92a.626.626 0 01-.471.342l-11.755 1.708a2.362 2.362 0 00-1.918 1.618c-.282.866-.051 1.8.601 2.436l8.506 8.291a.626.626 0 01.18.554l-2.008 11.707c-.154.898.208 1.79.946 2.325a2.368 2.368 0 002.503.18l10.513-5.526a.626.626 0 01.583 0l2.933 1.541a.875.875 0 00.815-1.55zM4.569 7.571l7.112 3.558a1.902 1.902 0 002.14-.294 1.899 1.899 0 00.5-2.102L11.466 1.31A1.93 1.93 0 009.062.187c-2.483.85-4.292 2.493-5.378 4.881a1.93 1.93 0 00.885 2.503zm.708-1.778c.891-1.96 2.315-3.252 4.352-3.95a.135.135 0 01.044-.006c.066 0 .137.042.16.101l2.853 7.423c.011.029.04.103-.042.177a.145.145 0 01-.18.025L5.353 6.006a.177.177 0 01-.075-.213zm40.903 5.041a1.903 1.903 0 002.139.294l7.112-3.557a1.93 1.93 0 00.886-2.503C55.23 2.68 53.42 1.038 50.939.188a1.93 1.93 0 00-2.406 1.122L45.68 8.733a1.9 1.9 0 00.5 2.101zm1.134-1.473l2.853-7.423c.023-.06.094-.102.16-.102.015 0 .03.003.044.007 2.037.698 3.46 1.99 4.352 3.95a.173.173 0 01-.075.212l-7.112 3.557a.144.144 0 01-.18-.024.145.145 0 01-.042-.177zM13.82 49.166a1.899 1.899 0 00-2.139-.294L4.57 52.429a1.93 1.93 0 00-.885 2.503c1.086 2.389 2.895 4.03 5.378 4.88.2.07.404.102.607.102.772 0 1.51-.473 1.798-1.224l2.853-7.423a1.899 1.899 0 00-.5-2.101zm-1.134 1.473l-2.853 7.423c-.028.074-.13.12-.204.095-2.037-.698-3.46-1.99-4.352-3.95-.032-.072.004-.177.075-.212l7.113-3.557a.15.15 0 01.075-.021c.03 0 .066.01.104.045a.145.145 0 01.042.177zm42.745 1.791l-1.22-.611a.875.875 0 10-.782 1.566l1.22.61c.07.035.107.14.074.213-.89 1.96-2.314 3.252-4.351 3.949-.075.026-.177-.021-.205-.095l-2.853-7.423a.145.145 0 01.042-.176.145.145 0 01.18-.025l2.52 1.26a.875.875 0 10.783-1.566l-2.52-1.26a1.899 1.899 0 00-2.14.294 1.899 1.899 0 00-.499 2.101l2.853 7.423a1.933 1.933 0 001.798 1.224c.203 0 .408-.032.608-.1 2.482-.85 4.292-2.493 5.377-4.882a1.93 1.93 0 00-.885-2.503zM6.853 30.015a1.569 1.569 0 00-.868-1.445l-3.29-1.661a1.596 1.596 0 00-1.234-.083 1.55 1.55 0 00-.906.814c-.74 1.584-.74 3.118 0 4.56a1.585 1.585 0 002.063.72l3.306-1.498a1.57 1.57 0 00.929-1.407zM2.044 31.26c-.393-.855-.386-1.744.021-2.707l2.815 1.422-2.836 1.285zm57.403-3.62a1.55 1.55 0 00-.906-.814 1.595 1.595 0 00-1.235.083l-3.29 1.661a1.57 1.57 0 00-.867 1.445c.013.614.368 1.154.928 1.407l3.307 1.499a1.584 1.584 0 002.062-.721c.74-1.442.74-2.976 0-4.56zm-1.49 3.619l-2.835-1.285 2.815-1.422c.407.963.414 1.852.02 2.707zM20.83 6.342a.876.876 0 001.685-.477l-.942-3.322a.875.875 0 10-1.684.478l.941 3.321zM9.39 15.784a.875.875 0 00-.441-1.157l-2.61-1.167a.875.875 0 10-.715 1.598l2.61 1.168a.874.874 0 001.157-.442zm-4.057 24.1a.875.875 0 10.96 1.464l2.391-1.568a.875.875 0 10-.96-1.464l-2.391 1.568zm18.119 12.761a.875.875 0 00-1.187.353l-1.362 2.514a.875.875 0 101.539.834l1.363-2.514a.875.875 0 00-.353-1.187zM38.09 6.946a.876.876 0 001.08-.604l.942-3.321a.875.875 0 00-1.684-.478l-.941 3.322a.875.875 0 00.603 1.08zm16.727 6.956a.875.875 0 00-1.157-.442l-2.61 1.167a.875.875 0 10.714 1.598l2.61-1.167a.875.875 0 00.443-1.156zm-3.752 24.666a.875.875 0 00.252 1.212l2.392 1.568a.875.875 0 10.96-1.464l-2.392-1.568a.875.875 0 00-1.212.252zm-13.33 14.43a.875.875 0 10-1.54.834l1.363 2.514a.875.875 0 101.54-.834l-1.363-2.514z" fill="#000"/></svg>