<svg width="60" height="60" fill="none" xmlns="http://www.w3.org/2000/svg"><path d="M59.642 17.628a21.37 21.37 0 00-1.656-5.172.87.87 0 00-.082-.176 21.59 21.59 0 00-2.547-4.08.882.882 0 00-.134-.173c-.007-.008-.015-.014-.022-.02a21.736 21.736 0 00-3.287-3.272c-.006-.007-.012-.015-.02-.022a.88.88 0 00-.178-.136 21.59 21.59 0 00-4.094-2.526.864.864 0 00-.175-.082 21.364 21.364 0 00-5.2-1.634A21.568 21.568 0 0035.52.2h-.01c-9.1 1.25-16.406 8.201-18.186 17.124a21.458 21.458 0 00-6.647 2.522.88.88 0 00.89 1.52 19.677 19.677 0 015.47-2.178 21.692 21.692 0 00.205 6.147 21.36 21.36 0 001.635 5.202c.02.06.048.12.082.176a21.603 21.603 0 002.526 4.094.875.875 0 00.136.178l.022.02a21.743 21.743 0 003.271 3.287l.02.022a.875.875 0 00.174.134 21.586 21.586 0 004.08 2.546.87.87 0 00.177.083 21.362 21.362 0 005.17 1.656 21.581 21.581 0 006.277.228c-2.046 8.744-9.907 15.276-19.266 15.276-10.91 0-19.785-8.875-19.785-19.784 0-5.501 2.204-10.611 6.206-14.39a.88.88 0 00-1.21-1.28 21.471 21.471 0 00-4.938 6.992A21.4 21.4 0 000 38.454C0 50.334 9.666 60 21.546 60c10.436 0 19.162-7.458 21.13-17.324 8.974-1.79 15.956-9.172 17.145-18.347l.002-.015a21.663 21.663 0 00-.181-6.686zm-5.138-7.637a19.815 19.815 0 011.577 2.575L40.475 28.17a21.619 21.619 0 00-1.62-2.532L54.504 9.991zm-1.1-1.39L37.743 24.26a21.7 21.7 0 00-2.08-2.071l15.66-15.66a19.98 19.98 0 012.08 2.07zm-3.478-3.165L34.278 21.084a21.62 21.62 0 00-2.542-1.61L47.34 3.873c.904.456 1.769.98 2.587 1.564zM42.41 2.159a19.63 19.63 0 013.206.944l-15.558 15.56a21.376 21.376 0 00-3.089-1.063L42.41 2.159zm-6.395-.247a19.88 19.88 0 014.22-.07L24.908 17.171a21.618 21.618 0 00-3.897-.254L36.015 1.912zm-3.144.653L19.473 15.963A19.867 19.867 0 0132.87 2.565zm-14.12 20.763a19.884 19.884 0 01.069-4.221l.285-.285a19.84 19.84 0 014.223-.072l-4.578 4.578zm.316 2.174l6.435-6.435c1.105.225 2.176.543 3.206.945l-8.697 8.697a19.618 19.618 0 01-.944-3.207zm3.277 7.516a19.825 19.825 0 01-1.564-2.587l9.65-9.651c.905.456 1.77.98 2.588 1.564L22.344 33.018zm1.095 1.396L34.414 23.44c.744.638 1.44 1.33 2.082 2.07L25.508 36.495a19.956 19.956 0 01-2.07-2.082zm3.46 3.182l10.697-10.697a19.814 19.814 0 011.577 2.575l-9.7 9.699c-.9-.461-1.76-.99-2.574-1.577zm7.481 3.312a19.584 19.584 0 01-3.192-.96l8.76-8.76c.407 1.025.729 2.092.96 3.192l-6.528 6.528zm6.819-.177l-.467.468a19.896 19.896 0 01-4.19.039l4.696-4.697a19.92 19.92 0 01-.04 4.19zm1.171-7.813a21.383 21.383 0 00-1.076-3.075l15.563-15.562c.406 1.024.728 2.091.96 3.191L42.37 32.918zm1.464 7.669l13.661-13.66a19.865 19.865 0 01-13.66 13.66zm14.273-16.764l-15.02 15.02c.002-.13.005-.259.005-.39 0-1.185-.098-2.348-.283-3.483l15.337-15.337a19.923 19.923 0 01-.039 4.19z" fill="#000"/></svg>