<svg width="60" height="61" fill="none" xmlns="http://www.w3.org/2000/svg"><path d="M33.909 34.803l5.188-9.186a3.239 3.239 0 10-5.642-3.186l-4.744 8.402-2.431-3.137a3.24 3.24 0 00-5.12 3.969l5.416 6.987a3.238 3.238 0 005.38-.392l.27-.477" stroke="#000" stroke-width="1.758" stroke-miterlimit="10" stroke-linecap="round" stroke-linejoin="round"/><path d="M17.352 9.473a24.273 24.273 0 019.526-3.306V4.501a3.122 3.122 0 016.244 0v1.666c5.37.679 10.334 3.1 14.223 6.988 3.888 3.89 6.31 8.854 6.988 14.223h1.666c.863 0 1.643.35 2.208.914a3.122 3.122 0 01-2.208 5.33h-1.666c-.679 5.37-3.1 10.334-6.988 14.223-3.89 3.888-8.854 6.31-14.223 6.988v1.666a3.122 3.122 0 01-6.244 0v-1.666c-5.37-.679-10.334-3.1-14.223-6.988-3.888-3.89-6.31-8.854-6.988-14.223H4.001c-.863 0-1.643-.35-2.208-.914a3.122 3.122 0 012.208-5.33h1.666c.679-5.37 3.1-10.334 6.988-14.223.59-.59 1.202-1.144 1.839-1.665m18.628 38.883v-2.76a3.122 3.122 0 10-6.244 0v2.76c-8.597-1.346-15.405-8.154-16.75-16.75h2.76a3.122 3.122 0 100-6.245h-2.76c1.345-8.597 8.153-15.405 16.75-16.75v2.76a3.122 3.122 0 106.244 0v-2.76c8.597 1.345 15.406 8.153 16.75 16.75h-2.76a3.122 3.122 0 100 6.244h2.76c-1.344 8.597-8.153 15.405-16.75 16.75z" stroke="#000" stroke-width="1.758" stroke-miterlimit="10" stroke-linecap="round" stroke-linejoin="round"/></svg>