<svg width="60" height="60" fill="none" xmlns="http://www.w3.org/2000/svg"><path d="M4.555 17.485h9.269a.879.879 0 100-1.758h-9.27a.879.879 0 100 1.758zm8.95 4.232H9.844a.879.879 0 100 1.758h3.661a.879.879 0 100-1.758zM.879 27.812h8.966a.879.879 0 100-1.758H.88a.879.879 0 100 1.758zm13.824 15.581a.879.879 0 00-.879-.879h-9.27a.879.879 0 100 1.758h9.27a.879.879 0 00.879-.879zm-1.198-6.868H9.844a.879.879 0 100 1.758h3.661a.879.879 0 100-1.758zm-2.781-3.458a.879.879 0 00-.879-.879H.88a.879.879 0 100 1.758h8.966a.879.879 0 00.88-.879zm26.721-13.634a.879.879 0 00.88-.878v-1.342a.879.879 0 10-1.759 0v1.341c0 .486.394.88.88.88zm9.665.903a.88.88 0 00-1.244 0l-.948.95a.879.879 0 101.243 1.242l.948-.948a.88.88 0 000-1.244zm1.78 8.785a.879.879 0 100 1.758h1.342a.879.879 0 100-1.758h-1.341zm-2.73 8.351a.88.88 0 00-1.242 1.243l.948.948a.879.879 0 101.243-1.243l-.948-.948zm-9.594 3.974v1.341a.879.879 0 101.758 0v-1.341a.879.879 0 10-1.758 0zm-7.836-3.974l-.95.948a.879.879 0 101.244 1.243l.948-.948a.879.879 0 00-1.242-1.243zm-4.074-8.351a.879.879 0 000 1.758h1.342a.879.879 0 100-1.758h-1.342zm5.316-7.836l-.948-.949a.88.88 0 00-1.243 1.244l.949.948a.879.879 0 001.242-1.243zM42.172 30a.879.879 0 00-.88-.879h-2.968v-6.525a.879.879 0 10-1.758 0V30a.88.88 0 00.88.879h3.847a.879.879 0 00.879-.879z" fill="#000"/><path d="M54.11 29.855a.879.879 0 00.825-.93c-.56-9.224-8.242-16.448-17.49-16.448-9.662 0-17.523 7.86-17.523 17.523 0 9.662 7.86 17.523 17.523 17.523 8.657 0 16.043-6.342 17.328-14.901a.879.879 0 10-1.738-.26c-1.155 7.688-7.794 13.404-15.59 13.404-8.693 0-15.765-7.073-15.765-15.766s7.072-15.765 15.765-15.765c8.32 0 15.232 6.499 15.735 14.796a.88.88 0 00.93.824z" fill="#000"/><path d="M37.443 7.445c-3.091 0-6.12.641-8.908 1.84H13.027a.879.879 0 100 1.758h12.201a22.531 22.531 0 00-4.507 3.821.879.879 0 001.303 1.18 20.842 20.842 0 0115.419-6.841c11.468 0 20.797 9.33 20.797 20.797 0 11.468-9.33 20.797-20.797 20.797-11.468 0-20.797-9.33-20.797-20.797 0-4.016 1.147-7.913 3.317-11.272a.879.879 0 00-1.477-.954A22.473 22.473 0 0014.888 30c0 7.941 4.126 14.937 10.346 18.957H13.027a.879.879 0 100 1.757h15.496a22.426 22.426 0 008.92 1.841c12.437 0 22.555-10.118 22.555-22.555S49.88 7.445 37.443 7.445z" fill="#000"/></svg>