<svg width="138" height="169" fill="none" xmlns="http://www.w3.org/2000/svg"><g clip-path="url(#clip0_2673_27790)"><path d="M108.707 86.527l-8.813-3.311c1.802-.866 3.588-1.761 5.394-2.622 1.653-.787 2.369-3.567.246-4.367-2.285-.856-4.566-1.718-6.85-2.573 10.41-10.036 20.961-19.927 31.08-30.263.913-.934.566-2.823-.674-3.294-2.296-.869-4.575-1.78-6.857-2.677 1.447-1.445 2.92-2.868 4.352-4.332.626-.636.707-1.346.473-1.954-.104-.553-.439-1.051-1.145-1.328-14.845-5.811-29.685-11.627-44.527-17.437-.873-.342-1.86-.225-2.501.532-14.327 16.885-28.231 34.15-42.832 50.801-.951 1.087-.726 3.246.77 3.768 2.069.72 4.14 1.432 6.211 2.154-1.264 1.462-2.524 2.929-3.802 4.38-.957 1.085-.725 3.244.768 3.764 2.72.95 5.448 1.893 8.172 2.837-13.67 14.887-27.836 29.309-41.36 44.329-1.98 2.202.883 4.736 3.152 3.572 3.957-2.03 7.917-4.067 11.871-6.099-3.985 4.244-7.952 8.503-11.85 12.827-1.982 2.2.883 4.736 3.152 3.572 31.627-16.241 63.234-32.62 95.328-47.906 1.654-.787 2.367-3.569.246-4.367l-.004-.006zm-68.328 32.941c-.047-1.065-.119-2.13-.134-3.194-.013-1.069-.026-2.153-.186-3.21a734.657 734.657 0 013.011-1.533c-.151 1.08-.156 2.201-.177 3.119-.019.765-.167 2.321.124 3.474l-2.64 1.347.002-.003zm-8.623 4.404a33.432 33.432 0 01-.124-2.8c-.003-.586.095-1.385.069-2.136.757-.801 1.51-1.605 2.27-2.405-.037.946-.003 1.897.041 2.863.047.94-.144 2.243.146 3.242-.802.412-1.604.825-2.405 1.234l.003.002zm-1.895-2.375c-.066 1.124-.07 2.228.044 3.324-2.41 1.236-4.82 2.474-7.232 3.713 2.395-2.567 4.8-5.121 7.21-7.669-.003.23-.011.447-.022.632zm5.928-2.26c-.131-1.258-.315-2.473-.659-3.665 1.06-.543 2.123-1.08 3.183-1.626-.086.944-.13 1.889-.185 2.826-.076 1.27-.14 2.552.074 3.8-.704.363-1.413.72-2.12 1.082-.022-.843-.224-1.738-.293-2.417zm9.163-3.564c-.084-1.496.152-3.406-.066-5.077l3.906-1.99c-.185 1.188-.272 2.392-.315 3.624-.035.939-.144 2.093.152 3.03l-3.536 1.8c-.045-.639-.132-1.205-.143-1.388l.002.001zm5.25-3.594c-.034-1.403.023-2.775-.1-4.142 1.324-.674 2.648-1.355 3.974-2.027-.072.972-.043 1.971-.065 2.862-.026 1.062-.22 2.521.042 3.72-1.224.621-2.442 1.245-3.664 1.868-.025-.776-.17-1.576-.19-2.285l.002.004zm5.567-2.816c-.043-1.273.09-2.787-.154-4.138 1.21-.613 2.417-1.221 3.63-1.833-.051.735-.04 1.476-.052 2.144-.022 1.292-.162 2.963.257 4.322-1.156.583-2.312 1.172-3.469 1.757-.053-.77-.186-1.551-.21-2.251l-.002-.001zm5.287-3.333c-.072-1.094.013-2.331-.062-3.515 1.268-.639 2.54-1.266 3.807-1.91-.038 1.081-.03 2.162-.056 3.245-.021 1.007-.186 2.263.019 3.345-1.147.579-2.3 1.146-3.445 1.722-.02-.98-.207-1.997-.265-2.891l.002.004zm5.478-2.332c-.085-1.267-.182-2.523-.396-3.756 1.094-.551 2.192-1.1 3.29-1.65.004.637.032 1.274.03 1.891-.002 1.333-.343 3.247.127 4.61-.948.474-1.898.944-2.844 1.42-.012-.872-.156-1.769-.206-2.517l-.001.002zm4.547-2.333c-.018-1.161-.013-2.529-.193-3.803 1.149-.575 2.299-1.153 3.45-1.727a37.52 37.52 0 00.082 2.437c.06 1.07.075 2.63.468 3.873l-3.792 1.892c.128-.874 0-1.844-.013-2.675l-.002.003zm4.895-3.23c-.147-.988-.206-1.983-.3-2.973 1.403-.7 2.8-1.41 4.207-2.108-.077.983-.107 1.972-.147 2.959-.04 1.047-.121 2.432.117 3.645-1.09.539-2.173 1.088-3.264 1.63-.136-1.099-.478-2.251-.616-3.155l.003.001zm5.427-2.264c-.063-1.179-.057-2.346-.144-3.505 1.124-.554 2.258-1.09 3.382-1.642a50.893 50.893 0 00.042 3.171c.04 1.007-.052 2.22.037 3.368-.994.488-1.994.967-2.987 1.46-.096-.992-.283-1.995-.33-2.852zm4.848-2.108a69.835 69.835 0 00-.363-3.641c1.237-.612 2.483-1.205 3.724-1.81-.08 1.213.047 2.48.126 3.567.052.742.09 1.827.299 2.818-1.154.563-2.314 1.11-3.469 1.676-.092-.911-.256-1.82-.319-2.607l.002-.003zm5.08-2.026c-.178-1.302-.206-2.724-.377-4.08 1.04-.509 2.083-1.01 3.125-1.518.24.09.485.186.728.277-.12.934-.148 1.888-.139 2.816.01.89-.116 2.17.234 3.112-1.037.504-2.074 1-3.107 1.502-.164-.752-.377-1.493-.461-2.108l-.003-.001zm5.04-2.652c-.038-.699-.069-1.413-.122-2.123 1.828.691 3.657 1.383 5.484 2.077-1.709.814-3.408 1.651-5.117 2.472-.01-.84-.214-1.743-.249-2.427l.003.001zm21.913-47.632c.16 1.279.468 2.567.64 3.741.051.353-.011 1.711.147 2.796a976.157 976.157 0 01-3.059 2.913c-.085-.436-.174-.85-.238-1.205a59.341 59.341 0 00-1.075-4.742c1.199-1.161 2.393-2.335 3.585-3.503zm1.442-.382c1.545.603 3.088 1.211 4.631 1.817a656.98 656.98 0 01-3.406 3.286c-.188-1.614-.709-3.54-1.225-5.103zm-6.085 4.907c.098 1.046.272 2.089.421 3.148a33.11 33.11 0 01.291 3.354c-.966.919-1.932 1.838-2.9 2.753-.083-.768-.186-1.523-.259-2.229-.14-1.344-.267-2.79-.479-4.207.979-.938 1.955-1.877 2.929-2.818l-.003-.001zm-4.276 4.119c.062.746.127 1.491.17 2.208.089 1.473.042 3.084.105 4.648l-2.344 2.216c-.079-.605-.18-1.192-.257-1.7-.21-1.484-.433-2.975-.693-4.459 1.01-.965 2.011-1.943 3.021-2.909l-.002-.004zm-4.087 3.934c-.002.752.052 1.513.126 2.283.102 1.07.198 2.135.251 3.21.019.397.004.797-.007 1.191-.797.75-1.593 1.505-2.39 2.255-.039-.393-.083-.76-.109-1.054-.141-1.727-.326-3.503-.646-5.233.925-.885 1.844-1.77 2.772-2.654l.003.002zm-3.947 3.78c.031 1.185.181 2.377.248 3.554.064 1.066.05 2.14-.013 3.205-.937.887-1.872 1.778-2.809 2.665-.078-.637-.2-1.262-.257-1.803-.152-1.436-.321-2.897-.617-4.323 1.147-1.104 2.294-2.201 3.445-3.3l.003.002zm-4.553 4.358c.028.912.108 1.828.182 2.738.085 1.096-.095 2.644.15 3.895-.9.852-1.8 1.706-2.697 2.562-.174-.65-.41-1.29-.524-1.799-.287-1.265-.471-2.576-.736-3.859 1.213-1.176 2.411-2.365 3.63-3.539l-.005.002zm-4.83 4.71c.091.832.245 1.658.405 2.441.115.569.194 1.395.356 2.197l-3.976-1.493a864.92 864.92 0 013.214-3.142l.001-.003zM79.655 16.23c1.751.683 3.5 1.37 5.25 2.056C97 23.018 109.094 27.747 121.19 32.484 108.45 44.832 95.349 56.8 82.74 69.29c-1.03 1.02-.611 3.13.744 3.641 5.025 1.905 10.049 3.805 15.075 5.707-26.608 12.716-52.89 26.155-79.133 39.631 13.697-14.735 27.782-29.113 41.127-44.18.961-1.086.725-3.257-.77-3.775-5.93-2.055-11.86-4.11-17.79-6.155 8.342-9.7 16.415-19.62 24.474-29.555 1.378-1.7 14.748-17.765 13.188-18.375zM50.716 76.376c-.154-1.011-.319-2.014-.418-3.036-.04-.412-.068-.82-.08-1.233l4.297 1.489c-.934 1.042-1.865 2.088-2.805 3.123l-.997-.344.003.001zm-1.844-4.734c-.035.49-.031.977-.046 1.348-.038.924.02 1.855.123 2.774-1.258-.433-2.517-.867-3.776-1.304.908-1.05 1.817-2.1 2.719-3.158l.98.34z" fill="#EB5B31"/><path d="M99.662 98.026c-13.555 5.741-26.578 13.28-39.8 19.779-12.147 5.971-24.43 11.688-36.387 18.041-.162.087-.02.362.143.286 12.32-5.513 24.408-11.562 36.529-17.509 13.165-6.466 27.266-12.402 39.645-20.335.137-.088.023-.324-.132-.259l.002-.003zM38.631 55.714c5.745-6.52 11.204-13.296 16.667-20.056 5.71-7.072 12.533-14.374 16.7-22.497.05-.098-.085-.177-.15-.1-6.234 6.782-11.38 14.864-17.175 22.053-5.46 6.768-11.2 13.338-16.227 20.44-.09.129.08.285.188.161h-.003zM37.03 57.34c-.629.71-1.423 1.6-1.723 2.51-.034.108.062.204.169.144.872-.493 1.57-1.569 1.795-2.543.03-.138-.15-.214-.24-.114v.003zm4.153 25.053C30.058 93.04 19.718 104.78 9.457 116.265c-.096.104.064.237.163.142 11.056-10.72 21.487-22.362 31.686-33.902.076-.085-.048-.187-.125-.11l.002-.002zm64.981-11.109c8.351-6.486 17.417-13.832 24.232-21.965.062-.07-.033-.19-.11-.124-8.278 6.895-16.82 14.117-24.322 21.864-.122.128.063.334.202.229l-.002-.004z" fill="#2D2D2D"/></g><defs><clipPath id="clip0_2673_27790"><path fill="#fff" transform="rotate(25.535 31.619 140.86)" d="M0 0h81.291v148.023H0z"/></clipPath></defs></svg>