<svg width="140" height="112" fill="none" xmlns="http://www.w3.org/2000/svg"><path fill-rule="evenodd" clip-rule="evenodd" d="M9.805 66.91s1.07 41.341 2 40.812c.93-.529 57.035-.882 60.177-1.199 3.142-.318 55.074-1.059 55.337-2.023.263-.964.899-38.508 0-39.178-.899-.67-52.316-2.293-62.207-1.211-9.882 1.093-55.307 2.798-55.307 2.798z" fill="#fff"/><path fill-rule="evenodd" clip-rule="evenodd" d="M19.267 76.115a.68.68 0 00-.85.07c-2.151 1.775-2.192 4.915-1.171 7.243 1.212 2.763 3.92 4.186 6.476 2.081.465-.411.859-.823 1.172-1.27 2.02-2.798 1.465-5.832-.09-7.548-1.395-1.54-3.678-2.176-5.537-.576zm-.718 3.433c-.05.894.222 1.81.647 2.563.656 1.164 1.818 1.964 2.9.917 1.808-1.517 1.879-3.35 1.03-4.468-.96-1.27-2.789-1.54-4.132.612a.7.7 0 01-.445.376zm15.536 13.769c-.192-.2-.465-.283-.728-.177-1.536.435-2.425 1.364-2.91 2.41-.869 1.87-.343 4.351.94 6.162 1.99 2.787 5.658 3.868 8.234-.435 1.748-3.328.404-6.338-1.93-7.573-1.1-.587-2.414-.787-3.606-.387zm-2.011 3.727c-.08.987.434 1.999 1.101 2.81 1.122 1.352 2.99 1.987 4.264-.294.93-1.47.303-2.904-.738-3.61-1.212-.823-2.91-.893-3.96.706a.727.727 0 01-.667.388zm6.568-26.621a.649.649 0 00-.182.082c-3.142 1.646-3.263 5.092-2.04 7.643.929 1.952 2.748 3.304 4.677 3.245.798-.023 1.617-.329 2.415-.917 2.758-2.246 2.637-5.997.99-8.477-1.02-1.54-2.576-2.564-4.142-2.329a3.711 3.711 0 00-1.718.753zm-.323 2.47c-.829 1.198-.627 2.692.06 3.832a3.753 3.753 0 001.405 1.353c.687.376 1.505.376 2.263-.224 1.485-1.035 1.344-2.975.606-4.339-.818-1.505-2.394-2.445-3.88-.882a.645.645 0 01-.454.26zM54.13 80.44a.669.669 0 00-.808.047 4.771 4.771 0 00-1.9 2.964c-.373 1.775.273 3.715 1.435 5.232 1.081 1.4 2.637 2.352 4.193 2.516 1.152.118 2.314-.235 3.344-1.117 1.273-1.152 1.83-2.61 1.85-4.092.02-2.093-1.051-4.268-2.658-5.479-1.323-1-2.94-1.423-4.456-.706a5.2 5.2 0 00-1 .635zm-.869 3.998c.111.882.586 1.729 1.213 2.399.626.67 1.445 1.152 2.263 1.317.697.141 1.414.023 2.02-.541.88-.764 1.021-1.846.738-2.822-.343-1.2-1.172-2.305-2.202-2.728-1.233-.505-2.658-.047-3.81 2.105a.9.9 0 01-.222.27zm25.152-15.543a.69.69 0 00-.434-.07c-1.637.199-2.547 1.093-3.011 2.127-.748 1.67-.202 4.069 1.09 5.88.93 1.293 2.254 2.222 3.648 2.433.99.153 2.031-.07 3.011-.776.465-.34.92-.81 1.354-1.41 1.637-2.423 1.172-4.88-.374-6.55-1.344-1.434-3.475-2.199-5.284-1.634zm-1.718 2.94c-.12.387-.06.799.05 1.222.173.682.577 1.329 1.072 1.893.384.435.849.788 1.344 1.035.93.459 1.99.33 2.89-.906.97-1.21.353-2.551-.617-3.327-1.172-.94-2.85-1.364-3.97-.141-.213.235-.506.317-.769.223zm5.531 21.153c-1.294-.188-2.203.282-2.84.976-.848.94-1.141 2.493-.96 4.15a9.028 9.028 0 001.284 3.716c1.627 2.611 4.526 3.986 7.638.906.435-.435.869-.976 1.303-1.635.637-.976.85-2.034.677-3.092-.282-1.717-1.596-3.492-3.293-4.421-1.243-.682-2.627-.964-3.81-.6zm-1.819 3.857c.05 1.07.535 2.34 1.212 3.269.93 1.281 2.375 1.858 4.001.258a9.267 9.267 0 001.01-1.164c.435-.576.193-1.305-.211-1.928-.536-.847-1.364-1.6-2.264-1.964-1.121-.458-2.344-.376-3.02 1.047-.142.306-.435.494-.728.482zm12.352-14.051c-.05.082-.111.177-.152.259-.616 1.129-.616 2.457-.262 3.692.475 1.658 1.717 3.116 3.081 3.739 1.152.53 2.385.435 3.456-.376 3.192-2.681 2.273-6.914-.04-8.878-1.243-1.046-2.82-1.446-4.214-.623-.677.412-1.344 1.094-1.87 2.187zm3.122-.188c-1.192.611-1.667 1.446-1.637 2.34.03.917.647 1.752 1.334 2.316.566.459 1.242.73 1.798.282 1.05-.8 1.172-1.963.798-2.94-.313-.81-.859-1.54-1.535-1.833a1.608 1.608 0 00-.758-.165zm10.888-12.969c-.92.212-1.556.753-1.97 1.423-.96 1.505-.718 4.033.373 6.032 1.627 2.986 4.941 4.644 7.922.811 1.697-2.446 1.374-4.915 0-6.632-1.475-1.834-4.183-2.786-6.325-1.634zm1.616 1.623a.65.65 0 01-.303.07c-.889.047-1.434.388-1.697.93-.162.34-.152.763-.091 1.198.091.706.424 1.423.839 2.07.909 1.41 2.536 2.34 3.96.364 1.061-1.293.606-2.716-.343-3.586-.667-.611-1.516-1.023-2.365-1.046zm4.042 21.068a.747.747 0 00-.575-.388c-1.708-.247-2.819.282-3.496 1.035-1.314 1.458-1.132 4.198.07 6.35 1.738 3.08 5.305 4.762 8.144.317 1.414-2.493.586-4.891-1.314-6.267a5.522 5.522 0 00-2.829-1.047zm-2.839 3.528c.112.623.425 1.27.809 1.846.949 1.458 2.697 2.41 4.051.153.788-1.164-.141-2.258-1.182-2.822-1.243-.682-2.869-.823-3.617.705a.93.93 0 01-.061.118zm17.42-14.133c-.596-.753-.859-1.646-1.384-2.387-.283-.4-.637-.74-1.081-1.046-2.213-1.494-4.183-.306-5.355 1.751-.677 1.188-1.031 2.728-.95 4.151.091 1.717.758 3.28 2.031 4.08 1.141.717 2.889.93 5.284-.34.505-.271 1-.636 1.445-1.083a8.218 8.218 0 001.121-1.399.977.977 0 00-.081-1.234c-.313-.318-.788-.27-1.061.105a5.838 5.838 0 01-1.01.918 4.061 4.061 0 01-1.101.587 6.198 6.198 0 01-2.021.389c-.929.011-1.485-.436-1.738-1.106-.151-.388-.192-.846-.182-1.305.011-.752.172-1.54.475-2.199.445-.94 1.193-1.681 2.213-1.164.242.118.455.259.626.435.627.659 1.031 1.494 1.748 2.14.303.33.778.306 1.061-.047.283-.364.263-.917-.04-1.246zM12.28 100.536c.95-.847 1.627-.376 2.162.435.182.282.354.612.525.953.172.352.354.705.516 1.081.293.729.566 1.458.687 2.164.09.529.182.999.131 1.411-.121.458.091.952.485 1.093.394.141.819-.105.95-.576.333-.788.444-1.893.394-3.116a10.335 10.335 0 00-.273-1.987 8.19 8.19 0 00-.677-1.916 5.99 5.99 0 00-.778-1.165c-.293-.329-.586-.623-.91-.823-1.333-.81-2.889-.917-4.253 1.188a.977.977 0 000 1.235c.263.364.748.364 1.04.023z" fill="#000"/><path fill-rule="evenodd" clip-rule="evenodd" d="M131.428 55.748c.06-2.292-.182-4.315-.809-5.69-.252-.565-.818-1.235-1.849-1.53-1.535-.434-5.425-.034-6.314-.117-3.446-.34-6.901-.564-10.367-.705a276.1 276.1 0 00-10.346-.212c-14.831-.035-29.663.929-44.506 1.258-3.698.082-7.385.13-11.083.106-6.578-.047-13.812-.776-20.874-.682-4.87.059-9.649.517-14.074 1.846-.607.177-.97.894-.829 1.587.152.706.758 1.13 1.364.965 4.264-1.176 8.86-1.505 13.539-1.482 7.042.047 14.266.917 20.823 1.082 3.718.094 7.436.117 11.155.106 14.821-.07 29.633-.812 44.435-.53 3.405.06 6.82.165 10.225.353 3.395.177 6.789.435 10.164.8.657.07 4.011.07 5.254.07.131.741.131 1.647.101 2.634-.111 3.634-.94 8.078-1.061 10.747-.303 7.373-.96 15.357-.94 23.14.01 4.41.243 8.76.849 12.911-.576-.012-1.051-.023-1.152-.023-1.869.011-3.768-.095-5.648-.083-.848.012-1.697.035-2.546.106a285.83 285.83 0 01-7.133.47c-5.587.294-11.195.471-16.762.788a784.3 784.3 0 01-16.64.753c-12.973.458-25.956.717-38.94 1.281-5.243.236-12.204-.858-18.479-.588-2.313.095-4.536.388-6.567.965-.475-5.668-.667-11.747-.727-17.955-.02-2.023-.02-4.045-.03-6.08-.01-2.022-.02-4.044-.02-6.067.01-2.716.03-5.42.11-8.077.132-4.174.354-8.231.819-12.1.12-.705-.283-1.399-.89-1.54-.606-.141-1.202.33-1.323 1.035a119.286 119.286 0 00-2.314 15.38 117.963 117.963 0 00-.424 10.382c.02 3.469.242 6.938.545 10.36.465 5.326 1.213 10.499 2.041 15.344.01.105.04.211.071.305-.202.33-.273.753-.162 1.164.192.694.829 1.07 1.425.847 2.243-.811 4.81-1.117 7.507-1.176 6.294-.129 13.236 1.105 18.5.988 12.993-.318 25.966-.306 38.939-.541 5.577-.106 11.144-.247 16.721-.482s11.185-.329 16.762-.565c2.414-.094 4.829-.223 7.234-.399a37.132 37.132 0 012.293-.071c1.88 0 3.779.118 5.638.129.233 0 2.334.083 3.173.106.182 0 .313.012.374.012.101 0 .171-.012.202-.012 1.98-.211 1.808-2.504 1.747-2.798-.889-4.668-1.172-9.665-1.182-14.769-.01-7.701.637-15.603.93-22.904.141-2.717.95-7.185 1.051-10.842z" fill="#000"/><path fill-rule="evenodd" clip-rule="evenodd" d="M18.4 41.229c-3.92-.177-11.508-1.494-14.63 2.01-2.616 2.94-3.93 19.33.435 22.364 5.183 3.61 26.077.06 32.907-.2 21.652-.834 43.728-3.715 65.38-2.328 6.921.447 25.754 3.61 31.422 1.6 3.85-1.364 3.88-19.448 2.486-21.271-1.001-1.305-3.729-1.858-5.123-2.27-7.729-2.316-16.549-.834-24.43-.717-11.963.177-24.047-.8-35.979.365-16.731 1.623-34.655 1.235-52.468.447z" fill="#fff"/><path fill-rule="evenodd" clip-rule="evenodd" d="M18.438 39.91c-2.728-.152-7.204-.834-10.79-.152-1.91.364-3.588 1.128-4.76 2.422-.717.8-1.414 2.41-1.92 4.503-.696 2.905-1.08 6.808-.939 10.395.111 2.727.546 5.267 1.334 7.125.535 1.258 1.253 2.222 2.101 2.822 1.92 1.364 5.85 1.928 10.508 1.928 8.184.024 18.722-1.47 23.198-1.599 15.135-.482 30.482-1.952 45.749-2.304 6.516-.141 13.013-.106 19.469.34 4.567.295 14.286 1.788 22.026 2.176 4.294.223 8.012.059 10.083-.682 1.061-.376 2.051-1.376 2.779-3.022.747-1.67 1.283-4.139 1.586-6.82.444-3.998.414-8.513.091-11.37-.222-1.928-.707-3.257-1.101-3.774-.485-.623-1.213-1.188-2.082-1.611-1.313-.635-2.99-1.023-4.011-1.317-3.253-.953-6.699-1.282-10.174-1.294-4.961-.023-10.023.565-14.741.659-8.366.188-16.802-.2-25.198 0-3.638.082-7.275.27-10.892.647-6.78.717-13.771 1.105-20.864 1.27-10.356.258-20.914.035-31.452-.342zm116.393 4.857c.05.2.161.705.212 1.105.262 2.046.313 5.28.091 8.454-.192 2.61-.566 5.185-1.213 6.95a4.75 4.75 0 01-.374.822c-.07.13-.222.306-.262.353-1.809.623-5.012.623-8.699.423-7.72-.4-17.429-1.846-21.976-2.14-6.567-.4-13.165-.411-19.782-.2-15.277.506-30.614 2.211-45.77 2.893-4.465.212-14.943 1.881-23.106 2.01-3.97.06-7.356-.152-9.013-1.281-.757-.517-1.212-1.61-1.566-2.94-.495-1.88-.687-4.233-.666-6.584.03-2.834.363-5.691.909-7.808.293-1.152.616-2.07 1.02-2.54 1.102-1.258 2.89-1.74 4.82-1.951 3.132-.341 6.638.117 8.9.2 10.57.564 21.178 1 31.554.94 7.164-.035 14.226-.317 21.086-.917 3.547-.317 7.113-.435 10.68-.458 8.396-.06 16.822.435 25.198.376 4.698-.047 9.73-.565 14.66-.47 3.173.058 6.305.364 9.265 1.27.667.2 1.657.434 2.597.787.545.2 1.101.376 1.435.706z" fill="#000"/><path fill-rule="evenodd" clip-rule="evenodd" d="M101.2 17.03c-.637-1.423-1.9-2.74-4.143-3.55-1.748-.612-3.546-.53-5.344.152-2.041.788-4.102 2.352-6.002 4.398a29.283 29.283 0 00-1.596 1.87c.12-.542.232-1.094.303-1.635.667-4.774-.596-11.829-3.708-15.486-2.375-2.786-5.719-3.915-10.003-1.317C68.303 2.967 66.464 5.237 65.221 8c-1.647 3.668-2.294 8.184-1.98 12.687.131 1.94.434 3.88.899 5.738-2.607-1.94-5.577-2.21-8.517.27-1.465 1.33-2.102 2.787-2.243 4.186-.162 1.576.293 3.199 1.273 4.657.758 1.117 1.808 2.163 2.98 3.01 1.85 1.34 3.93 2.246 5.244 2.469.738.118 2.88.023 3.647-.047 1.385-.118 9.225-1.458 9.619-1.646 3.688-1.588 7.588-2.317 11.366-3.645.99-.341 1.96-.741 2.93-1.188 1.678-.788 4.982-3.363 7.538-6.432 1.748-2.104 3.122-4.468 3.586-6.584.354-1.6.233-3.116-.363-4.445zM65.686 37.807c-.768-.012-1.516-.082-2.223-.294-1.324-.388-3.556-1.917-5.052-3.692-.626-.74-1.192-1.493-1.091-2.305.05-.388.334-.717.748-1.081 1.626-1.552 3.334-1.082 4.88.117 2.202 1.705 4.162 4.633 5.324 7.173-.838.035-1.717.094-2.586.082zm7.678-.482s-.313-.494-.565-.682c-3.93-3.069-6.063-9.665-6.194-16.132-.06-3.093.364-6.15 1.334-8.807.95-2.61 2.455-4.81 4.627-6.091 2.94-1.823 5.062-.482 6.406 1.928 1.627 2.928 2.354 7.126 2.04 10.183a21.27 21.27 0 01-.626 3.316c-.474 1.752-1.09 3.492-1.687 5.103-.818 2.21-1.788 4.691-2.91 6.996-.747 1.505-1.546 2.951-2.424 4.186zm23.724-15.356c-1.809 3.81-6.093 7.936-7.992 8.96-.86.47-1.728.893-2.607 1.281-3.061 1.352-8.164 3.222-7.972 2.693 1.486-3.61 5.234-9.795 9.477-13.804 1.304-1.235 2.658-2.246 4.022-2.881 1.303-.6 2.596-.8 3.829-.318.99.377 1.616.776 1.819 1.435.242.788-.122 1.67-.576 2.634z" fill="#000"/><path fill-rule="evenodd" clip-rule="evenodd" d="M70.647 37.583c-1.728 1.787-2.88 4.174-3.698 6.796-1.131 3.586-1.606 7.631-2.243 11.041-.697 3.963-1.465 7.996-2.06 12.1-.597 4.091-1.052 8.242-1.264 12.38-.293 5.645-.11 11.277.667 16.768.394 2.622.525 5.526 1.071 8.243.404 2.01 1.01 3.915 2.061 5.538.354.599 1.061.752 1.566.341.516-.412.647-1.235.293-1.823-.758-1.399-1.121-2.986-1.344-4.644-.363-2.705-.313-5.562-.535-8.16-.495-5.257-.303-10.595.111-15.933.313-4.01.778-8.02 1.283-12.005.515-4.092 1.03-8.149 1.556-12.111.404-3.304.617-7.22 1.475-10.747.536-2.222 1.294-4.292 2.617-5.903.445-.505.465-1.34.03-1.858-.424-.517-1.141-.529-1.586-.023zm4.512 3.434c-1.556 4.726-2.738 9.947-3.526 15.426a116.833 116.833 0 00-1.03 10.571c-.183 3.551-.233 7.126-.092 10.618.212 5.526.839 10.876 1.617 15.803.636 3.774 2 7.96 2.849 11.993.354 1.693.636 3.351.697 4.939 0 .729.505 1.317 1.132 1.317.626 0 1.131-.588 1.131-1.317.06-1.764-.1-3.634-.373-5.55-.576-4.022-1.678-8.243-2.072-11.994-.556-4.797-.828-10.006-.96-15.356-.05-2.034-.09-4.092-.09-6.161a187 187 0 01.191-9.23c.334-7.126 1.112-14.075 2.668-20.213.202-.694-.121-1.434-.707-1.658-.597-.247-1.243.118-1.435.812zm37.793-17.661a11.752 11.752 0 00-.929-2.705c-1.455-2.892-4.274-2.88-6.244-1.364-1.304 1-2.112 2.67-2.041 4.34.04 1.057.414 2.186 1.354 3.197 1 1.047 1.99 1.729 2.95 2.117a7.65 7.65 0 01-1.071 1.058c-2.385 1.987-5.729 3.057-8.022 2.01-.566-.293-1.233 0-1.496.671-.252.659 0 1.446.576 1.74 3.466 2.023 9.275.541 12.508-2.916a9.912 9.912 0 001.789-2.634c1.606-.705 3.101-2.14 4.364-4.115 3.365-5.303 5.214-14.321 4.547-18.378-.091-.717-.667-1.211-1.283-1.105-.616.105-1.041.776-.95 1.493.323 3.55-1.92 11.088-5.092 15.427-.303.411-.627.811-.96 1.164zm-3.607 1.234a5.368 5.368 0 00-.606-1.61c-.101-.189-.303-.083-.455-.024-.131.059-.374.2-.495.317l.01.036v.023l.041.047c.515.576 1.01.988 1.505 1.211zm-69.095-.927a8.311 8.311 0 001.555 3.374c1.95 2.517 5.294 3.833 8.527 4.092.617.082 1.182-.423 1.253-1.14.071-.718-.364-1.376-.98-1.459-2.071-.423-4.183-1.363-5.638-2.88a4.778 4.778 0 01-.616-.776 4.461 4.461 0 001.253-.27c1.02-.4 3.081-2.435 3.85-4.351.697-1.74.484-3.375-.486-4.468-1.485-1.635-3.556-1.87-5.375-.988-1.576.776-2.89 2.328-3.324 4.092l-.1-.07c-1.395-.906-2.122-2.14-2.426-3.587-.576-2.728-.03-5.926.253-8.795.101-.717-.313-1.388-.93-1.517-.616-.118-1.192.364-1.303 1.082-.606 3.198-1.455 6.772-1.06 9.924.312 2.469 1.363 4.668 3.596 6.42a19.43 19.43 0 001.95 1.317zm5.293-4.798a1.456 1.456 0 00-.525.141c-.546.235-1.121.612-1.253 1.211l-.03.153c.202.012.394-.023.576-.105.242-.106.566-.553.889-.988.09-.106.222-.259.343-.412zM6.62 53.901c-.201-3.821.506-5.691 2.022-6.585.828-.494 1.869-.693 3.122-.8.99-.081 2.101-.093 3.314-.105 1.323-.035 2.677-.059 4.041-.106 1.344-.047 2.698-.117 4.041-.212a61.712 61.712 0 005.386-.6c.1-.01.171-.129.161-.246-.01-.118-.11-.212-.212-.188-1.748.223-3.546.34-5.365.423-1.344.059-2.698.082-4.031.106-1.364.023-2.718.035-4.042.047-1.879.047-3.516.07-4.85.376-1.272.282-2.273.811-2.97 1.764-.859 1.2-1.243 3.104-1.01 6.173.01.118.1.212.202.2a.232.232 0 00.192-.247zm16.63-4.609c1.506-.117 3.011-.235 4.517-.376 1-.094 2-.188 3-.294.829-.082 1.668-.176 2.496-.258.829-.083 1.667-.177 2.496-.247a69.048 69.048 0 013.132-.212c.1 0 .182-.094.182-.223 0-.118-.091-.212-.192-.212a63.444 63.444 0 00-4.729.106c-1.05.059-2.091.14-3.142.247-1.04.105-2.091.235-3.132.376-1.566.212-3.122.459-4.678.658-.101.012-.182.118-.172.236.02.117.111.211.223.2zm-10.78 13.84c1.697.153 3.404.129 5.122 0a82.23 82.23 0 003.809-.388c1.273-.153 2.536-.341 3.789-.47 1.141-.13 2.465 0 3.698-.142.565-.07 1.1-.188 1.596-.4.101-.035.151-.164.111-.282-.03-.117-.141-.176-.242-.13-.475.177-.98.26-1.506.295-1.233.082-2.566-.106-3.708-.024-.889.06-1.778.142-2.677.247-.586.07-1.182.141-1.779.224a90.14 90.14 0 00-1.768.235 101.2 101.2 0 01-2.647.294 29.273 29.273 0 01-3.789.13c-.1-.013-.192.082-.202.21.01.095.091.189.192.2zm35.07-2.447c.97.105 1.94.153 2.92.153.677 0 1.354-.012 2.03-.047.455-.012.9-.036 1.354-.047.445-.024.9-.047 1.344-.06a28.684 28.684 0 012.01-.023c.526.012 1.728.165 2.638.047.525-.07.95-.235 1.162-.529.07-.094.06-.235-.02-.306-.081-.082-.203-.07-.263.024-.162.212-.516.27-.91.294-.899.059-2.06-.177-2.576-.212-.97-.059-1.94-.082-2.92-.047-.9.035-1.798.106-2.697.177-1.344.094-2.688.188-4.032.14-.1-.011-.192.083-.202.2-.02.118.06.224.162.236zm77.937-15.497c1.283.376 3.213.635 4.779 1.258.687.27 1.293.6 1.738 1.07.04.047.08.141.111.247.081.235.141.576.202.976.141.952.222 2.246.242 3.551.021 1.282-.03 2.587-.161 3.563-.081.623-.192 1.117-.344 1.387a.249.249 0 00.041.306c.08.07.202.047.262-.047.192-.294.354-.847.475-1.552.172-1 .283-2.328.303-3.657.031-1.61-.06-3.21-.252-4.21-.111-.576-.283-.975-.455-1.14-.515-.517-1.212-.894-1.99-1.164-1.607-.565-3.577-.706-4.88-1-.101-.023-.202.047-.223.165-.01.106.051.223.152.247zm-35.97 13.909c3.071.035 6.122.058 9.164.129 2.041.047 4.071.106 6.102.2 1.354.059 2.708.14 4.062.235a89.79 89.79 0 016.072.611c1.293.165 4.658.8 7.265.894 1.414.047 2.616-.059 3.182-.458.091-.06.121-.2.061-.306-.051-.106-.172-.141-.263-.07-.525.352-1.647.399-2.97.317-2.597-.153-5.921-.87-7.204-1.059a90.592 90.592 0 00-6.103-.705 94.941 94.941 0 00-4.082-.235c-2.04-.082-4.081-.106-6.122-.106-3.042 0-6.093.07-9.174.106-.101 0-.192.094-.192.223.02.118.1.224.202.224zM13.734 72.844c-.142.529-.172 1.117-.162 1.717.03 1.27.313 2.633.293 3.81-.01.728-.01 1.457.01 2.198.01.482.02.976.04 1.458.051 1.129.122 2.258.193 3.386.1 1.705.212 3.387.242 5.068 0 .118.08.224.192.224.101 0 .192-.094.192-.224a87.71 87.71 0 000-3.645l-.06-2.551c-.03-.847-.051-1.694-.082-2.54-.04-1.129-.09-2.258-.1-3.375-.02-1.187-.354-2.551-.445-3.833-.04-.54-.03-1.07.07-1.564.031-.117-.03-.235-.13-.27-.132-.047-.233.023-.253.14zm30.665 30.078c1.05.035 2.132.082 3.223.141.717.035 1.435.059 2.152.094.717.024 1.435.047 2.152.047.475 0 .96-.012 1.435-.023 1.01-.024 2.01-.071 3-.153 1.01-.083 2.011-.2 2.991-.353.101-.012.182-.118.172-.235-.01-.118-.101-.212-.212-.188-.97.094-1.96.141-2.97.164-.789.024-1.587.024-2.385.024-.788 0-1.586-.012-2.385-.012h-2.869c-1.465 0-2.9.035-4.304.071-.101 0-.192.094-.192.223 0 .094.08.2.192.2zM21 103.085l.01-.023s0 .012-.01.023c.02-.011.04-.011.05-.011.051-.024.122-.024.203-.036.354-.035.92.012 1.576.059.475.047.99.094 1.505.141.516.035 1.031.047 1.516.071 1.01.035 1.86.023 2.213-.047.1-.012.182-.118.172-.235-.01-.118-.101-.212-.213-.2-.262.023-.808-.047-1.485-.141-.465-.048-.98-.13-1.515-.177a28.66 28.66 0 00-1.01-.082c-.354-.024-.698-.024-1.021-.024-.738 0-1.384.047-1.779.13-.303.058-.484.188-.535.305-.05.106-.02.236.06.294.102.071.203.036.263-.047zm70.912-1.61c.152.165.546.259 1.02.282.769.047 1.779-.047 2.163-.011.96.058 1.91.152 2.87.211.636.047 1.282.071 1.919.082a32.222 32.222 0 003.213-.094c.434-.035 1.273.047 1.94-.035.374-.047.687-.153.889-.329a.248.248 0 00.04-.306c-.06-.094-.182-.117-.262-.047-.162.13-.415.165-.698.177-.666.047-1.495-.095-1.929-.083-.799.024-1.587.012-2.375-.023-.464-.012-.93-.036-1.384-.059a54.15 54.15 0 00-1.394-.059c-.93-.035-1.86-.059-2.789-.082-.394 0-1.404.153-2.182.164-.233 0-.445-.011-.606-.047-.081-.023-.142-.035-.172-.07-.081-.082-.202-.071-.263.023-.08.094-.08.224 0 .306zm30.521-9.935c-.021.4-.101.94-.182 1.564-.041.329-.091.693-.132 1.058-.04.353-.07.705-.101 1.07-.02.235-.02.482-.03.717-.01.541 0 1.058.04 1.517.051.635.162 1.176.334 1.529.05.105.162.152.252.094.091-.047.132-.189.081-.294-.121-.33-.141-.8-.141-1.364 0-.365.03-.753.05-1.164.021-.377.061-.776.081-1.164.03-.482.061-.965.081-1.411.04-.87.051-1.646.03-2.164 0-.13-.081-.223-.192-.223-.091.011-.171.117-.171.235zm.89-21.366c-.273.294-.475.776-.607 1.364a7 7 0 00-.141.976c-.02.235-.03.482-.02.729 0 .235.02.482.04.717.081.847.233 1.634.364 2.117.02.117.121.188.222.164.101-.023.162-.141.142-.259a13.904 13.904 0 01-.091-1.199c-.021-.376-.021-.788-.021-1.2 0-.258 0-.528.011-.799 0-.27.01-.529.02-.788.02-.352.06-.693.131-.976a1.75 1.75 0 01.212-.552c.071-.094.071-.235-.01-.318-.06-.07-.182-.059-.252.024zM97.022 99.181a3.707 3.707 0 011.162-.2 6.51 6.51 0 01.95.047c.323.036.646.083.97.13.394.047.798.094 1.202.106.616.035 1.233 0 1.839-.177.101-.023.172-.14.151-.258-.02-.118-.111-.2-.222-.177-.424.059-.839.035-1.253-.012a15.187 15.187 0 01-1.263-.211c-.293-.047-.576-.094-.869-.13-.303-.035-.596-.047-.899-.035-.636.024-1.273.153-1.9.482a.224.224 0 00-.11.282c.03.13.141.189.242.153zm-76.398.435c.354.047.697.117 1.05.2.233.046.466.105.698.164.232.047.465.106.697.153.162.035.313.059.475.082.333.059.667.118.99.165.344.047.677.094 1 .141.101.023.202-.059.223-.176.02-.118-.051-.236-.152-.259-.475-.153-.96-.33-1.455-.47a9.599 9.599 0 00-.99-.27 10.106 10.106 0 00-1.01-.154 11.201 11.201 0 00-1.536-.023c-.101 0-.192.094-.192.211.02.13.1.224.202.236zM88.016 68.41c1.293-.129 2.637-.082 4.011.024.89.059 1.788.153 2.688.235.596.06 1.202.106 1.798.141.91.06 1.819.083 2.718.06 1.667-.048 3.294-.26 4.829-.8.102-.036.162-.153.132-.27-.03-.118-.132-.189-.233-.154-1.01.306-2.061.447-3.132.506-.838.047-1.687.035-2.546-.012a96.626 96.626 0 01-2.556-.176 68.94 68.94 0 00-3.092-.188c-1.606-.07-3.172-.047-4.667.2-.101.011-.182.129-.162.246.01.118.111.2.212.189zM49.36 70.092c.677-.047 1.364-.071 2.05-.106.456-.024.91-.035 1.365-.06l1.131-.07 1.132-.07c.475-.024.95-.047 1.425-.047.1.012.192-.083.202-.212.01-.117-.071-.223-.182-.235a26.407 26.407 0 00-2.162-.176c-.485-.012-.96-.024-1.445 0-.485.023-.96.082-1.435.14-.717.095-1.424.236-2.132.377-.1.012-.182.118-.161.235.01.153.1.235.212.224zM24.507 71.4a58.6 58.6 0 002.03.07c.455 0 .9 0 1.354-.012.334-.012.677-.023 1.01-.047l1.011-.07c1.01-.083 2.01-.189 3.021-.236.101 0 .192-.094.192-.223 0-.118-.08-.224-.192-.224a36.728 36.728 0 00-2.546-.058c-.566 0-1.132.011-1.687.047-.566.023-1.122.07-1.688.117-.838.07-1.677.153-2.515.2-.101 0-.192.094-.192.224.01.117.1.211.202.211z" fill="#000"/></svg>