<svg width="44" height="34" viewBox="0 0 44 34" fill="none" xmlns="http://www.w3.org/2000/svg">
<g clip-path="url(#clip0_2297_23981)">
<path d="M25.94 0.047438C27.2423 0.0570826 28.1484 1.32438 27.7852 2.68427C26.8039 6.36273 25.8043 10.0335 24.8102 13.7081C23.2292 19.5431 21.6408 25.3742 20.0689 31.2111C19.8415 32.056 19.449 32.7214 18.6107 32.9664C17.1397 33.3966 15.8118 32.0174 16.219 30.4492C16.9031 27.8181 17.6295 25.1987 18.3393 22.5734C20.2266 15.6119 22.1158 8.65236 24.005 1.69281C24.293 0.629972 24.9918 0.0397223 25.94 0.047438Z" fill="white"/>
<path d="M38.752 16.5821C38.6218 16.4374 38.5099 16.3082 38.3944 16.1867C36.3768 14.0591 34.3574 11.9373 32.3435 9.80388C31.7272 9.15191 31.575 8.28389 31.9033 7.49689C32.2224 6.72918 32.9799 6.17172 33.7631 6.28938C34.218 6.3569 34.7407 6.55943 35.0599 6.88928C37.6992 9.61099 40.3055 12.3693 42.9064 15.1316C43.6969 15.9706 43.6987 17.1955 42.9064 18.0346C40.3055 20.7968 37.6937 23.5475 35.0727 26.2904C34.2767 27.1237 33.0826 27.1063 32.316 26.3039C31.5383 25.4879 31.5364 24.2187 32.3416 23.3642C34.3519 21.2308 36.3749 19.109 38.3907 16.9814C38.5081 16.8579 38.6181 16.7306 38.7483 16.584L38.752 16.5821Z" fill="white"/>
<path d="M5.23282 16.5898C7.36778 18.839 9.45688 21.0476 11.5552 23.2485C12.0247 23.7403 12.3072 24.3055 12.2411 25.0115C12.1623 25.8544 11.7386 26.4563 10.9902 26.7591C10.2364 27.0639 9.53759 26.9018 8.95616 26.3232C8.27018 25.6384 7.61356 24.9189 6.94409 24.2149C5.04574 22.2146 3.14555 20.2143 1.24719 18.2101C0.25308 17.1627 0.251246 16.0034 1.23986 14.9599C3.78567 12.2748 6.32965 9.5917 8.87913 6.9105C9.47339 6.28553 10.185 6.08492 10.9774 6.39933C11.7294 6.69639 12.1549 7.29821 12.2375 8.13922C12.3072 8.84521 12.0302 9.41231 11.5607 9.90611C9.5706 11.9932 7.58788 14.088 5.60332 16.1809C5.48593 16.3043 5.37588 16.4317 5.23098 16.5918L5.23282 16.5898Z" fill="white"/>
</g>
<defs>
<clipPath id="clip0_2297_23981">
<rect width="43" height="33" fill="white" transform="translate(0.5 0.0473633)"/>
</clipPath>
</defs>
</svg>
