<svg width="38" height="38" viewBox="0 0 38 38" fill="none" xmlns="http://www.w3.org/2000/svg">
<g clip-path="url(#clip0_2297_23987)">
<path d="M17.8523 3.01281C16.6884 3.06223 15.5368 3.25222 14.4347 3.63375C13.4344 3.98129 12.4742 4.44468 11.4816 4.82157C11.1467 4.94822 10.7685 5.03781 10.415 5.02237C9.92255 5.00074 9.532 4.56361 9.43938 4.07088C9.34058 3.54725 9.532 3.08695 9.9951 2.82745C12.0775 1.66589 14.2988 0.916748 16.6699 0.640259C17.3954 0.55685 18.1271 0.508966 18.8573 0.499698C19.149 0.495064 19.4778 0.57693 19.7294 0.725214C24.6846 3.62911 29.6335 6.54537 34.5733 9.47707C34.8635 9.65007 35.1321 9.94201 35.2926 10.2417C37.003 13.4313 37.7439 16.8372 37.4306 20.4486C36.952 25.9876 34.4621 30.4315 30.0704 33.8173C29.4483 34.2977 28.7768 34.2374 28.3322 33.6906C27.8923 33.1516 27.9741 32.3422 28.5731 31.8757C30.0225 30.745 31.3007 29.4568 32.3149 27.9199C34.3571 24.8276 35.254 21.434 34.9746 17.73C34.8341 15.8564 34.3664 14.0708 33.6038 12.3563C33.4896 12.0983 33.3723 12.0334 33.0867 12.0859C30.8422 12.5015 28.5885 12.6961 26.3162 12.3007C22.2271 11.5886 19.5951 9.23148 18.3926 5.27105C18.1734 4.55126 18.0391 3.8052 17.8523 3.01281ZM20.6309 4.11258C21.1295 6.00475 21.9754 7.55864 23.5407 8.63834C25.0072 9.65162 26.6836 9.97599 28.4233 10.0347C29.0886 10.0579 29.7555 10.0084 30.4224 9.99143C30.4254 9.95745 30.4285 9.92347 30.4316 9.88949C27.1915 7.98033 23.9513 6.06962 20.6325 4.11258H20.6309Z" fill="#F3F3F3"/>
<path d="M19.006 37.4993C10.1577 37.507 2.46723 31.2018 0.847932 22.4886C-0.226456 16.7117 1.18445 11.5233 4.92937 6.98363C5.39556 6.41984 6.0547 6.3318 6.59961 6.73804C7.13217 7.13655 7.2603 7.92122 6.86203 8.49737C6.60733 8.86653 6.30477 9.20326 6.04235 9.56779C4.29029 11.9959 3.29 14.6975 3.03839 17.6864C2.47958 24.3283 6.11799 30.5083 11.9052 33.3628C14.5402 34.6618 17.3281 35.2302 20.2579 34.9553C21.2736 34.8595 22.2817 34.6464 23.2835 34.4409C24.3131 34.2309 25.1637 34.9707 24.9414 35.933C24.8318 36.4072 24.5122 36.6745 24.0569 36.8011C22.4036 37.2599 20.721 37.4993 19.006 37.4993Z" fill="#F3F3F3"/>
</g>
<defs>
<clipPath id="clip0_2297_23987">
<rect width="37" height="37" fill="white" transform="translate(0.5 0.499512)"/>
</clipPath>
</defs>
</svg>
