<svg width="182" height="183" viewBox="0 0 182 183" fill="none" xmlns="http://www.w3.org/2000/svg">
<g clip-path="url(#clip0_2297_24050)">
<path d="M75.8083 131.668C78.1023 99.9208 82.6613 69.3034 89.6131 38.2208L84.1254 40.6254C96.4236 66.5473 109.644 91.4294 125.825 115.157C127.749 114.04 129.672 112.923 131.61 111.8C108.308 102.043 85.0065 92.2868 61.7279 82.501L57.8581 86.355C79.3568 81.5731 100.561 75.7995 121.57 69.2098C120.581 68.874 119.608 68.5313 118.619 68.1955C103.339 90.6431 85.1625 110.922 69.8896 133.385C68.2842 135.742 75.7156 133.617 77.0002 131.724C92.0155 109.344 109.92 89.1177 124.913 66.7296C126.167 64.8509 122.477 65.5497 121.962 65.7153C101.518 72.2085 80.8091 77.7333 59.8903 82.449C59.2028 82.6022 53.9802 85.4572 56.0205 86.303C79.4066 96.0018 102.778 105.708 126.147 115.451C127.386 115.966 133.165 113.908 131.932 112.094C115.763 88.4722 102.107 63.6078 89.6004 37.8751C88.7208 36.0638 84.3961 39.0191 84.1127 40.2797C77.3704 70.8578 71.1149 102.005 71.0664 133.448C71.0643 135.114 75.7506 133.175 75.861 131.662L75.8083 131.668Z" fill="#EB5B31"/>
<path d="M115.018 47.1662C117.967 42.9634 120.128 38.2204 122.641 33.7576C125.281 29.0506 128.305 24.5722 130.923 19.8571C131.872 18.1575 127.526 19.7536 126.973 20.4736C121.005 28.4493 114.647 38.2531 111.414 47.7324C110.792 49.5389 114.579 47.8144 115.033 47.1591L115.018 47.1662Z" fill="#EB5B31"/>
<path d="M131.959 88.3976C142.083 90.8682 152.53 94.3912 162.784 95.9872C163.785 96.1506 167.945 93.716 166.541 93.1659C156.691 89.2544 145.066 87.8523 134.644 86.094C133.658 85.9235 130.393 88.0156 131.959 88.3976Z" fill="#EB5B31"/>
<path d="M99.7521 125.379C100.597 136.385 102.038 148.594 105.003 159.224C105.337 160.419 109.196 158.532 109.138 157.412C108.692 146.35 106.526 134.293 103.978 123.525C103.696 122.361 99.6583 124.183 99.7521 125.379Z" fill="#EB5B31"/>
<path d="M69.0536 58.9809C61.6828 51.5289 54.3329 43.6045 46.4434 36.7083C45.594 35.9562 41.8583 37.9899 42.5818 38.9487C48.8435 47.3977 56.8897 55.3868 65.6268 61.241C66.5697 61.8757 70.0903 60.016 69.0465 58.9657L69.0536 58.9809Z" fill="#EB5B31"/>
<path d="M34.4285 123.66C42.9761 116.575 51.4352 109.699 60.4685 103.221C63.02 101.386 60.2268 101.15 58.5552 102.131C48.6306 108.005 39.5941 115.391 31.5033 123.577C29.9424 125.155 33.7832 124.182 34.4285 123.66Z" fill="#EB5B31"/>
</g>
<defs>
<clipPath id="clip0_2297_24050">
<rect width="136.005" height="137.345" fill="white" transform="translate(0.117188 57.5347) rotate(-24.9455)"/>
</clipPath>
</defs>
</svg>
