<svg width="198" height="175" viewBox="0 0 198 175" fill="none" xmlns="http://www.w3.org/2000/svg">
<g clip-path="url(#clip0_2297_24043)">
<path d="M98.881 62.0006C98.1304 59.2778 97.2524 59.0032 95.0945 60.8586C93.386 62.3441 92.0929 64.0981 90.9604 65.9799L90.9778 65.8949C87.3807 72.0437 85.0943 78.6507 83.6684 85.6173C83.4335 86.7652 83.107 87.8881 82.9648 89.055C82.3871 92.7906 82.0802 96.588 82.6132 100.374C82.8122 101.699 83.1152 102.957 83.7202 104.093C84.2067 104.927 84.8312 105.055 85.6753 104.582C86.5368 104.024 87.2364 103.345 87.9434 102.661C89.5086 100.962 90.7277 99.0982 91.7922 97.1076C96.3045 88.754 98.8802 79.8206 99.5195 70.3073C99.7202 67.5007 99.6303 64.7295 98.881 62.0006Z" fill="#EB5B31"/>
<path d="M25.4763 43.2941C36.5621 35.7796 46.6439 29.0786 59.6942 25.0291C72.2619 21.1339 86.0044 20.0927 99.106 19.0659C99.6293 19.0275 99.7279 18.1681 99.1701 18.1235C74.7631 16.2479 40.1934 21.5314 25.1563 42.9375C25.0113 43.1419 25.23 43.4588 25.4763 43.2941Z" fill="#2D2D2D"/>
<path d="M109.511 17.6772C109.69 17.4669 109.594 17.1181 109.302 17.0647C107.684 16.7526 106.106 17.3473 104.506 17.4247C104.161 17.4427 104.061 17.9286 104.373 18.0746C106.066 18.8642 108.147 19.2773 109.51 17.6833L109.511 17.6772Z" fill="#2D2D2D"/>
<path d="M164.487 40.2437C130.31 17.9218 72.487 19.5345 38.626 40.7455C25.85 48.743 13.3791 63.3399 12.9291 78.948C12.3112 100.287 27.5211 114.645 44.0969 126.327C76.4054 149.089 136.726 163.448 173.054 142.805C208.814 122.482 196.373 57.7997 164.486 40.2497L164.487 40.2437ZM79.2464 54.2168C78.1645 56.2925 76.9959 58.3504 75.8274 60.4084C72.5177 66.0655 68.8842 71.4791 65.3448 76.9057C64.6646 77.9625 64.4483 79.0194 64.572 80.2407C65.5865 88.5357 66.2251 96.8424 67.5254 105.095C67.614 105.575 67.6851 106.14 67.577 106.668C67.3752 108.095 66.3177 109.17 64.9543 109.441C63.5909 109.713 62.2284 109.067 61.4554 107.807C60.8256 106.761 60.6832 105.631 60.5421 104.494C59.9534 99.5962 59.3646 94.6979 58.782 89.8009C58.7108 89.2358 58.7262 88.6884 58.3705 88.1599C57.8171 88.5972 57.5976 89.1978 57.2062 89.7568C54.7619 93.4837 52.906 97.5146 50.7102 101.381C50.2753 102.121 49.8466 102.862 49.345 103.487C48.2453 104.737 46.6172 104.948 45.1794 104.198C43.8356 103.461 43.246 101.777 43.7498 100.229C43.9259 99.809 44.1094 99.3846 44.2916 98.9662C48.0156 92.1979 51.7407 85.4235 56.1285 79.0631C57.1702 77.6247 57.5638 76.1422 57.3751 74.357C56.4131 66.7182 55.7418 59.0439 55.2598 51.3261C55.168 50.3898 55.0823 49.4546 55.1698 48.555C55.2976 47.018 56.5505 45.9013 57.9718 45.8188C59.3919 45.7424 60.6823 46.7406 60.9132 48.3509C61.1441 49.9612 61.1783 51.6199 61.3919 53.3152L61.2804 53.3874C61.8498 57.9083 62.4229 62.4427 62.9736 67.0547C63.9237 66.977 64.0505 66.3575 64.3205 65.9508C67.1625 61.6661 70.2529 57.5209 72.8475 53.0907C73.2812 52.3568 73.71 51.6155 74.3056 51.0033C75.5092 49.6866 77.1447 49.4708 78.4525 50.384C79.6737 51.2794 80.0285 52.7252 79.2588 54.2193L79.2464 54.2168ZM96.8137 101.818C95.535 103.942 94.0944 105.945 92.32 107.784C91.3677 108.785 90.3414 109.676 89.1718 110.354C84.6962 113.02 80.0998 111.712 77.6838 107.085C76.4097 104.622 75.9325 101.949 75.7311 99.25C75.3226 93.471 76.0322 87.7374 77.453 82.1493C79.2056 74.9712 81.7248 68.1398 85.7166 61.8882C86.9418 60.0254 88.235 58.2714 89.7841 56.652C90.9691 55.4264 92.2974 54.4136 93.8443 53.7177C97.5656 51.9987 101.278 53.0306 103.593 56.3584C105.099 58.5969 105.782 61.2109 106.08 63.8474L106.005 63.7434C106.704 69.487 105.925 75.1178 104.893 80.6019C103.162 88.1453 100.767 95.2806 96.8063 101.823L96.8137 101.818ZM136.432 65.9209C135.35 67.9966 134.181 70.0545 133.012 72.1125C129.703 77.7696 126.069 83.1832 122.53 88.6098C121.843 89.6653 121.627 90.7222 121.757 91.9448C122.772 100.24 123.41 108.547 124.717 116.8C124.805 117.28 124.876 117.845 124.768 118.374C124.566 119.801 123.509 120.875 122.146 121.147C120.782 121.418 119.42 120.772 118.647 119.513C118.017 118.466 117.874 117.336 117.733 116.2C117.145 111.302 116.556 106.403 115.973 101.506C115.902 100.941 115.917 100.394 115.562 99.8653C115.008 100.303 114.789 100.903 114.397 101.462C111.953 105.189 110.097 109.22 107.901 113.086C107.467 113.826 107.038 114.568 106.536 115.193C105.437 116.442 103.808 116.653 102.371 115.903C101.027 115.166 100.437 113.482 100.941 111.934C101.117 111.514 101.301 111.09 101.483 110.672C105.207 103.903 108.932 97.1288 113.32 90.7685C114.361 89.33 114.761 87.8488 114.566 86.0623C113.604 78.4235 112.933 70.7493 112.451 63.0315C112.359 62.0951 112.274 61.16 112.361 60.2603C112.489 58.7234 113.742 57.6066 115.163 57.5242C116.583 57.4478 117.874 58.446 118.104 60.0563C118.335 61.6666 118.37 63.3253 118.583 65.0206L118.472 65.0927C119.041 69.6137 119.614 74.148 120.165 78.7601C121.115 78.6824 121.242 78.0629 121.512 77.6562C124.354 73.3715 127.444 69.2262 130.039 64.796C130.472 64.0621 130.901 63.3209 131.497 62.7087C132.7 61.392 134.336 61.1762 135.644 62.0893C136.865 62.9847 137.22 64.4306 136.45 65.9247L136.432 65.9209ZM153.999 113.522C152.72 115.646 151.279 117.649 149.505 119.488C148.553 120.489 147.526 121.38 146.357 122.058C141.881 124.724 137.285 123.416 134.869 118.789C133.595 116.326 133.118 113.653 132.916 110.954C132.508 105.175 133.217 99.4415 134.638 93.8534C136.384 86.674 138.91 79.8439 142.902 73.5923C144.127 71.7295 145.42 69.9754 146.963 68.3548C148.148 67.1292 149.476 66.1164 151.023 65.4205C154.744 63.7015 158.457 64.7334 160.771 68.0612C162.278 70.2997 162.961 72.9137 163.259 75.5503L163.183 75.4462C163.883 81.1898 163.104 86.8207 162.072 92.3048C160.341 99.8481 157.946 106.983 153.985 113.526L153.999 113.522Z" fill="#EB5B31"/>
<path d="M175.954 148.24C163.528 154.372 151.249 158.238 137.25 158.897C123.979 159.523 111.141 155.769 98.0331 155.788C97.8401 155.786 97.7805 156.078 97.9585 156.152C109.821 161.118 124.701 161.79 137.445 161.595C151.437 161.383 165.643 157.887 176.464 148.989C176.914 148.619 176.484 147.981 175.96 148.241L175.954 148.24Z" fill="#2D2D2D"/>
<path d="M156.059 73.7035C155.308 70.9806 154.43 70.706 152.272 72.5615C150.564 74.047 149.271 75.801 148.138 77.6828L148.156 77.5978C144.558 83.7466 142.272 90.3536 140.846 97.3201C140.611 98.4681 140.285 99.5909 140.143 100.758C139.565 104.493 139.258 108.291 139.791 112.077C139.99 113.402 140.293 114.66 140.898 115.796C141.384 116.63 142.009 116.758 142.853 116.285C143.715 115.727 144.414 115.048 145.115 114.362C146.68 112.664 147.899 110.8 148.964 108.809C153.476 100.456 156.058 91.5235 156.691 82.0089C156.892 79.2023 156.808 76.4324 156.053 73.7022L156.059 73.7035Z" fill="#EB5B31"/>
</g>
<defs>
<clipPath id="clip0_2297_24043">
<rect width="184.15" height="139.598" fill="white" transform="translate(28.502 0.527344) rotate(11.567)"/>
</clipPath>
</defs>
</svg>
