<svg width="28" height="28" viewBox="0 0 28 28" fill="none" xmlns="http://www.w3.org/2000/svg">
<path fill-rule="evenodd" clip-rule="evenodd" d="M16.6276 2.91667C16.6276 2.75558 16.4971 2.625 16.3359 2.625H8.16927C6.39736 2.625 4.96094 4.06142 4.96094 5.83333V22.1667C4.96094 23.9386 6.39736 25.375 8.16927 25.375H19.8359C21.6079 25.375 23.0443 23.9386 23.0443 22.1667V10.6716C23.0443 10.5105 22.9137 10.3799 22.7526 10.3799H17.5026C17.0194 10.3799 16.6276 9.98815 16.6276 9.5049V2.91667ZM17.5026 14.2917C17.9858 14.2917 18.3776 14.6834 18.3776 15.1667C18.3776 15.6499 17.9858 16.0417 17.5026 16.0417H10.5026C10.0194 16.0417 9.6276 15.6499 9.6276 15.1667C9.6276 14.6834 10.0194 14.2917 10.5026 14.2917H17.5026ZM17.5026 18.9583C17.9858 18.9583 18.3776 19.3501 18.3776 19.8333C18.3776 20.3166 17.9858 20.7083 17.5026 20.7083H10.5026C10.0194 20.7083 9.6276 20.3166 9.6276 19.8333C9.6276 19.3501 10.0194 18.9583 10.5026 18.9583H17.5026Z" fill="#31DDA4"/>
<path d="M18.375 3.29403C18.375 3.07878 18.5997 2.94212 18.7672 3.07732C18.9083 3.1912 19.0351 3.32462 19.1433 3.47534L22.6586 8.37289C22.7387 8.48439 22.652 8.6291 22.5147 8.6291H18.6667C18.5055 8.6291 18.375 8.49852 18.375 8.33744V3.29403Z" fill="#31DDA4"/>
</svg>
