<svg width="24" height="24" viewBox="0 0 24 24" fill="none" xmlns="http://www.w3.org/2000/svg">
<path d="M16.2744 2.4707H7.37178C4.47435 2.4707 2.11719 4.82786 2.11719 7.72529V16.628C2.11719 19.5253 4.47435 21.8825 7.37178 21.8825H16.2745C19.1718 21.8825 21.529 19.5253 21.529 16.628V7.72529C21.529 4.82786 19.1718 2.4707 16.2744 2.4707ZM11.8231 17.4843C8.89632 17.4843 6.51531 15.1033 6.51531 12.1766C6.51531 9.24983 8.89632 6.86883 11.8231 6.86883C14.7498 6.86883 17.1308 9.24983 17.1308 12.1766C17.1308 15.1033 14.7498 17.4843 11.8231 17.4843ZM17.2577 8.12057C16.3928 8.12057 15.6894 7.4171 15.6894 6.55219C15.6894 5.68729 16.3928 4.98366 17.2577 4.98366C18.1227 4.98366 18.8263 5.68729 18.8263 6.55219C18.8263 7.4171 18.1227 8.12057 17.2577 8.12057Z" fill="white"/>
<path d="M11.8231 8.00684C9.52397 8.00684 7.65332 9.87734 7.65332 12.1766C7.65332 14.4757 9.52397 16.3463 11.8231 16.3463C14.1223 16.3463 15.9928 14.4757 15.9928 12.1766C15.9928 9.87734 14.1223 8.00684 11.8231 8.00684Z" fill="white"/>
<path d="M17.2578 6.12183C17.0205 6.12183 16.8274 6.31495 16.8274 6.5522C16.8274 6.78946 17.0205 6.98258 17.2578 6.98258C17.4952 6.98258 17.6883 6.78961 17.6883 6.5522C17.6883 6.3148 17.4952 6.12183 17.2578 6.12183Z" fill="white"/>
</svg>
