<svg width="41" height="41" fill="none" xmlns="http://www.w3.org/2000/svg"><rect width="41" height="41" rx="20.5" fill="#2D2D2D"/><path d="M29.562 16.008a5.039 5.039 0 01-3.045-1.018A5.05 5.05 0 0124.504 11H21.24v8.923l-.004 4.888a2.956 2.956 0 01-3.128 2.95 2.943 2.943 0 01-1.352-.415 2.955 2.955 0 01-1.444-2.49 2.958 2.958 0 013.893-2.85V18.69a6.423 6.423 0 00-.941-.07 6.262 6.262 0 00-4.706 2.105 6.125 6.125 0 00-1.545 3.696 6.118 6.118 0 001.822 4.766A6.263 6.263 0 0018.262 31c.319 0 .633-.023.942-.07a6.241 6.241 0 003.487-1.743 6.114 6.114 0 001.834-4.35l-.017-7.3a8.255 8.255 0 005.063 1.72v-3.25h-.009z" fill="#fff"/></svg>