<svg width="137" height="139" fill="none" xmlns="http://www.w3.org/2000/svg"><g clip-path="url(#clip0_2644_25985)" fill="#fff"><path d="M50.865 19.251a1.946 1.946 0 00-.646.551c-11.958 6.943-27.811 19.241-31.673 33.072-3.59 12.858 2.262 25.954 6.974 37.875 4.316 10.925 9.375 20.709 21.195 24.26 10.842 3.259 26.759 9.259 38.11 5.7 15.21-4.768 23.504-20.94 30.086-34.367 1.996-4.075 4.792-9.444 4.005-14.162-.895-5.372-3.167-10.69-5.008-15.78-3.785-10.472-7.975-27.194-18.898-32.712-11.968-6.04-31.604-11.035-44.145-4.437zm1.065 3.462c.095-.029.184-.025.284-.07 11.278-5.36 27.866.089 38.77 4.26.282.107.537.256.808.378 3.77 6.023-6.85 15.904-10.23 20.12-5.058 6.313-10.888 12.242-18.164 15.938-5.466 2.777-11.09 2.338-16.85 1.04-7.157-1.613-22.09-4.287-22.101-13.45 3.005-6.17 8.698-11.44 13.39-15.943 4.482-4.3 8.985-8.714 14.093-12.272zM29.394 87.215c-3.574-9.001-8.165-19.361-7.011-29.226 2.486 3.173 6.996 5.167 11.554 6.864 8.47 3.16 17.404 5.83 26.262 3.936 2.605 2.561 4.52 5.938 6.075 9.537a54.42 54.42 0 001.137 3.12c.065.165.165.288.267.41 1.048 2.826 1.955 5.658 2.871 8.217 3.164 8.824 5.795 18.088 9.966 26.504-9.595 1.572-22.057-3.345-31.067-5.83-11.719-3.233-15.86-12.969-20.054-23.532zm79.422-30.82c1.712 4.632 3.336 9.301 4.734 14.038 1.321 4.481-.445 8.146-2.278 12.278-5.412 12.192-13.894 28.638-27.406 33.056-2.99-10.486-7.253-20.803-11.038-31.037-.82-2.217-1.702-4.781-2.76-7.342-.89-4.19-1.706-7.99-.546-12.48C77.075 60.155 83.208 52.34 88.34 45.65c3.376-4.397 8.183-9.566 8.654-14.532 6.152 6.561 9.106 17.937 11.818 25.274l.005.003z"/><path d="M86.225 77.419c1.64-1.214 2.464-3.296 2.346-5.293-.13-2.29-2.154-4.571-4.445-4.817-2.338-.252-4.54 1.449-5.194 3.658-.332 1.123-.283 2.417.118 3.566.316 1.15.938 2.239 1.644 2.879 1.604 1.448 3.876 1.232 5.53.008l.001-.001zm11.05-12.812c1.642-1.215 2.463-3.296 2.348-5.294-.13-2.29-2.152-4.572-4.445-4.817-2.34-.251-4.54 1.449-5.195 3.658-.335 1.127-.283 2.429.122 3.582.317 1.143.938 2.224 1.643 2.862 1.604 1.448 3.876 1.233 5.527.01zM93.1 85.159c-2.338-.25-4.54 1.448-5.195 3.657-.333 1.126-.286 2.424.12 3.577.316 1.144.936 2.228 1.645 2.867 1.603 1.449 3.876 1.233 5.529.008 1.639-1.216 2.463-3.295 2.346-5.293-.13-2.29-2.153-4.571-4.446-4.816zm10.776-13.046c-2.338-.25-4.54 1.449-5.194 3.66-.334 1.124-.282 2.42.12 3.572.316 1.146.936 2.233 1.644 2.87 1.604 1.448 3.874 1.233 5.529.008 1.639-1.216 2.463-3.296 2.348-5.294-.132-2.29-2.152-4.572-4.445-4.817l-.002.001zM48.715 81.18c-3.345.063-5.146 3.208-5.422 6.198-.906 3.752 2.18 7.459 6.051 8.469 2.152.562 4.5.133 6.056-1.527 1.968-2.099 1.541-5.198.874-7.723-.884-3.347-4.228-5.479-7.56-5.418zm2.383 8.35l-.034-.014-.002-.005c.044.011.05.012.04.021l-.004-.001zM39.277 53.077c1.584 0 3.205-.98 4.09-2.325.022-.023.044-.038.066-.06.851-.925 1.48-2.535 1.21-3.786-.867-4.01-6.062-3.432-8.216-.883-.882 1.044-1.398 2.662-1.132 4.016.396 2.041 1.987 3.04 3.982 3.038zm17.598-6.997c1.583 0 3.202-.978 4.09-2.325.022-.023.044-.038.066-.06.853-.926 1.48-2.535 1.21-3.786-.867-4.01-6.063-3.433-8.216-.883-.882 1.044-1.396 2.66-1.132 4.016.396 2.04 1.986 3.04 3.984 3.037l-.002.001zm17.594-6.996c1.583-.001 3.202-.979 4.09-2.326.022-.023.044-.037.066-.06.853-.926 1.48-2.534 1.21-3.786-.868-4.01-6.063-3.432-8.216-.883-.882 1.044-1.396 2.661-1.132 4.016.396 2.041 1.986 3.04 3.984 3.038h-.002zm17.797-20.911c-.136-.038-.171.147-.094.223 4.12 4.02 9.438 5.594 13.042 10.442 3.193 4.295 4.873 9.712 6.774 14.656.081.212.414.13.385-.097-1.44-11.827-8.385-21.885-20.107-25.224zm20.273 27.207c.16 1.27.556 2.505.763 3.776.053.324.467.306.55.012.368-1.34-.18-2.838-.974-3.923-.11-.15-.359-.051-.337.134h-.002zm-78.237 65.18c-4.21-3.863-6.293-8.878-9.479-13.443-.085-.123-.287-.037-.271.108 1.214 9.917 13.165 22.377 23.55 22.133.364-.01.376-.509.096-.647-5.015-2.493-9.666-4.271-13.896-8.151zM24.131 95.37c.204-.963-.302-1.98-.62-2.873-.342-.96-.88-1.838-1.698-2.45-.12-.087-.34 0-.304.169.208.933.527 1.84.913 2.714.383.87.616 1.973 1.428 2.552.11.08.255.019.284-.113h-.003z"/></g><defs><clipPath id="clip0_2644_25985"><path fill="#fff" transform="rotate(-21.684 102.265 17.387)" d="M0 0h103.221v107.038H0z"/></clipPath></defs></svg>