<svg width="155" height="155" fill="none" xmlns="http://www.w3.org/2000/svg"><path d="M117.712 51.236a3.029 3.029 0 00-4.299 4.264l.019.02c.589.593 1.361.89 2.135.89.771 0 1.544-.295 2.137-.883a3.039 3.039 0 00.008-4.291z" fill="#fff"/><path d="M154.114 87.642l-28.118-28.117a3.028 3.028 0 00-4.281 4.281l22.321 22.321H90.808c-4.416 0-8.008-3.592-8.008-8.007V24.892l21.55 21.549a3.028 3.028 0 004.281-4.282L81.285 14.814a3.028 3.028 0 00-4.281 0L28.742 63.077a3.028 3.028 0 000 4.281l72.829 72.828a3.024 3.024 0 004.281 0l48.262-48.262a3.027 3.027 0 000-4.282zM76.746 23.635V62.19H38.191l38.555-38.555zm23.938 107.102L38.191 68.245h38.555v9.875c0 7.754 6.309 14.062 14.062 14.062h9.876v38.555zm6.054 0V92.182h38.555l-38.555 38.555zM20.777 76.894H3.027a3.028 3.028 0 000 6.055h17.75a3.027 3.027 0 100-6.055zm9.026 0h-.045a3.027 3.027 0 000 6.055h.045a3.027 3.027 0 000-6.055zM12.72 45.108H3.03a3.027 3.027 0 000 6.055h9.689a3.027 3.027 0 000-6.055zm21.341 0H22.61a3.028 3.028 0 000 6.055h11.452a3.027 3.027 0 000-6.055zm6.587 48.436H23.695a3.027 3.027 0 000 6.055h16.953a3.027 3.027 0 000-6.055zm13.24 19.374H11.203a3.028 3.028 0 000 6.055h42.685a3.028 3.028 0 000-6.055z" fill="#fff"/></svg>