<svg width="125" height="90" fill="none" xmlns="http://www.w3.org/2000/svg"><g clip-path="url(#clip0_2644_25946)" fill="#fff"><path d="M8.024 60.114c3.355 8.35 8.782 16.078 13.303 23.866.768 1.325 5.215-.257 5.133-1.688a4433.392 4433.392 0 00-1.882-32.083l-5.157 1.697c6.458 9.45 10.638 19.869 14.693 30.509.597 1.576 5.09-.418 5.254-1.731 2.172-17.46 4.365-34.942 6.114-52.444.151-1.581-4.548-.21-4.754 1.254-2.49 17.49-4.563 35.04-6.636 52.588l5.254-1.731c-4.123-10.602-8.405-20.998-14.79-30.475-.836-1.246-5.236.197-5.157 1.697a4432.58 4432.58 0 001.906 32.074l5.133-1.688c-4.623-7.807-8.783-16.31-14.439-23.41-.761-.96-4.469.321-3.975 1.566zM52.518 41.96c-1.5 7.075-2.57 23.37 6.132 26.696 6.843 2.618 10.517-3.63 11.505-9.256 1.21-6.851 2.373-21.146-7.328-22.046-5.501-.514-13.032 4.311-10.456 10.454.548 1.32 4.36-.325 4.474-1.47.423-4.173 5-7.438 7.58-2.483.888 1.705 1.065 3.907 1.272 5.77.416 3.809.9 10.362-.922 13.855-3.625 6.926-7.377-4.093-8.133-7.086-1.284-5.03-1.366-10.211-.674-15.325.155-1.145-3.232-.114-3.454.919l.004-.029zm14.159-19.63c4.38 11.521 10.172 22.489 14.584 34.026.588 1.551 5.216-.409 5.042-1.984-1.154-11.118-2.467-22.22-3.633-33.334l-4.993 1.967 16.19 34.522c.676 1.453 5.328-.325 5.266-1.736-.758-19.235 2.8-36.094 7.085-54.64.359-1.573-4.236-.061-4.674.94-7.5 16.898-8.533 36.89-7.699 55.103l5.266-1.736-16.44-34.42c-.727-1.517-5.164.404-4.994 1.967 1.247 11.112 2.336 22.239 3.584 33.35l5.042-1.983c-4.47-11.393-9.469-23.01-15.504-33.66-.655-1.16-4.599.382-4.122 1.618z"/></g><defs><clipPath id="clip0_2644_25946"><path fill="#fff" transform="rotate(-19.435 109.121 18.686)" d="M0 0h112.322v54.959H0z"/></clipPath></defs></svg>