<svg width="73" height="64" viewBox="0 0 73 64" fill="none" xmlns="http://www.w3.org/2000/svg">
<g clip-path="url(#clip0_6424_29509)">
<path d="M35.9969 63.7572C26.7209 63.7572 17.445 63.7572 8.16901 63.7572C2.75287 63.7572 0.0292969 61.0976 0.0292969 55.8336V8.55118C0.0292969 3.47201 2.79517 0.768262 8.02241 0.765503C26.7153 0.765503 45.4082 0.765503 64.101 0.765503C69.2437 0.765503 72.0265 3.49132 72.0265 8.49049C72.0265 24.3433 72.0265 40.196 72.0265 56.0488C72.0265 61.0369 69.2437 63.76 64.1067 63.7738C54.7349 63.7719 45.3649 63.7664 35.9969 63.7572ZM35.9969 3.52443C26.6307 3.52443 17.2626 3.52443 7.89271 3.52443C4.38533 3.52443 2.8431 5.04735 2.8431 8.46842C2.8431 24.2752 2.8431 40.0811 2.8431 55.886C2.8431 59.5168 4.3233 60.99 8.01113 60.99C26.7021 60.99 45.3931 60.99 64.0841 60.99C67.6817 60.99 69.2042 59.4892 69.2042 55.9743V8.70016C69.2042 4.97838 67.7409 3.52718 63.9629 3.52718L35.9969 3.52443Z" fill="#4F4F4F"/>
<path d="M9.66043 10.1266V29.1273C9.80245 29.1816 9.94985 29.2214 10.1003 29.2459C13.1819 29.3535 13.1791 29.3507 14.4619 26.5753C15.1555 25.0744 15.8491 23.5736 16.554 22.0782C16.9177 21.303 17.1178 20.3484 18.2936 20.3787C19.5651 20.4091 19.6638 21.4823 19.9542 22.31C21.1384 25.6814 22.2887 29.0666 23.5518 32.747C23.814 32.0269 24.0649 31.591 24.1157 31.1303C24.3131 29.5687 25.2209 29.0749 26.7434 29.199C27.9529 29.2956 29.1738 29.2183 30.5271 29.2183C30.8457 28.2141 31.1699 27.2291 31.466 26.2387C32.5204 22.6797 33.5683 19.1179 34.6096 15.5534C34.8521 14.7257 35.1341 13.898 36.1913 13.9146C37.2486 13.9311 37.5052 14.7643 37.7026 15.6113C39.0051 21.188 40.3162 26.7629 41.6357 32.3359C41.7203 32.6863 41.8302 33.0312 42.0135 33.6795C42.5774 32.3966 43.068 31.3924 43.4486 30.3495C43.8292 29.3066 44.5341 28.741 45.6759 28.9397C47.7172 29.2928 49.0282 28.5286 49.8008 26.6636C50.1221 25.8989 50.5646 25.1885 51.1118 24.5585C51.4953 24.1198 52.155 23.5901 52.6287 23.6425C53.1023 23.695 53.7226 24.3378 53.9172 24.8509C54.6699 26.8208 55.2789 28.8431 55.9443 30.8433C56.0571 31.1882 56.1953 31.5248 56.3024 31.8145C57.0016 30.7578 57.4668 29.3314 58.4452 28.7796C59.4658 28.2141 60.9827 28.5038 62.367 28.4265V10.1266H60.7148C54.9519 10.1266 49.188 10.1266 43.4232 10.1266C42.9101 10.1266 42.3095 10.2011 41.912 9.97207C41.5145 9.74308 41.0464 9.17474 41.0436 8.75262C41.0408 8.33051 41.4947 7.76769 41.9063 7.53042C42.318 7.29316 42.9044 7.37592 43.4147 7.37592C49.8825 7.37592 56.3503 7.37592 62.8181 7.37592C65.0032 7.37592 65.2739 7.65181 65.2739 9.72652V43.8185C65.2739 45.8546 64.9919 46.1526 62.9422 46.1526C44.9936 46.1526 27.0432 46.1526 9.09091 46.1526C7.05809 46.1526 6.77051 45.8519 6.77051 43.8075V9.70721C6.77051 7.66285 7.05246 7.36765 9.09373 7.36765C15.6536 7.36765 22.2145 7.36765 28.7762 7.36765C29.1963 7.36765 29.7207 7.2766 30.0111 7.48076C30.4481 7.78976 30.9923 8.32223 30.9895 8.75539C30.9867 9.18854 30.4256 9.73204 29.9886 10.0107C29.6418 10.2231 29.0779 10.1211 28.6127 10.1238H9.65197L9.66043 10.1266ZM52.1522 28.3934C51.9013 28.6693 51.7406 28.7796 51.6813 28.9259C50.7932 31.133 49.2143 32.0931 46.7586 31.7207C46.4175 31.6682 45.7944 32.1759 45.6111 32.5621C44.692 34.5155 43.8941 36.5212 43.0116 38.4911C42.49 39.6581 41.4327 40.0305 40.7137 39.2691C40.3482 38.8032 40.1052 38.2565 40.006 37.6772C38.8247 32.7304 37.68 27.7754 36.5184 22.8231C36.4 22.3238 36.2365 21.8382 35.9545 20.9498C34.948 24.3654 34.0429 27.345 33.1999 30.3302C32.8757 31.4779 32.2441 32.0186 30.9951 31.9634C29.6051 31.9 28.2095 31.9497 26.8195 31.9497C26.2556 33.994 25.7961 35.917 25.1476 37.7737C24.9672 38.2952 24.251 38.9021 23.7379 38.9601C23.3234 39.0015 22.6524 38.3421 22.3958 37.8565C21.9391 36.9681 21.7107 35.9639 21.3808 35.0121C20.3235 31.9579 19.2606 28.9038 18.0821 25.5076C17.2222 27.3505 16.4468 28.8459 15.8265 30.4019C15.3501 31.5965 14.6396 32.1511 13.289 32.0379C12.0992 31.9359 10.8953 32.0159 9.69709 32.0159V43.3275H62.3755V31.3979C59.9451 31.0889 59.9479 31.0889 59.0542 33.0836C58.6425 34.0051 58.2083 34.921 57.8136 35.8425C57.4809 36.6233 57.1059 37.611 56.122 37.3351C55.4932 37.1585 54.8729 36.3225 54.6136 35.6466C53.7254 33.3181 52.9952 30.9233 52.1522 28.3934Z" fill="#4F4F4F"/>
<path d="M48.4194 49.1903C49.6038 49.1924 50.7394 49.6522 51.5789 50.4697C52.4185 51.2871 52.8942 52.396 52.9023 53.5549C52.9051 54.1414 52.7879 54.7225 52.5575 55.264C52.3272 55.8055 51.9884 56.2964 51.5612 56.7078C51.134 57.1192 50.6269 57.4427 50.0699 57.6593C49.5129 57.876 48.9172 57.9813 48.3179 57.9692C47.1331 57.9503 46.0041 57.4734 45.1774 56.6427C44.3507 55.812 43.8934 54.695 43.9055 53.5356C43.9182 52.3745 44.4001 51.2656 45.246 50.4513C46.0919 49.637 47.2329 49.1836 48.4194 49.1903ZM48.3602 55.1909C49.4006 55.1164 50.0519 54.5867 50.0519 53.5742C50.0687 53.3674 50.0407 53.1595 49.9697 52.9641C49.8987 52.7686 49.7863 52.5901 49.6399 52.4401C49.4936 52.2901 49.3165 52.172 49.1202 52.0936C48.924 52.0152 48.713 51.9782 48.5012 51.985C47.4636 51.9354 46.7954 52.4982 46.7475 53.508C46.6996 54.5177 47.3452 55.0668 48.3602 55.1909Z" fill="#4F4F4F"/>
<path d="M65.2738 53.6293C65.2567 54.7867 64.7731 55.8907 63.9282 56.7009C63.0834 57.5111 61.9456 57.9619 60.7627 57.9552C60.1641 57.9536 59.5719 57.8348 59.0209 57.6059C58.4699 57.377 57.9713 57.0425 57.5544 56.6222C57.1374 56.2019 56.8106 55.7042 56.5932 55.1585C56.3758 54.6127 56.2721 54.0299 56.2883 53.4444C56.3251 52.286 56.8282 51.1887 57.6878 50.3914C58.5475 49.5941 59.6942 49.1614 60.8783 49.1874C62.0614 49.2113 63.1869 49.6914 64.0101 50.5233C64.8333 51.3551 65.2874 52.4714 65.2738 53.6293ZM60.8501 55.1936C61.8003 55.0639 62.4572 54.548 62.429 53.5244C62.4393 53.3176 62.4049 53.1109 62.3281 52.9179C62.2513 52.725 62.1337 52.55 61.9832 52.4045C61.8326 52.2589 61.6523 52.1461 61.4542 52.0734C61.256 52.0006 61.0444 51.9695 60.8332 51.9822C59.7872 51.9601 59.1415 52.534 59.1246 53.552C59.1077 54.57 59.7618 55.0998 60.8501 55.1963V55.1936Z" fill="#4F4F4F"/>
<path d="M12.0795 54.9508C10.9085 54.9508 9.73839 54.9508 8.56926 54.9508C7.62475 54.9508 6.83531 54.6501 6.81275 53.6044C6.79019 52.5588 7.54298 52.2029 8.50441 52.2001C10.9855 52.2001 13.4657 52.2001 15.9449 52.2001C16.85 52.2001 17.5407 52.5616 17.5548 53.5355C17.5689 54.5921 16.833 54.9397 15.8631 54.9453C14.6057 54.9563 13.3426 54.9508 12.0795 54.9508Z" fill="#4F4F4F"/>
<path d="M29.8393 52.2029C31.1024 52.2029 32.3768 52.1835 33.6286 52.2029C34.5308 52.2222 35.199 52.6029 35.1906 53.5823C35.1821 54.5617 34.4942 54.9287 33.5976 54.9342C31.0714 54.9508 28.5452 54.9508 26.0189 54.9342C25.1139 54.9342 24.4513 54.5369 24.4598 53.5547C24.4683 52.5726 25.1506 52.2167 26.05 52.2029C27.3102 52.1863 28.5762 52.2029 29.8393 52.2029Z" fill="#4F4F4F"/>
<path d="M37.6181 9.13607C37.0542 9.45059 36.4368 10.052 35.9095 9.99134C35.4387 9.93616 34.7818 9.1885 34.7 8.6781C34.5844 7.85042 35.3034 7.27104 36.1464 7.45865C36.7103 7.5828 37.1444 8.15942 37.6378 8.53463L37.6181 9.13607Z" fill="#4F4F4F"/>
</g>
<defs>
<clipPath id="clip0_6424_29509">
<rect width="72" height="63" fill="white" transform="translate(0.0292969 0.76001)"/>
</clipPath>
</defs>
</svg>
