<svg width="75" height="75" viewBox="0 0 75 75" fill="none" xmlns="http://www.w3.org/2000/svg">
<g clip-path="url(#clip0_6424_29518)">
<path d="M52.1628 69.8852C50.1344 69.1349 48.5464 70.3458 46.9468 72.029C44.0143 75.1084 43.8723 75.1664 40.0647 73.3181C37.9203 72.2781 36.1469 72.2723 33.9968 73.3181C30.1804 75.1751 30.0124 75.1345 27.1233 72.0348C25.5034 70.2966 23.8662 69.6303 21.4727 69.836C17.2217 70.1981 17.071 70.0909 15.5004 66.1597C14.5992 63.9088 13.2691 62.6834 10.9248 61.9852C6.84479 60.7859 6.74916 60.6323 6.76076 56.3419C6.76076 53.9983 5.98995 52.4397 4.15277 51.0173C0.316145 48.0537 0.692859 48.1696 2.21128 44.0385C3.02555 41.8223 2.77055 40.1044 1.59696 38.1287C-0.57346 34.4872 -0.57636 34.3221 2.22867 31.1499C3.84562 29.322 4.54687 27.5229 3.83113 25.1793C2.90385 22.1404 3.91806 20.0517 6.93752 18.9537C9.21806 18.1252 10.4931 16.5174 10.6698 14.0579C10.7545 13.4379 10.8921 12.8263 11.0813 12.2299C11.5507 10.399 12.1796 9.62261 14.0283 9.62261C17.7606 9.62261 20.3802 8.08432 22.003 4.69777C22.7767 3.08996 24.1821 2.51057 25.8744 3.19425C29.3517 4.59928 32.3479 3.93877 35.066 1.42131C36.2976 0.279908 37.7349 0.262527 38.9751 1.40393C41.7396 3.95036 44.7706 4.62535 48.303 3.17397C49.9634 2.49029 51.3138 3.1508 52.0382 4.68039C53.6493 8.08432 56.2979 9.55598 60.007 9.60523C61.8848 9.6313 62.7309 10.3526 62.9222 12.2125C63.3192 16.0162 65.139 18.496 68.7177 19.93C70.4795 20.6369 70.8968 21.6131 70.4158 23.4295C69.4914 26.9291 70.0362 29.884 72.8557 32.3435C74.3046 33.6037 74.4379 35.1941 73.2556 36.7266C71.0852 39.5453 70.891 42.4249 72.3862 45.6695C73.3889 47.8654 73.1455 48.5839 71.1518 49.9773C68.4308 51.8806 66.8052 54.1315 67.2601 57.6253C67.5499 59.8907 66.3531 61.1625 64.1334 61.7216C61.6645 62.3444 59.5463 63.2077 58.5379 66.1308C57.1122 70.1344 56.8427 70.0359 52.1628 69.8852ZM51.7281 67.7067C52.525 67.7067 53.0263 67.6169 53.4842 67.7212C55.0577 68.0833 55.7357 67.3243 56.353 65.9511C58.8943 60.3021 57.3179 61.8664 63.4698 59.6531C64.6753 59.2186 65.0694 58.6711 65.0984 57.4196C65.2259 52.1877 65.2288 52.1413 69.3407 48.7519C70.465 47.8277 70.6186 47.034 70.1898 45.7014C68.254 39.7018 68.086 41.8281 71.0272 36.3732C71.7314 35.0637 71.6792 34.27 70.7374 33.1054C66.7994 28.253 67.4108 30.2635 68.2019 24.0814C68.3786 22.7082 68.0744 21.9608 66.8052 21.2365C61.2676 18.0673 62.644 19.7881 61.1343 13.7769C60.7518 12.2444 60.0882 11.7664 58.5987 11.5346C52.7366 10.6221 54.3071 11.7258 51.0501 6.94002C50.0416 5.45678 49.1346 5.11493 47.4221 5.5263C41.8758 6.8589 43.6202 7.00666 38.9693 4.0141C36.5932 2.4845 37.3118 2.32227 35.0631 4.08362C32.5073 6.08542 30.0211 6.72275 26.8161 5.69433C23.9445 4.7731 24.4979 4.49789 22.9824 7.16309C21.293 10.1122 18.9777 11.5636 15.6743 11.5433C13.8661 11.5433 13.1909 12.3776 12.7939 14.1013C11.4986 19.6925 12.4867 18.1571 7.57792 21.0888C5.59006 22.2708 5.43069 22.2794 5.96677 24.5449C6.71439 27.6997 6.3232 30.4199 3.75578 32.6216C3.33948 32.9527 3.00611 33.3762 2.78214 33.8586C2.56756 34.3773 2.51208 34.948 2.62276 35.4983C2.81189 36.1458 3.12592 36.75 3.54714 37.277C5.33506 39.6149 5.37853 41.9933 4.26579 44.6874C3.12697 47.4425 3.29504 47.512 5.63063 49.4993C6.28842 50.0584 7.05053 50.5422 7.57502 51.2114C8.09941 51.8655 8.47071 52.6287 8.66168 53.445C8.90925 54.5753 8.99028 55.7357 8.9022 56.8894C8.73703 58.6624 9.53101 59.3287 11.1422 59.8762C16.616 61.739 15.2599 60.5222 17.5665 65.7368C18.2938 67.3851 19.1168 67.8168 20.8757 67.7646C26.622 67.5532 24.8109 66.9825 28.9025 70.8528C30.9309 72.7561 30.1051 72.6286 32.7971 71.5278C37.8885 69.442 36.0774 69.4072 41.2672 71.5278C43.8231 72.5765 43.0667 72.8575 45.1415 70.8007C47.0743 68.9031 48.7985 66.6319 51.7281 67.7067Z" fill="#4F4F4F"/>
<path d="M37.5667 18.5742C37.5667 20.2023 37.6305 21.7348 37.5667 23.2586C37.2972 28.6151 34.8109 32.5289 29.8558 34.9652C29.8558 39.1513 29.8297 43.436 29.8992 47.7119C29.8992 48.103 30.4585 48.7693 30.8323 48.8272C33.2896 49.2038 35.7585 49.4674 38.239 49.7253C38.9599 49.7673 39.6827 49.7673 40.4036 49.7253C41.2005 49.7253 42.0321 49.9222 41.8525 50.8319C41.7684 51.278 40.8846 51.8748 40.3514 51.8893C36.8423 51.9849 33.3128 52.1268 29.7688 50.8058C29.0212 52.8569 27.3347 53.0162 25.5091 52.9177C24.5964 52.8685 23.6778 52.9351 22.765 52.9003C21.0263 52.8366 19.8006 51.756 19.7571 50.0323C19.676 46.7588 19.6827 43.4852 19.7774 40.2116C19.7919 39.7539 20.5134 39.3165 20.9104 38.8703C21.2523 39.3686 21.8812 39.8553 21.8956 40.3623C21.9913 43.294 21.9855 46.2344 21.9246 49.1719C21.8985 50.351 22.2926 50.8145 23.4952 50.7913C28.5112 50.6899 27.6622 51.4142 27.7085 46.6081C27.752 42.225 27.6825 37.8419 27.7404 33.4617C27.7607 32.1726 27.4014 31.57 26.0278 31.6975C25.063 31.7591 24.0955 31.764 23.1301 31.7119C22.2753 31.6859 21.8898 32.048 21.9304 32.9171C22.0025 33.5863 21.9781 34.2624 21.858 34.9247C21.7862 35.1358 21.6644 35.3265 21.5029 35.4803C21.3414 35.6342 21.1451 35.7467 20.9307 35.8083C20.583 35.8459 19.8556 35.3766 19.8614 35.1506C19.9136 33.7022 19.7455 32.0596 20.3598 30.8371C21.4204 28.7252 28.0621 28.87 29.3429 30.8631C29.6115 31.3665 29.8439 31.8883 30.0383 32.4246C33.0694 30.4749 34.9037 27.8184 35.2543 24.232C35.4224 22.5575 35.4571 20.8686 35.5441 19.1855C35.6455 16.9954 36.9408 15.9814 39.0996 16.4218C41.47 16.9027 43.0145 18.8379 43 21.4364C43 23.5541 42.9478 25.6776 42.8058 27.7895C42.7218 29.0699 43.0406 29.5885 44.4518 29.5276C47.2887 29.4146 50.1343 29.5103 52.977 29.4871C54.5533 29.4871 55.8313 30.023 56.576 31.4396C57.2859 32.7896 57.115 34.1135 56.2398 35.3853C56.1508 35.554 56.0991 35.7398 56.0881 35.9302C56.0771 36.1207 56.1071 36.3112 56.1761 36.489C56.9266 38.1461 56.6079 39.5511 55.4053 40.8663C55.276 41.0361 55.1835 41.231 55.1336 41.4384C55.0837 41.6459 55.0776 41.8615 55.1155 42.0715C55.2992 42.7233 55.3137 43.4112 55.1575 44.0702C55.0014 44.7291 54.6797 45.3374 54.223 45.8375C54.0931 46.0306 54.0038 46.248 53.9605 46.4765C53.9171 46.7051 53.9207 46.9401 53.9709 47.1672C54.5504 49.6152 53.1914 51.6923 50.679 51.8951C49.1912 52.0182 47.6957 52.0182 46.2078 51.8951C45.7384 51.8545 45.3211 51.2346 44.8806 50.8783C45.3414 50.4987 45.7645 49.8672 46.2716 49.7919C47.4017 49.6268 48.5753 49.7166 49.7315 49.7455C50.8268 49.7745 51.9164 49.6615 51.9164 48.2971C51.9164 47.0485 50.9138 46.8486 49.8474 46.8486C49.4293 46.853 49.0216 46.7185 48.6883 46.4662C48.5746 46.327 48.4976 46.1615 48.4642 45.9849C48.4308 45.8084 48.4421 45.6262 48.497 45.4551C48.6055 45.2826 48.7476 45.1336 48.9149 45.0172C49.0822 44.9007 49.2712 44.8191 49.4707 44.7772C50.227 44.6614 51.0731 44.8931 51.7541 44.6382C52.3076 44.4296 53.0204 43.7199 53.0204 43.2361C53.0204 42.7523 52.2496 42.1034 51.6904 41.9179C50.8384 41.6283 49.462 42.0715 49.5837 40.6317C49.7025 39.2585 51.0326 39.7191 51.9251 39.6438C52.2612 39.6149 52.6843 39.7626 52.919 39.6062C53.4551 39.2469 54.1737 38.8269 54.3186 38.2967C54.5562 37.4277 53.8811 36.9004 53.0001 36.7729C52.1192 36.6455 50.8877 37.0916 50.9022 35.6953C50.9167 34.1773 52.2612 34.7132 53.1277 34.6292C54.1158 34.5307 54.8663 34.1512 54.8228 33.0793C54.7765 32.0914 54.0549 31.7322 53.1045 31.738C50.1179 31.7496 47.1312 31.7496 44.1446 31.738C41.5772 31.738 40.6673 30.8023 40.705 28.2414C40.734 25.9238 40.8006 23.6063 40.7919 21.309C40.789 19.5331 39.8154 18.6264 37.5667 18.5742Z" fill="#4F4F4F"/>
<path d="M8.8501 37.4015C9.2355 27.6532 13.3068 19.9183 21.2873 14.2808C21.7039 13.9629 22.1843 13.7386 22.6956 13.6232C22.8766 13.6202 23.0555 13.663 23.2155 13.7476C23.3756 13.8322 23.5117 13.9558 23.6113 14.107C23.6787 14.3005 23.7055 14.5059 23.6901 14.7102C23.6746 14.9146 23.6172 15.1135 23.5214 15.2947C23.3157 15.6337 22.8607 15.8307 22.5043 16.0711C13.6459 22.0476 9.24998 33.1632 11.716 43.3576C14.2631 53.8939 23.3476 62.1068 34.0026 63.2134C41.8845 64.0332 48.8478 61.7417 54.6926 56.2955C54.9824 56.0347 55.2113 55.6205 55.5387 55.5306C56.0198 55.3974 56.5674 55.4901 57.0861 55.4872C57.063 56.0058 57.2542 56.73 56.9847 57.011C55.9221 58.1261 54.7698 59.1522 53.5393 60.0789C36.5005 72.6401 12.2086 62.3965 9.20362 41.4224C9.00947 40.0898 8.96601 38.7428 8.8501 37.4015Z" fill="#4F4F4F"/>
<path d="M36.8974 9.17938C58.4277 9.49805 71.9602 32.8794 61.2588 51.475C61.2095 51.5561 61.1603 51.6401 61.1052 51.7184C60.6097 52.431 60.2736 53.639 59.0768 52.9032C58.0104 52.2398 58.787 51.391 59.2043 50.661C65.2693 40.2754 63.6118 27.2419 54.8837 18.9943C47.4887 12.0068 38.7403 10.06 28.9459 12.9367C28.0563 13.1946 26.8306 14.0694 26.4046 12.5572C26.0279 11.2188 27.4478 11.0827 28.291 10.8915C31.1511 10.2397 34.0315 9.7356 36.8974 9.17938Z" fill="#4F4F4F"/>
</g>
<defs>
<clipPath id="clip0_6424_29518">
<rect width="74" height="74" fill="white" transform="translate(0.0292969 0.56958)"/>
</clipPath>
</defs>
</svg>
