<svg width="79" height="79" viewBox="0 0 79 79" fill="none" xmlns="http://www.w3.org/2000/svg">
<g clip-path="url(#clip0_6424_29491)">
<path d="M78.3372 39.2138C78.3372 60.6528 60.7881 78.1813 39.3354 78.2018C29.0059 78.2073 19.0967 74.112 11.7849 66.8156C4.47316 59.5192 0.35691 49.6187 0.340576 39.2891C0.340576 17.7646 17.8999 0.198407 39.4245 0.215528C49.7554 0.229142 59.6581 4.34499 66.9551 11.6581C74.2522 18.9712 78.3462 28.8829 78.3372 39.2138ZM15.8454 67.5423C28.9772 79.1846 52.5905 80.1434 67.1366 63.536C81.6141 47.0073 77.375 24.1884 65.4861 13.3508L15.8454 67.5423ZM20.2969 19.3603L23.7211 16.7408C23.3444 15.8059 22.9712 14.9739 22.6767 14.1144C22.3343 13.1488 22.461 12.2345 23.5362 11.8476C24.5634 11.4812 25.2928 11.9332 25.7037 12.9399C26.0632 13.8165 26.4604 14.676 26.8063 15.467L31.0797 14.7307C31.1311 13.8165 30.9838 12.8406 31.2886 12.0359C31.5351 11.3819 32.2508 10.5875 32.8842 10.4573C33.9731 10.2348 34.4697 11.1422 34.5073 12.1694C34.5381 13.1248 34.5073 14.0802 34.5073 15.0389L38.3356 16.2305C38.88 15.3266 39.38 14.5184 39.8833 13.6761C40.4449 12.7515 41.1742 12.1421 42.2803 12.7927C43.3863 13.4433 43.3075 14.337 42.7186 15.3026C42.1981 16.1689 41.6913 17.0352 41.4208 17.477L44.2184 20.6923C45.071 20.0074 45.9613 19.3021 46.8413 18.5898C47.7213 17.8776 48.6253 17.6413 49.3889 18.6138C50.1525 19.5863 49.7861 20.4184 48.8993 21.1272C47.872 21.9387 46.8824 22.7674 45.7764 23.6713C46.7831 25.2876 47.7316 26.8113 48.7965 28.5269L64.0651 11.8578C50.6388 -0.815157 26.9364 -1.87666 12.1301 14.2171C-2.54602 30.1705 0.231009 53.8044 14.26 66.2205C18.07 62.059 21.8811 57.8963 25.6934 53.7325C25.916 53.4893 26.118 53.2257 26.3782 52.9004L23.4437 49.5344C22.6493 50.4144 22.1117 51.3252 21.3138 51.7875C20.7317 52.1299 19.8072 51.8697 19.0333 51.8765C18.9937 51.1114 19.0143 50.3443 19.095 49.5823C19.1497 49.257 19.6086 48.9968 19.886 48.7091C21.6837 46.8669 21.6871 46.8669 20.3585 44.7028C20.197 44.4712 20.0232 44.2483 19.838 44.0351C18.7902 44.5624 17.8143 45.0213 16.8692 45.5383C15.842 46.1102 14.7394 46.4594 14.0648 45.1959C13.3902 43.9324 14.2189 43.1928 15.3181 42.662C16.3453 42.1723 17.3315 41.6347 18.3998 41.0697C17.8759 39.837 17.3966 38.7002 16.8692 37.4572C15.6365 37.6935 14.4723 37.9297 13.3081 38.142C12.2089 38.3372 11.3152 38.0359 11.1063 36.8374C10.918 35.7314 11.6028 35.1596 12.6266 34.9473C13.6505 34.735 14.7051 34.5158 15.7529 34.3001C15.6605 32.588 15.5783 31.0642 15.4927 29.4309C14.4312 29.1843 13.3902 28.9275 12.3459 28.6981C11.3015 28.4687 10.7022 27.8489 10.9043 26.7566C11.1063 25.6642 11.976 25.3595 12.9896 25.5341C14.0032 25.7087 15.0852 25.9519 16.1228 26.1642L18.143 21.8908L16.1056 20.0074C15.3386 19.2918 15.0407 18.4631 15.7975 17.6105C16.6056 16.6894 17.5096 16.888 18.3348 17.6516C18.9785 18.2166 19.6257 18.7747 20.3003 19.3705L20.2969 19.3603ZM47.283 30.15C46.112 28.1605 44.9922 26.3833 43.9889 24.5343C40.373 17.8947 32.7712 15.1382 26.0256 18.0557C19.2251 20.9971 15.9755 28.5954 18.4923 35.7451C20.1392 40.4921 22.5698 44.9297 25.6831 48.8735C26.344 49.7056 27.0802 50.4795 27.8575 51.3663L31.1482 47.7469C29.5045 45.35 27.8335 43.2475 26.5221 40.9328C25.2088 38.6027 24.091 36.1677 23.18 33.6529C21.4303 28.859 23.8238 23.9556 28.5218 22.3222C32.7028 20.8703 36.9796 22.6646 39.2533 26.6915C40.6229 29.133 42.1707 31.4854 43.7321 34.0364C45.1258 32.5263 46.1873 31.3381 47.2865 30.1602L47.283 30.15ZM42.2734 35.6287C40.4894 32.6839 38.8184 29.9171 37.1371 27.1572C36.3202 25.7678 35.0265 24.7224 33.4966 24.2153C31.9667 23.7083 30.3047 23.7742 28.8197 24.4007C25.6592 25.7087 23.9265 29.0816 24.9401 32.3757C26.513 37.4446 29.1634 42.1135 32.7096 46.0622L42.2734 35.6287Z" fill="#4F4F4F"/>
<path d="M50.1081 33.2182L51.4949 31.6567C52.6523 32.5505 53.7857 33.3894 54.8712 34.2797C55.6005 34.8789 56.2203 34.8995 56.9839 34.3002C57.9256 33.5675 58.946 32.9305 59.9561 32.2936C60.8361 31.7355 61.7367 31.7047 62.3531 32.6361C62.9694 33.5674 62.6201 34.3824 61.7572 34.9851C60.7848 35.6699 59.7918 36.3205 58.7645 37.0122C59.6445 38.3134 60.4081 39.5701 61.3155 40.7172C61.5041 40.8849 61.7262 41.0104 61.9671 41.0854C62.208 41.1604 62.4622 41.1831 62.7126 41.1521C63.6063 41.0356 64.4829 40.5015 65.3492 40.5391C65.9759 40.5665 66.9518 41.1315 67.0853 41.6383C67.2189 42.1451 66.6915 43.1826 66.1642 43.4874C65.2088 44.0352 64.0446 44.2099 62.9044 44.5626C63.0448 46.1788 63.1783 47.6991 63.329 49.401C64.2912 49.6509 65.3184 49.9215 66.3491 50.1817C67.4449 50.4591 68.0955 51.1028 67.7907 52.2773C67.5065 53.3765 66.6676 53.5956 65.6403 53.3525C64.7055 53.1299 63.7673 52.9348 62.8393 52.7327C61.9867 54.4654 61.1683 56.1364 60.2917 57.9204C61.0073 58.4649 61.9285 58.9271 62.4832 59.6633C62.8975 60.2215 63.168 61.2693 62.9249 61.848C62.4935 62.8513 61.4628 62.7896 60.593 62.2109C59.7233 61.6322 58.9357 61.0125 58.1105 60.4064L52.666 63.6731C52.9023 64.5497 53.1454 65.5838 53.4638 66.5905C53.8234 67.7273 53.4638 68.7135 52.3749 68.8265C51.7483 68.8881 50.7895 68.1417 50.4026 67.5048C49.865 66.611 49.7177 65.4811 49.413 64.4469C47.7625 64.3613 46.184 64.2346 44.6191 64.2381C44.3964 64.2704 44.1838 64.3524 43.997 64.4781C43.8103 64.6038 43.6543 64.7698 43.5405 64.964C43.1707 65.7208 43.1535 66.7001 42.6673 67.3438C42.2769 67.8643 41.3147 68.3882 40.784 68.2444C40.2532 68.1006 39.6848 67.087 39.7191 66.4912C39.7875 65.3886 40.2875 64.31 40.6504 63.0841L36.4592 60.9406C35.9661 61.5706 35.4936 62.187 35.0108 62.7965C34.2198 63.7895 33.5247 65.368 31.929 64.2655C30.3333 63.1629 31.5866 61.9815 32.3193 60.9371C32.7097 60.3756 33.1172 59.8311 33.5795 59.1942L29.3643 55.8282L30.4634 54.6332C34.0794 56.7836 37.4146 59.0846 41.0168 60.8344C47.9337 64.197 55.7135 61.6836 59.35 55.2153C62.9865 48.747 61.0142 40.9466 54.6417 36.5842C53.1556 35.5603 51.7312 34.4201 50.1081 33.2182Z" fill="#4F4F4F"/>
<path d="M45.0298 38.4537C45.7866 37.7689 46.1975 37.3819 46.5536 37.0601C48.7793 38.6934 50.9331 40.1829 52.9842 41.806C54.5541 43.0716 55.6371 44.8418 56.0492 46.8158C56.4612 48.7897 56.1767 50.8454 55.2442 52.6333C53.3369 56.3212 49.0806 58.2764 45.1188 57.0334C41.044 55.7562 37.5856 53.3696 34.2983 50.5446L34.8736 49.7775C35.0482 49.5515 35.216 49.329 35.4523 49.0345C37.1267 50.2158 38.6437 51.3972 40.2702 52.4005C41.7218 53.3077 43.2422 54.1 44.8175 54.77C46.3516 55.4375 48.0806 55.5038 49.6613 54.9558C51.2421 54.4077 52.5589 53.2854 53.3506 51.8115C54.984 48.8153 54.1553 45.2268 51.3406 43.1277C49.334 41.6348 47.3274 40.1555 45.0298 38.4537Z" fill="#4F4F4F"/>
<path d="M51.4194 48.2127C51.426 49.131 51.1454 50.0284 50.6168 50.7793C50.0881 51.5302 49.3379 52.097 48.4712 52.4005C47.5995 52.6865 46.6625 52.707 45.7791 52.4595C44.8957 52.212 44.1057 51.7075 43.5095 51.0103C42.9647 50.3984 42.3212 49.8822 41.6057 49.4831C40.0374 48.6168 39.3217 46.8944 39.986 45.285C40.6709 43.5934 42.4617 42.8881 44.2389 43.4496C44.9592 43.6912 45.7208 43.7855 46.4783 43.727C47.1043 43.6642 47.7365 43.7335 48.334 43.9305C48.9314 44.1276 49.4808 44.4479 49.9466 44.8708C50.4124 45.2937 50.7842 45.8096 51.038 46.3853C51.2917 46.961 51.4216 47.5836 51.4194 48.2127ZM49.5806 48.8496C49.5567 46.5622 48.0158 45.2816 46.4167 45.7678C45.3586 46.0828 44.5402 46.2849 43.6773 45.3911C43.4513 45.1549 42.6021 45.1857 42.3248 45.4254C42.1372 45.6104 41.9921 45.8338 41.8993 46.0804C41.8065 46.3269 41.7682 46.5906 41.7872 46.8533C41.8618 47.0794 41.9933 47.2825 42.169 47.4432C42.3446 47.6038 42.5586 47.7167 42.7904 47.771C43.9102 47.771 44.3245 48.3257 44.7217 49.2708C45.2388 50.5001 46.3824 51.1678 47.6254 50.6165C48.5123 50.2124 49.1595 49.2468 49.5806 48.8496Z" fill="#4F4F4F"/>
<path d="M31.2748 34.4782C30.7333 34.4829 30.1963 34.3789 29.6956 34.1725C29.195 33.9661 28.7408 33.6613 28.3599 33.2763C27.9791 32.8913 27.6793 32.4339 27.4783 31.931C27.2773 31.4281 27.1792 30.8901 27.1897 30.3486C27.2086 29.2839 27.6368 28.2673 28.3853 27.5098C29.1338 26.7523 30.1453 26.3122 31.2098 26.2807C31.7519 26.2739 32.2901 26.3745 32.7932 26.5766C33.2964 26.7788 33.7545 27.0786 34.1413 27.4586C34.528 27.8387 34.8357 28.2915 35.0466 28.7911C35.2575 29.2906 35.3675 29.8269 35.3702 30.3692C35.3808 30.9105 35.2823 31.4485 35.0804 31.951C34.8785 32.4534 34.5775 32.91 34.1953 33.2936C33.813 33.6771 33.3574 33.9796 32.8556 34.1832C32.3539 34.3867 31.8162 34.4871 31.2748 34.4782ZM33.5177 30.4479C33.3739 29.1947 32.7746 28.342 31.4221 28.2359C31.1265 28.2084 30.8284 28.2425 30.5466 28.3361C30.2649 28.4297 30.0056 28.5807 29.7852 28.7795C29.5647 28.9784 29.3879 29.2208 29.266 29.4915C29.144 29.7622 29.0795 30.0552 29.0765 30.352C29.0491 31.5745 30.1037 32.7113 31.3091 32.6223C32.6034 32.5298 33.3328 31.7594 33.5177 30.4479Z" fill="#4F4F4F"/>
</g>
<defs>
<clipPath id="clip0_6424_29491">
<rect width="78" height="78" fill="white" transform="translate(0.340576 0.215576)"/>
</clipPath>
</defs>
</svg>
