<svg width="183" height="182" fill="none" xmlns="http://www.w3.org/2000/svg"><path d="M72.169 64.227l12.158 12.026c4.168 4.135 10.909 4.135 15.076 0l9.985-9.877 2.102-2.221L169.928 5.94c2.192-2.184.634-5.94-2.465-5.94h-20.53a24.954 24.954 0 00-17.595 7.259l-37.473 37.34L79.49 32.268a24.405 24.405 0 00-17.214-7.114H33.1l39.14 39.002-.072.072zm39.393 53.122l-12.14-12.025c-4.186-4.135-10.927-4.135-15.095 0l-9.984 9.877-2.102 2.221-58.438 58.232c-2.193 2.185-.634 5.922 2.464 5.922h20.766a24.416 24.416 0 0017.233-7.114l37.617-37.485 12.214 12.17a24.977 24.977 0 0017.631 7.277h28.92l-39.14-39.002.072-.073h-.018zM45.514 90.788l-12.286 12.243a24.572 24.572 0 00-7.23 17.388v28.927l39.14-39.002.072.072 12.105-12.152c4.15-4.171 4.15-10.906-.036-15.06L6.664 12.947C4.489 10.78.756 12.315.756 15.384v20.567c0 6.608 2.574 12.802 7.267 17.478l37.49 37.36zm130.303 37.431l-37.382-37.43 12.412-12.424a23.975 23.975 0 007.013-16.937V32.195l-38.977 39.02-.073-.072-11.923 12.025c-4.113 4.135-4.131 10.798-.054 14.97l11.996 12.278.072-.073 58.311 58.377c2.138 2.131 5.781.632 5.781-2.383V145.5c0-6.537-2.537-12.676-7.158-17.299l-.018.018z" fill="#fff"/></svg>