<svg width="301" height="283" fill="none" xmlns="http://www.w3.org/2000/svg"><g clip-path="url(#clip0_214_882)" fill="#fff"><path d="M30.42 217.545c-1.178-1.571-2.628-2.744-4.35-3.539a12.986 12.986 0 00-5.399-1.174c-2.156 0-4.15.434-5.961 1.319-1.813.884-3.389 2.058-4.712 3.539a16.031 16.031 0 00-3.08 5.146 17.039 17.039 0 00-1.106 6.121c0 2.275.363 4.388 1.106 6.338.725 1.95 1.757 3.647 3.062 5.092 1.305 1.444 2.863 2.582 4.675 3.43 1.812.849 3.824 1.264 6.034 1.264 2.392 0 4.512-.469 6.378-1.39 1.867-.939 3.498-2.275 4.893-4.027l3.461 2.908c-1.758 2.347-3.878 4.062-6.36 5.164-2.483 1.101-5.273 1.643-8.39 1.643-2.79 0-5.4-.506-7.81-1.535-2.428-1.029-4.53-2.438-6.306-4.243-1.775-1.806-3.17-3.955-4.185-6.446-1.015-2.492-1.523-5.201-1.523-8.162 0-2.961.49-5.525 1.45-7.999.979-2.492 2.338-4.641 4.095-6.464 1.758-1.824 3.86-3.269 6.27-4.334 2.428-1.065 5.073-1.589 7.973-1.589 2.645 0 5.182.47 7.628 1.427 2.447.957 4.476 2.51 6.143 4.658l-4.022 2.907.036-.054zm33.667 31.816c-2.971 0-5.69-.506-8.172-1.535s-4.62-2.438-6.433-4.243c-1.812-1.806-3.225-3.973-4.24-6.465-1.014-2.509-1.522-5.218-1.522-8.143 0-2.925.508-5.634 1.522-8.144 1.015-2.509 2.428-4.658 4.24-6.464 1.812-1.805 3.969-3.232 6.433-4.243 2.483-1.029 5.2-1.535 8.172-1.535 2.972 0 5.69.506 8.173 1.535 2.482 1.029 4.62 2.438 6.432 4.243 1.812 1.806 3.226 3.973 4.24 6.464 1.015 2.51 1.523 5.219 1.523 8.144s-.508 5.634-1.522 8.143c-1.015 2.51-2.429 4.659-4.24 6.465-1.813 1.805-3.969 3.232-6.433 4.243-2.483 1.029-5.2 1.535-8.173 1.535zm0-4.28c2.284 0 4.35-.415 6.252-1.264 1.884-.848 3.515-1.986 4.874-3.448 1.36-1.463 2.41-3.178 3.171-5.128.743-1.951 1.124-4.045 1.124-6.284s-.38-4.316-1.124-6.284c-.76-1.95-1.812-3.665-3.17-5.128a14.67 14.67 0 00-4.875-3.449c-1.885-.848-3.968-1.264-6.252-1.264-2.283 0-4.349.416-6.251 1.264-1.885.849-3.515 1.987-4.874 3.449-1.36 1.463-2.41 3.178-3.172 5.128-.76 1.95-1.123 4.045-1.123 6.284s.38 4.315 1.123 6.284a15.675 15.675 0 003.172 5.128 14.472 14.472 0 004.874 3.448c1.884.849 3.968 1.264 6.251 1.264zm31.928-35.535h6.886l13.21 30.425h.109l13.318-30.425h6.704v38.822h-4.62v-32.574h-.109l-13.971 32.574h-2.808l-13.971-32.574h-.109v32.574h-4.62v-38.822h-.019zm54.035 0h11.561c1.794 0 3.515.181 5.146.524 1.631.343 3.081.939 4.349 1.751a8.973 8.973 0 013.026 3.287c.743 1.372 1.124 3.069 1.124 5.073 0 2.113-.399 3.883-1.215 5.273-.815 1.39-1.848 2.492-3.116 3.286a12.497 12.497 0 01-4.15 1.698c-1.504.325-2.935.487-4.294.487h-7.81v17.443h-4.621v-38.822zm4.621 17.118h7.81c2.319 0 4.186-.524 5.635-1.571 1.45-1.047 2.175-2.654 2.175-4.857 0-2.203-.725-3.81-2.175-4.858-1.449-1.047-3.334-1.552-5.635-1.552h-7.81v12.838zm40.716-17.118h4.349l16.562 38.822h-5.4l-3.968-9.534h-19.48l-4.022 9.534h-5.237l17.178-38.822h.018zm2.084 5.923h-.109l-8.081 19.085h15.909l-7.701-19.085h-.018zm28.123-5.923h5.834l22.56 32.249h.109v-32.249h4.621v38.822h-5.835l-22.56-32.249h-.109v32.249h-4.62v-38.822zm56.137 22.101l-14.533-22.101h5.889l10.945 17.551 11.289-17.551h5.563l-14.533 22.101v16.721h-4.62v-16.721zM96.124 267.165a4.53 4.53 0 00-1.522-1.337c-.616-.343-1.377-.505-2.265-.505-.453 0-.906.072-1.377.198a3.664 3.664 0 00-1.269.632 3.49 3.49 0 00-.924 1.066c-.235.433-.344.939-.344 1.535 0 .595.109 1.065.344 1.444.218.379.526.704.888.975s.797.488 1.269.668c.47.181.978.343 1.485.524.635.199 1.287.433 1.921.668.653.235 1.232.56 1.74.939.525.379.942.885 1.268 1.481.326.595.49 1.354.49 2.257 0 .902-.182 1.697-.526 2.365a4.834 4.834 0 01-1.36 1.643 5.458 5.458 0 01-1.92.957 8.194 8.194 0 01-2.174.307 8.719 8.719 0 01-1.667-.162 7.33 7.33 0 01-1.577-.506 6.146 6.146 0 01-1.395-.849 5.95 5.95 0 01-1.142-1.191l1.613-1.192c.399.65.96 1.21 1.667 1.643.725.433 1.558.668 2.537.668.471 0 .942-.072 1.431-.217a4.03 4.03 0 001.305-.668 3.85 3.85 0 00.96-1.119c.254-.433.381-.957.381-1.535 0-.632-.127-1.174-.38-1.589a3.494 3.494 0 00-.997-1.065 5.54 5.54 0 00-1.432-.704c-.543-.181-1.105-.38-1.685-.578a17.938 17.938 0 01-1.794-.65 5.985 5.985 0 01-1.576-.939 4.21 4.21 0 01-1.124-1.445c-.29-.578-.435-1.264-.435-2.094 0-.885.182-1.643.526-2.275a4.856 4.856 0 011.395-1.571 5.576 5.576 0 011.903-.903 7.362 7.362 0 012.047-.289c1.25 0 2.302.217 3.19.65.887.433 1.54.957 1.993 1.571l-1.486 1.192h.018zm12.793 13.723h8.571v1.661h-10.437V264.24h1.866v16.648zm33.939-7.512c0 1.39-.235 2.672-.724 3.846a9.267 9.267 0 01-2.012 3.034 9.302 9.302 0 01-3.044 2.004c-1.16.487-2.428.722-3.805.722-1.377 0-2.628-.235-3.806-.722a9.718 9.718 0 01-3.044-2.004 9.265 9.265 0 01-2.011-3.034c-.489-1.174-.725-2.456-.725-3.846 0-1.39.236-2.672.725-3.846a9.25 9.25 0 012.011-3.033 9.31 9.31 0 013.044-2.005c1.16-.487 2.429-.722 3.806-.722 1.377 0 2.627.235 3.805.722a9.692 9.692 0 013.044 2.005 9.252 9.252 0 012.012 3.033c.489 1.174.724 2.456.724 3.846zm-1.975 0a9.084 9.084 0 00-.525-3.051 7.849 7.849 0 00-1.504-2.546c-.653-.741-1.45-1.319-2.392-1.752-.942-.433-2.011-.65-3.171-.65-1.16 0-2.229.217-3.171.65-.942.433-1.74 1.011-2.392 1.752a7.831 7.831 0 00-1.504 2.546 9.007 9.007 0 00-.526 3.051 9.09 9.09 0 00.526 3.052 7.576 7.576 0 001.504 2.528 7.27 7.27 0 002.392 1.733c.942.433 1.993.65 3.171.65 1.178 0 2.229-.217 3.171-.65a7.28 7.28 0 002.392-1.733 7.592 7.592 0 001.504-2.528 9.012 9.012 0 00.525-3.052zm25.006-5.832a6.771 6.771 0 00-2.283-1.571c-.888-.379-1.902-.56-3.044-.56-1.142 0-2.229.217-3.171.65-.942.434-1.74 1.011-2.392 1.752a8.208 8.208 0 00-1.522 2.546c-.363.957-.526 1.986-.526 3.051 0 1.066.182 2.077.526 3.052.362.957.852 1.805 1.522 2.528a7.27 7.27 0 002.392 1.733c.942.433 2.011.65 3.171.65 1.033 0 1.993-.108 2.863-.343.87-.217 1.558-.506 2.102-.849v-5.561h-4.276v-1.661h6.142v8.27c-.996.614-2.084 1.047-3.243 1.354-1.16.289-2.356.433-3.606.433-1.377 0-2.664-.234-3.842-.722a9.312 9.312 0 01-3.044-2.004c-.852-.849-1.504-1.86-1.993-3.034-.471-1.173-.707-2.455-.707-3.846 0-1.39.236-2.672.725-3.846a9.25 9.25 0 012.011-3.033 9.304 9.304 0 013.045-2.005c1.159-.487 2.428-.722 3.805-.722 1.468 0 2.754.217 3.841.65a8.284 8.284 0 012.809 1.824l-1.305 1.3v-.036zm11.344 14.987h-2.048l7.937-18.31h1.812l7.882 18.31h-2.084l-2.029-4.803h-9.495l-1.994 4.803h.019zm2.7-6.519h8.099l-4.041-9.732-4.04 9.732h-.018zm33.812 3.81h.054v-15.601h1.867v18.31h-2.338l-10.691-15.746h-.054v15.746h-1.867v-18.31h2.338l10.691 15.601zM131.169 64.227l12.158 12.026c4.168 4.135 10.909 4.135 15.076 0l9.985-9.877 2.102-2.221L228.928 5.94c2.192-2.184.634-5.94-2.465-5.94h-20.53a24.954 24.954 0 00-17.595 7.259l-37.473 37.34-12.376-12.332a24.404 24.404 0 00-17.214-7.114H92.101l39.14 39.002-.072.072zm39.393 53.122l-12.14-12.025c-4.186-4.135-10.927-4.135-15.095 0l-9.984 9.877-2.102 2.221-58.438 58.232c-2.192 2.185-.634 5.922 2.464 5.922h20.766a24.419 24.419 0 0017.233-7.114l37.618-37.485 12.213 12.17a24.977 24.977 0 0017.631 7.277h28.92l-39.14-39.002.072-.073h-.018zm-66.048-26.561l-12.286 12.243a24.572 24.572 0 00-7.23 17.388v28.927l39.14-39.002.072.072 12.105-12.152c4.149-4.171 4.149-10.906-.036-15.06L65.664 12.947c-2.175-2.167-5.907-.632-5.907 2.437v20.567c0 6.608 2.573 12.802 7.266 17.478l37.491 37.36zm130.303 37.431l-37.382-37.43 12.412-12.424a23.975 23.975 0 007.013-16.937V32.195l-38.977 39.02-.073-.072-11.923 12.025c-4.113 4.135-4.131 10.798-.054 14.97l11.996 12.278.072-.073 58.311 58.377c2.138 2.131 5.781.632 5.781-2.383V145.5c0-6.537-2.537-12.676-7.158-17.299l-.018.018z"/></g><defs><clipPath id="clip0_214_882"><path fill="#fff" transform="translate(.865)" d="M0 0h300v283H0z"/></clipPath></defs></svg>