<svg width="294" height="297" fill="none" xmlns="http://www.w3.org/2000/svg"><g clip-path="url(#clip0_214_802)" fill="#fff"><path d="M30.473 254.366c-1.368 1.723-2.966 3.054-4.813 3.96-1.829.923-3.907 1.385-6.25 1.385-2.15 0-4.12-.426-5.896-1.243-1.794-.835-3.321-1.953-4.6-3.374a15.69 15.69 0 01-2.983-5.007c-.728-1.936-1.083-4.013-1.083-6.233 0-2.095.355-4.084 1.083-6.019a15.78 15.78 0 013.019-5.061 14.666 14.666 0 014.617-3.48c1.776-.87 3.73-1.297 5.842-1.297 1.83 0 3.605.391 5.292 1.155 1.687.781 3.108 1.935 4.262 3.48l3.925-2.859c-1.616-2.113-3.623-3.64-6.002-4.581a20.252 20.252 0 00-7.477-1.403c-2.84 0-5.451.533-7.813 1.563-2.38 1.047-4.422 2.468-6.144 4.261-1.74 1.794-3.072 3.925-4.031 6.357C.479 238.421 0 241.049 0 243.854c0 2.806.497 5.594 1.474 8.026.994 2.451 2.362 4.564 4.102 6.339a18.614 18.614 0 006.18 4.173c2.361 1.012 4.919 1.527 7.653 1.527 3.055 0 5.807-.55 8.222-1.633 2.433-1.066 4.51-2.753 6.233-5.061l-3.391-2.859zm49.953-18.52c-.995-2.468-2.362-4.581-4.156-6.357-1.776-1.793-3.871-3.178-6.304-4.191-2.433-.994-5.096-1.509-8.009-1.509-2.912 0-5.576.515-8.008 1.509-2.433 1.013-4.529 2.398-6.304 4.191-1.776 1.776-3.162 3.889-4.156 6.357-.994 2.468-1.492 5.132-1.492 8.008 0 2.877.498 5.54 1.492 8.009.995 2.468 2.38 4.581 4.156 6.356a18.962 18.962 0 006.303 4.173c2.433 1.012 5.097 1.527 8.01 1.527 2.912 0 5.575-.515 8.008-1.527a18.963 18.963 0 006.304-4.173c1.794-1.775 3.161-3.888 4.156-6.356.994-2.469 1.491-5.132 1.491-8.009 0-2.876-.497-5.54-1.491-8.008zm-4.475 14.188a15.697 15.697 0 01-3.09 5.043 14.902 14.902 0 01-4.777 3.391c-1.865.817-3.89 1.243-6.127 1.243-2.237 0-4.262-.426-6.126-1.243a14.826 14.826 0 01-4.76-3.391c-1.331-1.439-2.361-3.126-3.107-5.043-.728-1.936-1.1-3.996-1.1-6.18 0-2.184.372-4.261 1.1-6.179.746-1.918 1.776-3.605 3.108-5.043 1.332-1.438 2.912-2.557 4.759-3.392 1.864-.834 3.907-1.243 6.126-1.243 2.22 0 4.262.409 6.127 1.243 1.847.835 3.445 1.954 4.777 3.392a15.675 15.675 0 013.09 5.043c.745 1.918 1.1 3.977 1.1 6.179 0 2.202-.355 4.244-1.1 6.18zm50.13-25.268l-13.052 29.92h-.106l-12.946-29.92h-6.748v38.177h4.528V230.91h.125l13.691 32.033h2.752l13.692-32.033h.106v32.033h4.529v-38.177h-6.571zm43.702 5.469c-.728-1.35-1.722-2.433-2.965-3.232-1.243-.817-2.664-1.385-4.262-1.722-1.598-.355-3.285-.515-5.043-.515h-11.312v38.177h4.528V245.79h7.654c1.332 0 2.735-.16 4.208-.48a12.58 12.58 0 004.067-1.669c1.243-.799 2.255-1.882 3.054-3.232.782-1.367 1.172-3.107 1.172-5.185 0-2.077-.355-3.64-1.101-4.989zm-5.877 9.819c-1.421 1.012-3.268 1.527-5.523 1.527h-7.654v-12.607h7.654c2.255 0 4.102.515 5.523 1.527 1.42 1.03 2.131 2.628 2.131 4.777 0 2.148-.711 3.746-2.131 4.776zm30.987-15.288h-4.262l-16.834 38.177h5.132l3.942-9.376h19.072l3.889 9.376h5.292l-16.231-38.177zm-10.246 24.593l7.92-18.769h.106l7.547 18.769h-15.573zm63.52-24.593v31.696h-.107l-22.108-31.696h-5.718v38.177h4.528v-31.714h.106l22.109 31.714h5.718v-38.177h-4.528zm40.399 0l-11.063 17.259-10.726-17.259h-5.771l14.242 21.734v16.443h4.528V246.5L294 224.766h-5.434zM94.543 289.578a4.45 4.45 0 00-1.243-1.438 6.97 6.97 0 00-1.722-.941c-.622-.231-1.261-.444-1.883-.657-.515-.16-.994-.338-1.456-.515a4.553 4.553 0 01-1.243-.64 2.972 2.972 0 01-.87-.959c-.231-.372-.338-.852-.338-1.42s.107-1.083.338-1.492a3.29 3.29 0 01.905-1.065c.373-.284.8-.48 1.244-.622a4.515 4.515 0 011.35-.195c.87 0 1.615.16 2.219.48a4.628 4.628 0 011.492 1.314l1.456-1.172c-.444-.586-1.084-1.101-1.954-1.527-.87-.444-1.917-.657-3.125-.657-.675 0-1.332.088-2.024.284a5.388 5.388 0 00-1.847.887 4.784 4.784 0 00-1.368 1.545c-.337.64-.515 1.385-.515 2.238 0 .852.142 1.509.427 2.059a4.14 4.14 0 001.1 1.421c.462.373.977.693 1.545.923.587.249 1.172.462 1.758.64.569.195 1.137.372 1.652.568.533.177.995.408 1.403.692.408.284.728.622.977 1.048.248.408.373.941.373 1.563 0 .568-.125 1.083-.373 1.509-.249.426-.55.799-.942 1.101a4.157 4.157 0 01-1.278.657c-.48.142-.941.213-1.403.213-.959 0-1.776-.213-2.486-.657-.693-.426-1.243-.959-1.634-1.598l-1.58 1.154c.32.444.692.835 1.118 1.172a7.36 7.36 0 001.368.852 8.895 8.895 0 001.563.497 7.864 7.864 0 003.747-.142c.71-.213 1.331-.515 1.882-.941a4.92 4.92 0 001.332-1.616c.337-.657.515-1.438.515-2.326 0-.888-.16-1.651-.48-2.237zm11.348 5.327v-16.372h-1.847v18.006h10.228v-1.634h-8.381zm32.55-11.151c-.48-1.154-1.137-2.167-1.971-3.001a9.102 9.102 0 00-2.984-1.971 9.787 9.787 0 00-3.711-.71 9.88 9.88 0 00-3.729.71 9.092 9.092 0 00-2.984 1.971c-.834.834-1.491 1.847-1.971 3.001-.479 1.154-.71 2.415-.71 3.782s.231 2.628.71 3.782a9.392 9.392 0 001.971 3.001 9.092 9.092 0 002.984 1.971 9.812 9.812 0 003.729.71 9.724 9.724 0 003.711-.71 9.102 9.102 0 002.984-1.971 9.392 9.392 0 001.971-3.001c.479-1.154.71-2.415.71-3.782s-.231-2.628-.71-3.782zm-1.723 6.783a7.33 7.33 0 01-1.474 2.503 7.065 7.065 0 01-2.362 1.687c-.923.427-1.953.64-3.107.64-1.154 0-2.202-.213-3.126-.64a6.836 6.836 0 01-2.344-1.687c-.657-.71-1.136-1.544-1.474-2.503-.355-.941-.515-1.936-.515-2.983 0-1.048.16-2.06.515-3.001a7.42 7.42 0 011.474-2.504 6.908 6.908 0 012.344-1.705c.924-.426 1.972-.639 3.126-.639s2.184.213 3.107.639a7.14 7.14 0 012.362 1.705 7.692 7.692 0 011.474 2.504c.338.941.497 1.953.497 3.001a8.754 8.754 0 01-.497 2.983zm20.44-3.427v1.616h4.208v5.469c-.533.337-1.225.621-2.06.852-.852.213-1.793.32-2.805.32-1.155 0-2.185-.213-3.108-.64a6.898 6.898 0 01-2.362-1.687 7.705 7.705 0 01-1.492-2.503 8.789 8.789 0 01-.515-2.983c0-1.048.178-2.06.515-3.001a8.108 8.108 0 011.492-2.504 6.97 6.97 0 012.362-1.705c.923-.426 1.953-.639 3.108-.639 1.154 0 2.113.178 2.983.551.852.355 1.598.87 2.237 1.527l1.261-1.261a8.026 8.026 0 00-2.735-1.793c-1.083-.444-2.326-.657-3.764-.657-1.35 0-2.593.248-3.729.71a9.092 9.092 0 00-2.984 1.971c-.834.834-1.491 1.847-1.971 3.001-.479 1.154-.71 2.415-.71 3.782s.231 2.628.692 3.782c.48 1.154 1.119 2.149 1.954 3.001a9.087 9.087 0 002.983 1.971 9.999 9.999 0 003.765.71 13.77 13.77 0 003.534-.444 11.888 11.888 0 003.178-1.314v-8.132h-6.037zm23.227-8.577h-1.776l-7.796 18.006h2.025l1.953-4.724h9.305l1.989 4.724h2.042l-7.742-18.006zm-4.901 11.595l3.96-9.571 3.977 9.571h-7.937zm33.189-11.595v15.342h-.053l-10.477-15.342h-2.291v18.006h1.829v-15.484h.053l10.478 15.484h2.29v-18.006h-1.829zm-80.585-141.326l-2.007-5.096a27.474 27.474 0 00-15.556-15.555l-5.096-2.007-2.113-.816-11.934-4.688-2.557-1.012-12.182-4.777-10.015-3.924c-1.634-.71-2.45-1.918-2.45-3.605 0-.053 0-.07.017-.106-.018-.036-.018-.071-.018-.107 0-1.705.817-2.912 2.45-3.605l10.016-3.942 12.182-4.776 2.557-.995-4.919-11.275-.195-.462-11.756 4.617-13.94 5.47c-3.392 1.349-5.789 3.249-7.156 5.681-1.385 2.433-2.078 5.576-2.078 9.394 0 3.817.693 6.942 2.078 9.393 1.367 2.433 3.765 4.333 7.156 5.664l13.94 5.469 11.756 4.617.462.178 11.453 4.492 3.943-9.038-3.943 9.038 2.451.959a27.582 27.582 0 0115.556 15.555l.959 2.45 11.738-5.113-.817-2.114.018.036zm90.654 8.861l-5.967-13.726-5.043-11.56-.089.035.089-.035-.195-.462-4.919-11.275-5.186 2.042 5.203-2.042-1.065-2.415a27.56 27.56 0 010-22l1.065-2.416-11.933-4.67-.906 2.06-2.184 5.007a27.498 27.498 0 000 22.037l2.184 5.007.906 2.078 5.132 11.737 5.363-2.113-5.363 2.113 1.083 2.503 5.257 12.004 4.297 9.855c.639 1.634.373 3.072-.834 4.279l-.072.071s-.035.054-.071.072c-1.207 1.207-2.628 1.473-4.279.834l-9.856-4.315-12.004-5.238-2.504-1.101-4.493 11.453-.195.462 11.578 5.043 13.727 5.984c3.338 1.456 6.375 1.811 9.074 1.047 2.699-.745 5.399-2.468 8.098-5.167 2.699-2.699 4.439-5.398 5.185-8.097.746-2.699.391-5.735-1.065-9.091h-.018zM167.528 23.173l-5.469-13.94c-1.332-3.39-3.232-5.788-5.665-7.155C153.943.693 150.818 0 147 0c-3.818 0-6.943.693-9.394 2.078-2.433 1.367-4.333 3.764-5.665 7.156l-5.487 13.939-4.599 11.737.461.195 7.476 3.268-7.476-3.268-.461-.195-.178.462-4.493 11.453-.959 2.45A27.578 27.578 0 01100.67 64.83l-2.469.977 5.132 11.737 2.113-.834 5.079-1.99a27.432 27.432 0 0015.574-15.572l2.006-5.096.817-2.095-3.249-1.42 3.249 1.42 4.671-11.933 1.012-2.54 4.777-12.198 3.924-10.015c.711-1.616 1.9-2.433 3.605-2.433h.213c1.705 0 2.895.817 3.605 2.433l3.925 10.015 4.794 12.199.995 2.539 11.276-4.9.444-.214-4.617-11.737h-.018z"/><path d="M219.808 36.117c-.746-2.698-2.487-5.398-5.186-8.097-2.699-2.716-5.398-4.439-8.097-5.185-2.7-.745-5.736-.39-9.075 1.048l-13.727 5.984-11.578 5.043-.444.213-11.276 4.901-2.433 1.065a27.519 27.519 0 01-21.984 0l-2.433-1.065-4.67 11.932 2.077.906 5.008 2.184a27.46 27.46 0 0022.02 0l5.025-2.184 2.06-.906-.816-2.095.816 2.096 11.738-5.132-4.492-11.453-.107-.249.107.267 4.492 11.435 2.504-1.083 12.005-5.256 9.855-4.297c1.652-.64 3.072-.373 4.28.834.018.018.053.036.071.071.018.018.053.036.071.071 1.208 1.208 1.474 2.628.835 4.28l-4.298 9.855-5.256 12.003-1.083 2.504 11.436 4.492.479.178 5.026-11.56 6.002-13.726c1.438-3.356 1.793-6.375 1.048-9.074z"/><path d="M240.566 86.245c-1.367-2.433-3.764-4.333-7.156-5.682l-13.94-5.47-11.738-4.616-.142.284.124-.284-.462-.178-11.436-4.492-2.468-.977a27.58 27.58 0 01-15.556-15.555l-.959-2.45-11.738 5.132.817 2.095 2.007 5.096a27.433 27.433 0 0015.573 15.573l5.079 1.989 2.113.834 11.934 4.67 2.947-6.747-2.93 6.747 2.54.995 12.182 4.776 10.033 3.942c1.616.693 2.433 1.9 2.433 3.605 0 .035 0 .07-.018.106.018.036.018.054.018.107 0 1.687-.817 2.894-2.433 3.605l-10.033 3.924-12.182 4.776-2.54.995 4.919 11.275.196.462 11.738-4.617 13.94-5.469c3.391-1.332 5.789-3.232 7.156-5.664 1.385-2.451 2.078-5.576 2.078-9.394 0-3.817-.693-6.96-2.078-9.393h-.018zm-77.548 52.169l-5.008-2.201a27.598 27.598 0 00-22.02 0l-5.008 2.201-2.077.906-11.738 5.114-2.504 1.101-12.005 5.238-9.855 4.297c-1.652.657-3.072.391-4.28-.817l-.07-.071-.072-.071c-1.207-1.207-1.474-2.645-.835-4.279l4.316-9.855 5.238-12.021 1.101-2.486-11.454-4.511-.461-.177-5.061 11.56-5.967 13.726c-1.456 3.356-1.811 6.374-1.066 9.091.764 2.699 2.487 5.398 5.186 8.097s5.398 4.422 8.097 5.167c2.7.764 5.736.409 9.075-1.047l13.727-5.984 11.578-5.043.461-.196 11.277-4.918-2.824-7.192 2.824 7.192 2.415-1.048a27.52 27.52 0 0121.984 0l2.433 1.048 4.67-11.915-2.077-.906zM110.277 29.867L96.55 23.883c-3.339-1.438-6.375-1.793-9.075-1.048-2.699.746-5.398 2.469-8.097 5.185-2.7 2.7-4.422 5.399-5.185 8.098-.746 2.698-.391 5.717 1.047 9.073l6.003 13.726 5.043 11.56.195.462L91.4 82.214l5.771-2.255-5.753 2.255 1.047 2.433a27.515 27.515 0 010 21.983l-1.047 2.415 11.915 4.687.906-2.077 2.184-5.008a27.528 27.528 0 00.018-22.018l-2.202-5.007-.906-2.078-5.132-11.755-1.083-2.504-5.239-12.003-4.315-9.855c-.639-1.652-.373-3.072.835-4.28.018-.035.053-.053.071-.07.018-.036.053-.054.071-.072 1.208-1.207 2.628-1.474 4.28-.834l9.855 4.297 12.005 5.256 2.504 1.083 4.51-11.435.178-.48-11.579-5.043-.017.018z"/><path d="M190.684 113.732l-2.113.817-5.096 2.007a27.474 27.474 0 00-15.556 15.555l-2.007 5.096-.817 2.113-4.67 11.915-.995 2.539-4.794 12.199-3.925 10.015c-.71 1.616-1.9 2.45-3.605 2.45h-.213c-1.704 0-2.894-.834-3.604-2.45l-3.925-10.015-4.777-12.199-.994-2.539-11.294 4.918-.444.196 4.599 11.755 5.487 13.921c1.332 3.409 3.232 5.789 5.665 7.174 2.451 1.385 5.576 2.06 9.394 2.06 3.818 0 6.943-.675 9.394-2.06 2.433-1.385 4.333-3.765 5.665-7.174l5.469-13.921 4.617-11.755-.213-.089.213.089.178-.462 4.492-11.453-6.321-2.752 6.321 2.752.959-2.451a27.578 27.578 0 0115.556-15.554l2.469-.959-5.132-11.738h.017z"/></g><defs><clipPath id="clip0_214_802"><path fill="#fff" d="M0 0h294v297H0z"/></clipPath></defs></svg>