<svg width="48" height="50" viewBox="0 0 48 50" fill="none" xmlns="http://www.w3.org/2000/svg">
<path d="M2.83375 14.8638C1.61855 21.0089 5.39591 27.0358 10.549 30.1421C16.2335 33.5795 23.3058 33.7491 29.735 33.0992C34.114 32.6548 38.4229 31.8682 42.6433 30.7073C43.7794 30.3916 43.3102 28.6212 42.1741 28.9369C38.6014 29.8939 34.982 30.6227 31.3295 31.0729C28.1198 31.4801 24.8819 31.6909 21.6512 31.4723C15.8523 31.0779 9.94985 28.9571 6.59736 23.9607C4.92786 21.4373 4.0005 18.3579 4.61303 15.3675C4.71594 14.8828 4.47161 14.386 3.96851 14.2512C3.4973 14.0979 2.93666 14.3791 2.83375 14.8638Z" fill="#3772FF"/>
<path d="M40.9008 37.4116C42.1503 34.8615 43.4501 32.3249 44.7499 29.7883C45.0761 29.1747 44.6525 28.4411 43.958 28.4168C42.9985 28.3754 42.0291 28.1696 41.1321 27.7944C40.116 27.3604 39.1993 26.6564 38.1697 26.2727C37.712 26.0691 37.1428 26.4828 37.0534 26.9172C36.9185 27.4203 37.2586 27.8619 37.6979 28.0335C38.7458 28.4491 39.681 29.185 40.729 29.6006C41.777 30.0162 42.8605 30.1987 43.9525 30.2487C43.6947 29.8022 43.4185 29.3237 43.1607 28.8772C41.8609 31.4138 40.5795 33.9822 39.3116 36.5004C38.7635 37.5398 40.3711 38.4829 40.9008 37.4116Z" fill="#3772FF"/>
</svg>
