<svg width="494" height="318" viewBox="0 0 494 318" fill="none" xmlns="http://www.w3.org/2000/svg">
<g opacity="0.05">
<path d="M157.692 312.919C115.598 312.919 76.0043 297.18 46.205 268.606C16.4099 240.03 0 202.058 0 161.685C0 121.32 16.4099 83.3482 46.205 54.7695L92.6528 10.2283C106.877 -3.40943 129.941 -3.40943 144.166 10.2283C158.39 23.8701 158.39 45.9895 144.166 59.6314L97.7181 104.173C81.6831 119.555 72.8476 139.979 72.8476 161.685C72.8476 183.398 81.6831 203.823 97.7181 219.203C113.757 234.584 135.054 243.055 157.692 243.055C180.326 243.055 201.622 234.584 217.661 219.203L311.098 129.593C325.322 115.951 348.386 115.951 362.611 129.593C376.835 143.235 376.835 165.354 362.611 178.996L269.174 268.606C239.375 297.18 199.786 312.919 157.692 312.919Z" fill="#031C77"/>
<path d="M375.158 317.685C365.791 317.685 356.432 314.273 349.285 307.451C334.996 293.805 334.996 271.678 349.285 258.032L395.943 213.477C429.16 181.753 429.16 130.131 395.939 98.4088C362.722 66.6823 308.673 66.6863 275.452 98.4088L181.596 188.047C167.307 201.694 144.138 201.694 129.849 188.047C115.56 174.4 115.56 152.274 129.849 138.628L223.71 48.9942C285.462 -9.97551 385.938 -9.9796 447.686 48.9942C509.438 107.964 509.438 203.921 447.69 262.895L401.027 307.451C393.885 314.273 384.522 317.685 375.158 317.685Z" fill="#031C77"/>
</g>
</svg>
