<svg width="227" height="227" viewBox="0 0 227 227" fill="none" xmlns="http://www.w3.org/2000/svg">
<path opacity="0.06" d="M143.41 226.001L86.0866 192.905C90.8503 191.876 95.1959 189.425 98.5505 185.877C101.905 182.328 104.111 177.848 104.878 173.027C105.645 168.205 104.937 163.27 102.846 158.87C100.756 154.47 97.3819 150.813 93.1688 148.38C88.9558 145.948 84.1016 144.854 79.2461 145.244C74.3906 145.634 69.7617 147.488 65.9699 150.563C62.178 153.638 59.4012 157.788 58.0053 162.468C56.6093 167.148 56.6599 172.136 58.1504 176.776L0.827291 143.681L32.6973 88.4804C28.2133 89.1598 23.6334 88.5586 19.4838 86.746C15.3341 84.9333 11.7831 81.9826 9.23853 78.233C6.69395 74.4834 5.25898 70.087 5.09871 65.5487C4.93844 61.0104 6.05929 56.5145 8.33241 52.5774C10.6055 48.6402 13.9387 45.4215 17.9491 43.2911C21.9595 41.1608 26.4844 40.2053 31.004 40.5342C35.5235 40.863 39.8544 42.463 43.499 45.1503C47.1437 47.8377 49.9542 51.5034 51.6078 55.7263L83.4777 0.526066L140.801 33.6216C136.037 34.6508 131.692 37.1012 128.337 40.6499C124.982 44.1986 122.776 48.6787 122.009 53.5C121.242 58.3212 121.951 63.2571 124.041 67.6569C126.131 72.0567 129.505 75.7139 133.719 78.1463C137.932 80.5788 142.786 81.6722 147.641 81.2826C152.497 80.8929 157.126 79.0384 160.917 75.9637C164.709 72.8889 167.486 68.7382 168.882 64.0587C170.278 59.3791 170.227 54.3906 168.737 49.7505L226.06 82.846L143.402 226.013" fill="white"/>
</svg>
