<svg width="154" height="300" viewBox="0 0 154 300" fill="none" xmlns="http://www.w3.org/2000/svg">
<g opacity="0.05">
<path d="M8.37857 171.683L27.9555 174.892C31.0485 189.882 36.9677 204.147 45.3967 216.924L33.8034 233.104C31.3979 236.379 31.4393 240.848 33.9053 244.077C36.8284 247.651 39.9347 251.07 43.2107 254.323C46.5158 257.634 49.9227 260.685 53.4315 263.634C56.6633 266.105 61.1381 266.146 64.4151 263.736L80.5852 252.137C93.3493 260.571 107.604 266.494 122.587 269.588L125.79 289.181C126.4 293.188 129.598 296.304 133.621 296.808C136.407 297.123 139.214 297.316 142.082 297.459C143.475 297.527 144.835 297.024 145.848 296.066C146.862 295.109 147.441 293.779 147.452 292.384V251.634C147.437 248.887 145.255 246.642 142.509 246.549C91.1239 243.885 50.8258 201.444 50.8258 149.989C50.8258 98.5349 91.1239 56.0935 142.509 53.4297C145.255 53.3367 147.437 51.0921 147.452 48.3446V7.6297C147.445 6.23602 146.87 4.90533 145.859 3.9452C144.848 2.98508 143.489 2.47967 142.097 2.54463C139.239 2.66323 136.414 2.86353 133.62 3.14453C129.597 3.69275 126.412 6.82016 125.79 10.8329L122.586 30.4251C107.604 33.524 93.3497 39.4481 80.5847 47.8816L64.4146 36.2779C61.1376 33.867 56.6628 33.9083 53.431 36.3798C49.8676 39.3069 46.4563 42.4146 43.2102 45.6902C39.9096 48.9194 36.8024 52.3407 33.9048 55.9361C31.4284 59.1698 31.3871 63.6505 33.8029 66.9295L45.3962 83.1099C36.9692 95.8818 31.05 110.141 27.955 125.126L8.37807 128.33C4.36928 128.942 1.25466 132.142 0.750727 136.166C-0.250242 145.292 -0.250242 154.499 0.750727 163.624C1.20298 167.715 4.31859 171.007 8.37857 171.683Z" fill="white"/>
<path d="M142.592 73.8868C102.42 76.4316 71.1406 109.755 71.1406 150.008C71.1406 190.26 102.421 223.584 142.592 226.129C143.87 226.182 145.114 225.708 146.033 224.818C146.952 223.927 147.465 222.699 147.453 221.42V78.5954C147.466 77.3159 146.953 76.0881 146.033 75.1979C145.114 74.3076 143.87 73.8337 142.592 73.8868Z" fill="white"/>
</g>
</svg>
