<svg width="181" height="181" fill="none" xmlns="http://www.w3.org/2000/svg"><g clip-path="url(#clip0_803_4022)" fill="#FDB604"><path d="M31.822 131.438h10.683c3.1-25.616 17.217-40.825 42.689-45.901v-5.714c0-3.3-.021-6.599.007-9.898.028-3.257 2.322-5.615 5.36-5.58 2.958.036 5.21 2.365 5.238 5.523.035 4.652.007 9.31.014 13.963v1.883c23.964 2.995 41.691 22.968 42.541 45.703h10.824V105.73c0-3.604 2.11-6.011 5.26-6.04 3.157-.028 5.345 2.386 5.345 5.955.007 10.188.014 20.384 0 30.572 0 3.76-2.152 5.884-5.94 5.891-5.415.014-10.831 0-16.36 0-.305 1.183-.581 2.315-.878 3.434-5.834 21.538-25.125 35.883-47.659 35.43-21.309-.425-40.176-16.023-44.975-37.264-.312-1.366-.836-1.642-2.089-1.628-4.948.064-9.897.035-14.845.021-3.653-.014-5.813-2.174-5.82-5.834-.014-10.252-.014-20.504 0-30.75 0-3.434 2.195-5.827 5.289-5.834 3.093-.007 5.31 2.379 5.316 5.806.014 7.951 0 15.909 0 23.861v2.088zm58.604-35.274c-20.424.036-37.047 16.703-37.04 37.136.007 20.42 16.672 37.08 37.09 37.087 20.501.007 37.181-16.724 37.131-37.235-.05-20.42-16.743-37.03-37.181-36.995v.007zm-.113-43.126H70.001c-3.901 0-6.01-2.11-6.018-5.99-.007-13.721-.007-27.436 0-41.157 0-3.76 2.152-5.884 5.94-5.884C83.644 0 97.364 0 111.076.007c3.781 0 5.926 2.131 5.926 5.898.007 13.721.007 27.436 0 41.157 0 3.873-2.124 5.97-6.032 5.976-6.888.007-13.776 0-20.665 0h.007zm5.486-42.375c0 1.77.028 3.405 0 5.041-.057 3.158-2.287 5.487-5.246 5.515-3.03.036-5.31-2.329-5.352-5.586-.021-1.628 0-3.257 0-4.885H74.688v31.57h31.589V10.657h-10.47l-.008.007z"/><path d="M0 62.54V42.05c0-3.887 2.117-5.983 6.018-5.99h40.975c3.908 0 6.032 2.096 6.032 5.968.007 13.722.007 27.437 0 41.158 0 3.767-2.152 5.898-5.925 5.898-13.72.007-27.44.007-41.153 0-3.788 0-5.933-2.131-5.94-5.884-.014-6.889 0-13.778 0-20.667L0 62.54zm10.74-15.824v31.677h31.574V46.8H31.822c0 1.6.007 3.065 0 4.531-.021 3.554-2.209 5.969-5.36 5.933-3.086-.035-5.224-2.421-5.245-5.87-.007-1.557 0-3.122 0-4.68H10.74zm143.748 42.382H134c-3.908 0-6.025-2.103-6.032-5.976-.007-13.721-.007-27.436 0-41.157 0-3.767 2.145-5.891 5.925-5.898 13.72-.007 27.44-.007 41.153 0 3.788 0 5.94 2.124 5.94 5.883.014 13.779.014 27.557 0 41.335 0 3.647-2.174 5.799-5.841 5.813-6.888.014-13.776 0-20.665 0h.008zm-15.823-10.74h31.631V46.785h-10.513c0 1.629.007 3.151 0 4.673-.028 3.427-2.216 5.813-5.31 5.813-3.093 0-5.274-2.393-5.302-5.82-.014-1.564 0-3.13 0-4.694h-10.513V78.35l.007.007zm-44.848 31.45c2.258 1.253 4.417 2.209 6.265 3.575.842.623 1.536 2.11 1.465 3.144-.07 1.02-1.019 2.195-1.904 2.889-1.104.857-2.47.503-3.618-.312-.644-.453-1.288-.913-2.25-1.6 0 3.866-.072 7.321.077 10.762.021.496 1.005 1.133 1.67 1.381 4.17 1.565 7.158 4.262 8.425 8.609 1.876 6.429-1.642 13.828-8.02 16.434-1.735.708-2.301 1.494-2.21 3.278.1 1.827-1.012 3.122-2.64 3.49-1.536.347-2.853-.148-3.681-1.465-.418-.659-.531-1.529-.687-2.322-.1-.503-.021-1.048-.021-1.14-3.002-1.374-5.791-2.535-8.467-3.916-1.452-.75-1.89-2.216-1.515-3.809.36-1.543 1.437-2.513 2.98-2.577.928-.036 1.904.425 2.804.793 1.316.538 2.59 1.196 4.198 1.947 0-5.14.021-9.785-.036-14.423 0-.396-.446-.899-.82-1.154-.772-.524-1.65-.899-2.464-1.366-4.241-2.422-6.131-6.096-5.558-10.911.56-4.694 3.03-8.107 7.476-9.877 1.04-.411 1.444-.864 1.437-2.004-.014-2.605 1.38-4.191 3.49-4.227 2.145-.028 3.455 1.487 3.561 4.135.014.347.05.694.05.666h-.007zm.085 26.912v10.974c2.499-1.508 3.71-3.979 3.37-6.74-.248-2.018-1.353-3.363-3.37-4.234zm-7.335-11.215v-6.663c-2.357 2.032-2.392 5.098 0 6.663z"/></g><defs><clipPath id="clip0_803_4022"><path fill="#fff" d="M0 0h181v181H0z"/></clipPath></defs></svg>