<svg width="211" height="821" fill="none" xmlns="http://www.w3.org/2000/svg"><path d="M-33.843 862.223c-33.922 21.632-52.53-60.229-48.081-80.373 5.574-25.24 47.094-59.756 66.608-74.516 32.921-24.9 63.291-47.863 101.562-64.446 23.37-10.127 66.618-21.683 92.052-11.748 13.169 5.144 39.389 18.496 28.793 36.205-30.363 50.745-106.422 29.978-133.255-12.102-18.516-29.036-22.622-63.343-9.286-95.596 19.115-46.229 40.901-88.779 54.371-137.457 28.072-101.446-93.283-100.966-161.146-97.102-109.257 6.22 10.038-103.826 31.738-133.177 24.472-33.099 47.088-83.21 33.061-125.137C13.492 39.626-3.198 24.369-17.943 1.246" stroke="#fff" stroke-opacity=".11"/></svg>