<svg width="208" height="867" fill="none" xmlns="http://www.w3.org/2000/svg"><path d="M244.561 862.223c33.923 21.632 52.531-60.229 48.082-80.373-5.575-25.24-47.094-59.756-66.609-74.516-32.921-24.9-63.29-47.863-101.561-64.446-23.371-10.127-66.619-21.683-92.052-11.748-13.169 5.144-39.39 18.496-28.794 36.205 30.364 50.745 106.423 29.978 133.256-12.102 18.516-29.036 22.622-63.343 9.286-95.596-19.116-46.229-40.901-88.779-54.371-137.457-28.073-101.446 93.283-100.966 161.146-97.102 109.257 6.22-10.038-103.826-31.739-133.177-24.471-33.099-47.088-83.21-33.061-125.137 9.083-27.148 25.773-42.405 40.518-65.528" stroke="#fff" stroke-opacity=".21"/></svg>