<svg width="134" height="771" fill="none" xmlns="http://www.w3.org/2000/svg"><path d="M-63.482.742c-3.189 19.531-3.255 41.188 11.733 56.405C-37.716 71.397-14.282 74.037.736 87.82c28.105 25.793 2.822 82.854-5.043 111.622-6.95 25.416-6.742 36.627 19.135 47.726 14.358 6.159 30.846 5.461 45.776 9.657 19.859 5.58 52.676 13.87 64.701 32.712 12.305 19.28 6.308 50.62 1.663 71.198-7.276 32.235-22.699 62.599-36.441 92.351-17.865 38.679-36.27 77.02-57.622 113.927C-4.897 632.351 132.284 720.51 85 779.5 40.5 827-9.593 849.508-21 852" stroke="#fff" stroke-opacity=".17"/></svg>