<svg width="165" height="50" fill="none" xmlns="http://www.w3.org/2000/svg"><g id="g11"><path id="path23" d="M36.831 13.064C36.831 6.368 31.461.94 24.835.94c-6.628 0-12 5.428-12 12.124h23.996z" fill="#E3E3E3"/><path id="path25" d="M12.467 37.292c0 6.698 5.37 12.125 11.998 12.125 6.625 0 11.997-5.427 11.997-12.125H12.467z" fill="#E3E3E3"/><path id="path27" d="M36.453 37.228c6.626 0 12.735-5.428 12.735-12.124 0-6.697-6.11-12.124-12.735-12.124H12.846C6.22 12.98.85 18.407.85 25.104c0 6.696 5.371 12.124 11.997 12.124h23.607z" fill="#E3E3E3"/><path id="path29" d="M12.836 12.99c0 6.695 5.371 12.124 11.999 12.124 6.627 0 11.996-5.43 11.996-12.124H12.836z" fill="#F8F8F8"/><path id="path31" d="M36.462 37.218c0-6.696-5.372-12.125-11.997-12.125-6.627 0-11.998 5.43-11.998 12.125h23.995z" fill="#F8F8F8"/><path id="path33" d="M60.367 37.362V13.114l7.9-.01 4.642 11.59 5.168-11.554h7.617v24.222h-5.532V21.465l-7.5 16.028-6.888-16.773v16.642h-5.407z" fill="#E3E3E3"/><path id="path35" d="M88.028 37.362V13.177h14.262v4.101h-8.728v5.591h8.356v4.473h-8.356v5.592h8.608v4.428H88.028z" fill="#E3E3E3"/><path id="path37" d="M104.479 37.35V13.16s9.375-.084 10.968 0c2.335.125 6.452 2.796 6.452 6.896 0 3.853-2.15 6.772-4.238 6.772l7.053 10.53h-6.143l-9.025-13.385 3.567-.128c1.966-.121 3.196-1.738 3.196-3.23s-1.107-3.453-3.196-3.453h-3.199V37.35h-5.435z" fill="#E3E3E3"/><path id="path39" d="M141.636 20.26c-1.506-1.168-1.722-2.238-6.022-2.238-4.304 0-7.747 3.231-7.747 7.828 0 4.599 4.241 8.014 7.561 8.014 3.318 0 4.981-1.18 6.208-2.421v5.59c-3.269 1.52-4.669 1.296-6.147 1.243-3.441-.126-13.127-2.233-13.156-12.922-.022-8.198 8.36-12.548 13.281-12.426 4.054.103 5.78 1.367 6.147 1.74l-.125 5.591z" fill="#E3E3E3"/><path id="path41" d="M144.1 13.143h5.408v24.23H144.1v-24.23z" fill="#E3E3E3"/><path id="path43" d="M157.317 13.202h6.391l-7.93 11.123 8.432 12.999h-6.388l-8.686-13.122 8.181-11z" fill="#E3E3E3"/></g></svg>