<svg width="161" height="17" fill="none" xmlns="http://www.w3.org/2000/svg"><g id="Group" fill="#E3E3E3"><path id="Vector" d="M.196.634C.196.84 2.48 2.5 5.28 4.369c2.905 1.763 7.262 5.394 9.96 7.884l4.668 4.669 4.15-4.15c2.282-2.283 6.64-5.81 9.855-7.885 3.113-2.075 5.602-4.046 5.395-4.15-.208-.207-3.839.727-8.092 2.18-7.159 2.489-7.78 2.489-8.922.83-.726-.935-1.349-2.283-1.349-2.802-.104-.622-1.141.104-2.386 1.66l-2.282 2.801-7.781-2.594C.3.115.196.115.196.634z"/><path id="Vector_2" d="M47.92 8.622v8.3h9.336V.322H47.92v8.3z"/><path id="Vector_3" d="M62.442 8.622v8.3h12.45c14.005 0 18.985-1.349 20.956-5.602.83-2.075.83-3.32 0-5.395C93.877 1.671 88.897.323 74.89.323H62.442v8.3zM85.37 5.614c2.593 1.348 2.49 4.668 0 6.12-1.142.52-4.669 1.038-7.781 1.038h-5.81V3.124l5.81.726c3.216.311 6.743 1.141 7.78 1.764z"/><path id="Vector_4" d="M101.866 2.398c0 1.037.726 2.386 1.66 2.905 1.349.726 1.038 1.452-2.075 4.564-6.64 6.64-6.017 7.055 12.865 7.055h16.599v-4.669c0-4.253-.208-4.668-2.594-4.668-1.66 0-2.594.622-2.594 1.556 0 .83-.207 1.556-.518 1.556-1.141 0-11.931-5.706-11.931-6.328 0-.415 2.697-.623 5.914-.623 4.876.104 6.12-.207 6.328-1.66.311-1.556-.934-1.763-11.619-1.763-11.205 0-12.035.104-12.035 2.075zm12.45 8.818c2.593 1.452 2.489 1.452-1.972 1.556-3.838 0-4.357-.207-3.216-1.556 1.557-1.867 1.868-1.867 5.188 0z"/><path id="Vector_5" d="M129.461 2.087c.415 1.556 1.453 1.763 5.602 1.556l5.084-.415.311 6.64.311 6.535h9.337l.104-4.46c.311-9.13-.104-8.508 5.602-7.989 4.565.311 5.187.208 5.187-1.66 0-1.867-.83-1.971-15.976-1.971-14.732 0-15.977.104-15.562 1.764z"/></g></svg>