<svg width="20" height="20" viewBox="0 0 20 20" fill="none" xmlns="http://www.w3.org/2000/svg">
<path d="M17.5083 4.2221H15.5687C15.5428 4.21311 15.5158 4.20727 15.4885 4.20458H13.4234V2.49185C13.4235 2.36314 13.373 2.23956 13.2831 2.14763C13.193 2.05571 13.0706 2.00269 12.942 2H8.05809C7.92762 2 7.80253 2.05174 7.71038 2.14401C7.61811 2.23628 7.56625 2.36137 7.56625 2.49185V4.20458H5.51163C5.4843 4.20726 5.45732 4.2131 5.43139 4.2221H3.49184C3.31606 4.2221 3.15369 4.31577 3.06587 4.46796C2.97804 4.62015 2.97804 4.8076 3.06587 4.95979C3.15371 5.11198 3.31606 5.20577 3.49184 5.20577H5.07202L6.34886 17.0837C6.36252 17.2046 6.42022 17.3162 6.51098 17.3973C6.60161 17.4784 6.71899 17.5231 6.84069 17.5233H14.1663C14.2867 17.5215 14.4024 17.4758 14.4917 17.395C14.581 17.3141 14.6376 17.2035 14.6511 17.0837L15.9279 5.22311H17.5082C17.684 5.22311 17.8463 5.12944 17.9341 4.97725C18.0219 4.82505 18.022 4.63749 17.9341 4.48541C17.8463 4.33322 17.6839 4.23943 17.5082 4.23943L17.5083 4.2221ZM8.56054 2.98368H12.4395V4.20458H8.56054V2.98368ZM13.7199 16.5325H7.2802L6.0593 5.22323H14.9406L13.7199 16.5325Z" fill="#E41D1D"/>
<path d="M10.4918 15.3815C10.6223 15.3815 10.7474 15.3296 10.8397 15.2375C10.9319 15.1452 10.9837 15.0201 10.9837 14.8896V6.86644C10.9837 6.69065 10.89 6.52829 10.7378 6.44047C10.5856 6.35252 10.3981 6.35252 10.2459 6.44047C10.0937 6.52831 10 6.69066 10 6.86644V14.8896C10 15.0201 10.0517 15.1452 10.144 15.2375C10.2363 15.3296 10.3614 15.3815 10.4918 15.3815H10.4918Z" fill="#E41D1D"/>
<path d="M8.56214 15.3781H8.58304C8.71292 15.3727 8.83533 15.316 8.92364 15.2206C9.01182 15.1252 9.05877 14.9987 9.05399 14.8688L8.75743 6.8456L8.75755 6.84548C8.75486 6.71409 8.69868 6.58934 8.60186 6.50034C8.50492 6.41146 8.37597 6.36602 8.2447 6.37455C8.11482 6.38004 7.99241 6.43669 7.90422 6.53211C7.81592 6.62754 7.76909 6.75403 7.77376 6.88392L8.07031 14.9071C8.0765 15.0336 8.13093 15.153 8.2225 15.2406C8.31395 15.3281 8.43554 15.3773 8.56214 15.378L8.56214 15.3781Z" fill="#E41D1D"/>
<path d="M12.4204 15.3778H12.4378C12.5674 15.3807 12.693 15.3326 12.7876 15.244C12.8821 15.1552 12.9382 15.0329 12.9436 14.9034L13.2402 6.88015H13.2401C13.2449 6.75027 13.1979 6.62378 13.1097 6.52834C13.0214 6.43292 12.899 6.37627 12.7691 6.37078C12.6363 6.35712 12.5039 6.39998 12.4043 6.48898C12.3046 6.57787 12.2472 6.70471 12.2459 6.83834L11.9458 14.8615H11.9459C11.9393 14.9932 11.9858 15.122 12.075 15.2191C12.1641 15.3161 12.2886 15.3734 12.4204 15.3778L12.4204 15.3778Z" fill="#E41D1D"/>
</svg>
