<svg width="68" height="68" viewBox="0 0 68 68" fill="none" xmlns="http://www.w3.org/2000/svg">
<path d="M33.9959 14.1343C38.1213 14.1343 42.2659 15.6975 45.4122 18.8442C47.962 21.394 49.4446 24.5996 49.9283 27.9155C56.3318 28.7354 61.2871 34.1849 61.2871 40.8061C61.2871 47.9927 55.4478 53.8318 48.2614 53.8318H17.868C11.6934 53.8318 6.70312 48.8414 6.70312 42.6669C6.70312 36.4923 11.6935 31.502 17.868 31.502H17.9844C17.6344 26.9673 19.1327 22.3096 22.5975 18.8451C25.7434 15.6992 29.8693 14.1352 33.995 14.1352L33.9959 14.1343ZM33.9959 15.3747C30.1845 15.3747 26.3995 16.8069 23.4898 19.7165C20.1263 23.08 18.7006 27.6651 19.2254 32.0444C19.2479 32.2218 19.1925 32.4005 19.0736 32.5342C18.955 32.6679 18.7841 32.7436 18.6054 32.7423H17.869C12.3603 32.7423 7.94443 37.1576 7.94443 42.6669C7.94443 48.1756 12.3598 52.5915 17.869 52.5915H48.2623C54.7783 52.5915 60.0475 47.3225 60.0475 40.8063C60.0475 34.6542 55.3526 29.6048 49.3476 29.0599H49.348C49.056 29.0348 48.8215 28.8081 48.7856 28.5173C48.4122 25.3009 46.9904 22.1866 44.5212 19.7173C41.6123 16.8085 37.8075 15.3755 33.9962 15.3755L33.9959 15.3747ZM34.0543 29.0207C34.2005 29.0332 34.3277 29.0994 34.4225 29.1756L41.2457 35.3783C41.4867 35.6011 41.5088 36.0303 41.2842 36.27C41.0601 36.5093 40.6304 36.5149 40.3925 36.2891L34.6164 31.0365V45.7679C34.6164 46.1106 34.3386 46.3884 33.996 46.3884C33.6533 46.3884 33.3755 46.1106 33.3755 45.7679V31.0365L27.5994 36.2895C27.3615 36.5149 26.9319 36.5097 26.7077 36.2705C26.4836 36.0312 26.4914 35.6353 26.7462 35.3787L33.5694 29.176C33.7421 29.0493 33.9078 29.0082 34.054 29.0211L34.0543 29.0207Z" fill="#031C77"/>
</svg>
