<svg width="86" height="101" viewBox="0 0 86 101" fill="none" xmlns="http://www.w3.org/2000/svg">
<g clip-path="url(#clip0_2680_28476)">
<path d="M57.8914 45.3795C57.8625 44.8845 57.83 44.3931 57.7939 43.927C57.6566 42.1817 56.3854 41.2314 55.0528 41.0905C49.5308 35.3959 41.8167 35.8295 34.4638 39.6163C24.6658 44.6641 21.9861 57.4156 25.8973 66.9403C29.7472 76.3205 40.643 78.5355 48.888 73.7406C52.2467 71.7858 54.4244 68.5338 55.8148 64.7579C57.7758 68.9421 60.5928 72.4507 64.5834 74.2609C75.9018 79.3991 81.0518 58.3333 82.146 51.5945C86.9276 22.1855 58.3356 -1.52882 30.6067 9.60026C9.14372 18.2145 0.230608 45.6722 6.35928 66.6404C13.4125 90.7739 49.2925 103.991 68.6861 86.2283C70.8024 84.2879 68.0035 80.5915 65.6055 82.232C48.8266 93.6935 23.8713 87.4532 14.1962 69.8454C6.30872 55.4969 10.8881 36.1077 20.9063 24.1114C34.5324 7.78998 60.535 9.80984 71.8642 27.6453C78.874 38.684 77.2561 53.1012 71.9689 64.3676C65.3996 78.3729 58.7618 53.1157 57.8986 45.3831L57.8914 45.3795ZM33.5284 67.8184C21.076 57.3794 40.2132 33.8963 51.8638 45.3036C51.8711 45.9613 51.8927 46.637 51.9288 47.3307C51.6977 58.3225 47.5048 79.54 33.532 67.8184H33.5284Z" fill="white"/>
<path d="M85.0679 28.231C84.6706 27.3276 84.3022 26.4352 83.8327 25.568C83.7172 25.3512 83.4319 25.5101 83.468 25.7197C83.6269 26.7134 83.9591 27.6131 84.3311 28.5417C84.6706 29.3945 84.9306 30.4676 85.7215 30.9952C85.8443 31.0747 85.9888 30.9663 85.996 30.8362C86.0574 29.9184 85.429 29.044 85.0679 28.231Z" fill="#2D2D2D"/>
<path d="M50.0692 98.6948C35.0636 100.256 22.8568 96.5882 11.3723 86.7888C11.3001 86.7274 11.1845 86.8033 11.2351 86.8936C17.2915 97.665 39.1301 104.534 50.1776 99.0995C50.3654 99.0092 50.2823 98.6731 50.0692 98.6948Z" fill="#2D2D2D"/>
<path d="M58.5688 94.409C56.3513 95.3701 54.0978 96.4939 52.1801 97.9754C52.1187 98.0223 52.1259 98.1488 52.2234 98.138C54.7803 97.8742 57.2397 96.8335 58.8432 94.7667C59.0021 94.5571 58.8107 94.3078 58.5688 94.409Z" fill="#2D2D2D"/>
<path d="M65.0562 5.86792C72.5825 9.72335 77.2666 16.3177 81.7917 23.1975C81.9254 23.3998 82.2973 23.2734 82.2034 23.0204C76.4937 7.62761 58.505 -2.48612 42.2822 0.534632C42.1053 0.570765 42.1703 0.809245 42.3219 0.823699C50.3611 1.75594 57.6851 2.09559 65.0562 5.86792Z" fill="#2D2D2D"/>
<path d="M13.4323 13.5425C4.54086 17.6761 -1.60225 34.2288 0.369614 43.3814C0.416564 43.5946 0.709093 43.5259 0.72715 43.3344C1.89727 31.5947 6.00712 22.6372 13.5118 13.6545C13.5623 13.593 13.5009 13.5099 13.4287 13.5425H13.4323Z" fill="#2D2D2D"/>
<path d="M84.3592 61.7664C82.6799 63.9669 81.9359 66.7492 80.7694 69.228C79.4873 71.9633 77.7141 74.0951 75.8 76.3968C75.6845 76.5341 75.8253 76.722 75.9914 76.6425C80.8525 74.3336 84.3267 67.0238 84.7168 61.8604C84.7312 61.6508 84.464 61.6291 84.3592 61.7664Z" fill="#2D2D2D"/>
</g>
<defs>
<clipPath id="clip0_2680_28476">
<rect width="86" height="101" fill="white"/>
</clipPath>
</defs>
</svg>
