<svg width="199" height="104" viewBox="0 0 199 104" fill="none" xmlns="http://www.w3.org/2000/svg">
<path d="M23.9773 34.4301C22.0574 33.8921 21.3926 32.4351 21.5494 30.3803C21.7063 28.3256 22.924 27.1002 24.799 26.8984" stroke="#1A1D22" stroke-width="1.99589" stroke-miterlimit="10" stroke-linecap="round" stroke-linejoin="round"/>
<path d="M68.4961 102.148C78.6556 85.4708 86.223 66.141 85.4909 61.8073C84.4973 55.912 83.1826 54.3579 83.2274 54.1711C83.7578 51.4364 82.2563 49.1051 81.8753 45.3468C81.3449 40.0866 76.6237 32.6296 75.548 30.0742C74.3005 27.1079 76.7432 23.5588 79.4475 26.54C83.2423 30.7168 86.0885 35.7902 87.7693 40.4452C87.6647 38.9733 87.5078 37.5461 87.2688 36.2535C85.9764 29.1552 82.8091 21.6833 81.569 19.2027C80.3439 16.7519 83.3395 12.9786 86.4023 16.5053C87.8814 18.2089 91.9377 27.1677 93.499 32.4428C94.2385 34.931 94.8959 37.4191 95.4786 39.7728C95.4935 37.2622 95.3516 34.7068 94.9333 32.4653C93.3272 23.7979 92.0273 20.0171 90.6976 17.3347C89.4202 14.7569 92.9088 10.4755 96.0538 14.7942C97.4956 16.7743 100.043 21.4965 102.105 27.8775C103.352 31.7405 104.271 35.6483 104.936 39.1451C105.093 37.195 105.115 35.2149 104.891 33.3768C103.912 25.4193 103.322 22.8788 101.798 20.6223C100.282 18.3807 103.89 15.3472 106.848 18.6647C108.35 20.3533 110.255 24.2761 111.756 30.2162C112.608 33.5786 113.108 36.8662 113.392 39.8251L115.23 38.9882C115.23 38.9882 116.179 45.1525 115.775 48.3505C115.409 51.272 116.702 44.8387 114.423 47.7079C111.928 50.861 105.504 54.8809 105.504 54.8809C105.504 75.1148 98.9896 102.141 98.9896 102.141" fill="white"/>
<path d="M68.4961 102.148C78.6556 85.4708 86.223 66.141 85.4909 61.8073C84.4973 55.912 83.1826 54.3579 83.2274 54.1711C83.7578 51.4364 82.2563 49.1051 81.8753 45.3468C81.3449 40.0866 76.6237 32.6296 75.548 30.0742C74.3005 27.1079 76.7432 23.5588 79.4475 26.54C83.2423 30.7168 86.0885 35.7902 87.7693 40.4452C87.6647 38.9733 87.5078 37.5461 87.2688 36.2535C85.9764 29.1552 82.8091 21.6833 81.569 19.2027C80.3439 16.7519 83.3395 12.9786 86.4023 16.5053C87.8814 18.2089 91.9377 27.1677 93.499 32.4428C94.2385 34.931 94.8959 37.4191 95.4786 39.7728C95.4935 37.2622 95.3516 34.7068 94.9333 32.4653C93.3272 23.7979 92.0273 20.0171 90.6976 17.3347C89.4202 14.7569 92.9088 10.4755 96.0538 14.7942C97.4956 16.7743 100.043 21.4965 102.105 27.8775C103.352 31.7405 104.271 35.6483 104.936 39.1451C105.093 37.195 105.115 35.2149 104.891 33.3768C103.912 25.4193 103.322 22.8788 101.798 20.6223C100.282 18.3807 103.89 15.3472 106.848 18.6647C108.35 20.3533 110.255 24.2761 111.756 30.2162C112.608 33.5786 113.108 36.8662 113.392 39.8251L115.23 38.9882C115.23 38.9882 116.179 45.1525 115.775 48.3505C115.409 51.272 116.702 44.8387 114.423 47.7079C111.928 50.861 105.504 54.8809 105.504 54.8809C105.504 75.1148 98.9896 102.141 98.9896 102.141" stroke="#1A1D22" stroke-width="1.99589" stroke-miterlimit="10" stroke-linecap="round" stroke-linejoin="round"/>
<path d="M158.473 66.7314L79.8789 34.8116L82.0752 21.7582L166.877 3.08594L158.473 66.7314Z" fill="white"/>
<path d="M158.473 66.7314L79.8789 34.8116L82.0752 21.7582L166.877 3.08594L158.473 66.7314Z" stroke="#1A1D22" stroke-width="1.99589" stroke-miterlimit="10"/>
<path d="M195.403 38.695C197.37 20.3911 187.406 4.30984 173.146 2.77645C158.887 1.24307 145.733 14.8382 143.766 33.1421C141.798 51.446 151.762 67.5272 166.022 69.0606C180.281 70.594 193.435 56.9988 195.403 38.695Z" fill="white"/>
<path d="M195.403 38.695C197.37 20.3911 187.406 4.30984 173.146 2.77645C158.887 1.24307 145.733 14.8382 143.766 33.1421C141.798 51.446 151.762 67.5272 166.022 69.0606C180.281 70.594 193.435 56.9988 195.403 38.695Z" stroke="#1A1D22" stroke-width="1.99589" stroke-miterlimit="10" stroke-linecap="round" stroke-linejoin="round"/>
<path d="M192.321 38.164C193.978 22.7487 185.584 9.20507 173.573 7.91343C161.562 6.62179 150.481 18.0713 148.824 33.4866C147.167 48.9019 155.561 62.4455 167.572 63.7372C179.584 65.0288 190.664 53.5793 192.321 38.164Z" fill="#EB5B31"/>
<path d="M192.321 38.164C193.978 22.7487 185.584 9.20507 173.573 7.91343C161.562 6.62179 150.481 18.0713 148.824 33.4866C147.167 48.9019 155.561 62.4455 167.572 63.7372C179.584 65.0288 190.664 53.5793 192.321 38.164Z" stroke="#1A1D22" stroke-width="1.99589" stroke-miterlimit="10"/>
<path d="M161.117 14.2641C161.416 14.0101 161.715 13.7635 162.021 13.5244L161.117 14.2641Z" fill="white"/>
<path d="M161.117 14.2641C161.416 14.0101 161.715 13.7635 162.021 13.5244" stroke="#1A1D22" stroke-width="1.99589" stroke-miterlimit="10" stroke-linecap="round" stroke-linejoin="round"/>
<path d="M155.367 20.7637C156.518 19.0526 157.788 17.491 159.155 16.0938L155.367 20.7637Z" fill="white"/>
<path d="M155.367 20.7637C156.518 19.0526 157.788 17.491 159.155 16.0938" stroke="#1A1D22" stroke-width="1.99589" stroke-miterlimit="10" stroke-linecap="round" stroke-linejoin="round"/>
<path d="M106.652 29.1537C107.06 25.3665 104.998 22.0393 102.049 21.7221C99.0995 21.405 96.3785 24.2179 95.9715 28.0051C95.5644 31.7922 97.6254 35.1194 100.575 35.4366C103.524 35.7538 106.245 32.9408 106.652 29.1537Z" fill="#735A13"/>
<path d="M27.1731 23.6926L104.759 6.70898L96.5865 70.2798L25.6641 37.6351" fill="white"/>
<path d="M27.1731 23.6926L104.759 6.70898L96.5865 70.2798L25.6641 37.6351" stroke="#1A1D22" stroke-width="1.99589" stroke-miterlimit="10" stroke-linecap="round" stroke-linejoin="round"/>
<path d="M127.509 44.8161C129.899 42.044 135.98 40.3778 139.932 41.3566C139.088 35.8573 139.521 31.292 139.521 31.292C137.228 30.4551 130.355 30.5298 127.277 34.744" fill="white"/>
<path d="M127.509 44.9506C129.9 42.1785 135.906 40.5945 139.873 41.3566C140.679 40.6692 141.15 31.7328 139.529 31.292C137.236 30.4551 130.363 30.5298 127.285 34.744" stroke="#1A1D22" stroke-width="1.99589" stroke-miterlimit="10" stroke-linecap="round" stroke-linejoin="round"/>
<path d="M137.375 37.5393C137.976 37.5008 138.424 36.8487 138.375 36.0827C138.326 35.3167 137.799 34.7269 137.198 34.7653C136.597 34.8038 136.149 35.4559 136.198 36.222C136.247 36.988 136.774 37.5778 137.375 37.5393Z" fill="white" stroke="#1A1D22" stroke-width="1.99589" stroke-miterlimit="10" stroke-linecap="round" stroke-linejoin="round"/>
<path d="M83.6599 40.2207C87.8134 42.2531 75.4576 40.6167 74.1055 42.7387L83.6599 40.2207Z" fill="white"/>
<path d="M83.6599 40.2207C87.8134 42.2531 75.4576 40.6167 74.1055 42.7387" stroke="#1A1D22" stroke-width="1.99589" stroke-miterlimit="10" stroke-linecap="round" stroke-linejoin="round"/>
<path d="M84.3532 34.5348C82.3287 34.3854 74.0965 32.9134 71.8555 36.2982L84.3532 34.5348Z" fill="white"/>
<path d="M84.3532 34.5348C82.3287 34.3854 74.0965 32.9134 71.8555 36.2982" stroke="#1A1D22" stroke-width="1.99589" stroke-miterlimit="10" stroke-linecap="round" stroke-linejoin="round"/>
<path d="M76.5297 39.5814C77.0929 39.3797 77.3409 38.6335 77.0836 37.9147C76.8263 37.196 76.1612 36.7768 75.5979 36.9785C75.0347 37.1802 74.7867 37.9264 75.044 38.6452C75.3013 39.3639 75.9665 39.7831 76.5297 39.5814Z" fill="white"/>
<path d="M76.5297 39.5814C77.0929 39.3797 77.3409 38.6335 77.0836 37.9147C76.8263 37.196 76.1612 36.7768 75.5979 36.9785C75.0347 37.1802 74.7867 37.9264 75.044 38.6452C75.3013 39.3639 75.9665 39.7831 76.5297 39.5814Z" stroke="#1A1D22" stroke-width="1.99589" stroke-miterlimit="10" stroke-linecap="round" stroke-linejoin="round"/>
<path d="M71.8555 36.2981C71.8555 36.2981 73.1403 39.0328 74.104 42.7389C74.104 42.7389 75.2694 43.643 83.1579 41.6629" stroke="#1A1D22" stroke-width="1.99589" stroke-miterlimit="10" stroke-linecap="round" stroke-linejoin="round"/>
<path d="M172.749 45.1219C182.511 44.4974 190.153 39.731 189.817 34.476C189.481 29.221 181.294 25.4672 171.532 26.0918C161.77 26.7164 154.128 31.4827 154.464 36.7377C154.8 41.9927 162.986 45.7465 172.749 45.1219Z" fill="white" stroke="#1A1D22" stroke-width="1.99589" stroke-miterlimit="10"/>
<path d="M154.965 29.0051L157.385 31.5755" stroke="#1A1D22" stroke-width="1.55237" stroke-miterlimit="10" stroke-linecap="round" stroke-linejoin="round"/>
<path d="M160.285 25.4258L161.951 28.549" stroke="#1A1D22" stroke-width="1.55237" stroke-miterlimit="10" stroke-linecap="round" stroke-linejoin="round"/>
<path d="M165.938 23.3486L166.759 26.7932" stroke="#1A1D22" stroke-width="1.55237" stroke-miterlimit="10" stroke-linecap="round" stroke-linejoin="round"/>
<path d="M188.483 27.1299L186.406 29.9916" stroke="#1A1D22" stroke-width="1.55237" stroke-miterlimit="10" stroke-linecap="round" stroke-linejoin="round"/>
<path d="M183.203 24.3281L181.762 27.556" stroke="#1A1D22" stroke-width="1.55237" stroke-miterlimit="10" stroke-linecap="round" stroke-linejoin="round"/>
<path d="M177.249 22.7959L176.621 26.2778" stroke="#1A1D22" stroke-width="1.55237" stroke-miterlimit="10" stroke-linecap="round" stroke-linejoin="round"/>
<path d="M171.453 22.4971L171.7 26.0313" stroke="#1A1D22" stroke-width="1.55237" stroke-miterlimit="10" stroke-linecap="round" stroke-linejoin="round"/>
<path d="M155.949 44.4203L158.026 41.5586" stroke="#1A1D22" stroke-width="1.55237" stroke-miterlimit="10" stroke-linecap="round" stroke-linejoin="round"/>
<path d="M161.688 47.2899L162.935 43.9873" stroke="#1A1D22" stroke-width="1.55237" stroke-miterlimit="10" stroke-linecap="round" stroke-linejoin="round"/>
<path d="M167.559 48.627L167.925 45.1152" stroke="#1A1D22" stroke-width="1.55237" stroke-miterlimit="10" stroke-linecap="round" stroke-linejoin="round"/>
<path d="M189.44 42.0143L187.012 39.4365" stroke="#1A1D22" stroke-width="1.55237" stroke-miterlimit="10" stroke-linecap="round" stroke-linejoin="round"/>
<path d="M184.545 45.4591L182.707 42.4404" stroke="#1A1D22" stroke-width="1.55237" stroke-miterlimit="10" stroke-linecap="round" stroke-linejoin="round"/>
<path d="M178.838 47.7377L177.77 44.3679" stroke="#1A1D22" stroke-width="1.55237" stroke-miterlimit="10" stroke-linecap="round" stroke-linejoin="round"/>
<path d="M173.124 48.7689L172.93 45.2422" stroke="#1A1D22" stroke-width="1.55237" stroke-miterlimit="10" stroke-linecap="round" stroke-linejoin="round"/>
<path d="M175.337 41.2882C179.005 40.9449 181.734 38.0487 181.432 34.8195C181.13 31.5902 177.911 29.2508 174.243 29.5941C170.575 29.9375 167.847 32.8336 168.149 36.0629C168.451 39.2921 171.669 41.6316 175.337 41.2882Z" fill="#1A1D22"/>
<path d="M167.862 33.0996L170.514 34.3399L167.316 35.4757L167.862 33.0996Z" fill="white"/>
<path d="M133.524 42.2458C135.491 23.9419 125.527 7.86061 111.268 6.32723C97.0084 4.79384 83.8541 18.389 81.8866 36.6929C79.9192 54.9967 89.8836 71.078 104.143 72.6114C118.402 74.1448 131.556 60.5496 133.524 42.2458Z" fill="white"/>
<path d="M133.524 42.2458C135.491 23.9419 125.527 7.86061 111.268 6.32723C97.0084 4.79384 83.8541 18.389 81.8866 36.6929C79.9192 54.9967 89.8836 71.078 104.143 72.6114C118.402 74.1448 131.556 60.5496 133.524 42.2458Z" stroke="#1A1D22" stroke-width="1.99589" stroke-miterlimit="10"/>
<path d="M130.355 41.9035C131.99 26.6852 123.706 13.3148 111.851 12.0399C99.9953 10.765 89.0586 22.0684 87.4228 37.2868C85.787 52.5051 94.0716 65.8755 105.927 67.1504C117.782 68.4253 128.719 57.1219 130.355 41.9035Z" fill="#EB5B31"/>
<path d="M130.355 41.9035C131.99 26.6852 123.706 13.3148 111.851 12.0399C99.9953 10.765 89.0586 22.0684 87.4228 37.2868C85.787 52.5051 94.0716 65.8755 105.927 67.1504C117.782 68.4253 128.719 57.1219 130.355 41.9035Z" stroke="#1A1D22" stroke-width="1.99589" stroke-miterlimit="10"/>
<path d="M110.932 47.7147C120.695 47.0901 128.337 42.3238 128.001 37.0688C127.665 31.8137 119.478 28.06 109.716 28.6846C99.9531 29.3091 92.3115 34.0755 92.6475 39.3305C92.9836 44.5855 101.17 48.3392 110.932 47.7147Z" fill="white" stroke="#1A1D22" stroke-width="1.99589" stroke-miterlimit="10"/>
<path d="M93.1445 31.5984L95.5724 34.1687" stroke="#1A1D22" stroke-width="1.55237" stroke-miterlimit="10" stroke-linecap="round" stroke-linejoin="round"/>
<path d="M98.4727 28.0195L100.139 31.1428" stroke="#1A1D22" stroke-width="1.55237" stroke-miterlimit="10" stroke-linecap="round" stroke-linejoin="round"/>
<path d="M104.125 25.9492L104.939 29.3863" stroke="#1A1D22" stroke-width="1.55237" stroke-miterlimit="10" stroke-linecap="round" stroke-linejoin="round"/>
<path d="M126.67 29.7227L124.594 32.5844" stroke="#1A1D22" stroke-width="1.55237" stroke-miterlimit="10" stroke-linecap="round" stroke-linejoin="round"/>
<path d="M121.383 26.9209L119.941 30.1488" stroke="#1A1D22" stroke-width="1.55237" stroke-miterlimit="10" stroke-linecap="round" stroke-linejoin="round"/>
<path d="M115.428 25.3896L114.801 28.8715" stroke="#1A1D22" stroke-width="1.55237" stroke-miterlimit="10" stroke-linecap="round" stroke-linejoin="round"/>
<path d="M109.633 25.0977L109.887 28.6244" stroke="#1A1D22" stroke-width="1.55237" stroke-miterlimit="10" stroke-linecap="round" stroke-linejoin="round"/>
<path d="M94.1289 47.0131L96.2056 44.1514" stroke="#1A1D22" stroke-width="1.55237" stroke-miterlimit="10" stroke-linecap="round" stroke-linejoin="round"/>
<path d="M99.8672 49.8826L101.122 46.5801" stroke="#1A1D22" stroke-width="1.55237" stroke-miterlimit="10" stroke-linecap="round" stroke-linejoin="round"/>
<path d="M105.738 51.2198L106.112 47.708" stroke="#1A1D22" stroke-width="1.55237" stroke-miterlimit="10" stroke-linecap="round" stroke-linejoin="round"/>
<path d="M127.62 44.6071L125.199 42.0293" stroke="#1A1D22" stroke-width="1.55237" stroke-miterlimit="10" stroke-linecap="round" stroke-linejoin="round"/>
<path d="M122.732 48.0516L120.895 45.033" stroke="#1A1D22" stroke-width="1.55237" stroke-miterlimit="10" stroke-linecap="round" stroke-linejoin="round"/>
<path d="M117.025 50.3305L115.957 46.9607" stroke="#1A1D22" stroke-width="1.55237" stroke-miterlimit="10" stroke-linecap="round" stroke-linejoin="round"/>
<path d="M111.311 51.3692L111.109 47.835" stroke="#1A1D22" stroke-width="1.55237" stroke-miterlimit="10" stroke-linecap="round" stroke-linejoin="round"/>
<path d="M113.388 43.6124C117.056 43.2691 119.785 40.3729 119.483 37.1437C119.18 33.9144 115.962 31.575 112.294 31.9183C108.626 32.2617 105.897 35.1579 106.199 38.3871C106.502 41.6163 109.72 43.9558 113.388 43.6124Z" fill="#1A1D22"/>
<path d="M105.931 35.3564L108.568 36.6267L105.371 37.7325L105.931 35.3564Z" fill="white"/>
<path d="M25.6653 37.6359C23.7454 36.8215 22.468 34.0868 22.8714 30.2985C23.2823 26.5103 25.232 24.2388 27.1742 23.6934" fill="white"/>
<path d="M25.6653 37.6359C23.7454 36.8215 22.468 34.0868 22.8714 30.2985C23.2823 26.5103 25.232 24.2388 27.1742 23.6934" stroke="#1A1D22" stroke-width="1.99589" stroke-miterlimit="10" stroke-linecap="round" stroke-linejoin="round"/>
<path d="M29.0714 39.2043C26.8228 38.2479 24.5071 35.1023 24.9852 30.664C25.4633 26.2257 28.5783 23.5283 30.8493 22.8857" stroke="#1A1D22" stroke-width="1.99589" stroke-miterlimit="10" stroke-linecap="round" stroke-linejoin="round"/>
<path d="M36.1774 102.589C47.054 91.5976 61.7555 65.3414 62.9656 61.1123C63.8621 57.9816 63.5184 54.9704 63.4661 54.7836C62.9357 52.0489 62.4726 49.5458 62.8536 45.78C63.384 40.5198 68.1051 33.0629 69.1809 30.5075C70.4284 27.5412 67.9856 23.992 65.2814 26.9733C61.4865 31.1501 58.6404 36.2235 56.9596 40.8785C57.0641 39.4065 57.221 37.9794 57.4601 36.6867C58.7524 29.5884 62.0916 22.3183 63.3317 19.8376C64.5568 17.3869 61.3894 13.4118 58.3266 16.9385C56.8475 18.6421 52.7912 27.6009 51.2299 32.8761C50.4903 35.3642 49.833 37.8523 49.2503 40.206C49.2353 37.6954 49.3773 35.1401 49.7956 32.8985C51.4017 24.2311 52.7015 20.4503 54.0312 17.7679C55.3086 15.1901 51.3345 11.6111 48.1895 15.9298C46.7477 17.9099 44.686 21.9298 42.6167 28.3108C41.3692 32.1737 40.4503 36.0815 39.7855 39.5784C39.6286 37.6282 39.6062 35.6481 39.8303 33.8101C40.8089 25.86 41.6904 23.5213 42.923 21.0705C44.1332 18.6571 40.8313 15.7953 37.8731 19.1129C36.3716 20.8015 34.4667 24.7242 32.9652 30.6644C32.1135 34.0267 31.6056 37.277 31.3217 40.2359L30.2385 39.7353C30.2385 39.7353 29.8276 44.5845 30.231 47.7825C30.5971 50.704 31.2918 53.9692 33.5702 56.8384C36.0653 59.9915 39.9199 63.6528 39.9199 63.6528C39.9199 68.8084 1 102.581 1 102.581" fill="white"/>
<path d="M36.1774 102.589C47.054 91.5976 61.7555 65.3414 62.9656 61.1123C63.8621 57.9816 63.5184 54.9704 63.4661 54.7836C62.9357 52.0489 62.4726 49.5458 62.8536 45.78C63.384 40.5198 68.1051 33.0629 69.1809 30.5075C70.4284 27.5412 67.9856 23.992 65.2814 26.9733C61.4865 31.1501 58.6404 36.2235 56.9596 40.8785C57.0641 39.4065 57.221 37.9794 57.4601 36.6867C58.7524 29.5884 62.0916 22.3183 63.3317 19.8376C64.5568 17.3869 61.3894 13.4118 58.3266 16.9385C56.8475 18.6421 52.7912 27.6009 51.2299 32.8761C50.4903 35.3642 49.8329 37.8523 49.2503 40.206C49.2353 37.6954 49.3773 35.1401 49.7956 32.8985C51.4017 24.2311 52.7015 20.4503 54.0312 17.7679C55.3086 15.1901 51.3345 11.6111 48.1895 15.9298C46.7477 17.9099 44.686 21.9298 42.6167 28.3108C41.3692 32.1737 40.4503 36.0815 39.7855 39.5784C39.6286 37.6282 39.6062 35.6481 39.8303 33.8101C40.8089 25.86 41.6904 23.5213 42.923 21.0705C44.1332 18.6571 40.8313 15.7953 37.8731 19.1129C36.3716 20.8015 34.4667 24.7242 32.9652 30.6644C32.1135 34.0267 31.6056 37.277 31.3217 40.2359L30.2385 39.7353C30.2385 39.7353 29.8276 44.5845 30.231 47.7825C30.5971 50.704 31.2918 53.9692 33.5702 56.8384C36.0653 59.9915 39.9199 63.6528 39.9199 63.6528C39.9199 68.8084 1 102.581 1 102.581" stroke="#1A1D22" stroke-width="1.99589" stroke-miterlimit="10" stroke-linecap="round" stroke-linejoin="round"/>
<path d="M100.098 17.4161C100.411 17.1546 100.725 16.8931 101.039 16.6465L100.098 17.4161Z" fill="white"/>
<path d="M100.098 17.4161C100.411 17.1546 100.725 16.8931 101.039 16.6465" stroke="#1A1D22" stroke-width="1.99589" stroke-miterlimit="10" stroke-linecap="round" stroke-linejoin="round"/>
<path d="M94.3477 23.9172C95.4981 22.2062 96.768 20.6446 98.1351 19.2473L94.3477 23.9172Z" fill="white"/>
<path d="M94.3477 23.9172C95.4981 22.2062 96.768 20.6446 98.1351 19.2473" stroke="#1A1D22" stroke-width="1.99589" stroke-miterlimit="10" stroke-linecap="round" stroke-linejoin="round"/>
</svg>
