<svg width="216" height="327" viewBox="0 0 216 327" fill="none" xmlns="http://www.w3.org/2000/svg">
<g clip-path="url(#clip0_2680_28149)">
<path d="M118.595 43.5344C117.941 43.8809 117.45 44.3356 117.065 44.8411C88.7324 61.2897 51.1691 90.4297 42.0196 123.2C33.5107 153.667 47.379 184.696 58.5437 212.941C68.7697 238.825 80.7553 262.008 108.763 270.423C134.453 278.144 172.165 292.36 199.062 283.927C235.098 272.632 254.749 234.315 270.346 202.5C275.075 192.843 281.699 180.123 279.835 168.943C277.714 156.215 272.331 143.613 267.969 131.556C259 106.742 249.073 67.1204 223.192 54.0474C194.835 39.7365 148.31 27.9002 118.595 43.5344ZM121.119 51.7383C121.344 51.6687 121.554 51.6783 121.791 51.5709C148.513 38.8693 187.816 51.7815 213.654 61.6653C214.32 61.9192 214.925 62.2706 215.567 62.5612C224.501 76.8313 199.336 100.243 191.327 110.233C179.345 125.19 165.531 139.238 148.291 147.996C135.34 154.576 122.013 153.535 108.369 150.458C91.4086 146.638 56.0253 140.303 56.0008 118.592C63.1204 103.972 76.6092 91.4838 87.7283 80.8156C98.3459 70.6262 109.017 60.1694 121.119 51.7383ZM67.7215 204.568C59.2541 183.24 48.3757 158.693 51.1096 135.319C56.9994 142.837 67.6864 147.562 78.4862 151.583C98.5545 159.071 119.724 165.396 140.712 160.909C146.883 166.977 151.422 174.978 155.106 183.506C155.958 186.101 156.881 188.588 157.799 190.897C157.954 191.288 158.19 191.58 158.432 191.87C160.915 198.566 163.064 205.276 165.235 211.338C172.731 232.248 178.964 254.198 188.849 274.137C166.114 277.862 136.587 266.212 115.239 260.324C87.4715 252.664 77.66 229.596 67.7215 204.568ZM255.903 131.544C259.96 142.518 263.807 153.581 267.119 164.805C270.25 175.422 266.065 184.104 261.722 193.895C248.9 222.783 228.802 261.75 196.787 272.218C189.702 247.373 179.603 222.929 170.633 198.68C168.69 193.426 166.601 187.351 164.094 181.282C161.984 171.357 160.053 162.352 162.801 151.713C180.697 140.452 195.228 121.935 207.386 106.083C215.384 95.6645 226.774 83.4184 227.89 71.6518C242.467 87.1974 249.466 114.152 255.892 131.535L255.903 131.544Z" fill="#F3F3F3"/>
<path d="M202.373 181.358C206.259 178.482 208.209 173.548 207.931 168.816C207.623 163.39 202.826 157.986 197.399 157.403C191.859 156.805 186.642 160.836 185.091 166.069C184.306 168.73 184.421 171.797 185.371 174.52C186.121 177.242 187.593 179.824 189.267 181.34C193.067 184.772 198.452 184.261 202.368 181.36L202.373 181.358Z" fill="#F3F3F3"/>
<path d="M228.557 151.001C232.449 148.123 234.393 143.192 234.12 138.457C233.812 133.031 229.022 127.625 223.588 127.045C218.043 126.449 212.832 130.477 211.281 135.711C210.486 138.381 210.609 141.466 211.569 144.198C212.32 146.906 213.791 149.468 215.462 150.979C219.262 154.411 224.647 153.9 228.557 151.001Z" fill="#F3F3F3"/>
<path d="M218.662 199.695C213.124 199.103 207.906 203.127 206.354 208.361C205.566 211.03 205.678 214.105 206.638 216.837C207.389 219.545 208.856 222.115 210.536 223.629C214.336 227.062 219.721 226.55 223.637 223.649C227.52 220.768 229.473 215.84 229.194 211.108C228.886 205.682 224.095 200.276 218.662 199.695Z" fill="#F3F3F3"/>
<path d="M113.497 190.267C105.574 190.417 101.305 197.869 100.65 204.955C98.5037 213.845 105.814 222.627 114.988 225.02C120.088 226.352 125.652 225.337 129.337 221.403C133.999 216.43 132.989 209.088 131.408 203.103C129.313 195.175 121.39 190.123 113.497 190.267ZM119.144 210.056C119.144 210.056 119.087 210.032 119.063 210.021L119.059 210.01C119.162 210.035 119.176 210.036 119.152 210.059L119.144 210.056Z" fill="#F3F3F3"/>
<path d="M91.1414 123.681C94.8929 123.68 98.7341 121.361 100.832 118.172C100.884 118.118 100.937 118.083 100.989 118.03C103.004 115.838 104.495 112.025 103.855 109.059C101.8 99.5582 89.4912 100.927 84.3888 106.967C82.299 109.441 81.0755 113.274 81.7061 116.483C82.6444 121.319 86.4129 123.686 91.1414 123.681Z" fill="#F3F3F3"/>
<path d="M132.829 107.103C136.58 107.102 140.416 104.785 142.52 101.593C142.571 101.54 142.624 101.505 142.676 101.451C144.698 99.2572 146.183 95.4467 145.543 92.4814C143.488 82.9801 131.179 84.3486 126.076 90.3891C123.987 92.8633 122.769 96.6938 123.394 99.9048C124.332 104.741 128.1 107.107 132.835 107.101L132.829 107.103Z" fill="#F3F3F3"/>
<path d="M174.52 90.5257C178.272 90.5242 182.107 88.2074 184.211 85.0158C184.263 84.962 184.316 84.9276 184.368 84.8738C186.389 82.6796 187.874 78.8691 187.234 75.9037C185.179 66.4025 172.87 67.771 167.768 73.8114C165.678 76.2856 164.46 80.1162 165.085 83.3271C166.023 88.1631 169.792 90.5299 174.526 90.5234L174.52 90.5257Z" fill="#F3F3F3"/>
<path d="M79.3499 259.881C69.3768 250.728 64.4395 238.847 56.892 228.03C56.6894 227.738 56.2114 227.941 56.2486 228.286C59.1256 251.784 87.4429 281.305 112.048 280.728C112.91 280.705 112.939 279.523 112.276 279.194C100.394 273.288 89.3723 269.075 79.3499 259.881Z" fill="#F3F3F3"/>
<path d="M55.2554 223.89C55.7388 221.609 54.5406 219.198 53.7862 217.083C52.9757 214.811 51.7023 212.729 49.7618 211.279C49.4798 211.072 48.9571 211.279 49.0424 211.678C49.536 213.89 50.2905 216.038 51.2069 218.109C52.113 220.17 52.6667 222.784 54.5891 224.155C54.8504 224.344 55.1928 224.201 55.2612 223.888L55.2554 223.89Z" fill="#F3F3F3"/>
</g>
<defs>
<clipPath id="clip0_2680_28149">
<rect width="244.57" height="253.614" fill="white" transform="translate(0 90.3672) rotate(-21.6844)"/>
</clipPath>
</defs>
</svg>
