<svg width="60" height="60" viewBox="0 0 60 60" fill="none" xmlns="http://www.w3.org/2000/svg">
<path d="M42.2443 33.1186C42.2095 32.9154 42.2767 32.7082 42.4245 32.5643L50.9301 24.2733C51.5828 23.6372 51.8131 22.7036 51.5315 21.8369C51.2499 20.9702 50.5146 20.3502 49.6127 20.2193L37.8583 18.5113C37.6542 18.4816 37.4779 18.3535 37.3867 18.1687L32.1301 7.51726C31.7267 6.70007 30.91 6.19238 29.9986 6.19238C29.0872 6.19238 28.2706 6.70007 27.8673 7.51726L25.2195 12.8821C25.0056 13.3156 25.1835 13.8406 25.617 14.0545C26.0504 14.2684 26.5753 14.0904 26.7893 13.657L29.4371 8.29198C29.5926 7.97698 29.8817 7.9429 29.9986 7.9429C30.1157 7.9429 30.4047 7.97698 30.5602 8.29198L35.817 18.9435C36.1635 19.6451 36.8324 20.1311 37.6066 20.2436L49.3611 21.9516C49.7088 22.0021 49.8304 22.2665 49.8666 22.3778C49.9029 22.4892 49.9597 22.7745 49.7082 23.0197L41.2025 31.3107C40.6422 31.8569 40.3868 32.6433 40.5191 33.4145L42.527 45.1216C42.5864 45.4679 42.3726 45.6654 42.2778 45.7341C42.183 45.8028 41.9296 45.9455 41.6184 45.7817L37.3662 43.5463C36.9384 43.3215 36.4091 43.4858 36.1841 43.9137C35.959 44.3416 36.1236 44.8708 36.5515 45.0958L40.8036 47.3313C41.1546 47.5157 41.5342 47.6068 41.9119 47.6068C42.4027 47.6068 42.8902 47.453 43.3067 47.1504C44.0439 46.6147 44.4063 45.7238 44.2523 44.8256L42.2443 33.1186Z" fill="black"/>
<path d="M34.0375 41.7959L31.1046 40.2542C30.412 39.89 29.5851 39.89 28.8925 40.2542L18.379 45.7815C18.0682 45.9452 17.8143 45.8028 17.7195 45.7339C17.6248 45.6651 17.411 45.4677 17.4704 45.1213L19.4783 33.4143C19.6105 32.6431 19.3551 31.8566 18.7947 31.3106L10.2891 23.0195C10.0376 22.7743 10.0945 22.489 10.1307 22.3776C10.1669 22.2663 10.2886 22.002 10.6363 21.9514L22.3908 20.2434C23.165 20.1309 23.8341 19.6449 24.1804 18.9432L25.1275 17.0242C25.3414 16.5906 25.1634 16.0658 24.73 15.8519C24.2963 15.6378 23.7714 15.8159 23.5576 16.2494L22.6105 18.1684C22.5193 18.3532 22.343 18.4813 22.139 18.511L10.3844 20.219C9.48252 20.3501 8.74737 20.9699 8.46575 21.8366C8.18413 22.7033 8.41463 23.6369 9.06715 24.273L17.5728 32.564C17.7204 32.7079 17.7878 32.9151 17.7529 33.1184L15.745 44.8252C15.591 45.7235 15.9532 46.6143 16.6906 47.15C17.1072 47.4527 17.5946 47.6065 18.0855 47.6064C18.4632 47.6064 18.8429 47.5153 19.1938 47.3309L29.7073 41.8035C29.8897 41.7076 30.1076 41.7076 30.29 41.8035L33.2229 43.3454C33.6511 43.5704 34.1801 43.4056 34.405 42.9778C34.6299 42.5501 34.4654 42.0208 34.0375 41.7959Z" fill="black"/>
<path d="M4.56872 7.5713L11.6814 11.1285C11.9557 11.2656 12.249 11.3327 12.5397 11.3327C13.0028 11.3327 13.4591 11.1626 13.8208 10.8343C14.4094 10.3 14.6055 9.4753 14.3202 8.73338L11.4673 1.31021C11.1027 0.36172 10.0236 -0.142113 9.06167 0.187356C6.57903 1.03735 4.76958 2.67956 3.6836 5.06848C3.26286 5.9941 3.65991 7.11684 4.56872 7.5713ZM5.27738 5.79301C6.16833 3.83288 7.59172 2.54103 9.62887 1.84369C9.64299 1.83879 9.65793 1.83657 9.67322 1.83657C9.73916 1.83657 9.81024 1.8787 9.83323 1.93834L12.6863 9.3615C12.697 9.38951 12.7257 9.46409 12.6443 9.53797C12.5631 9.61196 12.4915 9.57625 12.4646 9.56271L5.35172 6.00554C5.28146 5.97041 5.24458 5.86513 5.27738 5.79301Z" fill="black"/>
<path d="M46.1793 10.8342C46.541 11.1623 46.9973 11.3326 47.4605 11.3326C47.7511 11.3326 48.0446 11.2655 48.3188 11.1284L55.4315 7.5712C56.3402 7.11685 56.7372 5.99411 56.3167 5.06849C55.2308 2.67957 53.4213 1.03724 50.9387 0.187253C49.9768 -0.141983 48.8977 0.361733 48.5331 1.31011L45.68 8.73327C45.3948 9.47519 45.5907 10.2999 46.1793 10.8342ZM47.314 9.3614L50.1671 1.93812C50.19 1.87848 50.2611 1.83635 50.327 1.83635C50.3424 1.83635 50.3575 1.83869 50.3715 1.84347C52.4085 2.54092 53.8319 3.83278 54.7228 5.79267C54.7556 5.8648 54.7188 5.97019 54.6484 6.00532L47.5357 9.56249C47.5089 9.57591 47.4374 9.61174 47.3559 9.53775C47.2746 9.46399 47.3032 9.38941 47.314 9.3614Z" fill="black"/>
<path d="M13.8208 49.1659C13.2321 48.6316 12.3924 48.5161 11.6814 48.8717L4.56872 52.4289C3.65991 52.8833 3.26286 54.0061 3.6836 54.9316C4.76958 57.3205 6.57903 58.9628 9.06167 59.8128C9.26147 59.8812 9.4663 59.9137 9.6689 59.9137C10.4411 59.9137 11.1785 59.4413 11.4673 58.69L14.3203 51.2668C14.6055 50.5249 14.4095 49.7002 13.8208 49.1659ZM12.6863 50.6388L9.83311 58.0621C9.80487 58.1355 9.70357 58.1823 9.62876 58.1567C7.59172 57.4593 6.16833 56.1675 5.27738 54.2073C5.24458 54.1352 5.28146 54.0299 5.35184 53.9948L12.4646 50.4376C12.4788 50.4305 12.5056 50.417 12.5397 50.417C12.5699 50.417 12.606 50.4275 12.6443 50.4623C12.7256 50.5361 12.697 50.6107 12.6863 50.6388Z" fill="black"/>
<path d="M55.4315 52.4292L54.2114 51.819C53.7791 51.6027 53.2532 51.778 53.0371 52.2103C52.8208 52.6427 52.996 53.1685 53.4285 53.3847L54.6486 53.995C54.719 54.0301 54.7557 54.1354 54.7229 54.2075C53.8321 56.1677 52.4088 57.4595 50.3718 58.1569C50.2971 58.1825 50.1954 58.1356 50.1673 58.0622L47.3142 50.639C47.3034 50.611 47.2748 50.5365 47.3561 50.4626C47.4374 50.3888 47.509 50.4245 47.5359 50.438L50.0556 51.6981C50.4881 51.9144 51.0138 51.739 51.23 51.3066C51.4462 50.8742 51.271 50.3484 50.8385 50.1323L48.3188 48.8722C47.6079 48.5166 46.768 48.6321 46.1795 49.1663C45.5908 49.7006 45.3947 50.5253 45.68 51.2672L48.533 58.6903C48.8219 59.4417 49.5593 59.914 50.3315 59.914C50.5339 59.914 50.7388 59.8816 50.9386 59.8132C53.4213 58.9632 55.2307 57.3209 56.3165 54.932C56.7372 54.0066 56.3403 52.8837 55.4315 52.4292Z" fill="black"/>
<path d="M6.85291 30.0151C6.86586 29.4009 6.53324 28.8472 5.98483 28.5703L2.6955 26.909C2.31444 26.7166 1.86453 26.6862 1.46107 26.8258C1.05679 26.9656 0.734786 27.2549 0.554704 27.6405C-0.185115 29.2241 -0.184882 30.7578 0.555287 32.1994C0.835739 32.7456 1.38894 33.0624 1.96537 33.0624C2.18396 33.0624 2.40594 33.0167 2.61754 32.9208L5.92449 31.4222C6.48434 31.1684 6.84007 30.6293 6.85291 30.0151ZM2.04414 31.2586C1.65107 30.4037 1.65795 29.5149 2.06515 28.5518L4.88017 29.9736L2.04414 31.2586Z" fill="black"/>
<path d="M59.4469 27.6407C59.2668 27.2551 58.9449 26.9658 58.5406 26.8259C58.1372 26.6862 57.6873 26.7166 57.3062 26.9091L54.0169 28.5703C53.4685 28.8474 53.1357 29.4009 53.1488 30.0152C53.1618 30.6294 53.5174 31.1685 54.077 31.4221L57.3841 32.9209C57.5957 33.0168 57.8176 33.0623 58.0363 33.0623C58.6127 33.0623 59.166 32.7456 59.4463 32.1995C60.1866 30.7577 60.1868 29.2239 59.4469 27.6407ZM57.9577 31.2587L55.1218 29.9735L57.9367 28.5519C58.3439 29.5149 58.3508 30.4037 57.9577 31.2587Z" fill="black"/>
<path d="M20.8302 6.34244C20.9395 6.72781 21.2903 6.97932 21.6719 6.97932C21.7509 6.97932 21.8312 6.96858 21.9111 6.94594C22.3761 6.81417 22.6463 6.3303 22.5146 5.8651L21.5732 2.54321C21.4414 2.07812 20.9577 1.80771 20.4923 1.9397C20.0273 2.07147 19.7571 2.55534 19.8888 3.02055L20.8302 6.34244Z" fill="black"/>
<path d="M9.39086 15.7837C9.5881 15.3423 9.39028 14.8247 8.949 14.6273L6.33822 13.4602C5.89648 13.263 5.37911 13.4607 5.18187 13.9021C4.98463 14.3435 5.18245 14.8611 5.62373 15.0584L8.23451 16.2255C8.35064 16.2773 8.4719 16.302 8.59129 16.302C8.9259 16.302 9.24545 16.1089 9.39086 15.7837Z" fill="black"/>
<path d="M5.33298 39.8843C4.9287 40.1493 4.81585 40.6919 5.08089 41.0962C5.24895 41.3525 5.52847 41.4917 5.81371 41.4917C5.97839 41.4917 6.14481 41.4454 6.2928 41.3483L8.6844 39.7803C9.08868 39.5152 9.20154 38.9727 8.93649 38.5684C8.67145 38.1641 8.12875 38.0511 7.72459 38.3163L5.33298 39.8843Z" fill="black"/>
<path d="M23.452 52.6455C23.0267 52.4151 22.4957 52.5729 22.2654 52.998L20.9028 55.5122C20.6724 55.9373 20.8302 56.4685 21.2553 56.6988C21.3879 56.7707 21.5307 56.8048 21.6716 56.8048C21.9825 56.8048 22.2835 56.6388 22.442 56.3463L23.8046 53.8321C24.0348 53.4071 23.877 52.8759 23.452 52.6455Z" fill="black"/>
<path d="M38.09 6.94589C38.1699 6.96853 38.2502 6.97927 38.3292 6.97927C38.7108 6.97927 39.0616 6.72764 39.1709 6.34239L40.1123 3.0205C40.2441 2.55541 39.9738 2.07153 39.5088 1.93965C39.0436 1.80777 38.5597 2.07819 38.4279 2.54316L37.4865 5.86505C37.3547 6.33013 37.6248 6.81401 38.09 6.94589Z" fill="black"/>
<path d="M54.8166 13.902C54.6194 13.4606 54.1014 13.2631 53.6604 13.4601L51.0496 14.6272C50.6082 14.8246 50.4104 15.3422 50.6077 15.7836C50.7531 16.1088 51.0726 16.3019 51.4073 16.3019C51.5267 16.3019 51.6479 16.2773 51.7641 16.2254L54.3749 15.0583C54.8161 14.861 55.014 14.3434 54.8166 13.902Z" fill="black"/>
<path d="M51.0653 38.5683C50.8002 38.9726 50.9131 39.5152 51.3174 39.7802L53.709 41.3482C53.8571 41.4453 54.0234 41.4917 54.1881 41.4917C54.4732 41.4917 54.7528 41.3524 54.9209 41.0961C55.1859 40.6919 55.0731 40.1493 54.6688 39.8842L52.2772 38.3162C51.8728 38.0512 51.3304 38.1641 51.0653 38.5683Z" fill="black"/>
<path d="M37.7349 52.9981C37.5047 52.5731 36.9735 52.415 36.5483 52.6455C36.1232 52.8758 35.9655 53.4071 36.1957 53.8321L37.5583 56.3464C37.7167 56.6388 38.0178 56.8048 38.3287 56.8048C38.4696 56.8048 38.6124 56.7707 38.7449 56.699C39.1699 56.4686 39.3277 55.9373 39.0975 55.5124L37.7349 52.9981Z" fill="black"/>
</svg>
