<svg width="60" height="61" viewBox="0 0 60 61" fill="none" xmlns="http://www.w3.org/2000/svg">
<path d="M59.2433 46.473L57.192 46.1816C57.0332 45.6782 56.8313 45.1905 56.588 44.7225L57.8331 43.0639C58.0962 42.7134 58.0616 42.2227 57.7518 41.9128L55.4868 39.6459C55.1766 39.3355 54.6852 39.3008 54.3345 39.5646L52.6781 40.8102C52.2108 40.567 51.7236 40.3651 51.2213 40.2062L50.93 38.1526C50.8685 37.7183 50.4967 37.3957 50.0582 37.3957H46.8551C46.4164 37.3957 46.0448 37.7184 45.9832 38.1526L45.6919 40.2062C45.1895 40.3651 44.7025 40.567 44.235 40.8102L42.7992 39.7304C44.9543 37.3613 46.2931 34.4376 46.6782 31.2793H47.051C47.5373 31.2793 47.9317 30.885 47.9317 30.3986C47.9317 29.9123 47.5375 29.518 47.051 29.518H46.7926C46.7931 29.4676 46.7945 29.4174 46.7945 29.367C46.7945 28.0003 46.6157 26.6441 46.2628 25.3361C46.1361 24.8666 45.6531 24.5886 45.1832 24.7153C44.7136 24.842 44.4356 25.3254 44.5623 25.7949C44.8747 26.9533 45.0333 28.1551 45.0333 29.367C45.0333 33.1428 43.5286 36.6571 40.7965 39.2627C40.7916 39.2675 40.7865 39.2723 40.7817 39.2772C40.6705 39.3883 38.05 42.0308 37.2614 44.795C37.0873 45.4057 36.9854 46.3196 36.9259 47.1993C36.9179 47.2468 36.9132 47.2954 36.9132 47.345V47.3947C36.88 47.9375 36.8622 48.4571 36.8527 48.8728H34.3549C34.2588 47.6565 34.1006 45.2023 34.1467 42.6672C34.1713 41.3064 34.2485 40.1862 34.3581 39.2648C35.5024 39.0903 36.7433 38.7866 37.6254 38.2577C39.2252 37.2985 39.5637 35.3534 38.8761 34.1388C38.3344 33.1817 37.0049 32.4359 35.0413 33.4834C34.0372 34.0189 33.339 35.2464 32.907 37.2357C32.8763 37.377 32.8468 37.5226 32.8187 37.672C32.2199 37.7218 31.7036 37.7408 31.3777 37.739C31.0534 37.7403 30.5379 37.7224 29.9395 37.6728C29.9114 37.523 29.882 37.3774 29.8513 37.2358C29.4192 35.2464 28.7211 34.019 27.717 33.4834C25.7532 32.4361 24.4238 33.1818 23.882 34.1388C23.5253 34.7689 23.4441 35.5701 23.659 36.337C23.8843 37.1409 24.4077 37.8229 25.1327 38.2577C26.0148 38.7866 27.2559 39.0904 28.4 39.2649C28.5096 40.1864 28.5867 41.3064 28.6114 42.6673C28.6575 45.2026 28.4993 47.6567 28.4032 48.8729H25.9055C25.8797 47.7393 25.792 45.8309 25.4966 44.7951C24.7125 42.0459 22.0891 39.3905 21.9779 39.2789C21.9727 39.2735 21.967 39.2681 21.9616 39.2628C19.2294 36.6573 17.7248 33.1429 17.7248 29.3671C17.7248 21.8315 23.8501 15.7009 31.3791 15.7009C36.3327 15.7009 40.9078 18.395 43.3191 22.7321C43.5555 23.1573 44.0916 23.3103 44.5167 23.0738C44.9418 22.8375 45.0948 22.3013 44.8584 21.8762C43.9557 20.2527 42.783 18.8346 41.4165 17.6622H42.4451C42.9314 17.6622 43.3257 17.2679 43.3257 16.7816C43.3257 16.2952 42.9314 15.9009 42.4451 15.9009H41.2709C40.7845 15.9009 40.3902 16.2951 40.3902 16.7816C40.3902 16.8068 40.3918 16.8316 40.3939 16.8563C38.0329 15.1536 35.2058 14.129 32.2255 13.965L29.52 13.5806C29.2541 12.6734 28.8923 11.7991 28.4394 10.9699L30.4654 8.27141C30.7286 7.9209 30.6939 7.43023 30.3841 7.12027L27.0009 3.73426C26.6907 3.42383 26.1994 3.38914 25.8486 3.65293L23.1532 5.67969C22.3249 5.22664 21.4516 4.86465 20.5457 4.59863L20.0718 1.25703C20.01 0.822734 19.6384 0.5 19.1998 0.5H14.4152C13.9766 0.5 13.605 0.822734 13.5434 1.25691L13.0693 4.59863C12.1634 4.86465 11.2902 5.22664 10.4618 5.67969L7.76637 3.65258C7.41574 3.38891 6.92449 3.42348 6.61406 3.73391L3.23086 7.11992C2.92113 7.43 2.88645 7.92066 3.14965 8.27106L5.17559 10.9696C4.72277 11.7989 4.3609 12.6731 4.095 13.5802L0.75668 14.0545C0.322617 14.1164 0 14.4881 0 14.9265V19.715C0 20.1535 0.322617 20.5252 0.756797 20.5869L4.09512 21.0611C4.3609 21.9683 4.72277 22.8425 5.1757 23.6717L3.14965 26.3703C2.88656 26.7208 2.92113 27.2115 3.23098 27.5214L6.61418 30.9075C6.92426 31.2178 7.41563 31.2525 7.76649 30.9888L10.4619 28.9618C11.2903 29.4148 12.1635 29.7768 13.0695 30.0429L13.5435 33.3846C13.6051 33.8189 13.9768 34.1415 14.4154 34.1415H16.7101C17.486 36.5424 18.8514 38.7275 20.7368 40.5283C20.8714 40.6652 23.1573 43.0143 23.8029 45.2779C24.0955 46.3037 24.1561 48.8552 24.1548 49.7518V49.7525V49.7532V52.7C24.1548 54.6455 25.5413 56.2728 27.3772 56.6452C27.7491 58.4766 29.3705 59.8592 31.3088 59.8592H31.4494C33.3877 59.8592 35.0091 58.4766 35.3809 56.6452C37.217 56.2728 38.6034 54.6455 38.6034 52.7V51.5551L39.7215 51.714C39.8803 52.2171 40.0822 52.7049 40.3255 53.1731L39.0804 54.8316C38.8172 55.1821 38.8519 55.6728 39.1616 55.9828L41.4266 58.2496C41.7367 58.56 42.2281 58.5948 42.5789 58.331L44.2352 57.0854C44.7026 57.3286 45.1896 57.5305 45.6921 57.6894L45.9834 59.7431C46.0451 60.1774 46.4168 60.5 46.8553 60.5H50.0585C50.4972 60.5 50.8689 60.1773 50.9304 59.7431L51.2216 57.6895C51.724 57.5306 52.2111 57.3287 52.6785 57.0855L54.3348 58.3311C54.6856 58.5949 55.1769 58.5602 55.4871 58.2498L57.7521 55.9829C58.0618 55.6728 58.0965 55.1821 57.8334 54.8318L56.5883 53.1732C56.8315 52.7052 57.0334 52.2173 57.1923 51.7141L59.2437 51.4227C59.6777 51.361 60.0004 50.9893 60.0004 50.5508V47.345C60 46.9064 59.6774 46.5346 59.2433 46.473ZM35.87 35.037C36.0834 34.9231 36.4847 34.7374 36.8293 34.7374C37.0405 34.7374 37.2307 34.8072 37.3432 35.0061C37.5844 35.4322 37.4638 36.3005 36.7195 36.7469C36.202 37.0572 35.4544 37.275 34.6698 37.4258C35.0891 35.6346 35.6402 35.1596 35.87 35.037ZM26.0385 36.7469C25.2942 36.3005 25.1735 35.4322 25.4148 35.0061C25.5274 34.8072 25.7174 34.7374 25.9288 34.7374C26.2734 34.7374 26.6747 34.9231 26.8881 35.037C27.1179 35.1596 27.6691 35.635 28.0886 37.4267C27.3047 37.2759 26.557 37.0578 26.0385 36.7469ZM15.1798 32.3803L14.7315 29.2201C14.681 28.8637 14.4186 28.5739 14.0689 28.4884C12.9345 28.2107 11.8529 27.7624 10.8548 27.1558C10.547 26.9687 10.1562 26.988 9.86824 27.2046L7.31918 29.1214L5.01656 26.817L6.93281 24.2647C7.14879 23.977 7.16801 23.5868 6.98145 23.2791C6.37535 22.2801 5.92734 21.1978 5.64984 20.0619C5.56441 19.7122 5.27473 19.4497 4.91824 19.3991L1.76121 18.9506V15.6908L4.91836 15.2422C5.27473 15.1916 5.56453 14.9291 5.64996 14.5794C5.92746 13.4435 6.37547 12.3611 6.98156 11.3622C7.16813 11.0546 7.14891 10.6645 6.93293 10.3767L5.01668 7.82445L7.3193 5.52008L9.86836 7.43691C10.1563 7.65348 10.5471 7.67281 10.855 7.48566C11.853 6.8791 12.9345 6.43086 14.0691 6.15313C14.4188 6.06758 14.6811 5.77777 14.7316 5.42141L15.1799 2.26121H18.4354L18.8836 5.42129C18.9342 5.77766 19.1965 6.06746 19.5462 6.15301C20.6808 6.43074 21.7622 6.87922 22.7603 7.48566C23.0682 7.67281 23.4589 7.65336 23.7469 7.43691L26.2958 5.52008L28.5984 7.82445L26.6823 10.3767C26.4662 10.6644 26.447 11.0546 26.6337 11.3622C27.1961 12.2892 27.6205 13.2886 27.9007 14.3354C26.4458 14.6725 25.0696 15.2171 23.8038 15.9349C23.4007 12.4682 20.4502 9.76812 16.8797 9.76812C14.5404 9.76812 12.369 10.933 11.0713 12.8841C10.802 13.289 10.9119 13.8357 11.3169 14.1051C11.722 14.3744 12.2686 14.2645 12.5379 13.8595C13.5082 12.4004 15.1314 11.5293 16.8797 11.5293C19.7534 11.5293 22.0913 13.8696 22.0913 16.7461C22.0913 16.852 22.0874 16.9606 22.0801 17.0709C20.3843 18.3586 18.9623 19.9888 17.9173 21.8578C17.5752 21.9274 17.2275 21.9627 16.8796 21.9627C14.0059 21.9627 11.668 19.6224 11.668 16.7459C11.668 16.2596 11.2738 15.8653 10.7873 15.8653C10.3009 15.8653 9.90668 16.2596 9.90668 16.7459C9.90668 20.5936 13.0346 23.7239 16.8795 23.7239C16.9304 23.7239 16.9814 23.7225 17.0323 23.7213C16.3426 25.4705 15.9635 27.3752 15.9635 29.3668C15.9635 30.3918 16.0628 31.3994 16.2548 32.38H15.1798V32.3803ZM40.3254 44.7225C40.0821 45.1906 39.8802 45.6785 39.7214 46.1816L38.7729 46.3163C38.8204 45.9056 38.88 45.5414 38.9551 45.278C39.101 44.7665 39.3311 44.251 39.6007 43.7572L40.3254 44.7225ZM30.3725 42.65C30.3517 41.4796 30.2913 40.4122 30.1924 39.4557C30.8617 39.4992 31.3236 39.5009 31.3775 39.4999C31.432 39.4993 31.8955 39.4992 32.5655 39.4556C32.4664 40.4121 32.4062 41.4795 32.3854 42.6499C32.3401 45.185 32.4874 47.5861 32.5873 48.8725H30.1706C30.2706 47.5862 30.4178 45.1851 30.3725 42.65ZM31.4493 58.098H31.3086C30.3797 58.098 29.5806 57.5315 29.2373 56.7255H33.5204C33.1774 57.5315 32.3783 58.098 31.4493 58.098ZM36.842 52.7C36.842 53.9485 35.8274 54.9642 34.5804 54.9642H28.1775C26.9305 54.9642 25.916 53.9485 25.916 52.7V50.6339H36.8421L36.842 52.7ZM58.2388 49.7862L56.3753 50.051C56.0188 50.1016 55.7291 50.3641 55.6437 50.7139C55.465 51.4454 55.1764 52.1424 54.7861 52.7859C54.5995 53.0935 54.6188 53.4836 54.8347 53.7714L55.9661 55.2782L54.7816 56.4636L53.2773 55.3323C52.9893 55.1156 52.5986 55.0962 52.2907 55.2835C51.648 55.6741 50.9516 55.9628 50.2208 56.1417C49.8713 56.2272 49.6089 56.517 49.5582 56.8734L49.2938 58.7388H47.6196L47.355 56.8733C47.3045 56.5169 47.0421 56.2271 46.6924 56.1416C45.9615 55.9627 45.2652 55.674 44.6225 55.2835C44.3148 55.0965 43.924 55.1158 43.6359 55.3323L42.1315 56.4636L40.9471 55.2782L42.0784 53.7714C42.2944 53.4837 42.3136 53.0935 42.127 52.7859C41.7367 52.1423 41.4482 51.4453 41.2695 50.7139C41.184 50.3642 40.8943 50.1016 40.5379 50.051L38.6743 49.7862V48.1092L40.5379 47.8445C40.8943 47.7938 41.184 47.5313 41.2695 47.1815C41.4482 46.4502 41.7367 45.753 42.127 45.1095C42.3137 44.8019 42.2944 44.4118 42.0784 44.124L40.9471 42.6172L42.1315 41.4318L43.6359 42.5632C43.924 42.7797 44.3147 42.7989 44.6225 42.6119C45.2652 42.2213 45.9616 41.9326 46.6924 41.7537C47.042 41.6682 47.3044 41.3784 47.355 41.022L47.6196 39.1566H49.2938L49.5582 41.022C49.6088 41.3784 49.8711 41.6682 50.2208 41.7537C50.9516 41.9327 51.648 42.2214 52.2907 42.6119C52.5986 42.7991 52.9893 42.7797 53.2773 42.5632L54.7818 41.4318L55.9661 42.6172L54.8347 44.124C54.6188 44.4118 54.5995 44.8019 54.7861 45.1095C55.1764 45.7529 55.465 46.45 55.6437 47.1815C55.7291 47.5312 56.0188 47.7938 56.3753 47.8445L58.2388 48.1092V49.7862Z" fill="black"/>
<path d="M48.4559 43.7773C45.6069 43.7773 43.2891 46.0967 43.2891 48.9477C43.2891 49.434 43.6833 49.8283 44.1697 49.8283C44.6561 49.8283 45.0504 49.434 45.0504 48.9477C45.0504 47.0679 46.5782 45.5386 48.456 45.5386C50.3338 45.5386 51.8614 47.0679 51.8614 48.9477C51.8614 50.8275 50.3338 52.3568 48.456 52.3568C47.6231 52.3568 46.8216 52.0528 46.1991 51.5007C45.8351 51.1779 45.2786 51.2115 44.9559 51.5754C44.6332 51.9392 44.6666 52.4959 45.0306 52.8185C45.9757 53.6566 47.1922 54.1181 48.4561 54.1181C51.305 54.1181 53.6229 51.7987 53.6229 48.9478C53.6225 46.0967 51.3048 43.7773 48.4559 43.7773Z" fill="black"/>
<path d="M45.3807 17.6622H46.5549C47.0412 17.6622 47.4355 17.2679 47.4355 16.7815C47.4355 16.2952 47.0412 15.9009 46.5549 15.9009H45.3807C44.8943 15.9009 44.5 16.2951 44.5 16.7815C44.5 17.2679 44.8942 17.6622 45.3807 17.6622Z" fill="black"/>
<path d="M52.9639 18.5127C53.2545 18.6886 53.532 18.8911 53.7888 19.1145C54.1758 19.4514 54.7844 19.3783 55.0831 18.9625C55.3445 18.5986 55.2827 18.0798 54.945 17.7859C54.6123 17.4963 54.2526 17.2338 53.8758 17.0058C53.4599 16.754 52.9183 16.8871 52.6664 17.3032C52.4146 17.7195 52.5477 18.2609 52.9639 18.5127Z" fill="black"/>
<path d="M49.49 17.6621C49.8616 17.6621 50.2273 17.6771 50.5983 17.7016C51.0646 17.7324 51.486 17.3872 51.5377 16.9203C51.5912 16.4369 51.2427 16.0015 50.7594 15.9481C50.337 15.9012 49.9143 15.9009 49.49 15.9009C49.0037 15.9009 48.6094 16.2951 48.6094 16.7815C48.6094 17.2678 49.0037 17.6621 49.49 17.6621Z" fill="black"/>
<path d="M50.9922 29.4184C50.6592 29.4801 50.3172 29.5135 49.9758 29.5175C49.4894 29.5233 49.0999 29.9222 49.1055 30.4085C49.1113 30.8913 49.5044 31.2787 49.9858 31.2787H49.9964C50.4384 31.2736 50.8814 31.2302 51.3133 31.1501C51.7916 31.0613 52.1073 30.6017 52.0186 30.1236C51.93 29.6454 51.4707 29.3292 50.9922 29.4184Z" fill="black"/>
<path d="M54.1054 27.7698C53.8654 28.0114 53.6032 28.2336 53.326 28.4302C52.9653 28.6862 52.8502 29.1877 53.065 29.5749C53.3162 30.0274 53.9224 30.1667 54.3452 29.8667C54.7044 29.612 55.0441 29.324 55.3549 29.0111C55.6977 28.6661 55.6958 28.1084 55.3508 27.7658C55.0058 27.4229 54.4482 27.4246 54.1054 27.7698Z" fill="black"/>
<path d="M55.992 26.7615C56.443 26.9268 56.9568 26.6882 57.1219 26.2377C57.2736 25.8237 57.3901 25.3934 57.4682 24.9588C57.5542 24.4801 57.2358 24.0224 56.7571 23.9364C56.2788 23.8505 55.8206 24.1687 55.7346 24.6473C55.6745 24.9818 55.5849 25.313 55.468 25.6315C55.3008 26.0883 55.5353 26.5941 55.992 26.7615Z" fill="black"/>
<path d="M55.305 21.149C55.445 21.4586 55.5587 21.7825 55.6431 22.1115C55.7658 22.5898 56.2742 22.876 56.7473 22.7369C57.1953 22.605 57.4648 22.1255 57.3492 21.6741C57.2396 21.2466 57.0917 20.8258 56.9099 20.4234C56.7096 19.9803 56.188 19.7833 55.7447 19.9837C55.3015 20.1842 55.1046 20.7058 55.305 21.149Z" fill="black"/>
<path d="M4.15852 36.8316C3.70407 36.6589 3.19524 36.8872 3.02239 37.3417C2.86559 37.754 2.74395 38.1828 2.66051 38.6163C2.56876 39.0938 2.88141 39.5555 3.35907 39.6473C3.4152 39.6581 3.4711 39.6633 3.5263 39.6633C3.94008 39.6633 4.30911 39.3702 4.39008 38.9487C4.45419 38.6151 4.54794 38.2851 4.66852 37.9679C4.84149 37.5132 4.61309 37.0045 4.15852 36.8316Z" fill="black"/>
<path d="M7.08529 45.1158C6.79677 44.9364 6.52161 44.7306 6.26743 44.504C5.9045 44.1805 5.34775 44.2123 5.02407 44.5754C4.7004 44.9384 4.73239 45.4951 5.09544 45.8187C5.42474 46.1122 5.78122 46.3789 6.15517 46.6115C6.59556 46.8854 7.19216 46.7095 7.41529 46.2425C7.60618 45.8431 7.46087 45.3494 7.08529 45.1158Z" fill="black"/>
<path d="M14.6447 46.0039H13.4705C12.9842 46.0039 12.5898 46.3982 12.5898 46.8846C12.5898 47.3709 12.9842 47.7652 13.4705 47.7652H14.6447C15.1311 47.7652 15.5254 47.3709 15.5254 46.8846C15.5254 46.3982 15.1312 46.0039 14.6447 46.0039Z" fill="black"/>
<path d="M18.7541 46.0039H17.5799C17.0936 46.0039 16.6992 46.3982 16.6992 46.8846C16.6992 47.3709 17.0936 47.7652 17.5799 47.7652H18.7541C19.2404 47.7652 19.6348 47.3709 19.6348 46.8846C19.6348 46.3982 19.2404 46.0039 18.7541 46.0039Z" fill="black"/>
<path d="M22.8635 46.0039H21.6893C21.2029 46.0039 20.8086 46.3982 20.8086 46.8846C20.8086 47.3709 21.2029 47.7652 21.6893 47.7652H22.8635C23.3498 47.7652 23.7441 47.3709 23.7441 46.8846C23.7441 46.3982 23.3499 46.0039 22.8635 46.0039Z" fill="black"/>
<path d="M4.77771 42.4516C4.64154 42.1401 4.53173 41.8149 4.45134 41.4849C4.33626 41.0124 3.85978 40.7226 3.38728 40.8377C2.91478 40.9528 2.62497 41.4292 2.74005 41.9018C2.84447 42.3304 2.9872 42.753 3.16415 43.1576C3.36654 43.6204 3.93607 43.8192 4.38314 43.5829C4.78533 43.3704 4.95994 42.8681 4.77771 42.4516Z" fill="black"/>
<path d="M10.5368 46.0036C10.1809 46.0036 9.82677 46.0025 9.47274 45.9588C8.9897 45.8995 8.55048 46.2425 8.49106 46.7252C8.43165 47.2079 8.77466 47.6474 9.25747 47.7069C9.68309 47.7593 10.109 47.7648 10.5369 47.7648C11.0233 47.7648 11.4176 47.3705 11.4176 46.8841C11.4175 46.3979 11.0231 46.0036 10.5368 46.0036Z" fill="black"/>
<path d="M5.43631 36.0985C5.65908 36.0985 5.88209 36.0145 6.05353 35.8458C6.29635 35.6072 6.56119 35.3881 6.8408 35.1948C7.24076 34.9182 7.34084 34.3697 7.06416 33.9696C6.78748 33.5698 6.23916 33.4695 5.83896 33.7463C5.47674 33.9968 5.1335 34.2807 4.81896 34.5898C4.26936 35.1299 4.6624 36.0985 5.43631 36.0985Z" fill="black"/>
<path d="M9.18685 34.2351C9.52036 34.1773 9.8629 34.148 10.2046 34.148C10.6909 34.148 11.0853 33.7538 11.0853 33.2674C11.0853 32.7811 10.6909 32.3867 10.2046 32.3867C9.76247 32.3867 9.31892 32.4247 8.88638 32.4996C8.41997 32.5803 8.09372 33.0332 8.16638 33.5012C8.24103 33.9818 8.70708 34.318 9.18685 34.2351Z" fill="black"/>
</svg>
