<svg width="60" height="61" viewBox="0 0 60 61" fill="none" xmlns="http://www.w3.org/2000/svg">
<path d="M33.9087 34.8032L39.0965 25.6169C39.9766 24.0595 39.427 22.0837 37.8696 21.2036C36.311 20.3235 34.3352 20.8731 33.4551 22.4306L28.7114 30.8329L26.2797 27.6958C25.184 26.2825 23.1485 26.0247 21.7352 27.1204C20.3208 28.2173 20.0641 30.2517 21.1598 31.6649L26.5762 38.6517C27.1915 39.4462 28.1383 39.9067 29.1356 39.9067C29.2141 39.9067 29.2926 39.9032 29.3712 39.8974C30.4528 39.8188 31.4231 39.2036 31.9563 38.2603L32.2258 37.7833" stroke="black" stroke-width="1.75781" stroke-miterlimit="10" stroke-linecap="round" stroke-linejoin="round"/>
<path d="M17.352 9.47305C20.2523 7.7211 23.4844 6.5961 26.8781 6.1672V4.50079C26.8781 2.77696 28.2762 1.37891 30 1.37891C31.7238 1.37891 33.1219 2.77696 33.1219 4.50079V6.1672C38.4914 6.84571 43.4555 9.26681 47.3449 13.1551C51.2333 17.0445 53.6543 22.0086 54.3328 27.3781H55.9993C56.8617 27.3781 57.6422 27.7273 58.207 28.2922C58.7719 28.857 59.1211 29.6375 59.1211 30.5C59.1211 32.2238 57.723 33.6219 55.9993 33.6219H54.3328C53.6543 38.9914 51.2333 43.9555 47.3449 47.8449C43.4555 51.7332 38.4914 54.1543 33.1219 54.8328V56.4992C33.1219 58.223 31.7238 59.6211 30 59.6211C28.2762 59.6211 26.8781 58.223 26.8781 56.4992V54.8328C21.5086 54.1543 16.5445 51.7332 12.6551 47.8449C8.7668 43.9555 6.3457 38.9914 5.66719 33.6219H4.00078C3.13828 33.6219 2.35781 33.2727 1.79297 32.7078C1.22813 32.143 0.878906 31.3625 0.878906 30.5C0.878906 28.775 2.27695 27.3781 4.00078 27.3781H5.66719C6.3457 22.0086 8.7668 17.0445 12.6551 13.1551C13.2445 12.5656 13.8574 12.0113 14.4937 11.4898M33.1222 50.3727V47.6125C33.1222 45.8881 31.7244 44.4902 30 44.4902C28.2757 44.4902 26.8778 45.8881 26.8778 47.6125V50.3727C18.2814 49.0273 11.4727 42.2186 10.1272 33.6222H12.8875C14.6119 33.6222 16.0097 32.2243 16.0097 30.5C16.0097 28.7756 14.6119 27.3778 12.8875 27.3778H10.1272C11.4727 18.7814 18.2814 11.9725 26.8778 10.6272V13.3874C26.8778 15.1118 28.2757 16.5096 30 16.5096C31.7244 16.5096 33.1222 15.1118 33.1222 13.3874V10.6272C41.7186 11.9725 48.5275 18.7814 49.8728 27.3778H47.1127C45.3882 27.3778 43.9903 28.7756 43.9903 30.5C43.9903 32.2243 45.3882 33.6222 47.1127 33.6222H49.8728C48.5275 42.2186 41.7186 49.0273 33.1222 50.3727Z" stroke="black" stroke-width="1.75781" stroke-miterlimit="10" stroke-linecap="round" stroke-linejoin="round"/>
</svg>
