<svg width="148" height="147" viewBox="0 0 148 147" fill="none" xmlns="http://www.w3.org/2000/svg">
<g clip-path="url(#clip0_2673_27690)">
<path d="M60.3699 106.387C59.298 99.9786 57.268 93.8212 56.3723 87.3499C55.5648 81.5291 55.2697 75.6845 55.3431 69.8081C54.4898 70.2434 53.6442 70.6751 52.791 71.1104C57.4539 74.5351 62.1245 77.9562 66.7909 81.3886C67.4858 81.8965 69.6669 80.7206 69.4599 79.8356C66.8244 68.5111 66.0622 57.0141 67.0416 45.4434L64.3641 46.6171C69.9997 55.7762 75.6277 64.9388 81.271 74.0943C81.7682 74.9 83.9826 73.6151 84.033 72.8812C84.587 64.9486 86.8493 57.6123 90.8386 50.7325C89.9311 51.0716 89.0236 51.4106 88.1238 51.7461C91.6139 62.9993 95.2648 74.1962 99.1337 85.3195C99.9635 84.7737 100.79 84.2201 101.619 83.6743C83.9088 79.0896 66.6276 95.411 56.7566 108.099C55.4485 109.784 59.1869 108.761 59.8668 107.874C68.65 96.3001 83.4803 81.458 99.4842 85.5299C100.151 85.6959 102.29 84.7917 101.97 83.8848C98.0437 72.7789 94.3237 61.6141 90.8833 50.3472C90.5944 49.4069 88.3912 50.9764 88.1684 51.3607C84.0772 58.3628 81.8001 65.8276 81.2455 73.9193C82.1699 73.5163 83.083 73.1092 84.0075 72.7061C78.3488 63.5578 72.6824 54.4131 67.016 45.2683C66.5296 44.4857 64.392 45.7348 64.3385 46.4421C63.3816 58.1612 64.2129 69.7662 66.6656 81.2601C67.5552 80.7425 68.4449 80.2248 69.3345 79.7071C64.6214 76.3152 59.9084 72.9232 55.1917 69.5235C54.5746 69.0822 52.6413 70.0678 52.6396 70.8258C52.6008 82.5094 53.4365 96.5894 58.7478 107.218C59.003 107.725 60.4618 106.904 60.3699 106.387Z" fill="white"/>
<path d="M61.5439 38.2011C59.9144 32.7824 57.7058 26.783 54.9681 21.8343C54.5671 21.1146 52.3103 22.2885 52.5276 23.0752C54.0731 28.5144 56.6963 34.3203 59.3608 39.3126C59.7071 39.955 61.752 38.908 61.5439 38.2011Z" fill="white"/>
<path d="M86.0987 39.7636C88.394 36.4873 89.5145 32.3755 91.0515 28.6957C92.7185 24.6935 94.4603 20.7312 96.2025 16.75C96.7116 15.5966 93.7736 16.5927 93.4065 17.4089C91.6273 21.3512 89.9531 25.338 88.3127 29.3371C87.0011 32.538 84.4901 36.6346 84.5387 40.1266C84.5436 40.7786 85.9487 39.9832 86.1141 39.7565L86.0987 39.7636Z" fill="white"/>
<path d="M111.479 72.7219C117.648 73.3414 124.33 71.936 130.172 70.0528C131.09 69.7557 132.61 67.8226 130.723 68.3661C124.733 70.0937 118.854 70.8161 112.676 71.519C112.337 71.5553 110.625 72.6341 111.468 72.7178L111.479 72.7219Z" fill="white"/>
<path d="M105.802 96.417C107.355 98.6463 110.079 100.078 112.261 101.649C114.852 103.517 117.434 105.406 120.092 107.177C120.914 107.719 123.755 105.973 122.875 105.328C120.441 103.556 117.92 101.899 115.411 100.227C112.876 98.5395 110.349 96.4465 107.462 95.4467C107.116 95.3273 105.43 95.8801 105.802 96.417Z" fill="white"/>
<path d="M82.4006 104.825C82.1497 108.457 83.2449 112.208 83.8636 115.78C84.5544 119.767 84.8474 124.024 86.1487 127.857C86.4187 128.657 88.7959 127.38 88.7996 126.686C88.8263 123.075 87.9348 119.359 87.2583 115.824C86.5296 111.976 86.1757 107.449 84.2074 104.029C83.9 103.49 82.4324 104.352 82.4006 104.825Z" fill="white"/>
<path d="M55.4906 114.458C52.8364 116.303 51.1206 119.179 49.3162 121.824C47.3066 124.771 44.9586 127.894 43.7447 131.264C43.3139 132.465 45.821 131.287 46.12 130.886C48.1772 128.141 49.7841 125.093 51.6852 122.234C52.7522 120.633 53.8566 119.053 54.9794 117.491C55.7474 116.432 56.677 115.7 56.6754 114.373C56.6781 113.858 55.6682 114.338 55.4982 114.455L55.4906 114.458Z" fill="white"/>
<path d="M43.7995 87.4826C37.0584 88.822 30.3504 90.3328 23.6021 91.6569C22.4971 91.8731 20.5507 94.0332 22.6338 93.5292C29.4595 91.87 36.3184 90.3822 43.1512 88.7383C43.8304 88.5711 45.2551 87.1964 43.7995 87.4826Z" fill="white"/>
<path d="M44.5932 59.8836C43.0579 58.0944 40.0483 57.2731 37.9415 56.2832C35.3446 55.0639 32.7282 53.863 30.1676 52.5613C28.9338 51.9401 26.1004 54.383 26.9406 54.7016C29.7393 55.7521 32.5082 56.9193 35.2782 58.0486C37.8158 59.0806 40.4107 60.5159 43.142 60.8407C43.4102 60.8745 44.9605 60.3105 44.5932 59.8836Z" fill="white"/>
<path d="M103.93 55.3498C109.366 51.712 115.255 48.2649 120.26 44.0431C121.466 43.0224 119.813 42.9052 119.055 43.3431C113.326 46.5938 107.993 50.7914 102.632 54.6093C100.912 55.832 102.807 56.1074 103.934 55.3574L103.93 55.3498Z" fill="white"/>
</g>
<defs>
<clipPath id="clip0_2673_27690">
<rect width="110.834" height="110.41" fill="white" transform="translate(0 46.8408) rotate(-25)"/>
</clipPath>
</defs>
</svg>
