<svg width="138" height="169" viewBox="0 0 138 169" fill="none" xmlns="http://www.w3.org/2000/svg">
<g clip-path="url(#clip0_2673_27790)">
<path d="M108.707 86.5269C105.769 85.4232 102.832 84.3196 99.8944 83.2159C101.696 82.3496 103.482 81.4549 105.288 80.5942C106.941 79.8072 107.657 77.0273 105.534 76.227C103.249 75.3712 100.968 74.5095 98.6833 73.6536C109.094 63.6176 119.645 53.7268 129.764 43.3907C130.677 42.457 130.33 40.568 129.09 40.0969C126.794 39.2284 124.515 38.3178 122.233 37.4202C123.68 35.9748 125.153 34.5518 126.585 33.0881C127.211 32.4523 127.292 31.7418 127.058 31.1343C126.954 30.5815 126.619 30.0826 125.913 29.8057C111.068 23.9946 96.2283 18.1791 81.3861 12.3693C80.5127 12.027 79.5259 12.1443 78.8847 12.9012C64.5576 29.786 50.6539 47.0515 36.053 63.7021C35.1019 64.789 35.3269 66.948 36.8224 67.4698C38.8916 68.1907 40.9622 68.9016 43.0343 69.6239C41.7698 71.0856 40.5096 72.5529 39.2321 74.0047C38.2753 75.0889 38.5074 77.2477 40 77.7682C42.7207 78.7183 45.4484 79.661 48.1719 80.6053C34.502 95.4922 20.3359 109.914 6.81108 124.934C4.83215 127.136 7.69494 129.67 9.96384 128.506C13.9209 126.476 17.8808 124.439 21.835 122.407C17.8504 126.651 13.8833 130.91 9.98441 135.234C8.00261 137.434 10.8683 139.97 13.1372 138.806C44.7638 122.565 76.3712 106.186 108.465 90.8997C110.119 90.1128 110.832 87.3315 108.711 86.5326L108.707 86.5269ZM40.3791 119.468C40.332 118.403 40.2604 117.338 40.2448 116.274C40.2318 115.205 40.2187 114.121 40.0586 113.064C41.061 112.551 42.0663 112.039 43.0703 111.531C42.9188 112.611 42.9139 113.732 42.8931 114.65C42.8744 115.415 42.7256 116.971 43.0173 118.124C42.137 118.573 41.2581 119.021 40.3777 119.471L40.3791 119.468ZM31.7562 123.872C31.6752 122.937 31.6342 122.001 31.6319 121.072C31.629 120.486 31.7274 119.687 31.7005 118.936C32.4584 118.135 33.2104 117.331 33.9712 116.531C33.9336 117.477 33.9677 118.428 34.012 119.394C34.0587 120.334 33.8677 121.637 34.1585 122.636C33.3563 123.048 32.5541 123.461 31.7533 123.87L31.7562 123.872ZM29.8614 121.497C29.795 122.621 29.7913 123.725 29.9047 124.821C27.4952 126.057 25.0844 127.295 22.6735 128.534C25.0677 125.967 27.4734 123.413 29.8835 120.865C29.8798 121.095 29.8715 121.312 29.8614 121.497ZM35.7893 119.237C35.6577 117.979 35.4738 116.764 35.1301 115.572C36.1893 115.029 37.2529 114.492 38.3135 113.946C38.2272 114.89 38.1825 115.835 38.1277 116.772C38.052 118.042 37.9879 119.324 38.2023 120.572C37.4981 120.935 36.7895 121.292 36.0824 121.654C36.06 120.811 35.858 119.916 35.7893 119.237ZM44.9525 115.673C44.8675 114.177 45.104 112.267 44.8862 110.596C46.1868 109.933 47.4917 109.269 48.7924 108.606C48.6068 109.794 48.5201 110.998 48.4767 112.23C48.442 113.169 48.3331 114.323 48.6287 115.26C47.4502 115.86 46.2717 116.46 45.0931 117.06C45.048 116.421 44.9609 115.855 44.9496 115.672L44.9525 115.673ZM50.2012 112.079C50.1676 110.676 50.2247 109.304 50.1029 107.937C51.4263 107.263 52.7495 106.582 54.0758 105.91C54.0043 106.882 54.0333 107.881 54.0107 108.772C53.9849 109.834 53.7904 111.293 54.0527 112.492C52.8287 113.113 51.6105 113.737 50.3894 114.36C50.3636 113.584 50.2188 112.784 50.1997 112.075L50.2012 112.079ZM55.769 109.263C55.7259 107.99 55.8581 106.476 55.615 105.125C56.8248 104.512 58.0318 103.904 59.2445 103.292C59.1938 104.027 59.2047 104.768 59.1931 105.436C59.1707 106.728 59.0308 108.399 59.45 109.758C58.2941 110.341 57.1383 110.93 55.981 111.515C55.9282 110.745 55.7951 109.964 55.7719 109.264L55.769 109.263ZM61.0559 105.93C60.984 104.836 61.0687 103.599 60.994 102.415C62.2621 101.776 63.5347 101.149 64.8012 100.505C64.7628 101.586 64.7702 102.667 64.7447 103.75C64.7238 104.757 64.5592 106.013 64.764 107.095C63.6166 107.674 62.4648 108.241 61.3188 108.817C61.2986 107.837 61.1119 106.82 61.0544 105.926L61.0559 105.93ZM66.5335 103.598C66.449 102.331 66.3518 101.075 66.1376 99.8416C67.2325 99.2907 68.3302 98.7412 69.4279 98.1917C69.4316 98.8286 69.4596 99.4663 69.4587 100.083C69.4555 101.416 69.1146 103.33 69.5854 104.693C68.6367 105.167 67.6866 105.637 66.7409 106.113C66.7294 105.241 66.5846 104.344 66.5349 103.596L66.5335 103.598ZM71.0813 101.265C71.0627 100.104 71.0683 98.7363 70.8878 97.4621C72.0367 96.887 73.1869 96.3091 74.3387 95.7355C74.3348 96.5436 74.3712 97.3565 74.4204 98.1721C74.4791 99.2419 74.4949 100.802 74.8881 102.045C73.6242 102.676 72.3603 103.307 71.0964 103.937C71.2237 103.063 71.0963 102.093 71.0826 101.262L71.0813 101.265ZM75.9762 98.0341C75.8286 97.0467 75.7696 96.0516 75.6763 95.0616C77.0794 94.3619 78.4766 93.6522 79.8826 92.9538C79.8056 93.9374 79.7758 94.9258 79.736 95.9129C79.6957 96.9604 79.6145 98.3451 79.8527 99.5578C78.7634 100.097 77.68 100.646 76.5893 101.188C76.4529 100.089 76.1112 98.937 75.9734 98.0328L75.9762 98.0341ZM81.4034 95.7711C81.3402 94.5921 81.3459 93.4246 81.2587 92.2662C82.3835 91.7118 83.5172 91.1759 84.6407 90.6245C84.6147 91.6717 84.643 92.7235 84.6832 93.7951C84.7223 94.8021 84.6315 96.0146 84.72 97.1629C83.7258 97.6512 82.7257 98.1296 81.733 98.6222C81.6368 97.6308 81.4504 96.6284 81.4034 95.7711ZM86.2506 93.6627C86.1523 92.4312 86.0472 91.2215 85.8878 90.0215C87.1249 89.4101 88.3707 88.8172 89.6121 88.2115C89.5313 89.4252 89.6587 90.692 89.7377 91.7787C89.7901 92.5208 89.8276 93.6055 90.0368 94.5974C88.8835 95.1595 87.7228 95.7075 86.568 96.2726C86.4759 95.3616 86.3123 94.4521 86.2492 93.6656L86.2506 93.6627ZM91.3307 91.637C91.1527 90.3354 91.1246 88.9127 90.9544 87.5576C91.9941 87.0482 93.0367 86.5473 94.0793 86.0393C94.3195 86.1291 94.5641 86.2245 94.8072 86.3157C94.6865 87.2499 94.6591 88.2037 94.6685 89.1322C94.6788 90.0219 94.5517 91.3027 94.9018 92.2442C93.8649 92.7478 92.8279 93.2442 91.7953 93.7463C91.6311 92.9936 91.4185 92.2534 91.3336 91.6384L91.3307 91.637ZM96.3702 88.9854C96.3327 88.286 96.3021 87.5722 96.2487 86.8616C98.0772 87.5532 99.9056 88.2448 101.733 88.9392C100.024 89.7533 98.3251 90.5901 96.6162 91.4113C96.6067 90.5719 96.4017 89.6676 96.3673 88.984L96.3702 88.9854ZM118.284 41.3527C118.444 42.6317 118.752 43.9205 118.924 45.0943C118.975 45.4469 118.913 46.8054 119.071 47.8904C118.054 48.8637 117.035 49.8328 116.012 50.8034C115.927 50.3667 115.838 49.9531 115.774 49.5979C115.486 48.0081 115.118 46.423 114.699 44.8562C115.898 43.695 117.092 42.5209 118.284 41.3527ZM119.726 40.9713C121.271 41.574 122.814 42.1824 124.357 42.788C123.226 43.8889 122.088 44.9826 120.951 46.0735C120.763 44.4601 120.242 42.5346 119.726 40.9713ZM113.641 45.8778C113.739 46.9238 113.913 47.9667 114.062 49.0261C114.219 50.1427 114.31 51.2564 114.353 52.3798C113.387 53.2988 112.421 54.2179 111.453 55.1327C111.37 54.3653 111.267 53.6098 111.194 52.904C111.054 51.5598 110.927 50.1148 110.715 48.6974C111.694 47.7594 112.67 46.82 113.644 45.8792L113.641 45.8778ZM109.365 49.9969C109.427 50.7432 109.492 51.488 109.535 52.2045C109.624 53.6777 109.577 55.2889 109.64 56.8532C108.859 57.5901 108.078 58.3298 107.296 59.0695C107.217 58.4645 107.116 57.8772 107.039 57.3699C106.829 55.8849 106.606 54.3944 106.346 52.9105C107.356 51.9445 108.357 50.9672 109.367 50.0012L109.365 49.9969ZM105.278 53.9309C105.276 54.6829 105.33 55.4437 105.404 56.2142C105.506 57.2831 105.602 58.3493 105.655 59.4235C105.674 59.8214 105.659 60.2214 105.648 60.6155C104.851 61.3657 104.055 62.1201 103.258 62.8702C103.219 62.4771 103.175 62.11 103.149 61.8158C103.008 60.0893 102.823 58.3133 102.503 56.5834C103.428 55.6983 104.347 54.8133 105.275 53.9295L105.278 53.9309ZM101.331 57.711C101.362 58.8964 101.512 60.0879 101.579 61.2654C101.643 62.3308 101.629 63.4051 101.566 64.4703C100.629 65.3571 99.6942 66.2482 98.7573 67.135C98.6793 66.4983 98.557 65.8726 98.5004 65.3318C98.3476 63.8959 98.1787 62.4345 97.883 61.0088C99.0298 59.9048 100.177 58.808 101.328 57.7096L101.331 57.711ZM96.7785 62.0689C96.8063 62.9812 96.8856 63.8968 96.9605 64.8067C97.0454 65.9033 96.8651 67.4512 97.1095 68.7025C96.2108 69.554 95.3107 70.4084 94.4135 71.2642C94.2394 70.6137 94.0039 69.9732 93.8891 69.4653C93.6015 68.2004 93.4176 66.8888 93.1527 65.6063C94.3656 64.4304 95.5641 63.2405 96.7828 62.0673L96.7785 62.0689ZM91.9482 66.7791C92.0392 67.6111 92.193 68.4373 92.3533 69.2204C92.4676 69.7887 92.547 70.6151 92.7091 71.4168C91.3827 70.9187 90.0593 70.4221 88.7329 69.924C89.8018 68.8719 90.8736 67.8284 91.9469 66.782L91.9482 66.7791ZM79.6549 16.2303C81.406 16.9135 83.1557 17.5995 84.9054 18.2856C96.9992 23.0178 109.094 27.7472 121.19 32.4837C108.45 44.832 95.3489 56.8013 82.7395 69.2906C81.7102 70.3116 82.129 72.4205 83.4841 72.9323C88.5093 74.837 93.5329 76.7375 98.5594 78.6393C71.9508 91.3552 45.669 104.794 19.4263 118.27C33.1228 103.535 47.2079 89.1571 60.5533 74.0901C61.5143 73.0044 61.2777 70.8328 59.7837 70.3153C53.8537 68.2601 47.9236 66.2049 41.9923 64.1598C50.3354 54.4595 58.4078 44.5407 66.467 34.6049C67.8454 32.9051 81.2146 16.8399 79.6549 16.2303ZM50.716 76.3763C50.5623 75.3645 50.3973 74.3617 50.2978 73.3401C50.2574 72.9284 50.2299 72.5192 50.2181 72.1068C51.6517 72.6026 53.0839 73.1013 54.5146 73.5957C53.5815 74.6377 52.6499 75.684 51.7096 76.719C51.3788 76.6038 51.0438 76.4901 50.7131 76.3749L50.716 76.3763ZM48.8722 71.6423C48.8365 72.1318 48.8409 72.6191 48.8263 72.9904C48.7884 73.9142 48.8465 74.8446 48.9488 75.7639C47.6906 75.3306 46.4325 74.8972 45.1728 74.4595C46.0815 73.4094 46.9901 72.3593 47.8916 71.3022C48.2165 71.4146 48.5444 71.5285 48.8722 71.6423Z" fill="#EB5B31"/>
<path d="M99.6619 98.0263C86.1075 103.767 73.0845 111.306 59.8617 117.805C47.7154 123.776 35.4324 129.493 23.4749 135.846C23.3131 135.933 23.4545 136.208 23.6179 136.132C35.9383 130.619 48.0261 124.57 60.147 118.623C73.3117 112.157 87.4126 106.221 99.7917 98.288C99.9292 98.2003 99.8155 97.9641 99.6605 98.0292L99.6619 98.0263Z" fill="#2D2D2D"/>
<path d="M38.6312 55.7141C44.376 49.1931 49.8353 42.4179 55.2977 35.6584C61.0087 28.586 67.8307 21.2844 71.9983 13.1608C72.0484 13.0634 71.9127 12.9843 71.848 13.0604C65.6135 19.8435 60.4682 27.9246 54.6731 35.1138C49.2137 41.8819 43.4738 48.4517 38.4457 55.5542C38.356 55.6826 38.5257 55.8386 38.6341 55.7155L38.6312 55.7141Z" fill="#2D2D2D"/>
<path d="M37.0301 57.3399C36.4011 58.0491 35.6074 58.9401 35.3075 59.8493C35.2734 59.9579 35.3692 60.0536 35.4756 59.9938C36.3481 59.5009 37.0461 58.4251 37.2707 57.4513C37.3015 57.3126 37.1216 57.2374 37.0315 57.337L37.0301 57.3399Z" fill="#2D2D2D"/>
<path d="M41.1828 82.3927C30.0583 93.0404 19.7182 104.78 9.45723 116.265C9.36148 116.369 9.52081 116.502 9.61954 116.407C20.6757 105.687 31.1074 94.0447 41.3061 82.5051C41.3821 82.4201 41.2575 82.3178 41.1814 82.3956L41.1828 82.3927Z" fill="#2D2D2D"/>
<path d="M106.164 71.2837C114.515 64.798 123.581 57.4517 130.396 49.3193C130.458 49.249 130.363 49.1288 130.286 49.1951C122.008 56.0905 113.466 63.3121 105.964 71.0594C105.842 71.1871 106.027 71.393 106.166 71.288L106.164 71.2837Z" fill="#2D2D2D"/>
</g>
<defs>
<clipPath id="clip0_2673_27790">
<rect width="81.2912" height="148.023" fill="white" transform="translate(63.8086 0.129395) rotate(25.5353)"/>
</clipPath>
</defs>
</svg>
