<svg width="140" height="112" viewBox="0 0 140 112" fill="none" xmlns="http://www.w3.org/2000/svg">
<path fill-rule="evenodd" clip-rule="evenodd" d="M9.80469 66.9091C9.80469 66.9091 10.8757 108.251 11.8052 107.722C12.7347 107.193 68.8397 106.84 71.9819 106.523C75.1241 106.205 127.056 105.464 127.319 104.5C127.582 103.536 128.218 65.992 127.319 65.3217C126.42 64.6515 75.0028 63.0289 65.1115 64.1106C55.2302 65.2042 9.80469 66.9091 9.80469 66.9091Z" fill="white"/>
<path fill-rule="evenodd" clip-rule="evenodd" d="M19.2665 76.1145C19.0038 75.9381 18.6602 75.9616 18.4178 76.1851C16.2657 77.9605 16.2253 81.1 17.2457 83.4281C18.4582 86.1913 21.1659 87.6141 23.7221 85.5093C24.1869 85.0978 24.5809 84.6863 24.8941 84.2394C26.9148 81.441 26.3591 78.4074 24.8032 76.6907C23.4089 75.1503 21.1255 74.5154 19.2665 76.1145ZM18.5491 79.5479C18.4986 80.4415 18.7714 81.3587 19.1957 82.1112C19.8525 83.2753 21.0144 84.0748 22.0954 83.0283C23.904 81.5115 23.9747 79.6772 23.126 78.5602C22.1662 77.2903 20.3374 77.0199 18.9937 79.1716C18.8926 79.3715 18.731 79.5009 18.5491 79.5479Z" fill="black"/>
<path fill-rule="evenodd" clip-rule="evenodd" d="M34.0846 93.3165C33.8926 93.1166 33.6198 93.0343 33.3571 93.1401C31.8214 93.5752 30.9323 94.5041 30.4473 95.5505C29.5784 97.4201 30.1038 99.9011 31.3869 101.712C33.3773 104.499 37.0449 105.58 39.6213 101.277C41.3692 97.9492 40.0255 94.9391 37.6916 93.7045C36.5903 93.1166 35.2768 92.9167 34.0846 93.3165ZM32.074 97.0438C31.9932 98.0315 32.5084 99.0427 33.1753 99.8541C34.2968 101.206 36.1659 101.841 37.439 99.5601C38.3685 98.0903 37.7421 96.6558 36.7014 95.9503C35.489 95.1272 33.7916 95.0567 32.7408 96.6558C32.5893 96.9263 32.3266 97.0556 32.074 97.0438Z" fill="black"/>
<path fill-rule="evenodd" clip-rule="evenodd" d="M38.6422 70.4228C38.5815 70.4346 38.5209 70.4699 38.4603 70.5051C35.3181 72.1513 35.1969 75.5965 36.4194 78.148C37.3489 80.0999 39.1676 81.4521 41.0973 81.3933C41.8955 81.3698 42.7139 81.064 43.5121 80.4761C46.2703 78.2303 46.1491 74.4794 44.5022 71.9985C43.4818 70.4581 41.9258 69.4352 40.3598 69.6703C39.7839 69.7644 39.1979 69.9878 38.6422 70.4228ZM38.3189 72.8921C37.4904 74.0914 37.6924 75.5847 38.3795 76.7253C38.7331 77.3132 39.2282 77.7717 39.7839 78.0775C40.4709 78.4537 41.2893 78.4537 42.0471 77.854C43.5323 76.8193 43.3908 74.8792 42.6533 73.5153C41.8349 72.0102 40.2587 71.0696 38.7735 72.6334C38.6523 72.7863 38.4906 72.8803 38.3189 72.8921Z" fill="black"/>
<path fill-rule="evenodd" clip-rule="evenodd" d="M54.1302 80.4405C53.8877 80.2759 53.5644 80.2876 53.3219 80.4875C52.2105 81.2988 51.6447 82.3688 51.4225 83.4506C51.0486 85.2261 51.6953 87.1662 52.8572 88.683C53.9382 90.0822 55.4942 91.0346 57.0501 91.1993C58.2019 91.3168 59.3638 90.9641 60.3944 90.0822C61.6674 88.9299 62.2231 87.4719 62.2433 85.9904C62.2635 83.8974 61.1926 81.7221 59.5861 80.511C58.2626 79.5116 56.646 79.0883 55.1305 79.8055C54.7869 79.9702 54.4535 80.1818 54.1302 80.4405ZM53.2613 84.4383C53.3724 85.3201 53.8473 86.1667 54.4737 86.837C55.1001 87.5072 55.9185 87.9893 56.7369 88.1539C57.4341 88.295 58.1514 88.1774 58.7576 87.613C59.6366 86.8487 59.7781 85.767 59.4952 84.791C59.1517 83.5917 58.3232 82.4864 57.2926 82.0631C56.06 81.5575 54.6354 82.0161 53.4836 84.1678C53.423 84.2737 53.3522 84.3677 53.2613 84.4383Z" fill="black"/>
<path fill-rule="evenodd" clip-rule="evenodd" d="M78.4129 68.8947C78.2816 68.8241 78.1301 68.8006 77.9785 68.8241C76.3417 69.024 75.4324 69.9176 74.9676 70.9524C74.22 72.622 74.7656 75.0207 76.0588 76.8315C76.9884 78.1249 78.3119 79.0538 79.7062 79.2654C80.6964 79.4183 81.737 79.1949 82.7171 78.4894C83.1818 78.1484 83.6365 77.6781 84.0709 77.0784C85.7077 74.6562 85.2429 72.1987 83.6971 70.5291C82.3533 69.0946 80.2215 68.3303 78.4129 68.8947ZM76.6953 71.8342C76.5741 72.2223 76.6347 72.6338 76.7459 73.0571C76.9176 73.7391 77.3218 74.3858 77.8168 74.9502C78.2008 75.3852 78.6655 75.738 79.1606 75.9849C80.0901 76.4435 81.151 76.3141 82.0502 75.0795C83.0202 73.8684 82.4038 72.528 81.4339 71.7519C80.2619 70.8113 78.5847 70.388 77.4632 71.6108C77.251 71.846 76.958 71.9283 76.6953 71.8342Z" fill="black"/>
<path fill-rule="evenodd" clip-rule="evenodd" d="M82.2256 92.9882C80.9324 92.8001 80.023 93.2704 79.3865 93.9642C78.5378 94.9048 78.2448 96.4569 78.4267 98.1148C78.5681 99.3965 79.0228 100.737 79.7098 101.83C81.3365 104.441 84.2362 105.816 87.3481 102.736C87.7826 102.301 88.217 101.76 88.6515 101.101C89.288 100.125 89.5002 99.0672 89.3284 98.009C89.0455 96.2923 87.732 94.5168 86.0346 93.5879C84.7919 92.9059 83.4077 92.6237 82.2256 92.9882ZM80.407 96.8449C80.4575 97.9149 80.9425 99.1848 81.6194 100.114C82.5489 101.395 83.9937 101.972 85.6204 100.372C85.9437 100.055 86.2872 99.6787 86.6308 99.2083C87.0652 98.6322 86.8227 97.9032 86.4186 97.28C85.8831 96.4334 85.0546 95.6809 84.1554 95.3164C83.0339 94.8578 81.8114 94.9401 81.1344 96.3628C80.993 96.6686 80.7 96.8567 80.407 96.8449Z" fill="black"/>
<path fill-rule="evenodd" clip-rule="evenodd" d="M92.7588 82.7941C92.7083 82.8764 92.6477 82.9705 92.6073 83.0528C91.991 84.1816 91.991 85.5103 92.3446 86.7449C92.8195 88.4028 94.0622 89.8608 95.4262 90.484C96.578 91.0131 97.8106 90.9191 98.8816 90.1077C102.074 87.4269 101.155 83.1939 98.8412 81.2303C97.5985 80.1838 96.0223 79.784 94.628 80.6071C93.9511 81.0186 93.2842 81.7006 92.7588 82.7941ZM95.8808 82.606C94.6886 83.2174 94.2138 84.0522 94.2441 84.9459C94.2744 85.863 94.8907 86.6978 95.5777 87.2622C96.1435 87.7208 96.8205 87.9912 97.3762 87.5444C98.4269 86.7449 98.5482 85.5808 98.1744 84.6049C97.8611 83.7936 97.3155 83.0646 96.6386 82.7706C96.386 82.653 96.1334 82.5942 95.8808 82.606Z" fill="black"/>
<path fill-rule="evenodd" clip-rule="evenodd" d="M106.769 69.6371C105.849 69.8487 105.213 70.3896 104.799 71.0598C103.839 72.5649 104.081 75.0929 105.172 77.0918C106.799 80.0784 110.113 81.7363 113.094 77.9031C114.791 75.4574 114.468 72.9882 113.094 71.2715C111.619 69.4372 108.911 68.4848 106.769 69.6371ZM108.385 71.2597C108.294 71.3067 108.193 71.3302 108.082 71.3302C107.193 71.3773 106.648 71.7183 106.385 72.2592C106.223 72.6001 106.233 73.0234 106.294 73.4585C106.385 74.164 106.718 74.8812 107.133 75.5279C108.042 76.9389 109.669 77.8678 111.093 75.8924C112.154 74.599 111.699 73.1763 110.75 72.3062C110.083 71.6948 109.234 71.2832 108.385 71.2597Z" fill="black"/>
<path fill-rule="evenodd" clip-rule="evenodd" d="M112.427 92.3283C112.296 92.1049 112.094 91.9638 111.852 91.9403C110.144 91.6933 109.033 92.2225 108.356 92.975C107.042 94.433 107.224 97.1727 108.426 99.3244C110.164 102.405 113.731 104.087 116.57 99.6419C117.984 97.1492 117.156 94.7505 115.256 93.3748C114.438 92.7751 113.428 92.3988 112.427 92.3283ZM109.588 95.8558C109.7 96.479 110.013 97.1256 110.397 97.7018C111.346 99.1598 113.094 100.112 114.448 97.8547C115.236 96.6906 114.307 95.5971 113.266 95.0327C112.023 94.3507 110.397 94.2096 109.649 95.7382C109.629 95.7852 109.609 95.8205 109.588 95.8558Z" fill="black"/>
<path fill-rule="evenodd" clip-rule="evenodd" d="M127.008 81.7228C126.412 80.9703 126.149 80.0767 125.624 79.3359C125.341 78.9362 124.987 78.5952 124.543 78.2895C122.33 76.7962 120.36 77.9837 119.188 80.0414C118.511 81.229 118.157 82.7693 118.238 84.1921C118.329 85.9088 118.996 87.4726 120.269 88.2722C121.41 88.9894 123.158 89.2011 125.553 87.9312C126.058 87.6608 126.553 87.2962 126.998 86.8494C127.422 86.4261 127.806 85.9441 128.119 85.4502C128.392 85.0857 128.352 84.5331 128.038 84.2156C127.725 83.8981 127.25 83.9452 126.977 84.3214C126.684 84.6624 126.341 84.9681 125.967 85.2386C125.624 85.4972 125.24 85.6971 124.866 85.8265C124.088 86.1087 123.421 86.2027 122.845 86.2145C121.916 86.2263 121.36 85.7794 121.107 85.1092C120.956 84.7212 120.915 84.2626 120.925 83.8041C120.936 83.0515 121.097 82.2637 121.4 81.6053C121.845 80.6646 122.593 79.9238 123.613 80.4412C123.855 80.5588 124.068 80.6999 124.239 80.8763C124.866 81.5347 125.27 82.3696 125.987 83.0163C126.29 83.3455 126.765 83.322 127.048 82.9692C127.331 82.6047 127.311 82.0521 127.008 81.7228Z" fill="black"/>
<path fill-rule="evenodd" clip-rule="evenodd" d="M12.2799 100.536C13.2297 99.6895 13.9066 100.16 14.4421 100.971C14.624 101.253 14.7957 101.583 14.9675 101.924C15.1392 102.276 15.3211 102.629 15.4828 103.005C15.7758 103.734 16.0486 104.463 16.1698 105.169C16.2607 105.698 16.3517 106.168 16.3012 106.58C16.1799 107.038 16.3921 107.532 16.7861 107.673C17.1802 107.814 17.6045 107.568 17.7359 107.097C18.0693 106.309 18.1804 105.204 18.1299 103.981C18.1097 103.323 18.0087 102.653 17.8571 101.994C17.7055 101.312 17.4732 100.654 17.1802 100.078C16.9579 99.6425 16.6851 99.2427 16.4022 98.9135C16.1092 98.5842 15.8162 98.2903 15.4929 98.0904C14.1592 97.2791 12.6033 97.1733 11.2393 99.278C10.9463 99.619 10.9463 100.172 11.2393 100.513C11.502 100.877 11.9869 100.877 12.2799 100.536Z" fill="black"/>
<path fill-rule="evenodd" clip-rule="evenodd" d="M131.428 55.7484C131.488 53.4555 131.246 51.4331 130.619 50.0574C130.367 49.493 129.801 48.8228 128.77 48.5288C127.235 48.0938 123.345 48.4936 122.456 48.4112C119.01 48.0703 115.555 47.8469 112.089 47.7058C108.644 47.5647 105.189 47.5059 101.743 47.4941C86.9115 47.4588 72.0795 48.423 57.2374 48.7522C53.5395 48.8345 49.8517 48.8816 46.1538 48.8581C39.5764 48.811 32.3423 48.082 25.2799 48.1761C20.41 48.2349 15.631 48.6934 11.2056 50.0221C10.5994 50.1985 10.2357 50.9158 10.3772 51.6095C10.5287 52.315 11.1349 52.7383 11.7411 52.5737C16.0048 51.3978 20.6019 51.0686 25.2799 51.0921C32.322 51.1392 39.5461 52.0093 46.1033 52.1739C49.8214 52.2679 53.5395 52.2915 57.2576 52.2797C72.0795 52.2092 86.8913 51.4684 101.693 51.7506C105.098 51.8094 108.513 51.9152 111.918 52.1033C115.313 52.2797 118.707 52.5384 122.082 52.9029C122.739 52.9734 126.093 52.9734 127.336 52.9734C127.467 53.7142 127.467 54.6196 127.437 55.6073C127.326 59.2406 126.497 63.6852 126.376 66.3543C126.073 73.7267 125.416 81.7106 125.436 89.4945C125.446 93.9038 125.679 98.2544 126.285 102.405C125.709 102.393 125.234 102.382 125.133 102.382C123.264 102.393 121.365 102.287 119.485 102.299C118.637 102.311 117.788 102.334 116.939 102.405C114.565 102.593 112.191 102.746 109.806 102.875C104.219 103.169 98.6114 103.346 93.0443 103.663C87.4975 103.981 81.9506 104.216 76.4038 104.416C63.4308 104.874 50.4478 105.133 37.4647 105.697C32.221 105.933 25.2597 104.839 18.9854 105.109C16.6717 105.204 14.4489 105.497 12.4181 106.074C11.9432 100.406 11.7512 94.3271 11.6906 88.1188C11.6704 86.0964 11.6704 84.074 11.6603 82.0398C11.6502 80.0174 11.6401 77.995 11.6401 75.9725C11.6502 73.2564 11.6704 70.552 11.7512 67.8946C11.8826 63.7205 12.1049 59.6639 12.5696 55.7954C12.6909 55.0899 12.2867 54.3962 11.6805 54.2551C11.0743 54.114 10.4782 54.5843 10.3569 55.2898C9.30618 60.1342 8.48779 65.3078 8.04323 70.6696C7.76033 74.0912 7.59867 77.5717 7.61888 81.0521C7.63909 84.5208 7.86137 87.9895 8.16448 91.4111C8.62924 96.7376 9.3769 101.911 10.2054 106.756C10.2155 106.861 10.2458 106.967 10.2761 107.061C10.074 107.391 10.0033 107.814 10.1145 108.225C10.3064 108.919 10.943 109.295 11.5391 109.072C13.782 108.261 16.3483 107.955 19.046 107.896C25.3405 107.767 32.2816 109.001 37.5456 108.884C50.5387 108.566 63.5117 108.578 76.4846 108.343C82.0618 108.237 87.6288 108.096 93.206 107.861C98.7831 107.626 104.391 107.532 109.968 107.296C112.382 107.202 114.797 107.073 117.202 106.897C117.96 106.85 118.728 106.826 119.495 106.826C121.375 106.826 123.274 106.944 125.133 106.955C125.366 106.955 127.467 107.038 128.306 107.061C128.488 107.061 128.619 107.073 128.68 107.073C128.781 107.073 128.851 107.061 128.882 107.061C130.862 106.85 130.69 104.557 130.629 104.263C129.74 99.5948 129.457 94.5976 129.447 89.4945C129.437 81.7929 130.084 73.8913 130.377 66.5895C130.518 63.8733 131.327 59.4052 131.428 55.7484Z" fill="black"/>
<path fill-rule="evenodd" clip-rule="evenodd" d="M18.4004 41.2287C14.4802 41.0523 6.89247 39.7354 3.77047 43.2393C1.15366 46.1789 -0.159806 62.5699 4.20492 65.6035C9.38804 69.2133 30.2822 65.6623 37.1122 65.4036C58.764 64.5688 80.8403 61.688 102.492 63.0755C109.413 63.5223 128.246 66.6852 133.914 64.6746C137.764 63.3106 137.794 45.2265 136.4 43.4039C135.399 42.0988 132.671 41.5461 131.277 41.1346C123.548 38.8182 114.728 40.2998 106.847 40.4174C94.8842 40.5937 82.8004 39.6178 70.8681 40.7819C54.1366 42.4045 36.2129 42.0165 18.4004 41.2287Z" fill="white"/>
<path fill-rule="evenodd" clip-rule="evenodd" d="M18.4378 39.9105C15.7098 39.7577 11.2339 39.0757 7.64717 39.7577C5.73761 40.1222 4.06041 40.8865 2.8884 42.1799C2.17105 42.9794 1.47391 44.5903 0.96873 46.6833C0.271586 49.5876 -0.112348 53.4913 0.0291019 57.0775C0.140241 59.8055 0.574694 62.3452 1.36277 64.203C1.89826 65.4612 2.61561 66.4253 3.46431 67.025C5.38398 68.389 9.31426 68.9534 13.972 68.9534C22.1559 68.9769 32.6938 67.4836 37.1697 67.3542C52.3048 66.8722 67.6521 65.4024 82.9186 65.0496C89.4353 64.9085 95.9319 64.9438 102.388 65.3906C106.955 65.6846 116.674 67.1779 124.414 67.5659C128.708 67.7893 132.426 67.6247 134.497 66.8839C135.558 66.5077 136.548 65.5082 137.276 63.862C138.023 62.1924 138.559 59.7232 138.862 57.0423C139.306 53.0445 139.276 48.5293 138.953 45.6721C138.731 43.7437 138.246 42.415 137.852 41.8977C137.367 41.2745 136.639 40.7101 135.77 40.2868C134.457 39.6519 132.78 39.2638 131.759 38.9699C128.506 38.0175 125.06 37.6882 121.585 37.6765C116.624 37.653 111.562 38.2409 106.844 38.3349C98.478 38.5231 90.0415 38.135 81.6455 38.3349C78.0082 38.4172 74.371 38.6054 70.7539 38.9816C63.9744 39.6989 56.9828 40.0869 49.8901 40.2515C39.5339 40.5102 28.9757 40.2868 18.4378 39.9105ZM134.831 44.7667C134.881 44.9666 134.992 45.4722 135.043 45.872C135.305 47.9179 135.356 51.1514 135.134 54.3261C134.942 56.9364 134.568 59.5115 133.921 61.2752C133.81 61.5809 133.689 61.8631 133.547 62.0983C133.477 62.2276 133.325 62.404 133.285 62.4511C131.476 63.0742 128.273 63.0743 124.586 62.8744C116.866 62.4746 107.157 61.0283 102.61 60.7344C96.0431 60.3346 89.4454 60.3228 82.8276 60.5345C67.5511 61.0401 52.2139 62.745 37.0586 63.427C32.5928 63.6386 22.1154 65.3083 13.9518 65.4376C9.98109 65.4964 6.5964 65.2848 4.93942 64.156C4.18165 63.6386 3.727 62.5451 3.37337 61.2164C2.8783 59.3351 2.68633 56.9835 2.70654 54.6318C2.73685 51.7981 3.07027 48.9409 3.61586 46.8244C3.90886 45.6721 4.23217 44.7549 4.63631 44.2846C5.7376 43.0265 7.52593 42.5444 9.4557 42.3327C12.5878 41.9917 16.0937 42.4503 18.3569 42.5326C28.9252 43.097 39.5339 43.5321 49.9103 43.4733C57.0737 43.438 64.1361 43.1558 70.9964 42.5561C74.5427 42.2387 78.1093 42.1211 81.6758 42.0976C90.0719 42.0388 98.4982 42.5326 106.874 42.4738C111.572 42.4268 116.604 41.9094 121.534 42.0035C124.707 42.0623 127.839 42.368 130.799 43.2734C131.466 43.4733 132.456 43.7084 133.396 44.0612C133.941 44.2611 134.497 44.4374 134.831 44.7667Z" fill="black"/>
<path fill-rule="evenodd" clip-rule="evenodd" d="M101.2 17.0302C100.563 15.6075 99.3003 14.2905 97.0573 13.4792C95.3094 12.8678 93.5109 12.9501 91.7125 13.6321C89.6716 14.4199 87.6105 15.9837 85.711 18.0296C85.1654 18.6176 84.6299 19.2407 84.1146 19.8992C84.2359 19.3583 84.347 18.8057 84.4177 18.2648C85.0846 13.491 83.8216 6.43603 80.7097 2.77922C78.3354 -0.00747942 74.9911 -1.13627 70.7072 1.4623C68.3026 2.96735 66.4637 5.23669 65.221 7.99987C63.5741 11.6684 62.9275 16.1836 63.2407 20.687C63.3721 22.6271 63.6752 24.5672 64.1399 26.425C61.5332 24.4849 58.5628 24.2145 55.6226 26.6955C54.1576 28.0241 53.5211 29.4822 53.3797 30.8814C53.218 32.457 53.6727 34.0796 54.6527 35.5376C55.4105 36.6547 56.4612 37.7012 57.6333 38.5478C59.4822 39.8882 61.5635 40.7936 62.877 41.017C63.6146 41.1346 65.7565 41.0405 66.5244 40.9699C67.9086 40.8524 75.7489 39.5119 76.1429 39.3238C79.8307 37.7364 83.7307 37.0074 87.5094 35.6787C88.4996 35.3378 89.4695 34.938 90.4395 34.4912C92.1166 33.7034 95.4205 31.1283 97.9767 28.0594C99.7246 25.9547 101.099 23.5913 101.563 21.4748C101.917 19.8757 101.796 18.3589 101.2 17.0302ZM65.6858 37.807C64.9179 37.7952 64.1703 37.7247 63.463 37.513C62.1394 37.125 59.9066 35.5964 58.4112 33.8209C57.7848 33.0802 57.219 32.3276 57.32 31.5163C57.3706 31.1283 57.6535 30.7991 58.0677 30.4346C59.6944 28.8825 61.4019 29.3528 62.9477 30.5522C65.1503 32.2571 67.1104 35.1849 68.2723 37.7247C67.4337 37.76 66.5547 37.8187 65.6858 37.807ZM73.3645 37.3249C73.3645 37.3249 73.0513 36.8311 72.7987 36.6429C68.8684 33.574 66.7365 26.9777 66.6052 20.5106C66.5446 17.4182 66.9689 14.3611 67.9389 11.7037C68.8886 9.09339 70.394 6.8946 72.5663 5.61295C75.5064 3.79043 77.6282 5.13087 78.9719 7.5413C80.5986 10.4691 81.3261 14.6668 81.0128 17.7239C80.9017 18.8292 80.6794 19.9345 80.3864 21.0398C79.9116 22.7917 79.2952 24.5319 78.6991 26.1428C77.8807 28.3534 76.9108 30.8344 75.7893 33.139C75.0417 34.644 74.2435 36.0903 73.3645 37.3249ZM97.0876 21.9687C95.279 25.7783 90.9951 29.9055 89.0957 30.9284C88.2369 31.3987 87.368 31.822 86.489 32.2101C83.4276 33.5623 78.3253 35.4318 78.5173 34.9027C80.0025 31.2929 83.7509 25.1081 87.9944 21.0985C89.2977 19.8639 90.6516 18.8527 92.0156 18.2178C93.319 17.6181 94.6122 17.4182 95.8448 17.9003C96.835 18.2766 97.4614 18.6763 97.6635 19.3348C97.906 20.1226 97.5422 21.0045 97.0876 21.9687Z" fill="black"/>
<path fill-rule="evenodd" clip-rule="evenodd" d="M70.6472 37.5829C68.9195 39.3702 67.7677 41.7571 66.9493 44.3792C65.8177 47.9654 65.3428 52.0103 64.7063 55.4201C64.0091 59.3827 63.2413 63.4157 62.6452 67.5194C62.0491 71.6112 61.5944 75.7619 61.3822 79.9008C61.0892 85.5447 61.2711 91.1769 62.0491 96.668C62.4431 99.2901 62.5744 102.194 63.12 104.911C63.5242 106.921 64.1304 108.826 65.1812 110.449C65.5348 111.048 66.242 111.201 66.7472 110.79C67.2625 110.378 67.3938 109.555 67.0402 108.967C66.2824 107.568 65.9187 105.981 65.6964 104.323C65.3327 101.618 65.3832 98.761 65.161 96.1624C64.6659 90.9065 64.8578 85.5682 65.2721 80.23C65.5853 76.2205 66.0501 72.2109 66.5552 68.2249C67.0705 64.133 67.5858 60.0764 68.1112 56.1139C68.5153 52.8098 68.7275 48.8943 69.5863 45.3669C70.1218 43.1445 70.8796 41.0751 72.2031 39.4642C72.6477 38.9586 72.6679 38.1238 72.2334 37.6064C71.8091 37.0891 71.0917 37.0773 70.6472 37.5829Z" fill="black"/>
<path fill-rule="evenodd" clip-rule="evenodd" d="M75.1588 41.0165C73.6029 45.7434 72.4208 50.964 71.6327 56.4433C71.1376 59.9003 70.784 63.4512 70.6021 67.014C70.4203 70.565 70.3697 74.1395 70.5112 77.6317C70.7234 83.158 71.3498 88.508 72.1278 93.4347C72.7643 97.2091 74.1283 101.395 74.977 105.428C75.3306 107.121 75.6135 108.779 75.6741 110.367C75.6741 111.096 76.1793 111.684 76.8057 111.684C77.4321 111.684 77.9373 111.096 77.9373 110.367C77.9979 108.603 77.8363 106.733 77.5635 104.817C76.9876 100.795 75.8863 96.5742 75.4922 92.8233C74.9365 88.0259 74.6637 82.817 74.5324 77.4671C74.4819 75.4329 74.4415 73.3752 74.4415 71.3057C74.4314 68.2251 74.492 65.1327 74.6334 62.0755C74.9669 54.95 75.7448 48.0009 77.3008 41.8631C77.5028 41.1694 77.1795 40.4286 76.5935 40.2052C75.9974 39.9583 75.3508 40.3228 75.1588 41.0165Z" fill="black"/>
<path fill-rule="evenodd" clip-rule="evenodd" d="M112.952 23.3558C112.77 22.4739 112.467 21.5803 112.023 20.6514C110.568 17.7588 107.749 17.7706 105.779 19.2874C104.475 20.2869 103.667 21.9565 103.738 23.6262C103.778 24.6844 104.152 25.8132 105.092 26.8244C106.092 27.8709 107.082 28.5529 108.042 28.9409C107.718 29.3289 107.365 29.6817 106.971 29.9992C104.586 31.9863 101.242 33.0563 98.9486 32.0098C98.3828 31.7159 97.7159 32.0098 97.4532 32.68C97.2007 33.3385 97.4532 34.1263 98.0292 34.4202C101.495 36.4427 107.304 34.9611 110.537 31.5042C111.275 30.7164 111.891 29.8228 112.326 28.8704C113.932 28.1649 115.427 26.7304 116.69 24.755C120.055 19.452 121.904 10.4335 121.237 6.37687C121.146 5.65962 120.57 5.16578 119.954 5.2716C119.338 5.37742 118.913 6.04764 119.004 6.76489C119.327 10.3159 117.084 17.8529 113.912 22.1917C113.609 22.6032 113.285 23.003 112.952 23.3558ZM109.345 24.5904C109.244 24.0613 109.042 23.5204 108.739 22.9795C108.638 22.7914 108.436 22.8972 108.284 22.956C108.153 23.0148 107.91 23.1559 107.789 23.2734L107.799 23.3087V23.3322L107.84 23.3793C108.355 23.9554 108.85 24.367 109.345 24.5904Z" fill="black"/>
<path fill-rule="evenodd" clip-rule="evenodd" d="M40.2491 23.6626C40.532 24.9678 41.0675 26.0848 41.805 27.0372C43.755 29.5535 47.0993 30.8704 50.3324 31.1291C50.9487 31.2114 51.5145 30.7058 51.5853 29.9885C51.656 29.2713 51.2215 28.6128 50.6052 28.5305C48.534 28.1072 46.4223 27.1666 44.9674 25.6498C44.7351 25.4146 44.533 25.1559 44.3511 24.8737C44.7856 24.8384 45.2099 24.7561 45.604 24.6033C46.6244 24.2035 48.6855 22.1693 49.4534 20.2527C50.1505 18.5125 49.9384 16.8781 48.9684 15.7846C47.4832 14.1502 45.412 13.915 43.5933 14.7969C42.0172 15.573 40.7037 17.125 40.2693 18.8888L40.1683 18.8182C38.774 17.9128 38.0465 16.6782 37.7434 15.232C37.1675 12.504 37.7131 9.30581 37.996 6.4368C38.097 5.71955 37.6828 5.04934 37.0665 4.92C36.4501 4.80241 35.8742 5.28449 35.7631 6.00175C35.1569 9.19999 34.3082 12.7745 34.7022 15.9257C35.0154 18.3949 36.0662 20.5937 38.2991 22.3457C38.8548 22.769 39.5216 23.2393 40.2491 23.6626ZM45.5433 18.8653C45.3716 18.877 45.1897 18.924 45.018 19.0064C44.4724 19.2415 43.8965 19.6178 43.7651 20.2174L43.7348 20.3703C43.9369 20.3821 44.1288 20.3468 44.3107 20.2645C44.5532 20.1587 44.8765 19.7118 45.1998 19.2768C45.2907 19.171 45.4221 19.0181 45.5433 18.8653Z" fill="black"/>
<path fill-rule="evenodd" clip-rule="evenodd" d="M6.62088 53.901C6.41881 50.0796 7.12606 48.21 8.64159 47.3164C9.47008 46.8225 10.5108 46.6227 11.7636 46.5168C12.7537 46.4345 13.8651 46.4228 15.0775 46.411C16.4011 46.3757 17.755 46.3522 19.119 46.3052C20.4627 46.2581 21.8166 46.1876 23.1604 46.0935C24.979 45.9642 26.7875 45.7761 28.5456 45.4939C28.6466 45.4821 28.7173 45.3645 28.7072 45.2469C28.6971 45.1294 28.5961 45.0353 28.495 45.0588C26.7471 45.2822 24.9487 45.3998 23.1301 45.4821C21.7863 45.5409 20.4324 45.5644 19.0988 45.5879C17.7348 45.6114 16.3809 45.6232 15.0573 45.635C13.1781 45.682 11.5413 45.7055 10.2076 46.0112C8.9346 46.2934 7.93435 46.8225 7.2372 47.775C6.3784 48.9743 5.99447 50.8791 6.22685 53.948C6.23695 54.0656 6.32789 54.1597 6.42892 54.1479C6.55016 54.1244 6.63099 54.0186 6.62088 53.901Z" fill="black"/>
<path fill-rule="evenodd" clip-rule="evenodd" d="M23.2505 49.2925C24.7559 49.1749 26.2613 49.0573 27.7668 48.9162C28.767 48.8221 29.7673 48.7281 30.7675 48.6223C31.596 48.5399 32.4346 48.4459 33.2631 48.3636C34.0916 48.2813 34.9302 48.1872 35.7587 48.1166C36.7993 48.0226 37.84 47.952 38.8908 47.905C38.9918 47.905 39.0726 47.8109 39.0726 47.6816C39.0726 47.564 38.9817 47.4699 38.8807 47.4699C37.3045 47.4464 35.7283 47.4817 34.1522 47.5758C33.1014 47.6346 32.0608 47.7169 31.01 47.8227C29.9693 47.9285 28.9186 48.0579 27.8779 48.199C26.3118 48.4106 24.7559 48.6575 23.2 48.8574C23.0989 48.8692 23.0181 48.975 23.0282 49.0926C23.0484 49.2102 23.1393 49.3042 23.2505 49.2925Z" fill="black"/>
<path fill-rule="evenodd" clip-rule="evenodd" d="M12.4693 63.1317C14.1667 63.2846 15.8742 63.261 17.5918 63.1317C18.8649 63.0376 20.1379 62.8965 21.4008 62.7437C22.6739 62.5908 23.9368 62.4027 25.1897 62.2733C26.3314 62.144 27.6549 62.2733 28.8876 62.1322C29.4534 62.0617 29.9889 61.9441 30.4839 61.7325C30.585 61.6972 30.6355 61.5678 30.5951 61.4503C30.5648 61.3327 30.4536 61.2739 30.3526 61.3209C29.8777 61.4973 29.3725 61.5796 28.8472 61.6149C27.6145 61.6972 26.2809 61.5091 25.1391 61.5914C24.25 61.6502 23.3609 61.7325 22.4617 61.8383C21.8757 61.9088 21.2796 61.9794 20.6835 62.0617C20.0975 62.1322 19.5014 62.2146 18.9154 62.2969C18.0364 62.4027 17.1473 62.5085 16.2682 62.5908C14.9952 62.7084 13.7323 62.7672 12.4794 62.7202C12.3784 62.7084 12.2874 62.8025 12.2773 62.9318C12.2874 63.0259 12.3683 63.1199 12.4693 63.1317Z" fill="black"/>
<path fill-rule="evenodd" clip-rule="evenodd" d="M47.5398 60.6847C48.5097 60.7905 49.4797 60.8376 50.4597 60.8376C51.1366 60.8376 51.8136 60.8258 52.4905 60.7905C52.9452 60.7788 53.3897 60.7553 53.8444 60.7435C54.2889 60.72 54.7436 60.6965 55.1882 60.6847C55.855 60.6612 56.5319 60.6377 57.1988 60.6612C57.7241 60.673 58.9265 60.8258 59.8358 60.7082C60.3612 60.6377 60.7855 60.4731 60.9977 60.1791C61.0684 60.085 61.0583 59.944 60.9775 59.8734C60.8967 59.7911 60.7754 59.8028 60.7148 59.8969C60.5531 60.1086 60.1995 60.1674 59.8055 60.1909C58.9063 60.2497 57.7443 60.0145 57.2291 59.9792C56.2591 59.9204 55.2892 59.8969 54.3092 59.9322C53.4099 59.9675 52.5107 60.038 51.6115 60.1086C50.2677 60.2026 48.924 60.2967 47.5802 60.2497C47.4792 60.2379 47.3882 60.332 47.3781 60.4495C47.3579 60.5671 47.4387 60.673 47.5398 60.6847Z" fill="black"/>
<path fill-rule="evenodd" clip-rule="evenodd" d="M125.477 45.188C126.76 45.5643 128.69 45.823 130.256 46.4461C130.943 46.7166 131.549 47.0458 131.994 47.5161C132.034 47.5632 132.074 47.6572 132.105 47.7631C132.186 47.9982 132.246 48.3392 132.307 48.739C132.448 49.6914 132.529 50.9848 132.549 52.29C132.57 53.5716 132.519 54.8768 132.388 55.8527C132.307 56.4759 132.196 56.9698 132.044 57.2402C131.984 57.3343 132.004 57.4754 132.085 57.5459C132.165 57.6165 132.287 57.5929 132.347 57.4989C132.539 57.2049 132.701 56.6523 132.822 55.9468C132.994 54.9473 133.105 53.6187 133.125 52.29C133.156 50.6791 133.065 49.08 132.873 48.0805C132.762 47.5044 132.59 47.1046 132.418 46.94C131.903 46.4226 131.206 46.0464 130.428 45.7759C128.821 45.2115 126.851 45.0704 125.548 44.7765C125.447 44.753 125.346 44.8235 125.325 44.9411C125.315 45.0469 125.376 45.1645 125.477 45.188Z" fill="black"/>
<path fill-rule="evenodd" clip-rule="evenodd" d="M89.5068 59.0966C92.5782 59.1319 95.6295 59.1554 98.6707 59.2259C100.712 59.273 102.742 59.3317 104.773 59.4258C106.127 59.4846 107.481 59.5669 108.835 59.661C110.856 59.8021 112.876 59.9902 114.907 60.2724C116.2 60.437 119.565 61.072 122.172 61.166C123.586 61.2131 124.788 61.1072 125.354 60.7075C125.445 60.6487 125.475 60.5076 125.415 60.4018C125.364 60.2959 125.243 60.2606 125.152 60.3312C124.627 60.6839 123.505 60.731 122.182 60.6487C119.585 60.4958 116.261 59.7786 114.978 59.5904C112.937 59.2847 110.906 59.0496 108.875 58.8849C107.511 58.7791 106.157 58.6968 104.793 58.6498C102.753 58.5675 100.712 58.5439 98.6707 58.5439C95.6295 58.5439 92.5782 58.6145 89.4967 58.6498C89.3956 58.6498 89.3047 58.7438 89.3047 58.8732C89.3249 58.9908 89.4057 59.0966 89.5068 59.0966Z" fill="black"/>
<path fill-rule="evenodd" clip-rule="evenodd" d="M13.7337 72.8438C13.5923 73.3729 13.562 73.9608 13.5721 74.5605C13.6024 75.8304 13.8853 77.1944 13.8651 78.3702C13.855 79.0992 13.855 79.8282 13.8752 80.569C13.8853 81.0511 13.8954 81.5449 13.9156 82.027C13.9661 83.1558 14.0369 84.2846 14.1076 85.4134C14.2086 87.1183 14.3198 88.7997 14.3501 90.4812C14.3501 90.5987 14.4309 90.7046 14.542 90.7046C14.6431 90.7046 14.734 90.6105 14.734 90.4812C14.7643 89.2701 14.7542 88.059 14.734 86.8361C14.7138 85.9895 14.6936 85.1429 14.6734 84.2846C14.6431 83.438 14.6229 82.5914 14.5925 81.7448C14.5521 80.616 14.5016 79.4872 14.4915 78.3702C14.4713 77.1826 14.1379 75.8186 14.047 74.537C14.0065 73.9961 14.0166 73.467 14.1177 72.9732C14.148 72.8556 14.0874 72.738 13.9863 72.7027C13.855 72.6557 13.754 72.7262 13.7337 72.8438Z" fill="black"/>
<path fill-rule="evenodd" clip-rule="evenodd" d="M44.399 102.922C45.4498 102.957 46.5308 103.004 47.622 103.063C48.3394 103.098 49.0567 103.122 49.7741 103.157C50.4914 103.181 51.2088 103.204 51.9261 103.204C52.401 103.204 52.886 103.192 53.3608 103.181C54.3712 103.157 55.3714 103.11 56.3616 103.028C57.3719 102.945 58.3722 102.828 59.3522 102.675C59.4533 102.663 59.5341 102.557 59.524 102.44C59.5139 102.322 59.423 102.228 59.3118 102.252C58.3419 102.346 57.3517 102.393 56.3414 102.416C55.5533 102.44 54.7551 102.44 53.957 102.44C53.1689 102.44 52.3707 102.428 51.5725 102.428C50.6127 102.428 49.6629 102.428 48.7031 102.428C47.2381 102.428 45.8034 102.463 44.399 102.499C44.298 102.499 44.207 102.593 44.207 102.722C44.207 102.816 44.2879 102.922 44.399 102.922Z" fill="black"/>
<path fill-rule="evenodd" clip-rule="evenodd" d="M21.0004 103.085L21.0105 103.062C21.0105 103.062 21.0105 103.074 21.0004 103.085C21.0206 103.074 21.0408 103.074 21.0509 103.074C21.1014 103.05 21.1721 103.05 21.2529 103.038C21.6066 103.003 22.1724 103.05 22.8291 103.097C23.304 103.144 23.8192 103.191 24.3345 103.238C24.8498 103.273 25.3651 103.285 25.85 103.309C26.8604 103.344 27.7091 103.332 28.0627 103.262C28.1638 103.25 28.2446 103.144 28.2345 103.027C28.2244 102.909 28.1335 102.815 28.0223 102.827C27.7596 102.85 27.214 102.78 26.5371 102.686C26.0723 102.638 25.5571 102.556 25.0216 102.509C24.6881 102.474 24.3446 102.45 24.0112 102.427C23.6576 102.403 23.3141 102.403 22.9907 102.403C22.2532 102.403 21.6066 102.45 21.2125 102.533C20.9094 102.591 20.7276 102.721 20.677 102.838C20.6265 102.944 20.6568 103.074 20.7377 103.132C20.8387 103.203 20.9397 103.168 21.0004 103.085Z" fill="black"/>
<path fill-rule="evenodd" clip-rule="evenodd" d="M91.9122 101.475C92.0637 101.64 92.4578 101.734 92.9326 101.757C93.7005 101.804 94.7109 101.71 95.0948 101.746C96.0546 101.804 97.0044 101.898 97.9642 101.957C98.6007 102.004 99.2474 102.028 99.8839 102.039C100.955 102.063 102.026 102.028 103.097 101.945C103.531 101.91 104.37 101.992 105.037 101.91C105.411 101.863 105.724 101.757 105.926 101.581C106.007 101.51 106.027 101.369 105.966 101.275C105.906 101.181 105.784 101.158 105.704 101.228C105.542 101.358 105.289 101.393 105.006 101.405C104.34 101.452 103.511 101.31 103.077 101.322C102.278 101.346 101.49 101.334 100.702 101.299C100.238 101.287 99.7727 101.263 99.3181 101.24C98.8533 101.216 98.3886 101.193 97.9238 101.181C96.9943 101.146 96.0647 101.122 95.1352 101.099C94.7412 101.099 93.7308 101.252 92.9528 101.263C92.7205 101.263 92.5083 101.252 92.3466 101.216C92.2658 101.193 92.2052 101.181 92.1749 101.146C92.094 101.064 91.9728 101.075 91.9122 101.169C91.8314 101.263 91.8314 101.393 91.9122 101.475Z" fill="black"/>
<path fill-rule="evenodd" clip-rule="evenodd" d="M122.433 91.5399C122.412 91.9396 122.332 92.4805 122.251 93.1037C122.21 93.4329 122.16 93.7974 122.119 94.1619C122.079 94.5147 122.049 94.8674 122.018 95.2319C121.998 95.4671 121.998 95.714 121.988 95.9492C121.978 96.4901 121.988 97.0074 122.028 97.466C122.079 98.1009 122.19 98.6418 122.362 98.9946C122.412 99.1004 122.524 99.1474 122.614 99.0886C122.705 99.0416 122.746 98.9005 122.695 98.7947C122.574 98.4655 122.554 97.9951 122.554 97.4307C122.554 97.0662 122.584 96.6782 122.604 96.2667C122.625 95.8904 122.665 95.4906 122.685 95.1026C122.715 94.6205 122.746 94.1384 122.766 93.6916C122.806 92.8215 122.817 92.0455 122.796 91.5281C122.796 91.3988 122.715 91.3047 122.604 91.3047C122.513 91.3164 122.433 91.4223 122.433 91.5399Z" fill="black"/>
<path fill-rule="evenodd" clip-rule="evenodd" d="M123.323 70.1738C123.05 70.4678 122.848 70.9499 122.716 71.5378C122.646 71.8435 122.605 72.161 122.575 72.5137C122.555 72.7489 122.545 72.9958 122.555 73.2427C122.555 73.4779 122.575 73.7248 122.595 73.96C122.676 74.8066 122.828 75.5944 122.959 76.0765C122.979 76.1941 123.08 76.2646 123.181 76.2411C123.282 76.2176 123.343 76.1 123.323 75.9824C123.282 75.6767 123.252 75.2652 123.232 74.7831C123.211 74.4068 123.211 73.9953 123.211 73.5837C123.211 73.3251 123.211 73.0546 123.222 72.7842C123.222 72.5137 123.232 72.2551 123.242 71.9964C123.262 71.6436 123.302 71.3026 123.373 71.0204C123.424 70.797 123.494 70.6089 123.585 70.4678C123.656 70.3737 123.656 70.2326 123.575 70.1503C123.515 70.0798 123.393 70.0915 123.323 70.1738Z" fill="black"/>
<path fill-rule="evenodd" clip-rule="evenodd" d="M97.0221 99.1813C97.4161 99.0402 97.8 98.9932 98.184 98.9814C98.5073 98.9697 98.8205 98.9932 99.1337 99.0285C99.457 99.0637 99.7803 99.1108 100.104 99.1578C100.498 99.2048 100.902 99.2519 101.306 99.2636C101.922 99.2989 102.539 99.2636 103.145 99.0873C103.246 99.0637 103.317 98.9461 103.296 98.8286C103.276 98.711 103.185 98.6287 103.074 98.6522C102.65 98.711 102.235 98.6875 101.821 98.6404C101.397 98.5934 100.973 98.5111 100.558 98.4288C100.265 98.3817 99.9824 98.3347 99.6894 98.2994C99.3863 98.2642 99.0933 98.2524 98.7902 98.2642C98.1537 98.2877 97.5171 98.417 96.8907 98.7463C96.7897 98.7933 96.7392 98.9109 96.7796 99.0285C96.8099 99.1578 96.921 99.2166 97.0221 99.1813Z" fill="black"/>
<path fill-rule="evenodd" clip-rule="evenodd" d="M20.6239 99.6156C20.9776 99.6626 21.3211 99.7332 21.6747 99.8155C21.9071 99.8625 22.1395 99.9213 22.3719 99.9801C22.6042 100.027 22.8366 100.086 23.069 100.133C23.2307 100.168 23.3822 100.192 23.5439 100.215C23.8773 100.274 24.2107 100.333 24.534 100.38C24.8775 100.427 25.211 100.474 25.5343 100.521C25.6353 100.544 25.7363 100.462 25.7565 100.345C25.7768 100.227 25.706 100.109 25.605 100.086C25.1301 99.9331 24.6452 99.7567 24.1501 99.6156C23.8268 99.5098 23.4933 99.4157 23.1599 99.3451C22.8265 99.2746 22.483 99.2276 22.1496 99.1923C21.6242 99.1452 21.119 99.1453 20.6138 99.1688C20.5128 99.1688 20.4219 99.2628 20.4219 99.3804C20.4421 99.5098 20.5229 99.6038 20.6239 99.6156Z" fill="black"/>
<path fill-rule="evenodd" clip-rule="evenodd" d="M88.0161 68.4106C89.3093 68.2813 90.6531 68.3283 92.0272 68.4341C92.9163 68.4929 93.8155 68.587 94.7147 68.6693C95.3108 68.7281 95.917 68.7751 96.5131 68.8104C97.4225 68.8692 98.3318 68.8927 99.231 68.8692C100.898 68.8221 102.525 68.6105 104.06 68.0696C104.162 68.0343 104.222 67.9168 104.192 67.7992C104.162 67.6816 104.06 67.611 103.959 67.6463C102.949 67.952 101.898 68.0931 100.827 68.1519C99.9888 68.1989 99.1401 68.1872 98.2813 68.1402C97.4326 68.0931 96.5839 68.0343 95.7251 67.9638C94.6945 67.8815 93.6538 67.8109 92.6334 67.7757C91.0269 67.7051 89.4609 67.7286 87.9656 67.9755C87.8645 67.9873 87.7837 68.1049 87.8039 68.2225C87.814 68.3401 87.915 68.4224 88.0161 68.4106Z" fill="black"/>
<path fill-rule="evenodd" clip-rule="evenodd" d="M49.3598 70.0916C50.0368 70.0445 50.7238 70.021 51.4108 69.9857C51.8655 69.9622 52.3202 69.9505 52.7748 69.9269C53.1486 69.9034 53.5326 69.8799 53.9064 69.8564C54.2904 69.8329 54.6642 69.8094 55.038 69.7858C55.5129 69.7623 55.9877 69.7388 56.4626 69.7388C56.5636 69.7506 56.6546 69.6565 56.6647 69.5272C56.6748 69.4096 56.594 69.3038 56.4828 69.292C55.7655 69.2097 55.0481 69.1391 54.3207 69.1156C53.8357 69.1039 53.3608 69.0921 52.8759 69.1156C52.3909 69.1391 51.916 69.1979 51.4412 69.2567C50.7238 69.3508 50.0166 69.4919 49.3093 69.633C49.2083 69.6448 49.1274 69.7506 49.1476 69.8682C49.1578 70.021 49.2487 70.1033 49.3598 70.0916Z" fill="black"/>
<path fill-rule="evenodd" clip-rule="evenodd" d="M24.5068 71.3992C25.1837 71.4345 25.8606 71.458 26.5376 71.4698C26.9922 71.4698 27.4368 71.4698 27.8914 71.458C28.2249 71.4463 28.5684 71.4345 28.9018 71.411C29.2352 71.3875 29.5787 71.364 29.9122 71.3405C30.9225 71.2581 31.9228 71.1523 32.9331 71.1053C33.0342 71.1053 33.1251 71.0112 33.1251 70.8819C33.1251 70.7643 33.0443 70.6585 32.9331 70.6585C32.0844 70.6114 31.2357 70.5879 30.387 70.5997C29.8212 70.5997 29.2554 70.6114 28.6997 70.6467C28.1339 70.6702 27.5782 70.7173 27.0124 70.7643C26.1738 70.8348 25.3353 70.9171 24.4967 70.9642C24.3956 70.9642 24.3047 71.0582 24.3047 71.1876C24.3148 71.3052 24.4057 71.3992 24.5068 71.3992Z" fill="black"/>
</svg>
