<svg width="123" height="125" viewBox="0 0 123 125" fill="none" xmlns="http://www.w3.org/2000/svg">
<rect x="97.918" y="20.1084" width="13.5649" height="15.8999" transform="rotate(43.5537 97.918 20.1084)" fill="white"/>
<rect x="49.5938" y="62.6719" width="13.5649" height="15.8999" transform="rotate(43.5537 49.5938 62.6719)" fill="white"/>
<path d="M37.4971 67.1565C38.0161 67.7243 38.449 67.6845 39.1384 67.5453C39.4699 67.4785 39.8022 67.4092 40.135 67.3398C41.8997 66.9719 43.6806 66.6007 45.4588 66.571L37.4971 67.1565ZM37.4971 67.1565C35.6433 65.128 33.7417 63.1492 31.8271 61.1827L37.4971 67.1565ZM84.2751 13.0264L84.0486 12.0759L83.653 12.8198C83.6389 12.8246 83.6243 12.8296 83.6091 12.8347C83.5918 12.8406 83.5737 12.8468 83.5548 12.8533C83.4633 12.8846 83.3587 12.9209 83.2537 12.9612L83.2537 12.9612L83.2502 12.9626C74.2516 16.5205 66.1972 21.632 58.8103 27.8123L58.8103 27.8124C47.9357 36.9145 39.0319 47.7188 31.3502 59.563C31.1302 59.9013 31 60.2332 31.0549 60.5843C31.108 60.9234 31.3226 61.1946 31.5625 61.4403C33.4762 63.4059 35.3746 65.3815 37.2245 67.4056L37.2245 67.4057C37.5256 67.735 37.8336 67.9198 38.1926 67.9802C38.528 68.0366 38.8719 67.9759 39.2114 67.9073C39.5482 67.8394 39.8839 67.7695 40.2188 67.6997C41.984 67.332 43.7249 66.9693 45.465 66.9402C48.2221 66.8953 50.5322 67.8205 52.175 69.4238C53.8188 71.0281 54.8178 73.3341 54.9081 76.0915L54.9082 76.0919C54.9908 78.5309 54.4819 80.8743 53.5468 83.1343L53.5461 83.136C53.4218 83.4406 53.3468 83.7466 53.3982 84.0625C53.4503 84.383 53.6228 84.6562 53.8767 84.9159C55.9166 87.0057 57.9225 89.129 59.9169 91.2619L59.9177 91.2627C60.1303 91.4886 60.3738 91.71 60.6916 91.7839C61.0268 91.8617 61.3538 91.7581 61.6918 91.5612C72.871 85.0672 83.3209 77.5948 92.4895 68.4076C99.241 61.6422 105.019 54.1324 109.387 45.5869L109.387 45.5868C109.886 44.6097 110.338 43.6029 110.771 42.6358C110.972 42.1886 111.168 41.7498 111.364 41.3264L111.548 40.9292L111.125 40.8149C103.829 38.8415 97.9909 35.5423 93.543 30.923C89.0948 26.3034 86.019 20.3452 84.2751 13.0264ZM54.1409 84.6579C53.6952 84.2021 53.6624 83.8287 53.8881 83.2755L60.1866 91.0096C58.1916 88.876 56.1836 86.7505 54.1409 84.6579ZM92.543 46.6774L92.543 46.6775C92.3516 55.2013 85.2257 61.9643 76.675 61.7391C68.1371 61.5143 61.4715 54.5323 61.6348 45.9749C61.7976 37.4372 68.8532 30.6641 77.4277 30.8195C85.9046 30.9767 92.7388 38.142 92.543 46.6774Z" fill="#EB5B31" stroke="white" stroke-width="0.738627"/>
<path d="M113.301 34.9745L113.226 35.5978C106.975 34.8437 101.248 31.4368 97.005 26.8684C92.7651 22.303 89.9494 16.515 89.5949 10.9194L89.5544 10.2808L90.1808 10.1497C90.9096 9.99723 91.6486 9.83355 92.3944 9.66835C93.9934 9.31416 95.624 8.95298 97.2542 8.68014L97.2547 8.68006C102.468 7.81086 107.724 7.54838 113.014 8.09909L113.301 34.9745ZM113.301 34.9745L114.017 35.0973C114.042 35.0201 114.067 34.9442 114.091 34.8694C114.175 34.6135 114.255 34.3704 114.326 34.1296L113.301 34.9745ZM117.055 12.4204L117.055 12.4209C117.394 19.8205 116.427 27.0462 114.326 34.1285L117.055 12.4204ZM117.055 12.4204C116.997 11.183 116.693 10.1372 115.98 9.36974M117.055 12.4204L115.98 9.36974M115.98 9.36974C115.265 8.60012 114.246 8.2269 113.014 8.09913L115.98 9.36974Z" fill="#EB5B31" stroke="white" stroke-width="1.47725"/>
<path d="M44.4497 72.0476L43.7297 72.0478L43.7282 72.1076C40.9215 72.4103 37.9648 73.6803 35.5478 76.042L35.5475 76.0423C32.8732 78.6589 30.2594 81.3464 27.736 84.1139C24.2644 87.9173 21.1163 92.006 18.6243 96.5828C17.6548 98.359 17.7293 100.203 19.0258 101.55C20.3165 102.892 22.1463 103.07 23.973 102.163L23.9734 102.163C25.2396 101.534 26.5073 100.866 27.7339 100.129L27.7341 100.129C34.2981 96.1842 40.0607 91.24 45.5274 86.0107C48.0995 83.5528 49.6117 80.4383 49.74 76.7932L49.7401 76.7929C49.7907 75.3421 49.4532 74.0931 48.4931 73.2294C47.5569 72.3874 46.1742 72.0471 44.4497 72.0476Z" fill="#EB5B31" stroke="white" stroke-width="1.47725"/>
<path d="M37.0877 42.6558L37.9748 41.5037L37.1912 41.4838L37.1693 41.1768L36.5893 41.0854C36.2607 41.0336 35.9506 40.9721 35.6253 40.9077C35.4175 40.8666 35.2036 40.8242 34.9748 40.7824C34.4167 40.6803 33.8216 40.5926 33.2115 40.5913C27.984 40.5774 23.3496 42.4903 19.4585 45.7122C16.5258 48.1399 13.7505 50.7844 10.998 53.4072C9.84634 54.5046 8.69871 55.5981 7.54521 56.6704C7.34538 56.8552 7.18659 57.0951 7.09124 57.2392C7.077 57.2607 7.06417 57.2801 7.05283 57.2968C6.02862 58.7749 6.12286 60.6105 7.27432 61.9867L7.27502 61.9875C7.89857 62.7305 8.63675 63.1321 9.43787 63.2847C10.2154 63.4328 11.0116 63.3388 11.7593 63.1713L11.7594 63.1713C15.1944 62.4014 18.5482 61.8204 21.9364 62.3281C22.3964 62.3989 22.8471 62.3962 23.2672 62.1866C23.6734 61.9838 23.936 61.6416 24.146 61.3227C27.2321 56.6592 30.3196 52.0042 33.4688 47.3941L33.4693 47.3934C34.2352 46.2692 35.0717 45.2138 35.9271 44.1345C36.3117 43.6493 36.7001 43.1592 37.0877 42.6558Z" fill="#EB5B31" stroke="white" stroke-width="1.47725"/>
<path d="M80.1335 86.6997L80.1921 87.3556C80.2255 87.7286 80.2716 88.0748 80.3194 88.4328C80.3487 88.6522 80.3785 88.876 80.4064 89.1131C80.476 89.7062 80.5249 90.3311 80.4681 90.965C79.9787 96.6155 77.5804 101.45 73.6905 105.449L73.6904 105.449C71.2484 107.958 68.6886 110.359 66.1442 112.745C65.3267 113.512 64.5108 114.277 63.701 115.044C63.0194 115.689 62.2715 116.111 61.4692 116.26C60.6613 116.409 59.8607 116.269 59.1019 115.896C58.3484 115.526 57.7473 114.971 57.3738 114.236C57.0017 113.505 56.8813 112.647 56.9995 111.711L56.9996 111.71C57.1467 110.556 57.329 109.409 57.5093 108.275C57.5191 108.213 57.5289 108.151 57.5387 108.09C57.729 106.891 57.9149 105.707 58.0579 104.52C58.1309 103.904 58.1466 103.273 58.154 102.609C58.1551 102.507 58.156 102.405 58.157 102.301C58.162 101.74 58.1673 101.153 58.2062 100.571C58.2238 100.294 58.3085 99.9946 58.4301 99.7388C58.5416 99.5042 58.7458 99.1748 59.0868 98.9907L80.1335 86.6997ZM80.1335 86.6997L79.4752 86.683M80.1335 86.6997L79.4752 86.683M79.4752 86.683L79.4667 86.6827L79.3135 86.6789L79.1713 86.7363C79.043 86.7881 78.9538 86.8214 78.8783 86.8496C78.8552 86.8582 78.8335 86.8663 78.8123 86.8744L78.8072 86.8763C78.7311 86.9051 78.6049 86.9528 78.4817 87.0389L78.4804 87.0398M79.4752 86.683L78.4804 87.0398M78.4804 87.0398C72.2554 91.4064 65.7818 95.3715 59.0873 98.9904L78.4804 87.0398Z" fill="#EB5B31" stroke="white" stroke-width="1.47725"/>
<path d="M50.4832 89.1406L49.9919 88.6237L49.4581 89.0965L40.1548 97.3367L39.664 97.7714L40.0374 98.3103C40.814 99.4311 41.6698 100.223 42.7407 100.523C43.8159 100.824 44.9438 100.583 46.1594 100.011L46.1596 100.011C46.3569 99.9178 46.5554 99.8248 46.7546 99.7315C47.4773 99.3929 48.2101 99.0496 48.9309 98.6886C50.4147 97.9492 51.896 97.1987 53.3588 96.4575C53.9862 96.1396 54.6102 95.8235 55.2295 95.5107L56.1175 95.0621L55.4312 94.3418C53.7251 92.5513 52.085 90.8258 50.4857 89.1433L50.4832 89.1406Z" fill="#EB5B31" stroke="white" stroke-width="1.47725"/>
<path d="M32.8825 71.746L33.3794 71.2375L32.8903 70.7215C32.1121 69.9006 31.3229 69.0692 30.5204 68.2239C29.7441 67.4061 28.9553 66.5752 28.1522 65.7282L27.4516 64.9893L26.9667 65.8846C26.4795 66.7844 25.9838 67.6894 25.4852 68.5997C24.233 70.886 22.963 73.2048 21.7642 75.5532L21.7638 75.554C21.284 76.4967 21.1895 77.4524 21.4896 78.3621C21.7827 79.2507 22.4251 80.0152 23.2698 80.6586L23.7892 81.0542L24.2456 80.5873C25.7102 79.0888 27.1561 77.6083 28.5949 76.135C30.0274 74.6682 31.4528 73.2087 32.8825 71.746Z" fill="#EB5B31" stroke="white" stroke-width="1.47725"/>
<path d="M92.9073 46.6867C92.707 55.416 85.4143 62.3396 76.6604 62.1091C67.9191 61.8789 61.0935 54.7284 61.2606 45.9687C61.4274 37.2258 68.6526 30.292 77.4295 30.4511C86.1133 30.6078 93.1078 37.9447 92.9073 46.6867ZM67.6003 46.0702C67.4763 51.2958 71.6001 55.6342 76.8168 55.775C82.0124 55.9153 86.3718 51.8005 86.5635 46.5766C86.7496 41.4118 82.4322 36.861 77.2728 36.7936C72.0458 36.7245 67.7195 40.8698 67.6003 46.0702Z" fill="white"/>
<path d="M67.5985 46.0692C67.7219 40.8689 72.044 36.7235 77.271 36.7926C82.4303 36.86 86.7477 41.4108 86.5617 46.5756C86.3741 51.7996 82.0105 55.9143 76.8149 55.774C71.594 55.6331 67.4744 51.2948 67.5985 46.0692Z" fill="#EB5B31"/>
</svg>
