<svg width="1422" height="861" fill="none" xmlns="http://www.w3.org/2000/svg"><path d="M735.868 432.032c-173.724-96.421-507.583-305.39-672.91-264.004-203.492 50.938-45.19 201.562 84.344 248.106 165.096 59.322 211.504 161.02 165.096 217.304-34.123 41.385-162.426 24.831-249.44-19.865-87.015-44.696-176.929-79.46-243.64-52.973-66.711 26.486 13.139 195.792 382.863 182.095 350.977-13.003 393.048 53.154 482.963 102.816 89.915 49.662 767.146 167.019 735.236-68.052-31.9-235.069-61.74-408.862-290.88-441.97-187.999-64.989-31-141.489-20-199.989C1117.5 69 801.501 63 801.501.5" stroke="#fff" stroke-opacity=".15"/></svg>