<svg width="64" height="74" viewBox="0 0 64 74" fill="none" xmlns="http://www.w3.org/2000/svg">
<g clip-path="url(#clip0_6424_29498)">
<path d="M27.1946 14.8626C26.0976 14.8626 25.2088 14.8997 24.3229 14.8626C22.2359 14.7516 21.1502 12.676 22.4187 11.0018C24.8685 7.76736 27.4168 4.60978 29.9931 1.47499C30.9916 0.262071 32.5245 0.284849 33.5398 1.51485C36.0712 4.61548 38.6026 7.73889 41.0017 10.9534C41.4405 11.5399 41.5839 12.7842 41.2605 13.4049C40.9061 14.0882 39.9076 14.5836 39.092 14.8285C38.2763 15.0733 37.3453 14.8797 36.2962 14.8797V23.3531C36.2962 26.6815 35.4327 27.5499 32.1363 27.5556H30.8707C28.2296 27.5271 27.2142 26.5021 27.1974 23.8542C27.1889 20.913 27.1946 17.9946 27.1946 14.8626ZM30.0072 24.5717H33.433C33.4555 24.1901 33.4864 23.914 33.4864 23.6378C33.4864 20.4176 33.4864 17.1945 33.4864 13.9715C33.4864 12.4881 33.9674 12.0382 35.4299 12.0154C36.2962 12.0012 37.1597 12.0154 38.3213 12.0154L31.7454 3.75846L25.1948 12.0154H26.9189C29.9762 12.0154 30.0128 12.061 30.0128 15.2299L30.0072 24.5717Z" fill="#4F4F4F"/>
<path d="M36.2961 59.2794C37.4071 59.2794 38.2987 59.2395 39.1819 59.2794C41.266 59.3961 42.3348 61.4746 41.0635 63.1544C38.6109 66.3974 36.0627 69.5578 33.4835 72.6869C32.4878 73.897 30.9521 73.8543 29.9396 72.6186C27.4082 69.518 24.8769 66.3974 22.4805 63.1801C22.0446 62.6106 21.918 61.3436 22.2358 60.7286C22.5958 60.0481 23.5999 59.5641 24.4156 59.3306C25.2313 59.0971 26.1594 59.2794 27.1945 59.2794C27.1945 56.3069 27.1945 53.4767 27.1945 50.6437C27.1945 47.5289 28.1142 46.6092 31.2306 46.6035C35.7927 46.6035 36.2933 47.1046 36.2933 51.7285L36.2961 59.2794ZM25.1666 62.1266L31.7594 70.3835C33.9841 67.5819 36.0599 64.9738 38.2931 62.1437C37.1427 62.1437 36.3496 62.1437 35.5536 62.1437C33.9251 62.1294 33.4891 61.6995 33.4807 60.031C33.4666 57.4685 33.4807 54.906 33.4807 52.3435V49.5988H30.0577C30.0352 49.9946 30.0071 50.2736 30.0071 50.5526C30.0071 53.6846 30.0071 56.8165 30.0071 59.9485C30.0071 61.7223 29.588 62.1408 27.8779 62.1551C27.096 62.1266 26.3085 62.1266 25.1666 62.1266Z" fill="#4F4F4F"/>
<path d="M10.4817 44.1522C13.1537 42.589 15.6598 41.117 18.1714 39.6564C20.3315 38.4036 21.8279 38.8022 23.0935 40.9803C23.4957 41.6751 23.912 42.3612 24.2861 43.0702C25.2114 44.8269 24.8064 46.4242 23.1076 47.4521C20.9025 48.7903 18.6552 50.0601 16.4304 51.3642C15.9945 51.6204 15.5866 51.9051 15.0776 52.2183C15.5557 53.0725 15.9832 53.8527 16.422 54.6243C16.9423 55.5325 17.0689 56.5689 16.3151 57.2494C15.6935 57.8188 14.6697 58.3399 13.9019 58.2459C10.0992 57.7761 6.3078 57.107 2.53325 56.4749C0.578477 56.1475 -0.169683 54.8435 0.527848 52.9729C1.84416 49.4309 3.20828 45.906 4.5499 42.3726C4.94367 41.3334 5.55964 40.5675 6.75219 40.4707C7.94474 40.3739 8.68165 40.9917 9.22448 41.9854C9.60419 42.683 10.0233 43.3635 10.4817 44.1522ZM13.5756 55.3531C13.0131 54.3424 12.5828 53.5594 12.1243 52.7906C11.4605 51.6859 11.6462 50.8346 12.7796 50.1911C14.245 49.3569 15.6963 48.4828 17.1533 47.6286C18.7565 46.6919 20.3569 45.7494 22.0191 44.7814C21.4003 43.6966 20.8716 42.7684 20.2978 41.769C19.7831 42.0537 19.3696 42.2417 18.9759 42.4723C16.3826 43.9813 13.7978 45.5074 11.199 47.0079C9.72232 47.8621 9.2723 47.7197 8.38633 46.2107C7.97568 45.5046 7.56785 44.7871 7.01376 43.8447L3.26453 53.7046L13.5756 55.3531Z" fill="#4F4F4F"/>
<path d="M53.0117 29.9956C50.3565 31.5445 47.8505 33.0222 45.3332 34.4743C43.1562 35.7356 41.6599 35.3285 40.4055 33.176C37.7785 28.666 37.9219 28.1165 42.4278 25.4885L48.4468 21.9665C47.9264 21.0468 47.2908 20.2809 47.0573 19.404C46.8492 18.621 46.7761 17.4849 47.2036 16.9297C47.4996 16.5935 47.8648 16.3269 48.2734 16.1489C48.6821 15.9708 49.1243 15.8855 49.569 15.899C53.3745 16.3688 57.1631 17.0379 60.9376 17.67C62.9684 18.0145 63.6687 19.3129 62.929 21.2917C61.6183 24.7881 60.2767 28.2674 58.9491 31.7552C58.5553 32.7945 57.9478 33.5718 56.7553 33.6771C55.498 33.7853 54.7555 33.1077 54.207 32.0542C53.8554 31.3765 53.4532 30.7501 53.0117 29.9956ZM41.4546 29.3522L43.2659 32.3873L51.3325 27.6751C54.058 26.0779 54.058 26.0807 55.6105 28.7827C55.8524 29.2041 56.1168 29.6084 56.4993 30.2291C57.7931 26.8267 58.9885 23.6805 60.2289 20.4119L49.929 18.7918C50.4072 19.646 50.7475 20.2553 51.0906 20.8646C52.151 22.7324 52.0413 23.1623 50.2159 24.23C47.3498 25.9099 44.481 27.584 41.4546 29.3522Z" fill="#4F4F4F"/>
<path d="M48.4354 52.1812C45.8112 50.6409 43.3051 49.1745 40.8047 47.7025C38.5715 46.39 38.1749 44.9037 39.4462 42.6402C39.8147 41.9796 40.1775 41.3162 40.5713 40.6699C41.6429 38.9132 43.2236 38.469 45.0124 39.4883C47.6591 40.9973 50.2804 42.5519 53.0031 44.1378C53.4812 43.3263 53.8075 42.4295 54.4094 41.8373C55.0113 41.245 55.9226 40.5275 56.6595 40.5674C57.3964 40.6072 58.437 41.3646 58.7352 42.0707C60.2906 45.7721 61.6884 49.5361 63.0694 53.3059C63.2058 53.6256 63.2666 53.9732 63.247 54.3209C63.2273 54.6686 63.1278 55.0068 62.9563 55.3087C62.7848 55.6106 62.546 55.8678 62.259 56.0599C61.972 56.252 61.6447 56.3736 61.3031 56.415C57.3373 57.1012 53.3659 57.7532 49.3832 58.317C47.4537 58.6017 46.1346 56.6087 46.9812 54.8121C47.3834 53.9607 47.8897 53.1607 48.4354 52.1812ZM49.9092 55.3616L60.2343 53.7216C58.9743 50.4188 57.7733 47.2698 56.5582 44.0894C56.3585 44.2232 56.2601 44.2517 56.2207 44.3172C55.8354 44.9664 55.4641 45.6241 55.0956 46.2732C54.2322 47.7395 53.7597 47.8648 52.2605 47.0021C51.1636 46.3729 50.0779 45.718 48.9838 45.0802C47.0937 43.9812 45.2008 42.8879 43.2236 41.7404L41.5022 44.8126C44.6636 46.6605 47.6647 48.3973 50.6461 50.1625C51.9343 50.9256 52.0721 51.515 51.3492 52.8389C50.9133 53.6134 50.4689 54.3764 49.9092 55.3616Z" fill="#4F4F4F"/>
<path d="M10.4818 29.9957C9.95308 30.8954 9.63805 31.8037 9.01365 32.3987C8.38925 32.9938 7.47234 33.6088 6.71574 33.5689C6.02383 33.5348 5.04504 32.7774 4.7469 32.0941C3.19996 28.3927 1.82458 24.6144 0.404206 20.8589C0.00481331 19.8026 0.266379 18.826 1.16923 18.2224C1.41664 18.0806 1.69201 17.9961 1.97554 17.9749C2.25908 17.9538 2.54372 17.9965 2.809 18.1C3.1662 18.2822 3.31809 19.0054 3.43059 19.5236C3.57685 20.1841 3.45871 20.9244 3.68372 21.5451C4.71033 24.3753 5.8185 27.1769 7.00543 30.2719C7.55108 29.3294 7.95892 28.6205 8.37238 27.9144C9.25554 26.4053 9.70557 26.2658 11.185 27.1228C14.1467 28.8312 17.0915 30.5708 20.2135 32.3874L21.9995 29.3607C20.0701 28.2219 18.2278 27.1314 16.3743 26.0466C15.162 25.3348 13.947 24.623 12.7179 23.9254C11.6603 23.3218 11.4156 22.5018 12.0429 21.4398C12.4029 20.8305 12.7488 20.2126 13.1004 19.5976C13.452 18.9826 13.8598 18.4587 13.3141 17.6843C13.1257 17.3996 13.3338 16.6137 13.6235 16.3148C13.8142 16.1596 14.0348 16.0466 14.2712 15.9828C14.5076 15.9191 14.7545 15.9061 14.9961 15.9446C16.3771 16.1952 17.145 17.8124 16.5431 19.1648C16.1409 20.0674 15.6093 20.9102 15.0439 21.9466C15.5924 22.2797 16.1324 22.6128 16.6781 22.9346C18.7003 24.1219 20.7311 25.2949 22.7505 26.4907C24.8825 27.7578 25.265 29.2753 24.0303 31.4791C23.7096 32.0485 23.3777 32.618 23.043 33.1874C21.8167 35.2887 20.3064 35.7186 18.2306 34.5199C15.7133 33.0536 13.1567 31.556 10.4818 29.9957Z" fill="#4F4F4F"/>
<path d="M9.96705 18.379C9.47203 18.7747 9.022 19.3897 8.46792 19.5179C7.64101 19.6944 6.90128 19.125 7.0391 18.2395C7.12348 17.707 7.77882 16.9326 8.2401 16.887C8.77449 16.8329 9.36515 17.4565 9.95018 17.7811L9.96705 18.379Z" fill="#4F4F4F"/>
</g>
<defs>
<clipPath id="clip0_6424_29498">
<rect width="63" height="73" fill="white" transform="translate(0.238281 0.56958)"/>
</clipPath>
</defs>
</svg>
