<svg width="48" height="80" fill="none" xmlns="http://www.w3.org/2000/svg"><path d="M24.362 45.062c2.856 1.754 5.766 2.073 8.795.41 1.201-.657 2.474-1.194 3.716-1.785-2.509 3.412-5.616 5.878-10.061 5.763-1.584-.042-2.527.193-2.749 1.929-.113.88-.537 1.712-.687 2.592-.257 1.47-.095 2.827 1.428 3.64.389.205.711.543 1.052.832 4.158 3.569 4.302 4.286 2.043 9.253-.956 2.104-1.906 4.207-2.742 6.36-1.01 2.585-.777 3.007 1.756 3.923.419.15.843.284 1.387.47-.473.97-1.315 1.314-2.134.947-1.487-.67-3.549.199-4.439-.814-1.051-1.2.765-2.773.825-4.31.06-1.416.25-2.827.328-4.243.066-1.128.251-2.2.658-3.273.328-.874 1.9-1.616 1.17-2.363-1.266-1.296-2.95-2.243-4.588-3.08-.693-.356-.8.735-.944 1.223-.556 1.857-1.081 3.731-1.47 5.63-.287 1.41-1.034 2.134-2.36 2.652-3.388 1.32-6.805 2.61-9.739 4.865-1.398 1.073-2.199 2.35-1.428 4.316-1.906.048-2.76-.627-2.473-2.532.227-1.531 1.894-3.846 3.435-4.611.956-.477 1.655-1.248 2.354-2.032 1.1-1.241 2.324-2.531 3.944-2.809 2.15-.367 2.383-1.495 2.27-3.357-.21-3.442-.072-6.848 1.607-10.048.902-1.718-.358-3.502-.406-5.269-.054-2.121-.932-3.236-3.06-4.117-5.012-2.08-8.238-5.967-9.457-11.386.926.253 1.655 1.272 2.778 2.984 1.368 2.085 3.298 3.55 5.796 4.117 1.87-.507 3.465.416 5.114 1.019 2.288.831 2.36.795 2.647-1.598.161-1.356.699-2.471 2.085-2.875 1.123-.326 2.223-.205 3.06.76.901 1.036 1.14 2.14.627 3.508-.389 1.036-1.715 2.17-.126 3.327l-.012-.018z" fill="#fff"/><path d="M39.395 5.815C26.728-5.728 5.405.818 1.126 17.461c-1.458 5.678-.64 11.03 1.255 16.371.412.109.514.488.687.808a17.723 17.723 0 005.449 6.04c.819.572 1.59 1.073 2.515.277l-.077-.024c-.962-1.224-1.966-2.417-2.88-3.677-.956-1.314-.896-2.182 1.045-2.152 1.65.024 3.203-.536 4.78-.928.496-.12 1.327-.127 1.112-.97-.216-.839-.915-.857-1.632-.616-1.481.5-3.01.76-4.57.886-.908.073-2.091.863-2.54-.391-.448-1.248-1.254-2.622-.298-4.05 1.189-1.773 2.94-2.948 4.517-4.299.986-.844 1.081.374 1.308.814a60.323 60.323 0 006.65 10.326c.233.289.442.596.663.898.73.994 1.596.283 2.163-.049.884-.524-.06-.988-.37-1.362-2.707-3.297-4.923-6.908-6.985-10.639-.735-1.326-.71-2.128.753-3.014 6.578-3.966 13.33-7.498 20.876-9.228 1.082-.247 2.205-.277 3.298-.494.956-.187 1.924-.2 2.253.838.352 1.12 1.392 2.296.299 3.544-2.468 2.833-5.426 5.087-8.515 7.185-1.057.717-1.254-.175-1.619-.772-1.13-1.844-2.216-3.713-3.382-5.527-.274-.422-.597-1.2-1.374-.621-.765.573-.095 1.085.167 1.537 1.034 1.808 2.062 3.635 3.22 5.365.7 1.049.628 1.549-.525 2.182a122.879 122.879 0 01-8.15 4.11c-.716.326-2.39.278-1.876 1.568.538 1.326 1.661.163 2.468-.145 2.922-1.12 5.646-2.646 8.347-4.207.747-.434 1.266-.615 1.685.428 1.35 3.315 2.67 6.612 2.921 10.26.198 2.917-2.42 3.248-3.937 4.586-1.201 1.061-2.055-.187-2.97-.62-.788-.374-1.457-1.001-2.18-1.508-1.476 1.839-.43 2.821 1.123 3.569-.508 1.17-1.894.416-2.438 1.308l-.125-.03c-.018.066-.036.126-.048.205 1.81 1.88 4.11 2.284 6.477 1.754 2.312-.519 4.48-1.55 6.207-3.303.688-.573 1.375-1.14 2.056-1.724 11.406-9.85 11.609-25.992.466-36.149v-.006zM13.213 5.72c-.896 1.495-2.288 1.856-2.91 3.002-.024-1.682.867-2.544 2.91-3.002zM3.641 28.293c-2.383-3.882-.454-13.135 3.64-17.643.226 1.012.262 1.886-.222 2.796-2.324 4.346-3.579 8.958-3.274 13.937.018.259-.078.524-.144.91zm5.993-5.769c-1.422 1.151-2.82 2.327-4.499 3.725.395-3.863.855-7.27 2.743-10.627.752 2.08 1.404 3.906 2.073 5.739.173.476.101.832-.317 1.17v-.007zm2.378-1.838c-.663-2.176-1.356-4.135-1.846-6.143-.603-2.483 2.15-6.98 4.559-7.703.789-.235 1.29.265 1.822.603 2.038 1.278 3.669 3.038 5.348 4.732.495.5 1.04 1.428 1.81.74.854-.759-.173-1.295-.61-1.783-1.595-1.784-3.326-3.448-5.34-4.732-1.344-.856-.789-1.212.173-1.742C25.27.595 33.72 2.663 39.502 9.408c-10.223 1.308-18.898 5.943-27.49 11.284v-.006zm21.133 5.883c-.305-.627-.352-1.14.287-1.543 3.125-1.996 5.98-4.34 9.046-7.24.8 7.565-1.398 13.707-5.861 19.79-.879-4.087-1.847-7.662-3.472-11.007zm3.239 14.014c5.263-6.034 8.03-12.977 8.018-21.621 2.438 7.697-1.141 17.155-8.018 21.621z" fill="#DEDEDE"/></svg>