<svg width="148" height="39" fill="none" xmlns="http://www.w3.org/2000/svg"><path d="M122.96 32.622c.065-1.03-.681-2.628.239-3.454 1.051-.946 2.21.585 3.387.826 2.611.537 5.187 1.314 7.887.983 1.811-.223 3.657-.657 4.081-2.791.424-2.122-1.219-3.05-2.754-3.834-2.175-1.115-4.41-2.115-6.638-3.128-5.216-2.375-6.913-6.74-6.477-10.645.824-7.414 5.927-9.578 10.36-10.09 3.914-.459 7.821-.242 11.621 1.193 1.554.585 1.715 1.23 1.118 2.652-2.038 4.816-2.014 4.883-7.104 3.653-1.859-.452-3.675-.615-5.444.127-2.473 1.036-2.772 3.76-.543 5.268 2.163 1.459 4.702 2.158 7.032 3.285 3.023 1.465 5.957 3.11 6.943 6.745 2.031 7.505-2.318 13.635-10.331 14.798-3.579.518-7.056.356-10.569-.422-2.061-.452-3.238-1.302-2.814-3.598.077-.434.012-.899.012-1.568h-.006zm-83.743-9.867c0-4.34-.042-8.68.023-13.014.024-1.356-.394-1.862-1.774-1.802-2.08.096-4.165-.012-6.25.036-1.225.03-1.727-.422-1.697-1.706.15-6.36-.896-5.172 4.852-5.238 6.77-.072 13.545.03 20.314-.054 1.751-.024 2.546.337 2.468 2.32-.21 5.51.74 4.6-4.57 4.648-5.21.054-5.21.012-5.21 5.28 0 7.408-.06 14.81.041 22.218.024 1.827-.574 2.279-2.306 2.273-5.891-.03-5.891.03-5.891-5.986v-8.975zm21.951-3.659c0-5.395.048-10.79-.03-16.178-.024-1.555.448-2.062 2.032-2.074 6.584-.066 6.584-.114 6.584 6.48 0 7.119.036 14.231-.03 21.35-.012 1.423.317 1.965 1.834 1.917 3.501-.108 7.003.03 10.504-.066 1.595-.042 2.026.542 2.037 2.085.036 5.226.09 5.226-5.114 5.226-5.144 0-10.283-.066-15.427.037-1.81.036-2.48-.44-2.432-2.37.12-5.467.042-10.934.042-16.407zM119.841 34.6c-3.716-10.64-7.469-21.272-11.149-31.923-.46-1.339-1.129-1.953-2.563-1.905a95.89 95.89 0 01-6.698 0c-1.267-.042-1.828.506-2.229 1.663-3.758 10.862-7.582 21.706-11.346 32.568-.938 2.7-.795 2.833 2.133 2.84h.67c5.37 0 5.293-.03 7.103-5.197 1.422-4.05.305-3.242 4.481-3.339 1.566-.036 3.125 0 4.691 0 2.696 0 4.419 1.338 5.168 4.015.844 3.013 2.826 4.52 5.945 4.52h1.565c3.34 0 3.358-.006 2.229-3.236v-.007zm-19.568-12.587c-.962.019-1.183-.458-.95-1.235 1.118-3.713 2.271-7.42 3.573-11.67 1.428 4.587 2.683 8.62 4.015 12.893-2.366 0-4.499-.03-6.638.012zM33.744 34.605C30.51 25.323 27.29 16.04 24.04 6.77 22.003.96 21.98 1.097 15.86.904c-2.526-.078-3.697.573-4.546 3.153C7.873 14.533 4.102 24.895.494 35.317c-.221.639-.873 1.338-.192 2.08.43.463 7.505.391 7.881-.115.257-.338.347-.808.478-1.23.568-1.85 1.135-3.7 1.673-5.564.281-.982.783-1.464 1.9-1.422 2.235.084 4.47.024 6.704.024 3.242 0 5.292 1.557 6.148 4.672.713 2.596 2.438 3.894 5.174 3.894h1.34c2.135 0 2.85-1.015 2.145-3.044v-.007zM20.24 22.152c-2.001-.03-4.009-.042-6.01 0-1.29.03-1.22-.512-.902-1.507 1.32-4.231 2.557-8.487 3.901-12.983 1.386 4.484 2.683 8.734 4.033 12.965.34 1.061.162 1.543-1.022 1.525z" fill="gray"/></svg>