<svg width="180" height="1004" fill="none" xmlns="http://www.w3.org/2000/svg"><path d="M232.276.34c3.757 23.01 3.836 48.526-13.823 66.454-16.534 16.788-44.143 19.9-61.836 36.137-33.113 30.39-3.325 97.616 5.942 131.509 8.187 29.945 7.943 43.153-22.544 56.229-16.917 7.256-36.342 6.435-53.932 11.378-23.397 6.575-62.061 16.341-76.228 38.54-14.498 22.715-7.433 59.639-1.96 83.883 8.573 37.978 26.743 73.752 42.934 108.805 21.048 45.57 42.731 90.742 67.888 134.224C163.254 744.478 1.632 848.344 57.34 917.843c52.428 55.963 111.446 82.477 124.885 85.417" stroke="#000" stroke-opacity=".11"/></svg>