<svg width="67" height="69" fill="none" xmlns="http://www.w3.org/2000/svg"><g clip-path="url(#clip0_553_710)" fill="#ED863C"><path d="M24.891 13.598c.947-1.65 1.697-3.323 2.758-4.753C31.81 3.245 37.4.465 44.311.961c7.674.55 13.12 4.614 16.334 11.67 1.515 3.33 1.872 6.887 1.337 10.519-.063.426.026.684.328.977 3.846 3.723 5.421 8.292 4.373 13.562-1.125 5.648-4.56 9.41-9.997 11.117-1.432.45-2.997.556-4.51.628-2.131.102-4.273.032-6.41.024-1.313-.005-2.22-.607-2.564-1.659-.53-1.621.616-3.192 2.375-3.208 2.313-.022 4.625.037 6.935-.016 4.108-.094 7.115-2.021 8.856-5.813 1.828-3.981.554-8.92-2.894-11.578-.312-.24-.627-.482-.91-.756-.77-.746-.792-1.672-.566-2.644.96-4.189.257-8.074-2.06-11.669-3.008-4.668-9.03-7.256-14.42-6.127-5.688 1.193-9.402 4.65-11.201 10.244-.189.586-.265 1.209-.43 1.805-.524 1.88-2.378 2.463-3.922 1.305-.671-.503-1.406-1.012-2.19-1.262-2.658-.85-5.526 1.054-5.938 3.85-.029.197-.06.394-.078.594-.17 1.819-.976 2.586-2.782 2.65-4.782.17-8.888 4.127-9.153 8.824-.301 5.35 3.107 9.733 8.16 10.47.579.085 1.171.115 1.756.117 3.793.011 7.59 0 11.384.008 1.643.006 2.721 1.185 2.545 2.746-.112.998-.839 1.826-1.8 2.034-.234.05-.475.088-.714.088-4.232-.013-8.466.08-12.69-.083-6.491-.247-12.041-5.28-13.216-11.77-1.382-7.63 3.104-14.87 10.513-16.817 1.067-.28 1.555-.706 1.959-1.763 1.814-4.737 7.016-7.126 11.78-5.547l.39.123v-.006z"/><path d="M38.297 60.538c.284-.266.457-.418.62-.583 2.361-2.394 4.716-4.796 7.083-7.184 1.073-1.081 2.444-1.15 3.45-.208a2.416 2.416 0 01.31 3.196c-.168.231-.37.436-.569.639-3.747 3.807-7.493 7.615-11.242 11.42-1.426 1.449-2.685 1.452-4.111 0-3.78-3.837-7.554-7.68-11.34-11.508-.676-.685-1.072-1.46-.886-2.44.328-1.727 2.323-2.521 3.734-1.493.228.168.43.375.629.578 2.3 2.332 4.596 4.668 6.895 7 .166.168.339.328.624.605v-.892c0-11.341 0-22.685.006-34.026 0-.415.023-.85.136-1.246.304-1.06 1.313-1.733 2.399-1.662 1.109.072 1.992.842 2.184 1.942.065.367.076.748.076 1.123.002 11.275.002 22.552.002 33.826v.913z"/></g><defs><clipPath id="clip0_553_710"><path fill="#fff" transform="translate(0 .905)" d="M0 0h67v68H0z"/></clipPath></defs></svg>