<svg width="165" height="50" viewBox="0 0 165 50" fill="none" xmlns="http://www.w3.org/2000/svg">
<g id="g11">
<path id="path23" d="M36.8314 13.064C36.8314 6.36781 31.4618 0.939739 24.8346 0.939739C18.2074 0.939739 12.8358 6.36781 12.8358 13.064H36.8314Z" fill="#E3E3E3"/>
<path id="path25" d="M12.467 37.2925C12.467 43.9897 17.8376 49.4167 24.4649 49.4167C31.09 49.4167 36.4616 43.9897 36.4616 37.2925H12.467Z" fill="#E3E3E3"/>
<path id="path27" d="M36.4527 37.2278C43.0789 37.2278 49.1878 31.7997 49.1878 25.1036C49.1878 18.4074 43.0789 12.9804 36.4527 12.9804H12.8464C6.22017 12.9804 0.848572 18.4074 0.848572 25.1036C0.848572 31.7997 6.22017 37.2278 12.8464 37.2278H36.4527Z" fill="#E3E3E3"/>
<path id="path29" d="M12.8358 12.9898C12.8358 19.6849 18.2074 25.114 24.8346 25.114C31.4618 25.114 36.8314 19.6849 36.8314 12.9898H12.8358Z" fill="#F8F8F8"/>
<path id="path31" d="M36.4616 37.2183C36.4616 30.5221 31.09 25.093 24.4649 25.093C17.8376 25.093 12.467 30.5221 12.467 37.2183H36.4616Z" fill="#F8F8F8"/>
<path id="path33" d="M60.3665 37.3625V13.1141L68.2669 13.1046L72.9095 24.6942L78.0766 13.1402H85.6941V37.3625H80.1625V21.4654L72.6616 37.4933L65.7742 20.7205V37.3625H60.3665Z" fill="#E3E3E3"/>
<path id="path35" d="M88.0282 37.3624V13.1768H102.29V17.2782H93.5619V22.8694H101.918V27.3423H93.5619V32.9336H102.17V37.3624H88.0282Z" fill="#E3E3E3"/>
<path id="path37" d="M104.479 37.3501V13.1603C104.479 13.1603 113.854 13.0756 115.447 13.1603C117.782 13.2848 121.899 15.9559 121.899 20.0563C121.899 23.9087 119.749 26.8278 117.661 26.8278L124.714 37.3585H118.571L109.546 23.9725L113.113 23.8449C115.079 23.7235 116.309 22.107 116.309 20.615C116.309 19.123 115.202 17.1623 113.113 17.1623C111.019 17.1623 109.914 17.1623 109.914 17.1623V37.3501H104.479Z" fill="#E3E3E3"/>
<path id="path39" d="M141.636 20.2591C140.13 19.0925 139.914 18.0222 135.614 18.0222C131.31 18.0222 127.867 21.2531 127.867 25.8504C127.867 30.4488 132.108 33.8638 135.428 33.8638C138.746 33.8638 140.409 32.6847 141.636 31.4427V37.033C138.367 38.5532 136.967 38.3293 135.489 38.2759C132.048 38.1504 122.362 36.0432 122.333 25.3545C122.311 17.1559 130.693 12.8055 135.614 12.9279C139.668 13.0315 141.394 14.2953 141.761 14.6689L141.636 20.2591Z" fill="#E3E3E3"/>
<path id="path41" d="M144.1 13.1435H149.508V37.3721H144.1V13.1435Z" fill="#E3E3E3"/>
<path id="path43" d="M157.317 13.2021H163.708L155.778 24.3251L164.21 37.324H157.822L149.136 24.2016L157.317 13.2021Z" fill="#E3E3E3"/>
</g>
</svg>
