<svg width="126" height="54" viewBox="0 0 126 54" fill="none" xmlns="http://www.w3.org/2000/svg">
<g id="Group">
<path id="Vector" fill-rule="evenodd" clip-rule="evenodd" d="M5.3429 5.84583C3.74054 5.84583 2.16978 5.84583 0.601463 5.84583C0.601463 13.8277 0.601463 21.812 0.601463 29.7938C5.24077 29.7938 9.88008 29.7938 14.5218 29.7938C14.5218 28.2531 14.5218 26.7783 14.5218 25.2376C11.4508 25.2376 8.41389 25.2376 5.34533 25.2376C5.3429 18.7623 5.3429 12.3212 5.3429 5.84583Z" fill="#E3E3E3"/>
<path id="Vector_2" fill-rule="evenodd" clip-rule="evenodd" d="M100.668 29.7597C102.168 29.7597 103.637 29.7597 105.103 29.7597C105.103 29.5205 105.103 29.3154 105.103 29.1078C105.103 21.1943 105.103 13.2809 105.103 5.36493C105.103 5.15983 105.103 4.98891 105.137 4.78137C103.637 4.78137 102.168 4.78137 100.668 4.78137C100.668 13.1099 100.668 21.4336 100.668 29.7597Z" fill="#E3E3E3"/>
<path id="Vector_3" d="M54.6079 13.2466C54.6079 13.0756 54.6079 12.9047 54.6079 12.6972C53.1417 12.6972 51.7412 12.6972 50.275 12.6972C50.275 13.3491 50.275 13.9986 50.275 14.6847C50.1728 14.6163 50.1388 14.6163 50.1048 14.5821C48.0915 12.2528 45.5335 11.7718 42.7008 12.4579C38.8445 13.3833 36.2865 16.7406 36.2184 20.8182C36.1163 26.0605 40.3131 30.0673 45.5335 29.6913C47.2745 29.5545 48.7747 28.8342 49.9346 27.5328C50.0367 27.4303 50.0367 27.2593 50.1048 27.1226C50.1728 27.191 50.2069 27.2252 50.275 27.2935C50.275 27.9796 50.309 28.6291 50.275 29.3152C50.2069 30.685 49.6598 31.8497 48.4319 32.57C46.1122 33.9056 42.871 33.1536 41.4048 30.9609C41.3708 30.9267 41.3368 30.8584 41.2687 30.79C40.0408 31.5103 38.8129 32.194 37.5169 32.9143C38.2342 34.2157 39.1557 35.1753 40.4176 35.8272C42.9756 37.197 45.6721 37.4021 48.4684 36.7184C50.5497 36.2398 52.2542 35.1777 53.4505 33.3611C54.3721 31.9229 54.6784 30.3456 54.6784 28.6682C54.6079 23.5919 54.6079 18.4205 54.6079 13.2466ZM45.3974 25.6478C42.6327 25.6478 40.6219 23.6603 40.6219 20.9549C40.6219 18.2496 42.6692 16.2962 45.4314 16.2962C48.1936 16.2962 50.2409 18.2837 50.275 20.9549C50.275 23.6945 48.2301 25.6478 45.3974 25.6478Z" fill="#E3E3E3"/>
<path id="Vector_4" d="M85.3838 13.1441C84.7346 13.5201 84.1899 14.0353 83.5747 14.5481C83.5747 11.6693 83.5747 8.79305 83.5747 5.88013C82.0745 5.88013 80.6399 5.88013 79.1737 5.88013C79.1737 13.862 79.1737 21.8463 79.1737 29.7939C80.6739 29.7939 82.1085 29.7939 83.5747 29.7939C83.5747 29.1762 83.5747 28.5609 83.5747 27.9773C84.2239 28.4559 84.7686 29.0053 85.4178 29.3813C88.2845 31.0245 92.1725 30.4776 94.6283 28.1482C98.3121 24.6884 98.5528 18.6232 95.139 14.8899C92.6151 12.1162 88.4523 11.3617 85.3838 13.1441ZM88.3162 26.0606C85.5175 26.0606 83.5747 24.0731 83.5747 21.2651C83.5747 18.4572 85.5199 16.4355 88.3162 16.4355C91.0808 16.4355 93.0916 18.423 93.1257 21.231C93.1281 24.0389 91.1489 26.0606 88.3162 26.0606Z" fill="#E3E3E3"/>
<path id="Vector_5" d="M24.8234 12.2188C19.7391 12.2188 15.749 16.1596 15.715 21.2285C15.715 26.2999 19.7075 30.2725 24.7553 30.3067C29.8737 30.3067 33.8978 26.3316 33.8978 21.2627C33.9343 16.1938 29.9077 12.2188 24.8234 12.2188ZM24.9596 25.9581C22.195 26.0264 20.2181 24.1073 20.1501 21.2994C20.082 18.6282 22.0272 16.5723 24.7213 16.5039C27.3814 16.4355 29.4287 18.4231 29.4968 21.1626C29.5673 23.8338 27.588 25.8873 24.9596 25.9581Z" fill="#E3E3E3"/>
<path id="Vector_6" d="M66.8577 12.2186C61.7735 12.1844 57.7493 16.1595 57.7493 21.2284C57.7493 26.2973 61.7078 30.3066 66.7897 30.3066C71.908 30.3066 75.9321 26.3315 75.9321 21.2626C75.9662 16.1937 71.9736 12.2186 66.8577 12.2186ZM66.8237 25.9579C64.1636 25.9579 62.1844 23.9704 62.1844 21.265C62.1844 18.5596 64.1296 16.5379 66.8237 16.5379C69.4838 16.5037 71.5311 18.5255 71.5311 21.265C71.5311 23.9362 69.5519 25.9579 66.8237 25.9579Z" fill="#E3E3E3"/>
<path id="Vector_7" fill-rule="evenodd" clip-rule="evenodd" d="M120.864 12.6632C120.489 12.6632 120.387 12.7999 120.283 13.1076C119.565 15.3686 118.816 17.5954 118.065 19.8222C117.588 21.2262 117.144 22.5984 116.633 24.1049C116.531 23.8656 116.463 23.7289 116.395 23.5922C115.031 20.0981 113.664 16.5699 112.3 13.0734C112.232 12.9025 112.062 12.6632 111.926 12.6632C110.425 12.629 108.889 12.629 107.286 12.629C107.388 12.8683 107.456 13.0392 107.524 13.2126C109.742 18.3865 111.926 23.558 114.143 28.7319C114.211 28.9028 114.313 29.1421 114.279 29.3155C113.735 30.8562 112.847 32.0916 111.072 32.3651C110.664 32.4335 110.287 32.4677 109.844 32.5018C109.844 33.8716 109.844 35.173 109.844 36.5795C111.96 36.682 113.905 36.2718 115.541 34.9362C117.075 33.7032 118.031 32.0575 118.68 30.2775C120.83 24.5224 122.911 18.7674 125.026 12.9757C125.061 12.8732 125.06 12.7706 125.095 12.6339C123.696 12.6632 122.262 12.6974 120.864 12.6632Z" fill="#E3E3E3"/>
<path id="Vector_8" d="M64.7081 35.7907L68.9389 37.3656C65.3233 46.9247 56.0763 53.4001 45.6378 53.4001C35.0948 53.4001 25.8162 46.8222 22.2686 37.1605L26.4995 35.6198C29.4002 43.5332 37.0084 48.9122 45.6403 48.9122C54.1992 48.9464 61.7393 43.6358 64.7081 35.7907Z" fill="#E3E3E3"/>
<path id="Vector_9" d="M18.001 8.17541L14.6577 5.0232C20.1164 -0.902753 28.9865 -0.902753 34.4453 5.0232L31.1019 8.17541C27.4523 4.2028 21.6166 4.2028 18.001 8.17541Z" fill="#E3E3E3"/>
<path id="Vector_10" d="M60.1 8.17541L56.7567 5.0232C62.2154 -0.902753 71.0855 -0.902753 76.5443 5.0232L73.2009 8.17541C69.5513 4.2028 63.7521 4.2028 60.1 8.17541Z" fill="#E3E3E3"/>
</g>
</svg>
