<svg width="32" height="38" viewBox="0 0 32 38" fill="none" xmlns="http://www.w3.org/2000/svg">
<g clip-path="url(#clip0_2255_45613)">
<path d="M22.7792 21.2012C20.3989 22.0947 18.7669 24.5157 18.8665 27.0575C18.9463 29.0953 20.2112 30.6699 21.9054 31.4726C22.0114 31.5632 22.1079 31.6621 22.2229 31.7474C23.5539 32.7076 25.2594 32.4178 26.6374 31.7528C29.662 30.2934 30.9913 26.0912 28.8324 23.3926C27.3657 21.5576 25.1385 20.3132 22.7763 21.2005L22.7792 21.2012Z" fill="#DEDEDE"/>
<path d="M9.47719 19.5055C12.1594 20.4518 15.2239 20.313 17.4877 18.4605C20.1745 16.2613 20.824 11.9511 19.6079 8.84211C18.188 5.20994 14.2278 3.08703 10.4161 3.46656C6.39467 3.86447 3.31316 7.40831 2.95437 11.3577C2.72627 13.8757 3.87531 15.8551 5.62353 17.1144C6.66859 18.1393 7.98593 18.977 9.47789 19.5027L9.47719 19.5055Z" fill="#DEDEDE"/>
</g>
<defs>
<clipPath id="clip0_2255_45613">
<rect width="17.1659" height="33.3782" fill="white" transform="translate(0 8.91211) rotate(-31.2777)"/>
</clipPath>
</defs>
</svg>
