<svg width="55" height="52" viewBox="0 0 55 52" fill="none" xmlns="http://www.w3.org/2000/svg">
<g clip-path="url(#clip0_2255_44432)">
<path d="M5.82625 28.0631C6.7383 25.0122 11.6958 24.3951 12.9702 27.5091C13.7079 29.3101 13.2135 31.4576 11.3936 32.4455C9.91665 33.2473 7.74015 33.0036 6.67363 31.6359C6.40318 31.285 6.21048 30.908 6.06771 30.5197C5.70918 29.7708 5.5722 28.9216 5.82625 28.0631Z" fill="#DEDEDE"/>
<path d="M31.7488 4.66412C40.0996 4.25514 44.5279 11.4176 43.5515 18.2336C43.4178 19.9106 42.9266 21.6144 42.2059 23.0725C39.3733 28.7903 32.7779 30.834 27.112 28.2965C21.9083 25.962 18.8528 20.4071 19.5551 14.759C20.3458 8.38211 25.681 4.96036 31.7488 4.66412Z" fill="#DEDEDE"/>
</g>
<defs>
<clipPath id="clip0_2255_44432">
<rect width="41.4298" height="36.3308" fill="white" transform="matrix(-0.878854 0.477091 0.477091 0.878854 36.6875 0.195312)"/>
</clipPath>
</defs>
</svg>
