<svg width="55" height="53" viewBox="0 0 55 53" fill="none" xmlns="http://www.w3.org/2000/svg">
<g clip-path="url(#clip0_2255_44421)">
<path d="M6.45906 28.2208C7.37111 25.1699 12.3286 24.5528 13.6031 27.6668C14.3407 29.4678 13.8463 31.6153 12.0264 32.6032C10.5495 33.405 8.37297 33.1613 7.30644 31.7936C7.036 31.4428 6.84329 31.0657 6.70052 30.6774C6.34199 29.9285 6.20502 29.0793 6.45906 28.2208Z" fill="#DEDEDE"/>
<path d="M19.6141 37.235C21.2983 36.476 23.1657 36.4893 24.746 37.5065C26.5349 38.6573 27.42 40.5973 28.0646 42.5364C28.351 43.3882 28.1248 44.2833 27.626 45.0078C27.3859 46.1056 26.8212 47.1287 25.9311 47.803C22.6454 50.2913 16.862 48.8049 16.0217 44.5157C15.483 41.7547 16.9708 38.4231 19.6125 37.2319L19.6141 37.235Z" fill="#DEDEDE"/>
<path d="M32.3816 4.82183C40.7324 4.41285 45.1607 11.5753 44.1843 18.3914C44.0506 20.0683 43.5594 21.7721 42.8388 23.2302C40.0061 28.948 33.4107 30.9917 27.7448 28.4542C22.5411 26.1197 19.4856 20.5648 20.1879 14.9167C20.9786 8.53982 26.3138 5.11808 32.3816 4.82183Z" fill="#DEDEDE"/>
</g>
<defs>
<clipPath id="clip0_2255_44421">
<rect width="41.4298" height="36.3308" fill="white" transform="matrix(-0.878854 0.477091 0.477091 0.878854 37.3203 0.353027)"/>
</clipPath>
</defs>
</svg>
