<svg width="46" height="55" viewBox="0 0 46 55" fill="none" xmlns="http://www.w3.org/2000/svg">
<g clip-path="url(#clip0_2255_45597)">
<path d="M33.692 35.2311C34.7309 33.5497 35.7926 33.4639 36.8718 34.9699C38.3874 35.3566 38.7153 36.0682 37.8583 37.0908C37.6222 38.2824 36.5516 39.1665 35.6962 39.9352C33.9307 41.5027 31.7593 42.6501 29.5232 43.3896C23.8846 45.2494 17.7823 44.2378 12.7116 41.2922C9.38726 39.3631 5.61067 36.309 5.43033 32.1942C5.32826 29.9166 6.56916 27.4242 7.78192 25.556C10.1395 21.9196 13.782 19.2041 17.9041 17.8815C19.6047 17.3328 22.3877 16.4191 24.1669 17.0462C28.0786 18.4333 25.2688 23.7028 23.7171 25.3771C20.2266 29.1407 14.9733 29.7072 10.1191 29.6124C5.95905 29.5272 1.37389 28.4492 -0.838167 24.4799C-2.0126 22.3756 -2.54331 19.8438 -2.18014 17.4575C-1.85538 15.3209 -0.786716 13.3592 0.767559 11.8702C1.36017 11.3004 3.29018 9.4115 4.3231 9.64663C7.51177 10.3805 3.50346 13.5354 2.49613 14.2523C1.58824 14.9014 4.1515 16.9614 4.91023 16.4142C6.97097 14.9196 9.18393 13.0466 8.05725 10.2292C7.48644 8.79888 5.98756 7.60373 4.48132 7.35159C-2.04056 6.25222 -5.67485 14.9764 -4.55039 20.1038C-3.44209 25.179 0.698382 29.4742 5.6762 30.8745C11.4268 32.4957 19.854 32.1896 24.6805 28.3254C28.5552 25.2205 30.6182 18.2593 25.0718 15.6774C20.0518 13.3363 12.7842 16.6681 9.00247 19.9234C4.78292 23.5554 0.914554 30.3958 4.51695 35.661C8.08925 40.8714 15.0002 44.626 21.1134 45.7177C27.0011 46.7495 37.5139 45.0315 40.0021 38.4653C41.731 33.9046 35.2405 29.9116 32.4336 34.3383C32.1874 34.7251 33.3801 35.568 33.692 35.2311Z" fill="#CACACA"/>
</g>
<defs>
<clipPath id="clip0_2255_45597">
<rect width="50.9526" height="29.4902" fill="white" transform="translate(28.0371 54.7598) rotate(-142.76)"/>
</clipPath>
</defs>
</svg>
