<svg width="48" height="49" viewBox="0 0 48 49" fill="none" xmlns="http://www.w3.org/2000/svg">
<g clip-path="url(#clip0_2255_45599)">
<path d="M18.1715 6.89195C18.0757 6.94271 18.0038 7.00932 17.9474 7.08336C13.7972 9.49275 8.29495 13.7612 6.95473 18.5614C5.70835 23.0241 7.73977 27.5692 9.37518 31.7066C10.8731 35.4982 12.6287 38.8939 16.7313 40.1266C20.4943 41.2575 26.0184 43.3399 29.9582 42.1047C35.2369 40.4501 38.1153 34.8375 40.4 30.1772C41.0926 28.7626 42.063 26.8995 41.7899 25.2618C41.4792 23.3973 40.6906 21.5514 40.0517 19.7853C38.738 16.1506 37.2839 10.3468 33.4928 8.4319C29.3391 6.33564 22.5241 4.60186 18.1715 6.89195ZM18.5411 8.09366C18.5741 8.08347 18.6049 8.08487 18.6396 8.06914C22.5539 6.20862 28.311 8.09998 32.0956 9.54777C32.1933 9.58497 32.2819 9.63643 32.3759 9.679C33.6845 11.7693 29.9983 15.1986 28.8252 16.662C27.0701 18.8528 25.0467 20.9106 22.5213 22.1935C20.6242 23.1573 18.6721 23.0049 16.6735 22.5542C14.1892 21.9945 9.00629 21.0667 9.00269 17.8864C10.0456 15.7449 12.0214 13.9156 13.6501 12.3529C15.2054 10.8604 16.7685 9.32865 18.5411 8.09366ZM10.7195 30.4802C9.47924 27.356 7.88577 23.7604 8.28623 20.3366C9.14896 21.4377 10.7144 22.1299 12.2964 22.7189C15.2359 23.8157 18.3368 24.7422 21.4111 24.085C22.3152 24.9738 22.98 26.1458 23.5196 27.395C23.6444 27.7751 23.7795 28.1394 23.914 28.4777C23.9368 28.5349 23.9713 28.5777 24.0067 28.6201C24.3705 29.601 24.6853 30.5838 25.0033 31.4718C26.1013 34.5346 27.0143 37.7499 28.4622 40.6706C25.132 41.2162 20.8069 39.5097 17.6799 38.6473C13.6125 37.5253 12.1753 34.1462 10.7195 30.4802ZM38.2843 19.7836C38.8786 21.391 39.4422 23.0116 39.9273 24.6556C40.3859 26.2108 39.7729 27.4826 39.1367 28.9167C37.2585 33.1483 34.3146 38.8561 29.6251 40.3895C28.5873 36.7502 27.1079 33.1696 25.794 29.6177C25.5094 28.848 25.2033 27.9582 24.8362 27.0693C24.5271 25.6155 24.2443 24.2964 24.6468 22.7379C27.2681 21.0885 29.3966 18.376 31.1775 16.0541C32.3491 14.528 34.0175 12.7342 34.181 11.0106C36.3162 13.2877 37.3415 17.236 38.2828 19.7822L38.2843 19.7836Z" fill="#DEDEDE"/>
<path d="M30.4416 27.0805C31.0109 26.6592 31.2965 25.9366 31.2557 25.2434C31.2106 24.4486 30.508 23.657 29.713 23.5717C28.9015 23.4841 28.1374 24.0744 27.9101 24.8411C27.7952 25.2308 27.8121 25.6801 27.9512 26.0789C28.061 26.4777 28.2766 26.8558 28.5218 27.0779C29.0784 27.5806 29.8672 27.5057 30.4408 27.0808L30.4416 27.0805Z" fill="#DEDEDE"/>
<path d="M34.277 22.6334C34.8471 22.2118 35.1319 21.4895 35.092 20.796C35.0468 20.0012 34.3451 19.2093 33.5492 19.1243C32.7369 19.037 31.9736 19.627 31.7464 20.3937C31.6301 20.7849 31.648 21.2368 31.7886 21.6369C31.8986 22.0336 32.114 22.4089 32.3589 22.6302C32.9155 23.1329 33.7043 23.058 34.277 22.6334Z" fill="#DEDEDE"/>
<path d="M32.8284 29.7664C32.0173 29.6797 31.2528 30.2692 31.0256 31.0358C30.9101 31.4267 30.9265 31.8772 31.0671 32.2774C31.1771 32.6741 31.3921 33.0506 31.6382 33.2723C32.1947 33.7751 32.9835 33.7002 33.5571 33.2753C34.126 32.8532 34.412 32.1314 34.3712 31.4382C34.3261 30.6434 33.6243 29.8515 32.8284 29.7664Z" fill="#DEDEDE"/>
<path d="M36.5683 25.2383C35.7571 25.1515 34.9927 25.741 34.7658 26.5085C34.65 26.8985 34.668 27.3484 34.8075 27.748C34.917 28.1459 35.1323 28.5232 35.378 28.7442C35.9346 29.2469 36.7225 29.1723 37.2969 28.7471C37.8658 28.325 38.1518 27.6032 38.1119 26.9096C38.0659 26.1152 37.365 25.3229 36.5691 25.2379L36.5683 25.2383Z" fill="#DEDEDE"/>
<path d="M17.4244 28.3856C16.2637 28.4076 15.6385 29.4992 15.5426 30.5372C15.2281 31.8394 16.299 33.1257 17.6428 33.4762C18.3899 33.6713 19.2049 33.5226 19.7447 32.9465C20.4275 32.2179 20.2795 31.1424 20.0479 30.2659C19.7411 29.1045 18.5805 28.3644 17.4244 28.3856ZM18.2515 31.2842C18.2515 31.2842 18.2433 31.2807 18.2397 31.2792L18.2391 31.2775C18.2542 31.2812 18.2562 31.2814 18.2527 31.2848L18.2515 31.2842Z" fill="#DEDEDE"/>
<path d="M14.1493 18.6321C14.6988 18.6318 15.2614 18.2922 15.5688 17.825C15.5764 17.8171 15.5841 17.8121 15.5917 17.8042C15.8869 17.4831 16.1053 16.9246 16.0116 16.4902C15.7105 15.0985 13.9075 15.299 13.1601 16.1838C12.854 16.5462 12.6748 17.1076 12.7672 17.5776C12.9046 18.286 13.4566 18.6327 14.1493 18.6321Z" fill="#DEDEDE"/>
<path d="M20.2567 16.2034C20.8062 16.2031 21.368 15.8638 21.6762 15.3963C21.6838 15.3884 21.6915 15.3834 21.6991 15.3755C21.9952 15.0541 22.2128 14.4959 22.119 14.0615C21.818 12.6698 20.015 12.8703 19.2676 13.7551C18.9615 14.1175 18.7831 14.6786 18.8746 15.1489C19.012 15.8573 19.5641 16.204 20.2575 16.203L20.2567 16.2034Z" fill="#DEDEDE"/>
<path d="M26.3621 13.7756C26.9117 13.7754 27.4735 13.436 27.7817 12.9685C27.7892 12.9606 27.797 12.9556 27.8046 12.9477C28.1007 12.6263 28.3182 12.0682 28.2244 11.6338C27.9234 10.2421 26.1204 10.4425 25.373 11.3273C25.0669 11.6897 24.8885 12.2508 24.9801 12.7212C25.1175 13.4296 25.6695 13.7762 26.363 13.7753L26.3621 13.7756Z" fill="#DEDEDE"/>
<path d="M32.5398 6.51805C32.4926 6.50467 32.4802 6.56905 32.5072 6.59533C33.937 7.99039 35.7827 8.53695 37.0335 10.2195C38.1418 11.7103 38.7246 13.5902 39.3845 15.3061C39.4128 15.3796 39.5282 15.3513 39.5183 15.2724C39.0185 11.1678 36.6081 7.67669 32.5398 6.51805Z" fill="#DEDEDE"/>
<path d="M39.5753 15.9603C39.6307 16.4012 39.7681 16.8299 39.8402 17.271C39.8586 17.3835 40.0022 17.3771 40.0308 17.275C40.1587 16.81 39.9686 16.2902 39.6931 15.9135C39.6549 15.8615 39.5682 15.8959 39.5761 15.96L39.5753 15.9603Z" fill="#DEDEDE"/>
<path d="M12.4211 38.5824C10.9602 37.2416 10.237 35.5012 9.13142 33.9168C9.10175 33.8741 9.03173 33.9038 9.03718 33.9543C9.45861 37.3962 13.6065 41.7205 17.2107 41.6361C17.337 41.6326 17.3412 41.4594 17.2441 41.4113C15.5037 40.5461 13.8891 39.9291 12.4211 38.5824Z" fill="#DEDEDE"/>
<path d="M8.89306 33.3105C8.96386 32.9763 8.78836 32.6232 8.67784 32.3134C8.55913 31.9805 8.3726 31.6756 8.08835 31.4632C8.04705 31.4328 7.97048 31.4633 7.98297 31.5216C8.05529 31.8456 8.16579 32.1603 8.30003 32.4636C8.43276 32.7655 8.51387 33.1484 8.79545 33.3493C8.83373 33.3769 8.88389 33.356 8.8939 33.3101L8.89306 33.3105Z" fill="#DEDEDE"/>
</g>
<defs>
<clipPath id="clip0_2255_45599">
<rect width="35.8245" height="37.1493" fill="white" transform="translate(0.798828 13.752) rotate(-21.6844)"/>
</clipPath>
</defs>
</svg>
