<svg width="49" height="50" viewBox="0 0 49 50" fill="none" xmlns="http://www.w3.org/2000/svg">
<g clip-path="url(#clip0_2255_45630)">
<path d="M35.9629 12.729C32.3972 11.9516 29.476 13.8723 27.472 16.5627C27.2353 13.5685 26.1714 10.4518 23.7074 9.02133C19.3851 6.51015 15.6813 8.5991 13.4801 12.6796C10.9053 17.4519 11.9114 24.1094 12.5815 29.2059C13.2386 34.1904 14.0553 40.0453 16.8695 44.3375C17.1565 44.7751 17.6558 44.8913 18.0952 44.7881C18.11 44.7853 18.1248 44.7887 18.1416 44.7833C20.3002 44.1724 22.269 42.4784 24.1951 41.343C26.8556 39.7773 29.4783 38.1858 31.9664 36.3542C36.2983 33.164 40.3303 28.5457 40.8235 22.9678C41.1399 19.3891 40.3375 13.6808 35.9632 12.7275L35.9629 12.729ZM33.8115 31.208C29.4815 35.939 23.2366 38.0218 18.3262 41.9122C16.1302 35.9105 15.1741 29.3798 14.7958 23.0507C14.5521 18.974 14.6742 13.9498 18.1705 11.1755C23.6917 6.79509 24.6661 18.2097 25.2227 20.6211C25.3911 21.3534 26.2594 21.5214 26.827 21.2034C27.1397 21.175 27.4503 21.0215 27.6764 20.6677C29.6957 17.5027 34.9317 11.7786 37.6653 17.7513C39.8039 22.4235 36.9113 27.8227 33.8111 31.2094L33.8115 31.208Z" fill="#DEDEDE"/>
<path d="M44.7424 15.7146C45.3937 15.4193 46.0876 15.1292 46.2549 14.3505C46.379 13.7704 46.0276 13.254 45.4701 13.093C44.8321 12.9086 44.2813 13.2351 43.731 13.5057C43.2228 13.7565 42.7198 14.0116 42.2158 14.2712C41.7707 14.4992 41.5942 15.1029 41.7354 15.5564C41.9241 16.161 42.5498 16.4516 43.1445 16.2988C43.6995 16.1555 44.2222 15.9502 44.7424 15.7146Z" fill="#B7B4B4"/>
<path d="M40.7156 13.0695C41.4327 13.3299 42.086 12.8855 42.6346 12.4074C43.2007 11.9147 43.5488 11.379 43.7198 10.6447C43.95 9.65633 42.6894 8.99361 41.9914 9.71729C41.6745 10.0453 41.3531 10.3723 41.031 10.696C40.7825 10.945 40.4734 11.1253 40.2485 11.4203C39.6581 11.9369 39.9574 12.9116 40.7138 13.0706L40.7156 13.0695Z" fill="#B7B4B4"/>
<path d="M46.3599 16.6924C45.7612 16.2991 45.053 16.5703 44.445 16.7869C43.9734 16.9543 43.4902 17.091 43.0136 17.2463C42.1249 17.5347 42.0217 19.0978 43.0857 19.21C43.6985 19.2749 44.247 19.2531 44.8533 19.1513C45.7181 19.0054 46.6052 18.7977 46.8818 17.8513C47.0196 17.3803 46.7374 16.9423 46.3595 16.6939L46.3599 16.6924Z" fill="#B7B4B4"/>
<path d="M11.0464 9.23424C10.6857 8.91194 10.3055 8.61313 9.92098 8.31954C9.54429 8.03245 9.0847 7.92698 8.65754 8.19195C8.19568 8.47845 8.00231 9.15455 8.32517 9.61912C8.62004 10.0429 8.96203 10.4387 9.3304 10.8018C9.73179 11.1974 10.1325 11.6832 10.6292 11.9578C11.072 12.2026 11.644 12.1069 11.9895 11.7434C12.3639 11.3494 12.356 10.8335 12.1273 10.3738C11.9008 9.91762 11.4206 9.57215 11.0457 9.23719L11.0464 9.23424Z" fill="#B7B4B4"/>
<path d="M14.5944 8.17013C14.8143 7.42701 14.3308 6.71321 13.9576 6.10295C13.6215 5.55431 13.2042 5.04594 12.6915 4.65866C12.3156 4.37487 11.8641 4.26817 11.4373 4.53167C10.9609 4.82722 10.8109 5.47137 11.1077 5.94701C11.3955 6.40808 11.6676 6.88264 11.9462 7.34937C12.2833 7.91382 12.4515 8.50592 13.0499 8.86022C13.6756 9.23177 14.4062 8.80383 14.5947 8.16865L14.5944 8.17013Z" fill="#B7B4B4"/>
<path d="M16.0708 5.15255C16.1787 5.62157 16.2311 6.08077 16.5079 6.48791C16.8938 7.05749 18.0016 7.20957 18.2955 6.43696C18.5196 5.85055 18.4855 5.40652 18.3452 4.80221C18.2338 4.32148 18.0941 3.84817 17.9875 3.367C17.7155 2.1277 15.851 2.54234 15.865 3.72933C15.871 4.21354 15.963 4.68354 16.0708 5.15255Z" fill="#B7B4B4"/>
</g>
<defs>
<clipPath id="clip0_2255_45630">
<rect width="39.7198" height="41.0011" fill="white" transform="translate(10.0352 0.951172) rotate(13.1098)"/>
</clipPath>
</defs>
</svg>
