<svg width="51" height="51" viewBox="0 0 51 51" fill="none" xmlns="http://www.w3.org/2000/svg">
<g clip-path="url(#clip0_2255_45616)">
<path d="M14.4505 37.0903C20.1377 26.9633 26.4046 17.557 33.5413 8.36443L31.3393 8.31557C31.4195 18.7602 31.9684 29.0033 33.6832 39.3197C34.4974 39.2464 35.3116 39.1731 36.132 39.0998C29.8774 32.3016 23.6228 25.5034 17.3805 18.6991L15.493 19.3771C23.4007 21.0996 31.3639 22.4495 39.3889 23.5C39.1113 23.2374 38.8399 22.9747 38.5623 22.7121C29.9884 27.7756 20.7854 31.6786 12.2115 36.7483C11.3109 37.2797 14.1175 37.7194 14.8391 37.2919C23.3143 32.21 32.4187 28.2826 40.8877 23.1946C41.5971 22.7671 40.2586 22.4311 40.0612 22.4067C32.2398 21.4111 24.4801 20.0551 16.776 18.3999C16.5231 18.3449 14.3395 18.4854 14.8885 19.0778C21.1801 25.8699 27.4656 32.662 33.7449 39.4663C34.078 39.8267 36.3232 40.0344 36.1937 39.2464C34.4666 28.9667 33.7696 18.6625 33.5907 8.24838C33.5783 7.51542 31.6785 7.82693 31.3886 8.19952C24.4 17.2577 17.4853 26.5785 12.5939 36.9498C12.3348 37.4995 14.1976 37.5789 14.469 37.0964L14.4505 37.0903Z" fill="#CACACA"/>
<path d="M40.6226 15.2179C42.2572 14.2834 43.7129 13.0496 45.2427 11.9624C46.8526 10.8141 48.555 9.80013 50.1588 8.64572C50.7386 8.23038 49.0423 8.08989 48.7462 8.24259C45.5202 9.95894 41.881 12.2189 39.3335 14.8514C38.8462 15.3523 40.3759 15.3645 40.6288 15.2179H40.6226Z" fill="#CACACA"/>
<path d="M39.8774 31.4287C42.869 33.7986 45.8051 36.5655 48.9756 38.6667C49.284 38.8743 51.0481 38.7094 50.6657 38.3124C47.9887 35.5088 44.3309 33.2611 41.1296 31.0805C40.8273 30.8729 39.4148 31.0622 39.8774 31.4287Z" fill="#CACACA"/>
<path d="M23.4081 38.6908C21.9833 42.4534 20.5707 46.7045 19.9107 50.6686C19.8367 51.1145 21.4158 51.0839 21.57 50.7052C23.1367 46.9855 24.284 42.6732 25.1044 38.7275C25.1908 38.2999 23.5623 38.2816 23.4081 38.6908Z" fill="#CACACA"/>
<path d="M23.47 12.0603C22.1685 8.46876 20.9472 4.72457 19.3866 1.2369C19.22 0.858209 17.6595 0.955937 17.752 1.3835C18.5292 5.1338 19.9726 9.00627 21.9773 12.2801C22.1932 12.6344 23.655 12.5611 23.47 12.0542V12.0603Z" fill="#CACACA"/>
<path d="M1.89934 28.0938C5.84704 27.0676 9.73305 26.0965 13.7486 25.3452C14.8836 25.1314 13.9892 24.6244 13.2798 24.6916C9.06071 25.107 4.90329 26.1575 0.937093 27.6174C0.172228 27.8983 1.60327 28.1671 1.89934 28.0938Z" fill="#CACACA"/>
</g>
<defs>
<clipPath id="clip0_2255_45616">
<rect width="50" height="50" fill="white" transform="translate(0.714844 0.998535)"/>
</clipPath>
</defs>
</svg>
