<svg width="25" height="26" fill="none" xmlns="http://www.w3.org/2000/svg"><g clip-path="url(#clip0_2387_1470)" fill="#8F8F8F"><path d="M24.67 4.828c-1.504 1.196-2.974 2.359-4.53 3.595-1.955-1.727-4.517-2.566-7.517-2.154-1.775.245-3.318.936-4.478 2.17-2.493 2.64-2.3 6.93.417 9.333 3.052 2.696 7.272 2.536 11.604-.372 1.496 1.237 2.979 2.466 4.461 3.696-4.933 5.043-14.402 5.444-20.058.843-5.746-4.676-5.798-13.412-.107-18.043 5.63-4.58 15.223-4.193 20.208.932z"/><path d="M13.916 16.994c-2.587.015-4.655-1.779-4.672-4.055-.017-2.277 2.037-4.12 4.603-4.13 2.575-.011 4.66 1.805 4.672 4.07.009 2.292-2.011 4.1-4.603 4.115z"/></g><defs><clipPath id="clip0_2387_1470"><path fill="#fff" transform="translate(.229 .705)" d="M0 0h24.442v24.442H0z"/></clipPath></defs></svg>