<svg width="27" height="18" fill="none" xmlns="http://www.w3.org/2000/svg"><g clip-path="url(#clip0_2387_1473)" fill="#8F8F8F"><path d="M11.618 8.177c2.075 1.408 2.695 2.87 2.123 5.033-.533 2.005-2.199 3.402-4.452 3.473-2.84.092-5.686.022-8.613.022V.693h1.53c2.286.011 4.571-.06 6.851.05 2.992.14 4.609 2.021 4.29 4.787-.112.968-.323 1.294-1.724 2.642l-.005.005zm-7.735 5.707c1.66 0 3.212.065 4.76-.022 1.137-.065 1.746-.831 1.816-1.995.065-1.081-.47-1.902-1.628-2-1.628-.135-3.272-.032-4.954-.032v4.049h.006zM3.91 3.655V6.9c1.644 0 3.218.06 4.786-.022.879-.049 1.434-.614 1.434-1.581 0-.935-.415-1.582-1.364-1.62-1.6-.065-3.201-.016-4.856-.016v-.006zm22.827 8.077H18.14c.075 1.256.474 2.223 1.67 2.647 1.24.435 2.4.359 3.375-.68.183-.195.469-.385.717-.396.884-.049 1.773-.016 2.668-.016-.313 2.587-3.207 4.223-6.63 3.826-3.455-.397-5.423-3.272-4.943-7.212.431-3.538 3.046-5.614 6.404-5.337 4.155.342 5.82 3.81 5.336 7.168zm-3.353-2.125c.006-1.543-.992-2.456-2.614-2.445-1.407.01-2.388 1-2.393 2.445h5.007zm.873-6.157c-.378.016-.696.044-1.014.044H17.38V1.548h6.883v1.908l-.005-.006z"/></g><defs><clipPath id="clip0_2387_1473"><path fill="#fff" transform="translate(.67 .684)" d="M0 0h26.147v16.484H0z"/></clipPath></defs></svg>