<svg width="24" height="24" fill="none" xmlns="http://www.w3.org/2000/svg"><g id="credit-card-payment 1" clip-path="url(#clip0_3457_7503)"><g id="Group" fill="#EB5B31"><path id="Vector" d="M3.516 12.047h3.28v1.406h-3.28v-1.406z"/><path id="Vector_2" d="M18.047 8.531H2.109A2.112 2.112 0 000 10.641v11.25C0 23.054.946 24 2.11 24h15.937c1.163 0 2.11-.946 2.11-2.11V10.64a2.113 2.113 0 00-2.11-2.109zM2.109 11.344c0-.389.315-.703.704-.703H7.5c.388 0 .703.314.703.703v2.812a.703.703 0 01-.703.703H2.812a.703.703 0 01-.703-.703v-2.812zm.704 6.328h1.406a.703.703 0 010 1.406H2.812a.703.703 0 010-1.406zM7.5 21.89H2.812a.703.703 0 010-1.407H7.5a.703.703 0 010 1.407zm.938-2.813H7.03a.703.703 0 010-1.406h1.407a.703.703 0 010 1.406zm4.218 0H11.25a.703.703 0 010-1.406h1.406a.703.703 0 110 1.406zm4.688-4.219H15a.703.703 0 010-1.406h2.344a.703.703 0 010 1.406zm0-2.812H15a.703.703 0 010-1.406h2.344a.703.703 0 010 1.406z"/><path id="Vector_3" d="M23.927 12.43L22.53 7.223l-2.347.63a3.511 3.511 0 011.377 2.788v4.607l.874-.234a2.112 2.112 0 001.492-2.584z"/><path id="Vector_4" d="M17.468 7.125l4.702-1.26-.364-1.358-9.77 2.618h5.432z"/><path id="Vector_5" d="M1.641 7.125h4.961l14.84-3.977-.424-1.584A2.112 2.112 0 0018.435.072L3.04 4.197a2.112 2.112 0 00-1.49 2.584l.092.344z"/></g></g><defs><clipPath id="clip0_3457_7503"><path fill="#fff" d="M0 0h24v24H0z"/></clipPath></defs></svg>