<svg width="69" height="70" fill="none" xmlns="http://www.w3.org/2000/svg"><g id="deadline 1"><g id="Layer 2" fill="#EB5B31"><path id="Vector" d="M44.563 14.156A20.844 20.844 0 1065.406 35a20.873 20.873 0 00-20.844-20.844zm6.554 27.399a2.156 2.156 0 01-3.047 0l-4.945-5.031A2.156 2.156 0 0142.492 35v-8.625a2.156 2.156 0 014.313 0v7.734l4.399 4.398a2.156 2.156 0 01-.087 3.048z"/><path id="Vector_2" d="M18.688 37.156H5.75a2.156 2.156 0 110-4.312h12.938a2.156 2.156 0 110 4.312z"/><path id="Vector_3" d="M21.563 25.656h-7.188a2.156 2.156 0 110-4.312h7.188a2.156 2.156 0 110 4.312z"/><path id="Vector_4" d="M21.563 48.656h-7.188a2.156 2.156 0 110-4.312h7.188a2.156 2.156 0 110 4.312z"/></g></g></svg>