<svg width="60" height="60" fill="none" xmlns="http://www.w3.org/2000/svg"><path d="M52.764 10.735a4.616 4.616 0 004.608-4.607 4.616 4.616 0 00-4.608-4.605 4.615 4.615 0 00-4.604 4.605 4.616 4.616 0 004.604 4.607z" stroke="#000" stroke-width="1.758" stroke-miterlimit="10" stroke-linecap="round" stroke-linejoin="round"/><path d="M56.131 9.277c1.754.758 2.993 2.505 2.993 4.528v2.884a1.31 1.31 0 01-1.305 1.305H47.72a1.307 1.307 0 01-1.302-1.305v-2.884c0-2.023 1.236-3.77 2.993-4.528m3.353 41.529a4.616 4.616 0 004.608-4.607 4.615 4.615 0 00-4.608-4.605A4.615 4.615 0 0048.16 46.2a4.615 4.615 0 004.604 4.607z" stroke="#000" stroke-width="1.758" stroke-miterlimit="10" stroke-linecap="round" stroke-linejoin="round"/><path d="M56.131 49.347c1.754.758 2.993 2.505 2.993 4.529v2.883a1.31 1.31 0 01-1.305 1.306H47.72a1.307 1.307 0 01-1.302-1.306v-2.883c0-2.024 1.236-3.771 2.993-4.529M7.23 10.735a4.616 4.616 0 004.606-4.607A4.615 4.615 0 007.23 1.523a4.613 4.613 0 00-4.604 4.605 4.613 4.613 0 004.604 4.607z" stroke="#000" stroke-width="1.758" stroke-miterlimit="10" stroke-linecap="round" stroke-linejoin="round"/><path d="M3.872 9.277c-1.757.758-2.993 2.505-2.993 4.528v2.884c0 .717.585 1.305 1.302 1.305H12.28a1.31 1.31 0 001.305-1.305v-2.884c0-2.023-1.239-3.77-2.993-4.528M7.23 50.806a4.616 4.616 0 004.606-4.607 4.615 4.615 0 00-4.607-4.605A4.613 4.613 0 002.625 46.2a4.613 4.613 0 004.604 4.607z" stroke="#000" stroke-width="1.758" stroke-miterlimit="10" stroke-linecap="round" stroke-linejoin="round"/><path d="M3.872 49.347c-1.757.758-2.993 2.505-2.993 4.529v2.883c0 .717.585 1.306 1.302 1.306H12.28a1.31 1.31 0 001.305-1.306v-2.883c0-2.024-1.239-3.771-2.993-4.529" stroke="#000" stroke-width="1.758" stroke-miterlimit="10" stroke-linecap="round" stroke-linejoin="round"/><path d="M27.902 2.816a27.77 27.77 0 00-16.437 6.95M4.69 42.357a27.737 27.737 0 01-2.591-11.75c0-4.541 1.086-8.827 3.013-12.614m41.373 35.058a27.752 27.752 0 01-16.523 5.425 27.751 27.751 0 01-16.44-5.366m41.294-35.117a27.736 27.736 0 013.014 12.614c0 4.186-.92 8.152-2.575 11.713M32.054 2.82a27.748 27.748 0 0116.437 6.976m-15.23 35.425a14.83 14.83 0 004.7-1.946l1.02 1.016a1.377 1.377 0 001.944 0l2.72-2.72a1.378 1.378 0 000-1.944l-1.016-1.02a14.836 14.836 0 001.947-4.7h1.438c.754 0 1.372-.618 1.372-1.373v-3.85c0-.754-.618-1.372-1.372-1.372h-1.438a14.885 14.885 0 00-1.947-4.704l1.017-1.017a1.378 1.378 0 000-1.943l-2.72-2.72a1.377 1.377 0 00-1.944 0l-1.02 1.016a14.83 14.83 0 00-4.7-1.947V14.56c0-.754-.618-1.372-1.372-1.372h-3.85c-.755 0-1.372.618-1.372 1.372v1.438a14.882 14.882 0 00-4.704 1.947l-1.017-1.017a1.377 1.377 0 00-1.943 0l-2.72 2.721a1.377 1.377 0 000 1.944l1.016 1.016a14.876 14.876 0 00-1.947 4.704h-1.438c-.754 0-1.372.618-1.372 1.372v3.85c0 .755.618 1.372 1.372 1.372h1.438a14.827 14.827 0 001.947 4.701l-1.017 1.02a1.378 1.378 0 000 1.943l2.721 2.721a1.377 1.377 0 001.943 0l1.017-1.016a14.87 14.87 0 004.704 1.946v1.439c0 .754.617 1.372 1.372 1.372h3.85c.754 0 1.371-.618 1.371-1.372V45.22z" stroke="#000" stroke-width="1.758" stroke-miterlimit="10" stroke-linecap="round" stroke-linejoin="round"/><path d="M29.959 35.72c-.077-.003-.153-.07-.31-.193l-3.594-3.56-.488-.486c-1.21-1.252-1.21-3.302 0-4.55 1.096-1.137 2.87-.855 4.043.202.216.196.292.292.349.292.06 0 .136-.096.352-.292 1.172-1.057 2.946-1.339 4.042-.203 1.206 1.25 1.206 3.299 0 4.551l-.491.485-3.591 3.561c-.156.123-.233.19-.313.193z" stroke="#000" stroke-width="1.758" stroke-miterlimit="10" stroke-linecap="round" stroke-linejoin="round"/><path d="M32.025 20.57c4.67.953 8.185 5.085 8.185 10.039 0 5.66-4.59 10.251-10.251 10.251-5.657 0-10.248-4.59-10.248-10.251 0-4.96 3.528-9.1 8.212-10.046" stroke="#000" stroke-width="1.758" stroke-miterlimit="10" stroke-linecap="round" stroke-linejoin="round"/></svg>