<svg width="60" height="54" fill="none" xmlns="http://www.w3.org/2000/svg"><path d="M12.305 24.622a.877.877 0 00.346-.07c8.167-3.491 19.728-9.107 28.426-16.035 2.767-2.204 4.556-3.992 5.643-5.212l.16 1.765a.879.879 0 001.752-.159l-.352-3.862a.878.878 0 00-.534-.813l-.012-.005a.766.766 0 00-.055-.02L47.643.2a.691.691 0 00-.101-.023.858.858 0 00-.225-.01l-3.948.36a.879.879 0 10.16 1.75l1.903-.173c-1.035 1.165-2.8 2.94-5.58 5.141-8.534 6.762-19.879 12.265-27.893 15.69a.879.879 0 00.346 1.687zM6.797 44.916H4.22a.879.879 0 100 1.758h2.578a.879.879 0 100-1.758z" fill="#000"/><path d="M59.391 35.689a3.538 3.538 0 00-4.885-.945l-3.29 2.201V11.93c0-.68-.553-1.234-1.233-1.234h-3.888c-.68 0-1.234.553-1.234 1.234v6.282a.88.88 0 001.758 0v-5.758h2.84v25.668l-2.84 1.9V22.301a.879.879 0 10-1.758 0v18.898l-1.322.885-1.885-.106V16.643c0-.68-.553-1.235-1.234-1.235h-3.887c-.68 0-1.234.554-1.234 1.235v19.986l-3.207-.37V22.246c0-.68-.554-1.234-1.235-1.234H26.97c-.68 0-1.234.554-1.234 1.234v13.076a15.048 15.048 0 01-3.207-1.346v-5.348c0-.68-.554-1.234-1.234-1.234h-3.889c-.68 0-1.233.554-1.233 1.234v3.077a17.02 17.02 0 00-2.422-.176h-2.614v-.4c0-1.015-.825-1.84-1.84-1.84H1.094c-.604 0-1.095.49-1.095 1.094v19.22c0 .604.491 1.095 1.095 1.095h8.201a1.842 1.842 0 001.84-1.834l12.909 4.888a5.662 5.662 0 001.614.243c.272 0 .542-.02.807-.063l17.187-2.477.013-.003a8.483 8.483 0 004.032-1.81l11.1-9.311a3.538 3.538 0 00.593-4.64zM37.056 17.167h2.84v21.29a5.134 5.134 0 00-2.84-1.61v-19.68zm-9.563 5.602h2.84v13.288l-2.513-.289a15.477 15.477 0 01-.327-.05v-12.95zm-9.562 6.382h2.84v3.902a17.001 17.001 0 00-2.84-.998V29.15zm39.727 9.84l-11.086 9.3a6.731 6.731 0 01-3.177 1.424l-17.167 2.474-.025.004a3.722 3.722 0 01-1.573-.1l-13.493-5.11v-7.245a.879.879 0 10-1.758 0v9.118a.083.083 0 01-.083.083H1.758V31.045h7.538c.046 0 .083.037.083.083v4.52a.88.88 0 001.758 0v-2.363h2.615a15.182 15.182 0 017.481 1.977c.059.033.119.065.177.099a16.845 16.845 0 006.174 2.15l.023.002 8.94 1.03a3.381 3.381 0 012.889 3.02l.04.407-15.795.974c-.01 0-.02 0-.028-.002a1.879 1.879 0 01-1.28-.67.879.879 0 10-1.35 1.126 3.624 3.624 0 002.668 1.305h.04l.024-.002 16.689-1.03 3.29.185a.876.876 0 00.538-.148l1.96-1.311 9.254-6.193a1.775 1.775 0 012.452.474 1.776 1.776 0 01-.28 2.314z" fill="#000"/></svg>