<svg width="74" height="91" fill="none" xmlns="http://www.w3.org/2000/svg"><g clip-path="url(#clip0_2640_24943)"><path d="M58.54 46.525l-4.746-1.783c.97-.467 1.932-.948 2.904-1.412.89-.424 1.276-1.92.132-2.352-1.23-.46-2.459-.925-3.689-1.385 5.607-5.405 11.288-10.731 16.737-16.297.492-.503.305-1.52-.362-1.774-1.237-.467-2.464-.958-3.693-1.441.78-.779 1.572-1.545 2.343-2.333.337-.342.381-.725.255-1.052-.056-.298-.236-.566-.617-.716-7.994-3.129-15.985-6.26-23.977-9.389-.47-.184-1.002-.121-1.347.286-7.715 9.093-15.202 18.39-23.065 27.357-.512.585-.391 1.748.414 2.029 1.115.388 2.23.77 3.345 1.16-.68.787-1.36 1.577-2.047 2.359-.515.584-.39 1.746.414 2.026 1.465.512 2.933 1.02 4.4 1.528-7.361 8.017-14.99 15.783-22.273 23.871-1.065 1.186.476 2.55 1.698 1.924l6.393-3.285a467.277 467.277 0 00-6.382 6.908c-1.067 1.184.476 2.55 1.698 1.923 17.03-8.746 34.051-17.566 51.334-25.797.89-.424 1.274-1.922.133-2.352l-.003-.003zM21.744 64.263c-.026-.573-.064-1.146-.073-1.72-.007-.575-.014-1.159-.1-1.728.54-.276 1.081-.552 1.622-.826-.082.582-.084 1.186-.096 1.68-.01.412-.09 1.25.067 1.87l-1.421.726v-.002zM17.1 66.635a17.983 17.983 0 01-.067-1.508c-.001-.315.052-.745.037-1.15.408-.431.813-.864 1.223-1.295-.02.51-.002 1.021.022 1.542.025.506-.078 1.208.079 1.746l-1.295.664.001.001zm-1.02-1.28a11.02 11.02 0 00.023 1.791l-3.894 2a816.346 816.346 0 013.883-4.13c-.002.124-.007.24-.012.34zm3.192-1.216c-.07-.677-.17-1.332-.355-1.973.57-.293 1.143-.582 1.714-.876-.046.508-.07 1.017-.1 1.522-.04.684-.075 1.374.04 2.046-.379.195-.76.388-1.141.582-.012-.453-.121-.935-.158-1.3zm4.934-1.92c-.045-.805.082-1.833-.035-2.733l2.103-1.072c-.1.64-.146 1.288-.17 1.952-.018.506-.077 1.127.082 1.632l-1.904.969c-.024-.344-.071-.649-.077-.748h.001zm2.827-1.934c-.018-.756.013-1.495-.053-2.231.712-.363 1.425-.73 2.14-1.091-.04.523-.024 1.06-.036 1.541-.014.572-.118 1.357.023 2.003-.66.335-1.315.67-1.973 1.006-.014-.418-.092-.849-.102-1.23v.002zm2.998-1.517c-.023-.685.048-1.5-.083-2.228l1.955-.987c-.028.396-.022.794-.028 1.155-.012.695-.087 1.595.138 2.327l-1.868.946c-.028-.415-.1-.835-.112-1.212h-.002zm2.847-1.794c-.039-.59.007-1.256-.033-1.893.683-.345 1.368-.682 2.05-1.029-.02.582-.017 1.164-.03 1.748-.012.542-.1 1.218.01 1.8-.618.313-1.238.618-1.855.928-.011-.528-.112-1.075-.143-1.557l.001.003zm2.95-1.256c-.046-.683-.098-1.36-.213-2.023l1.771-.889c.002.343.017.687.017 1.019-.002.718-.185 1.748.068 2.482-.51.255-1.022.509-1.532.765-.006-.47-.084-.953-.11-1.356l-.001.002zm2.449-1.257c-.01-.625-.007-1.361-.104-2.048l1.858-.93c-.002.436.017.874.044 1.313.032.576.04 1.416.252 2.086L38.286 55.9c.068-.47 0-.993-.008-1.44v.001zm2.636-1.74c-.08-.531-.112-1.067-.162-1.6.756-.377 1.508-.76 2.265-1.135-.041.53-.057 1.062-.079 1.593-.021.564-.065 1.31.063 1.963-.586.29-1.17.586-1.757.878-.074-.592-.258-1.212-.332-1.7l.002.002zm2.922-1.218c-.034-.635-.03-1.264-.078-1.888.606-.298 1.216-.587 1.822-.884-.014.564 0 1.13.022 1.708.022.542-.027 1.195.02 1.813-.535.263-1.074.52-1.608.786-.052-.534-.153-1.073-.178-1.535zm2.61-1.136a37.605 37.605 0 00-.195-1.96c.666-.33 1.337-.649 2.006-.975-.044.654.025 1.336.067 1.92.029.4.049.985.161 1.519-.62.302-1.246.598-1.868.902-.05-.49-.137-.98-.171-1.404v-.002zm2.736-1.09c-.096-.701-.11-1.467-.203-2.197.56-.274 1.122-.544 1.683-.818l.392.15a11.03 11.03 0 00-.075 1.516c.006.479-.062 1.169.126 1.676-.558.27-1.117.538-1.673.809-.088-.406-.203-.804-.248-1.136h-.002zm2.714-1.428c-.02-.377-.037-.761-.066-1.144.985.373 1.97.745 2.953 1.119-.92.438-1.834.889-2.755 1.331-.005-.452-.115-.939-.134-1.307h.002zm11.8-25.65c.087.688.252 1.382.345 2.014.027.19-.006.922.08 1.506a534.87 534.87 0 01-1.648 1.569c-.046-.235-.094-.458-.128-.65a31.888 31.888 0 00-.58-2.553c.646-.625 1.29-1.257 1.931-1.887zm.777-.206c.832.325 1.662.652 2.494.979-.61.592-1.222 1.181-1.834 1.769-.102-.87-.382-1.906-.66-2.748zm-3.277 2.642c.053.564.147 1.125.227 1.696.084.601.133 1.2.157 1.806-.52.494-1.041.99-1.562 1.482-.045-.413-.1-.82-.14-1.2-.075-.724-.144-1.502-.257-2.265.527-.506 1.052-1.011 1.577-1.518h-.002zm-2.302 2.218c.033.402.068.803.091 1.19.048.793.023 1.66.056 2.503l-1.261 1.193c-.043-.326-.098-.642-.139-.915-.113-.8-.233-1.603-.373-2.402.544-.52 1.083-1.046 1.627-1.566l-.001-.003zm-2.201 2.119c-.002.405.028.814.068 1.23.054.575.106 1.15.135 1.728.01.214.002.43-.004.642-.43.403-.858.81-1.287 1.214-.021-.212-.045-.41-.059-.568-.076-.93-.175-1.886-.348-2.818.499-.476.993-.953 1.493-1.429h.002zm-2.126 2.035c.017.639.097 1.28.134 1.915.035.573.027 1.152-.007 1.725-.505.478-1.008.958-1.513 1.435-.042-.343-.108-.68-.138-.97-.082-.774-.173-1.56-.332-2.329.617-.594 1.235-1.185 1.855-1.776h.001zm-2.451 2.347c.015.492.057.985.098 1.474.045.591-.052 1.425.08 2.098-.484.459-.969.919-1.452 1.38-.094-.35-.22-.695-.282-.969-.155-.681-.254-1.387-.397-2.078.653-.633 1.299-1.274 1.955-1.906l-.002.001zm-2.601 2.537c.049.448.131.893.218 1.314.061.306.104.751.191 1.183l-2.14-.804c.575-.566 1.152-1.128 1.73-1.692v-.001zm-6.62-27.22c.943.367 1.885.736 2.827 1.106 6.512 2.548 13.026 5.095 19.54 7.646-6.861 6.65-13.916 13.095-20.706 19.82-.555.55-.33 1.685.4 1.961 2.707 1.026 5.412 2.05 8.119 3.073-14.329 6.848-28.482 14.085-42.613 21.342 7.375-7.935 14.96-15.678 22.146-23.791.518-.585.39-1.754-.414-2.033a6041.348 6041.348 0 00-9.58-3.315c4.492-5.223 8.84-10.565 13.179-15.915.742-.916 7.941-9.567 7.102-9.895zM27.31 41.058c-.083-.545-.172-1.085-.225-1.635a9.6 9.6 0 01-.043-.664l2.314.801c-.503.562-1.005 1.125-1.51 1.682l-.538-.185h.002zm-.993-2.55c-.019.264-.017.526-.025.726-.02.498.011.999.066 1.494l-2.033-.702c.49-.566.979-1.131 1.464-1.7l.528.183z" fill="#EB5B31"/><path d="M53.665 52.717c-7.3 3.092-14.312 7.152-21.433 10.651-6.54 3.216-13.155 6.294-19.594 9.715-.087.047-.011.195.077.154 6.635-2.968 13.144-6.226 19.67-9.428 7.09-3.482 14.683-6.679 21.35-10.95.074-.048.012-.175-.071-.14v-.002zM20.804 29.932c3.094-3.511 6.033-7.16 8.975-10.8 3.075-3.808 6.749-7.74 8.993-12.115.027-.052-.046-.095-.08-.054-3.358 3.653-6.129 8.005-9.25 11.876-2.94 3.645-6.03 7.183-8.738 11.007-.048.07.043.153.101.087h-.001zm-.867.876c-.339.381-.766.861-.928 1.35-.018.06.034.11.09.079.47-.266.846-.845.967-1.37.017-.074-.08-.115-.128-.061l-.001.002zm2.238 13.491c-5.99 5.734-11.558 12.055-17.084 18.24-.051.056.035.128.088.076 5.954-5.772 11.571-12.041 17.063-18.256.04-.045-.026-.1-.067-.059zm34.995-5.983c4.497-3.492 9.379-7.448 13.049-11.827.033-.038-.018-.103-.06-.067-4.457 3.713-9.057 7.602-13.097 11.774-.065.068.034.18.109.123l-.001-.003z" fill="#2D2D2D"/></g><defs><clipPath id="clip0_2640_24943"><path fill="#fff" transform="rotate(25.535 17.18 75.815)" d="M0 0h43.775v79.71H0z"/></clipPath></defs></svg>