<svg width="145" height="182" fill="none" xmlns="http://www.w3.org/2000/svg"><g clip-path="url(#clip0_2640_24818)" fill="#EB5B31"><path d="M75.691 131.494c2.294-31.747 6.853-62.364 13.805-93.447l-5.488 2.405c12.298 25.922 25.519 50.804 41.7 74.531l5.785-3.357a52394.85 52394.85 0 01-69.882-29.299l-3.87 3.854c21.499-4.781 42.703-10.555 63.712-17.145-.989-.335-1.963-.678-2.952-1.014-15.279 22.447-33.456 42.726-48.729 65.189-1.605 2.357 5.826.232 7.111-1.66 15.015-22.38 32.92-42.607 47.913-64.995 1.254-1.879-2.436-1.18-2.952-1.014-20.443 6.493-41.152 12.018-62.07 16.733-.688.154-5.911 3.009-3.87 3.854a40874.808 40874.808 0 0170.126 29.148c1.239.516 7.017-1.543 5.785-3.357-16.169-23.621-29.826-48.486-42.332-74.218-.88-1.812-5.204 1.144-5.487 2.404-6.743 30.578-12.998 61.726-13.047 93.169-.002 1.666 4.684-.273 4.795-1.787l-.053.006zm39.21-84.501c2.949-4.203 5.109-8.946 7.623-13.409 2.64-4.707 5.664-9.185 8.282-13.9.949-1.7-3.397-.104-3.951.616-5.968 7.976-12.325 17.78-15.558 27.259-.622 1.806 3.165.082 3.619-.573l-.015.007zm16.939 41.231c10.124 2.47 20.571 5.994 30.824 7.59 1.002.163 5.162-2.272 3.758-2.822-9.85-3.911-21.476-5.313-31.897-7.072-.986-.17-4.251 1.922-2.685 2.304z"/><path d="M99.635 125.206c.845 11.005 2.286 23.214 5.251 33.844.334 1.196 4.193-.692 4.134-1.812-.445-11.062-2.611-23.118-5.159-33.887-.282-1.164-4.32.659-4.226 1.855zM68.936 58.807c-7.37-7.452-14.72-15.376-22.61-22.272-.85-.752-4.585 1.281-3.861 2.24 6.261 8.45 14.307 16.438 23.045 22.292.942.635 4.463-1.224 3.42-2.275l.006.015zm-34.625 64.68c8.548-7.085 17.007-13.962 26.04-20.44 2.552-1.834-.241-2.071-1.913-1.09-9.925 5.875-18.961 13.261-27.052 21.447-1.56 1.577 2.28.605 2.925.083z"/></g><defs><clipPath id="clip0_2640_24818"><path fill="#fff" transform="rotate(-24.945 129.661 28.68)" d="M0 0h136.005v137.345H0z"/></clipPath></defs></svg>