<svg width="15" height="9" viewBox="0 0 15 9" fill="none" xmlns="http://www.w3.org/2000/svg">
<path fill-rule="evenodd" clip-rule="evenodd" d="M6.6634 0.0388092C4.81218 0.300542 2.94816 1.28054 1.18885 2.91697C0.61136 3.45411 0.174658 3.92571 0.0765558 4.11816C0.0127104 4.24335 0 4.30687 0 4.50033C0 4.80981 0.0697456 4.9428 0.442926 5.34501C1.72908 6.73118 3.4097 7.92633 4.87016 8.49334C5.88021 8.88548 6.64336 9.02199 7.6866 8.99718C8.68174 8.97348 9.46949 8.79116 10.4806 8.35052C11.6552 7.83863 13.0677 6.84075 14.1531 5.75604C14.9217 4.98796 15 4.87194 15 4.50033C15 4.18231 14.9322 4.05838 14.5146 3.61315C13.3876 2.41174 12.0729 1.42145 10.7859 0.804599C9.90549 0.382654 9.14877 0.147182 8.32189 0.0379084C7.93641 -0.0130295 7.02663 -0.0125383 6.6634 0.0388092ZM8.06483 1.53714C8.49326 1.60817 8.92013 1.76808 9.30528 2.00183C9.53213 2.1395 10.0387 2.61055 10.1867 2.82151C10.5534 3.34413 10.7259 3.87565 10.7279 4.48993C10.7312 5.46425 10.2677 6.32629 9.4227 6.9174C8.86547 7.30722 8.22041 7.50311 7.49404 7.50311C5.70252 7.50311 4.26669 6.16668 4.27206 4.50415C4.27468 3.69638 4.56523 3.01538 5.1516 2.44264C5.50054 2.10182 5.87246 1.86384 6.30429 1.70502C6.49808 1.63372 6.8685 1.53973 7.04501 1.51705C7.25169 1.49049 7.85519 1.50239 8.06483 1.53714ZM7.16357 2.37237C6.59551 2.45511 6.06666 2.73514 5.70831 3.14294C5.52652 3.34983 5.31819 3.73711 5.24982 3.99532C5.17688 4.27078 5.18322 4.77555 5.26309 5.05022C5.48213 5.80335 6.10829 6.37813 6.94227 6.59168C7.22824 6.6649 7.79413 6.65914 8.09586 6.57992C9.32254 6.25788 10.0355 5.13405 9.7443 3.98167C9.68304 3.73921 9.47199 3.34811 9.29169 3.14294C8.99354 2.80366 8.49384 2.50826 8.05773 2.41346C7.81019 2.35963 7.38514 2.34011 7.16357 2.37237Z" fill="white"/>
</svg>
