<svg width="114" height="49" viewBox="0 0 114 49" fill="none" xmlns="http://www.w3.org/2000/svg">
<g clip-path="url(#clip0_524_5475)">
<path d="M75.7407 42.7545C75.7407 43.9703 75.7628 44.8054 75.7313 45.6373C75.7187 46.0148 75.936 46.6003 75.3125 46.6515C74.6796 46.7059 74.774 46.13 74.7709 45.73C74.7614 44.4023 74.774 43.0745 74.7898 41.7499C74.7929 41.4428 74.7457 41.062 75.133 40.9564C75.4699 40.8668 75.7155 41.1068 75.9328 41.3532C76.8523 42.409 77.7749 43.4648 78.899 44.7542C78.899 43.5864 78.8864 42.7065 78.9053 41.8267C78.9116 41.4811 78.8203 41.0044 79.3493 40.9724C79.8783 40.9436 79.872 41.398 79.872 41.7627C79.8815 43.1417 79.8783 44.5238 79.8689 45.9028C79.8689 46.1524 79.9382 46.4595 79.6327 46.5939C79.258 46.7571 79.0439 46.4499 78.8455 46.2324C77.8883 45.1829 76.953 44.1143 75.7376 42.7481L75.7407 42.7545Z" fill="#B9B9B9"/>
<path d="M20.3933 43.5961C20.3933 42.8507 20.3933 42.1084 20.3933 41.3629C20.3933 40.9566 20.4878 40.611 20.9538 40.5534C21.508 40.4863 21.5332 40.9118 21.5269 41.2829C21.508 42.2108 21.401 43.0554 22.8589 42.6555C23.4446 42.4955 23.9893 43.1642 24.0712 43.8745C24.1436 44.5048 24.1436 45.1479 24.1247 45.7846C24.1121 46.1685 24.2507 46.7316 23.5737 46.6868C23.0352 46.6484 23.136 46.1909 23.1265 45.8358C23.1139 45.4102 23.1454 44.9847 23.1202 44.5592C23.0888 44.0665 23.0037 43.5418 22.3645 43.5642C21.804 43.5865 21.6371 44.0121 21.5269 44.5368C21.3726 45.2695 22.0717 46.6516 20.8531 46.5749C19.8958 46.5141 20.5665 45.1511 20.3965 44.3896C20.3398 44.1369 20.387 43.8585 20.387 43.5929H20.3933V43.5961Z" fill="#B9B9B9"/>
<path d="M92.899 45.4549C93.2989 44.703 93.7744 44.1687 93.4658 43.4105C93.3524 43.1321 93.3524 42.8793 93.6736 42.7674C93.9759 42.6618 94.1774 42.8441 94.2813 43.1129C94.5521 43.8008 94.8072 44.4951 95.0969 45.2694C95.7959 44.735 95.692 43.8488 96.073 43.2185C96.2368 42.9497 96.3501 42.6042 96.7626 42.7866C97.2035 42.9817 96.9767 43.3017 96.8697 43.5864C96.5863 44.3287 96.3029 45.071 96.0037 45.8069C95.8526 46.178 95.8432 46.6707 95.2669 46.7027C94.6403 46.7379 94.5112 46.2548 94.3254 45.8165C94.2498 45.6373 94.1774 45.4581 94.0955 45.2598C93.5256 45.4485 93.6547 45.9956 93.4091 46.306C92.9116 46.9267 92.4833 46.9299 92.1527 46.1812C91.7717 45.3109 91.4347 44.4215 91.0632 43.548C90.9246 43.2249 90.8396 42.9273 91.2427 42.7642C91.545 42.6426 91.7685 42.8601 91.8756 43.0841C92.2125 43.7976 92.5054 44.5367 92.8958 45.4581L92.899 45.4549Z" fill="#B9B9B9"/>
<path d="M109.704 45.2853C109.632 45.4485 109.496 45.6244 109.474 45.8164C109.43 46.2323 109.525 46.7571 108.873 46.6707C108.357 46.6003 108.486 46.114 108.483 45.7716C108.467 44.3383 108.476 42.9017 108.47 41.4683C108.47 41.0236 108.47 40.5501 109.075 40.5917C109.644 40.6269 109.446 41.1324 109.459 41.4555C109.487 42.2522 109.468 43.0489 109.468 43.9415C110.196 43.8647 110.429 43.1832 110.898 42.8505C111.134 42.6841 111.354 42.5945 111.609 42.7609C111.842 42.9113 111.833 43.1608 111.65 43.2888C109.767 44.5942 111.537 45.4485 112.107 46.5043C110.715 47.1634 110.668 45.3877 109.701 45.2853H109.704Z" fill="#B9B9B9"/>
<path d="M44.6457 44.204C44.4788 43.2954 45.2818 41.7116 43.213 41.7532C43.0996 41.7532 42.8918 41.4589 42.8855 41.2989C42.876 40.9726 43.1563 40.8958 43.4334 40.8926C44.63 40.8926 45.8297 40.8926 47.0262 40.899C47.2939 40.899 47.5962 40.9694 47.5962 41.2925C47.5962 41.6988 47.3033 41.8108 46.9444 41.7308C45.8139 41.4877 45.7856 42.198 45.8139 43.0234C45.8454 43.9737 45.8297 44.9271 45.8202 45.8806C45.8171 46.2421 45.8706 46.6644 45.3353 46.7092C44.7591 46.7572 44.6363 46.3925 44.6426 45.9126C44.6457 45.3846 44.6426 44.8535 44.6426 44.204H44.6457Z" fill="#B9B9B9"/>
<path d="M68.4574 45.0519C69.3265 44.3193 68.8667 42.4572 70.035 42.9083C70.8568 43.225 69.7043 44.508 69.4556 45.3527C69.1753 46.3093 68.6999 47.2148 68.237 48.1043C67.9914 48.5746 67.5285 48.8881 66.9869 48.9841C66.7224 49.0321 66.4579 48.9841 66.3823 48.645C66.3288 48.405 66.4295 48.2098 66.6468 48.1394C68.3818 47.5635 67.9252 46.3989 67.4309 45.2055C67.2073 44.668 67.0341 44.1081 66.8137 43.5706C66.6909 43.2698 66.4925 42.9659 66.9082 42.7707C67.3868 42.5436 67.5537 42.9115 67.7048 43.2666C67.9473 43.8361 68.1866 44.4089 68.4605 45.0519H68.4574Z" fill="#B9B9B9"/>
<path d="M38.1749 45.8742C38.2914 45.8486 38.6693 45.599 38.77 46.0821C38.8488 46.4629 38.474 46.594 38.1781 46.6964C37.3216 46.9876 36.506 46.9396 35.8731 46.2197C35.2087 45.4614 35.1866 44.5144 35.574 43.6729C35.9581 42.841 36.7611 42.4891 37.6837 42.6267C38.4583 42.7419 38.9054 43.257 38.9338 44.0313C38.9684 44.9111 38.2757 44.7991 37.7089 44.8631C37.2932 44.9111 36.5344 44.604 36.5564 45.2055C36.5847 45.9701 37.309 46.1109 38.1718 45.8742H38.1749Z" fill="#B9B9B9"/>
<path d="M10.5026 46.8468C9.45091 46.6485 8.74242 46.5333 7.95205 46.7316C7.11131 46.946 6.43116 46.4725 6.4532 45.4167C6.45635 45.2567 6.41226 45.0903 6.4532 44.9431C6.63898 44.252 5.97457 42.9946 6.95387 42.9627C7.83555 42.9339 7.2719 44.1721 7.41045 44.8311C7.51436 45.3175 7.2845 45.9926 8.0969 45.9926C8.88727 45.9926 8.90931 45.3911 8.99433 44.7768C9.08564 44.1273 8.56293 42.9371 9.49815 42.9627C10.405 42.9882 9.8886 44.1817 9.92324 44.8407C9.95788 45.4742 10.1437 46.0373 10.5026 46.85V46.8468Z" fill="#B9B9B9"/>
<path d="M89.8006 42.9082C87.9585 44.3352 88.0278 45.551 89.788 46.3061C89.3566 47.0228 88.7048 46.8116 88.1569 46.6932C87.5302 46.5556 87.505 45.9477 87.42 45.4166C87.3098 44.7255 87.4925 44.0664 86.976 43.3338C86.5793 42.7739 87.9868 42.4955 87.9711 41.4429C88.6607 42.086 88.8055 42.9114 89.8006 42.9082Z" fill="#B9B9B9"/>
<path d="M31.8583 43.7208C32.718 44.4439 33.8453 44.5751 33.7697 45.7173C33.7351 46.2612 33.3194 46.7091 32.7432 46.7635C32.0315 46.8307 31.2034 47.0675 30.835 46.114C31.0554 45.8133 31.2506 45.8805 31.4584 45.9253C31.8394 46.0052 32.3433 46.3188 32.5322 45.7621C32.7211 45.2118 32.1291 45.087 31.7891 44.9238C31.0963 44.5975 30.857 44.0696 31.0774 43.3785C31.3167 42.6362 32.0126 42.6458 32.6267 42.5978C33.0077 42.569 33.4674 42.7002 33.4769 43.1065C33.4926 43.6792 32.9636 43.4297 32.6393 43.4809C32.4535 43.5097 32.2771 43.5896 31.8615 43.7176L31.8583 43.7208Z" fill="#B9B9B9"/>
<path d="M17.745 46.7957C16.517 46.7925 15.6699 45.8966 15.7423 44.6712C15.8148 43.4298 16.9326 42.4092 18.041 42.6075C18.3748 42.6683 18.8818 42.7003 18.8345 43.1706C18.781 43.6954 18.2835 43.5002 17.9403 43.5066C17.1341 43.5226 16.8602 44.0217 16.8602 44.7544C16.8602 45.5319 17.279 45.8934 18.0095 45.9798C18.337 46.0182 18.9794 45.5159 18.9164 46.2773C18.8723 46.8149 18.2079 46.7669 17.745 46.7957Z" fill="#B9B9B9"/>
<path d="M12.0898 43.5992C11.8914 42.7705 12.1213 42.4826 12.9368 42.9177C13.1919 43.0521 13.5351 43.8264 13.3493 44.0759C12.9683 44.591 13.151 45.1989 13.0911 45.7653C13.0502 46.162 13.1919 46.7091 12.5369 46.6675C12.0111 46.6355 12.0992 46.1716 12.0929 45.8164C12.0835 45.0774 12.0929 44.3383 12.0929 43.5992H12.0898Z" fill="#B9B9B9"/>
<path d="M104.842 42.7035C105.239 43.4202 105.642 42.9402 106.08 42.6971C106.373 42.5339 106.703 42.5403 106.839 42.9338C106.943 43.2314 106.785 43.4746 106.499 43.5257C105.195 43.7625 105.312 44.7543 105.312 45.7174C105.312 46.1013 105.46 46.6676 104.83 46.6772C104.194 46.69 104.342 46.1205 104.323 45.7334C104.279 44.9463 104.301 44.156 104.238 43.3722C104.2 42.9018 104.32 42.6651 104.842 42.7003V42.7035Z" fill="#B9B9B9"/>
<path d="M72.2046 36.1892C71.7134 36.6532 71.1025 36.4452 70.5546 36.4452C61.3757 36.4644 52.1936 36.4676 43.0147 36.4548C40.2878 36.4548 38.9527 35.127 38.9495 32.3755C38.9338 22.9946 38.9369 13.6137 38.9558 4.23604C38.9621 1.4525 40.2469 0.124716 42.999 0.115117C52.1275 0.0831226 61.2561 0.0735242 70.3815 0.09912C73.4075 0.108718 74.5159 1.24453 74.5254 4.35443C74.538 9.51838 74.7678 14.6823 74.4876 19.8431C73.4799 19.6383 73.165 18.6177 72.4754 18.029C69.9941 15.9173 67.727 13.5529 65.2173 11.4669C65.1008 11.3709 65.063 11.1917 65.0126 11.0413C64.7261 9.73915 64.1782 8.72491 62.6227 8.83049C60.6357 7.71068 58.5071 7.38113 56.2588 7.49631C54.6403 7.5795 53.0155 7.51231 51.3907 7.51231C49.6588 7.51231 48.7918 8.42096 48.7897 10.2383C48.7834 12.5259 49.0007 14.8359 48.7267 17.0915C48.3205 20.4254 48.7047 23.7529 48.5063 27.0803C48.4024 28.8368 48.6512 28.9712 50.3673 29.0096C51.567 29.0384 52.7699 28.92 53.9696 29.0416C54.4199 30.0622 53.6043 30.0654 53.0375 30.1614C52.1716 30.3118 51.2773 30.1614 50.2319 30.2926C50.7672 31.4028 51.7245 31.9307 52.3385 32.737C54.3884 35.4214 57.0838 35.9653 60.2516 35.7573C63.5327 35.5397 66.8421 35.6965 70.1358 35.7189C70.8506 35.7221 71.619 35.5685 72.2109 36.1828L72.2046 36.1892Z" fill="#B9B9B9"/>
<path d="M93.3775 36.4549C89.9075 36.4645 86.4374 36.4741 82.9674 36.4837C82.5486 36.1798 82.0637 36.3621 81.6134 36.3109C78.5054 35.959 77.5923 34.9704 77.4695 31.7933C77.46 31.5373 77.5104 31.2654 77.3026 31.0542C77.29 21.8909 77.2585 12.7308 77.2774 3.56748C77.2837 1.30545 78.8392 0.00966271 81.3992 0.00646324C89.4761 -0.0031352 97.5497 0.00646324 105.627 0.00646324C106.729 0.00646324 107.828 -0.0031352 108.93 0.00646324C111.824 0.0352585 113.152 1.34704 113.162 4.29376C113.184 12.2317 113.2 20.1696 113.155 28.1075C113.146 29.9472 113.48 31.8125 112.938 33.633C112.274 33.0603 112.45 32.2668 112.447 31.5469C112.425 26.7029 112.409 21.8589 112.453 17.0149C112.466 15.6423 112.025 14.6409 111.071 13.633C109.087 11.5374 106.584 9.98883 104.902 7.58283C104.792 7.70441 104.654 7.7716 104.499 7.81639C101.571 7.30661 100.106 8.5288 100.103 11.483C100.103 13.6042 100.141 15.7223 100.075 17.8404C100.059 18.3971 100.113 19.1201 99.4044 19.2897C98.7841 19.4369 98.5259 18.8194 98.2551 18.3875C97.6694 17.4532 96.9546 16.5862 96.6712 15.4823C96.3122 13.1499 95.5345 11.0511 93.5161 9.63689C92.8548 8.9842 92.6407 7.83878 91.5606 7.67241C90.0555 7.44205 88.5283 7.43565 87.0231 7.66601C86.2642 7.78119 86.3052 8.49788 86.2926 9.07058C86.2516 11.147 86.2548 13.2235 86.28 15.3C86.3366 19.824 86.1194 24.3513 86.4091 28.869C86.4595 29.496 86.8625 29.8928 87.2876 30.2895C89.1517 32.03 90.7702 34.0361 92.8296 35.5655C93.1099 35.7734 93.4373 35.9974 93.3712 36.4485L93.3775 36.4549Z" fill="#B9B9B9"/>
<path d="M72.2047 36.1894C67.0752 36.183 61.9457 36.1478 56.8162 36.1926C55.4874 36.2054 54.527 35.751 53.7366 34.6792C52.7101 33.2842 51.0349 32.5484 50.0745 31.0606C49.8509 30.7119 49.3786 30.3951 49.5927 29.976C49.81 29.5473 50.3484 29.8064 50.7389 29.7872C51.5229 29.752 52.3102 29.7712 53.0942 29.7744C53.5382 29.7744 53.9539 29.7488 53.9822 29.1505C53.3556 26.8661 53.2517 24.5849 54.0515 22.3132C55.2386 21.6541 56.5737 22.2173 57.7955 21.8525C58.7622 21.555 59.7887 21.4686 60.705 20.9919C62.3676 20.2048 63.7468 19.1234 64.4049 17.2965C64.449 17.1461 64.5026 17.0053 64.5561 16.8613C65.0536 15.0248 64.9591 13.1595 64.8048 11.2942C64.8993 11.0415 65.0284 10.8399 65.3433 10.9071C67.8246 13.2331 70.2681 15.6103 72.8187 17.8564C73.4988 18.4547 74.0184 19.101 74.4781 19.8464C74.7867 24.2361 74.6986 28.6386 74.5978 33.0283C74.5663 34.4585 73.8137 35.7766 72.1984 36.1894H72.2047Z" fill="#959595"/>
<path d="M93.3775 36.4549C90.6757 34.6472 88.7109 32.014 86.2705 29.9119C86.1855 29.8384 86.2264 29.6176 86.2075 29.464C86.8341 28.8369 87.6403 29.0609 88.3834 29.0033C89.0824 28.9489 89.8256 29.1377 90.4238 28.5874C90.8332 28.0818 90.7167 27.4803 90.7198 26.9108C90.7324 24.1145 90.7072 21.3181 90.7387 18.5186C90.7482 17.8179 90.512 16.8773 91.3905 16.5925C92.1935 16.3334 92.48 17.2228 92.902 17.7187C93.1382 17.9971 93.3082 18.3298 93.6105 18.5506C95.6226 21.1006 96.8034 24.1465 98.4188 26.9364C99.4926 28.7889 101.587 29.6464 103.533 28.9073C104.254 28.6322 104.216 28.0307 104.225 27.4643C104.26 25.4967 104.238 23.5322 104.238 21.5645C104.238 17.6835 104.228 13.8026 104.247 9.92481C104.25 9.19853 104.112 8.42105 104.666 7.79715C104.811 7.72677 104.613 7.11567 105.06 7.5252C107.532 9.79043 110.003 12.0493 112.46 14.3337C113.023 14.8584 112.888 15.6039 112.891 16.2886C112.907 22.07 112.922 27.8547 112.938 33.6361C112.223 35.7254 111.282 36.4773 109.163 36.4837C103.901 36.4997 98.6392 36.4709 93.3743 36.4613L93.3775 36.4549Z" fill="#959595"/>
<path d="M77.3059 31.0574C77.8443 31.5021 77.52 32.1516 77.6774 32.6891C78.1907 34.4488 79.0283 35.7702 81.0814 35.9622C81.6797 36.0198 82.4448 35.943 82.9707 36.4869C81.5443 36.4965 80.0769 36.874 78.7795 35.895C77.117 34.644 77.1358 32.8779 77.309 31.0574H77.3059Z" fill="#959595"/>
<path d="M17.5121 36.4323C12.9022 36.4483 8.2891 36.4931 3.67917 36.4675C2.09529 36.4579 0.753879 35.0661 0.495672 33.2712C0.350825 32.2762 0.265805 31.262 0.262656 30.2541C0.243763 22.4282 0.250061 14.6023 0.262656 6.77316C0.262656 5.8741 0.33508 4.96865 0.435844 4.0728C0.769623 1.05249 1.89691 0.047856 4.94186 0.047856C13.6422 0.041457 22.3425 0.102247 31.0428 -0.000136168C33.0801 -0.0225325 34.7427 0.396599 36.0526 1.99314C36.3265 3.08416 36.3832 4.19118 36.3801 5.3142C36.3612 14.2055 36.3612 23.0969 36.3517 31.9882C36.3517 32.4554 36.4745 32.9545 36.1376 33.3704C35.4701 32.8009 35.6621 32.0074 35.659 31.294C35.6338 27.9537 35.6464 24.6166 35.6495 21.2764C35.6495 20.4157 35.659 19.5103 34.9599 18.9152C31.8898 16.3044 29.2479 13.1977 25.9322 10.8685C23.6461 8.20653 20.6988 7.35866 17.3295 7.52824C15.5567 7.61782 13.7744 7.56663 11.9953 7.53783C10.8586 7.51864 10.4114 8.01775 10.4146 9.15997C10.4272 15.2166 10.4366 21.2764 10.4083 27.333C10.402 28.5872 10.9153 29.0415 12.1055 28.9903C13.0407 28.9519 13.9885 28.8783 14.9112 29.1343C15.7582 29.7102 15.2103 29.9534 14.6498 30.075C13.5729 30.3053 12.4645 30.0686 11.0381 30.2669C13.2643 31.7515 14.6655 33.7704 16.5643 35.2613C16.9611 35.5717 17.5121 35.7732 17.5153 36.4259L17.5121 36.4323Z" fill="#B9B9B9"/>
<path d="M17.512 36.4326C14.8323 34.66 12.8958 32.0685 10.2539 29.9696C12.096 29.3873 13.809 30.2128 15.3456 29.4161C14.423 27.2213 14.7788 24.9496 15.0591 22.71C15.1661 21.8621 16.0384 21.7054 16.8004 21.6542C17.9466 21.5774 19.0991 21.6926 20.2358 21.5198C22.2637 21.2254 23.9168 20.2752 25.1449 18.5923C26.247 16.615 26.861 14.5577 26.2344 12.2701C26.1147 11.8286 25.951 11.3519 26.3036 10.9199C27.6986 11.0415 28.4921 12.1933 29.3203 13.0444C30.8254 14.5929 32.4156 16.0295 34.0624 17.4021C35.3251 18.4547 36.169 19.5233 36.1029 21.395C35.9612 25.3784 36.1092 29.3745 36.1375 33.3643C36.0084 33.857 35.8793 34.3497 35.7471 34.8392C35.3377 35.8375 34.5663 36.3334 33.5429 36.4741L33.546 36.471C28.1993 36.455 22.8525 36.439 17.5089 36.423L17.512 36.4326Z" fill="#959595"/>
<path d="M59.5366 41.0397C57.7953 40.1823 56.5547 40.9949 56.5767 42.921C56.5799 43.2378 56.5767 43.5545 56.5767 43.8712C56.5767 44.5591 56.5767 45.2438 56.5799 45.9317C56.5799 46.3189 56.6239 46.6804 57.1309 46.7124C57.6221 46.7412 57.8142 46.4404 57.7481 46.0245C57.5497 44.7927 58.1574 44.5271 59.2312 44.4568C60.1003 44.3992 60.5348 43.6729 60.623 42.7962C60.7112 41.926 60.2042 41.3693 59.5335 41.0397H59.5366ZM58.4125 43.7913C57.7103 43.8297 57.7512 43.2825 57.7481 42.7994C57.8205 42.3163 57.6127 41.6572 58.4408 41.6476C59.1808 41.638 59.4422 42.1307 59.4957 42.7642C59.5618 43.5385 59.0265 43.7593 58.4156 43.7913H58.4125Z" fill="#B9B9B9"/>
<path d="M2.10161 40.8062C0.744451 40.7295 0.687771 41.5101 0.769642 42.5116C0.804279 42.9339 0.775939 43.3626 0.775939 43.785H0.785386C0.785386 44.476 0.782237 45.1671 0.785386 45.8582C0.785386 46.2262 0.750748 46.6645 1.27031 46.6869C1.80562 46.7125 1.83396 46.2677 1.77728 45.9062C1.61983 44.86 2.06067 44.524 3.06201 44.4728C4.06335 44.4185 4.67423 43.7978 4.66478 42.6875C4.65219 41.4589 3.80514 40.9054 2.10161 40.8062ZM2.44798 43.7882C1.64502 43.801 1.78987 43.1739 1.76468 42.6747C1.73949 42.118 1.74579 41.5709 2.52985 41.6701C3.11869 41.7437 3.654 41.9293 3.65085 42.6875C3.6477 43.4938 3.14703 43.7786 2.45113 43.7882H2.44798Z" fill="#B9B9B9"/>
<path d="M100.617 42.6235C99.3793 42.4603 98.3748 43.4425 98.3622 44.6903C98.3496 45.9541 99.1872 46.8884 100.349 46.9076C101.467 46.9236 102.446 45.9573 102.494 44.5624C102.408 43.5897 101.81 42.7835 100.617 42.6267V42.6235ZM100.51 46.0725C99.7666 45.9445 99.373 45.5606 99.3447 44.8055C99.3195 44.0792 99.5273 43.5193 100.33 43.5065C101.08 43.4937 101.439 44.0057 101.495 44.7127C101.555 45.4518 101.171 45.8837 100.51 46.0725Z" fill="#B9B9B9"/>
<path d="M50.2351 42.6011C48.9377 42.5755 48.0246 43.4682 48.034 44.7479C48.0435 45.9733 48.9094 46.818 50.1343 46.7924C51.4316 46.7668 52.1685 46.0053 52.1653 44.6936C52.1622 43.5737 51.2805 42.6203 50.2351 42.5979V42.6011ZM50.0934 46.0245C49.3124 45.9734 49.0983 45.3207 49.0353 44.6872C48.9629 43.9481 49.3219 43.4778 50.1217 43.5066C50.9404 43.5385 51.0884 44.1464 51.1892 44.7735C51.123 45.4934 50.9026 46.0725 50.0902 46.0213L50.0934 46.0245Z" fill="#B9B9B9"/>
<path d="M29.1345 44.5816C29.018 42.5307 27.9442 42.0572 26.0014 43.3306C26.5052 43.6921 26.9303 43.4586 27.3365 43.5066C27.6041 43.5385 27.919 43.5609 27.9473 43.8745C27.982 44.2296 27.6041 44.1848 27.39 44.2712C27.1507 44.3704 26.8925 44.4184 26.6469 44.508C26.0328 44.732 25.6644 45.1799 25.7935 45.8422C25.9352 46.5781 26.4926 46.978 27.1822 46.7476C27.9379 46.4981 28.596 46.8372 29.3014 46.8564C29.2447 46.0981 29.1754 45.3399 29.1345 44.5816ZM27.2766 46.0917C26.9177 46.0757 26.6721 45.8998 26.7287 45.5126C26.8012 45.0103 27.179 44.8503 27.6262 44.8311C28.0324 44.8119 28.1426 45.0807 28.1615 45.3622C28.0859 45.9574 27.7427 46.1109 27.2766 46.0917Z" fill="#B9B9B9"/>
<path d="M84.123 44.8504C84.6299 44.7832 85.2754 44.9368 85.4077 44.2521C85.5462 43.5386 85.0928 43.0811 84.4693 42.7803C83.6412 42.3772 82.8886 42.5692 82.3376 43.2187C81.6826 43.9897 81.4842 44.9144 82.0668 45.8582C82.6587 46.8181 83.5656 46.9205 84.5481 46.7317C84.9039 46.6645 85.3857 46.5493 85.2975 46.095C85.1841 45.5031 84.7307 45.9062 84.4095 45.9446C83.8175 46.0054 83.109 46.0054 83.0523 45.2823C82.9925 44.5272 83.7325 44.9048 84.1198 44.8504H84.123ZM83.0744 43.737C83.1279 43.4106 83.4554 43.2666 83.7892 43.2922C84.1891 43.3242 84.4221 43.5738 84.526 43.9577C84.4253 44.4665 84.0537 44.2329 83.8049 44.1945C83.5152 44.1497 82.9736 44.3545 83.0744 43.737Z" fill="#B9B9B9"/>
<path d="M38.1087 44.1273C37.4475 44.2009 36.9531 44.3289 36.4871 44.0121C37.0224 43.432 37.5629 43.4703 38.1087 44.1273Z" fill="#F0EFF1"/>
<path d="M65.4252 46.2195C64.8206 45.5797 65.1575 44.8086 65.0757 44.0951C64.9969 43.42 64.7261 42.8537 64.0051 42.6937C63.2871 42.5337 62.6196 42.5657 62.2102 43.3624C62.7927 43.7367 63.4509 43.2152 64.0051 43.8295C63.6492 44.4054 63.0572 44.3063 62.607 44.5142C61.7568 44.911 61.5301 46.1236 62.2511 46.5683C63.2021 47.1538 64.2601 46.3603 65.2646 46.6995C65.4315 46.7571 65.5826 46.3827 65.4252 46.2131V46.2195ZM63.2997 46.1012C63.0132 46.082 62.8022 45.89 62.8463 45.5764C62.9218 45.0549 63.3343 44.911 63.7626 44.9174C64.1247 44.9238 64.0365 45.2853 64.0901 45.4549C64.024 46.002 63.6933 46.1268 63.2997 46.1044V46.1012Z" fill="#B9B9B9"/>
<path d="M64.9654 11.3007C65.5448 13.3227 65.5826 15.3192 64.7041 17.2741C64.005 16.3878 64.2853 15.3384 64.2664 14.353C64.2097 10.8911 62.3141 8.72828 58.9385 8.17797C56.177 7.72684 53.406 7.91561 50.635 7.86442C49.5738 7.84522 49.133 8.35074 49.1298 9.41297C49.1298 15.2616 49.1172 21.1103 49.1393 26.9589C49.1424 27.9411 49.4415 28.5842 50.6035 28.5202C52.4361 28.4211 52.836 28.1971 52.9021 26.8693C52.962 25.7015 52.8581 24.5273 52.9557 23.3627C53.0155 22.6332 53.0312 21.7757 54.1617 21.9389C54.3538 22.0253 54.4325 22.1725 54.3979 22.3836C53.7114 22.662 53.9759 23.2795 53.9696 23.753C53.9444 25.5479 53.9728 27.346 53.9822 29.1409C52.3228 29.8896 50.5846 29.4865 48.8873 29.4417C47.9081 29.4161 48.1348 28.4243 48.1348 27.7972C48.1348 24.3385 48.2009 20.8767 48.2229 17.4181C48.2418 14.4329 48.2702 11.451 48.2229 8.46592C48.2072 7.41009 48.4685 6.94297 49.6179 6.97816C52.3952 7.05815 55.1756 7.01976 57.9561 7.02296C59.8454 7.02296 61.5489 7.60846 63.095 8.69308C64.2601 9.15701 64.8961 10.0113 64.9623 11.2911L64.9654 11.3007Z" fill="#DDEBCF"/>
<path d="M64.9654 11.3006C64.4459 10.36 63.9043 9.43213 63.0981 8.70265C65.104 8.11394 64.8174 9.94405 65.3496 10.9071C65.2205 11.0383 65.0945 11.1694 64.9654 11.3006Z" fill="#959595"/>
<path d="M90.871 29.1281C89.3626 29.88 87.7567 29.2369 86.2106 29.4641C85.7792 28.9809 85.8328 28.3826 85.8328 27.8035C85.8328 21.379 85.858 14.9544 85.8107 8.52988C85.8013 7.40046 86.1508 6.99733 87.2372 7.12211C87.8575 7.1957 88.4999 7.21169 89.117 7.12851C91.3149 6.83735 93.1066 7.28528 93.9537 9.6401C95.2699 11.2558 96.2335 13.0699 96.9168 15.044C97.43 16.599 98.4282 17.8404 99.6941 19.0978C99.6941 17.802 99.6941 16.5062 99.6941 15.2136C99.6941 12.9324 99.6941 10.6479 99.7129 8.3667C99.7161 7.96997 99.5681 7.26288 100.028 7.25969C101.583 7.25329 103.246 6.5622 104.669 7.794C104.669 14.4457 104.638 21.0942 104.691 27.7459C104.701 28.9969 104.446 29.3617 103.104 29.5185C100.289 29.848 98.6077 28.9521 97.471 26.2166C96.4035 23.6442 94.7976 21.3022 93.4278 18.861C92.6721 17.9843 92.2785 16.8389 91.3968 16.0231C90.893 16.615 91.0158 17.3124 91.0001 17.9747C90.915 21.6925 91.1638 25.4135 90.871 29.1281Z" fill="#FBFDFD"/>
<path d="M96.9138 15.044C95.8306 13.297 94.6655 11.5949 93.9507 9.64005C94.338 9.62725 94.7348 9.75203 94.8859 10.0848C95.6196 11.7133 97.0744 13.0379 96.9138 15.044Z" fill="#959595"/>
<path d="M54.379 22.1436C53.3808 21.9325 53.3966 22.6108 53.3966 23.2891C53.3966 24.78 53.3777 26.271 53.3966 27.7619C53.406 28.4786 53.1604 28.7954 52.4047 28.8433C48.7426 29.0705 48.6103 30.024 48.6418 25.4295C48.6827 20.0544 48.689 14.6761 48.6229 9.30094C48.604 7.85477 49.0354 7.31086 50.5059 7.36525C53.7902 7.48683 57.0839 7.20848 60.3398 7.96355C62.4999 8.46267 64.9812 11.5214 64.7419 13.6074C64.6034 14.8168 64.7041 16.0518 64.6947 17.274L64.6884 17.2932C63.7721 18.9122 62.4401 20.1216 60.9664 21.1934C60.1761 22.0828 58.9354 21.5965 58.0443 22.1788C56.8194 22.2812 55.5945 22.3388 54.3727 22.1404L54.379 22.1436Z" fill="#FBFDFB"/>
<path d="M60.9758 21.1997C62.2165 19.9007 63.4571 18.5985 64.6978 17.2996C64.153 19.2832 62.8022 20.4766 60.9758 21.1997Z" fill="#DDEBCF"/>
<path d="M54.3789 22.1436C55.6038 22.1564 56.8287 22.1692 58.0536 22.1819C56.8602 22.6779 55.6196 22.3323 54.401 22.3899C54.3758 22.3099 54.3695 22.2267 54.3789 22.1436Z" fill="#B9B9B9"/>
<path d="M108.883 29.4801C107.727 29.4801 106.804 28.6003 106.933 27.49C107.069 26.351 107.771 25.6151 108.92 25.6535C110.085 25.6919 110.681 26.447 110.706 27.6436C110.731 28.8786 110.139 29.4801 108.883 29.4801Z" fill="#959595"/>
<path d="M90.8711 29.1281V14.2729C91.9889 15.8983 92.7667 17.3444 93.428 18.861C92.6817 18.6402 92.5841 17.8436 92.1369 17.354C91.9323 17.1301 91.8189 16.7365 91.4536 16.8389C91.0726 16.9477 91.1671 17.354 91.1639 17.6516C91.1545 19.9744 91.2049 22.2972 91.1387 24.6201C91.0947 26.1238 91.4631 27.6564 90.8711 29.1281Z" fill="#959595"/>
<path d="M20.664 21.8429C19.3509 22.3132 17.9843 22.0701 16.6461 22.0925C15.6857 22.1085 15.3676 22.4572 15.3834 23.4075C15.4149 25.4103 15.3645 27.4164 15.3487 29.4193C13.9916 29.4257 12.6313 29.3969 11.271 29.4481C10.3578 29.4801 9.95789 29.1761 9.96418 28.1811C9.99252 21.5422 9.97363 14.9032 9.97678 8.26432C9.97678 7.74281 9.89806 7.1317 10.7042 7.1445C14.0955 7.19569 17.4994 6.85655 20.875 7.33327C23.1988 7.66282 25.0693 8.84023 26.3099 10.9263C27.2294 13.729 27.1349 16.4166 25.4062 18.9122C25.2078 19.2225 24.7449 18.749 24.493 19.4337C24.1624 20.3296 23.0886 20.7391 22.1692 21.1038C21.6465 21.3086 21.086 21.4238 20.6672 21.8429H20.664Z" fill="#FAFDFD"/>
<path d="M20.6641 21.8429C20.9034 21.1518 21.53 21.027 22.0999 20.8095C23.01 20.4607 23.942 20.0736 24.3829 19.1393C24.6915 18.4866 25.0756 19.0146 25.4031 18.9122C24.2506 20.6047 22.6384 21.5293 20.6641 21.8429Z" fill="#CCE7F1"/>
<path d="M58.4 17.2324C58.1135 17.3604 57.8395 17.5236 57.5436 17.6164C54.3317 18.6274 53.6862 18.1347 53.8311 14.804C53.8405 14.5929 53.8059 14.3561 53.8846 14.1705C54.2908 13.2267 52.9683 11.6557 54.7694 11.2654C57.0082 10.7791 58.5606 11.611 59.3541 13.4986C59.6911 14.916 58.9952 16.0614 58.4032 17.2324H58.4Z" fill="#959595"/>
<path d="M58.3999 17.2323C58.7179 15.9877 59.0328 14.7431 59.3509 13.4985C60.0279 15.0055 59.5272 16.2021 58.3999 17.2323Z" fill="#959595"/>
<path d="M108.168 26.5813C108.706 26.0118 109.317 26.0886 109.793 26.5781C110.23 27.0293 110.529 27.6244 109.884 28.3475C109.475 27.5572 109.616 26.1622 108.149 26.5621L108.171 26.5813H108.168Z" fill="#959595"/>
<path d="M108.149 26.562V28.2641C107.459 27.6562 107.27 27.0803 108.171 26.5812L108.149 26.562Z" fill="#959595"/>
<path d="M15.3802 14.6185C15.3802 14.3529 15.3266 14.0714 15.3928 13.8218C15.6163 12.9484 14.7819 11.6558 16.1705 11.2558C17.7922 10.7887 20.0877 11.6014 20.7049 12.6892C21.8889 14.7721 20.8529 17.2517 18.5511 17.77C17.9969 17.8948 17.408 17.8596 16.8412 17.9332C15.7801 18.0707 15.2605 17.6804 15.3676 16.5286C15.4274 15.8951 15.377 15.252 15.3802 14.6153V14.6185Z" fill="#959595"/>
</g>
<defs>
<clipPath id="clip0_524_5475">
<rect width="113" height="49" fill="white" transform="translate(0.25)"/>
</clipPath>
</defs>
</svg>
