<svg width="40" height="40" fill="none" xmlns="http://www.w3.org/2000/svg"><path d="M20 18.084a9.583 9.583 0 019.583 9.583v11.5H10.417v-11.5A9.583 9.583 0 0120 18.083zM7.135 23.845a13.384 13.384 0 00-.536 3.163l-.016.659v11.5H.833v-8.625a6.708 6.708 0 015.978-6.67l.326-.027h-.002zm25.73 0a6.71 6.71 0 016.302 6.697v8.625h-5.75v-11.5c0-1.328-.192-2.61-.552-3.822zM7.542 12.334a4.792 4.792 0 110 9.583 4.792 4.792 0 010-9.584zm24.916 0a4.792 4.792 0 110 9.583 4.792 4.792 0 010-9.584zM20 .834a7.667 7.667 0 110 15.333A7.667 7.667 0 0120 .833z" fill="#EB4545"/></svg>