<svg width="38" height="38" fill="none" xmlns="http://www.w3.org/2000/svg"><path d="M19 20.417l11.5 17.25h-23L19 20.417zm-2.032-4.677a2.875 2.875 0 113.92-4.207 2.875 2.875 0 01-3.92 4.207zM6.122.834l2.712 2.712a14.375 14.375 0 000 20.328l-2.712 2.712a18.208 18.208 0 010-25.752zm25.752 0a18.21 18.21 0 010 25.752l-2.712-2.712a14.375 14.375 0 000-20.328L31.874.834zm-20.33 5.42l2.71 2.71a6.71 6.71 0 000 9.488l-2.71 2.71a10.542 10.542 0 010-14.908zm14.908 0a10.541 10.541 0 010 14.908l-2.71-2.71a6.709 6.709 0 000-9.488l2.71-2.71z" fill="#EB4545"/></svg>