<svg width="45" height="38" fill="none" xmlns="http://www.w3.org/2000/svg"><path d="M16.883 19.042h4.159a8.625 8.625 0 018.625 8.625H16.248l.002 1.916h15.333v-1.916a10.692 10.692 0 00-1.698-5.75h5.532a9.583 9.583 0 018.655 5.464c-4.533 5.982-11.872 9.87-20.155 9.87-5.292 0-9.775-1.132-13.417-3.115V16.303a13.354 13.354 0 016.383 2.739zm-8.3 14.375a1.916 1.916 0 01-1.916 1.916H2.833a1.916 1.916 0 01-1.916-1.916v-17.25a1.917 1.917 0 011.916-1.917h3.834a1.917 1.917 0 011.916 1.917v17.25zM33.5 6.583a5.75 5.75 0 110 11.5 5.75 5.75 0 010-11.5zM20.083.834a5.75 5.75 0 110 11.5 5.75 5.75 0 010-11.5z" fill="#EB4545"/></svg>