<svg width="134" height="140" viewBox="0 0 134 140" fill="none" xmlns="http://www.w3.org/2000/svg">
<path d="M6.77538 129.381C8.38482 129.381 9.85354 128.735 10.9441 127.69L9.23791 125.973C8.59589 126.566 7.72521 126.938 6.78418 126.938C4.77018 126.938 3.14316 125.318 3.14316 123.291C3.14316 121.264 4.77018 119.644 6.78418 119.644C7.72521 119.644 8.60469 120.016 9.23791 120.627L10.9441 118.892C9.86233 117.847 8.39361 117.201 6.77538 117.201C3.44218 117.201 0.724609 119.927 0.724609 123.291C0.724609 126.655 3.43339 129.381 6.77538 129.381Z" fill="url(#paint0_linear_260_1168)"/>
<path d="M32.9316 123.3C32.9316 119.945 30.2229 117.21 26.8809 117.21C23.5389 117.21 20.8301 119.937 20.8301 123.3C20.8301 126.664 23.5389 129.39 26.8809 129.39C30.2229 129.39 32.9316 126.664 32.9316 123.3ZM26.8809 126.965C24.8669 126.965 23.2398 125.327 23.2398 123.3C23.2398 121.273 24.8669 119.653 26.8809 119.653C28.8948 119.653 30.5043 121.291 30.5043 123.3C30.5043 125.31 28.8773 126.965 26.8809 126.965Z" fill="url(#paint1_linear_260_1168)"/>
<path d="M55.8937 129.381V117.21H53.2904L49.7637 126.106L46.2194 117.21H43.625V129.381H46.0348V123.3L48.4533 129.381H51.0565L53.4839 123.3V129.381H55.8937Z" fill="url(#paint2_linear_260_1168)"/>
<path d="M68.9976 124.522H69.9914C71.9879 124.522 73.5973 122.884 73.5973 120.875C73.5973 118.865 71.9879 117.21 69.9739 117.21H66.5879V129.381H68.9976V124.513V124.522ZM68.9976 119.653H69.9739C70.6423 119.653 71.1875 120.202 71.1875 120.875C71.1875 121.548 70.6423 122.079 69.9739 122.079H68.9976V119.653Z" fill="url(#paint3_linear_260_1168)"/>
<path d="M89.6304 117.21H87.0624L82.6914 129.381H85.2595L86.4907 125.973H90.2109L91.4422 129.381H94.0102L89.6392 117.21H89.6304ZM87.3614 123.539L88.3376 120.795L89.3314 123.539H87.3702H87.3614Z" fill="url(#paint4_linear_260_1168)"/>
<path d="M114.441 129.381V117.21H112.031V125.336L107.194 117.21H104.371V129.381H106.781V121.273L111.636 129.381H114.441Z" fill="url(#paint5_linear_260_1168)"/>
<path d="M127.51 117.21H124.818L127.976 123.583V129.381H130.385V123.583L133.543 117.21H130.843L129.189 120.583L127.51 117.21Z" fill="url(#paint6_linear_260_1168)"/>
<path d="M2.11419 139.756H2.88812V135.294H4.29528V134.595H0.707031V135.294H2.11419V139.756Z" fill="url(#paint7_linear_260_1168)"/>
<path d="M9.95823 134.595L8.09375 139.756H8.92046L9.31622 138.605H11.2599L11.6556 139.756H12.4735L10.609 134.595H9.95823ZM9.53609 137.906L10.2748 135.648H10.2924L11.0312 137.906H9.53609Z" fill="url(#paint8_linear_260_1168)"/>
<path d="M18.069 135.71C18.1482 135.604 18.2625 135.515 18.3944 135.445C18.5264 135.374 18.6847 135.338 18.8693 135.338C19.1156 135.338 19.3267 135.418 19.5026 135.551C19.6697 135.701 19.784 135.869 19.8456 136.082H20.6723C20.5931 135.648 20.3908 135.285 20.083 134.993C19.7752 134.701 19.3706 134.559 18.8693 134.551C18.4648 134.551 18.1306 134.648 17.858 134.843C17.5853 135.029 17.383 135.241 17.2599 135.48C17.1808 135.604 17.128 135.772 17.084 135.976C17.0488 136.179 17.0312 136.578 17.0312 137.18C17.0312 137.781 17.0488 138.171 17.084 138.374C17.1016 138.49 17.128 138.578 17.1544 138.649C17.1808 138.72 17.2159 138.791 17.2599 138.87C17.383 139.109 17.5853 139.322 17.858 139.499C18.1306 139.685 18.4648 139.791 18.8693 139.8C19.3882 139.791 19.828 139.614 20.171 139.269C20.514 138.923 20.6899 138.49 20.6987 137.967V136.914H18.8781V137.658H19.9247V137.923C19.9247 138.251 19.8192 138.507 19.6257 138.702C19.4322 138.906 19.1772 139.012 18.8781 139.012C18.6935 139.012 18.5352 138.976 18.4032 138.897C18.2713 138.835 18.1658 138.746 18.0778 138.64C17.9811 138.525 17.9107 138.383 17.8755 138.206C17.8404 138.029 17.8228 137.684 17.8228 137.18C17.8228 136.675 17.8404 136.33 17.8755 136.144C17.9107 135.967 17.9723 135.825 18.0778 135.719L18.069 135.71Z" fill="url(#paint9_linear_260_1168)"/>
<path d="M25.9219 134.595V139.756H29.1935V139.021H26.6958V134.595H25.9219Z" fill="url(#paint10_linear_260_1168)"/>
<path d="M35.0161 134.595H34.2422V139.756H35.0161V134.595Z" fill="url(#paint11_linear_260_1168)"/>
<path d="M43.4834 138.268H43.4658L41.144 134.595H40.4141V139.756H41.1968V136.091H41.2056L43.5274 139.756H44.2574V134.595H43.4834V138.268Z" fill="url(#paint12_linear_260_1168)"/>
<path d="M52.9386 135.339V134.595H49.6582V139.756H52.9386V139.021H50.4409V137.507H52.5693V136.808H50.4409V135.339H52.9386Z" fill="url(#paint13_linear_260_1168)"/>
<path d="M64.6802 134.843C64.4076 135.029 64.2053 135.241 64.0822 135.48C64.003 135.604 63.9503 135.772 63.9063 135.976C63.8711 136.179 63.8535 136.578 63.8535 137.18C63.8535 137.782 63.8711 138.171 63.9063 138.375C63.9239 138.49 63.9503 138.578 63.9766 138.649C64.003 138.72 64.0382 138.791 64.0822 138.87C64.2053 139.109 64.4076 139.322 64.6802 139.499C64.9529 139.685 65.2871 139.791 65.6916 139.8C66.2105 139.791 66.6502 139.614 66.9932 139.269C67.3362 138.924 67.5121 138.49 67.5209 137.968V136.914H65.7004V137.658H66.747V137.923C66.747 138.251 66.6414 138.507 66.448 138.702C66.2545 138.906 65.9994 139.012 65.7004 139.012C65.5157 139.012 65.3574 138.977 65.2255 138.897C65.0936 138.835 64.988 138.746 64.9001 138.64C64.8033 138.525 64.733 138.384 64.6978 138.206C64.6626 138.029 64.645 137.684 64.645 137.18C64.645 136.675 64.6626 136.33 64.6978 136.144C64.733 135.967 64.7945 135.825 64.9001 135.719C64.9792 135.613 65.0936 135.524 65.2255 135.454C65.3574 135.383 65.5157 135.347 65.7004 135.347C65.9467 135.347 66.1577 135.427 66.3336 135.56C66.5007 135.71 66.6151 135.878 66.6766 136.091H67.5033C67.4242 135.657 67.2219 135.294 66.9141 135.002C66.6063 134.71 66.2017 134.568 65.7004 134.56C65.2959 134.56 64.9616 134.657 64.689 134.852L64.6802 134.843Z" fill="url(#paint14_linear_260_1168)"/>
<path d="M75.9993 138.87C76.0872 138.746 76.1488 138.578 76.1752 138.374C76.2016 138.171 76.2192 137.773 76.2192 137.18C76.2192 136.586 76.2016 136.179 76.1752 135.976C76.14 135.772 76.0784 135.613 75.9993 135.48C75.8762 135.241 75.6827 135.029 75.4188 134.843C75.1462 134.657 74.8032 134.559 74.3986 134.551C73.9941 134.551 73.6599 134.648 73.3873 134.843C73.1146 135.029 72.9123 135.241 72.7892 135.48C72.7101 135.604 72.6573 135.772 72.6133 135.976C72.5781 136.179 72.5605 136.578 72.5605 137.18C72.5605 137.781 72.5781 138.171 72.6133 138.374C72.6309 138.49 72.6573 138.578 72.6837 138.649C72.7101 138.72 72.7452 138.791 72.7892 138.87C72.9123 139.109 73.1146 139.322 73.3873 139.499C73.6599 139.685 73.9941 139.791 74.3986 139.8C74.8032 139.791 75.1462 139.693 75.4188 139.499C75.6915 139.322 75.885 139.109 75.9993 138.87ZM75.1902 138.64C75.111 138.746 75.0055 138.835 74.8824 138.897C74.7504 138.976 74.5833 139.012 74.3986 139.012C74.214 139.012 74.0557 138.976 73.9237 138.897C73.7918 138.835 73.6863 138.746 73.5983 138.64C73.5016 138.525 73.4312 138.383 73.3961 138.206C73.3609 138.029 73.3433 137.684 73.3433 137.18C73.3433 136.675 73.3609 136.33 73.3961 136.144C73.4312 135.967 73.4928 135.825 73.5983 135.719C73.6775 135.613 73.7918 135.524 73.9237 135.453C74.0557 135.383 74.214 135.347 74.3986 135.347C74.5833 135.347 74.7416 135.391 74.8824 135.453C75.0143 135.524 75.111 135.613 75.1902 135.719C75.2869 135.834 75.3573 135.976 75.4012 136.144C75.4364 136.33 75.454 136.675 75.454 137.18C75.454 137.684 75.4364 138.029 75.4012 138.206C75.3661 138.383 75.2957 138.534 75.1902 138.64Z" fill="url(#paint15_linear_260_1168)"/>
<path d="M84.7228 135.339V134.595H81.4512V139.756H84.7228V139.021H82.2251V137.507H84.3622V136.808H82.2251V135.339H84.7228Z" fill="url(#paint16_linear_260_1168)"/>
<path d="M91.2933 139.021C90.7304 139.021 90.2467 138.844 89.8421 138.507L89.332 139.092C89.8773 139.561 90.5281 139.8 91.2933 139.8C92.4718 139.782 93.0698 139.286 93.0962 138.304C93.0962 137.941 92.9819 137.613 92.7532 137.339C92.5245 137.056 92.1727 136.888 91.689 136.817C91.4428 136.79 91.2493 136.755 91.1086 136.737C90.8535 136.693 90.6688 136.604 90.5545 136.48C90.4402 136.356 90.3786 136.224 90.3786 136.073C90.3786 135.825 90.4666 135.639 90.6337 135.516C90.792 135.392 90.9942 135.339 91.2317 135.339C91.689 135.347 92.12 135.48 92.4981 135.737L92.9291 135.091C92.4542 134.745 91.9001 134.568 91.2669 134.56C90.7392 134.56 90.3258 134.701 90.0356 134.976C89.7366 135.25 89.5871 135.613 89.5871 136.064C89.5871 136.436 89.7014 136.755 89.9389 137.02C90.1675 137.277 90.5017 137.436 90.9415 137.516C91.1877 137.551 91.4164 137.587 91.6187 137.613C92.0672 137.693 92.2871 137.923 92.2871 138.304C92.2783 138.773 91.9441 139.012 91.2757 139.021H91.2933Z" fill="url(#paint17_linear_260_1168)"/>
<path d="M107.853 139.756V134.595H107.079V136.808H105.047V134.595H104.273V139.756H105.047V137.507H107.079V139.756H107.853Z" fill="url(#paint18_linear_260_1168)"/>
<path d="M116.534 135.339V134.595H113.254V139.756H116.534V139.021H114.037V137.507H116.165V136.808H114.037V135.339H116.534Z" fill="url(#paint19_linear_260_1168)"/>
<path d="M122.356 137.551H123.35L124.405 139.756H125.329L124.141 137.463C124.792 137.206 125.126 136.737 125.135 136.029C125.118 135.551 124.95 135.188 124.625 134.931C124.352 134.701 124.009 134.595 123.578 134.595H121.582V139.756H122.356V137.551ZM122.356 135.294H123.57C123.816 135.294 124.009 135.347 124.141 135.454C124.308 135.578 124.396 135.772 124.396 136.038C124.396 136.259 124.326 136.454 124.185 136.604C124.036 136.772 123.825 136.852 123.534 136.861H122.356V135.294Z" fill="url(#paint20_linear_260_1168)"/>
<path d="M133.561 135.339V134.595H130.289V139.756H133.561V139.021H131.072V137.507H133.2V136.808H131.072V135.339H133.561Z" fill="url(#paint21_linear_260_1168)"/>
<path d="M17.5921 42.7401V42.7843L17.5745 42.8463C17.5569 42.9348 17.5482 43.0233 17.5394 43.103V43.1207C17.5394 43.1207 17.5394 43.1561 17.5394 43.1738C17.5394 43.2269 17.5218 43.28 17.5218 43.3331L17.5042 43.4659V43.4925L17.4954 43.5367V43.5633V43.581V43.5898V43.6341V43.6695V43.6961C17.4778 43.8643 17.4514 44.0324 17.4338 44.2006C17.4162 44.3511 17.3986 44.5016 17.3811 44.6521C17.3811 44.714 17.3723 44.7671 17.3635 44.8202V44.8291C17.3459 45.015 17.3195 45.2009 17.3019 45.3779C17.2843 45.5107 17.2755 45.6523 17.2667 45.7939V45.8116L17.2491 45.9444C17.2491 45.9975 17.2403 46.0506 17.2315 46.1037C17.2315 46.1569 17.2227 46.2188 17.214 46.2719C17.214 46.2985 17.214 46.3339 17.214 46.3605C17.214 46.4047 17.214 46.449 17.2052 46.4932C17.2052 46.5463 17.2052 46.5995 17.1964 46.6614C17.1964 46.688 17.1964 46.7145 17.1964 46.7411C17.1788 46.927 17.17 47.1217 17.1524 47.3519C17.1524 47.4581 17.1436 47.5554 17.1348 47.644C17.1348 47.7413 17.126 47.8475 17.1172 47.9449V47.9626V47.9803C17.1172 47.9803 17.1172 48.0069 17.1172 48.0246C17.1172 48.0511 17.1172 48.0688 17.1172 48.0954V48.122V48.1574C17.1172 48.2724 17.1084 48.3787 17.0996 48.4937C17.0996 48.538 17.0996 48.5911 17.0996 48.6354C17.0996 48.8389 17.082 49.0337 17.082 49.2284C17.082 49.255 17.082 49.2904 17.082 49.3258V49.3966C17.082 49.5559 17.082 49.7241 17.082 49.8835V49.972V50.0162V50.1844C17.082 50.2375 17.082 50.2818 17.082 50.3349C17.082 50.3703 17.082 50.4057 17.082 50.4411C17.082 50.4765 17.082 50.5119 17.082 50.5473C17.082 50.5916 17.082 50.6447 17.082 50.689V50.9811C17.2227 60.5764 21.0485 69.5787 27.838 76.3149C34.6363 83.0688 43.6421 86.7865 53.1932 86.7865C54.7147 86.7865 56.2186 86.6891 57.7049 86.5033C58.3821 86.4147 59.0505 86.3262 59.7189 86.2023C54.7762 83.1927 50.502 79.1651 47.1424 74.3232C45.92 72.5706 44.847 70.7294 43.9235 68.8351C43.7125 68.4102 43.519 67.9765 43.3255 67.5427C43.3079 67.4985 43.2815 67.4454 43.2639 67.4011C40.9245 62.0989 39.7021 56.3541 39.7021 50.4411C39.7021 41.846 42.2789 33.5873 47.1512 26.559C48.2681 24.948 49.4906 23.4255 50.8098 22.0004C55.0841 17.362 60.3257 13.7682 66.2358 11.4668C68.0299 10.7675 69.8504 10.201 71.7149 9.75836C74.8106 9.02366 77.9943 8.66074 81.222 8.66074C88.7679 8.66074 96.0147 10.6789 102.347 14.4587C102.347 14.4587 102.347 14.4587 102.338 14.4498C102.285 14.3967 102.215 14.3347 102.162 14.2728C102.083 14.1931 102.004 14.1223 101.925 14.0426C101.898 14.0161 101.872 13.9984 101.854 13.9718L101.837 13.9541L101.828 13.9364C101.758 13.8744 101.679 13.8036 101.608 13.7328C101.529 13.662 101.459 13.5912 101.38 13.5115V13.4938L101.362 13.4761C101.362 13.4761 101.336 13.4496 101.318 13.4407C101.23 13.361 101.142 13.2725 101.054 13.1928L101.037 13.1751L100.922 13.0689C100.922 13.0689 100.887 13.0335 100.861 13.0158C100.729 12.9007 100.606 12.7857 100.482 12.6706C100.333 12.5378 100.192 12.4139 100.06 12.2988C100.016 12.2634 99.9724 12.2192 99.9196 12.1837C99.8229 12.1041 99.7261 12.0156 99.6294 11.9359L99.4359 11.7766L99.3304 11.688L99.2512 11.6172L99.2072 11.5818C99.0929 11.4845 98.9786 11.3959 98.8642 11.2986L98.8466 11.2809L98.8379 11.2632H98.8203C98.7323 11.1835 98.6532 11.1127 98.5652 11.0507C98.2926 10.8294 98.0111 10.6081 97.7297 10.3957V10.3868C97.6506 10.3249 97.5802 10.2718 97.501 10.2098L97.4043 10.139L97.3515 10.0947C97.3515 10.0947 97.3251 10.077 97.3164 10.0682C97.3164 10.0682 97.3164 10.0682 97.3076 10.0593L97.2988 10.0505L97.2812 10.0328L97.1229 9.91769L97.0613 9.87344L96.8414 9.7141C96.8414 9.7141 96.7975 9.6787 96.7711 9.66099C96.7271 9.63444 96.6919 9.59903 96.648 9.57247L96.56 9.51051C96.4721 9.44855 96.3929 9.38659 96.305 9.32462C96.2874 9.30692 96.261 9.29807 96.2434 9.28037L96.217 9.26266L96.1994 9.24496C95.9884 9.09448 95.7861 8.95285 95.575 8.80237C95.4783 8.73155 95.3903 8.66959 95.2936 8.59878C95.2672 8.58107 95.2496 8.56337 95.2232 8.55452C95.0825 8.466 94.9418 8.36863 94.8011 8.27126C94.8011 8.27126 94.7835 8.26241 94.7747 8.25356H94.7659H94.7483C94.7483 8.25356 94.6867 8.2093 94.6604 8.18275C94.5548 8.11193 94.4581 8.04997 94.3525 7.98801H94.3349V7.97916H94.3174C94.1678 7.86408 94.0095 7.77556 93.86 7.67819H93.8424V7.66934L93.8249 7.65164C93.6665 7.55427 93.5082 7.44805 93.3499 7.35953L93.0949 7.20905C93.0949 7.20905 93.0157 7.15594 92.9806 7.13824C92.9366 7.11168 92.8838 7.07627 92.831 7.04972H92.8223C92.7959 7.03201 92.7607 7.01431 92.7343 6.99661C92.62 6.92579 92.5056 6.86383 92.3913 6.79302L92.3034 6.73991C92.3034 6.73991 92.2242 6.69565 92.189 6.66909C92.0835 6.60713 91.978 6.54517 91.8724 6.4832C91.8636 6.4832 91.8548 6.47435 91.8372 6.4655C91.1249 6.06717 90.4037 5.67769 89.6737 5.31477C89.6562 5.31477 89.6386 5.29707 89.621 5.28821H89.6034C89.4451 5.1997 89.2868 5.12003 89.1197 5.04036L88.6887 4.83677C88.6887 4.83677 88.6623 4.81907 88.6535 4.81907C88.6535 4.81907 88.636 4.81907 88.6272 4.81022H88.6184C88.1083 4.56237 87.6422 4.35878 87.1936 4.16404H87.1848L87.176 4.15519H87.1672H87.1584C87.0529 4.10208 86.9386 4.05782 86.833 4.01356L86.7891 3.99586L86.7539 3.97815L86.5604 3.89849C86.4901 3.87193 86.4197 3.84538 86.3493 3.80997C86.3141 3.79226 86.2878 3.78341 86.2526 3.77456C85.7689 3.57982 85.3731 3.42049 85.0125 3.28771L84.7927 3.20805H84.7663L84.5376 3.11068C83.922 2.88938 83.2888 2.66809 82.6467 2.4645C82.638 2.4645 82.6292 2.4645 82.6116 2.45565C82.4884 2.42024 82.3653 2.37598 82.251 2.34057C82.1279 2.30517 82.0047 2.26091 81.8728 2.2255C81.8025 2.19895 81.7233 2.18124 81.6529 2.15469C81.3715 2.07502 81.1077 1.99536 80.8614 1.92454H80.8526H80.8438C80.8087 1.91569 80.7735 1.90684 80.7383 1.89799C80.6855 1.88028 80.624 1.87143 80.5712 1.85373H80.536L80.4832 1.82717C79.9556 1.68554 79.4191 1.56162 78.8826 1.42884C78.566 1.35803 78.2494 1.28721 77.9328 1.2164C77.3963 1.10133 76.8598 0.986253 76.3145 0.888883C76.1123 0.853476 75.91 0.818068 75.7077 0.782661H75.6989C75.4966 0.747254 75.2944 0.711848 75.0921 0.685293C74.9953 0.667589 74.9074 0.658737 74.8106 0.641033C74.6963 0.623329 74.5732 0.605626 74.4589 0.587923C73.8784 0.508257 73.2979 0.437443 72.7175 0.37548C71.5918 0.260407 70.466 0.180741 69.3315 0.136482C68.6983 0.109927 68.0739 0.101074 67.4407 0.101074C66.3765 0.101074 65.3211 0.136482 64.257 0.207296C64.1426 0.207296 64.0371 0.216148 63.9228 0.225C62.7531 0.304666 61.5834 0.428591 60.4313 0.587923C60.2202 0.614478 60.0179 0.649886 59.8068 0.676441C59.8068 0.676441 59.798 0.676441 59.7892 0.676441L17.5921 42.7224V42.7401Z" fill="url(#paint22_linear_260_1168)"/>
<path d="M116.692 58.0711V58.0357L116.701 57.9914C116.71 57.9206 116.719 57.8498 116.727 57.779V57.7613V57.7347V57.7082C116.745 57.6196 116.763 57.5223 116.771 57.4249V57.3629L116.789 57.301C116.789 57.2744 116.789 57.239 116.807 57.2125L116.842 56.8938L116.868 56.6814C116.895 56.4689 116.921 56.2742 116.939 56.0794V56.0529C116.965 55.867 116.983 55.6899 117 55.5129C117.018 55.3624 117.026 55.2208 117.044 55.088L117.062 54.9464C117.07 54.849 117.079 54.7517 117.088 54.6543V54.6189V54.5835C117.106 54.4596 117.106 54.3268 117.114 54.2029V54.1497C117.132 53.9639 117.15 53.7691 117.158 53.5478V53.5301C117.176 53.3354 117.185 53.1406 117.194 52.9459V52.8928V52.8131V52.7335C117.211 52.5741 117.211 52.4148 117.22 52.2466C117.22 52.0253 117.238 51.8217 117.238 51.6093V51.5827V51.4854C117.238 51.3349 117.238 51.1844 117.238 51.0339V50.8392C117.238 50.7064 117.238 50.5825 117.238 50.4497C117.238 50.3169 117.238 50.1753 117.238 50.0425V49.9009C117.097 40.3056 113.28 31.3122 106.49 24.5671C99.6921 17.8132 90.6863 14.0955 81.1264 14.0955C78.9189 14.0955 76.7378 14.2902 74.6007 14.6885C79.5433 17.6981 83.8264 21.7257 87.1772 26.5676C92.0494 33.5959 94.6263 41.8546 94.6263 50.4497C94.6263 59.0448 92.0494 67.3035 87.1772 74.3318C82.4192 81.1919 75.8232 86.4145 68.0926 89.4241C63.3259 91.2829 58.2865 92.2301 53.1152 92.2301C45.5693 92.2301 38.3224 90.2119 31.9902 86.441H31.999L32.0254 86.4764L32.0518 86.503C32.0518 86.503 32.1134 86.5649 32.1397 86.5915L32.2365 86.6889C32.3156 86.7685 32.3948 86.8482 32.4827 86.9279L32.5003 86.9456L32.5179 86.9633C32.6498 87.096 32.8081 87.2465 32.9664 87.3882L32.9928 87.4059L33.0104 87.4236C33.116 87.5209 33.2127 87.6183 33.3182 87.7157L33.327 87.7334C33.5117 87.9016 33.6876 88.0697 33.8811 88.2291H33.8899L33.8987 88.2468C34.0218 88.353 34.1449 88.4681 34.2681 88.5743L34.2945 88.592L34.3736 88.6628L34.7342 88.9726L34.8045 89.0346L34.8221 89.0523C34.9189 89.132 35.0156 89.2116 35.1124 89.2913L35.1475 89.3178L35.1827 89.3532C35.2707 89.4241 35.3586 89.5037 35.4642 89.5834L35.4993 89.6099L35.5345 89.6365C35.6137 89.6985 35.684 89.7604 35.7544 89.8224L35.7808 89.8401L35.7984 89.8578C36.0622 90.0791 36.3436 90.2915 36.6251 90.504C36.6866 90.5571 36.7482 90.6013 36.8097 90.6456C36.8801 90.6987 36.9505 90.7518 37.0208 90.8049C37.0648 90.8315 37.1 90.858 37.1352 90.8934L37.2055 90.9466C37.3198 91.0351 37.4254 91.1147 37.5397 91.2033L37.6452 91.2829C37.698 91.3272 37.7596 91.3626 37.8123 91.4069L37.8299 91.4246L37.8563 91.4423C37.9355 91.5042 38.0234 91.5662 38.1114 91.6282L38.1993 91.6901C38.4016 91.8406 38.6127 91.9822 38.8237 92.1327H38.8413L38.8589 92.1593C38.9469 92.2212 39.0436 92.2832 39.1404 92.3451L39.2107 92.3894L39.4394 92.5399L39.6856 92.7081C39.8087 92.7877 39.9407 92.8762 40.0726 92.9559C40.2045 93.0444 40.3364 93.1241 40.4596 93.2038H40.7762L41.3478 93.7526C41.4358 93.8057 41.5237 93.8588 41.6117 93.9119C41.7876 94.0181 41.9635 94.1155 42.1394 94.2129H42.1569L42.1745 94.2306C42.3152 94.3102 42.4472 94.3899 42.5879 94.4696C43.3266 94.8945 44.0742 95.2928 44.8305 95.6646C44.9976 95.7442 45.1647 95.8327 45.323 95.9124C45.3494 95.9301 45.3758 95.939 45.3934 95.9478C45.5517 96.0186 45.7012 96.0983 45.8595 96.1691C46.3344 96.3904 46.8181 96.6117 47.2843 96.8153H47.2931H47.3019C47.4162 96.8684 47.5393 96.9215 47.6537 96.9658C47.6888 96.9835 47.724 96.9923 47.768 97.0189C47.9263 97.0808 48.0846 97.1516 48.2429 97.2136C48.6299 97.3729 49.0432 97.5323 49.483 97.7005H49.5005L49.5181 97.7093C49.6501 97.7624 49.7908 97.8155 49.9227 97.8598H49.9403L49.9579 97.8687C50.5999 98.1077 51.2331 98.3201 51.8399 98.5148H51.8575L51.8751 98.5325C51.9982 98.5768 52.1214 98.6122 52.2445 98.6565H52.2621H52.2797C52.4644 98.7184 52.6491 98.7715 52.8337 98.8335L52.9921 98.8778C53.2119 98.9397 53.4406 99.0017 53.6604 99.0636C53.7836 99.099 53.8979 99.1256 54.0034 99.161H54.0298C55.4106 99.5416 56.8178 99.8603 58.1985 100.099H58.2161H58.2337C58.4008 100.126 58.5855 100.161 58.8054 100.197H58.8317C59.0516 100.241 59.2451 100.267 59.4122 100.294H59.4386H59.465C59.6585 100.329 59.8519 100.356 60.0542 100.383H60.0718C62.3848 100.71 64.7418 100.878 67.0812 100.878C69.4206 100.878 71.7864 100.71 74.0994 100.391H74.1522C74.3369 100.356 74.5215 100.329 74.7062 100.303H74.7326H74.7502L116.631 58.1507C116.631 58.1507 116.631 58.0976 116.64 58.0799L116.692 58.0711Z" fill="url(#paint23_linear_260_1168)"/>
<defs>
<linearGradient id="paint0_linear_260_1168" x1="0.724609" y1="123.3" x2="10.9441" y2="123.3" gradientUnits="userSpaceOnUse">
<stop/>
<stop offset="0.33"/>
<stop offset="0.52"/>
<stop offset="0.73"/>
<stop offset="1"/>
</linearGradient>
<linearGradient id="paint1_linear_260_1168" x1="20.8389" y1="123.3" x2="32.9316" y2="123.3" gradientUnits="userSpaceOnUse">
<stop/>
<stop offset="0.33"/>
<stop offset="0.52"/>
<stop offset="0.73"/>
<stop offset="1"/>
</linearGradient>
<linearGradient id="paint2_linear_260_1168" x1="43.625" y1="123.3" x2="55.8937" y2="123.3" gradientUnits="userSpaceOnUse">
<stop/>
<stop offset="0.33"/>
<stop offset="0.52"/>
<stop offset="0.73"/>
<stop offset="1"/>
</linearGradient>
<linearGradient id="paint3_linear_260_1168" x1="66.5879" y1="123.3" x2="73.5885" y2="123.3" gradientUnits="userSpaceOnUse">
<stop/>
<stop offset="0.33"/>
<stop offset="0.52"/>
<stop offset="0.73"/>
<stop offset="1"/>
</linearGradient>
<linearGradient id="paint4_linear_260_1168" x1="82.6826" y1="123.3" x2="94.0014" y2="123.3" gradientUnits="userSpaceOnUse">
<stop/>
<stop offset="0.33"/>
<stop offset="0.52"/>
<stop offset="0.73"/>
<stop offset="1"/>
</linearGradient>
<linearGradient id="paint5_linear_260_1168" x1="104.371" y1="123.3" x2="114.441" y2="123.3" gradientUnits="userSpaceOnUse">
<stop/>
<stop offset="0.33"/>
<stop offset="0.52"/>
<stop offset="0.73"/>
<stop offset="1"/>
</linearGradient>
<linearGradient id="paint6_linear_260_1168" x1="124.818" y1="123.3" x2="133.543" y2="123.3" gradientUnits="userSpaceOnUse">
<stop/>
<stop offset="0.33"/>
<stop offset="0.52"/>
<stop offset="0.73"/>
<stop offset="1"/>
</linearGradient>
<linearGradient id="paint7_linear_260_1168" x1="0.707031" y1="137.18" x2="4.29528" y2="137.18" gradientUnits="userSpaceOnUse">
<stop/>
<stop offset="0.33"/>
<stop offset="0.52"/>
<stop offset="0.73"/>
<stop offset="1"/>
</linearGradient>
<linearGradient id="paint8_linear_260_1168" x1="8.09375" y1="137.18" x2="12.4647" y2="137.18" gradientUnits="userSpaceOnUse">
<stop/>
<stop offset="0.33"/>
<stop offset="0.52"/>
<stop offset="0.73"/>
<stop offset="1"/>
</linearGradient>
<linearGradient id="paint9_linear_260_1168" x1="17.0312" y1="137.18" x2="20.6899" y2="137.18" gradientUnits="userSpaceOnUse">
<stop/>
<stop offset="0.33"/>
<stop offset="0.52"/>
<stop offset="0.73"/>
<stop offset="1"/>
</linearGradient>
<linearGradient id="paint10_linear_260_1168" x1="25.9219" y1="137.18" x2="29.1935" y2="137.18" gradientUnits="userSpaceOnUse">
<stop/>
<stop offset="0.33"/>
<stop offset="0.52"/>
<stop offset="0.73"/>
<stop offset="1"/>
</linearGradient>
<linearGradient id="paint11_linear_260_1168" x1="34.2422" y1="137.18" x2="35.0161" y2="137.18" gradientUnits="userSpaceOnUse">
<stop/>
<stop offset="0.33"/>
<stop offset="0.52"/>
<stop offset="0.73"/>
<stop offset="1"/>
</linearGradient>
<linearGradient id="paint12_linear_260_1168" x1="40.4141" y1="137.18" x2="44.2574" y2="137.18" gradientUnits="userSpaceOnUse">
<stop/>
<stop offset="0.33"/>
<stop offset="0.52"/>
<stop offset="0.73"/>
<stop offset="1"/>
</linearGradient>
<linearGradient id="paint13_linear_260_1168" x1="49.6582" y1="137.18" x2="52.9386" y2="137.18" gradientUnits="userSpaceOnUse">
<stop/>
<stop offset="0.33"/>
<stop offset="0.52"/>
<stop offset="0.73"/>
<stop offset="1"/>
</linearGradient>
<linearGradient id="paint14_linear_260_1168" x1="63.8535" y1="137.18" x2="67.5121" y2="137.18" gradientUnits="userSpaceOnUse">
<stop/>
<stop offset="0.33"/>
<stop offset="0.52"/>
<stop offset="0.73"/>
<stop offset="1"/>
</linearGradient>
<linearGradient id="paint15_linear_260_1168" x1="72.5693" y1="137.18" x2="76.228" y2="137.18" gradientUnits="userSpaceOnUse">
<stop/>
<stop offset="0.33"/>
<stop offset="0.52"/>
<stop offset="0.73"/>
<stop offset="1"/>
</linearGradient>
<linearGradient id="paint16_linear_260_1168" x1="81.4512" y1="137.18" x2="84.7228" y2="137.18" gradientUnits="userSpaceOnUse">
<stop/>
<stop offset="0.33"/>
<stop offset="0.52"/>
<stop offset="0.73"/>
<stop offset="1"/>
</linearGradient>
<linearGradient id="paint17_linear_260_1168" x1="89.332" y1="137.18" x2="93.0874" y2="137.18" gradientUnits="userSpaceOnUse">
<stop/>
<stop offset="0.33"/>
<stop offset="0.52"/>
<stop offset="0.73"/>
<stop offset="1"/>
</linearGradient>
<linearGradient id="paint18_linear_260_1168" x1="104.273" y1="137.18" x2="107.853" y2="137.18" gradientUnits="userSpaceOnUse">
<stop/>
<stop offset="0.33"/>
<stop offset="0.52"/>
<stop offset="0.73"/>
<stop offset="1"/>
</linearGradient>
<linearGradient id="paint19_linear_260_1168" x1="113.254" y1="137.18" x2="116.534" y2="137.18" gradientUnits="userSpaceOnUse">
<stop/>
<stop offset="0.33"/>
<stop offset="0.52"/>
<stop offset="0.73"/>
<stop offset="1"/>
</linearGradient>
<linearGradient id="paint20_linear_260_1168" x1="121.582" y1="137.18" x2="125.329" y2="137.18" gradientUnits="userSpaceOnUse">
<stop/>
<stop offset="0.33"/>
<stop offset="0.52"/>
<stop offset="0.73"/>
<stop offset="1"/>
</linearGradient>
<linearGradient id="paint21_linear_260_1168" x1="130.289" y1="137.18" x2="133.561" y2="137.18" gradientUnits="userSpaceOnUse">
<stop/>
<stop offset="0.33"/>
<stop offset="0.52"/>
<stop offset="0.73"/>
<stop offset="1"/>
</linearGradient>
<linearGradient id="paint22_linear_260_1168" x1="17.0117" y1="43.3863" x2="102.259" y2="43.3863" gradientUnits="userSpaceOnUse">
<stop/>
<stop offset="0.33"/>
<stop offset="0.52"/>
<stop offset="0.73"/>
<stop offset="1"/>
</linearGradient>
<linearGradient id="paint23_linear_260_1168" x1="32.0078" y1="57.4869" x2="117.255" y2="57.4869" gradientUnits="userSpaceOnUse">
<stop/>
<stop offset="0.33"/>
<stop offset="0.52"/>
<stop offset="0.73"/>
<stop offset="1"/>
</linearGradient>
</defs>
</svg>
