<svg width="96" height="125" viewBox="0 0 96 125" fill="none" xmlns="http://www.w3.org/2000/svg">
<path d="M41.0513 7.64671C41.1568 7.64671 41.2711 7.64671 41.3767 7.66441C42.0011 7.69097 42.6255 7.72638 43.2763 7.77949C46.205 7.99193 49.0369 8.42566 51.7105 9.05414V2.21172C48.9753 1.51243 46.0467 1.04329 43.0037 0.821991C41.8868 0.733473 40.6995 0.680364 39.477 0.653809C39.1516 0.653809 38.8262 0.653809 38.492 0.653809H38.4656C32.749 0.653809 26.8742 1.41506 20.9905 2.91101C14.3065 4.6017 7.90393 7.21297 2.41602 10.4704V78.2573C7.77201 75.3097 13.8228 72.9463 20.111 71.3529C25.08 70.096 30.0842 69.3259 34.9829 69.0692H35.0269H35.0445C35.0884 69.0692 35.1324 69.0692 35.1676 69.0692C36.0119 69.0249 36.8474 68.9984 37.7093 68.9895V62.0497C31.3859 62.1117 24.8953 62.9792 18.4136 64.6167C16.083 65.2098 13.8228 65.8825 11.7032 66.6084L9.31108 67.4316V14.5688L10.34 14.0731C14.1921 12.2231 18.3433 10.7271 22.6703 9.62951C26.9533 8.54074 31.2275 7.88571 35.3787 7.66441C35.4666 7.66441 35.537 7.65556 35.5897 7.65556C36.5484 7.6113 37.5158 7.58475 38.4656 7.58475C38.8174 7.58475 39.1604 7.58475 39.5034 7.5936H39.5474C40.0487 7.60245 40.55 7.62015 41.0513 7.64671Z" fill="url(#paint0_linear_260_1224)"/>
<path d="M58.0603 14.8077C56.4773 14.8077 54.903 14.7546 53.3903 14.6395C51.5522 14.5067 49.7229 14.2854 47.964 13.9844C46.891 13.7986 45.8356 13.5861 44.8066 13.3471V80.3728C48.8522 81.4084 53.3024 81.9395 58.0603 81.9395C63.7681 81.9395 69.6518 81.1783 75.5442 79.6912C82.2194 77.9916 88.622 75.3892 94.1187 72.1318V5.53101C88.7627 8.47865 82.7119 10.8421 76.4325 12.4354C70.2498 14.0022 64.0671 14.7988 58.0691 14.7988L58.0603 14.8077ZM84.8227 15.9672L87.2148 15.1529V68.0245L86.1859 68.5202C82.3426 70.3614 78.1915 71.8573 73.8469 72.955C68.5085 74.3093 63.1964 74.9997 58.0603 74.9997C56.4685 74.9997 54.8854 74.9289 53.3551 74.7961L51.7017 74.6545V68.2547H51.7105V22.2166V20.2692L53.6366 20.3931C55.0349 20.4817 56.486 20.5259 58.0603 20.5259C64.6388 20.5259 71.3843 19.6584 78.1123 17.95C80.3726 17.3747 82.6328 16.7019 84.8315 15.9584L84.8227 15.9672Z" fill="url(#paint1_linear_260_1224)"/>
<path d="M7.09403 101.422C6.40804 100.696 5.51096 100.333 4.41162 100.333C3.84876 100.333 3.32986 100.431 2.86374 100.626C2.39762 100.82 1.99307 101.086 1.65887 101.422C1.32467 101.759 1.06084 102.166 0.87615 102.626C0.691461 103.086 0.603516 103.591 0.603516 104.131V113.186C0.603516 113.939 0.717842 114.558 0.955299 115.045C1.19276 115.532 1.49178 115.93 1.86116 116.231C2.23053 116.541 2.64389 116.754 3.10122 116.877C3.55854 117.001 4.01588 117.063 4.45561 117.063C4.9745 117.063 5.45819 116.957 5.91551 116.754C6.36404 116.55 6.75983 116.267 7.09403 115.913C7.42823 115.559 7.69207 115.151 7.88555 114.7C8.07904 114.248 8.17577 113.762 8.17577 113.257V112.239H5.83636V113.045C5.83636 113.372 5.79239 113.638 5.69565 113.85C5.6077 114.063 5.48459 114.24 5.35266 114.355C5.20315 114.479 5.03606 114.567 4.86016 114.62C4.68427 114.673 4.51717 114.7 4.36766 114.7C3.83118 114.7 3.46178 114.541 3.25071 114.213C3.03964 113.886 2.94292 113.487 2.94292 113.009V104.6C2.94292 104.042 3.03965 103.591 3.23313 103.228C3.42662 102.865 3.81359 102.688 4.39404 102.688C4.83378 102.688 5.18555 102.856 5.44939 103.193C5.71324 103.529 5.83636 103.936 5.83636 104.396V105.184H8.17577V104.264C8.17577 103.697 8.07904 103.166 7.88555 102.679C7.69207 102.192 7.42823 101.776 7.09403 101.422Z" fill="url(#paint2_linear_260_1224)"/>
<path d="M21.139 101.325C20.7521 100.997 20.3299 100.758 19.8638 100.581C19.3977 100.413 18.9227 100.325 18.4478 100.325C17.9729 100.325 17.5068 100.413 17.0319 100.581C16.5658 100.75 16.1524 100.997 15.783 101.325C15.3961 101.661 15.0971 102.086 14.8684 102.6C14.6397 103.104 14.5254 103.697 14.5254 104.352V113.036C14.5254 113.726 14.6397 114.319 14.8684 114.815C15.0971 115.311 15.4049 115.718 15.783 116.037C16.1524 116.373 16.5658 116.63 17.0319 116.798C17.498 116.966 17.9729 117.055 18.4478 117.055C18.9227 117.055 19.3889 116.966 19.8638 116.798C20.3299 116.63 20.7521 116.373 21.139 116.037C21.5084 115.709 21.8074 115.302 22.0361 114.815C22.2648 114.319 22.3791 113.726 22.3791 113.036V104.352C22.3791 103.688 22.2648 103.104 22.0361 102.6C21.8074 102.095 21.5084 101.67 21.139 101.325ZM20.0397 113.036C20.0397 113.602 19.8814 114.027 19.5648 114.293C19.2482 114.558 18.8788 114.7 18.4478 114.7C18.0169 114.7 17.6475 114.567 17.3309 114.293C17.0143 114.027 16.8648 113.602 16.8648 113.036V104.352C16.8648 103.786 17.0231 103.361 17.3309 103.095C17.6475 102.83 18.0169 102.688 18.4478 102.688C18.8788 102.688 19.2482 102.821 19.5648 103.095C19.8814 103.361 20.0397 103.786 20.0397 104.352V113.036Z" fill="url(#paint3_linear_260_1224)"/>
<path d="M39.5908 116.922V100.466H37.3218L34.3403 109.176H34.2876L31.2798 100.466H29.0371V116.922H31.3765V106.919H31.4205L33.7159 113.983H34.8856L37.2074 106.919H37.2514V116.922H39.5908Z" fill="url(#paint4_linear_260_1224)"/>
<path d="M52.9329 101.626C52.5372 101.192 52.0886 100.891 51.6049 100.723C51.1124 100.555 50.5496 100.466 49.9076 100.466H46.3984V116.913H48.7378V110.486H49.9339C50.8046 110.486 51.5082 110.336 52.0447 110.035C52.5811 109.734 53.0121 109.318 53.3287 108.778C53.6013 108.335 53.786 107.857 53.8652 107.344C53.9531 106.839 53.9883 106.211 53.9883 105.476C53.9883 104.494 53.9092 103.706 53.7596 103.13C53.6101 102.555 53.3287 102.051 52.9329 101.617V101.626ZM51.7545 106.636C51.7281 106.972 51.6577 107.255 51.5346 107.494C51.4115 107.742 51.218 107.937 50.9629 108.07C50.6991 108.211 50.3385 108.273 49.8636 108.273H48.7378V102.679H49.9515C50.4088 102.679 50.7606 102.75 51.0069 102.883C51.2531 103.024 51.4378 103.219 51.561 103.485C51.6841 103.75 51.7544 104.051 51.7632 104.396C51.7808 104.741 51.7896 105.104 51.7896 105.494C51.7896 105.91 51.7808 106.291 51.7545 106.627V106.636Z" fill="url(#paint5_linear_260_1224)"/>
<path d="M64.0144 100.466H62.0619L58.4121 116.913H60.7515L61.4375 113.381H64.63L65.316 116.913H67.6554L64.0056 100.466H64.0144ZM61.8597 111.159L63.003 105.202H63.0469L64.1991 111.159H61.8597Z" fill="url(#paint6_linear_260_1224)"/>
<path d="M79.1415 110.38H79.0975L75.562 100.466H73.3105V116.922H75.6499V107.034H75.7027L79.2822 116.922H81.4809V100.466H79.1415V110.38Z" fill="url(#paint7_linear_260_1224)"/>
<path d="M93.4425 100.466L91.5604 107.008H91.5165L89.6344 100.466H87.1543L90.3644 109.964V116.922H92.7125V109.964L95.9226 100.466H93.4425Z" fill="url(#paint8_linear_260_1224)"/>
<path d="M0.560547 121.56H1.69507V124.738H2.46021V121.56H3.57716V120.914H0.560547V121.56Z" fill="url(#paint9_linear_260_1224)"/>
<path d="M10.0498 120.914L8.57227 124.729H9.38137L9.69799 123.862H11.2195L11.5449 124.729H12.3804L10.8589 120.914H10.0498ZM9.92666 123.224L10.4455 121.808L10.9644 123.224H9.92666Z" fill="url(#paint10_linear_260_1224)"/>
<path d="M19.4251 123.331H20.3045V123.817C20.0319 124.03 19.7241 124.136 19.3987 124.136C19.0469 124.136 18.7742 124.012 18.5895 123.773C18.4049 123.534 18.3081 123.198 18.3081 122.782C18.3081 121.932 18.6775 121.507 19.4075 121.507C19.8648 121.507 20.1462 121.711 20.2693 122.118L21.0257 121.976C20.8674 121.224 20.3221 120.852 19.4075 120.852C18.8798 120.852 18.44 121.02 18.0707 121.348C17.7013 121.675 17.5254 122.162 17.5254 122.817C17.5254 123.401 17.6925 123.879 18.0179 124.251C18.3433 124.623 18.827 124.809 19.4602 124.809C20.0935 124.809 20.6563 124.614 21.0785 124.216V122.693H19.4251V123.331Z" fill="url(#paint11_linear_260_1224)"/>
<path d="M30.2075 120.914H29.4336V124.738H32.1072V124.092H30.2075V120.914Z" fill="url(#paint12_linear_260_1224)"/>
<path d="M38.2993 120.914H37.5254V124.729H38.2993V120.914Z" fill="url(#paint13_linear_260_1224)"/>
<path d="M46.2134 123.463L44.6479 120.914H43.9004V124.738H44.6216V122.242L46.1518 124.738H46.917V120.914H46.2134V123.463Z" fill="url(#paint14_linear_260_1224)"/>
<path d="M53.3735 123.047H55.2732V122.401H53.3735V121.56H55.4139V120.914H52.5996V124.738H55.4931V124.092H53.3735V123.047Z" fill="url(#paint15_linear_260_1224)"/>
<path d="M69.5112 122.419H68.0073V120.914H67.2422V124.738H68.0073V123.065H69.5112V124.738H70.2764V120.914H69.5112V122.419Z" fill="url(#paint16_linear_260_1224)"/>
<path d="M76.7134 123.047H78.613V122.401H76.7134V121.56H78.7626V120.914H75.9395V124.738H78.8329V124.092H76.7134V123.047Z" fill="url(#paint17_linear_260_1224)"/>
<path d="M86.4672 123.047C87.1356 122.95 87.4698 122.596 87.4698 121.985C87.4698 121.569 87.3467 121.286 87.1004 121.135C86.8542 120.985 86.4848 120.914 85.9835 120.914H84.3652V124.729H85.1304V123.136H85.2799C85.4998 123.136 85.658 123.162 85.7548 123.224C85.8515 123.277 85.9483 123.375 86.0275 123.499L86.8541 124.729H87.7688L87.3027 123.986C86.9949 123.499 86.7134 123.18 86.4584 123.047H86.4672ZM85.6932 122.525H85.1216V121.56H85.7196C86.133 121.56 86.388 121.596 86.5023 121.658C86.6167 121.72 86.6694 121.844 86.6694 122.038C86.6694 122.242 86.5991 122.375 86.4672 122.437C86.3353 122.499 86.0714 122.534 85.6844 122.534L85.6932 122.525Z" fill="url(#paint18_linear_260_1224)"/>
<path d="M93.8276 123.047H95.7273V122.401H93.8276V121.56H95.8768V120.914H93.0625V124.738H95.9559V124.092H93.8276V123.047Z" fill="url(#paint19_linear_260_1224)"/>
<defs>
<linearGradient id="paint0_linear_260_1224" x1="2.39843" y1="39.4511" x2="51.7105" y2="39.4511" gradientUnits="userSpaceOnUse">
<stop/>
<stop offset="0.33"/>
<stop offset="0.52"/>
<stop offset="0.73"/>
<stop offset="1"/>
</linearGradient>
<linearGradient id="paint1_linear_260_1224" x1="44.8066" y1="43.7353" x2="94.1099" y2="43.7353" gradientUnits="userSpaceOnUse">
<stop/>
<stop offset="0.33"/>
<stop offset="0.52"/>
<stop offset="0.73"/>
<stop offset="1"/>
</linearGradient>
<linearGradient id="paint2_linear_260_1224" x1="4.38524" y1="117.055" x2="4.38524" y2="100.333" gradientUnits="userSpaceOnUse">
<stop/>
<stop offset="0.33"/>
<stop offset="0.52"/>
<stop offset="0.73"/>
<stop offset="1"/>
</linearGradient>
<linearGradient id="paint3_linear_260_1224" x1="18.4566" y1="117.055" x2="18.4566" y2="100.334" gradientUnits="userSpaceOnUse">
<stop/>
<stop offset="0.33"/>
<stop offset="0.52"/>
<stop offset="0.73"/>
<stop offset="1"/>
</linearGradient>
<linearGradient id="paint4_linear_260_1224" x1="34.3139" y1="116.922" x2="34.3139" y2="100.466" gradientUnits="userSpaceOnUse">
<stop/>
<stop offset="0.33"/>
<stop offset="0.52"/>
<stop offset="0.73"/>
<stop offset="1"/>
</linearGradient>
<linearGradient id="paint5_linear_260_1224" x1="50.189" y1="116.922" x2="50.189" y2="100.466" gradientUnits="userSpaceOnUse">
<stop/>
<stop offset="0.33"/>
<stop offset="0.52"/>
<stop offset="0.73"/>
<stop offset="1"/>
</linearGradient>
<linearGradient id="paint6_linear_260_1224" x1="63.0381" y1="116.922" x2="63.0381" y2="100.466" gradientUnits="userSpaceOnUse">
<stop/>
<stop offset="0.33"/>
<stop offset="0.52"/>
<stop offset="0.73"/>
<stop offset="1"/>
</linearGradient>
<linearGradient id="paint7_linear_260_1224" x1="77.4001" y1="116.922" x2="77.4001" y2="100.466" gradientUnits="userSpaceOnUse">
<stop/>
<stop offset="0.33"/>
<stop offset="0.52"/>
<stop offset="0.73"/>
<stop offset="1"/>
</linearGradient>
<linearGradient id="paint8_linear_260_1224" x1="91.5341" y1="116.922" x2="91.5341" y2="100.466" gradientUnits="userSpaceOnUse">
<stop/>
<stop offset="0.33"/>
<stop offset="0.52"/>
<stop offset="0.73"/>
<stop offset="1"/>
</linearGradient>
<linearGradient id="paint9_linear_260_1224" x1="2.07325" y1="124.738" x2="2.07325" y2="120.914" gradientUnits="userSpaceOnUse">
<stop/>
<stop offset="0.33"/>
<stop offset="0.52"/>
<stop offset="0.73"/>
<stop offset="1"/>
</linearGradient>
<linearGradient id="paint10_linear_260_1224" x1="10.4719" y1="124.738" x2="10.4719" y2="120.914" gradientUnits="userSpaceOnUse">
<stop/>
<stop offset="0.33"/>
<stop offset="0.52"/>
<stop offset="0.73"/>
<stop offset="1"/>
</linearGradient>
<linearGradient id="paint11_linear_260_1224" x1="19.2931" y1="124.8" x2="19.2931" y2="120.852" gradientUnits="userSpaceOnUse">
<stop/>
<stop offset="0.33"/>
<stop offset="0.52"/>
<stop offset="0.73"/>
<stop offset="1"/>
</linearGradient>
<linearGradient id="paint12_linear_260_1224" x1="30.7704" y1="124.738" x2="30.7704" y2="120.914" gradientUnits="userSpaceOnUse">
<stop/>
<stop offset="0.33"/>
<stop offset="0.52"/>
<stop offset="0.73"/>
<stop offset="1"/>
</linearGradient>
<linearGradient id="paint13_linear_260_1224" x1="37.9124" y1="124.738" x2="37.9124" y2="120.914" gradientUnits="userSpaceOnUse">
<stop/>
<stop offset="0.33"/>
<stop offset="0.52"/>
<stop offset="0.73"/>
<stop offset="1"/>
</linearGradient>
<linearGradient id="paint14_linear_260_1224" x1="45.4131" y1="124.738" x2="45.4131" y2="120.914" gradientUnits="userSpaceOnUse">
<stop/>
<stop offset="0.33"/>
<stop offset="0.52"/>
<stop offset="0.73"/>
<stop offset="1"/>
</linearGradient>
<linearGradient id="paint15_linear_260_1224" x1="54.0419" y1="124.738" x2="54.0419" y2="120.914" gradientUnits="userSpaceOnUse">
<stop/>
<stop offset="0.33"/>
<stop offset="0.52"/>
<stop offset="0.73"/>
<stop offset="1"/>
</linearGradient>
<linearGradient id="paint16_linear_260_1224" x1="68.7637" y1="124.738" x2="68.7637" y2="120.914" gradientUnits="userSpaceOnUse">
<stop/>
<stop offset="0.33"/>
<stop offset="0.52"/>
<stop offset="0.73"/>
<stop offset="1"/>
</linearGradient>
<linearGradient id="paint17_linear_260_1224" x1="77.3818" y1="124.738" x2="77.3818" y2="120.914" gradientUnits="userSpaceOnUse">
<stop/>
<stop offset="0.33"/>
<stop offset="0.52"/>
<stop offset="0.73"/>
<stop offset="1"/>
</linearGradient>
<linearGradient id="paint18_linear_260_1224" x1="86.0714" y1="124.738" x2="86.0714" y2="120.914" gradientUnits="userSpaceOnUse">
<stop/>
<stop offset="0.33"/>
<stop offset="0.52"/>
<stop offset="0.73"/>
<stop offset="1"/>
</linearGradient>
<linearGradient id="paint19_linear_260_1224" x1="94.5048" y1="124.738" x2="94.5048" y2="120.914" gradientUnits="userSpaceOnUse">
<stop/>
<stop offset="0.33"/>
<stop offset="0.52"/>
<stop offset="0.73"/>
<stop offset="1"/>
</linearGradient>
</defs>
</svg>
