<svg width="150" height="139" viewBox="0 0 150 139" fill="none" xmlns="http://www.w3.org/2000/svg">
<path d="M45.3975 97.0463V97.0285L41.7741 90.7172L13.0769 40.687H5.83008L38.1507 97.0285V97.0463H38.1595H45.3888H45.3975Z" fill="url(#paint0_linear_260_1193)"/>
<path d="M74.3498 97.0463V97.0285L70.7263 90.7172L67.1117 84.4148L63.4882 78.1035L59.8736 71.7921L56.2502 65.4808L42.0291 40.687H34.791L52.6268 71.7921L56.2502 78.1035L59.8736 84.4148L63.4882 90.7172L67.1117 97.0285L67.1029 97.0463H67.1117H74.341H74.3498Z" fill="url(#paint1_linear_260_1193)"/>
<path d="M85.2028 90.7172L81.5882 84.4148L77.9648 78.1035L74.3502 71.7921L70.7267 65.4808L67.1121 59.1784L63.4886 52.8671L56.5056 40.687H49.2676L59.8652 59.1695L67.1121 71.7921L70.7267 78.1035L74.3502 84.4148L77.9648 90.7172L81.5882 97.0285L81.5794 97.0463H81.5882H88.8175H88.8263V97.0285L85.2028 90.7172Z" fill="url(#paint2_linear_260_1193)"/>
<path d="M100.804 0.429199H93.5658L67.1465 46.4938L70.7611 52.8052L100.804 0.429199Z" fill="url(#paint3_linear_260_1193)"/>
<path d="M52.6361 97.0463H59.8653H59.8741V97.0285L56.2507 90.7172L52.6361 84.4148L49.0127 78.1035L27.5535 40.687H20.3066L45.3892 84.4059L49.0127 90.7172L52.6361 97.0285L52.6273 97.0463H52.6361Z" fill="url(#paint4_linear_260_1193)"/>
<path d="M77.9994 65.4189L115.28 0.429199H108.042L74.3848 59.1076L74.4199 59.1784L77.9994 65.4189Z" fill="url(#paint5_linear_260_1193)"/>
<path d="M85.2377 78.0416L129.757 0.429199H122.519L81.623 71.7214L81.6583 71.7922L85.2377 78.0416Z" fill="url(#paint6_linear_260_1193)"/>
<path d="M144.233 0.429199H136.995L88.8613 84.344L88.8965 84.4148L92.4759 90.6553L144.233 0.429199Z" fill="url(#paint7_linear_260_1193)"/>
<path d="M10.4631 123.389C9.75077 124.053 8.77456 124.46 7.71919 124.46C5.47653 124.46 3.6648 122.654 3.6648 120.397C3.6648 118.14 5.47653 116.334 7.71919 116.334C8.76576 116.334 9.75077 116.75 10.4631 117.423L12.3716 115.484C11.1579 114.316 9.52212 113.608 7.72799 113.608C4.00782 113.608 0.982422 116.653 0.982422 120.397C0.982422 124.141 4.00782 127.186 7.72799 127.186C9.52212 127.186 11.1667 126.469 12.3716 125.31L10.4631 123.389Z" fill="url(#paint8_linear_260_1193)"/>
<path d="M30.1479 113.608C26.4277 113.608 23.4023 116.653 23.4023 120.397C23.4023 124.141 26.4277 127.186 30.1479 127.186C33.8681 127.186 36.8935 124.141 36.8935 120.397C36.8935 116.653 33.8681 113.608 30.1479 113.608ZM30.1479 124.478C27.9053 124.478 26.0935 122.654 26.0935 120.397C26.0935 118.14 27.9053 116.334 30.1479 116.334C32.3906 116.334 34.1847 118.157 34.1847 120.397C34.1847 122.636 32.373 124.478 30.1479 124.478Z" fill="url(#paint9_linear_260_1193)"/>
<path d="M55.6597 123.53L51.7109 113.608H48.8086V127.186H51.4998V120.397L54.1998 127.186H57.1021L59.8108 120.397V127.186H62.4932V113.608H59.5909L55.6597 123.53Z" fill="url(#paint10_linear_260_1193)"/>
<path d="M78.1929 113.608H74.4199V127.186H77.1112V121.76H78.2105C80.4356 121.76 82.2296 119.937 82.2296 117.697C82.2296 115.458 80.4356 113.617 78.1929 113.617V113.608ZM78.1929 119.034H77.1112V116.325H78.1929C78.9404 116.325 79.5473 116.936 79.5473 117.688C79.5473 118.441 78.9404 119.034 78.1929 119.034Z" fill="url(#paint11_linear_260_1193)"/>
<path d="M97.2512 113.608L92.3789 127.186H95.246L96.618 123.389H100.76L102.132 127.186H104.999L100.127 113.608H97.26H97.2512ZM97.5854 120.663L98.6671 117.6L99.7664 120.663H97.5766H97.5854Z" fill="url(#paint12_linear_260_1193)"/>
<path d="M127.786 113.608H125.103V122.672L119.712 113.608H116.555V127.186H119.246V118.14L124.655 127.186H127.786V113.608Z" fill="url(#paint13_linear_260_1193)"/>
<path d="M145.569 127.186V120.716L149.087 113.608H146.08L144.233 117.37L142.359 113.608H139.352L142.878 120.716V127.186H145.569Z" fill="url(#paint14_linear_260_1193)"/>
<path d="M0.957031 133.781H2.51369V138.756H3.38439V133.781H4.94985V133.002H0.957031V133.781Z" fill="url(#paint15_linear_260_1193)"/>
<path d="M11.265 133.002L9.18945 138.756H10.1041L10.5438 137.472H12.7073L13.1471 138.756H14.0617L11.9862 133.002H11.265ZM10.7989 136.693L11.6256 134.179H11.6432L12.4699 136.693H10.7989Z" fill="url(#paint16_linear_260_1193)"/>
<path d="M21.2123 136.41H22.3732V136.711C22.3732 137.074 22.2588 137.366 22.039 137.588C21.8191 137.818 21.5377 137.933 21.2035 137.933C21.0012 137.933 20.8253 137.889 20.6758 137.8C20.5263 137.729 20.4032 137.632 20.3152 137.508C20.2009 137.384 20.1305 137.225 20.0953 137.021C20.0514 136.818 20.0338 136.437 20.0338 135.87C20.0338 135.304 20.0514 134.923 20.0953 134.711C20.1305 134.516 20.2097 134.357 20.3152 134.233C20.4032 134.118 20.5263 134.011 20.6758 133.941C20.8253 133.861 21.0012 133.826 21.2035 133.817C21.4849 133.817 21.7136 133.905 21.9071 134.056C22.0917 134.215 22.2237 134.419 22.294 134.649H23.2087C23.1207 134.171 22.9008 133.764 22.549 133.436C22.1973 133.109 21.7487 132.949 21.2035 132.94C20.7549 132.94 20.3768 133.055 20.0777 133.268C19.7699 133.472 19.5501 133.711 19.4094 133.976C19.3214 134.118 19.2598 134.295 19.2159 134.525C19.1807 134.755 19.1543 135.198 19.1543 135.87C19.1543 136.543 19.1719 136.977 19.2159 137.207C19.2335 137.331 19.2598 137.437 19.295 137.517C19.3302 137.596 19.3654 137.676 19.4094 137.765C19.5501 138.03 19.7699 138.26 20.0777 138.464C20.3768 138.676 20.7549 138.783 21.2035 138.791C21.7839 138.783 22.2676 138.579 22.6546 138.198C23.0328 137.809 23.235 137.322 23.2438 136.747V135.578H21.2123V136.401V136.41Z" fill="url(#paint17_linear_260_1193)"/>
<path d="M29.9351 133.002H29.0645V138.756H32.7143V137.933H29.9351V133.002Z" fill="url(#paint18_linear_260_1193)"/>
<path d="M39.2222 133.002H38.3516V138.756H39.2222V133.002Z" fill="url(#paint19_linear_260_1193)"/>
<path d="M48.6594 137.092H48.6418L46.0474 133.002H45.2383V138.756H46.1002V134.666H46.1178L48.7034 138.756H49.5213V133.002H48.6594V137.092Z" fill="url(#paint20_linear_260_1193)"/>
<path d="M55.5449 138.756H59.1947V137.933H56.4156V136.242H58.7902V135.463H56.4156V133.825H59.1947V133.002H55.5449V138.756Z" fill="url(#paint21_linear_260_1193)"/>
<path d="M73.4252 136.41H74.586V136.711C74.586 137.074 74.4718 137.366 74.2519 137.588C74.032 137.818 73.7506 137.933 73.4164 137.933C73.2141 137.933 73.0382 137.889 72.8887 137.8C72.7391 137.729 72.616 137.632 72.5281 137.508C72.4138 137.384 72.3434 137.225 72.3082 137.021C72.2643 136.818 72.2467 136.437 72.2467 135.87C72.2467 135.304 72.2643 134.923 72.3082 134.711C72.3434 134.516 72.4226 134.357 72.5281 134.233C72.616 134.118 72.7391 134.011 72.8887 133.941C73.0382 133.861 73.2141 133.826 73.4164 133.817C73.689 133.817 73.9265 133.905 74.1199 134.056C74.3046 134.215 74.4366 134.419 74.5069 134.649H75.4215C75.3336 134.171 75.1137 133.764 74.7619 133.436C74.4102 133.109 73.9616 132.949 73.4164 132.94C72.9678 132.94 72.5896 133.055 72.2906 133.268C71.9828 133.472 71.7629 133.711 71.6222 133.976C71.5343 134.118 71.4727 134.295 71.4288 134.525C71.3936 134.755 71.3672 135.198 71.3672 135.87C71.3672 136.543 71.3848 136.977 71.4288 137.207C71.4463 137.331 71.4727 137.437 71.5079 137.517C71.5431 137.596 71.5782 137.676 71.6222 137.765C71.7629 138.03 71.9828 138.26 72.2906 138.464C72.5896 138.676 72.9678 138.783 73.4164 138.791C73.9968 138.783 74.4805 138.579 74.8675 138.198C75.2456 137.809 75.448 137.322 75.4568 136.747V135.578H73.4252V136.401V136.41Z" fill="url(#paint22_linear_260_1193)"/>
<path d="M84.9204 133.985C84.7885 133.719 84.5686 133.48 84.2696 133.276C83.9706 133.064 83.5837 132.958 83.1351 132.949C82.6866 132.949 82.3084 133.064 82.0094 133.276C81.7016 133.48 81.4817 133.719 81.341 133.985C81.2531 134.126 81.1915 134.303 81.1475 134.533C81.1123 134.764 81.0859 135.206 81.0859 135.879C81.0859 136.552 81.1035 136.985 81.1475 137.216C81.1651 137.339 81.1915 137.446 81.2267 137.525C81.2619 137.605 81.297 137.685 81.341 137.773C81.4817 138.039 81.7016 138.269 82.0094 138.472C82.3084 138.685 82.6866 138.791 83.1351 138.8C83.5925 138.791 83.9706 138.676 84.2696 138.472C84.5686 138.269 84.7885 138.039 84.9204 137.773C85.0172 137.632 85.0876 137.446 85.1227 137.216C85.1579 136.985 85.1755 136.543 85.1755 135.879C85.1755 135.215 85.1579 134.764 85.1227 134.533C85.0876 134.303 85.0172 134.126 84.9204 133.985ZM84.2433 137.021C84.1993 137.224 84.1201 137.384 84.0146 137.508C83.9267 137.623 83.8123 137.72 83.6716 137.8C83.5221 137.888 83.3374 137.933 83.1351 137.933C82.9328 137.933 82.757 137.888 82.6075 137.8C82.458 137.729 82.3348 137.632 82.2468 137.508C82.1325 137.384 82.0622 137.224 82.027 137.021C81.983 136.817 81.9654 136.437 81.9654 135.87C81.9654 135.304 81.983 134.923 82.027 134.71C82.0622 134.516 82.1413 134.356 82.2468 134.232C82.3348 134.117 82.458 134.011 82.6075 133.94C82.757 133.861 82.9328 133.825 83.1351 133.816C83.3374 133.816 83.5221 133.861 83.6716 133.94C83.8123 134.02 83.9267 134.117 84.0146 134.232C84.1289 134.356 84.2081 134.516 84.2433 134.71C84.2784 134.914 84.3048 135.304 84.3048 135.87C84.3048 136.437 84.2872 136.817 84.2433 137.021Z" fill="url(#paint23_linear_260_1193)"/>
<path d="M90.998 138.756H94.6478V137.933H91.8687V136.242H94.2433V135.463H91.8687V133.825H94.6478V133.002H90.998V138.756Z" fill="url(#paint24_linear_260_1193)"/>
<path d="M102.404 135.472C102.131 135.436 101.92 135.41 101.762 135.383C101.481 135.33 101.278 135.233 101.146 135.1C101.014 134.967 100.953 134.817 100.953 134.648C100.953 134.374 101.05 134.162 101.243 134.029C101.419 133.896 101.639 133.825 101.912 133.825C102.43 133.834 102.897 133.985 103.328 134.268L103.811 133.551C103.284 133.17 102.668 132.967 101.956 132.958C101.366 132.958 100.909 133.117 100.583 133.427C100.249 133.737 100.082 134.144 100.082 134.64C100.082 135.056 100.214 135.41 100.478 135.702C100.733 135.985 101.111 136.171 101.604 136.251C101.876 136.286 102.131 136.321 102.36 136.357C102.861 136.445 103.108 136.702 103.108 137.127C103.099 137.649 102.721 137.915 101.982 137.924C101.357 137.924 100.812 137.729 100.355 137.348L99.7832 138.003C100.39 138.526 101.12 138.791 101.964 138.791C103.275 138.773 103.943 138.216 103.97 137.118C103.97 136.711 103.846 136.357 103.591 136.047C103.336 135.737 102.94 135.542 102.404 135.463V135.472Z" fill="url(#paint25_linear_260_1193)"/>
<path d="M119.571 135.463H117.311V133.002H116.449V138.756H117.311V136.242H119.571V138.756H120.442V133.002H119.571V135.463Z" fill="url(#paint26_linear_260_1193)"/>
<path d="M126.467 138.756H130.117V137.933H127.329V136.242H129.712V135.463H127.329V133.825H130.117V133.002H126.467V138.756Z" fill="url(#paint27_linear_260_1193)"/>
<path d="M139.711 134.604C139.693 134.073 139.508 133.666 139.139 133.374C138.84 133.126 138.453 132.993 137.978 132.993H135.744V138.747H136.615V136.286H137.723L138.901 138.747H139.93L138.602 136.198C139.332 135.914 139.693 135.383 139.711 134.604ZM136.615 135.516V133.772H137.969C138.242 133.772 138.462 133.834 138.602 133.949C138.787 134.082 138.884 134.303 138.893 134.604C138.893 134.852 138.813 135.064 138.655 135.233C138.497 135.419 138.251 135.507 137.925 135.516H136.615Z" fill="url(#paint28_linear_260_1193)"/>
<path d="M145.463 138.756H149.113V137.933H146.325V136.242H148.708V135.463H146.325V133.825H149.113V133.002H145.463V138.756Z" fill="url(#paint29_linear_260_1193)"/>
<defs>
<linearGradient id="paint0_linear_260_1193" x1="5.83008" y1="68.8622" x2="45.3975" y2="68.8622" gradientUnits="userSpaceOnUse">
<stop/>
<stop offset="0.33"/>
<stop offset="0.52"/>
<stop offset="0.73"/>
<stop offset="1"/>
</linearGradient>
<linearGradient id="paint1_linear_260_1193" x1="34.791" y1="68.8622" x2="74.3498" y2="68.8622" gradientUnits="userSpaceOnUse">
<stop/>
<stop offset="0.33"/>
<stop offset="0.52"/>
<stop offset="0.73"/>
<stop offset="1"/>
</linearGradient>
<linearGradient id="paint2_linear_260_1193" x1="49.2676" y1="68.8622" x2="88.8263" y2="68.8622" gradientUnits="userSpaceOnUse">
<stop/>
<stop offset="0.33"/>
<stop offset="0.52"/>
<stop offset="0.73"/>
<stop offset="1"/>
</linearGradient>
<linearGradient id="paint3_linear_260_1193" x1="67.1465" y1="26.6128" x2="100.804" y2="26.6128" gradientUnits="userSpaceOnUse">
<stop/>
<stop offset="0.33"/>
<stop offset="0.52"/>
<stop offset="0.73"/>
<stop offset="1"/>
</linearGradient>
<linearGradient id="paint4_linear_260_1193" x1="20.3066" y1="68.8622" x2="59.8741" y2="68.8622" gradientUnits="userSpaceOnUse">
<stop/>
<stop offset="0.33"/>
<stop offset="0.52"/>
<stop offset="0.73"/>
<stop offset="1"/>
</linearGradient>
<linearGradient id="paint5_linear_260_1193" x1="74.3848" y1="32.9241" x2="115.28" y2="32.9241" gradientUnits="userSpaceOnUse">
<stop/>
<stop offset="0.33"/>
<stop offset="0.52"/>
<stop offset="0.73"/>
<stop offset="1"/>
</linearGradient>
<linearGradient id="paint6_linear_260_1193" x1="81.623" y1="39.2354" x2="129.757" y2="39.2354" gradientUnits="userSpaceOnUse">
<stop/>
<stop offset="0.33"/>
<stop offset="0.52"/>
<stop offset="0.73"/>
<stop offset="1"/>
</linearGradient>
<linearGradient id="paint7_linear_260_1193" x1="88.8613" y1="45.5467" x2="144.233" y2="45.5467" gradientUnits="userSpaceOnUse">
<stop/>
<stop offset="0.33"/>
<stop offset="0.52"/>
<stop offset="0.73"/>
<stop offset="1"/>
</linearGradient>
<linearGradient id="paint8_linear_260_1193" x1="0.973627" y1="120.397" x2="12.3628" y2="120.397" gradientUnits="userSpaceOnUse">
<stop/>
<stop offset="0.33"/>
<stop offset="0.52"/>
<stop offset="0.73"/>
<stop offset="1"/>
</linearGradient>
<linearGradient id="paint9_linear_260_1193" x1="23.4023" y1="120.397" x2="36.8935" y2="120.397" gradientUnits="userSpaceOnUse">
<stop/>
<stop offset="0.33"/>
<stop offset="0.52"/>
<stop offset="0.73"/>
<stop offset="1"/>
</linearGradient>
<linearGradient id="paint10_linear_260_1193" x1="48.8086" y1="120.397" x2="62.4932" y2="120.397" gradientUnits="userSpaceOnUse">
<stop/>
<stop offset="0.33"/>
<stop offset="0.52"/>
<stop offset="0.73"/>
<stop offset="1"/>
</linearGradient>
<linearGradient id="paint11_linear_260_1193" x1="74.4199" y1="120.397" x2="82.2296" y2="120.397" gradientUnits="userSpaceOnUse">
<stop/>
<stop offset="0.33"/>
<stop offset="0.52"/>
<stop offset="0.73"/>
<stop offset="1"/>
</linearGradient>
<linearGradient id="paint12_linear_260_1193" x1="92.3789" y1="120.397" x2="104.991" y2="120.397" gradientUnits="userSpaceOnUse">
<stop/>
<stop offset="0.33"/>
<stop offset="0.52"/>
<stop offset="0.73"/>
<stop offset="1"/>
</linearGradient>
<linearGradient id="paint13_linear_260_1193" x1="116.555" y1="120.397" x2="127.786" y2="120.397" gradientUnits="userSpaceOnUse">
<stop/>
<stop offset="0.33"/>
<stop offset="0.52"/>
<stop offset="0.73"/>
<stop offset="1"/>
</linearGradient>
<linearGradient id="paint14_linear_260_1193" x1="139.352" y1="120.397" x2="149.087" y2="120.397" gradientUnits="userSpaceOnUse">
<stop/>
<stop offset="0.33"/>
<stop offset="0.52"/>
<stop offset="0.73"/>
<stop offset="1"/>
</linearGradient>
<linearGradient id="paint15_linear_260_1193" x1="0.957031" y1="135.879" x2="4.94985" y2="135.879" gradientUnits="userSpaceOnUse">
<stop/>
<stop offset="0.33"/>
<stop offset="0.52"/>
<stop offset="0.73"/>
<stop offset="1"/>
</linearGradient>
<linearGradient id="paint16_linear_260_1193" x1="9.18945" y1="135.879" x2="14.0705" y2="135.879" gradientUnits="userSpaceOnUse">
<stop/>
<stop offset="0.33"/>
<stop offset="0.52"/>
<stop offset="0.73"/>
<stop offset="1"/>
</linearGradient>
<linearGradient id="paint17_linear_260_1193" x1="19.1543" y1="135.879" x2="23.235" y2="135.879" gradientUnits="userSpaceOnUse">
<stop/>
<stop offset="0.33"/>
<stop offset="0.52"/>
<stop offset="0.73"/>
<stop offset="1"/>
</linearGradient>
<linearGradient id="paint18_linear_260_1193" x1="29.0645" y1="135.879" x2="32.7143" y2="135.879" gradientUnits="userSpaceOnUse">
<stop/>
<stop offset="0.33"/>
<stop offset="0.52"/>
<stop offset="0.73"/>
<stop offset="1"/>
</linearGradient>
<linearGradient id="paint19_linear_260_1193" x1="38.3516" y1="135.879" x2="39.2134" y2="135.879" gradientUnits="userSpaceOnUse">
<stop/>
<stop offset="0.33"/>
<stop offset="0.52"/>
<stop offset="0.73"/>
<stop offset="1"/>
</linearGradient>
<linearGradient id="paint20_linear_260_1193" x1="45.2383" y1="135.879" x2="49.5213" y2="135.879" gradientUnits="userSpaceOnUse">
<stop/>
<stop offset="0.33"/>
<stop offset="0.52"/>
<stop offset="0.73"/>
<stop offset="1"/>
</linearGradient>
<linearGradient id="paint21_linear_260_1193" x1="55.5449" y1="135.879" x2="59.1947" y2="135.879" gradientUnits="userSpaceOnUse">
<stop/>
<stop offset="0.33"/>
<stop offset="0.52"/>
<stop offset="0.73"/>
<stop offset="1"/>
</linearGradient>
<linearGradient id="paint22_linear_260_1193" x1="71.376" y1="135.879" x2="75.4568" y2="135.879" gradientUnits="userSpaceOnUse">
<stop/>
<stop offset="0.33"/>
<stop offset="0.52"/>
<stop offset="0.73"/>
<stop offset="1"/>
</linearGradient>
<linearGradient id="paint23_linear_260_1193" x1="81.0859" y1="135.879" x2="85.1667" y2="135.879" gradientUnits="userSpaceOnUse">
<stop/>
<stop offset="0.33"/>
<stop offset="0.52"/>
<stop offset="0.73"/>
<stop offset="1"/>
</linearGradient>
<linearGradient id="paint24_linear_260_1193" x1="90.998" y1="135.879" x2="94.6478" y2="135.879" gradientUnits="userSpaceOnUse">
<stop/>
<stop offset="0.33"/>
<stop offset="0.52"/>
<stop offset="0.73"/>
<stop offset="1"/>
</linearGradient>
<linearGradient id="paint25_linear_260_1193" x1="99.7832" y1="135.879" x2="103.97" y2="135.879" gradientUnits="userSpaceOnUse">
<stop/>
<stop offset="0.33"/>
<stop offset="0.52"/>
<stop offset="0.73"/>
<stop offset="1"/>
</linearGradient>
<linearGradient id="paint26_linear_260_1193" x1="116.449" y1="135.879" x2="120.442" y2="135.879" gradientUnits="userSpaceOnUse">
<stop/>
<stop offset="0.33"/>
<stop offset="0.52"/>
<stop offset="0.73"/>
<stop offset="1"/>
</linearGradient>
<linearGradient id="paint27_linear_260_1193" x1="126.467" y1="135.879" x2="130.117" y2="135.879" gradientUnits="userSpaceOnUse">
<stop/>
<stop offset="0.33"/>
<stop offset="0.52"/>
<stop offset="0.73"/>
<stop offset="1"/>
</linearGradient>
<linearGradient id="paint28_linear_260_1193" x1="135.744" y1="135.879" x2="139.93" y2="135.879" gradientUnits="userSpaceOnUse">
<stop/>
<stop offset="0.33"/>
<stop offset="0.52"/>
<stop offset="0.73"/>
<stop offset="1"/>
</linearGradient>
<linearGradient id="paint29_linear_260_1193" x1="145.463" y1="135.879" x2="149.113" y2="135.879" gradientUnits="userSpaceOnUse">
<stop/>
<stop offset="0.33"/>
<stop offset="0.52"/>
<stop offset="0.73"/>
<stop offset="1"/>
</linearGradient>
</defs>
</svg>
