<svg width="126" height="138" viewBox="0 0 126 138" fill="none" xmlns="http://www.w3.org/2000/svg">
<path d="M38.262 34.3836H40.0737V36.1982V64.2495L48.2616 56.0085V26.1426H19.626L19.6172 84.8387L27.8051 76.5977V36.1982V34.3836H29.608H38.262Z" fill="url(#paint0_linear_260_1246)"/>
<path d="M70.5294 66.8518H72.3324V68.6753V77.3766V79.2001H70.5294H34.5502L26.3711 87.4411L80.5203 87.4322V58.6108H55.0156L46.8276 66.8518H70.5294Z" fill="url(#paint1_linear_260_1246)"/>
<path d="M98.0667 33.0379V34.8613H96.2549H78.6127L70.4336 43.0935H106.246V7.04907L98.0667 15.2812V33.0379Z" fill="url(#paint2_linear_260_1246)"/>
<path d="M95.4707 8.48313L103.659 0.250977H63.6777V40.4823L71.8568 32.2501V10.3066V8.48313H73.6685H95.4707Z" fill="url(#paint3_linear_260_1246)"/>
<path d="M0.558594 132.435H2.08006V137.259H2.92438V132.435H4.43705V131.682H0.558594V132.435Z" fill="url(#paint4_linear_260_1246)"/>
<path d="M12.1932 136.011H14.2952L14.7261 137.259H15.6144L13.6004 131.682H12.8968L10.8828 137.259H11.7711L12.1932 136.011ZM13.2398 132.824H13.2574L14.0577 135.258H12.4395L13.2398 132.824Z" fill="url(#paint5_linear_260_1246)"/>
<path d="M23.9959 132.886C24.0838 132.771 24.1981 132.673 24.3476 132.603C24.4883 132.532 24.6554 132.487 24.8577 132.487C25.1304 132.487 25.3502 132.567 25.5437 132.718C25.7196 132.877 25.8515 133.063 25.9131 133.293H26.8013C26.7134 132.824 26.5023 132.434 26.1593 132.116C25.8251 131.806 25.3854 131.647 24.8489 131.638C24.4092 131.638 24.0486 131.744 23.7584 131.948C23.4594 132.151 23.2483 132.381 23.1164 132.638C23.0372 132.771 22.9669 132.948 22.9317 133.169C22.8965 133.39 22.8789 133.824 22.8789 134.47C22.8789 135.116 22.8965 135.541 22.9317 135.763C22.9493 135.887 22.9756 135.984 23.0108 136.064C23.046 136.143 23.0812 136.223 23.1251 136.303C23.2571 136.559 23.477 136.789 23.7672 136.984C24.0574 137.188 24.418 137.294 24.8577 137.303C25.4206 137.294 25.8955 137.099 26.2649 136.727C26.6342 136.347 26.8277 135.887 26.8365 135.32V134.187H24.8665V134.984H25.9922V135.276C25.9922 135.621 25.8779 135.904 25.6668 136.117C25.4557 136.338 25.1831 136.453 24.8577 136.453C24.6642 136.453 24.4883 136.409 24.3476 136.329C24.2069 136.258 24.0838 136.161 23.9959 136.046C23.8903 135.922 23.8112 135.771 23.776 135.577C23.732 135.382 23.7144 135.01 23.7144 134.461C23.7144 133.913 23.732 133.541 23.776 133.337C23.8112 133.151 23.8815 132.992 23.9959 132.877V132.886Z" fill="url(#paint6_linear_260_1246)"/>
<path d="M36.7754 131.682V137.259H40.3197V136.462H37.6197V131.682H36.7754Z" fill="url(#paint7_linear_260_1246)"/>
<path d="M48.9488 131.682H48.1133V137.259H48.9488V131.682Z" fill="url(#paint8_linear_260_1246)"/>
<path d="M60.4152 135.648L57.9087 131.682H57.1172V137.259H57.9616V133.293H57.9792L60.4768 137.259H61.2772V131.682H60.4328V135.648H60.4152Z" fill="url(#paint9_linear_260_1246)"/>
<path d="M72.9828 132.479V131.682H69.4473V137.259H72.9828V136.462H70.2916V134.825H72.5958V134.072H70.2916V132.479H72.9828Z" fill="url(#paint10_linear_260_1246)"/>
<path d="M90.4419 137.259V131.682H89.6064V134.072H87.4077V131.682H86.5723V137.259H87.4077V134.825H89.6064V137.259H90.4419Z" fill="url(#paint11_linear_260_1246)"/>
<path d="M102.157 132.479V131.682H98.6211V137.259H102.157V136.462H99.4566V134.825H101.761V134.072H99.4566V132.479H102.157Z" fill="url(#paint12_linear_260_1246)"/>
<path d="M112.718 134.78C113.421 134.506 113.782 134.001 113.791 133.24C113.773 132.727 113.588 132.328 113.245 132.054C112.946 131.815 112.577 131.691 112.111 131.691H109.947V137.268H110.783V134.878H111.856L112.999 137.268H114.002L112.718 134.789V134.78ZM110.783 134.125V132.434H112.102C112.375 132.434 112.577 132.488 112.718 132.603C112.902 132.727 112.99 132.939 112.999 133.231C112.999 133.47 112.92 133.674 112.77 133.842C112.612 134.019 112.375 134.107 112.067 134.116H110.792L110.783 134.125Z" fill="url(#paint13_linear_260_1246)"/>
<path d="M121.697 137.259H125.242V136.462H122.542V134.825H124.846V134.072H122.542V132.479H125.242V131.682H121.697V137.259Z" fill="url(#paint14_linear_260_1246)"/>
<path d="M8.55394 121.281C8.12299 122.122 7.42821 122.547 6.46959 122.547C5.51096 122.547 4.76341 122.246 4.21814 121.644C3.67287 121.042 3.40024 120.237 3.40024 119.237C3.40024 118.236 3.67287 117.431 4.21814 116.829C4.76341 116.227 5.51976 115.926 6.46959 115.926C7.41942 115.926 8.12299 116.351 8.55394 117.183H11.8784C11.4914 115.979 10.7966 115.041 9.81163 114.368C8.82662 113.695 7.69207 113.35 6.42563 113.35C4.78981 113.35 3.40026 113.908 2.26574 115.014C1.13122 116.121 0.568359 117.528 0.568359 119.237C0.568359 120.945 1.13122 122.344 2.26574 123.459C3.40026 124.565 4.78981 125.123 6.42563 125.123C7.69207 125.123 8.82662 124.787 9.81163 124.105C10.7966 123.432 11.4914 122.485 11.8784 121.29H8.55394V121.281Z" fill="url(#paint15_linear_260_1246)"/>
<path d="M31.2077 119.237C31.2077 117.537 30.6449 116.13 29.5192 115.014C28.3934 113.908 27.0127 113.35 25.3681 113.35C23.7235 113.35 22.3338 113.908 21.1993 115.014C20.0648 116.121 19.502 117.528 19.502 119.237C19.502 120.945 20.0648 122.352 21.1993 123.459C22.3338 124.574 23.7235 125.132 25.3593 125.132C26.9951 125.132 28.3846 124.574 29.5104 123.459C30.6361 122.344 31.1989 120.936 31.1989 119.237H31.2077ZM27.558 121.644C27.0127 122.246 26.2739 122.547 25.3593 122.547C24.4446 122.547 23.7059 122.246 23.1606 121.644C22.6153 121.042 22.3427 120.237 22.3427 119.237C22.3427 118.236 22.6153 117.431 23.1606 116.829C23.7059 116.227 24.4446 115.926 25.3593 115.926C26.2739 115.926 27.0127 116.227 27.558 116.829C28.1032 117.431 28.3759 118.236 28.3759 119.237C28.3759 120.237 28.1032 121.042 27.558 121.644Z" fill="url(#paint16_linear_260_1246)"/>
<path d="M52.4468 113.518H49.2631L45.9915 121.449L42.7023 113.518H39.5098V125.017H42.2977V118.528L44.9449 125.017H47.0116L49.6677 118.528V125.017H52.4468V113.518Z" fill="url(#paint17_linear_260_1246)"/>
<path d="M64.1892 120.547H65.913C66.7045 120.547 67.3906 120.432 67.971 120.193C68.5515 119.954 68.9912 119.653 69.2814 119.281C69.8355 118.564 70.1081 117.811 70.1081 117.033C70.1081 116.059 69.7387 115.227 68.9999 114.545C68.2612 113.855 67.2323 113.51 65.9043 113.51H61.3926V125.008H64.1716V120.538L64.1892 120.547ZM64.1892 115.652H65.913C66.3263 115.652 66.6517 115.784 66.9068 116.041C67.153 116.307 67.285 116.643 67.285 117.05C67.285 117.457 67.1618 117.794 66.9156 118.042C66.6693 118.289 66.3351 118.422 65.913 118.422H64.1892V115.652Z" fill="url(#paint18_linear_260_1246)"/>
<path d="M84.5829 113.483H81.1968L77.2305 125.017H80.1943L80.8275 123.078H84.9259L85.5679 125.017H88.5405L84.5917 113.483H84.5829ZM81.5222 120.954L82.8766 116.864L84.231 120.954H81.531H81.5222Z" fill="url(#paint19_linear_260_1246)"/>
<path d="M106.632 125.017V113.483H103.852V120.741L99.2001 113.483H96.4121V125.017H99.2001V117.758L103.852 125.017H106.632Z" fill="url(#paint20_linear_260_1246)"/>
<path d="M119.965 118.705L117.767 113.518H114.609L118.567 121.316V125.017H121.346V121.316L125.304 113.518H122.146L119.965 118.705Z" fill="url(#paint21_linear_260_1246)"/>
<defs>
<linearGradient id="paint0_linear_260_1246" x1="5.04432" y1="70.1625" x2="48.7977" y2="26.691" gradientUnits="userSpaceOnUse">
<stop/>
<stop offset="0.33"/>
<stop offset="0.52"/>
<stop offset="0.73"/>
<stop offset="1"/>
</linearGradient>
<linearGradient id="paint1_linear_260_1246" x1="39.9062" y1="101.064" x2="81.5706" y2="59.668" gradientUnits="userSpaceOnUse">
<stop/>
<stop offset="0.33"/>
<stop offset="0.52"/>
<stop offset="0.73"/>
<stop offset="1"/>
</linearGradient>
<linearGradient id="paint2_linear_260_1246" x1="79.3867" y1="52.1046" x2="115.43" y2="16.2931" gradientUnits="userSpaceOnUse">
<stop/>
<stop offset="0.33"/>
<stop offset="0.52"/>
<stop offset="0.73"/>
<stop offset="1"/>
</linearGradient>
<linearGradient id="paint3_linear_260_1246" x1="53.6869" y1="30.4267" x2="93.9175" y2="-9.55335" gradientUnits="userSpaceOnUse">
<stop/>
<stop offset="0.33"/>
<stop offset="0.52"/>
<stop offset="0.73"/>
<stop offset="1"/>
</linearGradient>
<linearGradient id="paint4_linear_260_1246" x1="2.50222" y1="143.747" x2="2.50222" y2="-23.091" gradientUnits="userSpaceOnUse">
<stop/>
<stop offset="0.33"/>
<stop offset="0.52"/>
<stop offset="0.73"/>
<stop offset="1"/>
</linearGradient>
<linearGradient id="paint5_linear_260_1246" x1="13.2486" y1="153.741" x2="13.2486" y2="11.3513" gradientUnits="userSpaceOnUse">
<stop/>
<stop offset="0.33"/>
<stop offset="0.52"/>
<stop offset="0.73"/>
<stop offset="1"/>
</linearGradient>
<linearGradient id="paint6_linear_260_1246" x1="24.8577" y1="171.241" x2="24.8577" y2="15.697" gradientUnits="userSpaceOnUse">
<stop/>
<stop offset="0.33"/>
<stop offset="0.52"/>
<stop offset="0.73"/>
<stop offset="1"/>
</linearGradient>
<linearGradient id="paint7_linear_260_1246" x1="38.5431" y1="199.938" x2="38.5431" y2="18.3088" gradientUnits="userSpaceOnUse">
<stop/>
<stop offset="0.33"/>
<stop offset="0.52"/>
<stop offset="0.73"/>
<stop offset="1"/>
</linearGradient>
<linearGradient id="paint8_linear_260_1246" x1="48.5355" y1="282.437" x2="48.5355" y2="-48.3451" gradientUnits="userSpaceOnUse">
<stop/>
<stop offset="0.33"/>
<stop offset="0.52"/>
<stop offset="0.73"/>
<stop offset="1"/>
</linearGradient>
<linearGradient id="paint9_linear_260_1246" x1="59.2016" y1="201.912" x2="59.2016" y2="75.9958" gradientUnits="userSpaceOnUse">
<stop/>
<stop offset="0.33"/>
<stop offset="0.52"/>
<stop offset="0.73"/>
<stop offset="1"/>
</linearGradient>
<linearGradient id="paint10_linear_260_1246" x1="71.215" y1="224.839" x2="71.215" y2="82.5461" gradientUnits="userSpaceOnUse">
<stop/>
<stop offset="0.33"/>
<stop offset="0.52"/>
<stop offset="0.73"/>
<stop offset="1"/>
</linearGradient>
<linearGradient id="paint11_linear_260_1246" x1="88.5071" y1="235.903" x2="88.5071" y2="103.003" gradientUnits="userSpaceOnUse">
<stop/>
<stop offset="0.33"/>
<stop offset="0.52"/>
<stop offset="0.73"/>
<stop offset="1"/>
</linearGradient>
<linearGradient id="paint12_linear_260_1246" x1="100.389" y1="257.068" x2="100.389" y2="114.775" gradientUnits="userSpaceOnUse">
<stop/>
<stop offset="0.33"/>
<stop offset="0.52"/>
<stop offset="0.73"/>
<stop offset="1"/>
</linearGradient>
<linearGradient id="paint13_linear_260_1246" x1="111.979" y1="270.212" x2="111.979" y2="128.133" gradientUnits="userSpaceOnUse">
<stop/>
<stop offset="0.33"/>
<stop offset="0.52"/>
<stop offset="0.73"/>
<stop offset="1"/>
</linearGradient>
<linearGradient id="paint14_linear_260_1246" x1="123.474" y1="284.252" x2="123.474" y2="141.959" gradientUnits="userSpaceOnUse">
<stop/>
<stop offset="0.33"/>
<stop offset="0.52"/>
<stop offset="0.73"/>
<stop offset="1"/>
</linearGradient>
<linearGradient id="paint15_linear_260_1246" x1="6.21457" y1="132.399" x2="6.21457" y2="13.086" gradientUnits="userSpaceOnUse">
<stop/>
<stop offset="0.33"/>
<stop offset="0.52"/>
<stop offset="0.73"/>
<stop offset="1"/>
</linearGradient>
<linearGradient id="paint16_linear_260_1246" x1="25.3592" y1="150.917" x2="25.3592" y2="32.551" gradientUnits="userSpaceOnUse">
<stop/>
<stop offset="0.33"/>
<stop offset="0.52"/>
<stop offset="0.73"/>
<stop offset="1"/>
</linearGradient>
<linearGradient id="paint17_linear_260_1246" x1="45.9827" y1="158.786" x2="45.9827" y2="68.613" gradientUnits="userSpaceOnUse">
<stop/>
<stop offset="0.33"/>
<stop offset="0.52"/>
<stop offset="0.73"/>
<stop offset="1"/>
</linearGradient>
<linearGradient id="paint18_linear_260_1246" x1="65.7547" y1="198.531" x2="65.7547" y2="66.2322" gradientUnits="userSpaceOnUse">
<stop/>
<stop offset="0.33"/>
<stop offset="0.52"/>
<stop offset="0.73"/>
<stop offset="1"/>
</linearGradient>
<linearGradient id="paint19_linear_260_1246" x1="82.8767" y1="209.622" x2="82.8767" y2="86.4053" gradientUnits="userSpaceOnUse">
<stop/>
<stop offset="0.33"/>
<stop offset="0.52"/>
<stop offset="0.73"/>
<stop offset="1"/>
</linearGradient>
<linearGradient id="paint20_linear_260_1246" x1="101.522" y1="217.792" x2="101.522" y2="108.057" gradientUnits="userSpaceOnUse">
<stop/>
<stop offset="0.33"/>
<stop offset="0.52"/>
<stop offset="0.73"/>
<stop offset="1"/>
</linearGradient>
<linearGradient id="paint21_linear_260_1246" x1="119.957" y1="257.085" x2="119.957" y2="127.168" gradientUnits="userSpaceOnUse">
<stop/>
<stop offset="0.33"/>
<stop offset="0.52"/>
<stop offset="0.73"/>
<stop offset="1"/>
</linearGradient>
</defs>
</svg>
