<svg width="338" height="62" fill="none" xmlns="http://www.w3.org/2000/svg"><g clip-path="url(#clip0_698_4391)"><path d="M325.237 33.971c.889-1.123.99-2.384 1.414-3.511.885-2.377 1.678-4.793 2.45-7.198.839-2.582 1.762-5.152 2.554-7.751.47-1.544.445-1.548 2.056-1.548.978 0 1.955.033 2.937 0 .713-.032.839.23.637.833-1.569 4.28-3.15 8.555-4.698 12.843-1.171 3.253-2.266 6.526-3.457 9.772-.42 1.103-.868 2.19-1.212 3.322a1.418 1.418 0 01-.37.69c-1.124.902-2.458.203-3.687.405-.558.093-.814-.32-.965-.744-.915-2.586-1.808-5.185-2.727-7.771-.738-2.082-1.506-4.155-2.253-6.236-.47-1.321-.927-2.647-1.397-3.969-.063-.173-.029-.432-.314-.456-.286-.024-.42.23-.479.448-.818 2.292-1.619 4.583-2.437 6.87-.936 2.607-1.884 5.206-2.811 7.816a65.36 65.36 0 00-.969 2.934c-.231.76-.625 1.213-1.552 1.128a8.344 8.344 0 00-1.984 0c-.982.133-1.389-.404-1.653-1.14a9846.822 9846.822 0 01-6.901-19.22c-.839-2.295-1.678-4.59-2.518-6.87-.142-.404-.088-.639.42-.635h4.296c.533 0 .717.291.839.712 1.258 3.839 2.517 7.677 3.776 11.513.788 2.364 1.615 4.72 2.429 7.076.054.166 0 .453.318.405.244-.033.323-.243.391-.433.696-2.02 1.395-4.041 2.097-6.062.78-2.279 1.599-4.546 2.375-6.825.595-1.75 1.296-3.476 1.757-5.254.223-.86.617-1.301 1.569-1.144.14.012.28.012.42 0 2.937 0 2.84.02 3.717 2.692 1.418 4.332 2.936 8.632 4.426 12.932.528 1.394.986 2.82 1.506 4.377zm-47.938 7.994c-8.458.194-14.868-6.397-14.881-14.144a13.854 13.854 0 011.141-5.532 14.28 14.28 0 013.273-4.677 14.904 14.904 0 014.895-3.095 15.342 15.342 0 015.756-1.03c8.571.036 14.906 6.465 14.889 14.269a13.709 13.709 0 01-1.134 5.521 14.146 14.146 0 01-3.28 4.658 14.756 14.756 0 01-4.905 3.057 15.182 15.182 0 01-5.754.973zm-9.469-14.298c0 .635-.029 1.273 0 1.912a5.75 5.75 0 00.445 1.52c.751 2.201 2.328 4.054 4.424 5.193a9.972 9.972 0 006.903.965c4.514-.994 6.993-4.736 7.421-8.3a9.976 9.976 0 00-1.158-5.937c-.979-1.896-2.608-3.407-4.611-4.277a9.862 9.862 0 00-6.38-.501c-2.123.547-3.985 1.784-5.269 3.502a8.939 8.939 0 00-1.779 5.923h.004zm-54.416.097V14.969c0-.751.156-1.034 1.024-1.026 6.433.035 12.865.035 19.298 0 .864 0 1.074.263 1.015 1.022a15.1 15.1 0 000 2.425c.063.772-.172 1.027-1.028 1.018-4.644-.04-9.288-.02-13.932 0-1.38 0-1.38 0-1.384 1.322 0 1.713.05 3.427 0 5.136-.034.809.268 1.019 1.065 1.015 4.086-.029 8.172 0 12.258-.032.995 0 1.309.33 1.259 1.212-.042.739-.042 1.48 0 2.218.042.809-.352 1.12-1.191 1.116-4.015 0-8.03 0-12.049-.032-1.053 0-1.363.274-1.334 1.309.08 2.922-.021 5.844.054 8.765 0 .966-.31 1.213-1.229 1.124a18 18 0 00-2.722 0c-.839.06-1.062-.19-1.053-.99-.051-4.276-.051-8.54-.051-12.807z" fill="#292425"/><path d="M13.238 15.64a9.813 9.813 0 003.247 5.791c1.917 1.787 3.775 3.637 5.688 5.424.726.662.726 1.12 0 1.782-2.043 1.903-3.998 3.888-6.045 5.783-2.693 2.502-3.432 5.613-2.714 8.955.646 3.027 2.676 5.254 5.697 6.398 4.04 1.54 7.648.76 10.735-2.19.768-.732 1.544-1.451 2.312-2.179a.9.9 0 01.284-.247.935.935 0 011.075.118 10.115 10.115 0 002.416 1.366c.491.161.508.509.151.852-2.873 2.805-5.533 5.88-9.842 6.798-5.26 1.115-11.163-.404-14.683-5.08a12.955 12.955 0 01-2.735-7.844c-.05-3.969 1.498-7.274 4.363-10.055.953-.921 1.888-1.859 2.895-2.72.742-.63.663-1.042-.025-1.677-1.368-1.252-2.79-2.473-3.738-4.093-1.175-2.021-1.418-4.013-.218-6.062a2.227 2.227 0 011.136-1.12z" fill="#FDB604"/><path d="M42.847 46.645c-4.833.093-8.39-1.863-11.394-4.91-.709-.715-1.477-1.378-2.135-2.134-.596-.679-1.032-.554-1.586.028a22.715 22.715 0 01-3.734 3.367c-2.425 1.616-5.18 1.685-7.409.222-.272-.182-.587-.36-.52-.655.067-.295.474-.174.73-.23a9.6 9.6 0 004.736-2.542c2.056-1.988 4.129-3.96 6.15-5.981.617-.614 1.016-.627 1.679 0 2.328 2.275 4.539 4.684 7.131 6.692a9.81 9.81 0 004.167 1.913c1.529.303 3.112.245 4.612-.17a9.744 9.744 0 004.002-2.214 9.261 9.261 0 002.477-3.752c1.288-3.512.47-6.805-2.227-9.57-.84-.848-1.712-1.652-2.568-2.477-.42-.404-.558-.808-.071-1.342a9.564 9.564 0 001.258-1.996c.307-.598.588-.849 1.154-.263 1.82 1.88 4.02 3.46 5.328 5.739 1.544 2.687 2.303 5.52 1.779 8.689-.936 5.633-4.304 9.17-9.716 11.073a9.486 9.486 0 01-3.843.513z" fill="#292425"/><path d="M34.239 4.951c-2.497.158-4.825.849-6.68 2.667-.838.833-1.732 1.617-2.57 2.457-.492.49-.878.59-1.503.118-.72-.5-1.49-.93-2.299-1.285-.49-.239-.675-.433-.218-.87 1.808-1.713 3.423-3.636 5.575-4.99A13.532 13.532 0 0132.96.958C39.085.554 43.628 2.914 46.64 8.01a11.714 11.714 0 011.536 4.959c.461 4.882-1.43 8.774-5.085 12.015-.81.719-1.548 1.515-2.353 2.234-.42.405-.453.643 0 1.043.81.724 1.573 1.495 2.337 2.263 1.749 1.758 2.882 3.738 2.596 6.292a6.148 6.148 0 01-1.14 2.66c-.106.157-.185.404-.454.34-.268-.066-.273-.284-.319-.478a10.56 10.56 0 00-.839-2.368c-1.036-2.02-2.873-3.33-4.438-4.886a100.99 100.99 0 00-3.776-3.572c-.608-.542-.591-.922 0-1.467 2.052-1.916 4.061-3.868 6.083-5.808 4.594-4.409 4.229-10.798-.914-14.548-1.603-1.172-3.545-1.649-5.634-1.738z" fill="#FDB604"/><path d="M.622 22.951c-.1-6.729 3.919-11.898 9.855-13.554 5.39-1.504 10.257-.247 14.31 3.584 1.057.998 2.13 1.976 3.13 3.023.49.513.805.428 1.258 0 1.158-1.091 2.223-2.283 3.54-3.233 2.681-1.9 5.66-2.053 7.934-.404.184.133.474.218.42.51 0 .088-.198.185-.316.201-2.764.404-4.694 2.057-6.519 3.924-1.548 1.584-3.234 3.047-4.77 4.644-.734.76-1.174.586-1.825-.053-2.005-1.976-4.081-3.884-6.087-5.86a9.777 9.777 0 00-3.985-2.396 10.069 10.069 0 00-4.686-.316 9.899 9.899 0 00-4.292 1.84 9.42 9.42 0 00-2.895 3.564c-1.652 3.398-1.082 7.197 1.817 10.212a47.094 47.094 0 002.643 2.566c.482.437.612.736.15 1.31a15.605 15.605 0 00-1.409 2.315c-.243.445-.47.542-.839.17-2.613-2.526-5.562-4.789-6.737-8.398a13.46 13.46 0 01-.697-3.649zm238.983 4.833c0-4.263.025-8.527 0-12.79 0-.861.268-1.108 1.124-1.047.941.073 1.887.073 2.828 0 .91-.077 1.086.279 1.082 1.083-.029 6.87 0 13.7 0 20.55 0 1.532 0 1.532 1.552 1.532 4.158 0 8.311.02 12.464 0 .805 0 1.137.177 1.07 1.002a20.857 20.857 0 000 2.716c.029.585-.202.73-.781.73-6.145 0-12.291-.023-18.437 0-.839 0-.869-.359-.869-.973-.025-4.272-.033-8.535-.033-12.803zm-113.371-.004c.089-5.694 2.56-10.075 7.85-12.807 2.668-1.374 5.52-1.616 8.549-1.277a13.5 13.5 0 015.429 1.714 12.97 12.97 0 014.162 3.77c5.076 6.87 3.184 17.301-5.303 21.488a14.221 14.221 0 01-8.911 1.16c-5.361-.974-9.074-3.99-10.953-9.025a13.825 13.825 0 01-.823-5.023zm14.403 12.233a10.522 10.522 0 006.095-1.54c3.461-2.02 5.32-5.035 5.836-8.89a12.339 12.339 0 00-2.081-8.996c-2.245-3.233-5.362-4.914-9.406-5.092-3.125-.138-5.953.618-8.264 2.63-3.654 3.185-4.904 7.21-4.166 11.874.86 5.37 5.538 10.204 11.986 10.014zm-18.749 1.317c-1.904.47-3.054.15-4.086-1.244-2.383-3.233-4.971-6.296-7.463-9.436a1.362 1.362 0 00-.536-.441 1.414 1.414 0 00-.693-.125c-2.551.024-5.097.032-7.648 0-.738 0-.944.226-.935.921.033 3.233 0 6.466.037 9.67 0 .87-.419.89-1.065.874-.646-.016-1.091.048-1.087-.849.04-8.621.04-17.253 0-25.896 0-.659.189-.857.881-.853 4.12.036 8.248-.105 12.359.077 3.272.145 6.293 1.212 8.03 4.134 2.097 3.528 1.179 8.745-3.931 10.713-.798.33-1.627.585-2.475.76-.839.15-.776.344-.319.905 2.735 3.37 5.454 6.773 8.159 10.152.177.202.223.505.772.639zm-21.324-19.272c0 1.71.046 3.423-.021 5.132-.033.808.269 1.035 1.066 1.023 2.999-.033 5.999 0 9.003 0a10.488 10.488 0 004.258-.849 5.962 5.962 0 003.178-3.016 5.644 5.644 0 00.178-4.295c-.948-2.732-3.755-3.908-6.377-4.04-3.477-.17-6.972-.041-10.462-.07-.626 0-.84.162-.84.809.017 1.745.017 3.528.017 5.306zm71.016 19.895c-4.165.073-8.212-1.331-11.373-3.944-.738-.59-.197-.894.109-1.282.306-.387.646-.917 1.313-.33 1.498 1.305 3.155 2.424 5.11 2.945 3.322.885 6.658 1.261 9.708-.86 1.61-1.116 2.168-2.7 2.03-4.56-.143-1.947-1.397-3.078-3.113-3.834-1.783-.78-3.7-1.14-5.6-1.544-2.207-.469-4.351-1.083-6.255-2.324-3.558-2.32-3.667-7.545-.453-10.248 2.911-2.453 6.347-2.78 10.034-2.138a16.244 16.244 0 016.041 2.542c.508.323.785.699.252 1.143-.419.352-.566 1.362-1.569.582a12.14 12.14 0 00-4.416-2.21 12.413 12.413 0 00-4.968-.291c-3.013.404-5.874 2.235-5.379 6.033.269 2.053 1.775 3.02 3.516 3.763 1.904.808 3.96 1.123 5.974 1.588 1.718.39 3.374.998 4.925 1.81 4.468 2.348 4.048 8.778.247 11.26-2.055 1.345-4.304 1.972-6.133 1.899zm25.893.004c-4.065.03-8.004-1.354-11.092-3.9-.554-.444-.542-.776-.059-1.212.419-.376.65-1.136 1.447-.429a12.722 12.722 0 005.11 2.938c3.356.898 6.712 1.213 9.791-.937 2.547-1.786 3.059-6.713-1.258-8.374-2.316-.889-4.757-1.236-7.132-1.875-1.976-.537-3.914-1.164-5.42-2.586-2.874-2.72-2.576-7.561.638-9.901 2.936-2.126 6.213-2.482 9.741-1.84a15.138 15.138 0 015.936 2.523c.445.303.94.63.361 1.127-.42.364-.571 1.423-1.645.586a11.972 11.972 0 00-4.376-2.191 12.245 12.245 0 00-4.924-.278c-3.285.424-6.121 2.49-5.349 6.385.365 1.843 1.812 2.76 3.423 3.387a36.1 36.1 0 006.209 1.673 12.563 12.563 0 015.818 2.534c3.327 2.78 2.715 8.248-1.216 10.721a11.107 11.107 0 01-6.003 1.649zm-116.153.008c-6.2.247-11.364-3.746-13.298-8.487-2.446-6.021-.747-13.295 4.657-17.215 3.692-2.664 7.786-3.262 12.237-2.377 2.702.538 4.892 1.896 6.956 3.557.554.444.382.662 0 1.087-.663.74-1.15.88-1.993.121-3.109-2.829-6.93-3.742-11.008-3.007-4.317.78-7.337 3.359-8.785 7.368-1.77 4.914-1.082 9.529 2.593 13.485a11.003 11.003 0 003.491 2.51c1.326.604 2.763.948 4.228 1.01 3.834.267 7.04-.982 9.834-3.403.872-.76 1.413-.707 2.013.255.189.295.113.505-.172.764-2.06 1.863-4.333 3.301-7.132 3.96-1.19.24-2.403.365-3.62.372z" fill="#292425"/></g><defs><clipPath id="clip0_698_4391"><path fill="#fff" transform="translate(.623 .914)" d="M0 0h336.755v60.603H0z"/></clipPath></defs></svg>