<svg width="62" height="62" fill="none" xmlns="http://www.w3.org/2000/svg"><g clip-path="url(#clip0_807_9648)" fill="#031C77"><path d="M30.843 26.493h-.15a10.354 10.354 0 01-4.948-1.336 10.788 10.788 0 01-3.775-3.572 11.278 11.278 0 01-1.732-4.983 11.387 11.387 0 01.713-5.245c.922-2.38 2.615-4.353 4.79-5.581a10.337 10.337 0 017.123-1.147c2.43.486 4.623 1.834 6.199 3.812a11.287 11.287 0 012.439 7.028v.056c-.016 2.917-1.146 5.71-3.144 7.766-1.997 2.056-4.7 3.21-7.515 3.208v-.006zm0-19.626a8.119 8.119 0 00-4.654 1.474 8.568 8.568 0 00-3.062 3.917 8.87 8.87 0 00-.558 4.09 8.786 8.786 0 001.35 3.887 8.408 8.408 0 002.944 2.785 8.065 8.065 0 003.86 1.038 8.515 8.515 0 003.22-.62 8.349 8.349 0 003.785-3.16 8.802 8.802 0 001.424-4.815v-.05c-.008-2.277-.887-4.458-2.445-6.065-1.557-1.606-3.666-2.508-5.864-2.506v.025zM43.23 57.528H18.456a3.994 3.994 0 01-2.87-1.23 4.288 4.288 0 01-1.195-2.969V38.68c.005-2.99 1.155-5.857 3.197-7.97 2.042-2.114 4.81-3.301 7.697-3.303h11.109c2.886.002 5.654 1.19 7.697 3.303 2.042 2.113 3.191 4.98 3.196 7.97v14.65a4.33 4.33 0 01-.309 1.608c-.204.51-.503.973-.88 1.363s-.824.7-1.317.91a3.93 3.93 0 01-1.553.318zM25.285 29.822c-2.264 0-4.435.93-6.037 2.588-1.602 1.657-2.503 3.905-2.507 6.25v14.65c.001.233.046.463.133.678.086.214.213.409.372.572a1.673 1.673 0 001.21.515h24.772a1.7 1.7 0 001.2-.516 1.8 1.8 0 00.498-1.242V38.666c-.006-2.345-.908-4.591-2.51-6.248-1.6-1.657-3.771-2.588-6.034-2.59l-11.097-.006z"/><path d="M35.048 41.852c-.318 0-.623-.13-.848-.364a1.265 1.265 0 01-.351-.878v-4.968a.996.996 0 00-.264 0h-5.54a.996.996 0 00-.263 0v4.968a1.25 1.25 0 01-.417.715 1.18 1.18 0 01-.758.28c-.277 0-.545-.1-.76-.28a1.25 1.25 0 01-.416-.715v-5.341c0-1.186 1.121-2.075 2.614-2.075h5.54c1.487 0 2.614.889 2.614 2.075v5.341c0 .321-.12.63-.334.861a1.18 1.18 0 01-.817.381z"/><path fill-rule="evenodd" clip-rule="evenodd" d="M37.635 40.635H24.044a2.758 2.758 0 00-1.978.85 2.96 2.96 0 00-.822 2.05v10.974c.002.77.297 1.507.821 2.051a2.764 2.764 0 001.979.856h13.59a2.77 2.77 0 001.981-.855 2.973 2.973 0 00.826-2.052V43.535a2.966 2.966 0 00-.826-2.05 2.764 2.764 0 00-1.98-.85zm-6.061 9.316v2.117a.77.77 0 01-.215.536.719.719 0 01-.517.222.72.72 0 01-.517-.222.772.772 0 01-.214-.535V49.95a2.412 2.412 0 01-1.31-1.06 2.559 2.559 0 01-.328-1.689 2.508 2.508 0 01.81-1.504 2.35 2.35 0 011.56-.597 2.35 2.35 0 011.559.597c.434.386.721.919.81 1.504a2.56 2.56 0 01-.329 1.688c-.3.505-.765.88-1.31 1.061z"/></g><defs><clipPath id="clip0_807_9648"><path fill="#fff" d="M0 0h62v62H0z"/></clipPath></defs></svg>