<svg width="57" height="57" viewBox="0 0 57 57" fill="none" xmlns="http://www.w3.org/2000/svg">
<path d="M42.3923 23.3306C41.6026 21.3563 40.418 19.5975 38.9103 18.0898C37.4026 16.5821 35.6436 15.4334 33.6693 14.6078C32.7002 14.2129 31.695 13.926 30.6897 13.7104C30.3309 13.6387 29.9717 13.8898 29.9001 14.249C29.8284 14.6078 30.0795 14.967 30.4386 15.0386C31.3719 15.2181 32.3052 15.4694 33.1668 15.8283C34.9617 16.5463 36.5768 17.6232 37.9408 19.023C39.3049 20.3871 40.3817 22.0026 41.1355 23.7971C41.4944 24.6945 41.7816 25.592 41.9252 26.5252C41.9969 26.8482 42.2482 27.0638 42.5713 27.0638H42.679C43.0379 26.9921 43.2893 26.633 43.2176 26.2741C43.074 25.3047 42.7871 24.2998 42.3921 23.3304L42.3923 23.3306Z" fill="white" fill-opacity="0.7"/>
<path d="M37.0076 25.4848C37.2948 26.2028 37.5101 26.9204 37.6178 27.6743C37.6537 27.9974 37.9409 28.2487 38.2639 28.2487H38.3717C38.7305 28.1771 38.9819 27.8538 38.9103 27.4949C38.7667 26.6333 38.5514 25.8078 38.2284 24.982C37.654 23.5821 36.8285 22.2897 35.7516 21.2128C34.6747 20.136 33.4185 19.2744 31.9824 18.7361C31.1927 18.413 30.3311 18.1617 29.5056 18.0542C29.1468 17.9825 28.7876 18.2336 28.7518 18.5928C28.716 18.9516 28.9312 19.3108 29.2904 19.3466C30.0442 19.4544 30.7981 19.6696 31.48 19.9568C32.7362 20.4593 33.8492 21.2131 34.7825 22.1464C35.7155 23.0799 36.5051 24.2643 37.0075 25.4848L37.0076 25.4848Z" fill="white" fill-opacity="0.7"/>
<path d="M27.567 23.0077C27.5312 23.3665 27.8184 23.6896 28.1772 23.7257C29.5054 23.8335 30.7259 24.4076 31.6592 25.3411C32.5924 26.2743 33.1669 27.4948 33.2746 28.8231C33.3105 29.182 33.5977 29.4333 33.9565 29.4333H34.0282C34.387 29.3975 34.6742 29.0745 34.6384 28.7153C34.4948 27.0999 33.8129 25.5564 32.6282 24.4079C31.4794 23.2591 29.9359 22.5414 28.3208 22.3977C27.9261 22.3616 27.6028 22.613 27.567 23.0077L27.567 23.0077Z" fill="white" fill-opacity="0.7"/>
<path d="M42.033 35.3567C41.5305 34.9617 40.9203 34.6748 40.3817 34.4592C38.6227 33.7412 36.8281 33.2746 35.2843 32.9158C34.7457 32.808 33.9919 32.5927 33.2384 32.8799C32.664 33.0952 32.3051 33.526 31.9821 33.9209C31.8743 34.0645 31.7307 34.2081 31.6232 34.3517C31.336 34.639 30.5464 34.4953 29.5773 33.9568C28.4646 33.3824 27.1364 32.3414 25.8801 31.085C24.6596 29.8645 23.5827 28.5005 23.0084 27.3878C22.4698 26.4187 22.3265 25.6288 22.6134 25.3419C22.7212 25.2341 22.8648 25.1266 23.0442 24.983C23.4392 24.66 23.8697 24.3011 24.0852 23.7268C24.3724 22.9729 24.193 22.1833 24.0494 21.6808C23.6905 20.1373 23.2238 18.3425 22.5059 16.5834C22.2906 16.009 22.0034 15.4346 21.6084 14.9322C21.106 14.3219 20.4957 13.8912 19.8135 13.7834C18.8803 13.6039 17.8392 13.9628 16.7982 14.8602C16.0086 15.5421 15.3264 16.3679 14.8239 17.337C14.3215 18.2702 13.9623 19.2755 13.8187 20.3523C13.4598 22.7932 14.0701 25.4856 15.7214 28.6082C17.1213 31.3006 18.9161 33.7773 21.0698 35.931C23.2235 38.0488 25.7006 39.8437 28.3926 41.2794C30.9413 42.6076 33.2028 43.2896 35.2846 43.2896C35.7512 43.2896 36.2178 43.2538 36.6486 43.1818C37.6896 43.0382 38.6946 42.6793 39.664 42.1766C40.5972 41.6741 41.423 40.9919 42.1407 40.2023C43.0382 39.197 43.397 38.1563 43.2176 37.187C43.0737 36.5051 42.6432 35.859 42.0329 35.3566L42.033 35.3567Z" fill="white" fill-opacity="0.7"/>
</svg>
