<svg width="34" height="34" fill="none" xmlns="http://www.w3.org/2000/svg"><g clip-path="url(#clip0_2114_21407)" fill="#fff"><path d="M17.117 27.316c-1.236 0-2.471.002-3.707 0-.746 0-1.115-.36-1.12-1.097-.01-1.404-.485-2.594-1.469-3.626-4.43-4.64-2.54-12.675 4.098-14.369 3.157-.804 6.014-.053 8.34 2.246 2.066 2.044 2.86 4.584 2.451 7.474-.245 1.728-.951 3.256-2.155 4.515-1.057 1.107-1.621 2.37-1.603 3.903.006.582-.417.95-1.032.953-1.268.005-2.535.001-3.803.001zm.97-14.56c-.002-.54-.432-.952-1-.961-2.123-.034-4.1 1.48-4.63 3.545a.96.96 0 00.63 1.15c.512.167 1.021-.08 1.207-.614.168-.481.371-.936.74-1.3.572-.563 1.27-.815 2.06-.852.596-.028.996-.43.994-.969zm-4.813 16.497h7.667c.342 1.967-.669 3.66-2.64 3.833-.778.069-1.57.065-2.349 0-1.503-.125-2.516-1.155-2.671-2.654-.039-.38-.007-.766-.007-1.178v-.001zm2.885-26.207c0-.622-.004-1.242 0-1.864.006-.62.414-1.053.977-1.046.55.006.953.433.956 1.036a460.89 460.89 0 010 3.792c-.003.6-.41 1.026-.961 1.03-.551.003-.965-.423-.97-1.02-.009-.642-.002-1.286-.002-1.928zM3.552 17.59c-.622 0-1.243.003-1.866 0-.626-.006-1.058-.402-1.061-.963-.003-.562.431-.967 1.055-.968 1.253-.004 2.508-.006 3.762 0 .62.002 1.052.415 1.046.977-.008.55-.435.947-1.038.954-.633.005-1.265 0-1.898 0zm27.14-1.934c.622 0 1.243-.002 1.865 0 .63.004 1.063.395 1.068.956.007.574-.432.975-1.08.977-1.232.002-2.465.002-3.697 0-.65-.002-1.088-.399-1.084-.972.004-.572.44-.957 1.096-.96.61-.003 1.221 0 1.833 0h-.001zM9.9 8.312c-.04.516-.215.82-.583.987-.367.165-.724.12-1.02-.148-.358-.325-.692-.675-1.034-1.015-.578-.576-1.157-1.15-1.731-1.731-.288-.292-.392-.643-.25-1.035.13-.364.403-.62.785-.615.268.004.602.088.787.263a89.52 89.52 0 012.76 2.751c.16.165.225.422.287.545l-.002-.002zM29.044 5.81c-.074.136-.155.407-.33.588-.88.91-1.78 1.803-2.685 2.689-.42.411-1 .401-1.384.012-.374-.38-.386-.952.012-1.359.9-.92 1.814-1.83 2.733-2.733.302-.296.676-.365 1.072-.188.369.165.54.47.582.992z"/></g><defs><clipPath id="clip0_2114_21407"><path fill="#fff" transform="translate(.625 .136)" d="M0 0h33v33H0z"/></clipPath></defs></svg>