<svg width="14" height="14" fill="none" xmlns="http://www.w3.org/2000/svg"><path d="M3.111 0A3.111 3.111 0 000 3.111v.278a.5.5 0 00.5.5h5.222a.5.5 0 00.5-.5V.5a.5.5 0 00-.5-.5h-2.61zm5.167 0a.5.5 0 00-.5.5v7.556a.5.5 0 00.5.5H13.5a.5.5 0 00.5-.5V3.11A3.111 3.111 0 0010.889 0H8.278zM.5 5.444a.5.5 0 00-.5.5v4.945A3.111 3.111 0 003.111 14h2.611a.5.5 0 00.5-.5V5.944a.5.5 0 00-.5-.5H.5zm7.778 4.667a.5.5 0 00-.5.5V13.5a.5.5 0 00.5.5h2.61A3.111 3.111 0 0014 10.889v-.278a.5.5 0 00-.5-.5H8.278z" fill="#fff"/></svg>