<svg width="74" height="74" fill="none" xmlns="http://www.w3.org/2000/svg"><path d="M23.695 58.78c.347-.485.923-.738 1.41-1.05.287-.19.572-.37.853-.557.172-.115.35-.233.53-.346-.167.081-.338.156-.5.233a28.87 28.87 0 01-.996.433c-.4.16-.825.262-1.247.371a1.217 1.217 0 01-1.263-.428c-.29-.38-.348-.932-.095-1.348.135-.22.257-.434.418-.637.154-.2.351-.354.535-.516.392-.352.862-.624 1.301-.909.05-.037.1-.074.154-.105a1.18 1.18 0 01.543-.654c.757-.421 1.51-.848 2.27-1.279l3.857-2.654c1.188-.83 2.38-1.652 3.566-2.471a94.918 94.918 0 012.855-1.887 473.03 473.03 0 002.79-1.793c.882-.564 1.816-1.064 2.734-1.563a56.277 56.277 0 013.738-1.856c.807-.363 1.617-.72 2.442-1.022l.106-.037c1-.784 1.997-1.573 2.99-2.369a66.65 66.65 0 00-2.087-1.14c-1.545-.82-3.094-1.646-4.642-2.472-.96-.508-1.934-.985-2.904-1.47-1.34-.67-2.688-1.342-4.023-2.005-1.28-.608-2.574-1.185-3.853-1.778-.988-.46-1.97-.94-2.972-1.367-1.583-.68-3.165-1.36-4.752-2.044-1.068-.462-2.14-.889-3.219-1.328-.785-.315-1.568-.64-2.353-.956-1.154-.459-2.314-.899-3.437-1.415-.605-.277-.925-.956-.66-1.585.266-.637.966-.883 1.585-.662.824.286 1.648.586 2.464.9a5.756 5.756 0 01-.343-.333c-.341-.358-.46-.867-.272-1.325.201-.489.753-.84 1.285-.742.408.074.795.152 1.193.278.38.122.758.268 1.134.424l.993.4c.849.343 1.691.689 2.536 1.025 1.243.503 2.46 1.045 3.687 1.573 1.181.507 2.352 1.036 3.532 1.568 1.157.52 2.298 1.066 3.439 1.612 1.055.508 2.12 1.02 3.174 1.552 1.454.745 2.911 1.482 4.365 2.227 1.185.608 2.345 1.27 3.522 1.906.986.54 1.97 1.074 2.945 1.637.94.543 1.875 1.089 2.815 1.632.37.214.737.423 1.115.624.417.227.843.457 1.238.728.212.147.442.3.623.488.164.175.31.36.451.548.33.436.34 1.041.011 1.476a1.16 1.16 0 01-.834.466l.095.056c.071-.001.148-.006.225.005.663.061 1.303.317 1.946.47.125.022.24.043.361.06.043.007.09.004.133.01.55.032 1.025.36 1.169.911.056.221.046.465-.03.691l.056.055c.242.256.411.508.46.867.12.962-.96 1.704-1.809 1.211-.296-.17-.59-.348-.886-.518-.03.017-.062.044-.092.06-1.654 1.122-3.191 2.406-4.755 3.657-1.067.846-2.16 1.66-3.238 2.488a52.553 52.553 0 01-7.507 4.747c-.962.507-1.939 1-2.931 1.454l-2.485 1.126c-2.159.977-4.336 1.908-6.473 2.92-2.528 1.19-5.042 2.404-7.56 3.612-.484.232-1.103.027-1.426-.381-.033-.044-.067-.088-.094-.136a1.296 1.296 0 01.094-1.362zM48.11 46.009c-.922.438-1.84.881-2.759 1.34-.839.54-1.681 1.074-2.526 1.617l-.042.024c-1.252.842-2.514 1.681-3.77 2.517.07-.032.138-.064.21-.09.67-.298 1.329-.6 1.994-.905a87.462 87.462 0 003.581-1.853 51.72 51.72 0 003.514-2.164c.6-.402 1.205-.799 1.776-1.24.191-.15.386-.293.577-.443-.857.4-1.707.795-2.555 1.197zM32.693 23.222c-2.423-1.09-4.882-2.103-7.349-3.104a23.92 23.92 0 00-.498-.204c-.015.016-.023.03-.044.049a1.646 1.646 0 01-.143.122c1.027.406 2.055.811 3.089 1.213 1.317.508 2.62 1.047 3.929 1.567l1.826.73c-.263-.126-.541-.25-.81-.373zm23.39 14.997a1.42 1.42 0 01-.137.904 2.85 2.85 0 01-.178.269 1.232 1.232 0 01.852.76c.406-.313.815-.621 1.232-.917-.593-.34-1.186-.679-1.77-1.016z" fill="#000"/></svg>