<svg width="37" height="74" fill="none" xmlns="http://www.w3.org/2000/svg"><path d="M11.623 12.84c.978.602 1.503 2.239 2.035 3.212.69 1.261 1.446 2.485 2.194 3.71 1.716 2.807 3.306 5.726 5.067 8.505 2.01 3.17 4.77 5.45 7.205 8.189.837.941 1.65 1.864 2.545 2.76.653.653 1.108 1.31 1.108.09 0-.216-.22-1.221-.407-1.221-.42 0-.809.617-1.108.859-.976.786-1.762 1.74-2.771 2.51-4.957 3.783-9.692 7.532-13.222 12.759-1.233 1.826-5.709 6.704-4.15 5.146 2.424-2.425 5.408-4.604 8.04-6.888a87.976 87.976 0 019.547-7.182c1.547-1.011 5.377-3.267 5.293-5.53-.038-1.021-1.487-2.187-2.081-2.941-1.304-1.654-2.627-3.277-3.778-5.045-2.373-3.642-4.723-7.306-7.182-10.891-2.604-3.798-4.414-7.915-6.413-12.023-.31-.637-.354-1.259-.86-1.764-.061-.062.045 1.112.16 1.368 2.19 4.929 4.597 9.65 7.78 13.99 2.834 3.865 5.645 7.769 8.178 11.843.118.19 1.454 2.056 1.221 2.16-1.724.766-2.939 3.207-4.06 4.637-3.199 4.078-6.417 8.053-9.455 12.249-2.158 2.979-4.02 6.45-6.628 9.06-.584.583-.07-.371.113-.6.428-.536.775-1.062 1.267-1.572 3.293-3.42 7.256-6.058 10.62-9.422a58.435 58.435 0 004.083-4.569c.837-1.036 2.172-2.129 2.805-3.269.609-1.096.428-.616-.611.046-2.024 1.287-4.148 2.56-6.062 4.026-2.772 2.123-5.49 4.21-8.12 6.503-2.137 1.862-3.708 4.257-5.61 6.323-.803.87-1.569 2.091-2.24 3.099-.524.786-1.015 1.6-1.527 2.397-.395.614-.629 1.562-1.221 2.036-.194.155-.253.273-.317.498-.037.13-.195-.112.215-.34 1.98-1.1 4.166-2.284 5.7-4.037.897-1.026 1.752-2.05 2.658-3.077 1.809-2.05 3.349-4.518 5.395-6.344 1.94-1.732 3.72-3.636 5.79-5.226 1.395-1.07 2.84-2.228 4.084-3.472.533-.533 1.617-1.517 1.617-2.341 0-3.052-1.738-5.45-3.1-8.12-2.28-4.478-4.767-9.12-7.486-13.347-1.89-2.937-3.613-6.04-5.814-8.765-.863-1.069-1.678-2.39-2.635-3.348-.307-.306-1.099-1.578-1.12-1.934-.053-.91.304-.524.566 0 .47.94 1.388 1.872 2.092 2.647 3.093 3.402 5.039 7.904 7.374 11.83 1.557 2.617 3.066 5.262 4.615 7.883 2.085 3.529 4.444 6.751 6.322 10.417" stroke="#000" stroke-width="2.588" stroke-linecap="round"/></svg>