<svg width="57" height="57" fill="none" xmlns="http://www.w3.org/2000/svg"><path d="M42.392 23.33a15.573 15.573 0 00-3.482-5.24c-1.507-1.508-3.266-2.657-5.24-3.482a17.757 17.757 0 00-2.98-.898.685.685 0 00-.79.539.685.685 0 00.539.79c.933.18 1.866.43 2.728.79a13.793 13.793 0 014.774 3.194 14.873 14.873 0 013.194 4.774c.36.898.647 1.795.79 2.728.072.323.323.539.646.539h.108a.686.686 0 00.539-.79c-.144-.97-.43-1.974-.826-2.944zm-5.384 2.155a9.48 9.48 0 01.61 2.19.657.657 0 00.646.574h.108c.358-.072.61-.395.538-.754a12.416 12.416 0 00-.682-2.513c-.574-1.4-1.4-2.692-2.476-3.77-1.077-1.076-2.334-1.938-3.77-2.476-.79-.323-1.65-.574-2.476-.682-.36-.071-.718.18-.754.539-.036.359.18.718.538.754a9 9 0 012.19.61 9.838 9.838 0 013.302 2.19 10.465 10.465 0 012.226 3.338zm-9.441-2.477c-.036.358.251.682.61.718a5.538 5.538 0 013.482 1.615 5.538 5.538 0 011.616 3.482c.035.359.323.61.681.61h.072c.359-.035.646-.358.61-.718-.143-1.615-.825-3.159-2.01-4.307a7.005 7.005 0 00-4.307-2.01c-.395-.036-.718.215-.754.61z" fill="#fff" fill-opacity=".7"/><path d="M42.033 35.357c-.502-.395-1.113-.682-1.651-.898-1.76-.718-3.554-1.184-5.098-1.543-.538-.108-1.292-.323-2.046-.036-.574.215-.933.646-1.256 1.04-.108.145-.251.288-.359.432-.287.287-1.077.143-2.046-.395-1.112-.575-2.44-1.616-3.697-2.872-1.22-1.22-2.297-2.585-2.872-3.697-.538-.97-.681-1.76-.395-2.046.108-.108.252-.215.431-.359.395-.323.826-.682 1.041-1.256.287-.754.108-1.544-.036-2.046-.358-1.544-.825-3.338-1.543-5.098-.215-.574-.503-1.148-.898-1.65-.502-.611-1.112-1.042-1.794-1.15-.934-.18-1.975.18-3.016 1.077a8.362 8.362 0 00-1.974 2.477c-.502.933-.862 1.939-1.005 3.015-.36 2.441.251 5.134 1.902 8.256a29.76 29.76 0 005.349 7.323 31.729 31.729 0 007.323 5.348c2.548 1.329 4.81 2.01 6.892 2.01.466 0 .933-.035 1.364-.107 1.04-.144 2.046-.503 3.015-1.005.933-.503 1.759-1.185 2.477-1.975.897-1.005 1.256-2.046 1.077-3.015-.144-.682-.575-1.328-1.185-1.83z" fill="#fff" fill-opacity=".7"/></svg>