<svg width="65" height="76" fill="none" xmlns="http://www.w3.org/2000/svg"><g clip-path="url(#clip0_2293_22024)" fill="#DEDEDE"><path d="M45.906 43.129c-4.786 1.796-8.067 6.664-7.867 11.775.16 4.097 2.704 7.263 6.11 8.877.213.182.407.38.638.552 2.677 1.93 6.106 1.348 8.876.01 6.082-2.933 8.755-11.383 4.414-16.808-2.95-3.69-7.427-6.192-12.177-4.408l.006.002zm-26.747-3.411c5.393 1.903 11.554 1.624 16.106-2.1 5.402-4.423 6.708-13.089 4.263-19.34C36.673 10.975 28.711 6.707 21.047 7.47c-8.086.8-14.282 7.925-15.003 15.866-.459 5.063 1.851 9.043 5.366 11.575a21.127 21.127 0 007.75 4.802l-.001.005z"/></g><defs><clipPath id="clip0_2293_22024"><path fill="#fff" transform="rotate(-31.278 32.951 9.025)" d="M0 0h34.514v67.112H0z"/></clipPath></defs></svg>