<svg width="108" height="39" fill="none" xmlns="http://www.w3.org/2000/svg"><path d="M50.001 10.604l-2.619-3.79v3.79h-1.87v-8.19h1.87v3.559l2.504-3.56h2.127l-2.76 3.99 2.876 4.2H50zm5.589-2.691h-.888v2.69h-1.87v-8.19h3.272a2.797 2.797 0 012.808 2.81 2.692 2.692 0 01-1.51 2.375l1.74 3.006H57.13l-1.54-2.69zm-.888-1.637h1.402a.99.99 0 00.937-1.053.991.991 0 00-.937-1.053h-1.401v2.106zm4.851.234a4.26 4.26 0 014.255-4.258 4.254 4.254 0 014.255 4.259 4.26 4.26 0 01-4.255 4.258 4.253 4.253 0 01-4.255-4.258zm6.64 0a2.387 2.387 0 00-3.298-2.204 2.384 2.384 0 00-1.472 2.205 2.387 2.387 0 003.298 2.205 2.384 2.384 0 001.472-2.205zm2.574 0a4.154 4.154 0 012.61-3.964 4.145 4.145 0 011.645-.294 4.08 4.08 0 013.506 1.895l-1.612.938a2.117 2.117 0 00-1.894-1.007c-1.451 0-2.385.972-2.385 2.433 0 1.46.937 2.432 2.385 2.432a2.1 2.1 0 001.894-1.007l1.612.938a4.053 4.053 0 01-3.506 1.887 4.144 4.144 0 01-3.959-2.606 4.154 4.154 0 01-.296-1.644zm13.129 4.094l-2.62-3.79v3.79h-1.87v-8.19h1.87v3.559l2.505-3.56h2.127l-2.761 3.99 2.876 4.2h-2.127zM52.76 19.217a3.97 3.97 0 01-2.436 3.772 3.96 3.96 0 01-1.55.305h-3.276v-8.19h3.276a3.962 3.962 0 013.986 4.113zm-1.8 0c0-1.403-.888-2.306-2.175-2.306h-1.401v4.581h1.39c1.298 0 2.185-.888 2.185-2.275zm4.725-4.113v8.19h-1.87v-8.19h1.87zm9.502 4.328c0 2.506-1.743 4.024-4.032 4.024-2.573 0-4.42-1.895-4.42-4.247a4.251 4.251 0 012.646-3.958 4.242 4.242 0 011.643-.312 4.184 4.184 0 013.58 1.872l-1.59.914a2.458 2.458 0 00-4.41 1.492c0 1.39.984 2.41 2.574 2.41 1.087 0 1.8-.481 2.093-1.265h-2.185v-1.63h4.105l-.004.7zm2.922-4.328v8.19h-1.87v-8.19h1.87zm6.902 1.806h-2.104v6.384h-1.86v-6.383h-2.104v-1.807h6.08l-.012 1.807zm5.028 5.097h-3.042l-.41 1.287h-2.044l2.784-8.19h2.385l2.784 8.19H80.45l-.411-1.287zm-.561-1.757l-.96-3.005-.941 3.005h1.9zm8.51 1.242v1.802h-4.797v-8.19h1.87v6.388h2.927zM45.102 34.125l1.613-.938a1.714 1.714 0 001.72 1.153c.887 0 1.11-.35 1.11-.669 0-.503-.468-.703-1.694-1.041-1.225-.338-2.407-.926-2.407-2.49 0-1.565 1.332-2.495 2.745-2.495a3.174 3.174 0 012.992 1.849l-1.578.926a1.433 1.433 0 00-1.413-.95c-.584 0-.876.293-.876.62 0 .326.2.63 1.475 1.018 1.275.388 2.63.807 2.63 2.54 0 1.58-1.263 2.518-3.041 2.518-1.72-.02-2.82-.838-3.276-2.041zm6.839-2.225a4.26 4.26 0 012.627-3.935 4.253 4.253 0 015.802 3.104 4.262 4.262 0 01-1.81 4.371 4.249 4.249 0 01-2.363.718 4.223 4.223 0 01-4.256-4.259zm6.64 0a2.388 2.388 0 00-1.503-2.172 2.383 2.383 0 00-3.223 1.769 2.389 2.389 0 002.342 2.835 2.327 2.327 0 002.385-2.433zm7.719 2.283v1.802h-4.796v-8.194h1.863v6.392H66.3zm.641-.842v-5.55h1.87v5.38c0 .62.293 1.154 1.287 1.154.995 0 1.287-.527 1.287-1.153v-5.38h1.87v5.549c0 1.756-1.356 2.81-3.157 2.81-1.8 0-3.157-1.057-3.157-2.81zm13.154-3.747H77.99v6.391h-1.87v-6.391h-2.104V27.79h6.079v1.803zm2.689-1.803v8.194h-1.87v-8.194h1.87zm1.052 4.109a4.26 4.26 0 012.627-3.935 4.253 4.253 0 015.802 3.104 4.261 4.261 0 01-1.81 4.371c-.7.468-1.522.718-2.364.718a4.223 4.223 0 01-4.255-4.259zm6.64 0a2.388 2.388 0 00-2.878-2.29 2.385 2.385 0 00-1.706 3.26 2.386 2.386 0 002.2 1.462 2.328 2.328 0 002.384-2.433zm9.355-4.109v8.194H98.43l-3.156-4.447v4.447h-1.875v-8.194H94.8l3.157 4.447v-4.447h1.874zm.876 6.334l1.613-.938a1.715 1.715 0 001.721 1.153c.887 0 1.109-.35 1.109-.669 0-.503-.468-.703-1.693-1.041-1.225-.338-2.408-.926-2.408-2.49 0-1.565 1.333-2.495 2.746-2.495a3.177 3.177 0 012.991 1.849l-1.578.926a1.44 1.44 0 00-1.413-.95c-.584 0-.876.293-.876.62 0 .326.2.63 1.475 1.018 1.275.388 2.631.807 2.631 2.54 0 1.58-1.264 2.518-3.042 2.518-1.721-.02-2.823-.838-3.276-2.041zM34.495 0H4.136A4.135 4.135 0 000 4.14v30.38a4.14 4.14 0 004.136 4.14h30.359a4.134 4.134 0 004.136-4.14V4.14A4.14 4.14 0 0034.495 0zM30.57 14.397a2.992 2.992 0 01-.718.096l-3.353 6.465a3.001 3.001 0 011.136 2.763 3.032 3.032 0 01-2.213 2.535 3.025 3.025 0 01-3.712-2.135 2.99 2.99 0 01-.088-.907l-4.106-1.63a3.01 3.01 0 01-3.237.877l-2.712 3.459c.17.254.3.532.384.826a3.039 3.039 0 01-1.43 3.452 3.031 3.031 0 01-4.514-2.35 3.038 3.038 0 012.004-3.153 3.032 3.032 0 011.974-.02l2.711-3.46a2.988 2.988 0 01-.384-.826 3.036 3.036 0 012.132-3.724 3.03 3.03 0 013.721 2.133c.076.296.106.602.088.907l4.09 1.63a2.935 2.935 0 012.201-1.027l3.368-6.472a3.001 3.001 0 01-1.002-3.34 3.029 3.029 0 014.374-1.66 3.027 3.027 0 01.775 4.617 3.026 3.026 0 01-1.49.933v.011z" fill="#fff"/></svg>