<svg width="67" height="69" viewBox="0 0 67 69" fill="none" xmlns="http://www.w3.org/2000/svg">
<g clip-path="url(#clip0_553_710)">
<path d="M24.8913 13.5983C25.8378 11.9474 26.5876 10.2752 27.6494 8.84523C31.8102 3.24535 37.3999 0.465386 44.311 0.960667C51.985 1.51187 57.4304 5.57531 60.6447 12.6317C62.1601 15.9602 62.5167 19.5177 61.9819 23.1498C61.9189 23.5759 62.0081 23.8341 62.3096 24.1271C66.1558 27.8497 67.7315 32.419 66.6827 37.6887C65.558 43.3365 62.1234 47.0991 56.6858 48.8059C55.2543 49.2559 53.6891 49.3624 52.1763 49.4343C50.0448 49.5355 47.9028 49.4663 45.7661 49.4583C44.4525 49.453 43.5454 48.8512 43.2019 47.7994C42.6723 46.1777 43.8181 44.6067 45.5773 44.5907C47.8897 44.5694 50.2021 44.628 52.5119 44.5747C56.6203 44.4815 59.6275 42.5536 61.3684 38.7618C63.1958 34.7809 61.9216 29.8414 58.4739 27.184C58.1619 26.9443 57.8473 26.702 57.5641 26.4277C56.7933 25.6821 56.7724 24.7555 56.9978 23.7836C57.9574 19.595 57.2548 15.7099 54.9371 12.1151C51.9299 7.44726 45.9076 4.85901 40.5172 5.98804C34.8305 7.18097 31.1155 10.6373 29.3169 16.2318C29.1281 16.8177 29.0521 17.4408 28.8869 18.0372C28.3626 19.9172 26.509 20.5003 24.9647 19.342C24.2935 18.8387 23.5594 18.3301 22.7755 18.0798C20.117 17.2304 17.2488 19.1343 16.8372 21.9302C16.8083 22.1273 16.7769 22.3243 16.7585 22.524C16.5881 24.3427 15.7832 25.1096 13.9768 25.1735C9.19462 25.344 5.08889 29.3009 4.82408 33.9981C4.52258 39.3476 7.93091 43.7306 12.9831 44.4682C13.5625 44.5534 14.1551 44.5827 14.7397 44.5854C18.5335 44.596 22.3298 44.5854 26.1236 44.5934C27.7674 44.5987 28.845 45.7783 28.6693 47.3387C28.5566 48.3373 27.8303 49.1654 26.8681 49.3731C26.6348 49.4237 26.3936 49.461 26.155 49.461C21.9234 49.4476 17.6892 49.5408 13.4655 49.3784C6.97396 49.1308 1.42361 44.0981 0.24905 37.6088C-1.13264 29.9772 3.35326 22.7371 10.7625 20.7906C11.8295 20.511 12.3172 20.0849 12.7209 19.0278C14.5352 14.2907 19.7369 11.9021 24.5007 13.4812C24.6658 13.5344 24.831 13.585 24.8913 13.6037V13.5983Z" fill="#ED863C"/>
<path d="M38.2975 60.5383C38.5806 60.272 38.7537 60.1202 38.9162 59.9552C41.2785 57.5613 43.6328 55.1594 46.0003 52.7709C47.0726 51.6898 48.4438 51.6206 49.4506 52.5632C50.3473 53.4047 50.4836 54.76 49.76 55.7586C49.5922 55.9902 49.3903 56.1953 49.191 56.3976C45.4445 60.2055 41.698 64.0133 37.9488 67.8184C36.5225 69.267 35.2641 69.2696 33.8378 67.8184C30.0572 63.9813 26.2844 60.1389 22.4985 56.3098C21.8221 55.6254 21.4262 54.8506 21.6124 53.8707C21.9401 52.1425 23.9353 51.349 25.3458 52.3768C25.5739 52.5446 25.7758 52.7523 25.975 52.9546C28.2744 55.2873 30.5711 57.6225 32.8704 59.9552C33.0355 60.1229 33.2086 60.2827 33.4944 60.5596V59.6676C33.4944 48.3267 33.4944 36.9831 33.4996 25.6423C33.4996 25.2269 33.5232 24.7928 33.6359 24.3961C33.9401 23.3363 34.9495 22.6626 36.0349 22.7345C37.1439 22.8064 38.0274 23.5759 38.2188 24.6757C38.2844 25.0431 38.2949 25.4239 38.2949 25.7994C38.2975 37.0737 38.2975 48.3507 38.2975 59.625C38.2975 59.8806 38.2975 60.1362 38.2975 60.5383Z" fill="#ED863C"/>
</g>
<defs>
<clipPath id="clip0_553_710">
<rect width="67" height="68" fill="white" transform="translate(0 0.904785)"/>
</clipPath>
</defs>
</svg>
