<svg width="16" height="16" viewBox="0 0 16 16" fill="none" xmlns="http://www.w3.org/2000/svg">
<path d="M8.00011 4C7.3048 4.00088 6.63823 4.27748 6.14658 4.76914C5.65492 5.26079 5.37832 5.92736 5.37744 6.62267H6.71077C6.71077 5.91133 7.28944 5.33333 8.00011 5.33333C8.71077 5.33333 9.28944 5.91133 9.28944 6.62267C9.28944 7.02133 8.96878 7.31067 8.47878 7.70667C8.3187 7.83207 8.16496 7.96534 8.01811 8.106C7.35278 8.77067 7.33344 9.47667 7.33344 9.55533V10H8.66677L8.66611 9.578C8.66677 9.56733 8.68811 9.32067 8.96011 9.04933C9.06011 8.94933 9.18611 8.84933 9.31678 8.744C9.83611 8.32333 10.6221 7.688 10.6221 6.62267C10.6216 5.92737 10.3452 5.26069 9.8536 4.76898C9.36201 4.27727 8.6954 4.00071 8.00011 4ZM7.33344 10.6667H8.66677V12H7.33344V10.6667Z" fill="#2285E0"/>
<path d="M8.00016 1.33203C4.32416 1.33203 1.3335 4.3227 1.3335 7.9987C1.3335 11.6747 4.32416 14.6654 8.00016 14.6654C11.6762 14.6654 14.6668 11.6747 14.6668 7.9987C14.6668 4.3227 11.6762 1.33203 8.00016 1.33203ZM8.00016 13.332C5.0595 13.332 2.66683 10.9394 2.66683 7.9987C2.66683 5.05803 5.0595 2.66536 8.00016 2.66536C10.9408 2.66536 13.3335 5.05803 13.3335 7.9987C13.3335 10.9394 10.9408 13.332 8.00016 13.332Z" fill="#2285E0"/>
</svg>
