<svg width="189" height="60" viewBox="0 0 189 60" fill="none" xmlns="http://www.w3.org/2000/svg">
<path d="M6.00026 25.4985C6.39026 25.8885 6.51026 26.4435 6.37526 26.9685C5.81925 29.1306 5.87116 31.4041 6.52526 33.5385C7.84526 37.9035 11.6853 41.1885 16.1853 41.8635C24.4653 43.0785 31.4703 35.7735 29.7303 27.4335C28.7553 22.7385 24.8853 19.0185 20.1753 18.1935C18.4512 17.8869 16.6815 17.9534 14.9853 18.3885C14.4603 18.5235 13.8903 18.3885 13.5153 18.0135C12.6753 17.1735 13.0953 15.7785 14.2203 15.4785C16.4253 14.9085 18.8103 14.8185 21.2703 15.3435C27.2403 16.6335 31.9053 21.6135 32.8203 27.6435C34.3803 37.8585 25.5903 46.5135 15.3603 44.7735C9.34526 43.7385 4.47026 38.9835 3.30026 32.9985C2.83526 30.6135 2.94026 28.3185 3.48026 26.2035C3.78026 25.0785 5.17526 24.6735 6.00026 25.4985ZM10.5003 20.2485C10.5003 21.4935 9.49526 22.4985 8.25026 22.4985C7.00526 22.4985 6.00026 21.4935 6.00026 20.2485C6.00026 19.0035 7.00526 17.9985 8.25026 17.9985C9.49526 17.9985 10.5003 19.0035 10.5003 20.2485ZM18.0453 25.4835H17.9403L16.2003 30.4485H19.7853L18.0453 25.4835ZM18.0003 38.9985C22.9653 38.9985 27.0003 34.9635 27.0003 29.9985C27.0003 25.0335 22.9653 20.9985 18.0003 20.9985C13.0353 20.9985 9.00026 25.0335 9.00026 29.9985C9.00026 34.9635 13.0353 38.9985 18.0003 38.9985ZM12.9153 33.9435L16.5603 24.2535C16.7853 23.6535 17.3553 23.2485 18.0003 23.2485C18.6453 23.2485 19.2303 23.6535 19.4553 24.2535L23.1003 33.9435C23.3403 34.5735 22.8753 35.2485 22.2003 35.2485C21.7953 35.2485 21.4203 34.9935 21.2853 34.6035L20.4453 32.1885H15.6003L14.7453 34.6185C14.6103 35.0085 14.2503 35.2635 13.8303 35.2635C13.6727 35.2626 13.5177 35.2238 13.3783 35.1503C13.239 35.0769 13.1193 34.9709 13.0296 34.8414C12.9398 34.7119 12.8826 34.5627 12.8627 34.4065C12.8428 34.2502 12.8608 34.0914 12.9153 33.9435Z" fill="#2285E0"/>
<path d="M62.037 39.5H58.677L57.561 35.9H51.057L49.965 39.5H46.605L51.885 22.22H56.757L62.037 39.5ZM54.285 25.28L51.981 32.852H56.625L54.285 25.28ZM74.6518 30.416C75.4358 30.744 76.0358 31.256 76.4518 31.952C76.8678 32.64 77.0758 33.412 77.0758 34.268C77.0758 35.316 76.8798 36.232 76.4878 37.016C76.1038 37.8 75.5198 38.412 74.7358 38.852C73.9598 39.284 72.9958 39.5 71.8438 39.5H64.1878V22.22H71.0998C72.2678 22.22 73.2398 22.456 74.0158 22.928C74.7918 23.4 75.3638 24.004 75.7318 24.74C76.0998 25.476 76.2838 26.252 76.2838 27.068C76.2838 27.844 76.1398 28.516 75.8518 29.084C75.5718 29.652 75.1718 30.096 74.6518 30.416ZM67.4998 25.268V28.964H71.0518C71.6358 28.964 72.0998 28.812 72.4438 28.508C72.7958 28.204 72.9718 27.748 72.9718 27.14C72.9718 26.596 72.8038 26.148 72.4678 25.796C72.1318 25.444 71.6598 25.268 71.0518 25.268H67.4998ZM71.5078 36.428C71.9478 36.428 72.3398 36.336 72.6838 36.152C73.0278 35.96 73.2958 35.692 73.4878 35.348C73.6878 35.004 73.7878 34.604 73.7878 34.148C73.7878 33.508 73.5918 32.992 73.1998 32.6C72.8078 32.208 72.2438 32.012 71.5078 32.012H67.4998V36.428H71.5078ZM86.2723 39.5H83.0083V25.268H77.5603V22.22H91.7203V25.268H86.2723V39.5ZM101.065 39.86C99.3608 39.86 97.8768 39.488 96.6128 38.744C95.3488 37.992 94.3768 36.936 93.6968 35.576C93.0248 34.216 92.6888 32.644 92.6888 30.86C92.6888 29.076 93.0248 27.504 93.6968 26.144C94.3768 24.784 95.3488 23.732 96.6128 22.988C97.8768 22.236 99.3608 21.86 101.065 21.86C102.769 21.86 104.253 22.236 105.517 22.988C106.781 23.732 107.749 24.784 108.421 26.144C109.101 27.504 109.441 29.076 109.441 30.86C109.441 32.644 109.101 34.216 108.421 35.576C107.749 36.936 106.781 37.992 105.517 38.744C104.253 39.488 102.769 39.86 101.065 39.86ZM101.161 36.788C102.217 36.788 103.105 36.544 103.825 36.056C104.545 35.568 105.085 34.88 105.445 33.992C105.805 33.104 105.985 32.06 105.985 30.86C105.985 29.004 105.561 27.552 104.713 26.504C103.865 25.456 102.617 24.932 100.969 24.932C99.9128 24.932 99.0248 25.176 98.3047 25.664C97.5848 26.152 97.0448 26.84 96.6848 27.728C96.3248 28.616 96.1448 29.66 96.1448 30.86C96.1448 32.716 96.5688 34.168 97.4168 35.216C98.2648 36.264 99.5128 36.788 101.161 36.788ZM119.252 39.86C117.548 39.86 116.064 39.488 114.8 38.744C113.536 37.992 112.564 36.936 111.884 35.576C111.212 34.216 110.876 32.644 110.876 30.86C110.876 29.076 111.212 27.504 111.884 26.144C112.564 24.784 113.536 23.732 114.8 22.988C116.064 22.236 117.548 21.86 119.252 21.86C120.556 21.86 121.732 22.08 122.78 22.52C123.828 22.96 124.716 23.592 125.444 24.416C126.18 25.232 126.732 26.204 127.1 27.332L123.812 28.244C123.484 27.18 122.936 26.364 122.168 25.796C121.4 25.22 120.428 24.932 119.252 24.932C118.172 24.932 117.264 25.176 116.528 25.664C115.792 26.144 115.236 26.828 114.86 27.716C114.492 28.596 114.308 29.644 114.308 30.86C114.308 32.076 114.492 33.128 114.86 34.016C115.236 34.896 115.792 35.58 116.528 36.068C117.264 36.548 118.172 36.788 119.252 36.788C120.428 36.788 121.4 36.504 122.168 35.936C122.936 35.36 123.484 34.54 123.812 33.476L127.1 34.388C126.732 35.516 126.18 36.492 125.444 37.316C124.716 38.132 123.828 38.76 122.78 39.2C121.732 39.64 120.556 39.86 119.252 39.86ZM133.007 39.5H129.743V22.22H133.007V30.188L139.583 22.22H143.567L136.343 30.74L144.023 39.5H139.895L133.007 31.628V39.5ZM152.159 39.86C150.455 39.86 148.971 39.488 147.707 38.744C146.443 37.992 145.471 36.936 144.791 35.576C144.119 34.216 143.783 32.644 143.783 30.86C143.783 29.076 144.119 27.504 144.791 26.144C145.471 24.784 146.443 23.732 147.707 22.988C148.971 22.236 150.455 21.86 152.159 21.86C153.863 21.86 155.347 22.236 156.611 22.988C157.875 23.732 158.843 24.784 159.515 26.144C160.195 27.504 160.535 29.076 160.535 30.86C160.535 32.644 160.195 34.216 159.515 35.576C158.843 36.936 157.875 37.992 156.611 38.744C155.347 39.488 153.863 39.86 152.159 39.86ZM152.255 36.788C153.311 36.788 154.199 36.544 154.919 36.056C155.639 35.568 156.179 34.88 156.539 33.992C156.899 33.104 157.079 32.06 157.079 30.86C157.079 29.004 156.655 27.552 155.807 26.504C154.959 25.456 153.711 24.932 152.063 24.932C151.007 24.932 150.119 25.176 149.398 25.664C148.679 26.152 148.139 26.84 147.779 27.728C147.419 28.616 147.239 29.66 147.239 30.86C147.239 32.716 147.663 34.168 148.511 35.216C149.359 36.264 150.607 36.788 152.255 36.788ZM166.194 39.5H162.93V22.22H177.186V39.5H173.922V25.268H166.194V39.5Z" fill="#3E3E3E"/>
</svg>
