<svg width="22" height="32" viewBox="0 0 22 32" fill="none" xmlns="http://www.w3.org/2000/svg">
<path d="M21.9998 11.1113C21.9882 12.5048 21.5401 14.1689 20.6299 15.7176C17.6589 20.7727 14.6841 25.8242 11.7131 30.878C11.5556 31.1461 11.3761 31.3777 11.0146 31.3826C10.6363 31.3874 10.4543 31.1461 10.2903 30.8683C7.32966 25.8315 4.36388 20.7982 1.40197 15.7613C0.291572 13.8705 -0.190029 11.8402 0.0682019 9.69835C0.469751 6.36427 2.18828 3.75911 5.21475 1.9532C7.34774 0.680939 9.70023 0.178826 12.1999 0.456565C15.7002 0.847097 18.422 2.46865 20.3264 5.26181C21.4601 6.92582 21.9869 8.76447 22.0011 11.1101L21.9998 11.1113ZM11.043 5.55168C8.07853 5.49103 5.58015 7.79299 5.51559 10.6444C5.45232 13.4581 7.86678 15.811 10.8868 15.8814C13.9146 15.9517 16.4194 13.6849 16.4943 10.8069C16.5692 7.96036 14.1353 5.61353 11.043 5.55168Z" fill="#ED863C"/>
</svg>
