<svg width="30" height="29" viewBox="0 0 30 29" fill="none" xmlns="http://www.w3.org/2000/svg">
<path d="M1.64165 14.5901C1.72817 13.8283 1.82888 13.0226 1.90405 12.214C1.92107 12.0281 1.90263 11.8068 1.81611 11.648C-0.660363 7.01204 1.97355 1.31645 7.10947 0.202866C9.15901 -0.241149 11.088 0.0454039 12.9149 1.06962C13.0539 1.14764 13.251 1.18027 13.4085 1.15615C21.0492 0.00710208 27.8772 5.22463 29.1297 12.2608C29.4275 13.929 29.3992 15.5902 29.08 17.2542C29.0431 17.4443 29.0829 17.6783 29.1623 17.8571C31.4515 22.937 27.8943 28.0864 23.1569 28.8894C21.4605 29.1773 19.8521 28.895 18.3061 28.1659C18.1501 28.0921 17.9444 28.0637 17.7742 28.0921C10.3221 29.3575 3.17775 24.3343 1.87994 16.8939C1.75087 16.1534 1.72108 15.3958 1.64023 14.5901H1.64165ZM15.8211 24.0165C16.2948 23.9641 17.1331 23.913 17.9543 23.7697C19.6039 23.4803 21.0974 22.842 22.252 21.5766C24.0973 19.5551 24.0179 16.3576 22.079 14.5915C21.2251 13.8127 20.1925 13.3361 19.0961 13.0311C17.5317 12.5956 15.9388 12.2565 14.3786 11.8068C13.7106 11.6139 13.0397 11.3245 12.4667 10.9387C11.705 10.4237 11.7092 9.53711 12.3915 8.91152C12.6057 8.71576 12.8567 8.51715 13.1248 8.43488C13.7063 8.25756 14.3034 8.07881 14.9048 8.03767C16.5884 7.92277 17.9699 8.44481 18.7671 10.0677C18.9217 10.3812 19.1259 10.6819 19.3614 10.9415C19.9074 11.543 20.618 11.5969 21.3513 11.4125C22.0804 11.2295 22.5229 10.7386 22.6789 10.0024C22.8548 9.16828 22.574 8.44055 22.113 7.7724C21.479 6.85316 20.6152 6.21338 19.584 5.79774C17.6891 5.03454 15.7204 4.88134 13.7106 5.13384C12.3404 5.30691 11.0355 5.68709 9.8682 6.45596C7.37754 8.09867 7.04706 11.5472 9.19306 13.5347C9.94195 14.2284 10.8242 14.7163 11.7929 14.993C13.1957 15.393 14.6283 15.6866 16.0353 16.0739C16.7686 16.2754 17.4877 16.5463 18.1855 16.8499C18.6607 17.0556 19.0011 17.4414 19.1415 17.9706C19.3599 18.7948 18.9798 19.6388 18.1274 20.1892C17.4877 20.6034 16.77 20.7907 16.0225 20.8503C13.5673 21.046 12.3376 20.3084 11.4979 18.4586C11.3575 18.1479 11.1986 17.8415 11.0142 17.5563C10.4951 16.752 9.56892 16.4768 8.58032 16.8087C7.76617 17.0825 7.31088 17.8386 7.39314 18.799C7.41016 18.9976 7.44279 19.1976 7.49668 19.3906C7.91794 20.924 8.91222 22.0093 10.2469 22.7951C11.8511 23.7399 13.634 23.9655 15.8183 24.018L15.8211 24.0165Z" fill="#ED863C"/>
</svg>
