<svg width="101" height="63" fill="none" xmlns="http://www.w3.org/2000/svg"><path d="M57.192 12.774c-.43.764-1.465 1.104-1.896 1.954-.431.765-.69 1.445-.69 2.21 0-.51-.086-1.02-.259-1.445-.172-.425-.603-.68-.517-1.19.087-.425.69-.68.862-1.105.259-.51.259-1.104.431-1.614.172-.85.259-1.36.086-2.125-.086-.595-.086-1.275.259-1.87.345-.595 1.12-1.7 1.206-1.784 1.12.17 0 1.784-.086 2.38-.172 1.104-.258 1.87.26 2.804.344.425.689 1.19.344 1.784zm-4.481 13.767c.345.51.172.85.172 1.445-.086.85-.862-.935-1.293-1.7-.69-1.105-1.12-1.785-1.207-3.06-.086-.765-.43-1.614-.086-2.38.172-.424.604-.68.517-1.19-.086-.424-.43-.764-.603-1.189-.172-.595-.345-1.36-.26-1.954 0-.68.95-2.295 1.121-2.72-.086 1.02-.086 2.21.172 3.23.26.934.949 1.784 1.035 2.72.086 1.274-1.294 1.869-.949 3.144.174 1.274.777 2.55 1.381 3.654zm-21.549-7.309c.862-.34.949-.935 1.638-1.53.517-.424 1.12-1.36 1.81-1.53-.26.936-1.12 1.87-1.552 2.72-.517.936.26 1.7-.086 2.635-.258.68-1.12 1.275-1.55 1.955-.518.85-1.294 1.614-1.983 2.38-1.12 1.19-1.551 1.784-1.293 1.104.345-.935.172-1.784.775-2.72.517-.764.862-1.614 1.38-2.38.344-.679 1.982-1.954.861-2.634zm-2.155 10.455c.345-.255 5-5.439 5.258-6.459.172-1.02.259-2.125.69-3.06v.34c-.087.765.43 1.36.43 2.125 0 .765-.775 1.7-1.12 2.465-.69 1.53-1.035 3.23-1.293 4.844-.172 1.104-.26 2.04-.172 2.21h.517c-.604 1.019-2.327 2.039-3.276 2.889-.69.68-1.465 1.445-2.069 2.125-.69.85-1.206-4.42-.603-5.695.345-1.019.776-1.105 1.639-1.784zm-6.464 2.719c.259-.935 1.206-1.445 1.724-2.21-.172.51-.431 1.7-.517 2.125-.172.85-.776 2.04-.517 2.89.345 0 .776-.17 1.207-.34-.26.51-.949.85-1.294 1.275-.258.34-.344.765-.69 1.105-.603.595-1.636.85-2.326 1.36-.43.34-.862.765-1.38 1.105.862-1.7 1.897-3.485 3.19-4.93.603-.85.344-1.615.603-2.38zm11.981-.255c.517-.765 3.189-4.59 3.361-4.844.259-.51 1.12-.935 1.552-1.36 0 .34-.172.68-.172.765-.345.595-3.276 6.034-4.051 6.969-.517.595-.862 1.19-1.294 1.785-.517.595-1.034.935-1.379 1.784-.517 1.275-.862 2.72-1.465 3.995-.172-1.19.172-4.675.345-4.76 1.551-1.359 2.154-2.804 3.103-4.334z" fill="#fff"/><path d="M12.458 37.504c.172-.424.431-.85.604-1.275a63.217 63.217 0 001.724-3.399c.259-.595.604-1.105.948-1.7.259-.34.517-.68.862-.935.345-.34.776-.68 1.12-1.02.69-.68 1.465-1.36 2.241-2.125.43-.425.862-.764 1.293-1.19.862-.849 2.759-2.634 2.759-2.634.69-.85 1.55-1.614 2.24-2.38.172-.255.345-.424.517-.68.172-.255.345-.51.431-.68l.517-.764.69-.68c.258-.17.603-.34.861-.51l.776-.51c.259-.17.517-.34.862-.51.344-.169.69-.254.948-.34.345-.084.604-.169.862-.254.258-.085.516-.255.775-.425.259-.17.517-.34.69-.51.172-.17.43-.34.517-.595l.258-.51.345.425.776.765c.259.255.517.51.776.68.172.085.258.17.43.255h.086s.086 0 .086-.085l.345-.34c.086-.17.259-.255.431-.424l.086-.085.172-.17c.086-.085.172-.085.259-.17h.605c.172-.086.259-.17.43-.256.087-.085.173-.085.173-.17l.172-.17c.603-.509 1.206-.934 1.465-1.529l.086-.255.259.085c.344.085.69.34.948.51.259.169.431.424.604.509.086.085.172.085.259.17.085 0 .69-.085.861-.17.172-.17.431-.425.69-.595.345-.17.603-.255.948-.34l.776-.255c.172-.085.345-.255.603-.425.345-.34.69-.765 1.035-1.19.345-.425.69-.85.948-1.275l1.81-2.55V6.74h.086l1.207-.68.517-.34.258-.17c.086-.084.172-.084.26-.169.344-.17.603-.51.86-.765a6.02 6.02 0 00.69-.85l1.552-1.274c.517-.425 1.034-.765 1.637-1.19l.345-.171.172.255c.431.51.949.935 1.466 1.36.258.255.517.425.775.68l.776.765c.259.34.345.68.517.935.086.17.086.255.259.34.086.085.172.17.344.17.345.084.69.255 1.035.51.258.169.603.34.861.594.172.085.345.256.431.425.086.085.086.17.172.255 0 .085.086.085.086.085v.17c.086.34.172.595.259.935 0 .17.086.34.086.51 0 .17.259.68.345.85.086.169 3.103 4.504 3.275 4.758.172.256.259.596.431.85.172.255.345.51.603.68l1.294 1.445c.258.255.43.51.603.764.172.256.431.51.604.68.43.425 1.12.68 1.637 1.105.26.17.517.425.69.765.172.255.259.595.43.85.087.17.173.34.26.595l.086.17s0 .084.086.084c0 .085.086.085.086.17.086.17.258.34.43.51l1.294 1.444c.258.256.43.51.603.765.172.255.431.51.69.51h.43a.663.663 0 00.431-.17c.26-.085.517-.34.776-.51.172-.084.259-.17.43-.34.087-.084.173-.084.26-.17 0 0 .086 0 .172-.084h.172c.258 0 .43.085.603.17.172.084.26.17.431.34.43.51.776 1.02 1.207 1.53.172.255.344.509.43.849.087.255.172.595.345.85.086.255.259.51.431.764.172.255.43.425.69.68.516.425.948.935 1.379 1.445.345.51.69 1.02.948 1.615-.259-.596-.603-1.105-.948-1.615s-.862-.935-1.38-1.36c-.258-.17-.516-.425-.775-.68-.259-.255-.345-.51-.517-.85-.086-.255-.172-.595-.345-.849-.086-.255-.258-.51-.43-.765-.431-.51-.776-1.02-1.207-1.445-.086-.084-.259-.17-.345-.255-.086-.085-.258-.17-.43-.085 0 .085.086.17.086.256 0 .255.086.51-.087.85l-.172.169c-.086.085-.171.17-.258.17-.172.084-.26.084-.345.17-.086.084-.172.084-.259.169l-.086.765c0 .17.172.424.345.595.172.255.43.424.69.595l.344.255c.086.085.26.17.345.34.259.17.517.425.776.595.516.425 1.034.765 1.55 1.19l.69.68c.087.085.173.255.26.34.086.002.086.087.172.258-.086-.085-.172-.256-.259-.34-.086-.085-.172-.255-.344-.34a4.84 4.84 0 00-.776-.596c-.517-.34-1.035-.68-1.637-1.104-.26-.17-.517-.34-.862-.595l-.776-.595c-.258-.17-.517-.425-.775-.596l-.345-.34-.345.34c-.259.256-.517.51-.775.68a.94.94 0 01-.604.255c-.086 0-.172.085-.259.085 0 0-.086 0-.086.085-.086.085-.259.17-.345.255 0 .085-.086.255-.086.34 0 .085-.086.17-.086.256 0 .084-.086.17-.086.255-.086.17-.172.34-.345.424l-.775.765c-.259.255-.517.425-.776.68l-.516.51c0 .084-.086.084-.086.169-.259.51-.345 1.105-.517 1.785a4.07 4.07 0 01-.345.935c-.172.34-.43.595-.69.85-.344.255-.603.424-.86.594-.26.17-.432.425-.604.765-.345.51-.517.51-.26-.085.173-.34 2.156-6.034 3.535-7.308l-.776-.51-.172-.085c-.086 0-.172-.085-.345-.17-.172-.084-.43-.255-.603-.34-.172-.17-.345-.255-.517-.424-.172-.17-.259-.34-.431-.51-.517-.68-.862-1.445-1.12-2.125-.086-.17-.172-.34-.26-.51-.085-.169-.171-.34-.344-.424-.259-.255-.69-.425-1.034-.68-.172-.085 1.034 3.23.948 3.145-.086.51-.43.935-.517 1.53-.776-.766-2.758-.34-2.672.084.086.425 1.982 3.485 1.294 4.59-.086-.085-3.276 4.674-3.534 5.523a10.5 10.5 0 01-.604-2.634v-.34c.345-.595.862-1.105 1.206-1.614.431-.51.517-1.105.862-1.615.259-.34.69-1.36.517-1.53-.43-.424-.604-.34-1.035-.68-.344-.255-.43-.34-.43-.68 0-.424.43-.255.517-.51.172-.594-.345-.934-.431-1.529 0-.85 2.327-3.654 2.24-4.164 0-.34.087-1.19.087-1.275l-.087.084c-.258.17-.43.255-.603.34l-.517.255c-.086.085-.259.256-.345.425l-.344.51c-.172.17-.26.34-.345.51-.086.17-.172.34-.26.51-.171.34-.258.764-.43 1.104-.086.17-.172.425-.345.595-.172.17-.344.34-.517.425-.172.085-.344.255-.516.34-.086.085-.172.085-.26.17l-.085.084c-.172.256-.431.51-.604.85-.086.085-.086.17-.172.255-.172.34-2.758 2.805-5.43 3.4.517-.68 1.206-5.185 1.206-6.8 0-.595-.258-1.275-.258-1.87 0-.424.172-1.189.258-1.7.086-.934.086-2.72.949-3.314.776.51.776-.17 1.034-.595.345-.68.26-.425.862-.85.69-.424 1.465-.764 1.38-1.614-.087-1.02-.95-1.614-1.725-2.38-.43-.425-.69-1.36-1.379-1.445-.086-.51-.259-.764-.259-1.275 0-.425.517-1.275.259-1.7-.259-.425-.776-.255-1.035-.68-.086-.17-.086-.935-.086-1.105 0-1.02.862-3.06.345-4.334 0 0-.517-.935-.517-1.614-.43.255-.861.595-1.293.935-.517.425-1.034.765-1.465 1.19-.259.34-.517.595-.776.935l-.43.425c-.172.17-.345.255-.517.424-.086.085-.172.085-.259.17l-.259.17-.517.34-1.034.595-1.81 2.55c-.345.424-.604.849-.949 1.274l-1.034 1.276c-.172.17-.43.424-.776.595-.344.17-.69.255-.948.34l-.776.255c-.172.085-.344.255-.603.425-.086.085-.259.17-.431.255-.172.085-.603.17-.603.17h-.259c-.086 0-.258 0-.345-.085l-.516-.255c-.259-.17-.776-.425-.776-.34.259.68.259 1.36.862 2.04.861.934.861 1.274 1.12 2.38.172.849.776 1.444.949 2.38.086.509.086 1.02.258 1.444.345.595.776 1.105 1.294 1.7.172.17.344.34.516.595.776.935 1.552 2.38 2.5 2.805-.604 1.275.862 1.87 1.38 2.805.947 1.784 1.206 3.739 2.758 5.439.344-.34.948-.425 1.379-.68.948 2.04 1.982 4.164 3.792 5.694-.604-.085-4.051-.17-4.224-.17-.258-.084-.861-.595-1.034-.764-.604-.425-1.38-.85-1.982-1.445-.172-.17-.345-.255-.431-.425l-.345-.425c-.259-.255-.517-.595-.776-.85-.086-.17-3.275-4.843-3.275-4.93 0-.084-1.12-1.444-1.551-1.699H45.3s-.086 0-.172-.085c-.086 0-.259-.085-.345-.085-.259-.084-.603-.084-.862-.17-.603-.169-1.034-.509-1.55-.764-.087-.085-.26-.17-.346-.255-.086-.085-.259-.17-.344-.255-.172-.255-.517-.936-.517-.936l-.345-.51s-.948-.679-1.38-1.02c-.171-.169-.344-.424-.516-.594-.172-.17-.259-.425-.345-.68a4.038 4.038 0 00-.259-.595c-.086-.17-.258-.34-.43-.51-.173-.085-.431-.255-.69-.425-.259-.17-.43-.34-.604-.595-.345-.425-.517-.935-.603-1.36-.086-.255-.086-.51-.172-.68 0-.255-.087-.425-.172-.595a2.59 2.59 0 00-.431-.595c0-.085-.086-.085-.086-.17 0-.084-.086-.084-.086-.17-.086-.084-.086-.255-.086-.424 0-.17.086-.255.086-.34 0-.085.086-.255.086-.34 0-.255 0-.425-.086-.68-.086-.255-.172-.425-.172-.68v-.51c-.086.17-.26.255-.345.34-.259.17-.517.425-.776.595a3.22 3.22 0 01-.948.425c-.345.085-.69.17-.948.255-.345.085-.604.17-.862.256-.259.17-.517.255-.776.424l-.776.51a7.87 7.87 0 01-.775.425c-.259.17-.43.34-.604.51a1.832 1.832 0 00-.43.68c-.172.255-.345.509-.431.764-.172.255-.345.51-.517.68l-1.293 1.275c-.26.255-.604.51-.776.765-.345.51.345 1.02.604 1.36.172.17.344.34.43.51.087.084.345.424.345.595-.086 1.19-.517 1.19-.948 1.7-.776-.256-.776-.765-1.637-.596-.26.085-1.81 4.42-1.81 4.59-.087 1.02-1.035 1.7-1.81 2.55-.862.935-1.035 3.824-1.724 4.843-.69 1.105-1.638.17-2.327 1.19 1.81-3.06 1.896-6.204 2.155-9.433-.087-.255-.26-.51-.517-.425-.517.17-.949.935-1.294 1.36-1.12 1.02-4.05 7.648-3.964 6.799.166-.342.252-.597.338-.767zm-1.997 18.143c.042 0 .063.025.063.075 0 .05-.02.075-.063.075-.168 0-.43-.009-.783-.025-.37-.017-.635-.025-.795-.025-.21 0-.467.008-.77.025-.286.016-.513.025-.682.025-.034 0-.05-.025-.05-.075 0-.05.016-.075.05-.075.219 0 .375-.02.467-.062a.257.257 0 00.152-.249c0-.141-.084-.377-.253-.71l-.858-1.68H3.833l-.492 1.083c-.11.24-.164.465-.164.672 0 .299.105.531.315.697.219.166.51.25.871.25.042 0 .063.024.063.074 0 .05-.02.075-.063.075-.151 0-.37-.009-.656-.025-.32-.017-.598-.025-.833-.025-.228 0-.501.008-.821.025-.286.016-.518.025-.694.025-.034 0-.051-.025-.051-.075 0-.05.017-.075.05-.075.236 0 .434-.045.594-.137.16-.1.32-.27.48-.51.16-.25.349-.614.568-1.096l2.74-5.938c.016-.025.054-.037.113-.037.067 0 .105.012.114.037l3.156 6.125c.295.59.539.996.732 1.22.194.224.396.336.606.336zm-6.464-3.05H6.75L5.298 49.76l-1.3 2.838zm12.004 3.05c.042 0 .063.025.063.075 0 .05-.02.075-.063.075-.151 0-.387-.009-.707-.025-.336-.017-.58-.025-.732-.025-.135 0-.353.008-.656.025-.287.016-.489.025-.607.025-.033 0-.05-.025-.05-.075 0-.05.017-.075.05-.075.186 0 .32-.02.405-.062a.234.234 0 00.126-.212.662.662 0 00-.076-.261 4.173 4.173 0 00-.152-.361l-1.06-2.228-.758 1.742c-.151.349-.227.631-.227.847 0 .357.202.535.606.535.042 0 .063.025.063.075 0 .05-.02.075-.063.075-.092 0-.223-.009-.391-.025a4.93 4.93 0 00-.998 0 3.753 3.753 0 01-.403.025c-.043 0-.064-.025-.064-.075 0-.05.021-.075.063-.075.152 0 .312-.103.48-.311.177-.216.392-.61.644-1.183l1.465-3.348c.017-.033.042-.05.075-.05.034 0 .06.017.076.05l1.566 3.286c.219.473.387.813.505 1.02.118.2.235.341.353.424a.863.863 0 00.467.112zm3.289-2.701c1.296 0 1.944.431 1.944 1.294 0 .474-.185.855-.556 1.146-.362.29-.837.435-1.426.435l-.682-.024a24.346 24.346 0 00-.871-.025l-.733.012a9.866 9.866 0 01-.568.013c-.025 0-.038-.025-.038-.075 0-.05.013-.075.038-.075.202 0 .35-.02.442-.062a.342.342 0 00.202-.236 2.3 2.3 0 00.05-.56v-2.79c0-.248-.016-.43-.05-.547-.033-.124-.1-.207-.202-.249-.092-.041-.235-.062-.429-.062-.025 0-.038-.025-.038-.075 0-.05.013-.075.038-.075.236 0 .417.005.543.013l.745.012.783-.012c.151-.008.357-.013.618-.013.017 0 .025.025.025.075 0 .05-.008.075-.025.075-.244 0-.425.025-.543.075a.419.419 0 00-.227.26c-.042.117-.063.3-.063.549v1.033a4.381 4.381 0 011.023-.112zm-.303 2.689c.336 0 .585-.087.744-.262.16-.182.24-.469.24-.859 0-.863-.378-1.294-1.136-1.294-.177 0-.366.025-.568.074v1.494c0 .3.05.515.151.648.101.133.29.199.569.199zm8.844.012c.017 0 .026.025.026.075 0 .05-.009.075-.026.075-.235 0-.416-.005-.543-.013l-.707-.012-.656.012a8.084 8.084 0 01-.505.013c-.017 0-.025-.025-.025-.075 0-.05.008-.075.025-.075.16 0 .278-.02.353-.062.076-.041.127-.12.152-.236.033-.125.05-.312.05-.56v-2.79c0-.273-.008-.452-.025-.535-.008-.09-.038-.149-.088-.174-.042-.025-.13-.037-.265-.037h-1.452c-.143 0-.24.012-.29.037-.043.025-.072.083-.089.175a7.65 7.65 0 00-.013.56v2.763c0 .25.013.436.038.56.026.117.072.196.14.237.075.041.193.062.353.062.025 0 .038.025.038.075 0 .05-.013.075-.038.075-.202 0-.362-.005-.48-.013l-.619-.012-.732.012a9.868 9.868 0 01-.568.013c-.025 0-.038-.025-.038-.075 0-.05.013-.075.038-.075.202 0 .35-.02.442-.062a.342.342 0 00.202-.236c.033-.125.05-.312.05-.56v-2.79c0-.248-.017-.43-.05-.547-.034-.124-.101-.207-.202-.249-.093-.041-.236-.062-.43-.062-.025 0-.037-.025-.037-.075 0-.05.012-.075.038-.075h5.933c.017 0 .026.025.026.075 0 .05-.009.075-.026.075-.193 0-.34.025-.442.075a.395.395 0 00-.189.26c-.034.117-.05.3-.05.549v2.763c0 .25.016.436.05.56a.346.346 0 00.19.237c.092.041.24.062.441.062zm2.11-6.012c-.244 0-.433-.067-.567-.2-.135-.133-.202-.32-.202-.56 0-.215.067-.386.201-.51.143-.133.333-.2.569-.2.235 0 .416.063.543.187.126.125.189.3.189.523 0 .24-.063.428-.19.56-.126.133-.307.2-.542.2zm-1.211 6.162c-.026 0-.038-.025-.038-.075 0-.05.012-.075.038-.075.26 0 .437-.058.53-.174.092-.124.139-.353.139-.685V52.56c0-.282-.03-.486-.089-.61a.3.3 0 00-.29-.187c-.11 0-.265.046-.467.137h-.013c-.034 0-.059-.02-.075-.062-.017-.05-.013-.079.012-.087l1.907-.872.037-.012c.042 0 .084.02.127.062.042.042.063.079.063.112v.274c-.017.332-.026.739-.026 1.22v2.253c0 .332.047.56.14.685.1.116.281.174.542.174.026 0 .038.025.038.075 0 .05-.012.075-.038.075-.219 0-.391-.005-.517-.013l-.758-.012-.745.012a8.353 8.353 0 01-.517.013zm6.131-5.839a2.69 2.69 0 01-.934-.162 1.957 1.957 0 01-.694-.423c-.168-.182-.253-.377-.253-.585 0-.15.047-.265.14-.348.092-.092.226-.137.403-.137.16 0 .278.037.354.112a.52.52 0 01.176.248 2.6 2.6 0 01.101.411c.034.216.093.386.177.51.093.117.265.175.518.175.252 0 .433-.062.543-.187.11-.133.18-.315.214-.547.05-.25.11-.432.177-.548.076-.116.215-.174.417-.174.168 0 .298.045.391.137a.442.442 0 01.139.348c0 .208-.088.403-.265.585a1.862 1.862 0 01-.695.436c-.286.1-.589.15-.909.15zm2.93 5.69c.016 0 .025.024.025.074 0 .05-.009.075-.026.075-.244 0-.433-.005-.568-.013l-.694-.012-.745.012c-.135.008-.32.013-.556.013-.016 0-.025-.025-.025-.075 0-.05.009-.075.026-.075.201 0 .349-.02.441-.062a.341.341 0 00.202-.236 2.3 2.3 0 00.05-.56v-2.49l-3.067 3.547c-.025.034-.08.05-.164.05a.342.342 0 01-.126-.025c-.042-.008-.063-.016-.063-.025V52c0-.25-.017-.432-.051-.548-.034-.124-.097-.207-.19-.249-.092-.041-.24-.062-.441-.062-.017 0-.025-.025-.025-.075 0-.05.008-.075.025-.075.194 0 .34.005.442.013l.808.012 1.022-.012a2.69 2.69 0 01.278-.013c.025 0 .038.025.038.075 0 .05-.013.075-.038.075-.202 0-.353.02-.455.062-.092.041-.155.125-.189.249a2.15 2.15 0 00-.05.548v2.514l3.08-3.56c.025-.041.08-.062.164-.062.05 0 .093.008.127.025.042.008.063.02.063.037v3.834c0 .25.017.436.05.56a.347.347 0 00.19.237c.092.041.24.062.441.062zm3.215.298c-.556 0-1.028-.116-1.414-.349a2.379 2.379 0 01-.859-.92 2.704 2.704 0 01-.278-1.196c0-.523.147-.98.442-1.37.295-.397.67-.7 1.124-.908a3.316 3.316 0 011.414-.324c.404 0 .765.084 1.085.25.329.165.493.394.493.684a.541.541 0 01-.19.41c-.117.109-.286.163-.505.163-.201 0-.361-.05-.48-.15a1.188 1.188 0 01-.29-.485c-.075-.233-.151-.39-.227-.473-.067-.091-.194-.137-.379-.137-.362 0-.652.178-.87.535-.211.349-.316.813-.316 1.394 0 .69.155 1.241.467 1.656.311.407.808.61 1.49.61.227 0 .42-.025.58-.075.169-.05.379-.133.632-.249h.012c.025 0 .046.013.063.038.026.025.03.045.013.062a3.653 3.653 0 01-.934.635c-.312.133-.67.199-1.074.199zm5.703-3c1.297 0 1.945.431 1.945 1.294 0 .474-.186.855-.556 1.146-.362.29-.837.435-1.426.435l-.682-.024a24.348 24.348 0 00-.871-.025l-.733.012a9.868 9.868 0 01-.568.013c-.025 0-.038-.025-.038-.075 0-.05.013-.075.038-.075.202 0 .35-.02.442-.062a.342.342 0 00.202-.236 2.3 2.3 0 00.05-.56v-2.79c0-.248-.016-.43-.05-.547-.034-.124-.1-.207-.202-.249-.092-.041-.235-.062-.43-.062-.024 0-.037-.025-.037-.075 0-.05.013-.075.038-.075.236 0 .417.005.543.013l.745.012.782-.012c.152-.008.358-.013.62-.013.016 0 .024.025.024.075 0 .05-.008.075-.025.075-.244 0-.425.025-.543.075a.42.42 0 00-.227.26c-.042.117-.063.3-.063.549v1.033a4.383 4.383 0 011.022-.112zm-.303 2.689c.337 0 .585-.087.745-.262.16-.182.24-.469.24-.859 0-.863-.379-1.294-1.136-1.294-.177 0-.366.025-.568.074v1.494c0 .3.05.515.151.648.101.133.29.199.568.199zm8.53.012c.025 0 .037.025.037.075 0 .05-.012.075-.038.075h-1.502a.425.425 0 01-.227-.063c-.068-.041-.164-.145-.29-.31a9.595 9.595 0 01-.53-.822 8.247 8.247 0 00-.518-.772 1 1 0 00-.367-.324.92.92 0 00-.454-.1h-.025v1.382c0 .25.017.436.05.56a.346.346 0 00.19.237c.1.041.248.062.441.062.026 0 .038.025.038.075 0 .05-.012.075-.038.075-.235 0-.416-.005-.542-.013l-.707-.012-.733.012a9.868 9.868 0 01-.568.013c-.025 0-.038-.025-.038-.075 0-.05.013-.075.038-.075.202 0 .35-.02.442-.062a.342.342 0 00.202-.236 2.3 2.3 0 00.05-.56v-2.79c0-.248-.016-.43-.05-.547-.034-.124-.097-.207-.19-.249-.092-.041-.24-.062-.441-.062-.017 0-.025-.025-.025-.075 0-.05.008-.075.025-.075.235 0 .417.005.543.013l.745.012.808-.012c.143-.008.34-.013.593-.013.017 0 .025.025.025.075 0 .05-.008.075-.025.075-.244 0-.425.02-.543.062a.377.377 0 00-.227.249c-.042.125-.063.315-.063.573v1.17l.606-.025c.168 0 .357-.224.568-.672.32-.64.597-1.07.833-1.295.244-.224.505-.336.783-.336.244 0 .425.058.543.174.126.108.19.253.19.436 0 .19-.056.344-.165.46-.11.117-.27.175-.48.175a.883.883 0 01-.391-.1.842.842 0 00-.366-.1.467.467 0 00-.341.138c-.084.083-.198.265-.341.547a2.54 2.54 0 01-.379.585c.244.017.442.067.594.15.151.075.29.187.416.336.127.14.295.37.505.685.152.249.244.394.278.435.194.324.353.548.48.673.134.116.328.178.58.186zm5.271-.523c.034 0 .055.021.063.063.017.033.009.058-.025.074l-1.3.61a.284.284 0 01-.127.025c-.134 0-.265-.07-.39-.211a1.294 1.294 0 01-.253-.573l-.543.373a2.49 2.49 0 01-.543.312 1.731 1.731 0 01-.568.087c-.362 0-.636-.079-.82-.237-.186-.157-.279-.377-.279-.66 0-.224.055-.402.164-.535.11-.14.245-.249.404-.323.169-.084.4-.175.695-.274l.315-.112 1.137-.411v-.71c0-.531-.047-.917-.14-1.157-.083-.241-.23-.362-.441-.362-.446 0-.699.34-.758 1.021-.025.25-.1.428-.227.536-.118.108-.286.161-.505.161-.21 0-.366-.041-.467-.124a.469.469 0 01-.139-.349c0-.249.148-.485.442-.71a3.55 3.55 0 011.06-.56c.421-.14.792-.211 1.112-.211.37 0 .669.116.896.349.236.224.353.568.353 1.033v2.203c0 .24.043.428.127.56.092.133.219.2.378.2.118 0 .24-.03.367-.088h.012zM58.15 54.9a.739.739 0 01-.012-.161v-1.196l-.543.25c-.025.008-.11.04-.253.099a.89.89 0 00-.378.261.671.671 0 00-.152.436c0 .2.063.357.19.473a.709.709 0 00.454.162.775.775 0 00.417-.137l.277-.187zm10.798.56c.068 0 .11.017.126.05.017.025.026.07.026.137 0 .108-.017.303-.05.585-.06.465-.09.88-.09 1.245 0 .033-.025.05-.075.05-.042 0-.063-.017-.063-.05 0-.523-.143-.938-.43-1.245-.277-.298-.673-.448-1.186-.448h-2.083c-.514 0-.91.15-1.187.448-.27.307-.404.722-.404 1.245 0 .033-.025.05-.076.05-.05 0-.075-.017-.075-.05 0-.473-.026-.892-.076-1.257a4.645 4.645 0 01-.05-.573c0-.075.008-.124.025-.15.016-.024.054-.036.113-.036h.657l2.045-4.656c.017-.033.042-.05.076-.05.042 0 .067.017.075.05l2.084 4.656h.618zm-4.558 0h2.563l-1.275-2.95-1.288 2.95zm7.465.498c-.522 0-.98-.116-1.376-.348a2.466 2.466 0 01-.897-.959 2.828 2.828 0 01-.315-1.32c0-.539.138-.995.416-1.369a2.5 2.5 0 011.06-.846 3.25 3.25 0 011.326-.286c.522 0 .977.12 1.364.36.387.241.682.56.884.96.21.39.315.808.315 1.257 0 .497-.126.942-.379 1.332-.252.381-.593.68-1.022.896-.421.215-.88.324-1.376.324zm.379-.261c.328 0 .576-.158.744-.473.177-.324.266-.784.266-1.382 0-.58-.076-1.079-.228-1.494-.151-.414-.35-.726-.593-.933-.244-.216-.505-.324-.783-.324-.673 0-1.01.593-1.01 1.78 0 .556.072 1.05.215 1.482.143.423.336.755.58.995.244.233.514.349.808.349zm8.138-.05c.043 0 .064.025.064.075 0 .05-.021.075-.064.075-.151 0-.387-.009-.706-.025a16.18 16.18 0 00-.733-.025c-.134 0-.353.008-.656.025-.286.016-.488.025-.606.025-.034 0-.05-.025-.05-.075 0-.05.016-.075.05-.075.185 0 .32-.02.404-.062a.234.234 0 00.126-.212.662.662 0 00-.076-.261 4.111 4.111 0 00-.151-.361l-1.06-2.228-.758 1.742c-.152.349-.228.631-.228.847 0 .357.202.535.606.535.043 0 .064.025.064.075 0 .05-.021.075-.063.075-.093 0-.223-.009-.392-.025a4.927 4.927 0 00-.997 0 3.752 3.752 0 01-.404.025c-.042 0-.063-.025-.063-.075 0-.05.02-.075.063-.075.151 0 .311-.103.48-.311.176-.216.39-.61.643-1.183l1.465-3.348c.017-.033.042-.05.076-.05.033 0 .059.017.075.05l1.566 3.286c.219.473.387.813.505 1.02.118.2.236.341.353.424a.863.863 0 00.468.112zm6.083 0c.016 0 .025.025.025.075 0 .05-.009.075-.025.075-.245 0-.434-.005-.569-.013l-.694-.012-.745.012c-.135.008-.32.013-.555.013-.017 0-.026-.025-.026-.075 0-.05.009-.075.026-.075.202 0 .349-.02.441-.062a.342.342 0 00.203-.236c.033-.125.05-.312.05-.56v-2.49l-3.068 3.547c-.025.034-.08.05-.164.05a.342.342 0 01-.126-.025c-.043-.008-.063-.016-.063-.025V52a2.15 2.15 0 00-.05-.548c-.035-.124-.098-.207-.19-.249-.093-.041-.24-.062-.442-.062-.017 0-.025-.025-.025-.075 0-.05.008-.075.025-.075.193 0 .34.005.442.013l.808.012 1.022-.012a2.69 2.69 0 01.278-.013c.025 0 .038.025.038.075 0 .05-.013.075-.038.075-.202 0-.353.02-.454.062-.093.041-.156.125-.19.249-.034.116-.05.299-.05.548v2.514l3.08-3.56c.025-.041.08-.062.164-.062.05 0 .093.008.127.025.042.008.063.02.063.037v3.834c0 .25.016.436.05.56a.346.346 0 00.19.237c.092.041.24.062.442.062zm6.61 0c.017 0 .026.025.026.075 0 .05-.009.075-.026.075-.235 0-.416-.005-.542-.013l-.707-.012-.745.012c-.135.008-.32.013-.556.013-.025 0-.038-.025-.038-.075 0-.05.013-.075.038-.075.202 0 .35-.02.442-.062a.342.342 0 00.202-.236 2.3 2.3 0 00.05-.56v-1.246h-2.221v1.245c0 .25.016.436.05.56a.347.347 0 00.19.237c.092.041.24.062.441.062.017 0 .026.025.026.075 0 .05-.009.075-.026.075-.235 0-.416-.005-.543-.013l-.707-.012-.732.012a9.868 9.868 0 01-.568.013c-.025 0-.038-.025-.038-.075 0-.05.013-.075.038-.075.202 0 .35-.02.442-.062a.342.342 0 00.202-.236 2.3 2.3 0 00.05-.56v-2.79c0-.248-.016-.43-.05-.547-.034-.124-.101-.207-.202-.249-.093-.041-.236-.062-.43-.062-.024 0-.037-.025-.037-.075 0-.05.013-.075.038-.075.235 0 .416.005.543.013l.744.012.707-.012c.135-.008.316-.013.543-.013.017 0 .026.025.026.075 0 .05-.009.075-.026.075-.193 0-.34.025-.442.075a.396.396 0 00-.189.26c-.034.117-.05.3-.05.549v1.22h2.222V52c0-.25-.017-.432-.05-.548-.035-.124-.102-.207-.203-.249-.092-.041-.236-.062-.43-.062-.024 0-.037-.025-.037-.075 0-.05.013-.075.038-.075.236 0 .416.005.543.013l.745.012.707-.012c.134-.008.315-.013.542-.013.017 0 .026.025.026.075 0 .05-.009.075-.026.075-.193 0-.34.025-.441.075a.396.396 0 00-.19.26c-.034.117-.05.3-.05.549v2.763c0 .25.017.436.05.56a.347.347 0 00.19.237c.092.041.24.062.441.062zm5.696-.523c.034 0 .055.021.063.063.017.033.009.058-.025.074l-1.3.61a.284.284 0 01-.126.025c-.135 0-.266-.07-.392-.211a1.294 1.294 0 01-.252-.573l-.543.373a2.496 2.496 0 01-.543.312 1.732 1.732 0 01-.568.087c-.362 0-.636-.079-.82-.237-.186-.157-.279-.377-.279-.66 0-.224.055-.402.165-.535.11-.14.244-.249.404-.323.168-.084.4-.175.694-.274l.316-.112 1.136-.411v-.71c0-.531-.046-.917-.139-1.157-.084-.241-.231-.362-.442-.362-.446 0-.698.34-.757 1.021-.026.25-.101.428-.228.536-.117.108-.286.161-.505.161-.21 0-.366-.041-.467-.124a.469.469 0 01-.139-.349c0-.249.148-.485.442-.71a3.589 3.589 0 011.06-.56c.421-.14.792-.211 1.112-.211.37 0 .669.116.896.349.236.224.354.568.354 1.033v2.203c0 .24.042.428.126.56.092.133.219.2.379.2.117 0 .24-.03.366-.088h.012zm-2.058-.224a.725.725 0 01-.012-.161v-1.196l-.543.25c-.025.008-.11.04-.253.099a.891.891 0 00-.378.261.671.671 0 00-.152.436c0 .2.063.357.19.473a.708.708 0 00.454.162.775.775 0 00.417-.137l.278-.187z" fill="#fff"/></svg>