<svg width="134" height="140" fill="none" xmlns="http://www.w3.org/2000/svg"><path d="M6.775 129.381c1.61 0 3.079-.646 4.17-1.691l-1.707-1.717a3.627 3.627 0 01-2.454.965 3.634 3.634 0 01-3.64-3.647 3.634 3.634 0 013.64-3.647c.941 0 1.82.372 2.454.983l1.706-1.735a5.983 5.983 0 00-4.169-1.691c-3.333 0-6.05 2.726-6.05 6.09s2.708 6.09 6.05 6.09z" fill="url(#paint0_linear_260_1168)"/><path d="M32.932 123.3c0-3.355-2.71-6.09-6.051-6.09-3.342 0-6.05 2.727-6.05 6.09 0 3.364 2.708 6.09 6.05 6.09 3.342 0 6.05-2.726 6.05-6.09zm-6.051 3.665c-2.014 0-3.641-1.638-3.641-3.665a3.634 3.634 0 013.64-3.647c2.015 0 3.624 1.638 3.624 3.647 0 2.01-1.627 3.665-3.623 3.665z" fill="url(#paint1_linear_260_1168)"/><path d="M55.894 129.381V117.21H53.29l-3.526 8.896-3.545-8.896h-2.594v12.171h2.41V123.3l2.418 6.081h2.603l2.428-6.081v6.081h2.41z" fill="url(#paint2_linear_260_1168)"/><path d="M68.998 124.522h.993c1.997 0 3.606-1.638 3.606-3.647 0-2.01-1.61-3.665-3.623-3.665h-3.386v12.171h2.41v-4.868.009zm0-4.869h.976a1.22 1.22 0 011.213 1.222c0 .673-.545 1.204-1.213 1.204h-.976v-2.426z" fill="url(#paint3_linear_260_1168)"/><path d="M89.63 117.21h-2.568l-4.37 12.171h2.568l1.23-3.408h3.72l1.232 3.408h2.568l-4.37-12.171h-.01zm-2.269 6.329l.977-2.744.993 2.744h-1.97z" fill="url(#paint4_linear_260_1168)"/><path d="M114.441 129.381V117.21h-2.41v8.126l-4.837-8.126h-2.823v12.171h2.41v-8.108l4.855 8.108h2.805z" fill="url(#paint5_linear_260_1168)"/><path d="M127.51 117.21h-2.692l3.158 6.373v5.798h2.409v-5.798l3.158-6.373h-2.7l-1.654 3.373-1.679-3.373z" fill="url(#paint6_linear_260_1168)"/><path d="M2.114 139.756h.774v-4.462h1.407v-.699H.707v.699h1.407v4.462z" fill="url(#paint7_linear_260_1168)"/><path d="M9.958 134.595l-1.864 5.161h.826l.396-1.151h1.944l.396 1.151h.817l-1.864-5.161h-.65zm-.422 3.311l.739-2.258h.017l.74 2.258H9.535z" fill="url(#paint8_linear_260_1168)"/><path d="M18.069 135.71a.99.99 0 01.8-.372c.247 0 .458.08.634.213.167.15.281.318.343.531h.826a1.953 1.953 0 00-.589-1.089c-.308-.292-.712-.434-1.214-.442-.404 0-.738.097-1.011.292-.273.186-.475.398-.598.637-.08.124-.132.292-.176.496-.035.203-.053.602-.053 1.204 0 .601.018.991.053 1.194a1.352 1.352 0 00.176.496c.123.239.325.452.598.629.273.186.607.292 1.011.301.52-.009.959-.186 1.302-.531.343-.346.519-.779.528-1.302v-1.053h-1.82v.744h1.046v.265c0 .328-.106.584-.3.779a.997.997 0 01-.747.31.907.907 0 01-.475-.115.94.94 0 01-.325-.257.946.946 0 01-.203-.434c-.035-.177-.052-.522-.052-1.026 0-.505.017-.85.052-1.036a.801.801 0 01.203-.425l-.009-.009z" fill="url(#paint9_linear_260_1168)"/><path d="M25.922 134.595v5.161h3.271v-.735h-2.497v-4.426h-.774z" fill="url(#paint10_linear_260_1168)"/><path d="M35.016 134.595h-.774v5.161h.774v-5.161z" fill="url(#paint11_linear_260_1168)"/><path d="M43.483 138.268h-.017l-2.322-3.673h-.73v5.161h.783v-3.665h.009l2.321 3.665h.73v-5.161h-.774v3.673z" fill="url(#paint12_linear_260_1168)"/><path d="M52.939 135.339v-.744h-3.28v5.161h3.28v-.735H50.44v-1.514h2.128v-.699H50.44v-1.469h2.498z" fill="url(#paint13_linear_260_1168)"/><path d="M64.68 134.843c-.272.186-.475.398-.598.637a1.54 1.54 0 00-.176.496c-.035.203-.053.602-.053 1.204s.018.991.053 1.195a1.365 1.365 0 00.176.495c.123.239.326.452.598.629.273.186.607.292 1.012.301.519-.009.958-.186 1.301-.531.343-.345.52-.779.528-1.301v-1.054H65.7v.744h1.046v.265c0 .328-.106.584-.299.779a.997.997 0 01-.748.31.897.897 0 01-.475-.115.939.939 0 01-.325-.257.94.94 0 01-.202-.434c-.035-.177-.053-.522-.053-1.026 0-.505.018-.85.053-1.036a.8.8 0 01.202-.425.99.99 0 01.8-.372c.247 0 .458.08.634.213.167.15.281.318.343.531h.826a1.952 1.952 0 00-.589-1.089c-.308-.292-.712-.434-1.214-.442-.404 0-.738.097-1.011.292l-.009-.009z" fill="url(#paint14_linear_260_1168)"/><path d="M76 138.87a1.1 1.1 0 00.175-.496c.027-.203.044-.601.044-1.194 0-.594-.017-1.001-.044-1.204a1.422 1.422 0 00-.176-.496 1.794 1.794 0 00-.58-.637c-.273-.186-.616-.284-1.02-.292-.405 0-.74.097-1.012.292-.272.186-.475.398-.598.637a1.544 1.544 0 00-.176.496c-.035.203-.052.602-.052 1.204 0 .601.017.991.052 1.194a1.352 1.352 0 00.176.496c.123.239.326.452.598.629.273.186.607.292 1.012.301.404-.009.747-.107 1.02-.301a1.56 1.56 0 00.58-.629zm-.81-.23a.877.877 0 01-.308.257.94.94 0 01-.483.115.907.907 0 01-.475-.115.94.94 0 01-.326-.257.945.945 0 01-.202-.434c-.035-.177-.053-.522-.053-1.026 0-.505.018-.85.053-1.036a.8.8 0 01.202-.425.984.984 0 01.8-.372c.185 0 .344.044.484.106.132.071.229.16.308.266.097.115.167.257.211.425.035.186.053.531.053 1.036 0 .504-.018.849-.053 1.026a.838.838 0 01-.21.434z" fill="url(#paint15_linear_260_1168)"/><path d="M84.723 135.339v-.744H81.45v5.161h3.272v-.735h-2.498v-1.514h2.137v-.699h-2.137v-1.469h2.498z" fill="url(#paint16_linear_260_1168)"/><path d="M91.293 139.021a2.201 2.201 0 01-1.45-.514l-.511.585c.545.469 1.196.708 1.961.708 1.179-.018 1.777-.514 1.803-1.496a1.47 1.47 0 00-.343-.965c-.228-.283-.58-.451-1.064-.522-.246-.027-.44-.062-.58-.08-.255-.044-.44-.133-.554-.257a.588.588 0 01-.176-.407c0-.248.088-.434.255-.557.158-.124.36-.177.598-.177.457.008.888.141 1.266.398l.431-.646c-.475-.346-1.029-.523-1.662-.531-.528 0-.941.141-1.231.416-.3.274-.449.637-.449 1.088 0 .372.114.691.352.956.229.257.563.416 1.003.496.246.035.474.071.677.097.448.08.668.31.668.691-.009.469-.343.708-1.011.717h.017z" fill="url(#paint17_linear_260_1168)"/><path d="M107.853 139.756v-5.161h-.774v2.213h-2.032v-2.213h-.774v5.161h.774v-2.249h2.032v2.249h.774z" fill="url(#paint18_linear_260_1168)"/><path d="M116.534 135.339v-.744h-3.28v5.161h3.28v-.735h-2.497v-1.514h2.128v-.699h-2.128v-1.469h2.497z" fill="url(#paint19_linear_260_1168)"/><path d="M122.356 137.551h.994l1.055 2.205h.924l-1.188-2.293c.651-.257.985-.726.994-1.434-.017-.478-.185-.841-.51-1.098-.273-.23-.616-.336-1.047-.336h-1.996v5.161h.774v-2.205zm0-2.257h1.214c.246 0 .439.053.571.16.167.124.255.318.255.584 0 .221-.07.416-.211.566-.149.168-.36.248-.651.257h-1.178v-1.567z" fill="url(#paint20_linear_260_1168)"/><path d="M133.561 135.339v-.744h-3.272v5.161h3.272v-.735h-2.489v-1.514h2.128v-.699h-2.128v-1.469h2.489z" fill="url(#paint21_linear_260_1168)"/><path d="M17.592 42.74v.044l-.017.062c-.018.089-.027.177-.036.257v.071c0 .053-.017.106-.017.16l-.018.132v.026l-.009.045v.159c-.017.168-.044.336-.061.505l-.053.451c0 .062-.009.115-.018.168v.01c-.017.185-.043.37-.061.548a6.11 6.11 0 00-.035.416v.018l-.018.132a.98.98 0 01-.017.16c0 .053-.01.115-.018.168v.089c0 .044 0 .088-.009.132 0 .053 0 .106-.009.168v.08c-.017.186-.026.38-.044.61 0 .107-.008.204-.017.293 0 .097-.009.203-.018.3v.214c0 .115-.009.222-.017.337v.141c0 .204-.018.399-.018.593v1.752c.14 9.595 3.966 18.598 10.756 25.334 6.798 6.754 15.804 10.472 25.355 10.472 1.522 0 3.026-.098 4.512-.284a38.177 38.177 0 002.014-.3 41.691 41.691 0 01-12.577-11.88 41.011 41.011 0 01-3.219-5.488 34.457 34.457 0 01-.598-1.292c-.017-.044-.044-.098-.061-.142a41.905 41.905 0 01-3.562-16.96c0-8.595 2.577-16.854 7.45-23.882A41.596 41.596 0 0150.81 22a41.31 41.31 0 0115.426-10.533 41.33 41.33 0 015.479-1.709 41.12 41.12 0 019.507-1.097c7.546 0 14.793 2.018 21.125 5.798l-.009-.01c-.053-.052-.123-.114-.176-.176-.079-.08-.158-.15-.237-.23-.027-.027-.053-.045-.071-.071l-.017-.018-.009-.018a5.182 5.182 0 01-.22-.203c-.079-.071-.149-.142-.228-.222v-.017l-.018-.018s-.026-.026-.044-.035c-.088-.08-.176-.168-.264-.248l-.017-.018-.115-.106s-.035-.036-.061-.053c-.132-.115-.255-.23-.379-.345-.149-.133-.29-.257-.422-.372-.044-.036-.088-.08-.14-.115-.097-.08-.194-.168-.29-.248l-.194-.16-.106-.088-.079-.07-.044-.036c-.114-.098-.228-.186-.343-.283l-.017-.018-.01-.018h-.017a2.703 2.703 0 00-.255-.212 30.219 30.219 0 00-.835-.655v-.01c-.08-.061-.15-.114-.229-.176l-.097-.071-.052-.044s-.027-.018-.036-.027l-.008-.009-.01-.008-.017-.018-.158-.115-.062-.045-.22-.159s-.043-.035-.07-.053c-.044-.027-.08-.062-.123-.089l-.088-.061c-.088-.062-.167-.124-.255-.186-.018-.018-.044-.027-.062-.045l-.026-.017-.018-.018-.624-.443c-.097-.07-.185-.132-.281-.203-.027-.018-.044-.036-.07-.044a10.777 10.777 0 01-.423-.284s-.017-.009-.026-.017h-.027s-.061-.045-.088-.071a5.91 5.91 0 00-.307-.195h-.018v-.009h-.018c-.15-.115-.307-.203-.457-.3h-.018v-.01l-.017-.017c-.159-.098-.317-.204-.475-.292l-.255-.15s-.08-.054-.114-.072c-.044-.026-.097-.062-.15-.088h-.009c-.026-.018-.061-.036-.088-.053-.114-.071-.228-.133-.343-.204l-.088-.053s-.079-.044-.114-.07l-.317-.187c-.008 0-.017-.009-.035-.018a50.586 50.586 0 00-2.163-1.15c-.018 0-.035-.018-.053-.027h-.018a8.29 8.29 0 00-.483-.248l-.431-.203s-.027-.018-.035-.018c0 0-.018 0-.027-.009h-.009c-.51-.248-.976-.451-1.424-.646h-.01l-.008-.009h-.018c-.105-.053-.22-.097-.325-.141l-.044-.018-.035-.018-.194-.08a2.083 2.083 0 01-.21-.088.426.426 0 00-.097-.035c-.484-.195-.88-.355-1.24-.487l-.22-.08h-.027l-.228-.097a52.554 52.554 0 00-1.891-.647c-.009 0-.018 0-.035-.008-.124-.036-.247-.08-.361-.115-.123-.036-.246-.08-.378-.116-.07-.026-.15-.044-.22-.07-.282-.08-.545-.16-.792-.23h-.018c-.034-.01-.07-.018-.105-.027-.052-.018-.114-.027-.167-.044h-.035l-.053-.027c-.527-.141-1.064-.265-1.6-.398l-.95-.213c-.537-.115-1.073-.23-1.619-.327l-.606-.106h-.01a13.89 13.89 0 00-.606-.098c-.097-.017-.185-.026-.281-.044l-.352-.053a60.41 60.41 0 00-1.742-.213 53.912 53.912 0 00-3.385-.239 47.802 47.802 0 00-5.075.07c-.114.001-.22.01-.334.019-1.17.08-2.34.204-3.492.363-.21.026-.413.062-.624.088h-.018L17.592 42.722v.018z" fill="url(#paint22_linear_260_1168)"/><path d="M116.692 58.071v-.035l.009-.045.026-.212v-.071a2.44 2.44 0 00.044-.283v-.062l.018-.062c0-.027 0-.062.018-.089l.035-.318.026-.213c.027-.212.053-.407.071-.602v-.026c.026-.186.044-.363.061-.54.018-.15.026-.292.044-.425l.018-.142.026-.292v-.07c.018-.124.018-.257.026-.381v-.053a9.65 9.65 0 00.044-.602v-.018c.018-.195.027-.39.036-.584v-.213c.017-.159.017-.318.026-.486 0-.222.018-.425.018-.638v-1.707c-.141-9.595-3.958-18.589-10.748-25.334-6.798-6.754-15.804-10.472-25.364-10.472-2.207 0-4.388.195-6.525.593a41.591 41.591 0 0112.576 11.88c4.872 7.028 7.45 15.287 7.45 23.882s-2.578 16.853-7.45 23.882c-4.758 6.86-11.354 12.083-19.084 15.092a41.06 41.06 0 01-14.978 2.806c-7.546 0-14.793-2.018-21.125-5.789H32l.026.035.027.027.088.088.096.098c.08.08.159.16.247.239l.017.018.018.017c.132.133.29.284.448.425l.027.018.017.018c.106.097.203.194.308.292l.009.017c.185.169.36.337.554.496h.009l.009.018c.123.106.246.221.37.327l.026.018.079.07.36.31.07.063.018.017.29.24.035.026.036.035c.088.071.176.15.281.23l.035.027.035.026c.08.063.15.124.22.186l.027.018.017.018c.264.221.546.433.827.646.062.053.123.097.185.142l.21.159a.53.53 0 01.115.088l.07.054.335.256.105.08c.053.044.115.08.167.124l.018.018.026.017c.08.062.167.124.255.186l.088.062c.203.15.414.292.625.443h.017l.018.026c.088.062.185.124.281.186l.07.044.23.15.246.17c.123.079.255.167.387.247.132.088.263.168.387.248h.316l.572.549.264.159c.176.106.352.203.527.3h.018l.018.019c.14.08.272.159.413.239.739.424 1.486.823 2.242 1.195.168.08.335.168.493.247.026.018.053.027.07.036.159.07.308.15.466.221.475.221.96.443 1.425.646h.017c.114.053.237.106.352.15.035.019.07.027.114.054.158.062.317.133.475.195.387.159.8.318 1.24.487h.018l.017.008c.132.053.273.106.405.15h.017l.018.01c.642.239 1.275.451 1.882.646h.017l.018.017c.123.045.246.08.37.124h.035c.184.062.37.115.554.177l.158.045.668.186c.124.035.238.062.343.097h.027c1.38.38 2.788.7 4.169.938h.035c.167.027.352.062.571.098h.027c.22.044.413.07.58.097h.053c.193.035.387.062.59.089h.017a50.234 50.234 0 0014.027.008h.053c.185-.035.37-.062.554-.088h.044l41.881-42.152s0-.053.009-.071l.052-.009z" fill="url(#paint23_linear_260_1168)"/><defs><linearGradient id="paint0_linear_260_1168" x1=".725" y1="123.3" x2="10.944" y2="123.3" gradientUnits="userSpaceOnUse"><stop/><stop offset=".33"/><stop offset=".52"/><stop offset=".73"/><stop offset="1"/></linearGradient><linearGradient id="paint1_linear_260_1168" x1="20.839" y1="123.3" x2="32.932" y2="123.3" gradientUnits="userSpaceOnUse"><stop/><stop offset=".33"/><stop offset=".52"/><stop offset=".73"/><stop offset="1"/></linearGradient><linearGradient id="paint2_linear_260_1168" x1="43.625" y1="123.3" x2="55.894" y2="123.3" gradientUnits="userSpaceOnUse"><stop/><stop offset=".33"/><stop offset=".52"/><stop offset=".73"/><stop offset="1"/></linearGradient><linearGradient id="paint3_linear_260_1168" x1="66.588" y1="123.3" x2="73.588" y2="123.3" gradientUnits="userSpaceOnUse"><stop/><stop offset=".33"/><stop offset=".52"/><stop offset=".73"/><stop offset="1"/></linearGradient><linearGradient id="paint4_linear_260_1168" x1="82.683" y1="123.3" x2="94.001" y2="123.3" gradientUnits="userSpaceOnUse"><stop/><stop offset=".33"/><stop offset=".52"/><stop offset=".73"/><stop offset="1"/></linearGradient><linearGradient id="paint5_linear_260_1168" x1="104.371" y1="123.3" x2="114.441" y2="123.3" gradientUnits="userSpaceOnUse"><stop/><stop offset=".33"/><stop offset=".52"/><stop offset=".73"/><stop offset="1"/></linearGradient><linearGradient id="paint6_linear_260_1168" x1="124.818" y1="123.3" x2="133.543" y2="123.3" gradientUnits="userSpaceOnUse"><stop/><stop offset=".33"/><stop offset=".52"/><stop offset=".73"/><stop offset="1"/></linearGradient><linearGradient id="paint7_linear_260_1168" x1=".707" y1="137.18" x2="4.295" y2="137.18" gradientUnits="userSpaceOnUse"><stop/><stop offset=".33"/><stop offset=".52"/><stop offset=".73"/><stop offset="1"/></linearGradient><linearGradient id="paint8_linear_260_1168" x1="8.094" y1="137.18" x2="12.465" y2="137.18" gradientUnits="userSpaceOnUse"><stop/><stop offset=".33"/><stop offset=".52"/><stop offset=".73"/><stop offset="1"/></linearGradient><linearGradient id="paint9_linear_260_1168" x1="17.031" y1="137.18" x2="20.69" y2="137.18" gradientUnits="userSpaceOnUse"><stop/><stop offset=".33"/><stop offset=".52"/><stop offset=".73"/><stop offset="1"/></linearGradient><linearGradient id="paint10_linear_260_1168" x1="25.922" y1="137.18" x2="29.194" y2="137.18" gradientUnits="userSpaceOnUse"><stop/><stop offset=".33"/><stop offset=".52"/><stop offset=".73"/><stop offset="1"/></linearGradient><linearGradient id="paint11_linear_260_1168" x1="34.242" y1="137.18" x2="35.016" y2="137.18" gradientUnits="userSpaceOnUse"><stop/><stop offset=".33"/><stop offset=".52"/><stop offset=".73"/><stop offset="1"/></linearGradient><linearGradient id="paint12_linear_260_1168" x1="40.414" y1="137.18" x2="44.257" y2="137.18" gradientUnits="userSpaceOnUse"><stop/><stop offset=".33"/><stop offset=".52"/><stop offset=".73"/><stop offset="1"/></linearGradient><linearGradient id="paint13_linear_260_1168" x1="49.658" y1="137.18" x2="52.939" y2="137.18" gradientUnits="userSpaceOnUse"><stop/><stop offset=".33"/><stop offset=".52"/><stop offset=".73"/><stop offset="1"/></linearGradient><linearGradient id="paint14_linear_260_1168" x1="63.853" y1="137.18" x2="67.512" y2="137.18" gradientUnits="userSpaceOnUse"><stop/><stop offset=".33"/><stop offset=".52"/><stop offset=".73"/><stop offset="1"/></linearGradient><linearGradient id="paint15_linear_260_1168" x1="72.569" y1="137.18" x2="76.228" y2="137.18" gradientUnits="userSpaceOnUse"><stop/><stop offset=".33"/><stop offset=".52"/><stop offset=".73"/><stop offset="1"/></linearGradient><linearGradient id="paint16_linear_260_1168" x1="81.451" y1="137.18" x2="84.723" y2="137.18" gradientUnits="userSpaceOnUse"><stop/><stop offset=".33"/><stop offset=".52"/><stop offset=".73"/><stop offset="1"/></linearGradient><linearGradient id="paint17_linear_260_1168" x1="89.332" y1="137.18" x2="93.087" y2="137.18" gradientUnits="userSpaceOnUse"><stop/><stop offset=".33"/><stop offset=".52"/><stop offset=".73"/><stop offset="1"/></linearGradient><linearGradient id="paint18_linear_260_1168" x1="104.273" y1="137.18" x2="107.853" y2="137.18" gradientUnits="userSpaceOnUse"><stop/><stop offset=".33"/><stop offset=".52"/><stop offset=".73"/><stop offset="1"/></linearGradient><linearGradient id="paint19_linear_260_1168" x1="113.254" y1="137.18" x2="116.534" y2="137.18" gradientUnits="userSpaceOnUse"><stop/><stop offset=".33"/><stop offset=".52"/><stop offset=".73"/><stop offset="1"/></linearGradient><linearGradient id="paint20_linear_260_1168" x1="121.582" y1="137.18" x2="125.329" y2="137.18" gradientUnits="userSpaceOnUse"><stop/><stop offset=".33"/><stop offset=".52"/><stop offset=".73"/><stop offset="1"/></linearGradient><linearGradient id="paint21_linear_260_1168" x1="130.289" y1="137.18" x2="133.561" y2="137.18" gradientUnits="userSpaceOnUse"><stop/><stop offset=".33"/><stop offset=".52"/><stop offset=".73"/><stop offset="1"/></linearGradient><linearGradient id="paint22_linear_260_1168" x1="17.012" y1="43.386" x2="102.259" y2="43.386" gradientUnits="userSpaceOnUse"><stop/><stop offset=".33"/><stop offset=".52"/><stop offset=".73"/><stop offset="1"/></linearGradient><linearGradient id="paint23_linear_260_1168" x1="32.008" y1="57.487" x2="117.255" y2="57.487" gradientUnits="userSpaceOnUse"><stop/><stop offset=".33"/><stop offset=".52"/><stop offset=".73"/><stop offset="1"/></linearGradient></defs></svg>