<svg width="150" height="139" fill="none" xmlns="http://www.w3.org/2000/svg"><path d="M45.398 97.046v-.018l-3.624-6.31-28.697-50.031H5.83l32.32 56.341v.018h7.247z" fill="url(#paint0_linear_260_1193)"/><path d="M74.35 97.046v-.018l-3.624-6.31-3.614-6.303-3.624-6.312-3.614-6.31-3.624-6.312-14.22-24.794h-7.24l17.836 31.105 3.623 6.311 3.624 6.312 3.614 6.302 3.624 6.311-.01.018h7.248z" fill="url(#paint1_linear_260_1193)"/><path d="M85.203 90.717l-3.615-6.302-3.623-6.312-3.615-6.31-3.623-6.312-3.615-6.303-3.623-6.31-6.983-12.181h-7.238L59.865 59.17l7.247 12.622 3.615 6.311 3.623 6.312 3.615 6.302 3.623 6.311-.009.018h7.248v-.018l-3.624-6.31z" fill="url(#paint2_linear_260_1193)"/><path d="M100.804.43h-7.238l-26.42 46.064 3.615 6.311L100.804.43z" fill="url(#paint3_linear_260_1193)"/><path d="M52.636 97.046h7.238v-.018l-3.623-6.31-3.615-6.303-3.623-6.312-21.46-37.416h-7.246l25.082 43.719 3.624 6.311 3.623 6.311-.009.018h.01z" fill="url(#paint4_linear_260_1193)"/><path d="M78 65.419L115.28.429h-7.238L74.385 59.108l.035.07 3.58 6.24z" fill="url(#paint5_linear_260_1193)"/><path d="M85.238 78.042L129.757.429h-7.238L81.623 71.721l.035.071 3.58 6.25z" fill="url(#paint6_linear_260_1193)"/><path d="M144.233.43h-7.238L88.861 84.343l.035.07 3.58 6.241L144.233.43z" fill="url(#paint7_linear_260_1193)"/><path d="M10.463 123.389a4.029 4.029 0 01-2.744 1.071 4.048 4.048 0 01-4.054-4.063 4.048 4.048 0 014.054-4.063c1.047 0 2.032.416 2.744 1.089l1.909-1.939a6.672 6.672 0 00-4.644-1.876c-3.72 0-6.746 3.045-6.746 6.789 0 3.744 3.026 6.789 6.746 6.789a6.696 6.696 0 004.644-1.876l-1.909-1.921z" fill="url(#paint8_linear_260_1193)"/><path d="M30.148 113.608c-3.72 0-6.746 3.045-6.746 6.789 0 3.744 3.026 6.789 6.746 6.789 3.72 0 6.746-3.045 6.746-6.789 0-3.744-3.026-6.789-6.746-6.789zm0 10.87c-2.243 0-4.055-1.824-4.055-4.081a4.048 4.048 0 014.055-4.063c2.243 0 4.037 1.823 4.037 4.063 0 2.239-1.812 4.081-4.037 4.081z" fill="url(#paint9_linear_260_1193)"/><path d="M55.66 123.53l-3.95-9.922h-2.9v13.578h2.69v-6.789l2.7 6.789h2.903l2.709-6.789v6.789h2.682v-13.578h-2.902l-3.931 9.922z" fill="url(#paint10_linear_260_1193)"/><path d="M78.193 113.608H74.42v13.578h2.691v-5.426h1.1c2.225 0 4.019-1.823 4.019-4.063 0-2.239-1.794-4.08-4.037-4.08v-.009zm0 5.426H77.11v-2.709h1.082a1.36 1.36 0 011.354 1.363c0 .753-.607 1.346-1.354 1.346z" fill="url(#paint11_linear_260_1193)"/><path d="M97.251 113.608l-4.872 13.578h2.867l1.372-3.797h4.142l1.372 3.797h2.867l-4.872-13.578h-2.876zm.334 7.055l1.082-3.063 1.1 3.063h-2.19.008z" fill="url(#paint12_linear_260_1193)"/><path d="M127.786 113.608h-2.683v9.064l-5.391-9.064h-3.157v13.578h2.691v-9.046l5.409 9.046h3.131v-13.578z" fill="url(#paint13_linear_260_1193)"/><path d="M145.569 127.186v-6.47l3.518-7.108h-3.007l-1.847 3.762-1.874-3.762h-3.007l3.526 7.108v6.47h2.691z" fill="url(#paint14_linear_260_1193)"/><path d="M.957 133.781h1.557v4.975h.87v-4.975H4.95v-.779H.957v.779z" fill="url(#paint15_linear_260_1193)"/><path d="M11.265 133.002l-2.076 5.754h.915l.44-1.284h2.163l.44 1.284h.915l-2.076-5.754h-.721zm-.466 3.691l.827-2.514h.017l.827 2.514h-1.671z" fill="url(#paint16_linear_260_1193)"/><path d="M21.212 136.41h1.161v.301c0 .363-.114.655-.334.877a1.11 1.11 0 01-.836.345 1.01 1.01 0 01-.527-.133.913.913 0 01-.36-.292.923.923 0 01-.22-.487c-.045-.203-.062-.584-.062-1.151 0-.566.017-.947.061-1.159.036-.195.115-.354.22-.478a.987.987 0 01.36-.292c.15-.08.326-.115.528-.124.282 0 .51.088.704.239.185.159.317.363.387.593h.915a2.151 2.151 0 00-.66-1.213c-.352-.327-.8-.487-1.346-.496-.448 0-.826.115-1.125.328a1.959 1.959 0 00-.669.708c-.088.142-.15.319-.193.549-.035.23-.062.673-.062 1.345 0 .673.018 1.107.062 1.337a1.2 1.2 0 00.079.31c.035.079.07.159.114.248.141.265.36.495.669.699.299.212.677.319 1.125.327a2.035 2.035 0 001.452-.593 2.06 2.06 0 00.589-1.451v-1.169h-2.032v.832z" fill="url(#paint17_linear_260_1193)"/><path d="M29.935 133.002h-.87v5.754h3.65v-.823h-2.78v-4.931z" fill="url(#paint18_linear_260_1193)"/><path d="M39.222 133.002h-.87v5.754h.87v-5.754z" fill="url(#paint19_linear_260_1193)"/><path d="M48.66 137.092h-.018l-2.595-4.09h-.809v5.754h.862v-4.09h.018l2.585 4.09h.818v-5.754h-.862v4.09z" fill="url(#paint20_linear_260_1193)"/><path d="M55.545 138.756h3.65v-.823h-2.78v-1.691h2.375v-.779h-2.374v-1.638h2.779v-.823h-3.65v5.754z" fill="url(#paint21_linear_260_1193)"/><path d="M73.425 136.41h1.161v.301c0 .363-.114.655-.334.877a1.11 1.11 0 01-.836.345 1.01 1.01 0 01-.527-.133.911.911 0 01-.36-.292.923.923 0 01-.22-.487c-.045-.203-.062-.584-.062-1.151 0-.566.017-.947.061-1.159.035-.195.115-.354.22-.478a.985.985 0 01.36-.292c.15-.08.326-.115.528-.124.273 0 .51.088.704.239.185.159.317.363.387.593h.914a2.15 2.15 0 00-.66-1.213c-.35-.327-.8-.487-1.345-.496-.448 0-.826.115-1.125.328a1.96 1.96 0 00-.669.708c-.088.142-.15.319-.193.549-.035.23-.062.673-.062 1.345 0 .673.018 1.107.062 1.337a1.2 1.2 0 00.079.31c.035.079.07.159.114.248.14.265.36.495.669.699.299.212.677.319 1.125.327a2.035 2.035 0 001.452-.593 2.06 2.06 0 00.589-1.451v-1.169h-2.032v.832z" fill="url(#paint22_linear_260_1193)"/><path d="M84.92 133.985c-.132-.266-.351-.505-.65-.709-.3-.212-.686-.318-1.135-.327-.448 0-.827.115-1.126.327a1.954 1.954 0 00-.668.709c-.088.141-.15.318-.194.548-.035.231-.061.673-.061 1.346s.017 1.106.061 1.337c.018.123.044.23.08.309.035.08.07.16.114.248.14.266.36.496.668.699.3.213.678.319 1.126.328.457-.009.836-.124 1.135-.328.299-.203.519-.433.65-.699.097-.141.168-.327.203-.557.035-.231.052-.673.052-1.337 0-.664-.017-1.115-.052-1.346a1.291 1.291 0 00-.203-.548zm-.677 3.036a1.094 1.094 0 01-.228.487 1.122 1.122 0 01-.343.292c-.15.088-.335.133-.537.133s-.378-.045-.528-.133a.913.913 0 01-.36-.292.927.927 0 01-.22-.487c-.044-.204-.062-.584-.062-1.151 0-.566.018-.947.062-1.16a1 1 0 01.22-.478.997.997 0 01.36-.292c.15-.079.326-.115.528-.124.202 0 .387.045.537.124.14.08.255.177.343.292a.94.94 0 01.228.478c.035.204.062.594.062 1.16 0 .567-.018.947-.062 1.151z" fill="url(#paint23_linear_260_1193)"/><path d="M90.998 138.756h3.65v-.823h-2.78v-1.691h2.375v-.779H91.87v-1.638h2.779v-.823h-3.65v5.754z" fill="url(#paint24_linear_260_1193)"/><path d="M102.404 135.472c-.273-.036-.484-.062-.642-.089-.281-.053-.484-.15-.616-.283a.619.619 0 01-.193-.452c0-.274.097-.486.29-.619.176-.133.396-.204.669-.204.518.009.985.16 1.416.443l.483-.717c-.527-.381-1.143-.584-1.855-.593-.59 0-1.047.159-1.373.469-.334.31-.501.717-.501 1.213 0 .416.132.77.396 1.062.255.283.633.469 1.126.549.272.035.527.07.756.106.501.088.748.345.748.77-.009.522-.387.788-1.126.797-.625 0-1.17-.195-1.627-.576l-.572.655c.607.523 1.337.788 2.181.788 1.311-.018 1.979-.575 2.006-1.673 0-.407-.124-.761-.379-1.071-.255-.31-.651-.505-1.187-.584v.009z" fill="url(#paint25_linear_260_1193)"/><path d="M119.571 135.463h-2.26v-2.461h-.862v5.754h.862v-2.514h2.26v2.514h.871v-5.754h-.871v2.461z" fill="url(#paint26_linear_260_1193)"/><path d="M126.467 138.756h3.65v-.823h-2.788v-1.691h2.383v-.779h-2.383v-1.638h2.788v-.823h-3.65v5.754z" fill="url(#paint27_linear_260_1193)"/><path d="M139.711 134.604c-.018-.531-.203-.938-.572-1.23-.299-.248-.686-.381-1.161-.381h-2.234v5.754h.871v-2.461h1.108l1.178 2.461h1.029l-1.328-2.549c.73-.284 1.091-.815 1.109-1.594zm-3.096.912v-1.744h1.354c.273 0 .493.062.633.177.185.133.282.354.291.655a.89.89 0 01-.238.629c-.158.186-.404.274-.73.283h-1.31z" fill="url(#paint28_linear_260_1193)"/><path d="M145.463 138.756h3.65v-.823h-2.788v-1.691h2.383v-.779h-2.383v-1.638h2.788v-.823h-3.65v5.754z" fill="url(#paint29_linear_260_1193)"/><defs><linearGradient id="paint0_linear_260_1193" x1="5.83" y1="68.862" x2="45.398" y2="68.862" gradientUnits="userSpaceOnUse"><stop/><stop offset=".33"/><stop offset=".52"/><stop offset=".73"/><stop offset="1"/></linearGradient><linearGradient id="paint1_linear_260_1193" x1="34.791" y1="68.862" x2="74.35" y2="68.862" gradientUnits="userSpaceOnUse"><stop/><stop offset=".33"/><stop offset=".52"/><stop offset=".73"/><stop offset="1"/></linearGradient><linearGradient id="paint2_linear_260_1193" x1="49.268" y1="68.862" x2="88.826" y2="68.862" gradientUnits="userSpaceOnUse"><stop/><stop offset=".33"/><stop offset=".52"/><stop offset=".73"/><stop offset="1"/></linearGradient><linearGradient id="paint3_linear_260_1193" x1="67.147" y1="26.613" x2="100.804" y2="26.613" gradientUnits="userSpaceOnUse"><stop/><stop offset=".33"/><stop offset=".52"/><stop offset=".73"/><stop offset="1"/></linearGradient><linearGradient id="paint4_linear_260_1193" x1="20.307" y1="68.862" x2="59.874" y2="68.862" gradientUnits="userSpaceOnUse"><stop/><stop offset=".33"/><stop offset=".52"/><stop offset=".73"/><stop offset="1"/></linearGradient><linearGradient id="paint5_linear_260_1193" x1="74.385" y1="32.924" x2="115.28" y2="32.924" gradientUnits="userSpaceOnUse"><stop/><stop offset=".33"/><stop offset=".52"/><stop offset=".73"/><stop offset="1"/></linearGradient><linearGradient id="paint6_linear_260_1193" x1="81.623" y1="39.235" x2="129.757" y2="39.235" gradientUnits="userSpaceOnUse"><stop/><stop offset=".33"/><stop offset=".52"/><stop offset=".73"/><stop offset="1"/></linearGradient><linearGradient id="paint7_linear_260_1193" x1="88.861" y1="45.547" x2="144.233" y2="45.547" gradientUnits="userSpaceOnUse"><stop/><stop offset=".33"/><stop offset=".52"/><stop offset=".73"/><stop offset="1"/></linearGradient><linearGradient id="paint8_linear_260_1193" x1=".974" y1="120.397" x2="12.363" y2="120.397" gradientUnits="userSpaceOnUse"><stop/><stop offset=".33"/><stop offset=".52"/><stop offset=".73"/><stop offset="1"/></linearGradient><linearGradient id="paint9_linear_260_1193" x1="23.402" y1="120.397" x2="36.894" y2="120.397" gradientUnits="userSpaceOnUse"><stop/><stop offset=".33"/><stop offset=".52"/><stop offset=".73"/><stop offset="1"/></linearGradient><linearGradient id="paint10_linear_260_1193" x1="48.809" y1="120.397" x2="62.493" y2="120.397" gradientUnits="userSpaceOnUse"><stop/><stop offset=".33"/><stop offset=".52"/><stop offset=".73"/><stop offset="1"/></linearGradient><linearGradient id="paint11_linear_260_1193" x1="74.42" y1="120.397" x2="82.23" y2="120.397" gradientUnits="userSpaceOnUse"><stop/><stop offset=".33"/><stop offset=".52"/><stop offset=".73"/><stop offset="1"/></linearGradient><linearGradient id="paint12_linear_260_1193" x1="92.379" y1="120.397" x2="104.991" y2="120.397" gradientUnits="userSpaceOnUse"><stop/><stop offset=".33"/><stop offset=".52"/><stop offset=".73"/><stop offset="1"/></linearGradient><linearGradient id="paint13_linear_260_1193" x1="116.555" y1="120.397" x2="127.786" y2="120.397" gradientUnits="userSpaceOnUse"><stop/><stop offset=".33"/><stop offset=".52"/><stop offset=".73"/><stop offset="1"/></linearGradient><linearGradient id="paint14_linear_260_1193" x1="139.352" y1="120.397" x2="149.087" y2="120.397" gradientUnits="userSpaceOnUse"><stop/><stop offset=".33"/><stop offset=".52"/><stop offset=".73"/><stop offset="1"/></linearGradient><linearGradient id="paint15_linear_260_1193" x1=".957" y1="135.879" x2="4.95" y2="135.879" gradientUnits="userSpaceOnUse"><stop/><stop offset=".33"/><stop offset=".52"/><stop offset=".73"/><stop offset="1"/></linearGradient><linearGradient id="paint16_linear_260_1193" x1="9.189" y1="135.879" x2="14.07" y2="135.879" gradientUnits="userSpaceOnUse"><stop/><stop offset=".33"/><stop offset=".52"/><stop offset=".73"/><stop offset="1"/></linearGradient><linearGradient id="paint17_linear_260_1193" x1="19.154" y1="135.879" x2="23.235" y2="135.879" gradientUnits="userSpaceOnUse"><stop/><stop offset=".33"/><stop offset=".52"/><stop offset=".73"/><stop offset="1"/></linearGradient><linearGradient id="paint18_linear_260_1193" x1="29.064" y1="135.879" x2="32.714" y2="135.879" gradientUnits="userSpaceOnUse"><stop/><stop offset=".33"/><stop offset=".52"/><stop offset=".73"/><stop offset="1"/></linearGradient><linearGradient id="paint19_linear_260_1193" x1="38.352" y1="135.879" x2="39.213" y2="135.879" gradientUnits="userSpaceOnUse"><stop/><stop offset=".33"/><stop offset=".52"/><stop offset=".73"/><stop offset="1"/></linearGradient><linearGradient id="paint20_linear_260_1193" x1="45.238" y1="135.879" x2="49.521" y2="135.879" gradientUnits="userSpaceOnUse"><stop/><stop offset=".33"/><stop offset=".52"/><stop offset=".73"/><stop offset="1"/></linearGradient><linearGradient id="paint21_linear_260_1193" x1="55.545" y1="135.879" x2="59.195" y2="135.879" gradientUnits="userSpaceOnUse"><stop/><stop offset=".33"/><stop offset=".52"/><stop offset=".73"/><stop offset="1"/></linearGradient><linearGradient id="paint22_linear_260_1193" x1="71.376" y1="135.879" x2="75.457" y2="135.879" gradientUnits="userSpaceOnUse"><stop/><stop offset=".33"/><stop offset=".52"/><stop offset=".73"/><stop offset="1"/></linearGradient><linearGradient id="paint23_linear_260_1193" x1="81.086" y1="135.879" x2="85.167" y2="135.879" gradientUnits="userSpaceOnUse"><stop/><stop offset=".33"/><stop offset=".52"/><stop offset=".73"/><stop offset="1"/></linearGradient><linearGradient id="paint24_linear_260_1193" x1="90.998" y1="135.879" x2="94.648" y2="135.879" gradientUnits="userSpaceOnUse"><stop/><stop offset=".33"/><stop offset=".52"/><stop offset=".73"/><stop offset="1"/></linearGradient><linearGradient id="paint25_linear_260_1193" x1="99.783" y1="135.879" x2="103.97" y2="135.879" gradientUnits="userSpaceOnUse"><stop/><stop offset=".33"/><stop offset=".52"/><stop offset=".73"/><stop offset="1"/></linearGradient><linearGradient id="paint26_linear_260_1193" x1="116.449" y1="135.879" x2="120.442" y2="135.879" gradientUnits="userSpaceOnUse"><stop/><stop offset=".33"/><stop offset=".52"/><stop offset=".73"/><stop offset="1"/></linearGradient><linearGradient id="paint27_linear_260_1193" x1="126.467" y1="135.879" x2="130.117" y2="135.879" gradientUnits="userSpaceOnUse"><stop/><stop offset=".33"/><stop offset=".52"/><stop offset=".73"/><stop offset="1"/></linearGradient><linearGradient id="paint28_linear_260_1193" x1="135.744" y1="135.879" x2="139.93" y2="135.879" gradientUnits="userSpaceOnUse"><stop/><stop offset=".33"/><stop offset=".52"/><stop offset=".73"/><stop offset="1"/></linearGradient><linearGradient id="paint29_linear_260_1193" x1="145.463" y1="135.879" x2="149.113" y2="135.879" gradientUnits="userSpaceOnUse"><stop/><stop offset=".33"/><stop offset=".52"/><stop offset=".73"/><stop offset="1"/></linearGradient></defs></svg>