<svg width="126" height="138" fill="none" xmlns="http://www.w3.org/2000/svg"><path d="M38.262 34.384h1.812v29.865l8.188-8.24V26.142H19.626l-.009 58.696 8.188-8.241V34.384h10.457z" fill="url(#paint0_linear_260_1246)"/><path d="M70.53 66.852h1.802V79.2H34.55l-8.179 8.241 54.15-.009V58.611H55.015l-8.188 8.24h23.701z" fill="url(#paint1_linear_260_1246)"/><path d="M98.067 33.038v1.823H78.613l-8.18 8.233h35.813V7.048l-8.18 8.232v17.757z" fill="url(#paint2_linear_260_1246)"/><path d="M95.47 8.483l8.19-8.232H63.678v40.231l8.179-8.232V8.483H95.47z" fill="url(#paint3_linear_260_1246)"/><path d="M.559 132.435H2.08v4.824h.844v-4.824h1.513v-.753H.559v.753z" fill="url(#paint4_linear_260_1246)"/><path d="M12.193 136.011h2.102l.431 1.248h.888l-2.014-5.577h-.703l-2.014 5.577h.888l.422-1.248zm1.047-3.187h.017l.8 2.434H12.44l.8-2.434z" fill="url(#paint5_linear_260_1246)"/><path d="M23.996 132.886a.935.935 0 01.352-.283c.14-.071.307-.116.51-.116.272 0 .492.08.686.231.176.159.308.345.37.575h.887a2.078 2.078 0 00-.642-1.177c-.334-.31-.774-.469-1.31-.478-.44 0-.8.106-1.09.31-.3.203-.51.433-.643.69-.079.133-.15.31-.184.531-.035.221-.053.655-.053 1.301 0 .646.017 1.071.053 1.293.017.124.044.221.079.301.035.079.07.159.114.239.132.256.352.486.642.681.29.204.651.31 1.09.319.564-.009 1.038-.204 1.408-.576.37-.38.563-.84.572-1.407v-1.133h-1.97v.797h1.125v.292c0 .345-.114.628-.325.841a1.078 1.078 0 01-.81.336c-.193 0-.369-.044-.51-.124a1.02 1.02 0 01-.351-.283.972.972 0 01-.22-.469c-.044-.195-.062-.567-.062-1.116 0-.548.018-.92.062-1.124a.866.866 0 01.22-.46v.009z" fill="url(#paint6_linear_260_1246)"/><path d="M36.775 131.682v5.577h3.545v-.797h-2.7v-4.78h-.845z" fill="url(#paint7_linear_260_1246)"/><path d="M48.949 131.682h-.836v5.577h.836v-5.577z" fill="url(#paint8_linear_260_1246)"/><path d="M60.415 135.648l-2.506-3.966h-.792v5.577h.845v-3.966h.017l2.498 3.966h.8v-5.577h-.844v3.966h-.018z" fill="url(#paint9_linear_260_1246)"/><path d="M72.983 132.479v-.797h-3.536v5.577h3.536v-.797h-2.691v-1.637h2.304v-.753h-2.304v-1.593h2.69z" fill="url(#paint10_linear_260_1246)"/><path d="M90.442 137.259v-5.577h-.836v2.39h-2.198v-2.39h-.836v5.577h.836v-2.434h2.198v2.434h.836z" fill="url(#paint11_linear_260_1246)"/><path d="M102.157 132.479v-.797h-3.536v5.577h3.536v-.797h-2.7v-1.637h2.304v-.753h-2.304v-1.593h2.7z" fill="url(#paint12_linear_260_1246)"/><path d="M112.718 134.78c.703-.274 1.064-.779 1.073-1.54-.018-.513-.203-.912-.546-1.186-.299-.239-.668-.363-1.134-.363h-2.164v5.577h.836v-2.39h1.073l1.143 2.39h1.003l-1.284-2.479v-.009zm-1.935-.655v-1.691h1.319c.273 0 .475.054.616.169.184.124.272.336.281.628a.889.889 0 01-.229.611c-.158.177-.395.265-.703.274h-1.275l-.009.009z" fill="url(#paint13_linear_260_1246)"/><path d="M121.697 137.259h3.545v-.797h-2.7v-1.637h2.304v-.753h-2.304v-1.593h2.7v-.797h-3.545v5.577z" fill="url(#paint14_linear_260_1246)"/><path d="M8.554 121.281c-.431.841-1.126 1.266-2.084 1.266-.959 0-1.707-.301-2.252-.903-.545-.602-.818-1.407-.818-2.407 0-1.001.273-1.806.818-2.408.545-.602 1.302-.903 2.252-.903.95 0 1.653.425 2.084 1.257h3.324c-.387-1.204-1.081-2.142-2.066-2.815-.985-.673-2.12-1.018-3.386-1.018-1.636 0-3.026.558-4.16 1.664-1.135 1.107-1.698 2.514-1.698 4.223 0 1.708.563 3.107 1.698 4.222 1.134 1.106 2.524 1.664 4.16 1.664 1.266 0 2.4-.336 3.386-1.018.985-.673 1.68-1.62 2.066-2.815H8.554v-.009z" fill="url(#paint15_linear_260_1246)"/><path d="M31.208 119.237c0-1.7-.563-3.107-1.689-4.223-1.126-1.106-2.506-1.664-4.15-1.664-1.645 0-3.035.558-4.17 1.664-1.134 1.107-1.697 2.514-1.697 4.223 0 1.708.563 3.115 1.697 4.222 1.135 1.115 2.524 1.673 4.16 1.673 1.636 0 3.026-.558 4.151-1.673 1.126-1.115 1.689-2.523 1.689-4.222h.009zm-3.65 2.407c-.545.602-1.284.903-2.199.903-.914 0-1.653-.301-2.198-.903-.546-.602-.818-1.407-.818-2.407 0-1.001.272-1.806.818-2.408.545-.602 1.284-.903 2.198-.903.915 0 1.654.301 2.199.903.545.602.818 1.407.818 2.408 0 1-.273 1.805-.818 2.407z" fill="url(#paint16_linear_260_1246)"/><path d="M52.447 113.518h-3.184l-3.271 7.931-3.29-7.931H39.51v11.499h2.788v-6.489l2.647 6.489h2.067l2.656-6.489v6.489h2.779v-11.499z" fill="url(#paint17_linear_260_1246)"/><path d="M64.19 120.547h1.723c.791 0 1.478-.115 2.058-.354.58-.239 1.02-.54 1.31-.912.554-.717.827-1.47.827-2.248 0-.974-.37-1.806-1.108-2.488-.739-.69-1.768-1.035-3.096-1.035h-4.511v11.498h2.779v-4.47l.017.009zm0-4.895h1.723c.413 0 .739.132.994.389.246.266.378.602.378 1.009 0 .407-.123.744-.37.992-.246.247-.58.38-1.002.38h-1.724v-2.77z" fill="url(#paint18_linear_260_1246)"/><path d="M84.583 113.483h-3.386l-3.966 11.534h2.963l.633-1.939h4.099l.642 1.939h2.972l-3.948-11.534h-.01zm-3.06 7.471l1.354-4.09 1.354 4.09h-2.709z" fill="url(#paint19_linear_260_1246)"/><path d="M106.632 125.017v-11.534h-2.78v7.258l-4.652-7.258h-2.788v11.534H99.2v-7.259l4.652 7.259h2.78z" fill="url(#paint20_linear_260_1246)"/><path d="M119.965 118.705l-2.198-5.187h-3.158l3.958 7.798v3.701h2.779v-3.701l3.958-7.798h-3.158l-2.181 5.187z" fill="url(#paint21_linear_260_1246)"/><defs><linearGradient id="paint0_linear_260_1246" x1="5.044" y1="70.162" x2="48.798" y2="26.691" gradientUnits="userSpaceOnUse"><stop/><stop offset=".33"/><stop offset=".52"/><stop offset=".73"/><stop offset="1"/></linearGradient><linearGradient id="paint1_linear_260_1246" x1="39.906" y1="101.064" x2="81.571" y2="59.668" gradientUnits="userSpaceOnUse"><stop/><stop offset=".33"/><stop offset=".52"/><stop offset=".73"/><stop offset="1"/></linearGradient><linearGradient id="paint2_linear_260_1246" x1="79.387" y1="52.105" x2="115.43" y2="16.293" gradientUnits="userSpaceOnUse"><stop/><stop offset=".33"/><stop offset=".52"/><stop offset=".73"/><stop offset="1"/></linearGradient><linearGradient id="paint3_linear_260_1246" x1="53.687" y1="30.427" x2="93.918" y2="-9.553" gradientUnits="userSpaceOnUse"><stop/><stop offset=".33"/><stop offset=".52"/><stop offset=".73"/><stop offset="1"/></linearGradient><linearGradient id="paint4_linear_260_1246" x1="2.502" y1="143.747" x2="2.502" y2="-23.091" gradientUnits="userSpaceOnUse"><stop/><stop offset=".33"/><stop offset=".52"/><stop offset=".73"/><stop offset="1"/></linearGradient><linearGradient id="paint5_linear_260_1246" x1="13.249" y1="153.741" x2="13.249" y2="11.351" gradientUnits="userSpaceOnUse"><stop/><stop offset=".33"/><stop offset=".52"/><stop offset=".73"/><stop offset="1"/></linearGradient><linearGradient id="paint6_linear_260_1246" x1="24.858" y1="171.241" x2="24.858" y2="15.697" gradientUnits="userSpaceOnUse"><stop/><stop offset=".33"/><stop offset=".52"/><stop offset=".73"/><stop offset="1"/></linearGradient><linearGradient id="paint7_linear_260_1246" x1="38.543" y1="199.938" x2="38.543" y2="18.309" gradientUnits="userSpaceOnUse"><stop/><stop offset=".33"/><stop offset=".52"/><stop offset=".73"/><stop offset="1"/></linearGradient><linearGradient id="paint8_linear_260_1246" x1="48.535" y1="282.437" x2="48.535" y2="-48.345" gradientUnits="userSpaceOnUse"><stop/><stop offset=".33"/><stop offset=".52"/><stop offset=".73"/><stop offset="1"/></linearGradient><linearGradient id="paint9_linear_260_1246" x1="59.202" y1="201.912" x2="59.202" y2="75.996" gradientUnits="userSpaceOnUse"><stop/><stop offset=".33"/><stop offset=".52"/><stop offset=".73"/><stop offset="1"/></linearGradient><linearGradient id="paint10_linear_260_1246" x1="71.215" y1="224.839" x2="71.215" y2="82.546" gradientUnits="userSpaceOnUse"><stop/><stop offset=".33"/><stop offset=".52"/><stop offset=".73"/><stop offset="1"/></linearGradient><linearGradient id="paint11_linear_260_1246" x1="88.507" y1="235.903" x2="88.507" y2="103.003" gradientUnits="userSpaceOnUse"><stop/><stop offset=".33"/><stop offset=".52"/><stop offset=".73"/><stop offset="1"/></linearGradient><linearGradient id="paint12_linear_260_1246" x1="100.389" y1="257.068" x2="100.389" y2="114.775" gradientUnits="userSpaceOnUse"><stop/><stop offset=".33"/><stop offset=".52"/><stop offset=".73"/><stop offset="1"/></linearGradient><linearGradient id="paint13_linear_260_1246" x1="111.979" y1="270.212" x2="111.979" y2="128.133" gradientUnits="userSpaceOnUse"><stop/><stop offset=".33"/><stop offset=".52"/><stop offset=".73"/><stop offset="1"/></linearGradient><linearGradient id="paint14_linear_260_1246" x1="123.474" y1="284.252" x2="123.474" y2="141.959" gradientUnits="userSpaceOnUse"><stop/><stop offset=".33"/><stop offset=".52"/><stop offset=".73"/><stop offset="1"/></linearGradient><linearGradient id="paint15_linear_260_1246" x1="6.215" y1="132.399" x2="6.215" y2="13.086" gradientUnits="userSpaceOnUse"><stop/><stop offset=".33"/><stop offset=".52"/><stop offset=".73"/><stop offset="1"/></linearGradient><linearGradient id="paint16_linear_260_1246" x1="25.359" y1="150.917" x2="25.359" y2="32.551" gradientUnits="userSpaceOnUse"><stop/><stop offset=".33"/><stop offset=".52"/><stop offset=".73"/><stop offset="1"/></linearGradient><linearGradient id="paint17_linear_260_1246" x1="45.983" y1="158.786" x2="45.983" y2="68.613" gradientUnits="userSpaceOnUse"><stop/><stop offset=".33"/><stop offset=".52"/><stop offset=".73"/><stop offset="1"/></linearGradient><linearGradient id="paint18_linear_260_1246" x1="65.755" y1="198.531" x2="65.755" y2="66.232" gradientUnits="userSpaceOnUse"><stop/><stop offset=".33"/><stop offset=".52"/><stop offset=".73"/><stop offset="1"/></linearGradient><linearGradient id="paint19_linear_260_1246" x1="82.877" y1="209.622" x2="82.877" y2="86.405" gradientUnits="userSpaceOnUse"><stop/><stop offset=".33"/><stop offset=".52"/><stop offset=".73"/><stop offset="1"/></linearGradient><linearGradient id="paint20_linear_260_1246" x1="101.522" y1="217.792" x2="101.522" y2="108.057" gradientUnits="userSpaceOnUse"><stop/><stop offset=".33"/><stop offset=".52"/><stop offset=".73"/><stop offset="1"/></linearGradient><linearGradient id="paint21_linear_260_1246" x1="119.957" y1="257.085" x2="119.957" y2="127.168" gradientUnits="userSpaceOnUse"><stop/><stop offset=".33"/><stop offset=".52"/><stop offset=".73"/><stop offset="1"/></linearGradient></defs></svg>