<svg width="118" height="137" fill="none" xmlns="http://www.w3.org/2000/svg"><path d="M1.538 136.755h.8v-4.541h1.425v-.708H.113v.708h1.425v4.541z" fill="url(#paint0_linear_260_1270)"/><path d="M12.39 131.506h-.66l-1.89 5.249h.835l.396-1.168h1.979l.404 1.168h.836l-1.89-5.249h-.01zm-1.09 3.373l.756-2.293h.009l.756 2.293h-1.53.009z" fill="url(#paint1_linear_260_1270)"/><path d="M22.18 132.64c.088-.106.194-.195.326-.275.132-.07.29-.106.483-.115a.99.99 0 01.642.222c.168.15.29.327.352.54h.836a2.014 2.014 0 00-.598-1.107c-.317-.292-.73-.443-1.232-.451-.413 0-.756.106-1.029.292a1.749 1.749 0 00-.606.646 1.33 1.33 0 00-.176.504c-.035.204-.053.611-.053 1.222s.018 1.009.053 1.222c.017.115.044.203.07.283.035.071.062.15.106.23.123.239.325.46.607.637.272.195.615.292 1.029.301.527-.009.976-.195 1.319-.54.351-.354.527-.796.536-1.319v-1.071H22.99v.753h1.064v.274c0 .328-.106.593-.308.797a1.013 1.013 0 01-.765.318.952.952 0 01-.484-.115.873.873 0 01-.325-.265.86.86 0 01-.203-.443c-.035-.186-.061-.531-.061-1.044 0-.514.017-.868.061-1.054a.941.941 0 01.203-.433l.008-.009z" fill="url(#paint2_linear_260_1270)"/><path d="M34.71 131.506v5.249h3.325v-.752h-2.541v-4.497h-.783z" fill="url(#paint3_linear_260_1270)"/><path d="M46.172 131.506h-.791v5.249h.791v-5.249z" fill="url(#paint4_linear_260_1270)"/><path d="M53.857 131.506v5.249h.792v-3.726h.017l2.358 3.726h.747v-5.249h-.791v3.736h-.018l-2.357-3.736h-.748z" fill="url(#paint5_linear_260_1270)"/><path d="M68.8 132.259v-.753h-3.333v5.249H68.8v-.752h-2.542v-1.54h2.173v-.708h-2.173v-1.496H68.8z" fill="url(#paint6_linear_260_1270)"/><path d="M84.736 136.755v-5.249h-.792v2.249h-2.067v-2.249h-.791v5.249h.791v-2.292h2.067v2.292h.792z" fill="url(#paint7_linear_260_1270)"/><path d="M95.765 132.259v-.753h-3.333v5.249h3.333v-.752h-2.542v-1.54h2.164v-.708h-2.164v-1.496h2.542z" fill="url(#paint8_linear_260_1270)"/><path d="M105.713 134.427c.659-.256 1.002-.743 1.011-1.451-.018-.487-.185-.859-.519-1.124-.281-.231-.633-.346-1.064-.346h-2.032v5.249h.792v-2.239h1.011l1.082 2.239h.941l-1.214-2.328h-.008zm-1.812-.619v-1.594h1.24c.255 0 .448.054.58.169.167.124.255.318.264.593a.81.81 0 01-.22.575c-.14.168-.369.257-.659.257h-1.205z" fill="url(#paint9_linear_260_1270)"/><path d="M117.497 132.259v-.753h-3.333v5.249h3.333v-.752h-2.541v-1.54h2.172v-.708h-2.172v-1.496h2.541z" fill="url(#paint10_linear_260_1270)"/><path d="M5.628 125.319c1.196 0 2.26-.318 3.183-.956.932-.637 1.575-1.522 1.944-2.655H7.633c-.405.788-1.064 1.186-1.962 1.186-.897 0-1.609-.283-2.119-.85-.519-.566-.774-1.319-.774-2.266 0-.947.255-1.7.774-2.266.519-.567 1.222-.85 2.12-.85.897 0 1.556.399 1.96 1.186h3.123c-.37-1.133-1.02-2.018-1.944-2.655-.932-.638-1.996-.956-3.183-.956-1.54 0-2.85.522-3.914 1.567-1.064 1.044-1.6 2.363-1.6 3.974 0 1.611.536 2.93 1.6 3.974 1.064 1.045 2.374 1.567 3.914 1.567z" fill="url(#paint11_linear_260_1270)"/><path d="M28.968 119.787c0-1.602-.528-2.93-1.583-3.975-1.055-1.044-2.357-1.566-3.905-1.566-1.548 0-2.858.522-3.922 1.566-1.064 1.045-1.601 2.364-1.601 3.975 0 1.611.537 2.93 1.6 3.983 1.065 1.045 2.375 1.576 3.914 1.576 1.54 0 2.841-.523 3.905-1.576 1.064-1.044 1.592-2.372 1.592-3.983zm-3.439 2.266c-.519.566-1.205.85-2.067.85-.861 0-1.556-.284-2.066-.85-.52-.567-.774-1.319-.774-2.266 0-.947.255-1.7.774-2.266.519-.567 1.205-.85 2.066-.85.862 0 1.557.283 2.067.85.52.566.774 1.319.774 2.266 0 .947-.255 1.699-.774 2.266z" fill="url(#paint12_linear_260_1270)"/><path d="M48.968 114.405H45.96l-3.078 7.462-3.096-7.462h-2.999v10.826h2.621v-6.108l2.498 6.108h1.943l2.498-6.108v6.108h2.62v-10.826z" fill="url(#paint13_linear_260_1270)"/><path d="M60.013 121.017h1.627c.748 0 1.39-.106 1.935-.327.546-.222.959-.505 1.232-.859.519-.682.782-1.381.782-2.116 0-.911-.352-1.699-1.037-2.345-.695-.646-1.663-.974-2.912-.974h-4.247v10.826h2.62v-4.214.009zm0-4.612h1.627c.387 0 .704.124.933.372.237.248.352.567.352.947 0 .381-.115.7-.343.93-.23.239-.546.354-.942.354h-1.627v-2.603z" fill="url(#paint14_linear_260_1270)"/><path d="M76.029 114.369l-3.738 10.862h2.788l.598-1.824h3.86l.599 1.824h2.806l-3.72-10.862h-3.194zm.308 7.038l1.275-3.86 1.275 3.86h-2.55z" fill="url(#paint15_linear_260_1270)"/><path d="M99.979 125.231v-10.862h-2.621v6.834l-4.38-6.834h-2.62v10.862h2.62v-6.834l4.38 6.834h2.62z" fill="url(#paint16_linear_260_1270)"/><path d="M111.208 121.743v3.488h2.621v-3.488l3.729-7.338h-2.972l-2.058 4.886-2.067-4.886h-2.973l3.72 7.338z" fill="url(#paint17_linear_260_1270)"/><path d="M65.995 14.008a30.726 30.726 0 013.948 7.675c1.196.159 2.384.38 3.536.655.193.044.387.097.58.141.044.01.097.027.141.036.246.062.492.132.739.203h.009c.237.062.475.133.703.213.202.062.405.124.607.194l.624.213c.194.062.387.133.58.212.194.071.379.142.572.222a32.86 32.86 0 013.263 1.478c.255.133.502.256.748.398a36.923 36.923 0 011.768 1.036 11.723 11.723 0 01.791.513c.176.115.352.23.52.354a35.202 35.202 0 015.575 4.78c.202.204.387.407.572.62.158.168.307.345.457.513.246.284.484.567.721.859.15.168.282.345.422.522.185.24.37.478.546.717.167.23.334.46.492.69.167.23.325.46.484.7.316.469.615.938.906 1.425.15.239.29.487.43.735a31.784 31.784 0 011.24 2.381c.106.221.212.442.308.664l.29.664c.089.194.168.39.247.593.07.185.15.363.22.548.176.46.351.93.501 1.399.097.275.185.549.264.823a25.6 25.6 0 01.237.832c.22.762.405 1.532.572 2.31.044.195.08.399.123.594.018.115.044.23.062.336l.079.46.105.655c.036.222.071.443.097.664.009.098.026.195.035.292l.053.487c.018.16.035.31.044.47.026.238.044.477.062.716l.052.85c.018.301.027.602.036.903 0 .301.008.602.008.903 0 19.438-15.716 35.256-35.03 35.256-.298 0-.606 0-.905-.008-.299 0-.598-.018-.897-.036-.29-.009-.59-.026-.88-.053h-.035c-.272-.018-.545-.044-.818-.07l-.703-.08c-.15-.018-.29-.036-.44-.053a12.96 12.96 0 01-.615-.089h-.053c-.211-.026-.414-.062-.616-.097a9.046 9.046 0 01-.519-.098c-.255-.044-.51-.097-.756-.15a34.63 34.63 0 01-4.785-1.39c-.246-.088-.492-.186-.747-.283-.334-.133-.668-.275-1.003-.416-.21-.089-.422-.177-.624-.275-.22-.097-.449-.212-.677-.318-.282-.142-.572-.275-.853-.425-.229-.124-.467-.24-.695-.372-.264-.15-.528-.292-.792-.451a31.773 31.773 0 01-.73-.434h-.017c-.449-.266-.88-.549-1.31-.841a.39.39 0 01-.097-.07l-.686-.479c-.229-.16-.458-.327-.678-.496a19.097 19.097 0 01-.668-.513c-.185-.142-.36-.283-.536-.434-.282-.23-.563-.469-.845-.708a29.693 29.693 0 01-1.161-1.071 38.13 38.13 0 01-.606-.593c-.387-.39-.766-.788-1.135-1.195-.193-.221-.396-.442-.58-.664a30.963 30.963 0 01-1.68-2.106 9.792 9.792 0 01-.352-.487c-.035-.053-.08-.107-.114-.16l-.422-.61c-.141-.204-.264-.399-.396-.602-.185-.284-.37-.576-.546-.868a36.987 36.987 0 01-.817-1.434 32.22 32.22 0 01-1.39-2.886c-.097-.23-.193-.451-.281-.681 0 0 0-.018-.01-.035-.07-.178-.14-.346-.201-.514l-.185-.478a11.182 11.182 0 01-.176-.504c-.088-.24-.167-.479-.246-.718a16.12 16.12 0 01-.229-.734.167.167 0 01-.018-.071c-.07-.23-.14-.478-.21-.717l-.212-.77a36.183 36.183 0 01-.51-2.355l-.132-.796a22.4 22.4 0 01-.114-.806 30.59 30.59 0 01-7.643-3.957c.396 23.2 19.208 41.887 42.356 41.887 23.148 0 42.364-19.084 42.364-42.639 0-23.555-18.627-42.294-41.731-42.63l.017-.07zM30.498 53.292l.08-.779c.026-.256.06-.522.096-.779.035-.256.07-.513.114-.77.035-.256.088-.513.132-.761.194-1.018.422-2.027.695-3.01.061-.239.14-.486.211-.734.053-.195.114-.381.176-.576.017-.08.044-.168.08-.239.07-.212.14-.425.219-.637.062-.186.123-.372.202-.558l.132-.345c.158-.416.317-.814.484-1.221.202-.47.404-.939.633-1.399.106-.221.211-.443.317-.655.061-.142.14-.275.21-.416.08-.168.168-.328.256-.487a1.45 1.45 0 01.097-.168c.114-.221.237-.434.36-.655.114-.195.229-.39.334-.584.106-.169.203-.337.308-.496.097-.15.194-.301.29-.46a34.24 34.24 0 011.267-1.842c.15-.203.299-.398.448-.601.115-.15.229-.301.352-.452.352-.443.713-.885 1.09-1.31.15-.177.309-.354.467-.522a29.73 29.73 0 011.029-1.08c.14-.142.281-.283.43-.425.23-.221.45-.443.678-.646.167-.16.334-.31.51-.46.308-.275.624-.54.932-.806.158-.133.326-.266.484-.398a32.294 32.294 0 012.181-1.611c.211-.15.431-.293.65-.434.177-.115.344-.221.52-.328.132-.08.264-.168.395-.239.194-.123.388-.239.59-.345.246-.15.492-.283.739-.416.246-.142.5-.274.747-.398.246-.133.501-.257.756-.38.018 0 .027-.01.044-.018.449-.222.906-.425 1.364-.629.343-.15.685-.292 1.037-.425a9.38 9.38 0 01.695-.265c.202-.08.413-.15.616-.222.105-.035.21-.07.316-.115.229-.07.458-.15.686-.221.273-.089.546-.168.827-.248.273-.08.554-.16.836-.23l.738-.186c.185-.044.379-.088.563-.124l.246-.053c.141-.027.282-.053.431-.088.247-.045.502-.098.748-.142.185-.027.36-.062.536-.089.194-.035.379-.062.572-.088a26.9 26.9 0 011.486-.177 23.924 23.924 0 00-4.916-6.728C40.27 18.195 27.087 31.49 23.797 48.362a23.644 23.644 0 006.693 4.93h.009z" fill="url(#paint18_linear_260_1270)"/><path d="M71.165 26.277a30.59 30.59 0 00-7.633-.505c.536 1.983.826 4.072.826 6.214 0 13.065-10.562 23.696-23.543 23.696-2.11 0-4.16-.283-6.104-.814a39.1 39.1 0 00-.044 1.753c0 2.027.194 4.01.572 5.93 1.812.337 3.676.505 5.593.505 17.053 0 30.879-13.915 30.879-31.079 0-1.956-.185-3.859-.52-5.718l-.026.018zM40.806.917C23.753.917 9.928 14.832 9.928 31.995a31.09 31.09 0 008.838 21.767 47.22 47.22 0 011.654-9.914 23.637 23.637 0 01-3.157-11.853C17.263 18.93 27.825 8.3 40.806 8.3c4.266 0 8.276 1.142 11.723 3.151a46.268 46.268 0 019.842-1.69C56.812 4.288 49.196.916 40.806.916z" fill="url(#paint19_linear_260_1270)"/><defs><linearGradient id="paint0_linear_260_1270" x1="1.943" y1="155.92" x2="1.943" y2="-28.578" gradientUnits="userSpaceOnUse"><stop/><stop offset=".33"/><stop offset=".52"/><stop offset=".73"/><stop offset="1"/></linearGradient><linearGradient id="paint1_linear_260_1270" x1="12.056" y1="163.532" x2="12.056" y2="7.475" gradientUnits="userSpaceOnUse"><stop/><stop offset=".33"/><stop offset=".52"/><stop offset=".73"/><stop offset="1"/></linearGradient><linearGradient id="paint2_linear_260_1270" x1="22.989" y1="182.236" x2="22.989" y2="6.847" gradientUnits="userSpaceOnUse"><stop/><stop offset=".33"/><stop offset=".52"/><stop offset=".73"/><stop offset="1"/></linearGradient><linearGradient id="paint3_linear_260_1270" x1="36.373" y1="210.907" x2="36.373" y2="9.777" gradientUnits="userSpaceOnUse"><stop/><stop offset=".33"/><stop offset=".52"/><stop offset=".73"/><stop offset="1"/></linearGradient><linearGradient id="paint4_linear_260_1270" x1="45.777" y1="325.059" x2="45.777" y2="-94.072" gradientUnits="userSpaceOnUse"><stop/><stop offset=".33"/><stop offset=".52"/><stop offset=".73"/><stop offset="1"/></linearGradient><linearGradient id="paint5_linear_260_1270" x1="55.819" y1="211.42" x2="55.819" y2="65.977" gradientUnits="userSpaceOnUse"><stop/><stop offset=".33"/><stop offset=".52"/><stop offset=".73"/><stop offset="1"/></linearGradient><linearGradient id="paint6_linear_260_1270" x1="67.129" y1="236.249" x2="67.129" y2="70.721" gradientUnits="userSpaceOnUse"><stop/><stop offset=".33"/><stop offset=".52"/><stop offset=".73"/><stop offset="1"/></linearGradient><linearGradient id="paint7_linear_260_1270" x1="82.915" y1="246.075" x2="82.915" y2="92.098" gradientUnits="userSpaceOnUse"><stop/><stop offset=".33"/><stop offset=".52"/><stop offset=".73"/><stop offset="1"/></linearGradient><linearGradient id="paint8_linear_260_1270" x1="94.094" y1="268.452" x2="94.094" y2="102.933" gradientUnits="userSpaceOnUse"><stop/><stop offset=".33"/><stop offset=".52"/><stop offset=".73"/><stop offset="1"/></linearGradient><linearGradient id="paint9_linear_260_1270" x1="105.009" y1="279.729" x2="105.009" y2="116.573" gradientUnits="userSpaceOnUse"><stop/><stop offset=".33"/><stop offset=".52"/><stop offset=".73"/><stop offset="1"/></linearGradient><linearGradient id="paint10_linear_260_1270" x1="115.835" y1="295.636" x2="115.835" y2="130.108" gradientUnits="userSpaceOnUse"><stop/><stop offset=".33"/><stop offset=".52"/><stop offset=".73"/><stop offset="1"/></linearGradient><linearGradient id="paint11_linear_260_1270" x1="5.443" y1="141.049" x2="5.443" y2="8.52" gradientUnits="userSpaceOnUse"><stop/><stop offset=".33"/><stop offset=".52"/><stop offset=".73"/><stop offset="1"/></linearGradient><linearGradient id="paint12_linear_260_1270" x1="23.462" y1="158.549" x2="23.462" y2="27.498" gradientUnits="userSpaceOnUse"><stop/><stop offset=".33"/><stop offset=".52"/><stop offset=".73"/><stop offset="1"/></linearGradient><linearGradient id="paint13_linear_260_1270" x1="42.873" y1="165.196" x2="42.873" y2="62.622" gradientUnits="userSpaceOnUse"><stop/><stop offset=".33"/><stop offset=".52"/><stop offset=".73"/><stop offset="1"/></linearGradient><linearGradient id="paint14_linear_260_1270" x1="61.491" y1="207.623" x2="61.491" y2="56.541" gradientUnits="userSpaceOnUse"><stop/><stop offset=".33"/><stop offset=".52"/><stop offset=".73"/><stop offset="1"/></linearGradient><linearGradient id="paint15_linear_260_1270" x1="77.612" y1="214.005" x2="77.612" y2="79.06" gradientUnits="userSpaceOnUse"><stop/><stop offset=".33"/><stop offset=".52"/><stop offset=".73"/><stop offset="1"/></linearGradient><linearGradient id="paint16_linear_260_1270" x1="95.168" y1="225.22" x2="95.168" y2="99.348" gradientUnits="userSpaceOnUse"><stop/><stop offset=".33"/><stop offset=".52"/><stop offset=".73"/><stop offset="1"/></linearGradient><linearGradient id="paint17_linear_260_1270" x1="112.519" y1="258.645" x2="112.519" y2="116.308" gradientUnits="userSpaceOnUse"><stop/><stop offset=".33"/><stop offset=".52"/><stop offset=".73"/><stop offset="1"/></linearGradient><linearGradient id="paint18_linear_260_1270" x1="23.015" y1="56.638" x2="107.734" y2="56.638" gradientUnits="userSpaceOnUse"><stop/><stop offset=".33"/><stop offset=".52"/><stop offset=".73"/><stop offset="1"/></linearGradient><linearGradient id="paint19_linear_260_1270" x1="9.937" y1="31.986" x2="71.693" y2="31.986" gradientUnits="userSpaceOnUse"><stop/><stop offset=".33"/><stop offset=".52"/><stop offset=".73"/><stop offset="1"/></linearGradient></defs></svg>