<svg width="181" height="181" viewBox="0 0 181 181" fill="none" xmlns="http://www.w3.org/2000/svg">
<g clip-path="url(#clip0_803_4022)">
<path d="M31.8222 131.438H42.505C45.6058 105.822 59.7222 90.6134 85.194 85.5369C85.194 83.8022 85.194 81.8126 85.194 79.8231C85.194 76.5237 85.1728 73.2243 85.2011 69.9249C85.2294 66.6679 87.5232 64.3102 90.5603 64.3456C93.5195 64.381 95.7707 66.7104 95.799 69.8682C95.8344 74.52 95.8061 79.1788 95.8132 83.8305C95.8132 84.4677 95.8132 85.105 95.8132 85.7139C119.777 88.7088 137.504 108.682 138.354 131.417H149.178C149.178 130.822 149.178 130.206 149.178 129.59C149.178 121.639 149.178 113.681 149.178 105.73C149.178 102.126 151.288 99.7186 154.438 99.6903C157.595 99.662 159.783 102.076 159.783 105.645C159.79 115.833 159.797 126.029 159.783 136.217C159.783 139.977 157.631 142.101 153.843 142.108C148.428 142.122 143.012 142.108 137.483 142.108C137.178 143.291 136.902 144.423 136.605 145.542C130.771 167.08 111.48 181.425 88.9462 180.972C67.637 180.547 48.7703 164.949 43.9705 143.708C43.659 142.342 43.1351 142.066 41.882 142.08C36.9335 142.144 31.985 142.115 27.0365 142.101C23.3835 142.087 21.2242 139.927 21.2172 136.267C21.203 126.015 21.203 115.763 21.2172 105.517C21.2172 102.083 23.4118 99.6903 26.5055 99.6832C29.5992 99.6762 31.8151 102.062 31.8222 105.489C31.8363 113.44 31.8222 121.398 31.8222 129.35C31.8222 129.987 31.8222 130.631 31.8222 131.424V131.438ZM90.4258 96.1643C70.0016 96.1997 53.3791 112.867 53.3861 133.3C53.3932 153.72 70.0582 170.38 90.4753 170.387C110.977 170.394 127.657 153.663 127.607 133.152C127.557 112.732 110.864 96.1219 90.4258 96.1573V96.1643Z" fill="#FDB604"/>
<path d="M90.3125 53.0382C83.5446 53.0382 76.7695 53.0382 70.0016 53.0382C66.1008 53.0382 63.9911 50.9283 63.9841 47.0483C63.977 33.3268 63.977 19.6123 63.9841 5.89072C63.9841 2.1311 66.1362 0.00701919 69.9237 0.00701919C83.6437 -6.1083e-05 97.3636 -6.1083e-05 111.076 0.00701919C114.857 0.00701919 117.002 2.13818 117.002 5.90488C117.009 19.6264 117.009 33.3409 117.002 47.0625C117.002 50.9354 114.878 53.0312 110.97 53.0382C104.082 53.0453 97.1937 53.0382 90.3054 53.0382H90.3125ZM95.7991 10.6628C95.7991 12.4329 95.8274 14.0684 95.7991 15.704C95.7424 18.8618 93.5124 21.1912 90.5532 21.2195C87.5232 21.2549 85.2436 18.8901 85.2011 15.6332C85.1799 14.0047 85.2011 12.3763 85.2011 10.7478H74.6882V42.3187H106.277V10.6557H95.8061L95.7991 10.6628Z" fill="#FDB604"/>
<path d="M0 62.54C0 55.7076 0 48.8822 0 42.0497C0 38.1627 2.11675 36.0669 6.01752 36.0598C19.6738 36.0598 33.3371 36.0598 46.9933 36.0598C50.9012 36.0598 53.025 38.1556 53.025 42.0285C53.0321 55.75 53.0321 69.4645 53.025 83.1861C53.025 86.9528 50.8728 89.084 47.0995 89.084C33.3796 89.091 19.6596 89.091 5.94673 89.084C2.15923 89.084 0.0141589 86.9528 0.00707944 83.2002C-0.00707944 76.3111 0.00707944 69.422 0.00707944 62.5329L0 62.54ZM10.7395 46.7156V78.3927H42.3138V46.8006H31.8221C31.8221 48.4007 31.8292 49.8663 31.8221 51.332C31.8008 54.8863 29.6133 57.3006 26.4629 57.2652C23.3763 57.2298 21.2383 54.8438 21.2171 51.3957C21.21 49.838 21.2171 48.2733 21.2171 46.7156H10.7395Z" fill="#FDB604"/>
<path d="M154.488 89.098C147.656 89.098 140.831 89.098 134 89.098C130.092 89.098 127.975 86.9952 127.968 83.1223C127.961 69.4007 127.961 55.6863 127.968 41.9647C127.968 38.198 130.113 36.0739 133.893 36.0668C147.613 36.0598 161.333 36.0598 175.046 36.0668C178.834 36.0668 180.986 38.1909 180.986 41.9505C181 55.7287 181 69.5069 180.986 83.2851C180.986 86.9315 178.812 89.0839 175.145 89.098C168.257 89.1122 161.369 89.098 154.48 89.098H154.488ZM138.665 78.3573H170.296V46.7864H159.783C159.783 48.4148 159.79 49.9371 159.783 51.4593C159.755 54.8862 157.567 57.2722 154.473 57.2722C151.38 57.2722 149.199 54.8791 149.171 51.4523C149.157 49.8875 149.171 48.3228 149.171 46.758H138.658V78.3502L138.665 78.3573Z" fill="#FDB604"/>
<path d="M93.8167 109.808C96.0751 111.061 98.2343 112.017 100.082 113.383C100.924 114.006 101.618 115.493 101.547 116.527C101.477 117.547 100.528 118.722 99.6431 119.416C98.5387 120.273 97.1724 119.919 96.0255 119.104C95.3813 118.651 94.7371 118.191 93.7743 117.504C93.7743 121.37 93.7035 124.825 93.8521 128.266C93.8734 128.762 94.8574 129.399 95.5229 129.647C99.6927 131.212 102.68 133.909 103.947 138.256C105.823 144.685 102.305 152.084 95.9264 154.69C94.1919 155.398 93.6256 156.184 93.7176 157.968C93.8167 159.795 92.7053 161.09 91.077 161.458C89.5408 161.805 88.224 161.31 87.3957 159.993C86.978 159.334 86.8647 158.464 86.709 157.671C86.6099 157.168 86.6877 156.623 86.6877 156.531C83.6861 155.157 80.8968 153.996 78.2207 152.615C76.7694 151.865 76.3305 150.399 76.7057 148.806C77.0668 147.263 78.1429 146.293 79.6862 146.229C80.6136 146.193 81.5905 146.654 82.4896 147.022C83.8064 147.56 85.0807 148.218 86.6877 148.969C86.6877 143.829 86.709 139.184 86.6523 134.546C86.6523 134.15 86.2063 133.647 85.8311 133.392C85.0595 132.868 84.1816 132.493 83.3675 132.026C79.1269 129.604 77.2367 125.93 77.8101 121.115C78.3694 116.421 80.8401 113.008 85.286 111.238C86.3267 110.827 86.7302 110.374 86.7231 109.234C86.709 106.629 88.1036 105.043 90.2133 105.007C92.3584 104.979 93.6681 106.494 93.7743 109.142C93.7884 109.489 93.8238 109.836 93.8238 109.808H93.8167ZM93.9017 136.72V147.694C96.4007 146.186 97.6113 143.715 97.2715 140.954C97.0237 138.936 95.9193 137.591 93.9017 136.72ZM86.5674 125.505V118.842C84.2099 120.874 84.1745 123.94 86.5674 125.505Z" fill="#FDB604"/>
</g>
<defs>
<clipPath id="clip0_803_4022">
<rect width="181" height="181" fill="white"/>
</clipPath>
</defs>
</svg>
