<svg width="160" height="159" viewBox="0 0 160 159" fill="none" xmlns="http://www.w3.org/2000/svg">
<g clip-path="url(#clip0_803_4028)">
<path d="M70.1659 92.0109C67.4725 89.8861 65.6438 87.3907 64.5615 84.3579C64.4122 83.9317 63.9768 83.5117 63.5663 83.2894C49.7824 75.902 35.986 68.5332 22.1897 61.1644C22.0528 61.0903 21.8973 61.0532 21.3624 60.8556C20.5973 64.6666 19.7949 68.4035 19.1169 72.1589C18.8557 73.6166 18.8432 75.1238 18.7499 76.6123C18.5447 79.781 16.4858 81.8687 13.2824 81.9737C10.7508 82.054 8.20675 82.0478 5.67514 81.9799C2.12964 81.8811 -0.0100955 79.6636 0.151629 76.1367C0.991352 57.6746 7.41057 41.3619 19.6394 27.4335C32.3846 12.9059 48.445 3.8817 67.6591 1.20719C93.5786 -2.40618 116.351 4.74026 135.272 22.8565C148.254 35.284 155.836 50.6084 158.436 68.3232C158.828 71.0101 159.021 73.7402 159.127 76.4579C159.251 79.5463 157.186 81.7946 154.064 81.9428C151.277 82.0787 148.472 82.0787 145.685 81.9428C142.612 81.7946 140.721 79.6451 140.528 76.4517C139.459 58.7555 132.156 44.0858 118.472 32.7145C89.4173 8.56364 44.6321 16.9825 26.4007 49.929C26.1271 50.417 25.872 50.9173 25.5548 51.5102C30.9353 53.0297 36.1975 54.5121 41.4598 56.0007C51.5987 58.8667 61.7313 61.7574 71.8826 64.5863C72.5669 64.7778 73.4315 64.7716 74.097 64.5369C81.4928 61.9612 89.4422 64.7593 93.3422 71.3683C97.2485 77.9897 95.8303 86.1986 89.89 91.35C89.6599 91.5476 89.4484 91.7638 89.1374 92.0541C89.5604 92.6779 89.946 93.2709 90.3441 93.8515C102.983 112.338 115.623 130.825 128.256 149.312C128.691 149.948 129.164 150.578 129.494 151.264C131.005 154.396 128.878 157.997 125.389 158.274C125.134 158.293 124.872 158.293 124.611 158.293C94.636 158.293 64.6672 158.293 34.6922 158.293C31.2152 158.293 28.7831 155.773 29.3802 152.635C29.5793 151.573 30.2075 150.541 30.8295 149.621C43.5 131.035 56.2016 112.462 68.8907 93.8886C69.2888 93.3018 69.6807 92.7088 70.1534 92.0047L70.1659 92.0109ZM124.35 152.987C109.365 131.06 94.5489 109.392 79.6392 87.576C64.6672 109.491 49.857 131.159 34.941 152.987H124.344H124.35ZM34.8415 30.9418C46.7967 20.2623 60.8605 14.5365 76.8339 13.6224V5.73471C58.4595 6.62415 42.6105 13.0973 29.0568 25.2716C31.041 27.2173 32.8759 29.0147 34.8415 30.9418ZM153.833 76.6185C152.95 58.317 146.419 42.5849 134.333 29.3482C132.386 31.2877 130.545 33.1222 128.685 34.9752C139.309 46.6986 145.051 60.6456 145.909 76.6185H153.833ZM124.306 30.633C126.241 28.7059 128.076 26.8776 129.954 25.0122C116.556 13.0603 100.726 6.55003 82.432 5.74706V13.6038C98.561 14.4562 112.55 20.182 124.306 30.633ZM13.3819 76.7791C13.6992 70.6456 14.713 64.9631 16.4858 59.4102C16.7533 58.5764 16.6911 57.5202 16.4485 56.6616C15.8389 54.4998 16.548 51.992 18.6069 51.1211C20.0251 50.522 20.6284 49.5275 21.2442 48.3416C21.7667 47.341 22.2892 46.328 22.9423 45.4076C25.4864 41.8066 28.0864 38.2365 30.5309 34.8331C28.7706 33.0975 26.8797 31.2321 24.9515 29.3297C12.8097 42.6652 6.27228 58.4405 5.41389 76.6185C5.83064 76.6803 6.12921 76.7668 6.42778 76.7668C8.69814 76.7791 10.9685 76.7668 13.3882 76.7668L13.3819 76.7791ZM86.0957 87.4957C89.747 84.9077 91.1527 79.9972 89.5604 75.6982C87.9307 71.288 83.533 68.527 78.7062 68.8853C74.097 69.225 70.253 72.684 69.2951 77.3535C68.4864 81.2943 70.3027 85.9145 73.2635 87.4154C75.1171 85.303 75.9568 82.0046 79.6516 82.0108C83.334 82.0231 84.1675 85.3215 86.0895 87.4957H86.0957ZM67.2362 68.7988C54.0307 65.0557 40.5579 61.2324 27.085 57.4152C27.0414 57.514 27.0041 57.6128 26.9606 57.7116C39.1894 64.2466 51.4121 70.7815 63.4108 77.1991C64.7232 74.3146 65.961 71.5907 67.2362 68.7988Z" fill="#FDB604"/>
<path d="M82.3013 117.601C82.3013 122.011 82.3013 126.421 82.3013 130.838C82.3013 131.4 82.3013 131.974 82.1831 132.518C81.8908 133.833 81.0199 134.556 79.6577 134.568C78.2955 134.575 77.4122 133.871 77.1012 132.555C76.9768 132.011 76.9768 131.437 76.9768 130.875C76.9706 121.999 76.9706 113.123 76.9768 104.253C76.9768 101.665 77.9099 100.356 79.695 100.399C81.4305 100.442 82.3013 101.702 82.3013 104.216C82.3013 108.682 82.3013 113.142 82.3013 117.607V117.601Z" fill="#FDB604"/>
<path d="M82.3014 143.871C82.3014 146.49 81.4119 147.78 79.6267 147.774C77.8415 147.774 76.9707 146.483 76.9707 143.852C76.9707 141.19 77.798 139.924 79.5645 139.868C81.387 139.813 82.3014 141.147 82.3014 143.864V143.871Z" fill="#FDB604"/>
</g>
<defs>
<clipPath id="clip0_803_4028">
<rect width="159" height="158" fill="white" transform="translate(0.132812 0.299316)"/>
</clipPath>
</defs>
</svg>
