<svg width="15" height="15" viewBox="0 0 15 15" fill="none" xmlns="http://www.w3.org/2000/svg">
<path d="M1.16296 6.21666C2.75996 9.69488 5.60163 12.4603 9.13454 13.9595L9.70088 14.2118C10.9966 14.7891 12.5197 14.3506 13.31 13.1726L14.05 12.0696C14.2907 11.7109 14.2175 11.2278 13.8813 10.9566L11.3714 8.9318C11.0028 8.63438 10.4607 8.70372 10.1786 9.08422L9.40221 10.132C7.40988 9.14913 5.79229 7.53163 4.80954 5.53928L5.85721 4.76285C6.23779 4.48083 6.30704 3.93873 6.00963 3.57008L3.98478 1.06013C3.71365 0.724067 3.23074 0.650759 2.87209 0.891234L1.76139 1.63598C0.57611 2.43073 0.13996 3.96644 0.730569 5.26557L1.16231 6.21525L1.16296 6.21666Z" fill="white"/>
</svg>
