<svg width="201" height="48" fill="none" xmlns="http://www.w3.org/2000/svg"><path d="M67.92 8.88v2.96h5.184v2.08H67.92V18h-2.592V6.8h8.464v2.08H67.92zm10.688.384c1.334 0 2.358.32 3.072.96.715.63 1.072 1.584 1.072 2.864V18h-2.336v-1.072c-.469.8-1.344 1.2-2.624 1.2-.661 0-1.237-.112-1.728-.336-.48-.224-.848-.533-1.104-.928a2.415 2.415 0 01-.384-1.344c0-.8.299-1.43.896-1.888.608-.459 1.542-.688 2.8-.688h1.984c0-.544-.165-.96-.496-1.248-.33-.299-.826-.448-1.488-.448-.458 0-.912.075-1.36.224a3.47 3.47 0 00-1.12.576l-.896-1.744c.47-.33 1.03-.587 1.68-.768a7.65 7.65 0 012.032-.272zm-.192 7.184a2.22 2.22 0 001.136-.288c.331-.203.566-.496.704-.88v-.88h-1.712c-1.024 0-1.536.336-1.536 1.008 0 .32.123.576.368.768.256.181.603.272 1.04.272zm9.491 1.68a8.607 8.607 0 01-2.096-.256c-.682-.181-1.226-.405-1.632-.672l.832-1.792c.384.245.848.448 1.392.608a6.03 6.03 0 001.6.224c1.056 0 1.584-.261 1.584-.784 0-.245-.144-.421-.432-.528-.288-.107-.73-.197-1.328-.272a12.81 12.81 0 01-1.744-.368 2.762 2.762 0 01-1.2-.736c-.33-.352-.496-.853-.496-1.504 0-.544.155-1.024.464-1.44.32-.427.779-.757 1.376-.992.608-.235 1.323-.352 2.144-.352.608 0 1.211.07 1.808.208.608.128 1.11.31 1.504.544l-.832 1.776a4.967 4.967 0 00-2.48-.64c-.533 0-.933.075-1.2.224-.266.15-.4.341-.4.576 0 .267.144.453.432.56.288.107.747.208 1.376.304.704.117 1.28.245 1.728.384.448.128.838.368 1.168.72.331.352.496.843.496 1.472 0 .533-.16 1.008-.48 1.424-.32.416-.789.741-1.408.976-.608.224-1.333.336-2.176.336zm11.156-.544a2.67 2.67 0 01-.912.416 4.743 4.743 0 01-1.12.128c-1.024 0-1.818-.261-2.384-.784-.554-.523-.832-1.29-.832-2.304v-3.536h-1.328v-1.92h1.328V7.488h2.496v2.096h2.144v1.92h-2.144v3.504c0 .363.091.645.272.848.192.192.459.288.8.288.395 0 .731-.107 1.008-.32l.672 1.76zM65.328 30.8h5.088c1.216 0 2.288.235 3.216.704.939.459 1.664 1.11 2.176 1.952.523.843.784 1.824.784 2.944 0 1.12-.261 2.101-.784 2.944-.512.843-1.237 1.499-2.176 1.968-.928.459-2 .688-3.216.688h-5.088V30.8zm4.96 9.072c1.12 0 2.01-.31 2.672-.928.672-.63 1.008-1.477 1.008-2.544s-.336-1.91-1.008-2.528c-.661-.63-1.552-.944-2.672-.944H67.92v6.944h2.368zm16.515-2.144c0 .032-.016.256-.048.672h-6.512c.117.533.394.955.832 1.264.437.31.981.464 1.632.464.448 0 .842-.064 1.184-.192.352-.139.677-.352.976-.64l1.328 1.44c-.81.928-1.995 1.392-3.552 1.392-.97 0-1.83-.187-2.576-.56-.747-.384-1.323-.912-1.728-1.584-.406-.672-.608-1.435-.608-2.288 0-.843.197-1.6.592-2.272a4.2 4.2 0 011.648-1.584c.704-.384 1.488-.576 2.352-.576.842 0 1.605.181 2.288.544a3.905 3.905 0 011.6 1.568c.394.672.592 1.456.592 2.352zm-4.464-2.576c-.566 0-1.04.16-1.424.48-.384.32-.619.757-.704 1.312h4.24c-.086-.544-.32-.976-.704-1.296-.384-.33-.854-.496-1.408-.496zm6.126-5.024h2.495V42h-2.495V30.128zm4.812 3.264h2.496V42h-2.496v-8.608zm1.248-1.2c-.459 0-.832-.133-1.12-.4a1.297 1.297 0 01-.432-.992c0-.395.144-.725.432-.992.288-.267.661-.4 1.12-.4.459 0 .832.128 1.12.384.288.256.432.576.432.96 0 .416-.144.763-.432 1.04-.288.267-.661.4-1.12.4zm12.109 1.2L103.002 42h-2.576l-3.617-8.608h2.576l2.385 5.856 2.464-5.856h2.4zm9.216 4.336c0 .032-.016.256-.048.672h-6.512c.117.533.394.955.832 1.264.437.31.981.464 1.632.464.448 0 .842-.064 1.184-.192.352-.139.677-.352.976-.64l1.328 1.44c-.811.928-1.995 1.392-3.552 1.392-.971 0-1.83-.187-2.576-.56-.747-.384-1.323-.912-1.728-1.584-.406-.672-.608-1.435-.608-2.288 0-.843.197-1.6.592-2.272a4.193 4.193 0 011.648-1.584c.704-.384 1.488-.576 2.352-.576.842 0 1.605.181 2.288.544a3.909 3.909 0 011.6 1.568c.394.672.592 1.456.592 2.352zm-4.464-2.576c-.566 0-1.04.16-1.424.48-.384.32-.619.757-.704 1.312h4.24c-.086-.544-.32-.976-.704-1.296-.384-.33-.854-.496-1.408-.496zm8.509-.624c.299-.416.699-.73 1.2-.944.512-.213 1.099-.32 1.76-.32v2.304a9.022 9.022 0 00-.56-.032c-.714 0-1.274.203-1.68.608-.405.395-.608.992-.608 1.792V42h-2.496v-8.608h2.384v1.136zm13.285-1.136l-3.888 9.136c-.394.992-.885 1.69-1.472 2.096-.576.405-1.274.608-2.096.608-.448 0-.89-.07-1.328-.208-.437-.139-.794-.33-1.072-.576l.912-1.776a2.17 2.17 0 001.408.544c.342 0 .619-.085.832-.256.214-.16.406-.432.576-.816l.032-.08-3.728-8.672h2.576l2.416 5.84 2.432-5.84h2.4z" fill="#156963"/><g clip-path="url(#clip0_0_18)" fill="#156963"><path d="M13 38H9a1 1 0 010-2h4a1 1 0 010 2zm32.5 0H43a1 1 0 010-2h1.67l1.348-7.184C46 25.14 42.86 22 39 22h-6.566l-3.182 14H35a1 1 0 010 2h-7a1 1 0 01-.976-1.22l3.636-16a1 1 0 01.976-.78H39c4.962 0 9 4.038 9 9l-1.518 8.184A.997.997 0 0145.5 38z"/><path d="M39 42c-2.756 0-5-2.242-5-5s2.244-5 5-5 5 2.242 5 5-2.244 5-5 5zm0-8c-1.654 0-3 1.346-3 3s1.346 3 3 3 3-1.346 3-3-1.346-3-3-3zm-22 8c-2.756 0-5-2.242-5-5s2.244-5 5-5 5 2.242 5 5-2.244 5-5 5zm0-8c-1.654 0-3 1.346-3 3s1.346 3 3 3 3-1.346 3-3-1.346-3-3-3zm-4-14H5a1 1 0 010-2h8a1 1 0 010 2zm0 6H3a1 1 0 010-2h10a1 1 0 010 2zm0 6H1a1 1 0 010-2h12a1 1 0 010 2z"/><path d="M28 38h-7a1 1 0 010-2h6.202l4.544-20H9a1 1 0 010-2h24a1 1 0 01.976 1.22l-5 22A1 1 0 0128 38z"/></g><defs><clipPath id="clip0_0_18"><path fill="#fff" d="M0 0h48v48H0z"/></clipPath></defs></svg>