<svg width="201" height="48" fill="none" xmlns="http://www.w3.org/2000/svg"><path d="M72.704 15.6h-5.2l-.992 2.4h-2.656l4.992-11.2h2.56L76.416 18h-2.72l-.992-2.4zm-.816-1.968l-1.776-4.288-1.776 4.288h3.552zm8.25-4.048h2.208v1.92h-2.144V18h-2.496v-6.496h-1.328v-1.92h1.328V9.2c0-.981.288-1.76.864-2.336.587-.576 1.408-.864 2.464-.864.373 0 .725.043 1.056.128.341.075.624.187.848.336l-.656 1.808a1.707 1.707 0 00-1.008-.304c-.757 0-1.136.416-1.136 1.248v.368zm6.188 0h2.208v1.92h-2.145V18h-2.495v-6.496h-1.329v-1.92h1.329V9.2c0-.981.287-1.76.863-2.336.587-.576 1.408-.864 2.465-.864.373 0 .725.043 1.056.128.34.075.623.187.847.336l-.656 1.808a1.707 1.707 0 00-1.007-.304c-.758 0-1.136.416-1.136 1.248v.368zm7.438 8.544c-.907 0-1.723-.187-2.448-.56a4.293 4.293 0 01-1.68-1.584c-.406-.672-.608-1.435-.608-2.288 0-.853.202-1.616.608-2.288a4.18 4.18 0 011.68-1.568c.725-.384 1.541-.576 2.448-.576.906 0 1.717.192 2.432.576a4.18 4.18 0 011.68 1.568c.405.672.608 1.435.608 2.288 0 .853-.203 1.616-.608 2.288a4.292 4.292 0 01-1.68 1.584c-.715.373-1.526.56-2.432.56zm0-2.048c.64 0 1.162-.213 1.568-.64.416-.437.624-1.019.624-1.744 0-.725-.208-1.301-.624-1.728-.406-.437-.928-.656-1.568-.656s-1.168.219-1.584.656c-.416.427-.624 1.003-.624 1.728 0 .725.208 1.307.624 1.744.416.427.944.64 1.584.64zm8.772-5.552c.299-.416.699-.73 1.2-.944.512-.213 1.099-.32 1.76-.32v2.304a9.022 9.022 0 00-.56-.032c-.715 0-1.275.203-1.68.608-.405.395-.608.992-.608 1.792V18h-2.496V9.392h2.384v1.136zm13.134-4.4V18h-2.384v-.992c-.619.747-1.515 1.12-2.688 1.12-.811 0-1.547-.181-2.208-.544a3.906 3.906 0 01-1.536-1.552c-.373-.672-.56-1.45-.56-2.336 0-.885.187-1.664.56-2.336a3.906 3.906 0 011.536-1.552c.661-.363 1.397-.544 2.208-.544 1.099 0 1.957.347 2.576 1.04V6.128h2.496zm-4.64 9.952c.629 0 1.152-.213 1.568-.64.416-.437.624-1.019.624-1.744 0-.725-.208-1.301-.624-1.728-.416-.437-.939-.656-1.568-.656-.64 0-1.168.219-1.584.656-.416.427-.624 1.003-.624 1.728 0 .725.208 1.307.624 1.744.416.427.944.64 1.584.64zm10.422-6.816c1.333 0 2.357.32 3.072.96.715.63 1.072 1.584 1.072 2.864V18h-2.336v-1.072c-.469.8-1.344 1.2-2.624 1.2-.661 0-1.237-.112-1.728-.336-.48-.224-.848-.533-1.104-.928a2.415 2.415 0 01-.384-1.344c0-.8.299-1.43.896-1.888.608-.459 1.541-.688 2.8-.688h1.984c0-.544-.165-.96-.496-1.248-.331-.299-.827-.448-1.488-.448-.459 0-.912.075-1.36.224-.437.139-.811.33-1.12.576l-.896-1.744a5.416 5.416 0 011.68-.768 7.65 7.65 0 012.032-.272zm-.192 7.184a2.22 2.22 0 001.136-.288c.331-.203.565-.496.704-.88v-.88h-1.712c-1.024 0-1.536.336-1.536 1.008 0 .32.123.576.368.768.256.181.603.272 1.04.272zm11.683-7.184c.8 0 1.525.187 2.176.56.661.363 1.179.88 1.552 1.552.373.661.56 1.435.56 2.32 0 .885-.187 1.664-.56 2.336a4.019 4.019 0 01-1.552 1.552 4.393 4.393 0 01-2.176.544c-1.184 0-2.085-.373-2.704-1.12V18h-2.384V6.128h2.496v4.176c.629-.693 1.493-1.04 2.592-1.04zm-.432 6.816c.64 0 1.163-.213 1.568-.64.416-.437.624-1.019.624-1.744 0-.725-.208-1.301-.624-1.728-.405-.437-.928-.656-1.568-.656s-1.168.219-1.584.656c-.405.427-.608 1.003-.608 1.728 0 .725.203 1.307.608 1.744.416.427.944.64 1.584.64zm6.391-9.952h2.496V18h-2.496V6.128zm13.245 7.6c0 .032-.016.256-.048.672h-6.512c.117.533.394.955.832 1.264.437.31.981.464 1.632.464.448 0 .842-.064 1.184-.192.352-.139.677-.352.976-.64l1.328 1.44c-.811.928-1.995 1.392-3.552 1.392-.971 0-1.83-.187-2.576-.56-.747-.384-1.323-.912-1.728-1.584-.406-.672-.608-1.435-.608-2.288 0-.843.197-1.6.592-2.272a4.193 4.193 0 011.648-1.584c.704-.384 1.488-.576 2.352-.576.842 0 1.605.181 2.288.544a3.909 3.909 0 011.6 1.568c.394.672.592 1.456.592 2.352zm-4.464-2.576c-.566 0-1.04.16-1.424.48-.384.32-.619.757-.704 1.312h4.24c-.086-.544-.32-.976-.704-1.296-.384-.33-.854-.496-1.408-.496zM70.176 30.8c.992 0 1.85.165 2.576.496.736.33 1.301.8 1.696 1.408.395.608.592 1.328.592 2.16 0 .821-.197 1.541-.592 2.16-.395.608-.96 1.077-1.696 1.408-.725.32-1.584.48-2.576.48H67.92V42h-2.592V30.8h4.848zm-.144 6c.779 0 1.37-.165 1.776-.496.405-.341.608-.821.608-1.44 0-.63-.203-1.11-.608-1.44-.405-.341-.997-.512-1.776-.512H67.92V36.8h2.112zm9.067-2.272a2.78 2.78 0 011.2-.944c.511-.213 1.098-.32 1.76-.32v2.304a9.034 9.034 0 00-.56-.032c-.715 0-1.275.203-1.68.608-.406.395-.609.992-.609 1.792V42h-2.495v-8.608h2.383v1.136zm4.444-1.136h2.496V42h-2.496v-8.608zm1.248-1.2c-.459 0-.832-.133-1.12-.4a1.297 1.297 0 01-.432-.992c0-.395.144-.725.432-.992.288-.267.661-.4 1.12-.4.458 0 .832.128 1.12.384.288.256.432.576.432.96 0 .416-.144.763-.432 1.04-.288.267-.662.4-1.12.4zm7.724 9.936c-.917 0-1.744-.187-2.48-.56a4.381 4.381 0 01-1.712-1.584c-.405-.672-.608-1.435-.608-2.288 0-.853.203-1.616.608-2.288a4.266 4.266 0 011.712-1.568c.736-.384 1.563-.576 2.48-.576.907 0 1.696.192 2.368.576a3.319 3.319 0 011.488 1.616l-1.936 1.04c-.448-.79-1.093-1.184-1.936-1.184-.65 0-1.19.213-1.616.64-.426.427-.64 1.008-.64 1.744s.214 1.317.64 1.744c.427.427.966.64 1.616.64.854 0 1.499-.395 1.936-1.184l1.936 1.056a3.426 3.426 0 01-1.488 1.6c-.672.384-1.461.576-2.368.576zm13.616-4.4c0 .032-.016.256-.048.672h-6.512c.117.533.395.955.832 1.264.437.31.981.464 1.632.464a3.36 3.36 0 001.184-.192c.352-.139.677-.352.976-.64l1.328 1.44c-.811.928-1.995 1.392-3.552 1.392-.971 0-1.829-.187-2.576-.56-.747-.384-1.323-.912-1.728-1.584-.406-.672-.608-1.435-.608-2.288 0-.843.197-1.6.592-2.272a4.2 4.2 0 011.648-1.584c.704-.384 1.488-.576 2.352-.576.843 0 1.605.181 2.288.544a3.903 3.903 0 011.6 1.568c.395.672.592 1.456.592 2.352zm-4.464-2.576c-.565 0-1.04.16-1.424.48-.384.32-.619.757-.704 1.312h4.24c-.085-.544-.32-.976-.704-1.296-.384-.33-.853-.496-1.408-.496z" fill="#156963"/><g clip-path="url(#clip0_0_59)" fill="#156963"><path d="M24 48c13.234 0 24-10.766 24-24a23.845 23.845 0 00-1.847-9.246.949.949 0 10-1.752.732 21.945 21.945 0 011.7 8.514c0 12.187-9.914 22.102-22.101 22.102S1.898 36.187 1.898 24C1.898 11.813 11.813 1.898 24 1.898a22.035 22.035 0 017.275 1.226.949.949 0 10.625-1.793A23.938 23.938 0 0024 0C10.766 0 0 10.766 0 24s10.766 24 24 24z"/><path d="M33.41 6.173a.95.95 0 00-1.343 1.342l4.417 4.417a.949.949 0 001.326.015l7.787-7.437a.95.95 0 10-1.311-1.373L37.17 9.934l-3.76-3.761zM24 14.82a4.064 4.064 0 014.059 4.058.949.949 0 101.898 0 5.966 5.966 0 00-5.008-5.88v-1.88a.949.949 0 10-1.898 0v1.88A5.957 5.957 0 0024 24.834a4.058 4.058 0 01.047 8.116H24l-.047.002a4.063 4.063 0 01-4.012-4.058.949.949 0 10-1.898 0 5.966 5.966 0 005.008 5.881v2.107a.949.949 0 101.898 0v-2.107A5.956 5.956 0 0024 22.937a4.06 4.06 0 110-8.117z"/></g><defs><clipPath id="clip0_0_59"><path fill="#fff" d="M0 0h48v48H0z"/></clipPath></defs></svg>