<svg width="201" height="48" fill="none" xmlns="http://www.w3.org/2000/svg"><path d="M70.752 18.192c-1.163 0-2.213-.25-3.152-.752a5.672 5.672 0 01-2.192-2.064c-.523-.885-.784-1.877-.784-2.976s.261-2.085.784-2.96A5.635 5.635 0 0167.6 7.36c.939-.501 1.99-.752 3.152-.752 1.163 0 2.208.25 3.136.752a5.635 5.635 0 012.192 2.08c.533.875.8 1.861.8 2.96s-.267 2.09-.8 2.976a5.672 5.672 0 01-2.192 2.064c-.928.501-1.973.752-3.136.752zm0-2.208c.661 0 1.259-.15 1.792-.448.533-.31.95-.736 1.248-1.28.31-.544.464-1.163.464-1.856 0-.693-.155-1.312-.464-1.856a3.163 3.163 0 00-1.248-1.264 3.506 3.506 0 00-1.792-.464 3.51 3.51 0 00-1.792.464c-.533.299-.955.72-1.264 1.264-.299.544-.448 1.163-.448 1.856 0 .693.15 1.312.448 1.856.31.544.73.97 1.264 1.28.533.299 1.13.448 1.792.448zm10.284-5.456c.299-.416.699-.73 1.2-.944.512-.213 1.099-.32 1.76-.32v2.304a9.034 9.034 0 00-.56-.032c-.715 0-1.275.203-1.68.608-.405.395-.608.992-.608 1.792V18h-2.496V9.392h2.384v1.136zm4.444-1.136h2.496V18H85.48V9.392zm1.248-1.2c-.459 0-.832-.133-1.12-.4a1.297 1.297 0 01-.432-.992c0-.395.144-.725.432-.992.288-.267.661-.4 1.12-.4.459 0 .832.128 1.12.384.288.256.432.576.432.96 0 .416-.144.763-.432 1.04-.288.267-.661.4-1.12.4zm12.445 1.2v7.168c0 1.579-.411 2.752-1.232 3.52-.822.768-2.022 1.152-3.6 1.152a9.002 9.002 0 01-2.368-.304c-.747-.203-1.366-.496-1.856-.88l.992-1.792c.362.299.821.533 1.376.704a5.33 5.33 0 001.664.272c.864 0 1.498-.197 1.904-.592.416-.384.624-.97.624-1.76v-.368c-.651.715-1.558 1.072-2.72 1.072-.79 0-1.515-.17-2.176-.512a4.037 4.037 0 01-1.552-1.472c-.384-.63-.576-1.355-.576-2.176 0-.821.192-1.547.576-2.176a3.92 3.92 0 011.552-1.456 4.559 4.559 0 012.176-.528c1.248 0 2.197.41 2.848 1.232V9.392h2.368zm-4.72 6.144c.661 0 1.2-.192 1.616-.576.426-.395.64-.907.64-1.536 0-.63-.214-1.136-.64-1.52-.416-.395-.955-.592-1.616-.592-.662 0-1.206.197-1.632.592-.427.384-.64.89-.64 1.52s.213 1.141.64 1.536c.426.384.97.576 1.632.576zm7.043-6.144h2.496V18h-2.496V9.392zm1.248-1.2c-.459 0-.832-.133-1.12-.4a1.297 1.297 0 01-.432-.992c0-.395.144-.725.432-.992.288-.267.661-.4 1.12-.4.458 0 .832.128 1.12.384.288.256.432.576.432.96 0 .416-.144.763-.432 1.04-.288.267-.662.4-1.12.4zm8.796 1.072c1.067 0 1.926.32 2.576.96.662.64.992 1.59.992 2.848V18h-2.496v-4.544c0-.683-.149-1.19-.448-1.52-.298-.341-.73-.512-1.296-.512-.629 0-1.13.197-1.504.592-.373.384-.56.96-.56 1.728V18h-2.496V9.392h2.384V10.4c.331-.363.742-.64 1.232-.832a4.196 4.196 0 011.616-.304zm9.303 0c1.333 0 2.357.32 3.072.96.714.63 1.072 1.584 1.072 2.864V18h-2.336v-1.072c-.47.8-1.344 1.2-2.624 1.2-.662 0-1.238-.112-1.728-.336-.48-.224-.848-.533-1.104-.928a2.415 2.415 0 01-.384-1.344c0-.8.298-1.43.896-1.888.608-.459 1.541-.688 2.8-.688h1.984c0-.544-.166-.96-.496-1.248-.331-.299-.827-.448-1.488-.448-.459 0-.912.075-1.36.224-.438.139-.811.33-1.12.576l-.896-1.744a5.416 5.416 0 011.68-.768 7.644 7.644 0 012.032-.272zm-.192 7.184c.426 0 .805-.096 1.136-.288.33-.203.565-.496.704-.88v-.88h-1.712c-1.024 0-1.536.336-1.536 1.008 0 .32.122.576.368.768.256.181.602.272 1.04.272zm6.595-10.32h2.496V18h-2.496V6.128zM70.176 30.8c.992 0 1.85.165 2.576.496.736.33 1.301.8 1.696 1.408.395.608.592 1.328.592 2.16 0 .821-.197 1.541-.592 2.16-.395.608-.96 1.077-1.696 1.408-.725.32-1.584.48-2.576.48H67.92V42h-2.592V30.8h4.848zm-.144 6c.779 0 1.37-.165 1.776-.496.405-.341.608-.821.608-1.44 0-.63-.203-1.11-.608-1.44-.405-.341-.997-.512-1.776-.512H67.92V36.8h2.112zm6.839-6.672h2.496V42H76.87V30.128zm8.284 3.136c1.334 0 2.358.32 3.072.96.715.63 1.072 1.584 1.072 2.864V42h-2.336v-1.072c-.47.8-1.344 1.2-2.624 1.2-.661 0-1.237-.112-1.728-.336-.48-.224-.848-.533-1.104-.928a2.415 2.415 0 01-.384-1.344c0-.8.299-1.43.896-1.888.608-.459 1.542-.688 2.8-.688h1.984c0-.544-.165-.96-.496-1.248-.33-.299-.826-.448-1.488-.448-.458 0-.912.075-1.36.224a3.47 3.47 0 00-1.12.576l-.896-1.744c.47-.33 1.03-.587 1.68-.768a7.65 7.65 0 012.032-.272zm-.192 7.184a2.22 2.22 0 001.136-.288c.33-.203.566-.496.704-.88v-.88h-1.712c-1.024 0-1.536.336-1.536 1.008 0 .32.123.576.368.768.256.181.603.272 1.04.272zm11.827-7.184c1.067 0 1.926.32 2.576.96.662.64.992 1.59.992 2.848V42h-2.496v-4.544c0-.683-.15-1.19-.448-1.52-.298-.341-.73-.512-1.296-.512-.63 0-1.13.197-1.504.592-.373.384-.56.96-.56 1.728V42h-2.496v-8.608h2.384V34.4a3.23 3.23 0 011.232-.832 4.192 4.192 0 011.616-.304zm11.383 8.32a2.68 2.68 0 01-.912.416 4.747 4.747 0 01-1.12.128c-1.024 0-1.819-.261-2.384-.784-.555-.523-.832-1.29-.832-2.304v-3.536h-1.328v-1.92h1.328v-2.096h2.496v2.096h2.144v1.92h-2.144v3.504c0 .363.09.645.272.848.192.192.458.288.8.288.394 0 .73-.107 1.008-.32l.672 1.76zm4.297.544a8.608 8.608 0 01-2.096-.256c-.683-.181-1.227-.405-1.632-.672l.832-1.792c.384.245.848.448 1.392.608a6 6 0 001.6.224c1.056 0 1.584-.261 1.584-.784 0-.245-.144-.421-.432-.528-.288-.107-.731-.197-1.328-.272a12.822 12.822 0 01-1.744-.368 2.758 2.758 0 01-1.2-.736c-.331-.352-.496-.853-.496-1.504 0-.544.155-1.024.464-1.44.32-.427.779-.757 1.376-.992.608-.235 1.323-.352 2.144-.352.608 0 1.211.07 1.808.208.608.128 1.109.31 1.504.544l-.832 1.776a4.966 4.966 0 00-2.48-.64c-.533 0-.933.075-1.2.224-.267.15-.4.341-.4.576 0 .267.144.453.432.56.288.107.747.208 1.376.304.704.117 1.28.245 1.728.384.448.128.837.368 1.168.72.331.352.496.843.496 1.472 0 .533-.16 1.008-.48 1.424-.32.416-.789.741-1.408.976-.608.224-1.333.336-2.176.336z" fill="#156963"/><g clip-path="url(#clip0_0_43)" fill="#156963"><path d="M19.298 6.882C15.104 2.691 6.898 2.205 1.09 2.205A1.09 1.09 0 000 3.295c0 5.808.484 14.014 4.677 18.207 1.77 1.77 4.484 2.561 7.173 2.561 2.923 0 5.82-.935 7.448-2.563 3.123-3.123 3.696-10.924 0-14.618zm-1.541 13.08c-2.332 2.33-8.808 2.728-11.537 0C2.836 16.576 2.25 9.7 2.186 4.39c5.31.063 12.186.65 15.57 4.034 2.73 2.729 2.33 9.206 0 11.536zM46.91 6.516c-5.808 0-14.014.484-18.207 4.677-3.697 3.694-3.124 11.495 0 14.618 1.628 1.626 4.522 2.561 7.445 2.561 2.69 0 5.4-.789 7.175-2.558C47.514 21.62 48 13.414 48 7.606a1.09 1.09 0 00-1.09-1.09zM41.778 24.27c-2.73 2.729-9.207 2.33-11.537 0s-2.728-8.807 0-11.536C33.626 9.349 40.503 8.763 45.812 8.7c-.063 5.311-.65 12.188-4.034 15.57z"/><path d="M39.04 15.949c-.258-.547-.994-.735-1.537-.482-8.358 3.93-12.465 10.782-14.33 17.827-2.309-14.978-8.984-19.544-11.816-21.482-.353-.242-.627-.418-.78-.569a1.09 1.09 0 00-1.54 1.541c.215.214.588.482 1.091.826 3.19 2.182 11.667 7.982 11.667 31.096a1.09 1.09 0 002.18.002c0-9.34 2.508-21.652 14.457-27.266 0-.002.176-.085.176-.085.543-.257.689-.863.432-1.408z"/></g><defs><clipPath id="clip0_0_43"><path fill="#fff" d="M0 0h48v48H0z"/></clipPath></defs></svg>