<svg width="34" height="24" fill="none" xmlns="http://www.w3.org/2000/svg"><g clip-path="url(#clip0_22_1416)" fill="#ED863C"><path d="M17.002.806h14.75c1.066 0 1.893.597 2.144 1.517.05.182.034.285-.142.4-5.52 3.568-11.037 7.14-16.55 10.719-.161.105-.262.082-.409-.012C11.29 9.86 5.782 6.292.272 2.73c-.164-.106-.21-.198-.157-.393A2.102 2.102 0 011.953.817c.153-.011.31-.011.465-.011h14.584zm.001 22.999H2.288c-1.04 0-1.817-.52-2.133-1.402-.086-.244-.065-.39.192-.55 4.27-2.64 8.533-5.293 12.792-7.953.21-.13.347-.13.55.007.851.57 1.72 1.112 2.572 1.68.512.341.994.335 1.505-.006.86-.574 1.738-1.125 2.6-1.695.168-.111.288-.124.468-.012 4.288 2.675 8.578 5.345 12.875 8.006.219.135.237.263.172.473a2.104 2.104 0 01-1.83 1.443c-.155.012-.31.01-.465.01H17.004zM0 19.604V5.051l11.466 7.427L0 19.604zm33.998-.009l-11.451-7.117 11.45-7.418v14.535z"/></g><defs><clipPath id="clip0_22_1416"><path fill="#fff" transform="translate(0 .806)" d="M0 0h34v23H0z"/></clipPath></defs></svg>