<svg width="21" height="22" fill="none" xmlns="http://www.w3.org/2000/svg"><path d="M6.005 8.566a29.092 29.092 0 006.936 6.936l.575-.824c.94-1.345 2.268-1.583 3.61-.647.909.633 1.816 1.267 2.724 1.903 1.163.813 1.462 1.98.815 3.239-.756 1.47-2.027 2.16-3.624 2.296-1.831.157-3.55-.318-5.168-1.11-4.855-2.373-8.479-5.995-10.805-10.88C.323 7.917-.119 6.26.028 4.503.177 2.72.99 1.375 2.696.677c.961-.393 2.05-.12 2.669.714a70.946 70.946 0 012.307 3.3c.665 1.014.403 2.337-.557 3.08-.347.269-.715.513-1.11.795z" fill="#ED863C"/></svg>