<svg width="824" height="345" fill="none" xmlns="http://www.w3.org/2000/svg"><path d="M-233.129 213.907c-40.599 32.354 51.383 89.133 77.804 92.097 33.106 3.713 92.597-32.538 118.775-50.185 44.162-29.772 84.893-57.239 121.162-96.997 22.147-24.279 54.375-72.2 52.934-107.348-.747-18.198-6.024-55.73-32.055-50.184-74.595 15.89-81.185 117.277-41.146 167.519 27.628 34.667 67.725 53.96 112.635 51.131 64.371-4.056 125.377-12.899 190.365-9.052 135.437 8.016 83.947 155.786 50.77 236.923-53.413 130.627 130.772 30.997 175.654 16.761 50.613-16.055 121.184-22.763 166.408 11.8 29.284 22.38 40.88 49.083 62.882 76.692" stroke="#fff" stroke-opacity=".11"/></svg>