<svg width="173" height="58" fill="none" xmlns="http://www.w3.org/2000/svg"><path d="M70.218 26.333a4.972 4.972 0 01-1.862-.336 3.96 3.96 0 01-1.442-.98 4.506 4.506 0 01-.938-1.582c-.215-.634-.322-1.358-.322-2.17 0-.812.12-1.53.364-2.156a4.775 4.775 0 011.008-1.596c.42-.43.91-.756 1.47-.98a4.78 4.78 0 011.792-.336 6.424 6.424 0 011.918.28c.242.075.438.15.588.224.149.075.252.13.308.168l-.392 1.12a2.18 2.18 0 00-.364-.182 7.148 7.148 0 00-.546-.196 4.028 4.028 0 00-.658-.154 3.638 3.638 0 00-.714-.07c-.514 0-.976.089-1.386.266a2.87 2.87 0 00-1.05.77c-.29.336-.514.747-.672 1.232a5.368 5.368 0 00-.224 1.61c0 .579.065 1.106.196 1.582.14.476.345.887.616 1.232.27.336.606.598 1.008.784.41.187.886.28 1.428.28.625 0 1.143-.065 1.554-.196.41-.13.718-.247.924-.35l.35 1.12a2.212 2.212 0 01-.35.182 5.75 5.75 0 01-.63.196 7.952 7.952 0 01-1.974.238zm3.814-3.836c0-.644.093-1.204.28-1.68.187-.485.434-.886.742-1.204a3.014 3.014 0 011.064-.714 3.325 3.325 0 011.232-.238c.98 0 1.731.308 2.254.924.523.607.784 1.536.784 2.786v.224c0 .084-.005.164-.014.238H75.39c.056.756.275 1.33.658 1.722.383.392.98.588 1.792.588.457 0 .84-.037 1.148-.112a4.47 4.47 0 00.714-.238l.182 1.092c-.159.084-.439.173-.84.266-.392.094-.84.14-1.344.14-.635 0-1.185-.093-1.652-.28a3.151 3.151 0 01-1.134-.798 3.315 3.315 0 01-.672-1.19 5.29 5.29 0 01-.21-1.526zm4.998-.714c.01-.588-.14-1.068-.448-1.442-.299-.382-.714-.574-1.246-.574-.299 0-.565.06-.798.182a1.804 1.804 0 00-.574.448 2.21 2.21 0 00-.378.644c-.084.243-.14.49-.168.742h3.612zm5.916-3.094c.112 0 .238.01.378.028.15.01.294.028.434.056.14.019.266.042.378.07.122.019.21.038.266.056l-.224 1.134a3.806 3.806 0 00-.518-.126 4.02 4.02 0 00-.91-.084c-.242 0-.485.028-.728.084-.233.047-.387.08-.462.098v6.118h-1.302v-6.972a8.356 8.356 0 011.148-.308 7.1 7.1 0 011.54-.154zm3.93.154h2.759v1.092h-2.758v3.36c0 .364.028.668.084.91.056.234.14.42.252.56.112.13.252.224.42.28.168.056.364.084.588.084.392 0 .704-.042.938-.126.242-.093.41-.158.504-.196l.252 1.078c-.13.066-.36.145-.686.238-.327.103-.7.154-1.12.154-.495 0-.905-.06-1.232-.182a1.842 1.842 0 01-.77-.574 2.34 2.34 0 01-.42-.924 6.622 6.622 0 01-.112-1.288v-6.496l1.302-.224v2.254zm5.718 7.28h-1.302v-7.28h1.302v7.28zm-.658-8.596a.875.875 0 01-.602-.224c-.159-.158-.238-.368-.238-.63 0-.261.079-.466.238-.616a.847.847 0 01.602-.238c.233 0 .429.08.588.238.168.15.252.355.252.616 0 .262-.084.472-.252.63a.825.825 0 01-.588.224zm5.739-2.268c.326 0 .606.024.84.07.233.038.401.075.504.112l-.182 1.12a3.273 3.273 0 00-.42-.112 2.57 2.57 0 00-.644-.07c-.607 0-1.032.168-1.274.504-.243.327-.364.77-.364 1.33v.63h2.8v1.092h-2.8v6.188h-1.302v-7.938c0-.933.228-1.652.686-2.156.457-.513 1.176-.77 2.156-.77zm3.92 10.864h-1.302v-7.28h1.302v7.28zm-.658-8.596a.874.874 0 01-.602-.224c-.159-.158-.238-.368-.238-.63 0-.261.079-.466.238-.616a.845.845 0 01.602-.238.8.8 0 01.588.238c.168.15.252.355.252.616 0 .262-.084.472-.252.63a.826.826 0 01-.588.224zm2.486 4.97c0-.644.093-1.204.28-1.68.186-.485.434-.886.742-1.204a3.008 3.008 0 011.064-.714 3.324 3.324 0 011.232-.238c.98 0 1.731.308 2.254.924.522.607.784 1.536.784 2.786v.224c0 .084-.005.164-.014.238h-4.984c.056.756.275 1.33.658 1.722.382.392.98.588 1.792.588.457 0 .84-.037 1.148-.112a4.46 4.46 0 00.714-.238l.182 1.092c-.159.084-.439.173-.84.266-.392.094-.84.14-1.344.14-.635 0-1.186-.093-1.652-.28a3.14 3.14 0 01-1.134-.798 3.306 3.306 0 01-.672-1.19 5.29 5.29 0 01-.21-1.526zm4.998-.714c.009-.588-.14-1.068-.448-1.442-.299-.382-.714-.574-1.246-.574-.299 0-.565.06-.798.182a1.796 1.796 0 00-.574.448 2.197 2.197 0 00-.378.644c-.084.243-.14.49-.168.742h3.612zm7.932-1.4a2.684 2.684 0 00-.686-.378 2.58 2.58 0 00-.98-.182c-.373 0-.695.07-.966.21-.261.13-.476.318-.644.56a2.302 2.302 0 00-.364.84 4.686 4.686 0 00-.112 1.05c0 .85.21 1.508.63 1.974.42.458.98.686 1.68.686.355 0 .649-.014.882-.042a4.83 4.83 0 00.56-.112v-4.606zm0-4.9l1.302-.224v10.654a12.65 12.65 0 01-1.148.252 9.166 9.166 0 01-1.61.126c-.56 0-1.064-.088-1.512-.266a3.236 3.236 0 01-1.148-.756 3.432 3.432 0 01-.742-1.19 4.772 4.772 0 01-.252-1.596c0-.56.07-1.073.21-1.54a3.54 3.54 0 01.644-1.204c.28-.336.621-.597 1.022-.784a3.35 3.35 0 011.4-.28c.42 0 .789.056 1.106.168.327.112.569.22.728.322v-3.682z" fill="#fff"/><path d="M67.722 34.113c1.033 0 1.826.184 2.38.55.553.36.83.954.83 1.78 0 .834-.28 1.437-.84 1.81-.56.367-1.36.55-2.4.55h-.49v2.32h-1.56v-6.83c.34-.066.7-.113 1.08-.14.38-.026.713-.04 1-.04zm.1 1.33a6.4 6.4 0 00-.34.01l-.28.02v2h.49c.54 0 .946-.073 1.22-.22.273-.146.41-.42.41-.82a.948.948 0 00-.11-.48.724.724 0 00-.3-.3 1.187 1.187 0 00-.47-.16 3.543 3.543 0 00-.62-.05zm8.511 5.68c-.073-.24-.156-.486-.25-.74l-.26-.76h-2.7a34.68 34.68 0 01-.27.76c-.086.254-.166.5-.24.74h-1.62c.26-.746.507-1.436.74-2.07.234-.633.46-1.23.68-1.79.227-.56.447-1.09.66-1.59.22-.506.447-1 .68-1.48h1.49a51.525 51.525 0 011.33 3.07c.227.56.457 1.157.69 1.79.234.634.48 1.324.74 2.07h-1.67zm-1.87-5.36c-.033.1-.083.237-.15.41l-.23.6c-.086.227-.183.477-.29.75-.1.274-.203.56-.31.86h1.97c-.106-.3-.21-.586-.31-.86a20.38 20.38 0 00-.29-.75 373.095 373.095 0 00-.39-1.01zm6.768-1.65c1.04 0 1.836.187 2.39.56.553.367.83.94.83 1.72 0 .487-.114.884-.34 1.19-.22.3-.54.537-.96.71.14.174.286.374.44.6.153.22.303.454.45.7.153.24.3.494.44.76.14.26.27.517.39.77h-1.75a81.351 81.351 0 00-.39-.69 11.66 11.66 0 00-.4-.68c-.134-.22-.267-.426-.4-.62-.134-.2-.267-.38-.4-.54h-.77v2.53H79.2v-6.83c.34-.066.69-.113 1.05-.14.366-.026.693-.04.98-.04zm.09 1.33c-.114 0-.217.004-.31.01l-.25.02v1.88h.44c.586 0 1.006-.073 1.26-.22.253-.146.38-.396.38-.75 0-.34-.13-.58-.39-.72-.254-.146-.63-.22-1.13-.22zm9.892-1.25v1.33h-2.09v5.6h-1.56v-5.6h-2.09v-1.33h5.74zm5.952 6.93a34.91 34.91 0 00-1.45-2.35 23.904 23.904 0 00-1.66-2.19v4.54h-1.54v-6.93h1.27c.22.22.464.49.73.81.267.32.537.664.81 1.03.28.36.557.737.83 1.13.274.387.53.76.77 1.12v-4.09h1.55v6.93h-1.31zm3.209 0v-6.93h4.68v1.31h-3.12v1.36h2.77v1.28h-2.77v1.67h3.35v1.31h-4.91zm8.394-7.01c1.04 0 1.837.187 2.39.56.554.367.83.94.83 1.72 0 .487-.113.884-.34 1.19-.22.3-.54.537-.96.71.14.174.287.374.44.6.154.22.304.454.45.7.154.24.3.494.44.76.14.26.27.517.39.77h-1.75a57.865 57.865 0 00-.39-.69c-.126-.233-.26-.46-.4-.68-.133-.22-.266-.426-.4-.62-.133-.2-.266-.38-.4-.54h-.77v2.53h-1.56v-6.83c.34-.066.69-.113 1.05-.14.367-.026.694-.04.98-.04zm.09 1.33a4.44 4.44 0 00-.31.01l-.25.02v1.88h.44c.587 0 1.007-.073 1.26-.22.254-.146.38-.396.38-.75 0-.34-.13-.58-.39-.72-.253-.146-.63-.22-1.13-.22z" fill="#EC9548"/><rect x=".829" y="1.123" width="171.671" height="56" rx=".5" stroke="#C4C4C4"/><path d="M36.351 23.006v-1.398a.345.345 0 00-.21-.364 2.516 2.516 0 01-1.222-2.994 2.544 2.544 0 014.97.388 2.48 2.48 0 01-1.3 2.622.304.304 0 00-.19.312v2.892c0 .19.05.26.26.304a7.09 7.09 0 015.621 5.653c.8 3.913-2.03 7.864-5.977 8.362a6.991 6.991 0 01-5.096-1.25c-.167-.117-.26-.12-.406.032a157.53 157.53 0 01-2.372 2.38.398.398 0 00-.12.408 2.19 2.19 0 01-3.393 2.25 2.204 2.204 0 01-.463-3.201 2.05 2.05 0 012.123-.754.57.57 0 00.61-.19c.732-.753 1.47-1.495 2.217-2.227.161-.158.19-.26.052-.462a7.056 7.056 0 01.759-8.971c.2-.205.125-.26-.057-.4a3410.306 3410.306 0 01-8.423-5.928.374.374 0 00-.444-.044 2.685 2.685 0 01-2.981-.302 2.69 2.69 0 01-1.053-2.786c.219-1.148.957-1.845 2.08-2.227 1.561-.538 3.96.928 3.508 3.288a.333.333 0 00.158.384 3421.94 3421.94 0 018.805 6.497.37.37 0 00.447.047 5.977 5.977 0 011.82-.585c.225-.034.28-.127.259-.343.005-.46.018-.925.018-1.393zm.957 12.503a3.766 3.766 0 10-3.764-3.758 3.776 3.776 0 003.764 3.758z" fill="#EC9548"/></svg>