<svg width="103" height="218" viewBox="0 0 103 218" fill="none" xmlns="http://www.w3.org/2000/svg">
<path d="M23.3149 74.7097H60.3668V83.9727H23.3149V74.7097ZM23.3149 51.5523H78.8927V60.8153H23.3149V51.5523ZM23.3149 97.8671H46.4723V107.13H23.3149V97.8671Z" fill="#FDB604"/>
<path d="M92.7869 14.5005H78.8924V9.86898C78.8924 7.41229 77.9165 5.05622 76.1794 3.31908C74.4422 1.58193 72.0861 0.606018 69.6294 0.606018H32.5776C30.1209 0.606018 27.7648 1.58193 26.0277 3.31908C24.2906 5.05622 23.3146 7.41229 23.3146 9.86898V14.5005H9.42019C6.9635 14.5005 4.60743 15.4764 2.87029 17.2135C1.13314 18.9507 0.157227 21.3067 0.157227 23.7634V121.025C0.157227 123.481 1.13314 125.837 2.87029 127.574C4.60743 129.312 6.9635 130.288 9.42019 130.288H92.7869C95.2436 130.288 97.5996 129.312 99.3368 127.574C101.074 125.837 102.05 123.481 102.05 121.025V23.7634C102.05 21.3067 101.074 18.9507 99.3368 17.2135C97.5996 15.4764 95.2436 14.5005 92.7869 14.5005ZM32.5776 9.86898H69.6294V28.3949H32.5776V9.86898ZM92.7869 121.025H9.42019V23.7634H23.3146V37.6579H78.8924V23.7634H92.7869V121.025Z" fill="#FDB604"/>
<path d="M51.415 200.4L68.8866 178.56H55.7829V147.985H47.0471V178.56H33.9434L51.415 200.4Z" fill="#FDB604"/>
<path d="M86.3581 209.136H16.4716V178.56H7.73584V209.136C7.73584 213.953 11.6538 217.871 16.4716 217.871H86.3581C91.1759 217.871 95.0939 213.953 95.0939 209.136V178.56H86.3581V209.136Z" fill="#FDB604"/>
</svg>
