<svg width="50" height="50" viewBox="0 0 50 50" fill="none" xmlns="http://www.w3.org/2000/svg">
<g id="Frame 47" clip-path="url(#clip0_610_1427)">
<g id="Clip path group">
<mask id="mask0_610_1427" style="mask-type:luminance" maskUnits="userSpaceOnUse" x="0" y="0" width="50" height="50">
<g id="clip0_610_1317">
<path id="Vector" d="M50 0H0V50H50V0Z" fill="white"/>
</g>
</mask>
<g mask="url(#mask0_610_1427)">
<g id="Group">
<g id="Group_2" filter="url(#filter0_d_610_1427)">
<path id="Vector_2" d="M25.0331 44.928C23.3554 44.928 21.6675 44.7148 20.0009 44.2822C14.8504 42.947 10.5287 39.6865 7.83109 35.0999C5.13359 30.5132 4.38269 25.1514 5.71779 20.0018C7.05289 14.8512 10.3134 10.5294 14.8999 7.83179C19.4854 5.13419 24.8472 4.38329 29.9977 5.71839C35.1482 7.05359 39.4699 10.3141 42.1674 14.9007C44.865 19.4864 45.6159 24.8492 44.2808 29.9988C42.9457 35.1494 39.6852 39.4712 35.0986 42.1688C31.9968 43.9931 28.5392 44.928 25.0331 44.928ZM25.0018 9.22359C17.9866 9.22359 11.5687 13.9436 9.72918 21.0418C7.54608 29.4621 12.6208 38.0885 21.0409 40.2707C25.119 41.3279 29.366 40.7336 32.9984 38.5969C36.6298 36.4603 39.2132 33.037 40.2703 28.9588C41.3275 24.8795 40.7333 20.6335 38.5967 17.001C36.4601 13.3695 33.0368 10.7861 28.9587 9.72889C27.6367 9.38629 26.3086 9.22259 25.0028 9.22259L25.0018 9.22359Z" fill="#FFCE00"/>
<path id="Vector_3" d="M48.7276 43.1021C47.9574 43.1647 47.2469 43.3052 46.6536 43.4346H46.6486C43.6003 44.131 40.6925 43.7115 38.6722 42.2844C37.8282 41.6679 30.3804 31.1918 26.2053 24.1158C22.4809 17.8029 18.5482 9.87493 17.2566 7.26933C16.9483 6.64673 16.8907 6.53243 16.8614 6.48293C15.1735 3.64483 12.8843 1.91454 10.2393 1.47894C7.6095 1.04534 4.8594 1.92163 2.4944 3.94603C1.89 4.46353 1.3392 5.02654 0.8106 5.66934L0 6.65374L1.2715 6.55063C2.0416 6.48803 2.7521 6.34753 3.3504 6.21613C6.3987 5.52073 9.3065 5.94023 11.3268 7.36733C12.1293 7.94043 20.4079 18.1061 24.5346 25.1003C27.0957 29.4413 30.0893 35.7128 32.9638 42.7625C33.0739 43.0334 33.0972 43.09 33.1134 43.1233C34.5041 46.0857 36.5295 47.9333 38.9723 48.4639C39.4696 48.5721 39.982 48.6256 40.5045 48.6256C42.7897 48.6256 45.2659 47.6068 47.5036 45.7077L47.5157 45.6976C48.2182 45.0659 48.7336 44.5373 49.1894 43.9834L50 42.999L48.7276 43.1021Z" fill="#FFCE00"/>
<path id="Vector_4" d="M45.8749 2.49601L45.8649 2.48381C45.2332 1.78241 44.7046 1.26591 44.1507 0.810112L43.1663 -0.000488281L43.2694 1.27101C43.3321 2.04121 43.4725 2.75171 43.6019 3.34501V3.35001C44.2983 6.39831 43.8788 9.30621 42.4517 11.3266C41.8352 12.1705 31.3594 19.6185 24.2835 23.7937C17.9717 27.5182 10.0429 31.4509 7.4373 32.7426C6.8147 33.0509 6.7005 33.1085 6.651 33.1378C3.8129 34.8257 2.0826 37.1149 1.647 39.76C1.2145 42.3898 2.0907 45.14 4.1141 47.5051C4.6316 48.1095 5.1946 48.6603 5.8363 49.1889L6.8208 49.9995L6.7177 48.728C6.655 47.9579 6.5145 47.2473 6.3841 46.649C5.6888 43.6007 6.1082 40.6929 7.5353 38.6724C8.1084 37.8699 18.2739 29.5912 25.2679 25.4644C29.6068 22.9043 35.8792 19.9106 42.9278 17.0361C43.2007 16.9249 43.2573 16.9017 43.2896 16.8865C46.2519 15.4958 48.0995 13.4703 48.6301 11.0274C49.2112 8.35511 48.2066 5.24611 45.874 2.49701L45.8749 2.49601Z" fill="#FFCE00"/>
<path id="Vector_5" d="M36.7796 29.2168C36.4653 29.142 36.153 29.0622 35.8376 28.9955C35.684 28.9631 35.6466 28.8894 35.685 28.7428C35.7517 28.4922 35.8013 28.2375 35.8659 27.9858C35.8983 27.8615 35.8771 27.7907 35.7376 27.7584C34.4398 27.4572 33.1431 27.153 31.8464 26.8457C31.709 26.8134 31.6554 26.8629 31.6281 26.9902C31.5765 27.2369 31.521 27.4845 31.4542 27.727C31.4138 27.8756 31.4502 27.9464 31.6059 27.9777C31.8605 28.0282 32.1102 28.099 32.3639 28.1515C32.5044 28.1809 32.5498 28.2455 32.5124 28.3881C32.4356 28.6872 32.3679 28.9884 32.2992 29.2896C32.2679 29.4281 32.189 29.4736 32.0536 29.4412C31.3572 29.2775 30.6609 29.1148 29.9645 28.953C29.827 28.9217 29.7795 28.85 29.8149 28.7105C29.8887 28.4184 29.9483 28.1222 30.0241 27.8301C30.0605 27.6886 30.0211 27.626 29.8786 27.5946C29.4127 27.4915 28.9508 27.3733 28.4848 27.2732C28.315 27.2368 28.2675 27.1631 28.314 26.9963C28.3828 26.7467 28.4313 26.4909 28.4949 26.2393C28.5263 26.116 28.4869 26.0573 28.3646 26.0311C28.1038 25.9755 27.844 25.9158 27.5863 25.8481C27.4509 25.8128 27.3943 25.8603 27.367 25.9906C27.3134 26.2443 27.2447 26.495 27.1922 26.7497C27.1618 26.8942 27.1032 26.9468 26.9466 26.9134C26.5059 26.8194 26.4998 26.8245 26.3785 27.2732C26.3401 27.4178 26.2704 27.4481 26.136 27.4137C25.8843 27.349 25.6296 27.2995 25.379 27.2328C25.2425 27.1964 25.1698 27.2247 25.1405 27.3733C25.0889 27.628 25.0283 27.8807 24.9636 28.1313C24.9302 28.2617 24.9636 28.3264 25.099 28.3547C25.3527 28.4073 25.6034 28.478 25.857 28.5285C26.0167 28.5599 26.0632 28.6306 26.0228 28.7913C25.9066 29.2542 25.8075 29.7202 25.6913 30.1831C25.6539 30.3337 25.6913 30.4014 25.8449 30.4317C26.1269 30.4883 26.4038 30.5661 26.6858 30.6238C26.8222 30.6521 26.8707 30.7076 26.8495 30.8522C26.7919 31.2494 26.6737 31.6314 26.5888 32.0226C26.5201 32.3379 26.4392 32.6502 26.3685 32.9656C26.3381 33.103 26.2704 33.1526 26.1289 33.1172C25.8227 33.0404 25.5154 32.9686 25.2071 32.8999C25.0838 32.8726 25.0485 32.8079 25.0788 32.6876C25.1435 32.4289 25.194 32.1671 25.2638 31.9094C25.3052 31.7568 25.2567 31.6921 25.1071 31.6628C24.8595 31.6142 24.6139 31.5536 24.3693 31.4909C24.243 31.4586 24.1753 31.4839 24.1429 31.6223C23.8417 32.9211 23.5375 34.2178 23.2302 35.5146C23.1969 35.6541 23.2515 35.7046 23.3768 35.7309C23.6305 35.7855 23.8811 35.8532 24.1348 35.9057C24.2834 35.9361 24.3319 36.0028 24.2935 36.1544C24.2126 36.4667 24.1459 36.782 24.0732 37.0964C24.06 37.1044 24.0459 37.1125 24.0327 37.1216C23.7204 37.0478 23.4081 36.969 23.0948 36.9013C22.9462 36.87 22.9038 36.8053 22.9361 36.6527C23.0342 36.1928 23.0291 36.1918 22.5763 36.0856C22.3722 36.0381 22.167 35.9957 21.9649 35.9401C21.8224 35.9007 21.7506 35.928 21.7112 36.0856C21.597 36.5486 21.5909 36.5465 21.1179 36.4354C20.9006 36.3848 20.6823 36.3343 20.465 36.2848C20.4569 36.2706 20.4488 36.2575 20.4397 36.2433C20.5125 35.9361 20.5934 35.6308 20.655 35.3215C20.6904 35.1487 20.7702 35.1083 20.934 35.1538C21.1765 35.2215 21.4261 35.267 21.6697 35.3306C21.795 35.363 21.8648 35.3408 21.8971 35.2013C22.1983 33.9035 22.5025 32.6058 22.8088 31.309C22.8371 31.1918 22.8148 31.123 22.6865 31.0958C22.4197 31.0381 22.1528 30.9765 21.888 30.9088C21.7597 30.8764 21.7102 30.93 21.6849 31.0472C21.6283 31.308 21.5596 31.5657 21.505 31.8265C21.4757 31.965 21.413 32.0145 21.2695 31.9771C20.9703 31.9003 20.6702 31.8305 20.369 31.7659C20.2265 31.7355 20.187 31.6597 20.2194 31.5243C20.3862 30.8219 20.5529 30.1184 20.7146 29.4149C20.746 29.2805 20.8147 29.2472 20.942 29.2795C21.221 29.3492 21.504 29.4028 21.7809 29.4806C21.9547 29.5292 22.0336 29.4928 22.072 29.3068C22.166 28.854 22.2852 28.4062 22.3823 27.9534C22.4176 27.7877 22.4854 27.7301 22.6572 27.7776C22.9068 27.8473 23.1625 27.8948 23.4142 27.9585C23.5345 27.9888 23.5981 27.9585 23.6254 27.8322C23.681 27.5714 23.7417 27.3116 23.8084 27.0539C23.8427 26.9225 23.8053 26.8599 23.6709 26.8316C23.4101 26.777 23.1524 26.7062 22.8927 26.6516C22.7512 26.6223 22.7158 26.5556 22.7441 26.4141C22.8351 25.9664 22.832 25.9603 22.3893 25.8431C22.2489 25.8057 22.2074 25.744 22.2438 25.6045C22.3105 25.3468 22.362 25.085 22.4288 24.8273C22.4631 24.6949 22.4217 24.6333 22.2893 24.606C22.0356 24.5534 21.7819 24.4948 21.5323 24.4281C21.3878 24.3897 21.3281 24.4392 21.2998 24.5787C21.2493 24.8263 21.1785 25.0689 21.131 25.3165C21.0977 25.4913 21.0158 25.5257 20.8511 25.4833C20.4094 25.3711 19.9616 25.2821 19.522 25.1639C19.3209 25.1103 19.2461 25.1679 19.2117 25.364C19.1632 25.6328 19.0864 25.8966 19.0288 26.1635C18.9964 26.31 18.9196 26.3626 18.7731 26.3272C18.0838 26.1645 17.3945 26.0028 16.7042 25.8451C16.5607 25.8117 16.5031 25.745 16.5415 25.5924C16.6183 25.2932 16.689 24.9931 16.7527 24.6909C16.784 24.5453 16.8568 24.513 16.9933 24.5483C17.2439 24.613 17.4996 24.6636 17.7503 24.7293C17.8847 24.7646 17.9605 24.7404 17.9898 24.5908C18.0403 24.3361 18.102 24.0844 18.1667 23.8328C18.2 23.7044 18.1697 23.6397 18.0332 23.6084C16.7355 23.3072 15.4388 23.003 14.1431 22.6957C14.0026 22.6624 13.9541 22.718 13.9278 22.8433C13.8732 23.097 13.8055 23.3476 13.753 23.6013C13.7227 23.7509 13.6549 23.7984 13.5043 23.759C13.192 23.6791 12.8767 23.6114 12.5624 23.5386C12.5543 23.5245 12.5462 23.5114 12.5371 23.4972C12.6109 23.1849 12.6907 22.8726 12.7574 22.5593C12.7888 22.4107 12.8555 22.3693 13.0061 22.4016C13.4649 22.4986 13.4659 22.4936 13.5721 22.0408C13.6196 21.8366 13.662 21.6314 13.7176 21.4293C13.757 21.2858 13.7287 21.215 13.5721 21.1766C13.1102 21.0624 13.1122 21.0563 13.2224 20.5823C13.2729 20.365 13.3234 20.1467 13.374 19.9294C13.3871 19.9213 13.4012 19.9132 13.4144 19.9041C13.7277 19.9789 14.041 20.0578 14.3564 20.1255C14.51 20.1578 14.5484 20.2306 14.509 20.3781C14.4423 20.6288 14.3927 20.8835 14.3281 21.1352C14.2967 21.2595 14.3159 21.3302 14.4564 21.3636C15.7541 21.6648 17.0509 21.969 18.3466 22.2753C18.4638 22.3025 18.5326 22.2823 18.5598 22.153C18.6174 21.8851 18.6801 21.6193 18.7468 21.3545C18.7791 21.2261 18.7266 21.1766 18.6094 21.1503C18.3496 21.0937 18.0919 21.025 17.8311 20.9704C17.6937 20.9411 17.6421 20.8795 17.6795 20.7359C17.7563 20.4368 17.8271 20.1366 17.8907 19.8344C17.9241 19.6777 18.009 19.6484 18.1495 19.6828C18.8378 19.8475 19.5271 20.0113 20.2164 20.171C20.3629 20.2053 20.4114 20.2801 20.373 20.4287C20.3033 20.7006 20.2528 20.9775 20.1759 21.2464C20.1264 21.4202 20.1638 21.499 20.3498 21.5374C20.8026 21.6314 21.2503 21.7507 21.7021 21.8477C21.8678 21.8831 21.9254 21.9508 21.8779 22.1216C21.8082 22.3713 21.7607 22.627 21.697 22.8787C21.6667 22.9979 21.697 23.0626 21.8233 23.0899C22.0841 23.1455 22.3439 23.2061 22.6016 23.2728C22.733 23.3072 22.7956 23.2698 22.8239 23.1354C22.8785 22.8746 22.9493 22.6169 23.0039 22.3561C23.0332 22.2146 23.0999 22.1792 23.2414 22.2075C23.6881 22.2985 23.6942 22.2955 23.8124 21.8528C23.8498 21.7123 23.9135 21.6719 24.0519 21.7072C24.3097 21.7739 24.5714 21.8255 24.8291 21.8922C24.9626 21.9266 25.0222 21.8841 25.0495 21.7517C25.1031 21.498 25.1607 21.2443 25.2274 20.9937C25.2668 20.8481 25.2153 20.7895 25.0768 20.7612C24.8433 20.7137 24.6149 20.6409 24.3794 20.6035C24.1611 20.5692 24.1277 20.4701 24.1803 20.271C24.2925 19.8516 24.3834 19.425 24.4815 19.0026C24.5226 18.8254 24.4518 18.7152 24.2692 18.6721C24.0095 18.6104 23.7518 18.5447 23.491 18.4911C23.3384 18.4598 23.298 18.382 23.3323 18.2364C23.4991 17.5411 23.6638 16.8447 23.8235 16.1473C23.8569 16.0038 23.9266 15.9674 24.0641 16.0018C24.3632 16.0776 24.6634 16.1483 24.9646 16.213C25.1101 16.2443 25.1425 16.3171 25.1071 16.4535C25.0424 16.7042 24.9919 16.9599 24.9262 17.2106C24.8908 17.345 24.9151 17.4208 25.0646 17.4501C25.3183 17.5006 25.571 17.5623 25.8227 17.627C25.951 17.6603 26.0157 17.63 26.0481 17.4936C26.3492 16.1958 26.6535 14.8981 26.9607 13.6023C26.9941 13.4618 26.9375 13.4133 26.8132 13.387C26.5595 13.3325 26.3088 13.2647 26.0551 13.2122C25.9055 13.1819 25.858 13.1142 25.8975 12.9636C25.9773 12.6512 26.045 12.3359 26.1178 12.0216C26.1309 12.0135 26.1451 12.0054 26.1582 11.9973C26.4705 12.0711 26.7818 12.1499 27.0962 12.2176C27.2437 12.249 27.2872 12.3137 27.2548 12.4663C27.1568 12.9262 27.1628 12.9272 27.6146 13.0333C27.8188 13.0808 28.024 13.1232 28.2261 13.1788C28.3686 13.2183 28.4404 13.192 28.4798 13.0343C28.594 12.5714 28.6 12.5734 29.073 12.6836C29.2903 12.7341 29.5087 12.7836 29.726 12.8342C29.7341 12.8473 29.7432 12.8615 29.7512 12.8746C29.6765 13.1889 29.5966 13.5013 29.5299 13.8166C29.4975 13.9702 29.4238 14.0076 29.2772 13.9692C29.0266 13.9025 28.7719 13.853 28.5202 13.7883C28.3959 13.756 28.3251 13.7772 28.2928 13.9167C27.9916 15.2144 27.6874 16.5122 27.3801 17.8089C27.3478 17.9464 27.3963 17.9999 27.5247 18.0272C27.7713 18.0788 28.0179 18.1344 28.2615 18.2011C28.409 18.2415 28.4808 18.2061 28.5121 18.0495C28.5617 17.7948 28.6334 17.5451 28.686 17.2904C28.7153 17.1509 28.7799 17.1044 28.9225 17.1408C29.2216 17.2176 29.5218 17.2874 29.824 17.3521C29.9483 17.3784 29.9857 17.44 29.9594 17.5593C29.9372 17.6614 29.9301 17.7675 29.9069 17.8696C29.7714 18.4507 29.634 19.0299 29.4965 19.61C29.4359 19.8687 29.4238 19.8768 29.1731 19.8192C28.9063 19.7576 28.6385 19.701 28.3747 19.6302C28.2241 19.5898 28.1594 19.6333 28.126 19.7849C28.024 20.2508 27.9057 20.7127 27.8046 21.1786C27.7693 21.3403 27.6975 21.3838 27.5398 21.3414C27.2892 21.2736 27.0345 21.2251 26.7828 21.1604C26.6494 21.1261 26.5898 21.1685 26.5615 21.2999C26.5079 21.5536 26.4503 21.8073 26.3836 22.058C26.3442 22.2035 26.3957 22.2621 26.5342 22.2904C26.7677 22.3379 26.9971 22.4107 27.2316 22.4481C27.4499 22.4825 27.4812 22.5815 27.4307 22.7806C27.3175 23.2213 27.2882 23.1606 27.7349 23.2577C27.9269 23.2991 27.9967 23.3709 27.936 23.571C27.8673 23.7984 27.8299 24.0359 27.7672 24.2664C27.7278 24.4129 27.7592 24.4877 27.9168 24.518C28.1644 24.5655 28.41 24.6252 28.6536 24.6909C28.7931 24.7283 28.8608 24.6909 28.8901 24.5463C28.9417 24.2916 29.0124 24.042 29.064 23.7873C29.0943 23.6367 29.164 23.5942 29.3146 23.6306C29.7775 23.7458 30.2434 23.8449 30.7063 23.9621C30.867 24.0026 30.9358 23.9621 30.9681 23.7994C31.0237 23.5174 31.1015 23.2395 31.1612 22.9585C31.1915 22.814 31.2551 22.7523 31.4088 22.7887C32.1041 22.9555 32.8005 23.1192 33.4969 23.2829C33.6313 23.3143 33.6848 23.383 33.6495 23.5245C33.5727 23.8307 33.5009 24.138 33.4332 24.4463C33.4059 24.5696 33.3412 24.605 33.2219 24.5756C32.9632 24.511 32.7014 24.4604 32.4447 24.3907C32.2921 24.3492 32.2274 24.3957 32.1981 24.5473C32.1496 24.795 32.089 25.0406 32.0263 25.2852C31.994 25.4115 32.0182 25.4802 32.1567 25.5116C33.4544 25.8128 34.7511 26.117 36.0478 26.4242C36.1863 26.4576 36.2379 26.405 36.2652 26.2777C36.3177 26.0311 36.3864 25.7875 36.4339 25.5399C36.4663 25.3721 36.538 25.3185 36.7088 25.364C37.0131 25.4459 37.3234 25.5095 37.6306 25.5803C37.6387 25.5944 37.6478 25.6076 37.6559 25.6207C37.5821 25.933 37.5023 26.2453 37.4355 26.5597C37.4042 26.7082 37.3385 26.7507 37.1869 26.7184C36.728 26.6203 36.726 26.6264 36.6199 27.0782C36.5724 27.2823 36.53 27.4875 36.4744 27.6896C36.435 27.8322 36.4622 27.9039 36.6199 27.9433C37.0818 28.0575 37.0808 28.0636 36.9696 28.5376C36.9191 28.7549 36.8685 28.9733 36.819 29.1916C36.8059 29.1997 36.7927 29.2077 36.7796 29.2168ZM26.2371 24.8111C26.3108 24.4978 26.3806 24.1825 26.4594 23.8702C26.4928 23.7388 26.4543 23.6781 26.3219 23.6478C25.6802 23.5013 25.0394 23.3507 24.3986 23.197C24.2763 23.1677 24.2177 23.2031 24.1894 23.3264C24.0418 23.9682 23.8923 24.61 23.7376 25.2498C23.7063 25.3822 23.7427 25.4418 23.8751 25.4721C24.5098 25.6167 25.1445 25.7652 25.7772 25.9189C25.9187 25.9532 25.9824 25.9158 26.0127 25.7733C26.0804 25.4509 26.1623 25.1315 26.2371 24.8111Z" fill="#2B94FC"/>
<path id="Vector_6" d="M11.9536 25.9894C11.6059 25.9076 11.2593 25.8206 10.9096 25.7448C10.76 25.7125 10.7115 25.6407 10.7479 25.4932C10.9146 24.7978 11.0794 24.1014 11.2391 23.404C11.2714 23.2635 11.3371 23.2211 11.4766 23.2544C11.8303 23.3403 12.1871 23.4182 12.5419 23.499C12.5499 23.5122 12.558 23.5263 12.5671 23.5405C12.3761 24.349 12.1851 25.1576 11.994 25.9652C11.9809 25.9733 11.9668 25.9803 11.9536 25.9894Z" fill="#2B94FC"/>
<path id="Vector_7" d="M23.6719 11.4095C23.7527 11.0689 23.8417 10.7293 23.9114 10.3857C23.9488 10.2017 24.0357 10.1633 24.2075 10.2058C24.8746 10.3695 25.5427 10.5272 26.2128 10.6798C26.3856 10.7192 26.4452 10.795 26.3987 10.9739C26.3108 11.3125 26.2401 11.6561 26.1622 11.9978C26.1491 12.0058 26.1349 12.0139 26.1218 12.022C25.3132 11.831 24.5057 11.64 23.6971 11.4499C23.6891 11.4358 23.68 11.4237 23.6719 11.4095Z" fill="#2B94FC"/>
<path id="Vector_8" d="M29.7305 12.8355C29.8144 12.4878 29.9033 12.1412 29.9791 11.7925C30.0135 11.6328 30.0883 11.5853 30.2459 11.6227C30.9342 11.7894 31.6225 11.9512 32.3128 12.1119C32.4614 12.1462 32.5038 12.224 32.4664 12.3706C32.3795 12.7173 32.3027 13.067 32.2218 13.4147L32.1814 13.4399C31.3728 13.2519 30.5643 13.0639 29.7557 12.876C29.7477 12.8628 29.7386 12.8487 29.7305 12.8355Z" fill="#2B94FC"/>
<path id="Vector_9" d="M13.3778 19.9287C13.0372 19.8469 12.6976 19.7589 12.3549 19.6851C12.1922 19.6498 12.1285 19.5831 12.171 19.4102C12.3388 18.7219 12.5005 18.0326 12.6571 17.3423C12.6925 17.1856 12.7693 17.1563 12.9129 17.1927C13.2595 17.2796 13.6092 17.3565 13.9569 17.4363C13.965 17.4494 13.9741 17.4636 13.9822 17.4767C13.7942 18.2853 13.6062 19.0949 13.4172 19.9035C13.404 19.9115 13.3909 19.9196 13.3778 19.9287Z" fill="#2B94FC"/>
<path id="Vector_10" d="M26.5255 37.7097C26.4467 38.0442 26.3608 38.3768 26.2911 38.7133C26.2527 38.8953 26.1738 38.9589 25.9838 38.9135C25.3238 38.7517 24.6618 38.5971 23.9978 38.4505C23.7987 38.4071 23.7532 38.3171 23.8047 38.1251C23.8937 37.7936 23.9604 37.456 24.0372 37.1215C24.0503 37.1134 24.0645 37.1053 24.0776 37.0962C24.8852 37.2872 25.6937 37.4772 26.5013 37.6683C26.5093 37.6814 26.5184 37.6955 26.5265 37.7087L26.5255 37.7097Z" fill="#2B94FC"/>
<path id="Vector_11" d="M18.0176 35.6794C18.8262 35.8674 19.6347 36.0554 20.4433 36.2434C20.4514 36.2566 20.4594 36.2707 20.4685 36.2849C20.3867 36.6255 20.2988 36.9651 20.225 37.3077C20.1866 37.4856 20.1007 37.5341 19.9258 37.4917C19.2588 37.3299 18.5897 37.1743 17.9196 37.0237C17.7437 36.9843 17.6901 36.9065 17.7366 36.7286C17.8256 36.39 17.8984 36.0463 17.9772 35.7047C17.9903 35.6966 18.0045 35.6885 18.0176 35.6794Z" fill="#2B94FC"/>
<path id="Vector_12" d="M36.2148 31.6413C36.4028 30.8328 36.5918 30.0242 36.7798 29.2146C36.7929 29.2065 36.8071 29.1984 36.8202 29.1893C37.1538 29.2692 37.4843 29.3612 37.8208 29.4258C38.0017 29.4602 38.0543 29.5421 38.0159 29.7109C37.9027 30.2011 37.7915 30.6923 37.6783 31.1835C37.6359 31.3674 37.5843 31.5493 37.551 31.7353C37.5196 31.9112 37.4428 31.9698 37.2619 31.9223C36.9243 31.8334 36.5817 31.7616 36.2411 31.6818C36.233 31.6676 36.2239 31.6545 36.2159 31.6403L36.2148 31.6413Z" fill="#2B94FC"/>
<path id="Vector_13" d="M38.2453 23.1318C38.5859 23.2127 38.9245 23.2986 39.2662 23.3704C39.4107 23.4007 39.4653 23.4573 39.44 23.6109C39.3642 24.0738 39.2308 24.5236 39.1317 24.9814C39.0782 25.227 39.0135 25.4706 38.9599 25.7172C38.9296 25.8557 38.8589 25.9002 38.7194 25.8658C38.3656 25.7799 38.0109 25.7021 37.6561 25.6222C37.648 25.6091 37.6389 25.5949 37.6309 25.5818C37.8219 24.7732 38.0129 23.9657 38.2039 23.1571C38.2171 23.149 38.2312 23.1409 38.2444 23.1328L38.2453 23.1318Z" fill="#2B94FC"/>
<path id="Vector_14" d="M26.7615 36.5505C26.4209 36.4696 26.0823 36.3837 25.7397 36.3109C25.5759 36.2766 25.5123 36.2079 25.5568 36.036C25.6366 35.7318 25.7073 35.4246 25.774 35.1173C25.8034 34.9819 25.862 34.9242 26.0065 34.9606C26.3117 35.0385 26.618 35.1092 26.9252 35.1769C27.0576 35.2062 27.094 35.2719 27.0627 35.4013C26.9717 35.7753 26.8878 36.1502 26.8009 36.5252C26.7878 36.5333 26.7746 36.5414 26.7615 36.5505Z" fill="#2B94FC"/>
<path id="Vector_15" d="M35.0555 31.4063C34.6886 31.3193 34.3218 31.2284 33.9539 31.1475C33.8063 31.1152 33.7568 31.0505 33.7962 30.8989C33.872 30.6078 33.9397 30.3147 34.0024 30.0206C34.0337 29.874 34.1034 29.8174 34.252 29.8548C34.5643 29.9326 34.8766 30.0074 35.1899 30.0782C35.3405 30.1126 35.3749 30.1954 35.3395 30.339C35.2536 30.6846 35.1768 31.0333 35.0959 31.38C35.0828 31.3881 35.0687 31.3972 35.0555 31.4063Z" fill="#2B94FC"/>
<path id="Vector_16" d="M13.1113 26.2259C13.1932 25.8792 13.2811 25.5335 13.3559 25.1849C13.3903 25.0231 13.4701 24.9797 13.6238 25.0181C13.929 25.0949 14.2342 25.1677 14.5415 25.2374C14.689 25.2708 14.7335 25.3486 14.6961 25.4951C14.6203 25.7933 14.5506 26.0925 14.4849 26.3937C14.4556 26.5271 14.3878 26.5604 14.2595 26.5291C13.8865 26.4381 13.5116 26.3542 13.1366 26.2673C13.1285 26.2532 13.1194 26.24 13.1113 26.2259Z" fill="#2B94FC"/>
<path id="Vector_17" d="M31.9436 14.5986C31.8567 14.9665 31.7647 15.3324 31.6849 15.7023C31.6525 15.8519 31.5858 15.8973 31.4352 15.8589C31.1381 15.7811 30.8369 15.7134 30.5367 15.6467C30.4053 15.6174 30.3639 15.5466 30.3942 15.4203C30.472 15.0938 30.5519 14.7674 30.6236 14.4399C30.654 14.3014 30.7328 14.2812 30.8551 14.3115C31.2088 14.3964 31.5636 14.4763 31.9173 14.5592C31.9254 14.5733 31.9345 14.5864 31.9426 14.6006L31.9436 14.5986Z" fill="#2B94FC"/>
<path id="Vector_18" d="M37.0868 22.8938C37.0059 23.2344 36.92 23.573 36.8472 23.9147C36.8088 24.0936 36.7209 24.1421 36.5481 24.0966C36.2509 24.0198 35.9497 23.9531 35.6496 23.8864C35.5151 23.856 35.4616 23.7883 35.4969 23.6468C35.5738 23.3416 35.6455 23.0353 35.7122 22.7281C35.7415 22.5957 35.8072 22.5593 35.9366 22.5906C36.3096 22.6816 36.6855 22.7655 37.0595 22.8524C37.0676 22.8655 37.0767 22.8797 37.0847 22.8928L37.0868 22.8938Z" fill="#2B94FC"/>
<path id="Vector_19" d="M15.1415 17.714C15.5084 17.8009 15.8753 17.8919 16.2442 17.9727C16.3928 18.0051 16.4403 18.0708 16.4009 18.2214C16.3261 18.5054 16.2594 18.7914 16.1997 19.0785C16.1654 19.2432 16.0845 19.3008 15.9178 19.2594C15.6196 19.1836 15.3194 19.1148 15.0193 19.0512C14.8606 19.0168 14.8181 18.937 14.8575 18.7803C14.9455 18.4346 15.0213 18.0859 15.1021 17.7393C15.1153 17.7312 15.1294 17.7231 15.1426 17.715L15.1415 17.714Z" fill="#2B94FC"/>
<path id="Vector_20" d="M23.436 12.5691C23.7837 12.651 24.1303 12.7369 24.479 12.8137C24.6044 12.841 24.6519 12.8915 24.6337 13.029C24.5882 13.3777 24.48 13.7122 24.4042 14.0528C24.382 14.1539 24.3123 14.1852 24.2132 14.161C23.8928 14.0852 23.5735 14.0073 23.2521 13.9366C23.1035 13.9042 23.1116 13.8113 23.1388 13.6981C23.2258 13.3302 23.3107 12.9612 23.3966 12.5933C23.4097 12.5853 23.4229 12.5772 23.436 12.5691Z" fill="#2B94FC"/>
<path id="Vector_21" d="M18.2539 34.5215C18.3408 34.1536 18.4328 33.7867 18.5136 33.4168C18.547 33.2652 18.6167 33.2237 18.7653 33.2632C19.0564 33.339 19.3505 33.4057 19.6446 33.4704C19.7588 33.4956 19.8083 33.5401 19.7922 33.6705C19.7497 34.0273 19.6396 34.3679 19.5597 34.7156C19.5284 34.85 19.4243 34.8298 19.3232 34.8065C18.9755 34.7257 18.6279 34.6448 18.2802 34.5639C18.2721 34.5498 18.264 34.5367 18.2549 34.5225L18.2539 34.5215Z" fill="#2B94FC"/>
<path id="Vector_22" d="M39.0337 27.8446C38.9973 28.0012 38.9559 28.1569 38.9246 28.3146C38.8993 28.4439 38.8356 28.4894 38.7032 28.4561C38.4324 28.3873 38.1605 28.3237 37.8866 28.265C37.7532 28.2367 37.7198 28.167 37.7512 28.0397C37.832 27.7142 37.9078 27.3867 37.9816 27.0593C38.0079 26.94 38.0665 26.8955 38.1898 26.9258C38.4677 26.9946 38.7467 27.0603 39.0267 27.1219C39.151 27.1492 39.1833 27.2159 39.153 27.3342C39.1095 27.503 39.0731 27.6738 39.0337 27.8446Z" fill="#2B94FC"/>
<path id="Vector_23" d="M12.329 21.571C12.2906 21.7347 12.2492 21.8974 12.2148 22.0612C12.1895 22.1814 12.1289 22.2249 12.0066 22.1946C11.7287 22.1258 11.4497 22.0601 11.1697 21.9985C11.0454 21.9712 11.0141 21.9045 11.0434 21.7862C11.1233 21.4598 11.2001 21.1333 11.2728 20.8058C11.3011 20.6765 11.3628 20.631 11.4952 20.6643C11.7661 20.7331 12.0379 20.7967 12.3118 20.8554C12.4463 20.8847 12.4806 20.9544 12.4463 21.0818C12.4028 21.2435 12.3684 21.4082 12.33 21.572L12.329 21.571Z" fill="#2B94FC"/>
<path id="Vector_24" d="M21.8223 38.5001C21.6525 38.4607 21.4828 38.4192 21.312 38.3808C21.2099 38.3576 21.1745 38.3 21.1987 38.1979C21.2685 37.9058 21.3372 37.6127 21.4049 37.3196C21.4292 37.2134 21.4949 37.1892 21.5919 37.2124C21.9315 37.2933 22.2721 37.3731 22.6127 37.451C22.7249 37.4762 22.7613 37.5369 22.734 37.648C22.6642 37.9331 22.5975 38.2191 22.5329 38.5051C22.5066 38.6214 22.4389 38.6466 22.3317 38.6204C22.1619 38.5779 21.9931 38.5395 21.8223 38.5001Z" fill="#2B94FC"/>
<path id="Vector_25" d="M28.3725 10.6173C28.5362 10.6557 28.699 10.6971 28.8627 10.7315C28.982 10.7568 29.0264 10.8164 28.9961 10.9397C28.9274 11.2177 28.8617 11.4966 28.8 11.7766C28.7727 11.9009 28.706 11.9322 28.5878 11.9039C28.2623 11.8241 27.9359 11.7473 27.6074 11.6745C27.479 11.6462 27.4315 11.5856 27.4659 11.4531C27.5346 11.1823 27.5983 10.9094 27.6579 10.6365C27.6862 10.5031 27.756 10.4667 27.8833 10.5011C28.045 10.5445 28.2098 10.5789 28.3725 10.6173Z" fill="#2B94FC"/>
<path id="Vector_26" d="M36.2396 31.6837C36.1638 31.997 36.0829 32.3093 36.0152 32.6236C35.9829 32.7702 35.9202 32.8238 35.7676 32.7833C35.5109 32.7146 35.2511 32.654 34.9903 32.6014C34.8357 32.5701 34.8034 32.4943 34.8398 32.3487C34.9186 32.0364 34.9843 31.7211 35.0561 31.4067C35.0692 31.3987 35.0833 31.3906 35.0965 31.3815C35.4694 31.4684 35.8424 31.5563 36.2143 31.6432C36.2224 31.6564 36.2305 31.6695 36.2396 31.6837Z" fill="#2B94FC"/>
<path id="Vector_27" d="M13.138 26.2657C13.0622 26.579 12.9813 26.8913 12.9136 27.2057C12.8813 27.3522 12.8186 27.4058 12.666 27.3654C12.4093 27.2966 12.1495 27.236 11.8888 27.1834C11.7341 27.1521 11.7018 27.0763 11.7382 26.9308C11.817 26.6184 11.8827 26.3031 11.9545 25.9888C11.9676 25.9807 11.9817 25.9726 11.9949 25.9635C12.3678 26.0504 12.7408 26.1384 13.1127 26.2253C13.1208 26.2394 13.1299 26.2516 13.138 26.2657Z" fill="#2B94FC"/>
<path id="Vector_28" d="M17.9769 35.7063C17.6636 35.6305 17.3523 35.5506 17.038 35.4819C16.8914 35.4496 16.8379 35.3869 16.8783 35.2343C16.947 34.9776 17.0077 34.7178 17.0602 34.457C17.0915 34.3024 17.1673 34.269 17.3129 34.3054C17.6252 34.3833 17.9405 34.45 18.2538 34.5217C18.2619 34.5349 18.27 34.549 18.2791 34.5632C18.1922 34.9361 18.1043 35.3091 18.0173 35.682C18.0042 35.6901 17.9901 35.6972 17.9769 35.7063Z" fill="#2B94FC"/>
<path id="Vector_29" d="M26.5 37.6704C26.5879 37.2974 26.6749 36.9245 26.7628 36.5515C26.7759 36.5434 26.7901 36.5353 26.8032 36.5262C27.1165 36.602 27.4278 36.6819 27.7432 36.7506C27.8897 36.783 27.9433 36.8456 27.9029 36.9983C27.8341 37.255 27.7735 37.5147 27.7209 37.7755C27.6896 37.9301 27.6138 37.9625 27.4683 37.9261C27.1559 37.8473 26.8406 37.7816 26.5273 37.7098C26.5192 37.6967 26.5101 37.6825 26.502 37.6694L26.5 37.6704Z" fill="#2B94FC"/>
<path id="Vector_30" d="M37.0605 22.8535C37.1363 22.5402 37.2172 22.2289 37.2859 21.9136C37.3183 21.766 37.382 21.7135 37.5336 21.7539C37.7903 21.8226 38.05 21.8833 38.3108 21.9358C38.4664 21.9671 38.4978 22.044 38.4614 22.1895C38.3825 22.5018 38.3168 22.8172 38.2451 23.1315C38.2319 23.1396 38.2178 23.1477 38.2047 23.1557C37.8317 23.0688 37.4588 22.9809 37.0858 22.894C37.0777 22.8808 37.0686 22.8667 37.0605 22.8535Z" fill="#2B94FC"/>
<path id="Vector_31" d="M13.957 17.4356C14.0328 17.1223 14.1137 16.811 14.1824 16.4956C14.2148 16.348 14.2784 16.2955 14.43 16.3359C14.6867 16.4046 14.9465 16.4653 15.2072 16.5178C15.3629 16.5492 15.3942 16.626 15.3578 16.7715C15.279 17.0838 15.2133 17.3992 15.1416 17.7135C15.1284 17.7216 15.1143 17.7297 15.1011 17.7378C14.7282 17.6509 14.3552 17.5629 13.9823 17.476C13.9742 17.4629 13.9651 17.4487 13.957 17.4356Z" fill="#2B94FC"/>
<path id="Vector_32" d="M32.2211 13.4151C32.5344 13.4909 32.8457 13.5717 33.1611 13.6395C33.3076 13.6718 33.3612 13.7345 33.3207 13.8871C33.252 14.1438 33.1914 14.4036 33.1388 14.6643C33.1075 14.819 33.0317 14.8513 32.8862 14.8149C32.5738 14.7361 32.2585 14.6704 31.9452 14.5986C31.9371 14.5855 31.928 14.5713 31.9199 14.5582C32.0079 14.1852 32.0948 13.8123 32.1827 13.4393C32.1958 13.4312 32.21 13.4232 32.2231 13.4141L32.2211 13.4151Z" fill="#2B94FC"/>
<path id="Vector_33" d="M23.6971 11.451C23.6101 11.8239 23.5222 12.1969 23.4353 12.5698C23.4222 12.5779 23.408 12.586 23.3949 12.5941C23.0816 12.5183 22.7703 12.4384 22.4559 12.3697C22.3094 12.3374 22.2558 12.2747 22.2963 12.1221C22.365 11.8654 22.4256 11.6056 22.4782 11.3449C22.5095 11.1902 22.5853 11.1569 22.7308 11.1932C23.0431 11.2711 23.3585 11.3378 23.6718 11.4095C23.6799 11.4237 23.689 11.4368 23.6971 11.451Z" fill="#2B94FC"/>
</g>
</g>
</g>
</g>
</g>
<defs>
<filter id="filter0_d_610_1427" x="-47.7594" y="-39.2693" width="145.519" height="145.519" filterUnits="userSpaceOnUse" color-interpolation-filters="sRGB">
<feFlood flood-opacity="0" result="BackgroundImageFix"/>
<feColorMatrix in="SourceAlpha" type="matrix" values="0 0 0 0 0 0 0 0 0 0 0 0 0 0 0 0 0 0 127 0" result="hardAlpha"/>
<feOffset dy="8.49057"/>
<feGaussianBlur stdDeviation="23.8797"/>
<feComposite in2="hardAlpha" operator="out"/>
<feColorMatrix type="matrix" values="0 0 0 0 0.168627 0 0 0 0 0.580392 0 0 0 0 0.988235 0 0 0 0.25 0"/>
<feBlend mode="normal" in2="BackgroundImageFix" result="effect1_dropShadow_610_1427"/>
<feBlend mode="normal" in="SourceGraphic" in2="effect1_dropShadow_610_1427" result="shape"/>
</filter>
<clipPath id="clip0_610_1427">
<rect width="50" height="50" fill="white"/>
</clipPath>
</defs>
</svg>
