<svg width="146" height="142" viewBox="0 0 146 142" fill="none" xmlns="http://www.w3.org/2000/svg">
<g id="Frame 47" filter="url(#filter0_d_424_72)">
<path id="Vector" d="M73.0331 79.928C71.3554 79.928 69.6675 79.7147 68.0009 79.2822C62.8504 77.947 58.5287 74.6865 55.8311 70.0998C53.1336 65.5132 52.3827 60.1514 53.7178 55.0018C55.0529 49.8512 58.3134 45.5294 62.8999 42.8318C67.4854 40.1342 72.8472 39.3832 77.9977 40.7184C83.1482 42.0535 87.4699 45.3141 90.1674 49.9007C92.865 54.4863 93.6159 59.8492 92.2808 64.9988C90.9457 70.1494 87.6852 74.4712 83.0986 77.1688C79.9968 78.9931 76.5392 79.927 73.0331 79.927V79.928ZM73.0018 44.2235C65.9866 44.2235 59.5687 48.9436 57.7292 56.0418C55.5461 64.4621 60.6208 73.0885 69.0409 75.2706C73.119 76.3278 77.366 75.7335 80.9984 73.5969C84.6298 71.4602 87.2132 68.037 88.2703 63.9587C89.3275 59.8795 88.7333 55.6335 86.5967 52.001C84.4601 48.3695 81.0368 45.7861 76.9587 44.7289C75.6367 44.3863 74.3086 44.2225 73.0028 44.2225L73.0018 44.2235Z" fill="#FFCE00"/>
<path id="Vector_2" d="M96.7276 78.1021C95.9574 78.1647 95.2469 78.3052 94.6536 78.4346H94.6486C91.6003 79.131 88.6925 78.7115 86.6722 77.2844C85.8282 76.6679 78.3804 66.1918 74.2053 59.1158C70.4809 52.8029 66.5482 44.8749 65.2566 42.2693C64.9483 41.6467 64.8907 41.5324 64.8614 41.4829C63.1735 38.6448 60.8843 36.9145 58.2393 36.4789C55.6095 36.0453 52.8594 36.9216 50.4944 38.946C49.89 39.4635 49.3392 40.0265 48.8106 40.6693L48 41.6537L49.2715 41.5506C50.0416 41.488 50.7521 41.3475 51.3504 41.2161C54.3987 40.5207 57.3065 40.9402 59.3268 42.3673C60.1293 42.9404 68.4079 53.1061 72.5346 60.1003C75.0957 64.4413 78.0893 70.7128 80.9637 77.7625C81.0739 78.0334 81.0972 78.09 81.1134 78.1233C82.5041 81.0857 84.5295 82.9333 86.9723 83.4639C87.4696 83.5721 87.982 83.6256 88.5045 83.6256C90.7897 83.6256 93.2659 82.6068 95.5036 80.7077L95.5157 80.6976C96.2182 80.0659 96.7336 79.5373 97.1894 78.9834L98 77.999L96.7286 78.1021H96.7276Z" fill="#FFCE00"/>
<path id="Vector_3" d="M93.8749 37.496L93.8649 37.4838C93.2332 36.7824 92.7046 36.2659 92.1507 35.8101L91.1663 34.9995L91.2694 36.271C91.3321 37.0412 91.4725 37.7517 91.6019 38.345V38.35C92.2983 41.3983 91.8788 44.3062 90.4517 46.3266C89.8352 47.1705 79.3594 54.6185 72.2835 58.7937C65.9717 62.5182 58.0429 66.4509 55.4373 67.7426C54.8147 68.0509 54.7005 68.1085 54.651 68.1378C51.8129 69.8257 50.0826 72.1149 49.647 74.76C49.2145 77.3898 50.0907 80.14 52.1141 82.5051C52.6316 83.1095 53.1946 83.6603 53.8363 84.1889L54.8208 84.9995L54.7177 83.728C54.655 82.9579 54.5145 82.2473 54.3841 81.649C53.6888 78.6007 54.1082 75.6929 55.5353 73.6724C56.1084 72.8699 66.2739 64.5912 73.2679 60.4644C77.6068 57.9043 83.8792 54.9106 90.9278 52.0361C91.2007 51.9249 91.2573 51.9017 91.2896 51.8865C94.2519 50.4958 96.0995 48.4703 96.6301 46.0274C97.2112 43.3551 96.2066 40.2461 93.874 37.497L93.8749 37.496Z" fill="#FFCE00"/>
<path id="Vector_4" d="M84.7796 64.2168C84.4653 64.142 84.153 64.0622 83.8376 63.9955C83.684 63.9631 83.6466 63.8894 83.685 63.7428C83.7517 63.4922 83.8013 63.2375 83.8659 62.9858C83.8983 62.8615 83.8771 62.7907 83.7376 62.7584C82.4398 62.4572 81.1431 62.153 79.8464 61.8457C79.709 61.8134 79.6554 61.8629 79.6281 61.9902C79.5765 62.2369 79.521 62.4845 79.4542 62.727C79.4138 62.8756 79.4502 62.9464 79.6059 62.9777C79.8605 63.0282 80.1102 63.099 80.3639 63.1515C80.5044 63.1809 80.5498 63.2455 80.5124 63.3881C80.4356 63.6872 80.3679 63.9884 80.2992 64.2896C80.2679 64.4281 80.189 64.4736 80.0536 64.4412C79.3572 64.2775 78.6609 64.1148 77.9645 63.953C77.827 63.9217 77.7795 63.85 77.8149 63.7105C77.8887 63.4184 77.9483 63.1222 78.0241 62.8301C78.0605 62.6886 78.0211 62.626 77.8786 62.5946C77.4127 62.4915 76.9508 62.3733 76.4848 62.2732C76.315 62.2368 76.2675 62.1631 76.314 61.9963C76.3828 61.7467 76.4313 61.4909 76.4949 61.2393C76.5263 61.116 76.4869 61.0573 76.3646 61.0311C76.1038 60.9755 75.844 60.9158 75.5863 60.8481C75.4509 60.8128 75.3943 60.8603 75.367 60.9906C75.3134 61.2443 75.2447 61.495 75.1922 61.7497C75.1618 61.8942 75.1032 61.9468 74.9466 61.9134C74.5059 61.8194 74.4998 61.8245 74.3785 62.2732C74.3401 62.4178 74.2704 62.4481 74.136 62.4137C73.8843 62.349 73.6296 62.2995 73.379 62.2328C73.2425 62.1964 73.1698 62.2247 73.1405 62.3733C73.0889 62.628 73.0283 62.8807 72.9636 63.1313C72.9302 63.2617 72.9636 63.3264 73.099 63.3547C73.3527 63.4073 73.6034 63.478 73.857 63.5285C74.0167 63.5599 74.0632 63.6306 74.0228 63.7913C73.9066 64.2542 73.8075 64.7202 73.6913 65.1831C73.6539 65.3337 73.6913 65.4014 73.8449 65.4317C74.1269 65.4883 74.4038 65.5661 74.6858 65.6238C74.8222 65.6521 74.8707 65.7076 74.8495 65.8522C74.7919 66.2494 74.6737 66.6314 74.5888 67.0226C74.5201 67.3379 74.4392 67.6502 74.3685 67.9656C74.3381 68.103 74.2704 68.1526 74.1289 68.1172C73.8227 68.0404 73.5154 67.9686 73.2071 67.8999C73.0838 67.8726 73.0485 67.8079 73.0788 67.6876C73.1435 67.4289 73.194 67.1671 73.2638 66.9094C73.3052 66.7568 73.2567 66.6921 73.1071 66.6628C72.8595 66.6142 72.6139 66.5536 72.3693 66.4909C72.243 66.4586 72.1753 66.4839 72.1429 66.6223C71.8417 67.9211 71.5375 69.2178 71.2302 70.5146C71.1969 70.6541 71.2515 70.7046 71.3768 70.7309C71.6305 70.7855 71.8811 70.8532 72.1348 70.9057C72.2834 70.9361 72.3319 71.0028 72.2935 71.1544C72.2126 71.4667 72.1459 71.782 72.0732 72.0964C72.06 72.1044 72.0459 72.1125 72.0327 72.1216C71.7204 72.0478 71.4081 71.969 71.0948 71.9013C70.9462 71.87 70.9038 71.8053 70.9361 71.6527C71.0342 71.1928 71.0291 71.1918 70.5763 71.0856C70.3722 71.0381 70.167 70.9957 69.9649 70.9401C69.8224 70.9007 69.7506 70.928 69.7112 71.0856C69.597 71.5486 69.5909 71.5465 69.1179 71.4354C68.9006 71.3848 68.6823 71.3343 68.465 71.2848C68.4569 71.2706 68.4488 71.2575 68.4397 71.2433C68.5125 70.9361 68.5934 70.6308 68.655 70.3215C68.6904 70.1487 68.7702 70.1083 68.934 70.1538C69.1765 70.2215 69.4261 70.267 69.6697 70.3306C69.795 70.363 69.8648 70.3407 69.8971 70.2013C70.1983 68.9035 70.5025 67.6058 70.8088 66.309C70.8371 66.1918 70.8148 66.123 70.6865 66.0958C70.4197 66.0381 70.1528 65.9765 69.888 65.9088C69.7597 65.8764 69.7102 65.93 69.6849 66.0472C69.6283 66.308 69.5596 66.5657 69.505 66.8265C69.4757 66.965 69.413 67.0145 69.2695 66.9771C68.9703 66.9003 68.6702 66.8305 68.369 66.7659C68.2265 66.7355 68.187 66.6597 68.2194 66.5243C68.3862 65.8218 68.5529 65.1184 68.7146 64.4149C68.746 64.2805 68.8147 64.2472 68.942 64.2795C69.221 64.3492 69.504 64.4028 69.7809 64.4806C69.9547 64.5292 70.0336 64.4928 70.072 64.3068C70.166 63.854 70.2852 63.4062 70.3823 62.9534C70.4176 62.7877 70.4854 62.7301 70.6572 62.7776C70.9068 62.8473 71.1625 62.8948 71.4142 62.9585C71.5345 62.9888 71.5981 62.9585 71.6254 62.8322C71.681 62.5714 71.7417 62.3116 71.8084 62.0539C71.8427 61.9225 71.8053 61.8599 71.6709 61.8316C71.4101 61.777 71.1524 61.7062 70.8927 61.6516C70.7512 61.6223 70.7158 61.5556 70.7441 61.4141C70.8351 60.9664 70.832 60.9603 70.3893 60.8431C70.2489 60.8057 70.2074 60.744 70.2438 60.6045C70.3105 60.3468 70.362 60.085 70.4288 59.8273C70.4631 59.6949 70.4217 59.6333 70.2893 59.606C70.0356 59.5534 69.7819 59.4948 69.5323 59.4281C69.3878 59.3897 69.3281 59.4392 69.2998 59.5787C69.2493 59.8263 69.1785 60.0689 69.131 60.3165C69.0977 60.4913 69.0158 60.5257 68.8511 60.4833C68.4094 60.3711 67.9616 60.2821 67.522 60.1639C67.3209 60.1103 67.2461 60.1679 67.2117 60.364C67.1632 60.6328 67.0864 60.8966 67.0288 61.1635C66.9964 61.31 66.9196 61.3626 66.7731 61.3272C66.0838 61.1645 65.3945 61.0028 64.7042 60.8451C64.5607 60.8117 64.5031 60.745 64.5415 60.5924C64.6183 60.2932 64.689 59.9931 64.7527 59.6909C64.784 59.5453 64.8568 59.513 64.9933 59.5484C65.2439 59.613 65.4996 59.6636 65.7503 59.7293C65.8847 59.7646 65.9605 59.7404 65.9898 59.5908C66.0403 59.3361 66.102 59.0844 66.1667 58.8328C66.2 58.7044 66.1697 58.6397 66.0332 58.6084C64.7355 58.3072 63.4388 58.003 62.1431 57.6957C62.0026 57.6624 61.9541 57.718 61.9278 57.8433C61.8732 58.097 61.8055 58.3476 61.753 58.6013C61.7227 58.7509 61.6549 58.7984 61.5043 58.759C61.192 58.6791 60.8767 58.6114 60.5624 58.5386C60.5543 58.5245 60.5462 58.5114 60.5371 58.4972C60.6109 58.1849 60.6907 57.8726 60.7574 57.5593C60.7888 57.4107 60.8555 57.3693 61.0061 57.4016C61.4649 57.4986 61.4659 57.4936 61.5721 57.0408C61.6196 56.8366 61.662 56.6314 61.7176 56.4293C61.757 56.2858 61.7287 56.215 61.5721 56.1766C61.1102 56.0624 61.1122 56.0563 61.2224 55.5823C61.2729 55.365 61.3234 55.1467 61.374 54.9294C61.3871 54.9213 61.4012 54.9132 61.4144 54.9041C61.7277 54.9789 62.041 55.0578 62.3564 55.1255C62.51 55.1578 62.5484 55.2306 62.509 55.3781C62.4423 55.6288 62.3927 55.8835 62.3281 56.1352C62.2967 56.2595 62.3159 56.3302 62.4564 56.3636C63.7541 56.6648 65.0509 56.969 66.3466 57.2753C66.4638 57.3025 66.5326 57.2823 66.5598 57.153C66.6174 56.8851 66.6801 56.6193 66.7468 56.3545C66.7791 56.2261 66.7266 56.1766 66.6094 56.1503C66.3496 56.0937 66.0919 56.025 65.8311 55.9704C65.6937 55.9411 65.6421 55.8795 65.6795 55.7359C65.7563 55.4368 65.8271 55.1366 65.8907 54.8344C65.9241 54.6777 66.009 54.6484 66.1495 54.6828C66.8378 54.8475 67.5271 55.0113 68.2164 55.171C68.3629 55.2053 68.4114 55.2801 68.373 55.4287C68.3033 55.7006 68.2527 55.9775 68.1759 56.2464C68.1264 56.4202 68.1638 56.499 68.3498 56.5374C68.8026 56.6314 69.2503 56.7507 69.7021 56.8477C69.8678 56.8831 69.9254 56.9508 69.8779 57.1216C69.8082 57.3713 69.7607 57.627 69.697 57.8787C69.6667 57.9979 69.697 58.0626 69.8233 58.0899C70.0841 58.1455 70.3439 58.2061 70.6016 58.2728C70.733 58.3072 70.7956 58.2698 70.8239 58.1354C70.8785 57.8746 70.9493 57.6169 71.0039 57.3561C71.0332 57.2146 71.0999 57.1792 71.2414 57.2075C71.6881 57.2985 71.6942 57.2955 71.8124 56.8528C71.8498 56.7123 71.9135 56.6719 72.0519 56.7072C72.3097 56.7739 72.5714 56.8255 72.8291 56.8922C72.9626 56.9266 73.0222 56.8841 73.0495 56.7517C73.1031 56.498 73.1607 56.2443 73.2274 55.9937C73.2668 55.8481 73.2153 55.7895 73.0768 55.7612C72.8433 55.7137 72.6149 55.6409 72.3794 55.6035C72.1611 55.5692 72.1277 55.4701 72.1803 55.271C72.2925 54.8516 72.3834 54.425 72.4815 54.0026C72.5226 53.8254 72.4518 53.7152 72.2692 53.6721C72.0095 53.6104 71.7518 53.5447 71.491 53.4911C71.3384 53.4598 71.298 53.382 71.3323 53.2364C71.4991 52.5411 71.6638 51.8447 71.8235 51.1473C71.8569 51.0038 71.9266 50.9674 72.0641 51.0018C72.3632 51.0776 72.6634 51.1483 72.9646 51.213C73.1101 51.2443 73.1425 51.3171 73.1071 51.4535C73.0424 51.7042 72.9919 51.9599 72.9262 52.2106C72.8908 52.345 72.9151 52.4208 73.0646 52.4501C73.3183 52.5006 73.571 52.5623 73.8227 52.627C73.951 52.6603 74.0157 52.63 74.0481 52.4936C74.3492 51.1958 74.6535 49.8981 74.9607 48.6023C74.9941 48.4618 74.9375 48.4133 74.8132 48.387C74.5595 48.3325 74.3088 48.2647 74.0551 48.2122C73.9056 48.1819 73.858 48.1142 73.8975 47.9636C73.9773 47.6512 74.045 47.3359 74.1178 47.0216C74.1309 47.0135 74.1451 47.0054 74.1582 46.9973C74.4705 47.0711 74.7818 47.1499 75.0962 47.2176C75.2437 47.249 75.2872 47.3137 75.2548 47.4663C75.1568 47.9262 75.1628 47.9272 75.6146 48.0333C75.8188 48.0808 76.024 48.1232 76.2261 48.1788C76.3686 48.2183 76.4404 48.192 76.4798 48.0343C76.594 47.5714 76.6 47.5734 77.073 47.6836C77.2903 47.7341 77.5087 47.7836 77.726 47.8342C77.7341 47.8473 77.7432 47.8615 77.7512 47.8746C77.6765 48.1889 77.5966 48.5013 77.5299 48.8166C77.4975 48.9702 77.4238 49.0076 77.2772 48.9692C77.0266 48.9025 76.7719 48.853 76.5202 48.7883C76.3959 48.756 76.3251 48.7772 76.2928 48.9167C75.9916 50.2144 75.6874 51.5122 75.3801 52.8089C75.3478 52.9464 75.3963 52.9999 75.5247 53.0272C75.7713 53.0788 76.0179 53.1344 76.2615 53.2011C76.409 53.2415 76.4808 53.2061 76.5121 53.0495C76.5617 52.7948 76.6334 52.5451 76.686 52.2904C76.7153 52.1509 76.7799 52.1044 76.9225 52.1408C77.2216 52.2176 77.5218 52.2874 77.824 52.3521C77.9483 52.3784 77.9857 52.44 77.9594 52.5593C77.9372 52.6614 77.9301 52.7675 77.9069 52.8696C77.7714 53.4507 77.634 54.0299 77.4965 54.61C77.4359 54.8687 77.4238 54.8768 77.1731 54.8192C76.9063 54.7576 76.6385 54.701 76.3747 54.6302C76.2241 54.5898 76.1594 54.6333 76.126 54.7849C76.024 55.2508 75.9057 55.7127 75.8046 56.1786C75.7693 56.3403 75.6975 56.3838 75.5398 56.3414C75.2892 56.2736 75.0345 56.2251 74.7828 56.1604C74.6494 56.1261 74.5898 56.1685 74.5615 56.2999C74.5079 56.5536 74.4503 56.8073 74.3836 57.058C74.3442 57.2035 74.3957 57.2621 74.5342 57.2904C74.7677 57.3379 74.9971 57.4107 75.2316 57.4481C75.4499 57.4825 75.4812 57.5815 75.4307 57.7806C75.3175 58.2213 75.2882 58.1606 75.7349 58.2577C75.9269 58.2991 75.9967 58.3709 75.936 58.571C75.8673 58.7984 75.8299 59.0359 75.7672 59.2664C75.7278 59.4129 75.7592 59.4877 75.9168 59.518C76.1644 59.5655 76.41 59.6252 76.6536 59.6909C76.7931 59.7283 76.8608 59.6909 76.8901 59.5463C76.9417 59.2916 77.0124 59.042 77.064 58.7873C77.0943 58.6367 77.164 58.5942 77.3146 58.6306C77.7775 58.7458 78.2434 58.8449 78.7063 58.9621C78.867 59.0026 78.9358 58.9621 78.9681 58.7994C79.0237 58.5174 79.1015 58.2395 79.1612 57.9585C79.1915 57.814 79.2551 57.7523 79.4088 57.7887C80.1041 57.9555 80.8005 58.1192 81.4969 58.2829C81.6313 58.3143 81.6848 58.383 81.6495 58.5245C81.5727 58.8307 81.5009 59.138 81.4332 59.4463C81.4059 59.5696 81.3412 59.605 81.222 59.5756C80.9632 59.511 80.7014 59.4604 80.4447 59.3907C80.2921 59.3492 80.2274 59.3957 80.1981 59.5473C80.1496 59.795 80.089 60.0406 80.0263 60.2852C79.994 60.4115 80.0182 60.4802 80.1567 60.5116C81.4544 60.8128 82.7511 61.117 84.0478 61.4242C84.1863 61.4576 84.2379 61.405 84.2652 61.2777C84.3177 61.0311 84.3864 60.7875 84.4339 60.5399C84.4663 60.3721 84.538 60.3185 84.7088 60.364C85.0131 60.4459 85.3234 60.5095 85.6306 60.5803C85.6387 60.5944 85.6478 60.6076 85.6559 60.6207C85.5821 60.933 85.5023 61.2453 85.4355 61.5597C85.4042 61.7082 85.3385 61.7507 85.1869 61.7184C84.728 61.6203 84.726 61.6264 84.6199 62.0782C84.5724 62.2823 84.53 62.4875 84.4744 62.6896C84.435 62.8322 84.4622 62.9039 84.6199 62.9433C85.0818 63.0576 85.0808 63.0636 84.9696 63.5376C84.9191 63.7549 84.8685 63.9733 84.819 64.1916C84.8059 64.1997 84.7917 64.2077 84.7786 64.2168H84.7796ZM74.2371 59.8111C74.3108 59.4978 74.3806 59.1825 74.4594 58.8702C74.4928 58.7388 74.4543 58.6781 74.3219 58.6478C73.6802 58.5013 73.0394 58.3507 72.3986 58.197C72.2763 58.1677 72.2177 58.2031 72.1894 58.3264C72.0418 58.9682 71.8923 59.61 71.7376 60.2498C71.7063 60.3822 71.7427 60.4418 71.8751 60.4721C72.5098 60.6167 73.1445 60.7652 73.7772 60.9189C73.9187 60.9532 73.9824 60.9158 74.0127 60.7733C74.0804 60.4509 74.1613 60.1315 74.2361 59.8111H74.2371Z" fill="#2B94FC"/>
<path id="Vector_5" d="M59.9536 60.9894C59.6059 60.9075 59.2593 60.8206 58.9096 60.7448C58.76 60.7125 58.7115 60.6407 58.7479 60.4931C58.9146 59.7978 59.0794 59.1014 59.2391 58.404C59.2714 58.2635 59.3371 58.221 59.4766 58.2544C59.8303 58.3403 60.1871 58.4181 60.5419 58.499C60.5499 58.5121 60.558 58.5263 60.5671 58.5404C60.3761 59.349 60.1851 60.1576 59.994 60.9651C59.9809 60.9732 59.9668 60.9813 59.9536 60.9904V60.9894Z" fill="#2B94FC"/>
<path id="Vector_6" d="M71.6719 46.4096C71.7527 46.069 71.8417 45.7294 71.9114 45.3857C71.9488 45.2018 72.0357 45.1634 72.2075 45.2058C72.8746 45.3696 73.5427 45.5272 74.2128 45.6798C74.3856 45.7193 74.4452 45.7951 74.3987 45.974C74.3108 46.3126 74.2401 46.6562 74.1622 46.9978C74.1491 47.0059 74.1349 47.014 74.1218 47.0221C73.3132 46.831 72.5057 46.64 71.6971 46.45C71.6891 46.4359 71.68 46.4227 71.6719 46.4086V46.4096Z" fill="#2B94FC"/>
<path id="Vector_7" d="M77.7305 47.8355C77.8144 47.4878 77.9033 47.1411 77.9791 46.7924C78.0135 46.6328 78.0883 46.5852 78.2459 46.6226C78.9342 46.7894 79.6225 46.9511 80.3128 47.1118C80.4614 47.1462 80.5038 47.224 80.4664 47.3706C80.3795 47.7172 80.3027 48.067 80.2218 48.4146L80.1814 48.4399C79.3728 48.2519 78.5643 48.0639 77.7557 47.8759C77.7477 47.8628 77.7386 47.8486 77.7305 47.8355Z" fill="#2B94FC"/>
<path id="Vector_8" d="M61.3778 54.9288C61.0372 54.8469 60.6976 54.759 60.3549 54.6852C60.1922 54.6498 60.1285 54.5831 60.171 54.4103C60.3388 53.722 60.5005 53.0327 60.6571 52.3423C60.6925 52.1857 60.7693 52.1564 60.9129 52.1928C61.2595 52.2797 61.6092 52.3565 61.9569 52.4363C61.965 52.4495 61.9741 52.4636 61.9822 52.4768C61.7942 53.2853 61.6062 54.0949 61.4172 54.9035C61.404 54.9116 61.3899 54.9197 61.3768 54.9288H61.3778Z" fill="#2B94FC"/>
<path id="Vector_9" d="M74.5255 72.7097C74.4467 73.0443 74.3608 73.3768 74.2911 73.7134C74.2527 73.8953 74.1738 73.959 73.9838 73.9135C73.3238 73.7518 72.6618 73.5971 71.9978 73.4506C71.7987 73.4071 71.7532 73.3172 71.8047 73.1251C71.8937 72.7936 71.9604 72.456 72.0372 72.1215C72.0503 72.1134 72.0645 72.1053 72.0776 72.0962C72.8852 72.2872 73.6937 72.4773 74.5013 72.6683C74.5093 72.6814 74.5184 72.6956 74.5265 72.7087L74.5255 72.7097Z" fill="#2B94FC"/>
<path id="Vector_10" d="M66.0176 70.6794C66.8262 70.8674 67.6347 71.0554 68.4433 71.2434C68.4514 71.2566 68.4594 71.2707 68.4685 71.2849C68.3867 71.6255 68.2988 71.9651 68.225 72.3077C68.1866 72.4856 68.1007 72.5341 67.9258 72.4917C67.2588 72.3299 66.5897 72.1743 65.9196 72.0237C65.7437 71.9843 65.6901 71.9065 65.7366 71.7286C65.8256 71.39 65.8984 71.0463 65.9772 70.7047C65.9903 70.6966 66.0045 70.6885 66.0176 70.6794Z" fill="#2B94FC"/>
<path id="Vector_11" d="M84.2148 66.6414C84.4028 65.8328 84.5918 65.0242 84.7798 64.2146C84.7929 64.2065 84.8071 64.1985 84.8202 64.1894C85.1538 64.2692 85.4843 64.3612 85.8208 64.4259C86.0017 64.4602 86.0543 64.5421 86.0159 64.7109C85.9027 65.2011 85.7915 65.6923 85.6783 66.1835C85.6359 66.3675 85.5843 66.5494 85.551 66.7353C85.5196 66.9112 85.4428 66.9698 85.2619 66.9223C84.9243 66.8334 84.5817 66.7616 84.2411 66.6818C84.233 66.6676 84.2239 66.6545 84.2159 66.6403L84.2148 66.6414Z" fill="#2B94FC"/>
<path id="Vector_12" d="M86.2453 58.1318C86.5859 58.2127 86.9245 58.2986 87.2662 58.3703C87.4107 58.4007 87.4653 58.4573 87.44 58.6109C87.3642 59.0738 87.2308 59.5236 87.1317 59.9814C87.0782 60.227 87.0135 60.4706 86.9599 60.7172C86.9296 60.8557 86.8589 60.9002 86.7194 60.8658C86.3656 60.7799 86.0109 60.702 85.6561 60.6222C85.648 60.6091 85.6389 60.5949 85.6309 60.5818C85.8219 59.7732 86.0129 58.9656 86.2039 58.1571C86.2171 58.149 86.2312 58.1409 86.2444 58.1328L86.2453 58.1318Z" fill="#2B94FC"/>
<path id="Vector_13" d="M74.7615 71.5505C74.4209 71.4696 74.0823 71.3837 73.7397 71.3109C73.5759 71.2766 73.5123 71.2079 73.5568 71.036C73.6366 70.7318 73.7073 70.4246 73.774 70.1173C73.8034 69.9819 73.862 69.9242 74.0065 69.9606C74.3117 70.0385 74.618 70.1092 74.9252 70.1769C75.0576 70.2062 75.094 70.2719 75.0627 70.4013C74.9717 70.7753 74.8878 71.1502 74.8009 71.5252C74.7878 71.5333 74.7736 71.5414 74.7605 71.5505H74.7615Z" fill="#2B94FC"/>
<path id="Vector_14" d="M83.0555 66.4063C82.6886 66.3194 82.3218 66.2284 81.9539 66.1476C81.8063 66.1152 81.7568 66.0505 81.7962 65.8989C81.872 65.6078 81.9397 65.3147 82.0024 65.0206C82.0337 64.8741 82.1034 64.8175 82.252 64.8548C82.5643 64.9327 82.8766 65.0075 83.1899 65.0782C83.3405 65.1126 83.3749 65.1955 83.3395 65.339C83.2536 65.6846 83.1768 66.0333 83.0959 66.38C83.0828 66.3881 83.0687 66.3962 83.0555 66.4053V66.4063Z" fill="#2B94FC"/>
<path id="Vector_15" d="M61.1113 61.2259C61.1932 60.8792 61.2811 60.5335 61.3559 60.1848C61.3903 60.0231 61.4701 59.9796 61.6238 60.0181C61.929 60.0949 62.2342 60.1676 62.5415 60.2374C62.689 60.2707 62.7335 60.3486 62.6961 60.4951C62.6203 60.7933 62.5506 61.0924 62.4849 61.3936C62.4556 61.527 62.3878 61.5604 62.2595 61.5291C61.8865 61.4381 61.5116 61.3542 61.1366 61.2673C61.1285 61.2531 61.1194 61.24 61.1113 61.2259Z" fill="#2B94FC"/>
<path id="Vector_16" d="M79.9436 49.5986C79.8567 49.9665 79.7647 50.3324 79.6849 50.7023C79.6525 50.8519 79.5858 50.8974 79.4352 50.859C79.1381 50.7811 78.8369 50.7134 78.5367 50.6467C78.4053 50.6174 78.3639 50.5467 78.3942 50.4203C78.472 50.0939 78.5519 49.7674 78.6236 49.4399C78.654 49.3015 78.7328 49.2812 78.8551 49.3116C79.2088 49.3965 79.5636 49.4763 79.9173 49.5592C79.9254 49.5733 79.9345 49.5865 79.9426 49.6006L79.9436 49.5986Z" fill="#2B94FC"/>
<path id="Vector_17" d="M85.0868 57.8939C85.0059 58.2345 84.92 58.5731 84.8472 58.9147C84.8088 59.0936 84.7209 59.1421 84.5481 59.0966C84.2509 59.0198 83.9497 58.9531 83.6496 58.8864C83.5151 58.8561 83.4616 58.7884 83.4969 58.6469C83.5738 58.3416 83.6455 58.0354 83.7122 57.7281C83.7415 57.5957 83.8072 57.5594 83.9366 57.5907C84.3096 57.6816 84.6855 57.7655 85.0595 57.8525C85.0676 57.8656 85.0767 57.8797 85.0847 57.8929L85.0868 57.8939Z" fill="#2B94FC"/>
<path id="Vector_18" d="M63.1415 52.7139C63.5084 52.8008 63.8753 52.8918 64.2442 52.9727C64.3928 53.005 64.4403 53.0707 64.4009 53.2213C64.3261 53.5053 64.2594 53.7913 64.1997 54.0784C64.1654 54.2431 64.0845 54.3007 63.9178 54.2593C63.6196 54.1835 63.3194 54.1148 63.0193 54.0511C62.8606 54.0167 62.8181 53.9369 62.8575 53.7802C62.9455 53.4346 63.0213 53.0859 63.1021 52.7392C63.1153 52.7311 63.1294 52.723 63.1426 52.7149L63.1415 52.7139Z" fill="#2B94FC"/>
<path id="Vector_19" d="M71.436 47.5692C71.7837 47.651 72.1303 47.7369 72.479 47.8137C72.6044 47.841 72.6519 47.8916 72.6337 48.029C72.5882 48.3777 72.48 48.7123 72.4042 49.0529C72.382 49.154 72.3123 49.1853 72.2132 49.161C71.8928 49.0852 71.5735 49.0074 71.2521 48.9366C71.1035 48.9043 71.1116 48.8113 71.1388 48.6981C71.2258 48.3302 71.3107 47.9613 71.3966 47.5934C71.4097 47.5853 71.4239 47.5772 71.437 47.5692H71.436Z" fill="#2B94FC"/>
<path id="Vector_20" d="M66.2539 69.5214C66.3408 69.1535 66.4328 68.7866 66.5136 68.4167C66.547 68.2651 66.6167 68.2237 66.7653 68.2631C67.0564 68.3389 67.3505 68.4056 67.6446 68.4703C67.7588 68.4956 67.8083 68.54 67.7922 68.6704C67.7497 69.0272 67.6396 69.3678 67.5597 69.7155C67.5284 69.8499 67.4243 69.8297 67.3232 69.8065C66.9755 69.7256 66.6279 69.6447 66.2802 69.5639C66.2721 69.5497 66.264 69.5366 66.2549 69.5224L66.2539 69.5214Z" fill="#2B94FC"/>
<path id="Vector_21" d="M87.0337 62.8446C86.9973 63.0012 86.9559 63.1569 86.9246 63.3146C86.8993 63.4439 86.8356 63.4894 86.7032 63.4561C86.4324 63.3873 86.1605 63.3237 85.8866 63.265C85.7532 63.2367 85.7198 63.167 85.7512 63.0397C85.832 62.7142 85.9078 62.3867 85.9816 62.0593C86.0079 61.94 86.0665 61.8955 86.1898 61.9258C86.4677 61.9946 86.7467 62.0603 87.0267 62.1219C87.151 62.1492 87.1833 62.2159 87.153 62.3342C87.1095 62.503 87.0721 62.6738 87.0327 62.8446H87.0337Z" fill="#2B94FC"/>
<path id="Vector_22" d="M60.329 56.571C60.2906 56.7347 60.2492 56.8974 60.2148 57.0612C60.1895 57.1814 60.1289 57.2249 60.0066 57.1946C59.7287 57.1258 59.4497 57.0601 59.1697 56.9985C59.0454 56.9712 59.0141 56.9045 59.0434 56.7862C59.1233 56.4598 59.2001 56.1333 59.2728 55.8058C59.3011 55.6765 59.3628 55.631 59.4952 55.6643C59.7661 55.7331 60.0379 55.7967 60.3118 55.8554C60.4463 55.8847 60.4806 55.9544 60.4463 56.0818C60.4028 56.2435 60.3684 56.4082 60.33 56.572L60.329 56.571Z" fill="#2B94FC"/>
<path id="Vector_23" d="M69.8223 73.5001C69.6525 73.4607 69.4828 73.4192 69.312 73.3808C69.2099 73.3576 69.1745 73.3 69.1987 73.1979C69.2685 72.9058 69.3372 72.6127 69.4049 72.3196C69.4292 72.2134 69.4949 72.1892 69.5919 72.2124C69.9315 72.2933 70.2721 72.3731 70.6127 72.451C70.7249 72.4762 70.7613 72.5369 70.734 72.648C70.6642 72.9331 70.5975 73.2191 70.5329 73.5051C70.5066 73.6214 70.4389 73.6466 70.3317 73.6204C70.1619 73.5779 69.9921 73.5395 69.8213 73.5001H69.8223Z" fill="#2B94FC"/>
<path id="Vector_24" d="M76.3725 45.6173C76.5362 45.6557 76.699 45.6971 76.8627 45.7315C76.982 45.7567 77.0264 45.8164 76.9961 45.9397C76.9274 46.2176 76.8617 46.4966 76.8 46.7765C76.7727 46.9009 76.706 46.9322 76.5878 46.9039C76.2623 46.8241 75.9359 46.7472 75.6074 46.6745C75.479 46.6462 75.4315 46.5855 75.4659 46.4531C75.5346 46.1822 75.5983 45.9094 75.6579 45.6365C75.6862 45.503 75.756 45.4667 75.8833 45.501C76.045 45.5445 76.2098 45.5789 76.3725 45.6173Z" fill="#2B94FC"/>
<path id="Vector_25" d="M84.2396 66.6836C84.1638 66.9969 84.0829 67.3092 84.0152 67.6236C83.9829 67.7701 83.9202 67.8237 83.7676 67.7833C83.5109 67.7145 83.2511 67.6539 82.9903 67.6013C82.8357 67.57 82.8034 67.4942 82.8398 67.3487C82.9186 67.0364 82.9843 66.721 83.0561 66.4067C83.0692 66.3986 83.0833 66.3905 83.0965 66.3814C83.4694 66.4683 83.8424 66.5563 84.2143 66.6432C84.2224 66.6563 84.2305 66.6705 84.2396 66.6846V66.6836Z" fill="#2B94FC"/>
<path id="Vector_26" d="M61.138 61.2657C61.0622 61.5791 60.9813 61.8914 60.9136 62.2057C60.8813 62.3522 60.8186 62.4058 60.666 62.3654C60.4093 62.2967 60.1495 62.236 59.8888 62.1835C59.7341 62.1521 59.7018 62.0763 59.7382 61.9308C59.817 61.6185 59.8827 61.3031 59.9545 60.9888C59.9676 60.9807 59.9817 60.9726 59.9949 60.9635C60.3678 61.0505 60.7408 61.1384 61.1127 61.2253C61.1208 61.2395 61.1299 61.2526 61.138 61.2667V61.2657Z" fill="#2B94FC"/>
<path id="Vector_27" d="M65.9769 70.7062C65.6636 70.6304 65.3523 70.5506 65.038 70.4819C64.8914 70.4495 64.8379 70.3869 64.8783 70.2342C64.947 69.9775 65.0077 69.7178 65.0602 69.457C65.0915 69.3024 65.1673 69.269 65.3129 69.3054C65.6252 69.3832 65.9405 69.4499 66.2538 69.5217C66.2619 69.5348 66.27 69.549 66.2791 69.5631C66.1922 69.9361 66.1043 70.309 66.0173 70.682C66.0042 70.6901 65.9901 70.6982 65.9769 70.7073V70.7062Z" fill="#2B94FC"/>
<path id="Vector_28" d="M74.5 72.6703C74.5879 72.2974 74.6749 71.9244 74.7628 71.5515C74.7759 71.5434 74.7901 71.5353 74.8032 71.5262C75.1165 71.602 75.4278 71.6819 75.7432 71.7506C75.8897 71.7829 75.9433 71.8456 75.9029 71.9982C75.8341 72.2549 75.7735 72.5147 75.7209 72.7755C75.6896 72.9301 75.6138 72.9624 75.4683 72.9261C75.1559 72.8472 74.8406 72.7815 74.5273 72.7098C74.5192 72.6966 74.5101 72.6825 74.502 72.6693L74.5 72.6703Z" fill="#2B94FC"/>
<path id="Vector_29" d="M85.0605 57.8535C85.1363 57.5402 85.2172 57.2289 85.2859 56.9135C85.3183 56.766 85.382 56.7134 85.5336 56.7539C85.7903 56.8226 86.05 56.8832 86.3108 56.9358C86.4664 56.9671 86.4978 57.0439 86.4614 57.1895C86.3825 57.5018 86.3168 57.8171 86.2451 58.1315C86.2319 58.1395 86.2178 58.1476 86.2047 58.1557C85.8317 58.0688 85.4588 57.9809 85.0858 57.8939C85.0777 57.8808 85.0686 57.8667 85.0605 57.8535Z" fill="#2B94FC"/>
<path id="Vector_30" d="M61.957 52.4356C62.0328 52.1223 62.1137 51.811 62.1824 51.4957C62.2148 51.3481 62.2784 51.2955 62.43 51.336C62.6867 51.4047 62.9465 51.4654 63.2072 51.5179C63.3629 51.5492 63.3942 51.6261 63.3578 51.7716C63.279 52.0839 63.2133 52.3992 63.1416 52.7136C63.1284 52.7217 63.1143 52.7298 63.1011 52.7378C62.7282 52.6509 62.3552 52.563 61.9823 52.4761C61.9742 52.4629 61.9651 52.4488 61.957 52.4356Z" fill="#2B94FC"/>
<path id="Vector_31" d="M80.2211 48.4151C80.5344 48.4909 80.8457 48.5718 81.1611 48.6395C81.3076 48.6718 81.3612 48.7345 81.3207 48.8871C81.252 49.1438 81.1914 49.4036 81.1388 49.6643C81.1075 49.819 81.0317 49.8513 80.8862 49.8149C80.5738 49.7361 80.2585 49.6704 79.9452 49.5986C79.9371 49.5855 79.928 49.5714 79.9199 49.5582C80.0079 49.1853 80.0948 48.8123 80.1827 48.4394C80.1958 48.4313 80.21 48.4232 80.2231 48.4141L80.2211 48.4151Z" fill="#2B94FC"/>
<path id="Vector_32" d="M71.6971 46.451C71.6101 46.824 71.5222 47.1969 71.4353 47.5699C71.4222 47.578 71.408 47.5861 71.3949 47.5942C71.0816 47.5183 70.7703 47.4385 70.4559 47.3698C70.3094 47.3374 70.2558 47.2748 70.2963 47.1222C70.365 46.8654 70.4256 46.6057 70.4782 46.3449C70.5095 46.1903 70.5853 46.1569 70.7308 46.1933C71.0431 46.2711 71.3585 46.3378 71.6718 46.4096C71.6799 46.4237 71.689 46.4369 71.6971 46.451Z" fill="#2B94FC"/>
</g>
<defs>
<filter id="filter0_d_424_72" x="0.240566" y="-4.26936" width="145.519" height="145.519" filterUnits="userSpaceOnUse" color-interpolation-filters="sRGB">
<feFlood flood-opacity="0" result="BackgroundImageFix"/>
<feColorMatrix in="SourceAlpha" type="matrix" values="0 0 0 0 0 0 0 0 0 0 0 0 0 0 0 0 0 0 127 0" result="hardAlpha"/>
<feOffset dy="8.49057"/>
<feGaussianBlur stdDeviation="23.8797"/>
<feComposite in2="hardAlpha" operator="out"/>
<feColorMatrix type="matrix" values="0 0 0 0 0.168627 0 0 0 0 0.580392 0 0 0 0 0.988235 0 0 0 0.25 0"/>
<feBlend mode="normal" in2="BackgroundImageFix" result="effect1_dropShadow_424_72"/>
<feBlend mode="normal" in="SourceGraphic" in2="effect1_dropShadow_424_72" result="shape"/>
</filter>
</defs>
</svg>
