<svg width="36" height="36" fill="none" xmlns="http://www.w3.org/2000/svg"><rect width="36" height="36" rx="18" fill="#EB5B31"/><g clip-path="url(#clip0_2680_28511)"><path d="M24.108 12.177c-.604-.326-1.278.302-1.673.673-.906.883-1.673 1.906-2.532 2.835-.953 1.023-1.836 2.045-2.812 3.044-.558.558-1.162 1.162-1.534 1.86-.836-.814-1.556-1.697-2.486-2.417-.674-.512-1.79-.883-1.766.348.046 1.604 1.464 3.323 2.51 4.415.441.465 1.022.953 1.696.976.813.047 1.65-.93 2.138-1.464.86-.93 1.557-1.975 2.347-2.928 1.022-1.254 2.068-2.486 3.067-3.764.627-.79 2.602-2.742 1.046-3.579zm-11.78 6.25c-.024 0-.047 0-.093.023a1.128 1.128 0 01-.256-.092c.07-.047.186-.024.348.07z" fill="#fff"/></g><defs><clipPath id="clip0_2680_28511"><path fill="#fff" transform="translate(11.305 11.305)" d="M0 0h13.388v13.388H0z"/></clipPath></defs></svg>