<svg width="342" height="265" fill="none" xmlns="http://www.w3.org/2000/svg"><g clip-path="url(#clip0_2669_25370)" fill="#DF4A1F"><path d="M-10.087 200.754c11.699 24.795 29.588 47.328 44.732 70.207 2.572 3.892 15.814-1.718 15.31-6.054-3.697-32.452-7.538-64.844-11.466-97.242l-15.38 6.084c21.332 27.588 35.911 58.527 50.146 90.162 2.098 4.687 15.405-2.183 15.67-6.205 3.483-53.495 7.024-107.056 9.21-160.6.178-4.836-13.868.177-14.233 4.666-4.442 53.642-7.608 107.386-10.774 161.13l15.67-6.205c-14.436-31.509-29.32-62.361-50.436-90.041-2.763-3.642-15.89 1.536-15.38 6.083 3.732 32.438 7.572 64.83 11.537 97.212l15.308-6.053c-15.458-22.917-29.63-48.033-48.104-68.619-2.486-2.781-13.534 1.779-11.81 5.475zm132.08-63.178c-3.295 21.789-3.634 71.538 23.428 80.098 21.282 6.738 31.339-12.92 33.336-30.211 2.456-21.054 3.433-64.737-26.234-65.74-16.822-.58-38.863 15.445-29.928 33.665 1.902 3.919 13.2-1.766 13.343-5.269.541-12.767 13.875-23.517 22.609-8.91 3.006 5.028 3.938 11.692 4.902 17.323 1.948 11.509 4.594 31.353-.324 42.304-9.788 21.714-23.17-11.13-26.005-20.098-4.804-15.068-5.982-30.812-4.793-46.487.266-3.512-9.85.23-10.34 3.412l.006-.087zm39.552-62.237c15.38 34.257 34.961 66.578 50.443 100.877 2.068 4.615 15.791-2.175 14.981-6.935-5.5-33.608-11.478-67.141-17.014-100.734l-14.836 6.875c18.469 34.022 36.937 68.043 55.421 102.101 2.316 4.297 16.144-1.942 15.706-6.221-5.75-58.369 2.055-110.28 11.769-167.457.811-4.846-12.893.575-14.047 3.695-19.784 52.739-19.352 113.727-13.555 168.973l15.706-6.22-56.164-101.746c-2.48-4.483-15.631 2.151-14.836 6.875 5.783 33.574 11.087 67.221 16.869 100.794l14.981-6.935c-15.635-33.853-32.917-68.288-53.179-99.6-2.2-3.411-13.917 1.983-12.245 5.658z"/></g><defs><clipPath id="clip0_2669_25370"><path fill="#fff" transform="rotate(-22.802 310.55 162.128)" d="M0 0h342.213v167.443H0z"/></clipPath></defs></svg>