<svg width="375" height="66" fill="none" xmlns="http://www.w3.org/2000/svg"><path d="M-6 171c.58-6.375 14.19-10.543 19.387-12.222 11.84-3.825 23.014-7.946 35.27-10.449 12.35-2.523 25.018-4.228 37.464-6.251 13.224-2.15 25.98-5.155 39.054-8.024 34.805-7.639 69.311-18.974 95.765-43.757 7.893-7.394 19.395-23.357 13.827-34.847-8.211-16.947-31.671-21.945-48.396-23.324-14.828-1.223-29.553.16-43.818 4.525-5.745 1.757-12.06 4.134-16.35 8.583-5.664 5.873 11.335 5.691 13.313 5.691 17.523 0 34.323-4.351 51.433-7.743 21.398-4.243 43.927-8.24 64.56-15.395C291.181 15.42 328.816 5.288 366.503 1.804c13.458-1.245 27.785-1.046 41.202.606C411.629 2.893 422 1.658 422 7.262" stroke="#fff" stroke-opacity=".11"/></svg>