<svg width="1220" height="773" fill="none" xmlns="http://www.w3.org/2000/svg"><path d="M-270.631 301.334c-57.252 45.626 72.461 125.696 109.72 129.876 46.686 5.236 130.58-45.885 167.497-70.772C68.863 318.454 126.3 279.72 177.448 223.653c31.232-34.237 76.68-101.814 74.647-151.381-1.053-25.664-8.495-78.59-45.204-70.77C101.698 23.91 92.405 166.886 148.868 237.737c38.96 48.888 95.504 76.095 158.837 72.105 90.776-5.719 176.807-18.19 268.453-12.766 190.992 11.306 118.381 219.691 71.595 334.11-75.323 184.21 184.415 43.712 247.707 23.636 71.375-22.641 170.89-32.101 234.67 16.64 41.29 31.56 57.65 69.217 88.68 108.151" stroke="#fff" stroke-opacity=".11"/></svg>