<svg width="212" height="480" fill="none" xmlns="http://www.w3.org/2000/svg"><path d="M31.887 541.819C7.274 555.18-1.642 497.428 2.433 483.659c5.106-17.253 35.624-39.188 49.896-48.482 24.077-15.679 46.288-30.137 73.673-39.78 16.723-5.888 47.318-11.796 64.492-3.654 8.892 4.216 26.445 14.77 18.221 26.548-23.565 33.75-75.361 15.609-91.935-14.922-11.435-21.067-12.608-45.089-1.77-66.832 15.534-31.165 32.743-59.643 44.477-92.784 24.456-69.066-59.832-74.671-107.142-75.308-76.168-1.026 12.05-71.6 28.553-90.92C99.51 55.74 117.665 22.053 109.977-7.746 104.998-27.04 94.156-38.45 85.049-55.229" stroke="#fff" stroke-opacity=".11"/></svg>