<svg width="344" height="480" fill="none" xmlns="http://www.w3.org/2000/svg"><path d="M15.166-11c-27.557 0-8.157 54.088 1.83 64.075C29.512 65.59 66.2 70.23 82.907 71.565c28.181 2.255 54.176 4.33 82.384-.183 17.226-2.756 46.458-12.002 57.487-27.094 5.711-7.814 15.936-25.169 3.296-31.489-36.223-18.11-72.5 21.863-72.5 56.02 0 23.57 10.263 44.879 29.842 58.584 28.064 19.643 56.314 36.181 82.019 59.315 53.571 48.212-16.689 92.593-57.303 115.336-65.387 36.615 44.032 56.221 67.373 65.173 26.321 10.096 57.836 30.691 65.176 60.048 4.752 19.009.732 33.955.732 52.725" stroke="#fff" stroke-opacity=".11"/></svg>