<svg width="158" height="335" fill="none" xmlns="http://www.w3.org/2000/svg"><path d="M682 129.5C530.5 83 302.88-25.422 186.889 3.64 44.123 39.41 142.121 216.816 233 249.5c115.829 41.656 248.5 82.302 233 119.5 0 28.494-218.063-21.108-279.111-52.494s-124.13-55.797-170.934-37.198c-46.803 18.599 9.219 137.487 268.61 127.869 246.24-9.131 275.757 37.325 338.839 72.199 63.083 34.873 538.216 117.28 515.826-47.787-22.38-165.068-43.31-287.107-204.072-310.356-131.898-45.636-21.749-99.355-14.032-140.435 5.613-46.697-216.087-50.91-216.087-94.798" stroke="#fff" stroke-opacity=".15"/></svg>