<svg width="1333" height="655" fill="none" xmlns="http://www.w3.org/2000/svg"><path d="M-6.61 85.663c-1.182 7.432-16.084 6.282-7.996 6.282 18.05 0 32.203 2.32 49.753 4.886 74.933 10.953 161.493 7.679 237.66 7.679 90.367 0 182.303.924 271.865-9.424 60.664-7.01 152.54-5.253 200.344-40.835 61.477-45.759-84.029-76.163-123.494-31.063-31.775 36.314-9.238 102.405 13.327 137.862C671 217.856 742.526 250.695 804.987 287.046c41.653 24.241 117.292 75.164 123.494 119.015C938.995 480.408 1068.5 629 1332.5 654.5" stroke="#fff" stroke-opacity=".11"/></svg>