<svg width="668" height="257" fill="none" xmlns="http://www.w3.org/2000/svg"><path d="M1 256c.903-9.938 22.081-16.435 30.167-19.052 18.423-5.963 35.812-12.387 54.882-16.289 19.218-3.932 38.931-6.59 58.299-9.744 20.577-3.351 40.425-8.034 60.77-12.507 54.16-11.908 107.853-29.577 149.018-68.21 12.281-11.526 30.179-36.41 21.516-54.32-12.778-26.417-49.283-34.209-75.308-36.358-23.074-1.906-45.987.25-68.185 7.053-8.94 2.74-18.765 6.444-25.442 13.38-8.813 9.155 17.639 8.872 20.717 8.872 27.266 0 53.408-6.784 80.034-12.071 33.297-6.613 68.354-12.845 100.459-23.997C463.436 13.476 521.999-2.315 580.642-7.747c20.942-1.94 43.237-1.63 64.114.945C650.862-6.049 667-7.974 667 .761" stroke="#fff" stroke-opacity=".11"/></svg>