<svg width="163" height="251" fill="none" xmlns="http://www.w3.org/2000/svg"><path d="M-220 425.463c1.907-60.086-8.924-166.497 65.757-192.438 21.238-7.378 45.623-11.014 67.893-14.051 12.792-1.745 38.735-2.171 49.459-10.341C-1.956 182.015 5.512 137.032 6.722 95.89c1.38-46.888 35.792-70.244 80.483-72.727 17.547-.975 44.102 7.094 56.315-9.33 9.547-12.84 9.745-23.093 5.62-38.217-4.376-16.046-10.143-18.304-22.931-28.327-11.273-8.836-13.024-27.697-15.961-40.915-2.044-9.196 44.3-6.068 52.156-4.946" stroke="#fff" stroke-opacity=".2"/></svg>