<svg width="236" height="127" fill="none" xmlns="http://www.w3.org/2000/svg"><path d="M-228.849 54.483c-.586 4.695-7.974 3.968-3.964 3.968 8.948 0 15.965 1.466 24.666 3.087 37.149 6.92 80.064 4.85 117.825 4.85 44.801 0 90.38.584 134.783-5.953 30.076-4.427 75.625-3.318 99.325-25.796 30.479-28.906-41.659-48.113-61.225-19.622-15.753 22.94-4.58 64.69 6.607 87.089 17.923 35.885 53.384 56.63 84.35 79.593 20.65 15.314 58.15 47.482 61.225 75.183 5.212 46.967-70.109 61.154-101.969 67.467-25.032 4.96-50.723 9.056-75.32 15.875-11.977 3.32-24.242 10.535-36.558 11.905-6.218.692-4.171 6.732 0 8.82 10.12 5.065 22.677 3.086 33.696 3.086 28.626 0 56.619-7.937 85.01-7.937 41.962 0-17.719 34.706-27.529 39.686-53.532 27.173-110.822 51.289-168.039 69.451-18.883 5.994-36.333 16.602-55.498 21.607-3.765.983-22.133 8.158-18.28 8.158" stroke="#fff" stroke-opacity=".11"/></svg>