<svg width="54" height="54" viewBox="0 0 54 54" fill="none" xmlns="http://www.w3.org/2000/svg">
<path d="M26.9817 30.9169C26.0323 30.9147 25.1087 31.2262 24.3546 31.803C23.6005 32.3798 23.0582 33.1896 22.8118 34.1065C22.5654 35.0234 22.6288 35.9959 22.9922 36.873C23.3555 37.7502 23.9986 38.4826 24.8212 38.9566V43.006C24.8264 43.0779 24.8511 43.1471 24.8926 43.2061C24.9341 43.2652 24.9908 43.3118 25.0567 43.3412C25.107 43.3669 25.1635 43.3779 25.2197 43.3728C25.303 43.3723 25.3845 43.3488 25.4553 43.3049L26.9817 42.1092L28.5081 43.3049C28.5634 43.35 28.6308 43.3775 28.7018 43.384C28.7729 43.3904 28.8443 43.3755 28.9067 43.3412C28.9727 43.3118 29.0294 43.2652 29.0708 43.2061C29.1123 43.1471 29.137 43.0779 29.1423 43.006V38.9566C29.9649 38.4826 30.6078 37.7502 30.9712 36.873C31.3346 35.9959 31.3981 35.0234 31.1517 34.1065C30.9053 33.1896 30.3628 32.3798 29.6087 31.803C28.8546 31.2262 27.9311 30.9147 26.9817 30.9169Z" fill="#031C77"/>
<path d="M44.3658 36.4111H32.7976C32.6428 36.3979 32.4986 36.327 32.3935 36.2125C32.2884 36.098 32.2301 35.9483 32.2301 35.7929C32.2301 35.6375 32.2884 35.4877 32.3935 35.3733C32.4986 35.2588 32.6428 35.1879 32.7976 35.1746H43.7499V11.2275H10.232V35.1837H21.0211C21.1759 35.1969 21.3201 35.2678 21.4252 35.3823C21.5303 35.4967 21.5887 35.6465 21.5887 35.8019C21.5887 35.9573 21.5303 36.1071 21.4252 36.2216C21.3201 36.3361 21.1759 36.4069 21.0211 36.4202H9.61596C9.45258 36.4202 9.2959 36.3553 9.18038 36.2398C9.06485 36.1243 9.00002 35.9676 9.00002 35.8042V10.6205C8.99942 10.5393 9.01489 10.4586 9.04558 10.3834C9.07627 10.3081 9.12157 10.2397 9.17883 10.182C9.23609 10.1243 9.30417 10.0786 9.3792 10.0473C9.45424 10.0161 9.53468 10 9.61596 10H44.3839C44.4652 10 44.5457 10.0161 44.6207 10.0473C44.6957 10.0786 44.7639 10.1243 44.8212 10.182C44.8784 10.2397 44.9236 10.3081 44.9543 10.3834C44.985 10.4586 45.0006 10.5393 45 10.6205V35.8042C44.9988 35.8859 44.9814 35.9665 44.9488 36.0414C44.9162 36.1163 44.8689 36.184 44.8099 36.2404C44.7509 36.2969 44.6812 36.3411 44.605 36.3704C44.5287 36.3997 44.4474 36.4135 44.3658 36.4111Z" fill="#031C77"/>
<path d="M36.8433 28.933H17.1221C16.99 28.9615 16.8531 28.9601 16.7216 28.9288C16.5901 28.8976 16.4672 28.8373 16.362 28.7524C16.2568 28.6675 16.172 28.5601 16.1137 28.4381C16.0554 28.3161 16.0251 28.1827 16.0251 28.0475C16.0251 27.9123 16.0554 27.7788 16.1137 27.6568C16.172 27.5349 16.2568 27.4275 16.362 27.3426C16.4672 27.2577 16.5901 27.1974 16.7216 27.1661C16.8531 27.1349 16.99 27.1335 17.1221 27.162H36.8433C36.9755 27.1335 37.1123 27.1349 37.2438 27.1661C37.3754 27.1974 37.4981 27.2577 37.6033 27.3426C37.7085 27.4275 37.7934 27.5349 37.8517 27.6568C37.91 27.7788 37.9403 27.9123 37.9403 28.0475C37.9403 28.1827 37.91 28.3161 37.8517 28.4381C37.7934 28.5601 37.7085 28.6675 37.6033 28.7524C37.4981 28.8373 37.3754 28.8976 37.2438 28.9288C37.1123 28.9601 36.9755 28.9615 36.8433 28.933Z" fill="#031C77"/>
<path d="M36.8433 24.0866H17.1221C16.99 24.1151 16.8531 24.1137 16.7216 24.0824C16.5901 24.0512 16.4672 23.9908 16.362 23.9059C16.2568 23.821 16.172 23.7137 16.1137 23.5917C16.0554 23.4697 16.0251 23.3363 16.0251 23.2011C16.0251 23.0659 16.0554 22.9324 16.1137 22.8104C16.172 22.6885 16.2568 22.5811 16.362 22.4962C16.4672 22.4113 16.5901 22.351 16.7216 22.3197C16.8531 22.2885 16.99 22.287 17.1221 22.3155H36.8433C36.9755 22.287 37.1123 22.2885 37.2438 22.3197C37.3754 22.351 37.4981 22.4113 37.6033 22.4962C37.7085 22.5811 37.7934 22.6885 37.8517 22.8104C37.91 22.9324 37.9403 23.0659 37.9403 23.2011C37.9403 23.3363 37.91 23.4697 37.8517 23.5917C37.7934 23.7137 37.7085 23.821 37.6033 23.9059C37.4981 23.9908 37.3754 24.0512 37.2438 24.0824C37.1123 24.1137 36.9755 24.1151 36.8433 24.0866Z" fill="#031C77"/>
<path d="M36.8411 19.2447H17.1199C16.9151 19.2032 16.731 19.092 16.5988 18.9302C16.4665 18.7685 16.3943 18.5659 16.3943 18.3569C16.3943 18.148 16.4665 17.9455 16.5988 17.7837C16.731 17.6219 16.9151 17.5108 17.1199 17.4692H36.8411C36.9727 17.4425 37.1086 17.4453 37.2389 17.4775C37.3692 17.5098 37.4907 17.5706 37.5946 17.6556C37.6986 17.7405 37.7824 17.8475 37.8399 17.9688C37.8974 18.0901 37.9273 18.2227 37.9273 18.3569C37.9273 18.4912 37.8974 18.6238 37.8399 18.7451C37.7824 18.8664 37.6986 18.9734 37.5946 19.0584C37.4907 19.1433 37.3692 19.2041 37.2389 19.2363C37.1086 19.2686 36.9727 19.2715 36.8411 19.2447Z" fill="#031C77"/>
<path d="M13.5515 35.6775C13.5515 34.6287 13.1349 33.623 12.3934 32.8814C11.6518 32.1399 10.646 31.7233 9.59729 31.7233V35.6775H13.5515Z" fill="#031C77"/>
<path d="M13.5515 10.6115C13.5515 11.1305 13.4492 11.6445 13.2505 12.124C13.0517 12.6035 12.7604 13.0391 12.3931 13.4059C12.0259 13.7727 11.5899 14.0635 11.1102 14.2618C10.6304 14.46 10.1163 14.5617 9.59729 14.5611V10.6115H13.5515Z" fill="#031C77"/>
<path d="M40.4116 35.6775C40.4116 34.6287 40.8282 33.623 41.5697 32.8814C42.3113 32.1399 43.3171 31.7233 44.3658 31.7233V35.6775H40.4116Z" fill="#031C77"/>
<path d="M40.4116 10.6115C40.4116 11.1305 40.514 11.6445 40.7127 12.124C40.9115 12.6035 41.2028 13.0391 41.5701 13.4059C41.9373 13.7727 42.3732 14.0635 42.8529 14.2618C43.3327 14.46 43.8468 14.5617 44.3658 14.5611V10.6115H40.4116Z" fill="#031C77"/>
</svg>
