<svg width="54" height="54" viewBox="0 0 54 54" fill="none" xmlns="http://www.w3.org/2000/svg">
<path d="M36.2626 44.3685C34.3448 44.3677 32.4462 43.9873 30.6761 43.2492C30.5331 43.2216 30.398 43.1625 30.2806 43.0762C30.1633 42.99 30.0666 42.8787 29.9975 42.7504C29.9285 42.6222 29.8889 42.4801 29.8815 42.3347C29.8742 42.1892 29.8994 42.0439 29.9551 41.9093C30.0109 41.7747 30.0958 41.6542 30.2039 41.5566C30.312 41.4589 30.4405 41.3866 30.58 41.3448C30.7195 41.3029 30.8665 41.2926 31.0105 41.3146C31.1545 41.3366 31.2919 41.3904 31.4125 41.4721C33.7258 42.439 36.2758 42.6902 38.7332 42.1931C41.1907 41.6961 43.4426 40.4736 45.1982 38.6838C46.9539 36.8939 48.1327 34.6188 48.5822 32.1522C49.0318 29.6856 48.7316 27.1409 47.7203 24.8467C46.7089 22.5526 45.033 20.6143 42.909 19.2822C40.7849 17.9502 38.3102 17.2855 35.8046 17.3741C33.2989 17.4627 30.8774 18.3005 28.8527 19.7793C26.8281 21.258 25.2933 23.3099 24.4465 25.6698C24.3292 25.8632 24.1486 26.0102 23.9354 26.0859C23.7221 26.1616 23.4894 26.1613 23.2763 26.0851C23.0633 26.0089 22.8831 25.8614 22.7662 25.6677C22.6494 25.4739 22.603 25.2457 22.635 25.0217C23.5307 22.5331 25.0922 20.3381 27.1493 18.6756C29.2064 17.0132 31.6801 15.9471 34.3013 15.5935C36.9224 15.2399 39.5903 15.6124 42.0144 16.6703C44.4385 17.7283 46.5257 19.4312 48.0488 21.5935C49.5719 23.7557 50.4724 26.2945 50.6523 28.9333C50.8321 31.572 50.2844 34.2096 49.0688 36.5586C47.8532 38.9075 46.0164 40.8779 43.7583 42.255C41.5003 43.6321 38.9075 44.3631 36.2626 44.3685Z" fill="#031C77"/>
<path d="M36.0516 41.2364C35.7571 41.2364 35.4625 41.2365 35.1679 41.2021C34.9497 41.1409 34.7595 41.006 34.6293 40.8205C34.4992 40.635 34.4372 40.4101 34.454 40.1841C34.4707 39.9581 34.5652 39.7448 34.7213 39.5805C34.8773 39.4162 35.0855 39.311 35.3103 39.2826C37.0771 39.4163 38.8466 39.0633 40.4269 38.2619C42.0071 37.4606 43.3376 36.2415 44.2737 34.7372C45.2098 33.2328 45.7157 31.5008 45.7366 29.7291C45.7575 27.9574 45.2925 26.2139 44.3921 24.6879C44.2942 24.5801 44.2215 24.4519 44.1793 24.3125C44.137 24.1731 44.1263 24.0261 44.1479 23.8821C44.1695 23.7381 44.2229 23.6007 44.3042 23.4798C44.3854 23.359 44.4926 23.2577 44.6178 23.1834C44.7431 23.109 44.8832 23.0635 45.0282 23.0501C45.1732 23.0366 45.3194 23.0556 45.4562 23.1056C45.5929 23.1557 45.7169 23.2355 45.819 23.3394C45.9211 23.4432 45.9988 23.5685 46.0466 23.7061C47.2608 25.7485 47.813 28.1167 47.6273 30.4855C47.4038 33.405 46.0881 36.133 43.9427 38.1256C41.7973 40.1182 38.9796 41.2289 36.0516 41.2364Z" fill="#031C77"/>
<path d="M16.1295 38.5708C15.6481 38.5712 15.1752 38.4446 14.7584 38.2036C14.3417 37.9626 13.9959 37.616 13.7561 37.1985C13.5163 36.7811 13.3909 36.3078 13.3927 35.8264C13.3945 35.345 13.5233 34.8725 13.7662 34.4569C14.0091 34.0412 14.3574 33.6971 14.7759 33.4592C15.1944 33.2213 15.6684 33.0982 16.1498 33.1021C16.6312 33.1061 17.1029 33.2372 17.5174 33.482C17.9319 33.7267 18.2745 34.0766 18.5105 34.4963C18.7443 34.9121 18.8652 35.382 18.8613 35.8591C18.8573 36.3362 18.7287 36.804 18.4879 37.216C18.2472 37.6279 17.9028 37.9697 17.4891 38.2074C17.0754 38.445 16.6066 38.5703 16.1295 38.5708Z" fill="#031C77"/>
<path d="M36.0068 32.9548C35.4715 32.9536 34.9462 32.8095 34.4851 32.5375C34.0596 32.2879 33.7025 31.937 33.4453 31.5161C33.1881 31.0952 33.0388 30.6173 33.0108 30.1248C32.9828 29.6323 33.0768 29.1405 33.2847 28.6931C33.4925 28.2457 33.8077 27.8566 34.2021 27.5604C34.5965 27.2641 35.058 27.0699 35.5455 26.995C36.0331 26.92 36.5316 26.9667 36.9968 27.1308C37.462 27.2949 37.8794 27.5714 38.212 27.9357C38.5446 28.3 38.7821 28.7408 38.9033 29.219C39.0985 29.9884 38.9807 30.8038 38.5758 31.4866C38.171 32.1693 37.512 32.6637 36.7432 32.8615C36.5027 32.9235 36.2553 32.9549 36.0068 32.9548ZM36.0068 28.1979C35.8576 28.1981 35.7091 28.218 35.5651 28.2568C35.2274 28.3436 34.9231 28.5286 34.6906 28.7884C34.4582 29.0482 34.3079 29.3711 34.2589 29.7163C34.21 30.0614 34.2646 30.4134 34.4157 30.7276C34.5668 31.0417 34.8076 31.3041 35.1078 31.4813C35.4081 31.6585 35.7542 31.7427 36.1022 31.7233C36.4503 31.7038 36.7849 31.5816 37.0634 31.372C37.342 31.1624 37.5521 30.8749 37.6673 30.5458C37.7824 30.2167 37.7974 29.8609 37.7103 29.5234C37.6112 29.1461 37.3907 28.8119 37.0829 28.5724C36.775 28.3329 36.3969 28.2012 36.0068 28.1979Z" fill="#031C77"/>
<path d="M36.6253 28.2813C36.5732 28.2882 36.5205 28.2882 36.4683 28.2813C36.3114 28.2387 36.1775 28.136 36.0957 27.9954C36.014 27.8548 35.9908 27.6877 36.0314 27.5302L37.5729 21.7866C37.6221 21.6377 37.7264 21.5133 37.8645 21.4389C38.0026 21.3645 38.1638 21.3458 38.3152 21.3866C38.4667 21.4275 38.5967 21.5247 38.6786 21.6585C38.7606 21.7922 38.7883 21.9522 38.7559 22.1057L37.2193 27.8444C37.181 27.9717 37.1025 28.0832 36.9953 28.162C36.8882 28.2408 36.7583 28.2827 36.6253 28.2813Z" fill="#031C77"/>
<path d="M34.6194 35.7923C34.5245 35.7936 34.4306 35.7728 34.3452 35.7313C34.2598 35.6899 34.1852 35.6291 34.1275 35.5537C34.0697 35.4784 34.0305 35.3906 34.0128 35.2973C33.995 35.2041 33.9994 35.1079 34.0255 35.0166L34.7912 32.1497C34.8335 31.9922 34.9367 31.8579 35.078 31.7764C35.2193 31.695 35.3873 31.6729 35.5448 31.7153C35.7024 31.7576 35.8366 31.8607 35.918 32.0021C35.9995 32.1434 36.0216 32.3113 35.9793 32.4688L35.2085 35.3357C35.174 35.4659 35.0977 35.5812 34.9912 35.6637C34.8848 35.7462 34.7541 35.7914 34.6194 35.7923Z" fill="#031C77"/>
<path d="M40.0287 10.8049H33.4161V13.392H40.0287V10.8049Z" fill="#031C77"/>
<path d="M40.0271 14.3542H33.4097C33.1493 14.3542 32.8995 14.2508 32.7154 14.0667C32.5313 13.8825 32.4279 13.6328 32.4279 13.3724V10.8001C32.4279 10.5397 32.5313 10.2899 32.7154 10.1058C32.8995 9.92169 33.1493 9.81824 33.4097 9.81824H40.0271C40.2875 9.81824 40.5372 9.92169 40.7213 10.1058C40.9054 10.2899 41.0089 10.5397 41.0089 10.8001V13.3872C41.0051 13.645 40.8998 13.891 40.7161 14.0719C40.5324 14.2529 40.285 14.3543 40.0271 14.3542ZM34.3718 12.4298H39.0648V11.7819H34.3718V12.4298Z" fill="#031C77"/>
<path d="M10.4608 28.1193H3.84813C3.68539 28.1193 3.52935 28.0547 3.41427 27.9396C3.29919 27.8245 3.2345 27.6684 3.2345 27.5057V24.9186C3.2345 24.7558 3.29919 24.5997 3.41427 24.4846C3.52935 24.3696 3.68539 24.3049 3.84813 24.3049H10.4608C10.6235 24.3049 10.7796 24.3696 10.8946 24.4846C11.0097 24.5997 11.0744 24.7558 11.0744 24.9186V27.4909C11.0764 27.5727 11.062 27.6541 11.032 27.7303C11.002 27.8064 10.9571 27.8758 10.8999 27.9344C10.8427 27.9929 10.7745 28.0394 10.699 28.0712C10.6236 28.1029 10.5426 28.1193 10.4608 28.1193ZM4.46177 26.892H9.86177V25.5273H4.46177V26.892Z" fill="#031C77"/>
<path d="M10.4608 23.873H3.84813C3.68539 23.873 3.52935 23.8083 3.41427 23.6933C3.29919 23.5782 3.2345 23.4221 3.2345 23.2593V20.6722C3.2345 20.5095 3.29919 20.3534 3.41427 20.2383C3.52935 20.1232 3.68539 20.0586 3.84813 20.0586H10.4608C10.6235 20.0586 10.7796 20.1232 10.8946 20.2383C11.0097 20.3534 11.0744 20.5095 11.0744 20.6722V23.2593C11.0744 23.4221 11.0097 23.5782 10.8946 23.6933C10.7796 23.8083 10.6235 23.873 10.4608 23.873ZM4.46177 22.6408H9.86177V21.2859H4.46177V22.6408Z" fill="#031C77"/>
<path d="M18.7176 28.1194H12.1001C11.9382 28.1143 11.785 28.0453 11.6737 27.9276C11.5624 27.8099 11.5022 27.653 11.5062 27.491V24.9039C11.5062 24.7412 11.5709 24.5851 11.6859 24.47C11.801 24.3549 11.9571 24.2903 12.1198 24.2903H18.7372C18.9 24.2903 19.056 24.3549 19.1711 24.47C19.2862 24.5851 19.3509 24.7412 19.3509 24.9039V27.491C19.3529 27.5745 19.3379 27.6575 19.3068 27.735C19.2756 27.8125 19.229 27.8828 19.1697 27.9417C19.1104 28.0005 19.0397 28.0466 18.962 28.0772C18.8842 28.1077 18.8011 28.1221 18.7176 28.1194ZM12.7187 26.8921H18.1187V25.5274H12.7187V26.8921Z" fill="#031C77"/>
<path d="M18.7175 23.873H12.1001C11.9373 23.873 11.7813 23.8083 11.6662 23.6933C11.5511 23.5782 11.4865 23.4221 11.4865 23.2593V20.6722C11.4865 20.5095 11.5511 20.3534 11.6662 20.2383C11.7813 20.1232 11.9373 20.0586 12.1001 20.0586H18.7175C18.8803 20.0586 19.0364 20.1232 19.1515 20.2383C19.2666 20.3534 19.3312 20.5095 19.3312 20.6722V23.2593C19.3312 23.4221 19.2666 23.5782 19.1515 23.6933C19.0364 23.8083 18.8803 23.873 18.7175 23.873ZM12.7186 22.6408H18.1186V21.2859H12.7186V22.6408Z" fill="#031C77"/>
<path d="M10.4608 19.6364H3.84815C3.68541 19.6364 3.52937 19.5718 3.41429 19.4567C3.29921 19.3416 3.23452 19.1855 3.23452 19.0228V16.4406C3.23387 16.3596 3.24927 16.2792 3.27982 16.2042C3.31037 16.1292 3.35545 16.061 3.4125 16.0035C3.46954 15.946 3.53752 15.9003 3.61229 15.8692C3.68706 15.838 3.76715 15.822 3.84815 15.822H10.4608C10.5418 15.822 10.6219 15.838 10.6967 15.8692C10.7714 15.9003 10.8393 15.946 10.8963 16.0035C10.9534 16.061 10.9986 16.1292 11.0291 16.2042C11.0597 16.2792 11.0751 16.3596 11.0744 16.4406V19.0228C11.0744 19.1855 11.0097 19.3416 10.8947 19.4567C10.7796 19.5718 10.6236 19.6364 10.4608 19.6364ZM4.46179 18.4091H9.86179V17.0542H4.46179V18.4091Z" fill="#031C77"/>
<path d="M28.453 43.9168H3.80453C3.69194 43.9174 3.58034 43.8958 3.47613 43.8532C3.37193 43.8105 3.2772 43.7477 3.19736 43.6683C3.11752 43.5889 3.05411 43.4946 3.01087 43.3906C2.96764 43.2867 2.94543 43.1752 2.94543 43.0626V28.5513C2.94543 28.4387 2.96764 28.3273 3.01087 28.2233C3.05411 28.1193 3.11752 28.0249 3.19736 27.9455C3.2772 27.8662 3.37193 27.8034 3.47613 27.7607C3.58034 27.7181 3.69194 27.6965 3.80453 27.6972H28.453C28.5656 27.6965 28.6772 27.7181 28.7814 27.7607C28.8856 27.8034 28.9804 27.8662 29.0602 27.9455C29.1401 28.0249 29.2035 28.1193 29.2467 28.2233C29.2899 28.3273 29.3121 28.4387 29.3121 28.5513V43.0626C29.3121 43.1752 29.2899 43.2867 29.2467 43.3906C29.2035 43.4946 29.1401 43.5889 29.0602 43.6683C28.9804 43.7477 28.8856 43.8105 28.7814 43.8532C28.6772 43.8958 28.5656 43.9174 28.453 43.9168ZM4.66362 42.2035H27.594V29.4104H4.66362V42.2035Z" fill="#031C77"/>
<path d="M26.1555 41.315H6.10671C6.02571 41.3157 5.94538 41.3003 5.87036 41.2697C5.79535 41.2392 5.72712 41.1941 5.66961 41.1371C5.61211 41.08 5.56653 41.0121 5.53538 40.9373C5.50424 40.8625 5.48816 40.7824 5.48816 40.7014V30.9274C5.48816 30.8464 5.50424 30.7662 5.53538 30.6914C5.56653 30.6166 5.61211 30.5488 5.66961 30.4917C5.72712 30.4347 5.79535 30.3896 5.87036 30.359C5.94538 30.3285 6.02571 30.3131 6.10671 30.3137H26.1604C26.2414 30.3131 26.3217 30.3285 26.3967 30.359C26.4718 30.3896 26.5399 30.4347 26.5974 30.4917C26.6549 30.5488 26.7006 30.6166 26.7317 30.6914C26.7629 30.7662 26.7789 30.8464 26.7789 30.9274V40.7161C26.7751 40.878 26.7073 41.0318 26.5905 41.144C26.4738 41.2562 26.3174 41.3177 26.1555 41.315ZM6.71543 40.0828H25.5418V31.5263H6.71543V40.0828Z" fill="#031C77"/>
</svg>
