<svg width="54" height="54" viewBox="0 0 54 54" fill="none" xmlns="http://www.w3.org/2000/svg">
<path fill-rule="evenodd" clip-rule="evenodd" d="M19.2139 27.2521C19.3204 27.2521 19.4227 27.2936 19.499 27.3679C19.5753 27.4422 19.6195 27.5433 19.6224 27.6497C19.7232 29.4739 20.519 31.1903 21.846 32.446C23.1731 33.7017 24.9307 34.4014 26.7577 34.4014C28.5847 34.4014 30.3423 33.7017 31.6693 32.446C32.9964 31.1903 33.7921 29.4739 33.8929 27.6497C33.8957 27.5442 33.9392 27.4439 34.0144 27.3698C34.0895 27.2957 34.1904 27.2535 34.296 27.2521H41.4856C41.5935 27.2535 41.6966 27.297 41.7729 27.3733C41.8492 27.4496 41.8927 27.5527 41.8941 27.6606V29.0168C41.8938 29.0999 41.8688 29.1811 41.8222 29.2499C41.7757 29.3188 41.7097 29.3723 41.6327 29.4036L39.5793 30.1879C39.5199 30.2123 39.4669 30.2501 39.4244 30.2983C39.3819 30.3464 39.3511 30.4037 39.3342 30.4657C39.03 31.6623 38.5549 32.8088 37.9235 33.8699C37.8939 33.9272 37.8784 33.9906 37.8784 34.0551C37.8784 34.1195 37.8939 34.1831 37.9235 34.2403L38.8168 36.2501C38.8494 36.3255 38.8585 36.409 38.8429 36.4896C38.8274 36.5703 38.7879 36.6443 38.7296 36.7022L36.2296 39.2023C36.1721 39.2612 36.098 39.3011 36.0171 39.3167C35.9363 39.3323 35.8527 39.3228 35.7775 39.2894L33.7676 38.3962C33.7104 38.3666 33.6468 38.3511 33.5824 38.3511C33.518 38.3511 33.4545 38.3666 33.3972 38.3962C32.3362 39.0275 31.1896 39.5027 29.993 39.8069C29.931 39.8237 29.8738 39.8546 29.8256 39.8971C29.7774 39.9396 29.7397 39.9926 29.7152 40.052L28.9255 42.1054C28.8958 42.1824 28.8434 42.2486 28.7753 42.2952C28.7073 42.3419 28.6267 42.3669 28.5442 42.3668H24.9657C24.8831 42.3669 24.8025 42.3419 24.7345 42.2952C24.6664 42.2486 24.6141 42.1824 24.5844 42.1054L23.7946 40.052C23.7713 39.9919 23.7339 39.9383 23.6856 39.8956C23.6372 39.853 23.5793 39.8225 23.5168 39.8069C22.3223 39.5016 21.1777 39.0265 20.118 38.3962C20.0608 38.3666 19.9973 38.3511 19.9329 38.3511C19.8684 38.3511 19.8049 38.3666 19.7477 38.3962L17.7378 39.2894C17.6618 39.3232 17.5772 39.333 17.4954 39.3175C17.4136 39.3019 17.3386 39.2617 17.2803 39.2023L14.7803 36.7022C14.7216 36.6446 14.6821 36.5701 14.6675 36.4892C14.6529 36.4082 14.6637 36.3247 14.6986 36.2501L15.5864 34.2403C15.616 34.1831 15.6315 34.1195 15.6315 34.0551C15.6315 33.9906 15.616 33.9272 15.5864 33.8699C14.9582 32.8092 14.4832 31.6649 14.1756 30.4711C14.1607 30.4076 14.1307 30.3487 14.088 30.2993C14.0453 30.25 13.9913 30.2118 13.9305 30.1879L11.8826 29.3981C11.8056 29.3684 11.7394 29.3161 11.6927 29.248C11.6461 29.18 11.6211 29.0994 11.6211 29.0168V27.6606C11.6204 27.6068 11.6304 27.5533 11.6507 27.5034C11.671 27.4535 11.7011 27.4082 11.7391 27.3701C11.7772 27.332 11.8226 27.302 11.8725 27.2817C11.9224 27.2615 11.9758 27.2514 12.0296 27.2521H19.2139ZM23.3589 12.5023H30.151C30.2954 12.5023 30.4339 12.5597 30.5361 12.6618C30.6382 12.764 30.6957 12.9025 30.6957 13.047V13.401H33.1903C33.3506 13.401 33.5044 13.4647 33.6178 13.5781C33.7312 13.6915 33.7948 13.8453 33.7948 14.0056V15.9065C33.7948 18.3467 31.9756 19.6702 29.7152 19.8935C28.9963 20.9829 27.9396 21.7563 26.7686 21.7563C25.5975 21.7563 24.5408 20.9611 23.8164 19.8935C21.556 19.6702 19.7368 18.3412 19.7368 15.9065V14.0056C19.7382 13.8448 19.8031 13.691 19.9174 13.5778C20.0316 13.4645 20.186 13.401 20.3468 13.401H22.8414V13.047C22.8414 12.9025 22.8989 12.764 23.001 12.6618C23.1031 12.5597 23.2416 12.5023 23.3861 12.5023H23.3589ZM30.6793 14.5939V16.887C30.6731 17.4447 30.5718 17.9973 30.3797 18.521C31.7033 18.1779 32.5584 17.3172 32.5584 15.8793V14.5829L30.6793 14.5939ZM23.1301 18.5318C22.9408 18.0074 22.8396 17.4553 22.8305 16.8978V14.6048H20.9405V15.9011C20.9405 17.339 21.8065 18.1996 23.1192 18.5427L23.1301 18.5318ZM23.4243 25.2695V24.5669C23.4226 24.5218 23.4378 24.4778 23.4671 24.4435C23.4963 24.4092 23.5374 24.3871 23.5822 24.3816C24.0366 24.3507 24.4755 24.2039 24.8569 23.955C25.2383 23.7061 25.5496 23.3635 25.7609 22.9601C25.7774 22.9237 25.8059 22.8942 25.8416 22.8763C25.8773 22.8585 25.918 22.8535 25.9569 22.862C26.4955 22.9773 27.0524 22.9773 27.591 22.862C27.6293 22.854 27.6692 22.8587 27.7046 22.8754C27.74 22.8921 27.769 22.9199 27.7871 22.9546C27.9927 23.3584 28.2984 23.7026 28.6751 23.9544C29.0518 24.2062 29.4869 24.357 29.9386 24.3926C29.9853 24.394 30.0296 24.4135 30.0622 24.4471C30.0947 24.4806 30.1128 24.5256 30.1128 24.5723V25.2967C30.1128 25.3458 30.0934 25.3929 30.0586 25.4276C30.0239 25.4624 29.9768 25.4819 29.9277 25.4819H23.604C23.5558 25.4805 23.5101 25.4604 23.4765 25.4258C23.443 25.3912 23.4242 25.3449 23.4243 25.2967V25.2695ZM30.7556 27.2521H22.787C22.787 28.3124 23.2081 29.3293 23.9579 30.0791C24.7077 30.8288 25.7246 31.2501 26.7849 31.2501C27.8452 31.2501 28.8621 30.8288 29.6118 30.0791C30.3616 29.3293 30.7828 28.3124 30.7828 27.2521H30.7556Z" fill="#031C77"/>
<path d="M26.8454 47.1273C23.3283 47.1269 19.8733 46.2011 16.8273 44.4429C13.7813 42.6847 11.2515 40.156 9.49202 37.1107C8.1964 34.8435 7.36024 32.3433 7.03134 29.7528C6.70243 27.1623 6.88722 24.5324 7.57515 22.0134C8.26308 19.4944 9.44067 17.1356 11.0406 15.0718C12.6405 13.0081 14.6314 11.2799 16.8996 9.98593C17.056 9.9014 17.2393 9.88141 17.4102 9.93021C17.5812 9.97901 17.7263 10.0927 17.8145 10.2471C17.9027 10.4015 17.927 10.5842 17.8822 10.7563C17.8375 10.9283 17.7273 11.0761 17.575 11.1679C15.4626 12.3736 13.6084 13.9837 12.1183 15.9061C10.6282 17.8286 9.5314 20.0257 8.89056 22.3721C8.24972 24.7185 8.07738 27.1681 8.38338 29.5811C8.68939 31.9941 9.46773 34.3232 10.674 36.4353C12.7731 40.0693 16.0368 42.8889 19.9373 44.4378C23.8377 45.9866 28.1465 46.1743 32.1668 44.9704C32.3395 44.9169 32.5263 44.9343 32.6861 45.0185C32.846 45.1028 32.9658 45.2471 33.0193 45.4197C33.0727 45.5924 33.0554 45.7791 32.9712 45.939C32.8869 46.0989 32.7425 46.2187 32.5699 46.2722C30.7147 46.8396 28.7854 47.1278 26.8454 47.1273Z" fill="#031C77"/>
<path d="M36.2797 44.6109C36.1288 44.6119 35.9817 44.5627 35.8618 44.471C35.7418 44.3793 35.6558 44.2504 35.6172 44.1045C35.5785 43.9585 35.5894 43.8039 35.6482 43.6648C35.707 43.5258 35.8104 43.4103 35.942 43.3364C39.9568 41.0572 42.9754 37.3606 44.4062 32.9714C45.8371 28.5821 45.5769 23.8167 43.6767 19.6093C41.7766 15.4019 38.3734 12.056 34.1344 10.2274C29.8954 8.39883 25.1263 8.21947 20.7619 9.7245C20.6772 9.75347 20.5875 9.76541 20.4981 9.75974C20.4087 9.75406 20.3214 9.73084 20.2409 9.69139C20.1605 9.65194 20.0886 9.59704 20.0294 9.52982C19.9702 9.4626 19.9248 9.3844 19.8959 9.29963C19.8669 9.21487 19.855 9.12527 19.8606 9.03587C19.8663 8.94648 19.8895 8.85905 19.929 8.77863C19.9684 8.69821 20.0233 8.62633 20.0905 8.56713C20.1578 8.50793 20.236 8.46259 20.3207 8.43362C25.0031 6.83226 30.1144 7.03424 34.6558 9.00017C39.1972 10.9661 42.8425 14.5547 44.8793 19.0648C46.9162 23.5748 47.1982 28.6822 45.6704 33.3891C44.1426 38.0961 40.9147 42.0643 36.6174 44.5183C36.5145 44.5772 36.3983 44.609 36.2797 44.6109Z" fill="#031C77"/>
<path d="M16.9863 13.6298C16.9267 13.6379 16.8663 13.6379 16.8066 13.6298C16.6323 13.5814 16.4842 13.4662 16.3944 13.3091C16.3046 13.152 16.2805 12.9659 16.3273 12.7911L16.872 10.852L14.8404 10.3073C14.7516 10.2861 14.6681 10.2472 14.5947 10.193C14.5214 10.1388 14.4596 10.0704 14.4132 9.99185C14.3667 9.91332 14.3365 9.82623 14.3244 9.73581C14.3123 9.64539 14.3185 9.55345 14.3425 9.46546C14.3666 9.37747 14.4082 9.29527 14.4647 9.22364C14.5212 9.15202 14.5915 9.09243 14.6715 9.04851C14.7514 9.0046 14.8394 8.97725 14.9302 8.96799C15.0209 8.95874 15.1126 8.96778 15.1998 8.99466L17.8905 9.73002C17.9772 9.75336 18.0585 9.79358 18.1295 9.84844C18.2006 9.9033 18.2602 9.97167 18.3047 10.0496C18.3493 10.1276 18.3779 10.2137 18.3891 10.3028C18.4003 10.3919 18.3938 10.4822 18.3698 10.5688L17.6617 13.1614C17.614 13.3015 17.5227 13.4225 17.4012 13.5068C17.2796 13.5911 17.1342 13.6343 16.9863 13.6298Z" fill="#031C77"/>
<path d="M37.6186 46.0705C37.559 46.0785 37.4985 46.0785 37.4389 46.0705L34.8462 45.3624C34.6717 45.3132 34.5232 45.1979 34.4323 45.0411C34.3845 44.9597 34.354 44.8692 34.3428 44.7755C34.3315 44.6818 34.3398 44.5868 34.3669 44.4964L35.1022 41.8057C35.1543 41.6367 35.2701 41.4946 35.4251 41.4095C35.5801 41.3244 35.7621 41.3029 35.9327 41.3496C36.1032 41.3963 36.2489 41.5076 36.3389 41.6598C36.4289 41.812 36.4562 41.9932 36.4149 42.1652L35.8702 44.1968L37.8092 44.7415C37.9704 44.7832 38.1107 44.8825 38.2036 45.0207C38.2965 45.1588 38.3355 45.3261 38.3134 45.4911C38.2913 45.6561 38.2095 45.8073 38.0835 45.9161C37.9575 46.0248 37.796 46.0836 37.6295 46.0814L37.6186 46.0705Z" fill="#031C77"/>
</svg>
