<svg width="42" height="41" viewBox="0 0 42 41" fill="none" xmlns="http://www.w3.org/2000/svg">
<path d="M2.99177 19.8397H2.85951L1.51148 19.6312C1.3252 19.6007 1.14739 19.5315 0.989564 19.428C0.831734 19.3245 0.697396 19.1889 0.595257 19.0302C0.493119 18.8715 0.425493 18.6931 0.396676 18.5065C0.367859 18.32 0.378493 18.1295 0.427972 17.9474L4.82812 1.86272C4.91774 1.54099 5.1232 1.26378 5.40492 1.08441C5.68665 0.905048 6.02475 0.836174 6.35418 0.891112L38.1826 5.87117C38.3694 5.90184 38.5477 5.97107 38.7062 6.07441C38.8647 6.17775 39 6.31297 39.1034 6.47145C39.2063 6.62995 39.2745 6.8084 39.3035 6.99516C39.3324 7.18192 39.3214 7.37274 39.2713 7.55495L38.32 11.0191C38.2966 11.1354 38.2496 11.2457 38.1818 11.3431C38.1139 11.4405 38.0267 11.5228 37.9257 11.5851C37.8246 11.6473 37.7118 11.6881 37.5943 11.7049C37.4768 11.7216 37.3572 11.714 37.2428 11.6825C37.1283 11.651 37.0215 11.5963 36.9292 11.5218C36.8368 11.4473 36.7607 11.3546 36.7058 11.2494C36.6508 11.1442 36.6181 11.0288 36.6096 10.9104C36.6012 10.792 36.6171 10.6732 36.6566 10.5612L37.4909 7.50912L6.4254 2.65121L2.22874 17.983L3.1444 18.1254C3.35971 18.1587 3.55445 18.2721 3.68979 18.4428C3.82512 18.6136 3.89104 18.8291 3.87433 19.0463C3.85762 19.2636 3.75954 19.4665 3.59968 19.6145C3.43983 19.7625 3.23001 19.8448 3.01214 19.8448L2.99177 19.8397Z" fill="#031C77"/>
<path d="M5.73326 17.3218H5.63658L4.67012 17.1691C4.53658 17.1489 4.40888 17.1003 4.29569 17.0266C4.1825 16.9529 4.08644 16.8558 4.0139 16.7419C3.94075 16.6286 3.89211 16.5013 3.87108 16.3682C3.85005 16.235 3.85712 16.0989 3.89182 15.9686L7.05074 4.4418C7.11293 4.21415 7.25668 4.01735 7.45461 3.88884C7.65254 3.76033 7.89081 3.70909 8.12406 3.7449L35.0031 7.86531C35.137 7.88636 35.265 7.93535 35.3788 8.00912C35.4926 8.08289 35.5896 8.17975 35.6635 8.29346C35.7373 8.40716 35.7865 8.53514 35.8076 8.66907C35.8288 8.80301 35.8216 8.93993 35.7864 9.07089L35.4913 10.1493C35.4407 10.2991 35.3348 10.4239 35.1953 10.4983C35.0557 10.5726 34.893 10.5909 34.7404 10.5493C34.5878 10.5078 34.4569 10.4095 34.3743 10.2747C34.2917 10.1398 34.2637 9.97854 34.296 9.82374L34.5096 9.04543L8.18001 5.00649L5.16863 15.9941L5.82479 16.0958C5.98249 16.1158 6.12656 16.1957 6.22717 16.3187C6.32778 16.4418 6.37732 16.5988 6.36558 16.7573C6.35384 16.9159 6.28167 17.0638 6.16402 17.1707C6.04637 17.2777 5.89219 17.3354 5.73326 17.3319V17.3218Z" fill="#031C77"/>
<path d="M4.25299 21.8999H4.15637L2.86938 21.7015C2.71561 21.6732 2.56936 21.6134 2.4398 21.5258C2.31024 21.4383 2.20019 21.3249 2.11653 21.1928C2.03335 21.0629 1.97817 20.9171 1.95453 20.7647C1.93088 20.6123 1.93926 20.4567 1.97918 20.3077L2.27928 19.214C2.35102 18.9535 2.51624 18.7286 2.74332 18.5822C2.97041 18.4359 3.24347 18.3783 3.51033 18.4205L4.89903 18.6392C4.97919 18.6515 5.05616 18.6796 5.12549 18.7216C5.19482 18.7637 5.25514 18.8191 5.30309 18.8845C5.35103 18.9499 5.38566 19.0242 5.40492 19.103C5.42418 19.1818 5.42771 19.2636 5.41535 19.3437C5.403 19.4239 5.37499 19.5008 5.33289 19.5702C5.2908 19.6395 5.23544 19.6998 5.17002 19.7478C5.10459 19.7957 5.03035 19.8304 4.95156 19.8496C4.87277 19.8689 4.79098 19.8724 4.71082 19.86L3.4391 19.6616L3.21525 20.4806L4.34967 20.6587C4.5009 20.6861 4.63653 20.7688 4.73032 20.8906C4.82411 21.0124 4.8694 21.1646 4.85736 21.3179C4.84533 21.4711 4.77683 21.6144 4.66518 21.72C4.55353 21.8257 4.40666 21.8861 4.25299 21.8897V21.8999Z" fill="#031C77"/>
<path d="M39.3424 11.6905C39.2867 11.698 39.2302 11.698 39.1745 11.6905C39.0168 11.6454 38.8832 11.5402 38.8023 11.3974C38.7214 11.2547 38.6999 11.0859 38.7422 10.9274L39.0983 9.64052L38.4573 9.53874L38.0656 10.9631C38.015 11.1129 37.9091 11.2377 37.7695 11.3121C37.63 11.3864 37.4672 11.4047 37.3146 11.3631C37.1621 11.3216 37.0311 11.2233 36.9485 11.0885C36.8659 10.9536 36.838 10.7923 36.8703 10.6375L37.2924 9.11146C37.3631 8.85003 37.5279 8.62393 37.7551 8.47654C37.9823 8.32914 38.256 8.27086 38.5235 8.31285L39.4441 8.46033C39.5967 8.48425 39.7425 8.54007 39.8721 8.62414C40.0017 8.7082 40.1121 8.81862 40.1961 8.94821C40.2801 9.07781 40.3358 9.22371 40.3597 9.3763C40.3835 9.52889 40.3748 9.68478 40.3343 9.83382L39.9375 11.2734C39.8948 11.3966 39.8143 11.5033 39.7074 11.5782C39.6006 11.6531 39.4729 11.6923 39.3424 11.6905Z" fill="#031C77"/>
<path d="M36.1522 28.9248H35.9793L4.1457 23.9448C3.9921 23.9179 3.84598 23.8586 3.71705 23.7709C3.58812 23.6832 3.47935 23.5691 3.39794 23.4361C3.31328 23.3069 3.2572 23.161 3.23352 23.0084C3.20983 22.8557 3.21906 22.6998 3.26059 22.551L3.54033 21.5336C3.61206 21.2731 3.77728 21.0482 4.00437 20.9018C4.23146 20.7554 4.50451 20.6978 4.77137 20.74L34.7839 25.4301L38.6448 11.3242C38.7155 11.0641 38.8797 10.8394 39.1059 10.6929C39.3322 10.5465 39.6045 10.4887 39.8707 10.5307L40.7355 10.6681C40.888 10.6907 41.034 10.7455 41.1638 10.8288C41.2936 10.9121 41.4042 11.022 41.4883 11.1513C41.5716 11.2821 41.6269 11.4287 41.6505 11.582C41.6741 11.7352 41.6657 11.8917 41.6257 12.0415L37.2205 28.1211C37.1564 28.3543 37.0167 28.5597 36.8234 28.7051C36.6301 28.8506 36.3941 28.9278 36.1522 28.9248ZM4.49666 22.7341L36.0352 27.6683L40.3641 11.8584L39.7792 11.7668L35.9182 25.8777C35.8475 26.1378 35.6833 26.3627 35.4571 26.5091C35.2308 26.6556 34.9585 26.7133 34.6923 26.6713L4.67978 21.9761L4.49666 22.7341Z" fill="#031C77"/>
<path d="M33.5536 24.6162C33.4841 24.6212 33.4145 24.6212 33.3451 24.6162L2.85947 19.8447C2.74725 19.8273 2.63958 19.7881 2.54254 19.7291C2.4455 19.6701 2.36098 19.5925 2.29391 19.5009C2.22683 19.4092 2.17849 19.3053 2.15159 19.195C2.12468 19.0847 2.11975 18.9701 2.13712 18.8579C2.15449 18.7457 2.19381 18.6379 2.2528 18.5409C2.31179 18.4438 2.3893 18.3594 2.48094 18.2923C2.57258 18.2252 2.67655 18.1769 2.78688 18.15C2.89721 18.1231 3.01177 18.1182 3.124 18.1355L33.2687 22.8561L36.6362 10.5663C36.6596 10.4499 36.7067 10.3396 36.7745 10.2423C36.8424 10.1449 36.9296 10.0625 37.0306 10.0003C37.1317 9.93804 37.2445 9.89725 37.362 9.88049C37.4795 9.86373 37.5991 9.87135 37.7135 9.90284C37.828 9.93434 37.9348 9.98902 38.0271 10.0635C38.1195 10.1381 38.1954 10.2308 38.2504 10.336C38.3054 10.4412 38.3382 10.5566 38.3467 10.6749C38.3551 10.7933 38.3391 10.9122 38.2996 11.0241L34.8457 23.6446C34.7658 23.9253 34.5963 24.1722 34.363 24.3476C34.1297 24.523 33.8454 24.6173 33.5536 24.6162Z" fill="#031C77"/>
<path fill-rule="evenodd" clip-rule="evenodd" d="M22.154 15.5108C21.9307 15.7752 21.6435 15.9783 21.3198 16.1008C20.9957 16.225 20.644 16.2584 20.3024 16.1975L19.7937 16.1161L19.5088 17.8151C19.494 17.9111 19.4598 18.003 19.4082 18.0852C19.3565 18.1675 19.2887 18.2383 19.2087 18.2933C19.1308 18.3511 19.0417 18.3921 18.9472 18.414C18.8527 18.4359 18.7547 18.4381 18.6594 18.4205C18.5634 18.4057 18.4715 18.3714 18.3892 18.3198C18.307 18.2682 18.2362 18.2003 18.1812 18.1203C18.1234 18.0424 18.0823 17.9534 18.0604 17.8589C18.0386 17.7644 18.0364 17.6664 18.054 17.571L18.3389 15.872L17.2452 15.6888C17.1443 15.6766 17.047 15.6436 16.9595 15.5919C16.872 15.5403 16.796 15.471 16.7365 15.3887C16.6253 15.2306 16.581 15.035 16.6134 14.8444C16.6458 14.6538 16.7522 14.4837 16.9094 14.3713C17.0712 14.2595 17.2696 14.214 17.4639 14.2441L20.516 14.7528C20.5794 14.7649 20.6446 14.764 20.7076 14.75C20.7706 14.736 20.83 14.7093 20.8823 14.6715C20.987 14.594 21.058 14.4793 21.0807 14.351C21.0928 14.2876 21.0918 14.2224 21.0778 14.1594C21.0638 14.0964 21.0371 14.037 20.9993 13.9847C20.9218 13.88 20.8071 13.809 20.6788 13.7864L18.2473 13.3743C17.9057 13.3175 17.5849 13.172 17.3171 12.9524C17.0493 12.7328 16.8438 12.4468 16.7212 12.1229C16.601 11.7997 16.5677 11.4505 16.6249 11.1104C16.682 10.7702 16.8275 10.451 17.0468 10.1848C17.2669 9.91686 17.5551 9.71303 17.881 9.59473C18.2052 9.47133 18.5563 9.43625 18.8984 9.49302L19.4071 9.57442L19.6919 7.88046C19.7042 7.77957 19.7372 7.68236 19.7889 7.59482C19.8405 7.50728 19.9097 7.43131 19.9921 7.37177C20.1112 7.28686 20.2529 7.23934 20.3991 7.23516C20.5454 7.23099 20.6895 7.27039 20.8133 7.34836C20.9371 7.42634 21.0349 7.53936 21.0943 7.67306C21.1537 7.80676 21.1719 7.95511 21.1468 8.09922L20.8619 9.79312L21.9556 9.98134C22.056 9.99358 22.1527 10.0261 22.2401 10.0768C22.3276 10.1275 22.4039 10.1954 22.4643 10.2764C22.5483 10.396 22.5951 10.5378 22.5989 10.6839C22.6027 10.83 22.5633 10.974 22.4857 11.0978C22.408 11.2216 22.2955 11.3198 22.1623 11.38C22.0291 11.4402 21.8811 11.4597 21.7369 11.4362L18.6847 10.9275C18.5561 10.9084 18.425 10.9394 18.3185 11.014C18.2138 11.0915 18.1428 11.2062 18.1201 11.3345C18.108 11.3978 18.109 11.463 18.123 11.526C18.137 11.589 18.1637 11.6484 18.2015 11.7007C18.279 11.8054 18.3937 11.8764 18.522 11.8991L20.9535 12.3061C21.2934 12.3676 21.612 12.5146 21.8793 12.7333C22.148 12.9518 22.3535 13.238 22.4745 13.5625C22.5948 13.8858 22.6279 14.235 22.5708 14.5751C22.5137 14.9152 22.3682 15.2344 22.1489 15.5006L22.154 15.5108Z" fill="#031C77"/>
<path d="M20.2357 24.489C17.8111 24.4886 15.4477 23.727 13.4791 22.3116C11.5105 20.8963 10.0359 18.8986 9.26333 16.6003C8.49078 14.3021 8.45929 11.8193 9.17323 9.50221C9.88718 7.1851 11.3105 5.15057 13.2426 3.68567C15.1746 2.22077 17.5178 1.39938 19.9416 1.3374C22.3655 1.27543 24.7476 1.97598 26.752 3.34023C28.7564 4.70448 30.2819 6.66358 31.1133 8.94118C31.9447 11.2188 32.0401 13.6999 31.386 16.0347C30.706 18.4683 29.2478 20.6124 27.2342 22.1391C25.2206 23.6658 22.7626 24.4911 20.2357 24.489ZM20.2357 3.06825C17.8517 3.06051 15.5459 3.91823 13.7466 5.48215C11.9472 7.04607 10.7766 9.20991 10.4522 11.5717C10.1277 13.9336 10.6715 16.3329 11.9825 18.3241C13.2935 20.3152 15.2826 21.7629 17.5803 22.3983C20.0944 23.1006 22.7844 22.7761 25.0593 21.496C27.3342 20.216 29.0079 18.0851 29.7125 15.5717C30.1212 14.109 30.1861 12.5715 29.902 11.0796C29.6179 9.58758 28.9926 8.18155 28.075 6.97132C27.1573 5.7611 25.9722 4.77946 24.6123 4.10326C23.2523 3.42706 21.7544 3.07458 20.2357 3.07334V3.06825Z" fill="#031C77"/>
<path d="M17.9568 23.3082L16.9182 23.0177C16.3744 22.8655 15.8103 23.183 15.6581 23.7268L11.4383 38.8101C11.2861 39.3539 11.6036 39.9181 12.1474 40.0703L13.186 40.3608C13.7298 40.513 14.294 40.1954 14.4461 39.6516L18.666 24.5683C18.8181 24.0245 18.5006 23.4604 17.9568 23.3082Z" fill="#031C77"/>
</svg>
