<svg width="214" height="40" fill="none" xmlns="http://www.w3.org/2000/svg"><path d="M85.8.203a51.6 51.6 0 002.583.025c.378 1.317.704 2.646 1.122 3.95.393-1.31.744-2.633 1.119-3.947.658 0 1.316.003 1.974 0 .375 1.357.741 2.717 1.11 4.077.384-1.36.756-2.72 1.144-4.077.753.003 1.506 0 2.26-.025-1.156 2.173-1.282 4.754-2.294 6.982-.664.43-1.593.138-2.358.215-.305-1.228-.606-2.455-.91-3.68-.32 1.219-.637 2.434-.947 3.656-.79-.093-1.775.28-2.423-.28-.548-1.296-.788-2.696-1.215-4.034-.335-.973-.369-2.12-1.165-2.862zm-2.77 13.055c3.29-2.692 7.831-3.624 11.963-2.781 3.287.683 6.23 2.717 8.133 5.474-1.845 1.772-3.668 3.572-5.538 5.32-.848-1.163-1.786-2.36-3.151-2.933-2.162-.886-4.861-.295-6.386 1.496-1.51 1.717-1.799 4.147-1.618 6.344.228 1.883 1.08 3.84 2.715 4.902 1.993 1.2 4.526.984 6.596.089-.034-1.77.046-3.541-.031-5.31-.012-.752-.855-.964-1.3-1.413 2.886-.05 5.777-.019 8.667-.015 0 2.418-.003 4.84 0 7.261.021 1.215.034 2.505.661 3.59-2.85 2.89-6.897 4.28-10.894 4.453-3.803.274-7.773-.957-10.54-3.634-3.004-2.864-4.461-7.095-4.397-11.197-.037-4.353 1.68-8.864 5.12-11.646zm-40.252 4.877c2.856-1.492 6.663-.067 7.877 2.914-1.024.662-2.063 1.299-3.09 1.954-.449-1.03-1.448-1.935-2.647-1.67-.83.02-1.307 1.16-.61 1.685 1.504 1.013 3.45 1.096 4.933 2.166 2.527 1.671 2.303 5.988-.252 7.527-1.627 1.003-3.68 1.067-5.495.633-1.792-.433-3.296-1.827-3.828-3.6 1.055-.612 2.082-1.27 3.115-1.916.406.92 1.116 1.775 2.152 1.963.784.11 1.845.163 2.334-.6.243-.668-.296-1.253-.895-1.437-1.645-.656-3.53-.948-4.834-2.246-2.121-2.059-1.457-6.123 1.24-7.373zm72.911 5.508c.621-3.157 3.379-5.837 6.642-6.05 2.758-.316 5.528 1.148 6.967 3.496-1.036.64-2.079 1.265-3.109 1.914-1.202-1.69-3.736-2.117-5.405-.886-2.159 1.581-2.195 5.277-.089 6.917 1.777 1.332 4.799 1.04 5.832-1.093-1.694.114-3.299-1.03-3.563-2.741 2.444-.015 4.892-.006 7.339-.006.083 2.166-.363 4.474-1.86 6.123-2.269 2.584-6.411 2.886-9.279 1.157-2.968-1.748-4.231-5.557-3.475-8.831zM.209 17.886a835.36 835.36 0 013.942 0c.738 3.206 1.482 6.41 2.226 9.612.87-3.2 1.71-6.409 2.573-9.612.969-.006 1.938 0 2.906.003.845 3.203 1.694 6.403 2.549 9.603.756-3.2 1.488-6.406 2.238-9.61 1.313 0 2.626 0 3.942.004-1.34 5.12-2.669 10.243-4.006 15.363h-3.89c-.762-2.868-1.51-5.735-2.284-8.597a2084.95 2084.95 0 00-2.279 8.59c-1.297.013-2.595.007-3.89.007C2.888 28.129 1.55 23.006.21 17.886zm24.828 0c3.229-.006 6.46 0 9.688-.003v3.714c-1.998 0-4-.003-5.998 0 .003.757.003 1.51.003 2.267h4.667a622.73 622.73 0 010 3.348H28.73c.003.77-.003 1.538-.012 2.31 2.078.035 4.16.004 6.241.02-.003 1.233-.003 2.47-.003 3.707-3.305 0-6.61.003-9.916-.003-.003-5.12 0-10.24-.003-15.36zm30.329.038h11.008c.003 1.21.003 2.421 0 3.634l-3.573.003v11.707h-3.843v-11.71c-1.196.003-2.396 0-3.595 0 0-1.213 0-2.425.003-3.634zm82.529-.035c1.75-.01 3.499-.01 5.252 0 1.571 5.123 3.158 10.237 4.735 15.36h-3.979c-.203-.733-.415-1.459-.618-2.191h-5.51c-.203.732-.412 1.458-.615 2.19-1.334 0-2.668.004-4 0 1.574-5.122 3.164-10.24 4.735-15.36zm.793 9.898h3.687c-.621-2.021-1.23-4.046-1.854-6.064-.618 2.021-1.224 4.043-1.833 6.064zm13.587-9.883c2.343.016 4.686-.033 7.029.022 2.518.086 4.661 2.354 4.729 4.855.16 1.911-.827 3.803-2.441 4.819.971 1.886 1.961 3.763 2.936 5.65-1.316.002-2.629 0-3.942 0-.836-1.632-1.669-3.26-2.509-4.887-.738.003-1.472.003-2.207.003v4.883h-3.595V17.904zm3.595 3.674a642.223 642.223 0 000 3.4c1.122-.03 2.257.093 3.373-.083 1.491-.375 1.494-2.864.009-3.252-1.119-.15-2.257-.034-3.382-.065zm13.393-3.677c2.103.019 4.203-.024 6.306.016 2.241.095 4.32 1.473 5.424 3.406 1.915 3.292 1.35 8.009-1.682 10.449-1.141.935-2.604 1.446-4.074 1.465-1.993.033-3.985.003-5.974.012V17.9zm3.843 3.794c0 2.588-.003 5.178.003 7.766 1.31-.04 2.786.213 3.924-.606 1.903-1.45 1.98-4.686.304-6.335-1.129-1.09-2.81-.794-4.231-.825zm13.759-3.813h9.686v3.711c-2.005.003-4.01.003-6.015.003 0 .754-.003 1.51 0 2.265 1.562.006 3.124.003 4.689.006v3.363c-1.565 0-3.127-.003-4.689.003-.003.766 0 1.535 0 2.305h6.245v3.71h-9.916V17.883zm15.202.041c.965-.003 1.931 0 2.902.003 1.691 2.551 3.389 5.096 5.089 7.64.003-2.547 0-5.095.003-7.643h3.727c.003 5.114 0 10.23 0 15.345-.963 0-1.922 0-2.881.003-1.713-2.557-3.398-5.133-5.111-7.686-.006 2.566 0 5.135-.003 7.701-1.242.003-2.487.003-3.726 0 0-5.12-.003-10.243 0-15.363z" fill="#A0A747"/></svg>