<svg width="137" height="139" viewBox="0 0 137 139" fill="none" xmlns="http://www.w3.org/2000/svg">
<g clip-path="url(#clip0_2644_25985)">
<path d="M50.8649 19.251C50.5889 19.3973 50.3816 19.5892 50.2193 19.8025C38.2614 26.7447 22.4078 39.0432 18.5462 52.874C14.9551 65.7324 20.8082 78.8282 25.5202 90.7491C29.8361 101.674 34.8946 111.458 46.7154 115.009C57.5575 118.268 73.474 124.268 84.8258 120.709C100.035 115.941 108.329 99.7699 114.911 86.3425C116.907 82.2666 119.703 76.8983 118.916 72.1797C118.021 66.8077 115.749 61.4891 113.908 56.4006C110.123 45.9277 105.933 29.2055 95.0098 23.6881C83.042 17.6481 63.4059 12.6526 50.8649 19.251ZM51.93 22.7135C52.025 22.6841 52.1136 22.6882 52.2135 22.6428C63.4919 17.2822 80.0796 22.7317 90.9844 26.9032C91.2656 27.0104 91.5211 27.1587 91.7917 27.2813C95.5624 33.304 84.9414 43.1849 81.5612 47.4014C76.5042 53.7137 70.6743 59.6427 63.3979 63.3391C57.9319 66.1162 52.3074 65.6769 46.5489 64.3783C39.3908 62.7658 24.4574 60.0924 24.447 50.9291C27.4518 44.7589 33.1448 39.4881 37.8376 34.9856C42.3187 30.6851 46.8224 26.2719 51.93 22.7135ZM29.3937 87.2154C25.8201 78.2139 21.2288 67.8538 22.3827 57.9889C24.8685 61.1616 29.3789 63.1558 33.937 64.8531C42.4068 68.0133 51.3412 70.6827 60.1993 68.7889C62.804 71.35 64.7196 74.727 66.2743 78.3261C66.6339 79.4213 67.0233 80.471 67.4108 81.4456C67.4764 81.6105 67.5759 81.7337 67.6779 81.856C68.7259 84.6823 69.6329 87.5141 70.5492 90.0726C73.7129 98.8974 76.3436 108.161 80.5154 116.577C70.9202 118.149 58.4583 113.232 49.4484 110.747C37.7292 107.514 33.5883 97.7782 29.3937 87.2154ZM108.816 56.3955C110.528 61.0269 112.152 65.6964 113.55 70.4332C114.871 74.9141 113.105 78.5786 111.272 82.7106C105.86 94.903 97.3778 111.349 83.8659 115.767C80.8757 105.281 76.6133 94.9644 72.8275 84.7304C72.0075 82.5126 71.1256 79.9488 70.0678 77.3876C69.1772 73.1987 68.3622 69.3982 69.5221 64.9078C77.0749 60.1553 83.2076 52.3398 88.339 45.6497C91.7147 41.2526 96.5218 36.0841 96.9927 31.118C103.145 37.679 106.099 49.0552 108.811 56.3916L108.816 56.3955Z" fill="white"/>
<path d="M86.2255 77.419C87.8656 76.2053 88.6887 74.1231 88.5711 72.1258C88.4411 69.8358 86.4167 67.555 84.126 67.3091C81.7879 67.0567 79.5863 68.7577 78.9316 70.9666C78.6003 72.0895 78.649 73.3841 79.0498 74.5332C79.3662 75.6821 79.9875 76.7716 80.6941 77.4116C82.2977 78.8601 84.5704 78.6443 86.2231 77.42L86.2255 77.419Z" fill="white"/>
<path d="M97.2748 64.6071C98.9173 63.3924 99.7379 61.3113 99.6228 59.313C99.4928 57.023 97.4708 54.7412 95.1777 54.4962C92.8371 54.2449 90.6379 55.9448 89.9832 58.1538C89.6481 59.281 89.6997 60.5829 90.1048 61.7359C90.4217 62.879 91.0426 63.9602 91.7482 64.5978C93.3518 66.0463 95.6245 65.8305 97.2748 64.6071Z" fill="white"/>
<path d="M93.0994 85.1586C90.7622 84.9087 88.5596 86.6072 87.9049 88.8161C87.5722 89.9424 87.6194 91.2405 88.0246 92.3934C88.3415 93.5365 88.9609 94.6211 89.6699 95.2601C91.2735 96.7087 93.5462 96.4929 95.1989 95.2685C96.838 94.0524 97.662 91.9727 97.5445 89.9754C97.4145 87.6854 95.3925 85.4036 93.0994 85.1586Z" fill="white"/>
<path d="M103.876 72.1131C101.538 71.8632 99.3358 73.5617 98.682 75.7731C98.3483 76.8969 98.4004 78.193 98.8022 79.3445C99.1176 80.491 99.738 81.578 100.446 82.2146C102.05 83.6632 104.32 83.4483 105.975 82.223C107.614 81.0069 108.438 78.9272 108.323 76.9289C108.191 74.6399 106.171 72.3571 103.878 72.1122L103.876 72.1131Z" fill="white"/>
<path d="M48.7146 81.1791C45.3705 81.2425 43.569 84.3876 43.2926 87.3783C42.3867 91.1303 45.4721 94.8367 49.3441 95.8465C51.4965 96.4086 53.8448 95.9802 55.4 94.3201C57.3675 92.221 56.9411 89.1222 56.2738 86.5967C55.3897 83.2504 52.0457 81.1181 48.7146 81.1791ZM51.0978 89.5308C51.0978 89.5308 51.0741 89.5206 51.0639 89.5162L51.062 89.5114C51.1055 89.5221 51.1114 89.5226 51.1012 89.5323L51.0978 89.5308Z" fill="white"/>
<path d="M39.2773 53.0771C40.8607 53.0765 42.4818 52.0977 43.3673 50.7517C43.3892 50.7289 43.4115 50.7145 43.4333 50.6917C44.2841 49.7666 44.9133 48.1574 44.6431 46.9059C43.7758 42.8959 38.5808 43.4735 36.4274 46.0229C35.5454 47.0671 35.029 48.6847 35.2952 50.039C35.6912 52.08 37.2817 53.0789 39.2773 53.0771Z" fill="white"/>
<path d="M56.875 46.0801C58.4583 46.0794 60.0771 45.1016 60.965 43.7546C60.9868 43.7319 61.0092 43.7174 61.031 43.6947C61.8842 42.7686 62.511 41.1604 62.2408 39.9089C61.3735 35.8989 56.1785 36.4764 54.025 39.0258C53.1431 40.07 52.6291 41.6867 52.8928 43.0419C53.2888 45.0829 54.8793 46.0818 56.8774 46.0791L56.875 46.0801Z" fill="white"/>
<path d="M74.4687 39.0835C76.0521 39.0828 77.6708 38.105 78.5587 36.758C78.5806 36.7353 78.6029 36.7208 78.6248 36.6981C79.4779 35.772 80.1047 34.1638 79.8345 32.9123C78.9672 28.9023 73.7722 29.4798 71.6188 32.0292C70.7368 33.0734 70.2229 34.6901 70.4866 36.0453C70.8826 38.0863 72.4731 39.0852 74.4711 39.0825L74.4687 39.0835Z" fill="white"/>
<path d="M92.2664 18.1731C92.1304 18.1346 92.0946 18.3201 92.1725 18.3958C96.2922 22.4154 101.61 23.9902 105.214 28.8381C108.407 33.1334 110.087 38.5501 111.988 43.4939C112.069 43.7058 112.402 43.6241 112.373 43.3968C110.933 31.5702 103.988 21.5115 92.2664 18.1731Z" fill="white"/>
<path d="M112.539 45.3796C112.699 46.6498 113.095 47.8851 113.302 49.1558C113.355 49.4801 113.769 49.4615 113.852 49.1676C114.22 47.8278 113.672 46.33 112.878 45.2446C112.768 45.0947 112.519 45.194 112.541 45.3786L112.539 45.3796Z" fill="white"/>
<path d="M34.3016 110.56C30.0924 106.697 28.0087 101.682 24.8232 97.1171C24.7377 96.9939 24.536 97.0797 24.5517 97.2251C25.7659 107.142 37.7172 119.602 48.1019 119.358C48.4658 119.348 48.478 118.849 48.1982 118.711C43.1834 116.218 38.5316 114.44 34.3016 110.56Z" fill="white"/>
<path d="M24.1311 95.3697C24.3351 94.407 23.8294 93.3895 23.511 92.4969C23.1689 91.5378 22.6315 90.6593 21.8125 90.0472C21.6935 89.9597 21.4729 90.0475 21.5089 90.2157C21.7172 91.1492 22.0356 92.0559 22.4224 92.9297C22.8048 93.7997 23.0385 94.9029 23.8498 95.4816C23.9601 95.5613 24.1047 95.501 24.1335 95.3688L24.1311 95.3697Z" fill="white"/>
</g>
<defs>
<clipPath id="clip0_2644_25985">
<rect width="103.221" height="107.038" fill="white" transform="translate(0.8125 39.0166) rotate(-21.6844)"/>
</clipPath>
</defs>
</svg>
