<svg width="95" height="69" viewBox="0 0 95 69" fill="none" xmlns="http://www.w3.org/2000/svg">
<g clip-path="url(#clip0_2644_25984)">
<path d="M60.614 10.0887C68.6618 11.3467 76.6622 12.8881 84.7246 14.0699C85.1441 14.1318 85.3964 14.4074 85.5067 14.7506C85.6079 14.9701 85.6378 15.2329 85.5558 15.5312C83.6316 22.4806 81.4454 29.3796 79.0164 36.1619C77.2977 40.9604 75.3671 45.6822 73.1306 50.2578C72.1208 52.3255 71.3214 52.1503 69.2344 52.4776C50.0059 55.497 30.737 58.3585 11.4277 60.8154C10.1076 60.9836 9.86517 59.2755 10.4698 58.4904C19.403 46.8755 28.3344 35.261 37.2658 23.6465C40.9787 18.82 44.7007 14.0002 48.4185 9.17795C49.8834 7.2776 58.3534 9.7337 60.6174 10.0878L60.614 10.0887ZM50.7255 11.1414C51.4275 14.6812 51.2218 19.3655 52.7177 22.5794C52.7438 22.6354 52.7681 22.692 52.7942 22.748C61.4789 19.7366 70.8636 17.5521 79.9063 15.7597C74.2468 14.9282 68.6032 14.0052 62.9599 13.0692C60.8383 12.7178 53.3962 10.6373 50.7233 11.1402L50.7255 11.1414ZM53.8351 25.0193C54.8368 27.199 55.8338 29.3818 56.8342 31.5637C57.8406 33.7608 58.8474 35.9595 59.8532 38.1548C66.3435 31.7736 72.5591 25.095 79.0296 18.695C70.7521 21.1596 62.1706 22.7505 53.8368 25.0188L53.8351 25.0193ZM57.7884 39.9656C56.8631 37.9267 55.9366 35.8901 55.0112 33.8512C53.7968 31.1795 52.584 28.5074 51.37 25.8374C44.6147 31.0304 38.3437 37.0283 31.9448 42.645C26.9802 47.0021 21.7299 51.2409 16.8529 55.7878C30.3623 50.2243 44.7769 46.5288 57.7872 39.9677L57.7884 39.9656ZM77.0553 34.0408C78.8298 29.231 80.4761 24.3684 81.9546 19.4562C75.3859 26.7394 68.4894 34.09 61.065 40.4044C63.3306 43.5864 68.1062 46.6948 71.0833 49.0166C71.5482 47.7236 73.0485 44.115 73.2392 43.6799C74.6353 40.5202 75.8574 37.2809 77.0536 34.0412L77.0553 34.0408ZM66.4644 50.1597C67.0845 50.064 67.7056 49.9718 68.3257 49.8761C67.1465 48.9494 65.9757 48.0131 64.8187 47.0527C63.2994 45.7906 60.3958 43.8738 58.9213 42.01C47.1375 48.3556 33.9435 52.1023 21.3067 56.768C36.3802 54.721 51.4254 52.459 66.4622 50.1584L66.4644 50.1597ZM37.9249 27.157C32.6893 33.9773 27.4537 40.7975 22.2198 47.6174C24.8655 45.3376 27.5338 43.0944 30.1196 40.8251C36.7409 35.0152 43.2651 28.7881 50.4231 23.6356C49.1598 20.3353 49.0957 16.6079 48.7244 13.0594C45.1269 17.7604 41.5294 22.4615 37.9254 27.1587L37.9249 27.157Z" fill="white"/>
<path d="M41.566 13.4576C32.5396 24.4224 24.0069 35.7946 16.4448 47.8434C16.4058 47.9039 16.3126 47.851 16.3489 47.7875C19.7053 41.7748 23.7181 36.1446 27.7593 30.5865C32.0692 24.6579 36.5072 18.7542 41.4632 13.3553C41.527 13.2844 41.6264 13.3876 41.566 13.4576Z" fill="white"/>
<path d="M44.1989 10.5493C43.6764 11.2645 43.1905 12.0682 42.4331 12.5457C42.3858 12.5751 42.3428 12.518 42.3628 12.4755C42.7253 11.6511 43.3335 10.9259 44.1057 10.4555C44.1611 10.4221 44.2405 10.4918 44.1989 10.5493Z" fill="white"/>
<path d="M75.6842 50.9132C78.0134 45.736 80.2347 40.6025 81.9694 35.1839C83.4156 30.6661 84.5242 26.0422 86.0988 21.5642C86.1381 21.4498 86.3084 21.495 86.2796 21.614C83.9131 31.5343 81.3321 42.3152 75.7731 50.9636C75.7366 51.0197 75.6577 50.9723 75.6837 50.9115L75.6842 50.9132Z" fill="white"/>
<path d="M59.0847 56.4169C51.7553 58.2454 44.2101 59.2267 36.7301 60.2183C30.3322 61.0665 23.9138 61.8386 17.4696 62.2392C17.3847 62.2453 17.3897 62.1197 17.4697 62.1094C31.3667 60.3887 45.2751 58.8412 59.0513 56.2923C59.1321 56.2781 59.1658 56.397 59.0847 56.4169Z" fill="white"/>
<path d="M62.4136 8.2177C67.2877 8.61055 72.623 8.89835 77.3308 10.3187C77.3933 10.3391 77.3845 10.4434 77.315 10.4379C72.3904 9.9529 67.2369 9.42351 62.3966 8.34652C62.326 8.3302 62.3406 8.21315 62.414 8.21943L62.4136 8.2177Z" fill="white"/>
<path d="M57.9168 7.70297C58.8724 7.4432 60.1474 7.60623 61.0656 7.97619C61.173 8.01978 61.1672 8.1902 61.0377 8.18779C60.01 8.17184 58.9288 8.0107 57.9159 7.83681C57.8462 7.82395 57.8533 7.71999 57.9168 7.70297Z" fill="white"/>
</g>
<defs>
<clipPath id="clip0_2644_25984">
<rect width="48.6737" height="84.4459" fill="white" transform="matrix(-0.258819 -0.965926 -0.965926 0.258819 94.168 47.0156)"/>
</clipPath>
</defs>
</svg>
