<svg width="155" height="155" viewBox="0 0 155 155" fill="none" xmlns="http://www.w3.org/2000/svg">
<path d="M117.712 51.236C116.534 50.0493 114.617 50.0414 113.43 51.2187C112.244 52.3964 112.236 54.3133 113.413 55.5003L113.432 55.5191C114.021 56.1133 114.793 56.4094 115.567 56.4094C116.338 56.4094 117.111 56.1146 117.704 55.5266C118.891 54.349 118.889 52.423 117.712 51.236Z" fill="white"/>
<path d="M154.114 87.6422L125.996 59.5248C124.814 58.3429 122.897 58.3429 121.715 59.5248C120.533 60.707 120.533 62.6239 121.715 63.8064L144.036 86.1273H90.8078C86.3921 86.1273 82.8002 82.535 82.8002 78.1196V24.8917L104.35 46.4409C105.532 47.6228 107.449 47.6228 108.631 46.4409C109.813 45.2587 109.813 43.3418 108.631 42.1593L81.2853 14.8137C80.1031 13.6318 78.1862 13.6318 77.004 14.8137L28.7421 63.0765C27.5599 64.2587 27.5599 66.1756 28.7421 67.358L101.571 140.186C102.138 140.754 102.908 141.073 103.711 141.073C104.514 141.073 105.284 140.754 105.852 140.186L154.114 91.9237C154.682 91.3558 155.001 90.5859 155.001 89.7831C155 88.9802 154.681 88.2101 154.114 87.6422ZM76.7461 23.635V62.1901H38.191L76.7461 23.635ZM100.684 130.737L38.191 68.2445H76.7461V78.1196C76.7461 85.8736 83.0545 92.182 90.8084 92.182H100.684V130.737ZM106.738 130.737V92.182H145.293L106.738 130.737Z" fill="white"/>
<path d="M20.777 76.894H3.02734C1.35534 76.894 0 78.2497 0 79.9214C0 81.5931 1.35534 82.9487 3.02734 82.9487H20.777C22.449 82.9487 23.8043 81.5934 23.8043 79.9214C23.8043 78.2497 22.449 76.894 20.777 76.894Z" fill="white"/>
<path d="M29.8032 76.894H29.7578C28.0858 76.894 26.7305 78.2497 26.7305 79.9214C26.7305 81.5931 28.0858 82.9487 29.7578 82.9487H29.8032C31.4752 82.9487 32.8306 81.5931 32.8306 79.9214C32.8306 78.2497 31.4752 76.894 29.8032 76.894Z" fill="white"/>
<path d="M12.7197 45.1084H3.03125C1.35925 45.1084 0.00390625 46.464 0.00390625 48.1357C0.00390625 49.8074 1.35925 51.1631 3.03125 51.1631H12.7197C14.3917 51.1631 15.747 49.8074 15.747 48.1357C15.747 46.464 14.3917 45.1084 12.7197 45.1084Z" fill="white"/>
<path d="M34.0612 45.1079H22.6094C20.9374 45.1079 19.582 46.4636 19.582 48.1353C19.582 49.807 20.9374 51.1626 22.6094 51.1626H34.0612C35.7332 51.1626 37.0886 49.807 37.0886 48.1353C37.0886 46.4636 35.7332 45.1079 34.0612 45.1079Z" fill="white"/>
<path d="M40.6481 93.5439H23.6953C22.0233 93.5439 20.668 94.8996 20.668 96.5713C20.668 98.243 22.0233 99.5986 23.6953 99.5986H40.6481C42.3201 99.5986 43.6755 98.243 43.6755 96.5713C43.6755 94.8996 42.3198 93.5439 40.6481 93.5439Z" fill="white"/>
<path d="M53.8884 112.918H11.2031C9.53112 112.918 8.17578 114.274 8.17578 115.946C8.17578 117.617 9.53112 118.973 11.2031 118.973H53.8884C55.5604 118.973 56.9157 117.617 56.9157 115.946C56.9157 114.274 55.5604 112.918 53.8884 112.918Z" fill="white"/>
</svg>
