<svg width="143" height="161" viewBox="0 0 143 161" fill="none" xmlns="http://www.w3.org/2000/svg">
<path d="M1.65073 89.474C1.45565 90.5432 1.68197 91.3209 2.119 91.953C0.919802 92.4707 0.870405 93.7506 1.09673 94.5284C1.24241 94.7391 1.24242 94.7391 1.24242 94.7391L6.09916 100.412L45.4057 147.355C45.4057 147.355 54.2295 156.514 53.9382 156.093C54.5859 156.579 54.8773 157 55.3793 157.276C55.1686 157.422 55.3143 157.633 55.1036 157.778L55.0386 158.135C55.7019 159.544 56.4953 160.242 57.2731 160.015C57.8558 160.858 58.7793 160.842 59.7027 160.827C59.9134 160.681 59.9134 160.681 59.9134 160.681L65.5868 155.824L154.641 81.4853C154.641 81.4853 163.946 72.8723 163.379 72.9529C167.01 69.1966 168.81 66.3949 161.922 70.8459C157.773 73.403 152.23 77.547 152.23 77.547L62.754 152.178L60.3712 154.136C60.5662 153.067 60.7613 151.998 60.7457 151.075C61.396 147.511 61.4792 144.028 61.7731 140.399C62.2126 136.981 62.5065 133.352 62.8004 129.723L64.6443 108.517L64.9382 104.888C64.9382 104.888 65.2215 92.2355 65.1565 92.5919C65.2059 91.312 65.0446 90.1779 65.029 89.2544L66.3088 89.3038L71.3475 88.9343C71.3475 88.9343 74.3937 88.3854 77.4398 87.8364C80.4859 87.2875 83.5321 86.7386 83.1757 86.6736C84.7313 86.221 86.0761 85.914 87.0646 85.542C87.5667 85.8177 88.0687 86.0934 88.6358 86.0128C89.4136 85.7865 90.0457 85.3494 90.4671 85.058C90.6778 84.9123 90.6778 84.9124 90.6778 84.9124C91.0679 82.7741 91.8795 80.3444 92.6911 77.9148L95.4015 70.1239C95.8073 68.9091 96.2781 67.3378 96.6839 66.123L97.0896 64.9082C99.293 64.942 101.14 64.9108 103.343 64.9445L145.739 67.709L149.368 68.0028C149.368 68.0028 162.086 67.9298 161.519 68.0105C166.136 67.9323 169.393 67.2377 163.756 65.8409C163.675 65.2738 163.012 63.8639 161.555 61.7569C158.998 57.6079 154.854 52.0645 154.854 52.0645L117.361 7.29406L113.152 2.10717C113.136 1.18371 112.845 0.76226 112.358 1.40999C111.645 1.27994 111.289 1.21493 110.722 1.29557C111.76 -0.356268 111.047 -0.486354 106.477 2.36216C102.328 4.91932 96.7843 9.06331 96.7843 9.06331L7.94056 83.2568L2.26723 88.1136C1.50507 89.2633 1.65073 89.474 1.65073 89.474ZM150.575 55.3345C150.575 55.3345 159.399 64.4935 159.107 64.0721C160.047 64.9799 160.986 65.8878 161.779 66.5849C161.779 66.5849 161.779 66.5849 161.423 66.5199C156.644 65.4639 149.808 64.5847 149.808 64.5847L145.612 64.3715L103.005 61.7527C101.369 61.6383 99.5218 61.6695 97.8856 61.5551L102.058 47.7707L106.555 32.2044L108.699 24.4941L109.965 19.5698C109.965 19.5698 110.551 16.3624 111.281 13.3656C111.542 11.9401 111.802 10.5146 111.997 9.44543L113.519 11.1961L150.575 55.3345ZM10.4327 87.7622L98.8551 13.8601C98.8551 13.8601 108.16 5.24702 107.593 5.32766C108.014 5.03631 108.29 4.53423 108.711 4.24288C108.646 4.59926 108.792 4.81001 108.581 4.95568C108.727 5.16638 108.727 5.16639 108.727 5.16639L109.957 6.4956C108.189 11.1442 105.949 17.3639 105.949 17.3639L104.747 21.9319L102.539 29.9985L97.9764 45.9212L93.2683 61.6332C92.6024 64.2736 91.7258 67.0596 90.9142 69.4892C90.1027 71.9188 89.0804 74.4941 88.2038 77.2801C87.3923 79.7098 86.5807 82.1395 85.9148 84.7798L86.0605 84.9905C85.3477 84.8604 84.4243 84.8761 82.9337 84.9724C78.1707 84.8398 71.2851 85.2405 71.2851 85.2405L66.6027 85.675L58.5829 86.237L42.5432 87.361C31.8987 88.1806 20.8978 88.9352 10.1882 90.1112C9.05407 90.2725 7.70918 90.5795 6.42933 90.5301L10.4327 87.7622ZM10.9791 94.8585C21.3323 93.6175 31.9768 92.798 42.6213 91.9784L58.661 90.8543L63.6997 90.4849C63.5697 91.1976 63.2289 92.056 63.1795 93.3359C62.1235 98.1145 60.888 104.886 60.888 104.886L60.6747 109.082L58.8308 130.288C58.5369 133.916 58.308 137.189 57.8034 140.963C57.5096 144.592 57.07 148.01 56.6305 151.428C56.581 152.708 56.1753 153.923 56.1259 155.203C53.5687 151.054 49.4247 145.511 49.4247 145.511L9.47041 98.0816L7.51157 95.6988C8.35438 95.1161 9.63421 95.1655 10.9791 94.8585Z" fill="white"/>
</svg>
