<svg width="33" height="23" fill="none" xmlns="http://www.w3.org/2000/svg"><path d="M32.293 4.391a3.828 3.828 0 00-1.052-1.745 4.191 4.191 0 00-1.839-1.02c-2.58-.68-12.92-.68-12.92-.68-4.31-.049-8.62.167-12.903.646-.69.191-1.321.55-1.838 1.044A3.98 3.98 0 00.67 4.39 39.974 39.974 0 000 11.94c-.017 2.53.207 5.056.67 7.549a3.885 3.885 0 001.065 1.744 4.25 4.25 0 001.843 1.02c2.615.68 12.903.68 12.903.68 4.316.049 8.63-.167 12.92-.646a4.193 4.193 0 001.839-1.02 3.82 3.82 0 001.05-1.745 39 39 0 00.69-7.55 36.526 36.526 0 00-.688-7.582v.001zM13.195 16.645v-9.41l8.603 4.706-8.603 4.704z"/></svg>