<svg width="55" height="52" fill="none" xmlns="http://www.w3.org/2000/svg"><g clip-path="url(#clip0_2255_44432)" fill="#DEDEDE"><path d="M5.826 28.063c.912-3.05 5.87-3.668 7.144-.554.738 1.801.243 3.949-1.576 4.937-1.477.801-3.654.558-4.72-.81a4.158 4.158 0 01-.606-1.116c-.359-.75-.496-1.598-.242-2.457zM31.749 4.664c8.35-.409 12.779 6.754 11.802 13.57a13.587 13.587 0 01-1.345 4.838c-2.833 5.718-9.428 7.762-15.094 5.225-5.204-2.335-8.26-7.89-7.557-13.538.79-6.377 6.126-9.799 12.194-10.095z"/></g><defs><clipPath id="clip0_2255_44432"><path fill="#fff" transform="scale(-1 1) rotate(28.496 -18.728 -72.143)" d="M0 0h41.43v36.331H0z"/></clipPath></defs></svg>