<svg width="30" height="27" fill="none" xmlns="http://www.w3.org/2000/svg"><g clip-path="url(#clip0_2255_45623)" fill="#DEDEDE"><path d="M4.792 3.602c3.625 11.04 11.884 17.532 23.347 19.08.863.117.7 1.539-.159 1.517-11.296-.301-22.546-8.773-24.565-20.173-.157-.89 1.08-1.33 1.376-.424h.001z"/><path d="M25.348 20.046c.775.265 1.512.883 2.168 1.364.728.536 1.47 1.095 1.95 1.874.204.33.021.695-.31.831-1.496.62-3.11 1.54-4.767 1.55-.302.003-.398-.373-.164-.542 1.344-.967 3.07-1.487 4.602-2.078l-.31.832c-.833-1.43-2.73-1.948-3.524-3.342-.13-.228.065-.59.354-.49h.001zM5.544 8.373C2.897 7.787 2 6.777 1.95 6.697 1.803 6.46.807 3.827.4 2.787c-.133-.342 1.414-.512 3.46.317C5.318.45 5.655.279 5.98 1.204c.408 1.163.804 2.332 1.232 3.49.328.886-.072 1.898-1.261 3.542-.092.129-.25.173-.408.137h.001zM4.162 10.87c1.008 1.673 1.864 3.313 3.138 4.82 1.33 1.572 2.958 2.69 4.583 3.924.056.041-.011.114-.066.091-3.328-1.397-6.749-5.304-7.75-8.791-.016-.056.063-.094.094-.043zm8.271 9.096c.46.27.953.512 1.396.806.038.026.026.082-.021.087-.513.05-1.19-.364-1.49-.77-.051-.07.043-.165.115-.123zm1.732-4.896c1.234 1.026 2.427 2.028 3.808 2.861 1.354.817 2.821 1.372 4.249 2.035.06.029.02.12-.041.106-2.806-.586-6.377-2.6-8.046-4.977-.013-.019.014-.036.029-.023v-.001z"/></g><defs><clipPath id="clip0_2255_45623"><path fill="#fff" transform="scale(1 -1) rotate(-88.288 -.271 -.6)" d="M0 0h25.523v28.524H0z"/></clipPath></defs></svg>