<svg width="46" height="55" fill="none" xmlns="http://www.w3.org/2000/svg"><g clip-path="url(#clip0_2255_45597)"><path d="M33.692 35.231c1.039-1.681 2.1-1.767 3.18-.261 1.515.387 1.843 1.098.986 2.12-.236 1.192-1.306 2.076-2.162 2.845-1.765 1.568-3.937 2.715-6.173 3.455-5.638 1.86-11.74.848-16.811-2.098-3.325-1.929-7.101-4.983-7.282-9.098-.102-2.277 1.14-4.77 2.352-6.638 2.357-3.636 6-6.352 10.122-7.675 1.7-.548 4.484-1.462 6.263-.835 3.912 1.387 1.102 6.657-.45 8.331-3.49 3.764-8.744 4.33-13.598 4.235-4.16-.085-8.745-1.163-10.957-5.132-1.175-2.104-1.705-4.636-1.342-7.023.325-2.136 1.393-4.098 2.948-5.587.592-.57 2.522-2.458 3.555-2.223 3.189.733-.82 3.888-1.827 4.605-.908.65 1.656 2.71 2.414 2.162 2.061-1.494 4.274-3.367 3.147-6.185-.57-1.43-2.07-2.625-3.576-2.877-6.522-1.1-10.156 7.624-9.031 12.752 1.108 5.075 5.248 9.37 10.226 10.77 5.75 1.622 14.178 1.316 19.005-2.549 3.874-3.104 5.937-10.066.39-12.648-5.02-2.34-12.287.991-16.069 4.246-4.22 3.632-8.087 10.473-4.485 15.738C8.089 40.871 15 44.626 21.113 45.718c5.888 1.031 16.4-.687 18.89-7.253 1.728-4.56-4.763-8.553-7.57-4.127-.246.387.947 1.23 1.259.893z" fill="#CACACA"/></g><defs><clipPath id="clip0_2255_45597"><path fill="#fff" transform="rotate(-142.76 23.244 22.657)" d="M0 0h50.953v29.49H0z"/></clipPath></defs></svg>