<svg width="49" height="50" fill="none" xmlns="http://www.w3.org/2000/svg"><g clip-path="url(#clip0_2255_45630)"><path d="M35.963 12.729c-3.566-.777-6.487 1.143-8.491 3.834-.237-2.994-1.3-6.111-3.765-7.542-4.322-2.51-8.026-.422-10.227 3.659-2.575 4.772-1.569 11.43-.899 16.526.658 4.984 1.474 10.84 4.288 15.131.288.438.787.554 1.226.451.015-.003.03 0 .047-.005 2.158-.61 4.127-2.305 6.053-3.44 2.66-1.566 5.283-3.157 7.771-4.989 4.332-3.19 8.364-7.808 8.858-13.386.316-3.579-.486-9.287-4.86-10.24l-.001.001zm-2.151 18.479c-4.33 4.731-10.575 6.814-15.486 10.704-2.196-6.002-3.152-12.532-3.53-18.861-.244-4.077-.122-9.101 3.375-11.875 5.52-4.38 6.495 7.034 7.052 9.445.168.732 1.036.9 1.604.582.313-.028.623-.181.85-.535 2.019-3.165 7.255-8.89 9.988-2.917 2.139 4.672-.754 10.072-3.854 13.458v-.001z" fill="#DEDEDE"/><path d="M44.742 15.715c.652-.296 1.346-.586 1.513-1.364.124-.58-.227-1.097-.785-1.258-.638-.184-1.189.142-1.739.413a97.61 97.61 0 00-1.515.765c-.445.228-.622.832-.48 1.285.188.605.814.896 1.409.743a9.8 9.8 0 001.597-.584zm-4.026-2.645c.717.26 1.37-.184 1.919-.663.566-.492.914-1.028 1.085-1.762.23-.989-1.03-1.651-1.729-.928-.316.328-.638.655-.96.979-.248.249-.558.43-.782.724-.59.517-.292 1.492.465 1.65h.002zm5.644 3.622c-.599-.393-1.307-.122-1.915.095-.472.167-.955.304-1.431.46-.89.288-.992 1.85.072 1.963a6.281 6.281 0 001.767-.059c.865-.146 1.752-.353 2.029-1.3.138-.47-.145-.909-.523-1.157v-.002zM11.046 9.234c-.36-.322-.74-.62-1.125-.914-.377-.288-.836-.393-1.263-.128-.462.286-.656.963-.333 1.427.295.424.637.82 1.005 1.183.402.395.803.881 1.3 1.156a1.14 1.14 0 001.36-.215c.374-.394.366-.91.137-1.37-.226-.455-.706-.8-1.081-1.136v-.003zm3.548-1.064c.22-.743-.263-1.457-.636-2.067-.337-.549-.754-1.057-1.267-1.444-.375-.284-.827-.39-1.254-.127-.476.295-.626.94-.33 1.415.289.461.56.936.84 1.402.336.565.505 1.157 1.103 1.511.626.372 1.356-.056 1.545-.691v.001zm1.476-3.017c.109.469.161.928.438 1.335.386.57 1.494.722 1.788-.051.224-.586.19-1.03.05-1.635-.112-.48-.252-.954-.358-1.435-.273-1.24-2.137-.825-2.123.362.006.485.098.955.206 1.424z" fill="#B7B4B4"/></g><defs><clipPath id="clip0_2255_45630"><path fill="#fff" transform="rotate(13.11 .879 44.142)" d="M0 0h39.72v41.001H0z"/></clipPath></defs></svg>