<svg xmlns="http://www.w3.org/2000/svg" viewBox="0 0 229.73 225.48"><defs><style>.cls-1{fill:#f4f6fe}</style></defs><g id="Слой_2" data-name="Слой 2"><g id="Слой_1-2" data-name="Слой 1"><path class="cls-1" d="M24.86 136.72A83.72 83.72 0 010 79.1 76.77 76.77 0 0179.1 0l33.65.7a19.64 19.64 0 0119.05 19.07A17.75 17.75 0 01113.53 38l-33.65-.7a41.28 41.28 0 00-42.54 42.58 45.68 45.68 0 0044.36 44.36l67.69 1.41a19.64 19.64 0 0119.05 19A17.75 17.75 0 01150.17 163l-67.69-1.41a83.81 83.81 0 01-57.62-24.87z"/><path class="cls-1" d="M103.52 218.9a19.58 19.58 0 01-5.78-13.35A17.69 17.69 0 01116 187.27l33.74.78a41.27 41.27 0 0042.55-42.56c-.55-24-20.54-44-44.56-44.56l-67.85-1.56a19.77 19.77 0 01-19.14-19.13A17.71 17.71 0 0179 62l67.86 1.56c44.64 1 81.8 38.19 82.83 82.83s-34.46 80.14-79.1 79.11l-33.74-.78a19.56 19.56 0 01-13.33-5.82z"/></g></g></svg>