<svg width="160" height="46" viewBox="0 0 160 46" fill="none" xmlns="http://www.w3.org/2000/svg">
<g clip-path="url(#clip0_436:172)">
<path d="M36.7229 33.864C36.1088 34.9447 35.3842 35.9616 34.5589 36.8974L34.5811 36.9195L33.8147 37.6883C30.403 41.1197 25.8615 43.011 21.0252 43.011C16.2086 43.011 11.6793 41.1344 8.27253 37.7276C4.86576 34.3209 2.98921 29.7916 2.98921 24.975C2.98921 24.6188 2.99904 24.2578 3.02114 23.8991C3.0236 23.85 3.02606 23.8009 3.03097 23.7493V23.7346C3.03343 23.7027 3.03588 23.6683 3.03834 23.6363V23.6191C3.04325 23.5455 3.05062 23.4693 3.05799 23.3956C3.0629 23.3342 3.06781 23.2704 3.07518 23.204C3.08501 23.1082 3.09483 23.01 3.10466 22.9142C3.11202 22.8577 3.11694 22.7939 3.12676 22.7324C3.13659 22.6538 3.14641 22.563 3.15869 22.4745C3.16606 22.4254 3.17343 22.3763 3.1808 22.3272C3.19062 22.2461 3.20536 22.1552 3.2201 22.0668C3.22747 22.0201 3.23729 21.9661 3.24466 21.9145C3.25203 21.8703 3.2594 21.8261 3.26922 21.7819C3.27905 21.7254 3.29133 21.6591 3.30361 21.5952C3.31343 21.5387 3.32572 21.4773 3.338 21.4159C3.35273 21.3447 3.36501 21.2759 3.38221 21.2022C3.48537 20.711 3.61309 20.2173 3.75801 19.7359L3.76292 19.7236C3.78012 19.6597 3.79976 19.5959 3.82187 19.5345C3.83906 19.4804 3.85626 19.4264 3.87345 19.3699C3.97661 19.0555 4.0896 18.7362 4.20995 18.4292C4.22715 18.3874 4.24434 18.3407 4.26153 18.2965C4.28118 18.2499 4.29838 18.2007 4.32048 18.1491C4.34504 18.0902 4.37206 18.0239 4.39908 17.9576C4.41873 17.9084 4.44329 17.8519 4.46786 17.7979L4.47768 17.7733C4.51207 17.6997 4.544 17.6235 4.57838 17.5498C4.60295 17.4933 4.62751 17.4393 4.65453 17.3853C5.10893 16.4028 5.66158 15.4547 6.29282 14.5655L6.39598 14.4255C6.46721 14.3273 6.53844 14.229 6.61213 14.1357C6.64652 14.0915 6.68336 14.0424 6.7202 13.9957C6.7988 13.8925 6.87986 13.7918 6.95846 13.6936C7.00513 13.6371 7.05179 13.5757 7.10092 13.5192C7.14513 13.4651 7.19425 13.4087 7.24338 13.3497C7.29005 13.2932 7.34163 13.2343 7.39075 13.1778C7.44724 13.1139 7.50374 13.0476 7.56023 12.9837L5.44297 10.864C1.93059 14.7276 0 19.7211 0 24.9725C0 30.5899 2.18603 35.8683 6.15773 39.84C10.1294 43.8117 15.4078 45.9977 21.0252 45.9977C26.6598 45.9977 31.9529 43.797 35.9271 39.8031C37.0618 38.6635 38.0615 37.401 38.904 36.0427L36.7229 33.864Z" fill="#1D2A38"/>
<path d="M9.81267 36.1875C12.8068 39.1816 16.7908 40.8322 21.0253 40.8322C21.1579 40.8322 21.2906 40.8297 21.4232 40.8273C21.4895 40.8273 21.5534 40.8248 21.6197 40.8224H21.6295C21.7278 40.8174 21.8236 40.8125 21.9218 40.8076C22.0004 40.8027 22.0765 40.7978 22.1551 40.7929C22.1944 40.7904 22.2288 40.788 22.2608 40.7855L22.3148 40.7806C22.386 40.7757 22.4573 40.7683 22.5309 40.7609C22.5948 40.756 22.6538 40.7511 22.7152 40.7438C22.7594 40.7388 22.7987 40.7339 22.8355 40.7315L22.9166 40.7216C22.9681 40.7143 23.0197 40.7094 23.0738 40.702C23.2703 40.6774 23.4618 40.6504 23.651 40.6185C23.705 40.6087 23.7566 40.5988 23.8082 40.5915L23.8254 40.589C23.8671 40.5816 23.9089 40.5743 23.9482 40.5669L23.9678 40.562C24.0219 40.5522 24.0759 40.5423 24.1299 40.5301C24.2724 40.503 24.4124 40.4736 24.5499 40.4416C24.6433 40.422 24.7366 40.3974 24.83 40.3753L24.8422 40.3729C24.8668 40.368 24.8889 40.363 24.9135 40.3557C24.9822 40.3385 25.0436 40.3213 25.1075 40.3066C25.1615 40.2918 25.2131 40.2795 25.2622 40.2648C25.3065 40.2525 25.3458 40.2427 25.3826 40.2304C25.4194 40.2206 25.4489 40.2132 25.4759 40.2034L25.498 40.196C25.5373 40.1862 25.5766 40.1739 25.6159 40.1616C25.6823 40.142 25.7388 40.1248 25.7952 40.1051C25.8419 40.0904 25.8812 40.0781 25.9254 40.0658C26.0581 40.0216 26.1907 39.9774 26.3209 39.9307C26.3577 39.9185 26.3921 39.9062 26.4265 39.8939L26.4535 39.8841C26.5002 39.8669 26.5419 39.8521 26.5812 39.8374C26.6476 39.8129 26.704 39.7907 26.763 39.7686C26.8121 39.749 26.8563 39.7342 26.8981 39.7171C26.9791 39.6851 27.0528 39.6557 27.1265 39.6237L27.3476 39.5304C27.4163 39.5009 27.4851 39.4714 27.549 39.442C27.5883 39.4248 27.6202 39.41 27.6546 39.3953L27.6865 39.3806C27.7406 39.356 27.7946 39.329 27.8486 39.3044C28.1827 39.1448 28.5118 38.9753 28.8287 38.7935C28.8631 38.7739 28.895 38.7542 28.9294 38.737C29.0031 38.6953 29.0767 38.6511 29.148 38.6093L29.5115 38.3858C29.6712 38.2826 29.8382 38.1746 30.0175 38.0517C30.0666 38.0174 30.1157 37.983 30.1649 37.9486L30.1845 37.9338C30.2213 37.9068 30.2582 37.8823 30.295 37.8552L30.3049 37.8479C30.3319 37.8282 30.3589 37.8086 30.3859 37.7889L30.3957 37.7816C30.4424 37.7496 30.4866 37.7152 30.5308 37.6809C30.5824 37.644 30.6315 37.6047 30.6782 37.5679C30.7126 37.5408 30.7396 37.5187 30.7691 37.4966L30.8035 37.4696C30.8526 37.4303 30.9042 37.391 30.9533 37.3493C31.0049 37.3075 31.0565 37.2658 31.1056 37.2265L31.1179 37.2166C31.2137 37.138 31.307 37.057 31.4028 36.9759C31.4323 36.9514 31.4593 36.9268 31.4888 36.8998L29.369 34.7776C27.0479 36.7573 24.1029 37.8405 21.0326 37.8405C13.9391 37.8405 8.16701 32.0684 8.16701 24.9749C8.16701 21.5165 9.52038 18.2718 11.9741 15.8377C13.1261 14.6956 14.5065 13.7696 15.9974 13.1334L13.7475 10.8835C12.3131 11.6278 11.0039 12.5832 9.85197 13.7278C6.83083 16.7269 5.16797 20.7182 5.16797 24.9724C5.16797 29.2094 6.81854 33.1909 9.81267 36.1875Z" fill="white"/>
<path d="M39.0197 21.0252C39.0197 15.4078 36.8337 10.1294 32.862 6.15773C28.8903 2.18603 23.6094 0 17.9921 0C12.3575 0 7.06437 2.19831 3.09267 6.19457C1.9579 7.3318 0.958219 8.59675 0.113281 9.95504L2.29686 12.1386C2.91091 11.0579 3.63549 10.041 4.46078 9.10519L4.43868 9.08308L5.20502 8.31429C8.61424 4.88296 13.1582 2.99167 17.9945 2.99167C22.8112 2.99167 27.3404 4.86822 30.7472 8.27499C34.154 11.6818 36.0305 16.2086 36.0305 21.0277C36.0305 21.3838 36.0207 21.7473 35.9986 22.1035C35.9961 22.1501 35.9937 22.2017 35.9888 22.2533C35.9863 22.2902 35.9838 22.327 35.9814 22.3638V22.381C35.9765 22.4547 35.9691 22.5309 35.9617 22.6045C35.9568 22.666 35.9519 22.7323 35.9445 22.7986C35.9347 22.8919 35.9249 22.9902 35.9151 23.0884C35.9077 23.1449 35.9028 23.2063 35.893 23.2702C35.8831 23.3488 35.8733 23.4372 35.861 23.5281C35.8537 23.5772 35.8463 23.6263 35.8389 23.673C35.8291 23.7565 35.8144 23.8449 35.7996 23.9358C35.7923 23.9825 35.7824 24.0365 35.7751 24.0881C35.7677 24.1323 35.7603 24.1765 35.7505 24.2207C35.7407 24.2772 35.7284 24.3435 35.7161 24.4074C35.7063 24.4639 35.694 24.5253 35.6793 24.5867C35.667 24.6555 35.6523 24.7267 35.6351 24.8004C35.5319 25.2916 35.4042 25.7878 35.2593 26.2668C35.2396 26.3331 35.22 26.4019 35.1954 26.4706C35.1782 26.5247 35.161 26.5787 35.1438 26.6352C35.0407 26.952 34.9277 27.2689 34.8073 27.5759C34.7901 27.6177 34.7729 27.6619 34.7557 27.7061C34.7361 27.7552 34.7164 27.8044 34.6968 27.8535C34.6722 27.9124 34.6452 27.9787 34.6182 28.0451C34.5985 28.0942 34.574 28.1507 34.5494 28.2047L34.5396 28.2293C34.5052 28.303 34.4733 28.3791 34.4389 28.4528C34.4143 28.5093 34.3898 28.5633 34.3627 28.6174C33.9083 29.5998 33.3557 30.5479 32.7244 31.4371L32.6237 31.5771C32.5501 31.6778 32.4788 31.7736 32.4076 31.8669C32.3732 31.9136 32.3364 31.9603 32.2995 32.0069C32.2209 32.1101 32.1399 32.2108 32.0613 32.3091C32.0146 32.3655 31.9679 32.427 31.9188 32.4834C31.8771 32.535 31.8328 32.5891 31.7862 32.6431L31.7764 32.6529C31.7272 32.7094 31.6781 32.7684 31.6265 32.8249C31.57 32.8887 31.5135 32.955 31.457 33.0189L33.5743 35.1386C37.0891 31.275 39.0197 26.279 39.0197 21.0252Z" fill="white"/>
<path d="M23.0265 32.8692L25.2764 35.1191C26.7109 34.3748 28.02 33.4194 29.172 32.2748C32.1907 29.2757 33.8511 25.2819 33.8511 21.0278C33.8511 16.7932 32.2005 12.8093 29.2064 9.81513C26.2098 6.81855 22.2283 5.16797 17.9913 5.16797C17.8587 5.16797 17.726 5.17042 17.5934 5.17288C17.5271 5.17288 17.4632 5.17534 17.3969 5.17779H17.3895C17.2913 5.18271 17.1955 5.18762 17.0972 5.19253C17.0186 5.19744 16.9425 5.20236 16.8639 5.20727C16.8246 5.20972 16.7902 5.21218 16.7583 5.21464L16.7042 5.21955C16.6355 5.22446 16.5618 5.23183 16.4905 5.2392C16.4267 5.24657 16.3677 5.25148 16.3063 5.25885C16.2621 5.26376 16.2228 5.26867 16.186 5.27113L16.1246 5.2785C16.1172 5.2785 16.1098 5.28095 16.1049 5.28095C16.0533 5.28587 16.0018 5.29324 15.9502 5.3006C15.7537 5.32517 15.5621 5.35464 15.373 5.38412C15.3189 5.39394 15.2674 5.40131 15.2158 5.41113L15.1986 5.41359C15.1568 5.42096 15.1175 5.42833 15.0782 5.4357L15.0512 5.44061C14.9996 5.45043 14.948 5.46026 14.894 5.47008C14.7466 5.4971 14.6066 5.52658 14.4691 5.55851C14.3757 5.57816 14.2824 5.60272 14.1891 5.62482L14.1768 5.62728C14.1522 5.63219 14.1301 5.63711 14.1056 5.64447C14.0368 5.66167 13.9754 5.67886 13.9115 5.6936C13.8575 5.70834 13.8084 5.72062 13.7568 5.73535C13.7126 5.74764 13.6733 5.75746 13.634 5.76974C13.5971 5.77957 13.5676 5.78939 13.5406 5.79676L13.5185 5.80413C13.4792 5.81395 13.4399 5.82623 13.4006 5.83852C13.3343 5.85817 13.2778 5.87536 13.2213 5.89501C13.1747 5.90975 13.1354 5.92203 13.0911 5.93431C12.9585 5.97852 12.8259 6.02273 12.6957 6.0694C12.6588 6.08168 12.6269 6.09396 12.5925 6.10624L12.5631 6.11607C12.5188 6.13326 12.4795 6.14554 12.4402 6.16274C12.3715 6.1873 12.3125 6.2094 12.2536 6.23397C12.2045 6.25362 12.1627 6.27081 12.1185 6.288C12.0374 6.31993 11.9637 6.34941 11.8901 6.38134L11.669 6.47468C11.6002 6.50415 11.5339 6.53363 11.4676 6.5631C11.4307 6.58029 11.3964 6.59503 11.362 6.60977L11.33 6.62451C11.276 6.64907 11.222 6.67609 11.1679 6.70065C10.8339 6.8603 10.5047 7.02978 10.1879 7.21154C10.1511 7.23119 10.1216 7.24838 10.0872 7.26803C10.0184 7.30733 9.94719 7.34909 9.88087 7.38839L9.65244 7.52839C9.60577 7.55787 9.55665 7.5898 9.50753 7.61927C9.34542 7.72243 9.18085 7.83051 9.004 7.95332C8.95733 7.98525 8.91312 8.01718 8.86891 8.04665L8.83944 8.0663C8.79768 8.09578 8.76084 8.1228 8.72399 8.14982L8.70926 8.15964C8.68469 8.17929 8.66013 8.19648 8.63311 8.21613L8.62329 8.2235C8.57662 8.25543 8.53241 8.28982 8.4882 8.32421C8.43662 8.36105 8.38995 8.40035 8.34082 8.43719C8.30644 8.46421 8.27696 8.48632 8.24994 8.50842L8.21556 8.53544C8.16643 8.57474 8.11485 8.61404 8.06573 8.6558C8.00924 8.70001 7.9552 8.74668 7.90116 8.79089C7.80537 8.86949 7.71203 8.94809 7.61624 9.0316C7.58677 9.05616 7.55975 9.08072 7.53027 9.10774L9.65244 11.2299C11.9736 9.2502 14.9186 8.16455 17.9888 8.16455C25.0824 8.16455 30.8545 13.9367 30.8545 21.0302C30.8545 24.4886 29.5011 27.7332 27.0474 30.1673C25.8979 31.3046 24.5175 32.233 23.0265 32.8692Z" fill="#1D2A38"/>
</g>
<g clip-path="url(#clip1_436:172)">
<path d="M57.9194 30.2354L57.3057 32.0896H58.5462L57.9324 30.2354H57.9194Z" fill="white"/>
<path d="M58.8076 19.7498C58.5986 20.6835 58.2004 21.3951 57.6258 21.8848C57.0382 22.3549 56.3266 22.5965 55.4778 22.5965C54.7857 22.5965 54.1459 22.4202 53.5387 22.0741C52.9511 21.7281 52.5137 21.1927 52.2394 20.4811C51.9391 19.7694 51.802 18.9206 51.802 17.9674C51.802 17.2231 51.926 16.4919 52.1676 15.7998C52.4092 15.1012 52.827 14.5462 53.4016 14.1349C53.9892 13.7366 54.7335 13.5277 55.6019 13.5277C56.3657 13.5277 56.986 13.704 57.4887 14.0827C57.9915 14.4483 58.3701 15.0359 58.6313 15.852L58.6639 15.9369L60.4006 15.5386L60.368 15.4342C60.0415 14.3569 59.467 13.5081 58.6509 12.9009C57.8348 12.3133 56.8293 12.0195 55.6345 12.0195C54.5964 12.0195 53.6236 12.248 52.7356 12.7116C51.8738 13.1947 51.1817 13.8868 50.7117 14.7943C50.2416 15.6953 50 16.7661 50 17.9674C50 19.0773 50.2089 20.135 50.6268 21.0883C51.0446 22.0611 51.6649 22.825 52.481 23.3277C53.2775 23.85 54.3352 24.1112 55.6214 24.1112C56.8554 24.1112 57.9131 23.7651 58.7749 23.1057C59.6433 22.4463 60.2309 21.4604 60.5639 20.1938L60.5965 20.0893L58.8467 19.6584L58.8076 19.7498Z" fill="white"/>
<path d="M74.6924 12.7835C73.8044 12.2612 72.799 12 71.7086 12C70.0242 12 68.64 12.555 67.5823 13.6453C66.5246 14.7356 65.9893 16.283 65.9893 18.2025C65.9893 19.2276 66.2178 20.1939 66.6813 21.1144C67.1318 22.035 67.8108 22.7597 68.6922 23.3016C69.5737 23.837 70.5856 24.0982 71.689 24.0982C72.7271 24.0982 73.7 23.8566 74.5814 23.3669C75.4824 22.8968 76.1744 22.1721 76.6772 21.232C77.1603 20.3114 77.4084 19.2406 77.4084 18.0589C77.4084 16.8967 77.1668 15.8586 76.7163 14.938C76.2528 14.0305 75.5738 13.2993 74.6924 12.7835ZM74.503 21.4148C73.7718 22.1917 72.8186 22.5965 71.6956 22.5965C70.5856 22.5965 69.652 22.1982 68.9012 21.4344C68.1699 20.6509 67.7913 19.5801 67.7913 18.2286C67.7913 16.5442 68.1895 15.3167 68.9534 14.6051C69.7173 13.8934 70.6509 13.5278 71.7086 13.5278C72.4725 13.5278 73.145 13.7171 73.7522 14.0827C74.3398 14.4484 74.8099 14.9837 75.1233 15.6627C75.4367 16.3418 75.5934 17.1514 75.5934 18.0719C75.5934 19.5083 75.2277 20.6378 74.503 21.4148Z" fill="white"/>
<path d="M92.5687 12.5027L89.7743 20.4615C89.5458 21.1013 89.376 21.604 89.252 22.0023L88.7819 20.6182L85.994 12.3982H85.8047V16.6485L88.3902 24.1046H89.931L92.5687 16.6616V12.5027Z" fill="white"/>
<path d="M85.178 12.3982H83.4805V24.1046H85.178V12.3982Z" fill="white"/>
<path d="M94.8739 12.3982H93.1895V24.1046H94.8739V12.3982Z" fill="white"/>
<path d="M102.695 12.3982H100.945V24.1046H102.695V12.3982Z" fill="white"/>
<path d="M109.734 14.2198C109.473 13.7366 109.159 13.3384 108.748 13.0772C108.35 12.7965 107.847 12.6071 107.272 12.5222C106.854 12.4374 106.247 12.3982 105.47 12.3982H103.322V13.9586H105.594C106.286 13.9586 106.757 13.9913 107.018 14.0631C107.396 14.1675 107.71 14.3765 107.938 14.7029C108.18 15.0294 108.284 15.4146 108.284 15.8847C108.284 16.5114 108.095 16.9946 107.697 17.3406C107.298 17.6867 106.606 17.8629 105.634 17.8629H103.329V19.4429H105.62C107.285 19.4429 108.48 19.0773 109.12 18.3853C109.779 17.6932 110.106 16.8444 110.106 15.839C110.099 15.2448 109.975 14.7029 109.734 14.2198Z" fill="white"/>
<path d="M120.741 12.3983L116.164 24.1047H118.018L118.541 22.7337H118.521L119.84 19.1819L120.121 18.4507L121.093 15.8652H121.113C121.322 15.2906 121.492 14.703 121.635 14.1285C121.812 14.6834 122.053 15.3625 122.347 16.1198L123.529 19.1688H120.532L119.997 20.6052H124.09L125.461 24.0917H127.453L122.562 12.3853H120.741V12.3983Z" fill="white"/>
<path d="M134.968 12.3982H133.336V24.1046H134.968V12.3982Z" fill="white"/>
<path d="M141.066 21.1927L141.033 21.1405V24.1046H142.763V12.3982H141.066V21.1927Z" fill="white"/>
<path d="M135.588 16.1458L140.406 23.2167V20.2199L135.588 13.1621V16.1458Z" fill="white"/>
<path d="M157.918 12.3982L155.613 15.8324C155.162 16.5114 154.764 17.1513 154.418 17.7062V17.6867L153.445 19.1622V24.1046H155.215V19.1622L159.981 12.3982H157.918Z" fill="white"/>
<path d="M154.053 17.0795L153.328 15.9173L150.984 12.3982H148.836L153.067 18.6072L154.053 17.0795Z" fill="white"/>
<path d="M50 29.9415H51.1622V33.6108H51.8085V29.9415H52.9707V29.3669H50V29.9415Z" fill="white"/>
<path d="M57.658 29.3669L56.1172 33.6108H56.7962L57.1226 32.6641H58.7353L59.0618 33.6108H59.7408L58.1999 29.3669H57.658ZM57.3055 32.0895L57.9192 30.2353H57.9322L58.546 32.0895H57.3055Z" fill="white"/>
<path d="M65.0366 31.8806H65.8984V32.1026C65.8919 32.3703 65.8135 32.5858 65.6503 32.749C65.4871 32.9188 65.2781 33.0036 65.03 33.0036C64.8799 33.0036 64.7493 32.971 64.6383 32.9057C64.5273 32.8535 64.4359 32.7816 64.3706 32.6902C64.2857 32.5988 64.2335 32.4813 64.2074 32.3311C64.1747 32.181 64.1617 31.9002 64.1617 31.4824C64.1617 31.0645 64.1747 30.7838 64.2074 30.6271C64.2335 30.4834 64.2923 30.3659 64.3706 30.2745C64.4359 30.1896 64.5273 30.1113 64.6383 30.0591C64.7493 30.0003 64.8799 29.9742 65.03 29.9677C65.2324 29.9742 65.4087 30.0329 65.5524 30.1439C65.6895 30.2615 65.7874 30.4116 65.8396 30.5814H66.5186C66.4534 30.2288 66.2901 29.9285 66.029 29.6869C65.7678 29.4453 65.4348 29.3278 65.03 29.3213C64.6971 29.3278 64.4163 29.4062 64.1943 29.5629C63.9658 29.713 63.8026 29.8893 63.6981 30.0852C63.6328 30.1896 63.5871 30.3202 63.5545 30.49C63.5284 30.6597 63.5088 30.9862 63.5088 31.4824C63.5088 31.9655 63.5218 32.2985 63.5545 32.4683C63.5675 32.5597 63.5871 32.638 63.6133 32.6968C63.6394 32.7555 63.6655 32.8143 63.6981 32.8796C63.8026 33.0754 63.9658 33.2452 64.1943 33.3954C64.4163 33.5521 64.6971 33.6304 65.03 33.6369C65.461 33.6304 65.82 33.4802 66.1073 33.1995C66.3881 32.9122 66.5382 32.5597 66.5448 32.1287V31.2669H65.0366V31.8806Z" fill="white"/>
<path d="M71.5129 29.3669H70.873V33.6108H73.5826V33.0036H71.5129V29.3669Z" fill="white"/>
<path d="M78.4074 29.3669H77.7676V33.6108H78.4074V29.3669Z" fill="white"/>
<path d="M85.4131 32.3833H85.4066L83.4805 29.3669H82.8799V33.6108H83.5197V30.5944H83.5328L85.4523 33.6108H86.0595V29.3669H85.4131V32.3833Z" fill="white"/>
<path d="M90.5322 33.6108H93.2417V33.0036H91.1786V31.7565H92.9414V31.1885H91.1786V29.9741H93.2417V29.3669H90.5322V33.6108Z" fill="white"/>
<path d="M103.805 31.8806H104.667V32.1026C104.66 32.3703 104.582 32.5858 104.419 32.749C104.256 32.9188 104.047 33.0036 103.799 33.0036C103.648 33.0036 103.518 32.971 103.407 32.9057C103.296 32.8535 103.204 32.7816 103.139 32.6902C103.054 32.5988 103.002 32.4813 102.976 32.3311C102.943 32.181 102.93 31.9002 102.93 31.4824C102.93 31.0645 102.943 30.7838 102.976 30.6271C103.002 30.4834 103.061 30.3659 103.139 30.2745C103.204 30.1896 103.296 30.1113 103.407 30.0591C103.518 30.0003 103.648 29.9742 103.799 29.9677C104.008 29.9742 104.177 30.0329 104.321 30.1439C104.458 30.2615 104.556 30.4116 104.608 30.5814H105.287C105.222 30.2288 105.059 29.9285 104.798 29.6869C104.543 29.4453 104.203 29.3278 103.799 29.3213C103.466 29.3278 103.185 29.4062 102.963 29.5629C102.734 29.713 102.571 29.8893 102.467 30.0852C102.401 30.1896 102.356 30.3202 102.323 30.49C102.297 30.6597 102.277 30.9862 102.277 31.4824C102.277 31.9655 102.29 32.2985 102.323 32.4683C102.336 32.5597 102.356 32.638 102.382 32.6968C102.408 32.7555 102.434 32.8143 102.467 32.8796C102.571 33.0754 102.734 33.2452 102.963 33.3954C103.185 33.5521 103.466 33.6304 103.799 33.6369C104.23 33.6304 104.589 33.4802 104.876 33.1995C105.157 32.9122 105.307 32.5597 105.313 32.1287V31.2669H103.805V31.8806Z" fill="white"/>
<path d="M112.339 30.0918C112.241 29.8959 112.078 29.7196 111.856 29.5695C111.627 29.4128 111.346 29.3344 111.013 29.3279C110.68 29.3344 110.4 29.4128 110.178 29.5695C109.949 29.7196 109.786 29.8959 109.682 30.0918C109.616 30.1962 109.571 30.3268 109.538 30.4966C109.512 30.6663 109.492 30.9928 109.492 31.489C109.492 31.9721 109.505 32.3051 109.538 32.4748C109.551 32.5662 109.571 32.6446 109.597 32.7034C109.623 32.7621 109.649 32.8209 109.682 32.8862C109.786 33.082 109.949 33.2518 110.178 33.402C110.4 33.5586 110.68 33.637 111.013 33.6435C111.353 33.637 111.634 33.5521 111.856 33.402C112.078 33.2518 112.241 33.082 112.339 32.8862C112.411 32.7817 112.463 32.6446 112.489 32.4748C112.515 32.3051 112.528 31.9786 112.528 31.489C112.528 30.9993 112.515 30.6663 112.489 30.4966C112.463 30.3333 112.411 30.1962 112.339 30.0918ZM111.836 32.3377C111.803 32.4879 111.745 32.6054 111.666 32.6968C111.601 32.7817 111.516 32.8535 111.412 32.9123C111.301 32.9776 111.164 33.0102 111.013 33.0102C110.863 33.0102 110.733 32.9776 110.622 32.9123C110.511 32.8601 110.419 32.7882 110.354 32.6968C110.269 32.6054 110.217 32.4879 110.191 32.3377C110.158 32.1876 110.145 31.9068 110.145 31.489C110.145 31.0711 110.158 30.7904 110.191 30.6337C110.217 30.49 110.276 30.3725 110.354 30.2811C110.419 30.1962 110.511 30.1179 110.622 30.0657C110.733 30.0069 110.863 29.9808 111.013 29.9742C111.164 29.9808 111.301 30.0069 111.412 30.0657C111.516 30.1244 111.601 30.1962 111.666 30.2811C111.751 30.3725 111.81 30.49 111.836 30.6337C111.862 30.7838 111.882 31.0711 111.882 31.489C111.882 31.9068 111.869 32.1876 111.836 32.3377Z" fill="white"/>
<path d="M116.85 33.6108H119.559V33.0036H117.496V31.7565H119.259V31.1885H117.496V29.9741H119.559V29.3669H116.85V33.6108Z" fill="white"/>
<path d="M125.325 31.1887C125.122 31.1626 124.965 31.143 124.848 31.1234C124.639 31.0842 124.489 31.0124 124.391 30.9145C124.293 30.8165 124.247 30.7056 124.247 30.5815C124.254 30.3791 124.319 30.2224 124.463 30.1245C124.593 30.0265 124.763 29.9743 124.959 29.9743C125.344 29.9808 125.69 30.0918 126.01 30.3008L126.369 29.7719C125.977 29.4912 125.52 29.341 124.992 29.3345C124.554 29.341 124.215 29.452 123.973 29.6805C123.725 29.909 123.601 30.2094 123.601 30.575C123.601 30.8818 123.699 31.143 123.895 31.3585C124.084 31.5674 124.365 31.7045 124.73 31.7632C124.933 31.7894 125.122 31.8155 125.292 31.8416C125.664 31.9069 125.847 32.0962 125.847 32.4096C125.84 32.7948 125.56 32.9907 125.011 32.9972C124.548 32.9907 124.143 32.8536 123.803 32.5728L123.379 33.056C123.829 33.4412 124.371 33.6371 124.998 33.6371C125.971 33.624 126.467 33.2127 126.487 32.4031C126.487 32.1028 126.395 31.8416 126.206 31.6131C126.017 31.3911 125.723 31.2475 125.325 31.1887Z" fill="white"/>
<path d="M138.069 31.1885H136.391V29.3669H135.745V33.6108H136.391V31.7565H138.069V33.6108H138.716V29.3669H138.069V31.1885Z" fill="white"/>
<path d="M143.188 33.6108H145.897V33.0036H143.827V31.7565H145.59V31.1885H143.827V29.9741H145.897V29.3669H143.188V33.6108Z" fill="white"/>
<path d="M153.021 30.5489C153.008 30.1571 152.871 29.8568 152.596 29.6413C152.374 29.452 152.087 29.3606 151.735 29.3606H150.076V33.6044H150.723V31.7894H151.545L152.42 33.6044H153.184L152.198 31.7241C152.74 31.5217 153.014 31.1299 153.021 30.5489ZM150.723 31.2279V29.9417H151.728C151.93 29.9417 152.094 29.9874 152.198 30.0723C152.335 30.1702 152.407 30.3334 152.414 30.5554C152.414 30.7382 152.355 30.8949 152.237 31.019C152.12 31.1561 151.937 31.2279 151.695 31.2279H150.723Z" fill="white"/>
<path d="M157.29 33.6108H160V33.0036H157.93V31.7565H159.693V31.1885H157.93V29.9741H160V29.3669H157.29V33.6108Z" fill="white"/>
</g>
<defs>
<clipPath id="clip0_436:172">
<rect width="39.0194" height="46" fill="white"/>
</clipPath>
<clipPath id="clip1_436:172">
<rect width="110" height="21.6435" fill="white" transform="translate(50 12)"/>
</clipPath>
</defs>
</svg>
