<svg width="24" height="24" fill="none" xmlns="http://www.w3.org/2000/svg"><path d="M17.75 11a1.25 1.25 0 100 2.5 1.25 1.25 0 000-2.5z" fill="#031C77"/><path fill-rule="evenodd" clip-rule="evenodd" d="M4.173 8.115l2.077-.23V3.912c0-.643.49-1.18 1.13-1.24a50.256 50.256 0 019.24 0c.64.06 1.13.597 1.13 1.24v3.971l2.077.231a1.842 1.842 0 011.584 1.387 14.4 14.4 0 010 6.94l-.183.739a.75.75 0 01-.728.569h-2.75v2.333a1.21 1.21 0 01-1.09 1.205c-3.099.31-6.22.31-9.32 0a1.21 1.21 0 01-1.09-1.205V17.75H3.5a.75.75 0 01-.728-.57l-.183-.738a14.4 14.4 0 010-6.94 1.842 1.842 0 011.584-1.387zM16.25 7.74a52.004 52.004 0 00-8.5 0V4.146a48.756 48.756 0 018.5 0V7.74zm0 8.762a.37.37 0 00-.247-.345 45.332 45.332 0 00-8.006 0 .37.37 0 00-.247.349v3.314a45.2 45.2 0 008.5 0v-3.318zm3.664-.252H17.75v-.333a1.21 1.21 0 00-1.09-1.205 46.14 46.14 0 00-.407-.039 1.887 1.887 0 00-.173-.026 38.091 38.091 0 00-8.16 0 1.887 1.887 0 00-.173.026l-.407.04a1.21 1.21 0 00-1.09 1.204v.333H4.087l-.042-.169a12.9 12.9 0 010-6.217.342.342 0 01.294-.258l2.082-.231a50.502 50.502 0 0111.158 0l2.082.231c.143.016.26.119.294.258a12.9 12.9 0 010 6.217l-.041.169z" fill="#031C77"/></svg>