<svg width="86" height="101" fill="none" xmlns="http://www.w3.org/2000/svg"><g clip-path="url(#clip0_2680_28476)"><path d="M57.891 45.38a77.449 77.449 0 00-.097-1.453c-.137-1.745-1.409-2.696-2.741-2.837-5.522-5.694-13.236-5.26-20.59-1.474-9.797 5.048-12.477 17.8-8.566 27.324 3.85 9.38 14.746 11.596 22.991 6.8 3.359-1.954 5.536-5.206 6.927-8.982 1.96 4.184 4.778 7.693 8.768 9.503 11.319 5.138 16.469-15.928 17.563-22.666C86.928 22.184 58.336-1.53 30.606 9.6 9.145 18.215.232 45.672 6.36 66.64c7.053 24.134 42.933 37.351 62.327 19.588 2.116-1.94-.683-5.636-3.08-3.996-16.78 11.462-41.735 5.221-51.41-12.387-7.887-14.348-3.308-33.737 6.71-45.734C34.532 7.79 60.535 9.81 71.864 27.645c7.01 11.039 5.392 25.456.105 36.723-6.57 14.005-13.207-11.252-14.07-18.985l-.008-.004zM33.528 67.817C21.076 57.38 40.213 33.896 51.864 45.304c.007.657.029 1.333.065 2.027-.231 10.991-4.424 32.209-18.397 20.487h-.004z" fill="#fff"/><path d="M85.068 28.231c-.397-.903-.766-1.796-1.235-2.663-.116-.217-.401-.058-.365.152.159.993.491 1.893.863 2.822.34.852.6 1.926 1.39 2.453.123.08.268-.029.275-.159.061-.918-.567-1.792-.928-2.605zM50.07 98.695c-15.006 1.561-27.213-2.107-38.698-11.906-.072-.062-.188.014-.137.105 6.056 10.771 27.895 17.64 38.943 12.206.187-.09.104-.427-.109-.405zm8.499-4.286c-2.218.961-4.471 2.085-6.389 3.566-.061.047-.054.174.043.163 2.557-.264 5.017-1.305 6.62-3.371.16-.21-.032-.46-.274-.358zm6.487-88.541c7.526 3.855 12.21 10.45 16.736 17.33.133.202.505.075.411-.178C76.493 7.628 58.505-2.486 42.283.535c-.178.036-.113.274.039.289 8.04.932 15.363 1.272 22.734 5.044zm-51.624 7.675C4.541 17.675-1.602 34.228.37 43.38c.047.214.34.145.357-.047 1.17-11.74 5.28-20.697 12.785-29.68.05-.061-.011-.144-.083-.111h.003zM84.36 61.766c-1.68 2.2-2.424 4.983-3.59 7.462-1.283 2.735-3.056 4.867-4.97 7.169a.158.158 0 00.191.245c4.862-2.308 8.336-9.618 8.726-14.782.014-.21-.253-.23-.358-.094z" fill="#2D2D2D"/></g><defs><clipPath id="clip0_2680_28476"><path fill="#fff" d="M0 0h86v101H0z"/></clipPath></defs></svg>