<svg width="73" height="70" fill="none" xmlns="http://www.w3.org/2000/svg"><g clip-path="url(#clip0_2680_28286)" fill="#fff"><path d="M48.022 8.658c1.84 23.582-8.592 42.253-28.917 54.145-1.53.895-.109 3.438 1.488 2.724C41.58 56.111 56.08 31.377 50.94 8.377c-.401-1.797-3.07-1.653-2.917.28l-.002.001z"/><path d="M22.283 55.662c-1.248 1.105-2.15 2.844-3.004 4.262-.948 1.577-1.904 3.208-2.197 5.05-.123.778.505 1.32 1.233 1.318 3.297-.01 7.05.454 10.173-.823.569-.232.455-1.014-.116-1.148-3.285-.764-6.934-.388-10.276-.297l1.233 1.319c.445-3.34 3.603-5.799 4.004-9.04.066-.53-.584-1.058-1.05-.644v.003zm28.062-37.45c4.515-3.174 5.412-5.776 5.441-5.964.09-.564-.102-6.289-.153-8.562-.017-.747-3.057.147-6.253 3.307-4.815-3.846-5.583-3.902-5.471-1.91.145 2.506.318 5.013.42 7.523.078 1.924 1.624 3.51 5.146 5.668.274.169.603.129.872-.063l-.002.001zm4.556 3.608c-.585 3.933-.907 7.684-2.122 11.513-1.268 3.997-3.45 7.373-5.537 10.964-.072.121.111.207.196.12 5.157-5.233 8.524-15.254 7.672-22.591-.013-.118-.19-.126-.209-.006zm-8.418 23.572c-.653.868-1.388 1.709-1.99 2.609-.051.079.015.174.108.146 1.002-.31 1.949-1.615 2.195-2.613.042-.174-.21-.277-.313-.142zm-7.087-7.84c-1.516 2.895-2.972 5.71-4.915 8.359-1.904 2.595-4.225 4.788-6.388 7.152-.092.101.055.24.16.168 4.812-3.3 9.943-9.883 11.218-15.656.01-.046-.054-.059-.072-.022l-.003-.001z"/></g><defs><clipPath id="clip0_2680_28286"><path fill="#fff" transform="rotate(69.075 27.12 39.403)" d="M0 0h51.958v58.068H0z"/></clipPath></defs></svg>