<svg width="128" height="123" fill="none" xmlns="http://www.w3.org/2000/svg"><g clip-path="url(#clip0_2680_27843)"><path fill-rule="evenodd" clip-rule="evenodd" d="M121.079 40.897l-10.754 4.187s-4.764 1.739-4.121 6.59c.643 4.85 6.301 8.545 6.301 8.545l10.824.594-5.647-9.964 5.257-8.934-1.848-1.03-.012.012zM26.457 14.254S6.727 24.378 3.376 43.505C.024 62.633 2.136 78.991 6.429 87.583c4.292 8.59 13.234 21.289 31.896 23.337 18.663 2.047 31.92-6.429 36.442-18.052 4.523-11.623 9.297-26.277 5.613-39.81-3.684-13.534-6.118-26.38-25.492-38.644-9.182-5.811-28.442-.16-28.442-.16h.011z" fill="#fff"/><path fill-rule="evenodd" clip-rule="evenodd" d="M82.605 55.7c2.847-.584 5.613-1.133 8.38-1.74 4.326-.949 8.642-1.944 12.969-2.882.815-.183 1.354-.412 1.389-1.373.092-2.928 1.79-4.473 4.442-5.434 4.476-1.636 8.872-3.489 13.337-5.17.539-.206 1.274.091 1.917.16-.092.675.034 1.51-.31 2.013-1.642 2.368-3.489 4.599-5.085 7.001-.47.71-.654 1.9-.425 2.712.942 3.34 2.629 6.291 5.143 8.774.367.366.585 1.2.424 1.67-.115.343-.975.663-1.48.63-3.834-.23-7.668-.493-11.478-.893-.723-.08-1.584-.664-2.043-1.27-1.355-1.773-2.537-3.672-3.903-5.697-7.449 1.544-15.07 3.135-22.852 4.759 0 .446-.011.927 0 1.407.276 9.22-.826 18.258-4.178 26.895-3.638 9.358-9.331 17.102-18.364 21.976-13.36 7.207-30.118 5.319-41.94-4.668-8.826-7.458-13.957-17.16-16.62-28.164-4.637-19.14-.86-36.7 10.79-52.577 2.72-3.718 5.98-6.944 9.882-9.473 2.697-1.75 5.555-2.951 8.883-3.146 3.214-.194 6.382-1.098 9.596-1.292 6.588-.39 12.304 2.254 17.492 5.949 12.993 9.254 20.706 21.895 23.621 37.487.07.39.172.778.241 1.167.058.332.104.675.184 1.167l-.012.012zm-2.846.629v-.892a5.254 5.254 0 00-.08-.744C77.693 42.75 72.344 32.5 63.862 23.897c-4.82-4.885-10.341-8.751-17.067-10.604-1.653-.447-3.375-1.053-5.085-.138-2.755 1.476-5.647 2.757-8.23 4.496-7.276 4.908-12.085 11.897-15.953 19.596-3.662 7.299-5.395 15.032-4.879 23.189.425 6.623 2.124 12.995 4.224 19.264 4.959 14.769 14.508 24.641 29.969 28.611 5.165 1.327 9.55.675 13.98-2.219 7.311-4.782 12.12-11.406 15.322-19.345 2.71-6.715 3.788-13.762 4.178-20.935.115-2.059.012-4.13.012-6.371-3.524.64-6.715 1.223-9.573 1.75-.528 4.507-.998 8.694-1.503 12.88-.941 7.7-4.591 14.026-10.181 19.254-6.439 6.017-18.938 8.511-27.202.492-3.053-2.963-5.269-6.475-6.921-10.365-3.558-8.373-4.523-17.17-3.857-26.162.436-5.834 2.02-11.394 4.81-16.622 3.282-6.155 8.344-10.33 14.897-12.08 5.808-1.545 11.386.274 16.092 4.026 5.154 4.119 8.517 9.598 10.824 15.673 1.205 3.169 1.917 6.52 2.87 9.85 2.903-.584 5.968-1.19 9.17-1.831v.023zM50.915 70.377c-.23 1.235-.103 2.528-.677 3.294-2.525 3.375-8.757 5.411-12.017-.446-.907-1.624-1.366-3.626-1.572-5.502-.54-5 .952-9.644 3.236-14.014 1.194-2.276 3.088-3.947 5.934-3.867 2.79.08 4.42 1.83 5.555 4.142.39.789.609 1.67.896 2.482 2.33-.412 4.602-.858 6.898-1.201.413-.057.895.24 1.331.377-.16.424-.24.927-.516 1.27-.941 1.19-1.951 2.334-3.191 3.787 3.627-.664 6.84-1.258 10.077-1.853-.022-.584 0-.973-.068-1.362-1.102-7.15-4.087-13.453-8.655-19.047-2.984-3.66-6.703-6.051-11.443-6.704-2.158-.297-4.247-.766-6.347.584C29.98 38.963 25.194 48.756 24.39 60.653c-.574 8.385 2.238 16.142 5.268 23.783 1.481 3.752 4.569 6.212 7.518 8.706 1.09.927 2.514 1.819 3.88 1.979 2.433.286 5.016.389 7.392-.103 8.47-1.75 13.096-7.928 15.93-15.352 1.539-4.05 1.78-8.614 2.503-12.961.264-1.579.195-3.215.287-4.954-3.053.435-5.842.824-8.907 1.259.758 1.807 1.435 3.386 2.066 4.976.402 1.007 1.045 2.254.023 3.031-.7.527-1.951.561-2.904.447-2.215-.263-4.396-.744-6.508-1.11l-.023.023zm-.126-7.95c.011-.172.035-.344.046-.516 1.09-.24 2.192-.446 3.271-.732.689-.183 1.573-.297 1.986-.766.895-1.041 1.538-2.288 2.295-3.444-.057-.148-.114-.285-.172-.434-2.192.755-4.35 1.704-6.6 2.208-2.995.675-5.486 2.23-7.92 3.912-.447.309-.975 1.018-.906 1.453.16.984-.103 2.334 1.366 2.677 4.81 1.132 9.618 2.242 14.83 3.455-1.034-2.666-1.849-4.782-2.721-7.024-1.641-.172-3.753.72-5.452-.801l-.023.011zm70.278-2.632c-1.411-2.734-2.766-5.354-4.189-8.11a3553.77 3553.77 0 01-9.641 2.173c1.308 1.613 2.422 3.089 3.65 4.45.424.469 1.124.88 1.733.938 2.823.252 5.67.377 8.447.55zm-14.163-9.472c3.26-.698 6.45-1.384 9.641-2.082.23-.046.517-.137.654-.309 1.527-1.956 3.019-3.935 4.534-5.914-.482-.138-.757-.069-1.021.045-3.444 1.408-6.841 2.895-10.319 4.187-1.951.721-3.214 1.842-3.489 4.073zm-93.521-9.014c-2.858 2.367-5.613 4.655-8.379 6.92-1.813 1.488-2.858 4.508-2.479 6.292 2.158-1.956 4.476-4.198 6.956-6.269 2.157-1.807 3.42-4.026 3.902-6.944zM2.146 63.959c2.64-3.123 4.936-6.04 7.438-8.774 1.515-1.647 1.17-3.57 1.423-5.445-2.95 2.882-5.762 5.834-8.55 8.797-.184.194-.3.526-.3.79-.034 1.418-.01 2.836-.01 4.632zm9.125 3.112c-1.848 3.432-3.49 6.84-5.475 10.021-1.205 1.933-.528 3.363.322 5.08 1.607-3.055 2.984-6.098 4.729-8.9 1.296-2.083 1.388-4.016.424-6.201zm-.115-3.65c-.206-.057-.401-.125-.608-.183-2.284 2.986-4.58 5.972-6.852 8.97-.195.25-.367.651-.31.937.31 1.487.7 2.952 1.148 4.736.401-.789.654-1.247.883-1.716 1.653-3.317 3.329-6.623 4.924-9.975.414-.858.54-1.842.804-2.768h.011zm10.342-36.95c-3.949 2.036-7.53 3.947-11.18 5.743-2.031 1.007-2.157 3.008-2.938 4.69 3.34-1.887 6.508-3.97 9.802-5.8 1.883-1.04 3.18-2.448 4.327-4.644l-.011.011zm-3.696 61.1c-1.699 2.608-3.283 5.045-4.935 7.573.585.732 1.182 1.487 1.824 2.3 1.894-2.049 3.662-3.959 5.395-5.847-.78-1.372-1.48-2.62-2.284-4.026zm.126-55.06c-.114-.114-.23-.217-.344-.331-.379.194-.758.377-1.125.594-2.663 1.545-5.234 3.284-8 4.6-2.353 1.12-2.72 3.122-3.386 5.399 3.616-2.54 7.082-4.874 10.422-7.356.987-.732 1.641-1.922 2.445-2.906h-.012zm-3.592-7.493c6.565-3.523 13.13-7.047 19.696-10.559-.85-.114-1.642-.034-2.342.286-4.304 1.922-8.54 4.016-12.9 5.812-2.205.915-3.306 2.677-4.454 4.473v-.012zm-4.58 65.024c1.377-2.837 2.628-5.72 4.155-8.466.815-1.464.826-2.7-.046-4.175-1.515 3.111-2.927 6.212-4.534 9.197-.734 1.373-.642 2.391.425 3.444zm2.973-16.725c-.115.103-.264.171-.31.297-1.572 3.524-3.076 7.081-4.729 10.57-.55 1.156-.16 1.911.482 2.906 1.515-3.317 2.881-6.532 4.465-9.643.735-1.442.907-2.712.103-4.13h-.011zM10.824 60.4c-.173-.08-.345-.16-.505-.24-2.032 2.29-3.972 4.67-6.119 6.842-1.423 1.442-1.86 2.849-.895 4.713 2.203-3.02 4.419-5.994 6.553-9.026.471-.663.655-1.521.964-2.288zm-.655-29.892c.104.115.195.23.299.332.39-.183.78-.355 1.159-.56 3.592-1.9 7.22-3.741 10.755-5.732 1.17-.652 2.123-1.693 3.167-2.55l-.275-.31c-4.304 2.242-8.62 4.45-12.89 6.773-.86.469-1.492 1.361-2.238 2.047h.023zm10.422 72.734c.402-.846.712-1.521 1.033-2.173.344-.71.7-1.419 1.056-2.117.811-1.601.578-3.104-.7-4.507a5059.29 5059.29 0 00-3.306 7.15c.609.526 1.194 1.029 1.917 1.647zm-5.303-4.862c.896.824 1.722 1.59 2.526 2.334 1.044-2.265 2.088-4.45 3.041-6.67.195-.445.023-1.052.023-1.99-2.032 2.288-3.707 4.187-5.601 6.326h.011zm-.287-60.55a2.658 2.658 0 00-.218-.16c-3.489 2.894-6.99 5.754-10.433 8.694-.448.389-.574 1.155-.86 1.739 3.775-2.849 7.288-5.846 10.765-8.878.368-.331.505-.926.746-1.395zm9.584 59.544c-1.193 2.23-2.272 4.267-3.374 6.337l1.699 1.201c1.044-2.07 2.043-4.038 2.995-5.914-.447-.55-.85-1.041-1.32-1.624zm.7 9.026a725.74 725.74 0 012.95-5.343 231.967 231.967 0 00-1.71-1.59c-.976 2.025-1.905 3.935-2.87 5.926.529.332 1.034.64 1.63 1.007zm2.813 1.43c.883-1.705 1.675-3.261 2.513-4.862l-1.676-1.304c-.987 1.761-1.905 3.42-2.869 5.136l2.032 1.03zm3.041 1.246c.758-1.487 1.446-2.825 2.17-4.232-.7-.469-1.378-.915-2.101-1.396-.792 1.693-1.492 3.192-2.227 4.759.758.309 1.39.561 2.158.869zm12.43 2.06c.85-1.224.54-1.762-.745-2.025-1.09-.229-2.147-.664-3.295-1.03-.39.904-.746 1.739-1.216 2.814 1.916.092 3.627.161 5.257.241zM11.823 93.931c.195.08.402.16.597.24 1.446-2.276 2.858-4.587 4.361-6.829.655-.972.345-1.636-.332-2.437-1.584 3.089-3.1 6.063-4.626 9.026zm3.49-12.778c-.092 0-.184-.011-.288-.023-1.55 3.135-3.11 6.258-4.625 9.415-.138.297.057.744.092 1.121 1.79-3.02 3.328-6.006 4.786-9.037.195-.4.023-.984.023-1.487l.011.011zm20.499 25.202c-.609-.355-1.16-.675-1.757-1.03-.711 1.35-1.377 2.631-2.123 4.05.918.229 1.653.412 2.422.606.505-1.235.941-2.322 1.47-3.615l-.012-.011zm-25.366-50.93c-2.663 2.208-8.172 9.06-8.023 9.987 2.031-1.659 7.988-9.06 8.023-9.987zm27.225 55.346c.413-.984.815-1.945 1.24-2.963-.861-.378-1.561-.687-2.33-1.018-.54 1.166-1.033 2.207-1.573 3.386.953.217 1.756.389 2.663.595zM12.304 27.215c.069.114.15.24.23.366 5.543-2.986 11.087-5.972 16.631-8.946-.08-.149-.172-.298-.252-.458-5.533 3.02-11.065 6.03-16.597 9.05l-.012-.012zm3.88 56.306c-.138-.057-.287-.114-.425-.171l-4.683 9.3c.138.069.275.137.413.194 1.561-3.111 3.122-6.223 4.695-9.323zm-7.254-4.37c-2.457 3.26-2.698 3.89-1.883 5.022.643-1.727 1.274-3.375 1.883-5.022zM1.963 57.13c.149.103.31.206.459.308l2.766-3.237c-.103-.092-.218-.183-.333-.275-.964 1.064-1.928 2.14-2.892 3.204z" fill="#222"/><path d="M79.759 56.306v-.87a5.254 5.254 0 00-.08-.743C77.693 42.75 72.344 32.5 63.862 23.897c-4.82-4.885-10.341-8.751-17.067-10.604-1.653-.447-3.375-1.053-5.085-.138-2.755 1.476-5.647 2.757-8.23 4.496-7.276 4.908-12.085 11.897-15.953 19.596-3.662 7.299-5.395 15.032-4.879 23.189.425 6.623 2.124 12.995 4.224 19.264 4.959 14.769 14.508 24.641 29.969 28.611 5.165 1.327 9.55.675 13.98-2.219 7.311-4.782 12.12-11.406 15.322-19.345 2.71-6.715 3.788-13.762 4.178-20.935.115-2.059.012-4.13.012-6.371-3.524.64-6.715 1.223-9.573 1.75-.528 4.507-.998 8.694-1.503 12.88-.941 7.7-4.591 14.026-10.181 19.254-6.439 6.017-18.938 8.511-27.202.492-3.053-2.963-5.269-6.475-6.921-10.365-3.558-8.373-4.523-17.17-3.857-26.162.436-5.834 2.02-11.394 4.81-16.622 3.282-6.155 8.344-10.33 14.897-12.08 5.808-1.545 11.386.274 16.092 4.026 5.154 4.119 8.517 9.598 10.824 15.673 1.205 3.169 1.917 6.52 2.87 9.85 2.903-.584 5.968-1.19 9.17-1.831z" fill="#fff"/><path d="M50.915 70.377c-.23 1.235-.103 2.528-.677 3.294-2.525 3.375-8.757 5.411-12.017-.446-.907-1.624-1.366-3.626-1.572-5.502-.54-5 .952-9.644 3.236-14.014 1.194-2.276 3.088-3.947 5.934-3.867 2.79.08 4.42 1.83 5.555 4.142.39.789.609 1.67.896 2.482 2.33-.412 4.602-.858 6.898-1.201.413-.057.895.24 1.331.377-.16.424-.24.927-.516 1.27-.941 1.19-1.951 2.334-3.191 3.787 3.627-.664 6.84-1.258 10.077-1.853-.022-.584 0-.973-.068-1.362-1.102-7.15-4.087-13.453-8.655-19.047-2.984-3.66-6.703-6.051-11.443-6.704-2.158-.297-4.247-.766-6.347.584C29.98 38.963 25.194 48.756 24.39 60.653c-.574 8.385 2.238 16.142 5.268 23.783 1.481 3.752 4.569 6.212 7.518 8.706 1.09.927 2.514 1.819 3.88 1.979 2.433.286 5.016.389 7.392-.103 8.47-1.75 13.096-7.928 15.93-15.352 1.539-4.05 1.78-8.614 2.503-12.961.264-1.579.195-3.215.287-4.954-3.053.435-5.842.824-8.907 1.259.758 1.807 1.435 3.386 2.066 4.976.402 1.007 1.045 2.254.023 3.031-.7.527-1.951.561-2.904.447-2.215-.263-4.396-.744-6.508-1.11l-.023.023zm70.152-10.582c-1.411-2.734-2.766-5.354-4.189-8.11a3553.77 3553.77 0 01-9.641 2.173c1.308 1.613 2.422 3.089 3.65 4.45.424.469 1.124.88 1.733.938 2.823.252 5.67.377 8.447.55zm-14.163-9.472c3.26-.698 6.45-1.384 9.641-2.082.23-.046.517-.137.654-.309 1.527-1.956 3.019-3.935 4.534-5.914-.482-.138-.757-.069-1.021.045-3.444 1.408-6.841 2.895-10.319 4.187-1.951.721-3.214 1.842-3.489 4.073z" fill="#fff"/><path d="M50.79 62.426c.01-.171.034-.343.045-.515 1.09-.24 2.192-.446 3.271-.732.689-.183 1.573-.297 1.986-.766.895-1.041 1.538-2.288 2.295-3.444-.057-.148-.114-.285-.172-.434-2.192.755-4.35 1.704-6.6 2.208-2.995.675-5.486 2.23-7.92 3.912-.447.309-.975 1.018-.906 1.453.16.984-.103 2.334 1.366 2.677 4.81 1.132 9.618 2.242 14.83 3.455-1.034-2.666-1.849-4.782-2.721-7.024-1.641-.172-3.753.72-5.452-.801l-.023.011z" fill="#EB5B31"/><path fill-rule="evenodd" clip-rule="evenodd" d="M101.671 33.118c-1.193-.275-2.892-.595-4.568-1.052-4.017-1.099-8.034-2.254-12.051-3.375-.942-.263-2.124-.618-1.825-1.716.23-.824 1.193-1.785 2.031-2.036 1.596-.48 3.329-.584 5.005-.698 4.614-.32 9.24-.584 13.865-.847 1.836-.103 2.858 1.018 2.49 2.792-.309 1.498-.654 2.997-1.09 4.473-.494 1.658-1.641 2.448-3.857 2.47v-.011zm-4.628-11.245c-5.509-.31-10.536-.55-15.552-.927-.608-.046-1.16-.8-1.733-1.224.47-.55.85-1.419 1.423-1.59a1042.36 1042.36 0 0118.617-5.194c2.158-.583 3.351.252 3.65 2.46.149 1.12.252 2.265.264 3.409 0 1.544-.723 2.436-2.25 2.654-1.618.229-3.26.297-4.419.4v.012zm-20.247-4.679c-.987-1.716-.264-2.54.689-3.535 1.595-1.682 2.996-3.558 4.396-5.4 1.687-2.219 3.282-4.495 4.958-6.726 1.274-1.705 2.388-1.945 4.258-.915.873.48 1.7 1.04 2.503 1.635 2.18 1.59 2.135 3.01-.161 4.496-2.548 1.648-5.154 3.226-7.679 4.897-2.238 1.487-4.384 3.111-6.622 4.587-.7.469-1.584.652-2.342.96z" fill="#EB5B31"/><path fill-rule="evenodd" clip-rule="evenodd" d="M37.566 117.349c6.623 2.288 12.867 1.407 18.847-2.025 0 .046.069.172.034.195-3.604 2.905-7.105 6.166-12.212 5.651-1.871-.195-3.707-.972-5.475-1.705-.654-.263-1.056-1.121-1.572-1.704.126-.137.24-.286.367-.423l.011.011zM23.969 10.227c1.572-4.358 11.88-6.532 17.216-3.752-6.037-.183-11.535 1.728-17.216 3.752zm26.188 112.075c3.156-1.281 6.313-2.563 9.458-3.844l.172.24c-2.433 1.419-4.832 2.929-7.334 4.199-.62.308-1.619-.149-2.445-.263.046-.115.103-.218.16-.332h-.011zM32.078 3.695c4.281-1.83 8.356-.675 12.42-.446v.446h-12.42zm93.225 34.595c-.712-1.74-1.963-2.61-4.006-2.655.975-.915 2.043-1.04 2.915-.526 1.148.675 1.159 1.968 1.079 3.191l.012-.01zM128 36.836a2819.875 2819.875 0 01-3.719-4.336c2.112-.183 2.778 1.373 3.719 4.336z" fill="#222"/></g><defs><clipPath id="clip0_2680_27843"><path fill="#fff" d="M0 0h128v123H0z"/></clipPath></defs></svg>