<svg width="60" height="61" fill="none" xmlns="http://www.w3.org/2000/svg"><path d="M59.243 46.473l-2.051-.291a9.09 9.09 0 00-.604-1.46l1.245-1.658a.88.88 0 00-.081-1.151l-2.265-2.267a.88.88 0 00-1.153-.081l-1.656 1.245a9.1 9.1 0 00-1.457-.604l-.291-2.053a.88.88 0 00-.872-.757h-3.203a.88.88 0 00-.872.757l-.291 2.053c-.502.16-.99.361-1.457.604l-1.436-1.08a15.237 15.237 0 003.88-8.45h.372a.88.88 0 000-1.762h-.258l.002-.151c0-1.367-.18-2.723-.532-4.03a.88.88 0 10-1.7.458c.312 1.158.47 2.36.47 3.572 0 3.776-1.504 7.29-4.236 9.896l-.015.014c-.111.111-2.732 2.754-3.52 5.518-.175.61-.277 1.525-.336 2.404a.876.876 0 00-.013.146v.05a39.307 39.307 0 00-.06 1.478h-2.498c-.096-1.216-.254-3.67-.208-6.206.024-1.36.102-2.48.211-3.402 1.144-.175 2.385-.478 3.267-1.007 1.6-.96 1.939-2.905 1.251-4.12-.542-.956-1.871-1.702-3.835-.655-1.004.536-1.702 1.763-2.134 3.753-.03.141-.06.287-.088.436-.6.05-1.115.069-1.441.067a17.7 17.7 0 01-1.439-.066c-.028-.15-.057-.296-.088-.437-.432-1.99-1.13-3.217-2.134-3.753-1.964-1.047-3.293-.301-3.835.656-.357.63-.438 1.431-.223 2.198a3.262 3.262 0 001.474 1.92c.882.53 2.123.833 3.267 1.008.11.921.187 2.041.211 3.402.046 2.536-.112 4.99-.208 6.206h-2.497c-.026-1.134-.114-3.042-.41-4.078-.784-2.75-3.407-5.404-3.518-5.516l-.016-.016a13.552 13.552 0 01-4.237-9.896c0-7.536 6.125-13.666 13.654-13.666 4.954 0 9.529 2.694 11.94 7.031a.88.88 0 101.54-.856 15.43 15.43 0 00-3.443-4.214h1.03a.88.88 0 000-1.761H41.27a.88.88 0 00-.877.955 15.413 15.413 0 00-8.169-2.891l-2.705-.384a13.172 13.172 0 00-1.08-2.611l2.025-2.699a.88.88 0 00-.08-1.15L27 3.733a.88.88 0 00-1.152-.081L23.153 5.68a13.154 13.154 0 00-2.607-1.081l-.474-3.342A.88.88 0 0019.2.5h-4.785a.88.88 0 00-.872.757l-.474 3.342c-.906.266-1.779.628-2.607 1.08L7.766 3.654a.88.88 0 00-1.152.08L3.231 7.12a.88.88 0 00-.081 1.15l2.026 2.699a13.18 13.18 0 00-1.081 2.61l-3.338.475a.881.881 0 00-.757.872v4.788c0 .439.323.81.757.872l3.338.474c.266.907.628 1.782 1.08 2.61l-2.025 2.7a.88.88 0 00.081 1.15l3.383 3.386a.88.88 0 001.152.082l2.696-2.027c.828.453 1.702.815 2.607 1.08l.474 3.343a.88.88 0 00.872.757h2.295a15.333 15.333 0 004.027 6.386c.134.137 2.42 2.486 3.066 4.75.293 1.026.353 3.577.352 4.474V52.7a4.032 4.032 0 003.222 3.945 4.02 4.02 0 003.932 3.214h.14a4.02 4.02 0 003.932-3.214 4.031 4.031 0 003.222-3.945v-1.145l1.118.159c.16.503.361.99.605 1.46l-1.246 1.658a.88.88 0 00.082 1.15l2.265 2.268a.88.88 0 001.152.081l1.656-1.246c.468.244.955.446 1.457.604l.291 2.054a.88.88 0 00.872.757h3.204a.88.88 0 00.871-.757l.292-2.053a9.1 9.1 0 001.456-.604l1.657 1.245a.88.88 0 001.152-.081l2.265-2.267a.88.88 0 00.081-1.151l-1.245-1.659a9.15 9.15 0 00.604-1.459l2.052-.291A.88.88 0 0060 50.55v-3.206a.881.881 0 00-.757-.872zM35.87 35.037c.213-.114.615-.3.96-.3.21 0 .4.07.513.27.241.425.12 1.294-.624 1.74-.517.31-1.265.528-2.05.679.42-1.791.971-2.266 1.201-2.389zm-9.831 1.71c-.745-.447-.866-1.315-.624-1.74.112-.2.302-.27.514-.27.344 0 .746.186.96.3.229.123.78.598 1.2 2.39-.784-.151-1.532-.37-2.05-.68zm-10.86-4.367l-.447-3.16a.88.88 0 00-.663-.732 11.401 11.401 0 01-3.214-1.332.88.88 0 00-.987.049L7.32 29.12l-2.302-2.304 1.916-2.552a.88.88 0 00.048-.986 11.42 11.42 0 01-1.331-3.217.88.88 0 00-.732-.663l-3.157-.448v-3.26l3.157-.449a.88.88 0 00.732-.663 11.418 11.418 0 011.332-3.217.88.88 0 00-.05-.985L5.018 7.824 7.319 5.52l2.55 1.917a.88.88 0 00.986.049 11.4 11.4 0 013.214-1.333.88.88 0 00.663-.732l.448-3.16h3.255l.449 3.16a.88.88 0 00.662.732 11.39 11.39 0 013.214 1.333.88.88 0 00.987-.05l2.549-1.916 2.302 2.304-1.916 2.553a.88.88 0 00-.048.985c.562.927.986 1.927 1.267 2.973a15.307 15.307 0 00-4.097 1.6c-.403-3.467-3.354-6.167-6.924-6.167a6.963 6.963 0 00-5.809 3.116.88.88 0 001.467.976 5.205 5.205 0 014.342-2.33 5.22 5.22 0 015.2 5.54 15.538 15.538 0 00-4.163 4.788c-.342.07-.69.105-1.037.105a5.22 5.22 0 01-5.212-5.217.88.88 0 00-1.761 0c0 3.848 3.128 6.978 6.973 6.978l.152-.003a15.358 15.358 0 00-1.069 5.646c0 1.025.1 2.032.292 3.013H15.18zm25.146 12.342a9.106 9.106 0 00-.604 1.46l-.948.134a6.93 6.93 0 01.182-1.038 7.554 7.554 0 01.646-1.52l.724.964zm-9.953-2.072a37.83 37.83 0 00-.18-3.194c.67.043 1.132.045 1.186.044.054 0 .517 0 1.188-.044-.1.956-.16 2.023-.18 3.194a68.083 68.083 0 00.201 6.223h-2.416c.1-1.287.247-3.688.201-6.223zm1.077 15.448h-.14a2.254 2.254 0 01-2.072-1.373h4.283a2.253 2.253 0 01-2.07 1.373zm5.393-5.398a2.265 2.265 0 01-2.262 2.264h-6.402a2.265 2.265 0 01-2.262-2.264v-2.066h10.926V52.7zm21.397-2.914l-1.864.265a.88.88 0 00-.731.663 7.357 7.357 0 01-.858 2.072.88.88 0 00.049.985l1.131 1.507-1.184 1.186-1.505-1.132a.88.88 0 00-.986-.049 7.35 7.35 0 01-2.07.859.881.881 0 00-.663.731l-.264 1.866H47.62l-.265-1.866a.88.88 0 00-.663-.731 7.343 7.343 0 01-2.07-.859.88.88 0 00-.986.05l-1.505 1.13-1.184-1.185 1.131-1.507a.88.88 0 00.049-.985 7.36 7.36 0 01-.858-2.072.88.88 0 00-.731-.663l-1.864-.265V48.11l1.864-.265a.88.88 0 00.732-.663 7.36 7.36 0 01.857-2.072.88.88 0 00-.049-.985l-1.13-1.507 1.184-1.185 1.504 1.131a.88.88 0 00.986.049c.643-.39 1.34-.68 2.07-.858a.88.88 0 00.663-.732l.265-1.865h1.674l.264 1.865a.88.88 0 00.663.732c.73.179 1.427.467 2.07.858a.88.88 0 00.986-.049l1.505-1.131 1.184 1.185-1.131 1.507a.88.88 0 00-.049.985c.39.644.679 1.341.858 2.072a.88.88 0 00.731.663l1.864.265v1.677z" fill="#000"/><path d="M48.456 43.777a5.174 5.174 0 00-5.167 5.17.88.88 0 101.761 0 3.41 3.41 0 013.406-3.408 3.411 3.411 0 013.405 3.409 3.41 3.41 0 01-3.405 3.409 3.398 3.398 0 01-2.257-.856.88.88 0 10-1.168 1.318 5.158 5.158 0 003.425 1.3 5.174 5.174 0 005.167-5.171 5.175 5.175 0 00-5.167-5.17zM45.38 17.662h1.175a.88.88 0 000-1.761H45.38a.88.88 0 100 1.761zm7.584.851c.29.176.568.378.825.601a.89.89 0 001.294-.152.889.889 0 00-.138-1.176 7.722 7.722 0 00-1.07-.78.88.88 0 00-.911 1.507zm-3.474-.851c.372 0 .737.015 1.108.04a.89.89 0 00.94-.782.88.88 0 00-.779-.972 11.468 11.468 0 00-1.269-.047.88.88 0 100 1.761zm1.502 11.756a5.98 5.98 0 01-1.016.1.88.88 0 00.01 1.76h.01a7.73 7.73 0 001.317-.128.88.88 0 00-.32-1.732zm3.113-1.648a5.97 5.97 0 01-.779.66.89.89 0 00-.261 1.145.89.89 0 001.28.292c.36-.255.7-.543 1.01-.856a.88.88 0 10-1.25-1.241zm1.887-1.008a.889.889 0 001.13-.524c.152-.414.268-.845.346-1.28a.88.88 0 00-1.733-.31c-.06.334-.15.665-.267.983a.88.88 0 00.524 1.13zm-.687-5.613c.14.31.254.633.338.962a.89.89 0 001.104.626.889.889 0 00.602-1.063 7.677 7.677 0 00-.44-1.25.88.88 0 10-1.604.725zM4.159 36.832a.88.88 0 00-1.137.51 7.678 7.678 0 00-.361 1.274.88.88 0 001.73.333c.063-.334.157-.664.278-.981a.88.88 0 00-.51-1.136zm2.926 8.284a5.969 5.969 0 01-.818-.612.88.88 0 00-1.172 1.315c.33.293.686.56 1.06.792a.89.89 0 001.26-.368.89.89 0 00-.33-1.127zm7.56.888H13.47a.88.88 0 000 1.761h1.175a.88.88 0 100-1.761zm4.109 0H17.58a.88.88 0 000 1.761h1.174a.88.88 0 000-1.761zm4.109 0H21.69a.88.88 0 100 1.761h1.174a.88.88 0 000-1.761zM4.778 42.452a5.916 5.916 0 01-.327-.967.88.88 0 00-1.71.417c.103.428.246.851.423 1.256a.889.889 0 001.22.425.89.89 0 00.394-1.131zm5.759 3.552a8.79 8.79 0 01-1.064-.045.88.88 0 10-.216 1.748c.426.052.852.058 1.28.058a.88.88 0 100-1.761zm-5.101-9.905a.877.877 0 00.618-.253c.242-.239.507-.458.787-.651a.88.88 0 10-1.002-1.449c-.362.25-.706.535-1.02.844-.55.54-.157 1.508.617 1.508zm3.751-1.864a5.978 5.978 0 011.018-.087.88.88 0 100-1.761c-.443 0-.886.038-1.319.113a.889.889 0 00-.72 1.001.89.89 0 001.02.734z" fill="#000"/></svg>