<svg width="148" height="147" fill="none" xmlns="http://www.w3.org/2000/svg"><g clip-path="url(#clip0_2673_27690)" fill="#fff"><path d="M60.37 106.387c-1.072-6.408-3.102-12.566-3.998-19.037-.807-5.82-1.102-11.665-1.029-17.542l-2.552 1.302c4.663 3.425 9.334 6.846 14 10.279.695.508 2.876-.668 2.669-1.553-2.636-11.325-3.398-22.822-2.418-34.393l-2.678 1.174C70 55.777 75.628 64.94 81.271 74.094c.497.806 2.712-.479 2.762-1.213.554-7.932 2.816-15.269 6.806-22.148l-2.715 1.013c3.49 11.253 7.14 22.45 11.01 33.574.83-.546 1.656-1.1 2.485-1.646-17.71-4.584-34.991 11.737-44.862 24.425-1.308 1.685 2.43.662 3.11-.225C68.65 96.3 83.48 81.458 99.484 85.53c.667.166 2.806-.738 2.486-1.645-3.926-11.106-7.646-22.27-11.087-33.538-.289-.94-2.492.63-2.715 1.014-4.09 7.002-6.368 14.467-6.922 22.558.924-.403 1.837-.81 2.761-1.213-5.658-9.148-11.325-18.293-16.991-27.438-.486-.782-2.624.467-2.678 1.174-.956 11.72-.125 23.324 2.328 34.818l2.669-1.553c-4.714-3.392-9.427-6.784-14.143-10.183-.617-.442-2.55.544-2.552 1.302-.04 11.683.797 25.763 6.108 36.392.255.507 1.714-.314 1.622-.831zm1.174-68.186c-1.63-5.419-3.838-11.418-6.576-16.367-.4-.72-2.658.454-2.44 1.241 1.545 5.44 4.168 11.245 6.833 16.238.346.642 2.391-.405 2.183-1.112zm24.555 1.563c2.295-3.277 3.415-7.389 4.953-11.068 1.666-4.003 3.408-7.965 5.15-11.946.51-1.153-2.428-.157-2.796.659-1.779 3.942-3.453 7.929-5.093 11.928-1.312 3.201-3.823 7.298-3.774 10.79.005.652 1.41-.144 1.575-.37l-.015.007zm25.38 32.958c6.169.62 12.851-.786 18.693-2.67.918-.296 2.438-2.23.551-1.686-5.99 1.728-11.869 2.45-18.047 3.153-.339.036-2.051 1.115-1.208 1.199l.011.004zm-5.677 23.695c1.553 2.23 4.277 3.661 6.459 5.232 2.591 1.868 5.173 3.757 7.831 5.528.822.542 3.663-1.204 2.783-1.849-2.434-1.772-4.955-3.429-7.464-5.101-2.535-1.688-5.062-3.78-7.949-4.78-.346-.12-2.032.433-1.66.97zM82.4 104.825c-.25 3.632.845 7.383 1.464 10.955.69 3.987.983 8.244 2.285 12.077.27.8 2.647-.477 2.65-1.171.027-3.611-.864-7.327-1.54-10.862-.73-3.848-1.083-8.375-3.052-11.795-.307-.539-1.775.323-1.806.796zm-26.91 9.633c-2.654 1.845-4.37 4.721-6.174 7.366-2.01 2.947-4.357 6.07-5.571 9.44-.431 1.201 2.076.023 2.375-.378 2.057-2.745 3.664-5.793 5.565-8.652a163.295 163.295 0 013.294-4.743c.768-1.059 1.698-1.791 1.696-3.118.003-.515-1.007-.035-1.177.082l-.007.003zM43.8 87.483c-6.742 1.339-13.45 2.85-20.198 4.174-1.105.216-3.051 2.376-.968 1.872 6.825-1.659 13.684-3.147 20.517-4.79.68-.168 2.104-1.543.648-1.256zm.793-27.599c-1.535-1.79-4.545-2.61-6.652-3.6-2.596-1.22-5.213-2.421-7.773-3.723-1.234-.62-4.068 1.822-3.227 2.14 2.798 1.051 5.567 2.218 8.337 3.348 2.538 1.032 5.133 2.467 7.864 2.792.268.033 1.819-.53 1.451-.957zm59.337-4.534c5.436-3.638 11.325-7.085 16.33-11.307 1.206-1.02-.447-1.138-1.205-.7-5.729 3.25-11.062 7.448-16.423 11.266-1.72 1.223.175 1.498 1.302.748l-.004-.007z"/></g><defs><clipPath id="clip0_2673_27690"><path fill="#fff" transform="rotate(-25 105.643 23.42)" d="M0 0h110.834v110.41H0z"/></clipPath></defs></svg>