<svg width="123" height="125" fill="none" xmlns="http://www.w3.org/2000/svg"><path fill="#fff" d="M97.918 20.108l9.831 9.347-10.955 11.523-9.831-9.347zM49.594 62.672l9.83 9.347L48.47 83.542l-9.83-9.347z"/><path d="M37.497 67.156c.52.568.952.528 1.641.39l.997-.206c1.765-.368 3.546-.74 5.324-.769l-7.962.585zm0 0a260.577 260.577 0 00-5.67-5.973l5.67 5.973zm46.778-54.13l-.226-.95-.396.744-.044.015a22.34 22.34 0 00-.355.126h0l-.004.002c-8.998 3.557-17.053 8.669-24.44 14.85h0c-10.874 9.101-19.778 19.906-27.46 31.75-.22.338-.35.67-.295 1.021.053.34.268.61.508.856a260.54 260.54 0 015.662 5.966h0c.3.329.609.514.968.574.335.057.679-.004 1.018-.073.337-.068.673-.138 1.008-.207 1.765-.368 3.506-.73 5.246-.76 2.757-.045 5.067.88 6.71 2.484 1.644 1.604 2.643 3.91 2.733 6.667h0c.083 2.44-.426 4.783-1.361 7.043v.002c-.125.305-.2.61-.149.927.052.32.225.593.479.853a408.25 408.25 0 016.04 6.346h0c.213.227.457.448.775.522.335.078.662-.026 1-.223C72.87 85.067 83.32 77.595 92.49 68.408c6.751-6.766 12.529-14.276 16.897-22.821h0c.499-.977.951-1.984 1.384-2.951.201-.447.397-.886.593-1.31l.184-.397-.423-.114c-7.296-1.973-13.134-5.273-17.582-9.892-4.448-4.62-7.524-10.578-9.268-17.897zM54.141 84.658c-.446-.456-.479-.83-.253-1.383l6.299 7.735a408.039 408.039 0 00-6.046-6.352zm38.402-37.98h0c-.191 8.523-7.317 15.286-15.868 15.061-8.538-.225-15.203-7.207-15.04-15.764.163-8.538 7.218-15.31 15.793-15.155 8.477.157 15.31 7.322 15.115 15.857z" fill="#EB5B31" stroke="#fff" stroke-width=".739"/><path d="M113.301 34.974l-.075.624c-6.251-.754-11.978-4.161-16.221-8.73-4.24-4.565-7.056-10.353-7.41-15.949l-.04-.638.626-.131a183.91 183.91 0 002.213-.482c1.6-.354 3.23-.715 4.86-.988h0c5.214-.87 10.47-1.132 15.76-.58l.287 26.874zm0 0l.716.123.074-.228c.084-.255.164-.499.235-.74l-1.025.846zm3.754-22.554h0c.339 7.4-.628 14.626-2.729 21.709l2.729-21.709zm0 0c-.058-1.237-.362-2.283-1.075-3.05m1.075 3.05l-1.075-3.05m0 0c-.715-.77-1.734-1.143-2.966-1.27l2.966 1.27zM44.45 72.048h-.72l-.002.06c-2.806.302-5.763 1.572-8.18 3.934h0a197.141 197.141 0 00-7.812 8.072c-3.472 3.803-6.62 7.892-9.112 12.469-.97 1.776-.895 3.62.402 4.967 1.29 1.342 3.12 1.52 4.947.613h0a53.545 53.545 0 003.76-2.034h.001c6.564-3.945 12.327-8.889 17.793-14.118 2.572-2.458 4.085-5.573 4.213-9.218h0c.05-1.45-.287-2.7-1.247-3.564-.936-.842-2.319-1.182-4.043-1.181zm-7.362-29.392l.887-1.152-.784-.02-.022-.307-.58-.092c-.328-.051-.638-.113-.964-.177-.208-.041-.421-.084-.65-.126-.558-.102-1.153-.19-1.764-.19-5.227-.015-9.861 1.898-13.752 5.12-2.933 2.428-5.708 5.072-8.461 7.695a384.161 384.161 0 01-3.453 3.263c-.2.185-.358.425-.454.57l-.038.057c-1.024 1.478-.93 3.314.221 4.69h.001c.624.743 1.362 1.145 2.163 1.298.777.148 1.574.054 2.321-.114h0c3.435-.77 6.79-1.35 10.177-.843.46.07.911.068 1.331-.141.406-.203.669-.545.879-.864 3.086-4.664 6.174-9.319 9.323-13.929h0c.766-1.125 1.603-2.18 2.458-3.26.385-.485.773-.975 1.16-1.478zM80.133 86.7l.06.656c.032.373.079.719.126 1.077.03.22.06.443.087.68.07.593.119 1.218.062 1.852-.49 5.65-2.888 10.485-6.778 14.484h0c-2.442 2.509-5.001 4.91-7.546 7.296-.817.767-1.633 1.532-2.443 2.299-.682.645-1.43 1.067-2.232 1.216-.808.149-1.608.009-2.367-.364-.754-.37-1.355-.925-1.728-1.66-.372-.731-.493-1.589-.375-2.525v-.001a112.362 112.362 0 01.54-3.62c.19-1.199.376-2.383.519-3.57.073-.616.089-1.247.096-1.911l.003-.308c.005-.561.01-1.148.05-1.73.017-.277.102-.576.223-.832.112-.235.316-.564.657-.748L80.133 86.7zm0 0l-.658-.017m.659.017l-.659-.017m0 0h-.008l-.153-.004-.143.057c-.128.052-.217.085-.293.114a8.27 8.27 0 00-.066.024l-.005.002c-.076.03-.202.077-.325.163h-.002m.995-.356l-.995.357m0 0c-6.225 4.366-12.698 8.331-19.393 11.95L78.48 87.04zm-27.997 2.1l-.491-.516-.534.473-9.303 8.24-.491.434.373.54c.777 1.12 1.633 1.912 2.704 2.212 1.075.301 2.203.06 3.418-.512h0l.596-.28c.722-.338 1.455-.681 2.176-1.042 1.484-.74 2.965-1.49 4.428-2.231.627-.318 1.251-.635 1.87-.947l.889-.449-.687-.72c-1.706-1.79-3.346-3.516-4.945-5.199l-.003-.002zm-17.6-17.394l.496-.508-.489-.516-2.37-2.498-2.368-2.496-.7-.739-.485.896c-.487.9-.983 1.804-1.482 2.715-1.252 2.286-2.522 4.605-3.72 6.953l-.001.001c-.48.943-.575 1.898-.274 2.808.293.889.935 1.653 1.78 2.297l.52.395.456-.467 4.349-4.452 4.288-4.389z" fill="#EB5B31" stroke="#fff" stroke-width="1.477"/><path d="M92.907 46.687c-.2 8.729-7.493 15.653-16.247 15.422-8.74-.23-15.566-7.38-15.4-16.14.167-8.743 7.393-15.677 16.17-15.518 8.683.157 15.678 7.494 15.477 16.236zM67.6 46.07c-.124 5.226 4 9.564 9.217 9.705 5.195.14 9.555-3.974 9.747-9.198.186-5.165-4.132-9.716-9.291-9.783-5.227-.07-9.553 4.076-9.673 9.276z" fill="#fff"/><path d="M67.599 46.07c.123-5.201 4.445-9.346 9.672-9.277 5.16.067 9.477 4.618 9.29 9.783-.187 5.224-4.55 9.338-9.746 9.198-5.221-.14-9.34-4.48-9.216-9.705z" fill="#EB5B31"/></svg>