<svg width="273" height="436" fill="none" xmlns="http://www.w3.org/2000/svg"><path d="M-110 435.463c1.907-60.086-8.924-166.497 65.757-192.438 21.238-7.378 45.623-11.014 67.893-14.051 12.792-1.745 38.736-2.171 49.459-10.341 34.935-26.618 42.403-71.601 43.613-112.743 1.379-46.888 35.792-70.244 80.483-72.727 17.547-.975 44.102 7.094 56.315-9.33 9.547-12.84 9.745-23.093 5.62-38.217-4.376-16.046-10.143-18.304-22.931-28.327-11.273-8.836-13.024-27.697-15.961-40.915-2.044-9.197 44.3-6.068 52.156-4.946" stroke="#000" stroke-opacity=".11" stroke-linecap="round"/></svg>