<svg width="62" height="62" viewBox="0 0 62 62" fill="none" xmlns="http://www.w3.org/2000/svg">
<g clip-path="url(#clip0_807_9678)">
<path fill-rule="evenodd" clip-rule="evenodd" d="M35.8008 23.2528C35.7958 24.3223 35.4835 25.3661 34.9037 26.251C34.3239 27.1358 33.5029 27.8217 32.5453 28.2214C31.9077 28.4885 31.2246 28.6195 30.537 28.6065C29.518 28.5882 28.5269 28.2584 27.6881 27.6587C26.8493 27.059 26.2 26.216 25.822 25.2355C25.444 24.255 25.3539 23.1806 25.5631 22.1473C25.7723 21.114 26.2715 20.1678 26.9979 19.4272C27.7244 18.6867 28.6458 18.1849 29.6465 17.9848C30.6472 17.7847 31.6826 17.8953 32.6229 18.3026C33.5632 18.7099 34.3665 19.3958 34.9318 20.2742C35.4972 21.1527 35.7995 22.1847 35.8008 23.2405" fill="#031C77"/>
<path fill-rule="evenodd" clip-rule="evenodd" d="M31.672 35.1155H30.0533V36.6309H31.672V35.1155Z" fill="#031C77"/>
<path fill-rule="evenodd" clip-rule="evenodd" d="M33.6497 30.4634H27.5766C26.1708 30.4715 24.8244 31.0529 23.8292 32.0816C22.8339 33.1102 22.2698 34.5035 22.2588 35.9599V43.9716C22.2588 44.4048 22.4249 44.8202 22.7206 45.1266C23.0163 45.4329 23.4174 45.605 23.8356 45.605H37.3848C37.803 45.6033 38.2038 45.431 38.5001 45.1252C38.7964 44.8194 38.9644 44.4049 38.9676 43.9716V35.9599C38.9597 34.5025 38.3965 33.1073 37.4006 32.0779C36.4047 31.0485 35.0566 30.4683 33.6497 30.4634ZM34.4232 41.7854C34.4216 42.071 34.311 42.3442 34.1155 42.5456C33.92 42.7469 33.6556 42.8599 33.38 42.8599H28.344C28.0695 42.8583 27.8065 42.7446 27.6124 42.5434C27.4182 42.3423 27.3083 42.0699 27.3067 41.7854V37.7174C27.3083 37.433 27.4182 37.1607 27.6124 36.9596C27.8065 36.7584 28.0695 36.6446 28.344 36.643H28.5538V34.6618C28.5673 34.5022 28.6114 34.3469 28.6835 34.2051C28.7556 34.0633 28.8542 33.9378 28.9737 33.836C29.0932 33.7343 29.231 33.6583 29.3792 33.6124C29.5274 33.5665 29.6831 33.5516 29.8369 33.5687H31.8872C32.0414 33.5507 32.1976 33.5649 32.3465 33.6104C32.4954 33.6559 32.634 33.7317 32.7541 33.8336C32.8742 33.9355 32.9735 34.0614 33.046 34.2036C33.1185 34.3458 33.1627 34.5016 33.1761 34.6618V36.643H33.38C33.6556 36.643 33.92 36.756 34.1155 36.9573C34.311 37.1586 34.4216 37.4319 34.4232 37.7174V41.7854Z" fill="#031C77"/>
<path fill-rule="evenodd" clip-rule="evenodd" d="M31.7422 39.2332C31.7522 39.1074 31.737 38.9808 31.6974 38.8614C31.6578 38.742 31.5948 38.6324 31.5122 38.5395C31.4297 38.4466 31.3295 38.3725 31.2179 38.3217C31.1063 38.271 30.9857 38.2449 30.8638 38.2449C30.742 38.2449 30.6215 38.271 30.5099 38.3217C30.3983 38.3725 30.2981 38.4466 30.2155 38.5395C30.133 38.6324 30.07 38.742 30.0304 38.8614C29.9908 38.9808 29.9756 39.1074 29.9856 39.2332C29.9845 39.4235 30.042 39.6093 30.1498 39.7634C30.2577 39.9176 30.4102 40.032 30.5851 40.0902V40.879C30.5851 40.9531 30.6134 41.0241 30.664 41.0765C30.7146 41.1289 30.7833 41.1584 30.8549 41.1584C30.9264 41.1584 30.995 41.1289 31.0456 41.0765C31.0962 41.0241 31.1246 40.9531 31.1246 40.879V40.0902C31.3025 40.0344 31.4583 39.9212 31.5695 39.7669C31.6806 39.6127 31.7412 39.4257 31.7422 39.2332Z" fill="#031C77"/>
<path d="M30.6086 12.3161C29.8556 12.3161 29.1196 12.0847 28.4935 11.6514C27.8675 11.218 27.3796 10.6021 27.0915 9.88144C26.8033 9.16081 26.728 8.36787 26.8749 7.60285C27.0217 6.83783 27.3843 6.13509 27.9167 5.58354C28.4491 5.03199 29.1274 4.65642 29.8659 4.50425C30.6044 4.35208 31.3699 4.43016 32.0655 4.72866C32.7611 5.02716 33.3557 5.53263 33.7741 6.18118C34.1924 6.82973 34.4156 7.59228 34.4156 8.37228C34.414 9.41774 34.0124 10.4199 33.2988 11.1591C32.5852 11.8984 31.6177 12.3144 30.6086 12.3161ZM30.6086 6.85684C30.3192 6.85684 30.0365 6.94574 29.7959 7.11225C29.5554 7.27877 29.3679 7.5154 29.2571 7.79231C29.1464 8.06921 29.1174 8.37392 29.1739 8.66788C29.2303 8.96184 29.3696 9.23191 29.5742 9.44384C29.7788 9.65577 30.0395 9.80007 30.3233 9.85854C30.607 9.91701 30.9011 9.88704 31.1684 9.77234C31.4357 9.65764 31.6641 9.46341 31.8249 9.2142C31.9856 8.96499 32.0715 8.672 32.0715 8.37228C32.0715 8.17357 32.0336 7.9768 31.96 7.79329C31.8864 7.60978 31.7786 7.44307 31.6426 7.30285C31.5067 7.16263 31.3454 7.05165 31.168 6.97617C30.9905 6.90069 30.8004 6.86224 30.6086 6.86305V6.85684Z" fill="#031C77"/>
<path d="M30.6086 58.6785C29.8556 58.6785 29.1196 58.4473 28.4935 58.0139C27.8675 57.5806 27.3796 56.9646 27.0915 56.244C26.8033 55.5234 26.728 54.7303 26.8749 53.9653C27.0217 53.2003 27.3843 52.4976 27.9167 51.9461C28.4491 51.3945 29.1274 51.019 29.8659 50.8668C30.6044 50.7146 31.3699 50.7927 32.0655 51.0912C32.7611 51.3897 33.3557 51.8953 33.7741 52.5438C34.1924 53.1924 34.4156 53.9548 34.4156 54.7348C34.414 55.7803 34.0124 56.7824 33.2988 57.5216C32.5852 58.2609 31.6177 58.6769 30.6086 58.6785ZM30.6086 53.2255C30.3207 53.2268 30.0397 53.3164 29.8009 53.483C29.5621 53.6496 29.3763 53.8857 29.2669 54.1615C29.1576 54.4374 29.1296 54.7406 29.1864 55.0329C29.2433 55.3253 29.3826 55.5937 29.5866 55.8041C29.7906 56.0146 30.0502 56.1577 30.3327 56.2155C30.6151 56.2732 30.9077 56.2429 31.1735 56.1284C31.4394 56.014 31.6665 55.8206 31.8263 55.5726C31.9862 55.3245 32.0715 55.0331 32.0715 54.7348C32.0715 54.5361 32.0336 54.3393 31.96 54.1558C31.8864 53.9723 31.7786 53.8056 31.6426 53.6654C31.5067 53.5252 31.3454 53.4141 31.168 53.3386C30.9905 53.2632 30.8004 53.2247 30.6086 53.2255Z" fill="#031C77"/>
<path d="M52.9921 35.4946C52.2392 35.4946 51.5032 35.2632 50.8771 34.8299C50.2511 34.3965 49.763 33.7805 49.4749 33.0599C49.1868 32.3393 49.1114 31.5464 49.2583 30.7814C49.4052 30.0164 49.7679 29.3136 50.3003 28.762C50.8327 28.2105 51.511 27.8349 52.2495 27.6827C52.9879 27.5305 53.7534 27.6086 54.4491 27.9071C55.1447 28.2056 55.7392 28.7112 56.1575 29.3597C56.5758 30.0083 56.7992 30.7707 56.7992 31.5508C56.7992 32.5967 56.3981 33.5999 55.6841 34.3395C54.9702 35.0791 54.0018 35.4946 52.9921 35.4946ZM52.9921 30.0416C52.7023 30.0404 52.4186 30.1283 52.1771 30.2944C51.9357 30.4604 51.7473 30.697 51.6359 30.9741C51.5244 31.2513 51.4949 31.5566 51.5511 31.8511C51.6074 32.1457 51.7468 32.4162 51.9517 32.6285C52.1567 32.8408 52.4179 32.9853 52.7022 33.0435C52.9865 33.1018 53.2812 33.0714 53.5488 32.9559C53.8163 32.8404 54.0447 32.6452 54.2049 32.395C54.3652 32.1449 54.4501 31.851 54.4489 31.5508C54.4489 31.1505 54.2955 30.7666 54.0223 30.4836C53.7491 30.2006 53.3785 30.0416 52.9921 30.0416Z" fill="#031C77"/>
<path d="M8.23633 35.4946C7.48338 35.4946 6.74736 35.2632 6.12131 34.8299C5.49525 34.3965 5.00724 33.7805 4.7191 33.0599C4.43096 32.3393 4.35558 31.5464 4.50248 30.7814C4.64937 30.0164 5.01191 29.3136 5.54433 28.762C6.07674 28.2105 6.75503 27.8349 7.49351 27.6827C8.23199 27.5305 8.9975 27.6086 9.69313 27.9071C10.3888 28.2056 10.9834 28.7112 11.4017 29.3597C11.82 30.0083 12.0432 30.7707 12.0432 31.5508C12.0432 32.5967 11.6421 33.5999 10.9282 34.3395C10.2142 35.0791 9.246 35.4946 8.23633 35.4946ZM8.23633 30.0416C7.9465 30.0404 7.66283 30.1283 7.42135 30.2944C7.17987 30.4604 6.9914 30.697 6.87993 30.9741C6.76847 31.2513 6.73908 31.5566 6.79533 31.8511C6.85159 32.1457 6.991 32.4162 7.19594 32.6285C7.40089 32.8408 7.66205 32.9853 7.94637 33.0435C8.23069 33.1018 8.52528 33.0714 8.79282 32.9559C9.06036 32.8404 9.28885 32.6452 9.44914 32.395C9.60942 32.1449 9.69432 31.851 9.69313 31.5508C9.69155 31.151 9.53758 30.7681 9.26471 30.4854C8.99184 30.2027 8.62222 30.0432 8.23633 30.0416Z" fill="#031C77"/>
<path d="M46.4384 19.1044C45.5576 19.1044 44.704 18.7881 44.0232 18.2093C43.3423 17.6305 42.8763 16.825 42.7044 15.9301C42.5325 15.0352 42.6656 14.1063 43.0807 13.3016C43.4959 12.4969 44.1674 11.8662 44.9812 11.5171C45.7949 11.1679 46.7003 11.1217 47.5432 11.3866C48.386 11.6514 49.1141 12.2108 49.6035 12.9694C50.0928 13.7281 50.3132 14.639 50.2269 15.547C50.1405 16.4551 49.753 17.3041 49.1303 17.9493C48.7778 18.3169 48.3583 18.6083 47.8962 18.8066C47.4341 19.0049 46.9386 19.1061 46.4384 19.1044ZM46.4384 13.6514C46.1014 13.6519 45.7749 13.7734 45.5147 13.9953C45.2544 14.2171 45.0765 14.5256 45.0112 14.8681C44.9459 15.2106 44.9973 15.566 45.1565 15.8737C45.3158 16.1814 45.573 16.4224 45.8845 16.5557C46.1961 16.6889 46.5425 16.7061 46.8649 16.6043C47.1873 16.5026 47.4657 16.2882 47.6527 15.9977C47.8396 15.7072 47.9235 15.3585 47.8901 15.0111C47.8567 14.6637 47.7081 14.339 47.4696 14.0924C47.1948 13.8112 46.8246 13.6529 46.4384 13.6514Z" fill="#031C77"/>
<path d="M14.7815 51.8905C13.9008 51.8905 13.0472 51.5742 12.3663 50.9954C11.6855 50.4166 11.2194 49.6112 11.0475 48.7163C10.8757 47.8214 11.0087 46.8923 11.4239 46.0877C11.839 45.283 12.5107 44.6523 13.3244 44.3031C14.1382 43.9539 15.0435 43.9079 15.8863 44.1727C16.7292 44.4376 17.4574 44.997 17.9468 45.7556C18.4361 46.5142 18.6563 47.4251 18.57 48.3331C18.4837 49.2411 18.0962 50.09 17.4734 50.7352C17.1209 51.1028 16.7015 51.3944 16.2394 51.5927C15.7773 51.791 15.2817 51.8921 14.7815 51.8905ZM14.7815 46.4375C14.59 46.4361 14.4001 46.4745 14.223 46.5503C14.0459 46.626 13.8853 46.7375 13.7504 46.8784C13.5103 47.1258 13.3605 47.4519 13.3265 47.8009C13.2925 48.1499 13.3765 48.5003 13.5641 48.7924C13.7516 49.0844 14.0311 49.3 14.355 49.4024C14.6789 49.5048 15.0271 49.4874 15.3401 49.3536C15.6531 49.2197 15.9116 48.9776 16.0715 48.6684C16.2314 48.3591 16.2827 48.002 16.2168 47.6579C16.1509 47.3138 15.9718 47.0041 15.7101 46.7815C15.4484 46.5589 15.1202 46.4374 14.7815 46.4375Z" fill="#031C77"/>
<path d="M46.4384 51.8905C45.5576 51.8905 44.704 51.5742 44.0232 50.9954C43.3423 50.4166 42.8763 49.6112 42.7044 48.7163C42.5325 47.8214 42.6656 46.8923 43.0807 46.0877C43.4959 45.283 44.1674 44.6523 44.9812 44.3031C45.7949 43.9539 46.7003 43.9079 47.5432 44.1727C48.386 44.4376 49.1141 44.997 49.6035 45.7556C50.0928 46.5142 50.3132 47.4251 50.2269 48.3331C50.1405 49.2411 49.753 50.09 49.1303 50.7352C48.7778 51.1028 48.3583 51.3944 47.8962 51.5927C47.4341 51.791 46.9386 51.8921 46.4384 51.8905ZM46.4384 46.4375C46.2467 46.4354 46.0566 46.4734 45.8794 46.5492C45.7023 46.625 45.5417 46.7369 45.4072 46.8784C45.1671 47.1258 45.0173 47.4519 44.9834 47.8009C44.9494 48.1499 45.0333 48.5003 45.2209 48.7924C45.4085 49.0844 45.688 49.3 46.0119 49.4024C46.3358 49.5048 46.6839 49.4874 46.9969 49.3536C47.3099 49.2197 47.5685 48.9776 47.7283 48.6684C47.8882 48.3591 47.9396 48.002 47.8737 47.6579C47.8078 47.3138 47.6287 47.0041 47.367 46.7815C47.1052 46.5589 46.777 46.4374 46.4384 46.4375Z" fill="#031C77"/>
<path d="M14.7815 19.1044C13.9008 19.1044 13.0472 18.7881 12.3663 18.2093C11.6855 17.6305 11.2194 16.825 11.0475 15.9301C10.8757 15.0352 11.0087 14.1063 11.4239 13.3016C11.839 12.4969 12.5107 11.8662 13.3244 11.5171C14.1382 11.1679 15.0435 11.1217 15.8863 11.3866C16.7292 11.6514 17.4574 12.2108 17.9468 12.9694C18.4361 13.7281 18.6563 14.639 18.57 15.547C18.4837 16.4551 18.0962 17.3041 17.4734 17.9493C17.1209 18.3169 16.7015 18.6083 16.2394 18.8066C15.7773 19.0049 15.2817 19.1061 14.7815 19.1044ZM14.7815 13.6514C14.4445 13.6519 14.118 13.7734 13.8578 13.9953C13.5976 14.2171 13.4198 14.5256 13.3545 14.8681C13.2891 15.2106 13.3404 15.566 13.4996 15.8737C13.6589 16.1814 13.9162 16.4224 14.2277 16.5557C14.5392 16.6889 14.8858 16.7061 15.2082 16.6043C15.5306 16.5026 15.8089 16.2882 15.9958 15.9977C16.1827 15.7072 16.2666 15.3585 16.2332 15.0111C16.1998 14.6637 16.0513 14.339 15.8127 14.0924C15.5387 13.8101 15.168 13.6516 14.7815 13.6514Z" fill="#031C77"/>
<path d="M30.6099 15.0671C30.2919 15.0671 29.987 14.9363 29.7622 14.7034C29.5373 14.4704 29.4109 14.1544 29.4109 13.825V11.0675C29.4659 10.7867 29.613 10.5343 29.8272 10.3529C30.0413 10.1716 30.3095 10.0725 30.5861 10.0725C30.8627 10.0725 31.1307 10.1716 31.3449 10.3529C31.559 10.5343 31.7061 10.7867 31.7611 11.0675V13.825C31.7614 14.146 31.6416 14.4547 31.427 14.6862C31.2124 14.9178 30.9196 15.0543 30.6099 15.0671Z" fill="#031C77"/>
<path d="M30.6107 52.8223C30.4215 52.8223 30.2401 52.7444 30.1064 52.6058C29.9726 52.4672 29.8973 52.2793 29.8973 52.0833V49.3258C29.8882 49.2226 29.9 49.1186 29.9319 49.0204C29.9637 48.9222 30.0149 48.8319 30.0823 48.7554C30.1498 48.6788 30.2319 48.6177 30.3234 48.5758C30.4149 48.534 30.5138 48.5125 30.6138 48.5125C30.7138 48.5125 30.8127 48.534 30.9042 48.5758C30.9957 48.6177 31.0777 48.6788 31.1451 48.7554C31.2125 48.8319 31.2639 48.9222 31.2957 49.0204C31.3276 49.1186 31.3394 49.2226 31.3303 49.3258V52.0833C31.3303 52.1809 31.3116 52.2775 31.2754 52.3676C31.2392 52.4577 31.1861 52.5394 31.1192 52.6081C31.0523 52.6768 30.9729 52.7311 30.8856 52.7679C30.7984 52.8047 30.7049 52.8231 30.6107 52.8223Z" fill="#031C77"/>
<path d="M50.376 32.7929H47.72C47.5458 32.8296 47.366 32.8256 47.1935 32.7814C47.021 32.7372 46.8602 32.6539 46.7226 32.5374C46.585 32.4209 46.4741 32.2742 46.398 32.1079C46.3218 31.9415 46.2823 31.7597 46.2823 31.5757C46.2823 31.3916 46.3218 31.2098 46.398 31.0434C46.4741 30.8771 46.585 30.7304 46.7226 30.6139C46.8602 30.4974 47.021 30.414 47.1935 30.3698C47.366 30.3256 47.5458 30.3218 47.72 30.3584H50.376C50.647 30.4154 50.8906 30.5678 51.0657 30.7896C51.2407 31.0115 51.3363 31.2891 51.3363 31.5757C51.3363 31.8622 51.2407 32.1398 51.0657 32.3617C50.8906 32.5835 50.647 32.7359 50.376 32.7929Z" fill="#031C77"/>
<path d="M13.5067 32.7929H10.8447C10.6706 32.8296 10.4907 32.8256 10.3182 32.7814C10.1457 32.7372 9.98497 32.6539 9.84738 32.5374C9.70979 32.4209 9.59887 32.2742 9.52274 32.1079C9.4466 31.9415 9.4071 31.7597 9.4071 31.5757C9.4071 31.3916 9.4466 31.2098 9.52274 31.0434C9.59887 30.8771 9.70979 30.7304 9.84738 30.6139C9.98497 30.4974 10.1457 30.414 10.3182 30.3698C10.4907 30.3256 10.6706 30.3218 10.8447 30.3584H13.5067C13.7778 30.4154 14.0214 30.5678 14.1964 30.7896C14.3715 31.0115 14.4671 31.2891 14.4671 31.5757C14.4671 31.8622 14.3715 32.1398 14.1964 32.3617C14.0214 32.5835 13.7778 32.7359 13.5067 32.7929Z" fill="#031C77"/>
<path d="M42.7063 20.2592C42.4792 20.2483 42.2597 20.1706 42.0735 20.0354C41.8874 19.9002 41.7423 19.713 41.6549 19.4956C41.5676 19.2782 41.5417 19.0395 41.5803 18.8074C41.6189 18.5753 41.7203 18.3594 41.8729 18.1848L43.7555 16.2346C43.8533 16.0805 43.9829 15.951 44.1351 15.8553C44.2873 15.7596 44.4582 15.7002 44.6353 15.6815C44.8124 15.6627 44.9914 15.6851 45.1591 15.7469C45.3269 15.8087 45.4792 15.9085 45.6051 16.0389C45.731 16.1693 45.8272 16.3271 45.8869 16.5009C45.9465 16.6746 45.9682 16.86 45.9501 17.0435C45.932 17.227 45.8746 17.4039 45.7822 17.5616C45.6899 17.7193 45.5649 17.8537 45.4161 17.9551L43.5576 19.9052C43.3303 20.1354 43.0241 20.2628 42.7063 20.2592Z" fill="#031C77"/>
<path d="M16.6351 47.27C16.4086 47.258 16.1899 47.1795 16.0046 47.0439C15.8193 46.9083 15.675 46.721 15.5883 46.5038C15.5017 46.2866 15.4763 46.0483 15.5151 45.8168C15.554 45.5852 15.6554 45.3698 15.8077 45.1956L17.6843 43.2455C17.9148 43.0884 18.1906 43.0184 18.465 43.0474C18.7395 43.0765 18.9959 43.2027 19.191 43.4048C19.3861 43.6069 19.508 43.8726 19.536 44.1569C19.5641 44.4413 19.4966 44.727 19.345 44.9658L17.4624 46.9159C17.2411 47.1401 16.9447 47.267 16.6351 47.27Z" fill="#031C77"/>
<path d="M44.5907 47.27C44.2791 47.2686 43.9802 47.1416 43.7574 46.9159L41.8748 44.9658C41.7232 44.727 41.6558 44.4413 41.6838 44.1569C41.7119 43.8726 41.8337 43.6069 42.0288 43.4048C42.2239 43.2027 42.4803 43.0765 42.7548 43.0474C43.0293 43.0184 43.305 43.0884 43.5355 43.2455L45.4181 45.1956C45.5704 45.3698 45.6719 45.5852 45.7107 45.8168C45.7496 46.0483 45.7242 46.2866 45.6375 46.5038C45.5509 46.721 45.4066 46.9083 45.2213 47.0439C45.036 47.1795 44.8173 47.258 44.5907 47.27Z" fill="#031C77"/>
<path d="M18.5171 20.2595C18.2054 20.2581 17.9066 20.1311 17.6838 19.9054L15.8072 17.9553C15.6581 17.717 15.5924 17.4329 15.6209 17.1504C15.6494 16.868 15.7706 16.6042 15.9641 16.403C16.1576 16.2018 16.4118 16.0754 16.6844 16.0448C16.957 16.0142 17.2313 16.0813 17.4619 16.2349L19.3445 18.1851C19.4968 18.3593 19.5982 18.5747 19.6371 18.8063C19.6759 19.0378 19.6505 19.2761 19.5639 19.4933C19.4773 19.7105 19.3329 19.8978 19.1476 20.0334C18.9623 20.169 18.7437 20.2475 18.5171 20.2595Z" fill="#031C77"/>
</g>
<defs>
<clipPath id="clip0_807_9678">
<rect width="62" height="62" fill="white"/>
</clipPath>
</defs>
</svg>
