<svg width="62" height="62" viewBox="0 0 62 62" fill="none" xmlns="http://www.w3.org/2000/svg">
<g clip-path="url(#clip0_807_9612)">
<path d="M43.8617 47.2748C43.6454 47.2748 43.438 47.3639 43.2851 47.5223C43.1322 47.6807 43.0463 47.8955 43.0463 48.1195V52.0943H9.28716V23.0531H21.6373C21.8536 23.0531 22.061 22.9641 22.2139 22.8057C22.3668 22.6473 22.4527 22.4324 22.4527 22.2084V9.44551H43.0763V12.2093C43.0939 12.4216 43.1877 12.6193 43.3392 12.7634C43.4907 12.9075 43.689 12.9875 43.8947 12.9875C44.1004 12.9875 44.2986 12.9075 44.4501 12.7634C44.6017 12.6193 44.6955 12.4216 44.713 12.2093V8.60086C44.713 8.3752 44.6265 8.15877 44.4725 7.9992C44.3184 7.83963 44.1095 7.75 43.8917 7.75H21.6373H21.4935C21.4249 7.76651 21.3585 7.79153 21.2956 7.82453H21.2536C21.191 7.86085 21.1326 7.9046 21.0798 7.95493L7.94423 21.5626C7.89569 21.6152 7.85337 21.6734 7.81828 21.7364V21.7861C7.78657 21.8507 7.76435 21.9198 7.75234 21.9911C7.74922 22.0428 7.74922 22.0947 7.75234 22.1464V52.8769C7.75234 53.1009 7.83824 53.3157 7.99114 53.4741C8.14405 53.6325 8.35144 53.7214 8.56769 53.7214H43.9396C44.0472 53.7223 44.1539 53.701 44.2535 53.659C44.3531 53.6169 44.4437 53.5548 44.52 53.4762C44.5964 53.3977 44.657 53.3044 44.6984 53.2015C44.7397 53.0986 44.7609 52.9883 44.7609 52.8769V48.0574C44.7535 47.944 44.7241 47.8334 44.6744 47.7321C44.6248 47.6309 44.5559 47.541 44.4719 47.468C44.388 47.3949 44.2906 47.3402 44.1858 47.307C44.0809 47.2738 43.9707 47.2629 43.8617 47.2748Z" fill="#031C77"/>
<path d="M17.6113 36.8159H33.4028C33.6077 36.7977 33.7987 36.7005 33.9378 36.5435C34.0769 36.3866 34.154 36.1812 34.154 35.9681C34.154 35.755 34.0769 35.5498 33.9378 35.3928C33.7987 35.2359 33.6077 35.1386 33.4028 35.1204H17.6113C17.4064 35.1386 17.2155 35.2359 17.0764 35.3928C16.9373 35.5498 16.8601 35.755 16.8601 35.9681C16.8601 36.1812 16.9373 36.3866 17.0764 36.5435C17.2155 36.7005 17.4064 36.7977 17.6113 36.8159Z" fill="#031C77"/>
<path d="M17.6115 31.8164H33.4029C33.6192 31.8164 33.8266 31.7273 33.9795 31.5689C34.1324 31.4105 34.2183 31.1957 34.2183 30.9717C34.2183 30.7477 34.1324 30.5328 33.9795 30.3744C33.8266 30.216 33.6192 30.127 33.4029 30.127H17.6115C17.3952 30.127 17.1879 30.216 17.0349 30.3744C16.882 30.5328 16.7961 30.7477 16.7961 30.9717C16.7961 31.1957 16.882 31.4105 17.0349 31.5689C17.1879 31.7273 17.3952 31.8164 17.6115 31.8164Z" fill="#031C77"/>
<path d="M16.7961 25.9781C16.7961 26.2021 16.882 26.417 17.0349 26.5754C17.1879 26.7338 17.3952 26.8228 17.6115 26.8228H33.4029C33.6192 26.8228 33.8266 26.7338 33.9795 26.5754C34.1324 26.417 34.2183 26.2021 34.2183 25.9781C34.2183 25.7541 34.1324 25.5393 33.9795 25.3809C33.8266 25.2224 33.6192 25.1335 33.4029 25.1335H17.6115C17.3952 25.1335 17.1879 25.2224 17.0349 25.3809C16.882 25.5393 16.7961 25.7541 16.7961 25.9781Z" fill="#031C77"/>
<path d="M23.8864 21.2519C23.8856 21.3634 23.9061 21.4738 23.9467 21.577C23.9873 21.6802 24.0473 21.7741 24.1231 21.8532C24.1988 21.9322 24.289 21.995 24.3883 22.0378C24.4877 22.0807 24.5941 22.1027 24.7017 22.1027H31.5003C31.7052 22.0845 31.8962 21.9874 32.0353 21.8304C32.1744 21.6734 32.2515 21.4681 32.2515 21.255C32.2515 21.0419 32.1744 20.8365 32.0353 20.6796C31.8962 20.5226 31.7052 20.4254 31.5003 20.4072H24.7017C24.5946 20.4072 24.4887 20.4291 24.3897 20.4715C24.2908 20.514 24.2009 20.5763 24.1252 20.6547C24.0495 20.7331 23.9894 20.8262 23.9484 20.9287C23.9075 21.0312 23.8864 21.141 23.8864 21.2519Z" fill="#031C77"/>
<path d="M31.4289 17.3767C31.6339 17.3585 31.8248 17.2612 31.9639 17.1043C32.103 16.9473 32.1801 16.742 32.1801 16.5289C32.1801 16.3158 32.103 16.1105 31.9639 15.9535C31.8248 15.7965 31.6339 15.6993 31.4289 15.6812H25.2359C25.0309 15.6993 24.84 15.7965 24.7009 15.9535C24.5618 16.1105 24.4846 16.3158 24.4846 16.5289C24.4846 16.742 24.5618 16.9473 24.7009 17.1043C24.84 17.2612 25.0309 17.3585 25.2359 17.3767H31.4289Z" fill="#031C77"/>
<path d="M31.5069 47.231C33.9709 47.231 34.5045 45.1753 35.0141 44.9269C35.2517 45.4945 35.3838 46.1035 35.4038 46.7219C35.4216 46.9388 35.517 47.1411 35.671 47.2893C35.8251 47.4374 36.0269 47.5206 36.2371 47.5229H36.2671C36.3813 47.5224 36.4941 47.4976 36.5986 47.45C36.7032 47.4024 36.7971 47.3331 36.8747 47.2463C36.9523 47.1596 37.0118 47.0571 37.0496 46.9455C37.0874 46.8339 37.1027 46.7155 37.0945 46.5975C36.9865 45.1442 36.5728 43.1569 35.098 43.1569C33.1495 43.1569 33.3894 45.4859 31.5009 45.4859C31.397 45.4913 31.293 45.4913 31.1892 45.4859C31.1796 45.3495 31.1796 45.2124 31.1892 45.0759C31.1892 43.6475 30.5896 42.8835 29.1747 42.8835C27.9756 42.8835 26.303 44.6288 25.2539 45.8585C25.1246 46.034 25.0641 46.2537 25.0844 46.4735C25.1048 46.6933 25.2045 46.8969 25.3637 47.0438C25.5229 47.1906 25.7297 47.2697 25.9428 47.2653C26.1559 47.2609 26.3595 47.1733 26.5128 47.02C27.604 45.7778 28.785 44.6847 29.1747 44.6288C29.3605 44.6288 29.4625 44.6288 29.4925 44.6288C29.4925 44.7219 29.4925 44.9082 29.4925 45.0386C29.4805 46.4609 30.068 47.231 31.5069 47.231Z" fill="#031C77"/>
<path d="M42.0752 25.3943C42.0272 30.9156 41.4097 38.7223 41.4157 42.7096C41.4157 43.4426 41.6968 44.1456 42.1971 44.6639C42.6974 45.1822 43.376 45.4735 44.0835 45.4735C44.7911 45.4735 45.4698 45.1822 45.9701 44.6639C46.4704 44.1456 46.7515 43.4426 46.7515 42.7096C46.7515 38.7161 46.152 30.9094 46.098 25.3943H42.0752Z" fill="#031C77"/>
<path d="M37.4658 15.7371C35.4154 14.3645 34.0604 15.1533 34.0604 16.3954V21.9353C34.0604 23.1775 35.4334 23.9538 37.4658 22.5937C37.4274 22.3765 37.4074 22.1561 37.4058 21.9353V16.3954C37.4074 16.1746 37.4274 15.9543 37.4658 15.7371Z" fill="#031C77"/>
<path d="M50.7046 15.7366C50.7479 15.9532 50.77 16.1738 50.7705 16.395V21.9349C50.77 22.1561 50.7479 22.3767 50.7046 22.5932C52.761 23.9658 54.1158 23.177 54.1158 21.9349V16.395C54.1158 15.1342 52.737 14.3578 50.7046 15.7366Z" fill="#031C77"/>
<path d="M47.4329 15.0161H40.7482C40.0098 15.0161 39.4113 15.6362 39.4113 16.4011V21.941C39.4113 22.7059 40.0098 23.326 40.7482 23.326H47.4329C48.1713 23.326 48.7698 22.7059 48.7698 21.941V16.4011C48.7698 15.6362 48.1713 15.0161 47.4329 15.0161Z" fill="#031C77"/>
</g>
<defs>
<clipPath id="clip0_807_9612">
<rect width="62" height="62" fill="white"/>
</clipPath>
</defs>
</svg>
