<svg width="62" height="62" viewBox="0 0 62 62" fill="none" xmlns="http://www.w3.org/2000/svg">
<g clip-path="url(#clip0_807_9648)">
<path d="M30.8426 26.4927H30.6927C28.9633 26.4706 27.2651 26.0122 25.7452 25.1571C24.2253 24.3021 22.9296 23.0762 21.9701 21.5855C21.0106 20.0949 20.4162 18.3843 20.2385 16.6021C20.0609 14.8199 20.3053 13.0197 20.9505 11.3573C21.8729 8.97706 23.5664 7.0037 25.7402 5.77596C27.9141 4.54823 30.4327 4.14271 32.8637 4.62905C35.2947 5.11539 37.4865 6.46324 39.0628 8.44121C40.6391 10.4192 41.5015 12.9039 41.502 15.4688V15.5247C41.4862 18.442 40.356 21.2341 38.3585 23.2906C36.361 25.3471 33.6588 26.5006 30.8426 26.4989V26.4927ZM30.8426 6.867C29.1844 6.8669 27.5639 7.38001 26.1891 8.34053C24.8144 9.30105 23.7479 10.6651 23.1267 12.2578C22.6223 13.5539 22.4309 14.9578 22.5689 16.3479C22.7068 17.7379 23.17 19.0721 23.9184 20.2347C24.6668 21.3973 25.6778 22.3532 26.8635 23.0195C28.0492 23.6858 29.3738 24.0423 30.7226 24.0581C31.8238 24.062 32.916 23.8514 33.9421 23.4371C35.4807 22.7999 36.7995 21.6994 37.7282 20.2779C38.6569 18.8564 39.1528 17.1791 39.1519 15.4626V15.4129C39.144 13.1359 38.2649 10.955 36.7073 9.3484C35.1497 7.74178 33.0407 6.84048 30.8426 6.84214V6.867Z" fill="#031C77"/>
<path d="M43.2293 57.5278H18.4569C17.381 57.5278 16.3489 57.0859 15.587 56.2989C14.825 55.5119 14.3953 54.444 14.3922 53.3294V38.6783C14.3969 35.6881 15.5466 32.8219 17.5888 30.7086C19.631 28.5953 22.3991 27.4076 25.2856 27.406H36.3948C39.2813 27.4076 42.0494 28.5953 44.0916 30.7086C46.1338 32.8219 47.2833 35.6881 47.2881 38.6783V53.3294C47.2881 53.8813 47.183 54.4276 46.979 54.9374C46.7749 55.4472 46.4758 55.9103 46.0989 56.3003C45.7219 56.6902 45.2745 56.9994 44.7821 57.21C44.2897 57.4206 43.762 57.5287 43.2293 57.5278ZM25.2856 29.8219C23.0219 29.8219 20.8506 30.7527 19.2488 32.4097C17.647 34.0668 16.7456 36.3146 16.7424 38.6597V53.3108C16.7432 53.5432 16.7881 53.7732 16.8747 53.9876C16.9613 54.2021 17.0878 54.3967 17.2471 54.5605C17.4063 54.7243 17.5951 54.8539 17.8027 54.9421C18.0103 55.0303 18.2326 55.0753 18.4569 55.0745H43.2293C43.6785 55.0708 44.1086 54.886 44.4284 54.5591C44.5865 54.3964 44.7119 54.2028 44.7974 53.9896C44.8828 53.7764 44.9265 53.5478 44.926 53.317V38.6659C44.9213 36.3213 44.0192 34.0745 42.4177 32.4178C40.8162 30.7611 38.646 29.8298 36.3828 29.8281L25.2856 29.8219Z" fill="#031C77"/>
<path d="M35.0479 41.8521C34.7299 41.8521 34.4249 41.7212 34.2 41.4882C33.9751 41.2553 33.8489 40.9394 33.8489 40.61V35.6415C33.7613 35.6298 33.6725 35.6298 33.585 35.6415H28.0454C27.9578 35.6298 27.8692 35.6298 27.7816 35.6415V40.61C27.7266 40.8908 27.5795 41.1432 27.3653 41.3245C27.1512 41.5058 26.8831 41.6048 26.6066 41.6048C26.33 41.6048 26.0619 41.5058 25.8478 41.3245C25.6336 41.1432 25.4866 40.8908 25.4315 40.61V35.2688C25.4315 34.0825 26.5525 33.1943 28.0454 33.1943H33.585C35.0718 33.1943 36.1989 34.0825 36.1989 35.2688V40.61C36.1992 40.931 36.0794 41.2395 35.8648 41.4711C35.6502 41.7027 35.3575 41.8393 35.0479 41.8521Z" fill="#031C77"/>
<path fill-rule="evenodd" clip-rule="evenodd" d="M37.6349 40.6345H24.0437C23.3017 40.6362 22.5904 40.9423 22.0657 41.4859C21.541 42.0295 21.2456 42.7663 21.244 43.535V54.5092C21.2456 55.2785 21.5409 56.0159 22.0654 56.5605C22.59 57.105 23.3011 57.4125 24.0437 57.4158H37.6349C38.3781 57.4125 39.0899 57.1053 39.6154 56.5609C40.1409 56.0165 40.4376 55.2791 40.4408 54.5092V43.535C40.4376 42.7657 40.1408 42.0289 39.6151 41.4855C39.0895 40.9421 38.3775 40.6362 37.6349 40.6345ZM31.5738 49.9505V52.0685C31.5738 52.2694 31.4967 52.4621 31.3595 52.6042C31.2224 52.7463 31.0364 52.8262 30.8424 52.8262C30.6484 52.8262 30.4623 52.7463 30.3251 52.6042C30.188 52.4621 30.1109 52.2694 30.1109 52.0685V49.9505C29.5662 49.7699 29.1019 49.3936 28.8016 48.8895C28.5013 48.3853 28.3847 47.7865 28.473 47.2012C28.5613 46.6159 28.8485 46.0826 29.283 45.6974C29.7175 45.3122 30.2705 45.1004 30.8424 45.1004C31.4143 45.1004 31.9672 45.3122 32.4017 45.6974C32.8361 46.0826 33.1234 46.6159 33.2117 47.2012C33.2999 47.7865 33.1834 48.3853 32.8831 48.8895C32.5827 49.3936 32.1184 49.7699 31.5738 49.9505Z" fill="#031C77"/>
</g>
<defs>
<clipPath id="clip0_807_9648">
<rect width="62" height="62" fill="white"/>
</clipPath>
</defs>
</svg>
