<svg width="54" height="54" fill="none" xmlns="http://www.w3.org/2000/svg"><path fill-rule="evenodd" clip-rule="evenodd" d="M12.313 27.757h2.146l4.01-1.254 5.047 3.185 4.213 2.902 4.844-4.833v8.763a3.79 3.79 0 01-2.247 3.456l.655 4.574h3.851v-8.877a.762.762 0 111.525 0v8.877h6.369v-8.786c0-4.405-3.602-8.007-8.007-8.007h-2.146l-4.009-1.254-5.048 3.185-4.212 2.902-4.845-4.833v8.763a3.79 3.79 0 002.248 3.456l-.655 4.574H12.2v-8.877a.762.762 0 10-1.525 0v8.877h-6.37v-8.786c0-4.405 3.603-8.007 8.007-8.007zm15.71 6.9l1.682 11.79h-5.42V36.159a.769.769 0 00-1.537 0v10.288h-5.42l1.682-11.79 4.506-3.117 4.506 3.117zM23.392.585h.248c6.03 0 10.965 4.935 10.965 10.966v.35a4.013 4.013 0 00-2.349 3.66c0 .936.316 1.806.858 2.495a3.976 3.976 0 00-.858 2.496c0 .711.181 1.389.52 1.965h-2.225a8.094 8.094 0 01-7.035 4.111 8.097 8.097 0 01-7.036-4.111h-2.214a3.975 3.975 0 00.508-1.965c0-.949-.316-1.819-.858-2.496a4.022 4.022 0 00.858-2.496c0-1.626-.96-3.027-2.349-3.659v-.35c0-6.03 4.935-10.966 10.966-10.966zm-12.638 12.48a2.497 2.497 0 01.023 4.99 2.496 2.496 0 11-.046 0 2.497 2.497 0 01.023-4.992zm25.523 0a2.497 2.497 0 012.496 2.495 2.5 2.5 0 01-2.474 2.496 2.497 2.497 0 11-2.518 2.496 2.494 2.494 0 012.484-2.496 2.502 2.502 0 01-2.484-2.496 2.497 2.497 0 012.496-2.496zm-17.753-1.48h-1.581v6.934c0 1.807.745 3.456 1.93 4.641a6.538 6.538 0 004.642 1.932 6.519 6.519 0 004.642-1.932 6.518 6.518 0 001.931-4.641v-6.934h-1.58c-.035 0-.058-.012-.091-.012a9.525 9.525 0 01-2.903-.835 10.116 10.116 0 01-1.999-1.231c-.621.486-1.287.904-1.999 1.23a9.79 9.79 0 01-2.823.825.865.865 0 01-.17.023z" fill="#031C77"/><g clip-path="url(#clip0_1277_23169)"><circle cx="33.315" cy="37.669" r="8.71" fill="#F9F9F9"/><path d="M43.764 44.922a.766.766 0 00-1.108.032l-.486.54-1.2-1.2a9.908 9.908 0 002.398-6.472c0-5.487-4.464-9.951-9.951-9.951-5.495 0-9.9 4.446-9.9 9.951 0 5.494 4.395 9.951 9.9 9.951 2.468 0 4.73-.903 6.47-2.397l1.258 1.257-.54.6a.765.765 0 00.03 1.056l5.09 5.038c.898.897 2.35.897 3.247 0a2.294 2.294 0 00-.002-3.25l-5.206-5.155zm-18.716-7.1c0-4.643 3.754-8.42 8.369-8.42 4.643 0 8.42 3.777 8.42 8.42s-3.777 8.42-8.42 8.42c-4.615 0-8.37-3.777-8.37-8.42zM47.89 52.244a.764.764 0 01-1.085-.002l-4.574-4.528 1.026-1.14 4.633 4.588a.766.766 0 010 1.082z" fill="#031C77"/><path d="M40.198 37.43c-.121-.203-3.008-4.966-6.781-4.966-3.774 0-6.66 4.763-6.782 4.966a.766.766 0 000 .785c.122.202 3.008 4.966 6.782 4.966 3.773 0 6.66-4.764 6.78-4.966a.765.765 0 000-.785zm-6.781 4.22c-2.37 0-4.495-2.782-5.211-3.828 1.149-1.682 3.167-3.827 5.21-3.827 2.37 0 4.495 2.78 5.211 3.828-1.148 1.682-3.167 3.827-5.21 3.827z" fill="#031C77"/><path d="M33.417 35.526a2.3 2.3 0 00-2.297 2.296 2.3 2.3 0 002.297 2.297 2.3 2.3 0 002.296-2.297 2.3 2.3 0 00-2.296-2.296zm0 3.062a.766.766 0 010-1.531.766.766 0 010 1.53z" fill="#031C77"/></g><defs><clipPath id="clip0_1277_23169"><path fill="#fff" transform="translate(23.517 27.871)" d="M0 0h26.129v26.129H0z"/></clipPath></defs></svg>