<svg width="614" height="447" viewBox="0 0 614 447" fill="none" xmlns="http://www.w3.org/2000/svg">
<path d="M613.813 281.634C613.833 281.357 613.862 281.103 613.844 280.836C613.829 280.688 613.829 280.54 613.812 280.402C613.767 280.162 613.67 279.953 613.594 279.739C613.517 279.471 613.441 279.219 613.323 278.959C613.25 278.826 613.209 278.701 613.129 278.576C613.003 278.379 612.828 278.218 612.684 278.036C612.508 277.825 612.352 277.615 612.129 277.432C612.011 277.316 611.889 277.219 611.758 277.115C611.703 277.08 611.676 277.014 611.626 276.98C611.462 276.872 611.269 276.855 611.099 276.77C610.939 276.682 610.812 276.545 610.637 276.478L565.94 259.102L587.618 256.726C587.65 256.72 587.669 256.705 587.694 256.702C588.087 256.659 588.441 256.481 588.804 256.346C589.071 256.254 589.362 256.203 589.61 256.072C589.82 255.95 589.981 255.741 590.18 255.586C590.496 255.33 590.842 255.111 591.094 254.797C591.213 254.651 591.267 254.448 591.366 254.281C591.622 253.88 591.866 253.47 591.999 253.011C591.999 253.011 592.024 252.973 592.03 252.95L607.618 194.773C607.634 194.713 607.616 194.654 607.63 194.599C607.707 194.258 607.693 193.922 607.695 193.582C607.702 193.351 607.785 193.136 607.761 192.892C607.764 192.863 607.74 192.841 607.737 192.816C607.727 192.744 607.704 192.679 607.693 192.611C607.641 192.305 607.495 192.019 607.39 191.728C607.295 191.455 607.248 191.151 607.106 190.905C607.072 190.846 607.015 190.801 606.986 190.744C606.951 190.69 606.949 190.62 606.912 190.576L569.218 134.75C569.089 134.567 568.891 134.455 568.746 134.292C568.492 134.006 568.247 133.718 567.932 133.49C567.674 133.307 567.401 133.199 567.125 133.066C566.81 132.912 566.515 132.759 566.18 132.679C565.832 132.591 565.492 132.604 565.141 132.584C564.897 132.573 564.663 132.485 564.407 132.516L501.605 139.327L452.556 103.307L463.699 61.7198C463.715 61.6598 463.695 61.605 463.709 61.5542C463.771 61.3036 463.757 61.0622 463.776 60.8051C463.798 60.5191 463.826 60.2494 463.808 59.9673C463.795 59.8303 463.798 59.6878 463.775 59.5529C463.728 59.3225 463.632 59.1087 463.561 58.8918C463.478 58.6122 463.399 58.3534 463.271 58.0916C463.206 57.9652 463.171 57.8371 463.094 57.7175C462.978 57.5231 462.796 57.3705 462.647 57.1871C462.472 56.972 462.305 56.7488 462.083 56.5608C461.964 56.4498 461.857 56.3517 461.725 56.2521C461.67 56.2176 461.65 56.1627 461.601 56.1248C461.433 56.0107 461.233 55.9818 461.054 55.8941C460.894 55.8068 460.772 55.6703 460.597 55.6035L376.354 22.4802C376.211 22.4222 376.056 22.4497 375.914 22.4067C375.559 22.3069 375.217 22.2547 374.861 22.2337C374.571 22.2102 374.282 22.1973 373.994 22.2191C373.621 22.2627 373.272 22.3472 372.914 22.4641C372.644 22.55 372.393 22.6362 372.14 22.7665C371.82 22.928 371.545 23.1414 371.257 23.3661C371.01 23.5672 370.785 23.7791 370.572 24.0387C370.471 24.1599 370.328 24.2306 370.236 24.3693L347.418 57.7998L263.453 45.7084L234.837 3.02367C234.707 2.84061 234.51 2.72831 234.372 2.55787C234.118 2.27182 233.873 1.98363 233.559 1.7511C233.311 1.57068 233.033 1.46165 232.757 1.32831C232.442 1.1746 232.139 1.01412 231.8 0.928434C231.462 0.842737 231.104 0.850612 230.762 0.83327C230.517 0.822201 230.296 0.743114 230.042 0.768979L148.793 9.21534C148.764 9.21254 148.743 9.23653 148.716 9.24419C148.63 9.25086 148.56 9.27172 148.472 9.28762C148.18 9.34301 147.911 9.47878 147.622 9.57943C147.582 9.59847 147.543 9.61289 147.5 9.62608C147.269 9.71264 147.011 9.75235 146.797 9.86818C146.721 9.91212 146.671 9.9681 146.6 10.0133C146.545 10.0529 146.476 10.0495 146.432 10.087C146.238 10.2182 146.127 10.4309 145.954 10.5775C145.739 10.7675 145.485 10.9221 145.312 11.143C145.247 11.2196 145.22 11.3014 145.169 11.3817C144.98 11.6429 144.875 11.9264 144.738 12.2163C144.625 12.4532 144.468 12.6686 144.399 12.9271L144.357 13.0099L128.768 71.1861C128.757 71.2276 128.775 71.272 128.764 71.3135C128.664 71.7072 128.699 72.0928 128.683 72.4844C128.687 72.7628 128.632 73.0447 128.669 73.3121C128.71 73.6003 128.855 73.8567 128.953 74.1354C129.07 74.4934 129.169 74.8614 129.363 75.1905C129.388 75.2269 129.388 75.2814 129.413 75.3177L130.375 76.8076L118.518 82.5679L53.4736 56.7858C53.3296 56.7324 53.1749 56.7553 53.0364 56.7182C52.6292 56.5942 52.2265 56.5457 51.8118 56.5237C51.6148 56.5204 51.4236 56.5137 51.2274 56.5254C50.7492 56.5557 50.3057 56.6595 49.8415 56.8222C49.6653 56.8888 49.5008 56.9486 49.3302 57.0315C48.957 57.2235 48.6252 57.4464 48.2981 57.7249C48.0701 57.9113 47.8672 58.1143 47.6767 58.3453C47.562 58.4778 47.4097 58.5657 47.3123 58.7078L16.8061 104.296C16.6979 104.46 16.6761 104.652 16.5863 104.821C16.4989 104.981 16.3624 105.103 16.2944 105.282C16.2626 105.383 16.281 105.462 16.2399 105.56C16.2127 105.661 16.1409 105.726 16.1149 105.823L0.457286 164.258C0.391717 164.503 0.439759 164.748 0.40899 164.993C0.369465 165.343 0.319806 165.676 0.341869 166.019C0.371029 166.353 0.465826 166.646 0.560283 166.958C0.640558 167.286 0.721172 167.595 0.879699 167.89C1.01852 168.184 1.22668 168.423 1.42282 168.689C1.62942 168.952 1.80708 169.212 2.06085 169.429C2.32846 169.649 2.63186 169.809 2.94541 169.987C3.15895 170.114 3.32071 170.286 3.558 170.379L48.4759 187.819L26.817 190.195C26.7856 190.202 26.7668 190.217 26.7412 190.22C26.6691 190.23 26.6038 190.252 26.5339 190.273C26.2386 190.322 25.973 190.464 25.6884 190.566C25.6662 190.575 25.6419 190.573 25.6289 190.585C25.3711 190.679 25.0828 190.72 24.8323 190.861C24.775 190.89 24.73 190.948 24.6727 190.977C24.6188 191.012 24.5504 191.008 24.5045 191.05C24.3039 191.19 24.1845 191.395 24.0066 191.56C23.7899 191.76 23.536 191.894 23.3606 192.125C23.298 192.192 23.277 192.27 23.2316 192.347C23.0428 192.608 22.9347 192.901 22.7964 193.196C22.6856 193.443 22.5268 193.648 22.4538 193.92C22.4538 193.92 22.4288 193.958 22.4226 193.981L6.83435 252.158C6.81827 252.218 6.83699 252.277 6.82214 252.332C6.73826 252.701 6.75752 253.072 6.75122 253.447C6.75548 253.745 6.70525 254.043 6.75049 254.317C6.80216 254.623 6.94256 254.893 7.0432 255.183C7.16842 255.528 7.27729 255.879 7.46814 256.182C7.50194 256.241 7.50433 256.306 7.53722 256.349L45.2315 312.175C45.2893 312.255 45.3629 312.294 45.4219 312.37C45.626 312.642 45.8551 312.877 46.1089 313.093C46.2276 313.204 46.3174 313.312 46.4444 313.411C46.5235 313.466 46.5807 313.511 46.661 313.563C47.116 313.878 47.6185 314.126 48.1679 314.273C48.7635 314.433 49.4014 314.49 50.0543 314.417L112.857 307.606L161.651 343.543L150.504 385.143C150.44 385.383 150.491 385.615 150.459 385.863C150.417 386.223 150.368 386.556 150.397 386.891C150.423 387.219 150.512 387.515 150.6 387.831C150.683 388.15 150.771 388.466 150.92 388.763C151.07 389.051 151.257 389.294 151.456 389.55C151.661 389.818 151.853 390.082 152.111 390.3C152.365 390.516 152.653 390.677 152.948 390.851C153.163 390.972 153.328 391.15 153.574 391.251L237.749 424.608C237.942 424.68 238.123 424.743 238.317 424.795L238.322 424.796C238.336 424.8 238.342 424.797 238.355 424.8C238.911 424.944 239.482 424.974 240.043 424.931C240.124 424.923 240.194 424.922 240.266 424.911C240.42 424.888 240.565 424.828 240.725 424.787C241.055 424.717 241.375 424.63 241.687 424.5C241.821 424.442 241.942 424.4 242.063 424.334C242.197 424.261 242.298 424.179 242.423 424.099C242.665 423.936 242.892 423.754 243.11 423.55C243.253 423.421 243.393 423.285 243.529 423.128C243.609 423.036 243.69 422.954 243.764 422.845C243.809 422.788 243.874 422.746 243.914 422.692L266.542 388.993L350.614 401.623L379.644 443.928C379.695 443.996 379.763 444.039 379.815 444.102C380.011 444.368 380.243 444.593 380.492 444.808C380.61 444.924 380.71 445.03 380.836 445.133C380.907 445.182 380.967 445.232 381.038 445.281C381.501 445.588 382.003 445.837 382.548 445.983C383.143 446.142 383.772 446.197 384.419 446.128L465.402 437.62C465.431 437.623 465.456 437.6 465.488 437.594C465.912 437.544 466.295 437.37 466.686 437.222C466.917 437.135 467.176 437.091 467.392 436.971C467.679 436.805 467.893 436.56 468.144 436.341C468.395 436.126 468.689 435.952 468.885 435.703C469.044 435.513 469.118 435.256 469.231 435.039C469.447 434.676 469.67 434.325 469.795 433.913C469.795 433.913 469.822 433.866 469.83 433.838L485.418 375.662L485.422 375.535C485.508 375.196 485.475 374.856 485.496 374.52C485.507 374.276 485.588 374.05 485.56 373.8C485.554 373.769 485.541 373.745 485.534 373.714C485.529 373.658 485.521 373.596 485.51 373.544C485.469 373.256 485.325 372.999 485.226 372.721C485.201 372.63 485.173 372.548 485.137 372.464C485.051 372.248 485.029 372.015 484.913 371.82C484.884 371.763 484.846 371.718 484.811 371.664C484.787 371.628 484.786 371.573 484.761 371.537L483.8 370.047L495.656 364.287L560.708 390.041C560.897 390.112 561.078 390.175 561.268 390.226L561.272 390.227C561.286 390.231 561.292 390.227 561.306 390.231C561.861 390.375 562.432 390.404 562.993 390.361C563.074 390.353 563.144 390.352 563.225 390.344C563.38 390.321 563.515 390.259 563.68 390.219C564.008 390.158 564.329 390.066 564.641 389.937C564.776 389.874 564.902 389.829 565.03 389.759C565.163 389.686 565.265 389.604 565.385 389.523C565.623 389.374 565.843 389.2 566.052 388.994C566.207 388.857 566.353 388.718 566.492 388.567C566.575 388.461 566.657 388.379 566.731 388.27C566.766 388.21 566.834 388.179 566.869 388.124L597.375 342.535C597.538 342.297 597.578 342.016 597.695 341.765C597.812 341.514 597.988 341.299 598.065 341.013L613.722 282.578C613.74 282.513 613.722 282.449 613.729 282.387C613.797 282.133 613.784 281.887 613.812 281.632L613.813 281.634ZM576.149 321.033L512.952 295.741C512.907 295.724 512.855 295.735 512.81 295.718C512.719 295.688 512.631 295.665 512.539 295.64C512.476 295.618 512.43 295.566 512.37 295.55C512.111 295.481 511.856 295.531 511.601 295.503C511.54 295.491 511.475 295.474 511.416 295.473C511.239 295.47 511.057 295.391 510.881 295.399C510.768 295.398 510.667 295.425 510.558 295.441C510.217 295.478 509.915 295.59 509.594 295.678C509.368 295.746 509.132 295.761 508.922 295.859C508.873 295.875 508.823 295.877 508.785 295.891L448.228 325.391C448.103 325.451 448.035 325.557 447.921 325.63C447.812 325.685 447.69 325.697 447.587 325.768C447.407 325.888 447.305 326.084 447.139 326.222C446.878 326.459 446.619 326.686 446.413 326.973C446.213 327.241 446.075 327.516 445.932 327.809C445.782 328.11 445.647 328.391 445.56 328.719C445.479 329.038 445.453 329.358 445.43 329.683C445.411 330.01 445.4 330.329 445.432 330.654C445.475 330.992 445.58 331.302 445.688 331.638C445.764 331.852 445.749 332.075 445.858 332.277C445.912 332.391 446.018 332.454 446.081 332.555C446.148 332.672 446.162 332.804 446.231 332.917L471.571 370.121L401.973 377.433L373.404 335.811C373.368 335.757 373.314 335.737 373.286 335.695C373.276 335.678 373.262 335.674 373.252 335.656C373.145 335.519 373.003 335.441 372.898 335.314C372.645 335.039 372.412 334.763 372.102 334.556C371.827 334.364 371.525 334.253 371.209 334.119C370.971 334.011 370.765 333.837 370.497 333.765C370.424 333.745 370.348 333.77 370.283 333.752C370.194 333.733 370.126 333.71 370.038 333.687C369.996 333.68 369.968 333.653 369.934 333.654L280.426 320.196C280.179 320.159 279.956 320.233 279.7 320.229C279.402 320.233 279.103 320.183 278.803 320.231C278.705 320.249 278.614 320.275 278.521 320.289C278.245 320.359 278.011 320.494 277.751 320.593C277.495 320.702 277.223 320.773 276.979 320.91C276.893 320.971 276.808 321.013 276.727 321.075C276.501 321.233 276.329 321.449 276.131 321.653C275.918 321.858 275.698 322.032 275.524 322.277C275.489 322.332 275.423 322.359 275.39 322.405L253.262 355.366L178.921 325.901L199.928 295.128C200.126 294.835 200.194 294.507 200.325 294.2C200.449 293.907 200.625 293.637 200.691 293.333C200.767 292.997 200.724 292.659 200.734 292.325C200.737 292 200.788 291.682 200.734 291.365C200.677 291.043 200.521 290.754 200.408 290.457C200.294 290.144 200.218 289.817 200.036 289.535C199.851 289.229 199.561 289.002 199.315 288.738C199.11 288.525 198.967 288.264 198.717 288.088L198.585 287.989L133.036 240.06L133.032 240.059L132.907 239.971C132.715 239.82 132.481 239.787 132.265 239.67C131.935 239.497 131.635 239.288 131.28 239.188C131.253 239.181 131.233 239.161 131.206 239.154C131.178 239.146 131.156 239.155 131.128 239.148C130.748 239.051 130.377 239.09 130 239.073C129.769 239.066 129.554 238.983 129.315 239.008L67.6103 245.693L36.4164 199.493L70.49 195.752L70.4946 195.753L73.4893 195.491C73.509 195.492 73.529 195.472 73.5488 195.473C73.5777 195.475 73.5962 195.48 73.6263 195.479L92.4944 193.324C92.8267 193.285 93.0867 193.127 93.3898 193.03C93.7068 192.936 94.0382 192.882 94.3201 192.735C94.6208 192.573 94.8461 192.341 95.0989 192.137C95.3528 191.928 95.6317 191.755 95.8435 191.5C96.0588 191.251 96.1706 190.944 96.3307 190.66C96.4921 190.372 96.6855 190.112 96.7825 189.787C96.8938 189.445 96.8871 189.082 96.9221 188.731C96.9489 188.446 97.0508 188.176 97.0315 187.879L93.4066 133.145C93.4042 133.08 93.3692 133.026 93.3538 132.973C93.3244 132.658 93.2163 132.396 93.1424 132.1C93.0645 131.836 93.0261 131.574 92.9121 131.315C92.8731 131.221 92.8246 131.143 92.7856 131.049C92.6529 130.805 92.4474 130.612 92.2703 130.386C92.1092 130.175 91.9719 129.93 91.7698 129.742C91.6898 129.672 91.6145 129.602 91.5333 129.536C91.3309 129.367 91.0843 129.272 90.857 129.142C90.7742 129.1 90.7124 129.053 90.632 129.002C90.4631 128.912 90.3367 128.774 90.157 128.707L90.0096 128.647L89.9496 128.631L28.8885 104.713L53.5324 67.8879L116.826 92.9482C117.015 93.0186 117.196 93.082 117.385 93.1327L117.39 93.1339C117.436 93.1463 117.485 93.1297 117.531 93.1421C118.08 93.2743 118.645 93.3267 119.218 93.2725C119.661 93.2278 120.074 93.0713 120.486 92.9193C120.652 92.8549 120.814 92.8588 120.962 92.7848L120.998 92.7645C120.998 92.7645 121.02 92.7556 121.03 92.7534L140.045 83.5128C140.05 83.514 140.065 83.5131 140.065 83.5131L181.77 63.3678C181.906 63.3052 181.983 63.1824 182.106 63.1114C182.208 63.0447 182.323 63.0409 182.423 62.9834C182.603 62.8635 182.698 62.6761 182.865 62.5329C183.136 62.2985 183.385 62.0685 183.588 61.7913C183.793 61.5246 183.933 61.2452 184.076 60.952C184.223 60.6599 184.36 60.37 184.436 60.049C184.523 59.7258 184.557 59.4133 184.575 59.0866C184.598 58.7612 184.614 58.4438 184.577 58.1023C184.533 57.7688 184.434 57.4703 184.33 57.1404C184.255 56.9223 184.27 56.6988 184.162 56.4917C184.098 56.3608 183.987 56.2963 183.919 56.1792C183.852 56.0621 183.849 55.9427 183.779 55.8348L158.396 18.5506L228.006 11.3208L256.166 53.3092L256.186 53.3444C256.257 53.4476 256.359 53.5096 256.442 53.6061C256.744 53.9938 257.056 54.3643 257.459 54.6505C257.929 54.9842 258.449 55.2225 258.995 55.3836C259.041 55.396 259.075 55.4348 259.121 55.4472L259.126 55.4484C259.32 55.5004 259.522 55.5397 259.725 55.5745L349.113 68.4457C349.242 68.4606 349.353 68.4161 349.479 68.4252C349.916 68.458 350.344 68.4293 350.777 68.3473C350.971 68.3053 351.163 68.2923 351.341 68.2362C351.854 68.0767 352.346 67.8473 352.799 67.543C352.843 67.5055 352.907 67.488 352.951 67.4551C353.384 67.1308 353.784 66.7282 354.104 66.2547L376.423 33.562L450.879 62.8208L429.704 94.1036L429.699 94.122C429.699 94.122 429.678 94.146 429.672 94.1494C429.445 94.4992 429.364 94.8735 429.23 95.2435C429.13 95.5085 428.968 95.7423 428.913 96.0046C428.842 96.3964 428.9 96.7731 428.914 97.1629C428.926 97.4333 428.876 97.7119 428.922 97.9817C428.99 98.3214 429.176 98.6236 429.305 98.9354C429.424 99.2296 429.49 99.5391 429.667 99.7995C429.866 100.11 430.178 100.332 430.448 100.598C430.67 100.805 430.82 101.058 431.079 101.237L431.097 101.242C431.11 101.25 431.112 101.26 431.124 101.269L443.735 109.591L497.124 148.793C497.17 148.825 497.231 148.836 497.281 148.87C497.754 149.194 498.266 149.46 498.834 149.612C499.397 149.763 499.98 149.786 500.551 149.741C500.606 149.741 500.663 149.766 500.716 149.755L562.42 143.07L593.613 189.255L537.299 195.365C536.993 195.397 536.74 195.547 536.455 195.634C536.106 195.734 535.754 195.793 535.449 195.953C535.166 196.105 534.952 196.33 534.709 196.537C534.439 196.747 534.144 196.925 533.923 197.197C533.729 197.422 533.641 197.696 533.488 197.952C533.305 198.264 533.095 198.569 532.983 198.915C532.891 199.202 532.906 199.513 532.87 199.815C532.827 200.16 532.712 200.48 532.744 200.84L536.696 255.384C536.721 255.733 536.84 256.046 536.924 256.361C536.975 256.523 536.981 256.683 537.04 256.832C537.259 257.401 537.556 257.916 537.95 258.368C538.04 258.476 538.16 258.543 538.255 258.633C538.604 258.974 538.985 259.269 539.414 259.497C539.497 259.539 539.543 259.626 539.632 259.665L542.337 260.944C542.435 260.985 542.518 261.007 542.616 261.048C542.644 261.056 542.654 261.073 542.676 261.084L600.972 283.741L576.149 321.033Z" fill="#181816"/>
</svg>
