<svg width="42" height="38" viewBox="0 0 42 38" fill="none" xmlns="http://www.w3.org/2000/svg">
<path d="M25.0651 16.0867C24.7057 15.7273 24.2183 15.5255 23.71 15.5255C23.2018 15.5255 22.7144 15.7273 22.355 16.0867L20.9999 17.4398C20.6463 17.8059 20.2233 18.098 19.7556 18.2989C19.2879 18.4998 18.7849 18.6055 18.2759 18.6099C17.7669 18.6144 17.2622 18.5174 16.7911 18.3246C16.32 18.1319 15.892 17.8473 15.532 17.4873C15.1721 17.1274 14.8875 16.6994 14.6947 16.2283C14.502 15.7572 14.405 15.2524 14.4094 14.7435C14.4138 14.2345 14.5196 13.7315 14.7205 13.2638C14.9214 12.7961 15.2134 12.3731 15.5795 12.0195L26.3704 1.22482C28.9252 0.643739 31.5981 0.882885 34.0091 1.90826C36.4202 2.93363 38.4466 4.69303 39.8002 6.93628C41.1539 9.17953 41.7658 11.7925 41.5491 14.4035C41.3324 17.0145 40.2979 19.4908 38.593 21.4802L34.5526 25.5722L25.0651 16.0847V16.0867ZM4.05847 4.56365C6.04175 2.58063 8.63589 1.32445 11.4215 0.998207C14.207 0.671966 17.0212 1.29473 19.409 2.76582L12.8675 9.30932C11.4507 10.7233 10.643 12.6353 10.6172 14.6368C10.5913 16.6383 11.3493 18.5706 12.729 20.0207C14.1088 21.4708 16.001 22.3238 18.0014 22.3974C20.0017 22.471 21.9514 21.7593 23.434 20.4145L23.71 20.1519L31.8425 28.2824L23.71 36.4148C22.9912 37.1335 22.0163 37.5372 20.9999 37.5372C19.9834 37.5372 19.0086 37.1335 18.2897 36.4148L4.05655 22.1817C1.72039 19.8453 0.407959 16.6766 0.407959 13.3727C0.407959 10.0687 1.72039 6.90001 4.05655 4.56365H4.05847Z" fill="#EB4545"/>
</svg>
